<svg class="main-svg" xmlns="http://www.w3.org/2000/svg" xmlns:xlink="http://www.w3.org/1999/xlink" width="600" height="800" style="" viewBox="0 0 600 800"><rect x="0" y="0" width="600" height="800" style="fill: rgb(255, 255, 255); fill-opacity: 1;"/><defs id="defs-d288a8"><g class="clips"><clipPath id="clipd288a8xyplot" class="plotclip"><rect width="440" height="186.00000000000003"/></clipPath><clipPath id="clipd288a8x2y2plot" class="plotclip"><rect width="440" height="185.99999999999997"/></clipPath><clipPath id="clipd288a8x3y3plot" class="plotclip"><rect width="440" height="186"/></clipPath><clipPath class="axesclip" id="clipd288a8x"><rect x="80" y="0" width="440" height="800"/></clipPath><clipPath class="axesclip" id="clipd288a8y"><rect x="0" y="100" width="600" height="186.00000000000003"/></clipPath><clipPath class="axesclip" id="clipd288a8xy"><rect x="80" y="100" width="440" height="186.00000000000003"/></clipPath><clipPath class="axesclip" id="clipd288a8y2"><rect x="0" y="317.00000000000006" width="600" height="185.99999999999997"/></clipPath><clipPath class="axesclip" id="clipd288a8xy2"><rect x="80" y="317.00000000000006" width="440" height="185.99999999999997"/></clipPath><clipPath class="axesclip" id="clipd288a8y3"><rect x="0" y="534" width="600" height="186"/></clipPath><clipPath class="axesclip" id="clipd288a8xy3"><rect x="80" y="534" width="440" height="186"/></clipPath><clipPath class="axesclip" id="clipd288a8x2"><rect x="80" y="0" width="440" height="800"/></clipPath><clipPath class="axesclip" id="clipd288a8x2y"><rect x="80" y="100" width="440" height="186.00000000000003"/></clipPath><clipPath class="axesclip" id="clipd288a8x2y2"><rect x="80" y="317.00000000000006" width="440" height="185.99999999999997"/></clipPath><clipPath class="axesclip" id="clipd288a8x2y3"><rect x="80" y="534" width="440" height="186"/></clipPath><clipPath class="axesclip" id="clipd288a8x3"><rect x="80" y="0" width="440" height="800"/></clipPath><clipPath class="axesclip" id="clipd288a8x3y"><rect x="80" y="100" width="440" height="186.00000000000003"/></clipPath><clipPath class="axesclip" id="clipd288a8x3y2"><rect x="80" y="317.00000000000006" width="440" height="185.99999999999997"/></clipPath><clipPath class="axesclip" id="clipd288a8x3y3"><rect x="80" y="534" width="440" height="186"/></clipPath></g><g class="gradients"/><g class="patterns"/></defs><g class="bglayer"><rect class="bg" x="80" y="100" width="440" height="186.00000000000003" style="fill: rgb(229, 236, 246); fill-opacity: 1; stroke-width: 0;"/><rect class="bg" x="80" y="317.00000000000006" width="440" height="185.99999999999997" style="fill: rgb(229, 236, 246); fill-opacity: 1; stroke-width: 0;"/><rect class="bg" x="80" y="534" width="440" height="186" style="fill: rgb(229, 236, 246); fill-opacity: 1; stroke-width: 0;"/></g><g class="layer-below"><g class="imagelayer"/><g class="shapelayer"/></g><g class="cartesianlayer"><g class="subplot xy"><g class="layer-subplot"><g class="shapelayer"/><g class="imagelayer"/></g><g class="minor-gridlayer"><g class="x"/><g class="y"/></g><g class="gridlayer"><g class="x"><path class="xgrid crisp" transform="translate(156.15,0)" d="M0,100v186.00000000000003" style="stroke: rgb(255, 255, 255); stroke-opacity: 1; stroke-width: 1px;"/><path class="xgrid crisp" transform="translate(240.77,0)" d="M0,100v186.00000000000003" style="stroke: rgb(255, 255, 255); stroke-opacity: 1; stroke-width: 1px;"/><path class="xgrid crisp" transform="translate(325.38,0)" d="M0,100v186.00000000000003" style="stroke: rgb(255, 255, 255); stroke-opacity: 1; stroke-width: 1px;"/><path class="xgrid crisp" transform="translate(410,0)" d="M0,100v186.00000000000003" style="stroke: rgb(255, 255, 255); stroke-opacity: 1; stroke-width: 1px;"/><path class="xgrid crisp" transform="translate(494.62,0)" d="M0,100v186.00000000000003" style="stroke: rgb(255, 255, 255); stroke-opacity: 1; stroke-width: 1px;"/></g><g class="y"><path class="ygrid crisp" transform="translate(0,248.8)" d="M80,0h440" style="stroke: rgb(255, 255, 255); stroke-opacity: 1; stroke-width: 1px;"/><path class="ygrid crisp" transform="translate(0,211.6)" d="M80,0h440" style="stroke: rgb(255, 255, 255); stroke-opacity: 1; stroke-width: 1px;"/><path class="ygrid crisp" transform="translate(0,174.4)" d="M80,0h440" style="stroke: rgb(255, 255, 255); stroke-opacity: 1; stroke-width: 1px;"/><path class="ygrid crisp" transform="translate(0,137.2)" d="M80,0h440" style="stroke: rgb(255, 255, 255); stroke-opacity: 1; stroke-width: 1px;"/></g></g><g class="zerolinelayer"><path class="yzl zl crisp" transform="translate(0,286)" d="M80,0h440" style="stroke: rgb(255, 255, 255); stroke-opacity: 1; stroke-width: 2px;"/></g><path class="xlines-below"/><path class="ylines-below"/><g class="overlines-below"/><g class="xaxislayer-below"/><g class="yaxislayer-below"/><g class="overaxes-below"/><g class="plot" transform="translate(80,100)" clip-path="url(#clipd288a8xyplot)"><g class="scatterlayer mlayer"><g class="trace scatter traceb27083" style="stroke-miterlimit: 2;"><g class="fills"><g><path class="js-fill" d="M0,186L118.46,185.93L126.92,182.31L135.38,183.04L143.85,163.6L152.31,181.34L160.77,168.2L169.23,148.29L177.69,163.36L186.15,137.09L194.62,132.32L203.08,149.53L211.54,151.55L220,140.24L228.46,138.28L236.92,147.09L245.38,137.77L253.85,166.77L262.31,141.51L270.77,148.06L279.23,145L287.69,156.58L296.15,155.96L304.62,148.92L313.08,162.44L321.54,161.48L330,170.03L338.46,174.57L346.92,178.17L355.38,186L363.85,185.99L440,186L440,186L431.54,186L423.08,186L321.54,185.5L313.08,185.17L304.62,183.96L296.15,175.08L279.23,177.81L270.77,165.37L262.31,184.64L253.85,183.36L245.38,168.19L236.92,167.04L228.46,180.86L220,182.86L211.54,175.67L203.08,183.05L194.62,165.76L186.15,183.83L177.69,185.57L169.23,181.4L160.77,184.98L152.31,186L0,186Z" style="fill: rgb(224, 236, 244); fill-opacity: 1; stroke-width: 0;"/></g></g><g class="errorbars"/><g class="lines"><path class="js-line" d="M0,186L152.31,186L160.77,184.98L169.23,181.4L177.69,185.57L186.15,183.83L194.62,165.76L203.08,183.05L211.54,175.67L220,182.86L228.46,180.86L236.92,167.04L245.38,168.19L253.85,183.36L262.31,184.64L270.77,165.37L279.23,177.81L296.15,175.08L304.62,183.96L313.08,185.17L321.54,185.5L423.08,186L431.54,186L440,186" style="vector-effect: non-scaling-stroke; fill: none; stroke: rgb(0, 0, 0); stroke-opacity: 1; stroke-width: 0.25px; opacity: 1;"/></g><g class="points"/><g class="text"/></g><g class="trace scatter traceadb304" style="stroke-miterlimit: 2;"><g class="fills"><g><path class="js-fill" d="M0,186L84.62,185.55L93.08,183.06L101.54,184.04L110,173.28L118.46,183.94L126.92,168.28L135.38,164.28L143.85,155.51L152.31,166.88L160.77,139.3L169.23,120.54L177.69,139.25L186.15,108.16L194.62,91.9L203.08,104.59L211.54,104.07L220,104.32L228.46,111.59L236.92,121.73L245.38,106.87L253.85,125.6L262.31,106.73L270.77,99.43L279.23,109.02L287.69,142.56L296.15,143.76L304.62,126.29L313.08,148.04L321.54,133.43L330,155.63L338.46,147.94L346.92,162.86L355.38,184.89L363.85,185.41L380.77,186L389.23,186L440,186L440,186L363.85,185.99L355.38,186L346.92,178.17L338.46,174.57L330,170.03L321.54,161.48L313.08,162.44L304.62,148.92L296.15,155.96L287.69,156.58L279.23,145L270.77,148.06L262.31,141.51L253.85,166.77L245.38,137.77L236.92,147.09L228.46,138.28L220,140.24L211.54,151.55L203.08,149.53L194.62,132.32L186.15,137.09L177.69,163.36L169.23,148.29L160.77,168.2L152.31,181.34L143.85,163.6L135.38,183.04L126.92,182.31L118.46,185.93L0,186Z" style="fill: rgb(158, 188, 218); fill-opacity: 1; stroke-width: 0;"/></g></g><g class="errorbars"/><g class="lines"><path class="js-line" d="M0,186L118.46,185.93L126.92,182.31L135.38,183.04L143.85,163.6L152.31,181.34L160.77,168.2L169.23,148.29L177.69,163.36L186.15,137.09L194.62,132.32L203.08,149.53L211.54,151.55L220,140.24L228.46,138.28L236.92,147.09L245.38,137.77L253.85,166.77L262.31,141.51L270.77,148.06L279.23,145L287.69,156.58L296.15,155.96L304.62,148.92L313.08,162.44L321.54,161.48L330,170.03L338.46,174.57L346.92,178.17L355.38,186L363.85,185.99L440,186" style="vector-effect: non-scaling-stroke; fill: none; stroke: rgb(0, 0, 0); stroke-opacity: 1; stroke-width: 0.5px; opacity: 1;"/></g><g class="points"/><g class="text"/></g><g class="trace scatter trace7cbb68" style="stroke-miterlimit: 2;"><g class="fills"><g><path class="js-fill" d="M0,185.92L33.85,185.77L42.31,185.14L50.77,182.81L59.23,183.11L67.69,181.07L76.15,182.31L84.62,183.06L93.08,173.81L101.54,178.02L110,153.47L118.46,174.77L126.92,154.6L135.38,153.95L143.85,133.94L152.31,110.28L160.77,98.52L169.23,97.78L177.69,89.56L194.62,64.58L203.08,47.38L211.54,17.08L220,62.31L228.46,12.03L236.92,60.22L245.38,66.2L253.85,53.98L262.31,91.1L270.77,79.75L279.23,82.71L287.69,103.29L296.15,113.56L304.62,106.73L313.08,113.87L321.54,86.54L330,139.31L338.46,111.98L346.92,147.1L355.38,172.4L363.85,182.01L372.31,182.69L380.77,179.43L389.23,185.98L440,186L440,186L389.23,186L380.77,186L363.85,185.41L355.38,184.89L346.92,162.86L338.46,147.94L330,155.63L321.54,133.43L313.08,148.04L304.62,126.29L296.15,143.76L287.69,142.56L279.23,109.02L270.77,99.43L262.31,106.73L253.85,125.6L245.38,106.87L236.92,121.73L228.46,111.59L220,104.32L211.54,104.07L203.08,104.59L194.62,91.9L186.15,108.16L177.69,139.25L169.23,120.54L160.77,139.3L152.31,166.88L143.85,155.51L135.38,164.28L126.92,168.28L118.46,183.94L110,173.28L101.54,184.04L93.08,183.06L84.62,185.55L0,186Z" style="fill: rgb(158, 188, 218); fill-opacity: 1; stroke-width: 0;"/></g></g><g class="errorbars"/><g class="lines"><path class="js-line" d="M0,186L84.62,185.55L93.08,183.06L101.54,184.04L110,173.28L118.46,183.94L126.92,168.28L135.38,164.28L143.85,155.51L152.31,166.88L160.77,139.3L169.23,120.54L177.69,139.25L186.15,108.16L194.62,91.9L203.08,104.59L211.54,104.07L220,104.32L228.46,111.59L236.92,121.73L245.38,106.87L253.85,125.6L262.31,106.73L270.77,99.43L279.23,109.02L287.69,142.56L296.15,143.76L304.62,126.29L313.08,148.04L321.54,133.43L330,155.63L338.46,147.94L346.92,162.86L355.38,184.89L363.85,185.41L380.77,186L389.23,186L440,186" style="vector-effect: non-scaling-stroke; fill: none; stroke: rgb(0, 0, 0); stroke-opacity: 1; stroke-width: 1px; opacity: 1;"/></g><g class="points"/><g class="text"/></g><g class="trace scatter trace1f8b61" style="stroke-miterlimit: 2;"><g class="fills"><g><path class="js-fill" d="M0,185.88L33.85,185.75L42.31,184.22L50.77,181.41L59.23,182.5L67.69,174.73L76.15,179.86L84.62,182.64L93.08,162.66L101.54,170.74L110,110.99L118.46,172.66L126.92,128.95L135.38,114.49L143.85,98.34L152.31,22.29L160.77,27.48L169.23,34.59L177.69,42.77L186.15,13.59L194.62,1.84L203.08,-42.07L211.54,-122.6L220,6.14L228.46,-64.13L236.92,1.3L245.38,-24.72L253.85,-55.99L262.31,60.66L270.77,52.56L279.23,10.51L287.69,51.51L296.15,69.89L304.62,60.67L313.08,54.07L321.54,50.83L330,94.35L338.46,39.32L346.92,104.11L355.38,158.91L363.85,179.31L372.31,181.55L380.77,171.66L389.23,185.97L397.69,186L440,186L440,186L389.23,185.98L380.77,179.43L372.31,182.69L363.85,182.01L355.38,172.4L346.92,147.1L338.46,111.98L330,139.31L321.54,86.54L313.08,113.87L304.62,106.73L296.15,113.56L287.69,103.29L279.23,82.71L270.77,79.75L262.31,91.1L253.85,53.98L245.38,66.2L236.92,60.22L228.46,12.03L220,62.31L211.54,17.08L203.08,47.38L194.62,64.58L177.69,89.56L169.23,97.78L160.77,98.52L152.31,110.28L143.85,133.94L135.38,153.95L126.92,154.6L118.46,174.77L110,153.47L101.54,178.02L93.08,173.81L84.62,183.06L76.15,182.31L67.69,181.07L59.23,183.11L50.77,182.81L42.31,185.14L33.85,185.77L0,185.92Z" style="fill: rgb(136, 86, 167); fill-opacity: 1; stroke-width: 0;"/></g></g><g class="errorbars"/><g class="lines"><path class="js-line" d="M0,185.92L33.85,185.77L42.31,185.14L50.77,182.81L59.23,183.11L67.69,181.07L76.15,182.31L84.62,183.06L93.08,173.81L101.54,178.02L110,153.47L118.46,174.77L126.92,154.6L135.38,153.95L143.85,133.94L152.31,110.28L160.77,98.52L169.23,97.78L177.69,89.56L194.62,64.58L203.08,47.38L211.54,17.08L220,62.31L228.46,12.03L236.92,60.22L245.38,66.2L253.85,53.98L262.31,91.1L270.77,79.75L279.23,82.71L287.69,103.29L296.15,113.56L304.62,106.73L313.08,113.87L321.54,86.54L330,139.31L338.46,111.98L346.92,147.1L355.38,172.4L363.85,182.01L372.31,182.69L380.77,179.43L389.23,185.98L440,186" style="vector-effect: non-scaling-stroke; fill: none; stroke: rgb(0, 0, 0); stroke-opacity: 1; stroke-width: 0.5px; opacity: 1;"/></g><g class="points"/><g class="text"/></g><g class="trace scatter traceac6890" style="stroke-miterlimit: 2;"><g class="fills"/><g class="errorbars"/><g class="lines"><path class="js-line" d="M0,185.88L33.85,185.75L42.31,184.22L50.77,181.41L59.23,182.5L67.69,174.73L76.15,179.86L84.62,182.64L93.08,162.66L101.54,170.74L110,110.99L118.46,172.66L126.92,128.95L135.38,114.49L143.85,98.34L152.31,22.29L160.77,27.48L169.23,34.59L177.69,42.77L186.15,13.59L194.62,1.84L203.08,-42.07L211.54,-122.6L220,6.14L228.46,-64.13L236.92,1.3L245.38,-24.72L253.85,-55.99L262.31,60.66L270.77,52.56L279.23,10.51L287.69,51.51L296.15,69.89L304.62,60.67L313.08,54.07L321.54,50.83L330,94.35L338.46,39.32L346.92,104.11L355.38,158.91L363.85,179.31L372.31,181.55L380.77,171.66L389.23,185.97L397.69,186L440,186" style="vector-effect: non-scaling-stroke; fill: none; stroke: rgb(0, 0, 0); stroke-opacity: 1; stroke-width: 0.25px; opacity: 1;"/></g><g class="points"/><g class="text"/></g><g class="trace scatter trace24a0b5" style="stroke-miterlimit: 2; opacity: 1;"><g class="fills"/><g class="errorbars"/><g class="lines"/><g class="points"><path class="point" transform="translate(169.23,114.58)" d="M4,0A4,4 0 1,1 0,-4A4,4 0 0,1 4,0ZM0,0.5L0.5,0L0,-0.5L-0.5,0Z" style="opacity: 1; stroke: rgb(0, 0, 0); stroke-opacity: 1; stroke-width: 1px; fill: none;"/><path class="point" transform="translate(177.69,139.13)" d="M4,0A4,4 0 1,1 0,-4A4,4 0 0,1 4,0ZM0,0.5L0.5,0L0,-0.5L-0.5,0Z" style="opacity: 1; stroke: rgb(0, 0, 0); stroke-opacity: 1; stroke-width: 1px; fill: none;"/><path class="point" transform="translate(186.15,29.76)" d="M4,0A4,4 0 1,1 0,-4A4,4 0 0,1 4,0ZM0,0.5L0.5,0L0,-0.5L-0.5,0Z" style="opacity: 1; stroke: rgb(0, 0, 0); stroke-opacity: 1; stroke-width: 1px; fill: none;"/><path class="point" transform="translate(194.62,29.76)" d="M4,0A4,4 0 1,1 0,-4A4,4 0 0,1 4,0ZM0,0.5L0.5,0L0,-0.5L-0.5,0Z" style="opacity: 1; stroke: rgb(0, 0, 0); stroke-opacity: 1; stroke-width: 1px; fill: none;"/></g><g class="text"/></g></g></g><g class="overplot"/><path class="xlines-above crisp" d="M0,0" style="fill: none;"/><path class="ylines-above crisp" d="M0,0" style="fill: none;"/><g class="overlines-above"/><g class="xaxislayer-above"/><g class="yaxislayer-above"><g class="ytick"><text text-anchor="end" x="79" y="4.199999999999999" transform="translate(0,286)" style="font-family: 'Open Sans', verdana, arial, sans-serif; font-size: 12px; fill: rgb(42, 63, 95); fill-opacity: 1; white-space: pre; opacity: 1;">0</text></g><g class="ytick"><text text-anchor="end" x="79" y="4.199999999999999" style="font-family: 'Open Sans', verdana, arial, sans-serif; font-size: 12px; fill: rgb(42, 63, 95); fill-opacity: 1; white-space: pre; opacity: 1;" transform="translate(0,248.8)">50</text></g><g class="ytick"><text text-anchor="end" x="79" y="4.199999999999999" style="font-family: 'Open Sans', verdana, arial, sans-serif; font-size: 12px; fill: rgb(42, 63, 95); fill-opacity: 1; white-space: pre; opacity: 1;" transform="translate(0,211.6)">100</text></g><g class="ytick"><text text-anchor="end" x="79" y="4.199999999999999" style="font-family: 'Open Sans', verdana, arial, sans-serif; font-size: 12px; fill: rgb(42, 63, 95); fill-opacity: 1; white-space: pre; opacity: 1;" transform="translate(0,174.4)">150</text></g><g class="ytick"><text text-anchor="end" x="79" y="4.199999999999999" style="font-family: 'Open Sans', verdana, arial, sans-serif; font-size: 12px; fill: rgb(42, 63, 95); fill-opacity: 1; white-space: pre; opacity: 1;" transform="translate(0,137.2)">200</text></g><g class="ytick"><text text-anchor="end" x="79" y="4.199999999999999" style="font-family: 'Open Sans', verdana, arial, sans-serif; font-size: 12px; fill: rgb(42, 63, 95); fill-opacity: 1; white-space: pre; opacity: 1;" transform="translate(0,100)">250</text></g></g><g class="overaxes-above"/></g><g class="subplot x2y2"><g class="layer-subplot"><g class="shapelayer"/><g class="imagelayer"/></g><g class="minor-gridlayer"><g class="x2"/><g class="y2"/></g><g class="gridlayer"><g class="x2"><path class="x2grid crisp" transform="translate(156.15,0)" d="M0,317.00000000000006v185.99999999999997" style="stroke: rgb(255, 255, 255); stroke-opacity: 1; stroke-width: 1px;"/><path class="x2grid crisp" transform="translate(240.77,0)" d="M0,317.00000000000006v185.99999999999997" style="stroke: rgb(255, 255, 255); stroke-opacity: 1; stroke-width: 1px;"/><path class="x2grid crisp" transform="translate(325.38,0)" d="M0,317.00000000000006v185.99999999999997" style="stroke: rgb(255, 255, 255); stroke-opacity: 1; stroke-width: 1px;"/><path class="x2grid crisp" transform="translate(410,0)" d="M0,317.00000000000006v185.99999999999997" style="stroke: rgb(255, 255, 255); stroke-opacity: 1; stroke-width: 1px;"/><path class="x2grid crisp" transform="translate(494.62,0)" d="M0,317.00000000000006v185.99999999999997" style="stroke: rgb(255, 255, 255); stroke-opacity: 1; stroke-width: 1px;"/></g><g class="y2"><path class="y2grid crisp" transform="translate(0,472.00000000000006)" d="M80,0h440" style="stroke: rgb(255, 255, 255); stroke-opacity: 1; stroke-width: 1px;"/><path class="y2grid crisp" transform="translate(0,410.00000000000006)" d="M80,0h440" style="stroke: rgb(255, 255, 255); stroke-opacity: 1; stroke-width: 1px;"/><path class="y2grid crisp" transform="translate(0,348.00000000000006)" d="M80,0h440" style="stroke: rgb(255, 255, 255); stroke-opacity: 1; stroke-width: 1px;"/></g></g><g class="zerolinelayer"/><path class="xlines-below"/><path class="ylines-below"/><g class="overlines-below"/><g class="xaxislayer-below"/><g class="yaxislayer-below"/><g class="overaxes-below"/><g class="plot" transform="translate(80,317.00000000000006)" clip-path="url(#clipd288a8x2y2plot)"><g class="scatterlayer mlayer"><g class="trace scatter tracec90cca" style="stroke-miterlimit: 2;"><g class="fills"><g><path class="js-fill" d="M0,130.26L8.46,135.54L16.92,126.52L25.38,121.53L33.85,117.55L42.31,110.57L50.77,101.32L59.23,93.82L67.69,87.54L76.15,83.33L84.62,71.59L93.08,70.83L101.54,72.88L110,72.85L118.46,70.84L126.92,73.69L135.38,79.75L143.85,77.21L152.31,77.27L160.77,83.54L169.23,83.75L177.69,83.02L186.15,88.25L194.62,90.52L203.08,87.9L211.54,90.65L220,91.83L228.46,90.65L236.92,95.58L245.38,94.19L253.85,90.54L262.31,89.76L270.77,92.3L279.23,91.91L287.69,88.73L296.15,86.97L304.62,87.22L313.08,93.19L321.54,87.95L330,87.54L338.46,94.25L346.92,92.77L355.38,89.93L363.85,90.9L372.31,94.79L380.77,97.27L389.23,103.77L397.69,110.12L406.15,117.71L414.62,119.18L423.08,126.1L431.54,129.62L440,129.73L440,137.04L431.54,136.2L423.08,141.93L414.62,127.49L406.15,125.77L397.69,119.88L389.23,107.82L380.77,101.37L363.85,101.81L355.38,98.2L346.92,105.18L338.46,103.31L330,97.83L321.54,93.71L313.08,98.02L304.62,95.03L296.15,94.69L287.69,94.08L279.23,101.81L270.77,105.29L262.31,100.2L253.85,99.44L245.38,107.35L236.92,108.49L228.46,103.32L220,106.2L211.54,102.29L203.08,96.09L194.62,97.25L186.15,96.93L177.69,95.26L169.23,99.19L160.77,94.19L152.31,90.74L143.85,85.05L135.38,86.35L126.92,90.77L118.46,88.18L110,86.73L101.54,87.74L93.08,91.59L84.62,85.11L76.15,99.31L67.69,102.59L59.23,109.15L50.77,112.49L42.31,121.83L33.85,124.57L16.92,136.16L8.46,142.9L0,143.33Z" style="fill: rgb(145, 191, 219); fill-opacity: 1; stroke-width: 0;"/></g></g><g class="errorbars"/><g class="lines"><path class="js-line" d="M0,143.33L8.46,142.9L16.92,136.16L33.85,124.57L42.31,121.83L50.77,112.49L59.23,109.15L67.69,102.59L76.15,99.31L84.62,85.11L93.08,91.59L101.54,87.74L110,86.73L118.46,88.18L126.92,90.77L135.38,86.35L143.85,85.05L152.31,90.74L160.77,94.19L169.23,99.19L177.69,95.26L186.15,96.93L194.62,97.25L203.08,96.09L211.54,102.29L220,106.2L228.46,103.32L236.92,108.49L245.38,107.35L253.85,99.44L262.31,100.2L270.77,105.29L279.23,101.81L287.69,94.08L296.15,94.69L304.62,95.03L313.08,98.02L321.54,93.71L330,97.83L338.46,103.31L346.92,105.18L355.38,98.2L363.85,101.81L380.77,101.37L389.23,107.82L397.69,119.88L406.15,125.77L414.62,127.49L423.08,141.93L431.54,136.2L440,137.04" style="vector-effect: non-scaling-stroke; fill: none; stroke: rgb(0, 0, 0); stroke-opacity: 1; stroke-width: 0.25px; opacity: 1;"/></g><g class="points"/><g class="text"/></g><g class="trace scatter traceb619f6" style="stroke-miterlimit: 2;"><g class="fills"><g><path class="js-fill" d="M0,125.28L8.46,127.63L16.92,121.8L33.85,111.75L42.31,103.46L50.77,93.96L59.23,87.39L76.15,74.33L84.62,66.12L93.08,63.38L101.54,64.24L110,66.28L118.46,62.82L135.38,64.6L143.85,72.28L152.31,66.8L160.77,72.09L169.23,76.08L177.69,76.69L186.15,83.73L194.62,82.23L211.54,84.3L220,87.49L228.46,85.98L236.92,88.08L245.38,85.05L253.85,85.56L262.31,86.2L270.77,88.11L279.23,85.59L287.69,84.99L296.15,83.37L304.62,85.1L313.08,83.95L321.54,84.24L330,82.83L338.46,84.26L346.92,86.56L355.38,84.29L363.85,89.51L372.31,91.8L380.77,95.08L389.23,101.99L397.69,107.22L406.15,110.5L431.54,125.15L440,126.44L440,129.73L431.54,129.62L423.08,126.1L414.62,119.18L406.15,117.71L397.69,110.12L389.23,103.77L380.77,97.27L372.31,94.79L363.85,90.9L355.38,89.93L346.92,92.77L338.46,94.25L330,87.54L321.54,87.95L313.08,93.19L304.62,87.22L296.15,86.97L287.69,88.73L279.23,91.91L270.77,92.3L262.31,89.76L253.85,90.54L245.38,94.19L236.92,95.58L228.46,90.65L220,91.83L211.54,90.65L203.08,87.9L194.62,90.52L186.15,88.25L177.69,83.02L169.23,83.75L160.77,83.54L152.31,77.27L143.85,77.21L135.38,79.75L126.92,73.69L118.46,70.84L110,72.85L101.54,72.88L93.08,70.83L84.62,71.59L76.15,83.33L67.69,87.54L59.23,93.82L50.77,101.32L42.31,110.57L33.85,117.55L25.38,121.53L16.92,126.52L8.46,135.54L0,130.26Z" style="fill: rgb(255, 255, 191); fill-opacity: 1; stroke-width: 0;"/></g></g><g class="errorbars"/><g class="lines"><path class="js-line" d="M0,130.26L8.46,135.54L16.92,126.52L25.38,121.53L33.85,117.55L42.31,110.57L50.77,101.32L59.23,93.82L67.69,87.54L76.15,83.33L84.62,71.59L93.08,70.83L101.54,72.88L110,72.85L118.46,70.84L126.92,73.69L135.38,79.75L143.85,77.21L152.31,77.27L160.77,83.54L169.23,83.75L177.69,83.02L186.15,88.25L194.62,90.52L203.08,87.9L211.54,90.65L220,91.83L228.46,90.65L236.92,95.58L245.38,94.19L253.85,90.54L262.31,89.76L270.77,92.3L279.23,91.91L287.69,88.73L296.15,86.97L304.62,87.22L313.08,93.19L321.54,87.95L330,87.54L338.46,94.25L346.92,92.77L355.38,89.93L363.85,90.9L372.31,94.79L380.77,97.27L389.23,103.77L397.69,110.12L406.15,117.71L414.62,119.18L423.08,126.1L431.54,129.62L440,129.73" style="vector-effect: non-scaling-stroke; fill: none; stroke: rgb(0, 0, 0); stroke-opacity: 1; stroke-width: 0.5px; opacity: 1;"/></g><g class="points"/><g class="text"/></g><g class="trace scatter tracedadb7c" style="stroke-miterlimit: 2;"><g class="fills"><g><path class="js-fill" d="M0,119.91L8.46,123.54L16.92,116.49L25.38,112.84L33.85,108.12L42.31,96.88L50.77,88.3L59.23,83.32L67.69,74.19L76.15,70.03L84.62,60.96L93.08,56.8L101.54,58.78L110,59.33L118.46,55.96L126.92,52.75L135.38,53.71L143.85,56.63L152.31,61.54L160.77,64.73L169.23,66.78L177.69,70.92L186.15,73.49L194.62,77.65L203.08,78.36L211.54,78.78L220,78.24L228.46,81.65L236.92,80.14L245.38,79.44L253.85,81.74L262.31,78.12L270.77,83.02L279.23,77.07L287.69,76.71L296.15,80.72L304.62,81.57L313.08,77.85L321.54,81.61L330,78.9L338.46,78.38L363.85,83.07L372.31,86.99L380.77,92.85L389.23,95.61L406.15,106.78L414.62,112.23L423.08,115.52L431.54,117.22L440,115.92L440,126.44L431.54,125.15L406.15,110.5L397.69,107.22L389.23,101.99L380.77,95.08L372.31,91.8L363.85,89.51L355.38,84.29L346.92,86.56L338.46,84.26L330,82.83L321.54,84.24L313.08,83.95L304.62,85.1L296.15,83.37L287.69,84.99L279.23,85.59L270.77,88.11L262.31,86.2L253.85,85.56L245.38,85.05L236.92,88.08L228.46,85.98L220,87.49L211.54,84.3L194.62,82.23L186.15,83.73L177.69,76.69L169.23,76.08L160.77,72.09L152.31,66.8L143.85,72.28L135.38,64.6L118.46,62.82L110,66.28L101.54,64.24L93.08,63.38L84.62,66.12L76.15,74.33L59.23,87.39L50.77,93.96L42.31,103.46L33.85,111.75L16.92,121.8L8.46,127.63L0,125.28Z" style="fill: rgb(255, 255, 191); fill-opacity: 1; stroke-width: 0;"/></g></g><g class="errorbars"/><g class="lines"><path class="js-line" d="M0,125.28L8.46,127.63L16.92,121.8L33.85,111.75L42.31,103.46L50.77,93.96L59.23,87.39L76.15,74.33L84.62,66.12L93.08,63.38L101.54,64.24L110,66.28L118.46,62.82L135.38,64.6L143.85,72.28L152.31,66.8L160.77,72.09L169.23,76.08L177.69,76.69L186.15,83.73L194.62,82.23L211.54,84.3L220,87.49L228.46,85.98L236.92,88.08L245.38,85.05L253.85,85.56L262.31,86.2L270.77,88.11L279.23,85.59L287.69,84.99L296.15,83.37L304.62,85.1L313.08,83.95L321.54,84.24L330,82.83L338.46,84.26L346.92,86.56L355.38,84.29L363.85,89.51L372.31,91.8L380.77,95.08L389.23,101.99L397.69,107.22L406.15,110.5L431.54,125.15L440,126.44" style="vector-effect: non-scaling-stroke; fill: none; stroke: rgb(0, 0, 0); stroke-opacity: 1; stroke-width: 1px; opacity: 1;"/></g><g class="points"/><g class="text"/></g><g class="trace scatter trace3b51be" style="stroke-miterlimit: 2;"><g class="fills"><g><path class="js-fill" d="M0,111.18L8.46,105.82L16.92,108.32L25.38,106.03L33.85,99.42L42.31,85.88L50.77,70.85L59.23,77.7L67.69,62.79L76.15,57.23L84.62,53.3L110,46.55L118.46,48.2L126.92,35.24L135.38,28.19L143.85,50.27L152.31,55.92L160.77,46L169.23,54.33L177.69,55.48L186.15,65.74L194.62,65.4L203.08,74.45L211.54,72.38L220,65.4L228.46,73.9L236.92,65.5L245.38,67.58L253.85,72.54L262.31,64.77L270.77,70.2L279.23,68.74L287.69,64.96L296.15,78.05L304.62,79.54L313.08,62.16L321.54,72.97L330,70.54L338.46,62.55L346.92,65.3L355.38,77.12L363.85,73.74L372.31,83.1L380.77,87.71L389.23,88.65L397.69,87.26L406.15,95.71L414.62,104.57L423.08,109.05L431.54,106.3L440,101.57L440,115.92L431.54,117.22L423.08,115.52L414.62,112.23L406.15,106.78L389.23,95.61L380.77,92.85L372.31,86.99L363.85,83.07L338.46,78.38L330,78.9L321.54,81.61L313.08,77.85L304.62,81.57L296.15,80.72L287.69,76.71L279.23,77.07L270.77,83.02L262.31,78.12L253.85,81.74L245.38,79.44L236.92,80.14L228.46,81.65L220,78.24L211.54,78.78L203.08,78.36L194.62,77.65L186.15,73.49L177.69,70.92L169.23,66.78L160.77,64.73L152.31,61.54L143.85,56.63L135.38,53.71L126.92,52.75L118.46,55.96L110,59.33L101.54,58.78L93.08,56.8L84.62,60.96L76.15,70.03L67.69,74.19L59.23,83.32L50.77,88.3L42.31,96.88L33.85,108.12L25.38,112.84L16.92,116.49L8.46,123.54L0,119.91Z" style="fill: rgb(252, 141, 89); fill-opacity: 1; stroke-width: 0;"/></g></g><g class="errorbars"/><g class="lines"><path class="js-line" d="M0,119.91L8.46,123.54L16.92,116.49L25.38,112.84L33.85,108.12L42.31,96.88L50.77,88.3L59.23,83.32L67.69,74.19L76.15,70.03L84.62,60.96L93.08,56.8L101.54,58.78L110,59.33L118.46,55.96L126.92,52.75L135.38,53.71L143.85,56.63L152.31,61.54L160.77,64.73L169.23,66.78L177.69,70.92L186.15,73.49L194.62,77.65L203.08,78.36L211.54,78.78L220,78.24L228.46,81.65L236.92,80.14L245.38,79.44L253.85,81.74L262.31,78.12L270.77,83.02L279.23,77.07L287.69,76.71L296.15,80.72L304.62,81.57L313.08,77.85L321.54,81.61L330,78.9L338.46,78.38L363.85,83.07L372.31,86.99L380.77,92.85L389.23,95.61L406.15,106.78L414.62,112.23L423.08,115.52L431.54,117.22L440,115.92" style="vector-effect: non-scaling-stroke; fill: none; stroke: rgb(0, 0, 0); stroke-opacity: 1; stroke-width: 0.5px; opacity: 1;"/></g><g class="points"/><g class="text"/></g><g class="trace scatter tracebf7bfc" style="stroke-miterlimit: 2;"><g class="fills"/><g class="errorbars"/><g class="lines"><path class="js-line" d="M0,111.18L8.46,105.82L16.92,108.32L25.38,106.03L33.85,99.42L42.31,85.88L50.77,70.85L59.23,77.7L67.69,62.79L76.15,57.23L84.62,53.3L110,46.55L118.46,48.2L126.92,35.24L135.38,28.19L143.85,50.27L152.31,55.92L160.77,46L169.23,54.33L177.69,55.48L186.15,65.74L194.62,65.4L203.08,74.45L211.54,72.38L220,65.4L228.46,73.9L236.92,65.5L245.38,67.58L253.85,72.54L262.31,64.77L270.77,70.2L279.23,68.74L287.69,64.96L296.15,78.05L304.62,79.54L313.08,62.16L321.54,72.97L330,70.54L338.46,62.55L346.92,65.3L355.38,77.12L363.85,73.74L372.31,83.1L380.77,87.71L389.23,88.65L397.69,87.26L406.15,95.71L414.62,104.57L423.08,109.05L431.54,106.3L440,101.57" style="vector-effect: non-scaling-stroke; fill: none; stroke: rgb(0, 0, 0); stroke-opacity: 1; stroke-width: 0.25px; opacity: 1;"/></g><g class="points"/><g class="text"/></g><g class="trace scatter trace6eadee" style="stroke-miterlimit: 2; opacity: 1;"><g class="fills"/><g class="errorbars"/><g class="lines"/><g class="points"><path class="point" transform="translate(169.23,74.4)" d="M4,0A4,4 0 1,1 0,-4A4,4 0 0,1 4,0ZM0,0.5L0.5,0L0,-0.5L-0.5,0Z" style="opacity: 1; stroke: rgb(0, 0, 0); stroke-opacity: 1; stroke-width: 1px; fill: none;"/><path class="point" transform="translate(177.69,62)" d="M4,0A4,4 0 1,1 0,-4A4,4 0 0,1 4,0ZM0,0.5L0.5,0L0,-0.5L-0.5,0Z" style="opacity: 1; stroke: rgb(0, 0, 0); stroke-opacity: 1; stroke-width: 1px; fill: none;"/><path class="point" transform="translate(186.15,68.2)" d="M4,0A4,4 0 1,1 0,-4A4,4 0 0,1 4,0ZM0,0.5L0.5,0L0,-0.5L-0.5,0Z" style="opacity: 1; stroke: rgb(0, 0, 0); stroke-opacity: 1; stroke-width: 1px; fill: none;"/><path class="point" transform="translate(194.62,68.2)" d="M4,0A4,4 0 1,1 0,-4A4,4 0 0,1 4,0ZM0,0.5L0.5,0L0,-0.5L-0.5,0Z" style="opacity: 1; stroke: rgb(0, 0, 0); stroke-opacity: 1; stroke-width: 1px; fill: none;"/></g><g class="text"/></g></g></g><g class="overplot"/><path class="xlines-above crisp" d="M0,0" style="fill: none;"/><path class="ylines-above crisp" d="M0,0" style="fill: none;"/><g class="overlines-above"/><g class="xaxislayer-above"/><g class="yaxislayer-above"><g class="y2tick"><text text-anchor="end" x="79" y="4.199999999999999" transform="translate(0,472.00000000000006)" style="font-family: 'Open Sans', verdana, arial, sans-serif; font-size: 12px; fill: rgb(42, 63, 95); fill-opacity: 1; white-space: pre; opacity: 1;">20</text></g><g class="y2tick"><text text-anchor="end" x="79" y="4.199999999999999" style="font-family: 'Open Sans', verdana, arial, sans-serif; font-size: 12px; fill: rgb(42, 63, 95); fill-opacity: 1; white-space: pre; opacity: 1;" transform="translate(0,410.00000000000006)">30</text></g><g class="y2tick"><text text-anchor="end" x="79" y="4.199999999999999" style="font-family: 'Open Sans', verdana, arial, sans-serif; font-size: 12px; fill: rgb(42, 63, 95); fill-opacity: 1; white-space: pre; opacity: 1;" transform="translate(0,348.00000000000006)">40</text></g></g><g class="overaxes-above"/></g><g class="subplot x3y3"><g class="layer-subplot"><g class="shapelayer"/><g class="imagelayer"/></g><g class="minor-gridlayer"><g class="x3"/><g class="y3"/></g><g class="gridlayer"><g class="x3"><path class="x3grid crisp" transform="translate(156.15,0)" d="M0,534v186" style="stroke: rgb(255, 255, 255); stroke-opacity: 1; stroke-width: 1px;"/><path class="x3grid crisp" transform="translate(240.77,0)" d="M0,534v186" style="stroke: rgb(255, 255, 255); stroke-opacity: 1; stroke-width: 1px;"/><path class="x3grid crisp" transform="translate(325.38,0)" d="M0,534v186" style="stroke: rgb(255, 255, 255); stroke-opacity: 1; stroke-width: 1px;"/><path class="x3grid crisp" transform="translate(410,0)" d="M0,534v186" style="stroke: rgb(255, 255, 255); stroke-opacity: 1; stroke-width: 1px;"/><path class="x3grid crisp" transform="translate(494.62,0)" d="M0,534v186" style="stroke: rgb(255, 255, 255); stroke-opacity: 1; stroke-width: 1px;"/></g><g class="y3"><path class="y3grid crisp" transform="translate(0,682.8)" d="M80,0h440" style="stroke: rgb(255, 255, 255); stroke-opacity: 1; stroke-width: 1px;"/><path class="y3grid crisp" transform="translate(0,645.6)" d="M80,0h440" style="stroke: rgb(255, 255, 255); stroke-opacity: 1; stroke-width: 1px;"/><path class="y3grid crisp" transform="translate(0,608.4)" d="M80,0h440" style="stroke: rgb(255, 255, 255); stroke-opacity: 1; stroke-width: 1px;"/><path class="y3grid crisp" transform="translate(0,571.2)" d="M80,0h440" style="stroke: rgb(255, 255, 255); stroke-opacity: 1; stroke-width: 1px;"/></g></g><g class="zerolinelayer"/><path class="xlines-below"/><path class="ylines-below"/><g class="overlines-below"/><g class="xaxislayer-below"/><g class="yaxislayer-below"/><g class="overaxes-below"/><g class="plot" transform="translate(80,534)" clip-path="url(#clipd288a8x3y3plot)"><g class="scatterlayer mlayer"><g class="trace scatter trace46ee55" style="stroke-miterlimit: 2;"><g class="fills"><g><path class="js-fill" d="M0,110.25L8.46,124.29L16.92,114.23L25.38,117.49L33.85,112.25L42.31,100.91L50.77,96.12L59.23,92.32L67.69,77.33L76.15,76.76L84.62,69.02L101.54,56.55L110,54.79L118.46,55.11L126.92,47.32L143.85,48.78L152.31,44.98L169.23,40.64L177.69,39.11L186.15,40.29L194.62,40.44L203.08,37.92L211.54,38.78L220,38.54L228.46,39.21L236.92,40.3L245.38,40.01L253.85,40.64L262.31,38.2L279.23,40.12L287.69,39.36L296.15,40.57L304.62,40.39L313.08,42.69L321.54,40.84L338.46,45.35L346.92,49.78L355.38,48.17L363.85,55.83L372.31,62.39L380.77,67.32L389.23,78.21L397.69,85.82L414.62,101.23L423.08,112.26L431.54,111.53L440,125.63L440,135.9L431.54,133.4L423.08,127.78L414.62,121.78L406.15,114.77L397.69,97.08L389.23,93.12L380.77,78.89L372.31,69.03L363.85,58.49L355.38,50.51L346.92,53.45L338.46,49.43L330,44.69L313.08,44.46L304.62,43L296.15,42.78L287.69,42.15L262.31,43.05L253.85,42.24L245.38,46.27L236.92,41.52L228.46,41.77L220,42.09L203.08,42.13L194.62,41.9L186.15,43.09L177.69,41.72L169.23,42.57L160.77,49.67L152.31,50.86L143.85,57.46L126.92,58.04L118.46,61.54L101.54,59.19L93.08,70.19L84.62,85.15L76.15,94.03L67.69,86.84L59.23,107.04L50.77,105.05L42.31,114.18L33.85,140.18L25.38,136.36L16.92,127.67L8.46,138.85L0,117.59Z" style="fill: rgb(90, 180, 172); fill-opacity: 1; stroke-width: 0;"/></g></g><g class="errorbars"/><g class="lines"><path class="js-line" d="M0,117.59L8.46,138.85L16.92,127.67L25.38,136.36L33.85,140.18L42.31,114.18L50.77,105.05L59.23,107.04L67.69,86.84L76.15,94.03L84.62,85.15L93.08,70.19L101.54,59.19L118.46,61.54L126.92,58.04L143.85,57.46L152.31,50.86L160.77,49.67L169.23,42.57L177.69,41.72L186.15,43.09L194.62,41.9L203.08,42.13L220,42.09L228.46,41.77L236.92,41.52L245.38,46.27L253.85,42.24L262.31,43.05L287.69,42.15L296.15,42.78L304.62,43L313.08,44.46L330,44.69L338.46,49.43L346.92,53.45L355.38,50.51L363.85,58.49L372.31,69.03L380.77,78.89L389.23,93.12L397.69,97.08L406.15,114.77L414.62,121.78L423.08,127.78L431.54,133.4L440,135.9" style="vector-effect: non-scaling-stroke; fill: none; stroke: rgb(0, 0, 0); stroke-opacity: 1; stroke-width: 0.25px; opacity: 1;"/></g><g class="points"/><g class="text"/></g><g class="trace scatter trace373086" style="stroke-miterlimit: 2;"><g class="fills"><g><path class="js-fill" d="M0,105.51L8.46,114.24L16.92,108.16L25.38,103.97L33.85,102.69L42.31,94.52L50.77,87.41L67.69,73.96L76.15,67.97L101.54,53.43L110,51.39L118.46,48.13L126.92,42.56L143.85,45.69L152.31,39.5L169.23,38.97L177.69,37.76L186.15,37.73L194.62,36.71L203.08,36.78L211.54,37.78L228.46,37.41L236.92,37.45L253.85,38.88L262.31,36.31L279.23,38.87L287.69,37.76L296.15,38.81L304.62,38.36L330,41.17L338.46,42.75L346.92,45.77L355.38,45.22L363.85,52.67L372.31,57.83L380.77,60.91L389.23,71.84L397.69,80.43L406.15,82.06L414.62,93.16L423.08,93.6L431.54,103.82L440,111.62L440,125.63L431.54,111.53L423.08,112.26L414.62,101.23L397.69,85.82L389.23,78.21L380.77,67.32L372.31,62.39L363.85,55.83L355.38,48.17L346.92,49.78L338.46,45.35L321.54,40.84L313.08,42.69L304.62,40.39L296.15,40.57L287.69,39.36L279.23,40.12L262.31,38.2L253.85,40.64L245.38,40.01L236.92,40.3L228.46,39.21L220,38.54L211.54,38.78L203.08,37.92L194.62,40.44L186.15,40.29L177.69,39.11L169.23,40.64L152.31,44.98L143.85,48.78L126.92,47.32L118.46,55.11L110,54.79L101.54,56.55L84.62,69.02L76.15,76.76L67.69,77.33L59.23,92.32L50.77,96.12L42.31,100.91L33.85,112.25L25.38,117.49L16.92,114.23L8.46,124.29L0,110.25Z" style="fill: rgb(245, 245, 245); fill-opacity: 1; stroke-width: 0;"/></g></g><g class="errorbars"/><g class="lines"><path class="js-line" d="M0,110.25L8.46,124.29L16.92,114.23L25.38,117.49L33.85,112.25L42.31,100.91L50.77,96.12L59.23,92.32L67.69,77.33L76.15,76.76L84.62,69.02L101.54,56.55L110,54.79L118.46,55.11L126.92,47.32L143.85,48.78L152.31,44.98L169.23,40.64L177.69,39.11L186.15,40.29L194.62,40.44L203.08,37.92L211.54,38.78L220,38.54L228.46,39.21L236.92,40.3L245.38,40.01L253.85,40.64L262.31,38.2L279.23,40.12L287.69,39.36L296.15,40.57L304.62,40.39L313.08,42.69L321.54,40.84L338.46,45.35L346.92,49.78L355.38,48.17L363.85,55.83L372.31,62.39L380.77,67.32L389.23,78.21L397.69,85.82L414.62,101.23L423.08,112.26L431.54,111.53L440,125.63" style="vector-effect: non-scaling-stroke; fill: none; stroke: rgb(0, 0, 0); stroke-opacity: 1; stroke-width: 0.5px; opacity: 1;"/></g><g class="points"/><g class="text"/></g><g class="trace scatter trace825034" style="stroke-miterlimit: 2;"><g class="fills"><g><path class="js-fill" d="M0,101.73L8.46,105.56L16.92,100.16L25.38,97.72L33.85,92.91L42.31,85.89L50.77,81.92L67.69,68.28L76.15,64.04L84.62,53.27L93.08,52.86L110,47.39L118.46,41.4L126.92,39.6L135.38,39.03L143.85,40.09L152.31,38.83L169.23,35.25L177.69,34.4L186.15,35.49L194.62,35.33L203.08,34.86L211.54,35.17L220,35.59L228.46,34.9L236.92,36.17L245.38,35.56L253.85,35.94L262.31,34.17L287.69,36.68L296.15,36.62L304.62,37.78L313.08,35.87L321.54,38.27L330,38.03L338.46,41.42L346.92,41.36L355.38,44.29L363.85,48.17L372.31,54.72L380.77,58.81L389.23,67.87L397.69,73.59L406.15,75.26L414.62,81.14L423.08,85.47L431.54,92L440,106.65L440,111.62L431.54,103.82L423.08,93.6L414.62,93.16L406.15,82.06L397.69,80.43L389.23,71.84L380.77,60.91L372.31,57.83L363.85,52.67L355.38,45.22L346.92,45.77L338.46,42.75L330,41.17L304.62,38.36L296.15,38.81L287.69,37.76L279.23,38.87L262.31,36.31L253.85,38.88L236.92,37.45L228.46,37.41L211.54,37.78L203.08,36.78L194.62,36.71L186.15,37.73L177.69,37.76L169.23,38.97L152.31,39.5L143.85,45.69L126.92,42.56L118.46,48.13L110,51.39L101.54,53.43L76.15,67.97L67.69,73.96L50.77,87.41L42.31,94.52L33.85,102.69L25.38,103.97L16.92,108.16L8.46,114.24L0,105.51Z" style="fill: rgb(245, 245, 245); fill-opacity: 1; stroke-width: 0;"/></g></g><g class="errorbars"/><g class="lines"><path class="js-line" d="M0,105.51L8.46,114.24L16.92,108.16L25.38,103.97L33.85,102.69L42.31,94.52L50.77,87.41L67.69,73.96L76.15,67.97L101.54,53.43L110,51.39L118.46,48.13L126.92,42.56L143.85,45.69L152.31,39.5L169.23,38.97L177.69,37.76L186.15,37.73L194.62,36.71L203.08,36.78L211.54,37.78L228.46,37.41L236.92,37.45L253.85,38.88L262.31,36.31L279.23,38.87L287.69,37.76L296.15,38.81L304.62,38.36L330,41.17L338.46,42.75L346.92,45.77L355.38,45.22L363.85,52.67L372.31,57.83L380.77,60.91L389.23,71.84L397.69,80.43L406.15,82.06L414.62,93.16L423.08,93.6L431.54,103.82L440,111.62" style="vector-effect: non-scaling-stroke; fill: none; stroke: rgb(0, 0, 0); stroke-opacity: 1; stroke-width: 1px; opacity: 1;"/></g><g class="points"/><g class="text"/></g><g class="trace scatter trace72f254" style="stroke-miterlimit: 2;"><g class="fills"><g><path class="js-fill" d="M0,94.1L8.46,95.66L16.92,93.6L25.38,86.15L33.85,88.05L50.77,69.63L59.23,64.13L67.69,59.81L76.15,47.81L84.62,43.62L93.08,41.65L101.54,45.98L110,37.38L118.46,37.97L126.92,35.61L135.38,33.34L143.85,29.02L152.31,32.13L160.77,30.32L169.23,27.46L177.69,27.61L186.15,32.05L194.62,29L203.08,32.86L211.54,32.57L220,34.82L228.46,30.98L245.38,30.36L253.85,30.51L262.31,28.17L270.77,32.17L279.23,28.96L287.69,33.39L296.15,31.12L304.62,34.58L313.08,28.31L321.54,35.88L330,32.99L338.46,37.04L346.92,32.6L355.38,39.34L363.85,37.61L372.31,46.78L380.77,49.78L389.23,57.54L397.69,58.59L406.15,67.63L414.62,71.89L423.08,73.72L431.54,83.99L440,92.98L440,106.65L431.54,92L423.08,85.47L414.62,81.14L406.15,75.26L397.69,73.59L389.23,67.87L380.77,58.81L372.31,54.72L363.85,48.17L355.38,44.29L346.92,41.36L338.46,41.42L330,38.03L321.54,38.27L313.08,35.87L304.62,37.78L296.15,36.62L287.69,36.68L262.31,34.17L253.85,35.94L245.38,35.56L236.92,36.17L228.46,34.9L220,35.59L211.54,35.17L203.08,34.86L194.62,35.33L186.15,35.49L177.69,34.4L169.23,35.25L152.31,38.83L143.85,40.09L135.38,39.03L126.92,39.6L118.46,41.4L110,47.39L93.08,52.86L84.62,53.27L76.15,64.04L67.69,68.28L50.77,81.92L42.31,85.89L33.85,92.91L25.38,97.72L16.92,100.16L8.46,105.56L0,101.73Z" style="fill: rgb(216, 179, 101); fill-opacity: 1; stroke-width: 0;"/></g></g><g class="errorbars"/><g class="lines"><path class="js-line" d="M0,101.73L8.46,105.56L16.92,100.16L25.38,97.72L33.85,92.91L42.31,85.89L50.77,81.92L67.69,68.28L76.15,64.04L84.62,53.27L93.08,52.86L110,47.39L118.46,41.4L126.92,39.6L135.38,39.03L143.85,40.09L152.31,38.83L169.23,35.25L177.69,34.4L186.15,35.49L194.62,35.33L203.08,34.86L211.54,35.17L220,35.59L228.46,34.9L236.92,36.17L245.38,35.56L253.85,35.94L262.31,34.17L287.69,36.68L296.15,36.62L304.62,37.78L313.08,35.87L321.54,38.27L330,38.03L338.46,41.42L346.92,41.36L355.38,44.29L363.85,48.17L372.31,54.72L380.77,58.81L389.23,67.87L397.69,73.59L406.15,75.26L414.62,81.14L423.08,85.47L431.54,92L440,106.65" style="vector-effect: non-scaling-stroke; fill: none; stroke: rgb(0, 0, 0); stroke-opacity: 1; stroke-width: 0.5px; opacity: 1;"/></g><g class="points"/><g class="text"/></g><g class="trace scatter tracea6d6cf" style="stroke-miterlimit: 2;"><g class="fills"/><g class="errorbars"/><g class="lines"><path class="js-line" d="M0,94.1L8.46,95.66L16.92,93.6L25.38,86.15L33.85,88.05L50.77,69.63L59.23,64.13L67.69,59.81L76.15,47.81L84.62,43.62L93.08,41.65L101.54,45.98L110,37.38L118.46,37.97L126.92,35.61L135.38,33.34L143.85,29.02L152.31,32.13L160.77,30.32L169.23,27.46L177.69,27.61L186.15,32.05L194.62,29L203.08,32.86L211.54,32.57L220,34.82L228.46,30.98L245.38,30.36L253.85,30.51L262.31,28.17L270.77,32.17L279.23,28.96L287.69,33.39L296.15,31.12L304.62,34.58L313.08,28.31L321.54,35.88L330,32.99L338.46,37.04L346.92,32.6L355.38,39.34L363.85,37.61L372.31,46.78L380.77,49.78L389.23,57.54L397.69,58.59L406.15,67.63L414.62,71.89L423.08,73.72L431.54,83.99L440,92.98" style="vector-effect: non-scaling-stroke; fill: none; stroke: rgb(0, 0, 0); stroke-opacity: 1; stroke-width: 0.25px; opacity: 1;"/></g><g class="points"/><g class="text"/></g><g class="trace scatter tracee601bb" style="stroke-miterlimit: 2; opacity: 1;"><g class="fills"/><g class="errorbars"/><g class="lines"/><g class="points"><path class="point" transform="translate(169.23,37.2)" d="M4,0A4,4 0 1,1 0,-4A4,4 0 0,1 4,0ZM0,0.5L0.5,0L0,-0.5L-0.5,0Z" style="opacity: 1; stroke: rgb(0, 0, 0); stroke-opacity: 1; stroke-width: 1px; fill: none;"/><path class="point" transform="translate(177.69,37.2)" d="M4,0A4,4 0 1,1 0,-4A4,4 0 0,1 4,0ZM0,0.5L0.5,0L0,-0.5L-0.5,0Z" style="opacity: 1; stroke: rgb(0, 0, 0); stroke-opacity: 1; stroke-width: 1px; fill: none;"/><path class="point" transform="translate(186.15,29.76)" d="M4,0A4,4 0 1,1 0,-4A4,4 0 0,1 4,0ZM0,0.5L0.5,0L0,-0.5L-0.5,0Z" style="opacity: 1; stroke: rgb(0, 0, 0); stroke-opacity: 1; stroke-width: 1px; fill: none;"/><path class="point" transform="translate(194.62,29.76)" d="M4,0A4,4 0 1,1 0,-4A4,4 0 0,1 4,0ZM0,0.5L0.5,0L0,-0.5L-0.5,0Z" style="opacity: 1; stroke: rgb(0, 0, 0); stroke-opacity: 1; stroke-width: 1px; fill: none;"/></g><g class="text"/></g></g></g><g class="overplot"/><path class="xlines-above crisp" d="M0,0" style="fill: none;"/><path class="ylines-above crisp" d="M0,0" style="fill: none;"/><g class="overlines-above"/><g class="xaxislayer-above"><g class="x3tick"><text text-anchor="middle" x="0" y="733" transform="translate(156.15,0)" style="font-family: 'Open Sans', verdana, arial, sans-serif; font-size: 12px; fill: rgb(42, 63, 95); fill-opacity: 1; white-space: pre; opacity: 1;">10</text></g><g class="x3tick"><text text-anchor="middle" x="0" y="733" style="font-family: 'Open Sans', verdana, arial, sans-serif; font-size: 12px; fill: rgb(42, 63, 95); fill-opacity: 1; white-space: pre; opacity: 1;" transform="translate(240.77,0)">20</text></g><g class="x3tick"><text text-anchor="middle" x="0" y="733" style="font-family: 'Open Sans', verdana, arial, sans-serif; font-size: 12px; fill: rgb(42, 63, 95); fill-opacity: 1; white-space: pre; opacity: 1;" transform="translate(325.38,0)">30</text></g><g class="x3tick"><text text-anchor="middle" x="0" y="733" style="font-family: 'Open Sans', verdana, arial, sans-serif; font-size: 12px; fill: rgb(42, 63, 95); fill-opacity: 1; white-space: pre; opacity: 1;" transform="translate(410,0)">40</text></g><g class="x3tick"><text text-anchor="middle" x="0" y="733" style="font-family: 'Open Sans', verdana, arial, sans-serif; font-size: 12px; fill: rgb(42, 63, 95); fill-opacity: 1; white-space: pre; opacity: 1;" transform="translate(494.62,0)">50</text></g></g><g class="yaxislayer-above"><g class="y3tick"><text text-anchor="end" x="79" y="4.199999999999999" transform="translate(0,720)" style="font-family: 'Open Sans', verdana, arial, sans-serif; font-size: 12px; fill: rgb(42, 63, 95); fill-opacity: 1; white-space: pre; opacity: 1;">5</text></g><g class="y3tick"><text text-anchor="end" x="79" y="4.199999999999999" style="font-family: 'Open Sans', verdana, arial, sans-serif; font-size: 12px; fill: rgb(42, 63, 95); fill-opacity: 1; white-space: pre; opacity: 1;" transform="translate(0,682.8)">10</text></g><g class="y3tick"><text text-anchor="end" x="79" y="4.199999999999999" style="font-family: 'Open Sans', verdana, arial, sans-serif; font-size: 12px; fill: rgb(42, 63, 95); fill-opacity: 1; white-space: pre; opacity: 1;" transform="translate(0,645.6)">15</text></g><g class="y3tick"><text text-anchor="end" x="79" y="4.199999999999999" style="font-family: 'Open Sans', verdana, arial, sans-serif; font-size: 12px; fill: rgb(42, 63, 95); fill-opacity: 1; white-space: pre; opacity: 1;" transform="translate(0,608.4)">20</text></g><g class="y3tick"><text text-anchor="end" x="79" y="4.199999999999999" style="font-family: 'Open Sans', verdana, arial, sans-serif; font-size: 12px; fill: rgb(42, 63, 95); fill-opacity: 1; white-space: pre; opacity: 1;" transform="translate(0,571.2)">25</text></g><g class="y3tick"><text text-anchor="end" x="79" y="4.199999999999999" style="font-family: 'Open Sans', verdana, arial, sans-serif; font-size: 12px; fill: rgb(42, 63, 95); fill-opacity: 1; white-space: pre; opacity: 1;" transform="translate(0,534)">30</text></g></g><g class="overaxes-above"/></g></g><g class="polarlayer"/><g class="smithlayer"/><g class="ternarylayer"/><g class="geolayer"/><g class="funnelarealayer"/><g class="pielayer"/><g class="iciclelayer"/><g class="treemaplayer"/><g class="sunburstlayer"/><g class="glimages"/><defs id="topdefs-d288a8"><g class="clips"/></defs><g class="layer-above"><g class="imagelayer"/><g class="shapelayer"/></g><g class="infolayer"><g class="g-gtitle"><text class="gtitle" x="30" y="50" text-anchor="start" dy="0em" style="font-family: 'Open Sans', verdana, arial, sans-serif; font-size: 17px; fill: rgb(42, 63, 95); opacity: 1; font-weight: normal; white-space: pre;">Climatology and S2S forecast for Khagrachhari</text></g><g class="g-xtitle"/><g class="g-x2title"/><g class="g-x3title"/><g class="g-ytitle"><text class="ytitle" transform="rotate(-90,34.16875,193)" x="34.16875" y="193" text-anchor="middle" style="font-family: 'Open Sans', verdana, arial, sans-serif; font-size: 14px; fill: rgb(42, 63, 95); opacity: 1; font-weight: normal; white-space: pre;">[mm]</text></g><g class="g-y2title"><text class="y2title" transform="rotate(-90,40.840625,410.00000000000006)" x="40.840625" y="410.00000000000006" text-anchor="middle" style="font-family: 'Open Sans', verdana, arial, sans-serif; font-size: 14px; fill: rgb(42, 63, 95); opacity: 1; font-weight: normal; white-space: pre;">[C]</text></g><g class="g-y3title"><text class="y3title" transform="rotate(-90,40.840625,627)" x="40.840625" y="627" text-anchor="middle" style="font-family: 'Open Sans', verdana, arial, sans-serif; font-size: 14px; fill: rgb(42, 63, 95); opacity: 1; font-weight: normal; white-space: pre;">[C]</text></g><g class="annotation" data-index="0" style="opacity: 1;"><g class="annotation-text-g" transform="rotate(0,300,89.5)"><g class="cursor-pointer" transform="translate(237,79)"><rect class="bg" x="0.5" y="0.5" width="126" height="20" style="stroke-width: 1px; stroke: rgb(0, 0, 0); stroke-opacity: 0; fill: rgb(0, 0, 0); fill-opacity: 0;"/><text class="annotation-text" text-anchor="middle" x="63.359375" y="16" style="font-family: 'Open Sans', verdana, arial, sans-serif; font-size: 16px; fill: rgb(42, 63, 95); fill-opacity: 1; white-space: pre;">Precipitation sum</text></g></g></g><g class="annotation" data-index="1" style="opacity: 1;"><g class="annotation-text-g" transform="rotate(0,300,306.50000000000006)"><g class="cursor-pointer" transform="translate(196,296)"><rect class="bg" x="0.5" y="0.5" width="208" height="20" style="stroke-width: 1px; stroke: rgb(0, 0, 0); stroke-opacity: 0; fill: rgb(0, 0, 0); fill-opacity: 0;"/><text class="annotation-text" text-anchor="middle" x="104.265625" y="16" style="font-family: 'Open Sans', verdana, arial, sans-serif; font-size: 16px; fill: rgb(42, 63, 95); fill-opacity: 1; white-space: pre;">Mean maximum temperature</text></g></g></g><g class="annotation" data-index="2" style="opacity: 1;"><g class="annotation-text-g" transform="rotate(0,300,523.5)"><g class="cursor-pointer" transform="translate(198,513)"><rect class="bg" x="0.5" y="0.5" width="203" height="20" style="stroke-width: 1px; stroke: rgb(0, 0, 0); stroke-opacity: 0; fill: rgb(0, 0, 0); fill-opacity: 0;"/><text class="annotation-text" text-anchor="middle" x="102.046875" y="16" style="font-family: 'Open Sans', verdana, arial, sans-serif; font-size: 16px; fill: rgb(42, 63, 95); fill-opacity: 1; white-space: pre;">Mean minimum temperature</text></g></g></g><g class="annotation" data-index="3" style="opacity: 1;"><g class="annotation-text-g" transform="rotate(0,300,760.5)"><g class="cursor-pointer" transform="translate(277,750)"><rect class="bg" x="0.5" y="0.5" width="45" height="20" style="stroke-width: 1px; stroke: rgb(0, 0, 0); stroke-opacity: 0; fill: rgb(0, 0, 0); fill-opacity: 0;"/><text class="annotation-text" text-anchor="middle" x="22.3125" y="16" style="font-family: 'Open Sans', verdana, arial, sans-serif; font-size: 16px; fill: rgb(42, 63, 95); fill-opacity: 1; white-space: pre;">Week</text></g></g></g></g></svg>