<svg class="main-svg" xmlns="http://www.w3.org/2000/svg" xmlns:xlink="http://www.w3.org/1999/xlink" width="600" height="800" style="" viewBox="0 0 600 800"><rect x="0" y="0" width="600" height="800" style="fill: rgb(255, 255, 255); fill-opacity: 1;"/><defs id="defs-502925"><g class="clips"><clipPath id="clip502925xyplot" class="plotclip"><rect width="440" height="186.00000000000003"/></clipPath><clipPath id="clip502925x2y2plot" class="plotclip"><rect width="440" height="185.99999999999997"/></clipPath><clipPath id="clip502925x3y3plot" class="plotclip"><rect width="440" height="186"/></clipPath><clipPath class="axesclip" id="clip502925x"><rect x="80" y="0" width="440" height="800"/></clipPath><clipPath class="axesclip" id="clip502925y"><rect x="0" y="100" width="600" height="186.00000000000003"/></clipPath><clipPath class="axesclip" id="clip502925xy"><rect x="80" y="100" width="440" height="186.00000000000003"/></clipPath><clipPath class="axesclip" id="clip502925y2"><rect x="0" y="317.00000000000006" width="600" height="185.99999999999997"/></clipPath><clipPath class="axesclip" id="clip502925xy2"><rect x="80" y="317.00000000000006" width="440" height="185.99999999999997"/></clipPath><clipPath class="axesclip" id="clip502925y3"><rect x="0" y="534" width="600" height="186"/></clipPath><clipPath class="axesclip" id="clip502925xy3"><rect x="80" y="534" width="440" height="186"/></clipPath><clipPath class="axesclip" id="clip502925x2"><rect x="80" y="0" width="440" height="800"/></clipPath><clipPath class="axesclip" id="clip502925x2y"><rect x="80" y="100" width="440" height="186.00000000000003"/></clipPath><clipPath class="axesclip" id="clip502925x2y2"><rect x="80" y="317.00000000000006" width="440" height="185.99999999999997"/></clipPath><clipPath class="axesclip" id="clip502925x2y3"><rect x="80" y="534" width="440" height="186"/></clipPath><clipPath class="axesclip" id="clip502925x3"><rect x="80" y="0" width="440" height="800"/></clipPath><clipPath class="axesclip" id="clip502925x3y"><rect x="80" y="100" width="440" height="186.00000000000003"/></clipPath><clipPath class="axesclip" id="clip502925x3y2"><rect x="80" y="317.00000000000006" width="440" height="185.99999999999997"/></clipPath><clipPath class="axesclip" id="clip502925x3y3"><rect x="80" y="534" width="440" height="186"/></clipPath></g><g class="gradients"/><g class="patterns"/></defs><g class="bglayer"><rect class="bg" x="80" y="100" width="440" height="186.00000000000003" style="fill: rgb(229, 236, 246); fill-opacity: 1; stroke-width: 0;"/><rect class="bg" x="80" y="317.00000000000006" width="440" height="185.99999999999997" style="fill: rgb(229, 236, 246); fill-opacity: 1; stroke-width: 0;"/><rect class="bg" x="80" y="534" width="440" height="186" style="fill: rgb(229, 236, 246); fill-opacity: 1; stroke-width: 0;"/></g><g class="layer-below"><g class="imagelayer"/><g class="shapelayer"/></g><g class="cartesianlayer"><g class="subplot xy"><g class="layer-subplot"><g class="shapelayer"/><g class="imagelayer"/></g><g class="minor-gridlayer"><g class="x"/><g class="y"/></g><g class="gridlayer"><g class="x"><path class="xgrid crisp" transform="translate(156.15,0)" d="M0,100v186.00000000000003" style="stroke: rgb(255, 255, 255); stroke-opacity: 1; stroke-width: 1px;"/><path class="xgrid crisp" transform="translate(240.77,0)" d="M0,100v186.00000000000003" style="stroke: rgb(255, 255, 255); stroke-opacity: 1; stroke-width: 1px;"/><path class="xgrid crisp" transform="translate(325.38,0)" d="M0,100v186.00000000000003" style="stroke: rgb(255, 255, 255); stroke-opacity: 1; stroke-width: 1px;"/><path class="xgrid crisp" transform="translate(410,0)" d="M0,100v186.00000000000003" style="stroke: rgb(255, 255, 255); stroke-opacity: 1; stroke-width: 1px;"/><path class="xgrid crisp" transform="translate(494.62,0)" d="M0,100v186.00000000000003" style="stroke: rgb(255, 255, 255); stroke-opacity: 1; stroke-width: 1px;"/></g><g class="y"><path class="ygrid crisp" transform="translate(0,248.8)" d="M80,0h440" style="stroke: rgb(255, 255, 255); stroke-opacity: 1; stroke-width: 1px;"/><path class="ygrid crisp" transform="translate(0,211.6)" d="M80,0h440" style="stroke: rgb(255, 255, 255); stroke-opacity: 1; stroke-width: 1px;"/><path class="ygrid crisp" transform="translate(0,174.4)" d="M80,0h440" style="stroke: rgb(255, 255, 255); stroke-opacity: 1; stroke-width: 1px;"/><path class="ygrid crisp" transform="translate(0,137.2)" d="M80,0h440" style="stroke: rgb(255, 255, 255); stroke-opacity: 1; stroke-width: 1px;"/></g></g><g class="zerolinelayer"><path class="yzl zl crisp" transform="translate(0,286)" d="M80,0h440" style="stroke: rgb(255, 255, 255); stroke-opacity: 1; stroke-width: 2px;"/></g><path class="xlines-below"/><path class="ylines-below"/><g class="overlines-below"/><g class="xaxislayer-below"/><g class="yaxislayer-below"/><g class="overaxes-below"/><g class="plot" transform="translate(80,100)" clip-path="url(#clip502925xyplot)"><g class="scatterlayer mlayer"><g class="trace scatter trace3ffa20" style="stroke-miterlimit: 2;"><g class="fills"><g><path class="js-fill" d="M0,186L110,185.51L118.46,184.3L126.92,178.65L135.38,179.7L143.85,169.56L152.31,171.04L160.77,167.43L169.23,157.88L177.69,156.76L186.15,168.15L194.62,151.54L203.08,164.09L211.54,162.17L220,166.24L228.46,158.57L236.92,155.26L245.38,165.73L253.85,165.17L262.31,165.24L270.77,162.75L279.23,164.27L287.69,171.06L296.15,170.67L304.62,175.8L313.08,171.65L321.54,173.3L330,181.16L338.46,179.84L346.92,185.43L355.38,186L440,186L440,186L355.38,186L346.92,186L330,185.24L321.54,184.49L296.15,185.16L287.69,182.84L279.23,184.28L270.77,177.81L262.31,179.83L253.85,184.61L245.38,179.65L236.92,173.7L228.46,182.97L220,178.33L211.54,185.06L203.08,185.22L194.62,176.48L186.15,184.74L177.69,178.14L169.23,176.35L160.77,185.17L152.31,186L143.85,184.88L135.38,186L0,186Z" style="fill: rgb(224, 236, 244); fill-opacity: 1; stroke-width: 0;"/></g></g><g class="errorbars"/><g class="lines"><path class="js-line" d="M0,186L135.38,186L143.85,184.88L152.31,186L160.77,185.17L169.23,176.35L177.69,178.14L186.15,184.74L194.62,176.48L203.08,185.22L211.54,185.06L220,178.33L228.46,182.97L236.92,173.7L245.38,179.65L253.85,184.61L262.31,179.83L270.77,177.81L279.23,184.28L287.69,182.84L296.15,185.16L321.54,184.49L330,185.24L346.92,186L355.38,186L440,186" style="vector-effect: non-scaling-stroke; fill: none; stroke: rgb(0, 0, 0); stroke-opacity: 1; stroke-width: 0.25px; opacity: 1;"/></g><g class="points"/><g class="text"/></g><g class="trace scatter trace381864" style="stroke-miterlimit: 2;"><g class="fills"><g><path class="js-fill" d="M0,186L84.62,185.91L93.08,184.13L101.54,182.57L110,177.5L118.46,177.19L126.92,169.15L135.38,172.5L143.85,149.7L152.31,153.19L160.77,157.87L169.23,144.68L177.69,128.73L186.15,144.81L194.62,138.3L203.08,138.99L211.54,136.79L220,146.12L228.46,132.44L236.92,138.99L245.38,132.77L253.85,148.12L262.31,143.03L270.77,131.22L279.23,146.16L287.69,162.15L296.15,165.82L304.62,164.19L313.08,153.96L321.54,160.74L330,166.22L338.46,168.51L346.92,179.81L355.38,185.82L363.85,185.85L431.54,186L440,186L440,186L355.38,186L346.92,185.43L338.46,179.84L330,181.16L321.54,173.3L313.08,171.65L304.62,175.8L296.15,170.67L287.69,171.06L279.23,164.27L270.77,162.75L262.31,165.24L253.85,165.17L245.38,165.73L236.92,155.26L228.46,158.57L220,166.24L211.54,162.17L203.08,164.09L194.62,151.54L186.15,168.15L177.69,156.76L169.23,157.88L160.77,167.43L152.31,171.04L143.85,169.56L135.38,179.7L126.92,178.65L118.46,184.3L110,185.51L0,186Z" style="fill: rgb(158, 188, 218); fill-opacity: 1; stroke-width: 0;"/></g></g><g class="errorbars"/><g class="lines"><path class="js-line" d="M0,186L110,185.51L118.46,184.3L126.92,178.65L135.38,179.7L143.85,169.56L152.31,171.04L160.77,167.43L169.23,157.88L177.69,156.76L186.15,168.15L194.62,151.54L203.08,164.09L211.54,162.17L220,166.24L228.46,158.57L236.92,155.26L245.38,165.73L253.85,165.17L262.31,165.24L270.77,162.75L279.23,164.27L287.69,171.06L296.15,170.67L304.62,175.8L313.08,171.65L321.54,173.3L330,181.16L338.46,179.84L346.92,185.43L355.38,186L440,186" style="vector-effect: non-scaling-stroke; fill: none; stroke: rgb(0, 0, 0); stroke-opacity: 1; stroke-width: 0.5px; opacity: 1;"/></g><g class="points"/><g class="text"/></g><g class="trace scatter tracefa8ee9" style="stroke-miterlimit: 2;"><g class="fills"><g><path class="js-fill" d="M0,185.99L50.77,185.44L59.23,184.41L76.15,182.27L84.62,184.65L93.08,180.23L101.54,171.42L110,165.09L118.46,156.46L126.92,151.32L135.38,164.61L143.85,119.02L152.31,139.89L160.77,141.43L169.23,119.39L177.69,93.76L186.15,108.3L194.62,99.64L203.08,108.8L211.54,99.5L220,112.73L228.46,67.99L236.92,114.99L245.38,110.63L253.85,116.65L262.31,112.33L270.77,88.19L279.23,118.38L287.69,135.15L296.15,145.77L304.62,141.99L313.08,133.65L321.54,132.64L330,145.39L338.46,136.32L346.92,170.86L355.38,161.36L363.85,180.27L372.31,185.43L380.77,184.57L389.23,186L440,185.72L440,186L431.54,186L363.85,185.85L355.38,185.82L346.92,179.81L338.46,168.51L330,166.22L321.54,160.74L313.08,153.96L304.62,164.19L296.15,165.82L287.69,162.15L279.23,146.16L270.77,131.22L262.31,143.03L253.85,148.12L245.38,132.77L236.92,138.99L228.46,132.44L220,146.12L211.54,136.79L203.08,138.99L194.62,138.3L186.15,144.81L177.69,128.73L169.23,144.68L160.77,157.87L152.31,153.19L143.85,149.7L135.38,172.5L126.92,169.15L118.46,177.19L110,177.5L101.54,182.57L93.08,184.13L84.62,185.91L0,186Z" style="fill: rgb(158, 188, 218); fill-opacity: 1; stroke-width: 0;"/></g></g><g class="errorbars"/><g class="lines"><path class="js-line" d="M0,186L84.62,185.91L93.08,184.13L101.54,182.57L110,177.5L118.46,177.19L126.92,169.15L135.38,172.5L143.85,149.7L152.31,153.19L160.77,157.87L169.23,144.68L177.69,128.73L186.15,144.81L194.62,138.3L203.08,138.99L211.54,136.79L220,146.12L228.46,132.44L236.92,138.99L245.38,132.77L253.85,148.12L262.31,143.03L270.77,131.22L279.23,146.16L287.69,162.15L296.15,165.82L304.62,164.19L313.08,153.96L321.54,160.74L330,166.22L338.46,168.51L346.92,179.81L355.38,185.82L363.85,185.85L431.54,186L440,186" style="vector-effect: non-scaling-stroke; fill: none; stroke: rgb(0, 0, 0); stroke-opacity: 1; stroke-width: 1px; opacity: 1;"/></g><g class="points"/><g class="text"/></g><g class="trace scatter trace463869" style="stroke-miterlimit: 2;"><g class="fills"><g><path class="js-fill" d="M0,185.99L16.92,185.26L25.38,185.98L50.77,185.42L59.23,183.01L67.69,182.12L76.15,178.57L84.62,184.01L93.08,174.73L101.54,163.09L110,144.85L118.46,138.61L126.92,139.62L135.38,157.4L143.85,76.44L152.31,105L160.77,120.89L169.23,76.63L177.69,40.52L186.15,44.18L194.62,25.17L203.08,31.3L211.54,31.34L220,55.06L228.46,3.85L236.92,100.07L245.38,69.91L253.85,51.94L262.31,57.22L270.77,15.64L279.23,68.86L287.69,109.65L296.15,108.63L304.62,103.4L313.08,104.06L321.54,79.53L330,97.22L338.46,92.6L346.92,160.51L355.38,130.85L363.85,173.01L372.31,184.76L380.77,182.92L389.23,186L397.69,186L423.08,185.86L431.54,184.9L440,185.72L440,185.72L389.23,186L380.77,184.57L372.31,185.43L363.85,180.27L355.38,161.36L346.92,170.86L338.46,136.32L330,145.39L321.54,132.64L313.08,133.65L304.62,141.99L296.15,145.77L287.69,135.15L279.23,118.38L270.77,88.19L262.31,112.33L253.85,116.65L245.38,110.63L236.92,114.99L228.46,67.99L220,112.73L211.54,99.5L203.08,108.8L194.62,99.64L186.15,108.3L177.69,93.76L169.23,119.39L160.77,141.43L152.31,139.89L143.85,119.02L135.38,164.61L126.92,151.32L118.46,156.46L110,165.09L101.54,171.42L93.08,180.23L84.62,184.65L76.15,182.27L59.23,184.41L50.77,185.44L0,185.99Z" style="fill: rgb(136, 86, 167); fill-opacity: 1; stroke-width: 0;"/></g></g><g class="errorbars"/><g class="lines"><path class="js-line" d="M0,185.99L50.77,185.44L59.23,184.41L76.15,182.27L84.62,184.65L93.08,180.23L101.54,171.42L110,165.09L118.46,156.46L126.92,151.32L135.38,164.61L143.85,119.02L152.31,139.89L160.77,141.43L169.23,119.39L177.69,93.76L186.15,108.3L194.62,99.64L203.08,108.8L211.54,99.5L220,112.73L228.46,67.99L236.92,114.99L245.38,110.63L253.85,116.65L262.31,112.33L270.77,88.19L279.23,118.38L287.69,135.15L296.15,145.77L304.62,141.99L313.08,133.65L321.54,132.64L330,145.39L338.46,136.32L346.92,170.86L355.38,161.36L363.85,180.27L372.31,185.43L380.77,184.57L389.23,186L440,185.72" style="vector-effect: non-scaling-stroke; fill: none; stroke: rgb(0, 0, 0); stroke-opacity: 1; stroke-width: 0.5px; opacity: 1;"/></g><g class="points"/><g class="text"/></g><g class="trace scatter traceacb3ed" style="stroke-miterlimit: 2;"><g class="fills"/><g class="errorbars"/><g class="lines"><path class="js-line" d="M0,185.99L16.92,185.26L25.38,185.98L50.77,185.42L59.23,183.01L67.69,182.12L76.15,178.57L84.62,184.01L93.08,174.73L101.54,163.09L110,144.85L118.46,138.61L126.92,139.62L135.38,157.4L143.85,76.44L152.31,105L160.77,120.89L169.23,76.63L177.69,40.52L186.15,44.18L194.62,25.17L203.08,31.3L211.54,31.34L220,55.06L228.46,3.85L236.92,100.07L245.38,69.91L253.85,51.94L262.31,57.22L270.77,15.64L279.23,68.86L287.69,109.65L296.15,108.63L304.62,103.4L313.08,104.06L321.54,79.53L330,97.22L338.46,92.6L346.92,160.51L355.38,130.85L363.85,173.01L372.31,184.76L380.77,182.92L389.23,186L397.69,186L423.08,185.86L431.54,184.9L440,185.72" style="vector-effect: non-scaling-stroke; fill: none; stroke: rgb(0, 0, 0); stroke-opacity: 1; stroke-width: 0.25px; opacity: 1;"/></g><g class="points"/><g class="text"/></g><g class="trace scatter trace2b3e3b" style="stroke-miterlimit: 2; opacity: 1;"><g class="fills"/><g class="errorbars"/><g class="lines"/><g class="points"><path class="point" transform="translate(253.85,180.05)" d="M4,0A4,4 0 1,1 0,-4A4,4 0 0,1 4,0ZM0,0.5L0.5,0L0,-0.5L-0.5,0Z" style="opacity: 1; stroke: rgb(0, 0, 0); stroke-opacity: 1; stroke-width: 1px; fill: none;"/><path class="point" transform="translate(262.31,-78.12)" d="M4,0A4,4 0 1,1 0,-4A4,4 0 0,1 4,0ZM0,0.5L0.5,0L0,-0.5L-0.5,0Z" style="opacity: 1; stroke: rgb(0, 0, 0); stroke-opacity: 1; stroke-width: 1px; fill: none;"/><path class="point" transform="translate(270.77,36.46)" d="M4,0A4,4 0 1,1 0,-4A4,4 0 0,1 4,0ZM0,0.5L0.5,0L0,-0.5L-0.5,0Z" style="opacity: 1; stroke: rgb(0, 0, 0); stroke-opacity: 1; stroke-width: 1px; fill: none;"/><path class="point" transform="translate(279.23,36.46)" d="M4,0A4,4 0 1,1 0,-4A4,4 0 0,1 4,0ZM0,0.5L0.5,0L0,-0.5L-0.5,0Z" style="opacity: 1; stroke: rgb(0, 0, 0); stroke-opacity: 1; stroke-width: 1px; fill: none;"/></g><g class="text"/></g></g></g><g class="overplot"/><path class="xlines-above crisp" d="M0,0" style="fill: none;"/><path class="ylines-above crisp" d="M0,0" style="fill: none;"/><g class="overlines-above"/><g class="xaxislayer-above"/><g class="yaxislayer-above"><g class="ytick"><text text-anchor="end" x="79" y="4.199999999999999" transform="translate(0,286)" style="font-family: 'Open Sans', verdana, arial, sans-serif; font-size: 12px; fill: rgb(42, 63, 95); fill-opacity: 1; white-space: pre; opacity: 1;">0</text></g><g class="ytick"><text text-anchor="end" x="79" y="4.199999999999999" style="font-family: 'Open Sans', verdana, arial, sans-serif; font-size: 12px; fill: rgb(42, 63, 95); fill-opacity: 1; white-space: pre; opacity: 1;" transform="translate(0,248.8)">50</text></g><g class="ytick"><text text-anchor="end" x="79" y="4.199999999999999" style="font-family: 'Open Sans', verdana, arial, sans-serif; font-size: 12px; fill: rgb(42, 63, 95); fill-opacity: 1; white-space: pre; opacity: 1;" transform="translate(0,211.6)">100</text></g><g class="ytick"><text text-anchor="end" x="79" y="4.199999999999999" style="font-family: 'Open Sans', verdana, arial, sans-serif; font-size: 12px; fill: rgb(42, 63, 95); fill-opacity: 1; white-space: pre; opacity: 1;" transform="translate(0,174.4)">150</text></g><g class="ytick"><text text-anchor="end" x="79" y="4.199999999999999" style="font-family: 'Open Sans', verdana, arial, sans-serif; font-size: 12px; fill: rgb(42, 63, 95); fill-opacity: 1; white-space: pre; opacity: 1;" transform="translate(0,137.2)">200</text></g><g class="ytick"><text text-anchor="end" x="79" y="4.199999999999999" style="font-family: 'Open Sans', verdana, arial, sans-serif; font-size: 12px; fill: rgb(42, 63, 95); fill-opacity: 1; white-space: pre; opacity: 1;" transform="translate(0,100)">250</text></g></g><g class="overaxes-above"/></g><g class="subplot x2y2"><g class="layer-subplot"><g class="shapelayer"/><g class="imagelayer"/></g><g class="minor-gridlayer"><g class="x2"/><g class="y2"/></g><g class="gridlayer"><g class="x2"><path class="x2grid crisp" transform="translate(156.15,0)" d="M0,317.00000000000006v185.99999999999997" style="stroke: rgb(255, 255, 255); stroke-opacity: 1; stroke-width: 1px;"/><path class="x2grid crisp" transform="translate(240.77,0)" d="M0,317.00000000000006v185.99999999999997" style="stroke: rgb(255, 255, 255); stroke-opacity: 1; stroke-width: 1px;"/><path class="x2grid crisp" transform="translate(325.38,0)" d="M0,317.00000000000006v185.99999999999997" style="stroke: rgb(255, 255, 255); stroke-opacity: 1; stroke-width: 1px;"/><path class="x2grid crisp" transform="translate(410,0)" d="M0,317.00000000000006v185.99999999999997" style="stroke: rgb(255, 255, 255); stroke-opacity: 1; stroke-width: 1px;"/><path class="x2grid crisp" transform="translate(494.62,0)" d="M0,317.00000000000006v185.99999999999997" style="stroke: rgb(255, 255, 255); stroke-opacity: 1; stroke-width: 1px;"/></g><g class="y2"><path class="y2grid crisp" transform="translate(0,472.00000000000006)" d="M80,0h440" style="stroke: rgb(255, 255, 255); stroke-opacity: 1; stroke-width: 1px;"/><path class="y2grid crisp" transform="translate(0,410.00000000000006)" d="M80,0h440" style="stroke: rgb(255, 255, 255); stroke-opacity: 1; stroke-width: 1px;"/><path class="y2grid crisp" transform="translate(0,348.00000000000006)" d="M80,0h440" style="stroke: rgb(255, 255, 255); stroke-opacity: 1; stroke-width: 1px;"/></g></g><g class="zerolinelayer"/><path class="xlines-below"/><path class="ylines-below"/><g class="overlines-below"/><g class="xaxislayer-below"/><g class="yaxislayer-below"/><g class="overaxes-below"/><g class="plot" transform="translate(80,317.00000000000006)" clip-path="url(#clip502925x2y2plot)"><g class="scatterlayer mlayer"><g class="trace scatter trace5dbf63" style="stroke-miterlimit: 2;"><g class="fills"><g><path class="js-fill" d="M0,144.38L8.46,146.15L16.92,139.32L25.38,134.19L33.85,127.87L42.31,117.27L50.77,112.01L67.69,93.16L76.15,89.48L84.62,75.12L93.08,73.96L101.54,83.01L110,89.04L126.92,82.79L135.38,90.56L143.85,88.05L152.31,80.84L160.77,85.12L169.23,83.17L177.69,88.35L186.15,89.12L194.62,92L203.08,91.87L211.54,95.77L220,92.2L228.46,91.07L236.92,92.91L245.38,93.4L253.85,86.87L262.31,87.69L270.77,94.97L279.23,93.82L287.69,91.1L296.15,94.2L304.62,93.73L313.08,94.62L321.54,92.42L330,93.13L338.46,92.62L346.92,88.46L355.38,86.96L363.85,92.75L372.31,96.21L397.69,116.54L406.15,126.33L414.62,127.99L423.08,138.43L440,143.3L440,146.82L431.54,148.1L423.08,153.48L414.62,134.98L406.15,137.46L397.69,128.69L389.23,113.55L380.77,107.97L372.31,103.72L363.85,95.83L355.38,89.81L346.92,99.64L338.46,107.7L330,108.41L321.54,101.59L313.08,106.99L304.62,102.03L296.15,109.92L287.69,103.36L279.23,108.59L270.77,106.02L262.31,101.24L253.85,100L245.38,107.88L236.92,100.88L228.46,100.35L220,110.54L211.54,100.71L203.08,102.21L194.62,105.22L186.15,103.19L177.69,90.96L160.77,90.25L152.31,89.28L143.85,98.49L135.38,95.83L126.92,99.02L118.46,96.28L110,97.35L101.54,99.2L93.08,91.49L84.62,77.41L76.15,107.91L67.69,104.66L50.77,130.38L42.31,133.3L33.85,145.26L25.38,138.61L16.92,145.79L8.46,161.2L0,164.61Z" style="fill: rgb(145, 191, 219); fill-opacity: 1; stroke-width: 0;"/></g></g><g class="errorbars"/><g class="lines"><path class="js-line" d="M0,164.61L8.46,161.2L16.92,145.79L25.38,138.61L33.85,145.26L42.31,133.3L50.77,130.38L67.69,104.66L76.15,107.91L84.62,77.41L93.08,91.49L101.54,99.2L110,97.35L118.46,96.28L126.92,99.02L135.38,95.83L143.85,98.49L152.31,89.28L160.77,90.25L177.69,90.96L186.15,103.19L194.62,105.22L203.08,102.21L211.54,100.71L220,110.54L228.46,100.35L236.92,100.88L245.38,107.88L253.85,100L262.31,101.24L270.77,106.02L279.23,108.59L287.69,103.36L296.15,109.92L304.62,102.03L313.08,106.99L321.54,101.59L330,108.41L338.46,107.7L346.92,99.64L355.38,89.81L363.85,95.83L372.31,103.72L380.77,107.97L389.23,113.55L397.69,128.69L406.15,137.46L414.62,134.98L423.08,153.48L431.54,148.1L440,146.82" style="vector-effect: non-scaling-stroke; fill: none; stroke: rgb(0, 0, 0); stroke-opacity: 1; stroke-width: 0.25px; opacity: 1;"/></g><g class="points"/><g class="text"/></g><g class="trace scatter trace60e933" style="stroke-miterlimit: 2;"><g class="fills"><g><path class="js-fill" d="M0,134.42L8.46,139.41L16.92,129.4L25.38,128.25L33.85,120.06L59.23,95.97L67.69,82.9L76.15,82.17L84.62,69.4L93.08,63.64L101.54,69L110,75.37L118.46,75.02L126.92,75.91L135.38,78.87L143.85,83.52L152.31,77.06L160.77,77.59L169.23,81.74L186.15,82.42L194.62,86.74L203.08,87.51L211.54,85.65L220,86.8L228.46,86.93L236.92,85.34L245.38,85.45L253.85,81.8L262.31,82.02L270.77,86.36L279.23,84.85L287.69,87.73L296.15,85.47L313.08,89.19L321.54,88.7L330,84.12L338.46,81.94L346.92,85.44L355.38,85.64L363.85,90.84L372.31,93.53L380.77,100.66L389.23,106.29L397.69,110.71L406.15,120.24L423.08,127.06L431.54,134.05L440,131.95L440,143.3L423.08,138.43L414.62,127.99L406.15,126.33L397.69,116.54L372.31,96.21L363.85,92.75L355.38,86.96L346.92,88.46L338.46,92.62L330,93.13L321.54,92.42L313.08,94.62L304.62,93.73L296.15,94.2L287.69,91.1L279.23,93.82L270.77,94.97L262.31,87.69L253.85,86.87L245.38,93.4L236.92,92.91L228.46,91.07L220,92.2L211.54,95.77L203.08,91.87L194.62,92L186.15,89.12L177.69,88.35L169.23,83.17L160.77,85.12L152.31,80.84L143.85,88.05L135.38,90.56L126.92,82.79L110,89.04L101.54,83.01L93.08,73.96L84.62,75.12L76.15,89.48L67.69,93.16L50.77,112.01L42.31,117.27L33.85,127.87L25.38,134.19L16.92,139.32L8.46,146.15L0,144.38Z" style="fill: rgb(255, 255, 191); fill-opacity: 1; stroke-width: 0;"/></g></g><g class="errorbars"/><g class="lines"><path class="js-line" d="M0,144.38L8.46,146.15L16.92,139.32L25.38,134.19L33.85,127.87L42.31,117.27L50.77,112.01L67.69,93.16L76.15,89.48L84.62,75.12L93.08,73.96L101.54,83.01L110,89.04L126.92,82.79L135.38,90.56L143.85,88.05L152.31,80.84L160.77,85.12L169.23,83.17L177.69,88.35L186.15,89.12L194.62,92L203.08,91.87L211.54,95.77L220,92.2L228.46,91.07L236.92,92.91L245.38,93.4L253.85,86.87L262.31,87.69L270.77,94.97L279.23,93.82L287.69,91.1L296.15,94.2L304.62,93.73L313.08,94.62L321.54,92.42L330,93.13L338.46,92.62L346.92,88.46L355.38,86.96L363.85,92.75L372.31,96.21L397.69,116.54L406.15,126.33L414.62,127.99L423.08,138.43L440,143.3" style="vector-effect: non-scaling-stroke; fill: none; stroke: rgb(0, 0, 0); stroke-opacity: 1; stroke-width: 0.5px; opacity: 1;"/></g><g class="points"/><g class="text"/></g><g class="trace scatter trace106c47" style="stroke-miterlimit: 2;"><g class="fills"><g><path class="js-fill" d="M0,127.76L8.46,132.19L16.92,123.2L25.38,124.58L33.85,114.92L42.31,103.55L50.77,96.39L59.23,86.11L67.69,79.58L76.15,68.82L84.62,64.27L93.08,56.27L101.54,51.95L110,61.22L118.46,65.6L126.92,67.75L135.38,66.46L143.85,78.12L152.31,73.59L160.77,68.28L169.23,77.85L177.69,79.3L186.15,77.46L194.62,81.33L203.08,83.66L211.54,79.8L220,79.43L228.46,80.72L236.92,76.16L245.38,78.58L253.85,77.81L262.31,77.55L270.77,78.16L279.23,81.45L287.69,80.38L296.15,80.18L304.62,86.13L313.08,80.89L321.54,85.01L330,76.41L338.46,75.88L346.92,77.68L355.38,84.83L363.85,88.48L372.31,89.61L380.77,97.85L389.23,100.59L406.15,112.01L414.62,116.36L423.08,123.03L431.54,122.81L440,119.66L440,131.95L431.54,134.05L423.08,127.06L406.15,120.24L397.69,110.71L389.23,106.29L380.77,100.66L372.31,93.53L363.85,90.84L355.38,85.64L346.92,85.44L338.46,81.94L330,84.12L321.54,88.7L313.08,89.19L296.15,85.47L287.69,87.73L279.23,84.85L270.77,86.36L262.31,82.02L253.85,81.8L245.38,85.45L236.92,85.34L228.46,86.93L220,86.8L211.54,85.65L203.08,87.51L194.62,86.74L186.15,82.42L169.23,81.74L160.77,77.59L152.31,77.06L143.85,83.52L135.38,78.87L126.92,75.91L118.46,75.02L110,75.37L101.54,69L93.08,63.64L84.62,69.4L76.15,82.17L67.69,82.9L59.23,95.97L33.85,120.06L25.38,128.25L16.92,129.4L8.46,139.41L0,134.42Z" style="fill: rgb(255, 255, 191); fill-opacity: 1; stroke-width: 0;"/></g></g><g class="errorbars"/><g class="lines"><path class="js-line" d="M0,134.42L8.46,139.41L16.92,129.4L25.38,128.25L33.85,120.06L59.23,95.97L67.69,82.9L76.15,82.17L84.62,69.4L93.08,63.64L101.54,69L110,75.37L118.46,75.02L126.92,75.91L135.38,78.87L143.85,83.52L152.31,77.06L160.77,77.59L169.23,81.74L186.15,82.42L194.62,86.74L203.08,87.51L211.54,85.65L220,86.8L228.46,86.93L236.92,85.34L245.38,85.45L253.85,81.8L262.31,82.02L270.77,86.36L279.23,84.85L287.69,87.73L296.15,85.47L313.08,89.19L321.54,88.7L330,84.12L338.46,81.94L346.92,85.44L355.38,85.64L363.85,90.84L372.31,93.53L380.77,100.66L389.23,106.29L397.69,110.71L406.15,120.24L423.08,127.06L431.54,134.05L440,131.95" style="vector-effect: non-scaling-stroke; fill: none; stroke: rgb(0, 0, 0); stroke-opacity: 1; stroke-width: 1px; opacity: 1;"/></g><g class="points"/><g class="text"/></g><g class="trace scatter tracefc42ab" style="stroke-miterlimit: 2;"><g class="fills"><g><path class="js-fill" d="M0,107.18L8.46,116.92L16.92,117.98L25.38,111.16L33.85,106.11L42.31,94.59L50.77,74.49L59.23,74.22L67.69,61.47L76.15,55.98L84.62,48.27L93.08,52.52L101.54,41.72L110,40.65L118.46,43.05L126.92,51.11L135.38,41.1L143.85,71.74L152.31,63.95L160.77,57.39L169.23,73.51L177.69,66.69L186.15,70.64L194.62,68.84L203.08,73.45L211.54,70.02L220,65.72L228.46,71.07L236.92,68.11L245.38,65.28L253.85,70.41L262.31,64.35L270.77,70.24L279.23,66.15L287.69,65.16L296.15,68.36L304.62,76.31L313.08,67.82L321.54,78.21L330,65.63L338.46,60.6L355.38,82.55L363.85,83.01L372.31,83.79L380.77,94.06L389.23,97.13L397.69,94.25L406.15,101.81L414.62,111.6L431.54,119.43L440,113.8L440,119.66L431.54,122.81L423.08,123.03L414.62,116.36L406.15,112.01L389.23,100.59L380.77,97.85L372.31,89.61L363.85,88.48L355.38,84.83L346.92,77.68L338.46,75.88L330,76.41L321.54,85.01L313.08,80.89L304.62,86.13L296.15,80.18L287.69,80.38L279.23,81.45L270.77,78.16L262.31,77.55L253.85,77.81L245.38,78.58L236.92,76.16L228.46,80.72L220,79.43L211.54,79.8L203.08,83.66L194.62,81.33L186.15,77.46L177.69,79.3L169.23,77.85L160.77,68.28L152.31,73.59L143.85,78.12L135.38,66.46L126.92,67.75L118.46,65.6L110,61.22L101.54,51.95L93.08,56.27L84.62,64.27L76.15,68.82L67.69,79.58L59.23,86.11L50.77,96.39L42.31,103.55L33.85,114.92L25.38,124.58L16.92,123.2L8.46,132.19L0,127.76Z" style="fill: rgb(252, 141, 89); fill-opacity: 1; stroke-width: 0;"/></g></g><g class="errorbars"/><g class="lines"><path class="js-line" d="M0,127.76L8.46,132.19L16.92,123.2L25.38,124.58L33.85,114.92L42.31,103.55L50.77,96.39L59.23,86.11L67.69,79.58L76.15,68.82L84.62,64.27L93.08,56.27L101.54,51.95L110,61.22L118.46,65.6L126.92,67.75L135.38,66.46L143.85,78.12L152.31,73.59L160.77,68.28L169.23,77.85L177.69,79.3L186.15,77.46L194.62,81.33L203.08,83.66L211.54,79.8L220,79.43L228.46,80.72L236.92,76.16L245.38,78.58L253.85,77.81L262.31,77.55L270.77,78.16L279.23,81.45L287.69,80.38L296.15,80.18L304.62,86.13L313.08,80.89L321.54,85.01L330,76.41L338.46,75.88L346.92,77.68L355.38,84.83L363.85,88.48L372.31,89.61L380.77,97.85L389.23,100.59L406.15,112.01L414.62,116.36L423.08,123.03L431.54,122.81L440,119.66" style="vector-effect: non-scaling-stroke; fill: none; stroke: rgb(0, 0, 0); stroke-opacity: 1; stroke-width: 0.5px; opacity: 1;"/></g><g class="points"/><g class="text"/></g><g class="trace scatter trace27f215" style="stroke-miterlimit: 2;"><g class="fills"/><g class="errorbars"/><g class="lines"><path class="js-line" d="M0,107.18L8.46,116.92L16.92,117.98L25.38,111.16L33.85,106.11L42.31,94.59L50.77,74.49L59.23,74.22L67.69,61.47L76.15,55.98L84.62,48.27L93.08,52.52L101.54,41.72L110,40.65L118.46,43.05L126.92,51.11L135.38,41.1L143.85,71.74L152.31,63.95L160.77,57.39L169.23,73.51L177.69,66.69L186.15,70.64L194.62,68.84L203.08,73.45L211.54,70.02L220,65.72L228.46,71.07L236.92,68.11L245.38,65.28L253.85,70.41L262.31,64.35L270.77,70.24L279.23,66.15L287.69,65.16L296.15,68.36L304.62,76.31L313.08,67.82L321.54,78.21L330,65.63L338.46,60.6L355.38,82.55L363.85,83.01L372.31,83.79L380.77,94.06L389.23,97.13L397.69,94.25L406.15,101.81L414.62,111.6L431.54,119.43L440,113.8" style="vector-effect: non-scaling-stroke; fill: none; stroke: rgb(0, 0, 0); stroke-opacity: 1; stroke-width: 0.25px; opacity: 1;"/></g><g class="points"/><g class="text"/></g><g class="trace scatter trace5f71d5" style="stroke-miterlimit: 2; opacity: 1;"><g class="fills"/><g class="errorbars"/><g class="lines"/><g class="points"><path class="point" transform="translate(253.85,68.2)" d="M4,0A4,4 0 1,1 0,-4A4,4 0 0,1 4,0ZM0,0.5L0.5,0L0,-0.5L-0.5,0Z" style="opacity: 1; stroke: rgb(0, 0, 0); stroke-opacity: 1; stroke-width: 1px; fill: none;"/><path class="point" transform="translate(262.31,99.2)" d="M4,0A4,4 0 1,1 0,-4A4,4 0 0,1 4,0ZM0,0.5L0.5,0L0,-0.5L-0.5,0Z" style="opacity: 1; stroke: rgb(0, 0, 0); stroke-opacity: 1; stroke-width: 1px; fill: none;"/><path class="point" transform="translate(270.77,86.8)" d="M4,0A4,4 0 1,1 0,-4A4,4 0 0,1 4,0ZM0,0.5L0.5,0L0,-0.5L-0.5,0Z" style="opacity: 1; stroke: rgb(0, 0, 0); stroke-opacity: 1; stroke-width: 1px; fill: none;"/><path class="point" transform="translate(279.23,86.8)" d="M4,0A4,4 0 1,1 0,-4A4,4 0 0,1 4,0ZM0,0.5L0.5,0L0,-0.5L-0.5,0Z" style="opacity: 1; stroke: rgb(0, 0, 0); stroke-opacity: 1; stroke-width: 1px; fill: none;"/></g><g class="text"/></g></g></g><g class="overplot"/><path class="xlines-above crisp" d="M0,0" style="fill: none;"/><path class="ylines-above crisp" d="M0,0" style="fill: none;"/><g class="overlines-above"/><g class="xaxislayer-above"/><g class="yaxislayer-above"><g class="y2tick"><text text-anchor="end" x="79" y="4.199999999999999" transform="translate(0,472.00000000000006)" style="font-family: 'Open Sans', verdana, arial, sans-serif; font-size: 12px; fill: rgb(42, 63, 95); fill-opacity: 1; white-space: pre; opacity: 1;">20</text></g><g class="y2tick"><text text-anchor="end" x="79" y="4.199999999999999" style="font-family: 'Open Sans', verdana, arial, sans-serif; font-size: 12px; fill: rgb(42, 63, 95); fill-opacity: 1; white-space: pre; opacity: 1;" transform="translate(0,410.00000000000006)">30</text></g><g class="y2tick"><text text-anchor="end" x="79" y="4.199999999999999" style="font-family: 'Open Sans', verdana, arial, sans-serif; font-size: 12px; fill: rgb(42, 63, 95); fill-opacity: 1; white-space: pre; opacity: 1;" transform="translate(0,348.00000000000006)">40</text></g></g><g class="overaxes-above"/></g><g class="subplot x3y3"><g class="layer-subplot"><g class="shapelayer"/><g class="imagelayer"/></g><g class="minor-gridlayer"><g class="x3"/><g class="y3"/></g><g class="gridlayer"><g class="x3"><path class="x3grid crisp" transform="translate(156.15,0)" d="M0,534v186" style="stroke: rgb(255, 255, 255); stroke-opacity: 1; stroke-width: 1px;"/><path class="x3grid crisp" transform="translate(240.77,0)" d="M0,534v186" style="stroke: rgb(255, 255, 255); stroke-opacity: 1; stroke-width: 1px;"/><path class="x3grid crisp" transform="translate(325.38,0)" d="M0,534v186" style="stroke: rgb(255, 255, 255); stroke-opacity: 1; stroke-width: 1px;"/><path class="x3grid crisp" transform="translate(410,0)" d="M0,534v186" style="stroke: rgb(255, 255, 255); stroke-opacity: 1; stroke-width: 1px;"/><path class="x3grid crisp" transform="translate(494.62,0)" d="M0,534v186" style="stroke: rgb(255, 255, 255); stroke-opacity: 1; stroke-width: 1px;"/></g><g class="y3"><path class="y3grid crisp" transform="translate(0,682.8)" d="M80,0h440" style="stroke: rgb(255, 255, 255); stroke-opacity: 1; stroke-width: 1px;"/><path class="y3grid crisp" transform="translate(0,645.6)" d="M80,0h440" style="stroke: rgb(255, 255, 255); stroke-opacity: 1; stroke-width: 1px;"/><path class="y3grid crisp" transform="translate(0,608.4)" d="M80,0h440" style="stroke: rgb(255, 255, 255); stroke-opacity: 1; stroke-width: 1px;"/><path class="y3grid crisp" transform="translate(0,571.2)" d="M80,0h440" style="stroke: rgb(255, 255, 255); stroke-opacity: 1; stroke-width: 1px;"/></g></g><g class="zerolinelayer"/><path class="xlines-below"/><path class="ylines-below"/><g class="overlines-below"/><g class="xaxislayer-below"/><g class="yaxislayer-below"/><g class="overaxes-below"/><g class="plot" transform="translate(80,534)" clip-path="url(#clip502925x3y3plot)"><g class="scatterlayer mlayer"><g class="trace scatter tracedf2d5b" style="stroke-miterlimit: 2;"><g class="fills"><g><path class="js-fill" d="M0,123.22L8.46,134.69L16.92,128.63L25.38,123.1L33.85,119.89L42.31,111.13L50.77,107.34L59.23,98.74L67.69,87.45L76.15,85.07L84.62,74.47L93.08,68.1L101.54,66.05L110,63.32L118.46,63.98L126.92,55.37L135.38,57.26L143.85,57.19L152.31,49.69L160.77,45.78L169.23,43.47L194.62,38.13L203.08,37.41L236.92,37.7L245.38,38.95L262.31,36.85L270.77,37.68L279.23,38.74L287.69,38.93L296.15,39.41L304.62,41.05L313.08,42.28L321.54,40.34L330,43.13L338.46,47.2L346.92,48.23L355.38,54.02L363.85,63.64L372.31,67.78L380.77,77.48L389.23,85.59L397.69,95.84L406.15,103.15L414.62,106.76L423.08,120.63L431.54,122.4L440,132.63L440,138.02L431.54,140.5L423.08,130.06L414.62,125.81L406.15,118.51L397.69,112.81L389.23,92.7L380.77,86.48L372.31,75.28L363.85,66.7L355.38,61.66L346.92,57.93L338.46,53.04L330,51.97L321.54,45.81L313.08,49.32L304.62,43.79L296.15,41.35L287.69,41.13L279.23,42.2L270.77,42.3L262.31,42.2L253.85,39.33L245.38,42.83L236.92,40.71L228.46,41.13L220,39.64L211.54,38.69L203.08,40.39L194.62,41.35L186.15,44.32L177.69,46.92L169.23,48.25L160.77,52.4L152.31,54.42L143.85,60.86L135.38,63.14L126.92,64.41L118.46,67.81L110,73.34L101.54,73.59L93.08,86.11L84.62,93L76.15,98.14L67.69,107.61L59.23,109.79L50.77,126.37L42.31,125.2L33.85,137.14L25.38,130.41L16.92,134.95L8.46,143.06L0,129.92Z" style="fill: rgb(90, 180, 172); fill-opacity: 1; stroke-width: 0;"/></g></g><g class="errorbars"/><g class="lines"><path class="js-line" d="M0,129.92L8.46,143.06L16.92,134.95L25.38,130.41L33.85,137.14L42.31,125.2L50.77,126.37L59.23,109.79L67.69,107.61L76.15,98.14L84.62,93L93.08,86.11L101.54,73.59L110,73.34L118.46,67.81L126.92,64.41L135.38,63.14L143.85,60.86L152.31,54.42L160.77,52.4L169.23,48.25L177.69,46.92L186.15,44.32L194.62,41.35L203.08,40.39L211.54,38.69L220,39.64L228.46,41.13L236.92,40.71L245.38,42.83L253.85,39.33L262.31,42.2L270.77,42.3L279.23,42.2L287.69,41.13L296.15,41.35L304.62,43.79L313.08,49.32L321.54,45.81L330,51.97L338.46,53.04L346.92,57.93L355.38,61.66L363.85,66.7L372.31,75.28L380.77,86.48L389.23,92.7L397.69,112.81L406.15,118.51L414.62,125.81L423.08,130.06L431.54,140.5L440,138.02" style="vector-effect: non-scaling-stroke; fill: none; stroke: rgb(0, 0, 0); stroke-opacity: 1; stroke-width: 0.25px; opacity: 1;"/></g><g class="points"/><g class="text"/></g><g class="trace scatter tracef626e0" style="stroke-miterlimit: 2;"><g class="fills"><g><path class="js-fill" d="M0,119.99L8.46,125.58L16.92,118.14L25.38,113.46L33.85,113.62L42.31,102.46L50.77,95.87L59.23,89.88L67.69,78.97L76.15,75.39L84.62,66.06L93.08,60.5L101.54,57.13L110,59.52L118.46,60.05L126.92,52.29L135.38,53.04L143.85,52.88L152.31,45.81L160.77,41.77L169.23,40.55L177.69,39.75L186.15,36.67L194.62,37.04L203.08,35.82L220,34.81L228.46,35.77L236.92,35.82L245.38,37.25L253.85,36.14L262.31,32.63L270.77,35.55L279.23,35.02L296.15,37.47L304.62,38.85L330,39.27L338.46,40.93L346.92,45.49L355.38,51.02L363.85,59.31L372.31,64.09L380.77,73.12L389.23,78.76L397.69,88.38L406.15,96.85L414.62,100.92L423.08,108.62L431.54,115.94L440,127.13L440,132.63L431.54,122.4L423.08,120.63L414.62,106.76L406.15,103.15L397.69,95.84L389.23,85.59L380.77,77.48L372.31,67.78L363.85,63.64L355.38,54.02L346.92,48.23L338.46,47.2L330,43.13L321.54,40.34L313.08,42.28L304.62,41.05L296.15,39.41L287.69,38.93L279.23,38.74L270.77,37.68L262.31,36.85L245.38,38.95L236.92,37.7L203.08,37.41L194.62,38.13L169.23,43.47L160.77,45.78L152.31,49.69L143.85,57.19L135.38,57.26L126.92,55.37L118.46,63.98L110,63.32L101.54,66.05L93.08,68.1L84.62,74.47L76.15,85.07L67.69,87.45L59.23,98.74L50.77,107.34L42.31,111.13L33.85,119.89L25.38,123.1L16.92,128.63L8.46,134.69L0,123.22Z" style="fill: rgb(245, 245, 245); fill-opacity: 1; stroke-width: 0;"/></g></g><g class="errorbars"/><g class="lines"><path class="js-line" d="M0,123.22L8.46,134.69L16.92,128.63L25.38,123.1L33.85,119.89L42.31,111.13L50.77,107.34L59.23,98.74L67.69,87.45L76.15,85.07L84.62,74.47L93.08,68.1L101.54,66.05L110,63.32L118.46,63.98L126.92,55.37L135.38,57.26L143.85,57.19L152.31,49.69L160.77,45.78L169.23,43.47L194.62,38.13L203.08,37.41L236.92,37.7L245.38,38.95L262.31,36.85L270.77,37.68L279.23,38.74L287.69,38.93L296.15,39.41L304.62,41.05L313.08,42.28L321.54,40.34L330,43.13L338.46,47.2L346.92,48.23L355.38,54.02L363.85,63.64L372.31,67.78L380.77,77.48L389.23,85.59L397.69,95.84L406.15,103.15L414.62,106.76L423.08,120.63L431.54,122.4L440,132.63" style="vector-effect: non-scaling-stroke; fill: none; stroke: rgb(0, 0, 0); stroke-opacity: 1; stroke-width: 0.5px; opacity: 1;"/></g><g class="points"/><g class="text"/></g><g class="trace scatter trace800571" style="stroke-miterlimit: 2;"><g class="fills"><g><path class="js-fill" d="M0,111.45L8.46,115.48L16.92,110.56L25.38,111.6L33.85,105.65L42.31,95.39L50.77,90.98L59.23,79.02L67.69,73.42L93.08,53.49L101.54,47.7L110,52.43L118.46,49.66L126.92,48.15L135.38,42.65L143.85,45.14L152.31,43.28L160.77,40.1L169.23,38.05L194.62,34.24L203.08,34.17L220,32.56L228.46,32.87L245.38,34.17L253.85,32.74L262.31,31.46L270.77,32.6L304.62,36.59L313.08,34.12L321.54,36.52L330,34.26L338.46,35.66L346.92,41.53L363.85,53.75L372.31,58.19L380.77,68.32L389.23,74.98L397.69,81.18L406.15,89.07L414.62,93.37L423.08,95.21L431.54,104.89L440,118.09L440,127.13L431.54,115.94L423.08,108.62L414.62,100.92L406.15,96.85L397.69,88.38L389.23,78.76L380.77,73.12L372.31,64.09L363.85,59.31L355.38,51.02L346.92,45.49L338.46,40.93L330,39.27L304.62,38.85L296.15,37.47L279.23,35.02L270.77,35.55L262.31,32.63L253.85,36.14L245.38,37.25L236.92,35.82L228.46,35.77L220,34.81L203.08,35.82L194.62,37.04L186.15,36.67L177.69,39.75L169.23,40.55L160.77,41.77L152.31,45.81L143.85,52.88L135.38,53.04L126.92,52.29L118.46,60.05L110,59.52L101.54,57.13L93.08,60.5L84.62,66.06L76.15,75.39L67.69,78.97L59.23,89.88L50.77,95.87L42.31,102.46L33.85,113.62L25.38,113.46L16.92,118.14L8.46,125.58L0,119.99Z" style="fill: rgb(245, 245, 245); fill-opacity: 1; stroke-width: 0;"/></g></g><g class="errorbars"/><g class="lines"><path class="js-line" d="M0,119.99L8.46,125.58L16.92,118.14L25.38,113.46L33.85,113.62L42.31,102.46L50.77,95.87L59.23,89.88L67.69,78.97L76.15,75.39L84.62,66.06L93.08,60.5L101.54,57.13L110,59.52L118.46,60.05L126.92,52.29L135.38,53.04L143.85,52.88L152.31,45.81L160.77,41.77L169.23,40.55L177.69,39.75L186.15,36.67L194.62,37.04L203.08,35.82L220,34.81L228.46,35.77L236.92,35.82L245.38,37.25L253.85,36.14L262.31,32.63L270.77,35.55L279.23,35.02L296.15,37.47L304.62,38.85L330,39.27L338.46,40.93L346.92,45.49L355.38,51.02L363.85,59.31L372.31,64.09L380.77,73.12L389.23,78.76L397.69,88.38L406.15,96.85L414.62,100.92L423.08,108.62L431.54,115.94L440,127.13" style="vector-effect: non-scaling-stroke; fill: none; stroke: rgb(0, 0, 0); stroke-opacity: 1; stroke-width: 1px; opacity: 1;"/></g><g class="points"/><g class="text"/></g><g class="trace scatter trace24343d" style="stroke-miterlimit: 2;"><g class="fills"><g><path class="js-fill" d="M0,105.65L8.46,105.44L16.92,91.62L25.38,95.55L33.85,89.07L42.31,85.67L50.77,70.25L59.23,63.45L67.69,58.14L76.15,45.07L84.62,47.3L101.54,37.94L110,42.09L118.46,36.99L126.92,45.49L135.38,29.44L143.85,35.63L152.31,34.86L160.77,36.77L169.23,30.04L177.69,29.87L186.15,31.04L194.62,28.59L203.08,31.99L211.54,32.31L220,25.81L228.46,27.27L236.92,29.51L245.38,29.44L253.85,24.93L262.31,26.43L270.77,29.12L279.23,26.75L287.69,27.48L296.15,29.29L304.62,30.22L313.08,26.07L321.54,32.27L330,25.3L346.92,34.86L355.38,38.27L363.85,46.53L372.31,49L380.77,63.56L389.23,67.49L397.69,74.93L406.15,77.69L414.62,82.8L423.08,84.92L431.54,98.21L440,98.7L440,118.09L431.54,104.89L423.08,95.21L414.62,93.37L406.15,89.07L397.69,81.18L389.23,74.98L380.77,68.32L372.31,58.19L363.85,53.75L346.92,41.53L338.46,35.66L330,34.26L321.54,36.52L313.08,34.12L304.62,36.59L270.77,32.6L262.31,31.46L253.85,32.74L245.38,34.17L228.46,32.87L220,32.56L203.08,34.17L194.62,34.24L169.23,38.05L160.77,40.1L152.31,43.28L143.85,45.14L135.38,42.65L126.92,48.15L118.46,49.66L110,52.43L101.54,47.7L93.08,53.49L67.69,73.42L59.23,79.02L50.77,90.98L42.31,95.39L33.85,105.65L25.38,111.6L16.92,110.56L8.46,115.48L0,111.45Z" style="fill: rgb(216, 179, 101); fill-opacity: 1; stroke-width: 0;"/></g></g><g class="errorbars"/><g class="lines"><path class="js-line" d="M0,111.45L8.46,115.48L16.92,110.56L25.38,111.6L33.85,105.65L42.31,95.39L50.77,90.98L59.23,79.02L67.69,73.42L93.08,53.49L101.54,47.7L110,52.43L118.46,49.66L126.92,48.15L135.38,42.65L143.85,45.14L152.31,43.28L160.77,40.1L169.23,38.05L194.62,34.24L203.08,34.17L220,32.56L228.46,32.87L245.38,34.17L253.85,32.74L262.31,31.46L270.77,32.6L304.62,36.59L313.08,34.12L321.54,36.52L330,34.26L338.46,35.66L346.92,41.53L363.85,53.75L372.31,58.19L380.77,68.32L389.23,74.98L397.69,81.18L406.15,89.07L414.62,93.37L423.08,95.21L431.54,104.89L440,118.09" style="vector-effect: non-scaling-stroke; fill: none; stroke: rgb(0, 0, 0); stroke-opacity: 1; stroke-width: 0.5px; opacity: 1;"/></g><g class="points"/><g class="text"/></g><g class="trace scatter tracec946c4" style="stroke-miterlimit: 2;"><g class="fills"/><g class="errorbars"/><g class="lines"><path class="js-line" d="M0,105.65L8.46,105.44L16.92,91.62L25.38,95.55L33.85,89.07L42.31,85.67L50.77,70.25L59.23,63.45L67.69,58.14L76.15,45.07L84.62,47.3L101.54,37.94L110,42.09L118.46,36.99L126.92,45.49L135.38,29.44L143.85,35.63L152.31,34.86L160.77,36.77L169.23,30.04L177.69,29.87L186.15,31.04L194.62,28.59L203.08,31.99L211.54,32.31L220,25.81L228.46,27.27L236.92,29.51L245.38,29.44L253.85,24.93L262.31,26.43L270.77,29.12L279.23,26.75L287.69,27.48L296.15,29.29L304.62,30.22L313.08,26.07L321.54,32.27L330,25.3L346.92,34.86L355.38,38.27L363.85,46.53L372.31,49L380.77,63.56L389.23,67.49L397.69,74.93L406.15,77.69L414.62,82.8L423.08,84.92L431.54,98.21L440,98.7" style="vector-effect: non-scaling-stroke; fill: none; stroke: rgb(0, 0, 0); stroke-opacity: 1; stroke-width: 0.25px; opacity: 1;"/></g><g class="points"/><g class="text"/></g><g class="trace scatter traced2ebb2" style="stroke-miterlimit: 2; opacity: 1;"><g class="fills"/><g class="errorbars"/><g class="lines"/><g class="points"><path class="point" transform="translate(253.85,22.32)" d="M4,0A4,4 0 1,1 0,-4A4,4 0 0,1 4,0ZM0,0.5L0.5,0L0,-0.5L-0.5,0Z" style="opacity: 1; stroke: rgb(0, 0, 0); stroke-opacity: 1; stroke-width: 1px; fill: none;"/><path class="point" transform="translate(262.31,37.2)" d="M4,0A4,4 0 1,1 0,-4A4,4 0 0,1 4,0ZM0,0.5L0.5,0L0,-0.5L-0.5,0Z" style="opacity: 1; stroke: rgb(0, 0, 0); stroke-opacity: 1; stroke-width: 1px; fill: none;"/><path class="point" transform="translate(270.77,29.76)" d="M4,0A4,4 0 1,1 0,-4A4,4 0 0,1 4,0ZM0,0.5L0.5,0L0,-0.5L-0.5,0Z" style="opacity: 1; stroke: rgb(0, 0, 0); stroke-opacity: 1; stroke-width: 1px; fill: none;"/><path class="point" transform="translate(279.23,29.76)" d="M4,0A4,4 0 1,1 0,-4A4,4 0 0,1 4,0ZM0,0.5L0.5,0L0,-0.5L-0.5,0Z" style="opacity: 1; stroke: rgb(0, 0, 0); stroke-opacity: 1; stroke-width: 1px; fill: none;"/></g><g class="text"/></g></g></g><g class="overplot"/><path class="xlines-above crisp" d="M0,0" style="fill: none;"/><path class="ylines-above crisp" d="M0,0" style="fill: none;"/><g class="overlines-above"/><g class="xaxislayer-above"><g class="x3tick"><text text-anchor="middle" x="0" y="733" transform="translate(156.15,0)" style="font-family: 'Open Sans', verdana, arial, sans-serif; font-size: 12px; fill: rgb(42, 63, 95); fill-opacity: 1; white-space: pre; opacity: 1;">10</text></g><g class="x3tick"><text text-anchor="middle" x="0" y="733" style="font-family: 'Open Sans', verdana, arial, sans-serif; font-size: 12px; fill: rgb(42, 63, 95); fill-opacity: 1; white-space: pre; opacity: 1;" transform="translate(240.77,0)">20</text></g><g class="x3tick"><text text-anchor="middle" x="0" y="733" style="font-family: 'Open Sans', verdana, arial, sans-serif; font-size: 12px; fill: rgb(42, 63, 95); fill-opacity: 1; white-space: pre; opacity: 1;" transform="translate(325.38,0)">30</text></g><g class="x3tick"><text text-anchor="middle" x="0" y="733" style="font-family: 'Open Sans', verdana, arial, sans-serif; font-size: 12px; fill: rgb(42, 63, 95); fill-opacity: 1; white-space: pre; opacity: 1;" transform="translate(410,0)">40</text></g><g class="x3tick"><text text-anchor="middle" x="0" y="733" style="font-family: 'Open Sans', verdana, arial, sans-serif; font-size: 12px; fill: rgb(42, 63, 95); fill-opacity: 1; white-space: pre; opacity: 1;" transform="translate(494.62,0)">50</text></g></g><g class="yaxislayer-above"><g class="y3tick"><text text-anchor="end" x="79" y="4.199999999999999" transform="translate(0,720)" style="font-family: 'Open Sans', verdana, arial, sans-serif; font-size: 12px; fill: rgb(42, 63, 95); fill-opacity: 1; white-space: pre; opacity: 1;">5</text></g><g class="y3tick"><text text-anchor="end" x="79" y="4.199999999999999" style="font-family: 'Open Sans', verdana, arial, sans-serif; font-size: 12px; fill: rgb(42, 63, 95); fill-opacity: 1; white-space: pre; opacity: 1;" transform="translate(0,682.8)">10</text></g><g class="y3tick"><text text-anchor="end" x="79" y="4.199999999999999" style="font-family: 'Open Sans', verdana, arial, sans-serif; font-size: 12px; fill: rgb(42, 63, 95); fill-opacity: 1; white-space: pre; opacity: 1;" transform="translate(0,645.6)">15</text></g><g class="y3tick"><text text-anchor="end" x="79" y="4.199999999999999" style="font-family: 'Open Sans', verdana, arial, sans-serif; font-size: 12px; fill: rgb(42, 63, 95); fill-opacity: 1; white-space: pre; opacity: 1;" transform="translate(0,608.4)">20</text></g><g class="y3tick"><text text-anchor="end" x="79" y="4.199999999999999" style="font-family: 'Open Sans', verdana, arial, sans-serif; font-size: 12px; fill: rgb(42, 63, 95); fill-opacity: 1; white-space: pre; opacity: 1;" transform="translate(0,571.2)">25</text></g><g class="y3tick"><text text-anchor="end" x="79" y="4.199999999999999" style="font-family: 'Open Sans', verdana, arial, sans-serif; font-size: 12px; fill: rgb(42, 63, 95); fill-opacity: 1; white-space: pre; opacity: 1;" transform="translate(0,534)">30</text></g></g><g class="overaxes-above"/></g></g><g class="polarlayer"/><g class="smithlayer"/><g class="ternarylayer"/><g class="geolayer"/><g class="funnelarealayer"/><g class="pielayer"/><g class="iciclelayer"/><g class="treemaplayer"/><g class="sunburstlayer"/><g class="glimages"/><defs id="topdefs-502925"><g class="clips"/></defs><g class="layer-above"><g class="imagelayer"/><g class="shapelayer"/></g><g class="infolayer"><g class="g-gtitle"><text class="gtitle" x="30" y="50" text-anchor="start" dy="0em" style="font-family: 'Open Sans', verdana, arial, sans-serif; font-size: 17px; fill: rgb(42, 63, 95); opacity: 1; font-weight: normal; white-space: pre;">Climatology and S2S forecast for Jamalpur</text></g><g class="g-xtitle"/><g class="g-x2title"/><g class="g-x3title"/><g class="g-ytitle"><text class="ytitle" transform="rotate(-90,34.16875,193)" x="34.16875" y="193" text-anchor="middle" style="font-family: 'Open Sans', verdana, arial, sans-serif; font-size: 14px; fill: rgb(42, 63, 95); opacity: 1; font-weight: normal; white-space: pre;">[mm]</text></g><g class="g-y2title"><text class="y2title" transform="rotate(-90,40.840625,410.00000000000006)" x="40.840625" y="410.00000000000006" text-anchor="middle" style="font-family: 'Open Sans', verdana, arial, sans-serif; font-size: 14px; fill: rgb(42, 63, 95); opacity: 1; font-weight: normal; white-space: pre;">[C]</text></g><g class="g-y3title"><text class="y3title" transform="rotate(-90,40.840625,627)" x="40.840625" y="627" text-anchor="middle" style="font-family: 'Open Sans', verdana, arial, sans-serif; font-size: 14px; fill: rgb(42, 63, 95); opacity: 1; font-weight: normal; white-space: pre;">[C]</text></g><g class="annotation" data-index="0" style="opacity: 1;"><g class="annotation-text-g" transform="rotate(0,300,89.5)"><g class="cursor-pointer" transform="translate(237,79)"><rect class="bg" x="0.5" y="0.5" width="126" height="20" style="stroke-width: 1px; stroke: rgb(0, 0, 0); stroke-opacity: 0; fill: rgb(0, 0, 0); fill-opacity: 0;"/><text class="annotation-text" text-anchor="middle" x="63.359375" y="16" style="font-family: 'Open Sans', verdana, arial, sans-serif; font-size: 16px; fill: rgb(42, 63, 95); fill-opacity: 1; white-space: pre;">Precipitation sum</text></g></g></g><g class="annotation" data-index="1" style="opacity: 1;"><g class="annotation-text-g" transform="rotate(0,300,306.50000000000006)"><g class="cursor-pointer" transform="translate(196,296)"><rect class="bg" x="0.5" y="0.5" width="208" height="20" style="stroke-width: 1px; stroke: rgb(0, 0, 0); stroke-opacity: 0; fill: rgb(0, 0, 0); fill-opacity: 0;"/><text class="annotation-text" text-anchor="middle" x="104.265625" y="16" style="font-family: 'Open Sans', verdana, arial, sans-serif; font-size: 16px; fill: rgb(42, 63, 95); fill-opacity: 1; white-space: pre;">Mean maximum temperature</text></g></g></g><g class="annotation" data-index="2" style="opacity: 1;"><g class="annotation-text-g" transform="rotate(0,300,523.5)"><g class="cursor-pointer" transform="translate(198,513)"><rect class="bg" x="0.5" y="0.5" width="203" height="20" style="stroke-width: 1px; stroke: rgb(0, 0, 0); stroke-opacity: 0; fill: rgb(0, 0, 0); fill-opacity: 0;"/><text class="annotation-text" text-anchor="middle" x="102.046875" y="16" style="font-family: 'Open Sans', verdana, arial, sans-serif; font-size: 16px; fill: rgb(42, 63, 95); fill-opacity: 1; white-space: pre;">Mean minimum temperature</text></g></g></g><g class="annotation" data-index="3" style="opacity: 1;"><g class="annotation-text-g" transform="rotate(0,300,760.5)"><g class="cursor-pointer" transform="translate(277,750)"><rect class="bg" x="0.5" y="0.5" width="45" height="20" style="stroke-width: 1px; stroke: rgb(0, 0, 0); stroke-opacity: 0; fill: rgb(0, 0, 0); fill-opacity: 0;"/><text class="annotation-text" text-anchor="middle" x="22.3125" y="16" style="font-family: 'Open Sans', verdana, arial, sans-serif; font-size: 16px; fill: rgb(42, 63, 95); fill-opacity: 1; white-space: pre;">Week</text></g></g></g></g></svg>