<svg class="main-svg" xmlns="http://www.w3.org/2000/svg" xmlns:xlink="http://www.w3.org/1999/xlink" width="600" height="800" style="" viewBox="0 0 600 800"><rect x="0" y="0" width="600" height="800" style="fill: rgb(255, 255, 255); fill-opacity: 1;"/><defs id="defs-e1a653"><g class="clips"><clipPath id="clipe1a653xyplot" class="plotclip"><rect width="440" height="186.00000000000003"/></clipPath><clipPath id="clipe1a653x2y2plot" class="plotclip"><rect width="440" height="185.99999999999997"/></clipPath><clipPath id="clipe1a653x3y3plot" class="plotclip"><rect width="440" height="186"/></clipPath><clipPath class="axesclip" id="clipe1a653x"><rect x="80" y="0" width="440" height="800"/></clipPath><clipPath class="axesclip" id="clipe1a653y"><rect x="0" y="100" width="600" height="186.00000000000003"/></clipPath><clipPath class="axesclip" id="clipe1a653xy"><rect x="80" y="100" width="440" height="186.00000000000003"/></clipPath><clipPath class="axesclip" id="clipe1a653y2"><rect x="0" y="317.00000000000006" width="600" height="185.99999999999997"/></clipPath><clipPath class="axesclip" id="clipe1a653xy2"><rect x="80" y="317.00000000000006" width="440" height="185.99999999999997"/></clipPath><clipPath class="axesclip" id="clipe1a653y3"><rect x="0" y="534" width="600" height="186"/></clipPath><clipPath class="axesclip" id="clipe1a653xy3"><rect x="80" y="534" width="440" height="186"/></clipPath><clipPath class="axesclip" id="clipe1a653x2"><rect x="80" y="0" width="440" height="800"/></clipPath><clipPath class="axesclip" id="clipe1a653x2y"><rect x="80" y="100" width="440" height="186.00000000000003"/></clipPath><clipPath class="axesclip" id="clipe1a653x2y2"><rect x="80" y="317.00000000000006" width="440" height="185.99999999999997"/></clipPath><clipPath class="axesclip" id="clipe1a653x2y3"><rect x="80" y="534" width="440" height="186"/></clipPath><clipPath class="axesclip" id="clipe1a653x3"><rect x="80" y="0" width="440" height="800"/></clipPath><clipPath class="axesclip" id="clipe1a653x3y"><rect x="80" y="100" width="440" height="186.00000000000003"/></clipPath><clipPath class="axesclip" id="clipe1a653x3y2"><rect x="80" y="317.00000000000006" width="440" height="185.99999999999997"/></clipPath><clipPath class="axesclip" id="clipe1a653x3y3"><rect x="80" y="534" width="440" height="186"/></clipPath></g><g class="gradients"/><g class="patterns"/></defs><g class="bglayer"><rect class="bg" x="80" y="100" width="440" height="186.00000000000003" style="fill: rgb(229, 236, 246); fill-opacity: 1; stroke-width: 0;"/><rect class="bg" x="80" y="317.00000000000006" width="440" height="185.99999999999997" style="fill: rgb(229, 236, 246); fill-opacity: 1; stroke-width: 0;"/><rect class="bg" x="80" y="534" width="440" height="186" style="fill: rgb(229, 236, 246); fill-opacity: 1; stroke-width: 0;"/></g><g class="layer-below"><g class="imagelayer"/><g class="shapelayer"/></g><g class="cartesianlayer"><g class="subplot xy"><g class="layer-subplot"><g class="shapelayer"/><g class="imagelayer"/></g><g class="minor-gridlayer"><g class="x"/><g class="y"/></g><g class="gridlayer"><g class="x"><path class="xgrid crisp" transform="translate(156.15,0)" d="M0,100v186.00000000000003" style="stroke: rgb(255, 255, 255); stroke-opacity: 1; stroke-width: 1px;"/><path class="xgrid crisp" transform="translate(240.77,0)" d="M0,100v186.00000000000003" style="stroke: rgb(255, 255, 255); stroke-opacity: 1; stroke-width: 1px;"/><path class="xgrid crisp" transform="translate(325.38,0)" d="M0,100v186.00000000000003" style="stroke: rgb(255, 255, 255); stroke-opacity: 1; stroke-width: 1px;"/><path class="xgrid crisp" transform="translate(410,0)" d="M0,100v186.00000000000003" style="stroke: rgb(255, 255, 255); stroke-opacity: 1; stroke-width: 1px;"/><path class="xgrid crisp" transform="translate(494.62,0)" d="M0,100v186.00000000000003" style="stroke: rgb(255, 255, 255); stroke-opacity: 1; stroke-width: 1px;"/></g><g class="y"><path class="ygrid crisp" transform="translate(0,248.8)" d="M80,0h440" style="stroke: rgb(255, 255, 255); stroke-opacity: 1; stroke-width: 1px;"/><path class="ygrid crisp" transform="translate(0,211.6)" d="M80,0h440" style="stroke: rgb(255, 255, 255); stroke-opacity: 1; stroke-width: 1px;"/><path class="ygrid crisp" transform="translate(0,174.4)" d="M80,0h440" style="stroke: rgb(255, 255, 255); stroke-opacity: 1; stroke-width: 1px;"/><path class="ygrid crisp" transform="translate(0,137.2)" d="M80,0h440" style="stroke: rgb(255, 255, 255); stroke-opacity: 1; stroke-width: 1px;"/></g></g><g class="zerolinelayer"><path class="yzl zl crisp" transform="translate(0,286)" d="M80,0h440" style="stroke: rgb(255, 255, 255); stroke-opacity: 1; stroke-width: 2px;"/></g><path class="xlines-below"/><path class="ylines-below"/><g class="overlines-below"/><g class="xaxislayer-below"/><g class="yaxislayer-below"/><g class="overaxes-below"/><g class="plot" transform="translate(80,100)" clip-path="url(#clipe1a653xyplot)"><g class="scatterlayer mlayer"><g class="trace scatter tracefd38d3" style="stroke-miterlimit: 2;"><g class="fills"><g><path class="js-fill" d="M0,186L118.46,185.98L126.92,181.84L135.38,183.47L143.85,175.39L152.31,178.59L160.77,171.53L169.23,168.98L177.69,164.43L186.15,174.8L194.62,165.72L203.08,159.81L211.54,164.04L220,168.15L228.46,171.13L236.92,166.45L245.38,166.46L253.85,166.85L262.31,161.92L270.77,156.17L279.23,173.73L287.69,172.89L296.15,177.52L304.62,176.62L313.08,173.02L321.54,165.95L330,182.39L338.46,183.66L346.92,186L440,186L440,186L287.69,185.87L279.23,183.45L270.77,182.96L262.31,177.16L253.85,186L245.38,184.54L236.92,177.49L228.46,185.04L220,184.25L211.54,185.89L203.08,184.41L194.62,180.08L186.15,185.99L177.69,181.75L169.23,181.36L160.77,185.99L0,186Z" style="fill: rgb(224, 236, 244); fill-opacity: 1; stroke-width: 0;"/></g></g><g class="errorbars"/><g class="lines"><path class="js-line" d="M0,186L160.77,185.99L169.23,181.36L177.69,181.75L186.15,185.99L194.62,180.08L203.08,184.41L211.54,185.89L220,184.25L228.46,185.04L236.92,177.49L245.38,184.54L253.85,186L262.31,177.16L270.77,182.96L279.23,183.45L287.69,185.87L440,186" style="vector-effect: non-scaling-stroke; fill: none; stroke: rgb(0, 0, 0); stroke-opacity: 1; stroke-width: 0.25px; opacity: 1;"/></g><g class="points"/><g class="text"/></g><g class="trace scatter trace13adcd" style="stroke-miterlimit: 2;"><g class="fills"><g><path class="js-fill" d="M0,186L101.54,185.39L110,178.97L118.46,175.47L126.92,173.22L135.38,174.56L143.85,166.69L152.31,161.65L160.77,160.84L169.23,144.25L177.69,150.04L186.15,156.87L194.62,144.57L203.08,129.59L211.54,144.01L220,144.44L228.46,132.51L236.92,158.76L245.38,136.75L253.85,146.79L262.31,152.42L270.77,129.71L279.23,144.93L287.69,162.21L296.15,166.58L304.62,152.73L313.08,162.09L321.54,140.63L330,164.69L338.46,170.18L346.92,179.15L355.38,186L363.85,186L440,186L440,186L346.92,186L338.46,183.66L330,182.39L321.54,165.95L313.08,173.02L304.62,176.62L296.15,177.52L287.69,172.89L279.23,173.73L270.77,156.17L262.31,161.92L253.85,166.85L245.38,166.46L236.92,166.45L228.46,171.13L220,168.15L211.54,164.04L203.08,159.81L194.62,165.72L186.15,174.8L177.69,164.43L169.23,168.98L160.77,171.53L152.31,178.59L143.85,175.39L135.38,183.47L126.92,181.84L118.46,185.98L0,186Z" style="fill: rgb(158, 188, 218); fill-opacity: 1; stroke-width: 0;"/></g></g><g class="errorbars"/><g class="lines"><path class="js-line" d="M0,186L118.46,185.98L126.92,181.84L135.38,183.47L143.85,175.39L152.31,178.59L160.77,171.53L169.23,168.98L177.69,164.43L186.15,174.8L194.62,165.72L203.08,159.81L211.54,164.04L220,168.15L228.46,171.13L236.92,166.45L245.38,166.46L253.85,166.85L262.31,161.92L270.77,156.17L279.23,173.73L287.69,172.89L296.15,177.52L304.62,176.62L313.08,173.02L321.54,165.95L330,182.39L338.46,183.66L346.92,186L440,186" style="vector-effect: non-scaling-stroke; fill: none; stroke: rgb(0, 0, 0); stroke-opacity: 1; stroke-width: 0.5px; opacity: 1;"/></g><g class="points"/><g class="text"/></g><g class="trace scatter traceb305f1" style="stroke-miterlimit: 2;"><g class="fills"><g><path class="js-fill" d="M0,185.89L42.31,186L50.77,184L59.23,186L67.69,182.71L76.15,183.02L84.62,186L93.08,182.49L101.54,174.35L110,171.79L118.46,165.93L126.92,160.58L135.38,157.9L143.85,146.34L152.31,148.04L160.77,151.02L169.23,131.14L177.69,112.72L186.15,125.01L194.62,132.12L203.08,104.41L211.54,104.97L220,131.01L228.46,114.99L236.92,127.71L245.38,114.83L253.85,119.98L262.31,131.79L270.77,90.85L279.23,124.36L287.69,146.63L296.15,127.94L304.62,137.95L313.08,127.04L321.54,125.51L330,155.31L338.46,134.35L346.92,167.02L355.38,162.65L363.85,185.85L372.31,186L440,186L440,186L363.85,186L355.38,186L346.92,179.15L338.46,170.18L330,164.69L321.54,140.63L313.08,162.09L304.62,152.73L296.15,166.58L287.69,162.21L279.23,144.93L270.77,129.71L262.31,152.42L253.85,146.79L245.38,136.75L236.92,158.76L228.46,132.51L220,144.44L211.54,144.01L203.08,129.59L194.62,144.57L186.15,156.87L177.69,150.04L169.23,144.25L160.77,160.84L152.31,161.65L143.85,166.69L135.38,174.56L126.92,173.22L118.46,175.47L110,178.97L101.54,185.39L0,186Z" style="fill: rgb(158, 188, 218); fill-opacity: 1; stroke-width: 0;"/></g></g><g class="errorbars"/><g class="lines"><path class="js-line" d="M0,186L101.54,185.39L110,178.97L118.46,175.47L126.92,173.22L135.38,174.56L143.85,166.69L152.31,161.65L160.77,160.84L169.23,144.25L177.69,150.04L186.15,156.87L194.62,144.57L203.08,129.59L211.54,144.01L220,144.44L228.46,132.51L236.92,158.76L245.38,136.75L253.85,146.79L262.31,152.42L270.77,129.71L279.23,144.93L287.69,162.21L296.15,166.58L304.62,152.73L313.08,162.09L321.54,140.63L330,164.69L338.46,170.18L346.92,179.15L355.38,186L363.85,186L440,186" style="vector-effect: non-scaling-stroke; fill: none; stroke: rgb(0, 0, 0); stroke-opacity: 1; stroke-width: 1px; opacity: 1;"/></g><g class="points"/><g class="text"/></g><g class="trace scatter traced8f95b" style="stroke-miterlimit: 2;"><g class="fills"><g><path class="js-fill" d="M0,185.85L8.46,186L16.92,184.83L25.38,186L33.85,185.99L42.31,186L50.77,182.74L59.23,186L67.69,180.92L76.15,179.17L84.62,186L93.08,179.32L101.54,158.83L110,168.41L118.46,145.72L126.92,131.98L135.38,128.08L143.85,113.32L152.31,102.79L160.77,133.67L169.23,115.49L177.69,71.4L186.15,81.92L194.62,85.6L203.08,75.75L211.54,61.79L220,95.49L228.46,97.53L236.92,80.05L245.38,64.7L253.85,88.16L262.31,88L270.77,46.79L279.23,59.36L287.69,117.53L296.15,66.32L304.62,114.21L313.08,61.27L321.54,68.91L330,146.58L338.46,94.14L346.92,154.82L355.38,128.81L363.85,185.78L372.31,186L440,186L440,186L372.31,186L363.85,185.85L355.38,162.65L346.92,167.02L338.46,134.35L330,155.31L321.54,125.51L313.08,127.04L304.62,137.95L296.15,127.94L287.69,146.63L279.23,124.36L270.77,90.85L262.31,131.79L253.85,119.98L245.38,114.83L236.92,127.71L228.46,114.99L220,131.01L211.54,104.97L203.08,104.41L194.62,132.12L186.15,125.01L177.69,112.72L169.23,131.14L160.77,151.02L152.31,148.04L143.85,146.34L135.38,157.9L126.92,160.58L118.46,165.93L110,171.79L101.54,174.35L93.08,182.49L84.62,186L76.15,183.02L67.69,182.71L59.23,186L50.77,184L42.31,186L0,185.89Z" style="fill: rgb(136, 86, 167); fill-opacity: 1; stroke-width: 0;"/></g></g><g class="errorbars"/><g class="lines"><path class="js-line" d="M0,185.89L42.31,186L50.77,184L59.23,186L67.69,182.71L76.15,183.02L84.62,186L93.08,182.49L101.54,174.35L110,171.79L118.46,165.93L126.92,160.58L135.38,157.9L143.85,146.34L152.31,148.04L160.77,151.02L169.23,131.14L177.69,112.72L186.15,125.01L194.62,132.12L203.08,104.41L211.54,104.97L220,131.01L228.46,114.99L236.92,127.71L245.38,114.83L253.85,119.98L262.31,131.79L270.77,90.85L279.23,124.36L287.69,146.63L296.15,127.94L304.62,137.95L313.08,127.04L321.54,125.51L330,155.31L338.46,134.35L346.92,167.02L355.38,162.65L363.85,185.85L372.31,186L440,186" style="vector-effect: non-scaling-stroke; fill: none; stroke: rgb(0, 0, 0); stroke-opacity: 1; stroke-width: 0.5px; opacity: 1;"/></g><g class="points"/><g class="text"/></g><g class="trace scatter traced32896" style="stroke-miterlimit: 2;"><g class="fills"/><g class="errorbars"/><g class="lines"><path class="js-line" d="M0,185.85L8.46,186L16.92,184.83L25.38,186L33.85,185.99L42.31,186L50.77,182.74L59.23,186L67.69,180.92L76.15,179.17L84.62,186L93.08,179.32L101.54,158.83L110,168.41L118.46,145.72L126.92,131.98L135.38,128.08L143.85,113.32L152.31,102.79L160.77,133.67L169.23,115.49L177.69,71.4L186.15,81.92L194.62,85.6L203.08,75.75L211.54,61.79L220,95.49L228.46,97.53L236.92,80.05L245.38,64.7L253.85,88.16L262.31,88L270.77,46.79L279.23,59.36L287.69,117.53L296.15,66.32L304.62,114.21L313.08,61.27L321.54,68.91L330,146.58L338.46,94.14L346.92,154.82L355.38,128.81L363.85,185.78L372.31,186L440,186" style="vector-effect: non-scaling-stroke; fill: none; stroke: rgb(0, 0, 0); stroke-opacity: 1; stroke-width: 0.25px; opacity: 1;"/></g><g class="points"/><g class="text"/></g><g class="trace scatter trace141d84" style="stroke-miterlimit: 2; opacity: 1;"><g class="fills"/><g class="errorbars"/><g class="lines"/><g class="points"><path class="point" transform="translate(169.23,131.69)" d="M4,0A4,4 0 1,1 0,-4A4,4 0 0,1 4,0ZM0,0.5L0.5,0L0,-0.5L-0.5,0Z" style="opacity: 1; stroke: rgb(0, 0, 0); stroke-opacity: 1; stroke-width: 1px; fill: none;"/><path class="point" transform="translate(177.69,151.78)" d="M4,0A4,4 0 1,1 0,-4A4,4 0 0,1 4,0ZM0,0.5L0.5,0L0,-0.5L-0.5,0Z" style="opacity: 1; stroke: rgb(0, 0, 0); stroke-opacity: 1; stroke-width: 1px; fill: none;"/><path class="point" transform="translate(186.15,101.93)" d="M4,0A4,4 0 1,1 0,-4A4,4 0 0,1 4,0ZM0,0.5L0.5,0L0,-0.5L-0.5,0Z" style="opacity: 1; stroke: rgb(0, 0, 0); stroke-opacity: 1; stroke-width: 1px; fill: none;"/><path class="point" transform="translate(194.62,101.93)" d="M4,0A4,4 0 1,1 0,-4A4,4 0 0,1 4,0ZM0,0.5L0.5,0L0,-0.5L-0.5,0Z" style="opacity: 1; stroke: rgb(0, 0, 0); stroke-opacity: 1; stroke-width: 1px; fill: none;"/></g><g class="text"/></g></g></g><g class="overplot"/><path class="xlines-above crisp" d="M0,0" style="fill: none;"/><path class="ylines-above crisp" d="M0,0" style="fill: none;"/><g class="overlines-above"/><g class="xaxislayer-above"/><g class="yaxislayer-above"><g class="ytick"><text text-anchor="end" x="79" y="4.199999999999999" transform="translate(0,286)" style="font-family: 'Open Sans', verdana, arial, sans-serif; font-size: 12px; fill: rgb(42, 63, 95); fill-opacity: 1; white-space: pre; opacity: 1;">0</text></g><g class="ytick"><text text-anchor="end" x="79" y="4.199999999999999" style="font-family: 'Open Sans', verdana, arial, sans-serif; font-size: 12px; fill: rgb(42, 63, 95); fill-opacity: 1; white-space: pre; opacity: 1;" transform="translate(0,248.8)">50</text></g><g class="ytick"><text text-anchor="end" x="79" y="4.199999999999999" style="font-family: 'Open Sans', verdana, arial, sans-serif; font-size: 12px; fill: rgb(42, 63, 95); fill-opacity: 1; white-space: pre; opacity: 1;" transform="translate(0,211.6)">100</text></g><g class="ytick"><text text-anchor="end" x="79" y="4.199999999999999" style="font-family: 'Open Sans', verdana, arial, sans-serif; font-size: 12px; fill: rgb(42, 63, 95); fill-opacity: 1; white-space: pre; opacity: 1;" transform="translate(0,174.4)">150</text></g><g class="ytick"><text text-anchor="end" x="79" y="4.199999999999999" style="font-family: 'Open Sans', verdana, arial, sans-serif; font-size: 12px; fill: rgb(42, 63, 95); fill-opacity: 1; white-space: pre; opacity: 1;" transform="translate(0,137.2)">200</text></g><g class="ytick"><text text-anchor="end" x="79" y="4.199999999999999" style="font-family: 'Open Sans', verdana, arial, sans-serif; font-size: 12px; fill: rgb(42, 63, 95); fill-opacity: 1; white-space: pre; opacity: 1;" transform="translate(0,100)">250</text></g></g><g class="overaxes-above"/></g><g class="subplot x2y2"><g class="layer-subplot"><g class="shapelayer"/><g class="imagelayer"/></g><g class="minor-gridlayer"><g class="x2"/><g class="y2"/></g><g class="gridlayer"><g class="x2"><path class="x2grid crisp" transform="translate(156.15,0)" d="M0,317.00000000000006v185.99999999999997" style="stroke: rgb(255, 255, 255); stroke-opacity: 1; stroke-width: 1px;"/><path class="x2grid crisp" transform="translate(240.77,0)" d="M0,317.00000000000006v185.99999999999997" style="stroke: rgb(255, 255, 255); stroke-opacity: 1; stroke-width: 1px;"/><path class="x2grid crisp" transform="translate(325.38,0)" d="M0,317.00000000000006v185.99999999999997" style="stroke: rgb(255, 255, 255); stroke-opacity: 1; stroke-width: 1px;"/><path class="x2grid crisp" transform="translate(410,0)" d="M0,317.00000000000006v185.99999999999997" style="stroke: rgb(255, 255, 255); stroke-opacity: 1; stroke-width: 1px;"/><path class="x2grid crisp" transform="translate(494.62,0)" d="M0,317.00000000000006v185.99999999999997" style="stroke: rgb(255, 255, 255); stroke-opacity: 1; stroke-width: 1px;"/></g><g class="y2"><path class="y2grid crisp" transform="translate(0,472.00000000000006)" d="M80,0h440" style="stroke: rgb(255, 255, 255); stroke-opacity: 1; stroke-width: 1px;"/><path class="y2grid crisp" transform="translate(0,410.00000000000006)" d="M80,0h440" style="stroke: rgb(255, 255, 255); stroke-opacity: 1; stroke-width: 1px;"/><path class="y2grid crisp" transform="translate(0,348.00000000000006)" d="M80,0h440" style="stroke: rgb(255, 255, 255); stroke-opacity: 1; stroke-width: 1px;"/></g></g><g class="zerolinelayer"/><path class="xlines-below"/><path class="ylines-below"/><g class="overlines-below"/><g class="xaxislayer-below"/><g class="yaxislayer-below"/><g class="overaxes-below"/><g class="plot" transform="translate(80,317.00000000000006)" clip-path="url(#clipe1a653x2y2plot)"><g class="scatterlayer mlayer"><g class="trace scatter traceda7572" style="stroke-miterlimit: 2;"><g class="fills"><g><path class="js-fill" d="M0,152.34L8.46,151.56L16.92,145.22L25.38,138.45L33.85,134.19L42.31,121.75L50.77,115.98L59.23,107.01L67.69,95.08L76.15,95.04L84.62,80.2L93.08,70.34L101.54,80.14L110,81.84L118.46,82.47L135.38,88.24L143.85,87.1L152.31,82.7L160.77,83.69L177.69,87.34L186.15,87.62L203.08,93.49L211.54,93.84L220,95.22L228.46,93.83L236.92,92.46L245.38,94.09L253.85,89.92L262.31,89.99L270.77,97.83L279.23,96.72L287.69,93.29L296.15,96.23L304.62,94.71L313.08,96.44L321.54,95.5L330,97.13L338.46,95.15L346.92,89.65L355.38,89.7L363.85,96.41L372.31,97.75L380.77,108.06L389.23,114.71L397.69,123.84L406.15,135.67L414.62,134.81L423.08,144.28L431.54,148L440,154.4L440,156.83L431.54,157.47L423.08,156.55L414.62,142.5L406.15,145.48L389.23,124.66L380.77,115.75L372.31,104.14L363.85,102.2L355.38,93.4L346.92,102.75L338.46,110.25L330,106.8L321.54,107.2L313.08,111.15L304.62,106.68L296.15,110.66L287.69,105.35L279.23,110.52L270.77,109.91L262.31,106.11L253.85,101.33L245.38,109.05L236.92,103.49L228.46,102.83L220,109.48L211.54,106.52L203.08,110.64L194.62,103.61L186.15,104L177.69,94.05L169.23,90.87L160.77,91.16L152.31,87.2L143.85,97.16L135.38,100.58L126.92,94.54L118.46,97.75L110,95.99L101.54,97.98L93.08,90.27L84.62,98.91L76.15,105.22L67.69,116.25L59.23,120.07L50.77,137.13L42.31,136.76L33.85,149.59L25.38,143L16.92,154.96L8.46,167.92L0,171.76Z" style="fill: rgb(145, 191, 219); fill-opacity: 1; stroke-width: 0;"/></g></g><g class="errorbars"/><g class="lines"><path class="js-line" d="M0,171.76L8.46,167.92L16.92,154.96L25.38,143L33.85,149.59L42.31,136.76L50.77,137.13L59.23,120.07L67.69,116.25L76.15,105.22L84.62,98.91L93.08,90.27L101.54,97.98L110,95.99L118.46,97.75L126.92,94.54L135.38,100.58L143.85,97.16L152.31,87.2L160.77,91.16L169.23,90.87L177.69,94.05L186.15,104L194.62,103.61L203.08,110.64L211.54,106.52L220,109.48L228.46,102.83L236.92,103.49L245.38,109.05L253.85,101.33L262.31,106.11L270.77,109.91L279.23,110.52L287.69,105.35L296.15,110.66L304.62,106.68L313.08,111.15L321.54,107.2L330,106.8L338.46,110.25L346.92,102.75L355.38,93.4L363.85,102.2L372.31,104.14L380.77,115.75L389.23,124.66L406.15,145.48L414.62,142.5L423.08,156.55L431.54,157.47L440,156.83" style="vector-effect: non-scaling-stroke; fill: none; stroke: rgb(0, 0, 0); stroke-opacity: 1; stroke-width: 0.25px; opacity: 1;"/></g><g class="points"/><g class="text"/></g><g class="trace scatter trace848360" style="stroke-miterlimit: 2;"><g class="fills"><g><path class="js-fill" d="M0,142.51L8.46,149.12L16.92,139.02L25.38,134.19L33.85,125.27L50.77,107.61L59.23,100.14L67.69,85.45L76.15,80.99L84.62,71.24L93.08,62.97L101.54,67.24L110,73.91L118.46,67L126.92,71.87L143.85,83.72L152.31,77.31L160.77,74.03L169.23,77.9L177.69,81.05L186.15,81.88L203.08,89.82L211.54,88.61L220,88.02L228.46,88.51L236.92,86.47L245.38,87.71L253.85,84.15L262.31,84.89L270.77,88.56L279.23,86.89L287.69,88.16L296.15,86.75L304.62,91.4L313.08,91.41L321.54,91.1L330,82.98L338.46,82.56L346.92,86.44L355.38,87.51L363.85,93.58L372.31,95.57L380.77,103.55L389.23,110.97L397.69,116.55L406.15,127.66L414.62,129.34L423.08,137.69L431.54,142.94L440,139.9L440,154.4L431.54,148L423.08,144.28L414.62,134.81L406.15,135.67L397.69,123.84L389.23,114.71L380.77,108.06L372.31,97.75L363.85,96.41L355.38,89.7L346.92,89.65L338.46,95.15L330,97.13L321.54,95.5L313.08,96.44L304.62,94.71L296.15,96.23L287.69,93.29L279.23,96.72L270.77,97.83L262.31,89.99L253.85,89.92L245.38,94.09L236.92,92.46L228.46,93.83L220,95.22L211.54,93.84L203.08,93.49L186.15,87.62L177.69,87.34L160.77,83.69L152.31,82.7L143.85,87.1L135.38,88.24L118.46,82.47L110,81.84L101.54,80.14L93.08,70.34L84.62,80.2L76.15,95.04L67.69,95.08L59.23,107.01L50.77,115.98L42.31,121.75L33.85,134.19L25.38,138.45L16.92,145.22L8.46,151.56L0,152.34Z" style="fill: rgb(255, 255, 191); fill-opacity: 1; stroke-width: 0;"/></g></g><g class="errorbars"/><g class="lines"><path class="js-line" d="M0,152.34L8.46,151.56L16.92,145.22L25.38,138.45L33.85,134.19L42.31,121.75L50.77,115.98L59.23,107.01L67.69,95.08L76.15,95.04L84.62,80.2L93.08,70.34L101.54,80.14L110,81.84L118.46,82.47L135.38,88.24L143.85,87.1L152.31,82.7L160.77,83.69L177.69,87.34L186.15,87.62L203.08,93.49L211.54,93.84L220,95.22L228.46,93.83L236.92,92.46L245.38,94.09L253.85,89.92L262.31,89.99L270.77,97.83L279.23,96.72L287.69,93.29L296.15,96.23L304.62,94.71L313.08,96.44L321.54,95.5L330,97.13L338.46,95.15L346.92,89.65L355.38,89.7L363.85,96.41L372.31,97.75L380.77,108.06L389.23,114.71L397.69,123.84L406.15,135.67L414.62,134.81L423.08,144.28L431.54,148L440,154.4" style="vector-effect: non-scaling-stroke; fill: none; stroke: rgb(0, 0, 0); stroke-opacity: 1; stroke-width: 0.5px; opacity: 1;"/></g><g class="points"/><g class="text"/></g><g class="trace scatter trace6682fd" style="stroke-miterlimit: 2;"><g class="fills"><g><path class="js-fill" d="M0,132.41L8.46,136.31L16.92,129.8L25.38,129.91L33.85,119.24L59.23,87.18L67.69,80.61L76.15,69.97L84.62,63.78L93.08,56.8L101.54,51.61L110,57.84L118.46,61.57L126.92,61.1L135.38,62.55L143.85,76.2L152.31,67.73L160.77,68.25L169.23,75.45L186.15,75.26L194.62,76.87L203.08,81.54L211.54,81.49L220,79.82L228.46,84.03L236.92,76.74L245.38,81.45L253.85,81.94L262.31,78.98L270.77,77.78L279.23,81.1L287.69,82.77L296.15,82.96L304.62,84.17L313.08,82.98L321.54,85.03L330,75.95L338.46,76.24L346.92,78.19L355.38,86.34L363.85,90.72L372.31,91.7L380.77,99.75L389.23,105.34L397.69,112.44L406.15,120.38L414.62,121.44L431.54,131.8L440,124.08L440,139.9L431.54,142.94L423.08,137.69L414.62,129.34L406.15,127.66L397.69,116.55L389.23,110.97L380.77,103.55L372.31,95.57L363.85,93.58L355.38,87.51L346.92,86.44L338.46,82.56L330,82.98L321.54,91.1L313.08,91.41L304.62,91.4L296.15,86.75L287.69,88.16L279.23,86.89L270.77,88.56L262.31,84.89L253.85,84.15L245.38,87.71L236.92,86.47L228.46,88.51L220,88.02L211.54,88.61L203.08,89.82L186.15,81.88L177.69,81.05L169.23,77.9L160.77,74.03L152.31,77.31L143.85,83.72L126.92,71.87L118.46,67L110,73.91L101.54,67.24L93.08,62.97L84.62,71.24L76.15,80.99L67.69,85.45L59.23,100.14L50.77,107.61L33.85,125.27L25.38,134.19L16.92,139.02L8.46,149.12L0,142.51Z" style="fill: rgb(255, 255, 191); fill-opacity: 1; stroke-width: 0;"/></g></g><g class="errorbars"/><g class="lines"><path class="js-line" d="M0,142.51L8.46,149.12L16.92,139.02L25.38,134.19L33.85,125.27L50.77,107.61L59.23,100.14L67.69,85.45L76.15,80.99L84.62,71.24L93.08,62.97L101.54,67.24L110,73.91L118.46,67L126.92,71.87L143.85,83.72L152.31,77.31L160.77,74.03L169.23,77.9L177.69,81.05L186.15,81.88L203.08,89.82L211.54,88.61L220,88.02L228.46,88.51L236.92,86.47L245.38,87.71L253.85,84.15L262.31,84.89L270.77,88.56L279.23,86.89L287.69,88.16L296.15,86.75L304.62,91.4L313.08,91.41L321.54,91.1L330,82.98L338.46,82.56L346.92,86.44L355.38,87.51L363.85,93.58L372.31,95.57L380.77,103.55L389.23,110.97L397.69,116.55L406.15,127.66L414.62,129.34L423.08,137.69L431.54,142.94L440,139.9" style="vector-effect: non-scaling-stroke; fill: none; stroke: rgb(0, 0, 0); stroke-opacity: 1; stroke-width: 1px; opacity: 1;"/></g><g class="points"/><g class="text"/></g><g class="trace scatter trace8a6425" style="stroke-miterlimit: 2;"><g class="fills"><g><path class="js-fill" d="M0,111.18L8.46,117.96L16.92,118.6L25.38,118.8L33.85,108.68L42.31,100.96L50.77,78.41L59.23,73.57L67.69,61.84L84.62,53.63L93.08,51.01L101.54,34.8L110,33.01L118.46,34.37L126.92,32.62L135.38,24.72L143.85,61.67L152.31,49.05L160.77,62.93L169.23,71.28L177.69,59.36L186.15,67.36L194.62,62.42L203.08,65.09L211.54,66.5L220,67.22L228.46,75.79L236.92,69.87L245.38,69.82L253.85,71.67L262.31,65.15L270.77,72.05L279.23,65.98L287.69,68.89L296.15,67.57L304.62,70.83L313.08,66.1L321.54,71.45L330,66.97L338.46,59.53L346.92,72.58L355.38,84.14L363.85,83.65L372.31,85.6L380.77,92.81L389.23,96.28L397.69,98.38L406.15,101.96L414.62,115.29L423.08,119.75L431.54,122.89L440,117.05L440,124.08L431.54,131.8L414.62,121.44L406.15,120.38L397.69,112.44L389.23,105.34L380.77,99.75L372.31,91.7L363.85,90.72L355.38,86.34L346.92,78.19L338.46,76.24L330,75.95L321.54,85.03L313.08,82.98L304.62,84.17L296.15,82.96L287.69,82.77L279.23,81.1L270.77,77.78L262.31,78.98L253.85,81.94L245.38,81.45L236.92,76.74L228.46,84.03L220,79.82L211.54,81.49L203.08,81.54L194.62,76.87L186.15,75.26L169.23,75.45L160.77,68.25L152.31,67.73L143.85,76.2L135.38,62.55L126.92,61.1L118.46,61.57L110,57.84L101.54,51.61L93.08,56.8L84.62,63.78L76.15,69.97L67.69,80.61L59.23,87.18L33.85,119.24L25.38,129.91L16.92,129.8L8.46,136.31L0,132.41Z" style="fill: rgb(252, 141, 89); fill-opacity: 1; stroke-width: 0;"/></g></g><g class="errorbars"/><g class="lines"><path class="js-line" d="M0,132.41L8.46,136.31L16.92,129.8L25.38,129.91L33.85,119.24L59.23,87.18L67.69,80.61L76.15,69.97L84.62,63.78L93.08,56.8L101.54,51.61L110,57.84L118.46,61.57L126.92,61.1L135.38,62.55L143.85,76.2L152.31,67.73L160.77,68.25L169.23,75.45L186.15,75.26L194.62,76.87L203.08,81.54L211.54,81.49L220,79.82L228.46,84.03L236.92,76.74L245.38,81.45L253.85,81.94L262.31,78.98L270.77,77.78L279.23,81.1L287.69,82.77L296.15,82.96L304.62,84.17L313.08,82.98L321.54,85.03L330,75.95L338.46,76.24L346.92,78.19L355.38,86.34L363.85,90.72L372.31,91.7L380.77,99.75L389.23,105.34L397.69,112.44L406.15,120.38L414.62,121.44L431.54,131.8L440,124.08" style="vector-effect: non-scaling-stroke; fill: none; stroke: rgb(0, 0, 0); stroke-opacity: 1; stroke-width: 0.5px; opacity: 1;"/></g><g class="points"/><g class="text"/></g><g class="trace scatter trace3b848b" style="stroke-miterlimit: 2;"><g class="fills"/><g class="errorbars"/><g class="lines"><path class="js-line" d="M0,111.18L8.46,117.96L16.92,118.6L25.38,118.8L33.85,108.68L42.31,100.96L50.77,78.41L59.23,73.57L67.69,61.84L84.62,53.63L93.08,51.01L101.54,34.8L110,33.01L118.46,34.37L126.92,32.62L135.38,24.72L143.85,61.67L152.31,49.05L160.77,62.93L169.23,71.28L177.69,59.36L186.15,67.36L194.62,62.42L203.08,65.09L211.54,66.5L220,67.22L228.46,75.79L236.92,69.87L245.38,69.82L253.85,71.67L262.31,65.15L270.77,72.05L279.23,65.98L287.69,68.89L296.15,67.57L304.62,70.83L313.08,66.1L321.54,71.45L330,66.97L338.46,59.53L346.92,72.58L355.38,84.14L363.85,83.65L372.31,85.6L380.77,92.81L389.23,96.28L397.69,98.38L406.15,101.96L414.62,115.29L423.08,119.75L431.54,122.89L440,117.05" style="vector-effect: non-scaling-stroke; fill: none; stroke: rgb(0, 0, 0); stroke-opacity: 1; stroke-width: 0.25px; opacity: 1;"/></g><g class="points"/><g class="text"/></g><g class="trace scatter trace3d8007" style="stroke-miterlimit: 2; opacity: 1;"><g class="fills"/><g class="errorbars"/><g class="lines"/><g class="points"><path class="point" transform="translate(169.23,80.6)" d="M4,0A4,4 0 1,1 0,-4A4,4 0 0,1 4,0ZM0,0.5L0.5,0L0,-0.5L-0.5,0Z" style="opacity: 1; stroke: rgb(0, 0, 0); stroke-opacity: 1; stroke-width: 1px; fill: none;"/><path class="point" transform="translate(177.69,80.6)" d="M4,0A4,4 0 1,1 0,-4A4,4 0 0,1 4,0ZM0,0.5L0.5,0L0,-0.5L-0.5,0Z" style="opacity: 1; stroke: rgb(0, 0, 0); stroke-opacity: 1; stroke-width: 1px; fill: none;"/><path class="point" transform="translate(186.15,80.6)" d="M4,0A4,4 0 1,1 0,-4A4,4 0 0,1 4,0ZM0,0.5L0.5,0L0,-0.5L-0.5,0Z" style="opacity: 1; stroke: rgb(0, 0, 0); stroke-opacity: 1; stroke-width: 1px; fill: none;"/><path class="point" transform="translate(194.62,80.6)" d="M4,0A4,4 0 1,1 0,-4A4,4 0 0,1 4,0ZM0,0.5L0.5,0L0,-0.5L-0.5,0Z" style="opacity: 1; stroke: rgb(0, 0, 0); stroke-opacity: 1; stroke-width: 1px; fill: none;"/></g><g class="text"/></g></g></g><g class="overplot"/><path class="xlines-above crisp" d="M0,0" style="fill: none;"/><path class="ylines-above crisp" d="M0,0" style="fill: none;"/><g class="overlines-above"/><g class="xaxislayer-above"/><g class="yaxislayer-above"><g class="y2tick"><text text-anchor="end" x="79" y="4.199999999999999" transform="translate(0,472.00000000000006)" style="font-family: 'Open Sans', verdana, arial, sans-serif; font-size: 12px; fill: rgb(42, 63, 95); fill-opacity: 1; white-space: pre; opacity: 1;">20</text></g><g class="y2tick"><text text-anchor="end" x="79" y="4.199999999999999" style="font-family: 'Open Sans', verdana, arial, sans-serif; font-size: 12px; fill: rgb(42, 63, 95); fill-opacity: 1; white-space: pre; opacity: 1;" transform="translate(0,410.00000000000006)">30</text></g><g class="y2tick"><text text-anchor="end" x="79" y="4.199999999999999" style="font-family: 'Open Sans', verdana, arial, sans-serif; font-size: 12px; fill: rgb(42, 63, 95); fill-opacity: 1; white-space: pre; opacity: 1;" transform="translate(0,348.00000000000006)">40</text></g></g><g class="overaxes-above"/></g><g class="subplot x3y3"><g class="layer-subplot"><g class="shapelayer"/><g class="imagelayer"/></g><g class="minor-gridlayer"><g class="x3"/><g class="y3"/></g><g class="gridlayer"><g class="x3"><path class="x3grid crisp" transform="translate(156.15,0)" d="M0,534v186" style="stroke: rgb(255, 255, 255); stroke-opacity: 1; stroke-width: 1px;"/><path class="x3grid crisp" transform="translate(240.77,0)" d="M0,534v186" style="stroke: rgb(255, 255, 255); stroke-opacity: 1; stroke-width: 1px;"/><path class="x3grid crisp" transform="translate(325.38,0)" d="M0,534v186" style="stroke: rgb(255, 255, 255); stroke-opacity: 1; stroke-width: 1px;"/><path class="x3grid crisp" transform="translate(410,0)" d="M0,534v186" style="stroke: rgb(255, 255, 255); stroke-opacity: 1; stroke-width: 1px;"/><path class="x3grid crisp" transform="translate(494.62,0)" d="M0,534v186" style="stroke: rgb(255, 255, 255); stroke-opacity: 1; stroke-width: 1px;"/></g><g class="y3"><path class="y3grid crisp" transform="translate(0,682.8)" d="M80,0h440" style="stroke: rgb(255, 255, 255); stroke-opacity: 1; stroke-width: 1px;"/><path class="y3grid crisp" transform="translate(0,645.6)" d="M80,0h440" style="stroke: rgb(255, 255, 255); stroke-opacity: 1; stroke-width: 1px;"/><path class="y3grid crisp" transform="translate(0,608.4)" d="M80,0h440" style="stroke: rgb(255, 255, 255); stroke-opacity: 1; stroke-width: 1px;"/><path class="y3grid crisp" transform="translate(0,571.2)" d="M80,0h440" style="stroke: rgb(255, 255, 255); stroke-opacity: 1; stroke-width: 1px;"/></g></g><g class="zerolinelayer"/><path class="xlines-below"/><path class="ylines-below"/><g class="overlines-below"/><g class="xaxislayer-below"/><g class="yaxislayer-below"/><g class="overaxes-below"/><g class="plot" transform="translate(80,534)" clip-path="url(#clipe1a653x3y3plot)"><g class="scatterlayer mlayer"><g class="trace scatter trace7683a8" style="stroke-miterlimit: 2;"><g class="fills"><g><path class="js-fill" d="M0,127.17L8.46,137.47L16.92,131.96L25.38,123.91L33.85,122.6L59.23,100.63L67.69,89.27L76.15,85.43L84.62,76.71L93.08,68.25L101.54,65L110,63.6L118.46,63.36L126.92,55.47L135.38,58L143.85,59.37L152.31,48.76L169.23,42.4L177.69,42.56L186.15,38.16L194.62,37.99L203.08,36.96L211.54,36.98L236.92,36.32L245.38,38.68L253.85,36.88L262.31,36.21L279.23,38.1L287.69,37.95L304.62,40.97L313.08,42.48L321.54,41.23L330,43.07L338.46,48.74L346.92,50.15L355.38,54.59L363.85,65.77L372.31,71.12L380.77,82.12L397.69,99.94L406.15,107.34L414.62,111.88L423.08,124.55L431.54,124.19L440,136.66L440,139.01L431.54,138.82L423.08,135.18L414.62,128.6L406.15,111.42L397.69,112.58L389.23,104.39L363.85,71.72L355.38,56.48L346.92,57.65L338.46,56.7L330,51.55L321.54,45.4L313.08,50.25L304.62,43.81L296.15,41.22L287.69,40.56L270.77,41.95L262.31,41.79L253.85,39.12L245.38,42.82L236.92,39.52L228.46,40.06L220,39.07L211.54,38.2L203.08,39.79L194.62,40.03L186.15,42.96L177.69,49.28L169.23,47.78L160.77,52.47L152.31,55.26L143.85,61.97L135.38,67.13L126.92,67.61L118.46,67.21L110,76.34L101.54,73.77L93.08,85.56L84.62,90.56L76.15,100.23L67.69,108.67L59.23,112.21L50.77,130.93L42.31,129.54L33.85,133.84L25.38,133.68L16.92,137.03L8.46,147.83L0,147.57Z" style="fill: rgb(90, 180, 172); fill-opacity: 1; stroke-width: 0;"/></g></g><g class="errorbars"/><g class="lines"><path class="js-line" d="M0,147.57L8.46,147.83L16.92,137.03L25.38,133.68L33.85,133.84L42.31,129.54L50.77,130.93L59.23,112.21L67.69,108.67L76.15,100.23L84.62,90.56L93.08,85.56L101.54,73.77L110,76.34L118.46,67.21L126.92,67.61L135.38,67.13L143.85,61.97L152.31,55.26L160.77,52.47L169.23,47.78L177.69,49.28L186.15,42.96L194.62,40.03L203.08,39.79L211.54,38.2L220,39.07L228.46,40.06L236.92,39.52L245.38,42.82L253.85,39.12L262.31,41.79L270.77,41.95L287.69,40.56L296.15,41.22L304.62,43.81L313.08,50.25L321.54,45.4L330,51.55L338.46,56.7L346.92,57.65L355.38,56.48L363.85,71.72L389.23,104.39L397.69,112.58L406.15,111.42L414.62,128.6L423.08,135.18L431.54,138.82L440,139.01" style="vector-effect: non-scaling-stroke; fill: none; stroke: rgb(0, 0, 0); stroke-opacity: 1; stroke-width: 0.25px; opacity: 1;"/></g><g class="points"/><g class="text"/></g><g class="trace scatter trace142655" style="stroke-miterlimit: 2;"><g class="fills"><g><path class="js-fill" d="M0,122.54L8.46,129.85L16.92,121.7L25.38,116.94L33.85,116.53L42.31,104.84L50.77,98.58L59.23,91.43L67.69,80.86L76.15,75.52L84.62,68.11L93.08,60.1L101.54,57.83L110,59.7L118.46,57.43L126.92,51.56L135.38,54.04L143.85,53.68L152.31,46.13L160.77,41.78L169.23,40.6L177.69,39.18L186.15,35.65L194.62,36.64L203.08,34.86L211.54,35.05L220,33.87L228.46,35.73L236.92,34.47L245.38,36.11L253.85,35.88L262.31,32.82L270.77,34.46L287.69,35.3L296.15,37.13L304.62,39.36L313.08,38.72L321.54,38.27L330,38.98L338.46,42L346.92,47.59L355.38,53.44L363.85,62.67L372.31,65.19L380.77,75.61L389.23,85.62L397.69,93.17L406.15,101.9L414.62,106.91L423.08,113L431.54,120.95L440,133.25L440,136.66L431.54,124.19L423.08,124.55L414.62,111.88L406.15,107.34L397.69,99.94L380.77,82.12L372.31,71.12L363.85,65.77L355.38,54.59L346.92,50.15L338.46,48.74L330,43.07L321.54,41.23L313.08,42.48L304.62,40.97L287.69,37.95L279.23,38.1L262.31,36.21L253.85,36.88L245.38,38.68L236.92,36.32L211.54,36.98L203.08,36.96L194.62,37.99L186.15,38.16L177.69,42.56L169.23,42.4L152.31,48.76L143.85,59.37L135.38,58L126.92,55.47L118.46,63.36L110,63.6L101.54,65L93.08,68.25L84.62,76.71L76.15,85.43L67.69,89.27L59.23,100.63L33.85,122.6L25.38,123.91L16.92,131.96L8.46,137.47L0,127.17Z" style="fill: rgb(245, 245, 245); fill-opacity: 1; stroke-width: 0;"/></g></g><g class="errorbars"/><g class="lines"><path class="js-line" d="M0,127.17L8.46,137.47L16.92,131.96L25.38,123.91L33.85,122.6L59.23,100.63L67.69,89.27L76.15,85.43L84.62,76.71L93.08,68.25L101.54,65L110,63.6L118.46,63.36L126.92,55.47L135.38,58L143.85,59.37L152.31,48.76L169.23,42.4L177.69,42.56L186.15,38.16L194.62,37.99L203.08,36.96L211.54,36.98L236.92,36.32L245.38,38.68L253.85,36.88L262.31,36.21L279.23,38.1L287.69,37.95L304.62,40.97L313.08,42.48L321.54,41.23L330,43.07L338.46,48.74L346.92,50.15L355.38,54.59L363.85,65.77L372.31,71.12L380.77,82.12L397.69,99.94L406.15,107.34L414.62,111.88L423.08,124.55L431.54,124.19L440,136.66" style="vector-effect: non-scaling-stroke; fill: none; stroke: rgb(0, 0, 0); stroke-opacity: 1; stroke-width: 0.5px; opacity: 1;"/></g><g class="points"/><g class="text"/></g><g class="trace scatter traceb508e3" style="stroke-miterlimit: 2;"><g class="fills"><g><path class="js-fill" d="M0,113.37L8.46,119.86L16.92,115.1L25.38,115.13L33.85,110.69L42.31,98.67L50.77,93.6L59.23,81.29L67.69,74.69L76.15,68.65L84.62,61.13L101.54,48.15L110,50.01L126.92,46.62L135.38,39.94L143.85,45.44L152.31,42.47L186.15,33.75L194.62,32.4L203.08,33.35L211.54,32.76L228.46,31.42L236.92,32.61L245.38,33.55L253.85,31.94L262.31,30.99L270.77,32.38L296.15,34.91L304.62,36.38L313.08,34.56L321.54,36.1L330,34.26L338.46,36.49L363.85,56.49L372.31,60.71L380.77,71.82L389.23,79.26L397.69,87.43L406.15,97.03L423.08,100.43L431.54,110.8L440,123.37L440,133.25L431.54,120.95L423.08,113L414.62,106.91L406.15,101.9L397.69,93.17L389.23,85.62L380.77,75.61L372.31,65.19L363.85,62.67L355.38,53.44L346.92,47.59L338.46,42L330,38.98L321.54,38.27L313.08,38.72L304.62,39.36L296.15,37.13L287.69,35.3L270.77,34.46L262.31,32.82L253.85,35.88L245.38,36.11L236.92,34.47L228.46,35.73L220,33.87L211.54,35.05L203.08,34.86L194.62,36.64L186.15,35.65L177.69,39.18L169.23,40.6L160.77,41.78L152.31,46.13L143.85,53.68L135.38,54.04L126.92,51.56L118.46,57.43L110,59.7L101.54,57.83L93.08,60.1L84.62,68.11L76.15,75.52L67.69,80.86L59.23,91.43L50.77,98.58L42.31,104.84L33.85,116.53L25.38,116.94L16.92,121.7L8.46,129.85L0,122.54Z" style="fill: rgb(245, 245, 245); fill-opacity: 1; stroke-width: 0;"/></g></g><g class="errorbars"/><g class="lines"><path class="js-line" d="M0,122.54L8.46,129.85L16.92,121.7L25.38,116.94L33.85,116.53L42.31,104.84L50.77,98.58L59.23,91.43L67.69,80.86L76.15,75.52L84.62,68.11L93.08,60.1L101.54,57.83L110,59.7L118.46,57.43L126.92,51.56L135.38,54.04L143.85,53.68L152.31,46.13L160.77,41.78L169.23,40.6L177.69,39.18L186.15,35.65L194.62,36.64L203.08,34.86L211.54,35.05L220,33.87L228.46,35.73L236.92,34.47L245.38,36.11L253.85,35.88L262.31,32.82L270.77,34.46L287.69,35.3L296.15,37.13L304.62,39.36L313.08,38.72L321.54,38.27L330,38.98L338.46,42L346.92,47.59L355.38,53.44L363.85,62.67L372.31,65.19L380.77,75.61L389.23,85.62L397.69,93.17L406.15,101.9L414.62,106.91L423.08,113L431.54,120.95L440,133.25" style="vector-effect: non-scaling-stroke; fill: none; stroke: rgb(0, 0, 0); stroke-opacity: 1; stroke-width: 1px; opacity: 1;"/></g><g class="points"/><g class="text"/></g><g class="trace scatter trace01dcb8" style="stroke-miterlimit: 2;"><g class="fills"><g><path class="js-fill" d="M0,110.24L8.46,109.11L16.92,95.2L25.38,109.08L33.85,102.48L50.77,74.6L59.23,62.24L67.69,57.31L76.15,46.43L84.62,51.56L93.08,42.77L101.54,38.24L110,34.71L118.46,32.1L126.92,33.79L135.38,20.78L143.85,34.62L160.77,35.91L169.23,34.16L177.69,28.57L186.15,27.98L194.62,26.33L203.08,31.91L211.54,31.66L220,28.81L228.46,30.26L236.92,29.2L253.85,25.58L262.31,24.42L279.23,27.67L287.69,33.01L296.15,30L304.62,35.11L313.08,26.14L321.54,28.67L330,26.04L338.46,29.3L355.38,45.23L363.85,50.24L372.31,55.63L380.77,67.31L389.23,71.13L397.69,78.9L406.15,84.58L414.62,87.14L423.08,89.7L431.54,103.59L440,121.77L440,123.37L431.54,110.8L423.08,100.43L406.15,97.03L397.69,87.43L389.23,79.26L380.77,71.82L372.31,60.71L363.85,56.49L338.46,36.49L330,34.26L321.54,36.1L313.08,34.56L304.62,36.38L296.15,34.91L270.77,32.38L262.31,30.99L253.85,31.94L245.38,33.55L236.92,32.61L228.46,31.42L211.54,32.76L203.08,33.35L194.62,32.4L186.15,33.75L152.31,42.47L143.85,45.44L135.38,39.94L126.92,46.62L110,50.01L101.54,48.15L84.62,61.13L76.15,68.65L67.69,74.69L59.23,81.29L50.77,93.6L42.31,98.67L33.85,110.69L25.38,115.13L16.92,115.1L8.46,119.86L0,113.37Z" style="fill: rgb(216, 179, 101); fill-opacity: 1; stroke-width: 0;"/></g></g><g class="errorbars"/><g class="lines"><path class="js-line" d="M0,113.37L8.46,119.86L16.92,115.1L25.38,115.13L33.85,110.69L42.31,98.67L50.77,93.6L59.23,81.29L67.69,74.69L76.15,68.65L84.62,61.13L101.54,48.15L110,50.01L126.92,46.62L135.38,39.94L143.85,45.44L152.31,42.47L186.15,33.75L194.62,32.4L203.08,33.35L211.54,32.76L228.46,31.42L236.92,32.61L245.38,33.55L253.85,31.94L262.31,30.99L270.77,32.38L296.15,34.91L304.62,36.38L313.08,34.56L321.54,36.1L330,34.26L338.46,36.49L363.85,56.49L372.31,60.71L380.77,71.82L389.23,79.26L397.69,87.43L406.15,97.03L423.08,100.43L431.54,110.8L440,123.37" style="vector-effect: non-scaling-stroke; fill: none; stroke: rgb(0, 0, 0); stroke-opacity: 1; stroke-width: 0.5px; opacity: 1;"/></g><g class="points"/><g class="text"/></g><g class="trace scatter trace6ff542" style="stroke-miterlimit: 2;"><g class="fills"/><g class="errorbars"/><g class="lines"><path class="js-line" d="M0,110.24L8.46,109.11L16.92,95.2L25.38,109.08L33.85,102.48L50.77,74.6L59.23,62.24L67.69,57.31L76.15,46.43L84.62,51.56L93.08,42.77L101.54,38.24L110,34.71L118.46,32.1L126.92,33.79L135.38,20.78L143.85,34.62L160.77,35.91L169.23,34.16L177.69,28.57L186.15,27.98L194.62,26.33L203.08,31.91L211.54,31.66L220,28.81L228.46,30.26L236.92,29.2L253.85,25.58L262.31,24.42L279.23,27.67L287.69,33.01L296.15,30L304.62,35.11L313.08,26.14L321.54,28.67L330,26.04L338.46,29.3L355.38,45.23L363.85,50.24L372.31,55.63L380.77,67.31L389.23,71.13L397.69,78.9L406.15,84.58L414.62,87.14L423.08,89.7L431.54,103.59L440,121.77" style="vector-effect: non-scaling-stroke; fill: none; stroke: rgb(0, 0, 0); stroke-opacity: 1; stroke-width: 0.25px; opacity: 1;"/></g><g class="points"/><g class="text"/></g><g class="trace scatter trace49aced" style="stroke-miterlimit: 2; opacity: 1;"><g class="fills"/><g class="errorbars"/><g class="lines"/><g class="points"><path class="point" transform="translate(169.23,44.64)" d="M4,0A4,4 0 1,1 0,-4A4,4 0 0,1 4,0ZM0,0.5L0.5,0L0,-0.5L-0.5,0Z" style="opacity: 1; stroke: rgb(0, 0, 0); stroke-opacity: 1; stroke-width: 1px; fill: none;"/><path class="point" transform="translate(177.69,37.2)" d="M4,0A4,4 0 1,1 0,-4A4,4 0 0,1 4,0ZM0,0.5L0.5,0L0,-0.5L-0.5,0Z" style="opacity: 1; stroke: rgb(0, 0, 0); stroke-opacity: 1; stroke-width: 1px; fill: none;"/><path class="point" transform="translate(186.15,29.76)" d="M4,0A4,4 0 1,1 0,-4A4,4 0 0,1 4,0ZM0,0.5L0.5,0L0,-0.5L-0.5,0Z" style="opacity: 1; stroke: rgb(0, 0, 0); stroke-opacity: 1; stroke-width: 1px; fill: none;"/><path class="point" transform="translate(194.62,29.76)" d="M4,0A4,4 0 1,1 0,-4A4,4 0 0,1 4,0ZM0,0.5L0.5,0L0,-0.5L-0.5,0Z" style="opacity: 1; stroke: rgb(0, 0, 0); stroke-opacity: 1; stroke-width: 1px; fill: none;"/></g><g class="text"/></g></g></g><g class="overplot"/><path class="xlines-above crisp" d="M0,0" style="fill: none;"/><path class="ylines-above crisp" d="M0,0" style="fill: none;"/><g class="overlines-above"/><g class="xaxislayer-above"><g class="x3tick"><text text-anchor="middle" x="0" y="733" transform="translate(156.15,0)" style="font-family: 'Open Sans', verdana, arial, sans-serif; font-size: 12px; fill: rgb(42, 63, 95); fill-opacity: 1; white-space: pre; opacity: 1;">10</text></g><g class="x3tick"><text text-anchor="middle" x="0" y="733" style="font-family: 'Open Sans', verdana, arial, sans-serif; font-size: 12px; fill: rgb(42, 63, 95); fill-opacity: 1; white-space: pre; opacity: 1;" transform="translate(240.77,0)">20</text></g><g class="x3tick"><text text-anchor="middle" x="0" y="733" style="font-family: 'Open Sans', verdana, arial, sans-serif; font-size: 12px; fill: rgb(42, 63, 95); fill-opacity: 1; white-space: pre; opacity: 1;" transform="translate(325.38,0)">30</text></g><g class="x3tick"><text text-anchor="middle" x="0" y="733" style="font-family: 'Open Sans', verdana, arial, sans-serif; font-size: 12px; fill: rgb(42, 63, 95); fill-opacity: 1; white-space: pre; opacity: 1;" transform="translate(410,0)">40</text></g><g class="x3tick"><text text-anchor="middle" x="0" y="733" style="font-family: 'Open Sans', verdana, arial, sans-serif; font-size: 12px; fill: rgb(42, 63, 95); fill-opacity: 1; white-space: pre; opacity: 1;" transform="translate(494.62,0)">50</text></g></g><g class="yaxislayer-above"><g class="y3tick"><text text-anchor="end" x="79" y="4.199999999999999" transform="translate(0,720)" style="font-family: 'Open Sans', verdana, arial, sans-serif; font-size: 12px; fill: rgb(42, 63, 95); fill-opacity: 1; white-space: pre; opacity: 1;">5</text></g><g class="y3tick"><text text-anchor="end" x="79" y="4.199999999999999" style="font-family: 'Open Sans', verdana, arial, sans-serif; font-size: 12px; fill: rgb(42, 63, 95); fill-opacity: 1; white-space: pre; opacity: 1;" transform="translate(0,682.8)">10</text></g><g class="y3tick"><text text-anchor="end" x="79" y="4.199999999999999" style="font-family: 'Open Sans', verdana, arial, sans-serif; font-size: 12px; fill: rgb(42, 63, 95); fill-opacity: 1; white-space: pre; opacity: 1;" transform="translate(0,645.6)">15</text></g><g class="y3tick"><text text-anchor="end" x="79" y="4.199999999999999" style="font-family: 'Open Sans', verdana, arial, sans-serif; font-size: 12px; fill: rgb(42, 63, 95); fill-opacity: 1; white-space: pre; opacity: 1;" transform="translate(0,608.4)">20</text></g><g class="y3tick"><text text-anchor="end" x="79" y="4.199999999999999" style="font-family: 'Open Sans', verdana, arial, sans-serif; font-size: 12px; fill: rgb(42, 63, 95); fill-opacity: 1; white-space: pre; opacity: 1;" transform="translate(0,571.2)">25</text></g><g class="y3tick"><text text-anchor="end" x="79" y="4.199999999999999" style="font-family: 'Open Sans', verdana, arial, sans-serif; font-size: 12px; fill: rgb(42, 63, 95); fill-opacity: 1; white-space: pre; opacity: 1;" transform="translate(0,534)">30</text></g></g><g class="overaxes-above"/></g></g><g class="polarlayer"/><g class="smithlayer"/><g class="ternarylayer"/><g class="geolayer"/><g class="funnelarealayer"/><g class="pielayer"/><g class="iciclelayer"/><g class="treemaplayer"/><g class="sunburstlayer"/><g class="glimages"/><defs id="topdefs-e1a653"><g class="clips"/></defs><g class="layer-above"><g class="imagelayer"/><g class="shapelayer"/></g><g class="infolayer"><g class="g-gtitle"><text class="gtitle" x="30" y="50" text-anchor="start" dy="0em" style="font-family: 'Open Sans', verdana, arial, sans-serif; font-size: 17px; fill: rgb(42, 63, 95); opacity: 1; font-weight: normal; white-space: pre;">Climatology and S2S forecast for Joypurhat</text></g><g class="g-xtitle"/><g class="g-x2title"/><g class="g-x3title"/><g class="g-ytitle"><text class="ytitle" transform="rotate(-90,34.16875,193)" x="34.16875" y="193" text-anchor="middle" style="font-family: 'Open Sans', verdana, arial, sans-serif; font-size: 14px; fill: rgb(42, 63, 95); opacity: 1; font-weight: normal; white-space: pre;">[mm]</text></g><g class="g-y2title"><text class="y2title" transform="rotate(-90,40.840625,410.00000000000006)" x="40.840625" y="410.00000000000006" text-anchor="middle" style="font-family: 'Open Sans', verdana, arial, sans-serif; font-size: 14px; fill: rgb(42, 63, 95); opacity: 1; font-weight: normal; white-space: pre;">[C]</text></g><g class="g-y3title"><text class="y3title" transform="rotate(-90,40.840625,627)" x="40.840625" y="627" text-anchor="middle" style="font-family: 'Open Sans', verdana, arial, sans-serif; font-size: 14px; fill: rgb(42, 63, 95); opacity: 1; font-weight: normal; white-space: pre;">[C]</text></g><g class="annotation" data-index="0" style="opacity: 1;"><g class="annotation-text-g" transform="rotate(0,300,89.5)"><g class="cursor-pointer" transform="translate(237,79)"><rect class="bg" x="0.5" y="0.5" width="126" height="20" style="stroke-width: 1px; stroke: rgb(0, 0, 0); stroke-opacity: 0; fill: rgb(0, 0, 0); fill-opacity: 0;"/><text class="annotation-text" text-anchor="middle" x="63.359375" y="16" style="font-family: 'Open Sans', verdana, arial, sans-serif; font-size: 16px; fill: rgb(42, 63, 95); fill-opacity: 1; white-space: pre;">Precipitation sum</text></g></g></g><g class="annotation" data-index="1" style="opacity: 1;"><g class="annotation-text-g" transform="rotate(0,300,306.50000000000006)"><g class="cursor-pointer" transform="translate(196,296)"><rect class="bg" x="0.5" y="0.5" width="208" height="20" style="stroke-width: 1px; stroke: rgb(0, 0, 0); stroke-opacity: 0; fill: rgb(0, 0, 0); fill-opacity: 0;"/><text class="annotation-text" text-anchor="middle" x="104.265625" y="16" style="font-family: 'Open Sans', verdana, arial, sans-serif; font-size: 16px; fill: rgb(42, 63, 95); fill-opacity: 1; white-space: pre;">Mean maximum temperature</text></g></g></g><g class="annotation" data-index="2" style="opacity: 1;"><g class="annotation-text-g" transform="rotate(0,300,523.5)"><g class="cursor-pointer" transform="translate(198,513)"><rect class="bg" x="0.5" y="0.5" width="203" height="20" style="stroke-width: 1px; stroke: rgb(0, 0, 0); stroke-opacity: 0; fill: rgb(0, 0, 0); fill-opacity: 0;"/><text class="annotation-text" text-anchor="middle" x="102.046875" y="16" style="font-family: 'Open Sans', verdana, arial, sans-serif; font-size: 16px; fill: rgb(42, 63, 95); fill-opacity: 1; white-space: pre;">Mean minimum temperature</text></g></g></g><g class="annotation" data-index="3" style="opacity: 1;"><g class="annotation-text-g" transform="rotate(0,300,760.5)"><g class="cursor-pointer" transform="translate(277,750)"><rect class="bg" x="0.5" y="0.5" width="45" height="20" style="stroke-width: 1px; stroke: rgb(0, 0, 0); stroke-opacity: 0; fill: rgb(0, 0, 0); fill-opacity: 0;"/><text class="annotation-text" text-anchor="middle" x="22.3125" y="16" style="font-family: 'Open Sans', verdana, arial, sans-serif; font-size: 16px; fill: rgb(42, 63, 95); fill-opacity: 1; white-space: pre;">Week</text></g></g></g></g></svg>