<svg class="main-svg" xmlns="http://www.w3.org/2000/svg" xmlns:xlink="http://www.w3.org/1999/xlink" width="600" height="800" style="" viewBox="0 0 600 800"><rect x="0" y="0" width="600" height="800" style="fill: rgb(255, 255, 255); fill-opacity: 1;"/><defs id="defs-70bd4a"><g class="clips"><clipPath id="clip70bd4axyplot" class="plotclip"><rect width="440" height="186.00000000000003"/></clipPath><clipPath id="clip70bd4ax2y2plot" class="plotclip"><rect width="440" height="185.99999999999997"/></clipPath><clipPath id="clip70bd4ax3y3plot" class="plotclip"><rect width="440" height="186"/></clipPath><clipPath class="axesclip" id="clip70bd4ax"><rect x="80" y="0" width="440" height="800"/></clipPath><clipPath class="axesclip" id="clip70bd4ay"><rect x="0" y="100" width="600" height="186.00000000000003"/></clipPath><clipPath class="axesclip" id="clip70bd4axy"><rect x="80" y="100" width="440" height="186.00000000000003"/></clipPath><clipPath class="axesclip" id="clip70bd4ay2"><rect x="0" y="317.00000000000006" width="600" height="185.99999999999997"/></clipPath><clipPath class="axesclip" id="clip70bd4axy2"><rect x="80" y="317.00000000000006" width="440" height="185.99999999999997"/></clipPath><clipPath class="axesclip" id="clip70bd4ay3"><rect x="0" y="534" width="600" height="186"/></clipPath><clipPath class="axesclip" id="clip70bd4axy3"><rect x="80" y="534" width="440" height="186"/></clipPath><clipPath class="axesclip" id="clip70bd4ax2"><rect x="80" y="0" width="440" height="800"/></clipPath><clipPath class="axesclip" id="clip70bd4ax2y"><rect x="80" y="100" width="440" height="186.00000000000003"/></clipPath><clipPath class="axesclip" id="clip70bd4ax2y2"><rect x="80" y="317.00000000000006" width="440" height="185.99999999999997"/></clipPath><clipPath class="axesclip" id="clip70bd4ax2y3"><rect x="80" y="534" width="440" height="186"/></clipPath><clipPath class="axesclip" id="clip70bd4ax3"><rect x="80" y="0" width="440" height="800"/></clipPath><clipPath class="axesclip" id="clip70bd4ax3y"><rect x="80" y="100" width="440" height="186.00000000000003"/></clipPath><clipPath class="axesclip" id="clip70bd4ax3y2"><rect x="80" y="317.00000000000006" width="440" height="185.99999999999997"/></clipPath><clipPath class="axesclip" id="clip70bd4ax3y3"><rect x="80" y="534" width="440" height="186"/></clipPath></g><g class="gradients"/><g class="patterns"/></defs><g class="bglayer"><rect class="bg" x="80" y="100" width="440" height="186.00000000000003" style="fill: rgb(229, 236, 246); fill-opacity: 1; stroke-width: 0;"/><rect class="bg" x="80" y="317.00000000000006" width="440" height="185.99999999999997" style="fill: rgb(229, 236, 246); fill-opacity: 1; stroke-width: 0;"/><rect class="bg" x="80" y="534" width="440" height="186" style="fill: rgb(229, 236, 246); fill-opacity: 1; stroke-width: 0;"/></g><g class="layer-below"><g class="imagelayer"/><g class="shapelayer"/></g><g class="cartesianlayer"><g class="subplot xy"><g class="layer-subplot"><g class="shapelayer"/><g class="imagelayer"/></g><g class="minor-gridlayer"><g class="x"/><g class="y"/></g><g class="gridlayer"><g class="x"><path class="xgrid crisp" transform="translate(156.15,0)" d="M0,100v186.00000000000003" style="stroke: rgb(255, 255, 255); stroke-opacity: 1; stroke-width: 1px;"/><path class="xgrid crisp" transform="translate(240.77,0)" d="M0,100v186.00000000000003" style="stroke: rgb(255, 255, 255); stroke-opacity: 1; stroke-width: 1px;"/><path class="xgrid crisp" transform="translate(325.38,0)" d="M0,100v186.00000000000003" style="stroke: rgb(255, 255, 255); stroke-opacity: 1; stroke-width: 1px;"/><path class="xgrid crisp" transform="translate(410,0)" d="M0,100v186.00000000000003" style="stroke: rgb(255, 255, 255); stroke-opacity: 1; stroke-width: 1px;"/><path class="xgrid crisp" transform="translate(494.62,0)" d="M0,100v186.00000000000003" style="stroke: rgb(255, 255, 255); stroke-opacity: 1; stroke-width: 1px;"/></g><g class="y"><path class="ygrid crisp" transform="translate(0,248.8)" d="M80,0h440" style="stroke: rgb(255, 255, 255); stroke-opacity: 1; stroke-width: 1px;"/><path class="ygrid crisp" transform="translate(0,211.6)" d="M80,0h440" style="stroke: rgb(255, 255, 255); stroke-opacity: 1; stroke-width: 1px;"/><path class="ygrid crisp" transform="translate(0,174.4)" d="M80,0h440" style="stroke: rgb(255, 255, 255); stroke-opacity: 1; stroke-width: 1px;"/><path class="ygrid crisp" transform="translate(0,137.2)" d="M80,0h440" style="stroke: rgb(255, 255, 255); stroke-opacity: 1; stroke-width: 1px;"/></g></g><g class="zerolinelayer"><path class="yzl zl crisp" transform="translate(0,286)" d="M80,0h440" style="stroke: rgb(255, 255, 255); stroke-opacity: 1; stroke-width: 2px;"/></g><path class="xlines-below"/><path class="ylines-below"/><g class="overlines-below"/><g class="xaxislayer-below"/><g class="yaxislayer-below"/><g class="overaxes-below"/><g class="plot" transform="translate(80,100)" clip-path="url(#clip70bd4axyplot)"><g class="scatterlayer mlayer"><g class="trace scatter tracea41410" style="stroke-miterlimit: 2;"><g class="fills"><g><path class="js-fill" d="M0,186L118.46,185.58L126.92,184.46L135.38,177.88L143.85,165.08L152.31,172.21L160.77,154.67L177.69,168.96L186.15,178.47L194.62,148.68L203.08,148.49L211.54,157.37L220,141.07L228.46,106.2L236.92,147.25L245.38,160.97L253.85,178.13L262.31,169.1L270.77,168.2L279.23,166.71L287.69,176.92L296.15,174.85L304.62,174.64L313.08,154.96L321.54,167.62L330,182.94L338.46,183.83L346.92,185.65L355.38,186L440,186L440,186L363.85,186L355.38,186L330,185.7L321.54,185.87L313.08,183.78L304.62,185.74L287.69,185.65L279.23,184.78L270.77,185.55L262.31,184.37L253.85,185.49L245.38,184.47L236.92,176.95L228.46,183.35L211.54,182.23L203.08,174.1L194.62,173.07L186.15,185.84L177.69,185.88L169.23,184.29L160.77,174.97L152.31,186L143.85,184.35L135.38,186L0,186Z" style="fill: rgb(224, 236, 244); fill-opacity: 1; stroke-width: 0;"/></g></g><g class="errorbars"/><g class="lines"><path class="js-line" d="M0,186L135.38,186L143.85,184.35L152.31,186L160.77,174.97L169.23,184.29L177.69,185.88L186.15,185.84L194.62,173.07L203.08,174.1L211.54,182.23L228.46,183.35L236.92,176.95L245.38,184.47L253.85,185.49L262.31,184.37L270.77,185.55L279.23,184.78L287.69,185.65L304.62,185.74L313.08,183.78L321.54,185.87L330,185.7L355.38,186L363.85,186L440,186" style="vector-effect: non-scaling-stroke; fill: none; stroke: rgb(0, 0, 0); stroke-opacity: 1; stroke-width: 0.25px; opacity: 1;"/></g><g class="points"/><g class="text"/></g><g class="trace scatter trace9e58b7" style="stroke-miterlimit: 2;"><g class="fills"><g><path class="js-fill" d="M0,186L93.08,185.94L101.54,184.99L110,181.78L118.46,176.33L126.92,169.14L135.38,158.5L143.85,159.09L152.31,145.9L160.77,135.35L169.23,146.33L177.69,146.87L186.15,157.01L194.62,119.09L203.08,122.96L211.54,136.89L220,124.19L228.46,88.31L236.92,132.67L245.38,143.24L253.85,155.85L262.31,144.99L270.77,121.63L279.23,150L287.69,167.1L296.15,150.91L304.62,146.52L313.08,139.26L321.54,118.09L330,166.3L338.46,178.48L346.92,184.3L355.38,185.95L440,186L440,186L355.38,186L346.92,185.65L338.46,183.83L330,182.94L321.54,167.62L313.08,154.96L304.62,174.64L296.15,174.85L287.69,176.92L279.23,166.71L270.77,168.2L262.31,169.1L253.85,178.13L245.38,160.97L236.92,147.25L228.46,106.2L220,141.07L211.54,157.37L203.08,148.49L194.62,148.68L186.15,178.47L177.69,168.96L160.77,154.67L152.31,172.21L143.85,165.08L135.38,177.88L126.92,184.46L118.46,185.58L0,186Z" style="fill: rgb(158, 188, 218); fill-opacity: 1; stroke-width: 0;"/></g></g><g class="errorbars"/><g class="lines"><path class="js-line" d="M0,186L118.46,185.58L126.92,184.46L135.38,177.88L143.85,165.08L152.31,172.21L160.77,154.67L177.69,168.96L186.15,178.47L194.62,148.68L203.08,148.49L211.54,157.37L220,141.07L228.46,106.2L236.92,147.25L245.38,160.97L253.85,178.13L262.31,169.1L270.77,168.2L279.23,166.71L287.69,176.92L296.15,174.85L304.62,174.64L313.08,154.96L321.54,167.62L330,182.94L338.46,183.83L346.92,185.65L355.38,186L440,186" style="vector-effect: non-scaling-stroke; fill: none; stroke: rgb(0, 0, 0); stroke-opacity: 1; stroke-width: 0.5px; opacity: 1;"/></g><g class="points"/><g class="text"/></g><g class="trace scatter trace51fb95" style="stroke-miterlimit: 2;"><g class="fills"><g><path class="js-fill" d="M0,185.97L33.85,185.93L42.31,184.1L50.77,185.39L59.23,185.69L93.08,185.22L101.54,165.95L110,164.3L118.46,163.81L126.92,158.16L135.38,131.36L143.85,141.53L152.31,117.25L160.77,121.37L169.23,117.01L177.69,102.63L186.15,142.86L194.62,100.08L203.08,93.83L211.54,107.88L220,78.15L228.46,4.35L236.92,83.68L245.38,124.95L253.85,119.63L262.31,130.03L270.77,77.06L279.23,133.97L287.69,158.12L296.15,120.39L304.62,69.25L313.08,82.65L321.54,63.63L330,134.44L338.46,153.71L355.38,185.05L363.85,185.56L380.77,185.97L389.23,186L440,186L440,186L355.38,185.95L346.92,184.3L338.46,178.48L330,166.3L321.54,118.09L313.08,139.26L304.62,146.52L296.15,150.91L287.69,167.1L279.23,150L270.77,121.63L262.31,144.99L253.85,155.85L245.38,143.24L236.92,132.67L228.46,88.31L220,124.19L211.54,136.89L203.08,122.96L194.62,119.09L186.15,157.01L177.69,146.87L169.23,146.33L160.77,135.35L152.31,145.9L143.85,159.09L135.38,158.5L126.92,169.14L118.46,176.33L110,181.78L101.54,184.99L93.08,185.94L0,186Z" style="fill: rgb(158, 188, 218); fill-opacity: 1; stroke-width: 0;"/></g></g><g class="errorbars"/><g class="lines"><path class="js-line" d="M0,186L93.08,185.94L101.54,184.99L110,181.78L118.46,176.33L126.92,169.14L135.38,158.5L143.85,159.09L152.31,145.9L160.77,135.35L169.23,146.33L177.69,146.87L186.15,157.01L194.62,119.09L203.08,122.96L211.54,136.89L220,124.19L228.46,88.31L236.92,132.67L245.38,143.24L253.85,155.85L262.31,144.99L270.77,121.63L279.23,150L287.69,167.1L296.15,150.91L304.62,146.52L313.08,139.26L321.54,118.09L330,166.3L338.46,178.48L346.92,184.3L355.38,185.95L440,186" style="vector-effect: non-scaling-stroke; fill: none; stroke: rgb(0, 0, 0); stroke-opacity: 1; stroke-width: 1px; opacity: 1;"/></g><g class="points"/><g class="text"/></g><g class="trace scatter trace68e67b" style="stroke-miterlimit: 2;"><g class="fills"><g><path class="js-fill" d="M0,185.97L33.85,185.91L42.31,182.72L50.77,185.08L59.23,185.47L84.62,185.5L93.08,185.19L101.54,139.85L110,142.26L118.46,149.42L126.92,139.5L135.38,71.88L143.85,107.62L152.31,69.23L160.77,90.65L169.23,96.54L177.69,29.02L186.15,95.34L194.62,42.05L203.08,27.82L211.54,86.66L220,38.06L228.46,-96L236.92,41.9L245.38,86.85L253.85,78.67L262.31,83.54L270.77,3.24L279.23,98.54L287.69,155.19L296.15,64.57L304.62,-52.15L313.08,-2.1L321.54,-21.33L330,75.59L346.92,151.68L355.38,184.85L397.69,186L406.15,186L440,186L440,186L389.23,186L380.77,185.97L363.85,185.56L355.38,185.05L338.46,153.71L330,134.44L321.54,63.63L313.08,82.65L304.62,69.25L296.15,120.39L287.69,158.12L279.23,133.97L270.77,77.06L262.31,130.03L253.85,119.63L245.38,124.95L236.92,83.68L228.46,4.35L220,78.15L211.54,107.88L203.08,93.83L194.62,100.08L186.15,142.86L177.69,102.63L169.23,117.01L160.77,121.37L152.31,117.25L143.85,141.53L135.38,131.36L126.92,158.16L118.46,163.81L110,164.3L101.54,165.95L93.08,185.22L59.23,185.69L50.77,185.39L42.31,184.1L33.85,185.93L0,185.97Z" style="fill: rgb(136, 86, 167); fill-opacity: 1; stroke-width: 0;"/></g></g><g class="errorbars"/><g class="lines"><path class="js-line" d="M0,185.97L33.85,185.93L42.31,184.1L50.77,185.39L59.23,185.69L93.08,185.22L101.54,165.95L110,164.3L118.46,163.81L126.92,158.16L135.38,131.36L143.85,141.53L152.31,117.25L160.77,121.37L169.23,117.01L177.69,102.63L186.15,142.86L194.62,100.08L203.08,93.83L211.54,107.88L220,78.15L228.46,4.35L236.92,83.68L245.38,124.95L253.85,119.63L262.31,130.03L270.77,77.06L279.23,133.97L287.69,158.12L296.15,120.39L304.62,69.25L313.08,82.65L321.54,63.63L330,134.44L338.46,153.71L355.38,185.05L363.85,185.56L380.77,185.97L389.23,186L440,186" style="vector-effect: non-scaling-stroke; fill: none; stroke: rgb(0, 0, 0); stroke-opacity: 1; stroke-width: 0.5px; opacity: 1;"/></g><g class="points"/><g class="text"/></g><g class="trace scatter trace850aee" style="stroke-miterlimit: 2;"><g class="fills"/><g class="errorbars"/><g class="lines"><path class="js-line" d="M0,185.97L33.85,185.91L42.31,182.72L50.77,185.08L59.23,185.47L84.62,185.5L93.08,185.19L101.54,139.85L110,142.26L118.46,149.42L126.92,139.5L135.38,71.88L143.85,107.62L152.31,69.23L160.77,90.65L169.23,96.54L177.69,29.02L186.15,95.34L194.62,42.05L203.08,27.82L211.54,86.66L220,38.06L228.46,-96L236.92,41.9L245.38,86.85L253.85,78.67L262.31,83.54L270.77,3.24L279.23,98.54L287.69,155.19L296.15,64.57L304.62,-52.15L313.08,-2.1L321.54,-21.33L330,75.59L346.92,151.68L355.38,184.85L397.69,186L406.15,186L440,186" style="vector-effect: non-scaling-stroke; fill: none; stroke: rgb(0, 0, 0); stroke-opacity: 1; stroke-width: 0.25px; opacity: 1;"/></g><g class="points"/><g class="text"/></g><g class="trace scatter tracec5e827" style="stroke-miterlimit: 2; opacity: 1;"><g class="fills"/><g class="errorbars"/><g class="lines"/><g class="points"><path class="point" transform="translate(220,15.62)" d="M4,0A4,4 0 1,1 0,-4A4,4 0 0,1 4,0ZM0,0.5L0.5,0L0,-0.5L-0.5,0Z" style="opacity: 1; stroke: rgb(0, 0, 0); stroke-opacity: 1; stroke-width: 1px; fill: none;"/><path class="point" transform="translate(228.46,72.91)" d="M4,0A4,4 0 1,1 0,-4A4,4 0 0,1 4,0ZM0,0.5L0.5,0L0,-0.5L-0.5,0Z" style="opacity: 1; stroke: rgb(0, 0, 0); stroke-opacity: 1; stroke-width: 1px; fill: none;"/><path class="point" transform="translate(236.92,94.49)" d="M4,0A4,4 0 1,1 0,-4A4,4 0 0,1 4,0ZM0,0.5L0.5,0L0,-0.5L-0.5,0Z" style="opacity: 1; stroke: rgb(0, 0, 0); stroke-opacity: 1; stroke-width: 1px; fill: none;"/><path class="point" transform="translate(245.38,94.49)" d="M4,0A4,4 0 1,1 0,-4A4,4 0 0,1 4,0ZM0,0.5L0.5,0L0,-0.5L-0.5,0Z" style="opacity: 1; stroke: rgb(0, 0, 0); stroke-opacity: 1; stroke-width: 1px; fill: none;"/></g><g class="text"/></g></g></g><g class="overplot"/><path class="xlines-above crisp" d="M0,0" style="fill: none;"/><path class="ylines-above crisp" d="M0,0" style="fill: none;"/><g class="overlines-above"/><g class="xaxislayer-above"/><g class="yaxislayer-above"><g class="ytick"><text text-anchor="end" x="79" y="4.199999999999999" transform="translate(0,286)" style="font-family: 'Open Sans', verdana, arial, sans-serif; font-size: 12px; fill: rgb(42, 63, 95); fill-opacity: 1; white-space: pre; opacity: 1;">0</text></g><g class="ytick"><text text-anchor="end" x="79" y="4.199999999999999" style="font-family: 'Open Sans', verdana, arial, sans-serif; font-size: 12px; fill: rgb(42, 63, 95); fill-opacity: 1; white-space: pre; opacity: 1;" transform="translate(0,248.8)">50</text></g><g class="ytick"><text text-anchor="end" x="79" y="4.199999999999999" style="font-family: 'Open Sans', verdana, arial, sans-serif; font-size: 12px; fill: rgb(42, 63, 95); fill-opacity: 1; white-space: pre; opacity: 1;" transform="translate(0,211.6)">100</text></g><g class="ytick"><text text-anchor="end" x="79" y="4.199999999999999" style="font-family: 'Open Sans', verdana, arial, sans-serif; font-size: 12px; fill: rgb(42, 63, 95); fill-opacity: 1; white-space: pre; opacity: 1;" transform="translate(0,174.4)">150</text></g><g class="ytick"><text text-anchor="end" x="79" y="4.199999999999999" style="font-family: 'Open Sans', verdana, arial, sans-serif; font-size: 12px; fill: rgb(42, 63, 95); fill-opacity: 1; white-space: pre; opacity: 1;" transform="translate(0,137.2)">200</text></g><g class="ytick"><text text-anchor="end" x="79" y="4.199999999999999" style="font-family: 'Open Sans', verdana, arial, sans-serif; font-size: 12px; fill: rgb(42, 63, 95); fill-opacity: 1; white-space: pre; opacity: 1;" transform="translate(0,100)">250</text></g></g><g class="overaxes-above"/></g><g class="subplot x2y2"><g class="layer-subplot"><g class="shapelayer"/><g class="imagelayer"/></g><g class="minor-gridlayer"><g class="x2"/><g class="y2"/></g><g class="gridlayer"><g class="x2"><path class="x2grid crisp" transform="translate(156.15,0)" d="M0,317.00000000000006v185.99999999999997" style="stroke: rgb(255, 255, 255); stroke-opacity: 1; stroke-width: 1px;"/><path class="x2grid crisp" transform="translate(240.77,0)" d="M0,317.00000000000006v185.99999999999997" style="stroke: rgb(255, 255, 255); stroke-opacity: 1; stroke-width: 1px;"/><path class="x2grid crisp" transform="translate(325.38,0)" d="M0,317.00000000000006v185.99999999999997" style="stroke: rgb(255, 255, 255); stroke-opacity: 1; stroke-width: 1px;"/><path class="x2grid crisp" transform="translate(410,0)" d="M0,317.00000000000006v185.99999999999997" style="stroke: rgb(255, 255, 255); stroke-opacity: 1; stroke-width: 1px;"/><path class="x2grid crisp" transform="translate(494.62,0)" d="M0,317.00000000000006v185.99999999999997" style="stroke: rgb(255, 255, 255); stroke-opacity: 1; stroke-width: 1px;"/></g><g class="y2"><path class="y2grid crisp" transform="translate(0,472.00000000000006)" d="M80,0h440" style="stroke: rgb(255, 255, 255); stroke-opacity: 1; stroke-width: 1px;"/><path class="y2grid crisp" transform="translate(0,410.00000000000006)" d="M80,0h440" style="stroke: rgb(255, 255, 255); stroke-opacity: 1; stroke-width: 1px;"/><path class="y2grid crisp" transform="translate(0,348.00000000000006)" d="M80,0h440" style="stroke: rgb(255, 255, 255); stroke-opacity: 1; stroke-width: 1px;"/></g></g><g class="zerolinelayer"/><path class="xlines-below"/><path class="ylines-below"/><g class="overlines-below"/><g class="xaxislayer-below"/><g class="yaxislayer-below"/><g class="overaxes-below"/><g class="plot" transform="translate(80,317.00000000000006)" clip-path="url(#clip70bd4ax2y2plot)"><g class="scatterlayer mlayer"><g class="trace scatter trace9928ce" style="stroke-miterlimit: 2;"><g class="fills"><g><path class="js-fill" d="M0,150.48L8.46,153.3L16.92,143.81L25.38,138.13L33.85,136.21L42.31,124.53L50.77,114.75L59.23,110.76L67.69,96.55L76.15,97.57L84.62,85.35L93.08,72.33L101.54,81.6L110,80.9L118.46,81.07L126.92,82.55L135.38,81.36L143.85,82.09L152.31,76.64L160.77,78.38L169.23,82.63L177.69,80.57L186.15,80.32L194.62,83.48L203.08,89.62L211.54,93.46L220,93.35L228.46,94.74L236.92,90.29L245.38,89.22L253.85,84.55L262.31,85.81L270.77,93.7L287.69,87.61L296.15,91.9L304.62,93.15L313.08,91.42L321.54,93.58L330,92.29L355.38,89.85L363.85,96.73L372.31,99.28L380.77,109.12L397.69,124.73L406.15,134.46L414.62,133.64L423.08,145.6L431.54,146.84L440,153.4L440,157.73L431.54,158.25L423.08,164.06L414.62,142.35L406.15,140.31L397.69,139.1L389.23,124.73L380.77,115.99L372.31,107.4L363.85,101.07L355.38,92.8L346.92,97.7L338.46,107.25L330,102.87L321.54,106.62L313.08,99.93L304.62,99.37L296.15,103.91L287.69,93.26L279.23,104.02L270.77,103.34L262.31,99.76L253.85,99.05L245.38,94.84L236.92,107.61L228.46,106.64L220,101.56L211.54,102.97L203.08,93.93L194.62,100.64L186.15,86.91L169.23,95.98L160.77,84.36L152.31,89.04L143.85,95.27L135.38,88.39L126.92,94.49L118.46,93.67L110,102.95L101.54,96.29L93.08,93.26L84.62,99.63L76.15,110.2L67.69,116.64L59.23,124.78L50.77,128.14L42.31,137.14L33.85,151.13L25.38,141.4L16.92,151.08L8.46,165.98L0,171.08Z" style="fill: rgb(145, 191, 219); fill-opacity: 1; stroke-width: 0;"/></g></g><g class="errorbars"/><g class="lines"><path class="js-line" d="M0,171.08L8.46,165.98L16.92,151.08L25.38,141.4L33.85,151.13L42.31,137.14L50.77,128.14L59.23,124.78L67.69,116.64L76.15,110.2L84.62,99.63L93.08,93.26L101.54,96.29L110,102.95L118.46,93.67L126.92,94.49L135.38,88.39L143.85,95.27L152.31,89.04L160.77,84.36L169.23,95.98L186.15,86.91L194.62,100.64L203.08,93.93L211.54,102.97L220,101.56L228.46,106.64L236.92,107.61L245.38,94.84L253.85,99.05L262.31,99.76L270.77,103.34L279.23,104.02L287.69,93.26L296.15,103.91L304.62,99.37L313.08,99.93L321.54,106.62L330,102.87L338.46,107.25L346.92,97.7L355.38,92.8L363.85,101.07L372.31,107.4L380.77,115.99L389.23,124.73L397.69,139.1L406.15,140.31L414.62,142.35L423.08,164.06L431.54,158.25L440,157.73" style="vector-effect: non-scaling-stroke; fill: none; stroke: rgb(0, 0, 0); stroke-opacity: 1; stroke-width: 0.25px; opacity: 1;"/></g><g class="points"/><g class="text"/></g><g class="trace scatter trace7b7794" style="stroke-miterlimit: 2;"><g class="fills"><g><path class="js-fill" d="M0,141.46L8.46,146.55L16.92,137.47L25.38,135.53L33.85,126.76L42.31,117.51L50.77,109.39L59.23,99.74L67.69,88.3L84.62,75.27L93.08,64.65L101.54,66.19L110,75.1L118.46,69.53L126.92,72.29L135.38,76.87L143.85,76.76L152.31,70.02L160.77,74.62L169.23,72.79L177.69,75.3L186.15,74.4L194.62,78.41L203.08,84.19L211.54,86.92L220,88.09L228.46,85.83L236.92,80.59L245.38,84.35L253.85,79.35L262.31,76.69L270.77,83.03L279.23,82.55L287.69,82.13L296.15,83.12L304.62,89.71L313.08,85.6L321.54,84.75L330,80.3L338.46,80.95L346.92,84.02L355.38,87.86L363.85,93.24L372.31,95.31L380.77,105.49L389.23,113.55L397.69,116.93L406.15,126.63L414.62,128.29L431.54,141.47L440,138.45L440,153.4L431.54,146.84L423.08,145.6L414.62,133.64L406.15,134.46L397.69,124.73L380.77,109.12L372.31,99.28L363.85,96.73L355.38,89.85L330,92.29L321.54,93.58L313.08,91.42L304.62,93.15L296.15,91.9L287.69,87.61L270.77,93.7L262.31,85.81L253.85,84.55L245.38,89.22L236.92,90.29L228.46,94.74L220,93.35L211.54,93.46L203.08,89.62L194.62,83.48L186.15,80.32L177.69,80.57L169.23,82.63L160.77,78.38L152.31,76.64L143.85,82.09L135.38,81.36L126.92,82.55L118.46,81.07L110,80.9L101.54,81.6L93.08,72.33L84.62,85.35L76.15,97.57L67.69,96.55L59.23,110.76L50.77,114.75L42.31,124.53L33.85,136.21L25.38,138.13L16.92,143.81L8.46,153.3L0,150.48Z" style="fill: rgb(255, 255, 191); fill-opacity: 1; stroke-width: 0;"/></g></g><g class="errorbars"/><g class="lines"><path class="js-line" d="M0,150.48L8.46,153.3L16.92,143.81L25.38,138.13L33.85,136.21L42.31,124.53L50.77,114.75L59.23,110.76L67.69,96.55L76.15,97.57L84.62,85.35L93.08,72.33L101.54,81.6L110,80.9L118.46,81.07L126.92,82.55L135.38,81.36L143.85,82.09L152.31,76.64L160.77,78.38L169.23,82.63L177.69,80.57L186.15,80.32L194.62,83.48L203.08,89.62L211.54,93.46L220,93.35L228.46,94.74L236.92,90.29L245.38,89.22L253.85,84.55L262.31,85.81L270.77,93.7L287.69,87.61L296.15,91.9L304.62,93.15L313.08,91.42L321.54,93.58L330,92.29L355.38,89.85L363.85,96.73L372.31,99.28L380.77,109.12L397.69,124.73L406.15,134.46L414.62,133.64L423.08,145.6L431.54,146.84L440,153.4" style="vector-effect: non-scaling-stroke; fill: none; stroke: rgb(0, 0, 0); stroke-opacity: 1; stroke-width: 0.5px; opacity: 1;"/></g><g class="points"/><g class="text"/></g><g class="trace scatter traced67e85" style="stroke-miterlimit: 2;"><g class="fills"><g><path class="js-fill" d="M0,133.26L8.46,138.74L16.92,129.66L25.38,131.51L33.85,120.28L42.31,111.95L50.77,99L59.23,93.19L67.69,82.39L76.15,74.4L84.62,67.77L93.08,57.46L101.54,53.1L110,57.76L118.46,57.91L126.92,63.94L135.38,65.96L143.85,70.24L152.31,66.57L160.77,65.61L169.23,67.42L177.69,69.13L186.15,67.65L194.62,69.34L203.08,76.45L211.54,82.32L220,84.1L228.46,77.58L236.92,73.97L245.38,76.03L253.85,74.49L262.31,72.3L270.77,75.03L279.23,78.73L287.69,76.94L296.15,78L304.62,83.43L313.08,81.23L321.54,80.54L330,72.89L338.46,75.35L346.92,78L355.38,85.79L372.31,92L380.77,102L397.69,111.52L406.15,119.5L414.62,122.88L423.08,128.45L431.54,130.49L440,124.39L440,138.45L431.54,141.47L414.62,128.29L406.15,126.63L397.69,116.93L389.23,113.55L380.77,105.49L372.31,95.31L363.85,93.24L355.38,87.86L346.92,84.02L338.46,80.95L330,80.3L321.54,84.75L313.08,85.6L304.62,89.71L296.15,83.12L287.69,82.13L279.23,82.55L270.77,83.03L262.31,76.69L253.85,79.35L245.38,84.35L236.92,80.59L228.46,85.83L220,88.09L211.54,86.92L203.08,84.19L194.62,78.41L186.15,74.4L177.69,75.3L169.23,72.79L160.77,74.62L152.31,70.02L143.85,76.76L135.38,76.87L126.92,72.29L118.46,69.53L110,75.1L101.54,66.19L93.08,64.65L84.62,75.27L67.69,88.3L59.23,99.74L50.77,109.39L42.31,117.51L33.85,126.76L25.38,135.53L16.92,137.47L8.46,146.55L0,141.46Z" style="fill: rgb(255, 255, 191); fill-opacity: 1; stroke-width: 0;"/></g></g><g class="errorbars"/><g class="lines"><path class="js-line" d="M0,141.46L8.46,146.55L16.92,137.47L25.38,135.53L33.85,126.76L42.31,117.51L50.77,109.39L59.23,99.74L67.69,88.3L84.62,75.27L93.08,64.65L101.54,66.19L110,75.1L118.46,69.53L126.92,72.29L135.38,76.87L143.85,76.76L152.31,70.02L160.77,74.62L169.23,72.79L177.69,75.3L186.15,74.4L194.62,78.41L203.08,84.19L211.54,86.92L220,88.09L228.46,85.83L236.92,80.59L245.38,84.35L253.85,79.35L262.31,76.69L270.77,83.03L279.23,82.55L287.69,82.13L296.15,83.12L304.62,89.71L313.08,85.6L321.54,84.75L330,80.3L338.46,80.95L346.92,84.02L355.38,87.86L363.85,93.24L372.31,95.31L380.77,105.49L389.23,113.55L397.69,116.93L406.15,126.63L414.62,128.29L431.54,141.47L440,138.45" style="vector-effect: non-scaling-stroke; fill: none; stroke: rgb(0, 0, 0); stroke-opacity: 1; stroke-width: 1px; opacity: 1;"/></g><g class="points"/><g class="text"/></g><g class="trace scatter traceb2f4bf" style="stroke-miterlimit: 2;"><g class="fills"><g><path class="js-fill" d="M0,118.92L8.46,119.91L16.92,117.72L25.38,125.98L33.85,111.03L42.31,103.45L50.77,86.64L59.23,75.94L67.69,69.43L76.15,64L84.62,53.19L93.08,51.76L101.54,35.1L110,39.43L118.46,33.8L126.92,41.84L135.38,47.71L143.85,56.72L152.31,61.06L160.77,52.87L169.23,65.8L177.69,57.67L186.15,61.43L194.62,62.67L203.08,69.54L211.54,70.49L220,73.25L228.46,69.27L236.92,61.77L245.38,65.94L253.85,63.42L262.31,61.41L270.77,66.65L279.23,62.72L287.69,66.26L296.15,68.19L304.62,68.99L313.08,66.46L321.54,71.02L338.46,61.13L346.92,63.75L355.38,83.15L363.85,80.31L372.31,89.38L380.77,95.74L389.23,99.11L397.69,98.99L406.15,105.46L414.62,115.91L423.08,120.05L431.54,120.82L440,117.6L440,124.39L431.54,130.49L423.08,128.45L414.62,122.88L406.15,119.5L397.69,111.52L380.77,102L372.31,92L355.38,85.79L346.92,78L338.46,75.35L330,72.89L321.54,80.54L313.08,81.23L304.62,83.43L296.15,78L287.69,76.94L279.23,78.73L270.77,75.03L262.31,72.3L253.85,74.49L245.38,76.03L236.92,73.97L228.46,77.58L220,84.1L211.54,82.32L203.08,76.45L194.62,69.34L186.15,67.65L177.69,69.13L169.23,67.42L160.77,65.61L152.31,66.57L143.85,70.24L135.38,65.96L126.92,63.94L118.46,57.91L110,57.76L101.54,53.1L93.08,57.46L84.62,67.77L76.15,74.4L67.69,82.39L59.23,93.19L50.77,99L42.31,111.95L33.85,120.28L25.38,131.51L16.92,129.66L8.46,138.74L0,133.26Z" style="fill: rgb(252, 141, 89); fill-opacity: 1; stroke-width: 0;"/></g></g><g class="errorbars"/><g class="lines"><path class="js-line" d="M0,133.26L8.46,138.74L16.92,129.66L25.38,131.51L33.85,120.28L42.31,111.95L50.77,99L59.23,93.19L67.69,82.39L76.15,74.4L84.62,67.77L93.08,57.46L101.54,53.1L110,57.76L118.46,57.91L126.92,63.94L135.38,65.96L143.85,70.24L152.31,66.57L160.77,65.61L169.23,67.42L177.69,69.13L186.15,67.65L194.62,69.34L203.08,76.45L211.54,82.32L220,84.1L228.46,77.58L236.92,73.97L245.38,76.03L253.85,74.49L262.31,72.3L270.77,75.03L279.23,78.73L287.69,76.94L296.15,78L304.62,83.43L313.08,81.23L321.54,80.54L330,72.89L338.46,75.35L346.92,78L355.38,85.79L372.31,92L380.77,102L397.69,111.52L406.15,119.5L414.62,122.88L423.08,128.45L431.54,130.49L440,124.39" style="vector-effect: non-scaling-stroke; fill: none; stroke: rgb(0, 0, 0); stroke-opacity: 1; stroke-width: 0.5px; opacity: 1;"/></g><g class="points"/><g class="text"/></g><g class="trace scatter trace5ad79c" style="stroke-miterlimit: 2;"><g class="fills"/><g class="errorbars"/><g class="lines"><path class="js-line" d="M0,118.92L8.46,119.91L16.92,117.72L25.38,125.98L33.85,111.03L42.31,103.45L50.77,86.64L59.23,75.94L67.69,69.43L76.15,64L84.62,53.19L93.08,51.76L101.54,35.1L110,39.43L118.46,33.8L126.92,41.84L135.38,47.71L143.85,56.72L152.31,61.06L160.77,52.87L169.23,65.8L177.69,57.67L186.15,61.43L194.62,62.67L203.08,69.54L211.54,70.49L220,73.25L228.46,69.27L236.92,61.77L245.38,65.94L253.85,63.42L262.31,61.41L270.77,66.65L279.23,62.72L287.69,66.26L296.15,68.19L304.62,68.99L313.08,66.46L321.54,71.02L338.46,61.13L346.92,63.75L355.38,83.15L363.85,80.31L372.31,89.38L380.77,95.74L389.23,99.11L397.69,98.99L406.15,105.46L414.62,115.91L423.08,120.05L431.54,120.82L440,117.6" style="vector-effect: non-scaling-stroke; fill: none; stroke: rgb(0, 0, 0); stroke-opacity: 1; stroke-width: 0.25px; opacity: 1;"/></g><g class="points"/><g class="text"/></g><g class="trace scatter tracedda727" style="stroke-miterlimit: 2; opacity: 1;"><g class="fills"/><g class="errorbars"/><g class="lines"/><g class="points"><path class="point" transform="translate(220,62)" d="M4,0A4,4 0 1,1 0,-4A4,4 0 0,1 4,0ZM0,0.5L0.5,0L0,-0.5L-0.5,0Z" style="opacity: 1; stroke: rgb(0, 0, 0); stroke-opacity: 1; stroke-width: 1px; fill: none;"/><path class="point" transform="translate(228.46,55.8)" d="M4,0A4,4 0 1,1 0,-4A4,4 0 0,1 4,0ZM0,0.5L0.5,0L0,-0.5L-0.5,0Z" style="opacity: 1; stroke: rgb(0, 0, 0); stroke-opacity: 1; stroke-width: 1px; fill: none;"/><path class="point" transform="translate(236.92,68.2)" d="M4,0A4,4 0 1,1 0,-4A4,4 0 0,1 4,0ZM0,0.5L0.5,0L0,-0.5L-0.5,0Z" style="opacity: 1; stroke: rgb(0, 0, 0); stroke-opacity: 1; stroke-width: 1px; fill: none;"/><path class="point" transform="translate(245.38,68.2)" d="M4,0A4,4 0 1,1 0,-4A4,4 0 0,1 4,0ZM0,0.5L0.5,0L0,-0.5L-0.5,0Z" style="opacity: 1; stroke: rgb(0, 0, 0); stroke-opacity: 1; stroke-width: 1px; fill: none;"/></g><g class="text"/></g></g></g><g class="overplot"/><path class="xlines-above crisp" d="M0,0" style="fill: none;"/><path class="ylines-above crisp" d="M0,0" style="fill: none;"/><g class="overlines-above"/><g class="xaxislayer-above"/><g class="yaxislayer-above"><g class="y2tick"><text text-anchor="end" x="79" y="4.199999999999999" transform="translate(0,472.00000000000006)" style="font-family: 'Open Sans', verdana, arial, sans-serif; font-size: 12px; fill: rgb(42, 63, 95); fill-opacity: 1; white-space: pre; opacity: 1;">20</text></g><g class="y2tick"><text text-anchor="end" x="79" y="4.199999999999999" style="font-family: 'Open Sans', verdana, arial, sans-serif; font-size: 12px; fill: rgb(42, 63, 95); fill-opacity: 1; white-space: pre; opacity: 1;" transform="translate(0,410.00000000000006)">30</text></g><g class="y2tick"><text text-anchor="end" x="79" y="4.199999999999999" style="font-family: 'Open Sans', verdana, arial, sans-serif; font-size: 12px; fill: rgb(42, 63, 95); fill-opacity: 1; white-space: pre; opacity: 1;" transform="translate(0,348.00000000000006)">40</text></g></g><g class="overaxes-above"/></g><g class="subplot x3y3"><g class="layer-subplot"><g class="shapelayer"/><g class="imagelayer"/></g><g class="minor-gridlayer"><g class="x3"/><g class="y3"/></g><g class="gridlayer"><g class="x3"><path class="x3grid crisp" transform="translate(156.15,0)" d="M0,534v186" style="stroke: rgb(255, 255, 255); stroke-opacity: 1; stroke-width: 1px;"/><path class="x3grid crisp" transform="translate(240.77,0)" d="M0,534v186" style="stroke: rgb(255, 255, 255); stroke-opacity: 1; stroke-width: 1px;"/><path class="x3grid crisp" transform="translate(325.38,0)" d="M0,534v186" style="stroke: rgb(255, 255, 255); stroke-opacity: 1; stroke-width: 1px;"/><path class="x3grid crisp" transform="translate(410,0)" d="M0,534v186" style="stroke: rgb(255, 255, 255); stroke-opacity: 1; stroke-width: 1px;"/><path class="x3grid crisp" transform="translate(494.62,0)" d="M0,534v186" style="stroke: rgb(255, 255, 255); stroke-opacity: 1; stroke-width: 1px;"/></g><g class="y3"><path class="y3grid crisp" transform="translate(0,682.8)" d="M80,0h440" style="stroke: rgb(255, 255, 255); stroke-opacity: 1; stroke-width: 1px;"/><path class="y3grid crisp" transform="translate(0,645.6)" d="M80,0h440" style="stroke: rgb(255, 255, 255); stroke-opacity: 1; stroke-width: 1px;"/><path class="y3grid crisp" transform="translate(0,608.4)" d="M80,0h440" style="stroke: rgb(255, 255, 255); stroke-opacity: 1; stroke-width: 1px;"/><path class="y3grid crisp" transform="translate(0,571.2)" d="M80,0h440" style="stroke: rgb(255, 255, 255); stroke-opacity: 1; stroke-width: 1px;"/></g></g><g class="zerolinelayer"/><path class="xlines-below"/><path class="ylines-below"/><g class="overlines-below"/><g class="xaxislayer-below"/><g class="yaxislayer-below"/><g class="overaxes-below"/><g class="plot" transform="translate(80,534)" clip-path="url(#clip70bd4ax3y3plot)"><g class="scatterlayer mlayer"><g class="trace scatter tracee23428" style="stroke-miterlimit: 2;"><g class="fills"><g><path class="js-fill" d="M0,133.84L8.46,142.79L16.92,136.3L25.38,131.7L33.85,128.3L42.31,116.65L50.77,116.3L59.23,103.52L67.69,96.47L76.15,89.79L84.62,86.73L93.08,75.52L101.54,68.28L110,67.88L118.46,65.61L126.92,60.92L135.38,60.35L143.85,61.35L152.31,52.26L160.77,51L169.23,46.29L177.69,45.81L186.15,40.92L194.62,40.35L203.08,38.85L220,38.37L228.46,37.52L245.38,37.73L253.85,36.36L262.31,36.21L270.77,36.96L279.23,38.81L287.69,37.24L304.62,41.81L313.08,40.65L321.54,41.45L330,44.16L338.46,49.66L346.92,53.93L355.38,59.28L363.85,69.01L372.31,74.74L380.77,83.79L397.69,105.23L406.15,112.24L414.62,116.11L423.08,129.04L431.54,131.32L440,141.79L440,151.76L431.54,156.2L423.08,143.65L414.62,134L406.15,127.76L397.69,121.5L389.23,107.56L380.77,91.56L372.31,90.27L363.85,76.05L355.38,66.62L346.92,58.91L338.46,58.74L330,50.26L321.54,45.93L313.08,44.23L304.62,44.81L296.15,44.93L287.69,38.54L279.23,42.89L270.77,42.83L262.31,42.38L253.85,39.57L245.38,46.67L236.92,41.23L228.46,42.64L220,42.9L211.54,40.56L203.08,41.45L194.62,42.9L186.15,45.33L177.69,57.48L169.23,50.65L160.77,60.96L152.31,54.7L143.85,71.86L135.38,65.17L126.92,70.35L118.46,83.48L110,82.03L101.54,89.12L93.08,95.86L84.62,96.75L76.15,102.95L67.69,114.12L59.23,117.36L50.77,140.9L42.31,133.24L33.85,147.75L25.38,146.98L16.92,151.42L8.46,153.34L0,146.44Z" style="fill: rgb(90, 180, 172); fill-opacity: 1; stroke-width: 0;"/></g></g><g class="errorbars"/><g class="lines"><path class="js-line" d="M0,146.44L8.46,153.34L16.92,151.42L25.38,146.98L33.85,147.75L42.31,133.24L50.77,140.9L59.23,117.36L67.69,114.12L76.15,102.95L84.62,96.75L93.08,95.86L101.54,89.12L110,82.03L118.46,83.48L126.92,70.35L135.38,65.17L143.85,71.86L152.31,54.7L160.77,60.96L169.23,50.65L177.69,57.48L186.15,45.33L194.62,42.9L203.08,41.45L211.54,40.56L220,42.9L228.46,42.64L236.92,41.23L245.38,46.67L253.85,39.57L262.31,42.38L270.77,42.83L279.23,42.89L287.69,38.54L296.15,44.93L304.62,44.81L313.08,44.23L321.54,45.93L330,50.26L338.46,58.74L346.92,58.91L355.38,66.62L363.85,76.05L372.31,90.27L380.77,91.56L389.23,107.56L397.69,121.5L406.15,127.76L414.62,134L423.08,143.65L431.54,156.2L440,151.76" style="vector-effect: non-scaling-stroke; fill: none; stroke: rgb(0, 0, 0); stroke-opacity: 1; stroke-width: 0.25px; opacity: 1;"/></g><g class="points"/><g class="text"/></g><g class="trace scatter trace750ead" style="stroke-miterlimit: 2;"><g class="fills"><g><path class="js-fill" d="M0,125.07L8.46,132.98L16.92,126.36L25.38,122.04L33.85,121.03L42.31,110.7L50.77,103.11L59.23,95.27L67.69,85.92L76.15,83.84L84.62,73.5L93.08,64.22L101.54,60.18L110,62.68L118.46,61.56L126.92,54.19L135.38,57.21L143.85,54.87L152.31,47.54L160.77,44.52L169.23,43.88L177.69,42.87L186.15,37.72L203.08,36.83L211.54,35.75L236.92,34.8L245.38,35.79L262.31,32.84L270.77,34.82L279.23,35.92L287.69,35.71L296.15,36.64L304.62,39.57L330,38.52L338.46,42.75L346.92,48.84L355.38,56.15L363.85,65.24L372.31,69.02L406.15,105.98L414.62,108.73L440,135.29L440,141.79L431.54,131.32L423.08,129.04L414.62,116.11L406.15,112.24L397.69,105.23L380.77,83.79L372.31,74.74L363.85,69.01L355.38,59.28L346.92,53.93L338.46,49.66L330,44.16L321.54,41.45L313.08,40.65L304.62,41.81L287.69,37.24L279.23,38.81L270.77,36.96L262.31,36.21L253.85,36.36L245.38,37.73L228.46,37.52L220,38.37L203.08,38.85L194.62,40.35L186.15,40.92L177.69,45.81L169.23,46.29L160.77,51L152.31,52.26L143.85,61.35L135.38,60.35L126.92,60.92L118.46,65.61L110,67.88L101.54,68.28L93.08,75.52L84.62,86.73L76.15,89.79L67.69,96.47L59.23,103.52L50.77,116.3L42.31,116.65L33.85,128.3L25.38,131.7L16.92,136.3L8.46,142.79L0,133.84Z" style="fill: rgb(245, 245, 245); fill-opacity: 1; stroke-width: 0;"/></g></g><g class="errorbars"/><g class="lines"><path class="js-line" d="M0,133.84L8.46,142.79L16.92,136.3L25.38,131.7L33.85,128.3L42.31,116.65L50.77,116.3L59.23,103.52L67.69,96.47L76.15,89.79L84.62,86.73L93.08,75.52L101.54,68.28L110,67.88L118.46,65.61L126.92,60.92L135.38,60.35L143.85,61.35L152.31,52.26L160.77,51L169.23,46.29L177.69,45.81L186.15,40.92L194.62,40.35L203.08,38.85L220,38.37L228.46,37.52L245.38,37.73L253.85,36.36L262.31,36.21L270.77,36.96L279.23,38.81L287.69,37.24L304.62,41.81L313.08,40.65L321.54,41.45L330,44.16L338.46,49.66L346.92,53.93L355.38,59.28L363.85,69.01L372.31,74.74L380.77,83.79L397.69,105.23L406.15,112.24L414.62,116.11L423.08,129.04L431.54,131.32L440,141.79" style="vector-effect: non-scaling-stroke; fill: none; stroke: rgb(0, 0, 0); stroke-opacity: 1; stroke-width: 0.5px; opacity: 1;"/></g><g class="points"/><g class="text"/></g><g class="trace scatter traced4ec9d" style="stroke-miterlimit: 2;"><g class="fills"><g><path class="js-fill" d="M0,120.09L8.46,122.19L16.92,119.26L25.38,118.12L33.85,114.07L42.31,102.55L50.77,97.22L67.69,78.57L76.15,74.32L93.08,59.75L101.54,51.71L110,51.2L118.46,49.49L126.92,50.71L135.38,52.76L143.85,50.05L152.31,45.9L160.77,42.06L169.23,40.64L186.15,36L194.62,36.36L211.54,34.34L220,32.14L228.46,32.98L236.92,29.79L245.38,31.19L253.85,30.81L270.77,30.23L279.23,32.77L296.15,34.03L304.62,36.46L313.08,35.56L321.54,37.84L330,35.43L338.46,37.15L346.92,45.83L355.38,52L363.85,60.59L372.31,62.53L380.77,76.23L389.23,80.71L397.69,89.65L406.15,100.04L414.62,100.49L423.08,103.13L440,123.11L440,135.29L414.62,108.73L406.15,105.98L372.31,69.02L363.85,65.24L355.38,56.15L346.92,48.84L338.46,42.75L330,38.52L304.62,39.57L296.15,36.64L287.69,35.71L279.23,35.92L270.77,34.82L262.31,32.84L245.38,35.79L236.92,34.8L211.54,35.75L203.08,36.83L186.15,37.72L177.69,42.87L169.23,43.88L160.77,44.52L152.31,47.54L143.85,54.87L135.38,57.21L126.92,54.19L118.46,61.56L110,62.68L101.54,60.18L93.08,64.22L84.62,73.5L76.15,83.84L67.69,85.92L59.23,95.27L50.77,103.11L42.31,110.7L33.85,121.03L25.38,122.04L16.92,126.36L8.46,132.98L0,125.07Z" style="fill: rgb(245, 245, 245); fill-opacity: 1; stroke-width: 0;"/></g></g><g class="errorbars"/><g class="lines"><path class="js-line" d="M0,125.07L8.46,132.98L16.92,126.36L25.38,122.04L33.85,121.03L42.31,110.7L50.77,103.11L59.23,95.27L67.69,85.92L76.15,83.84L84.62,73.5L93.08,64.22L101.54,60.18L110,62.68L118.46,61.56L126.92,54.19L135.38,57.21L143.85,54.87L152.31,47.54L160.77,44.52L169.23,43.88L177.69,42.87L186.15,37.72L203.08,36.83L211.54,35.75L236.92,34.8L245.38,35.79L262.31,32.84L270.77,34.82L279.23,35.92L287.69,35.71L296.15,36.64L304.62,39.57L330,38.52L338.46,42.75L346.92,48.84L355.38,56.15L363.85,65.24L372.31,69.02L406.15,105.98L414.62,108.73L440,135.29" style="vector-effect: non-scaling-stroke; fill: none; stroke: rgb(0, 0, 0); stroke-opacity: 1; stroke-width: 1px; opacity: 1;"/></g><g class="points"/><g class="text"/></g><g class="trace scatter tracec0fc07" style="stroke-miterlimit: 2;"><g class="fills"><g><path class="js-fill" d="M0,111.91L8.46,114.44L16.92,102.52L25.38,105.16L33.85,94L42.31,95.5L50.77,78.14L59.23,82.42L67.69,65.78L76.15,56.66L84.62,53.77L93.08,46.52L101.54,34.98L110,38.58L118.46,32.86L135.38,52.68L143.85,38.42L152.31,39.27L160.77,33.47L169.23,36.13L177.69,33.22L186.15,31.29L194.62,34.14L203.08,30.81L211.54,30.55L220,24.35L228.46,27.37L236.92,22.8L245.38,23.14L253.85,25.44L262.31,24.46L270.77,24.17L279.23,25.51L287.69,31.93L296.15,26.22L304.62,29.45L313.08,28.85L321.54,32.65L330,28.99L338.46,33.2L346.92,38.85L363.85,54.92L372.31,59.16L380.77,71.07L389.23,75.84L397.69,81.98L406.15,83.49L414.62,89.9L423.08,91.04L431.54,102.3L440,105.18L440,123.11L423.08,103.13L414.62,100.49L406.15,100.04L397.69,89.65L389.23,80.71L380.77,76.23L372.31,62.53L363.85,60.59L355.38,52L346.92,45.83L338.46,37.15L330,35.43L321.54,37.84L313.08,35.56L304.62,36.46L296.15,34.03L279.23,32.77L270.77,30.23L253.85,30.81L245.38,31.19L236.92,29.79L228.46,32.98L220,32.14L211.54,34.34L194.62,36.36L186.15,36L169.23,40.64L160.77,42.06L152.31,45.9L143.85,50.05L135.38,52.76L126.92,50.71L118.46,49.49L110,51.2L101.54,51.71L93.08,59.75L76.15,74.32L67.69,78.57L50.77,97.22L42.31,102.55L33.85,114.07L25.38,118.12L16.92,119.26L8.46,122.19L0,120.09Z" style="fill: rgb(216, 179, 101); fill-opacity: 1; stroke-width: 0;"/></g></g><g class="errorbars"/><g class="lines"><path class="js-line" d="M0,120.09L8.46,122.19L16.92,119.26L25.38,118.12L33.85,114.07L42.31,102.55L50.77,97.22L67.69,78.57L76.15,74.32L93.08,59.75L101.54,51.71L110,51.2L118.46,49.49L126.92,50.71L135.38,52.76L143.85,50.05L152.31,45.9L160.77,42.06L169.23,40.64L186.15,36L194.62,36.36L211.54,34.34L220,32.14L228.46,32.98L236.92,29.79L245.38,31.19L253.85,30.81L270.77,30.23L279.23,32.77L296.15,34.03L304.62,36.46L313.08,35.56L321.54,37.84L330,35.43L338.46,37.15L346.92,45.83L355.38,52L363.85,60.59L372.31,62.53L380.77,76.23L389.23,80.71L397.69,89.65L406.15,100.04L414.62,100.49L423.08,103.13L440,123.11" style="vector-effect: non-scaling-stroke; fill: none; stroke: rgb(0, 0, 0); stroke-opacity: 1; stroke-width: 0.5px; opacity: 1;"/></g><g class="points"/><g class="text"/></g><g class="trace scatter trace05ff8b" style="stroke-miterlimit: 2;"><g class="fills"/><g class="errorbars"/><g class="lines"><path class="js-line" d="M0,111.91L8.46,114.44L16.92,102.52L25.38,105.16L33.85,94L42.31,95.5L50.77,78.14L59.23,82.42L67.69,65.78L76.15,56.66L84.62,53.77L93.08,46.52L101.54,34.98L110,38.58L118.46,32.86L135.38,52.68L143.85,38.42L152.31,39.27L160.77,33.47L169.23,36.13L177.69,33.22L186.15,31.29L194.62,34.14L203.08,30.81L211.54,30.55L220,24.35L228.46,27.37L236.92,22.8L245.38,23.14L253.85,25.44L262.31,24.46L270.77,24.17L279.23,25.51L287.69,31.93L296.15,26.22L304.62,29.45L313.08,28.85L321.54,32.65L330,28.99L338.46,33.2L346.92,38.85L363.85,54.92L372.31,59.16L380.77,71.07L389.23,75.84L397.69,81.98L406.15,83.49L414.62,89.9L423.08,91.04L431.54,102.3L440,105.18" style="vector-effect: non-scaling-stroke; fill: none; stroke: rgb(0, 0, 0); stroke-opacity: 1; stroke-width: 0.25px; opacity: 1;"/></g><g class="points"/><g class="text"/></g><g class="trace scatter trace292cc8" style="stroke-miterlimit: 2; opacity: 1;"><g class="fills"/><g class="errorbars"/><g class="lines"/><g class="points"><path class="point" transform="translate(220,14.88)" d="M4,0A4,4 0 1,1 0,-4A4,4 0 0,1 4,0ZM0,0.5L0.5,0L0,-0.5L-0.5,0Z" style="opacity: 1; stroke: rgb(0, 0, 0); stroke-opacity: 1; stroke-width: 1px; fill: none;"/><path class="point" transform="translate(228.46,14.88)" d="M4,0A4,4 0 1,1 0,-4A4,4 0 0,1 4,0ZM0,0.5L0.5,0L0,-0.5L-0.5,0Z" style="opacity: 1; stroke: rgb(0, 0, 0); stroke-opacity: 1; stroke-width: 1px; fill: none;"/><path class="point" transform="translate(236.92,14.88)" d="M4,0A4,4 0 1,1 0,-4A4,4 0 0,1 4,0ZM0,0.5L0.5,0L0,-0.5L-0.5,0Z" style="opacity: 1; stroke: rgb(0, 0, 0); stroke-opacity: 1; stroke-width: 1px; fill: none;"/><path class="point" transform="translate(245.38,14.88)" d="M4,0A4,4 0 1,1 0,-4A4,4 0 0,1 4,0ZM0,0.5L0.5,0L0,-0.5L-0.5,0Z" style="opacity: 1; stroke: rgb(0, 0, 0); stroke-opacity: 1; stroke-width: 1px; fill: none;"/></g><g class="text"/></g></g></g><g class="overplot"/><path class="xlines-above crisp" d="M0,0" style="fill: none;"/><path class="ylines-above crisp" d="M0,0" style="fill: none;"/><g class="overlines-above"/><g class="xaxislayer-above"><g class="x3tick"><text text-anchor="middle" x="0" y="733" transform="translate(156.15,0)" style="font-family: 'Open Sans', verdana, arial, sans-serif; font-size: 12px; fill: rgb(42, 63, 95); fill-opacity: 1; white-space: pre; opacity: 1;">10</text></g><g class="x3tick"><text text-anchor="middle" x="0" y="733" style="font-family: 'Open Sans', verdana, arial, sans-serif; font-size: 12px; fill: rgb(42, 63, 95); fill-opacity: 1; white-space: pre; opacity: 1;" transform="translate(240.77,0)">20</text></g><g class="x3tick"><text text-anchor="middle" x="0" y="733" style="font-family: 'Open Sans', verdana, arial, sans-serif; font-size: 12px; fill: rgb(42, 63, 95); fill-opacity: 1; white-space: pre; opacity: 1;" transform="translate(325.38,0)">30</text></g><g class="x3tick"><text text-anchor="middle" x="0" y="733" style="font-family: 'Open Sans', verdana, arial, sans-serif; font-size: 12px; fill: rgb(42, 63, 95); fill-opacity: 1; white-space: pre; opacity: 1;" transform="translate(410,0)">40</text></g><g class="x3tick"><text text-anchor="middle" x="0" y="733" style="font-family: 'Open Sans', verdana, arial, sans-serif; font-size: 12px; fill: rgb(42, 63, 95); fill-opacity: 1; white-space: pre; opacity: 1;" transform="translate(494.62,0)">50</text></g></g><g class="yaxislayer-above"><g class="y3tick"><text text-anchor="end" x="79" y="4.199999999999999" transform="translate(0,720)" style="font-family: 'Open Sans', verdana, arial, sans-serif; font-size: 12px; fill: rgb(42, 63, 95); fill-opacity: 1; white-space: pre; opacity: 1;">5</text></g><g class="y3tick"><text text-anchor="end" x="79" y="4.199999999999999" style="font-family: 'Open Sans', verdana, arial, sans-serif; font-size: 12px; fill: rgb(42, 63, 95); fill-opacity: 1; white-space: pre; opacity: 1;" transform="translate(0,682.8)">10</text></g><g class="y3tick"><text text-anchor="end" x="79" y="4.199999999999999" style="font-family: 'Open Sans', verdana, arial, sans-serif; font-size: 12px; fill: rgb(42, 63, 95); fill-opacity: 1; white-space: pre; opacity: 1;" transform="translate(0,645.6)">15</text></g><g class="y3tick"><text text-anchor="end" x="79" y="4.199999999999999" style="font-family: 'Open Sans', verdana, arial, sans-serif; font-size: 12px; fill: rgb(42, 63, 95); fill-opacity: 1; white-space: pre; opacity: 1;" transform="translate(0,608.4)">20</text></g><g class="y3tick"><text text-anchor="end" x="79" y="4.199999999999999" style="font-family: 'Open Sans', verdana, arial, sans-serif; font-size: 12px; fill: rgb(42, 63, 95); fill-opacity: 1; white-space: pre; opacity: 1;" transform="translate(0,571.2)">25</text></g><g class="y3tick"><text text-anchor="end" x="79" y="4.199999999999999" style="font-family: 'Open Sans', verdana, arial, sans-serif; font-size: 12px; fill: rgb(42, 63, 95); fill-opacity: 1; white-space: pre; opacity: 1;" transform="translate(0,534)">30</text></g></g><g class="overaxes-above"/></g></g><g class="polarlayer"/><g class="smithlayer"/><g class="ternarylayer"/><g class="geolayer"/><g class="funnelarealayer"/><g class="pielayer"/><g class="iciclelayer"/><g class="treemaplayer"/><g class="sunburstlayer"/><g class="glimages"/><defs id="topdefs-70bd4a"><g class="clips"/></defs><g class="layer-above"><g class="imagelayer"/><g class="shapelayer"/></g><g class="infolayer"><g class="g-gtitle"><text class="gtitle" x="30" y="50" text-anchor="start" dy="0em" style="font-family: 'Open Sans', verdana, arial, sans-serif; font-size: 17px; fill: rgb(42, 63, 95); opacity: 1; font-weight: normal; white-space: pre;">Climatology and S2S forecast for Thakurgaon</text></g><g class="g-xtitle"/><g class="g-x2title"/><g class="g-x3title"/><g class="g-ytitle"><text class="ytitle" transform="rotate(-90,34.16875,193)" x="34.16875" y="193" text-anchor="middle" style="font-family: 'Open Sans', verdana, arial, sans-serif; font-size: 14px; fill: rgb(42, 63, 95); opacity: 1; font-weight: normal; white-space: pre;">[mm]</text></g><g class="g-y2title"><text class="y2title" transform="rotate(-90,40.840625,410.00000000000006)" x="40.840625" y="410.00000000000006" text-anchor="middle" style="font-family: 'Open Sans', verdana, arial, sans-serif; font-size: 14px; fill: rgb(42, 63, 95); opacity: 1; font-weight: normal; white-space: pre;">[C]</text></g><g class="g-y3title"><text class="y3title" transform="rotate(-90,40.840625,627)" x="40.840625" y="627" text-anchor="middle" style="font-family: 'Open Sans', verdana, arial, sans-serif; font-size: 14px; fill: rgb(42, 63, 95); opacity: 1; font-weight: normal; white-space: pre;">[C]</text></g><g class="annotation" data-index="0" style="opacity: 1;"><g class="annotation-text-g" transform="rotate(0,300,89.5)"><g class="cursor-pointer" transform="translate(237,79)"><rect class="bg" x="0.5" y="0.5" width="126" height="20" style="stroke-width: 1px; stroke: rgb(0, 0, 0); stroke-opacity: 0; fill: rgb(0, 0, 0); fill-opacity: 0;"/><text class="annotation-text" text-anchor="middle" x="63.359375" y="16" style="font-family: 'Open Sans', verdana, arial, sans-serif; font-size: 16px; fill: rgb(42, 63, 95); fill-opacity: 1; white-space: pre;">Precipitation sum</text></g></g></g><g class="annotation" data-index="1" style="opacity: 1;"><g class="annotation-text-g" transform="rotate(0,300,306.50000000000006)"><g class="cursor-pointer" transform="translate(196,296)"><rect class="bg" x="0.5" y="0.5" width="208" height="20" style="stroke-width: 1px; stroke: rgb(0, 0, 0); stroke-opacity: 0; fill: rgb(0, 0, 0); fill-opacity: 0;"/><text class="annotation-text" text-anchor="middle" x="104.265625" y="16" style="font-family: 'Open Sans', verdana, arial, sans-serif; font-size: 16px; fill: rgb(42, 63, 95); fill-opacity: 1; white-space: pre;">Mean maximum temperature</text></g></g></g><g class="annotation" data-index="2" style="opacity: 1;"><g class="annotation-text-g" transform="rotate(0,300,523.5)"><g class="cursor-pointer" transform="translate(198,513)"><rect class="bg" x="0.5" y="0.5" width="203" height="20" style="stroke-width: 1px; stroke: rgb(0, 0, 0); stroke-opacity: 0; fill: rgb(0, 0, 0); fill-opacity: 0;"/><text class="annotation-text" text-anchor="middle" x="102.046875" y="16" style="font-family: 'Open Sans', verdana, arial, sans-serif; font-size: 16px; fill: rgb(42, 63, 95); fill-opacity: 1; white-space: pre;">Mean minimum temperature</text></g></g></g><g class="annotation" data-index="3" style="opacity: 1;"><g class="annotation-text-g" transform="rotate(0,300,760.5)"><g class="cursor-pointer" transform="translate(277,750)"><rect class="bg" x="0.5" y="0.5" width="45" height="20" style="stroke-width: 1px; stroke: rgb(0, 0, 0); stroke-opacity: 0; fill: rgb(0, 0, 0); fill-opacity: 0;"/><text class="annotation-text" text-anchor="middle" x="22.3125" y="16" style="font-family: 'Open Sans', verdana, arial, sans-serif; font-size: 16px; fill: rgb(42, 63, 95); fill-opacity: 1; white-space: pre;">Week</text></g></g></g></g></svg>