<svg class="main-svg" xmlns="http://www.w3.org/2000/svg" xmlns:xlink="http://www.w3.org/1999/xlink" width="600" height="800" style="" viewBox="0 0 600 800"><rect x="0" y="0" width="600" height="800" style="fill: rgb(255, 255, 255); fill-opacity: 1;"/><defs id="defs-bffd6c"><g class="clips"><clipPath id="clipbffd6cxyplot" class="plotclip"><rect width="440" height="186.00000000000003"/></clipPath><clipPath id="clipbffd6cx2y2plot" class="plotclip"><rect width="440" height="185.99999999999997"/></clipPath><clipPath id="clipbffd6cx3y3plot" class="plotclip"><rect width="440" height="186"/></clipPath><clipPath class="axesclip" id="clipbffd6cx"><rect x="80" y="0" width="440" height="800"/></clipPath><clipPath class="axesclip" id="clipbffd6cy"><rect x="0" y="100" width="600" height="186.00000000000003"/></clipPath><clipPath class="axesclip" id="clipbffd6cxy"><rect x="80" y="100" width="440" height="186.00000000000003"/></clipPath><clipPath class="axesclip" id="clipbffd6cy2"><rect x="0" y="317.00000000000006" width="600" height="185.99999999999997"/></clipPath><clipPath class="axesclip" id="clipbffd6cxy2"><rect x="80" y="317.00000000000006" width="440" height="185.99999999999997"/></clipPath><clipPath class="axesclip" id="clipbffd6cy3"><rect x="0" y="534" width="600" height="186"/></clipPath><clipPath class="axesclip" id="clipbffd6cxy3"><rect x="80" y="534" width="440" height="186"/></clipPath><clipPath class="axesclip" id="clipbffd6cx2"><rect x="80" y="0" width="440" height="800"/></clipPath><clipPath class="axesclip" id="clipbffd6cx2y"><rect x="80" y="100" width="440" height="186.00000000000003"/></clipPath><clipPath class="axesclip" id="clipbffd6cx2y2"><rect x="80" y="317.00000000000006" width="440" height="185.99999999999997"/></clipPath><clipPath class="axesclip" id="clipbffd6cx2y3"><rect x="80" y="534" width="440" height="186"/></clipPath><clipPath class="axesclip" id="clipbffd6cx3"><rect x="80" y="0" width="440" height="800"/></clipPath><clipPath class="axesclip" id="clipbffd6cx3y"><rect x="80" y="100" width="440" height="186.00000000000003"/></clipPath><clipPath class="axesclip" id="clipbffd6cx3y2"><rect x="80" y="317.00000000000006" width="440" height="185.99999999999997"/></clipPath><clipPath class="axesclip" id="clipbffd6cx3y3"><rect x="80" y="534" width="440" height="186"/></clipPath></g><g class="gradients"/><g class="patterns"/></defs><g class="bglayer"><rect class="bg" x="80" y="100" width="440" height="186.00000000000003" style="fill: rgb(229, 236, 246); fill-opacity: 1; stroke-width: 0;"/><rect class="bg" x="80" y="317.00000000000006" width="440" height="185.99999999999997" style="fill: rgb(229, 236, 246); fill-opacity: 1; stroke-width: 0;"/><rect class="bg" x="80" y="534" width="440" height="186" style="fill: rgb(229, 236, 246); fill-opacity: 1; stroke-width: 0;"/></g><g class="layer-below"><g class="imagelayer"/><g class="shapelayer"/></g><g class="cartesianlayer"><g class="subplot xy"><g class="layer-subplot"><g class="shapelayer"/><g class="imagelayer"/></g><g class="minor-gridlayer"><g class="x"/><g class="y"/></g><g class="gridlayer"><g class="x"><path class="xgrid crisp" transform="translate(156.15,0)" d="M0,100v186.00000000000003" style="stroke: rgb(255, 255, 255); stroke-opacity: 1; stroke-width: 1px;"/><path class="xgrid crisp" transform="translate(240.77,0)" d="M0,100v186.00000000000003" style="stroke: rgb(255, 255, 255); stroke-opacity: 1; stroke-width: 1px;"/><path class="xgrid crisp" transform="translate(325.38,0)" d="M0,100v186.00000000000003" style="stroke: rgb(255, 255, 255); stroke-opacity: 1; stroke-width: 1px;"/><path class="xgrid crisp" transform="translate(410,0)" d="M0,100v186.00000000000003" style="stroke: rgb(255, 255, 255); stroke-opacity: 1; stroke-width: 1px;"/><path class="xgrid crisp" transform="translate(494.62,0)" d="M0,100v186.00000000000003" style="stroke: rgb(255, 255, 255); stroke-opacity: 1; stroke-width: 1px;"/></g><g class="y"><path class="ygrid crisp" transform="translate(0,248.8)" d="M80,0h440" style="stroke: rgb(255, 255, 255); stroke-opacity: 1; stroke-width: 1px;"/><path class="ygrid crisp" transform="translate(0,211.6)" d="M80,0h440" style="stroke: rgb(255, 255, 255); stroke-opacity: 1; stroke-width: 1px;"/><path class="ygrid crisp" transform="translate(0,174.4)" d="M80,0h440" style="stroke: rgb(255, 255, 255); stroke-opacity: 1; stroke-width: 1px;"/><path class="ygrid crisp" transform="translate(0,137.2)" d="M80,0h440" style="stroke: rgb(255, 255, 255); stroke-opacity: 1; stroke-width: 1px;"/></g></g><g class="zerolinelayer"><path class="yzl zl crisp" transform="translate(0,286)" d="M80,0h440" style="stroke: rgb(255, 255, 255); stroke-opacity: 1; stroke-width: 2px;"/></g><path class="xlines-below"/><path class="ylines-below"/><g class="overlines-below"/><g class="xaxislayer-below"/><g class="yaxislayer-below"/><g class="overaxes-below"/><g class="plot" transform="translate(80,100)" clip-path="url(#clipbffd6cxyplot)"><g class="scatterlayer mlayer"><g class="trace scatter tracee94545" style="stroke-miterlimit: 2;"><g class="fills"><g><path class="js-fill" d="M0,186L101.54,186L110,185.19L118.46,185.42L126.92,184.35L135.38,185.12L143.85,169.84L152.31,175.85L160.77,172.68L169.23,165.83L177.69,166.38L186.15,156.28L194.62,168.26L203.08,169.95L211.54,165.23L220,164.47L228.46,158.38L236.92,160.23L245.38,150.77L253.85,164.19L262.31,150.2L270.77,150.2L279.23,162.52L287.69,168.96L296.15,173.5L313.08,170.22L321.54,174.48L330,177.99L338.46,175.29L346.92,185.49L355.38,186L440,186L440,186L355.38,186L346.92,186L338.46,185.21L330,186L313.08,182.4L304.62,185.18L296.15,182.09L287.69,181.86L279.23,180.3L270.77,180.55L262.31,174.91L253.85,171.01L245.38,186L236.92,185.17L228.46,176.85L220,184.43L211.54,184.85L203.08,185.97L186.15,185.19L177.69,185.91L160.77,185.19L152.31,186L143.85,184.13L135.38,186L0,186Z" style="fill: rgb(224, 236, 244); fill-opacity: 1; stroke-width: 0;"/></g></g><g class="errorbars"/><g class="lines"><path class="js-line" d="M0,186L135.38,186L143.85,184.13L152.31,186L160.77,185.19L177.69,185.91L186.15,185.19L203.08,185.97L211.54,184.85L220,184.43L228.46,176.85L236.92,185.17L245.38,186L253.85,171.01L262.31,174.91L270.77,180.55L279.23,180.3L287.69,181.86L296.15,182.09L304.62,185.18L313.08,182.4L330,186L338.46,185.21L346.92,186L355.38,186L440,186" style="vector-effect: non-scaling-stroke; fill: none; stroke: rgb(0, 0, 0); stroke-opacity: 1; stroke-width: 0.25px; opacity: 1;"/></g><g class="points"/><g class="text"/></g><g class="trace scatter tracec8ba87" style="stroke-miterlimit: 2;"><g class="fills"><g><path class="js-fill" d="M0,186L76.15,186L84.62,184.45L93.08,185.38L101.54,185.09L110,168.58L118.46,177.23L126.92,175.88L135.38,169.56L143.85,162.09L152.31,165.84L160.77,151.74L169.23,144.06L177.69,144.77L186.15,140.42L194.62,141.23L203.08,144.78L211.54,124.75L220,153.12L228.46,140.45L236.92,144.33L245.38,137.27L253.85,147.65L262.31,140.48L270.77,137.72L279.23,156.64L287.69,154.09L296.15,160.05L304.62,163.74L313.08,160.86L321.54,149.97L330,171.89L338.46,160.9L355.38,185.15L363.85,185.84L406.15,186L414.62,186L440,186L440,186L355.38,186L346.92,185.49L338.46,175.29L330,177.99L321.54,174.48L313.08,170.22L296.15,173.5L287.69,168.96L279.23,162.52L270.77,150.2L262.31,150.2L253.85,164.19L245.38,150.77L236.92,160.23L228.46,158.38L220,164.47L211.54,165.23L203.08,169.95L194.62,168.26L186.15,156.28L177.69,166.38L169.23,165.83L160.77,172.68L152.31,175.85L143.85,169.84L135.38,185.12L126.92,184.35L118.46,185.42L110,185.19L101.54,186L0,186Z" style="fill: rgb(158, 188, 218); fill-opacity: 1; stroke-width: 0;"/></g></g><g class="errorbars"/><g class="lines"><path class="js-line" d="M0,186L101.54,186L110,185.19L118.46,185.42L126.92,184.35L135.38,185.12L143.85,169.84L152.31,175.85L160.77,172.68L169.23,165.83L177.69,166.38L186.15,156.28L194.62,168.26L203.08,169.95L211.54,165.23L220,164.47L228.46,158.38L236.92,160.23L245.38,150.77L253.85,164.19L262.31,150.2L270.77,150.2L279.23,162.52L287.69,168.96L296.15,173.5L313.08,170.22L321.54,174.48L330,177.99L338.46,175.29L346.92,185.49L355.38,186L440,186" style="vector-effect: non-scaling-stroke; fill: none; stroke: rgb(0, 0, 0); stroke-opacity: 1; stroke-width: 0.5px; opacity: 1;"/></g><g class="points"/><g class="text"/></g><g class="trace scatter trace894151" style="stroke-miterlimit: 2;"><g class="fills"><g><path class="js-fill" d="M0,186L42.31,185.93L50.77,182.58L59.23,183.41L67.69,181.91L76.15,181.15L84.62,177.81L93.08,180.13L101.54,170.81L110,151.43L118.46,166.09L126.92,153L135.38,155.15L143.85,147.35L152.31,145.48L160.77,119.68L169.23,122.95L177.69,126.48L186.15,122.91L194.62,86.14L203.08,126L211.54,84.82L220,114.31L228.46,125L236.92,97.09L245.38,99.26L253.85,113.09L262.31,108.93L270.77,117.12L279.23,111.77L287.69,146.19L296.15,143.91L304.62,139.62L313.08,118.25L321.54,123.69L330,145.62L338.46,146.56L346.92,158.98L355.38,160.43L363.85,179.31L372.31,185.54L380.77,185.25L389.23,185.99L440,186L440,186L414.62,186L406.15,186L363.85,185.84L355.38,185.15L338.46,160.9L330,171.89L321.54,149.97L313.08,160.86L304.62,163.74L296.15,160.05L287.69,154.09L279.23,156.64L270.77,137.72L262.31,140.48L253.85,147.65L245.38,137.27L236.92,144.33L228.46,140.45L220,153.12L211.54,124.75L203.08,144.78L194.62,141.23L186.15,140.42L177.69,144.77L169.23,144.06L160.77,151.74L152.31,165.84L143.85,162.09L135.38,169.56L126.92,175.88L118.46,177.23L110,168.58L101.54,185.09L93.08,185.38L84.62,184.45L76.15,186L0,186Z" style="fill: rgb(158, 188, 218); fill-opacity: 1; stroke-width: 0;"/></g></g><g class="errorbars"/><g class="lines"><path class="js-line" d="M0,186L76.15,186L84.62,184.45L93.08,185.38L101.54,185.09L110,168.58L118.46,177.23L126.92,175.88L135.38,169.56L143.85,162.09L152.31,165.84L160.77,151.74L169.23,144.06L177.69,144.77L186.15,140.42L194.62,141.23L203.08,144.78L211.54,124.75L220,153.12L228.46,140.45L236.92,144.33L245.38,137.27L253.85,147.65L262.31,140.48L270.77,137.72L279.23,156.64L287.69,154.09L296.15,160.05L304.62,163.74L313.08,160.86L321.54,149.97L330,171.89L338.46,160.9L355.38,185.15L363.85,185.84L406.15,186L414.62,186L440,186" style="vector-effect: non-scaling-stroke; fill: none; stroke: rgb(0, 0, 0); stroke-opacity: 1; stroke-width: 1px; opacity: 1;"/></g><g class="points"/><g class="text"/></g><g class="trace scatter trace5f2239" style="stroke-miterlimit: 2;"><g class="fills"><g><path class="js-fill" d="M0,186L8.46,186L16.92,185.11L25.38,186L33.85,186L42.31,185.91L50.77,181.56L59.23,182.93L67.69,178.42L76.15,180.21L84.62,173.41L93.08,173.63L101.54,154.83L110,102.94L118.46,147.37L126.92,108.39L135.38,125.89L143.85,121.73L152.31,111.07L160.77,68.47L169.23,101.32L177.69,72.79L186.15,104.08L194.62,34.47L203.08,68.17L211.54,-34.86L220,64.41L228.46,100.47L236.92,54.75L245.38,61.85L253.85,57.31L262.31,48.44L270.77,80.23L279.23,53.74L287.69,114.83L296.15,101.81L304.62,102.5L313.08,79.73L321.54,68.67L330,129.49L338.46,119.53L346.92,121.19L355.38,134.1L363.85,177.68L372.31,185.54L380.77,185L389.23,185.99L440,186L440,186L389.23,185.99L380.77,185.25L372.31,185.54L363.85,179.31L355.38,160.43L346.92,158.98L338.46,146.56L330,145.62L321.54,123.69L313.08,118.25L304.62,139.62L296.15,143.91L287.69,146.19L279.23,111.77L270.77,117.12L262.31,108.93L253.85,113.09L245.38,99.26L236.92,97.09L228.46,125L220,114.31L211.54,84.82L203.08,126L194.62,86.14L186.15,122.91L177.69,126.48L169.23,122.95L160.77,119.68L152.31,145.48L143.85,147.35L135.38,155.15L126.92,153L118.46,166.09L110,151.43L101.54,170.81L93.08,180.13L84.62,177.81L76.15,181.15L67.69,181.91L59.23,183.41L50.77,182.58L42.31,185.93L0,186Z" style="fill: rgb(136, 86, 167); fill-opacity: 1; stroke-width: 0;"/></g></g><g class="errorbars"/><g class="lines"><path class="js-line" d="M0,186L42.31,185.93L50.77,182.58L59.23,183.41L67.69,181.91L76.15,181.15L84.62,177.81L93.08,180.13L101.54,170.81L110,151.43L118.46,166.09L126.92,153L135.38,155.15L143.85,147.35L152.31,145.48L160.77,119.68L169.23,122.95L177.69,126.48L186.15,122.91L194.62,86.14L203.08,126L211.54,84.82L220,114.31L228.46,125L236.92,97.09L245.38,99.26L253.85,113.09L262.31,108.93L270.77,117.12L279.23,111.77L287.69,146.19L296.15,143.91L304.62,139.62L313.08,118.25L321.54,123.69L330,145.62L338.46,146.56L346.92,158.98L355.38,160.43L363.85,179.31L372.31,185.54L380.77,185.25L389.23,185.99L440,186" style="vector-effect: non-scaling-stroke; fill: none; stroke: rgb(0, 0, 0); stroke-opacity: 1; stroke-width: 0.5px; opacity: 1;"/></g><g class="points"/><g class="text"/></g><g class="trace scatter trace9a0db5" style="stroke-miterlimit: 2;"><g class="fills"/><g class="errorbars"/><g class="lines"><path class="js-line" d="M0,186L8.46,186L16.92,185.11L25.38,186L33.85,186L42.31,185.91L50.77,181.56L59.23,182.93L67.69,178.42L76.15,180.21L84.62,173.41L93.08,173.63L101.54,154.83L110,102.94L118.46,147.37L126.92,108.39L135.38,125.89L143.85,121.73L152.31,111.07L160.77,68.47L169.23,101.32L177.69,72.79L186.15,104.08L194.62,34.47L203.08,68.17L211.54,-34.86L220,64.41L228.46,100.47L236.92,54.75L245.38,61.85L253.85,57.31L262.31,48.44L270.77,80.23L279.23,53.74L287.69,114.83L296.15,101.81L304.62,102.5L313.08,79.73L321.54,68.67L330,129.49L338.46,119.53L346.92,121.19L355.38,134.1L363.85,177.68L372.31,185.54L380.77,185L389.23,185.99L440,186" style="vector-effect: non-scaling-stroke; fill: none; stroke: rgb(0, 0, 0); stroke-opacity: 1; stroke-width: 0.25px; opacity: 1;"/></g><g class="points"/><g class="text"/></g><g class="trace scatter trace271838" style="stroke-miterlimit: 2; opacity: 1;"><g class="fills"/><g class="errorbars"/><g class="lines"/><g class="points"><path class="point" transform="translate(220,118.3)" d="M4,0A4,4 0 1,1 0,-4A4,4 0 0,1 4,0ZM0,0.5L0.5,0L0,-0.5L-0.5,0Z" style="opacity: 1; stroke: rgb(0, 0, 0); stroke-opacity: 1; stroke-width: 1px; fill: none;"/><path class="point" transform="translate(228.46,117.55)" d="M4,0A4,4 0 1,1 0,-4A4,4 0 0,1 4,0ZM0,0.5L0.5,0L0,-0.5L-0.5,0Z" style="opacity: 1; stroke: rgb(0, 0, 0); stroke-opacity: 1; stroke-width: 1px; fill: none;"/><path class="point" transform="translate(236.92,127.97)" d="M4,0A4,4 0 1,1 0,-4A4,4 0 0,1 4,0ZM0,0.5L0.5,0L0,-0.5L-0.5,0Z" style="opacity: 1; stroke: rgb(0, 0, 0); stroke-opacity: 1; stroke-width: 1px; fill: none;"/><path class="point" transform="translate(245.38,127.97)" d="M4,0A4,4 0 1,1 0,-4A4,4 0 0,1 4,0ZM0,0.5L0.5,0L0,-0.5L-0.5,0Z" style="opacity: 1; stroke: rgb(0, 0, 0); stroke-opacity: 1; stroke-width: 1px; fill: none;"/></g><g class="text"/></g></g></g><g class="overplot"/><path class="xlines-above crisp" d="M0,0" style="fill: none;"/><path class="ylines-above crisp" d="M0,0" style="fill: none;"/><g class="overlines-above"/><g class="xaxislayer-above"/><g class="yaxislayer-above"><g class="ytick"><text text-anchor="end" x="79" y="4.199999999999999" transform="translate(0,286)" style="font-family: 'Open Sans', verdana, arial, sans-serif; font-size: 12px; fill: rgb(42, 63, 95); fill-opacity: 1; white-space: pre; opacity: 1;">0</text></g><g class="ytick"><text text-anchor="end" x="79" y="4.199999999999999" style="font-family: 'Open Sans', verdana, arial, sans-serif; font-size: 12px; fill: rgb(42, 63, 95); fill-opacity: 1; white-space: pre; opacity: 1;" transform="translate(0,248.8)">50</text></g><g class="ytick"><text text-anchor="end" x="79" y="4.199999999999999" style="font-family: 'Open Sans', verdana, arial, sans-serif; font-size: 12px; fill: rgb(42, 63, 95); fill-opacity: 1; white-space: pre; opacity: 1;" transform="translate(0,211.6)">100</text></g><g class="ytick"><text text-anchor="end" x="79" y="4.199999999999999" style="font-family: 'Open Sans', verdana, arial, sans-serif; font-size: 12px; fill: rgb(42, 63, 95); fill-opacity: 1; white-space: pre; opacity: 1;" transform="translate(0,174.4)">150</text></g><g class="ytick"><text text-anchor="end" x="79" y="4.199999999999999" style="font-family: 'Open Sans', verdana, arial, sans-serif; font-size: 12px; fill: rgb(42, 63, 95); fill-opacity: 1; white-space: pre; opacity: 1;" transform="translate(0,137.2)">200</text></g><g class="ytick"><text text-anchor="end" x="79" y="4.199999999999999" style="font-family: 'Open Sans', verdana, arial, sans-serif; font-size: 12px; fill: rgb(42, 63, 95); fill-opacity: 1; white-space: pre; opacity: 1;" transform="translate(0,100)">250</text></g></g><g class="overaxes-above"/></g><g class="subplot x2y2"><g class="layer-subplot"><g class="shapelayer"/><g class="imagelayer"/></g><g class="minor-gridlayer"><g class="x2"/><g class="y2"/></g><g class="gridlayer"><g class="x2"><path class="x2grid crisp" transform="translate(156.15,0)" d="M0,317.00000000000006v185.99999999999997" style="stroke: rgb(255, 255, 255); stroke-opacity: 1; stroke-width: 1px;"/><path class="x2grid crisp" transform="translate(240.77,0)" d="M0,317.00000000000006v185.99999999999997" style="stroke: rgb(255, 255, 255); stroke-opacity: 1; stroke-width: 1px;"/><path class="x2grid crisp" transform="translate(325.38,0)" d="M0,317.00000000000006v185.99999999999997" style="stroke: rgb(255, 255, 255); stroke-opacity: 1; stroke-width: 1px;"/><path class="x2grid crisp" transform="translate(410,0)" d="M0,317.00000000000006v185.99999999999997" style="stroke: rgb(255, 255, 255); stroke-opacity: 1; stroke-width: 1px;"/><path class="x2grid crisp" transform="translate(494.62,0)" d="M0,317.00000000000006v185.99999999999997" style="stroke: rgb(255, 255, 255); stroke-opacity: 1; stroke-width: 1px;"/></g><g class="y2"><path class="y2grid crisp" transform="translate(0,472.00000000000006)" d="M80,0h440" style="stroke: rgb(255, 255, 255); stroke-opacity: 1; stroke-width: 1px;"/><path class="y2grid crisp" transform="translate(0,410.00000000000006)" d="M80,0h440" style="stroke: rgb(255, 255, 255); stroke-opacity: 1; stroke-width: 1px;"/><path class="y2grid crisp" transform="translate(0,348.00000000000006)" d="M80,0h440" style="stroke: rgb(255, 255, 255); stroke-opacity: 1; stroke-width: 1px;"/></g></g><g class="zerolinelayer"/><path class="xlines-below"/><path class="ylines-below"/><g class="overlines-below"/><g class="xaxislayer-below"/><g class="yaxislayer-below"/><g class="overaxes-below"/><g class="plot" transform="translate(80,317.00000000000006)" clip-path="url(#clipbffd6cx2y2plot)"><g class="scatterlayer mlayer"><g class="trace scatter trace51f948" style="stroke-miterlimit: 2;"><g class="fills"><g><path class="js-fill" d="M0,141.82L8.46,147.6L16.92,133.68L25.38,130.46L33.85,123.14L59.23,97.78L67.69,91.73L76.15,87.56L84.62,74.35L93.08,77.03L101.54,84.59L110,86.61L118.46,82.31L126.92,81.97L135.38,85.23L143.85,89.46L152.31,82.17L160.77,88.36L169.23,84.55L177.69,90.8L186.15,92.06L194.62,92.76L203.08,92.68L211.54,97.77L220,94.55L228.46,93.34L236.92,97.8L245.38,94.12L253.85,95.07L262.31,96.05L270.77,96.26L279.23,96.07L287.69,94.23L296.15,95.75L304.62,93.44L313.08,99.36L321.54,95.94L330,93.89L338.46,97.57L355.38,91.96L363.85,93.66L372.31,95.84L380.77,100.67L397.69,114.93L406.15,124.87L414.62,127.92L423.08,137.82L431.54,140.08L440,143.74L440,146.57L431.54,144.38L423.08,152.78L414.62,136.42L406.15,139.13L397.69,123.27L389.23,112.01L380.77,105.72L372.31,100.41L363.85,102.19L355.38,103.95L346.92,107.32L338.46,100.27L330,104.84L321.54,101.94L313.08,109.39L304.62,98.1L296.15,106.37L287.69,99.41L279.23,103.6L270.77,107.03L253.85,102.64L245.38,99.03L236.92,106.33L228.46,99.98L220,106.26L211.54,105.08L203.08,100.4L194.62,98.21L186.15,98.19L177.69,93.46L169.23,95.84L160.77,97.85L152.31,94.18L143.85,98.93L135.38,99.92L126.92,95.27L118.46,97.14L110,93L101.54,97.41L93.08,90.35L84.62,90.32L76.15,99.92L67.69,118.12L59.23,115.29L50.77,124.3L42.31,129.71L33.85,138.77L25.38,133.23L16.92,145.43L8.46,158.68L0,159.62Z" style="fill: rgb(145, 191, 219); fill-opacity: 1; stroke-width: 0;"/></g></g><g class="errorbars"/><g class="lines"><path class="js-line" d="M0,159.62L8.46,158.68L16.92,145.43L25.38,133.23L33.85,138.77L42.31,129.71L50.77,124.3L59.23,115.29L67.69,118.12L76.15,99.92L84.62,90.32L93.08,90.35L101.54,97.41L110,93L118.46,97.14L126.92,95.27L135.38,99.92L143.85,98.93L152.31,94.18L160.77,97.85L169.23,95.84L177.69,93.46L186.15,98.19L194.62,98.21L203.08,100.4L211.54,105.08L220,106.26L228.46,99.98L236.92,106.33L245.38,99.03L253.85,102.64L270.77,107.03L279.23,103.6L287.69,99.41L296.15,106.37L304.62,98.1L313.08,109.39L321.54,101.94L330,104.84L338.46,100.27L346.92,107.32L355.38,103.95L363.85,102.19L372.31,100.41L380.77,105.72L389.23,112.01L397.69,123.27L406.15,139.13L414.62,136.42L423.08,152.78L431.54,144.38L440,146.57" style="vector-effect: non-scaling-stroke; fill: none; stroke: rgb(0, 0, 0); stroke-opacity: 1; stroke-width: 0.25px; opacity: 1;"/></g><g class="points"/><g class="text"/></g><g class="trace scatter traceb4a959" style="stroke-miterlimit: 2;"><g class="fills"><g><path class="js-fill" d="M0,133.42L8.46,138.18L16.92,129.44L33.85,117.58L42.31,106.23L50.77,99.14L59.23,90.01L67.69,78.75L76.15,78.77L84.62,67.93L93.08,62.5L110,76.57L118.46,71.37L126.92,76.61L135.38,79.77L143.85,83.23L152.31,77.65L160.77,81.16L169.23,81.52L177.69,83.95L186.15,83.75L194.62,88.83L203.08,89.41L211.54,91.48L220,89.85L228.46,89.92L236.92,91.95L245.38,87.1L253.85,91.8L262.31,90.25L270.77,91.81L279.23,90.47L287.69,90.73L296.15,91.93L304.62,90.3L313.08,91.24L321.54,89.74L330,90.43L338.46,89.71L346.92,87.94L355.38,84.87L363.85,89.99L372.31,92.89L380.77,97.46L389.23,103.8L397.69,108.63L406.15,119.22L423.08,127.16L431.54,133.72L440,132.7L440,143.74L431.54,140.08L423.08,137.82L414.62,127.92L406.15,124.87L397.69,114.93L380.77,100.67L372.31,95.84L363.85,93.66L355.38,91.96L338.46,97.57L330,93.89L321.54,95.94L313.08,99.36L304.62,93.44L296.15,95.75L287.69,94.23L279.23,96.07L270.77,96.26L262.31,96.05L253.85,95.07L245.38,94.12L236.92,97.8L228.46,93.34L220,94.55L211.54,97.77L203.08,92.68L194.62,92.76L186.15,92.06L177.69,90.8L169.23,84.55L160.77,88.36L152.31,82.17L143.85,89.46L135.38,85.23L126.92,81.97L118.46,82.31L110,86.61L101.54,84.59L93.08,77.03L84.62,74.35L76.15,87.56L67.69,91.73L59.23,97.78L33.85,123.14L25.38,130.46L16.92,133.68L8.46,147.6L0,141.82Z" style="fill: rgb(255, 255, 191); fill-opacity: 1; stroke-width: 0;"/></g></g><g class="errorbars"/><g class="lines"><path class="js-line" d="M0,141.82L8.46,147.6L16.92,133.68L25.38,130.46L33.85,123.14L59.23,97.78L67.69,91.73L76.15,87.56L84.62,74.35L93.08,77.03L101.54,84.59L110,86.61L118.46,82.31L126.92,81.97L135.38,85.23L143.85,89.46L152.31,82.17L160.77,88.36L169.23,84.55L177.69,90.8L186.15,92.06L194.62,92.76L203.08,92.68L211.54,97.77L220,94.55L228.46,93.34L236.92,97.8L245.38,94.12L253.85,95.07L262.31,96.05L270.77,96.26L279.23,96.07L287.69,94.23L296.15,95.75L304.62,93.44L313.08,99.36L321.54,95.94L330,93.89L338.46,97.57L355.38,91.96L363.85,93.66L372.31,95.84L380.77,100.67L397.69,114.93L406.15,124.87L414.62,127.92L423.08,137.82L431.54,140.08L440,143.74" style="vector-effect: non-scaling-stroke; fill: none; stroke: rgb(0, 0, 0); stroke-opacity: 1; stroke-width: 0.5px; opacity: 1;"/></g><g class="points"/><g class="text"/></g><g class="trace scatter tracee1c5ca" style="stroke-miterlimit: 2;"><g class="fills"><g><path class="js-fill" d="M0,127.15L8.46,127.47L16.92,122.7L25.38,121.84L33.85,111.53L42.31,101.44L50.77,92.9L59.23,83.17L67.69,71.64L76.15,70.02L84.62,63.07L93.08,56.1L101.54,57.13L118.46,64.61L126.92,64.33L135.38,60.72L143.85,73.98L152.31,68.91L160.77,69.25L169.23,74.17L177.69,73.58L186.15,81.08L194.62,83.89L203.08,85.03L211.54,83.15L220,81.83L228.46,85.08L245.38,83.86L253.85,84.8L262.31,82.65L270.77,85.3L279.23,84.66L287.69,86L296.15,84.29L304.62,85.07L313.08,86.39L321.54,83.64L330,77.97L338.46,79.46L346.92,79.39L355.38,82.48L363.85,84.26L372.31,90.39L380.77,95.53L389.23,98.09L397.69,103.77L406.15,112.49L414.62,115.67L423.08,120.62L431.54,124L440,119.64L440,132.7L431.54,133.72L423.08,127.16L406.15,119.22L397.69,108.63L389.23,103.8L380.77,97.46L372.31,92.89L363.85,89.99L355.38,84.87L346.92,87.94L338.46,89.71L330,90.43L321.54,89.74L313.08,91.24L304.62,90.3L296.15,91.93L287.69,90.73L279.23,90.47L270.77,91.81L262.31,90.25L253.85,91.8L245.38,87.1L236.92,91.95L228.46,89.92L220,89.85L211.54,91.48L203.08,89.41L194.62,88.83L186.15,83.75L177.69,83.95L169.23,81.52L160.77,81.16L152.31,77.65L143.85,83.23L135.38,79.77L126.92,76.61L118.46,71.37L110,76.57L93.08,62.5L84.62,67.93L76.15,78.77L67.69,78.75L59.23,90.01L50.77,99.14L42.31,106.23L33.85,117.58L16.92,129.44L8.46,138.18L0,133.42Z" style="fill: rgb(255, 255, 191); fill-opacity: 1; stroke-width: 0;"/></g></g><g class="errorbars"/><g class="lines"><path class="js-line" d="M0,133.42L8.46,138.18L16.92,129.44L33.85,117.58L42.31,106.23L50.77,99.14L59.23,90.01L67.69,78.75L76.15,78.77L84.62,67.93L93.08,62.5L110,76.57L118.46,71.37L126.92,76.61L135.38,79.77L143.85,83.23L152.31,77.65L160.77,81.16L169.23,81.52L177.69,83.95L186.15,83.75L194.62,88.83L203.08,89.41L211.54,91.48L220,89.85L228.46,89.92L236.92,91.95L245.38,87.1L253.85,91.8L262.31,90.25L270.77,91.81L279.23,90.47L287.69,90.73L296.15,91.93L304.62,90.3L313.08,91.24L321.54,89.74L330,90.43L338.46,89.71L346.92,87.94L355.38,84.87L363.85,89.99L372.31,92.89L380.77,97.46L389.23,103.8L397.69,108.63L406.15,119.22L423.08,127.16L431.54,133.72L440,132.7" style="vector-effect: non-scaling-stroke; fill: none; stroke: rgb(0, 0, 0); stroke-opacity: 1; stroke-width: 1px; opacity: 1;"/></g><g class="points"/><g class="text"/></g><g class="trace scatter trace13fe19" style="stroke-miterlimit: 2;"><g class="fills"><g><path class="js-fill" d="M0,112.95L8.46,114.48L16.92,112.19L25.38,113.03L33.85,106.75L42.31,85.43L50.77,85.54L67.69,62.59L76.15,55.79L84.62,48.05L93.08,51.3L101.54,45.88L110,42.42L118.46,51.55L126.92,53.31L135.38,29.14L143.85,64.57L160.77,50.66L169.23,61.51L177.69,61.21L186.15,75.66L194.62,74.02L203.08,77.02L211.54,62.57L220,69.35L228.46,77.4L236.92,66.91L245.38,72.52L253.85,71.48L262.31,68.67L270.77,73.49L279.23,71.96L287.69,82.56L296.15,67.56L304.62,74.6L313.08,71.46L321.54,70.65L330,68.26L338.46,60.85L346.92,63.5L355.38,76.42L363.85,75.44L372.31,83.24L380.77,91.54L389.23,94.17L397.69,90.72L406.15,96.63L414.62,107.76L423.08,113.06L431.54,114.27L440,111.91L440,119.64L431.54,124L423.08,120.62L414.62,115.67L406.15,112.49L397.69,103.77L389.23,98.09L380.77,95.53L372.31,90.39L363.85,84.26L355.38,82.48L346.92,79.39L338.46,79.46L330,77.97L321.54,83.64L313.08,86.39L304.62,85.07L296.15,84.29L287.69,86L279.23,84.66L270.77,85.3L262.31,82.65L253.85,84.8L245.38,83.86L228.46,85.08L220,81.83L211.54,83.15L203.08,85.03L194.62,83.89L186.15,81.08L177.69,73.58L169.23,74.17L160.77,69.25L152.31,68.91L143.85,73.98L135.38,60.72L126.92,64.33L118.46,64.61L101.54,57.13L93.08,56.1L84.62,63.07L76.15,70.02L67.69,71.64L59.23,83.17L50.77,92.9L42.31,101.44L33.85,111.53L25.38,121.84L16.92,122.7L8.46,127.47L0,127.15Z" style="fill: rgb(252, 141, 89); fill-opacity: 1; stroke-width: 0;"/></g></g><g class="errorbars"/><g class="lines"><path class="js-line" d="M0,127.15L8.46,127.47L16.92,122.7L25.38,121.84L33.85,111.53L42.31,101.44L50.77,92.9L59.23,83.17L67.69,71.64L76.15,70.02L84.62,63.07L93.08,56.1L101.54,57.13L118.46,64.61L126.92,64.33L135.38,60.72L143.85,73.98L152.31,68.91L160.77,69.25L169.23,74.17L177.69,73.58L186.15,81.08L194.62,83.89L203.08,85.03L211.54,83.15L220,81.83L228.46,85.08L245.38,83.86L253.85,84.8L262.31,82.65L270.77,85.3L279.23,84.66L287.69,86L296.15,84.29L304.62,85.07L313.08,86.39L321.54,83.64L330,77.97L338.46,79.46L346.92,79.39L355.38,82.48L363.85,84.26L372.31,90.39L380.77,95.53L389.23,98.09L397.69,103.77L406.15,112.49L414.62,115.67L423.08,120.62L431.54,124L440,119.64" style="vector-effect: non-scaling-stroke; fill: none; stroke: rgb(0, 0, 0); stroke-opacity: 1; stroke-width: 0.5px; opacity: 1;"/></g><g class="points"/><g class="text"/></g><g class="trace scatter tracef88647" style="stroke-miterlimit: 2;"><g class="fills"/><g class="errorbars"/><g class="lines"><path class="js-line" d="M0,112.95L8.46,114.48L16.92,112.19L25.38,113.03L33.85,106.75L42.31,85.43L50.77,85.54L67.69,62.59L76.15,55.79L84.62,48.05L93.08,51.3L101.54,45.88L110,42.42L118.46,51.55L126.92,53.31L135.38,29.14L143.85,64.57L160.77,50.66L169.23,61.51L177.69,61.21L186.15,75.66L194.62,74.02L203.08,77.02L211.54,62.57L220,69.35L228.46,77.4L236.92,66.91L245.38,72.52L253.85,71.48L262.31,68.67L270.77,73.49L279.23,71.96L287.69,82.56L296.15,67.56L304.62,74.6L313.08,71.46L321.54,70.65L330,68.26L338.46,60.85L346.92,63.5L355.38,76.42L363.85,75.44L372.31,83.24L380.77,91.54L389.23,94.17L397.69,90.72L406.15,96.63L414.62,107.76L423.08,113.06L431.54,114.27L440,111.91" style="vector-effect: non-scaling-stroke; fill: none; stroke: rgb(0, 0, 0); stroke-opacity: 1; stroke-width: 0.25px; opacity: 1;"/></g><g class="points"/><g class="text"/></g><g class="trace scatter trace116070" style="stroke-miterlimit: 2; opacity: 1;"><g class="fills"/><g class="errorbars"/><g class="lines"/><g class="points"><path class="point" transform="translate(220,74.4)" d="M4,0A4,4 0 1,1 0,-4A4,4 0 0,1 4,0ZM0,0.5L0.5,0L0,-0.5L-0.5,0Z" style="opacity: 1; stroke: rgb(0, 0, 0); stroke-opacity: 1; stroke-width: 1px; fill: none;"/><path class="point" transform="translate(228.46,80.6)" d="M4,0A4,4 0 1,1 0,-4A4,4 0 0,1 4,0ZM0,0.5L0.5,0L0,-0.5L-0.5,0Z" style="opacity: 1; stroke: rgb(0, 0, 0); stroke-opacity: 1; stroke-width: 1px; fill: none;"/><path class="point" transform="translate(236.92,80.6)" d="M4,0A4,4 0 1,1 0,-4A4,4 0 0,1 4,0ZM0,0.5L0.5,0L0,-0.5L-0.5,0Z" style="opacity: 1; stroke: rgb(0, 0, 0); stroke-opacity: 1; stroke-width: 1px; fill: none;"/><path class="point" transform="translate(245.38,80.6)" d="M4,0A4,4 0 1,1 0,-4A4,4 0 0,1 4,0ZM0,0.5L0.5,0L0,-0.5L-0.5,0Z" style="opacity: 1; stroke: rgb(0, 0, 0); stroke-opacity: 1; stroke-width: 1px; fill: none;"/></g><g class="text"/></g></g></g><g class="overplot"/><path class="xlines-above crisp" d="M0,0" style="fill: none;"/><path class="ylines-above crisp" d="M0,0" style="fill: none;"/><g class="overlines-above"/><g class="xaxislayer-above"/><g class="yaxislayer-above"><g class="y2tick"><text text-anchor="end" x="79" y="4.199999999999999" transform="translate(0,472.00000000000006)" style="font-family: 'Open Sans', verdana, arial, sans-serif; font-size: 12px; fill: rgb(42, 63, 95); fill-opacity: 1; white-space: pre; opacity: 1;">20</text></g><g class="y2tick"><text text-anchor="end" x="79" y="4.199999999999999" style="font-family: 'Open Sans', verdana, arial, sans-serif; font-size: 12px; fill: rgb(42, 63, 95); fill-opacity: 1; white-space: pre; opacity: 1;" transform="translate(0,410.00000000000006)">30</text></g><g class="y2tick"><text text-anchor="end" x="79" y="4.199999999999999" style="font-family: 'Open Sans', verdana, arial, sans-serif; font-size: 12px; fill: rgb(42, 63, 95); fill-opacity: 1; white-space: pre; opacity: 1;" transform="translate(0,348.00000000000006)">40</text></g></g><g class="overaxes-above"/></g><g class="subplot x3y3"><g class="layer-subplot"><g class="shapelayer"/><g class="imagelayer"/></g><g class="minor-gridlayer"><g class="x3"/><g class="y3"/></g><g class="gridlayer"><g class="x3"><path class="x3grid crisp" transform="translate(156.15,0)" d="M0,534v186" style="stroke: rgb(255, 255, 255); stroke-opacity: 1; stroke-width: 1px;"/><path class="x3grid crisp" transform="translate(240.77,0)" d="M0,534v186" style="stroke: rgb(255, 255, 255); stroke-opacity: 1; stroke-width: 1px;"/><path class="x3grid crisp" transform="translate(325.38,0)" d="M0,534v186" style="stroke: rgb(255, 255, 255); stroke-opacity: 1; stroke-width: 1px;"/><path class="x3grid crisp" transform="translate(410,0)" d="M0,534v186" style="stroke: rgb(255, 255, 255); stroke-opacity: 1; stroke-width: 1px;"/><path class="x3grid crisp" transform="translate(494.62,0)" d="M0,534v186" style="stroke: rgb(255, 255, 255); stroke-opacity: 1; stroke-width: 1px;"/></g><g class="y3"><path class="y3grid crisp" transform="translate(0,682.8)" d="M80,0h440" style="stroke: rgb(255, 255, 255); stroke-opacity: 1; stroke-width: 1px;"/><path class="y3grid crisp" transform="translate(0,645.6)" d="M80,0h440" style="stroke: rgb(255, 255, 255); stroke-opacity: 1; stroke-width: 1px;"/><path class="y3grid crisp" transform="translate(0,608.4)" d="M80,0h440" style="stroke: rgb(255, 255, 255); stroke-opacity: 1; stroke-width: 1px;"/><path class="y3grid crisp" transform="translate(0,571.2)" d="M80,0h440" style="stroke: rgb(255, 255, 255); stroke-opacity: 1; stroke-width: 1px;"/></g></g><g class="zerolinelayer"/><path class="xlines-below"/><path class="ylines-below"/><g class="overlines-below"/><g class="xaxislayer-below"/><g class="yaxislayer-below"/><g class="overaxes-below"/><g class="plot" transform="translate(80,534)" clip-path="url(#clipbffd6cx3y3plot)"><g class="scatterlayer mlayer"><g class="trace scatter trace0eb3f5" style="stroke-miterlimit: 2;"><g class="fills"><g><path class="js-fill" d="M0,119.53L8.46,125.9L16.92,120.05L25.38,121.72L33.85,115.89L42.31,105.18L50.77,97.5L59.23,92.69L67.69,78.69L76.15,76.72L84.62,67.21L93.08,62.53L101.54,60.07L118.46,57.14L126.92,52.39L135.38,53.03L143.85,51.15L152.31,45.13L160.77,41.95L169.23,40.13L177.69,39.49L203.08,37.2L211.54,37.06L220,36.63L228.46,37.6L245.38,38.69L253.85,39.15L270.77,37.97L279.23,39.22L287.69,38.9L296.15,40.08L321.54,41.27L330,42.78L338.46,45.69L346.92,49.67L355.38,48.44L363.85,57.67L372.31,63.41L380.77,71.48L389.23,81.37L397.69,93.2L414.62,104.33L423.08,113.19L431.54,116.77L440,123.45L440,130.97L431.54,124.35L423.08,120.21L414.62,119.2L406.15,115.05L397.69,100.01L389.23,87.61L380.77,80.1L372.31,72.67L355.38,52.12L346.92,55.01L338.46,50.27L330,46.48L321.54,45.51L313.08,45.8L304.62,43.98L296.15,41.74L287.69,40.92L279.23,42.3L270.77,40.07L262.31,41.98L253.85,44.93L245.38,42.41L236.92,40.73L228.46,39.54L211.54,39.1L203.08,41.29L186.15,43.1L177.69,47.56L169.23,43.91L160.77,47.77L152.31,50.38L143.85,56.17L126.92,63.7L118.46,64.71L110,69.24L101.54,67.48L93.08,71.82L84.62,86.06L76.15,87.32L67.69,94.08L59.23,106.48L50.77,111.93L33.85,127.48L25.38,128.46L16.92,125.67L8.46,137.87L0,124.33Z" style="fill: rgb(90, 180, 172); fill-opacity: 1; stroke-width: 0;"/></g></g><g class="errorbars"/><g class="lines"><path class="js-line" d="M0,124.33L8.46,137.87L16.92,125.67L25.38,128.46L33.85,127.48L50.77,111.93L59.23,106.48L67.69,94.08L76.15,87.32L84.62,86.06L93.08,71.82L101.54,67.48L110,69.24L118.46,64.71L126.92,63.7L143.85,56.17L152.31,50.38L160.77,47.77L169.23,43.91L177.69,47.56L186.15,43.1L203.08,41.29L211.54,39.1L228.46,39.54L236.92,40.73L245.38,42.41L253.85,44.93L262.31,41.98L270.77,40.07L279.23,42.3L287.69,40.92L296.15,41.74L304.62,43.98L313.08,45.8L321.54,45.51L330,46.48L338.46,50.27L346.92,55.01L355.38,52.12L372.31,72.67L380.77,80.1L389.23,87.61L397.69,100.01L406.15,115.05L414.62,119.2L423.08,120.21L431.54,124.35L440,130.97" style="vector-effect: non-scaling-stroke; fill: none; stroke: rgb(0, 0, 0); stroke-opacity: 1; stroke-width: 0.25px; opacity: 1;"/></g><g class="points"/><g class="text"/></g><g class="trace scatter traced8ddad" style="stroke-miterlimit: 2;"><g class="fills"><g><path class="js-fill" d="M0,113.53L8.46,118.94L16.92,115.13L25.38,108.56L33.85,109.08L42.31,97.4L50.77,91.17L67.69,73.05L76.15,71.47L84.62,61.11L93.08,55.43L101.54,54.34L110,55.4L118.46,52.42L126.92,47.18L135.38,49.86L143.85,48.3L152.31,43.21L160.77,40.17L186.15,36.05L194.62,36.58L203.08,35.66L211.54,35.55L228.46,35.64L236.92,36.6L253.85,37.98L262.31,34.74L270.77,36.68L279.23,37.21L287.69,37.04L296.15,38.63L313.08,39.78L321.54,39.3L330,40.45L338.46,43.21L346.92,44.62L355.38,47.29L363.85,55.51L372.31,59.34L380.77,65.75L389.23,74.46L397.69,84.56L406.15,89.52L414.62,98.63L423.08,104.05L440,120.09L440,123.45L431.54,116.77L423.08,113.19L414.62,104.33L397.69,93.2L389.23,81.37L380.77,71.48L372.31,63.41L363.85,57.67L355.38,48.44L346.92,49.67L338.46,45.69L330,42.78L321.54,41.27L296.15,40.08L287.69,38.9L279.23,39.22L270.77,37.97L253.85,39.15L245.38,38.69L228.46,37.6L220,36.63L211.54,37.06L203.08,37.2L177.69,39.49L169.23,40.13L160.77,41.95L152.31,45.13L143.85,51.15L135.38,53.03L126.92,52.39L118.46,57.14L101.54,60.07L93.08,62.53L84.62,67.21L76.15,76.72L67.69,78.69L59.23,92.69L50.77,97.5L42.31,105.18L33.85,115.89L25.38,121.72L16.92,120.05L8.46,125.9L0,119.53Z" style="fill: rgb(245, 245, 245); fill-opacity: 1; stroke-width: 0;"/></g></g><g class="errorbars"/><g class="lines"><path class="js-line" d="M0,119.53L8.46,125.9L16.92,120.05L25.38,121.72L33.85,115.89L42.31,105.18L50.77,97.5L59.23,92.69L67.69,78.69L76.15,76.72L84.62,67.21L93.08,62.53L101.54,60.07L118.46,57.14L126.92,52.39L135.38,53.03L143.85,51.15L152.31,45.13L160.77,41.95L169.23,40.13L177.69,39.49L203.08,37.2L211.54,37.06L220,36.63L228.46,37.6L245.38,38.69L253.85,39.15L270.77,37.97L279.23,39.22L287.69,38.9L296.15,40.08L321.54,41.27L330,42.78L338.46,45.69L346.92,49.67L355.38,48.44L363.85,57.67L372.31,63.41L380.77,71.48L389.23,81.37L397.69,93.2L414.62,104.33L423.08,113.19L431.54,116.77L440,123.45" style="vector-effect: non-scaling-stroke; fill: none; stroke: rgb(0, 0, 0); stroke-opacity: 1; stroke-width: 0.5px; opacity: 1;"/></g><g class="points"/><g class="text"/></g><g class="trace scatter trace72d44e" style="stroke-miterlimit: 2;"><g class="fills"><g><path class="js-fill" d="M0,106.46L8.46,111.78L16.92,108.06L25.38,105.17L33.85,98.77L42.31,88.95L50.77,83.45L67.69,65.56L76.15,63.44L84.62,51.95L93.08,50.26L101.54,49.55L110,49.61L118.46,47.05L126.92,43.5L135.38,38.79L143.85,42.9L160.77,37.54L169.23,34.24L177.69,32.92L186.15,33.46L211.54,34.58L220,34.08L228.46,32.86L236.92,35.26L245.38,35.81L253.85,34.67L262.31,32.59L270.77,34.45L279.23,34.14L287.69,35.3L304.62,37.58L313.08,37.72L330,35.45L338.46,38.37L346.92,38.57L355.38,45.06L363.85,51.74L372.31,54.31L380.77,63.8L389.23,70.91L414.62,89.41L423.08,91.04L431.54,102.31L440,117.49L440,120.09L423.08,104.05L414.62,98.63L406.15,89.52L397.69,84.56L389.23,74.46L380.77,65.75L372.31,59.34L363.85,55.51L355.38,47.29L346.92,44.62L338.46,43.21L330,40.45L321.54,39.3L313.08,39.78L296.15,38.63L287.69,37.04L279.23,37.21L270.77,36.68L262.31,34.74L253.85,37.98L236.92,36.6L228.46,35.64L211.54,35.55L203.08,35.66L194.62,36.58L186.15,36.05L160.77,40.17L152.31,43.21L143.85,48.3L135.38,49.86L126.92,47.18L118.46,52.42L110,55.4L101.54,54.34L93.08,55.43L84.62,61.11L76.15,71.47L67.69,73.05L50.77,91.17L42.31,97.4L33.85,109.08L25.38,108.56L16.92,115.13L8.46,118.94L0,113.53Z" style="fill: rgb(245, 245, 245); fill-opacity: 1; stroke-width: 0;"/></g></g><g class="errorbars"/><g class="lines"><path class="js-line" d="M0,113.53L8.46,118.94L16.92,115.13L25.38,108.56L33.85,109.08L42.31,97.4L50.77,91.17L67.69,73.05L76.15,71.47L84.62,61.11L93.08,55.43L101.54,54.34L110,55.4L118.46,52.42L126.92,47.18L135.38,49.86L143.85,48.3L152.31,43.21L160.77,40.17L186.15,36.05L194.62,36.58L203.08,35.66L211.54,35.55L228.46,35.64L236.92,36.6L253.85,37.98L262.31,34.74L270.77,36.68L279.23,37.21L287.69,37.04L296.15,38.63L313.08,39.78L321.54,39.3L330,40.45L338.46,43.21L346.92,44.62L355.38,47.29L363.85,55.51L372.31,59.34L380.77,65.75L389.23,74.46L397.69,84.56L406.15,89.52L414.62,98.63L423.08,104.05L440,120.09" style="vector-effect: non-scaling-stroke; fill: none; stroke: rgb(0, 0, 0); stroke-opacity: 1; stroke-width: 1px; opacity: 1;"/></g><g class="points"/><g class="text"/></g><g class="trace scatter trace509649" style="stroke-miterlimit: 2;"><g class="fills"><g><path class="js-fill" d="M0,101.73L8.46,102.41L16.92,92.26L25.38,94.22L33.85,90.78L50.77,66.62L59.23,65.9L67.69,53.54L76.15,48.04L84.62,46.37L93.08,41.3L101.54,41.97L110,41.03L118.46,40.38L126.92,35.93L135.38,20.74L143.85,38L152.31,38.14L160.77,34.28L169.23,27.93L177.69,27.92L186.15,29.5L194.62,28.85L203.08,32.29L211.54,30.95L220,31.12L228.46,29.12L236.92,33.73L245.38,33.14L262.31,31.68L270.77,32.96L279.23,29.15L287.69,33.8L296.15,34.42L304.62,36.81L313.08,37.05L321.54,34.26L330,25.41L338.46,34.2L346.92,24.28L355.38,41.92L363.85,46.86L372.31,44.13L380.77,56.6L389.23,62.09L397.69,68.52L406.15,71.76L414.62,75.96L423.08,82.85L431.54,94.33L440,117.32L440,117.49L431.54,102.31L423.08,91.04L414.62,89.41L389.23,70.91L380.77,63.8L372.31,54.31L363.85,51.74L355.38,45.06L346.92,38.57L338.46,38.37L330,35.45L313.08,37.72L304.62,37.58L287.69,35.3L279.23,34.14L270.77,34.45L262.31,32.59L253.85,34.67L245.38,35.81L236.92,35.26L228.46,32.86L220,34.08L211.54,34.58L186.15,33.46L177.69,32.92L169.23,34.24L160.77,37.54L143.85,42.9L135.38,38.79L126.92,43.5L118.46,47.05L110,49.61L101.54,49.55L93.08,50.26L84.62,51.95L76.15,63.44L67.69,65.56L50.77,83.45L42.31,88.95L33.85,98.77L25.38,105.17L16.92,108.06L8.46,111.78L0,106.46Z" style="fill: rgb(216, 179, 101); fill-opacity: 1; stroke-width: 0;"/></g></g><g class="errorbars"/><g class="lines"><path class="js-line" d="M0,106.46L8.46,111.78L16.92,108.06L25.38,105.17L33.85,98.77L42.31,88.95L50.77,83.45L67.69,65.56L76.15,63.44L84.62,51.95L93.08,50.26L101.54,49.55L110,49.61L118.46,47.05L126.92,43.5L135.38,38.79L143.85,42.9L160.77,37.54L169.23,34.24L177.69,32.92L186.15,33.46L211.54,34.58L220,34.08L228.46,32.86L236.92,35.26L245.38,35.81L253.85,34.67L262.31,32.59L270.77,34.45L279.23,34.14L287.69,35.3L304.62,37.58L313.08,37.72L330,35.45L338.46,38.37L346.92,38.57L355.38,45.06L363.85,51.74L372.31,54.31L380.77,63.8L389.23,70.91L414.62,89.41L423.08,91.04L431.54,102.31L440,117.49" style="vector-effect: non-scaling-stroke; fill: none; stroke: rgb(0, 0, 0); stroke-opacity: 1; stroke-width: 0.5px; opacity: 1;"/></g><g class="points"/><g class="text"/></g><g class="trace scatter trace452059" style="stroke-miterlimit: 2;"><g class="fills"/><g class="errorbars"/><g class="lines"><path class="js-line" d="M0,101.73L8.46,102.41L16.92,92.26L25.38,94.22L33.85,90.78L50.77,66.62L59.23,65.9L67.69,53.54L76.15,48.04L84.62,46.37L93.08,41.3L101.54,41.97L110,41.03L118.46,40.38L126.92,35.93L135.38,20.74L143.85,38L152.31,38.14L160.77,34.28L169.23,27.93L177.69,27.92L186.15,29.5L194.62,28.85L203.08,32.29L211.54,30.95L220,31.12L228.46,29.12L236.92,33.73L245.38,33.14L262.31,31.68L270.77,32.96L279.23,29.15L287.69,33.8L296.15,34.42L304.62,36.81L313.08,37.05L321.54,34.26L330,25.41L338.46,34.2L346.92,24.28L355.38,41.92L363.85,46.86L372.31,44.13L380.77,56.6L389.23,62.09L397.69,68.52L406.15,71.76L414.62,75.96L423.08,82.85L431.54,94.33L440,117.32" style="vector-effect: non-scaling-stroke; fill: none; stroke: rgb(0, 0, 0); stroke-opacity: 1; stroke-width: 0.25px; opacity: 1;"/></g><g class="points"/><g class="text"/></g><g class="trace scatter trace6973ec" style="stroke-miterlimit: 2; opacity: 1;"><g class="fills"/><g class="errorbars"/><g class="lines"/><g class="points"><path class="point" transform="translate(220,22.32)" d="M4,0A4,4 0 1,1 0,-4A4,4 0 0,1 4,0ZM0,0.5L0.5,0L0,-0.5L-0.5,0Z" style="opacity: 1; stroke: rgb(0, 0, 0); stroke-opacity: 1; stroke-width: 1px; fill: none;"/><path class="point" transform="translate(228.46,22.32)" d="M4,0A4,4 0 1,1 0,-4A4,4 0 0,1 4,0ZM0,0.5L0.5,0L0,-0.5L-0.5,0Z" style="opacity: 1; stroke: rgb(0, 0, 0); stroke-opacity: 1; stroke-width: 1px; fill: none;"/><path class="point" transform="translate(236.92,22.32)" d="M4,0A4,4 0 1,1 0,-4A4,4 0 0,1 4,0ZM0,0.5L0.5,0L0,-0.5L-0.5,0Z" style="opacity: 1; stroke: rgb(0, 0, 0); stroke-opacity: 1; stroke-width: 1px; fill: none;"/><path class="point" transform="translate(245.38,22.32)" d="M4,0A4,4 0 1,1 0,-4A4,4 0 0,1 4,0ZM0,0.5L0.5,0L0,-0.5L-0.5,0Z" style="opacity: 1; stroke: rgb(0, 0, 0); stroke-opacity: 1; stroke-width: 1px; fill: none;"/></g><g class="text"/></g></g></g><g class="overplot"/><path class="xlines-above crisp" d="M0,0" style="fill: none;"/><path class="ylines-above crisp" d="M0,0" style="fill: none;"/><g class="overlines-above"/><g class="xaxislayer-above"><g class="x3tick"><text text-anchor="middle" x="0" y="733" transform="translate(156.15,0)" style="font-family: 'Open Sans', verdana, arial, sans-serif; font-size: 12px; fill: rgb(42, 63, 95); fill-opacity: 1; white-space: pre; opacity: 1;">10</text></g><g class="x3tick"><text text-anchor="middle" x="0" y="733" style="font-family: 'Open Sans', verdana, arial, sans-serif; font-size: 12px; fill: rgb(42, 63, 95); fill-opacity: 1; white-space: pre; opacity: 1;" transform="translate(240.77,0)">20</text></g><g class="x3tick"><text text-anchor="middle" x="0" y="733" style="font-family: 'Open Sans', verdana, arial, sans-serif; font-size: 12px; fill: rgb(42, 63, 95); fill-opacity: 1; white-space: pre; opacity: 1;" transform="translate(325.38,0)">30</text></g><g class="x3tick"><text text-anchor="middle" x="0" y="733" style="font-family: 'Open Sans', verdana, arial, sans-serif; font-size: 12px; fill: rgb(42, 63, 95); fill-opacity: 1; white-space: pre; opacity: 1;" transform="translate(410,0)">40</text></g><g class="x3tick"><text text-anchor="middle" x="0" y="733" style="font-family: 'Open Sans', verdana, arial, sans-serif; font-size: 12px; fill: rgb(42, 63, 95); fill-opacity: 1; white-space: pre; opacity: 1;" transform="translate(494.62,0)">50</text></g></g><g class="yaxislayer-above"><g class="y3tick"><text text-anchor="end" x="79" y="4.199999999999999" transform="translate(0,720)" style="font-family: 'Open Sans', verdana, arial, sans-serif; font-size: 12px; fill: rgb(42, 63, 95); fill-opacity: 1; white-space: pre; opacity: 1;">5</text></g><g class="y3tick"><text text-anchor="end" x="79" y="4.199999999999999" style="font-family: 'Open Sans', verdana, arial, sans-serif; font-size: 12px; fill: rgb(42, 63, 95); fill-opacity: 1; white-space: pre; opacity: 1;" transform="translate(0,682.8)">10</text></g><g class="y3tick"><text text-anchor="end" x="79" y="4.199999999999999" style="font-family: 'Open Sans', verdana, arial, sans-serif; font-size: 12px; fill: rgb(42, 63, 95); fill-opacity: 1; white-space: pre; opacity: 1;" transform="translate(0,645.6)">15</text></g><g class="y3tick"><text text-anchor="end" x="79" y="4.199999999999999" style="font-family: 'Open Sans', verdana, arial, sans-serif; font-size: 12px; fill: rgb(42, 63, 95); fill-opacity: 1; white-space: pre; opacity: 1;" transform="translate(0,608.4)">20</text></g><g class="y3tick"><text text-anchor="end" x="79" y="4.199999999999999" style="font-family: 'Open Sans', verdana, arial, sans-serif; font-size: 12px; fill: rgb(42, 63, 95); fill-opacity: 1; white-space: pre; opacity: 1;" transform="translate(0,571.2)">25</text></g><g class="y3tick"><text text-anchor="end" x="79" y="4.199999999999999" style="font-family: 'Open Sans', verdana, arial, sans-serif; font-size: 12px; fill: rgb(42, 63, 95); fill-opacity: 1; white-space: pre; opacity: 1;" transform="translate(0,534)">30</text></g></g><g class="overaxes-above"/></g></g><g class="polarlayer"/><g class="smithlayer"/><g class="ternarylayer"/><g class="geolayer"/><g class="funnelarealayer"/><g class="pielayer"/><g class="iciclelayer"/><g class="treemaplayer"/><g class="sunburstlayer"/><g class="glimages"/><defs id="topdefs-bffd6c"><g class="clips"/></defs><g class="layer-above"><g class="imagelayer"/><g class="shapelayer"/></g><g class="infolayer"><g class="g-gtitle"><text class="gtitle" x="30" y="50" text-anchor="start" dy="0em" style="font-family: 'Open Sans', verdana, arial, sans-serif; font-size: 17px; fill: rgb(42, 63, 95); opacity: 1; font-weight: normal; white-space: pre;">Climatology and S2S forecast for Munshiganj</text></g><g class="g-xtitle"/><g class="g-x2title"/><g class="g-x3title"/><g class="g-ytitle"><text class="ytitle" transform="rotate(-90,34.16875,193)" x="34.16875" y="193" text-anchor="middle" style="font-family: 'Open Sans', verdana, arial, sans-serif; font-size: 14px; fill: rgb(42, 63, 95); opacity: 1; font-weight: normal; white-space: pre;">[mm]</text></g><g class="g-y2title"><text class="y2title" transform="rotate(-90,40.840625,410.00000000000006)" x="40.840625" y="410.00000000000006" text-anchor="middle" style="font-family: 'Open Sans', verdana, arial, sans-serif; font-size: 14px; fill: rgb(42, 63, 95); opacity: 1; font-weight: normal; white-space: pre;">[C]</text></g><g class="g-y3title"><text class="y3title" transform="rotate(-90,40.840625,627)" x="40.840625" y="627" text-anchor="middle" style="font-family: 'Open Sans', verdana, arial, sans-serif; font-size: 14px; fill: rgb(42, 63, 95); opacity: 1; font-weight: normal; white-space: pre;">[C]</text></g><g class="annotation" data-index="0" style="opacity: 1;"><g class="annotation-text-g" transform="rotate(0,300,89.5)"><g class="cursor-pointer" transform="translate(237,79)"><rect class="bg" x="0.5" y="0.5" width="126" height="20" style="stroke-width: 1px; stroke: rgb(0, 0, 0); stroke-opacity: 0; fill: rgb(0, 0, 0); fill-opacity: 0;"/><text class="annotation-text" text-anchor="middle" x="63.359375" y="16" style="font-family: 'Open Sans', verdana, arial, sans-serif; font-size: 16px; fill: rgb(42, 63, 95); fill-opacity: 1; white-space: pre;">Precipitation sum</text></g></g></g><g class="annotation" data-index="1" style="opacity: 1;"><g class="annotation-text-g" transform="rotate(0,300,306.50000000000006)"><g class="cursor-pointer" transform="translate(196,296)"><rect class="bg" x="0.5" y="0.5" width="208" height="20" style="stroke-width: 1px; stroke: rgb(0, 0, 0); stroke-opacity: 0; fill: rgb(0, 0, 0); fill-opacity: 0;"/><text class="annotation-text" text-anchor="middle" x="104.265625" y="16" style="font-family: 'Open Sans', verdana, arial, sans-serif; font-size: 16px; fill: rgb(42, 63, 95); fill-opacity: 1; white-space: pre;">Mean maximum temperature</text></g></g></g><g class="annotation" data-index="2" style="opacity: 1;"><g class="annotation-text-g" transform="rotate(0,300,523.5)"><g class="cursor-pointer" transform="translate(198,513)"><rect class="bg" x="0.5" y="0.5" width="203" height="20" style="stroke-width: 1px; stroke: rgb(0, 0, 0); stroke-opacity: 0; fill: rgb(0, 0, 0); fill-opacity: 0;"/><text class="annotation-text" text-anchor="middle" x="102.046875" y="16" style="font-family: 'Open Sans', verdana, arial, sans-serif; font-size: 16px; fill: rgb(42, 63, 95); fill-opacity: 1; white-space: pre;">Mean minimum temperature</text></g></g></g><g class="annotation" data-index="3" style="opacity: 1;"><g class="annotation-text-g" transform="rotate(0,300,760.5)"><g class="cursor-pointer" transform="translate(277,750)"><rect class="bg" x="0.5" y="0.5" width="45" height="20" style="stroke-width: 1px; stroke: rgb(0, 0, 0); stroke-opacity: 0; fill: rgb(0, 0, 0); fill-opacity: 0;"/><text class="annotation-text" text-anchor="middle" x="22.3125" y="16" style="font-family: 'Open Sans', verdana, arial, sans-serif; font-size: 16px; fill: rgb(42, 63, 95); fill-opacity: 1; white-space: pre;">Week</text></g></g></g></g></svg>