<svg class="main-svg" xmlns="http://www.w3.org/2000/svg" xmlns:xlink="http://www.w3.org/1999/xlink" width="600" height="800" style="" viewBox="0 0 600 800"><rect x="0" y="0" width="600" height="800" style="fill: rgb(255, 255, 255); fill-opacity: 1;"/><defs id="defs-dd98fe"><g class="clips"><clipPath id="clipdd98fexyplot" class="plotclip"><rect width="440" height="186.00000000000003"/></clipPath><clipPath id="clipdd98fex2y2plot" class="plotclip"><rect width="440" height="185.99999999999997"/></clipPath><clipPath id="clipdd98fex3y3plot" class="plotclip"><rect width="440" height="186"/></clipPath><clipPath class="axesclip" id="clipdd98fex"><rect x="80" y="0" width="440" height="800"/></clipPath><clipPath class="axesclip" id="clipdd98fey"><rect x="0" y="100" width="600" height="186.00000000000003"/></clipPath><clipPath class="axesclip" id="clipdd98fexy"><rect x="80" y="100" width="440" height="186.00000000000003"/></clipPath><clipPath class="axesclip" id="clipdd98fey2"><rect x="0" y="317.00000000000006" width="600" height="185.99999999999997"/></clipPath><clipPath class="axesclip" id="clipdd98fexy2"><rect x="80" y="317.00000000000006" width="440" height="185.99999999999997"/></clipPath><clipPath class="axesclip" id="clipdd98fey3"><rect x="0" y="534" width="600" height="186"/></clipPath><clipPath class="axesclip" id="clipdd98fexy3"><rect x="80" y="534" width="440" height="186"/></clipPath><clipPath class="axesclip" id="clipdd98fex2"><rect x="80" y="0" width="440" height="800"/></clipPath><clipPath class="axesclip" id="clipdd98fex2y"><rect x="80" y="100" width="440" height="186.00000000000003"/></clipPath><clipPath class="axesclip" id="clipdd98fex2y2"><rect x="80" y="317.00000000000006" width="440" height="185.99999999999997"/></clipPath><clipPath class="axesclip" id="clipdd98fex2y3"><rect x="80" y="534" width="440" height="186"/></clipPath><clipPath class="axesclip" id="clipdd98fex3"><rect x="80" y="0" width="440" height="800"/></clipPath><clipPath class="axesclip" id="clipdd98fex3y"><rect x="80" y="100" width="440" height="186.00000000000003"/></clipPath><clipPath class="axesclip" id="clipdd98fex3y2"><rect x="80" y="317.00000000000006" width="440" height="185.99999999999997"/></clipPath><clipPath class="axesclip" id="clipdd98fex3y3"><rect x="80" y="534" width="440" height="186"/></clipPath></g><g class="gradients"/><g class="patterns"/></defs><g class="bglayer"><rect class="bg" x="80" y="100" width="440" height="186.00000000000003" style="fill: rgb(229, 236, 246); fill-opacity: 1; stroke-width: 0;"/><rect class="bg" x="80" y="317.00000000000006" width="440" height="185.99999999999997" style="fill: rgb(229, 236, 246); fill-opacity: 1; stroke-width: 0;"/><rect class="bg" x="80" y="534" width="440" height="186" style="fill: rgb(229, 236, 246); fill-opacity: 1; stroke-width: 0;"/></g><g class="layer-below"><g class="imagelayer"/><g class="shapelayer"/></g><g class="cartesianlayer"><g class="subplot xy"><g class="layer-subplot"><g class="shapelayer"/><g class="imagelayer"/></g><g class="minor-gridlayer"><g class="x"/><g class="y"/></g><g class="gridlayer"><g class="x"><path class="xgrid crisp" transform="translate(156.15,0)" d="M0,100v186.00000000000003" style="stroke: rgb(255, 255, 255); stroke-opacity: 1; stroke-width: 1px;"/><path class="xgrid crisp" transform="translate(240.77,0)" d="M0,100v186.00000000000003" style="stroke: rgb(255, 255, 255); stroke-opacity: 1; stroke-width: 1px;"/><path class="xgrid crisp" transform="translate(325.38,0)" d="M0,100v186.00000000000003" style="stroke: rgb(255, 255, 255); stroke-opacity: 1; stroke-width: 1px;"/><path class="xgrid crisp" transform="translate(410,0)" d="M0,100v186.00000000000003" style="stroke: rgb(255, 255, 255); stroke-opacity: 1; stroke-width: 1px;"/><path class="xgrid crisp" transform="translate(494.62,0)" d="M0,100v186.00000000000003" style="stroke: rgb(255, 255, 255); stroke-opacity: 1; stroke-width: 1px;"/></g><g class="y"><path class="ygrid crisp" transform="translate(0,248.8)" d="M80,0h440" style="stroke: rgb(255, 255, 255); stroke-opacity: 1; stroke-width: 1px;"/><path class="ygrid crisp" transform="translate(0,211.6)" d="M80,0h440" style="stroke: rgb(255, 255, 255); stroke-opacity: 1; stroke-width: 1px;"/><path class="ygrid crisp" transform="translate(0,174.4)" d="M80,0h440" style="stroke: rgb(255, 255, 255); stroke-opacity: 1; stroke-width: 1px;"/><path class="ygrid crisp" transform="translate(0,137.2)" d="M80,0h440" style="stroke: rgb(255, 255, 255); stroke-opacity: 1; stroke-width: 1px;"/></g></g><g class="zerolinelayer"><path class="yzl zl crisp" transform="translate(0,286)" d="M80,0h440" style="stroke: rgb(255, 255, 255); stroke-opacity: 1; stroke-width: 2px;"/></g><path class="xlines-below"/><path class="ylines-below"/><g class="overlines-below"/><g class="xaxislayer-below"/><g class="yaxislayer-below"/><g class="overaxes-below"/><g class="plot" transform="translate(80,100)" clip-path="url(#clipdd98fexyplot)"><g class="scatterlayer mlayer"><g class="trace scatter trace1ea163" style="stroke-miterlimit: 2;"><g class="fills"><g><path class="js-fill" d="M0,186L135.38,185.7L143.85,178L152.31,183.53L160.77,179.33L169.23,163.76L177.69,172.02L186.15,170.01L194.62,165.3L203.08,171.16L211.54,156.02L220,158.98L228.46,163.37L236.92,159.98L245.38,152.68L262.31,158.58L270.77,158.82L279.23,169.55L287.69,176.34L296.15,172.8L304.62,172.84L313.08,171.16L321.54,173.11L330,183.12L338.46,178.45L346.92,185.2L355.38,186L440,186L440,186L321.54,185.99L313.08,179.84L304.62,186L296.15,182.62L287.69,184.58L279.23,182.03L270.77,175.35L262.31,180.24L253.85,172.09L245.38,183.75L236.92,184.84L228.46,172.83L220,178.89L211.54,185.4L203.08,179.51L194.62,185.96L186.15,180.02L177.69,185.73L0,186Z" style="fill: rgb(224, 236, 244); fill-opacity: 1; stroke-width: 0;"/></g></g><g class="errorbars"/><g class="lines"><path class="js-line" d="M0,186L177.69,185.73L186.15,180.02L194.62,185.96L203.08,179.51L211.54,185.4L220,178.89L228.46,172.83L236.92,184.84L245.38,183.75L253.85,172.09L262.31,180.24L270.77,175.35L279.23,182.03L287.69,184.58L296.15,182.62L304.62,186L313.08,179.84L321.54,185.99L440,186" style="vector-effect: non-scaling-stroke; fill: none; stroke: rgb(0, 0, 0); stroke-opacity: 1; stroke-width: 0.25px; opacity: 1;"/></g><g class="points"/><g class="text"/></g><g class="trace scatter trace5da80b" style="stroke-miterlimit: 2;"><g class="fills"><g><path class="js-fill" d="M0,186L101.54,185.38L110,184.76L118.46,183.08L126.92,185.34L135.38,177.36L143.85,162.67L152.31,167.47L160.77,163.35L169.23,148.04L177.69,154.22L186.15,146.12L194.62,147.37L203.08,145.53L211.54,139.07L220,143.88L228.46,137.12L236.92,145.71L245.38,135.75L253.85,137.09L262.31,146.97L270.77,149.79L279.23,163.4L287.69,164.64L296.15,148.53L304.62,154.39L313.08,163.89L321.54,159.17L330,167.09L338.46,169.06L346.92,177.61L355.38,186L363.85,185.95L440,186L440,186L355.38,186L346.92,185.2L338.46,178.45L330,183.12L321.54,173.11L313.08,171.16L304.62,172.84L296.15,172.8L287.69,176.34L279.23,169.55L270.77,158.82L262.31,158.58L245.38,152.68L236.92,159.98L228.46,163.37L220,158.98L211.54,156.02L203.08,171.16L194.62,165.3L186.15,170.01L177.69,172.02L169.23,163.76L160.77,179.33L152.31,183.53L143.85,178L135.38,185.7L0,186Z" style="fill: rgb(158, 188, 218); fill-opacity: 1; stroke-width: 0;"/></g></g><g class="errorbars"/><g class="lines"><path class="js-line" d="M0,186L135.38,185.7L143.85,178L152.31,183.53L160.77,179.33L169.23,163.76L177.69,172.02L186.15,170.01L194.62,165.3L203.08,171.16L211.54,156.02L220,158.98L228.46,163.37L236.92,159.98L245.38,152.68L262.31,158.58L270.77,158.82L279.23,169.55L287.69,176.34L296.15,172.8L304.62,172.84L313.08,171.16L321.54,173.11L330,183.12L338.46,178.45L346.92,185.2L355.38,186L440,186" style="vector-effect: non-scaling-stroke; fill: none; stroke: rgb(0, 0, 0); stroke-opacity: 1; stroke-width: 0.5px; opacity: 1;"/></g><g class="points"/><g class="text"/></g><g class="trace scatter trace209e18" style="stroke-miterlimit: 2;"><g class="fills"><g><path class="js-fill" d="M0,185.99L42.31,185.59L50.77,181.34L59.23,183.63L67.69,185.13L76.15,181.25L84.62,183.44L93.08,181.75L101.54,173.44L110,159.16L118.46,162.05L126.92,176.96L135.38,161.11L143.85,157.45L152.31,150.64L160.77,149L169.23,139.61L177.69,124.43L186.15,122.66L194.62,127.45L203.08,120.64L211.54,118.92L220,112.86L228.46,117.26L236.92,78L245.38,120.03L253.85,120.76L262.31,132.98L270.77,111.47L279.23,145.81L287.69,140.04L296.15,136.14L304.62,116.55L313.08,126.83L321.54,122.33L330,148.27L338.46,134.43L346.92,149.78L355.38,141.89L363.85,182.49L372.31,184.41L389.23,186L397.69,186L440,186L440,186L363.85,185.95L355.38,186L346.92,177.61L338.46,169.06L330,167.09L321.54,159.17L313.08,163.89L304.62,154.39L296.15,148.53L287.69,164.64L279.23,163.4L270.77,149.79L262.31,146.97L253.85,137.09L245.38,135.75L236.92,145.71L228.46,137.12L220,143.88L211.54,139.07L203.08,145.53L194.62,147.37L186.15,146.12L177.69,154.22L169.23,148.04L160.77,163.35L152.31,167.47L143.85,162.67L135.38,177.36L126.92,185.34L118.46,183.08L110,184.76L101.54,185.38L0,186Z" style="fill: rgb(158, 188, 218); fill-opacity: 1; stroke-width: 0;"/></g></g><g class="errorbars"/><g class="lines"><path class="js-line" d="M0,186L101.54,185.38L110,184.76L118.46,183.08L126.92,185.34L135.38,177.36L143.85,162.67L152.31,167.47L160.77,163.35L169.23,148.04L177.69,154.22L186.15,146.12L194.62,147.37L203.08,145.53L211.54,139.07L220,143.88L228.46,137.12L236.92,145.71L245.38,135.75L253.85,137.09L262.31,146.97L270.77,149.79L279.23,163.4L287.69,164.64L296.15,148.53L304.62,154.39L313.08,163.89L321.54,159.17L330,167.09L338.46,169.06L346.92,177.61L355.38,186L363.85,185.95L440,186" style="vector-effect: non-scaling-stroke; fill: none; stroke: rgb(0, 0, 0); stroke-opacity: 1; stroke-width: 1px; opacity: 1;"/></g><g class="points"/><g class="text"/></g><g class="trace scatter trace88ea4e" style="stroke-miterlimit: 2;"><g class="fills"><g><path class="js-fill" d="M0,185.98L42.31,185.47L50.77,175.18L59.23,181.57L67.69,184.62L76.15,174.3L84.62,181.35L93.08,177.95L101.54,155.36L110,142.87L118.46,137.67L126.92,168.93L135.38,148.04L143.85,147.1L152.31,137.6L160.77,126.39L169.23,113.34L177.69,72.4L186.15,60.93L194.62,86.41L203.08,70.24L211.54,68.53L220,44.61L228.46,60.17L236.92,42.81L245.38,93.75L253.85,69.56L262.31,102.12L270.77,53.31L279.23,137.69L287.69,91.95L296.15,122.46L304.62,88.71L313.08,112.86L321.54,78.58L330,136.4L338.46,111.11L346.92,133.06L355.38,86.97L363.85,182.43L372.31,184.35L389.23,186L397.69,186L440,186L440,186L397.69,186L389.23,186L372.31,184.41L363.85,182.49L355.38,141.89L346.92,149.78L338.46,134.43L330,148.27L321.54,122.33L313.08,126.83L304.62,116.55L296.15,136.14L287.69,140.04L279.23,145.81L270.77,111.47L262.31,132.98L253.85,120.76L245.38,120.03L236.92,78L228.46,117.26L220,112.86L211.54,118.92L203.08,120.64L194.62,127.45L186.15,122.66L177.69,124.43L169.23,139.61L160.77,149L152.31,150.64L143.85,157.45L135.38,161.11L126.92,176.96L118.46,162.05L110,159.16L101.54,173.44L93.08,181.75L84.62,183.44L76.15,181.25L67.69,185.13L59.23,183.63L50.77,181.34L42.31,185.59L0,185.99Z" style="fill: rgb(136, 86, 167); fill-opacity: 1; stroke-width: 0;"/></g></g><g class="errorbars"/><g class="lines"><path class="js-line" d="M0,185.99L42.31,185.59L50.77,181.34L59.23,183.63L67.69,185.13L76.15,181.25L84.62,183.44L93.08,181.75L101.54,173.44L110,159.16L118.46,162.05L126.92,176.96L135.38,161.11L143.85,157.45L152.31,150.64L160.77,149L169.23,139.61L177.69,124.43L186.15,122.66L194.62,127.45L203.08,120.64L211.54,118.92L220,112.86L228.46,117.26L236.92,78L245.38,120.03L253.85,120.76L262.31,132.98L270.77,111.47L279.23,145.81L287.69,140.04L296.15,136.14L304.62,116.55L313.08,126.83L321.54,122.33L330,148.27L338.46,134.43L346.92,149.78L355.38,141.89L363.85,182.49L372.31,184.41L389.23,186L397.69,186L440,186" style="vector-effect: non-scaling-stroke; fill: none; stroke: rgb(0, 0, 0); stroke-opacity: 1; stroke-width: 0.5px; opacity: 1;"/></g><g class="points"/><g class="text"/></g><g class="trace scatter trace1bd785" style="stroke-miterlimit: 2;"><g class="fills"/><g class="errorbars"/><g class="lines"><path class="js-line" d="M0,185.98L42.31,185.47L50.77,175.18L59.23,181.57L67.69,184.62L76.15,174.3L84.62,181.35L93.08,177.95L101.54,155.36L110,142.87L118.46,137.67L126.92,168.93L135.38,148.04L143.85,147.1L152.31,137.6L160.77,126.39L169.23,113.34L177.69,72.4L186.15,60.93L194.62,86.41L203.08,70.24L211.54,68.53L220,44.61L228.46,60.17L236.92,42.81L245.38,93.75L253.85,69.56L262.31,102.12L270.77,53.31L279.23,137.69L287.69,91.95L296.15,122.46L304.62,88.71L313.08,112.86L321.54,78.58L330,136.4L338.46,111.11L346.92,133.06L355.38,86.97L363.85,182.43L372.31,184.35L389.23,186L397.69,186L440,186" style="vector-effect: non-scaling-stroke; fill: none; stroke: rgb(0, 0, 0); stroke-opacity: 1; stroke-width: 0.25px; opacity: 1;"/></g><g class="points"/><g class="text"/></g><g class="trace scatter traceba751b" style="stroke-miterlimit: 2; opacity: 1;"><g class="fills"/><g class="errorbars"/><g class="lines"/><g class="points"><path class="point" transform="translate(203.08,186)" d="M4,0A4,4 0 1,1 0,-4A4,4 0 0,1 4,0ZM0,0.5L0.5,0L0,-0.5L-0.5,0Z" style="opacity: 1; stroke: rgb(0, 0, 0); stroke-opacity: 1; stroke-width: 1px; fill: none;"/><path class="point" transform="translate(211.54,186)" d="M4,0A4,4 0 1,1 0,-4A4,4 0 0,1 4,0ZM0,0.5L0.5,0L0,-0.5L-0.5,0Z" style="opacity: 1; stroke: rgb(0, 0, 0); stroke-opacity: 1; stroke-width: 1px; fill: none;"/><path class="point" transform="translate(220,186)" d="M4,0A4,4 0 1,1 0,-4A4,4 0 0,1 4,0ZM0,0.5L0.5,0L0,-0.5L-0.5,0Z" style="opacity: 1; stroke: rgb(0, 0, 0); stroke-opacity: 1; stroke-width: 1px; fill: none;"/><path class="point" transform="translate(228.46,186)" d="M4,0A4,4 0 1,1 0,-4A4,4 0 0,1 4,0ZM0,0.5L0.5,0L0,-0.5L-0.5,0Z" style="opacity: 1; stroke: rgb(0, 0, 0); stroke-opacity: 1; stroke-width: 1px; fill: none;"/></g><g class="text"/></g></g></g><g class="overplot"/><path class="xlines-above crisp" d="M0,0" style="fill: none;"/><path class="ylines-above crisp" d="M0,0" style="fill: none;"/><g class="overlines-above"/><g class="xaxislayer-above"/><g class="yaxislayer-above"><g class="ytick"><text text-anchor="end" x="79" y="4.199999999999999" transform="translate(0,286)" style="font-family: 'Open Sans', verdana, arial, sans-serif; font-size: 12px; fill: rgb(42, 63, 95); fill-opacity: 1; white-space: pre; opacity: 1;">0</text></g><g class="ytick"><text text-anchor="end" x="79" y="4.199999999999999" style="font-family: 'Open Sans', verdana, arial, sans-serif; font-size: 12px; fill: rgb(42, 63, 95); fill-opacity: 1; white-space: pre; opacity: 1;" transform="translate(0,248.8)">50</text></g><g class="ytick"><text text-anchor="end" x="79" y="4.199999999999999" style="font-family: 'Open Sans', verdana, arial, sans-serif; font-size: 12px; fill: rgb(42, 63, 95); fill-opacity: 1; white-space: pre; opacity: 1;" transform="translate(0,211.6)">100</text></g><g class="ytick"><text text-anchor="end" x="79" y="4.199999999999999" style="font-family: 'Open Sans', verdana, arial, sans-serif; font-size: 12px; fill: rgb(42, 63, 95); fill-opacity: 1; white-space: pre; opacity: 1;" transform="translate(0,174.4)">150</text></g><g class="ytick"><text text-anchor="end" x="79" y="4.199999999999999" style="font-family: 'Open Sans', verdana, arial, sans-serif; font-size: 12px; fill: rgb(42, 63, 95); fill-opacity: 1; white-space: pre; opacity: 1;" transform="translate(0,137.2)">200</text></g><g class="ytick"><text text-anchor="end" x="79" y="4.199999999999999" style="font-family: 'Open Sans', verdana, arial, sans-serif; font-size: 12px; fill: rgb(42, 63, 95); fill-opacity: 1; white-space: pre; opacity: 1;" transform="translate(0,100)">250</text></g></g><g class="overaxes-above"/></g><g class="subplot x2y2"><g class="layer-subplot"><g class="shapelayer"/><g class="imagelayer"/></g><g class="minor-gridlayer"><g class="x2"/><g class="y2"/></g><g class="gridlayer"><g class="x2"><path class="x2grid crisp" transform="translate(156.15,0)" d="M0,317.00000000000006v185.99999999999997" style="stroke: rgb(255, 255, 255); stroke-opacity: 1; stroke-width: 1px;"/><path class="x2grid crisp" transform="translate(240.77,0)" d="M0,317.00000000000006v185.99999999999997" style="stroke: rgb(255, 255, 255); stroke-opacity: 1; stroke-width: 1px;"/><path class="x2grid crisp" transform="translate(325.38,0)" d="M0,317.00000000000006v185.99999999999997" style="stroke: rgb(255, 255, 255); stroke-opacity: 1; stroke-width: 1px;"/><path class="x2grid crisp" transform="translate(410,0)" d="M0,317.00000000000006v185.99999999999997" style="stroke: rgb(255, 255, 255); stroke-opacity: 1; stroke-width: 1px;"/><path class="x2grid crisp" transform="translate(494.62,0)" d="M0,317.00000000000006v185.99999999999997" style="stroke: rgb(255, 255, 255); stroke-opacity: 1; stroke-width: 1px;"/></g><g class="y2"><path class="y2grid crisp" transform="translate(0,472.00000000000006)" d="M80,0h440" style="stroke: rgb(255, 255, 255); stroke-opacity: 1; stroke-width: 1px;"/><path class="y2grid crisp" transform="translate(0,410.00000000000006)" d="M80,0h440" style="stroke: rgb(255, 255, 255); stroke-opacity: 1; stroke-width: 1px;"/><path class="y2grid crisp" transform="translate(0,348.00000000000006)" d="M80,0h440" style="stroke: rgb(255, 255, 255); stroke-opacity: 1; stroke-width: 1px;"/></g></g><g class="zerolinelayer"/><path class="xlines-below"/><path class="ylines-below"/><g class="overlines-below"/><g class="xaxislayer-below"/><g class="yaxislayer-below"/><g class="overaxes-below"/><g class="plot" transform="translate(80,317.00000000000006)" clip-path="url(#clipdd98fex2y2plot)"><g class="scatterlayer mlayer"><g class="trace scatter tracea15a13" style="stroke-miterlimit: 2;"><g class="fills"><g><path class="js-fill" d="M0,147.3L8.46,149.82L16.92,136.2L25.38,131.57L33.85,124.3L42.31,114.06L50.77,109.43L59.23,98.96L67.69,86.6L76.15,88.29L84.62,71.98L93.08,72.02L101.54,75.12L110,79.82L118.46,80.64L126.92,78.21L135.38,82.17L143.85,86.26L152.31,83L160.77,86.51L169.23,81.65L177.69,87.15L186.15,90.61L194.62,95.8L203.08,94.14L211.54,94.41L220,95.44L228.46,92.86L236.92,97.63L245.38,93.56L253.85,96.51L262.31,96.37L270.77,98.31L287.69,96.51L296.15,97.6L304.62,94.28L313.08,98.52L321.54,96.82L330,93.37L338.46,94.84L346.92,94.18L355.38,91.2L363.85,93.13L380.77,102.44L389.23,110.09L397.69,121.63L406.15,131.57L414.62,132.79L423.08,139.65L431.54,145.92L440,149.36L440,151.09L431.54,150.8L423.08,155.44L414.62,137.9L406.15,146.19L397.69,131.51L389.23,118.89L380.77,109.52L372.31,108.65L363.85,98.98L355.38,101.66L346.92,114.21L338.46,99.29L330,103.24L321.54,105.99L313.08,112.47L304.62,105.15L296.15,105.07L287.69,99.37L279.23,101.71L270.77,102.88L262.31,110.11L253.85,106.24L245.38,100.76L236.92,106.27L228.46,99.69L220,100.55L211.54,107.49L203.08,104.09L194.62,104.62L186.15,96.25L177.69,95.89L169.23,87.17L160.77,92.12L152.31,90.57L135.38,96.74L126.92,93.96L118.46,93.93L110,89.88L101.54,92.75L93.08,82.86L84.62,88.17L76.15,99.81L67.69,109.46L59.23,114.82L50.77,122.97L42.31,132.25L33.85,137.8L25.38,146.47L16.92,147.7L8.46,166.25L0,165.74Z" style="fill: rgb(145, 191, 219); fill-opacity: 1; stroke-width: 0;"/></g></g><g class="errorbars"/><g class="lines"><path class="js-line" d="M0,165.74L8.46,166.25L16.92,147.7L25.38,146.47L33.85,137.8L42.31,132.25L50.77,122.97L59.23,114.82L67.69,109.46L76.15,99.81L84.62,88.17L93.08,82.86L101.54,92.75L110,89.88L118.46,93.93L126.92,93.96L135.38,96.74L152.31,90.57L160.77,92.12L169.23,87.17L177.69,95.89L186.15,96.25L194.62,104.62L203.08,104.09L211.54,107.49L220,100.55L228.46,99.69L236.92,106.27L245.38,100.76L253.85,106.24L262.31,110.11L270.77,102.88L279.23,101.71L287.69,99.37L296.15,105.07L304.62,105.15L313.08,112.47L321.54,105.99L330,103.24L338.46,99.29L346.92,114.21L355.38,101.66L363.85,98.98L372.31,108.65L380.77,109.52L389.23,118.89L397.69,131.51L406.15,146.19L414.62,137.9L423.08,155.44L431.54,150.8L440,151.09" style="vector-effect: non-scaling-stroke; fill: none; stroke: rgb(0, 0, 0); stroke-opacity: 1; stroke-width: 0.25px; opacity: 1;"/></g><g class="points"/><g class="text"/></g><g class="trace scatter tracec41a11" style="stroke-miterlimit: 2;"><g class="fills"><g><path class="js-fill" d="M0,137.4L8.46,139.97L16.92,129.15L25.38,128.14L33.85,118.06L42.31,107.01L50.77,100.38L59.23,88.07L67.69,79.3L76.15,74.24L84.62,65.22L93.08,58.86L101.54,66.79L110,74.25L118.46,64.84L126.92,69.56L135.38,73.04L143.85,79.15L152.31,74.39L160.77,77.52L169.23,78.14L177.69,79.5L186.15,83.79L194.62,86.59L203.08,90.53L211.54,90.21L220,91.93L228.46,91.55L236.92,94.66L245.38,90.44L253.85,93.31L262.31,90.66L270.77,93.39L279.23,90.58L287.69,93.69L296.15,93.93L304.62,91.52L313.08,93.86L321.54,89.38L330,88.52L338.46,86.52L346.92,85.87L355.38,84.31L363.85,90.57L372.31,91.59L397.69,111.88L406.15,122.4L423.08,130.21L431.54,137.58L440,134.73L440,149.36L431.54,145.92L423.08,139.65L414.62,132.79L406.15,131.57L397.69,121.63L389.23,110.09L380.77,102.44L363.85,93.13L355.38,91.2L346.92,94.18L338.46,94.84L330,93.37L321.54,96.82L313.08,98.52L304.62,94.28L296.15,97.6L287.69,96.51L270.77,98.31L262.31,96.37L253.85,96.51L245.38,93.56L236.92,97.63L228.46,92.86L220,95.44L211.54,94.41L203.08,94.14L194.62,95.8L186.15,90.61L177.69,87.15L169.23,81.65L160.77,86.51L152.31,83L143.85,86.26L135.38,82.17L126.92,78.21L118.46,80.64L110,79.82L101.54,75.12L93.08,72.02L84.62,71.98L76.15,88.29L67.69,86.6L59.23,98.96L50.77,109.43L42.31,114.06L33.85,124.3L25.38,131.57L16.92,136.2L8.46,149.82L0,147.3Z" style="fill: rgb(255, 255, 191); fill-opacity: 1; stroke-width: 0;"/></g></g><g class="errorbars"/><g class="lines"><path class="js-line" d="M0,147.3L8.46,149.82L16.92,136.2L25.38,131.57L33.85,124.3L42.31,114.06L50.77,109.43L59.23,98.96L67.69,86.6L76.15,88.29L84.62,71.98L93.08,72.02L101.54,75.12L110,79.82L118.46,80.64L126.92,78.21L135.38,82.17L143.85,86.26L152.31,83L160.77,86.51L169.23,81.65L177.69,87.15L186.15,90.61L194.62,95.8L203.08,94.14L211.54,94.41L220,95.44L228.46,92.86L236.92,97.63L245.38,93.56L253.85,96.51L262.31,96.37L270.77,98.31L287.69,96.51L296.15,97.6L304.62,94.28L313.08,98.52L321.54,96.82L330,93.37L338.46,94.84L346.92,94.18L355.38,91.2L363.85,93.13L380.77,102.44L389.23,110.09L397.69,121.63L406.15,131.57L414.62,132.79L423.08,139.65L431.54,145.92L440,149.36" style="vector-effect: non-scaling-stroke; fill: none; stroke: rgb(0, 0, 0); stroke-opacity: 1; stroke-width: 0.5px; opacity: 1;"/></g><g class="points"/><g class="text"/></g><g class="trace scatter tracefb21fd" style="stroke-miterlimit: 2;"><g class="fills"><g><path class="js-fill" d="M0,131.37L8.46,128.39L16.92,126.44L25.38,121.09L33.85,113.68L42.31,100.36L50.77,90.64L59.23,82.77L67.69,68.31L76.15,64.66L84.62,60.18L93.08,52.3L101.54,54.74L110,58.33L118.46,55.4L126.92,59.38L135.38,55.99L143.85,70.69L152.31,65.86L160.77,65.73L169.23,73.8L177.69,72.86L186.15,80.24L194.62,75.79L203.08,82.81L211.54,84.38L220,85.12L228.46,87.93L236.92,87.35L245.38,85.76L253.85,89.48L262.31,86.09L270.77,88.47L279.23,86.47L287.69,89.85L296.15,86.47L304.62,86.82L313.08,87.68L321.54,83.53L330,77.42L338.46,80.82L346.92,78.71L355.38,82.49L363.85,87.86L372.31,88.91L380.77,96.59L389.23,100.01L397.69,106.82L406.15,116.85L414.62,118.15L423.08,122.82L431.54,128.74L440,119.99L440,134.73L431.54,137.58L423.08,130.21L406.15,122.4L397.69,111.88L372.31,91.59L363.85,90.57L355.38,84.31L346.92,85.87L338.46,86.52L330,88.52L321.54,89.38L313.08,93.86L304.62,91.52L296.15,93.93L287.69,93.69L279.23,90.58L270.77,93.39L262.31,90.66L253.85,93.31L245.38,90.44L236.92,94.66L228.46,91.55L220,91.93L211.54,90.21L203.08,90.53L194.62,86.59L186.15,83.79L177.69,79.5L169.23,78.14L160.77,77.52L152.31,74.39L143.85,79.15L135.38,73.04L126.92,69.56L118.46,64.84L110,74.25L101.54,66.79L93.08,58.86L84.62,65.22L76.15,74.24L67.69,79.3L59.23,88.07L50.77,100.38L42.31,107.01L33.85,118.06L25.38,128.14L16.92,129.15L8.46,139.97L0,137.4Z" style="fill: rgb(255, 255, 191); fill-opacity: 1; stroke-width: 0;"/></g></g><g class="errorbars"/><g class="lines"><path class="js-line" d="M0,137.4L8.46,139.97L16.92,129.15L25.38,128.14L33.85,118.06L42.31,107.01L50.77,100.38L59.23,88.07L67.69,79.3L76.15,74.24L84.62,65.22L93.08,58.86L101.54,66.79L110,74.25L118.46,64.84L126.92,69.56L135.38,73.04L143.85,79.15L152.31,74.39L160.77,77.52L169.23,78.14L177.69,79.5L186.15,83.79L194.62,86.59L203.08,90.53L211.54,90.21L220,91.93L228.46,91.55L236.92,94.66L245.38,90.44L253.85,93.31L262.31,90.66L270.77,93.39L279.23,90.58L287.69,93.69L296.15,93.93L304.62,91.52L313.08,93.86L321.54,89.38L330,88.52L338.46,86.52L346.92,85.87L355.38,84.31L363.85,90.57L372.31,91.59L397.69,111.88L406.15,122.4L423.08,130.21L431.54,137.58L440,134.73" style="vector-effect: non-scaling-stroke; fill: none; stroke: rgb(0, 0, 0); stroke-opacity: 1; stroke-width: 1px; opacity: 1;"/></g><g class="points"/><g class="text"/></g><g class="trace scatter trace629130" style="stroke-miterlimit: 2;"><g class="fills"><g><path class="js-fill" d="M0,118.49L8.46,118.16L16.92,112.05L25.38,115.96L33.85,104.48L42.31,82.94L50.77,65.47L59.23,66.44L67.69,58.25L84.62,48.44L93.08,49.02L101.54,45.4L110,39.83L118.46,47.58L126.92,34.8L135.38,24.28L143.85,50.39L152.31,49.7L160.77,42.3L169.23,66.68L177.69,54.15L186.15,75.24L194.62,54.48L203.08,74.37L211.54,79.29L220,69.96L228.46,82.07L236.92,77.16L245.38,79.19L253.85,82.79L262.31,72.42L270.77,79.11L279.23,70.39L287.69,84.97L296.15,70.57L304.62,83.04L313.08,74.83L321.54,74.92L330,65.51L338.46,64.75L346.92,63.08L355.38,77.36L363.85,83.36L372.31,82.67L380.77,88.67L389.23,93.76L397.69,95.28L406.15,99.78L414.62,109.37L431.54,120.93L440,115.82L440,119.99L431.54,128.74L423.08,122.82L414.62,118.15L406.15,116.85L397.69,106.82L389.23,100.01L380.77,96.59L372.31,88.91L363.85,87.86L355.38,82.49L346.92,78.71L338.46,80.82L330,77.42L321.54,83.53L313.08,87.68L304.62,86.82L296.15,86.47L287.69,89.85L279.23,86.47L270.77,88.47L262.31,86.09L253.85,89.48L245.38,85.76L236.92,87.35L228.46,87.93L220,85.12L211.54,84.38L203.08,82.81L194.62,75.79L186.15,80.24L177.69,72.86L169.23,73.8L160.77,65.73L152.31,65.86L143.85,70.69L135.38,55.99L126.92,59.38L118.46,55.4L110,58.33L101.54,54.74L93.08,52.3L84.62,60.18L76.15,64.66L67.69,68.31L59.23,82.77L50.77,90.64L42.31,100.36L33.85,113.68L25.38,121.09L16.92,126.44L8.46,128.39L0,131.37Z" style="fill: rgb(252, 141, 89); fill-opacity: 1; stroke-width: 0;"/></g></g><g class="errorbars"/><g class="lines"><path class="js-line" d="M0,131.37L8.46,128.39L16.92,126.44L25.38,121.09L33.85,113.68L42.31,100.36L50.77,90.64L59.23,82.77L67.69,68.31L76.15,64.66L84.62,60.18L93.08,52.3L101.54,54.74L110,58.33L118.46,55.4L126.92,59.38L135.38,55.99L143.85,70.69L152.31,65.86L160.77,65.73L169.23,73.8L177.69,72.86L186.15,80.24L194.62,75.79L203.08,82.81L211.54,84.38L220,85.12L228.46,87.93L236.92,87.35L245.38,85.76L253.85,89.48L262.31,86.09L270.77,88.47L279.23,86.47L287.69,89.85L296.15,86.47L304.62,86.82L313.08,87.68L321.54,83.53L330,77.42L338.46,80.82L346.92,78.71L355.38,82.49L363.85,87.86L372.31,88.91L380.77,96.59L389.23,100.01L397.69,106.82L406.15,116.85L414.62,118.15L423.08,122.82L431.54,128.74L440,119.99" style="vector-effect: non-scaling-stroke; fill: none; stroke: rgb(0, 0, 0); stroke-opacity: 1; stroke-width: 0.5px; opacity: 1;"/></g><g class="points"/><g class="text"/></g><g class="trace scatter trace65d876" style="stroke-miterlimit: 2;"><g class="fills"/><g class="errorbars"/><g class="lines"><path class="js-line" d="M0,118.49L8.46,118.16L16.92,112.05L25.38,115.96L33.85,104.48L42.31,82.94L50.77,65.47L59.23,66.44L67.69,58.25L84.62,48.44L93.08,49.02L101.54,45.4L110,39.83L118.46,47.58L126.92,34.8L135.38,24.28L143.85,50.39L152.31,49.7L160.77,42.3L169.23,66.68L177.69,54.15L186.15,75.24L194.62,54.48L203.08,74.37L211.54,79.29L220,69.96L228.46,82.07L236.92,77.16L245.38,79.19L253.85,82.79L262.31,72.42L270.77,79.11L279.23,70.39L287.69,84.97L296.15,70.57L304.62,83.04L313.08,74.83L321.54,74.92L330,65.51L338.46,64.75L346.92,63.08L355.38,77.36L363.85,83.36L372.31,82.67L380.77,88.67L389.23,93.76L397.69,95.28L406.15,99.78L414.62,109.37L431.54,120.93L440,115.82" style="vector-effect: non-scaling-stroke; fill: none; stroke: rgb(0, 0, 0); stroke-opacity: 1; stroke-width: 0.25px; opacity: 1;"/></g><g class="points"/><g class="text"/></g><g class="trace scatter trace26593a" style="stroke-miterlimit: 2; opacity: 1;"><g class="fills"/><g class="errorbars"/><g class="lines"/><g class="points"><path class="point" transform="translate(203.08,49.6)" d="M4,0A4,4 0 1,1 0,-4A4,4 0 0,1 4,0ZM0,0.5L0.5,0L0,-0.5L-0.5,0Z" style="opacity: 1; stroke: rgb(0, 0, 0); stroke-opacity: 1; stroke-width: 1px; fill: none;"/><path class="point" transform="translate(211.54,86.8)" d="M4,0A4,4 0 1,1 0,-4A4,4 0 0,1 4,0ZM0,0.5L0.5,0L0,-0.5L-0.5,0Z" style="opacity: 1; stroke: rgb(0, 0, 0); stroke-opacity: 1; stroke-width: 1px; fill: none;"/><path class="point" transform="translate(220,80.6)" d="M4,0A4,4 0 1,1 0,-4A4,4 0 0,1 4,0ZM0,0.5L0.5,0L0,-0.5L-0.5,0Z" style="opacity: 1; stroke: rgb(0, 0, 0); stroke-opacity: 1; stroke-width: 1px; fill: none;"/><path class="point" transform="translate(228.46,80.6)" d="M4,0A4,4 0 1,1 0,-4A4,4 0 0,1 4,0ZM0,0.5L0.5,0L0,-0.5L-0.5,0Z" style="opacity: 1; stroke: rgb(0, 0, 0); stroke-opacity: 1; stroke-width: 1px; fill: none;"/></g><g class="text"/></g></g></g><g class="overplot"/><path class="xlines-above crisp" d="M0,0" style="fill: none;"/><path class="ylines-above crisp" d="M0,0" style="fill: none;"/><g class="overlines-above"/><g class="xaxislayer-above"/><g class="yaxislayer-above"><g class="y2tick"><text text-anchor="end" x="79" y="4.199999999999999" transform="translate(0,472.00000000000006)" style="font-family: 'Open Sans', verdana, arial, sans-serif; font-size: 12px; fill: rgb(42, 63, 95); fill-opacity: 1; white-space: pre; opacity: 1;">20</text></g><g class="y2tick"><text text-anchor="end" x="79" y="4.199999999999999" style="font-family: 'Open Sans', verdana, arial, sans-serif; font-size: 12px; fill: rgb(42, 63, 95); fill-opacity: 1; white-space: pre; opacity: 1;" transform="translate(0,410.00000000000006)">30</text></g><g class="y2tick"><text text-anchor="end" x="79" y="4.199999999999999" style="font-family: 'Open Sans', verdana, arial, sans-serif; font-size: 12px; fill: rgb(42, 63, 95); fill-opacity: 1; white-space: pre; opacity: 1;" transform="translate(0,348.00000000000006)">40</text></g></g><g class="overaxes-above"/></g><g class="subplot x3y3"><g class="layer-subplot"><g class="shapelayer"/><g class="imagelayer"/></g><g class="minor-gridlayer"><g class="x3"/><g class="y3"/></g><g class="gridlayer"><g class="x3"><path class="x3grid crisp" transform="translate(156.15,0)" d="M0,534v186" style="stroke: rgb(255, 255, 255); stroke-opacity: 1; stroke-width: 1px;"/><path class="x3grid crisp" transform="translate(240.77,0)" d="M0,534v186" style="stroke: rgb(255, 255, 255); stroke-opacity: 1; stroke-width: 1px;"/><path class="x3grid crisp" transform="translate(325.38,0)" d="M0,534v186" style="stroke: rgb(255, 255, 255); stroke-opacity: 1; stroke-width: 1px;"/><path class="x3grid crisp" transform="translate(410,0)" d="M0,534v186" style="stroke: rgb(255, 255, 255); stroke-opacity: 1; stroke-width: 1px;"/><path class="x3grid crisp" transform="translate(494.62,0)" d="M0,534v186" style="stroke: rgb(255, 255, 255); stroke-opacity: 1; stroke-width: 1px;"/></g><g class="y3"><path class="y3grid crisp" transform="translate(0,682.8)" d="M80,0h440" style="stroke: rgb(255, 255, 255); stroke-opacity: 1; stroke-width: 1px;"/><path class="y3grid crisp" transform="translate(0,645.6)" d="M80,0h440" style="stroke: rgb(255, 255, 255); stroke-opacity: 1; stroke-width: 1px;"/><path class="y3grid crisp" transform="translate(0,608.4)" d="M80,0h440" style="stroke: rgb(255, 255, 255); stroke-opacity: 1; stroke-width: 1px;"/><path class="y3grid crisp" transform="translate(0,571.2)" d="M80,0h440" style="stroke: rgb(255, 255, 255); stroke-opacity: 1; stroke-width: 1px;"/></g></g><g class="zerolinelayer"/><path class="xlines-below"/><path class="ylines-below"/><g class="overlines-below"/><g class="xaxislayer-below"/><g class="yaxislayer-below"/><g class="overaxes-below"/><g class="plot" transform="translate(80,534)" clip-path="url(#clipdd98fex3y3plot)"><g class="scatterlayer mlayer"><g class="trace scatter tracec6ceec" style="stroke-miterlimit: 2;"><g class="fills"><g><path class="js-fill" d="M0,122.14L8.46,127.79L16.92,123.73L25.38,120.28L33.85,118.43L42.31,105.64L50.77,97.43L59.23,93.49L67.69,77.68L76.15,74.64L84.62,69.08L93.08,62.29L101.54,59.99L118.46,55.65L126.92,50.97L135.38,52.23L143.85,50.54L152.31,43.8L160.77,40.77L169.23,37.79L177.69,38.09L186.15,35.88L194.62,36.36L203.08,35.87L211.54,36.79L220,35.96L228.46,36.44L253.85,38.15L262.31,37L279.23,38.62L287.69,38.62L304.62,39.19L313.08,41.68L321.54,40.77L330,42.4L338.46,45.05L346.92,48.81L355.38,50.4L363.85,60.74L372.31,67.22L380.77,76.9L389.23,84.88L397.69,98.22L406.15,104.62L414.62,105.69L423.08,116.25L431.54,118.59L440,135.3L440,143.45L431.54,134.32L423.08,131L406.15,114.76L397.69,112.75L389.23,96.65L380.77,89.03L363.85,66.12L355.38,53.84L346.92,53.79L338.46,49.24L330,45.87L321.54,44L313.08,47.27L304.62,42.27L296.15,42.04L287.69,40.41L279.23,40.22L270.77,42.58L253.85,40.7L245.38,41.57L228.46,38.19L220,37.3L211.54,38.15L203.08,39.31L194.62,41.45L186.15,38.2L177.69,44.72L169.23,41.49L160.77,47.11L152.31,50.78L143.85,56.99L135.38,58.81L126.92,62.1L118.46,64.56L101.54,69.41L93.08,69.62L84.62,81.68L76.15,87.73L67.69,86.12L59.23,108.09L50.77,121.89L42.31,130.73L33.85,141.21L25.38,139.98L16.92,132.2L8.46,147.49L0,125.72Z" style="fill: rgb(90, 180, 172); fill-opacity: 1; stroke-width: 0;"/></g></g><g class="errorbars"/><g class="lines"><path class="js-line" d="M0,125.72L8.46,147.49L16.92,132.2L25.38,139.98L33.85,141.21L42.31,130.73L50.77,121.89L59.23,108.09L67.69,86.12L76.15,87.73L84.62,81.68L93.08,69.62L101.54,69.41L118.46,64.56L126.92,62.1L135.38,58.81L143.85,56.99L152.31,50.78L160.77,47.11L169.23,41.49L177.69,44.72L186.15,38.2L194.62,41.45L203.08,39.31L211.54,38.15L220,37.3L228.46,38.19L245.38,41.57L253.85,40.7L270.77,42.58L279.23,40.22L287.69,40.41L296.15,42.04L304.62,42.27L313.08,47.27L321.54,44L330,45.87L338.46,49.24L346.92,53.79L355.38,53.84L363.85,66.12L380.77,89.03L389.23,96.65L397.69,112.75L406.15,114.76L423.08,131L431.54,134.32L440,143.45" style="vector-effect: non-scaling-stroke; fill: none; stroke: rgb(0, 0, 0); stroke-opacity: 1; stroke-width: 0.25px; opacity: 1;"/></g><g class="points"/><g class="text"/></g><g class="trace scatter trace8c5e79" style="stroke-miterlimit: 2;"><g class="fills"><g><path class="js-fill" d="M0,118.24L8.46,120.98L16.92,115.78L25.38,111.46L33.85,111.06L42.31,95.24L50.77,91.27L59.23,84.5L67.69,72.67L76.15,71.92L84.62,62.02L93.08,55.23L101.54,53.2L110,53.47L118.46,51.66L126.92,45.96L135.38,48.35L143.85,47.29L152.31,41.12L160.77,37.68L169.23,36.7L186.15,34.6L194.62,34.68L203.08,34.37L211.54,35.28L220,34.15L228.46,33.86L236.92,35.99L245.38,36.4L253.85,37L262.31,34.76L279.23,36.6L287.69,36.41L304.62,38.46L313.08,39.09L321.54,38.5L330,39.85L338.46,41.74L346.92,44.5L355.38,48.67L363.85,56.25L372.31,59.62L380.77,68.93L389.23,77.08L397.69,88.3L406.15,94.26L414.62,102.17L423.08,106.89L431.54,114.11L440,126.38L440,135.3L431.54,118.59L423.08,116.25L414.62,105.69L406.15,104.62L397.69,98.22L389.23,84.88L380.77,76.9L372.31,67.22L363.85,60.74L355.38,50.4L346.92,48.81L338.46,45.05L330,42.4L321.54,40.77L313.08,41.68L304.62,39.19L287.69,38.62L279.23,38.62L262.31,37L253.85,38.15L228.46,36.44L220,35.96L211.54,36.79L203.08,35.87L194.62,36.36L186.15,35.88L177.69,38.09L169.23,37.79L160.77,40.77L152.31,43.8L143.85,50.54L135.38,52.23L126.92,50.97L118.46,55.65L101.54,59.99L93.08,62.29L84.62,69.08L76.15,74.64L67.69,77.68L59.23,93.49L50.77,97.43L42.31,105.64L33.85,118.43L25.38,120.28L16.92,123.73L8.46,127.79L0,122.14Z" style="fill: rgb(245, 245, 245); fill-opacity: 1; stroke-width: 0;"/></g></g><g class="errorbars"/><g class="lines"><path class="js-line" d="M0,122.14L8.46,127.79L16.92,123.73L25.38,120.28L33.85,118.43L42.31,105.64L50.77,97.43L59.23,93.49L67.69,77.68L76.15,74.64L84.62,69.08L93.08,62.29L101.54,59.99L118.46,55.65L126.92,50.97L135.38,52.23L143.85,50.54L152.31,43.8L160.77,40.77L169.23,37.79L177.69,38.09L186.15,35.88L194.62,36.36L203.08,35.87L211.54,36.79L220,35.96L228.46,36.44L253.85,38.15L262.31,37L279.23,38.62L287.69,38.62L304.62,39.19L313.08,41.68L321.54,40.77L330,42.4L338.46,45.05L346.92,48.81L355.38,50.4L363.85,60.74L372.31,67.22L380.77,76.9L389.23,84.88L397.69,98.22L406.15,104.62L414.62,105.69L423.08,116.25L431.54,118.59L440,135.3" style="vector-effect: non-scaling-stroke; fill: none; stroke: rgb(0, 0, 0); stroke-opacity: 1; stroke-width: 0.5px; opacity: 1;"/></g><g class="points"/><g class="text"/></g><g class="trace scatter trace35638f" style="stroke-miterlimit: 2;"><g class="fills"><g><path class="js-fill" d="M0,110.67L8.46,113.63L16.92,111.51L25.38,106.36L33.85,99.29L42.31,87.6L50.77,80.81L59.23,72.58L67.69,65.95L76.15,60.34L84.62,53.8L93.08,51.95L101.54,48.49L110,48.71L118.46,45.59L135.38,41.72L143.85,42.18L160.77,34.84L169.23,33.41L177.69,32.23L186.15,32.98L194.62,31.6L203.08,32.24L211.54,33.07L220,32.91L228.46,32.2L236.92,33.61L245.38,34.67L253.85,34.2L262.31,32.66L270.77,33.98L279.23,33.48L287.69,35.32L304.62,37.11L313.08,36.97L321.54,36.02L330,36.58L338.46,37.24L346.92,39.62L355.38,46.31L363.85,51.63L372.31,53.48L380.77,65.13L406.15,88.42L414.62,92.97L423.08,94.82L431.54,107.45L440,119.68L440,126.38L431.54,114.11L423.08,106.89L414.62,102.17L406.15,94.26L397.69,88.3L389.23,77.08L380.77,68.93L372.31,59.62L363.85,56.25L355.38,48.67L346.92,44.5L338.46,41.74L330,39.85L321.54,38.5L313.08,39.09L304.62,38.46L287.69,36.41L279.23,36.6L262.31,34.76L253.85,37L245.38,36.4L236.92,35.99L228.46,33.86L220,34.15L211.54,35.28L203.08,34.37L194.62,34.68L186.15,34.6L169.23,36.7L160.77,37.68L152.31,41.12L143.85,47.29L135.38,48.35L126.92,45.96L118.46,51.66L110,53.47L101.54,53.2L93.08,55.23L84.62,62.02L76.15,71.92L67.69,72.67L59.23,84.5L50.77,91.27L42.31,95.24L33.85,111.06L25.38,111.46L16.92,115.78L8.46,120.98L0,118.24Z" style="fill: rgb(245, 245, 245); fill-opacity: 1; stroke-width: 0;"/></g></g><g class="errorbars"/><g class="lines"><path class="js-line" d="M0,118.24L8.46,120.98L16.92,115.78L25.38,111.46L33.85,111.06L42.31,95.24L50.77,91.27L59.23,84.5L67.69,72.67L76.15,71.92L84.62,62.02L93.08,55.23L101.54,53.2L110,53.47L118.46,51.66L126.92,45.96L135.38,48.35L143.85,47.29L152.31,41.12L160.77,37.68L169.23,36.7L186.15,34.6L194.62,34.68L203.08,34.37L211.54,35.28L220,34.15L228.46,33.86L236.92,35.99L245.38,36.4L253.85,37L262.31,34.76L279.23,36.6L287.69,36.41L304.62,38.46L313.08,39.09L321.54,38.5L330,39.85L338.46,41.74L346.92,44.5L355.38,48.67L363.85,56.25L372.31,59.62L380.77,68.93L389.23,77.08L397.69,88.3L406.15,94.26L414.62,102.17L423.08,106.89L431.54,114.11L440,126.38" style="vector-effect: non-scaling-stroke; fill: none; stroke: rgb(0, 0, 0); stroke-opacity: 1; stroke-width: 1px; opacity: 1;"/></g><g class="points"/><g class="text"/></g><g class="trace scatter trace73b44c" style="stroke-miterlimit: 2;"><g class="fills"><g><path class="js-fill" d="M0,100.97L8.46,101.54L16.92,97.08L25.38,90.48L33.85,85.64L42.31,76.31L50.77,63.28L59.23,64.43L67.69,55.73L76.15,43.2L84.62,45.5L93.08,41.82L101.54,35.21L110,38.12L118.46,37.05L126.92,40.22L135.38,32.13L152.31,32.26L160.77,31.04L169.23,30.44L177.69,26.08L186.15,28.67L194.62,25.42L203.08,27.61L211.54,31.21L236.92,31.82L245.38,33.44L253.85,32.37L262.31,32.17L270.77,31.41L279.23,29.04L287.69,34.22L296.15,34.57L304.62,36.15L313.08,30.94L321.54,28.97L330,28.15L338.46,30.07L346.92,30.75L355.38,40.39L363.85,43.27L372.31,48.24L380.77,55.97L397.69,71.22L406.15,75.87L414.62,74.44L423.08,87.28L431.54,94.27L440,99.61L440,119.68L431.54,107.45L423.08,94.82L414.62,92.97L406.15,88.42L380.77,65.13L372.31,53.48L363.85,51.63L355.38,46.31L346.92,39.62L338.46,37.24L330,36.58L321.54,36.02L313.08,36.97L304.62,37.11L287.69,35.32L279.23,33.48L270.77,33.98L262.31,32.66L253.85,34.2L245.38,34.67L236.92,33.61L228.46,32.2L220,32.91L211.54,33.07L203.08,32.24L194.62,31.6L186.15,32.98L177.69,32.23L169.23,33.41L160.77,34.84L143.85,42.18L135.38,41.72L118.46,45.59L110,48.71L101.54,48.49L93.08,51.95L84.62,53.8L76.15,60.34L67.69,65.95L59.23,72.58L50.77,80.81L42.31,87.6L33.85,99.29L25.38,106.36L16.92,111.51L8.46,113.63L0,110.67Z" style="fill: rgb(216, 179, 101); fill-opacity: 1; stroke-width: 0;"/></g></g><g class="errorbars"/><g class="lines"><path class="js-line" d="M0,110.67L8.46,113.63L16.92,111.51L25.38,106.36L33.85,99.29L42.31,87.6L50.77,80.81L59.23,72.58L67.69,65.95L76.15,60.34L84.62,53.8L93.08,51.95L101.54,48.49L110,48.71L118.46,45.59L135.38,41.72L143.85,42.18L160.77,34.84L169.23,33.41L177.69,32.23L186.15,32.98L194.62,31.6L203.08,32.24L211.54,33.07L220,32.91L228.46,32.2L236.92,33.61L245.38,34.67L253.85,34.2L262.31,32.66L270.77,33.98L279.23,33.48L287.69,35.32L304.62,37.11L313.08,36.97L321.54,36.02L330,36.58L338.46,37.24L346.92,39.62L355.38,46.31L363.85,51.63L372.31,53.48L380.77,65.13L406.15,88.42L414.62,92.97L423.08,94.82L431.54,107.45L440,119.68" style="vector-effect: non-scaling-stroke; fill: none; stroke: rgb(0, 0, 0); stroke-opacity: 1; stroke-width: 0.5px; opacity: 1;"/></g><g class="points"/><g class="text"/></g><g class="trace scatter trace89099f" style="stroke-miterlimit: 2;"><g class="fills"/><g class="errorbars"/><g class="lines"><path class="js-line" d="M0,100.97L8.46,101.54L16.92,97.08L25.38,90.48L33.85,85.64L42.31,76.31L50.77,63.28L59.23,64.43L67.69,55.73L76.15,43.2L84.62,45.5L93.08,41.82L101.54,35.21L110,38.12L118.46,37.05L126.92,40.22L135.38,32.13L152.31,32.26L160.77,31.04L169.23,30.44L177.69,26.08L186.15,28.67L194.62,25.42L203.08,27.61L211.54,31.21L236.92,31.82L245.38,33.44L253.85,32.37L262.31,32.17L270.77,31.41L279.23,29.04L287.69,34.22L296.15,34.57L304.62,36.15L313.08,30.94L321.54,28.97L330,28.15L338.46,30.07L346.92,30.75L355.38,40.39L363.85,43.27L372.31,48.24L380.77,55.97L397.69,71.22L406.15,75.87L414.62,74.44L423.08,87.28L431.54,94.27L440,99.61" style="vector-effect: non-scaling-stroke; fill: none; stroke: rgb(0, 0, 0); stroke-opacity: 1; stroke-width: 0.25px; opacity: 1;"/></g><g class="points"/><g class="text"/></g><g class="trace scatter trace9f1935" style="stroke-miterlimit: 2; opacity: 1;"><g class="fills"/><g class="errorbars"/><g class="lines"/><g class="points"><path class="point" transform="translate(203.08,22.32)" d="M4,0A4,4 0 1,1 0,-4A4,4 0 0,1 4,0ZM0,0.5L0.5,0L0,-0.5L-0.5,0Z" style="opacity: 1; stroke: rgb(0, 0, 0); stroke-opacity: 1; stroke-width: 1px; fill: none;"/><path class="point" transform="translate(211.54,37.2)" d="M4,0A4,4 0 1,1 0,-4A4,4 0 0,1 4,0ZM0,0.5L0.5,0L0,-0.5L-0.5,0Z" style="opacity: 1; stroke: rgb(0, 0, 0); stroke-opacity: 1; stroke-width: 1px; fill: none;"/><path class="point" transform="translate(220,29.76)" d="M4,0A4,4 0 1,1 0,-4A4,4 0 0,1 4,0ZM0,0.5L0.5,0L0,-0.5L-0.5,0Z" style="opacity: 1; stroke: rgb(0, 0, 0); stroke-opacity: 1; stroke-width: 1px; fill: none;"/><path class="point" transform="translate(228.46,29.76)" d="M4,0A4,4 0 1,1 0,-4A4,4 0 0,1 4,0ZM0,0.5L0.5,0L0,-0.5L-0.5,0Z" style="opacity: 1; stroke: rgb(0, 0, 0); stroke-opacity: 1; stroke-width: 1px; fill: none;"/></g><g class="text"/></g></g></g><g class="overplot"/><path class="xlines-above crisp" d="M0,0" style="fill: none;"/><path class="ylines-above crisp" d="M0,0" style="fill: none;"/><g class="overlines-above"/><g class="xaxislayer-above"><g class="x3tick"><text text-anchor="middle" x="0" y="733" transform="translate(156.15,0)" style="font-family: 'Open Sans', verdana, arial, sans-serif; font-size: 12px; fill: rgb(42, 63, 95); fill-opacity: 1; white-space: pre; opacity: 1;">10</text></g><g class="x3tick"><text text-anchor="middle" x="0" y="733" style="font-family: 'Open Sans', verdana, arial, sans-serif; font-size: 12px; fill: rgb(42, 63, 95); fill-opacity: 1; white-space: pre; opacity: 1;" transform="translate(240.77,0)">20</text></g><g class="x3tick"><text text-anchor="middle" x="0" y="733" style="font-family: 'Open Sans', verdana, arial, sans-serif; font-size: 12px; fill: rgb(42, 63, 95); fill-opacity: 1; white-space: pre; opacity: 1;" transform="translate(325.38,0)">30</text></g><g class="x3tick"><text text-anchor="middle" x="0" y="733" style="font-family: 'Open Sans', verdana, arial, sans-serif; font-size: 12px; fill: rgb(42, 63, 95); fill-opacity: 1; white-space: pre; opacity: 1;" transform="translate(410,0)">40</text></g><g class="x3tick"><text text-anchor="middle" x="0" y="733" style="font-family: 'Open Sans', verdana, arial, sans-serif; font-size: 12px; fill: rgb(42, 63, 95); fill-opacity: 1; white-space: pre; opacity: 1;" transform="translate(494.62,0)">50</text></g></g><g class="yaxislayer-above"><g class="y3tick"><text text-anchor="end" x="79" y="4.199999999999999" transform="translate(0,720)" style="font-family: 'Open Sans', verdana, arial, sans-serif; font-size: 12px; fill: rgb(42, 63, 95); fill-opacity: 1; white-space: pre; opacity: 1;">5</text></g><g class="y3tick"><text text-anchor="end" x="79" y="4.199999999999999" style="font-family: 'Open Sans', verdana, arial, sans-serif; font-size: 12px; fill: rgb(42, 63, 95); fill-opacity: 1; white-space: pre; opacity: 1;" transform="translate(0,682.8)">10</text></g><g class="y3tick"><text text-anchor="end" x="79" y="4.199999999999999" style="font-family: 'Open Sans', verdana, arial, sans-serif; font-size: 12px; fill: rgb(42, 63, 95); fill-opacity: 1; white-space: pre; opacity: 1;" transform="translate(0,645.6)">15</text></g><g class="y3tick"><text text-anchor="end" x="79" y="4.199999999999999" style="font-family: 'Open Sans', verdana, arial, sans-serif; font-size: 12px; fill: rgb(42, 63, 95); fill-opacity: 1; white-space: pre; opacity: 1;" transform="translate(0,608.4)">20</text></g><g class="y3tick"><text text-anchor="end" x="79" y="4.199999999999999" style="font-family: 'Open Sans', verdana, arial, sans-serif; font-size: 12px; fill: rgb(42, 63, 95); fill-opacity: 1; white-space: pre; opacity: 1;" transform="translate(0,571.2)">25</text></g><g class="y3tick"><text text-anchor="end" x="79" y="4.199999999999999" style="font-family: 'Open Sans', verdana, arial, sans-serif; font-size: 12px; fill: rgb(42, 63, 95); fill-opacity: 1; white-space: pre; opacity: 1;" transform="translate(0,534)">30</text></g></g><g class="overaxes-above"/></g></g><g class="polarlayer"/><g class="smithlayer"/><g class="ternarylayer"/><g class="geolayer"/><g class="funnelarealayer"/><g class="pielayer"/><g class="iciclelayer"/><g class="treemaplayer"/><g class="sunburstlayer"/><g class="glimages"/><defs id="topdefs-dd98fe"><g class="clips"/></defs><g class="layer-above"><g class="imagelayer"/><g class="shapelayer"/></g><g class="infolayer"><g class="g-gtitle"><text class="gtitle" x="30" y="50" text-anchor="start" dy="0em" style="font-family: 'Open Sans', verdana, arial, sans-serif; font-size: 17px; fill: rgb(42, 63, 95); opacity: 1; font-weight: normal; white-space: pre;">Climatology and S2S forecast for Narail</text></g><g class="g-xtitle"/><g class="g-x2title"/><g class="g-x3title"/><g class="g-ytitle"><text class="ytitle" transform="rotate(-90,34.16875,193)" x="34.16875" y="193" text-anchor="middle" style="font-family: 'Open Sans', verdana, arial, sans-serif; font-size: 14px; fill: rgb(42, 63, 95); opacity: 1; font-weight: normal; white-space: pre;">[mm]</text></g><g class="g-y2title"><text class="y2title" transform="rotate(-90,40.840625,410.00000000000006)" x="40.840625" y="410.00000000000006" text-anchor="middle" style="font-family: 'Open Sans', verdana, arial, sans-serif; font-size: 14px; fill: rgb(42, 63, 95); opacity: 1; font-weight: normal; white-space: pre;">[C]</text></g><g class="g-y3title"><text class="y3title" transform="rotate(-90,40.840625,627)" x="40.840625" y="627" text-anchor="middle" style="font-family: 'Open Sans', verdana, arial, sans-serif; font-size: 14px; fill: rgb(42, 63, 95); opacity: 1; font-weight: normal; white-space: pre;">[C]</text></g><g class="annotation" data-index="0" style="opacity: 1;"><g class="annotation-text-g" transform="rotate(0,300,89.5)"><g class="cursor-pointer" transform="translate(237,79)"><rect class="bg" x="0.5" y="0.5" width="126" height="20" style="stroke-width: 1px; stroke: rgb(0, 0, 0); stroke-opacity: 0; fill: rgb(0, 0, 0); fill-opacity: 0;"/><text class="annotation-text" text-anchor="middle" x="63.359375" y="16" style="font-family: 'Open Sans', verdana, arial, sans-serif; font-size: 16px; fill: rgb(42, 63, 95); fill-opacity: 1; white-space: pre;">Precipitation sum</text></g></g></g><g class="annotation" data-index="1" style="opacity: 1;"><g class="annotation-text-g" transform="rotate(0,300,306.50000000000006)"><g class="cursor-pointer" transform="translate(196,296)"><rect class="bg" x="0.5" y="0.5" width="208" height="20" style="stroke-width: 1px; stroke: rgb(0, 0, 0); stroke-opacity: 0; fill: rgb(0, 0, 0); fill-opacity: 0;"/><text class="annotation-text" text-anchor="middle" x="104.265625" y="16" style="font-family: 'Open Sans', verdana, arial, sans-serif; font-size: 16px; fill: rgb(42, 63, 95); fill-opacity: 1; white-space: pre;">Mean maximum temperature</text></g></g></g><g class="annotation" data-index="2" style="opacity: 1;"><g class="annotation-text-g" transform="rotate(0,300,523.5)"><g class="cursor-pointer" transform="translate(198,513)"><rect class="bg" x="0.5" y="0.5" width="203" height="20" style="stroke-width: 1px; stroke: rgb(0, 0, 0); stroke-opacity: 0; fill: rgb(0, 0, 0); fill-opacity: 0;"/><text class="annotation-text" text-anchor="middle" x="102.046875" y="16" style="font-family: 'Open Sans', verdana, arial, sans-serif; font-size: 16px; fill: rgb(42, 63, 95); fill-opacity: 1; white-space: pre;">Mean minimum temperature</text></g></g></g><g class="annotation" data-index="3" style="opacity: 1;"><g class="annotation-text-g" transform="rotate(0,300,760.5)"><g class="cursor-pointer" transform="translate(277,750)"><rect class="bg" x="0.5" y="0.5" width="45" height="20" style="stroke-width: 1px; stroke: rgb(0, 0, 0); stroke-opacity: 0; fill: rgb(0, 0, 0); fill-opacity: 0;"/><text class="annotation-text" text-anchor="middle" x="22.3125" y="16" style="font-family: 'Open Sans', verdana, arial, sans-serif; font-size: 16px; fill: rgb(42, 63, 95); fill-opacity: 1; white-space: pre;">Week</text></g></g></g></g></svg>