<svg class="main-svg" xmlns="http://www.w3.org/2000/svg" xmlns:xlink="http://www.w3.org/1999/xlink" width="600" height="800" style="" viewBox="0 0 600 800"><rect x="0" y="0" width="600" height="800" style="fill: rgb(255, 255, 255); fill-opacity: 1;"/><defs id="defs-ceded6"><g class="clips"><clipPath id="clipceded6xyplot" class="plotclip"><rect width="440" height="186.00000000000003"/></clipPath><clipPath id="clipceded6x2y2plot" class="plotclip"><rect width="440" height="185.99999999999997"/></clipPath><clipPath id="clipceded6x3y3plot" class="plotclip"><rect width="440" height="186"/></clipPath><clipPath class="axesclip" id="clipceded6x"><rect x="80" y="0" width="440" height="800"/></clipPath><clipPath class="axesclip" id="clipceded6y"><rect x="0" y="100" width="600" height="186.00000000000003"/></clipPath><clipPath class="axesclip" id="clipceded6xy"><rect x="80" y="100" width="440" height="186.00000000000003"/></clipPath><clipPath class="axesclip" id="clipceded6y2"><rect x="0" y="317.00000000000006" width="600" height="185.99999999999997"/></clipPath><clipPath class="axesclip" id="clipceded6xy2"><rect x="80" y="317.00000000000006" width="440" height="185.99999999999997"/></clipPath><clipPath class="axesclip" id="clipceded6y3"><rect x="0" y="534" width="600" height="186"/></clipPath><clipPath class="axesclip" id="clipceded6xy3"><rect x="80" y="534" width="440" height="186"/></clipPath><clipPath class="axesclip" id="clipceded6x2"><rect x="80" y="0" width="440" height="800"/></clipPath><clipPath class="axesclip" id="clipceded6x2y"><rect x="80" y="100" width="440" height="186.00000000000003"/></clipPath><clipPath class="axesclip" id="clipceded6x2y2"><rect x="80" y="317.00000000000006" width="440" height="185.99999999999997"/></clipPath><clipPath class="axesclip" id="clipceded6x2y3"><rect x="80" y="534" width="440" height="186"/></clipPath><clipPath class="axesclip" id="clipceded6x3"><rect x="80" y="0" width="440" height="800"/></clipPath><clipPath class="axesclip" id="clipceded6x3y"><rect x="80" y="100" width="440" height="186.00000000000003"/></clipPath><clipPath class="axesclip" id="clipceded6x3y2"><rect x="80" y="317.00000000000006" width="440" height="185.99999999999997"/></clipPath><clipPath class="axesclip" id="clipceded6x3y3"><rect x="80" y="534" width="440" height="186"/></clipPath></g><g class="gradients"/><g class="patterns"/></defs><g class="bglayer"><rect class="bg" x="80" y="100" width="440" height="186.00000000000003" style="fill: rgb(229, 236, 246); fill-opacity: 1; stroke-width: 0;"/><rect class="bg" x="80" y="317.00000000000006" width="440" height="185.99999999999997" style="fill: rgb(229, 236, 246); fill-opacity: 1; stroke-width: 0;"/><rect class="bg" x="80" y="534" width="440" height="186" style="fill: rgb(229, 236, 246); fill-opacity: 1; stroke-width: 0;"/></g><g class="layer-below"><g class="imagelayer"/><g class="shapelayer"/></g><g class="cartesianlayer"><g class="subplot xy"><g class="layer-subplot"><g class="shapelayer"/><g class="imagelayer"/></g><g class="minor-gridlayer"><g class="x"/><g class="y"/></g><g class="gridlayer"><g class="x"><path class="xgrid crisp" transform="translate(156.15,0)" d="M0,100v186.00000000000003" style="stroke: rgb(255, 255, 255); stroke-opacity: 1; stroke-width: 1px;"/><path class="xgrid crisp" transform="translate(240.77,0)" d="M0,100v186.00000000000003" style="stroke: rgb(255, 255, 255); stroke-opacity: 1; stroke-width: 1px;"/><path class="xgrid crisp" transform="translate(325.38,0)" d="M0,100v186.00000000000003" style="stroke: rgb(255, 255, 255); stroke-opacity: 1; stroke-width: 1px;"/><path class="xgrid crisp" transform="translate(410,0)" d="M0,100v186.00000000000003" style="stroke: rgb(255, 255, 255); stroke-opacity: 1; stroke-width: 1px;"/><path class="xgrid crisp" transform="translate(494.62,0)" d="M0,100v186.00000000000003" style="stroke: rgb(255, 255, 255); stroke-opacity: 1; stroke-width: 1px;"/></g><g class="y"><path class="ygrid crisp" transform="translate(0,248.8)" d="M80,0h440" style="stroke: rgb(255, 255, 255); stroke-opacity: 1; stroke-width: 1px;"/><path class="ygrid crisp" transform="translate(0,211.6)" d="M80,0h440" style="stroke: rgb(255, 255, 255); stroke-opacity: 1; stroke-width: 1px;"/><path class="ygrid crisp" transform="translate(0,174.4)" d="M80,0h440" style="stroke: rgb(255, 255, 255); stroke-opacity: 1; stroke-width: 1px;"/><path class="ygrid crisp" transform="translate(0,137.2)" d="M80,0h440" style="stroke: rgb(255, 255, 255); stroke-opacity: 1; stroke-width: 1px;"/></g></g><g class="zerolinelayer"><path class="yzl zl crisp" transform="translate(0,286)" d="M80,0h440" style="stroke: rgb(255, 255, 255); stroke-opacity: 1; stroke-width: 2px;"/></g><path class="xlines-below"/><path class="ylines-below"/><g class="overlines-below"/><g class="xaxislayer-below"/><g class="yaxislayer-below"/><g class="overaxes-below"/><g class="plot" transform="translate(80,100)" clip-path="url(#clipceded6xyplot)"><g class="scatterlayer mlayer"><g class="trace scatter trace3a6111" style="stroke-miterlimit: 2;"><g class="fills"><g><path class="js-fill" d="M0,186L126.92,185.98L135.38,183.92L143.85,178.91L152.31,183.83L160.77,181.04L169.23,164.94L177.69,177.6L186.15,165.23L194.62,169.32L203.08,169.54L211.54,155.83L220,165.01L228.46,161.79L236.92,155.2L245.38,159.01L253.85,169.02L262.31,151.38L270.77,153.56L279.23,174.36L287.69,177.12L296.15,170.12L304.62,168.66L313.08,170.44L321.54,177.82L330,183.7L338.46,177.36L346.92,185.28L355.38,186L440,186L440,186L330,186L321.54,185.73L313.08,180.13L304.62,185.6L296.15,183.41L287.69,185.23L270.77,172.77L262.31,175.18L253.85,181.21L245.38,185.51L236.92,176.83L228.46,173.55L220,180.64L211.54,185.5L203.08,183.86L194.62,185.8L0,186Z" style="fill: rgb(224, 236, 244); fill-opacity: 1; stroke-width: 0;"/></g></g><g class="errorbars"/><g class="lines"><path class="js-line" d="M0,186L194.62,185.8L203.08,183.86L211.54,185.5L220,180.64L228.46,173.55L236.92,176.83L245.38,185.51L253.85,181.21L262.31,175.18L270.77,172.77L287.69,185.23L296.15,183.41L304.62,185.6L313.08,180.13L321.54,185.73L330,186L440,186" style="vector-effect: non-scaling-stroke; fill: none; stroke: rgb(0, 0, 0); stroke-opacity: 1; stroke-width: 0.25px; opacity: 1;"/></g><g class="points"/><g class="text"/></g><g class="trace scatter tracebed9e9" style="stroke-miterlimit: 2;"><g class="fills"><g><path class="js-fill" d="M0,186L50.77,185.44L59.23,184.79L67.69,186L76.15,186L101.54,185.14L110,182.16L118.46,182.3L126.92,183.53L135.38,175.4L143.85,172.11L152.31,170.53L160.77,155.83L169.23,148.68L177.69,156.68L186.15,148.17L194.62,148.67L203.08,141.15L211.54,134.7L220,147.55L228.46,137.36L236.92,139.01L245.38,150.81L253.85,150.27L262.31,143.38L270.77,144.59L279.23,161.64L287.69,165.47L296.15,160.85L304.62,149.13L313.08,161.33L321.54,161.93L330,164.57L338.46,166.77L346.92,174.29L355.38,186L363.85,185.79L397.69,186L406.15,186L440,186L440,186L355.38,186L346.92,185.28L338.46,177.36L330,183.7L321.54,177.82L313.08,170.44L304.62,168.66L296.15,170.12L287.69,177.12L279.23,174.36L270.77,153.56L262.31,151.38L253.85,169.02L245.38,159.01L236.92,155.2L228.46,161.79L220,165.01L211.54,155.83L203.08,169.54L194.62,169.32L186.15,165.23L177.69,177.6L169.23,164.94L160.77,181.04L152.31,183.83L143.85,178.91L135.38,183.92L126.92,185.98L0,186Z" style="fill: rgb(158, 188, 218); fill-opacity: 1; stroke-width: 0;"/></g></g><g class="errorbars"/><g class="lines"><path class="js-line" d="M0,186L126.92,185.98L135.38,183.92L143.85,178.91L152.31,183.83L160.77,181.04L169.23,164.94L177.69,177.6L186.15,165.23L194.62,169.32L203.08,169.54L211.54,155.83L220,165.01L228.46,161.79L236.92,155.2L245.38,159.01L253.85,169.02L262.31,151.38L270.77,153.56L279.23,174.36L287.69,177.12L296.15,170.12L304.62,168.66L313.08,170.44L321.54,177.82L330,183.7L338.46,177.36L346.92,185.28L355.38,186L440,186" style="vector-effect: non-scaling-stroke; fill: none; stroke: rgb(0, 0, 0); stroke-opacity: 1; stroke-width: 0.5px; opacity: 1;"/></g><g class="points"/><g class="text"/></g><g class="trace scatter trace394b50" style="stroke-miterlimit: 2;"><g class="fills"><g><path class="js-fill" d="M0,185.86L33.85,185.8L42.31,185.28L50.77,180.84L59.23,183.07L67.69,184.9L76.15,183.94L84.62,184.16L93.08,181.52L101.54,165.93L110,158.56L118.46,161.44L126.92,170.64L143.85,155.04L152.31,154.77L160.77,142.89L169.23,136.84L177.69,132L186.15,105.46L194.62,128.57L203.08,119.73L211.54,104.91L220,99.87L228.46,110.54L236.92,81.87L245.38,131.3L253.85,109.81L262.31,134.64L270.77,109.68L279.23,151.56L287.69,150.34L296.15,135.82L304.62,129.21L313.08,132.19L321.54,139.82L330,150.84L338.46,144L346.92,160.28L355.38,131.59L363.85,179L372.31,184.71L380.77,183.91L389.23,186L440,186L440,186L406.15,186L397.69,186L363.85,185.79L355.38,186L346.92,174.29L338.46,166.77L330,164.57L321.54,161.93L313.08,161.33L304.62,149.13L296.15,160.85L287.69,165.47L279.23,161.64L270.77,144.59L262.31,143.38L253.85,150.27L245.38,150.81L236.92,139.01L228.46,137.36L220,147.55L211.54,134.7L203.08,141.15L194.62,148.67L186.15,148.17L177.69,156.68L169.23,148.68L160.77,155.83L152.31,170.53L143.85,172.11L135.38,175.4L126.92,183.53L118.46,182.3L110,182.16L101.54,185.14L76.15,186L67.69,186L59.23,184.79L50.77,185.44L0,186Z" style="fill: rgb(158, 188, 218); fill-opacity: 1; stroke-width: 0;"/></g></g><g class="errorbars"/><g class="lines"><path class="js-line" d="M0,186L50.77,185.44L59.23,184.79L67.69,186L76.15,186L101.54,185.14L110,182.16L118.46,182.3L126.92,183.53L135.38,175.4L143.85,172.11L152.31,170.53L160.77,155.83L169.23,148.68L177.69,156.68L186.15,148.17L194.62,148.67L203.08,141.15L211.54,134.7L220,147.55L228.46,137.36L236.92,139.01L245.38,150.81L253.85,150.27L262.31,143.38L270.77,144.59L279.23,161.64L287.69,165.47L296.15,160.85L304.62,149.13L313.08,161.33L321.54,161.93L330,164.57L338.46,166.77L346.92,174.29L355.38,186L363.85,185.79L397.69,186L406.15,186L440,186" style="vector-effect: non-scaling-stroke; fill: none; stroke: rgb(0, 0, 0); stroke-opacity: 1; stroke-width: 1px; opacity: 1;"/></g><g class="points"/><g class="text"/></g><g class="trace scatter tracecef6c6" style="stroke-miterlimit: 2;"><g class="fills"><g><path class="js-fill" d="M0,185.81L25.38,185.99L33.85,185.62L42.31,184.21L50.77,174.85L59.23,178.9L67.69,183.97L76.15,183.89L84.62,182.02L93.08,177.83L101.54,149.48L110,118.63L118.46,150.38L126.92,160.46L135.38,143.98L143.85,120.88L152.31,144.99L160.77,130.16L169.23,99L177.69,90.72L186.15,70.78L194.62,70.45L203.08,59.76L211.54,51.55L220,27.5L228.46,34.59L236.92,-3.2L245.38,116.24L253.85,87.31L262.31,111.89L270.77,90.84L279.23,135.27L287.69,111.07L296.15,89.55L304.62,108.15L313.08,117.02L321.54,86.15L330,141.48L338.46,100.02L346.92,139.2L355.38,59.72L363.85,177.93L372.31,182.78L380.77,182.27L389.23,186L440,186L440,186L389.23,186L380.77,183.91L372.31,184.71L363.85,179L355.38,131.59L346.92,160.28L338.46,144L330,150.84L321.54,139.82L313.08,132.19L304.62,129.21L296.15,135.82L287.69,150.34L279.23,151.56L270.77,109.68L262.31,134.64L253.85,109.81L245.38,131.3L236.92,81.87L228.46,110.54L220,99.87L211.54,104.91L203.08,119.73L194.62,128.57L186.15,105.46L177.69,132L169.23,136.84L160.77,142.89L152.31,154.77L143.85,155.04L126.92,170.64L118.46,161.44L110,158.56L101.54,165.93L93.08,181.52L84.62,184.16L76.15,183.94L67.69,184.9L59.23,183.07L50.77,180.84L42.31,185.28L33.85,185.8L0,185.86Z" style="fill: rgb(136, 86, 167); fill-opacity: 1; stroke-width: 0;"/></g></g><g class="errorbars"/><g class="lines"><path class="js-line" d="M0,185.86L33.85,185.8L42.31,185.28L50.77,180.84L59.23,183.07L67.69,184.9L76.15,183.94L84.62,184.16L93.08,181.52L101.54,165.93L110,158.56L118.46,161.44L126.92,170.64L143.85,155.04L152.31,154.77L160.77,142.89L169.23,136.84L177.69,132L186.15,105.46L194.62,128.57L203.08,119.73L211.54,104.91L220,99.87L228.46,110.54L236.92,81.87L245.38,131.3L253.85,109.81L262.31,134.64L270.77,109.68L279.23,151.56L287.69,150.34L296.15,135.82L304.62,129.21L313.08,132.19L321.54,139.82L330,150.84L338.46,144L346.92,160.28L355.38,131.59L363.85,179L372.31,184.71L380.77,183.91L389.23,186L440,186" style="vector-effect: non-scaling-stroke; fill: none; stroke: rgb(0, 0, 0); stroke-opacity: 1; stroke-width: 0.5px; opacity: 1;"/></g><g class="points"/><g class="text"/></g><g class="trace scatter tracec7a651" style="stroke-miterlimit: 2;"><g class="fills"/><g class="errorbars"/><g class="lines"><path class="js-line" d="M0,185.81L25.38,185.99L33.85,185.62L42.31,184.21L50.77,174.85L59.23,178.9L67.69,183.97L76.15,183.89L84.62,182.02L93.08,177.83L101.54,149.48L110,118.63L118.46,150.38L126.92,160.46L135.38,143.98L143.85,120.88L152.31,144.99L160.77,130.16L169.23,99L177.69,90.72L186.15,70.78L194.62,70.45L203.08,59.76L211.54,51.55L220,27.5L228.46,34.59L236.92,-3.2L245.38,116.24L253.85,87.31L262.31,111.89L270.77,90.84L279.23,135.27L287.69,111.07L296.15,89.55L304.62,108.15L313.08,117.02L321.54,86.15L330,141.48L338.46,100.02L346.92,139.2L355.38,59.72L363.85,177.93L372.31,182.78L380.77,182.27L389.23,186L440,186" style="vector-effect: non-scaling-stroke; fill: none; stroke: rgb(0, 0, 0); stroke-opacity: 1; stroke-width: 0.25px; opacity: 1;"/></g><g class="points"/><g class="text"/></g><g class="trace scatter tracef2dc14" style="stroke-miterlimit: 2; opacity: 1;"><g class="fills"/><g class="errorbars"/><g class="lines"/><g class="points"><path class="point" transform="translate(152.31,170.38)" d="M4,0A4,4 0 1,1 0,-4A4,4 0 0,1 4,0ZM0,0.5L0.5,0L0,-0.5L-0.5,0Z" style="opacity: 1; stroke: rgb(0, 0, 0); stroke-opacity: 1; stroke-width: 1px; fill: none;"/><path class="point" transform="translate(160.77,164.42)" d="M4,0A4,4 0 1,1 0,-4A4,4 0 0,1 4,0ZM0,0.5L0.5,0L0,-0.5L-0.5,0Z" style="opacity: 1; stroke: rgb(0, 0, 0); stroke-opacity: 1; stroke-width: 1px; fill: none;"/><path class="point" transform="translate(169.23,119.04)" d="M4,0A4,4 0 1,1 0,-4A4,4 0 0,1 4,0ZM0,0.5L0.5,0L0,-0.5L-0.5,0Z" style="opacity: 1; stroke: rgb(0, 0, 0); stroke-opacity: 1; stroke-width: 1px; fill: none;"/><path class="point" transform="translate(177.69,119.04)" d="M4,0A4,4 0 1,1 0,-4A4,4 0 0,1 4,0ZM0,0.5L0.5,0L0,-0.5L-0.5,0Z" style="opacity: 1; stroke: rgb(0, 0, 0); stroke-opacity: 1; stroke-width: 1px; fill: none;"/></g><g class="text"/></g></g></g><g class="overplot"/><path class="xlines-above crisp" d="M0,0" style="fill: none;"/><path class="ylines-above crisp" d="M0,0" style="fill: none;"/><g class="overlines-above"/><g class="xaxislayer-above"/><g class="yaxislayer-above"><g class="ytick"><text text-anchor="end" x="79" y="4.199999999999999" transform="translate(0,286)" style="font-family: 'Open Sans', verdana, arial, sans-serif; font-size: 12px; fill: rgb(42, 63, 95); fill-opacity: 1; white-space: pre; opacity: 1;">0</text></g><g class="ytick"><text text-anchor="end" x="79" y="4.199999999999999" style="font-family: 'Open Sans', verdana, arial, sans-serif; font-size: 12px; fill: rgb(42, 63, 95); fill-opacity: 1; white-space: pre; opacity: 1;" transform="translate(0,248.8)">50</text></g><g class="ytick"><text text-anchor="end" x="79" y="4.199999999999999" style="font-family: 'Open Sans', verdana, arial, sans-serif; font-size: 12px; fill: rgb(42, 63, 95); fill-opacity: 1; white-space: pre; opacity: 1;" transform="translate(0,211.6)">100</text></g><g class="ytick"><text text-anchor="end" x="79" y="4.199999999999999" style="font-family: 'Open Sans', verdana, arial, sans-serif; font-size: 12px; fill: rgb(42, 63, 95); fill-opacity: 1; white-space: pre; opacity: 1;" transform="translate(0,174.4)">150</text></g><g class="ytick"><text text-anchor="end" x="79" y="4.199999999999999" style="font-family: 'Open Sans', verdana, arial, sans-serif; font-size: 12px; fill: rgb(42, 63, 95); fill-opacity: 1; white-space: pre; opacity: 1;" transform="translate(0,137.2)">200</text></g><g class="ytick"><text text-anchor="end" x="79" y="4.199999999999999" style="font-family: 'Open Sans', verdana, arial, sans-serif; font-size: 12px; fill: rgb(42, 63, 95); fill-opacity: 1; white-space: pre; opacity: 1;" transform="translate(0,100)">250</text></g></g><g class="overaxes-above"/></g><g class="subplot x2y2"><g class="layer-subplot"><g class="shapelayer"/><g class="imagelayer"/></g><g class="minor-gridlayer"><g class="x2"/><g class="y2"/></g><g class="gridlayer"><g class="x2"><path class="x2grid crisp" transform="translate(156.15,0)" d="M0,317.00000000000006v185.99999999999997" style="stroke: rgb(255, 255, 255); stroke-opacity: 1; stroke-width: 1px;"/><path class="x2grid crisp" transform="translate(240.77,0)" d="M0,317.00000000000006v185.99999999999997" style="stroke: rgb(255, 255, 255); stroke-opacity: 1; stroke-width: 1px;"/><path class="x2grid crisp" transform="translate(325.38,0)" d="M0,317.00000000000006v185.99999999999997" style="stroke: rgb(255, 255, 255); stroke-opacity: 1; stroke-width: 1px;"/><path class="x2grid crisp" transform="translate(410,0)" d="M0,317.00000000000006v185.99999999999997" style="stroke: rgb(255, 255, 255); stroke-opacity: 1; stroke-width: 1px;"/><path class="x2grid crisp" transform="translate(494.62,0)" d="M0,317.00000000000006v185.99999999999997" style="stroke: rgb(255, 255, 255); stroke-opacity: 1; stroke-width: 1px;"/></g><g class="y2"><path class="y2grid crisp" transform="translate(0,472.00000000000006)" d="M80,0h440" style="stroke: rgb(255, 255, 255); stroke-opacity: 1; stroke-width: 1px;"/><path class="y2grid crisp" transform="translate(0,410.00000000000006)" d="M80,0h440" style="stroke: rgb(255, 255, 255); stroke-opacity: 1; stroke-width: 1px;"/><path class="y2grid crisp" transform="translate(0,348.00000000000006)" d="M80,0h440" style="stroke: rgb(255, 255, 255); stroke-opacity: 1; stroke-width: 1px;"/></g></g><g class="zerolinelayer"/><path class="xlines-below"/><path class="ylines-below"/><g class="overlines-below"/><g class="xaxislayer-below"/><g class="yaxislayer-below"/><g class="overaxes-below"/><g class="plot" transform="translate(80,317.00000000000006)" clip-path="url(#clipceded6x2y2plot)"><g class="scatterlayer mlayer"><g class="trace scatter trace431370" style="stroke-miterlimit: 2;"><g class="fills"><g><path class="js-fill" d="M0,148.45L8.46,150.71L16.92,137.6L25.38,133.55L33.85,125.58L42.31,115.68L50.77,110.7L67.69,88.79L76.15,88.08L84.62,72.25L93.08,69.5L101.54,75.9L110,80.78L118.46,82.85L126.92,78.1L135.38,82.01L143.85,88.08L152.31,83.72L160.77,85.46L169.23,82.28L177.69,86.37L186.15,89.59L194.62,94.41L211.54,93.14L220,95.63L228.46,92.88L236.92,96.48L245.38,93.12L253.85,94.17L262.31,94.8L270.77,97.39L279.23,96.96L287.69,95.34L296.15,96.6L304.62,94.75L313.08,97.91L321.54,97.07L330,93.85L338.46,94.7L346.92,93.46L355.38,90.78L363.85,94.16L372.31,98.58L380.77,103.79L389.23,111.82L406.15,132.46L414.62,133.71L431.54,146.89L440,150.42L440,152.58L431.54,152.08L423.08,156.41L414.62,139.92L406.15,146.6L397.69,132.44L389.23,119.99L380.77,112.66L372.31,109.28L363.85,97.83L355.38,101.14L346.92,114.12L338.46,101.06L330,102.46L321.54,105.59L313.08,112.15L304.62,105.21L296.15,103.84L287.69,99.17L279.23,103.61L270.77,103.69L262.31,109.44L253.85,103.33L245.38,101.15L236.92,106.22L228.46,98.05L220,100.93L211.54,105.28L203.08,103.5L194.62,100.59L186.15,95.88L177.69,95.2L169.23,94.75L160.77,93.25L152.31,90.6L143.85,93.83L135.38,96.15L126.92,95.25L118.46,94.7L110,90.46L101.54,92.72L93.08,82.79L84.62,89.13L76.15,103.29L67.69,110.93L59.23,115.18L50.77,125.22L33.85,140.48L25.38,148.29L16.92,148.92L8.46,167.16L0,167.2Z" style="fill: rgb(145, 191, 219); fill-opacity: 1; stroke-width: 0;"/></g></g><g class="errorbars"/><g class="lines"><path class="js-line" d="M0,167.2L8.46,167.16L16.92,148.92L25.38,148.29L33.85,140.48L50.77,125.22L59.23,115.18L67.69,110.93L76.15,103.29L84.62,89.13L93.08,82.79L101.54,92.72L110,90.46L118.46,94.7L126.92,95.25L135.38,96.15L143.85,93.83L152.31,90.6L160.77,93.25L169.23,94.75L177.69,95.2L186.15,95.88L194.62,100.59L203.08,103.5L211.54,105.28L220,100.93L228.46,98.05L236.92,106.22L245.38,101.15L253.85,103.33L262.31,109.44L270.77,103.69L279.23,103.61L287.69,99.17L296.15,103.84L304.62,105.21L313.08,112.15L321.54,105.59L330,102.46L338.46,101.06L346.92,114.12L355.38,101.14L363.85,97.83L372.31,109.28L380.77,112.66L389.23,119.99L397.69,132.44L406.15,146.6L414.62,139.92L423.08,156.41L431.54,152.08L440,152.58" style="vector-effect: non-scaling-stroke; fill: none; stroke: rgb(0, 0, 0); stroke-opacity: 1; stroke-width: 0.25px; opacity: 1;"/></g><g class="points"/><g class="text"/></g><g class="trace scatter traced06f04" style="stroke-miterlimit: 2;"><g class="fills"><g><path class="js-fill" d="M0,138.35L8.46,141.55L16.92,132.41L25.38,130.14L33.85,120.21L42.31,109.81L50.77,101.67L59.23,89.96L67.69,80.72L76.15,75.2L84.62,65.29L93.08,58.79L101.54,65.93L110,73.54L118.46,64.9L126.92,67.61L135.38,72.5L143.85,79.39L152.31,74.3L160.77,77.42L169.23,78.81L177.69,80.58L186.15,83.52L194.62,84.99L203.08,89.21L211.54,88.78L220,90.66L228.46,90.12L236.92,94.22L245.38,90.43L253.85,91.74L262.31,89.09L270.77,91.58L279.23,89.28L287.69,92.32L296.15,93.7L304.62,91.7L313.08,92.55L321.54,89.17L338.46,85.88L346.92,85.31L355.38,84.98L363.85,91.09L372.31,92.51L380.77,99.42L397.69,112.84L406.15,123.36L423.08,130.73L431.54,138.88L440,136.67L440,150.42L431.54,146.89L414.62,133.71L406.15,132.46L389.23,111.82L380.77,103.79L372.31,98.58L363.85,94.16L355.38,90.78L346.92,93.46L338.46,94.7L330,93.85L321.54,97.07L313.08,97.91L304.62,94.75L296.15,96.6L287.69,95.34L279.23,96.96L270.77,97.39L262.31,94.8L253.85,94.17L245.38,93.12L236.92,96.48L228.46,92.88L220,95.63L211.54,93.14L194.62,94.41L186.15,89.59L177.69,86.37L169.23,82.28L160.77,85.46L152.31,83.72L143.85,88.08L135.38,82.01L126.92,78.1L118.46,82.85L110,80.78L101.54,75.9L93.08,69.5L84.62,72.25L76.15,88.08L67.69,88.79L50.77,110.7L42.31,115.68L33.85,125.58L25.38,133.55L16.92,137.6L8.46,150.71L0,148.45Z" style="fill: rgb(255, 255, 191); fill-opacity: 1; stroke-width: 0;"/></g></g><g class="errorbars"/><g class="lines"><path class="js-line" d="M0,148.45L8.46,150.71L16.92,137.6L25.38,133.55L33.85,125.58L42.31,115.68L50.77,110.7L67.69,88.79L76.15,88.08L84.62,72.25L93.08,69.5L101.54,75.9L110,80.78L118.46,82.85L126.92,78.1L135.38,82.01L143.85,88.08L152.31,83.72L160.77,85.46L169.23,82.28L177.69,86.37L186.15,89.59L194.62,94.41L211.54,93.14L220,95.63L228.46,92.88L236.92,96.48L245.38,93.12L253.85,94.17L262.31,94.8L270.77,97.39L279.23,96.96L287.69,95.34L296.15,96.6L304.62,94.75L313.08,97.91L321.54,97.07L330,93.85L338.46,94.7L346.92,93.46L355.38,90.78L363.85,94.16L372.31,98.58L380.77,103.79L389.23,111.82L406.15,132.46L414.62,133.71L431.54,146.89L440,150.42" style="vector-effect: non-scaling-stroke; fill: none; stroke: rgb(0, 0, 0); stroke-opacity: 1; stroke-width: 0.5px; opacity: 1;"/></g><g class="points"/><g class="text"/></g><g class="trace scatter trace4ca5f5" style="stroke-miterlimit: 2;"><g class="fills"><g><path class="js-fill" d="M0,132L8.46,131L16.92,127.96L25.38,122.52L33.85,114.69L42.31,101.78L50.77,91.96L59.23,82.87L67.69,68.96L84.62,59.92L93.08,51.7L101.54,54.38L110,58.69L118.46,55.27L126.92,62.62L135.38,55.89L143.85,74.52L152.31,66.55L160.77,65.26L169.23,73.29L177.69,72.34L186.15,76.92L194.62,76.01L203.08,82.84L211.54,83.65L220,83.88L228.46,87.63L236.92,85.04L245.38,85.22L253.85,87.56L262.31,83.56L270.77,87.49L279.23,86.12L287.69,89.05L296.15,84.75L304.62,84.51L313.08,86.4L321.54,83.49L330,76.74L338.46,81.48L346.92,78.7L363.85,88.89L372.31,89.14L380.77,97.53L389.23,101.21L397.69,107.37L406.15,118.19L414.62,118.19L423.08,124.37L431.54,129.13L440,122.21L440,136.67L431.54,138.88L423.08,130.73L406.15,123.36L397.69,112.84L380.77,99.42L372.31,92.51L363.85,91.09L355.38,84.98L346.92,85.31L338.46,85.88L321.54,89.17L313.08,92.55L304.62,91.7L296.15,93.7L287.69,92.32L279.23,89.28L270.77,91.58L262.31,89.09L253.85,91.74L245.38,90.43L236.92,94.22L228.46,90.12L220,90.66L211.54,88.78L203.08,89.21L194.62,84.99L186.15,83.52L177.69,80.58L169.23,78.81L160.77,77.42L152.31,74.3L143.85,79.39L135.38,72.5L126.92,67.61L118.46,64.9L110,73.54L101.54,65.93L93.08,58.79L84.62,65.29L76.15,75.2L67.69,80.72L59.23,89.96L50.77,101.67L42.31,109.81L33.85,120.21L25.38,130.14L16.92,132.41L8.46,141.55L0,138.35Z" style="fill: rgb(255, 255, 191); fill-opacity: 1; stroke-width: 0;"/></g></g><g class="errorbars"/><g class="lines"><path class="js-line" d="M0,138.35L8.46,141.55L16.92,132.41L25.38,130.14L33.85,120.21L42.31,109.81L50.77,101.67L59.23,89.96L67.69,80.72L76.15,75.2L84.62,65.29L93.08,58.79L101.54,65.93L110,73.54L118.46,64.9L126.92,67.61L135.38,72.5L143.85,79.39L152.31,74.3L160.77,77.42L169.23,78.81L177.69,80.58L186.15,83.52L194.62,84.99L203.08,89.21L211.54,88.78L220,90.66L228.46,90.12L236.92,94.22L245.38,90.43L253.85,91.74L262.31,89.09L270.77,91.58L279.23,89.28L287.69,92.32L296.15,93.7L304.62,91.7L313.08,92.55L321.54,89.17L338.46,85.88L346.92,85.31L355.38,84.98L363.85,91.09L372.31,92.51L380.77,99.42L397.69,112.84L406.15,123.36L423.08,130.73L431.54,138.88L440,136.67" style="vector-effect: non-scaling-stroke; fill: none; stroke: rgb(0, 0, 0); stroke-opacity: 1; stroke-width: 1px; opacity: 1;"/></g><g class="points"/><g class="text"/></g><g class="trace scatter trace7c505d" style="stroke-miterlimit: 2;"><g class="fills"><g><path class="js-fill" d="M0,120.89L8.46,120.35L16.92,115.69L25.38,117.4L33.85,105.53L42.31,85.15L50.77,67.18L59.23,67.01L67.69,57.42L76.15,53.04L84.62,50.34L93.08,48.81L101.54,43.88L110,37.66L118.46,45.86L126.92,46.52L135.38,22.67L143.85,56.92L152.31,47.17L160.77,43.05L169.23,65.97L177.69,53.12L186.15,61.88L194.62,55.37L203.08,72.14L211.54,71.5L220,69.17L228.46,81.9L236.92,69.76L245.38,79.53L253.85,82.53L262.31,70.88L270.77,74.53L279.23,70.1L287.69,84.35L296.15,71.54L304.62,70.57L313.08,74.03L321.54,73.93L330,66.36L338.46,63.99L346.92,63.82L355.38,78.12L363.85,84.44L372.31,83.32L380.77,92.42L389.23,95.81L397.69,95.57L406.15,102.39L414.62,110.69L423.08,116.14L431.54,123.13L440,117.24L440,122.21L431.54,129.13L423.08,124.37L414.62,118.19L406.15,118.19L397.69,107.37L389.23,101.21L380.77,97.53L372.31,89.14L363.85,88.89L346.92,78.7L338.46,81.48L330,76.74L321.54,83.49L313.08,86.4L304.62,84.51L296.15,84.75L287.69,89.05L279.23,86.12L270.77,87.49L262.31,83.56L253.85,87.56L245.38,85.22L236.92,85.04L228.46,87.63L220,83.88L211.54,83.65L203.08,82.84L194.62,76.01L186.15,76.92L177.69,72.34L169.23,73.29L160.77,65.26L152.31,66.55L143.85,74.52L135.38,55.89L126.92,62.62L118.46,55.27L110,58.69L101.54,54.38L93.08,51.7L84.62,59.92L67.69,68.96L59.23,82.87L50.77,91.96L42.31,101.78L33.85,114.69L25.38,122.52L16.92,127.96L8.46,131L0,132Z" style="fill: rgb(252, 141, 89); fill-opacity: 1; stroke-width: 0;"/></g></g><g class="errorbars"/><g class="lines"><path class="js-line" d="M0,132L8.46,131L16.92,127.96L25.38,122.52L33.85,114.69L42.31,101.78L50.77,91.96L59.23,82.87L67.69,68.96L84.62,59.92L93.08,51.7L101.54,54.38L110,58.69L118.46,55.27L126.92,62.62L135.38,55.89L143.85,74.52L152.31,66.55L160.77,65.26L169.23,73.29L177.69,72.34L186.15,76.92L194.62,76.01L203.08,82.84L211.54,83.65L220,83.88L228.46,87.63L236.92,85.04L245.38,85.22L253.85,87.56L262.31,83.56L270.77,87.49L279.23,86.12L287.69,89.05L296.15,84.75L304.62,84.51L313.08,86.4L321.54,83.49L330,76.74L338.46,81.48L346.92,78.7L363.85,88.89L372.31,89.14L380.77,97.53L389.23,101.21L397.69,107.37L406.15,118.19L414.62,118.19L423.08,124.37L431.54,129.13L440,122.21" style="vector-effect: non-scaling-stroke; fill: none; stroke: rgb(0, 0, 0); stroke-opacity: 1; stroke-width: 0.5px; opacity: 1;"/></g><g class="points"/><g class="text"/></g><g class="trace scatter trace5801c9" style="stroke-miterlimit: 2;"><g class="fills"/><g class="errorbars"/><g class="lines"><path class="js-line" d="M0,120.89L8.46,120.35L16.92,115.69L25.38,117.4L33.85,105.53L42.31,85.15L50.77,67.18L59.23,67.01L67.69,57.42L76.15,53.04L84.62,50.34L93.08,48.81L101.54,43.88L110,37.66L118.46,45.86L126.92,46.52L135.38,22.67L143.85,56.92L152.31,47.17L160.77,43.05L169.23,65.97L177.69,53.12L186.15,61.88L194.62,55.37L203.08,72.14L211.54,71.5L220,69.17L228.46,81.9L236.92,69.76L245.38,79.53L253.85,82.53L262.31,70.88L270.77,74.53L279.23,70.1L287.69,84.35L296.15,71.54L304.62,70.57L313.08,74.03L321.54,73.93L330,66.36L338.46,63.99L346.92,63.82L355.38,78.12L363.85,84.44L372.31,83.32L380.77,92.42L389.23,95.81L397.69,95.57L406.15,102.39L414.62,110.69L423.08,116.14L431.54,123.13L440,117.24" style="vector-effect: non-scaling-stroke; fill: none; stroke: rgb(0, 0, 0); stroke-opacity: 1; stroke-width: 0.25px; opacity: 1;"/></g><g class="points"/><g class="text"/></g><g class="trace scatter trace0c14fe" style="stroke-miterlimit: 2; opacity: 1;"><g class="fills"/><g class="errorbars"/><g class="lines"/><g class="points"><path class="point" transform="translate(152.31,62)" d="M4,0A4,4 0 1,1 0,-4A4,4 0 0,1 4,0ZM0,0.5L0.5,0L0,-0.5L-0.5,0Z" style="opacity: 1; stroke: rgb(0, 0, 0); stroke-opacity: 1; stroke-width: 1px; fill: none;"/><path class="point" transform="translate(160.77,68.2)" d="M4,0A4,4 0 1,1 0,-4A4,4 0 0,1 4,0ZM0,0.5L0.5,0L0,-0.5L-0.5,0Z" style="opacity: 1; stroke: rgb(0, 0, 0); stroke-opacity: 1; stroke-width: 1px; fill: none;"/><path class="point" transform="translate(169.23,74.4)" d="M4,0A4,4 0 1,1 0,-4A4,4 0 0,1 4,0ZM0,0.5L0.5,0L0,-0.5L-0.5,0Z" style="opacity: 1; stroke: rgb(0, 0, 0); stroke-opacity: 1; stroke-width: 1px; fill: none;"/><path class="point" transform="translate(177.69,74.4)" d="M4,0A4,4 0 1,1 0,-4A4,4 0 0,1 4,0ZM0,0.5L0.5,0L0,-0.5L-0.5,0Z" style="opacity: 1; stroke: rgb(0, 0, 0); stroke-opacity: 1; stroke-width: 1px; fill: none;"/></g><g class="text"/></g></g></g><g class="overplot"/><path class="xlines-above crisp" d="M0,0" style="fill: none;"/><path class="ylines-above crisp" d="M0,0" style="fill: none;"/><g class="overlines-above"/><g class="xaxislayer-above"/><g class="yaxislayer-above"><g class="y2tick"><text text-anchor="end" x="79" y="4.199999999999999" transform="translate(0,472.00000000000006)" style="font-family: 'Open Sans', verdana, arial, sans-serif; font-size: 12px; fill: rgb(42, 63, 95); fill-opacity: 1; white-space: pre; opacity: 1;">20</text></g><g class="y2tick"><text text-anchor="end" x="79" y="4.199999999999999" style="font-family: 'Open Sans', verdana, arial, sans-serif; font-size: 12px; fill: rgb(42, 63, 95); fill-opacity: 1; white-space: pre; opacity: 1;" transform="translate(0,410.00000000000006)">30</text></g><g class="y2tick"><text text-anchor="end" x="79" y="4.199999999999999" style="font-family: 'Open Sans', verdana, arial, sans-serif; font-size: 12px; fill: rgb(42, 63, 95); fill-opacity: 1; white-space: pre; opacity: 1;" transform="translate(0,348.00000000000006)">40</text></g></g><g class="overaxes-above"/></g><g class="subplot x3y3"><g class="layer-subplot"><g class="shapelayer"/><g class="imagelayer"/></g><g class="minor-gridlayer"><g class="x3"/><g class="y3"/></g><g class="gridlayer"><g class="x3"><path class="x3grid crisp" transform="translate(156.15,0)" d="M0,534v186" style="stroke: rgb(255, 255, 255); stroke-opacity: 1; stroke-width: 1px;"/><path class="x3grid crisp" transform="translate(240.77,0)" d="M0,534v186" style="stroke: rgb(255, 255, 255); stroke-opacity: 1; stroke-width: 1px;"/><path class="x3grid crisp" transform="translate(325.38,0)" d="M0,534v186" style="stroke: rgb(255, 255, 255); stroke-opacity: 1; stroke-width: 1px;"/><path class="x3grid crisp" transform="translate(410,0)" d="M0,534v186" style="stroke: rgb(255, 255, 255); stroke-opacity: 1; stroke-width: 1px;"/><path class="x3grid crisp" transform="translate(494.62,0)" d="M0,534v186" style="stroke: rgb(255, 255, 255); stroke-opacity: 1; stroke-width: 1px;"/></g><g class="y3"><path class="y3grid crisp" transform="translate(0,682.8)" d="M80,0h440" style="stroke: rgb(255, 255, 255); stroke-opacity: 1; stroke-width: 1px;"/><path class="y3grid crisp" transform="translate(0,645.6)" d="M80,0h440" style="stroke: rgb(255, 255, 255); stroke-opacity: 1; stroke-width: 1px;"/><path class="y3grid crisp" transform="translate(0,608.4)" d="M80,0h440" style="stroke: rgb(255, 255, 255); stroke-opacity: 1; stroke-width: 1px;"/><path class="y3grid crisp" transform="translate(0,571.2)" d="M80,0h440" style="stroke: rgb(255, 255, 255); stroke-opacity: 1; stroke-width: 1px;"/></g></g><g class="zerolinelayer"/><path class="xlines-below"/><path class="ylines-below"/><g class="overlines-below"/><g class="xaxislayer-below"/><g class="yaxislayer-below"/><g class="overaxes-below"/><g class="plot" transform="translate(80,534)" clip-path="url(#clipceded6x3y3plot)"><g class="scatterlayer mlayer"><g class="trace scatter trace634457" style="stroke-miterlimit: 2;"><g class="fills"><g><path class="js-fill" d="M0,123.09L8.46,128.89L16.92,124.02L33.85,119.05L42.31,106.55L50.77,99.73L59.23,94.92L67.69,78.88L76.15,75.43L93.08,62.72L101.54,61.29L118.46,57.24L126.92,51.07L135.38,52.77L143.85,51.36L152.31,44.82L160.77,41.99L169.23,38.33L177.69,38.57L186.15,36.46L194.62,36.62L203.08,35.79L211.54,36.83L220,35.77L228.46,36.61L245.38,37.95L253.85,37.93L262.31,37.26L270.77,37.67L279.23,38.99L287.69,38.61L304.62,39.21L313.08,41.58L321.54,40.8L330,42.74L355.38,51.41L363.85,61.09L372.31,67.04L380.77,77.68L389.23,85.68L397.69,97.26L406.15,104.25L414.62,106.75L423.08,117.3L431.54,120.33L440,134.97L440,139.77L431.54,137.74L423.08,132.28L414.62,124.49L406.15,115.42L397.69,109.9L389.23,94.95L380.77,92.5L372.31,82.72L363.85,67.5L355.38,58.09L346.92,53.78L338.46,49.44L321.54,43.75L313.08,47.95L304.62,42.14L296.15,40.7L279.23,40.49L270.77,42.75L262.31,42.04L253.85,42.34L236.92,40.05L228.46,38.44L220,40.07L211.54,38.3L203.08,39.68L194.62,41.32L186.15,37.99L177.69,45.69L169.23,42.23L160.77,47.76L152.31,49.17L143.85,57.48L135.38,59.05L126.92,58.9L118.46,65.28L110,67.56L101.54,70.94L93.08,70.73L84.62,82.86L76.15,91.2L67.69,86.34L59.23,106.87L50.77,121.2L42.31,125.69L33.85,139.61L25.38,139.11L16.92,140.26L8.46,143.5L0,125.8Z" style="fill: rgb(90, 180, 172); fill-opacity: 1; stroke-width: 0;"/></g></g><g class="errorbars"/><g class="lines"><path class="js-line" d="M0,125.8L8.46,143.5L16.92,140.26L25.38,139.11L33.85,139.61L42.31,125.69L50.77,121.2L59.23,106.87L67.69,86.34L76.15,91.2L84.62,82.86L93.08,70.73L101.54,70.94L110,67.56L118.46,65.28L126.92,58.9L135.38,59.05L143.85,57.48L152.31,49.17L160.77,47.76L169.23,42.23L177.69,45.69L186.15,37.99L194.62,41.32L203.08,39.68L211.54,38.3L220,40.07L228.46,38.44L236.92,40.05L253.85,42.34L262.31,42.04L270.77,42.75L279.23,40.49L296.15,40.7L304.62,42.14L313.08,47.95L321.54,43.75L338.46,49.44L346.92,53.78L355.38,58.09L363.85,67.5L372.31,82.72L380.77,92.5L389.23,94.95L397.69,109.9L406.15,115.42L414.62,124.49L423.08,132.28L431.54,137.74L440,139.77" style="vector-effect: non-scaling-stroke; fill: none; stroke: rgb(0, 0, 0); stroke-opacity: 1; stroke-width: 0.25px; opacity: 1;"/></g><g class="points"/><g class="text"/></g><g class="trace scatter trace3ddcb4" style="stroke-miterlimit: 2;"><g class="fills"><g><path class="js-fill" d="M0,118.95L8.46,122.57L16.92,115.84L25.38,112.33L33.85,111.52L42.31,96.37L50.77,92.24L59.23,85.08L67.69,75.49L76.15,72.64L84.62,61.95L93.08,55.1L101.54,52.96L110,54.29L118.46,53.55L126.92,46.99L135.38,49.31L143.85,48.25L152.31,41.46L160.77,38.74L169.23,37.37L186.15,35.29L194.62,34.66L203.08,34.65L211.54,35.73L220,34.3L228.46,33.78L236.92,35.83L245.38,36.75L253.85,37.03L262.31,34.63L279.23,36.21L287.69,36.59L304.62,38.83L313.08,39.04L321.54,38.51L330,39.84L346.92,43.96L355.38,49.16L363.85,56.52L372.31,60.24L397.69,88.73L406.15,95.07L414.62,102.67L423.08,107.57L431.54,114.65L440,126.82L440,134.97L431.54,120.33L423.08,117.3L414.62,106.75L406.15,104.25L397.69,97.26L389.23,85.68L380.77,77.68L372.31,67.04L363.85,61.09L355.38,51.41L330,42.74L321.54,40.8L313.08,41.58L304.62,39.21L287.69,38.61L279.23,38.99L270.77,37.67L262.31,37.26L253.85,37.93L245.38,37.95L228.46,36.61L220,35.77L211.54,36.83L203.08,35.79L194.62,36.62L186.15,36.46L177.69,38.57L169.23,38.33L160.77,41.99L152.31,44.82L143.85,51.36L135.38,52.77L126.92,51.07L118.46,57.24L101.54,61.29L93.08,62.72L76.15,75.43L67.69,78.88L59.23,94.92L50.77,99.73L42.31,106.55L33.85,119.05L16.92,124.02L8.46,128.89L0,123.09Z" style="fill: rgb(245, 245, 245); fill-opacity: 1; stroke-width: 0;"/></g></g><g class="errorbars"/><g class="lines"><path class="js-line" d="M0,123.09L8.46,128.89L16.92,124.02L33.85,119.05L42.31,106.55L50.77,99.73L59.23,94.92L67.69,78.88L76.15,75.43L93.08,62.72L101.54,61.29L118.46,57.24L126.92,51.07L135.38,52.77L143.85,51.36L152.31,44.82L160.77,41.99L169.23,38.33L177.69,38.57L186.15,36.46L194.62,36.62L203.08,35.79L211.54,36.83L220,35.77L228.46,36.61L245.38,37.95L253.85,37.93L262.31,37.26L270.77,37.67L279.23,38.99L287.69,38.61L304.62,39.21L313.08,41.58L321.54,40.8L330,42.74L355.38,51.41L363.85,61.09L372.31,67.04L380.77,77.68L389.23,85.68L397.69,97.26L406.15,104.25L414.62,106.75L423.08,117.3L431.54,120.33L440,134.97" style="vector-effect: non-scaling-stroke; fill: none; stroke: rgb(0, 0, 0); stroke-opacity: 1; stroke-width: 0.5px; opacity: 1;"/></g><g class="points"/><g class="text"/></g><g class="trace scatter trace5b4930" style="stroke-miterlimit: 2;"><g class="fills"><g><path class="js-fill" d="M0,111.39L8.46,113.98L16.92,111.65L25.38,107.33L33.85,100.18L42.31,88.81L50.77,81.83L59.23,72.84L67.69,66.42L76.15,62.7L84.62,56.46L101.54,48.55L110,48.84L118.46,45.45L126.92,44.05L143.85,42.08L152.31,39.34L160.77,36.2L169.23,34.08L177.69,32.7L186.15,33.74L194.62,31.77L203.08,32.14L211.54,33.76L220,32.58L228.46,32.45L236.92,33.61L245.38,34.94L253.85,34.09L262.31,32.32L270.77,33.89L279.23,33.23L287.69,35.38L296.15,36.75L304.62,37.1L313.08,37.18L321.54,36.08L330,36.05L338.46,38.06L346.92,39.89L355.38,46.87L363.85,52.81L372.31,53.52L380.77,65.64L389.23,74.09L397.69,82.94L406.15,89.32L414.62,93.44L423.08,95.87L440,120.6L440,126.82L431.54,114.65L423.08,107.57L414.62,102.67L406.15,95.07L397.69,88.73L372.31,60.24L363.85,56.52L355.38,49.16L346.92,43.96L330,39.84L321.54,38.51L313.08,39.04L304.62,38.83L287.69,36.59L279.23,36.21L262.31,34.63L253.85,37.03L245.38,36.75L236.92,35.83L228.46,33.78L220,34.3L211.54,35.73L203.08,34.65L194.62,34.66L186.15,35.29L169.23,37.37L160.77,38.74L152.31,41.46L143.85,48.25L135.38,49.31L126.92,46.99L118.46,53.55L110,54.29L101.54,52.96L93.08,55.1L84.62,61.95L76.15,72.64L67.69,75.49L59.23,85.08L50.77,92.24L42.31,96.37L33.85,111.52L25.38,112.33L16.92,115.84L8.46,122.57L0,118.95Z" style="fill: rgb(245, 245, 245); fill-opacity: 1; stroke-width: 0;"/></g></g><g class="errorbars"/><g class="lines"><path class="js-line" d="M0,118.95L8.46,122.57L16.92,115.84L25.38,112.33L33.85,111.52L42.31,96.37L50.77,92.24L59.23,85.08L67.69,75.49L76.15,72.64L84.62,61.95L93.08,55.1L101.54,52.96L110,54.29L118.46,53.55L126.92,46.99L135.38,49.31L143.85,48.25L152.31,41.46L160.77,38.74L169.23,37.37L186.15,35.29L194.62,34.66L203.08,34.65L211.54,35.73L220,34.3L228.46,33.78L236.92,35.83L245.38,36.75L253.85,37.03L262.31,34.63L279.23,36.21L287.69,36.59L304.62,38.83L313.08,39.04L321.54,38.51L330,39.84L346.92,43.96L355.38,49.16L363.85,56.52L372.31,60.24L397.69,88.73L406.15,95.07L414.62,102.67L423.08,107.57L431.54,114.65L440,126.82" style="vector-effect: non-scaling-stroke; fill: none; stroke: rgb(0, 0, 0); stroke-opacity: 1; stroke-width: 1px; opacity: 1;"/></g><g class="points"/><g class="text"/></g><g class="trace scatter tracefad328" style="stroke-miterlimit: 2;"><g class="fills"><g><path class="js-fill" d="M0,102.25L8.46,102.66L16.92,98.62L25.38,91.3L33.85,86.12L42.31,78.08L50.77,55.07L59.23,64.48L67.69,54.87L76.15,49.22L84.62,46L101.54,38.49L110,37.19L118.46,37.29L126.92,40.4L135.38,31.23L143.85,29.49L152.31,33.22L160.77,30.28L169.23,31.64L177.69,29.5L186.15,32.24L194.62,25.28L211.54,31.03L220,31.5L228.46,26.85L236.92,31.88L245.38,32.65L253.85,28.47L262.31,31.39L270.77,31.75L279.23,28.12L287.69,34.33L296.15,34.16L304.62,36.25L313.08,36.52L321.54,29.29L330,27.93L338.46,29.75L346.92,31.65L355.38,40.83L363.85,44.17L372.31,49.12L380.77,57.64L389.23,63.9L397.69,72.42L406.15,77.11L414.62,75.86L423.08,87.05L431.54,95.9L440,99.58L440,120.6L423.08,95.87L414.62,93.44L406.15,89.32L397.69,82.94L389.23,74.09L380.77,65.64L372.31,53.52L363.85,52.81L355.38,46.87L346.92,39.89L338.46,38.06L330,36.05L321.54,36.08L313.08,37.18L304.62,37.1L296.15,36.75L287.69,35.38L279.23,33.23L270.77,33.89L262.31,32.32L253.85,34.09L245.38,34.94L236.92,33.61L228.46,32.45L220,32.58L211.54,33.76L203.08,32.14L194.62,31.77L186.15,33.74L177.69,32.7L169.23,34.08L160.77,36.2L152.31,39.34L143.85,42.08L126.92,44.05L118.46,45.45L110,48.84L101.54,48.55L84.62,56.46L76.15,62.7L67.69,66.42L59.23,72.84L50.77,81.83L42.31,88.81L33.85,100.18L25.38,107.33L16.92,111.65L8.46,113.98L0,111.39Z" style="fill: rgb(216, 179, 101); fill-opacity: 1; stroke-width: 0;"/></g></g><g class="errorbars"/><g class="lines"><path class="js-line" d="M0,111.39L8.46,113.98L16.92,111.65L25.38,107.33L33.85,100.18L42.31,88.81L50.77,81.83L59.23,72.84L67.69,66.42L76.15,62.7L84.62,56.46L101.54,48.55L110,48.84L118.46,45.45L126.92,44.05L143.85,42.08L152.31,39.34L160.77,36.2L169.23,34.08L177.69,32.7L186.15,33.74L194.62,31.77L203.08,32.14L211.54,33.76L220,32.58L228.46,32.45L236.92,33.61L245.38,34.94L253.85,34.09L262.31,32.32L270.77,33.89L279.23,33.23L287.69,35.38L296.15,36.75L304.62,37.1L313.08,37.18L321.54,36.08L330,36.05L338.46,38.06L346.92,39.89L355.38,46.87L363.85,52.81L372.31,53.52L380.77,65.64L389.23,74.09L397.69,82.94L406.15,89.32L414.62,93.44L423.08,95.87L440,120.6" style="vector-effect: non-scaling-stroke; fill: none; stroke: rgb(0, 0, 0); stroke-opacity: 1; stroke-width: 0.5px; opacity: 1;"/></g><g class="points"/><g class="text"/></g><g class="trace scatter trace209492" style="stroke-miterlimit: 2;"><g class="fills"/><g class="errorbars"/><g class="lines"><path class="js-line" d="M0,102.25L8.46,102.66L16.92,98.62L25.38,91.3L33.85,86.12L42.31,78.08L50.77,55.07L59.23,64.48L67.69,54.87L76.15,49.22L84.62,46L101.54,38.49L110,37.19L118.46,37.29L126.92,40.4L135.38,31.23L143.85,29.49L152.31,33.22L160.77,30.28L169.23,31.64L177.69,29.5L186.15,32.24L194.62,25.28L211.54,31.03L220,31.5L228.46,26.85L236.92,31.88L245.38,32.65L253.85,28.47L262.31,31.39L270.77,31.75L279.23,28.12L287.69,34.33L296.15,34.16L304.62,36.25L313.08,36.52L321.54,29.29L330,27.93L338.46,29.75L346.92,31.65L355.38,40.83L363.85,44.17L372.31,49.12L380.77,57.64L389.23,63.9L397.69,72.42L406.15,77.11L414.62,75.86L423.08,87.05L431.54,95.9L440,99.58" style="vector-effect: non-scaling-stroke; fill: none; stroke: rgb(0, 0, 0); stroke-opacity: 1; stroke-width: 0.25px; opacity: 1;"/></g><g class="points"/><g class="text"/></g><g class="trace scatter trace9540f1" style="stroke-miterlimit: 2; opacity: 1;"><g class="fills"/><g class="errorbars"/><g class="lines"/><g class="points"><path class="point" transform="translate(152.31,44.64)" d="M4,0A4,4 0 1,1 0,-4A4,4 0 0,1 4,0ZM0,0.5L0.5,0L0,-0.5L-0.5,0Z" style="opacity: 1; stroke: rgb(0, 0, 0); stroke-opacity: 1; stroke-width: 1px; fill: none;"/><path class="point" transform="translate(160.77,44.64)" d="M4,0A4,4 0 1,1 0,-4A4,4 0 0,1 4,0ZM0,0.5L0.5,0L0,-0.5L-0.5,0Z" style="opacity: 1; stroke: rgb(0, 0, 0); stroke-opacity: 1; stroke-width: 1px; fill: none;"/><path class="point" transform="translate(169.23,37.2)" d="M4,0A4,4 0 1,1 0,-4A4,4 0 0,1 4,0ZM0,0.5L0.5,0L0,-0.5L-0.5,0Z" style="opacity: 1; stroke: rgb(0, 0, 0); stroke-opacity: 1; stroke-width: 1px; fill: none;"/><path class="point" transform="translate(177.69,37.2)" d="M4,0A4,4 0 1,1 0,-4A4,4 0 0,1 4,0ZM0,0.5L0.5,0L0,-0.5L-0.5,0Z" style="opacity: 1; stroke: rgb(0, 0, 0); stroke-opacity: 1; stroke-width: 1px; fill: none;"/></g><g class="text"/></g></g></g><g class="overplot"/><path class="xlines-above crisp" d="M0,0" style="fill: none;"/><path class="ylines-above crisp" d="M0,0" style="fill: none;"/><g class="overlines-above"/><g class="xaxislayer-above"><g class="x3tick"><text text-anchor="middle" x="0" y="733" transform="translate(156.15,0)" style="font-family: 'Open Sans', verdana, arial, sans-serif; font-size: 12px; fill: rgb(42, 63, 95); fill-opacity: 1; white-space: pre; opacity: 1;">10</text></g><g class="x3tick"><text text-anchor="middle" x="0" y="733" style="font-family: 'Open Sans', verdana, arial, sans-serif; font-size: 12px; fill: rgb(42, 63, 95); fill-opacity: 1; white-space: pre; opacity: 1;" transform="translate(240.77,0)">20</text></g><g class="x3tick"><text text-anchor="middle" x="0" y="733" style="font-family: 'Open Sans', verdana, arial, sans-serif; font-size: 12px; fill: rgb(42, 63, 95); fill-opacity: 1; white-space: pre; opacity: 1;" transform="translate(325.38,0)">30</text></g><g class="x3tick"><text text-anchor="middle" x="0" y="733" style="font-family: 'Open Sans', verdana, arial, sans-serif; font-size: 12px; fill: rgb(42, 63, 95); fill-opacity: 1; white-space: pre; opacity: 1;" transform="translate(410,0)">40</text></g><g class="x3tick"><text text-anchor="middle" x="0" y="733" style="font-family: 'Open Sans', verdana, arial, sans-serif; font-size: 12px; fill: rgb(42, 63, 95); fill-opacity: 1; white-space: pre; opacity: 1;" transform="translate(494.62,0)">50</text></g></g><g class="yaxislayer-above"><g class="y3tick"><text text-anchor="end" x="79" y="4.199999999999999" transform="translate(0,720)" style="font-family: 'Open Sans', verdana, arial, sans-serif; font-size: 12px; fill: rgb(42, 63, 95); fill-opacity: 1; white-space: pre; opacity: 1;">5</text></g><g class="y3tick"><text text-anchor="end" x="79" y="4.199999999999999" style="font-family: 'Open Sans', verdana, arial, sans-serif; font-size: 12px; fill: rgb(42, 63, 95); fill-opacity: 1; white-space: pre; opacity: 1;" transform="translate(0,682.8)">10</text></g><g class="y3tick"><text text-anchor="end" x="79" y="4.199999999999999" style="font-family: 'Open Sans', verdana, arial, sans-serif; font-size: 12px; fill: rgb(42, 63, 95); fill-opacity: 1; white-space: pre; opacity: 1;" transform="translate(0,645.6)">15</text></g><g class="y3tick"><text text-anchor="end" x="79" y="4.199999999999999" style="font-family: 'Open Sans', verdana, arial, sans-serif; font-size: 12px; fill: rgb(42, 63, 95); fill-opacity: 1; white-space: pre; opacity: 1;" transform="translate(0,608.4)">20</text></g><g class="y3tick"><text text-anchor="end" x="79" y="4.199999999999999" style="font-family: 'Open Sans', verdana, arial, sans-serif; font-size: 12px; fill: rgb(42, 63, 95); fill-opacity: 1; white-space: pre; opacity: 1;" transform="translate(0,571.2)">25</text></g><g class="y3tick"><text text-anchor="end" x="79" y="4.199999999999999" style="font-family: 'Open Sans', verdana, arial, sans-serif; font-size: 12px; fill: rgb(42, 63, 95); fill-opacity: 1; white-space: pre; opacity: 1;" transform="translate(0,534)">30</text></g></g><g class="overaxes-above"/></g></g><g class="polarlayer"/><g class="smithlayer"/><g class="ternarylayer"/><g class="geolayer"/><g class="funnelarealayer"/><g class="pielayer"/><g class="iciclelayer"/><g class="treemaplayer"/><g class="sunburstlayer"/><g class="glimages"/><defs id="topdefs-ceded6"><g class="clips"/></defs><g class="layer-above"><g class="imagelayer"/><g class="shapelayer"/></g><g class="infolayer"><g class="g-gtitle"><text class="gtitle" x="30" y="50" text-anchor="start" dy="0em" style="font-family: 'Open Sans', verdana, arial, sans-serif; font-size: 17px; fill: rgb(42, 63, 95); opacity: 1; font-weight: normal; white-space: pre;">Climatology and S2S forecast for Magura</text></g><g class="g-xtitle"/><g class="g-x2title"/><g class="g-x3title"/><g class="g-ytitle"><text class="ytitle" transform="rotate(-90,34.16875,193)" x="34.16875" y="193" text-anchor="middle" style="font-family: 'Open Sans', verdana, arial, sans-serif; font-size: 14px; fill: rgb(42, 63, 95); opacity: 1; font-weight: normal; white-space: pre;">[mm]</text></g><g class="g-y2title"><text class="y2title" transform="rotate(-90,40.840625,410.00000000000006)" x="40.840625" y="410.00000000000006" text-anchor="middle" style="font-family: 'Open Sans', verdana, arial, sans-serif; font-size: 14px; fill: rgb(42, 63, 95); opacity: 1; font-weight: normal; white-space: pre;">[C]</text></g><g class="g-y3title"><text class="y3title" transform="rotate(-90,40.840625,627)" x="40.840625" y="627" text-anchor="middle" style="font-family: 'Open Sans', verdana, arial, sans-serif; font-size: 14px; fill: rgb(42, 63, 95); opacity: 1; font-weight: normal; white-space: pre;">[C]</text></g><g class="annotation" data-index="0" style="opacity: 1;"><g class="annotation-text-g" transform="rotate(0,300,89.5)"><g class="cursor-pointer" transform="translate(237,79)"><rect class="bg" x="0.5" y="0.5" width="126" height="20" style="stroke-width: 1px; stroke: rgb(0, 0, 0); stroke-opacity: 0; fill: rgb(0, 0, 0); fill-opacity: 0;"/><text class="annotation-text" text-anchor="middle" x="63.359375" y="16" style="font-family: 'Open Sans', verdana, arial, sans-serif; font-size: 16px; fill: rgb(42, 63, 95); fill-opacity: 1; white-space: pre;">Precipitation sum</text></g></g></g><g class="annotation" data-index="1" style="opacity: 1;"><g class="annotation-text-g" transform="rotate(0,300,306.50000000000006)"><g class="cursor-pointer" transform="translate(196,296)"><rect class="bg" x="0.5" y="0.5" width="208" height="20" style="stroke-width: 1px; stroke: rgb(0, 0, 0); stroke-opacity: 0; fill: rgb(0, 0, 0); fill-opacity: 0;"/><text class="annotation-text" text-anchor="middle" x="104.265625" y="16" style="font-family: 'Open Sans', verdana, arial, sans-serif; font-size: 16px; fill: rgb(42, 63, 95); fill-opacity: 1; white-space: pre;">Mean maximum temperature</text></g></g></g><g class="annotation" data-index="2" style="opacity: 1;"><g class="annotation-text-g" transform="rotate(0,300,523.5)"><g class="cursor-pointer" transform="translate(198,513)"><rect class="bg" x="0.5" y="0.5" width="203" height="20" style="stroke-width: 1px; stroke: rgb(0, 0, 0); stroke-opacity: 0; fill: rgb(0, 0, 0); fill-opacity: 0;"/><text class="annotation-text" text-anchor="middle" x="102.046875" y="16" style="font-family: 'Open Sans', verdana, arial, sans-serif; font-size: 16px; fill: rgb(42, 63, 95); fill-opacity: 1; white-space: pre;">Mean minimum temperature</text></g></g></g><g class="annotation" data-index="3" style="opacity: 1;"><g class="annotation-text-g" transform="rotate(0,300,760.5)"><g class="cursor-pointer" transform="translate(277,750)"><rect class="bg" x="0.5" y="0.5" width="45" height="20" style="stroke-width: 1px; stroke: rgb(0, 0, 0); stroke-opacity: 0; fill: rgb(0, 0, 0); fill-opacity: 0;"/><text class="annotation-text" text-anchor="middle" x="22.3125" y="16" style="font-family: 'Open Sans', verdana, arial, sans-serif; font-size: 16px; fill: rgb(42, 63, 95); fill-opacity: 1; white-space: pre;">Week</text></g></g></g></g></svg>