<svg class="main-svg" xmlns="http://www.w3.org/2000/svg" xmlns:xlink="http://www.w3.org/1999/xlink" width="600" height="800" style="" viewBox="0 0 600 800"><rect x="0" y="0" width="600" height="800" style="fill: rgb(255, 255, 255); fill-opacity: 1;"/><defs id="defs-d24780"><g class="clips"><clipPath id="clipd24780xyplot" class="plotclip"><rect width="440" height="186.00000000000003"/></clipPath><clipPath id="clipd24780x2y2plot" class="plotclip"><rect width="440" height="185.99999999999997"/></clipPath><clipPath id="clipd24780x3y3plot" class="plotclip"><rect width="440" height="186"/></clipPath><clipPath class="axesclip" id="clipd24780x"><rect x="80" y="0" width="440" height="800"/></clipPath><clipPath class="axesclip" id="clipd24780y"><rect x="0" y="100" width="600" height="186.00000000000003"/></clipPath><clipPath class="axesclip" id="clipd24780xy"><rect x="80" y="100" width="440" height="186.00000000000003"/></clipPath><clipPath class="axesclip" id="clipd24780y2"><rect x="0" y="317.00000000000006" width="600" height="185.99999999999997"/></clipPath><clipPath class="axesclip" id="clipd24780xy2"><rect x="80" y="317.00000000000006" width="440" height="185.99999999999997"/></clipPath><clipPath class="axesclip" id="clipd24780y3"><rect x="0" y="534" width="600" height="186"/></clipPath><clipPath class="axesclip" id="clipd24780xy3"><rect x="80" y="534" width="440" height="186"/></clipPath><clipPath class="axesclip" id="clipd24780x2"><rect x="80" y="0" width="440" height="800"/></clipPath><clipPath class="axesclip" id="clipd24780x2y"><rect x="80" y="100" width="440" height="186.00000000000003"/></clipPath><clipPath class="axesclip" id="clipd24780x2y2"><rect x="80" y="317.00000000000006" width="440" height="185.99999999999997"/></clipPath><clipPath class="axesclip" id="clipd24780x2y3"><rect x="80" y="534" width="440" height="186"/></clipPath><clipPath class="axesclip" id="clipd24780x3"><rect x="80" y="0" width="440" height="800"/></clipPath><clipPath class="axesclip" id="clipd24780x3y"><rect x="80" y="100" width="440" height="186.00000000000003"/></clipPath><clipPath class="axesclip" id="clipd24780x3y2"><rect x="80" y="317.00000000000006" width="440" height="185.99999999999997"/></clipPath><clipPath class="axesclip" id="clipd24780x3y3"><rect x="80" y="534" width="440" height="186"/></clipPath></g><g class="gradients"/><g class="patterns"/></defs><g class="bglayer"><rect class="bg" x="80" y="100" width="440" height="186.00000000000003" style="fill: rgb(229, 236, 246); fill-opacity: 1; stroke-width: 0;"/><rect class="bg" x="80" y="317.00000000000006" width="440" height="185.99999999999997" style="fill: rgb(229, 236, 246); fill-opacity: 1; stroke-width: 0;"/><rect class="bg" x="80" y="534" width="440" height="186" style="fill: rgb(229, 236, 246); fill-opacity: 1; stroke-width: 0;"/></g><g class="layer-below"><g class="imagelayer"/><g class="shapelayer"/></g><g class="cartesianlayer"><g class="subplot xy"><g class="layer-subplot"><g class="shapelayer"/><g class="imagelayer"/></g><g class="minor-gridlayer"><g class="x"/><g class="y"/></g><g class="gridlayer"><g class="x"><path class="xgrid crisp" transform="translate(156.15,0)" d="M0,100v186.00000000000003" style="stroke: rgb(255, 255, 255); stroke-opacity: 1; stroke-width: 1px;"/><path class="xgrid crisp" transform="translate(240.77,0)" d="M0,100v186.00000000000003" style="stroke: rgb(255, 255, 255); stroke-opacity: 1; stroke-width: 1px;"/><path class="xgrid crisp" transform="translate(325.38,0)" d="M0,100v186.00000000000003" style="stroke: rgb(255, 255, 255); stroke-opacity: 1; stroke-width: 1px;"/><path class="xgrid crisp" transform="translate(410,0)" d="M0,100v186.00000000000003" style="stroke: rgb(255, 255, 255); stroke-opacity: 1; stroke-width: 1px;"/><path class="xgrid crisp" transform="translate(494.62,0)" d="M0,100v186.00000000000003" style="stroke: rgb(255, 255, 255); stroke-opacity: 1; stroke-width: 1px;"/></g><g class="y"><path class="ygrid crisp" transform="translate(0,248.8)" d="M80,0h440" style="stroke: rgb(255, 255, 255); stroke-opacity: 1; stroke-width: 1px;"/><path class="ygrid crisp" transform="translate(0,211.6)" d="M80,0h440" style="stroke: rgb(255, 255, 255); stroke-opacity: 1; stroke-width: 1px;"/><path class="ygrid crisp" transform="translate(0,174.4)" d="M80,0h440" style="stroke: rgb(255, 255, 255); stroke-opacity: 1; stroke-width: 1px;"/><path class="ygrid crisp" transform="translate(0,137.2)" d="M80,0h440" style="stroke: rgb(255, 255, 255); stroke-opacity: 1; stroke-width: 1px;"/></g></g><g class="zerolinelayer"><path class="yzl zl crisp" transform="translate(0,286)" d="M80,0h440" style="stroke: rgb(255, 255, 255); stroke-opacity: 1; stroke-width: 2px;"/></g><path class="xlines-below"/><path class="ylines-below"/><g class="overlines-below"/><g class="xaxislayer-below"/><g class="yaxislayer-below"/><g class="overaxes-below"/><g class="plot" transform="translate(80,100)" clip-path="url(#clipd24780xyplot)"><g class="scatterlayer mlayer"><g class="trace scatter trace3d4419" style="stroke-miterlimit: 2;"><g class="fills"><g><path class="js-fill" d="M0,186L126.92,185.96L135.38,182.2L143.85,177.48L152.31,183.14L160.77,165.54L169.23,157.39L177.69,167.38L186.15,146.57L194.62,154.92L203.08,128.32L211.54,133.05L220,155.01L228.46,150.45L236.92,144.25L253.85,155.46L262.31,158.5L270.77,135.07L279.23,155.61L287.69,159.61L296.15,157.28L304.62,150.71L313.08,165.97L321.54,156.65L330,181.03L338.46,170.98L346.92,182.67L355.38,186L363.85,186L440,186L440,186L330,186L321.54,171.67L313.08,180.22L304.62,183.8L296.15,176.08L287.69,182.02L279.23,179.04L270.77,171.52L262.31,180.29L253.85,175.72L236.92,169.11L228.46,176.93L220,173.49L211.54,161.85L203.08,181.64L194.62,169.95L186.15,185.25L177.69,184.29L169.23,184.74L160.77,186L0,186Z" style="fill: rgb(224, 236, 244); fill-opacity: 1; stroke-width: 0;"/></g></g><g class="errorbars"/><g class="lines"><path class="js-line" d="M0,186L160.77,186L169.23,184.74L177.69,184.29L186.15,185.25L194.62,169.95L203.08,181.64L211.54,161.85L220,173.49L228.46,176.93L236.92,169.11L253.85,175.72L262.31,180.29L270.77,171.52L279.23,179.04L287.69,182.02L296.15,176.08L304.62,183.8L313.08,180.22L321.54,171.67L330,186L440,186" style="vector-effect: non-scaling-stroke; fill: none; stroke: rgb(0, 0, 0); stroke-opacity: 1; stroke-width: 0.25px; opacity: 1;"/></g><g class="points"/><g class="text"/></g><g class="trace scatter trace43e1c4" style="stroke-miterlimit: 2;"><g class="fills"><g><path class="js-fill" d="M0,186L101.54,185.95L110,182.42L118.46,182.62L126.92,172.41L135.38,167.07L143.85,162.78L152.31,173.78L160.77,145.11L169.23,141.97L177.69,143.61L186.15,105.95L194.62,127.53L203.08,105.07L211.54,114.88L220,125.23L228.46,139.1L236.92,131.49L245.38,120.19L253.85,115.27L262.31,140.59L270.77,123.15L279.23,133.35L287.69,146.24L296.15,146.56L304.62,123.63L313.08,147.64L321.54,148.16L330,154.36L338.46,153.34L346.92,160.05L355.38,184.47L363.85,184.69L372.31,186L380.77,186L440,186L440,186L363.85,186L355.38,186L346.92,182.67L338.46,170.98L330,181.03L321.54,156.65L313.08,165.97L304.62,150.71L296.15,157.28L287.69,159.61L279.23,155.61L270.77,135.07L262.31,158.5L253.85,155.46L236.92,144.25L228.46,150.45L220,155.01L211.54,133.05L203.08,128.32L194.62,154.92L186.15,146.57L177.69,167.38L169.23,157.39L160.77,165.54L152.31,183.14L143.85,177.48L135.38,182.2L126.92,185.96L0,186Z" style="fill: rgb(158, 188, 218); fill-opacity: 1; stroke-width: 0;"/></g></g><g class="errorbars"/><g class="lines"><path class="js-line" d="M0,186L126.92,185.96L135.38,182.2L143.85,177.48L152.31,183.14L160.77,165.54L169.23,157.39L177.69,167.38L186.15,146.57L194.62,154.92L203.08,128.32L211.54,133.05L220,155.01L228.46,150.45L236.92,144.25L253.85,155.46L262.31,158.5L270.77,135.07L279.23,155.61L287.69,159.61L296.15,157.28L304.62,150.71L313.08,165.97L321.54,156.65L330,181.03L338.46,170.98L346.92,182.67L355.38,186L363.85,186L440,186" style="vector-effect: non-scaling-stroke; fill: none; stroke: rgb(0, 0, 0); stroke-opacity: 1; stroke-width: 0.5px; opacity: 1;"/></g><g class="points"/><g class="text"/></g><g class="trace scatter trace411b57" style="stroke-miterlimit: 2;"><g class="fills"><g><path class="js-fill" d="M0,186L42.31,186L50.77,184.75L59.23,184.62L67.69,182.34L76.15,186L84.62,184.14L93.08,180.06L101.54,173.31L110,148.55L118.46,162.63L126.92,148.86L135.38,138.97L143.85,145.84L152.31,102.33L160.77,104.05L169.23,86.87L177.69,87.29L186.15,52.95L194.62,56.4L203.08,48.97L211.54,77.63L220,12.86L228.46,85.07L236.92,86.98L245.38,82.3L253.85,54.78L270.77,103.4L279.23,113.48L287.69,104.7L296.15,115.21L304.62,97.79L313.08,117.63L321.54,128.51L330,127.5L338.46,99.25L346.92,141.03L355.38,171.86L363.85,174.53L372.31,178.39L380.77,176.01L389.23,186L397.69,186L440,186L440,186L380.77,186L372.31,186L363.85,184.69L355.38,184.47L346.92,160.05L338.46,153.34L330,154.36L321.54,148.16L313.08,147.64L304.62,123.63L296.15,146.56L287.69,146.24L279.23,133.35L270.77,123.15L262.31,140.59L253.85,115.27L245.38,120.19L236.92,131.49L228.46,139.1L220,125.23L211.54,114.88L203.08,105.07L194.62,127.53L186.15,105.95L177.69,143.61L169.23,141.97L160.77,145.11L152.31,173.78L143.85,162.78L135.38,167.07L126.92,172.41L118.46,182.62L110,182.42L101.54,185.95L0,186Z" style="fill: rgb(158, 188, 218); fill-opacity: 1; stroke-width: 0;"/></g></g><g class="errorbars"/><g class="lines"><path class="js-line" d="M0,186L101.54,185.95L110,182.42L118.46,182.62L126.92,172.41L135.38,167.07L143.85,162.78L152.31,173.78L160.77,145.11L169.23,141.97L177.69,143.61L186.15,105.95L194.62,127.53L203.08,105.07L211.54,114.88L220,125.23L228.46,139.1L236.92,131.49L245.38,120.19L253.85,115.27L262.31,140.59L270.77,123.15L279.23,133.35L287.69,146.24L296.15,146.56L304.62,123.63L313.08,147.64L321.54,148.16L330,154.36L338.46,153.34L346.92,160.05L355.38,184.47L363.85,184.69L372.31,186L380.77,186L440,186" style="vector-effect: non-scaling-stroke; fill: none; stroke: rgb(0, 0, 0); stroke-opacity: 1; stroke-width: 1px; opacity: 1;"/></g><g class="points"/><g class="text"/></g><g class="trace scatter trace7297dd" style="stroke-miterlimit: 2;"><g class="fills"><g><path class="js-fill" d="M0,186L42.31,186L50.77,184.45L59.23,183.3L67.69,179.3L76.15,186L84.62,184.01L93.08,173.59L101.54,159.51L110,93.56L118.46,129.64L126.92,111.78L135.38,112.01L143.85,102.6L152.31,-12.72L160.77,41.54L169.23,61.39L186.15,-69.93L194.62,-13.34L203.08,13.22L211.54,62.07L220,-37.02L228.46,52.04L236.92,8.87L245.38,3.13L253.85,-63.67L262.31,-0.84L270.77,71.19L279.23,103.06L287.69,53.58L296.15,60.51L304.62,49.66L313.08,49.71L321.54,99.02L330,79.36L338.46,53.16L346.92,116.57L355.38,163.28L363.85,160.41L372.31,167.52L380.77,169.96L389.23,186L397.69,186L440,186L440,186L397.69,186L389.23,186L380.77,176.01L372.31,178.39L363.85,174.53L355.38,171.86L346.92,141.03L338.46,99.25L330,127.5L321.54,128.51L313.08,117.63L304.62,97.79L296.15,115.21L287.69,104.7L279.23,113.48L270.77,103.4L253.85,54.78L245.38,82.3L236.92,86.98L228.46,85.07L220,12.86L211.54,77.63L203.08,48.97L194.62,56.4L186.15,52.95L177.69,87.29L169.23,86.87L160.77,104.05L152.31,102.33L143.85,145.84L135.38,138.97L126.92,148.86L118.46,162.63L110,148.55L101.54,173.31L93.08,180.06L84.62,184.14L76.15,186L67.69,182.34L59.23,184.62L50.77,184.75L42.31,186L0,186Z" style="fill: rgb(136, 86, 167); fill-opacity: 1; stroke-width: 0;"/></g></g><g class="errorbars"/><g class="lines"><path class="js-line" d="M0,186L42.31,186L50.77,184.75L59.23,184.62L67.69,182.34L76.15,186L84.62,184.14L93.08,180.06L101.54,173.31L110,148.55L118.46,162.63L126.92,148.86L135.38,138.97L143.85,145.84L152.31,102.33L160.77,104.05L169.23,86.87L177.69,87.29L186.15,52.95L194.62,56.4L203.08,48.97L211.54,77.63L220,12.86L228.46,85.07L236.92,86.98L245.38,82.3L253.85,54.78L270.77,103.4L279.23,113.48L287.69,104.7L296.15,115.21L304.62,97.79L313.08,117.63L321.54,128.51L330,127.5L338.46,99.25L346.92,141.03L355.38,171.86L363.85,174.53L372.31,178.39L380.77,176.01L389.23,186L397.69,186L440,186" style="vector-effect: non-scaling-stroke; fill: none; stroke: rgb(0, 0, 0); stroke-opacity: 1; stroke-width: 0.5px; opacity: 1;"/></g><g class="points"/><g class="text"/></g><g class="trace scatter tracebe2160" style="stroke-miterlimit: 2;"><g class="fills"/><g class="errorbars"/><g class="lines"><path class="js-line" d="M0,186L42.31,186L50.77,184.45L59.23,183.3L67.69,179.3L76.15,186L84.62,184.01L93.08,173.59L101.54,159.51L110,93.56L118.46,129.64L126.92,111.78L135.38,112.01L143.85,102.6L152.31,-12.72L160.77,41.54L169.23,61.39L186.15,-69.93L194.62,-13.34L203.08,13.22L211.54,62.07L220,-37.02L228.46,52.04L236.92,8.87L245.38,3.13L253.85,-63.67L262.31,-0.84L270.77,71.19L279.23,103.06L287.69,53.58L296.15,60.51L304.62,49.66L313.08,49.71L321.54,99.02L330,79.36L338.46,53.16L346.92,116.57L355.38,163.28L363.85,160.41L372.31,167.52L380.77,169.96L389.23,186L397.69,186L440,186" style="vector-effect: non-scaling-stroke; fill: none; stroke: rgb(0, 0, 0); stroke-opacity: 1; stroke-width: 0.25px; opacity: 1;"/></g><g class="points"/><g class="text"/></g><g class="trace scatter tracebc8bf4" style="stroke-miterlimit: 2; opacity: 1;"><g class="fills"/><g class="errorbars"/><g class="lines"/><g class="points"><path class="point" transform="translate(245.38,168.89)" d="M4,0A4,4 0 1,1 0,-4A4,4 0 0,1 4,0ZM0,0.5L0.5,0L0,-0.5L-0.5,0Z" style="opacity: 1; stroke: rgb(0, 0, 0); stroke-opacity: 1; stroke-width: 1px; fill: none;"/><path class="point" transform="translate(253.85,127.22)" d="M4,0A4,4 0 1,1 0,-4A4,4 0 0,1 4,0ZM0,0.5L0.5,0L0,-0.5L-0.5,0Z" style="opacity: 1; stroke: rgb(0, 0, 0); stroke-opacity: 1; stroke-width: 1px; fill: none;"/><path class="point" transform="translate(262.31,-21.58)" d="M4,0A4,4 0 1,1 0,-4A4,4 0 0,1 4,0ZM0,0.5L0.5,0L0,-0.5L-0.5,0Z" style="opacity: 1; stroke: rgb(0, 0, 0); stroke-opacity: 1; stroke-width: 1px; fill: none;"/><path class="point" transform="translate(270.77,-21.58)" d="M4,0A4,4 0 1,1 0,-4A4,4 0 0,1 4,0ZM0,0.5L0.5,0L0,-0.5L-0.5,0Z" style="opacity: 1; stroke: rgb(0, 0, 0); stroke-opacity: 1; stroke-width: 1px; fill: none;"/></g><g class="text"/></g></g></g><g class="overplot"/><path class="xlines-above crisp" d="M0,0" style="fill: none;"/><path class="ylines-above crisp" d="M0,0" style="fill: none;"/><g class="overlines-above"/><g class="xaxislayer-above"/><g class="yaxislayer-above"><g class="ytick"><text text-anchor="end" x="79" y="4.199999999999999" transform="translate(0,286)" style="font-family: 'Open Sans', verdana, arial, sans-serif; font-size: 12px; fill: rgb(42, 63, 95); fill-opacity: 1; white-space: pre; opacity: 1;">0</text></g><g class="ytick"><text text-anchor="end" x="79" y="4.199999999999999" style="font-family: 'Open Sans', verdana, arial, sans-serif; font-size: 12px; fill: rgb(42, 63, 95); fill-opacity: 1; white-space: pre; opacity: 1;" transform="translate(0,248.8)">50</text></g><g class="ytick"><text text-anchor="end" x="79" y="4.199999999999999" style="font-family: 'Open Sans', verdana, arial, sans-serif; font-size: 12px; fill: rgb(42, 63, 95); fill-opacity: 1; white-space: pre; opacity: 1;" transform="translate(0,211.6)">100</text></g><g class="ytick"><text text-anchor="end" x="79" y="4.199999999999999" style="font-family: 'Open Sans', verdana, arial, sans-serif; font-size: 12px; fill: rgb(42, 63, 95); fill-opacity: 1; white-space: pre; opacity: 1;" transform="translate(0,174.4)">150</text></g><g class="ytick"><text text-anchor="end" x="79" y="4.199999999999999" style="font-family: 'Open Sans', verdana, arial, sans-serif; font-size: 12px; fill: rgb(42, 63, 95); fill-opacity: 1; white-space: pre; opacity: 1;" transform="translate(0,137.2)">200</text></g><g class="ytick"><text text-anchor="end" x="79" y="4.199999999999999" style="font-family: 'Open Sans', verdana, arial, sans-serif; font-size: 12px; fill: rgb(42, 63, 95); fill-opacity: 1; white-space: pre; opacity: 1;" transform="translate(0,100)">250</text></g></g><g class="overaxes-above"/></g><g class="subplot x2y2"><g class="layer-subplot"><g class="shapelayer"/><g class="imagelayer"/></g><g class="minor-gridlayer"><g class="x2"/><g class="y2"/></g><g class="gridlayer"><g class="x2"><path class="x2grid crisp" transform="translate(156.15,0)" d="M0,317.00000000000006v185.99999999999997" style="stroke: rgb(255, 255, 255); stroke-opacity: 1; stroke-width: 1px;"/><path class="x2grid crisp" transform="translate(240.77,0)" d="M0,317.00000000000006v185.99999999999997" style="stroke: rgb(255, 255, 255); stroke-opacity: 1; stroke-width: 1px;"/><path class="x2grid crisp" transform="translate(325.38,0)" d="M0,317.00000000000006v185.99999999999997" style="stroke: rgb(255, 255, 255); stroke-opacity: 1; stroke-width: 1px;"/><path class="x2grid crisp" transform="translate(410,0)" d="M0,317.00000000000006v185.99999999999997" style="stroke: rgb(255, 255, 255); stroke-opacity: 1; stroke-width: 1px;"/><path class="x2grid crisp" transform="translate(494.62,0)" d="M0,317.00000000000006v185.99999999999997" style="stroke: rgb(255, 255, 255); stroke-opacity: 1; stroke-width: 1px;"/></g><g class="y2"><path class="y2grid crisp" transform="translate(0,472.00000000000006)" d="M80,0h440" style="stroke: rgb(255, 255, 255); stroke-opacity: 1; stroke-width: 1px;"/><path class="y2grid crisp" transform="translate(0,410.00000000000006)" d="M80,0h440" style="stroke: rgb(255, 255, 255); stroke-opacity: 1; stroke-width: 1px;"/><path class="y2grid crisp" transform="translate(0,348.00000000000006)" d="M80,0h440" style="stroke: rgb(255, 255, 255); stroke-opacity: 1; stroke-width: 1px;"/></g></g><g class="zerolinelayer"/><path class="xlines-below"/><path class="ylines-below"/><g class="overlines-below"/><g class="xaxislayer-below"/><g class="yaxislayer-below"/><g class="overaxes-below"/><g class="plot" transform="translate(80,317.00000000000006)" clip-path="url(#clipd24780x2y2plot)"><g class="scatterlayer mlayer"><g class="trace scatter trace71e3aa" style="stroke-miterlimit: 2;"><g class="fills"><g><path class="js-fill" d="M0,140.66L8.46,148.41L16.92,139.7L25.38,136.49L33.85,131.25L42.31,125.55L50.77,118.36L59.23,114.55L67.69,103.17L93.08,82.02L101.54,84.46L110,85.26L118.46,80.12L126.92,86.96L135.38,91.21L143.85,88.12L152.31,89.36L160.77,96.6L169.23,99.95L177.69,98.47L186.15,102.76L194.62,105.08L203.08,103.82L211.54,104.39L220,107.29L228.46,105.5L236.92,108.9L245.38,107.89L253.85,104.82L262.31,103.36L270.77,104.5L279.23,105.57L287.69,101.3L296.15,100.46L304.62,101.15L313.08,103.95L321.54,101.75L330,99.74L338.46,105.75L346.92,106.7L355.38,104.4L380.77,113.23L389.23,119.27L406.15,130.62L414.62,131.91L423.08,137.35L431.54,139.74L440,143L440,148.74L431.54,147.7L423.08,145.02L414.62,138.41L397.69,135.14L389.23,123.64L380.77,120.46L372.31,119.22L363.85,113.17L355.38,109.11L346.92,115.58L338.46,118.12L330,108.92L321.54,106.2L313.08,112.55L304.62,106.57L287.69,110.86L279.23,115.56L270.77,112.85L262.31,110.47L253.85,111.88L245.38,121.01L236.92,118.44L228.46,109.12L220,118.42L211.54,114.19L203.08,111.03L194.62,113.36L186.15,110.01L177.69,108.8L169.23,111.6L160.77,107.47L152.31,105.47L143.85,98.09L135.38,99.56L126.92,102.95L118.46,92.76L110,100.15L101.54,101.47L93.08,88.11L84.62,112.42L76.15,111.28L67.69,120.64L59.23,126.58L50.77,130.82L42.31,137.65L33.85,138.76L25.38,147.26L16.92,149.48L8.46,154.26L0,151.34Z" style="fill: rgb(145, 191, 219); fill-opacity: 1; stroke-width: 0;"/></g></g><g class="errorbars"/><g class="lines"><path class="js-line" d="M0,151.34L8.46,154.26L16.92,149.48L25.38,147.26L33.85,138.76L42.31,137.65L50.77,130.82L59.23,126.58L67.69,120.64L76.15,111.28L84.62,112.42L93.08,88.11L101.54,101.47L110,100.15L118.46,92.76L126.92,102.95L135.38,99.56L143.85,98.09L152.31,105.47L160.77,107.47L169.23,111.6L177.69,108.8L186.15,110.01L194.62,113.36L203.08,111.03L211.54,114.19L220,118.42L228.46,109.12L236.92,118.44L245.38,121.01L253.85,111.88L262.31,110.47L270.77,112.85L279.23,115.56L287.69,110.86L304.62,106.57L313.08,112.55L321.54,106.2L330,108.92L338.46,118.12L346.92,115.58L355.38,109.11L363.85,113.17L372.31,119.22L380.77,120.46L389.23,123.64L397.69,135.14L414.62,138.41L423.08,145.02L431.54,147.7L440,148.74" style="vector-effect: non-scaling-stroke; fill: none; stroke: rgb(0, 0, 0); stroke-opacity: 1; stroke-width: 0.25px; opacity: 1;"/></g><g class="points"/><g class="text"/></g><g class="trace scatter tracedaca3d" style="stroke-miterlimit: 2;"><g class="fills"><g><path class="js-fill" d="M0,137.59L8.46,140.26L16.92,134.48L33.85,127.92L42.31,120.94L50.77,111.59L59.23,105.22L67.69,96.12L76.15,89.79L84.62,78.61L93.08,77.94L101.54,75.54L110,78.42L118.46,73.58L126.92,74.86L135.38,75.63L143.85,84.4L152.31,81.42L160.77,86.81L169.23,91.41L177.69,92.27L186.15,97.42L194.62,97.52L203.08,98.65L211.54,101.06L228.46,100.9L236.92,103.27L245.38,100.99L253.85,100.08L270.77,100.41L279.23,99.4L287.69,97.94L296.15,98.12L304.62,98.84L313.08,96.78L321.54,98.03L330,97.08L338.46,98.06L346.92,100.93L355.38,100.62L363.85,105.14L380.77,111.1L389.23,116.9L397.69,122.27L406.15,123.24L414.62,127.36L423.08,128.76L431.54,134.69L440,138.33L440,143L431.54,139.74L423.08,137.35L414.62,131.91L406.15,130.62L389.23,119.27L380.77,113.23L355.38,104.4L346.92,106.7L338.46,105.75L330,99.74L321.54,101.75L313.08,103.95L304.62,101.15L296.15,100.46L287.69,101.3L279.23,105.57L270.77,104.5L262.31,103.36L253.85,104.82L245.38,107.89L236.92,108.9L228.46,105.5L220,107.29L211.54,104.39L203.08,103.82L194.62,105.08L186.15,102.76L177.69,98.47L169.23,99.95L160.77,96.6L152.31,89.36L143.85,88.12L135.38,91.21L126.92,86.96L118.46,80.12L110,85.26L101.54,84.46L93.08,82.02L67.69,103.17L59.23,114.55L50.77,118.36L42.31,125.55L33.85,131.25L25.38,136.49L16.92,139.7L8.46,148.41L0,140.66Z" style="fill: rgb(255, 255, 191); fill-opacity: 1; stroke-width: 0;"/></g></g><g class="errorbars"/><g class="lines"><path class="js-line" d="M0,140.66L8.46,148.41L16.92,139.7L25.38,136.49L33.85,131.25L42.31,125.55L50.77,118.36L59.23,114.55L67.69,103.17L93.08,82.02L101.54,84.46L110,85.26L118.46,80.12L126.92,86.96L135.38,91.21L143.85,88.12L152.31,89.36L160.77,96.6L169.23,99.95L177.69,98.47L186.15,102.76L194.62,105.08L203.08,103.82L211.54,104.39L220,107.29L228.46,105.5L236.92,108.9L245.38,107.89L253.85,104.82L262.31,103.36L270.77,104.5L279.23,105.57L287.69,101.3L296.15,100.46L304.62,101.15L313.08,103.95L321.54,101.75L330,99.74L338.46,105.75L346.92,106.7L355.38,104.4L380.77,113.23L389.23,119.27L406.15,130.62L414.62,131.91L423.08,137.35L431.54,139.74L440,143" style="vector-effect: non-scaling-stroke; fill: none; stroke: rgb(0, 0, 0); stroke-opacity: 1; stroke-width: 0.5px; opacity: 1;"/></g><g class="points"/><g class="text"/></g><g class="trace scatter traceb898af" style="stroke-miterlimit: 2;"><g class="fills"><g><path class="js-fill" d="M0,133.05L8.46,135.34L16.92,129L33.85,124.53L42.31,115.06L50.77,107.12L59.23,95.82L67.69,91.48L76.15,84.51L84.62,71.24L93.08,74.02L101.54,71.74L110,72.74L118.46,70.38L126.92,66.12L135.38,66.86L143.85,68.49L152.31,71.33L160.77,75.8L169.23,77.07L177.69,85.93L186.15,87.63L194.62,93.91L203.08,92.62L211.54,93.32L228.46,96.08L236.92,95.94L245.38,94.23L253.85,94.7L262.31,91.43L270.77,98.28L279.23,91.21L287.69,91.57L296.15,94.67L304.62,94.29L313.08,92.93L321.54,95.73L330,92.89L338.46,94.13L363.85,99.9L372.31,104.59L389.23,111.61L397.69,117L406.15,121.88L414.62,122.91L423.08,127.78L431.54,129.37L440,127.79L440,138.33L431.54,134.69L423.08,128.76L414.62,127.36L406.15,123.24L397.69,122.27L389.23,116.9L380.77,111.1L363.85,105.14L355.38,100.62L346.92,100.93L338.46,98.06L330,97.08L321.54,98.03L313.08,96.78L304.62,98.84L296.15,98.12L287.69,97.94L279.23,99.4L270.77,100.41L253.85,100.08L245.38,100.99L236.92,103.27L228.46,100.9L211.54,101.06L203.08,98.65L194.62,97.52L186.15,97.42L177.69,92.27L169.23,91.41L160.77,86.81L152.31,81.42L143.85,84.4L135.38,75.63L126.92,74.86L118.46,73.58L110,78.42L101.54,75.54L93.08,77.94L84.62,78.61L76.15,89.79L67.69,96.12L59.23,105.22L50.77,111.59L42.31,120.94L33.85,127.92L16.92,134.48L8.46,140.26L0,137.59Z" style="fill: rgb(255, 255, 191); fill-opacity: 1; stroke-width: 0;"/></g></g><g class="errorbars"/><g class="lines"><path class="js-line" d="M0,137.59L8.46,140.26L16.92,134.48L33.85,127.92L42.31,120.94L50.77,111.59L59.23,105.22L67.69,96.12L76.15,89.79L84.62,78.61L93.08,77.94L101.54,75.54L110,78.42L118.46,73.58L126.92,74.86L135.38,75.63L143.85,84.4L152.31,81.42L160.77,86.81L169.23,91.41L177.69,92.27L186.15,97.42L194.62,97.52L203.08,98.65L211.54,101.06L228.46,100.9L236.92,103.27L245.38,100.99L253.85,100.08L270.77,100.41L279.23,99.4L287.69,97.94L296.15,98.12L304.62,98.84L313.08,96.78L321.54,98.03L330,97.08L338.46,98.06L346.92,100.93L355.38,100.62L363.85,105.14L380.77,111.1L389.23,116.9L397.69,122.27L406.15,123.24L414.62,127.36L423.08,128.76L431.54,134.69L440,138.33" style="vector-effect: non-scaling-stroke; fill: none; stroke: rgb(0, 0, 0); stroke-opacity: 1; stroke-width: 1px; opacity: 1;"/></g><g class="points"/><g class="text"/></g><g class="trace scatter tracea2a2c3" style="stroke-miterlimit: 2;"><g class="fills"><g><path class="js-fill" d="M0,122.33L8.46,116.64L16.92,113.43L25.38,111.71L33.85,120.13L50.77,93.38L59.23,81.94L67.69,78.26L76.15,69.49L84.62,58.99L93.08,67.25L101.54,59.78L110,56.98L118.46,56.49L126.92,52.01L135.38,47.89L143.85,60.45L152.31,58.9L160.77,47.52L177.69,68.42L186.15,74.83L194.62,83.48L203.08,79.13L211.54,76.84L220,76.18L228.46,87.63L236.92,78.59L245.38,77.21L253.85,83.7L262.31,76.62L270.77,96.91L279.23,70.42L287.69,79.38L296.15,93.69L304.62,86.64L313.08,85.47L321.54,89.36L330,85.3L338.46,77.93L346.92,81.28L355.38,95.66L363.85,93.27L372.31,98.98L380.77,106.08L389.23,101.21L397.69,114.42L406.15,110.71L414.62,112.71L423.08,124.61L431.54,114.28L440,119.1L440,127.79L431.54,129.37L423.08,127.78L414.62,122.91L406.15,121.88L397.69,117L389.23,111.61L372.31,104.59L363.85,99.9L338.46,94.13L330,92.89L321.54,95.73L313.08,92.93L304.62,94.29L296.15,94.67L287.69,91.57L279.23,91.21L270.77,98.28L262.31,91.43L253.85,94.7L245.38,94.23L236.92,95.94L228.46,96.08L211.54,93.32L203.08,92.62L194.62,93.91L186.15,87.63L177.69,85.93L169.23,77.07L160.77,75.8L152.31,71.33L143.85,68.49L135.38,66.86L126.92,66.12L118.46,70.38L110,72.74L101.54,71.74L93.08,74.02L84.62,71.24L76.15,84.51L67.69,91.48L59.23,95.82L50.77,107.12L42.31,115.06L33.85,124.53L16.92,129L8.46,135.34L0,133.05Z" style="fill: rgb(252, 141, 89); fill-opacity: 1; stroke-width: 0;"/></g></g><g class="errorbars"/><g class="lines"><path class="js-line" d="M0,133.05L8.46,135.34L16.92,129L33.85,124.53L42.31,115.06L50.77,107.12L59.23,95.82L67.69,91.48L76.15,84.51L84.62,71.24L93.08,74.02L101.54,71.74L110,72.74L118.46,70.38L126.92,66.12L135.38,66.86L143.85,68.49L152.31,71.33L160.77,75.8L169.23,77.07L177.69,85.93L186.15,87.63L194.62,93.91L203.08,92.62L211.54,93.32L228.46,96.08L236.92,95.94L245.38,94.23L253.85,94.7L262.31,91.43L270.77,98.28L279.23,91.21L287.69,91.57L296.15,94.67L304.62,94.29L313.08,92.93L321.54,95.73L330,92.89L338.46,94.13L363.85,99.9L372.31,104.59L389.23,111.61L397.69,117L406.15,121.88L414.62,122.91L423.08,127.78L431.54,129.37L440,127.79" style="vector-effect: non-scaling-stroke; fill: none; stroke: rgb(0, 0, 0); stroke-opacity: 1; stroke-width: 0.5px; opacity: 1;"/></g><g class="points"/><g class="text"/></g><g class="trace scatter tracea29106" style="stroke-miterlimit: 2;"><g class="fills"/><g class="errorbars"/><g class="lines"><path class="js-line" d="M0,122.33L8.46,116.64L16.92,113.43L25.38,111.71L33.85,120.13L50.77,93.38L59.23,81.94L67.69,78.26L76.15,69.49L84.62,58.99L93.08,67.25L101.54,59.78L110,56.98L118.46,56.49L126.92,52.01L135.38,47.89L143.85,60.45L152.31,58.9L160.77,47.52L177.69,68.42L186.15,74.83L194.62,83.48L203.08,79.13L211.54,76.84L220,76.18L228.46,87.63L236.92,78.59L245.38,77.21L253.85,83.7L262.31,76.62L270.77,96.91L279.23,70.42L287.69,79.38L296.15,93.69L304.62,86.64L313.08,85.47L321.54,89.36L330,85.3L338.46,77.93L346.92,81.28L355.38,95.66L363.85,93.27L372.31,98.98L380.77,106.08L389.23,101.21L397.69,114.42L406.15,110.71L414.62,112.71L423.08,124.61L431.54,114.28L440,119.1" style="vector-effect: non-scaling-stroke; fill: none; stroke: rgb(0, 0, 0); stroke-opacity: 1; stroke-width: 0.25px; opacity: 1;"/></g><g class="points"/><g class="text"/></g><g class="trace scatter tracedc4d4e" style="stroke-miterlimit: 2; opacity: 1;"><g class="fills"/><g class="errorbars"/><g class="lines"/><g class="points"><path class="point" transform="translate(245.38,68.2)" d="M4,0A4,4 0 1,1 0,-4A4,4 0 0,1 4,0ZM0,0.5L0.5,0L0,-0.5L-0.5,0Z" style="opacity: 1; stroke: rgb(0, 0, 0); stroke-opacity: 1; stroke-width: 1px; fill: none;"/><path class="point" transform="translate(253.85,74.4)" d="M4,0A4,4 0 1,1 0,-4A4,4 0 0,1 4,0ZM0,0.5L0.5,0L0,-0.5L-0.5,0Z" style="opacity: 1; stroke: rgb(0, 0, 0); stroke-opacity: 1; stroke-width: 1px; fill: none;"/><path class="point" transform="translate(262.31,99.2)" d="M4,0A4,4 0 1,1 0,-4A4,4 0 0,1 4,0ZM0,0.5L0.5,0L0,-0.5L-0.5,0Z" style="opacity: 1; stroke: rgb(0, 0, 0); stroke-opacity: 1; stroke-width: 1px; fill: none;"/><path class="point" transform="translate(270.77,99.2)" d="M4,0A4,4 0 1,1 0,-4A4,4 0 0,1 4,0ZM0,0.5L0.5,0L0,-0.5L-0.5,0Z" style="opacity: 1; stroke: rgb(0, 0, 0); stroke-opacity: 1; stroke-width: 1px; fill: none;"/></g><g class="text"/></g></g></g><g class="overplot"/><path class="xlines-above crisp" d="M0,0" style="fill: none;"/><path class="ylines-above crisp" d="M0,0" style="fill: none;"/><g class="overlines-above"/><g class="xaxislayer-above"/><g class="yaxislayer-above"><g class="y2tick"><text text-anchor="end" x="79" y="4.199999999999999" transform="translate(0,472.00000000000006)" style="font-family: 'Open Sans', verdana, arial, sans-serif; font-size: 12px; fill: rgb(42, 63, 95); fill-opacity: 1; white-space: pre; opacity: 1;">20</text></g><g class="y2tick"><text text-anchor="end" x="79" y="4.199999999999999" style="font-family: 'Open Sans', verdana, arial, sans-serif; font-size: 12px; fill: rgb(42, 63, 95); fill-opacity: 1; white-space: pre; opacity: 1;" transform="translate(0,410.00000000000006)">30</text></g><g class="y2tick"><text text-anchor="end" x="79" y="4.199999999999999" style="font-family: 'Open Sans', verdana, arial, sans-serif; font-size: 12px; fill: rgb(42, 63, 95); fill-opacity: 1; white-space: pre; opacity: 1;" transform="translate(0,348.00000000000006)">40</text></g></g><g class="overaxes-above"/></g><g class="subplot x3y3"><g class="layer-subplot"><g class="shapelayer"/><g class="imagelayer"/></g><g class="minor-gridlayer"><g class="x3"/><g class="y3"/></g><g class="gridlayer"><g class="x3"><path class="x3grid crisp" transform="translate(156.15,0)" d="M0,534v186" style="stroke: rgb(255, 255, 255); stroke-opacity: 1; stroke-width: 1px;"/><path class="x3grid crisp" transform="translate(240.77,0)" d="M0,534v186" style="stroke: rgb(255, 255, 255); stroke-opacity: 1; stroke-width: 1px;"/><path class="x3grid crisp" transform="translate(325.38,0)" d="M0,534v186" style="stroke: rgb(255, 255, 255); stroke-opacity: 1; stroke-width: 1px;"/><path class="x3grid crisp" transform="translate(410,0)" d="M0,534v186" style="stroke: rgb(255, 255, 255); stroke-opacity: 1; stroke-width: 1px;"/><path class="x3grid crisp" transform="translate(494.62,0)" d="M0,534v186" style="stroke: rgb(255, 255, 255); stroke-opacity: 1; stroke-width: 1px;"/></g><g class="y3"><path class="y3grid crisp" transform="translate(0,682.8)" d="M80,0h440" style="stroke: rgb(255, 255, 255); stroke-opacity: 1; stroke-width: 1px;"/><path class="y3grid crisp" transform="translate(0,645.6)" d="M80,0h440" style="stroke: rgb(255, 255, 255); stroke-opacity: 1; stroke-width: 1px;"/><path class="y3grid crisp" transform="translate(0,608.4)" d="M80,0h440" style="stroke: rgb(255, 255, 255); stroke-opacity: 1; stroke-width: 1px;"/><path class="y3grid crisp" transform="translate(0,571.2)" d="M80,0h440" style="stroke: rgb(255, 255, 255); stroke-opacity: 1; stroke-width: 1px;"/></g></g><g class="zerolinelayer"/><path class="xlines-below"/><path class="ylines-below"/><g class="overlines-below"/><g class="xaxislayer-below"/><g class="yaxislayer-below"/><g class="overaxes-below"/><g class="plot" transform="translate(80,534)" clip-path="url(#clipd24780x3y3plot)"><g class="scatterlayer mlayer"><g class="trace scatter trace448d08" style="stroke-miterlimit: 2;"><g class="fills"><g><path class="js-fill" d="M0,114.3L8.46,123.1L16.92,115.74L25.38,122.38L33.85,116.98L42.31,107.87L50.77,103.11L59.23,99.03L67.69,85.62L84.62,78.87L93.08,68.2L101.54,63.64L110,60.6L118.46,57.87L126.92,53.15L143.85,56.36L152.31,51.97L160.77,49.62L169.23,49.34L177.69,46.96L186.15,47.8L194.62,48.46L203.08,45.74L211.54,46.78L220,46.21L228.46,47.39L236.92,47.74L245.38,47.4L253.85,48.05L262.31,45.43L270.77,46.81L279.23,47.7L287.69,46.34L296.15,48.24L304.62,47.38L313.08,49.76L321.54,47.36L338.46,53.03L346.92,56.72L355.38,55.61L363.85,63.34L372.31,68.36L380.77,71.45L389.23,84.6L397.69,91.01L406.15,98.26L414.62,104.04L423.08,114.27L431.54,116.24L440,123.44L440,133.85L431.54,130.12L423.08,124.14L414.62,124.06L406.15,114.47L397.69,104.06L389.23,94.8L380.77,78.46L363.85,68.6L355.38,60.62L346.92,61.76L338.46,55.32L330,53.22L321.54,48.49L313.08,52.55L304.62,50.61L296.15,52.28L287.69,49.54L279.23,49.62L270.77,50.01L262.31,48.44L253.85,50.5L245.38,53.53L236.92,49.31L211.54,50.15L203.08,49.46L186.15,50.28L177.69,50.38L169.23,52.54L160.77,58.06L152.31,57.85L143.85,64.91L135.38,64.49L126.92,60.19L118.46,68.11L110,64.98L101.54,66.67L93.08,78.15L84.62,92.82L76.15,97.35L67.69,94L59.23,118.17L50.77,120.31L42.31,131.82L33.85,131.54L25.38,138.1L16.92,127.75L8.46,135.9L0,119.65Z" style="fill: rgb(90, 180, 172); fill-opacity: 1; stroke-width: 0;"/></g></g><g class="errorbars"/><g class="lines"><path class="js-line" d="M0,119.65L8.46,135.9L16.92,127.75L25.38,138.1L33.85,131.54L42.31,131.82L50.77,120.31L59.23,118.17L67.69,94L76.15,97.35L84.62,92.82L93.08,78.15L101.54,66.67L110,64.98L118.46,68.11L126.92,60.19L135.38,64.49L143.85,64.91L152.31,57.85L160.77,58.06L169.23,52.54L177.69,50.38L186.15,50.28L203.08,49.46L211.54,50.15L236.92,49.31L245.38,53.53L253.85,50.5L262.31,48.44L270.77,50.01L279.23,49.62L287.69,49.54L296.15,52.28L304.62,50.61L313.08,52.55L321.54,48.49L330,53.22L338.46,55.32L346.92,61.76L355.38,60.62L363.85,68.6L380.77,78.46L389.23,94.8L397.69,104.06L406.15,114.47L414.62,124.06L423.08,124.14L431.54,130.12L440,133.85" style="vector-effect: non-scaling-stroke; fill: none; stroke: rgb(0, 0, 0); stroke-opacity: 1; stroke-width: 0.25px; opacity: 1;"/></g><g class="points"/><g class="text"/></g><g class="trace scatter trace1a5817" style="stroke-miterlimit: 2;"><g class="fills"><g><path class="js-fill" d="M0,107.55L8.46,117.96L16.92,111.79L25.38,108.37L33.85,106.58L42.31,102.18L50.77,92.23L59.23,88.12L67.69,80.52L84.62,70.14L93.08,65.82L101.54,58.98L110,57.13L118.46,53.96L126.92,49.6L135.38,50.51L143.85,50.58L152.31,46.16L160.77,46.82L169.23,47.03L177.69,46.25L186.15,44.77L194.62,45.18L203.08,44.5L211.54,45.94L228.46,44.77L236.92,44.85L253.85,45.17L262.31,43.39L279.23,46.54L287.69,44.67L296.15,45.65L304.62,44.95L313.08,45.87L321.54,45.57L330,46.56L338.46,49.64L355.38,54.12L363.85,60.91L372.31,64.7L380.77,67.3L389.23,78.54L397.69,86.17L406.15,86.63L414.62,94.72L423.08,96.2L431.54,106.24L440,113.91L440,123.44L431.54,116.24L423.08,114.27L414.62,104.04L406.15,98.26L397.69,91.01L389.23,84.6L380.77,71.45L372.31,68.36L363.85,63.34L355.38,55.61L346.92,56.72L338.46,53.03L321.54,47.36L313.08,49.76L304.62,47.38L296.15,48.24L287.69,46.34L279.23,47.7L270.77,46.81L262.31,45.43L253.85,48.05L245.38,47.4L236.92,47.74L228.46,47.39L220,46.21L211.54,46.78L203.08,45.74L194.62,48.46L186.15,47.8L177.69,46.96L169.23,49.34L160.77,49.62L152.31,51.97L143.85,56.36L126.92,53.15L118.46,57.87L110,60.6L101.54,63.64L93.08,68.2L84.62,78.87L67.69,85.62L59.23,99.03L50.77,103.11L42.31,107.87L33.85,116.98L25.38,122.38L16.92,115.74L8.46,123.1L0,114.3Z" style="fill: rgb(245, 245, 245); fill-opacity: 1; stroke-width: 0;"/></g></g><g class="errorbars"/><g class="lines"><path class="js-line" d="M0,114.3L8.46,123.1L16.92,115.74L25.38,122.38L33.85,116.98L42.31,107.87L50.77,103.11L59.23,99.03L67.69,85.62L84.62,78.87L93.08,68.2L101.54,63.64L110,60.6L118.46,57.87L126.92,53.15L143.85,56.36L152.31,51.97L160.77,49.62L169.23,49.34L177.69,46.96L186.15,47.8L194.62,48.46L203.08,45.74L211.54,46.78L220,46.21L228.46,47.39L236.92,47.74L245.38,47.4L253.85,48.05L262.31,45.43L270.77,46.81L279.23,47.7L287.69,46.34L296.15,48.24L304.62,47.38L313.08,49.76L321.54,47.36L338.46,53.03L346.92,56.72L355.38,55.61L363.85,63.34L372.31,68.36L380.77,71.45L389.23,84.6L397.69,91.01L406.15,98.26L414.62,104.04L423.08,114.27L431.54,116.24L440,123.44" style="vector-effect: non-scaling-stroke; fill: none; stroke: rgb(0, 0, 0); stroke-opacity: 1; stroke-width: 0.5px; opacity: 1;"/></g><g class="points"/><g class="text"/></g><g class="trace scatter tracefca6fd" style="stroke-miterlimit: 2;"><g class="fills"><g><path class="js-fill" d="M0,103.32L8.46,110.03L16.92,104.36L25.38,101.23L33.85,100.21L42.31,90.44L50.77,88.91L59.23,83.74L67.69,74L76.15,71.8L84.62,61L93.08,59.99L101.54,57.47L110,54.28L118.46,46.98L135.38,46.03L143.85,45.9L160.77,41.64L169.23,41.32L177.69,41.13L186.15,41.84L194.62,43.12L203.08,40.66L211.54,43.02L220,43.44L228.46,42.36L236.92,42.92L245.38,42.5L253.85,43.51L262.31,41.32L270.77,42.76L279.23,42.15L287.69,43.98L296.15,43.4L304.62,43.95L313.08,42.68L321.54,44.18L330,44.36L338.46,47.22L346.92,48.21L355.38,51.41L372.31,62L380.77,66.05L389.23,75.22L397.69,79.26L414.62,85.2L423.08,90.61L431.54,95.73L440,110.47L440,113.91L431.54,106.24L423.08,96.2L414.62,94.72L406.15,86.63L397.69,86.17L389.23,78.54L380.77,67.3L372.31,64.7L363.85,60.91L355.38,54.12L338.46,49.64L330,46.56L321.54,45.57L313.08,45.87L304.62,44.95L296.15,45.65L287.69,44.67L279.23,46.54L262.31,43.39L253.85,45.17L236.92,44.85L228.46,44.77L211.54,45.94L203.08,44.5L194.62,45.18L186.15,44.77L177.69,46.25L169.23,47.03L160.77,46.82L152.31,46.16L143.85,50.58L135.38,50.51L126.92,49.6L118.46,53.96L110,57.13L101.54,58.98L93.08,65.82L84.62,70.14L67.69,80.52L59.23,88.12L50.77,92.23L42.31,102.18L33.85,106.58L25.38,108.37L16.92,111.79L8.46,117.96L0,107.55Z" style="fill: rgb(245, 245, 245); fill-opacity: 1; stroke-width: 0;"/></g></g><g class="errorbars"/><g class="lines"><path class="js-line" d="M0,107.55L8.46,117.96L16.92,111.79L25.38,108.37L33.85,106.58L42.31,102.18L50.77,92.23L59.23,88.12L67.69,80.52L84.62,70.14L93.08,65.82L101.54,58.98L110,57.13L118.46,53.96L126.92,49.6L135.38,50.51L143.85,50.58L152.31,46.16L160.77,46.82L169.23,47.03L177.69,46.25L186.15,44.77L194.62,45.18L203.08,44.5L211.54,45.94L228.46,44.77L236.92,44.85L253.85,45.17L262.31,43.39L279.23,46.54L287.69,44.67L296.15,45.65L304.62,44.95L313.08,45.87L321.54,45.57L330,46.56L338.46,49.64L355.38,54.12L363.85,60.91L372.31,64.7L380.77,67.3L389.23,78.54L397.69,86.17L406.15,86.63L414.62,94.72L423.08,96.2L431.54,106.24L440,113.91" style="vector-effect: non-scaling-stroke; fill: none; stroke: rgb(0, 0, 0); stroke-opacity: 1; stroke-width: 1px; opacity: 1;"/></g><g class="points"/><g class="text"/></g><g class="trace scatter trace2f13e3" style="stroke-miterlimit: 2;"><g class="fills"><g><path class="js-fill" d="M0,95.57L8.46,99.86L16.92,97.55L25.38,89.26L33.85,92.97L42.31,86.01L50.77,68.52L59.23,66.77L67.69,61.52L76.15,56L84.62,49.21L93.08,50.7L101.54,53.46L110,45.02L118.46,43.55L135.38,42.01L143.85,33.58L152.31,38.78L160.77,34.93L169.23,32.92L177.69,33.58L186.15,40.15L194.62,35.58L211.54,40.08L220,41.95L228.46,35.57L236.92,37.3L245.38,36.16L253.85,38.79L262.31,35.54L270.77,38.49L279.23,34.97L287.69,42.25L296.15,37.41L304.62,39.05L313.08,35.31L321.54,41.34L330,36.86L338.46,42.76L346.92,45.45L355.38,49.82L363.85,52.51L372.31,53.28L380.77,64.01L389.23,64.67L397.69,62.75L406.15,71.6L414.62,76.23L423.08,77.43L431.54,85.38L440,98.04L440,110.47L431.54,95.73L423.08,90.61L414.62,85.2L397.69,79.26L389.23,75.22L380.77,66.05L372.31,62L355.38,51.41L346.92,48.21L338.46,47.22L330,44.36L321.54,44.18L313.08,42.68L304.62,43.95L296.15,43.4L287.69,43.98L279.23,42.15L270.77,42.76L262.31,41.32L253.85,43.51L245.38,42.5L236.92,42.92L228.46,42.36L220,43.44L211.54,43.02L203.08,40.66L194.62,43.12L186.15,41.84L177.69,41.13L169.23,41.32L160.77,41.64L143.85,45.9L135.38,46.03L118.46,46.98L110,54.28L101.54,57.47L93.08,59.99L84.62,61L76.15,71.8L67.69,74L59.23,83.74L50.77,88.91L42.31,90.44L33.85,100.21L25.38,101.23L16.92,104.36L8.46,110.03L0,103.32Z" style="fill: rgb(216, 179, 101); fill-opacity: 1; stroke-width: 0;"/></g></g><g class="errorbars"/><g class="lines"><path class="js-line" d="M0,103.32L8.46,110.03L16.92,104.36L25.38,101.23L33.85,100.21L42.31,90.44L50.77,88.91L59.23,83.74L67.69,74L76.15,71.8L84.62,61L93.08,59.99L101.54,57.47L110,54.28L118.46,46.98L135.38,46.03L143.85,45.9L160.77,41.64L169.23,41.32L177.69,41.13L186.15,41.84L194.62,43.12L203.08,40.66L211.54,43.02L220,43.44L228.46,42.36L236.92,42.92L245.38,42.5L253.85,43.51L262.31,41.32L270.77,42.76L279.23,42.15L287.69,43.98L296.15,43.4L304.62,43.95L313.08,42.68L321.54,44.18L330,44.36L338.46,47.22L346.92,48.21L355.38,51.41L372.31,62L380.77,66.05L389.23,75.22L397.69,79.26L414.62,85.2L423.08,90.61L431.54,95.73L440,110.47" style="vector-effect: non-scaling-stroke; fill: none; stroke: rgb(0, 0, 0); stroke-opacity: 1; stroke-width: 0.5px; opacity: 1;"/></g><g class="points"/><g class="text"/></g><g class="trace scatter trace6452e8" style="stroke-miterlimit: 2;"><g class="fills"/><g class="errorbars"/><g class="lines"><path class="js-line" d="M0,95.57L8.46,99.86L16.92,97.55L25.38,89.26L33.85,92.97L42.31,86.01L50.77,68.52L59.23,66.77L67.69,61.52L76.15,56L84.62,49.21L93.08,50.7L101.54,53.46L110,45.02L118.46,43.55L135.38,42.01L143.85,33.58L152.31,38.78L160.77,34.93L169.23,32.92L177.69,33.58L186.15,40.15L194.62,35.58L211.54,40.08L220,41.95L228.46,35.57L236.92,37.3L245.38,36.16L253.85,38.79L262.31,35.54L270.77,38.49L279.23,34.97L287.69,42.25L296.15,37.41L304.62,39.05L313.08,35.31L321.54,41.34L330,36.86L338.46,42.76L346.92,45.45L355.38,49.82L363.85,52.51L372.31,53.28L380.77,64.01L389.23,64.67L397.69,62.75L406.15,71.6L414.62,76.23L423.08,77.43L431.54,85.38L440,98.04" style="vector-effect: non-scaling-stroke; fill: none; stroke: rgb(0, 0, 0); stroke-opacity: 1; stroke-width: 0.25px; opacity: 1;"/></g><g class="points"/><g class="text"/></g><g class="trace scatter traceb69dc7" style="stroke-miterlimit: 2; opacity: 1;"><g class="fills"/><g class="errorbars"/><g class="lines"/><g class="points"><path class="point" transform="translate(245.38,29.76)" d="M4,0A4,4 0 1,1 0,-4A4,4 0 0,1 4,0ZM0,0.5L0.5,0L0,-0.5L-0.5,0Z" style="opacity: 1; stroke: rgb(0, 0, 0); stroke-opacity: 1; stroke-width: 1px; fill: none;"/><path class="point" transform="translate(253.85,29.76)" d="M4,0A4,4 0 1,1 0,-4A4,4 0 0,1 4,0ZM0,0.5L0.5,0L0,-0.5L-0.5,0Z" style="opacity: 1; stroke: rgb(0, 0, 0); stroke-opacity: 1; stroke-width: 1px; fill: none;"/><path class="point" transform="translate(262.31,37.2)" d="M4,0A4,4 0 1,1 0,-4A4,4 0 0,1 4,0ZM0,0.5L0.5,0L0,-0.5L-0.5,0Z" style="opacity: 1; stroke: rgb(0, 0, 0); stroke-opacity: 1; stroke-width: 1px; fill: none;"/><path class="point" transform="translate(270.77,37.2)" d="M4,0A4,4 0 1,1 0,-4A4,4 0 0,1 4,0ZM0,0.5L0.5,0L0,-0.5L-0.5,0Z" style="opacity: 1; stroke: rgb(0, 0, 0); stroke-opacity: 1; stroke-width: 1px; fill: none;"/></g><g class="text"/></g></g></g><g class="overplot"/><path class="xlines-above crisp" d="M0,0" style="fill: none;"/><path class="ylines-above crisp" d="M0,0" style="fill: none;"/><g class="overlines-above"/><g class="xaxislayer-above"><g class="x3tick"><text text-anchor="middle" x="0" y="733" transform="translate(156.15,0)" style="font-family: 'Open Sans', verdana, arial, sans-serif; font-size: 12px; fill: rgb(42, 63, 95); fill-opacity: 1; white-space: pre; opacity: 1;">10</text></g><g class="x3tick"><text text-anchor="middle" x="0" y="733" style="font-family: 'Open Sans', verdana, arial, sans-serif; font-size: 12px; fill: rgb(42, 63, 95); fill-opacity: 1; white-space: pre; opacity: 1;" transform="translate(240.77,0)">20</text></g><g class="x3tick"><text text-anchor="middle" x="0" y="733" style="font-family: 'Open Sans', verdana, arial, sans-serif; font-size: 12px; fill: rgb(42, 63, 95); fill-opacity: 1; white-space: pre; opacity: 1;" transform="translate(325.38,0)">30</text></g><g class="x3tick"><text text-anchor="middle" x="0" y="733" style="font-family: 'Open Sans', verdana, arial, sans-serif; font-size: 12px; fill: rgb(42, 63, 95); fill-opacity: 1; white-space: pre; opacity: 1;" transform="translate(410,0)">40</text></g><g class="x3tick"><text text-anchor="middle" x="0" y="733" style="font-family: 'Open Sans', verdana, arial, sans-serif; font-size: 12px; fill: rgb(42, 63, 95); fill-opacity: 1; white-space: pre; opacity: 1;" transform="translate(494.62,0)">50</text></g></g><g class="yaxislayer-above"><g class="y3tick"><text text-anchor="end" x="79" y="4.199999999999999" transform="translate(0,720)" style="font-family: 'Open Sans', verdana, arial, sans-serif; font-size: 12px; fill: rgb(42, 63, 95); fill-opacity: 1; white-space: pre; opacity: 1;">5</text></g><g class="y3tick"><text text-anchor="end" x="79" y="4.199999999999999" style="font-family: 'Open Sans', verdana, arial, sans-serif; font-size: 12px; fill: rgb(42, 63, 95); fill-opacity: 1; white-space: pre; opacity: 1;" transform="translate(0,682.8)">10</text></g><g class="y3tick"><text text-anchor="end" x="79" y="4.199999999999999" style="font-family: 'Open Sans', verdana, arial, sans-serif; font-size: 12px; fill: rgb(42, 63, 95); fill-opacity: 1; white-space: pre; opacity: 1;" transform="translate(0,645.6)">15</text></g><g class="y3tick"><text text-anchor="end" x="79" y="4.199999999999999" style="font-family: 'Open Sans', verdana, arial, sans-serif; font-size: 12px; fill: rgb(42, 63, 95); fill-opacity: 1; white-space: pre; opacity: 1;" transform="translate(0,608.4)">20</text></g><g class="y3tick"><text text-anchor="end" x="79" y="4.199999999999999" style="font-family: 'Open Sans', verdana, arial, sans-serif; font-size: 12px; fill: rgb(42, 63, 95); fill-opacity: 1; white-space: pre; opacity: 1;" transform="translate(0,571.2)">25</text></g><g class="y3tick"><text text-anchor="end" x="79" y="4.199999999999999" style="font-family: 'Open Sans', verdana, arial, sans-serif; font-size: 12px; fill: rgb(42, 63, 95); fill-opacity: 1; white-space: pre; opacity: 1;" transform="translate(0,534)">30</text></g></g><g class="overaxes-above"/></g></g><g class="polarlayer"/><g class="smithlayer"/><g class="ternarylayer"/><g class="geolayer"/><g class="funnelarealayer"/><g class="pielayer"/><g class="iciclelayer"/><g class="treemaplayer"/><g class="sunburstlayer"/><g class="glimages"/><defs id="topdefs-d24780"><g class="clips"/></defs><g class="layer-above"><g class="imagelayer"/><g class="shapelayer"/></g><g class="infolayer"><g class="g-gtitle"><text class="gtitle" x="30" y="50" text-anchor="start" dy="0em" style="font-family: 'Open Sans', verdana, arial, sans-serif; font-size: 17px; fill: rgb(42, 63, 95); opacity: 1; font-weight: normal; white-space: pre;">Climatology and S2S forecast for Rangamati</text></g><g class="g-xtitle"/><g class="g-x2title"/><g class="g-x3title"/><g class="g-ytitle"><text class="ytitle" transform="rotate(-90,34.16875,193)" x="34.16875" y="193" text-anchor="middle" style="font-family: 'Open Sans', verdana, arial, sans-serif; font-size: 14px; fill: rgb(42, 63, 95); opacity: 1; font-weight: normal; white-space: pre;">[mm]</text></g><g class="g-y2title"><text class="y2title" transform="rotate(-90,40.840625,410.00000000000006)" x="40.840625" y="410.00000000000006" text-anchor="middle" style="font-family: 'Open Sans', verdana, arial, sans-serif; font-size: 14px; fill: rgb(42, 63, 95); opacity: 1; font-weight: normal; white-space: pre;">[C]</text></g><g class="g-y3title"><text class="y3title" transform="rotate(-90,40.840625,627)" x="40.840625" y="627" text-anchor="middle" style="font-family: 'Open Sans', verdana, arial, sans-serif; font-size: 14px; fill: rgb(42, 63, 95); opacity: 1; font-weight: normal; white-space: pre;">[C]</text></g><g class="annotation" data-index="0" style="opacity: 1;"><g class="annotation-text-g" transform="rotate(0,300,89.5)"><g class="cursor-pointer" transform="translate(237,79)"><rect class="bg" x="0.5" y="0.5" width="126" height="20" style="stroke-width: 1px; stroke: rgb(0, 0, 0); stroke-opacity: 0; fill: rgb(0, 0, 0); fill-opacity: 0;"/><text class="annotation-text" text-anchor="middle" x="63.359375" y="16" style="font-family: 'Open Sans', verdana, arial, sans-serif; font-size: 16px; fill: rgb(42, 63, 95); fill-opacity: 1; white-space: pre;">Precipitation sum</text></g></g></g><g class="annotation" data-index="1" style="opacity: 1;"><g class="annotation-text-g" transform="rotate(0,300,306.50000000000006)"><g class="cursor-pointer" transform="translate(196,296)"><rect class="bg" x="0.5" y="0.5" width="208" height="20" style="stroke-width: 1px; stroke: rgb(0, 0, 0); stroke-opacity: 0; fill: rgb(0, 0, 0); fill-opacity: 0;"/><text class="annotation-text" text-anchor="middle" x="104.265625" y="16" style="font-family: 'Open Sans', verdana, arial, sans-serif; font-size: 16px; fill: rgb(42, 63, 95); fill-opacity: 1; white-space: pre;">Mean maximum temperature</text></g></g></g><g class="annotation" data-index="2" style="opacity: 1;"><g class="annotation-text-g" transform="rotate(0,300,523.5)"><g class="cursor-pointer" transform="translate(198,513)"><rect class="bg" x="0.5" y="0.5" width="203" height="20" style="stroke-width: 1px; stroke: rgb(0, 0, 0); stroke-opacity: 0; fill: rgb(0, 0, 0); fill-opacity: 0;"/><text class="annotation-text" text-anchor="middle" x="102.046875" y="16" style="font-family: 'Open Sans', verdana, arial, sans-serif; font-size: 16px; fill: rgb(42, 63, 95); fill-opacity: 1; white-space: pre;">Mean minimum temperature</text></g></g></g><g class="annotation" data-index="3" style="opacity: 1;"><g class="annotation-text-g" transform="rotate(0,300,760.5)"><g class="cursor-pointer" transform="translate(277,750)"><rect class="bg" x="0.5" y="0.5" width="45" height="20" style="stroke-width: 1px; stroke: rgb(0, 0, 0); stroke-opacity: 0; fill: rgb(0, 0, 0); fill-opacity: 0;"/><text class="annotation-text" text-anchor="middle" x="22.3125" y="16" style="font-family: 'Open Sans', verdana, arial, sans-serif; font-size: 16px; fill: rgb(42, 63, 95); fill-opacity: 1; white-space: pre;">Week</text></g></g></g></g></svg>