<svg class="main-svg" xmlns="http://www.w3.org/2000/svg" xmlns:xlink="http://www.w3.org/1999/xlink" width="600" height="800" style="" viewBox="0 0 600 800"><rect x="0" y="0" width="600" height="800" style="fill: rgb(255, 255, 255); fill-opacity: 1;"/><defs id="defs-123b3b"><g class="clips"><clipPath id="clip123b3bxyplot" class="plotclip"><rect width="440" height="186.00000000000003"/></clipPath><clipPath id="clip123b3bx2y2plot" class="plotclip"><rect width="440" height="185.99999999999997"/></clipPath><clipPath id="clip123b3bx3y3plot" class="plotclip"><rect width="440" height="186"/></clipPath><clipPath class="axesclip" id="clip123b3bx"><rect x="80" y="0" width="440" height="800"/></clipPath><clipPath class="axesclip" id="clip123b3by"><rect x="0" y="100" width="600" height="186.00000000000003"/></clipPath><clipPath class="axesclip" id="clip123b3bxy"><rect x="80" y="100" width="440" height="186.00000000000003"/></clipPath><clipPath class="axesclip" id="clip123b3by2"><rect x="0" y="317.00000000000006" width="600" height="185.99999999999997"/></clipPath><clipPath class="axesclip" id="clip123b3bxy2"><rect x="80" y="317.00000000000006" width="440" height="185.99999999999997"/></clipPath><clipPath class="axesclip" id="clip123b3by3"><rect x="0" y="534" width="600" height="186"/></clipPath><clipPath class="axesclip" id="clip123b3bxy3"><rect x="80" y="534" width="440" height="186"/></clipPath><clipPath class="axesclip" id="clip123b3bx2"><rect x="80" y="0" width="440" height="800"/></clipPath><clipPath class="axesclip" id="clip123b3bx2y"><rect x="80" y="100" width="440" height="186.00000000000003"/></clipPath><clipPath class="axesclip" id="clip123b3bx2y2"><rect x="80" y="317.00000000000006" width="440" height="185.99999999999997"/></clipPath><clipPath class="axesclip" id="clip123b3bx2y3"><rect x="80" y="534" width="440" height="186"/></clipPath><clipPath class="axesclip" id="clip123b3bx3"><rect x="80" y="0" width="440" height="800"/></clipPath><clipPath class="axesclip" id="clip123b3bx3y"><rect x="80" y="100" width="440" height="186.00000000000003"/></clipPath><clipPath class="axesclip" id="clip123b3bx3y2"><rect x="80" y="317.00000000000006" width="440" height="185.99999999999997"/></clipPath><clipPath class="axesclip" id="clip123b3bx3y3"><rect x="80" y="534" width="440" height="186"/></clipPath></g><g class="gradients"/><g class="patterns"/></defs><g class="bglayer"><rect class="bg" x="80" y="100" width="440" height="186.00000000000003" style="fill: rgb(229, 236, 246); fill-opacity: 1; stroke-width: 0;"/><rect class="bg" x="80" y="317.00000000000006" width="440" height="185.99999999999997" style="fill: rgb(229, 236, 246); fill-opacity: 1; stroke-width: 0;"/><rect class="bg" x="80" y="534" width="440" height="186" style="fill: rgb(229, 236, 246); fill-opacity: 1; stroke-width: 0;"/></g><g class="layer-below"><g class="imagelayer"/><g class="shapelayer"/></g><g class="cartesianlayer"><g class="subplot xy"><g class="layer-subplot"><g class="shapelayer"/><g class="imagelayer"/></g><g class="minor-gridlayer"><g class="x"/><g class="y"/></g><g class="gridlayer"><g class="x"><path class="xgrid crisp" transform="translate(156.15,0)" d="M0,100v186.00000000000003" style="stroke: rgb(255, 255, 255); stroke-opacity: 1; stroke-width: 1px;"/><path class="xgrid crisp" transform="translate(240.77,0)" d="M0,100v186.00000000000003" style="stroke: rgb(255, 255, 255); stroke-opacity: 1; stroke-width: 1px;"/><path class="xgrid crisp" transform="translate(325.38,0)" d="M0,100v186.00000000000003" style="stroke: rgb(255, 255, 255); stroke-opacity: 1; stroke-width: 1px;"/><path class="xgrid crisp" transform="translate(410,0)" d="M0,100v186.00000000000003" style="stroke: rgb(255, 255, 255); stroke-opacity: 1; stroke-width: 1px;"/><path class="xgrid crisp" transform="translate(494.62,0)" d="M0,100v186.00000000000003" style="stroke: rgb(255, 255, 255); stroke-opacity: 1; stroke-width: 1px;"/></g><g class="y"><path class="ygrid crisp" transform="translate(0,248.8)" d="M80,0h440" style="stroke: rgb(255, 255, 255); stroke-opacity: 1; stroke-width: 1px;"/><path class="ygrid crisp" transform="translate(0,211.6)" d="M80,0h440" style="stroke: rgb(255, 255, 255); stroke-opacity: 1; stroke-width: 1px;"/><path class="ygrid crisp" transform="translate(0,174.4)" d="M80,0h440" style="stroke: rgb(255, 255, 255); stroke-opacity: 1; stroke-width: 1px;"/><path class="ygrid crisp" transform="translate(0,137.2)" d="M80,0h440" style="stroke: rgb(255, 255, 255); stroke-opacity: 1; stroke-width: 1px;"/></g></g><g class="zerolinelayer"><path class="yzl zl crisp" transform="translate(0,286)" d="M80,0h440" style="stroke: rgb(255, 255, 255); stroke-opacity: 1; stroke-width: 2px;"/></g><path class="xlines-below"/><path class="ylines-below"/><g class="overlines-below"/><g class="xaxislayer-below"/><g class="yaxislayer-below"/><g class="overaxes-below"/><g class="plot" transform="translate(80,100)" clip-path="url(#clip123b3bxyplot)"><g class="scatterlayer mlayer"><g class="trace scatter tracee094c6" style="stroke-miterlimit: 2;"><g class="fills"><g><path class="js-fill" d="M0,186L101.54,185.9L110,185.17L118.46,183.7L126.92,178.96L135.38,174.1L143.85,158.78L160.77,172.45L169.23,171.36L177.69,159.92L186.15,154.62L194.62,140.08L203.08,149.54L211.54,157.96L220,115.41L228.46,68.91L236.92,97.72L253.85,165.09L262.31,154.26L270.77,167.66L279.23,167.21L287.69,166.77L296.15,171.86L304.62,170.67L313.08,154.83L321.54,155.27L330,176.05L338.46,182.27L346.92,185.9L414.62,186L423.08,186L440,186L440,186L355.38,186L346.92,186L330,185.27L321.54,185.07L313.08,176.99L304.62,185.03L287.69,185.25L279.23,183.93L270.77,184.35L262.31,183.51L253.85,184.75L245.38,182.11L236.92,162.36L228.46,171.17L220,182.26L211.54,182.72L203.08,184.78L194.62,171.77L186.15,185.37L177.69,184.33L160.77,184.97L152.31,185.86L143.85,173.95L135.38,186L0,186Z" style="fill: rgb(224, 236, 244); fill-opacity: 1; stroke-width: 0;"/></g></g><g class="errorbars"/><g class="lines"><path class="js-line" d="M0,186L135.38,186L143.85,173.95L152.31,185.86L160.77,184.97L177.69,184.33L186.15,185.37L194.62,171.77L203.08,184.78L211.54,182.72L220,182.26L228.46,171.17L236.92,162.36L245.38,182.11L253.85,184.75L262.31,183.51L270.77,184.35L279.23,183.93L287.69,185.25L304.62,185.03L313.08,176.99L321.54,185.07L330,185.27L346.92,186L355.38,186L440,186" style="vector-effect: non-scaling-stroke; fill: none; stroke: rgb(0, 0, 0); stroke-opacity: 1; stroke-width: 0.25px; opacity: 1;"/></g><g class="points"/><g class="text"/></g><g class="trace scatter tracee8609d" style="stroke-miterlimit: 2;"><g class="fills"><g><path class="js-fill" d="M0,186L93.08,185.66L101.54,182.25L110,173.85L118.46,176.83L126.92,167.28L135.38,164.28L143.85,134.45L152.31,159.44L160.77,163.79L169.23,153.49L177.69,145.62L186.15,144.19L194.62,126.73L203.08,125.2L211.54,135.81L220,90.15L228.46,4.96L236.92,50.74L253.85,142.7L262.31,133.19L270.77,113.9L279.23,137.96L287.69,162.73L296.15,159.01L304.62,153.68L313.08,149.37L321.54,115.69L330,161.1L338.46,175.28L346.92,182.47L355.38,185.86L363.85,185.96L440,186L440,186L423.08,186L414.62,186L346.92,185.9L338.46,182.27L330,176.05L321.54,155.27L313.08,154.83L304.62,170.67L296.15,171.86L287.69,166.77L279.23,167.21L270.77,167.66L262.31,154.26L253.85,165.09L236.92,97.72L228.46,68.91L220,115.41L211.54,157.96L203.08,149.54L194.62,140.08L186.15,154.62L177.69,159.92L169.23,171.36L160.77,172.45L143.85,158.78L135.38,174.1L126.92,178.96L118.46,183.7L110,185.17L101.54,185.9L0,186Z" style="fill: rgb(158, 188, 218); fill-opacity: 1; stroke-width: 0;"/></g></g><g class="errorbars"/><g class="lines"><path class="js-line" d="M0,186L101.54,185.9L110,185.17L118.46,183.7L126.92,178.96L135.38,174.1L143.85,158.78L160.77,172.45L169.23,171.36L177.69,159.92L186.15,154.62L194.62,140.08L203.08,149.54L211.54,157.96L220,115.41L228.46,68.91L236.92,97.72L253.85,165.09L262.31,154.26L270.77,167.66L279.23,167.21L287.69,166.77L296.15,171.86L304.62,170.67L313.08,154.83L321.54,155.27L330,176.05L338.46,182.27L346.92,185.9L414.62,186L423.08,186L440,186" style="vector-effect: non-scaling-stroke; fill: none; stroke: rgb(0, 0, 0); stroke-opacity: 1; stroke-width: 0.5px; opacity: 1;"/></g><g class="points"/><g class="text"/></g><g class="trace scatter trace2c8e25" style="stroke-miterlimit: 2;"><g class="fills"><g><path class="js-fill" d="M0,185.9L33.85,185.99L42.31,184.69L50.77,185.55L59.23,185.58L67.69,184.95L76.15,185.62L84.62,185.38L93.08,178.06L101.54,172.95L110,149.22L126.92,158.19L135.38,150.7L143.85,112.44L152.31,139.7L160.77,146.71L169.23,134.74L177.69,126.74L186.15,117.32L194.62,100.76L203.08,99.35L211.54,117.44L220,48.53L228.46,-149.63L236.92,-17.13L245.38,69.93L253.85,102.46L262.31,107.57L270.77,91.59L279.23,109.85L287.69,152.57L296.15,133.98L304.62,125.56L313.08,115.55L321.54,61.99L330,135.69L338.46,150.33L346.92,176.93L355.38,185.17L363.85,185.12L372.31,185.91L440,186L440,186L363.85,185.96L355.38,185.86L346.92,182.47L338.46,175.28L330,161.1L321.54,115.69L313.08,149.37L304.62,153.68L296.15,159.01L287.69,162.73L279.23,137.96L270.77,113.9L262.31,133.19L253.85,142.7L236.92,50.74L228.46,4.96L220,90.15L211.54,135.81L203.08,125.2L194.62,126.73L186.15,144.19L177.69,145.62L169.23,153.49L160.77,163.79L152.31,159.44L143.85,134.45L135.38,164.28L126.92,167.28L118.46,176.83L110,173.85L101.54,182.25L93.08,185.66L0,186Z" style="fill: rgb(158, 188, 218); fill-opacity: 1; stroke-width: 0;"/></g></g><g class="errorbars"/><g class="lines"><path class="js-line" d="M0,186L93.08,185.66L101.54,182.25L110,173.85L118.46,176.83L126.92,167.28L135.38,164.28L143.85,134.45L152.31,159.44L160.77,163.79L169.23,153.49L177.69,145.62L186.15,144.19L194.62,126.73L203.08,125.2L211.54,135.81L220,90.15L228.46,4.96L236.92,50.74L253.85,142.7L262.31,133.19L270.77,113.9L279.23,137.96L287.69,162.73L296.15,159.01L304.62,153.68L313.08,149.37L321.54,115.69L330,161.1L338.46,175.28L346.92,182.47L355.38,185.86L363.85,185.96L440,186" style="vector-effect: non-scaling-stroke; fill: none; stroke: rgb(0, 0, 0); stroke-opacity: 1; stroke-width: 1px; opacity: 1;"/></g><g class="points"/><g class="text"/></g><g class="trace scatter tracee88c48" style="stroke-miterlimit: 2;"><g class="fills"><g><path class="js-fill" d="M0,185.87L33.85,185.99L42.31,184.31L50.77,185.26L59.23,185L67.69,184.13L76.15,185.57L84.62,184.57L93.08,167.79L101.54,164.42L110,110.55L118.46,123.99L126.92,127.8L135.38,116.15L143.85,57.08L152.31,104.12L160.77,126.64L169.23,106.58L177.69,119.56L186.15,63.02L194.62,49.79L203.08,37.13L211.54,78.46L228.46,-313.37L236.92,-84.68L245.38,-10.71L253.85,51.73L262.31,80.75L270.77,45.27L279.23,55.14L287.69,139.46L296.15,79.87L304.62,87.06L313.08,71.68L321.54,-26.01L330,100.79L338.46,134.75L346.92,168.32L355.38,184.07L380.77,185.98L389.23,186L440,186L440,186L372.31,185.91L363.85,185.12L355.38,185.17L346.92,176.93L338.46,150.33L330,135.69L321.54,61.99L313.08,115.55L304.62,125.56L296.15,133.98L287.69,152.57L279.23,109.85L270.77,91.59L262.31,107.57L253.85,102.46L245.38,69.93L236.92,-17.13L228.46,-149.63L220,48.53L211.54,117.44L203.08,99.35L194.62,100.76L186.15,117.32L177.69,126.74L169.23,134.74L160.77,146.71L152.31,139.7L143.85,112.44L135.38,150.7L126.92,158.19L110,149.22L101.54,172.95L93.08,178.06L84.62,185.38L76.15,185.62L67.69,184.95L59.23,185.58L50.77,185.55L42.31,184.69L33.85,185.99L0,185.9Z" style="fill: rgb(136, 86, 167); fill-opacity: 1; stroke-width: 0;"/></g></g><g class="errorbars"/><g class="lines"><path class="js-line" d="M0,185.9L33.85,185.99L42.31,184.69L50.77,185.55L59.23,185.58L67.69,184.95L76.15,185.62L84.62,185.38L93.08,178.06L101.54,172.95L110,149.22L126.92,158.19L135.38,150.7L143.85,112.44L152.31,139.7L160.77,146.71L169.23,134.74L177.69,126.74L186.15,117.32L194.62,100.76L203.08,99.35L211.54,117.44L220,48.53L228.46,-149.63L236.92,-17.13L245.38,69.93L253.85,102.46L262.31,107.57L270.77,91.59L279.23,109.85L287.69,152.57L296.15,133.98L304.62,125.56L313.08,115.55L321.54,61.99L330,135.69L338.46,150.33L346.92,176.93L355.38,185.17L363.85,185.12L372.31,185.91L440,186" style="vector-effect: non-scaling-stroke; fill: none; stroke: rgb(0, 0, 0); stroke-opacity: 1; stroke-width: 0.5px; opacity: 1;"/></g><g class="points"/><g class="text"/></g><g class="trace scatter trace1fbedd" style="stroke-miterlimit: 2;"><g class="fills"/><g class="errorbars"/><g class="lines"><path class="js-line" d="M0,185.87L33.85,185.99L42.31,184.31L50.77,185.26L59.23,185L67.69,184.13L76.15,185.57L84.62,184.57L93.08,167.79L101.54,164.42L110,110.55L118.46,123.99L126.92,127.8L135.38,116.15L143.85,57.08L152.31,104.12L160.77,126.64L169.23,106.58L177.69,119.56L186.15,63.02L194.62,49.79L203.08,37.13L211.54,78.46L228.46,-313.37L236.92,-84.68L245.38,-10.71L253.85,51.73L262.31,80.75L270.77,45.27L279.23,55.14L287.69,139.46L296.15,79.87L304.62,87.06L313.08,71.68L321.54,-26.01L330,100.79L338.46,134.75L346.92,168.32L355.38,184.07L380.77,185.98L389.23,186L440,186" style="vector-effect: non-scaling-stroke; fill: none; stroke: rgb(0, 0, 0); stroke-opacity: 1; stroke-width: 0.25px; opacity: 1;"/></g><g class="points"/><g class="text"/></g><g class="trace scatter traceb5a6c1" style="stroke-miterlimit: 2; opacity: 1;"><g class="fills"/><g class="errorbars"/><g class="lines"/><g class="points"><path class="point" transform="translate(203.08,183.02)" d="M4,0A4,4 0 1,1 0,-4A4,4 0 0,1 4,0ZM0,0.5L0.5,0L0,-0.5L-0.5,0Z" style="opacity: 1; stroke: rgb(0, 0, 0); stroke-opacity: 1; stroke-width: 1px; fill: none;"/><path class="point" transform="translate(211.54,186)" d="M4,0A4,4 0 1,1 0,-4A4,4 0 0,1 4,0ZM0,0.5L0.5,0L0,-0.5L-0.5,0Z" style="opacity: 1; stroke: rgb(0, 0, 0); stroke-opacity: 1; stroke-width: 1px; fill: none;"/><path class="point" transform="translate(220,186)" d="M4,0A4,4 0 1,1 0,-4A4,4 0 0,1 4,0ZM0,0.5L0.5,0L0,-0.5L-0.5,0Z" style="opacity: 1; stroke: rgb(0, 0, 0); stroke-opacity: 1; stroke-width: 1px; fill: none;"/><path class="point" transform="translate(228.46,186)" d="M4,0A4,4 0 1,1 0,-4A4,4 0 0,1 4,0ZM0,0.5L0.5,0L0,-0.5L-0.5,0Z" style="opacity: 1; stroke: rgb(0, 0, 0); stroke-opacity: 1; stroke-width: 1px; fill: none;"/></g><g class="text"/></g></g></g><g class="overplot"/><path class="xlines-above crisp" d="M0,0" style="fill: none;"/><path class="ylines-above crisp" d="M0,0" style="fill: none;"/><g class="overlines-above"/><g class="xaxislayer-above"/><g class="yaxislayer-above"><g class="ytick"><text text-anchor="end" x="79" y="4.199999999999999" transform="translate(0,286)" style="font-family: 'Open Sans', verdana, arial, sans-serif; font-size: 12px; fill: rgb(42, 63, 95); fill-opacity: 1; white-space: pre; opacity: 1;">0</text></g><g class="ytick"><text text-anchor="end" x="79" y="4.199999999999999" style="font-family: 'Open Sans', verdana, arial, sans-serif; font-size: 12px; fill: rgb(42, 63, 95); fill-opacity: 1; white-space: pre; opacity: 1;" transform="translate(0,248.8)">50</text></g><g class="ytick"><text text-anchor="end" x="79" y="4.199999999999999" style="font-family: 'Open Sans', verdana, arial, sans-serif; font-size: 12px; fill: rgb(42, 63, 95); fill-opacity: 1; white-space: pre; opacity: 1;" transform="translate(0,211.6)">100</text></g><g class="ytick"><text text-anchor="end" x="79" y="4.199999999999999" style="font-family: 'Open Sans', verdana, arial, sans-serif; font-size: 12px; fill: rgb(42, 63, 95); fill-opacity: 1; white-space: pre; opacity: 1;" transform="translate(0,174.4)">150</text></g><g class="ytick"><text text-anchor="end" x="79" y="4.199999999999999" style="font-family: 'Open Sans', verdana, arial, sans-serif; font-size: 12px; fill: rgb(42, 63, 95); fill-opacity: 1; white-space: pre; opacity: 1;" transform="translate(0,137.2)">200</text></g><g class="ytick"><text text-anchor="end" x="79" y="4.199999999999999" style="font-family: 'Open Sans', verdana, arial, sans-serif; font-size: 12px; fill: rgb(42, 63, 95); fill-opacity: 1; white-space: pre; opacity: 1;" transform="translate(0,100)">250</text></g></g><g class="overaxes-above"/></g><g class="subplot x2y2"><g class="layer-subplot"><g class="shapelayer"/><g class="imagelayer"/></g><g class="minor-gridlayer"><g class="x2"/><g class="y2"/></g><g class="gridlayer"><g class="x2"><path class="x2grid crisp" transform="translate(156.15,0)" d="M0,317.00000000000006v185.99999999999997" style="stroke: rgb(255, 255, 255); stroke-opacity: 1; stroke-width: 1px;"/><path class="x2grid crisp" transform="translate(240.77,0)" d="M0,317.00000000000006v185.99999999999997" style="stroke: rgb(255, 255, 255); stroke-opacity: 1; stroke-width: 1px;"/><path class="x2grid crisp" transform="translate(325.38,0)" d="M0,317.00000000000006v185.99999999999997" style="stroke: rgb(255, 255, 255); stroke-opacity: 1; stroke-width: 1px;"/><path class="x2grid crisp" transform="translate(410,0)" d="M0,317.00000000000006v185.99999999999997" style="stroke: rgb(255, 255, 255); stroke-opacity: 1; stroke-width: 1px;"/><path class="x2grid crisp" transform="translate(494.62,0)" d="M0,317.00000000000006v185.99999999999997" style="stroke: rgb(255, 255, 255); stroke-opacity: 1; stroke-width: 1px;"/></g><g class="y2"><path class="y2grid crisp" transform="translate(0,472.00000000000006)" d="M80,0h440" style="stroke: rgb(255, 255, 255); stroke-opacity: 1; stroke-width: 1px;"/><path class="y2grid crisp" transform="translate(0,410.00000000000006)" d="M80,0h440" style="stroke: rgb(255, 255, 255); stroke-opacity: 1; stroke-width: 1px;"/><path class="y2grid crisp" transform="translate(0,348.00000000000006)" d="M80,0h440" style="stroke: rgb(255, 255, 255); stroke-opacity: 1; stroke-width: 1px;"/></g></g><g class="zerolinelayer"/><path class="xlines-below"/><path class="ylines-below"/><g class="overlines-below"/><g class="xaxislayer-below"/><g class="yaxislayer-below"/><g class="overaxes-below"/><g class="plot" transform="translate(80,317.00000000000006)" clip-path="url(#clip123b3bx2y2plot)"><g class="scatterlayer mlayer"><g class="trace scatter traceac4fd9" style="stroke-miterlimit: 2;"><g class="fills"><g><path class="js-fill" d="M0,146.4L8.46,153.02L16.92,143.08L33.85,136.33L42.31,123.92L50.77,115.49L59.23,110.13L67.69,98.18L76.15,99.78L93.08,73.46L101.54,80.65L110,81.76L118.46,80.63L126.92,81.9L135.38,81.51L143.85,82.4L152.31,75.87L160.77,77.57L169.23,81.97L177.69,80.02L186.15,82.37L194.62,84.22L203.08,88.41L228.46,94.97L236.92,90.96L245.38,92.23L253.85,83.79L262.31,82.89L270.77,92.23L287.69,86.32L296.15,91.05L304.62,94.32L313.08,90.64L330,93.76L338.46,92.61L346.92,91.24L355.38,92.45L372.31,102.07L380.77,112.28L389.23,118.46L397.69,126.59L406.15,131.9L414.62,133.4L423.08,146L431.54,144.66L440,149.75L440,154.57L431.54,157.39L423.08,160.36L414.62,143.48L406.15,138.47L397.69,140.28L389.23,124.22L380.77,114.66L372.31,108.33L355.38,101.14L346.92,102.5L338.46,106.65L330,100.27L321.54,98.55L313.08,100.83L304.62,97.81L296.15,101.75L287.69,94.59L279.23,102.1L270.77,103.51L262.31,96.29L253.85,91.82L245.38,110.7L236.92,111.95L228.46,106.49L220,102.76L211.54,101.25L203.08,98.86L194.62,99.81L186.15,95.89L177.69,91.58L169.23,96.12L160.77,87.06L152.31,89.92L143.85,97.26L135.38,92.06L126.92,95.67L118.46,90.75L110,102.15L101.54,98.86L93.08,88.77L84.62,105.63L76.15,109.68L67.69,116.7L59.23,126.37L50.77,130.62L42.31,139.24L33.85,154.18L25.38,143.16L16.92,152.44L8.46,160.26L0,155.1Z" style="fill: rgb(145, 191, 219); fill-opacity: 1; stroke-width: 0;"/></g></g><g class="errorbars"/><g class="lines"><path class="js-line" d="M0,155.1L8.46,160.26L16.92,152.44L25.38,143.16L33.85,154.18L42.31,139.24L50.77,130.62L59.23,126.37L67.69,116.7L76.15,109.68L84.62,105.63L93.08,88.77L101.54,98.86L110,102.15L118.46,90.75L126.92,95.67L135.38,92.06L143.85,97.26L152.31,89.92L160.77,87.06L169.23,96.12L177.69,91.58L186.15,95.89L194.62,99.81L203.08,98.86L211.54,101.25L220,102.76L228.46,106.49L236.92,111.95L245.38,110.7L253.85,91.82L262.31,96.29L270.77,103.51L279.23,102.1L287.69,94.59L296.15,101.75L304.62,97.81L313.08,100.83L321.54,98.55L330,100.27L338.46,106.65L346.92,102.5L355.38,101.14L372.31,108.33L380.77,114.66L389.23,124.22L397.69,140.28L406.15,138.47L414.62,143.48L423.08,160.36L431.54,157.39L440,154.57" style="vector-effect: non-scaling-stroke; fill: none; stroke: rgb(0, 0, 0); stroke-opacity: 1; stroke-width: 0.25px; opacity: 1;"/></g><g class="points"/><g class="text"/></g><g class="trace scatter tracee5c6de" style="stroke-miterlimit: 2;"><g class="fills"><g><path class="js-fill" d="M0,140.24L8.46,145.17L16.92,136.41L25.38,135.35L33.85,126.62L59.23,102.66L67.69,92.33L84.62,77.07L93.08,67.08L101.54,67.85L110,73.08L118.46,69.59L126.92,73.06L135.38,77.42L143.85,73.88L152.31,69.25L160.77,73.79L169.23,73.83L177.69,74.87L186.15,75.61L194.62,77.9L203.08,83.7L211.54,88.35L220,87.78L228.46,88.03L236.92,80L245.38,83.81L253.85,79.97L262.31,77.19L270.77,84.11L279.23,82.69L287.69,82.18L296.15,83.66L304.62,88.3L313.08,84.58L321.54,83.81L330,81.17L338.46,81.82L346.92,85.32L363.85,95.02L372.31,97.66L380.77,107.03L389.23,114.79L397.69,118.36L406.15,127.58L414.62,128.8L423.08,133.42L431.54,140.67L440,137.11L440,149.75L431.54,144.66L423.08,146L414.62,133.4L406.15,131.9L397.69,126.59L389.23,118.46L380.77,112.28L372.31,102.07L355.38,92.45L346.92,91.24L338.46,92.61L330,93.76L313.08,90.64L304.62,94.32L296.15,91.05L287.69,86.32L270.77,92.23L262.31,82.89L253.85,83.79L245.38,92.23L236.92,90.96L228.46,94.97L203.08,88.41L194.62,84.22L186.15,82.37L177.69,80.02L169.23,81.97L160.77,77.57L152.31,75.87L143.85,82.4L135.38,81.51L126.92,81.9L118.46,80.63L110,81.76L101.54,80.65L93.08,73.46L76.15,99.78L67.69,98.18L59.23,110.13L50.77,115.49L42.31,123.92L33.85,136.33L16.92,143.08L8.46,153.02L0,146.4Z" style="fill: rgb(255, 255, 191); fill-opacity: 1; stroke-width: 0;"/></g></g><g class="errorbars"/><g class="lines"><path class="js-line" d="M0,146.4L8.46,153.02L16.92,143.08L33.85,136.33L42.31,123.92L50.77,115.49L59.23,110.13L67.69,98.18L76.15,99.78L93.08,73.46L101.54,80.65L110,81.76L118.46,80.63L126.92,81.9L135.38,81.51L143.85,82.4L152.31,75.87L160.77,77.57L169.23,81.97L177.69,80.02L186.15,82.37L194.62,84.22L203.08,88.41L228.46,94.97L236.92,90.96L245.38,92.23L253.85,83.79L262.31,82.89L270.77,92.23L287.69,86.32L296.15,91.05L304.62,94.32L313.08,90.64L330,93.76L338.46,92.61L346.92,91.24L355.38,92.45L372.31,102.07L380.77,112.28L389.23,118.46L397.69,126.59L406.15,131.9L414.62,133.4L423.08,146L431.54,144.66L440,149.75" style="vector-effect: non-scaling-stroke; fill: none; stroke: rgb(0, 0, 0); stroke-opacity: 1; stroke-width: 0.5px; opacity: 1;"/></g><g class="points"/><g class="text"/></g><g class="trace scatter tracef33be4" style="stroke-miterlimit: 2;"><g class="fills"><g><path class="js-fill" d="M0,133.18L8.46,138.39L16.92,129.93L25.38,132.49L33.85,120.4L42.31,112.64L50.77,99.09L59.23,96.68L67.69,84.79L84.62,71L93.08,61.2L101.54,57.34L110,59.43L118.46,58.64L126.92,65.33L135.38,64.98L143.85,69.79L152.31,65.82L160.77,65.48L177.69,69.3L186.15,67.8L194.62,72.55L203.08,76.28L211.54,83.27L220,83.33L228.46,76.86L236.92,74.53L245.38,76.16L253.85,75.2L262.31,72.31L270.77,75.97L279.23,79.65L287.69,77.18L296.15,78.69L304.62,83.01L313.08,79.57L321.54,81.42L330,74.27L338.46,76.35L346.92,80.48L355.38,86.04L363.85,91.96L372.31,94.15L380.77,103.88L389.23,108.97L397.69,112.51L406.15,120L414.62,124.28L423.08,129.83L431.54,130.14L440,124L440,137.11L431.54,140.67L423.08,133.42L414.62,128.8L406.15,127.58L397.69,118.36L389.23,114.79L380.77,107.03L372.31,97.66L363.85,95.02L346.92,85.32L338.46,81.82L330,81.17L321.54,83.81L313.08,84.58L304.62,88.3L296.15,83.66L287.69,82.18L279.23,82.69L270.77,84.11L262.31,77.19L253.85,79.97L245.38,83.81L236.92,80L228.46,88.03L220,87.78L211.54,88.35L203.08,83.7L194.62,77.9L186.15,75.61L177.69,74.87L169.23,73.83L160.77,73.79L152.31,69.25L143.85,73.88L135.38,77.42L126.92,73.06L118.46,69.59L110,73.08L101.54,67.85L93.08,67.08L84.62,77.07L67.69,92.33L59.23,102.66L33.85,126.62L25.38,135.35L16.92,136.41L8.46,145.17L0,140.24Z" style="fill: rgb(255, 255, 191); fill-opacity: 1; stroke-width: 0;"/></g></g><g class="errorbars"/><g class="lines"><path class="js-line" d="M0,140.24L8.46,145.17L16.92,136.41L25.38,135.35L33.85,126.62L59.23,102.66L67.69,92.33L84.62,77.07L93.08,67.08L101.54,67.85L110,73.08L118.46,69.59L126.92,73.06L135.38,77.42L143.85,73.88L152.31,69.25L160.77,73.79L169.23,73.83L177.69,74.87L186.15,75.61L194.62,77.9L203.08,83.7L211.54,88.35L220,87.78L228.46,88.03L236.92,80L245.38,83.81L253.85,79.97L262.31,77.19L270.77,84.11L279.23,82.69L287.69,82.18L296.15,83.66L304.62,88.3L313.08,84.58L321.54,83.81L330,81.17L338.46,81.82L346.92,85.32L363.85,95.02L372.31,97.66L380.77,107.03L389.23,114.79L397.69,118.36L406.15,127.58L414.62,128.8L423.08,133.42L431.54,140.67L440,137.11" style="vector-effect: non-scaling-stroke; fill: none; stroke: rgb(0, 0, 0); stroke-opacity: 1; stroke-width: 1px; opacity: 1;"/></g><g class="points"/><g class="text"/></g><g class="trace scatter trace837c26" style="stroke-miterlimit: 2;"><g class="fills"><g><path class="js-fill" d="M0,118.51L8.46,120.99L16.92,120.49L25.38,122.31L33.85,111.75L42.31,104.32L50.77,91.69L59.23,79.47L67.69,72.81L76.15,67.4L84.62,54.8L93.08,55.69L101.54,40.76L110,44.61L118.46,38.69L126.92,47.17L135.38,42.01L152.31,61.74L160.77,47.81L169.23,47.17L177.69,58.41L186.15,59.18L194.62,64.89L211.54,72.64L220,71.27L228.46,71.18L236.92,62.94L245.38,66.73L253.85,63.77L262.31,62.56L270.77,67.68L279.23,72L287.69,66.54L304.62,67.84L313.08,64.81L321.54,73.33L330,68.89L338.46,55.59L346.92,75.79L355.38,77.13L363.85,83.49L372.31,85.28L380.77,92.54L389.23,101.48L397.69,93.68L406.15,103.94L414.62,117.03L423.08,121.29L431.54,117.87L440,113.2L440,124L431.54,130.14L423.08,129.83L414.62,124.28L406.15,120L397.69,112.51L389.23,108.97L380.77,103.88L372.31,94.15L363.85,91.96L355.38,86.04L346.92,80.48L338.46,76.35L330,74.27L321.54,81.42L313.08,79.57L304.62,83.01L296.15,78.69L287.69,77.18L279.23,79.65L270.77,75.97L262.31,72.31L253.85,75.2L245.38,76.16L236.92,74.53L228.46,76.86L220,83.33L211.54,83.27L203.08,76.28L194.62,72.55L186.15,67.8L177.69,69.3L160.77,65.48L152.31,65.82L143.85,69.79L135.38,64.98L126.92,65.33L118.46,58.64L110,59.43L101.54,57.34L93.08,61.2L84.62,71L67.69,84.79L59.23,96.68L50.77,99.09L42.31,112.64L33.85,120.4L25.38,132.49L16.92,129.93L8.46,138.39L0,133.18Z" style="fill: rgb(252, 141, 89); fill-opacity: 1; stroke-width: 0;"/></g></g><g class="errorbars"/><g class="lines"><path class="js-line" d="M0,133.18L8.46,138.39L16.92,129.93L25.38,132.49L33.85,120.4L42.31,112.64L50.77,99.09L59.23,96.68L67.69,84.79L84.62,71L93.08,61.2L101.54,57.34L110,59.43L118.46,58.64L126.92,65.33L135.38,64.98L143.85,69.79L152.31,65.82L160.77,65.48L177.69,69.3L186.15,67.8L194.62,72.55L203.08,76.28L211.54,83.27L220,83.33L228.46,76.86L236.92,74.53L245.38,76.16L253.85,75.2L262.31,72.31L270.77,75.97L279.23,79.65L287.69,77.18L296.15,78.69L304.62,83.01L313.08,79.57L321.54,81.42L330,74.27L338.46,76.35L346.92,80.48L355.38,86.04L363.85,91.96L372.31,94.15L380.77,103.88L389.23,108.97L397.69,112.51L406.15,120L414.62,124.28L423.08,129.83L431.54,130.14L440,124" style="vector-effect: non-scaling-stroke; fill: none; stroke: rgb(0, 0, 0); stroke-opacity: 1; stroke-width: 0.5px; opacity: 1;"/></g><g class="points"/><g class="text"/></g><g class="trace scatter traced05db7" style="stroke-miterlimit: 2;"><g class="fills"/><g class="errorbars"/><g class="lines"><path class="js-line" d="M0,118.51L8.46,120.99L16.92,120.49L25.38,122.31L33.85,111.75L42.31,104.32L50.77,91.69L59.23,79.47L67.69,72.81L76.15,67.4L84.62,54.8L93.08,55.69L101.54,40.76L110,44.61L118.46,38.69L126.92,47.17L135.38,42.01L152.31,61.74L160.77,47.81L169.23,47.17L177.69,58.41L186.15,59.18L194.62,64.89L211.54,72.64L220,71.27L228.46,71.18L236.92,62.94L245.38,66.73L253.85,63.77L262.31,62.56L270.77,67.68L279.23,72L287.69,66.54L304.62,67.84L313.08,64.81L321.54,73.33L330,68.89L338.46,55.59L346.92,75.79L355.38,77.13L363.85,83.49L372.31,85.28L380.77,92.54L389.23,101.48L397.69,93.68L406.15,103.94L414.62,117.03L423.08,121.29L431.54,117.87L440,113.2" style="vector-effect: non-scaling-stroke; fill: none; stroke: rgb(0, 0, 0); stroke-opacity: 1; stroke-width: 0.25px; opacity: 1;"/></g><g class="points"/><g class="text"/></g><g class="trace scatter trace2578d6" style="stroke-miterlimit: 2; opacity: 1;"><g class="fills"/><g class="errorbars"/><g class="lines"/><g class="points"><path class="point" transform="translate(203.08,55.8)" d="M4,0A4,4 0 1,1 0,-4A4,4 0 0,1 4,0ZM0,0.5L0.5,0L0,-0.5L-0.5,0Z" style="opacity: 1; stroke: rgb(0, 0, 0); stroke-opacity: 1; stroke-width: 1px; fill: none;"/><path class="point" transform="translate(211.54,62)" d="M4,0A4,4 0 1,1 0,-4A4,4 0 0,1 4,0ZM0,0.5L0.5,0L0,-0.5L-0.5,0Z" style="opacity: 1; stroke: rgb(0, 0, 0); stroke-opacity: 1; stroke-width: 1px; fill: none;"/><path class="point" transform="translate(220,68.2)" d="M4,0A4,4 0 1,1 0,-4A4,4 0 0,1 4,0ZM0,0.5L0.5,0L0,-0.5L-0.5,0Z" style="opacity: 1; stroke: rgb(0, 0, 0); stroke-opacity: 1; stroke-width: 1px; fill: none;"/><path class="point" transform="translate(228.46,68.2)" d="M4,0A4,4 0 1,1 0,-4A4,4 0 0,1 4,0ZM0,0.5L0.5,0L0,-0.5L-0.5,0Z" style="opacity: 1; stroke: rgb(0, 0, 0); stroke-opacity: 1; stroke-width: 1px; fill: none;"/></g><g class="text"/></g></g></g><g class="overplot"/><path class="xlines-above crisp" d="M0,0" style="fill: none;"/><path class="ylines-above crisp" d="M0,0" style="fill: none;"/><g class="overlines-above"/><g class="xaxislayer-above"/><g class="yaxislayer-above"><g class="y2tick"><text text-anchor="end" x="79" y="4.199999999999999" transform="translate(0,472.00000000000006)" style="font-family: 'Open Sans', verdana, arial, sans-serif; font-size: 12px; fill: rgb(42, 63, 95); fill-opacity: 1; white-space: pre; opacity: 1;">20</text></g><g class="y2tick"><text text-anchor="end" x="79" y="4.199999999999999" style="font-family: 'Open Sans', verdana, arial, sans-serif; font-size: 12px; fill: rgb(42, 63, 95); fill-opacity: 1; white-space: pre; opacity: 1;" transform="translate(0,410.00000000000006)">30</text></g><g class="y2tick"><text text-anchor="end" x="79" y="4.199999999999999" style="font-family: 'Open Sans', verdana, arial, sans-serif; font-size: 12px; fill: rgb(42, 63, 95); fill-opacity: 1; white-space: pre; opacity: 1;" transform="translate(0,348.00000000000006)">40</text></g></g><g class="overaxes-above"/></g><g class="subplot x3y3"><g class="layer-subplot"><g class="shapelayer"/><g class="imagelayer"/></g><g class="minor-gridlayer"><g class="x3"/><g class="y3"/></g><g class="gridlayer"><g class="x3"><path class="x3grid crisp" transform="translate(156.15,0)" d="M0,534v186" style="stroke: rgb(255, 255, 255); stroke-opacity: 1; stroke-width: 1px;"/><path class="x3grid crisp" transform="translate(240.77,0)" d="M0,534v186" style="stroke: rgb(255, 255, 255); stroke-opacity: 1; stroke-width: 1px;"/><path class="x3grid crisp" transform="translate(325.38,0)" d="M0,534v186" style="stroke: rgb(255, 255, 255); stroke-opacity: 1; stroke-width: 1px;"/><path class="x3grid crisp" transform="translate(410,0)" d="M0,534v186" style="stroke: rgb(255, 255, 255); stroke-opacity: 1; stroke-width: 1px;"/><path class="x3grid crisp" transform="translate(494.62,0)" d="M0,534v186" style="stroke: rgb(255, 255, 255); stroke-opacity: 1; stroke-width: 1px;"/></g><g class="y3"><path class="y3grid crisp" transform="translate(0,682.8)" d="M80,0h440" style="stroke: rgb(255, 255, 255); stroke-opacity: 1; stroke-width: 1px;"/><path class="y3grid crisp" transform="translate(0,645.6)" d="M80,0h440" style="stroke: rgb(255, 255, 255); stroke-opacity: 1; stroke-width: 1px;"/><path class="y3grid crisp" transform="translate(0,608.4)" d="M80,0h440" style="stroke: rgb(255, 255, 255); stroke-opacity: 1; stroke-width: 1px;"/><path class="y3grid crisp" transform="translate(0,571.2)" d="M80,0h440" style="stroke: rgb(255, 255, 255); stroke-opacity: 1; stroke-width: 1px;"/></g></g><g class="zerolinelayer"/><path class="xlines-below"/><path class="ylines-below"/><g class="overlines-below"/><g class="xaxislayer-below"/><g class="yaxislayer-below"/><g class="overaxes-below"/><g class="plot" transform="translate(80,534)" clip-path="url(#clip123b3bx3y3plot)"><g class="scatterlayer mlayer"><g class="trace scatter tracee49292" style="stroke-miterlimit: 2;"><g class="fills"><g><path class="js-fill" d="M0,129.47L8.46,139.19L16.92,131.22L25.38,131.12L33.85,125.46L42.31,116.84L50.77,116.86L59.23,103.82L67.69,96.2L76.15,91.1L84.62,87.24L93.08,74.73L101.54,68.16L110,68.64L118.46,66.78L126.92,58.97L135.38,60L143.85,60L152.31,50.62L160.77,49.7L169.23,46.29L177.69,46.66L186.15,43.09L194.62,40.54L203.08,39.5L211.54,39.64L220,38.93L228.46,39.22L236.92,38.07L253.85,37.59L262.31,36.52L279.23,39.08L287.69,38L296.15,40.16L304.62,41.3L313.08,40.95L321.54,42.93L330,44.97L338.46,50.2L355.38,59.7L363.85,69.23L372.31,74.82L380.77,83.2L389.23,91.24L397.69,102.6L406.15,108.88L414.62,112.76L423.08,126.83L431.54,127.99L440,139.81L440,163.34L431.54,146.96L423.08,156.76L414.62,124.31L406.15,125.16L397.69,116.11L389.23,97.95L380.77,87.16L372.31,79.86L363.85,79.32L355.38,65.34L346.92,60.08L338.46,58.35L330,53.38L321.54,46.95L313.08,44.44L296.15,45.5L287.69,38.78L279.23,44.43L270.77,43.3L253.85,39.98L245.38,41.61L236.92,42.38L228.46,43.42L220,43.25L211.54,41.51L203.08,42.25L194.62,43.66L186.15,52L177.69,49.81L169.23,51.35L160.77,57.65L152.31,52.77L143.85,72.28L135.38,71.61L126.92,68.22L118.46,85.1L110,83.19L101.54,89L93.08,94.14L84.62,100.87L76.15,107.61L67.69,121.61L59.23,120.26L50.77,130.95L42.31,132.99L33.85,138.43L25.38,152.75L16.92,150.79L8.46,165.17L0,141.76Z" style="fill: rgb(90, 180, 172); fill-opacity: 1; stroke-width: 0;"/></g></g><g class="errorbars"/><g class="lines"><path class="js-line" d="M0,141.76L8.46,165.17L16.92,150.79L25.38,152.75L33.85,138.43L42.31,132.99L50.77,130.95L59.23,120.26L67.69,121.61L76.15,107.61L84.62,100.87L93.08,94.14L101.54,89L110,83.19L118.46,85.1L126.92,68.22L135.38,71.61L143.85,72.28L152.31,52.77L160.77,57.65L169.23,51.35L177.69,49.81L186.15,52L194.62,43.66L203.08,42.25L211.54,41.51L220,43.25L228.46,43.42L236.92,42.38L245.38,41.61L253.85,39.98L270.77,43.3L279.23,44.43L287.69,38.78L296.15,45.5L313.08,44.44L321.54,46.95L330,53.38L338.46,58.35L346.92,60.08L355.38,65.34L363.85,79.32L372.31,79.86L380.77,87.16L389.23,97.95L397.69,116.11L406.15,125.16L414.62,124.31L423.08,156.76L431.54,146.96L440,163.34" style="vector-effect: non-scaling-stroke; fill: none; stroke: rgb(0, 0, 0); stroke-opacity: 1; stroke-width: 0.25px; opacity: 1;"/></g><g class="points"/><g class="text"/></g><g class="trace scatter trace346833" style="stroke-miterlimit: 2;"><g class="fills"><g><path class="js-fill" d="M0,125.33L8.46,128.64L16.92,122.11L33.85,118.93L42.31,108.74L67.69,86.33L76.15,83.67L84.62,72.58L93.08,64.5L101.54,60.03L110,61.18L118.46,59.61L126.92,53.48L135.38,56.06L143.85,54.49L152.31,47.09L160.77,44.37L177.69,43.54L186.15,38.93L194.62,38.63L203.08,36.97L228.46,36.68L236.92,35.63L245.38,36.23L253.85,34.9L262.31,32.65L270.77,35.65L279.23,36.64L287.69,35.81L296.15,36.49L304.62,39.65L321.54,39.07L330,39.95L338.46,42.89L346.92,49.99L363.85,64.97L372.31,68.3L380.77,78.92L389.23,86.79L406.15,102.29L414.62,105.99L423.08,111.71L431.54,121.18L440,129L440,139.81L431.54,127.99L423.08,126.83L414.62,112.76L406.15,108.88L397.69,102.6L389.23,91.24L380.77,83.2L372.31,74.82L363.85,69.23L355.38,59.7L338.46,50.2L330,44.97L321.54,42.93L313.08,40.95L304.62,41.3L296.15,40.16L287.69,38L279.23,39.08L262.31,36.52L253.85,37.59L236.92,38.07L228.46,39.22L220,38.93L211.54,39.64L203.08,39.5L194.62,40.54L186.15,43.09L177.69,46.66L169.23,46.29L160.77,49.7L152.31,50.62L143.85,60L135.38,60L126.92,58.97L118.46,66.78L110,68.64L101.54,68.16L93.08,74.73L84.62,87.24L76.15,91.1L67.69,96.2L59.23,103.82L50.77,116.86L42.31,116.84L33.85,125.46L25.38,131.12L16.92,131.22L8.46,139.19L0,129.47Z" style="fill: rgb(245, 245, 245); fill-opacity: 1; stroke-width: 0;"/></g></g><g class="errorbars"/><g class="lines"><path class="js-line" d="M0,129.47L8.46,139.19L16.92,131.22L25.38,131.12L33.85,125.46L42.31,116.84L50.77,116.86L59.23,103.82L67.69,96.2L76.15,91.1L84.62,87.24L93.08,74.73L101.54,68.16L110,68.64L118.46,66.78L126.92,58.97L135.38,60L143.85,60L152.31,50.62L160.77,49.7L169.23,46.29L177.69,46.66L186.15,43.09L194.62,40.54L203.08,39.5L211.54,39.64L220,38.93L228.46,39.22L236.92,38.07L253.85,37.59L262.31,36.52L279.23,39.08L287.69,38L296.15,40.16L304.62,41.3L313.08,40.95L321.54,42.93L330,44.97L338.46,50.2L355.38,59.7L363.85,69.23L372.31,74.82L380.77,83.2L389.23,91.24L397.69,102.6L406.15,108.88L414.62,112.76L423.08,126.83L431.54,127.99L440,139.81" style="vector-effect: non-scaling-stroke; fill: none; stroke: rgb(0, 0, 0); stroke-opacity: 1; stroke-width: 0.5px; opacity: 1;"/></g><g class="points"/><g class="text"/></g><g class="trace scatter traceee904a" style="stroke-miterlimit: 2;"><g class="fills"><g><path class="js-fill" d="M0,115.47L8.46,120.06L16.92,116.76L25.38,114.92L33.85,111.29L42.31,100.94L50.77,96.82L59.23,89.39L67.69,79.18L76.15,73.74L84.62,67.17L101.54,51.16L110,51.47L118.46,48.12L126.92,50.7L135.38,50.44L143.85,51.06L152.31,44.62L160.77,41.45L169.23,40.96L177.69,38.43L186.15,36.97L194.62,36.99L203.08,35.6L211.54,35.33L228.46,33.54L236.92,33.69L245.38,34L253.85,31.71L262.31,31.1L270.77,31.81L287.69,34.74L296.15,35.31L304.62,37.77L313.08,36.73L321.54,38.34L330,37.29L338.46,39.9L346.92,46.38L363.85,61.19L372.31,63.2L380.77,75.79L389.23,81.6L397.69,86.68L406.15,96.74L423.08,102.32L431.54,110.12L440,118.08L440,129L431.54,121.18L423.08,111.71L414.62,105.99L406.15,102.29L389.23,86.79L380.77,78.92L372.31,68.3L363.85,64.97L346.92,49.99L338.46,42.89L330,39.95L321.54,39.07L304.62,39.65L296.15,36.49L287.69,35.81L279.23,36.64L270.77,35.65L262.31,32.65L253.85,34.9L245.38,36.23L236.92,35.63L228.46,36.68L203.08,36.97L194.62,38.63L186.15,38.93L177.69,43.54L160.77,44.37L152.31,47.09L143.85,54.49L135.38,56.06L126.92,53.48L118.46,59.61L110,61.18L101.54,60.03L93.08,64.5L84.62,72.58L76.15,83.67L67.69,86.33L42.31,108.74L33.85,118.93L16.92,122.11L8.46,128.64L0,125.33Z" style="fill: rgb(245, 245, 245); fill-opacity: 1; stroke-width: 0;"/></g></g><g class="errorbars"/><g class="lines"><path class="js-line" d="M0,125.33L8.46,128.64L16.92,122.11L33.85,118.93L42.31,108.74L67.69,86.33L76.15,83.67L84.62,72.58L93.08,64.5L101.54,60.03L110,61.18L118.46,59.61L126.92,53.48L135.38,56.06L143.85,54.49L152.31,47.09L160.77,44.37L177.69,43.54L186.15,38.93L194.62,38.63L203.08,36.97L228.46,36.68L236.92,35.63L245.38,36.23L253.85,34.9L262.31,32.65L270.77,35.65L279.23,36.64L287.69,35.81L296.15,36.49L304.62,39.65L321.54,39.07L330,39.95L338.46,42.89L346.92,49.99L363.85,64.97L372.31,68.3L380.77,78.92L389.23,86.79L406.15,102.29L414.62,105.99L423.08,111.71L431.54,121.18L440,129" style="vector-effect: non-scaling-stroke; fill: none; stroke: rgb(0, 0, 0); stroke-opacity: 1; stroke-width: 1px; opacity: 1;"/></g><g class="points"/><g class="text"/></g><g class="trace scatter traceb8361a" style="stroke-miterlimit: 2;"><g class="fills"><g><path class="js-fill" d="M0,108.2L8.46,110.44L16.92,100.8L25.38,99.28L33.85,93.73L42.31,93.22L50.77,80.48L59.23,82.44L67.69,66.59L76.15,57.94L84.62,51.91L93.08,47.36L101.54,35.7L110,37.44L118.46,33.75L126.92,40.65L135.38,37.35L152.31,38.64L160.77,29.48L169.23,36.47L177.69,33.87L186.15,31.96L194.62,33.51L203.08,31.71L211.54,31.03L220,28.05L228.46,31.15L236.92,27.63L245.38,27.79L253.85,23.58L262.31,25.73L270.77,27.49L279.23,26.23L287.69,32.53L296.15,30.71L304.62,33.82L313.08,33.34L321.54,35.36L330,28.1L338.46,33.33L346.92,40.18L363.85,55.89L372.31,58.03L380.77,69.33L389.23,74.58L406.15,83.54L414.62,89.29L423.08,90.37L431.54,101.21L440,102.92L440,118.08L431.54,110.12L423.08,102.32L406.15,96.74L397.69,86.68L389.23,81.6L380.77,75.79L372.31,63.2L363.85,61.19L346.92,46.38L338.46,39.9L330,37.29L321.54,38.34L313.08,36.73L304.62,37.77L296.15,35.31L287.69,34.74L270.77,31.81L262.31,31.1L253.85,31.71L245.38,34L236.92,33.69L228.46,33.54L211.54,35.33L203.08,35.6L194.62,36.99L186.15,36.97L177.69,38.43L169.23,40.96L160.77,41.45L152.31,44.62L143.85,51.06L135.38,50.44L126.92,50.7L118.46,48.12L110,51.47L101.54,51.16L84.62,67.17L76.15,73.74L67.69,79.18L59.23,89.39L50.77,96.82L42.31,100.94L33.85,111.29L25.38,114.92L16.92,116.76L8.46,120.06L0,115.47Z" style="fill: rgb(216, 179, 101); fill-opacity: 1; stroke-width: 0;"/></g></g><g class="errorbars"/><g class="lines"><path class="js-line" d="M0,115.47L8.46,120.06L16.92,116.76L25.38,114.92L33.85,111.29L42.31,100.94L50.77,96.82L59.23,89.39L67.69,79.18L76.15,73.74L84.62,67.17L101.54,51.16L110,51.47L118.46,48.12L126.92,50.7L135.38,50.44L143.85,51.06L152.31,44.62L160.77,41.45L169.23,40.96L177.69,38.43L186.15,36.97L194.62,36.99L203.08,35.6L211.54,35.33L228.46,33.54L236.92,33.69L245.38,34L253.85,31.71L262.31,31.1L270.77,31.81L287.69,34.74L296.15,35.31L304.62,37.77L313.08,36.73L321.54,38.34L330,37.29L338.46,39.9L346.92,46.38L363.85,61.19L372.31,63.2L380.77,75.79L389.23,81.6L397.69,86.68L406.15,96.74L423.08,102.32L431.54,110.12L440,118.08" style="vector-effect: non-scaling-stroke; fill: none; stroke: rgb(0, 0, 0); stroke-opacity: 1; stroke-width: 0.5px; opacity: 1;"/></g><g class="points"/><g class="text"/></g><g class="trace scatter tracef13224" style="stroke-miterlimit: 2;"><g class="fills"/><g class="errorbars"/><g class="lines"><path class="js-line" d="M0,108.2L8.46,110.44L16.92,100.8L25.38,99.28L33.85,93.73L42.31,93.22L50.77,80.48L59.23,82.44L67.69,66.59L76.15,57.94L84.62,51.91L93.08,47.36L101.54,35.7L110,37.44L118.46,33.75L126.92,40.65L135.38,37.35L152.31,38.64L160.77,29.48L169.23,36.47L177.69,33.87L186.15,31.96L194.62,33.51L203.08,31.71L211.54,31.03L220,28.05L228.46,31.15L236.92,27.63L245.38,27.79L253.85,23.58L262.31,25.73L270.77,27.49L279.23,26.23L287.69,32.53L296.15,30.71L304.62,33.82L313.08,33.34L321.54,35.36L330,28.1L338.46,33.33L346.92,40.18L363.85,55.89L372.31,58.03L380.77,69.33L389.23,74.58L406.15,83.54L414.62,89.29L423.08,90.37L431.54,101.21L440,102.92" style="vector-effect: non-scaling-stroke; fill: none; stroke: rgb(0, 0, 0); stroke-opacity: 1; stroke-width: 0.25px; opacity: 1;"/></g><g class="points"/><g class="text"/></g><g class="trace scatter trace6b0dc2" style="stroke-miterlimit: 2; opacity: 1;"><g class="fills"/><g class="errorbars"/><g class="lines"/><g class="points"><path class="point" transform="translate(203.08,29.76)" d="M4,0A4,4 0 1,1 0,-4A4,4 0 0,1 4,0ZM0,0.5L0.5,0L0,-0.5L-0.5,0Z" style="opacity: 1; stroke: rgb(0, 0, 0); stroke-opacity: 1; stroke-width: 1px; fill: none;"/><path class="point" transform="translate(211.54,22.32)" d="M4,0A4,4 0 1,1 0,-4A4,4 0 0,1 4,0ZM0,0.5L0.5,0L0,-0.5L-0.5,0Z" style="opacity: 1; stroke: rgb(0, 0, 0); stroke-opacity: 1; stroke-width: 1px; fill: none;"/><path class="point" transform="translate(220,7.44)" d="M4,0A4,4 0 1,1 0,-4A4,4 0 0,1 4,0ZM0,0.5L0.5,0L0,-0.5L-0.5,0Z" style="opacity: 1; stroke: rgb(0, 0, 0); stroke-opacity: 1; stroke-width: 1px; fill: none;"/><path class="point" transform="translate(228.46,7.44)" d="M4,0A4,4 0 1,1 0,-4A4,4 0 0,1 4,0ZM0,0.5L0.5,0L0,-0.5L-0.5,0Z" style="opacity: 1; stroke: rgb(0, 0, 0); stroke-opacity: 1; stroke-width: 1px; fill: none;"/></g><g class="text"/></g></g></g><g class="overplot"/><path class="xlines-above crisp" d="M0,0" style="fill: none;"/><path class="ylines-above crisp" d="M0,0" style="fill: none;"/><g class="overlines-above"/><g class="xaxislayer-above"><g class="x3tick"><text text-anchor="middle" x="0" y="733" transform="translate(156.15,0)" style="font-family: 'Open Sans', verdana, arial, sans-serif; font-size: 12px; fill: rgb(42, 63, 95); fill-opacity: 1; white-space: pre; opacity: 1;">10</text></g><g class="x3tick"><text text-anchor="middle" x="0" y="733" style="font-family: 'Open Sans', verdana, arial, sans-serif; font-size: 12px; fill: rgb(42, 63, 95); fill-opacity: 1; white-space: pre; opacity: 1;" transform="translate(240.77,0)">20</text></g><g class="x3tick"><text text-anchor="middle" x="0" y="733" style="font-family: 'Open Sans', verdana, arial, sans-serif; font-size: 12px; fill: rgb(42, 63, 95); fill-opacity: 1; white-space: pre; opacity: 1;" transform="translate(325.38,0)">30</text></g><g class="x3tick"><text text-anchor="middle" x="0" y="733" style="font-family: 'Open Sans', verdana, arial, sans-serif; font-size: 12px; fill: rgb(42, 63, 95); fill-opacity: 1; white-space: pre; opacity: 1;" transform="translate(410,0)">40</text></g><g class="x3tick"><text text-anchor="middle" x="0" y="733" style="font-family: 'Open Sans', verdana, arial, sans-serif; font-size: 12px; fill: rgb(42, 63, 95); fill-opacity: 1; white-space: pre; opacity: 1;" transform="translate(494.62,0)">50</text></g></g><g class="yaxislayer-above"><g class="y3tick"><text text-anchor="end" x="79" y="4.199999999999999" transform="translate(0,720)" style="font-family: 'Open Sans', verdana, arial, sans-serif; font-size: 12px; fill: rgb(42, 63, 95); fill-opacity: 1; white-space: pre; opacity: 1;">5</text></g><g class="y3tick"><text text-anchor="end" x="79" y="4.199999999999999" style="font-family: 'Open Sans', verdana, arial, sans-serif; font-size: 12px; fill: rgb(42, 63, 95); fill-opacity: 1; white-space: pre; opacity: 1;" transform="translate(0,682.8)">10</text></g><g class="y3tick"><text text-anchor="end" x="79" y="4.199999999999999" style="font-family: 'Open Sans', verdana, arial, sans-serif; font-size: 12px; fill: rgb(42, 63, 95); fill-opacity: 1; white-space: pre; opacity: 1;" transform="translate(0,645.6)">15</text></g><g class="y3tick"><text text-anchor="end" x="79" y="4.199999999999999" style="font-family: 'Open Sans', verdana, arial, sans-serif; font-size: 12px; fill: rgb(42, 63, 95); fill-opacity: 1; white-space: pre; opacity: 1;" transform="translate(0,608.4)">20</text></g><g class="y3tick"><text text-anchor="end" x="79" y="4.199999999999999" style="font-family: 'Open Sans', verdana, arial, sans-serif; font-size: 12px; fill: rgb(42, 63, 95); fill-opacity: 1; white-space: pre; opacity: 1;" transform="translate(0,571.2)">25</text></g><g class="y3tick"><text text-anchor="end" x="79" y="4.199999999999999" style="font-family: 'Open Sans', verdana, arial, sans-serif; font-size: 12px; fill: rgb(42, 63, 95); fill-opacity: 1; white-space: pre; opacity: 1;" transform="translate(0,534)">30</text></g></g><g class="overaxes-above"/></g></g><g class="polarlayer"/><g class="smithlayer"/><g class="ternarylayer"/><g class="geolayer"/><g class="funnelarealayer"/><g class="pielayer"/><g class="iciclelayer"/><g class="treemaplayer"/><g class="sunburstlayer"/><g class="glimages"/><defs id="topdefs-123b3b"><g class="clips"/></defs><g class="layer-above"><g class="imagelayer"/><g class="shapelayer"/></g><g class="infolayer"><g class="g-gtitle"><text class="gtitle" x="30" y="50" text-anchor="start" dy="0em" style="font-family: 'Open Sans', verdana, arial, sans-serif; font-size: 17px; fill: rgb(42, 63, 95); opacity: 1; font-weight: normal; white-space: pre;">Climatology and S2S forecast for Panchagarh</text></g><g class="g-xtitle"/><g class="g-x2title"/><g class="g-x3title"/><g class="g-ytitle"><text class="ytitle" transform="rotate(-90,34.16875,193)" x="34.16875" y="193" text-anchor="middle" style="font-family: 'Open Sans', verdana, arial, sans-serif; font-size: 14px; fill: rgb(42, 63, 95); opacity: 1; font-weight: normal; white-space: pre;">[mm]</text></g><g class="g-y2title"><text class="y2title" transform="rotate(-90,40.840625,410.00000000000006)" x="40.840625" y="410.00000000000006" text-anchor="middle" style="font-family: 'Open Sans', verdana, arial, sans-serif; font-size: 14px; fill: rgb(42, 63, 95); opacity: 1; font-weight: normal; white-space: pre;">[C]</text></g><g class="g-y3title"><text class="y3title" transform="rotate(-90,40.840625,627)" x="40.840625" y="627" text-anchor="middle" style="font-family: 'Open Sans', verdana, arial, sans-serif; font-size: 14px; fill: rgb(42, 63, 95); opacity: 1; font-weight: normal; white-space: pre;">[C]</text></g><g class="annotation" data-index="0" style="opacity: 1;"><g class="annotation-text-g" transform="rotate(0,300,89.5)"><g class="cursor-pointer" transform="translate(237,79)"><rect class="bg" x="0.5" y="0.5" width="126" height="20" style="stroke-width: 1px; stroke: rgb(0, 0, 0); stroke-opacity: 0; fill: rgb(0, 0, 0); fill-opacity: 0;"/><text class="annotation-text" text-anchor="middle" x="63.359375" y="16" style="font-family: 'Open Sans', verdana, arial, sans-serif; font-size: 16px; fill: rgb(42, 63, 95); fill-opacity: 1; white-space: pre;">Precipitation sum</text></g></g></g><g class="annotation" data-index="1" style="opacity: 1;"><g class="annotation-text-g" transform="rotate(0,300,306.50000000000006)"><g class="cursor-pointer" transform="translate(196,296)"><rect class="bg" x="0.5" y="0.5" width="208" height="20" style="stroke-width: 1px; stroke: rgb(0, 0, 0); stroke-opacity: 0; fill: rgb(0, 0, 0); fill-opacity: 0;"/><text class="annotation-text" text-anchor="middle" x="104.265625" y="16" style="font-family: 'Open Sans', verdana, arial, sans-serif; font-size: 16px; fill: rgb(42, 63, 95); fill-opacity: 1; white-space: pre;">Mean maximum temperature</text></g></g></g><g class="annotation" data-index="2" style="opacity: 1;"><g class="annotation-text-g" transform="rotate(0,300,523.5)"><g class="cursor-pointer" transform="translate(198,513)"><rect class="bg" x="0.5" y="0.5" width="203" height="20" style="stroke-width: 1px; stroke: rgb(0, 0, 0); stroke-opacity: 0; fill: rgb(0, 0, 0); fill-opacity: 0;"/><text class="annotation-text" text-anchor="middle" x="102.046875" y="16" style="font-family: 'Open Sans', verdana, arial, sans-serif; font-size: 16px; fill: rgb(42, 63, 95); fill-opacity: 1; white-space: pre;">Mean minimum temperature</text></g></g></g><g class="annotation" data-index="3" style="opacity: 1;"><g class="annotation-text-g" transform="rotate(0,300,760.5)"><g class="cursor-pointer" transform="translate(277,750)"><rect class="bg" x="0.5" y="0.5" width="45" height="20" style="stroke-width: 1px; stroke: rgb(0, 0, 0); stroke-opacity: 0; fill: rgb(0, 0, 0); fill-opacity: 0;"/><text class="annotation-text" text-anchor="middle" x="22.3125" y="16" style="font-family: 'Open Sans', verdana, arial, sans-serif; font-size: 16px; fill: rgb(42, 63, 95); fill-opacity: 1; white-space: pre;">Week</text></g></g></g></g></svg>