<svg class="main-svg" xmlns="http://www.w3.org/2000/svg" xmlns:xlink="http://www.w3.org/1999/xlink" width="600" height="800" style="" viewBox="0 0 600 800"><rect x="0" y="0" width="600" height="800" style="fill: rgb(255, 255, 255); fill-opacity: 1;"/><defs id="defs-d27960"><g class="clips"><clipPath id="clipd27960xyplot" class="plotclip"><rect width="440" height="186.00000000000003"/></clipPath><clipPath id="clipd27960x2y2plot" class="plotclip"><rect width="440" height="185.99999999999997"/></clipPath><clipPath id="clipd27960x3y3plot" class="plotclip"><rect width="440" height="186"/></clipPath><clipPath class="axesclip" id="clipd27960x"><rect x="80" y="0" width="440" height="800"/></clipPath><clipPath class="axesclip" id="clipd27960y"><rect x="0" y="100" width="600" height="186.00000000000003"/></clipPath><clipPath class="axesclip" id="clipd27960xy"><rect x="80" y="100" width="440" height="186.00000000000003"/></clipPath><clipPath class="axesclip" id="clipd27960y2"><rect x="0" y="317.00000000000006" width="600" height="185.99999999999997"/></clipPath><clipPath class="axesclip" id="clipd27960xy2"><rect x="80" y="317.00000000000006" width="440" height="185.99999999999997"/></clipPath><clipPath class="axesclip" id="clipd27960y3"><rect x="0" y="534" width="600" height="186"/></clipPath><clipPath class="axesclip" id="clipd27960xy3"><rect x="80" y="534" width="440" height="186"/></clipPath><clipPath class="axesclip" id="clipd27960x2"><rect x="80" y="0" width="440" height="800"/></clipPath><clipPath class="axesclip" id="clipd27960x2y"><rect x="80" y="100" width="440" height="186.00000000000003"/></clipPath><clipPath class="axesclip" id="clipd27960x2y2"><rect x="80" y="317.00000000000006" width="440" height="185.99999999999997"/></clipPath><clipPath class="axesclip" id="clipd27960x2y3"><rect x="80" y="534" width="440" height="186"/></clipPath><clipPath class="axesclip" id="clipd27960x3"><rect x="80" y="0" width="440" height="800"/></clipPath><clipPath class="axesclip" id="clipd27960x3y"><rect x="80" y="100" width="440" height="186.00000000000003"/></clipPath><clipPath class="axesclip" id="clipd27960x3y2"><rect x="80" y="317.00000000000006" width="440" height="185.99999999999997"/></clipPath><clipPath class="axesclip" id="clipd27960x3y3"><rect x="80" y="534" width="440" height="186"/></clipPath></g><g class="gradients"/><g class="patterns"/></defs><g class="bglayer"><rect class="bg" x="80" y="100" width="440" height="186.00000000000003" style="fill: rgb(229, 236, 246); fill-opacity: 1; stroke-width: 0;"/><rect class="bg" x="80" y="317.00000000000006" width="440" height="185.99999999999997" style="fill: rgb(229, 236, 246); fill-opacity: 1; stroke-width: 0;"/><rect class="bg" x="80" y="534" width="440" height="186" style="fill: rgb(229, 236, 246); fill-opacity: 1; stroke-width: 0;"/></g><g class="layer-below"><g class="imagelayer"/><g class="shapelayer"/></g><g class="cartesianlayer"><g class="subplot xy"><g class="layer-subplot"><g class="shapelayer"/><g class="imagelayer"/></g><g class="minor-gridlayer"><g class="x"/><g class="y"/></g><g class="gridlayer"><g class="x"><path class="xgrid crisp" transform="translate(156.15,0)" d="M0,100v186.00000000000003" style="stroke: rgb(255, 255, 255); stroke-opacity: 1; stroke-width: 1px;"/><path class="xgrid crisp" transform="translate(240.77,0)" d="M0,100v186.00000000000003" style="stroke: rgb(255, 255, 255); stroke-opacity: 1; stroke-width: 1px;"/><path class="xgrid crisp" transform="translate(325.38,0)" d="M0,100v186.00000000000003" style="stroke: rgb(255, 255, 255); stroke-opacity: 1; stroke-width: 1px;"/><path class="xgrid crisp" transform="translate(410,0)" d="M0,100v186.00000000000003" style="stroke: rgb(255, 255, 255); stroke-opacity: 1; stroke-width: 1px;"/><path class="xgrid crisp" transform="translate(494.62,0)" d="M0,100v186.00000000000003" style="stroke: rgb(255, 255, 255); stroke-opacity: 1; stroke-width: 1px;"/></g><g class="y"><path class="ygrid crisp" transform="translate(0,248.8)" d="M80,0h440" style="stroke: rgb(255, 255, 255); stroke-opacity: 1; stroke-width: 1px;"/><path class="ygrid crisp" transform="translate(0,211.6)" d="M80,0h440" style="stroke: rgb(255, 255, 255); stroke-opacity: 1; stroke-width: 1px;"/><path class="ygrid crisp" transform="translate(0,174.4)" d="M80,0h440" style="stroke: rgb(255, 255, 255); stroke-opacity: 1; stroke-width: 1px;"/><path class="ygrid crisp" transform="translate(0,137.2)" d="M80,0h440" style="stroke: rgb(255, 255, 255); stroke-opacity: 1; stroke-width: 1px;"/></g></g><g class="zerolinelayer"><path class="yzl zl crisp" transform="translate(0,286)" d="M80,0h440" style="stroke: rgb(255, 255, 255); stroke-opacity: 1; stroke-width: 2px;"/></g><path class="xlines-below"/><path class="ylines-below"/><g class="overlines-below"/><g class="xaxislayer-below"/><g class="yaxislayer-below"/><g class="overaxes-below"/><g class="plot" transform="translate(80,100)" clip-path="url(#clipd27960xyplot)"><g class="scatterlayer mlayer"><g class="trace scatter trace8bc5e0" style="stroke-miterlimit: 2;"><g class="fills"><g><path class="js-fill" d="M0,186L135.38,185.71L143.85,177.19L152.31,183.72L160.77,181.35L169.23,164.76L177.69,168.86L186.15,157.88L194.62,170.3L203.08,157.57L211.54,147.36L220,150.35L228.46,161L236.92,155.98L245.38,140.9L253.85,148.2L262.31,143.91L270.77,151.68L279.23,166.95L287.69,169.34L296.15,168.22L304.62,170.42L313.08,165.25L321.54,170.27L330,180.76L338.46,174.9L346.92,185.35L363.85,186L372.31,186L440,186L440,186L330,186L321.54,185.85L313.08,182.16L304.62,185.33L296.15,183.47L287.69,183.38L279.23,184.79L270.77,176.05L253.85,181.31L245.38,185.27L236.92,184.58L228.46,178.89L220,174.92L211.54,179.65L203.08,175.65L194.62,185.12L186.15,184.81L177.69,186L0,186Z" style="fill: rgb(224, 236, 244); fill-opacity: 1; stroke-width: 0;"/></g></g><g class="errorbars"/><g class="lines"><path class="js-line" d="M0,186L177.69,186L186.15,184.81L194.62,185.12L203.08,175.65L211.54,179.65L220,174.92L228.46,178.89L236.92,184.58L245.38,185.27L253.85,181.31L270.77,176.05L279.23,184.79L287.69,183.38L296.15,183.47L304.62,185.33L313.08,182.16L321.54,185.85L330,186L440,186" style="vector-effect: non-scaling-stroke; fill: none; stroke: rgb(0, 0, 0); stroke-opacity: 1; stroke-width: 0.25px; opacity: 1;"/></g><g class="points"/><g class="text"/></g><g class="trace scatter trace8cde9b" style="stroke-miterlimit: 2;"><g class="fills"><g><path class="js-fill" d="M0,186L101.54,185.63L110,183.5L118.46,185.33L126.92,185.38L135.38,174.19L143.85,160.01L152.31,172.94L160.77,166.36L169.23,150.58L177.69,144.66L186.15,136.67L194.62,142.05L203.08,124.86L211.54,137.08L220,130.45L228.46,139.54L236.92,137.38L245.38,128.64L253.85,138.68L262.31,125.38L270.77,137.34L279.23,152.45L287.69,152.84L296.15,151.26L304.62,155.19L313.08,141.58L321.54,144.77L330,169.82L338.46,151.98L346.92,171.94L355.38,184.69L363.85,185.69L389.23,186L397.69,186L440,186L440,186L372.31,186L363.85,186L346.92,185.35L338.46,174.9L330,180.76L321.54,170.27L313.08,165.25L304.62,170.42L296.15,168.22L287.69,169.34L279.23,166.95L270.77,151.68L262.31,143.91L253.85,148.2L245.38,140.9L236.92,155.98L228.46,161L220,150.35L211.54,147.36L203.08,157.57L194.62,170.3L186.15,157.88L177.69,168.86L169.23,164.76L160.77,181.35L152.31,183.72L143.85,177.19L135.38,185.71L0,186Z" style="fill: rgb(158, 188, 218); fill-opacity: 1; stroke-width: 0;"/></g></g><g class="errorbars"/><g class="lines"><path class="js-line" d="M0,186L135.38,185.71L143.85,177.19L152.31,183.72L160.77,181.35L169.23,164.76L177.69,168.86L186.15,157.88L194.62,170.3L203.08,157.57L211.54,147.36L220,150.35L228.46,161L236.92,155.98L245.38,140.9L253.85,148.2L262.31,143.91L270.77,151.68L279.23,166.95L287.69,169.34L296.15,168.22L304.62,170.42L313.08,165.25L321.54,170.27L330,180.76L338.46,174.9L346.92,185.35L363.85,186L372.31,186L440,186" style="vector-effect: non-scaling-stroke; fill: none; stroke: rgb(0, 0, 0); stroke-opacity: 1; stroke-width: 0.5px; opacity: 1;"/></g><g class="points"/><g class="text"/></g><g class="trace scatter traced6e62a" style="stroke-miterlimit: 2;"><g class="fills"><g><path class="js-fill" d="M0,186L42.31,185.7L50.77,181.92L59.23,185.26L67.69,184.56L84.62,183.8L93.08,182.24L101.54,182.63L110,172.62L118.46,167.21L126.92,175.1L135.38,169.4L143.85,152.05L152.31,160.28L160.77,153.27L169.23,141.01L177.69,124.44L186.15,121.98L194.62,118.51L203.08,91.93L211.54,70.27L228.46,104.39L236.92,103.99L245.38,87.24L253.85,115.14L262.31,107.63L270.77,103.96L279.23,133.11L287.69,139.23L296.15,135.77L304.62,116.77L313.08,113.47L321.54,122.36L330,142.22L338.46,117.25L346.92,148.37L355.38,174.2L363.85,180.5L372.31,185.03L397.69,186L406.15,186L440,186L440,186L397.69,186L389.23,186L363.85,185.69L355.38,184.69L346.92,171.94L338.46,151.98L330,169.82L321.54,144.77L313.08,141.58L304.62,155.19L296.15,151.26L287.69,152.84L279.23,152.45L270.77,137.34L262.31,125.38L253.85,138.68L245.38,128.64L236.92,137.38L228.46,139.54L220,130.45L211.54,137.08L203.08,124.86L194.62,142.05L186.15,136.67L177.69,144.66L169.23,150.58L160.77,166.36L152.31,172.94L143.85,160.01L135.38,174.19L126.92,185.38L118.46,185.33L110,183.5L101.54,185.63L0,186Z" style="fill: rgb(158, 188, 218); fill-opacity: 1; stroke-width: 0;"/></g></g><g class="errorbars"/><g class="lines"><path class="js-line" d="M0,186L101.54,185.63L110,183.5L118.46,185.33L126.92,185.38L135.38,174.19L143.85,160.01L152.31,172.94L160.77,166.36L169.23,150.58L177.69,144.66L186.15,136.67L194.62,142.05L203.08,124.86L211.54,137.08L220,130.45L228.46,139.54L236.92,137.38L245.38,128.64L253.85,138.68L262.31,125.38L270.77,137.34L279.23,152.45L287.69,152.84L296.15,151.26L304.62,155.19L313.08,141.58L321.54,144.77L330,169.82L338.46,151.98L346.92,171.94L355.38,184.69L363.85,185.69L389.23,186L397.69,186L440,186" style="vector-effect: non-scaling-stroke; fill: none; stroke: rgb(0, 0, 0); stroke-opacity: 1; stroke-width: 1px; opacity: 1;"/></g><g class="points"/><g class="text"/></g><g class="trace scatter trace0da0d2" style="stroke-miterlimit: 2;"><g class="fills"><g><path class="js-fill" d="M0,186L42.31,185.65L50.77,179.89L59.23,185.19L67.69,183.34L84.62,183.73L93.08,178.04L101.54,182.28L110,155.22L118.46,139.63L126.92,159.6L135.38,151.19L143.85,130.58L152.31,142.53L160.77,115.77L169.23,123.15L177.69,85.15L186.15,104.5L194.62,50.28L203.08,36.43L211.54,-28.35L220,5.37L228.46,62.7L236.92,43.35L245.38,43.03L253.85,107.01L262.31,68.28L270.77,71.31L279.23,117.56L287.69,118.5L296.15,106.52L304.62,66.59L313.08,80.22L321.54,59.94L330,87.29L338.46,88.03L346.92,138.42L355.38,172.34L363.85,177.39L372.31,184.5L380.77,185.36L397.69,186L406.15,186L440,186L440,186L406.15,186L397.69,186L372.31,185.03L363.85,180.5L355.38,174.2L346.92,148.37L338.46,117.25L330,142.22L321.54,122.36L313.08,113.47L304.62,116.77L296.15,135.77L287.69,139.23L279.23,133.11L270.77,103.96L262.31,107.63L253.85,115.14L245.38,87.24L236.92,103.99L228.46,104.39L211.54,70.27L203.08,91.93L194.62,118.51L186.15,121.98L177.69,124.44L169.23,141.01L160.77,153.27L152.31,160.28L143.85,152.05L135.38,169.4L126.92,175.1L118.46,167.21L110,172.62L101.54,182.63L93.08,182.24L84.62,183.8L67.69,184.56L59.23,185.26L50.77,181.92L42.31,185.7L0,186Z" style="fill: rgb(136, 86, 167); fill-opacity: 1; stroke-width: 0;"/></g></g><g class="errorbars"/><g class="lines"><path class="js-line" d="M0,186L42.31,185.7L50.77,181.92L59.23,185.26L67.69,184.56L84.62,183.8L93.08,182.24L101.54,182.63L110,172.62L118.46,167.21L126.92,175.1L135.38,169.4L143.85,152.05L152.31,160.28L160.77,153.27L169.23,141.01L177.69,124.44L186.15,121.98L194.62,118.51L203.08,91.93L211.54,70.27L228.46,104.39L236.92,103.99L245.38,87.24L253.85,115.14L262.31,107.63L270.77,103.96L279.23,133.11L287.69,139.23L296.15,135.77L304.62,116.77L313.08,113.47L321.54,122.36L330,142.22L338.46,117.25L346.92,148.37L355.38,174.2L363.85,180.5L372.31,185.03L397.69,186L406.15,186L440,186" style="vector-effect: non-scaling-stroke; fill: none; stroke: rgb(0, 0, 0); stroke-opacity: 1; stroke-width: 0.5px; opacity: 1;"/></g><g class="points"/><g class="text"/></g><g class="trace scatter traceb506f4" style="stroke-miterlimit: 2;"><g class="fills"/><g class="errorbars"/><g class="lines"><path class="js-line" d="M0,186L42.31,185.65L50.77,179.89L59.23,185.19L67.69,183.34L84.62,183.73L93.08,178.04L101.54,182.28L110,155.22L118.46,139.63L126.92,159.6L135.38,151.19L143.85,130.58L152.31,142.53L160.77,115.77L169.23,123.15L177.69,85.15L186.15,104.5L194.62,50.28L203.08,36.43L211.54,-28.35L220,5.37L228.46,62.7L236.92,43.35L245.38,43.03L253.85,107.01L262.31,68.28L270.77,71.31L279.23,117.56L287.69,118.5L296.15,106.52L304.62,66.59L313.08,80.22L321.54,59.94L330,87.29L338.46,88.03L346.92,138.42L355.38,172.34L363.85,177.39L372.31,184.5L380.77,185.36L397.69,186L406.15,186L440,186" style="vector-effect: non-scaling-stroke; fill: none; stroke: rgb(0, 0, 0); stroke-opacity: 1; stroke-width: 0.25px; opacity: 1;"/></g><g class="points"/><g class="text"/></g><g class="trace scatter traceb8fd20" style="stroke-miterlimit: 2; opacity: 1;"><g class="fills"/><g class="errorbars"/><g class="lines"/><g class="points"><path class="point" transform="translate(253.85,107.14)" d="M4,0A4,4 0 1,1 0,-4A4,4 0 0,1 4,0ZM0,0.5L0.5,0L0,-0.5L-0.5,0Z" style="opacity: 1; stroke: rgb(0, 0, 0); stroke-opacity: 1; stroke-width: 1px; fill: none;"/><path class="point" transform="translate(262.31,-64.73)" d="M4,0A4,4 0 1,1 0,-4A4,4 0 0,1 4,0ZM0,0.5L0.5,0L0,-0.5L-0.5,0Z" style="opacity: 1; stroke: rgb(0, 0, 0); stroke-opacity: 1; stroke-width: 1px; fill: none;"/><path class="point" transform="translate(270.77,84.07)" d="M4,0A4,4 0 1,1 0,-4A4,4 0 0,1 4,0ZM0,0.5L0.5,0L0,-0.5L-0.5,0Z" style="opacity: 1; stroke: rgb(0, 0, 0); stroke-opacity: 1; stroke-width: 1px; fill: none;"/><path class="point" transform="translate(279.23,84.07)" d="M4,0A4,4 0 1,1 0,-4A4,4 0 0,1 4,0ZM0,0.5L0.5,0L0,-0.5L-0.5,0Z" style="opacity: 1; stroke: rgb(0, 0, 0); stroke-opacity: 1; stroke-width: 1px; fill: none;"/></g><g class="text"/></g></g></g><g class="overplot"/><path class="xlines-above crisp" d="M0,0" style="fill: none;"/><path class="ylines-above crisp" d="M0,0" style="fill: none;"/><g class="overlines-above"/><g class="xaxislayer-above"/><g class="yaxislayer-above"><g class="ytick"><text text-anchor="end" x="79" y="4.199999999999999" transform="translate(0,286)" style="font-family: 'Open Sans', verdana, arial, sans-serif; font-size: 12px; fill: rgb(42, 63, 95); fill-opacity: 1; white-space: pre; opacity: 1;">0</text></g><g class="ytick"><text text-anchor="end" x="79" y="4.199999999999999" style="font-family: 'Open Sans', verdana, arial, sans-serif; font-size: 12px; fill: rgb(42, 63, 95); fill-opacity: 1; white-space: pre; opacity: 1;" transform="translate(0,248.8)">50</text></g><g class="ytick"><text text-anchor="end" x="79" y="4.199999999999999" style="font-family: 'Open Sans', verdana, arial, sans-serif; font-size: 12px; fill: rgb(42, 63, 95); fill-opacity: 1; white-space: pre; opacity: 1;" transform="translate(0,211.6)">100</text></g><g class="ytick"><text text-anchor="end" x="79" y="4.199999999999999" style="font-family: 'Open Sans', verdana, arial, sans-serif; font-size: 12px; fill: rgb(42, 63, 95); fill-opacity: 1; white-space: pre; opacity: 1;" transform="translate(0,174.4)">150</text></g><g class="ytick"><text text-anchor="end" x="79" y="4.199999999999999" style="font-family: 'Open Sans', verdana, arial, sans-serif; font-size: 12px; fill: rgb(42, 63, 95); fill-opacity: 1; white-space: pre; opacity: 1;" transform="translate(0,137.2)">200</text></g><g class="ytick"><text text-anchor="end" x="79" y="4.199999999999999" style="font-family: 'Open Sans', verdana, arial, sans-serif; font-size: 12px; fill: rgb(42, 63, 95); fill-opacity: 1; white-space: pre; opacity: 1;" transform="translate(0,100)">250</text></g></g><g class="overaxes-above"/></g><g class="subplot x2y2"><g class="layer-subplot"><g class="shapelayer"/><g class="imagelayer"/></g><g class="minor-gridlayer"><g class="x2"/><g class="y2"/></g><g class="gridlayer"><g class="x2"><path class="x2grid crisp" transform="translate(156.15,0)" d="M0,317.00000000000006v185.99999999999997" style="stroke: rgb(255, 255, 255); stroke-opacity: 1; stroke-width: 1px;"/><path class="x2grid crisp" transform="translate(240.77,0)" d="M0,317.00000000000006v185.99999999999997" style="stroke: rgb(255, 255, 255); stroke-opacity: 1; stroke-width: 1px;"/><path class="x2grid crisp" transform="translate(325.38,0)" d="M0,317.00000000000006v185.99999999999997" style="stroke: rgb(255, 255, 255); stroke-opacity: 1; stroke-width: 1px;"/><path class="x2grid crisp" transform="translate(410,0)" d="M0,317.00000000000006v185.99999999999997" style="stroke: rgb(255, 255, 255); stroke-opacity: 1; stroke-width: 1px;"/><path class="x2grid crisp" transform="translate(494.62,0)" d="M0,317.00000000000006v185.99999999999997" style="stroke: rgb(255, 255, 255); stroke-opacity: 1; stroke-width: 1px;"/></g><g class="y2"><path class="y2grid crisp" transform="translate(0,472.00000000000006)" d="M80,0h440" style="stroke: rgb(255, 255, 255); stroke-opacity: 1; stroke-width: 1px;"/><path class="y2grid crisp" transform="translate(0,410.00000000000006)" d="M80,0h440" style="stroke: rgb(255, 255, 255); stroke-opacity: 1; stroke-width: 1px;"/><path class="y2grid crisp" transform="translate(0,348.00000000000006)" d="M80,0h440" style="stroke: rgb(255, 255, 255); stroke-opacity: 1; stroke-width: 1px;"/></g></g><g class="zerolinelayer"/><path class="xlines-below"/><path class="ylines-below"/><g class="overlines-below"/><g class="xaxislayer-below"/><g class="yaxislayer-below"/><g class="overaxes-below"/><g class="plot" transform="translate(80,317.00000000000006)" clip-path="url(#clipd27960x2y2plot)"><g class="scatterlayer mlayer"><g class="trace scatter trace581281" style="stroke-miterlimit: 2;"><g class="fills"><g><path class="js-fill" d="M0,143.41L8.46,145.49L16.92,131.34L25.38,126.61L33.85,119.78L50.77,102.57L59.23,94.48L67.69,84.98L76.15,83.13L84.62,72.17L93.08,73.81L101.54,76.57L110,84.27L118.46,77.98L126.92,79.69L135.38,83.33L143.85,86.11L152.31,81.94L160.77,87.59L169.23,84.14L177.69,88.64L194.62,96.6L203.08,96.03L211.54,99.14L220,98.96L228.46,98.03L236.92,101.55L245.38,99.04L253.85,100.13L262.31,101.83L270.77,99.88L287.69,100.13L296.15,99.46L304.62,97.61L313.08,101.34L321.54,97.58L330,96.53L338.46,97.26L346.92,95.06L355.38,91.91L363.85,91.42L372.31,95.13L380.77,101.3L389.23,105.92L397.69,117.34L406.15,127.61L414.62,130.95L423.08,136.91L431.54,140.92L440,145.98L440,147.45L431.54,146.45L423.08,152.26L414.62,135.51L406.15,143.7L397.69,127.89L389.23,114.42L380.77,110.66L372.31,100.78L363.85,96.5L355.38,101.88L346.92,111.51L338.46,106.35L330,107.02L321.54,109.14L313.08,112.74L304.62,108.45L296.15,108.1L287.69,103.34L279.23,102.88L270.77,106.38L262.31,110.78L253.85,113.67L245.38,105.83L236.92,105.5L228.46,101.86L220,103.24L211.54,107.64L203.08,106.13L194.62,111.91L186.15,98.25L177.69,98.37L169.23,95.65L160.77,94.9L152.31,91.84L143.85,92.92L135.38,98.78L126.92,92.02L118.46,93.43L110,90.12L101.54,93.12L93.08,87.36L84.62,87.44L76.15,98.58L67.69,106.18L59.23,111.67L50.77,120.12L42.31,127.28L33.85,129.66L25.38,132.78L16.92,143.56L8.46,161.69L0,160.36Z" style="fill: rgb(145, 191, 219); fill-opacity: 1; stroke-width: 0;"/></g></g><g class="errorbars"/><g class="lines"><path class="js-line" d="M0,160.36L8.46,161.69L16.92,143.56L25.38,132.78L33.85,129.66L42.31,127.28L50.77,120.12L59.23,111.67L67.69,106.18L76.15,98.58L84.62,87.44L93.08,87.36L101.54,93.12L110,90.12L118.46,93.43L126.92,92.02L135.38,98.78L143.85,92.92L152.31,91.84L160.77,94.9L169.23,95.65L177.69,98.37L186.15,98.25L194.62,111.91L203.08,106.13L211.54,107.64L220,103.24L228.46,101.86L236.92,105.5L245.38,105.83L253.85,113.67L262.31,110.78L270.77,106.38L279.23,102.88L287.69,103.34L296.15,108.1L304.62,108.45L313.08,112.74L321.54,109.14L330,107.02L338.46,106.35L346.92,111.51L355.38,101.88L363.85,96.5L372.31,100.78L380.77,110.66L389.23,114.42L397.69,127.89L406.15,143.7L414.62,135.51L423.08,152.26L431.54,146.45L440,147.45" style="vector-effect: non-scaling-stroke; fill: none; stroke: rgb(0, 0, 0); stroke-opacity: 1; stroke-width: 0.25px; opacity: 1;"/></g><g class="points"/><g class="text"/></g><g class="trace scatter tracef13142" style="stroke-miterlimit: 2;"><g class="fills"><g><path class="js-fill" d="M0,135.13L8.46,135.89L16.92,125.48L25.38,121.11L33.85,112.97L42.31,103.66L50.77,96.3L59.23,86.85L67.69,78.61L76.15,73.27L84.62,69.31L93.08,59.94L101.54,66.99L110,74.54L118.46,70.48L126.92,74.61L135.38,76.26L143.85,80.32L152.31,76.06L160.77,79.61L169.23,80.52L177.69,81.78L186.15,88.96L211.54,93.92L220,94.03L228.46,95.29L236.92,99.29L245.38,94.59L253.85,98.07L262.31,95.16L270.77,97.15L279.23,95.93L287.69,96.77L296.15,97.57L304.62,94.35L313.08,97L321.54,88.94L338.46,89.84L346.92,86.58L355.38,83.79L363.85,88.9L372.31,91.61L380.77,96.6L389.23,102.44L397.69,109.4L406.15,118.14L414.62,122.85L423.08,126.11L431.54,133.48L440,130.37L440,145.98L431.54,140.92L423.08,136.91L414.62,130.95L406.15,127.61L397.69,117.34L389.23,105.92L380.77,101.3L372.31,95.13L363.85,91.42L355.38,91.91L346.92,95.06L338.46,97.26L330,96.53L321.54,97.58L313.08,101.34L304.62,97.61L296.15,99.46L287.69,100.13L270.77,99.88L262.31,101.83L253.85,100.13L245.38,99.04L236.92,101.55L228.46,98.03L220,98.96L211.54,99.14L203.08,96.03L194.62,96.6L177.69,88.64L169.23,84.14L160.77,87.59L152.31,81.94L143.85,86.11L135.38,83.33L126.92,79.69L118.46,77.98L110,84.27L101.54,76.57L93.08,73.81L84.62,72.17L76.15,83.13L67.69,84.98L59.23,94.48L50.77,102.57L33.85,119.78L25.38,126.61L16.92,131.34L8.46,145.49L0,143.41Z" style="fill: rgb(255, 255, 191); fill-opacity: 1; stroke-width: 0;"/></g></g><g class="errorbars"/><g class="lines"><path class="js-line" d="M0,143.41L8.46,145.49L16.92,131.34L25.38,126.61L33.85,119.78L50.77,102.57L59.23,94.48L67.69,84.98L76.15,83.13L84.62,72.17L93.08,73.81L101.54,76.57L110,84.27L118.46,77.98L126.92,79.69L135.38,83.33L143.85,86.11L152.31,81.94L160.77,87.59L169.23,84.14L177.69,88.64L194.62,96.6L203.08,96.03L211.54,99.14L220,98.96L228.46,98.03L236.92,101.55L245.38,99.04L253.85,100.13L262.31,101.83L270.77,99.88L287.69,100.13L296.15,99.46L304.62,97.61L313.08,101.34L321.54,97.58L330,96.53L338.46,97.26L346.92,95.06L355.38,91.91L363.85,91.42L372.31,95.13L380.77,101.3L389.23,105.92L397.69,117.34L406.15,127.61L414.62,130.95L423.08,136.91L431.54,140.92L440,145.98" style="vector-effect: non-scaling-stroke; fill: none; stroke: rgb(0, 0, 0); stroke-opacity: 1; stroke-width: 0.5px; opacity: 1;"/></g><g class="points"/><g class="text"/></g><g class="trace scatter trace8730a8" style="stroke-miterlimit: 2;"><g class="fills"><g><path class="js-fill" d="M0,128.3L8.46,126.9L16.92,121.2L33.85,111.31L42.31,97.21L50.77,88.68L59.23,82.46L67.69,69.37L76.15,65.3L93.08,56.09L101.54,57.94L110,59.25L118.46,59.14L126.92,62.14L135.38,59.17L143.85,68.11L152.31,70.28L160.77,71.51L169.23,74.61L177.69,76.41L186.15,82.01L194.62,81.03L203.08,87.58L211.54,90.3L220,90.49L228.46,90.07L236.92,92.8L245.38,86.31L253.85,90.62L262.31,90.05L270.77,92.86L279.23,90.22L287.69,93.76L296.15,89.99L304.62,88.3L313.08,90.33L321.54,86.05L330,80.32L338.46,82.4L346.92,80.34L355.38,80.87L363.85,83.86L372.31,88.53L380.77,94.88L389.23,97.84L397.69,104.58L406.15,113.03L414.62,116.98L423.08,119.87L431.54,125.69L440,119.96L440,130.37L431.54,133.48L423.08,126.11L414.62,122.85L406.15,118.14L397.69,109.4L389.23,102.44L380.77,96.6L372.31,91.61L363.85,88.9L355.38,83.79L346.92,86.58L338.46,89.84L321.54,88.94L313.08,97L304.62,94.35L296.15,97.57L287.69,96.77L279.23,95.93L270.77,97.15L262.31,95.16L253.85,98.07L245.38,94.59L236.92,99.29L228.46,95.29L220,94.03L211.54,93.92L186.15,88.96L177.69,81.78L169.23,80.52L160.77,79.61L152.31,76.06L143.85,80.32L135.38,76.26L126.92,74.61L118.46,70.48L110,74.54L101.54,66.99L93.08,59.94L84.62,69.31L76.15,73.27L67.69,78.61L59.23,86.85L50.77,96.3L42.31,103.66L33.85,112.97L25.38,121.11L16.92,125.48L8.46,135.89L0,135.13Z" style="fill: rgb(255, 255, 191); fill-opacity: 1; stroke-width: 0;"/></g></g><g class="errorbars"/><g class="lines"><path class="js-line" d="M0,135.13L8.46,135.89L16.92,125.48L25.38,121.11L33.85,112.97L42.31,103.66L50.77,96.3L59.23,86.85L67.69,78.61L76.15,73.27L84.62,69.31L93.08,59.94L101.54,66.99L110,74.54L118.46,70.48L126.92,74.61L135.38,76.26L143.85,80.32L152.31,76.06L160.77,79.61L169.23,80.52L177.69,81.78L186.15,88.96L211.54,93.92L220,94.03L228.46,95.29L236.92,99.29L245.38,94.59L253.85,98.07L262.31,95.16L270.77,97.15L279.23,95.93L287.69,96.77L296.15,97.57L304.62,94.35L313.08,97L321.54,88.94L338.46,89.84L346.92,86.58L355.38,83.79L363.85,88.9L372.31,91.61L380.77,96.6L389.23,102.44L397.69,109.4L406.15,118.14L414.62,122.85L423.08,126.11L431.54,133.48L440,130.37" style="vector-effect: non-scaling-stroke; fill: none; stroke: rgb(0, 0, 0); stroke-opacity: 1; stroke-width: 1px; opacity: 1;"/></g><g class="points"/><g class="text"/></g><g class="trace scatter trace333c32" style="stroke-miterlimit: 2;"><g class="fills"><g><path class="js-fill" d="M0,115.45L8.46,115.79L16.92,107.65L25.38,112.85L33.85,101.03L42.31,80.62L50.77,81.66L59.23,69.74L67.69,64.76L76.15,56.63L84.62,47.41L93.08,52.15L101.54,49.86L110,48.74L118.46,53.57L126.92,36.38L135.38,32.13L143.85,60.93L152.31,56.61L160.77,55.96L169.23,62.65L177.69,58.75L186.15,65.93L194.62,59.75L203.08,78.93L211.54,77.86L220,80.44L228.46,78.72L236.92,79.91L245.38,75.28L253.85,76.82L262.31,73.43L270.77,83.88L279.23,84.66L287.69,93.56L296.15,81.54L304.62,78.91L313.08,75.62L321.54,76.04L330,65.47L338.46,65.97L346.92,65.24L355.38,76.36L372.31,82.89L380.77,87.58L406.15,98.54L414.62,106.53L423.08,112.38L431.54,114.37L440,115.28L440,119.96L431.54,125.69L423.08,119.87L414.62,116.98L406.15,113.03L397.69,104.58L389.23,97.84L380.77,94.88L372.31,88.53L363.85,83.86L355.38,80.87L346.92,80.34L338.46,82.4L330,80.32L321.54,86.05L313.08,90.33L304.62,88.3L296.15,89.99L287.69,93.76L279.23,90.22L270.77,92.86L262.31,90.05L253.85,90.62L245.38,86.31L236.92,92.8L228.46,90.07L220,90.49L211.54,90.3L203.08,87.58L194.62,81.03L186.15,82.01L177.69,76.41L169.23,74.61L160.77,71.51L152.31,70.28L143.85,68.11L135.38,59.17L126.92,62.14L118.46,59.14L110,59.25L101.54,57.94L93.08,56.09L76.15,65.3L67.69,69.37L59.23,82.46L50.77,88.68L42.31,97.21L33.85,111.31L16.92,121.2L8.46,126.9L0,128.3Z" style="fill: rgb(252, 141, 89); fill-opacity: 1; stroke-width: 0;"/></g></g><g class="errorbars"/><g class="lines"><path class="js-line" d="M0,128.3L8.46,126.9L16.92,121.2L33.85,111.31L42.31,97.21L50.77,88.68L59.23,82.46L67.69,69.37L76.15,65.3L93.08,56.09L101.54,57.94L110,59.25L118.46,59.14L126.92,62.14L135.38,59.17L143.85,68.11L152.31,70.28L160.77,71.51L169.23,74.61L177.69,76.41L186.15,82.01L194.62,81.03L203.08,87.58L211.54,90.3L220,90.49L228.46,90.07L236.92,92.8L245.38,86.31L253.85,90.62L262.31,90.05L270.77,92.86L279.23,90.22L287.69,93.76L296.15,89.99L304.62,88.3L313.08,90.33L321.54,86.05L330,80.32L338.46,82.4L346.92,80.34L355.38,80.87L363.85,83.86L372.31,88.53L380.77,94.88L389.23,97.84L397.69,104.58L406.15,113.03L414.62,116.98L423.08,119.87L431.54,125.69L440,119.96" style="vector-effect: non-scaling-stroke; fill: none; stroke: rgb(0, 0, 0); stroke-opacity: 1; stroke-width: 0.5px; opacity: 1;"/></g><g class="points"/><g class="text"/></g><g class="trace scatter trace34750f" style="stroke-miterlimit: 2;"><g class="fills"/><g class="errorbars"/><g class="lines"><path class="js-line" d="M0,115.45L8.46,115.79L16.92,107.65L25.38,112.85L33.85,101.03L42.31,80.62L50.77,81.66L59.23,69.74L67.69,64.76L76.15,56.63L84.62,47.41L93.08,52.15L101.54,49.86L110,48.74L118.46,53.57L126.92,36.38L135.38,32.13L143.85,60.93L152.31,56.61L160.77,55.96L169.23,62.65L177.69,58.75L186.15,65.93L194.62,59.75L203.08,78.93L211.54,77.86L220,80.44L228.46,78.72L236.92,79.91L245.38,75.28L253.85,76.82L262.31,73.43L270.77,83.88L279.23,84.66L287.69,93.56L296.15,81.54L304.62,78.91L313.08,75.62L321.54,76.04L330,65.47L338.46,65.97L346.92,65.24L355.38,76.36L372.31,82.89L380.77,87.58L406.15,98.54L414.62,106.53L423.08,112.38L431.54,114.37L440,115.28" style="vector-effect: non-scaling-stroke; fill: none; stroke: rgb(0, 0, 0); stroke-opacity: 1; stroke-width: 0.25px; opacity: 1;"/></g><g class="points"/><g class="text"/></g><g class="trace scatter trace7f6d56" style="stroke-miterlimit: 2; opacity: 1;"><g class="fills"/><g class="errorbars"/><g class="lines"/><g class="points"><path class="point" transform="translate(253.85,68.2)" d="M4,0A4,4 0 1,1 0,-4A4,4 0 0,1 4,0ZM0,0.5L0.5,0L0,-0.5L-0.5,0Z" style="opacity: 1; stroke: rgb(0, 0, 0); stroke-opacity: 1; stroke-width: 1px; fill: none;"/><path class="point" transform="translate(262.31,105.4)" d="M4,0A4,4 0 1,1 0,-4A4,4 0 0,1 4,0ZM0,0.5L0.5,0L0,-0.5L-0.5,0Z" style="opacity: 1; stroke: rgb(0, 0, 0); stroke-opacity: 1; stroke-width: 1px; fill: none;"/><path class="point" transform="translate(270.77,86.8)" d="M4,0A4,4 0 1,1 0,-4A4,4 0 0,1 4,0ZM0,0.5L0.5,0L0,-0.5L-0.5,0Z" style="opacity: 1; stroke: rgb(0, 0, 0); stroke-opacity: 1; stroke-width: 1px; fill: none;"/><path class="point" transform="translate(279.23,86.8)" d="M4,0A4,4 0 1,1 0,-4A4,4 0 0,1 4,0ZM0,0.5L0.5,0L0,-0.5L-0.5,0Z" style="opacity: 1; stroke: rgb(0, 0, 0); stroke-opacity: 1; stroke-width: 1px; fill: none;"/></g><g class="text"/></g></g></g><g class="overplot"/><path class="xlines-above crisp" d="M0,0" style="fill: none;"/><path class="ylines-above crisp" d="M0,0" style="fill: none;"/><g class="overlines-above"/><g class="xaxislayer-above"/><g class="yaxislayer-above"><g class="y2tick"><text text-anchor="end" x="79" y="4.199999999999999" transform="translate(0,472.00000000000006)" style="font-family: 'Open Sans', verdana, arial, sans-serif; font-size: 12px; fill: rgb(42, 63, 95); fill-opacity: 1; white-space: pre; opacity: 1;">20</text></g><g class="y2tick"><text text-anchor="end" x="79" y="4.199999999999999" style="font-family: 'Open Sans', verdana, arial, sans-serif; font-size: 12px; fill: rgb(42, 63, 95); fill-opacity: 1; white-space: pre; opacity: 1;" transform="translate(0,410.00000000000006)">30</text></g><g class="y2tick"><text text-anchor="end" x="79" y="4.199999999999999" style="font-family: 'Open Sans', verdana, arial, sans-serif; font-size: 12px; fill: rgb(42, 63, 95); fill-opacity: 1; white-space: pre; opacity: 1;" transform="translate(0,348.00000000000006)">40</text></g></g><g class="overaxes-above"/></g><g class="subplot x3y3"><g class="layer-subplot"><g class="shapelayer"/><g class="imagelayer"/></g><g class="minor-gridlayer"><g class="x3"/><g class="y3"/></g><g class="gridlayer"><g class="x3"><path class="x3grid crisp" transform="translate(156.15,0)" d="M0,534v186" style="stroke: rgb(255, 255, 255); stroke-opacity: 1; stroke-width: 1px;"/><path class="x3grid crisp" transform="translate(240.77,0)" d="M0,534v186" style="stroke: rgb(255, 255, 255); stroke-opacity: 1; stroke-width: 1px;"/><path class="x3grid crisp" transform="translate(325.38,0)" d="M0,534v186" style="stroke: rgb(255, 255, 255); stroke-opacity: 1; stroke-width: 1px;"/><path class="x3grid crisp" transform="translate(410,0)" d="M0,534v186" style="stroke: rgb(255, 255, 255); stroke-opacity: 1; stroke-width: 1px;"/><path class="x3grid crisp" transform="translate(494.62,0)" d="M0,534v186" style="stroke: rgb(255, 255, 255); stroke-opacity: 1; stroke-width: 1px;"/></g><g class="y3"><path class="y3grid crisp" transform="translate(0,682.8)" d="M80,0h440" style="stroke: rgb(255, 255, 255); stroke-opacity: 1; stroke-width: 1px;"/><path class="y3grid crisp" transform="translate(0,645.6)" d="M80,0h440" style="stroke: rgb(255, 255, 255); stroke-opacity: 1; stroke-width: 1px;"/><path class="y3grid crisp" transform="translate(0,608.4)" d="M80,0h440" style="stroke: rgb(255, 255, 255); stroke-opacity: 1; stroke-width: 1px;"/><path class="y3grid crisp" transform="translate(0,571.2)" d="M80,0h440" style="stroke: rgb(255, 255, 255); stroke-opacity: 1; stroke-width: 1px;"/></g></g><g class="zerolinelayer"/><path class="xlines-below"/><path class="ylines-below"/><g class="overlines-below"/><g class="xaxislayer-below"/><g class="yaxislayer-below"/><g class="overaxes-below"/><g class="plot" transform="translate(80,534)" clip-path="url(#clipd27960x3y3plot)"><g class="scatterlayer mlayer"><g class="trace scatter trace432f71" style="stroke-miterlimit: 2;"><g class="fills"><g><path class="js-fill" d="M0,120.86L8.46,126.22L16.92,122.2L25.38,118.85L33.85,116.95L42.31,104.25L50.77,94.16L59.23,88.79L67.69,76.67L76.15,73.41L84.62,68.05L93.08,61.34L101.54,58.61L110,55.39L118.46,53.55L126.92,49.24L135.38,50.9L143.85,48.88L152.31,41.88L169.23,37.34L177.69,37.03L194.62,35.63L203.08,35.66L211.54,36.59L220,35.98L228.46,35.88L236.92,37.61L253.85,38.56L262.31,36.68L287.69,38.14L296.15,39.39L304.62,39.29L313.08,41.75L321.54,40.38L330,41.86L338.46,44.03L346.92,48.57L355.38,49.85L363.85,60.57L372.31,64.75L380.77,72.55L397.69,95.16L406.15,102L414.62,105.35L423.08,115.66L431.54,116.45L440,130.75L440,137.15L431.54,129.72L423.08,129.68L414.62,120.37L406.15,115.14L397.69,107.15L389.23,90.63L380.77,83.33L372.31,73.35L363.85,63.9L355.38,55.94L346.92,53.74L330,45.97L321.54,44.08L313.08,45.15L304.62,41.58L296.15,41.1L287.69,41.19L279.23,40.09L270.77,38.92L262.31,40.97L253.85,40.62L245.38,41.72L236.92,39.25L228.46,38.84L220,37.53L203.08,38.23L194.62,41.71L186.15,41.33L177.69,43.64L169.23,39.62L160.77,45.87L152.31,47.52L143.85,55.61L135.38,58.07L126.92,59.47L110,65.26L101.54,63.93L93.08,74.62L84.62,80.38L76.15,85.11L67.69,86.48L59.23,108.33L50.77,105.52L42.31,125L33.85,138.45L16.92,125.62L8.46,141.36L0,125.08Z" style="fill: rgb(90, 180, 172); fill-opacity: 1; stroke-width: 0;"/></g></g><g class="errorbars"/><g class="lines"><path class="js-line" d="M0,125.08L8.46,141.36L16.92,125.62L33.85,138.45L42.31,125L50.77,105.52L59.23,108.33L67.69,86.48L76.15,85.11L84.62,80.38L93.08,74.62L101.54,63.93L110,65.26L126.92,59.47L135.38,58.07L143.85,55.61L152.31,47.52L160.77,45.87L169.23,39.62L177.69,43.64L186.15,41.33L194.62,41.71L203.08,38.23L220,37.53L228.46,38.84L236.92,39.25L245.38,41.72L253.85,40.62L262.31,40.97L270.77,38.92L279.23,40.09L287.69,41.19L296.15,41.1L304.62,41.58L313.08,45.15L321.54,44.08L330,45.97L346.92,53.74L355.38,55.94L363.85,63.9L372.31,73.35L380.77,83.33L389.23,90.63L397.69,107.15L406.15,115.14L414.62,120.37L423.08,129.68L431.54,129.72L440,137.15" style="vector-effect: non-scaling-stroke; fill: none; stroke: rgb(0, 0, 0); stroke-opacity: 1; stroke-width: 0.25px; opacity: 1;"/></g><g class="points"/><g class="text"/></g><g class="trace scatter trace8bd4bf" style="stroke-miterlimit: 2;"><g class="fills"><g><path class="js-fill" d="M0,114.86L8.46,118.5L16.92,113.78L25.38,109.95L33.85,108.79L42.31,92.8L50.77,90.04L59.23,81.6L67.69,71.59L76.15,69.78L84.62,61.1L93.08,55.09L101.54,53.97L110,52.25L118.46,48.52L126.92,43.96L135.38,45.18L143.85,44.57L152.31,39.62L160.77,36.73L169.23,35.23L203.08,34.1L211.54,35.07L228.46,34.37L236.92,35.81L253.85,37.43L262.31,35.33L270.77,36.41L279.23,36.54L296.15,37.69L304.62,38.21L313.08,39.18L321.54,38.6L330,40.96L338.46,42.46L346.92,43.93L355.38,46.86L363.85,55.99L372.31,58.84L380.77,66.81L389.23,77.25L397.69,87.46L406.15,91.22L414.62,102.39L423.08,103.98L431.54,113.58L440,126.96L440,130.75L431.54,116.45L423.08,115.66L414.62,105.35L406.15,102L397.69,95.16L380.77,72.55L372.31,64.75L363.85,60.57L355.38,49.85L346.92,48.57L338.46,44.03L330,41.86L321.54,40.38L313.08,41.75L304.62,39.29L296.15,39.39L287.69,38.14L262.31,36.68L253.85,38.56L236.92,37.61L228.46,35.88L220,35.98L211.54,36.59L203.08,35.66L194.62,35.63L177.69,37.03L169.23,37.34L152.31,41.88L143.85,48.88L135.38,50.9L126.92,49.24L118.46,53.55L110,55.39L101.54,58.61L93.08,61.34L84.62,68.05L76.15,73.41L67.69,76.67L59.23,88.79L50.77,94.16L42.31,104.25L33.85,116.95L25.38,118.85L16.92,122.2L8.46,126.22L0,120.86Z" style="fill: rgb(245, 245, 245); fill-opacity: 1; stroke-width: 0;"/></g></g><g class="errorbars"/><g class="lines"><path class="js-line" d="M0,120.86L8.46,126.22L16.92,122.2L25.38,118.85L33.85,116.95L42.31,104.25L50.77,94.16L59.23,88.79L67.69,76.67L76.15,73.41L84.62,68.05L93.08,61.34L101.54,58.61L110,55.39L118.46,53.55L126.92,49.24L135.38,50.9L143.85,48.88L152.31,41.88L169.23,37.34L177.69,37.03L194.62,35.63L203.08,35.66L211.54,36.59L220,35.98L228.46,35.88L236.92,37.61L253.85,38.56L262.31,36.68L287.69,38.14L296.15,39.39L304.62,39.29L313.08,41.75L321.54,40.38L330,41.86L338.46,44.03L346.92,48.57L355.38,49.85L363.85,60.57L372.31,64.75L380.77,72.55L397.69,95.16L406.15,102L414.62,105.35L423.08,115.66L431.54,116.45L440,130.75" style="vector-effect: non-scaling-stroke; fill: none; stroke: rgb(0, 0, 0); stroke-opacity: 1; stroke-width: 0.5px; opacity: 1;"/></g><g class="points"/><g class="text"/></g><g class="trace scatter trace70b8f1" style="stroke-miterlimit: 2;"><g class="fills"><g><path class="js-fill" d="M0,109.86L8.46,112.51L16.92,110L25.38,103.66L33.85,98.45L42.31,86.82L50.77,79.01L67.69,65.5L76.15,61.8L84.62,54.88L93.08,52.14L101.54,48.45L110,48.01L126.92,41.45L135.38,38.54L143.85,40.37L152.31,38.09L160.77,34.03L169.23,32.32L177.69,32.12L186.15,32.73L194.62,30.45L203.08,32.83L220,33.29L228.46,31.42L236.92,33.76L245.38,34.47L262.31,33.64L270.77,34.73L279.23,34.34L287.69,34.86L296.15,35.78L304.62,37.62L313.08,36.59L321.54,36.82L330,37.53L338.46,39.35L346.92,39.58L355.38,43.76L363.85,50.18L372.31,55.04L380.77,64.43L389.23,70.36L397.69,79.35L406.15,86.19L414.62,92.05L423.08,92.41L431.54,106.8L440,118.77L440,126.96L431.54,113.58L423.08,103.98L414.62,102.39L406.15,91.22L397.69,87.46L389.23,77.25L380.77,66.81L372.31,58.84L363.85,55.99L355.38,46.86L346.92,43.93L338.46,42.46L330,40.96L321.54,38.6L313.08,39.18L304.62,38.21L296.15,37.69L279.23,36.54L270.77,36.41L262.31,35.33L253.85,37.43L236.92,35.81L228.46,34.37L211.54,35.07L203.08,34.1L169.23,35.23L160.77,36.73L152.31,39.62L143.85,44.57L135.38,45.18L126.92,43.96L118.46,48.52L110,52.25L101.54,53.97L93.08,55.09L84.62,61.1L76.15,69.78L67.69,71.59L59.23,81.6L50.77,90.04L42.31,92.8L33.85,108.79L25.38,109.95L16.92,113.78L8.46,118.5L0,114.86Z" style="fill: rgb(245, 245, 245); fill-opacity: 1; stroke-width: 0;"/></g></g><g class="errorbars"/><g class="lines"><path class="js-line" d="M0,114.86L8.46,118.5L16.92,113.78L25.38,109.95L33.85,108.79L42.31,92.8L50.77,90.04L59.23,81.6L67.69,71.59L76.15,69.78L84.62,61.1L93.08,55.09L101.54,53.97L110,52.25L118.46,48.52L126.92,43.96L135.38,45.18L143.85,44.57L152.31,39.62L160.77,36.73L169.23,35.23L203.08,34.1L211.54,35.07L228.46,34.37L236.92,35.81L253.85,37.43L262.31,35.33L270.77,36.41L279.23,36.54L296.15,37.69L304.62,38.21L313.08,39.18L321.54,38.6L330,40.96L338.46,42.46L346.92,43.93L355.38,46.86L363.85,55.99L372.31,58.84L380.77,66.81L389.23,77.25L397.69,87.46L406.15,91.22L414.62,102.39L423.08,103.98L431.54,113.58L440,126.96" style="vector-effect: non-scaling-stroke; fill: none; stroke: rgb(0, 0, 0); stroke-opacity: 1; stroke-width: 1px; opacity: 1;"/></g><g class="points"/><g class="text"/></g><g class="trace scatter trace19f0bb" style="stroke-miterlimit: 2;"><g class="fills"><g><path class="js-fill" d="M0,100.26L8.46,99.81L16.92,95.6L33.85,85.77L42.31,74.89L50.77,60.87L59.23,65.04L67.69,57.16L76.15,45.34L84.62,46.77L93.08,42.24L101.54,35.23L110,40.51L126.92,32.63L135.38,22.88L143.85,28.4L152.31,36.22L160.77,27.64L169.23,27.29L177.69,26.35L186.15,28.46L194.62,23.31L203.08,30.58L211.54,31.37L220,31.25L228.46,27.98L236.92,31.91L245.38,33.69L253.85,27.48L262.31,32.85L270.77,32.63L279.23,30.53L287.69,34.02L304.62,35.84L313.08,34.02L321.54,32.37L330,34.51L338.46,34.94L346.92,31.84L363.85,42.67L372.31,46.6L380.77,53.46L389.23,61.96L397.69,69.62L406.15,74.43L414.62,73.03L423.08,87.92L431.54,93.13L440,116.97L440,118.77L431.54,106.8L423.08,92.41L414.62,92.05L406.15,86.19L397.69,79.35L389.23,70.36L380.77,64.43L372.31,55.04L363.85,50.18L355.38,43.76L346.92,39.58L338.46,39.35L330,37.53L321.54,36.82L313.08,36.59L304.62,37.62L296.15,35.78L287.69,34.86L279.23,34.34L270.77,34.73L262.31,33.64L245.38,34.47L236.92,33.76L228.46,31.42L220,33.29L203.08,32.83L194.62,30.45L186.15,32.73L177.69,32.12L169.23,32.32L160.77,34.03L152.31,38.09L143.85,40.37L135.38,38.54L126.92,41.45L110,48.01L101.54,48.45L93.08,52.14L84.62,54.88L76.15,61.8L67.69,65.5L50.77,79.01L42.31,86.82L33.85,98.45L25.38,103.66L16.92,110L8.46,112.51L0,109.86Z" style="fill: rgb(216, 179, 101); fill-opacity: 1; stroke-width: 0;"/></g></g><g class="errorbars"/><g class="lines"><path class="js-line" d="M0,109.86L8.46,112.51L16.92,110L25.38,103.66L33.85,98.45L42.31,86.82L50.77,79.01L67.69,65.5L76.15,61.8L84.62,54.88L93.08,52.14L101.54,48.45L110,48.01L126.92,41.45L135.38,38.54L143.85,40.37L152.31,38.09L160.77,34.03L169.23,32.32L177.69,32.12L186.15,32.73L194.62,30.45L203.08,32.83L220,33.29L228.46,31.42L236.92,33.76L245.38,34.47L262.31,33.64L270.77,34.73L279.23,34.34L287.69,34.86L296.15,35.78L304.62,37.62L313.08,36.59L321.54,36.82L330,37.53L338.46,39.35L346.92,39.58L355.38,43.76L363.85,50.18L372.31,55.04L380.77,64.43L389.23,70.36L397.69,79.35L406.15,86.19L414.62,92.05L423.08,92.41L431.54,106.8L440,118.77" style="vector-effect: non-scaling-stroke; fill: none; stroke: rgb(0, 0, 0); stroke-opacity: 1; stroke-width: 0.5px; opacity: 1;"/></g><g class="points"/><g class="text"/></g><g class="trace scatter trace7fa59c" style="stroke-miterlimit: 2;"><g class="fills"/><g class="errorbars"/><g class="lines"><path class="js-line" d="M0,100.26L8.46,99.81L16.92,95.6L33.85,85.77L42.31,74.89L50.77,60.87L59.23,65.04L67.69,57.16L76.15,45.34L84.62,46.77L93.08,42.24L101.54,35.23L110,40.51L126.92,32.63L135.38,22.88L143.85,28.4L152.31,36.22L160.77,27.64L169.23,27.29L177.69,26.35L186.15,28.46L194.62,23.31L203.08,30.58L211.54,31.37L220,31.25L228.46,27.98L236.92,31.91L245.38,33.69L253.85,27.48L262.31,32.85L270.77,32.63L279.23,30.53L287.69,34.02L304.62,35.84L313.08,34.02L321.54,32.37L330,34.51L338.46,34.94L346.92,31.84L363.85,42.67L372.31,46.6L380.77,53.46L389.23,61.96L397.69,69.62L406.15,74.43L414.62,73.03L423.08,87.92L431.54,93.13L440,116.97" style="vector-effect: non-scaling-stroke; fill: none; stroke: rgb(0, 0, 0); stroke-opacity: 1; stroke-width: 0.25px; opacity: 1;"/></g><g class="points"/><g class="text"/></g><g class="trace scatter traced175ec" style="stroke-miterlimit: 2; opacity: 1;"><g class="fills"/><g class="errorbars"/><g class="lines"/><g class="points"><path class="point" transform="translate(253.85,22.32)" d="M4,0A4,4 0 1,1 0,-4A4,4 0 0,1 4,0ZM0,0.5L0.5,0L0,-0.5L-0.5,0Z" style="opacity: 1; stroke: rgb(0, 0, 0); stroke-opacity: 1; stroke-width: 1px; fill: none;"/><path class="point" transform="translate(262.31,29.76)" d="M4,0A4,4 0 1,1 0,-4A4,4 0 0,1 4,0ZM0,0.5L0.5,0L0,-0.5L-0.5,0Z" style="opacity: 1; stroke: rgb(0, 0, 0); stroke-opacity: 1; stroke-width: 1px; fill: none;"/><path class="point" transform="translate(270.77,22.32)" d="M4,0A4,4 0 1,1 0,-4A4,4 0 0,1 4,0ZM0,0.5L0.5,0L0,-0.5L-0.5,0Z" style="opacity: 1; stroke: rgb(0, 0, 0); stroke-opacity: 1; stroke-width: 1px; fill: none;"/><path class="point" transform="translate(279.23,22.32)" d="M4,0A4,4 0 1,1 0,-4A4,4 0 0,1 4,0ZM0,0.5L0.5,0L0,-0.5L-0.5,0Z" style="opacity: 1; stroke: rgb(0, 0, 0); stroke-opacity: 1; stroke-width: 1px; fill: none;"/></g><g class="text"/></g></g></g><g class="overplot"/><path class="xlines-above crisp" d="M0,0" style="fill: none;"/><path class="ylines-above crisp" d="M0,0" style="fill: none;"/><g class="overlines-above"/><g class="xaxislayer-above"><g class="x3tick"><text text-anchor="middle" x="0" y="733" transform="translate(156.15,0)" style="font-family: 'Open Sans', verdana, arial, sans-serif; font-size: 12px; fill: rgb(42, 63, 95); fill-opacity: 1; white-space: pre; opacity: 1;">10</text></g><g class="x3tick"><text text-anchor="middle" x="0" y="733" style="font-family: 'Open Sans', verdana, arial, sans-serif; font-size: 12px; fill: rgb(42, 63, 95); fill-opacity: 1; white-space: pre; opacity: 1;" transform="translate(240.77,0)">20</text></g><g class="x3tick"><text text-anchor="middle" x="0" y="733" style="font-family: 'Open Sans', verdana, arial, sans-serif; font-size: 12px; fill: rgb(42, 63, 95); fill-opacity: 1; white-space: pre; opacity: 1;" transform="translate(325.38,0)">30</text></g><g class="x3tick"><text text-anchor="middle" x="0" y="733" style="font-family: 'Open Sans', verdana, arial, sans-serif; font-size: 12px; fill: rgb(42, 63, 95); fill-opacity: 1; white-space: pre; opacity: 1;" transform="translate(410,0)">40</text></g><g class="x3tick"><text text-anchor="middle" x="0" y="733" style="font-family: 'Open Sans', verdana, arial, sans-serif; font-size: 12px; fill: rgb(42, 63, 95); fill-opacity: 1; white-space: pre; opacity: 1;" transform="translate(494.62,0)">50</text></g></g><g class="yaxislayer-above"><g class="y3tick"><text text-anchor="end" x="79" y="4.199999999999999" transform="translate(0,720)" style="font-family: 'Open Sans', verdana, arial, sans-serif; font-size: 12px; fill: rgb(42, 63, 95); fill-opacity: 1; white-space: pre; opacity: 1;">5</text></g><g class="y3tick"><text text-anchor="end" x="79" y="4.199999999999999" style="font-family: 'Open Sans', verdana, arial, sans-serif; font-size: 12px; fill: rgb(42, 63, 95); fill-opacity: 1; white-space: pre; opacity: 1;" transform="translate(0,682.8)">10</text></g><g class="y3tick"><text text-anchor="end" x="79" y="4.199999999999999" style="font-family: 'Open Sans', verdana, arial, sans-serif; font-size: 12px; fill: rgb(42, 63, 95); fill-opacity: 1; white-space: pre; opacity: 1;" transform="translate(0,645.6)">15</text></g><g class="y3tick"><text text-anchor="end" x="79" y="4.199999999999999" style="font-family: 'Open Sans', verdana, arial, sans-serif; font-size: 12px; fill: rgb(42, 63, 95); fill-opacity: 1; white-space: pre; opacity: 1;" transform="translate(0,608.4)">20</text></g><g class="y3tick"><text text-anchor="end" x="79" y="4.199999999999999" style="font-family: 'Open Sans', verdana, arial, sans-serif; font-size: 12px; fill: rgb(42, 63, 95); fill-opacity: 1; white-space: pre; opacity: 1;" transform="translate(0,571.2)">25</text></g><g class="y3tick"><text text-anchor="end" x="79" y="4.199999999999999" style="font-family: 'Open Sans', verdana, arial, sans-serif; font-size: 12px; fill: rgb(42, 63, 95); fill-opacity: 1; white-space: pre; opacity: 1;" transform="translate(0,534)">30</text></g></g><g class="overaxes-above"/></g></g><g class="polarlayer"/><g class="smithlayer"/><g class="ternarylayer"/><g class="geolayer"/><g class="funnelarealayer"/><g class="pielayer"/><g class="iciclelayer"/><g class="treemaplayer"/><g class="sunburstlayer"/><g class="glimages"/><defs id="topdefs-d27960"><g class="clips"/></defs><g class="layer-above"><g class="imagelayer"/><g class="shapelayer"/></g><g class="infolayer"><g class="g-gtitle"><text class="gtitle" x="30" y="50" text-anchor="start" dy="0em" style="font-family: 'Open Sans', verdana, arial, sans-serif; font-size: 17px; fill: rgb(42, 63, 95); opacity: 1; font-weight: normal; white-space: pre;">Climatology and S2S forecast for Pirojpur</text></g><g class="g-xtitle"/><g class="g-x2title"/><g class="g-x3title"/><g class="g-ytitle"><text class="ytitle" transform="rotate(-90,34.16875,193)" x="34.16875" y="193" text-anchor="middle" style="font-family: 'Open Sans', verdana, arial, sans-serif; font-size: 14px; fill: rgb(42, 63, 95); opacity: 1; font-weight: normal; white-space: pre;">[mm]</text></g><g class="g-y2title"><text class="y2title" transform="rotate(-90,40.840625,410.00000000000006)" x="40.840625" y="410.00000000000006" text-anchor="middle" style="font-family: 'Open Sans', verdana, arial, sans-serif; font-size: 14px; fill: rgb(42, 63, 95); opacity: 1; font-weight: normal; white-space: pre;">[C]</text></g><g class="g-y3title"><text class="y3title" transform="rotate(-90,40.840625,627)" x="40.840625" y="627" text-anchor="middle" style="font-family: 'Open Sans', verdana, arial, sans-serif; font-size: 14px; fill: rgb(42, 63, 95); opacity: 1; font-weight: normal; white-space: pre;">[C]</text></g><g class="annotation" data-index="0" style="opacity: 1;"><g class="annotation-text-g" transform="rotate(0,300,89.5)"><g class="cursor-pointer" transform="translate(237,79)"><rect class="bg" x="0.5" y="0.5" width="126" height="20" style="stroke-width: 1px; stroke: rgb(0, 0, 0); stroke-opacity: 0; fill: rgb(0, 0, 0); fill-opacity: 0;"/><text class="annotation-text" text-anchor="middle" x="63.359375" y="16" style="font-family: 'Open Sans', verdana, arial, sans-serif; font-size: 16px; fill: rgb(42, 63, 95); fill-opacity: 1; white-space: pre;">Precipitation sum</text></g></g></g><g class="annotation" data-index="1" style="opacity: 1;"><g class="annotation-text-g" transform="rotate(0,300,306.50000000000006)"><g class="cursor-pointer" transform="translate(196,296)"><rect class="bg" x="0.5" y="0.5" width="208" height="20" style="stroke-width: 1px; stroke: rgb(0, 0, 0); stroke-opacity: 0; fill: rgb(0, 0, 0); fill-opacity: 0;"/><text class="annotation-text" text-anchor="middle" x="104.265625" y="16" style="font-family: 'Open Sans', verdana, arial, sans-serif; font-size: 16px; fill: rgb(42, 63, 95); fill-opacity: 1; white-space: pre;">Mean maximum temperature</text></g></g></g><g class="annotation" data-index="2" style="opacity: 1;"><g class="annotation-text-g" transform="rotate(0,300,523.5)"><g class="cursor-pointer" transform="translate(198,513)"><rect class="bg" x="0.5" y="0.5" width="203" height="20" style="stroke-width: 1px; stroke: rgb(0, 0, 0); stroke-opacity: 0; fill: rgb(0, 0, 0); fill-opacity: 0;"/><text class="annotation-text" text-anchor="middle" x="102.046875" y="16" style="font-family: 'Open Sans', verdana, arial, sans-serif; font-size: 16px; fill: rgb(42, 63, 95); fill-opacity: 1; white-space: pre;">Mean minimum temperature</text></g></g></g><g class="annotation" data-index="3" style="opacity: 1;"><g class="annotation-text-g" transform="rotate(0,300,760.5)"><g class="cursor-pointer" transform="translate(277,750)"><rect class="bg" x="0.5" y="0.5" width="45" height="20" style="stroke-width: 1px; stroke: rgb(0, 0, 0); stroke-opacity: 0; fill: rgb(0, 0, 0); fill-opacity: 0;"/><text class="annotation-text" text-anchor="middle" x="22.3125" y="16" style="font-family: 'Open Sans', verdana, arial, sans-serif; font-size: 16px; fill: rgb(42, 63, 95); fill-opacity: 1; white-space: pre;">Week</text></g></g></g></g></svg>