<svg class="main-svg" xmlns="http://www.w3.org/2000/svg" xmlns:xlink="http://www.w3.org/1999/xlink" width="600" height="800" style="" viewBox="0 0 600 800"><rect x="0" y="0" width="600" height="800" style="fill: rgb(255, 255, 255); fill-opacity: 1;"/><defs id="defs-35b2d8"><g class="clips"><clipPath id="clip35b2d8xyplot" class="plotclip"><rect width="440" height="186.00000000000003"/></clipPath><clipPath id="clip35b2d8x2y2plot" class="plotclip"><rect width="440" height="185.99999999999997"/></clipPath><clipPath id="clip35b2d8x3y3plot" class="plotclip"><rect width="440" height="186"/></clipPath><clipPath class="axesclip" id="clip35b2d8x"><rect x="80" y="0" width="440" height="800"/></clipPath><clipPath class="axesclip" id="clip35b2d8y"><rect x="0" y="100" width="600" height="186.00000000000003"/></clipPath><clipPath class="axesclip" id="clip35b2d8xy"><rect x="80" y="100" width="440" height="186.00000000000003"/></clipPath><clipPath class="axesclip" id="clip35b2d8y2"><rect x="0" y="317.00000000000006" width="600" height="185.99999999999997"/></clipPath><clipPath class="axesclip" id="clip35b2d8xy2"><rect x="80" y="317.00000000000006" width="440" height="185.99999999999997"/></clipPath><clipPath class="axesclip" id="clip35b2d8y3"><rect x="0" y="534" width="600" height="186"/></clipPath><clipPath class="axesclip" id="clip35b2d8xy3"><rect x="80" y="534" width="440" height="186"/></clipPath><clipPath class="axesclip" id="clip35b2d8x2"><rect x="80" y="0" width="440" height="800"/></clipPath><clipPath class="axesclip" id="clip35b2d8x2y"><rect x="80" y="100" width="440" height="186.00000000000003"/></clipPath><clipPath class="axesclip" id="clip35b2d8x2y2"><rect x="80" y="317.00000000000006" width="440" height="185.99999999999997"/></clipPath><clipPath class="axesclip" id="clip35b2d8x2y3"><rect x="80" y="534" width="440" height="186"/></clipPath><clipPath class="axesclip" id="clip35b2d8x3"><rect x="80" y="0" width="440" height="800"/></clipPath><clipPath class="axesclip" id="clip35b2d8x3y"><rect x="80" y="100" width="440" height="186.00000000000003"/></clipPath><clipPath class="axesclip" id="clip35b2d8x3y2"><rect x="80" y="317.00000000000006" width="440" height="185.99999999999997"/></clipPath><clipPath class="axesclip" id="clip35b2d8x3y3"><rect x="80" y="534" width="440" height="186"/></clipPath></g><g class="gradients"/><g class="patterns"/></defs><g class="bglayer"><rect class="bg" x="80" y="100" width="440" height="186.00000000000003" style="fill: rgb(229, 236, 246); fill-opacity: 1; stroke-width: 0;"/><rect class="bg" x="80" y="317.00000000000006" width="440" height="185.99999999999997" style="fill: rgb(229, 236, 246); fill-opacity: 1; stroke-width: 0;"/><rect class="bg" x="80" y="534" width="440" height="186" style="fill: rgb(229, 236, 246); fill-opacity: 1; stroke-width: 0;"/></g><g class="layer-below"><g class="imagelayer"/><g class="shapelayer"/></g><g class="cartesianlayer"><g class="subplot xy"><g class="layer-subplot"><g class="shapelayer"/><g class="imagelayer"/></g><g class="minor-gridlayer"><g class="x"/><g class="y"/></g><g class="gridlayer"><g class="x"><path class="xgrid crisp" transform="translate(156.15,0)" d="M0,100v186.00000000000003" style="stroke: rgb(255, 255, 255); stroke-opacity: 1; stroke-width: 1px;"/><path class="xgrid crisp" transform="translate(240.77,0)" d="M0,100v186.00000000000003" style="stroke: rgb(255, 255, 255); stroke-opacity: 1; stroke-width: 1px;"/><path class="xgrid crisp" transform="translate(325.38,0)" d="M0,100v186.00000000000003" style="stroke: rgb(255, 255, 255); stroke-opacity: 1; stroke-width: 1px;"/><path class="xgrid crisp" transform="translate(410,0)" d="M0,100v186.00000000000003" style="stroke: rgb(255, 255, 255); stroke-opacity: 1; stroke-width: 1px;"/><path class="xgrid crisp" transform="translate(494.62,0)" d="M0,100v186.00000000000003" style="stroke: rgb(255, 255, 255); stroke-opacity: 1; stroke-width: 1px;"/></g><g class="y"><path class="ygrid crisp" transform="translate(0,248.8)" d="M80,0h440" style="stroke: rgb(255, 255, 255); stroke-opacity: 1; stroke-width: 1px;"/><path class="ygrid crisp" transform="translate(0,211.6)" d="M80,0h440" style="stroke: rgb(255, 255, 255); stroke-opacity: 1; stroke-width: 1px;"/><path class="ygrid crisp" transform="translate(0,174.4)" d="M80,0h440" style="stroke: rgb(255, 255, 255); stroke-opacity: 1; stroke-width: 1px;"/><path class="ygrid crisp" transform="translate(0,137.2)" d="M80,0h440" style="stroke: rgb(255, 255, 255); stroke-opacity: 1; stroke-width: 1px;"/></g></g><g class="zerolinelayer"><path class="yzl zl crisp" transform="translate(0,286)" d="M80,0h440" style="stroke: rgb(255, 255, 255); stroke-opacity: 1; stroke-width: 2px;"/></g><path class="xlines-below"/><path class="ylines-below"/><g class="overlines-below"/><g class="xaxislayer-below"/><g class="yaxislayer-below"/><g class="overaxes-below"/><g class="plot" transform="translate(80,100)" clip-path="url(#clip35b2d8xyplot)"><g class="scatterlayer mlayer"><g class="trace scatter tracece574f" style="stroke-miterlimit: 2;"><g class="fills"><g><path class="js-fill" d="M0,186L93.08,185.82L101.54,183.87L110,172.23L118.46,168.54L126.92,155.92L135.38,152.32L143.85,154.24L152.31,123.42L160.77,128.9L169.23,130.82L177.69,135.01L186.15,117.94L194.62,113.05L203.08,112.99L220,132.91L228.46,133.74L236.92,126.09L245.38,127.59L253.85,109.23L262.31,128.77L270.77,123.26L279.23,129.52L287.69,139.95L296.15,110.2L304.62,146.14L313.08,151.33L321.54,145.85L330,178.88L338.46,186L346.92,186L440,186L440,186L338.46,186L330,186L321.54,172.58L313.08,182.64L304.62,186L296.15,178.49L287.69,182.18L279.23,183.24L270.77,157.71L262.31,177.51L253.85,155.77L245.38,168.21L236.92,173.47L228.46,160.43L220,168.15L211.54,161.03L203.08,149.19L194.62,172.21L186.15,181.25L177.69,180.09L169.23,173.59L160.77,186L143.85,175.48L135.38,185.97L126.92,184.51L118.46,185.93L0,186Z" style="fill: rgb(224, 236, 244); fill-opacity: 1; stroke-width: 0;"/></g></g><g class="errorbars"/><g class="lines"><path class="js-line" d="M0,186L118.46,185.93L126.92,184.51L135.38,185.97L143.85,175.48L160.77,186L169.23,173.59L177.69,180.09L186.15,181.25L194.62,172.21L203.08,149.19L211.54,161.03L220,168.15L228.46,160.43L236.92,173.47L245.38,168.21L253.85,155.77L262.31,177.51L270.77,157.71L279.23,183.24L287.69,182.18L296.15,178.49L304.62,186L313.08,182.64L321.54,172.58L330,186L338.46,186L440,186" style="vector-effect: non-scaling-stroke; fill: none; stroke: rgb(0, 0, 0); stroke-opacity: 1; stroke-width: 0.25px; opacity: 1;"/></g><g class="points"/><g class="text"/></g><g class="trace scatter trace430592" style="stroke-miterlimit: 2;"><g class="fills"><g><path class="js-fill" d="M0,186L59.23,186L67.69,183.4L76.15,185.96L84.62,185.26L93.08,172.92L101.54,167.38L110,129.75L118.46,144.6L126.92,119.53L135.38,111.96L143.85,121.68L152.31,107.9L160.77,81.04L169.23,109.82L177.69,91.57L186.15,58.04L194.62,76.67L203.08,88.28L211.54,73.2L220,78.48L228.46,112.92L236.92,107.62L245.38,95.97L253.85,91.08L262.31,87.56L270.77,73.23L279.23,97.63L287.69,126.76L296.15,98.5L304.62,105.92L313.08,138.04L321.54,130.21L330,163.13L338.46,164.95L355.38,186L363.85,186L440,186L440,186L346.92,186L338.46,186L330,178.88L321.54,145.85L313.08,151.33L304.62,146.14L296.15,110.2L287.69,139.95L279.23,129.52L270.77,123.26L262.31,128.77L253.85,109.23L245.38,127.59L236.92,126.09L228.46,133.74L220,132.91L203.08,112.99L194.62,113.05L186.15,117.94L177.69,135.01L169.23,130.82L160.77,128.9L152.31,123.42L143.85,154.24L135.38,152.32L126.92,155.92L118.46,168.54L110,172.23L101.54,183.87L93.08,185.82L0,186Z" style="fill: rgb(158, 188, 218); fill-opacity: 1; stroke-width: 0;"/></g></g><g class="errorbars"/><g class="lines"><path class="js-line" d="M0,186L93.08,185.82L101.54,183.87L110,172.23L118.46,168.54L126.92,155.92L135.38,152.32L143.85,154.24L152.31,123.42L160.77,128.9L169.23,130.82L177.69,135.01L186.15,117.94L194.62,113.05L203.08,112.99L220,132.91L228.46,133.74L236.92,126.09L245.38,127.59L253.85,109.23L262.31,128.77L270.77,123.26L279.23,129.52L287.69,139.95L296.15,110.2L304.62,146.14L313.08,151.33L321.54,145.85L330,178.88L338.46,186L346.92,186L440,186" style="vector-effect: non-scaling-stroke; fill: none; stroke: rgb(0, 0, 0); stroke-opacity: 1; stroke-width: 0.5px; opacity: 1;"/></g><g class="points"/><g class="text"/></g><g class="trace scatter trace8473ae" style="stroke-miterlimit: 2;"><g class="fills"><g><path class="js-fill" d="M0,186L42.31,186L50.77,179.55L59.23,172.03L67.69,172.59L76.15,166.54L84.62,172.12L93.08,150.8L101.54,133.13L110,99.76L118.46,105.38L126.92,80.9L135.38,70.76L143.85,108.19L152.31,72.14L160.77,20.91L169.23,9.87L177.69,-6.33L186.15,2.61L194.62,-99.81L203.08,42.5L211.54,41.6L220,31.85L228.46,33.1L236.92,72.52L245.38,57.21L253.85,49.89L262.31,20.86L270.77,50.99L279.23,33.27L287.69,79.08L296.15,60.15L304.62,81.52L313.08,105.3L321.54,98.45L330,121.81L338.46,103.39L346.92,164.1L355.38,169.09L363.85,181.19L372.31,185.92L440,186L440,186L363.85,186L355.38,186L338.46,164.95L330,163.13L321.54,130.21L313.08,138.04L304.62,105.92L296.15,98.5L287.69,126.76L279.23,97.63L270.77,73.23L262.31,87.56L253.85,91.08L245.38,95.97L236.92,107.62L228.46,112.92L220,78.48L211.54,73.2L203.08,88.28L194.62,76.67L186.15,58.04L177.69,91.57L169.23,109.82L160.77,81.04L152.31,107.9L143.85,121.68L135.38,111.96L126.92,119.53L118.46,144.6L110,129.75L101.54,167.38L93.08,172.92L84.62,185.26L76.15,185.96L67.69,183.4L59.23,186L0,186Z" style="fill: rgb(158, 188, 218); fill-opacity: 1; stroke-width: 0;"/></g></g><g class="errorbars"/><g class="lines"><path class="js-line" d="M0,186L59.23,186L67.69,183.4L76.15,185.96L84.62,185.26L93.08,172.92L101.54,167.38L110,129.75L118.46,144.6L126.92,119.53L135.38,111.96L143.85,121.68L152.31,107.9L160.77,81.04L169.23,109.82L177.69,91.57L186.15,58.04L194.62,76.67L203.08,88.28L211.54,73.2L220,78.48L228.46,112.92L236.92,107.62L245.38,95.97L253.85,91.08L262.31,87.56L270.77,73.23L279.23,97.63L287.69,126.76L296.15,98.5L304.62,105.92L313.08,138.04L321.54,130.21L330,163.13L338.46,164.95L355.38,186L363.85,186L440,186" style="vector-effect: non-scaling-stroke; fill: none; stroke: rgb(0, 0, 0); stroke-opacity: 1; stroke-width: 1px; opacity: 1;"/></g><g class="points"/><g class="text"/></g><g class="trace scatter traced3cf1f" style="stroke-miterlimit: 2;"><g class="fills"><g><path class="js-fill" d="M0,186L42.31,186L50.77,173.36L59.23,159.81L67.69,155.74L76.15,142.27L84.62,156.48L101.54,101.13L110,38.05L118.46,49.57L126.92,-25.66L135.38,-34.58L143.85,59.59L152.31,26.01L160.77,-125.73L169.23,-76.83L177.69,-109.3L186.15,-114.36L194.62,-218.06L203.08,-60.29L211.54,-36.1L220,-32.99L228.46,-47.66L236.92,49.82L245.38,-5.08L253.85,-32.05L262.31,-133.07L270.77,40.1L279.23,-88.45L287.69,-4.26L296.15,7.29L304.62,4.19L313.08,55.06L330,64.94L338.46,36.23L346.92,141.57L355.38,165.55L363.85,179.79L372.31,185.92L440,186L440,186L372.31,185.92L363.85,181.19L355.38,169.09L346.92,164.1L338.46,103.39L330,121.81L321.54,98.45L313.08,105.3L304.62,81.52L296.15,60.15L287.69,79.08L279.23,33.27L270.77,50.99L262.31,20.86L253.85,49.89L245.38,57.21L236.92,72.52L228.46,33.1L220,31.85L211.54,41.6L203.08,42.5L194.62,-99.81L186.15,2.61L177.69,-6.33L169.23,9.87L160.77,20.91L152.31,72.14L143.85,108.19L135.38,70.76L126.92,80.9L118.46,105.38L110,99.76L101.54,133.13L93.08,150.8L84.62,172.12L76.15,166.54L67.69,172.59L59.23,172.03L50.77,179.55L42.31,186L0,186Z" style="fill: rgb(136, 86, 167); fill-opacity: 1; stroke-width: 0;"/></g></g><g class="errorbars"/><g class="lines"><path class="js-line" d="M0,186L42.31,186L50.77,179.55L59.23,172.03L67.69,172.59L76.15,166.54L84.62,172.12L93.08,150.8L101.54,133.13L110,99.76L118.46,105.38L126.92,80.9L135.38,70.76L143.85,108.19L152.31,72.14L160.77,20.91L169.23,9.87L177.69,-6.33L186.15,2.61L194.62,-99.81L203.08,42.5L211.54,41.6L220,31.85L228.46,33.1L236.92,72.52L245.38,57.21L253.85,49.89L262.31,20.86L270.77,50.99L279.23,33.27L287.69,79.08L296.15,60.15L304.62,81.52L313.08,105.3L321.54,98.45L330,121.81L338.46,103.39L346.92,164.1L355.38,169.09L363.85,181.19L372.31,185.92L440,186" style="vector-effect: non-scaling-stroke; fill: none; stroke: rgb(0, 0, 0); stroke-opacity: 1; stroke-width: 0.5px; opacity: 1;"/></g><g class="points"/><g class="text"/></g><g class="trace scatter trace1b7f73" style="stroke-miterlimit: 2;"><g class="fills"/><g class="errorbars"/><g class="lines"><path class="js-line" d="M0,186L42.31,186L50.77,173.36L59.23,159.81L67.69,155.74L76.15,142.27L84.62,156.48L101.54,101.13L110,38.05L118.46,49.57L126.92,-25.66L135.38,-34.58L143.85,59.59L152.31,26.01L160.77,-125.73L169.23,-76.83L177.69,-109.3L186.15,-114.36L194.62,-218.06L203.08,-60.29L211.54,-36.1L220,-32.99L228.46,-47.66L236.92,49.82L245.38,-5.08L253.85,-32.05L262.31,-133.07L270.77,40.1L279.23,-88.45L287.69,-4.26L296.15,7.29L304.62,4.19L313.08,55.06L330,64.94L338.46,36.23L346.92,141.57L355.38,165.55L363.85,179.79L372.31,185.92L440,186" style="vector-effect: non-scaling-stroke; fill: none; stroke: rgb(0, 0, 0); stroke-opacity: 1; stroke-width: 0.25px; opacity: 1;"/></g><g class="points"/><g class="text"/></g><g class="trace scatter trace018ec1" style="stroke-miterlimit: 2; opacity: 1;"><g class="fills"/><g class="errorbars"/><g class="lines"/><g class="points"><path class="point" transform="translate(220,-52.82)" d="M4,0A4,4 0 1,1 0,-4A4,4 0 0,1 4,0ZM0,0.5L0.5,0L0,-0.5L-0.5,0Z" style="opacity: 1; stroke: rgb(0, 0, 0); stroke-opacity: 1; stroke-width: 1px; fill: none;"/><path class="point" transform="translate(228.46,-90.02)" d="M4,0A4,4 0 1,1 0,-4A4,4 0 0,1 4,0ZM0,0.5L0.5,0L0,-0.5L-0.5,0Z" style="opacity: 1; stroke: rgb(0, 0, 0); stroke-opacity: 1; stroke-width: 1px; fill: none;"/><path class="point" transform="translate(236.92,-116.81)" d="M4,0A4,4 0 1,1 0,-4A4,4 0 0,1 4,0ZM0,0.5L0.5,0L0,-0.5L-0.5,0Z" style="opacity: 1; stroke: rgb(0, 0, 0); stroke-opacity: 1; stroke-width: 1px; fill: none;"/><path class="point" transform="translate(245.38,-116.81)" d="M4,0A4,4 0 1,1 0,-4A4,4 0 0,1 4,0ZM0,0.5L0.5,0L0,-0.5L-0.5,0Z" style="opacity: 1; stroke: rgb(0, 0, 0); stroke-opacity: 1; stroke-width: 1px; fill: none;"/></g><g class="text"/></g></g></g><g class="overplot"/><path class="xlines-above crisp" d="M0,0" style="fill: none;"/><path class="ylines-above crisp" d="M0,0" style="fill: none;"/><g class="overlines-above"/><g class="xaxislayer-above"/><g class="yaxislayer-above"><g class="ytick"><text text-anchor="end" x="79" y="4.199999999999999" transform="translate(0,286)" style="font-family: 'Open Sans', verdana, arial, sans-serif; font-size: 12px; fill: rgb(42, 63, 95); fill-opacity: 1; white-space: pre; opacity: 1;">0</text></g><g class="ytick"><text text-anchor="end" x="79" y="4.199999999999999" style="font-family: 'Open Sans', verdana, arial, sans-serif; font-size: 12px; fill: rgb(42, 63, 95); fill-opacity: 1; white-space: pre; opacity: 1;" transform="translate(0,248.8)">50</text></g><g class="ytick"><text text-anchor="end" x="79" y="4.199999999999999" style="font-family: 'Open Sans', verdana, arial, sans-serif; font-size: 12px; fill: rgb(42, 63, 95); fill-opacity: 1; white-space: pre; opacity: 1;" transform="translate(0,211.6)">100</text></g><g class="ytick"><text text-anchor="end" x="79" y="4.199999999999999" style="font-family: 'Open Sans', verdana, arial, sans-serif; font-size: 12px; fill: rgb(42, 63, 95); fill-opacity: 1; white-space: pre; opacity: 1;" transform="translate(0,174.4)">150</text></g><g class="ytick"><text text-anchor="end" x="79" y="4.199999999999999" style="font-family: 'Open Sans', verdana, arial, sans-serif; font-size: 12px; fill: rgb(42, 63, 95); fill-opacity: 1; white-space: pre; opacity: 1;" transform="translate(0,137.2)">200</text></g><g class="ytick"><text text-anchor="end" x="79" y="4.199999999999999" style="font-family: 'Open Sans', verdana, arial, sans-serif; font-size: 12px; fill: rgb(42, 63, 95); fill-opacity: 1; white-space: pre; opacity: 1;" transform="translate(0,100)">250</text></g></g><g class="overaxes-above"/></g><g class="subplot x2y2"><g class="layer-subplot"><g class="shapelayer"/><g class="imagelayer"/></g><g class="minor-gridlayer"><g class="x2"/><g class="y2"/></g><g class="gridlayer"><g class="x2"><path class="x2grid crisp" transform="translate(156.15,0)" d="M0,317.00000000000006v185.99999999999997" style="stroke: rgb(255, 255, 255); stroke-opacity: 1; stroke-width: 1px;"/><path class="x2grid crisp" transform="translate(240.77,0)" d="M0,317.00000000000006v185.99999999999997" style="stroke: rgb(255, 255, 255); stroke-opacity: 1; stroke-width: 1px;"/><path class="x2grid crisp" transform="translate(325.38,0)" d="M0,317.00000000000006v185.99999999999997" style="stroke: rgb(255, 255, 255); stroke-opacity: 1; stroke-width: 1px;"/><path class="x2grid crisp" transform="translate(410,0)" d="M0,317.00000000000006v185.99999999999997" style="stroke: rgb(255, 255, 255); stroke-opacity: 1; stroke-width: 1px;"/><path class="x2grid crisp" transform="translate(494.62,0)" d="M0,317.00000000000006v185.99999999999997" style="stroke: rgb(255, 255, 255); stroke-opacity: 1; stroke-width: 1px;"/></g><g class="y2"><path class="y2grid crisp" transform="translate(0,472.00000000000006)" d="M80,0h440" style="stroke: rgb(255, 255, 255); stroke-opacity: 1; stroke-width: 1px;"/><path class="y2grid crisp" transform="translate(0,410.00000000000006)" d="M80,0h440" style="stroke: rgb(255, 255, 255); stroke-opacity: 1; stroke-width: 1px;"/><path class="y2grid crisp" transform="translate(0,348.00000000000006)" d="M80,0h440" style="stroke: rgb(255, 255, 255); stroke-opacity: 1; stroke-width: 1px;"/></g></g><g class="zerolinelayer"/><path class="xlines-below"/><path class="ylines-below"/><g class="overlines-below"/><g class="xaxislayer-below"/><g class="yaxislayer-below"/><g class="overaxes-below"/><g class="plot" transform="translate(80,317.00000000000006)" clip-path="url(#clip35b2d8x2y2plot)"><g class="scatterlayer mlayer"><g class="trace scatter trace36b367" style="stroke-miterlimit: 2;"><g class="fills"><g><path class="js-fill" d="M0,134.37L8.46,137.26L16.92,133.56L25.38,133.55L33.85,121.82L42.31,116.89L50.77,109.09L59.23,103.5L67.69,100.8L76.15,94.66L84.62,82.61L93.08,83.42L101.54,89.55L110,89.41L118.46,87.06L126.92,91.83L135.38,90.79L143.85,88.12L152.31,87.97L160.77,90.99L169.23,88.59L177.69,92.39L186.15,88.94L194.62,96.27L203.08,95.35L220,97.53L228.46,97.68L236.92,96.15L245.38,96.25L253.85,93.65L262.31,90.1L270.77,96.22L279.23,96.22L296.15,97.43L304.62,95.93L313.08,95.12L321.54,95.83L330,94.64L338.46,97.75L346.92,93.78L355.38,93.41L363.85,98.8L372.31,100.53L380.77,107.34L389.23,110.13L406.15,123.71L414.62,126.39L423.08,134.17L431.54,135.89L440,131.7L440,140.62L431.54,140.74L423.08,136.95L414.62,131.97L406.15,129.29L397.69,127.78L389.23,118.72L380.77,116.6L372.31,105.58L363.85,103.65L355.38,99.77L346.92,101.77L338.46,110.52L330,111.38L321.54,104.93L313.08,101.55L304.62,110.02L296.15,116.68L287.69,106.24L279.23,113.36L270.77,110.94L262.31,101.58L253.85,107.25L245.38,105.2L236.92,115.02L228.46,103.7L220,112.19L211.54,111.3L203.08,104.15L194.62,106.63L186.15,101.14L177.69,99.48L169.23,102.39L160.77,99.04L152.31,103.41L143.85,99.37L135.38,104.95L126.92,104.04L118.46,105.09L110,99.29L101.54,105.91L93.08,104.22L84.62,96.28L76.15,110.93L67.69,116.1L59.23,114.8L50.77,119.42L42.31,133.4L33.85,134.06L25.38,142.73L16.92,147.44L8.46,146.64L0,139.53Z" style="fill: rgb(145, 191, 219); fill-opacity: 1; stroke-width: 0;"/></g></g><g class="errorbars"/><g class="lines"><path class="js-line" d="M0,139.53L8.46,146.64L16.92,147.44L25.38,142.73L33.85,134.06L42.31,133.4L50.77,119.42L59.23,114.8L67.69,116.1L76.15,110.93L84.62,96.28L93.08,104.22L101.54,105.91L110,99.29L118.46,105.09L126.92,104.04L135.38,104.95L143.85,99.37L152.31,103.41L160.77,99.04L169.23,102.39L177.69,99.48L186.15,101.14L194.62,106.63L203.08,104.15L211.54,111.3L220,112.19L228.46,103.7L236.92,115.02L245.38,105.2L253.85,107.25L262.31,101.58L270.77,110.94L279.23,113.36L287.69,106.24L296.15,116.68L304.62,110.02L313.08,101.55L321.54,104.93L330,111.38L338.46,110.52L346.92,101.77L355.38,99.77L363.85,103.65L372.31,105.58L380.77,116.6L389.23,118.72L397.69,127.78L406.15,129.29L414.62,131.97L423.08,136.95L431.54,140.74L440,140.62" style="vector-effect: non-scaling-stroke; fill: none; stroke: rgb(0, 0, 0); stroke-opacity: 1; stroke-width: 0.25px; opacity: 1;"/></g><g class="points"/><g class="text"/></g><g class="trace scatter tracef2a11b" style="stroke-miterlimit: 2;"><g class="fills"><g><path class="js-fill" d="M0,128.76L8.46,133.38L16.92,123.46L25.38,125.32L33.85,117.98L42.31,110.97L50.77,102.77L59.23,97.42L67.69,90.8L76.15,88.12L84.62,77.33L93.08,75.38L101.54,74.66L110,82.73L118.46,81.08L126.92,83.58L135.38,80.31L143.85,85.74L152.31,79.01L169.23,83.93L177.69,84.55L186.15,85.29L194.62,91.2L203.08,90.08L211.54,90.18L228.46,92.83L236.92,89.88L245.38,90.06L253.85,85.15L262.31,83.76L270.77,88.68L279.23,88.96L287.69,87.21L296.15,90.62L304.62,89.31L313.08,86.98L321.54,89.54L330,85.99L338.46,89.02L346.92,90.76L355.38,90.54L363.85,95.13L372.31,96.62L380.77,101.14L389.23,108.32L397.69,113.34L406.15,116.69L414.62,123.43L423.08,123.7L431.54,129.49L440,127.02L440,131.7L431.54,135.89L423.08,134.17L414.62,126.39L406.15,123.71L389.23,110.13L380.77,107.34L372.31,100.53L363.85,98.8L355.38,93.41L346.92,93.78L338.46,97.75L330,94.64L321.54,95.83L313.08,95.12L304.62,95.93L296.15,97.43L279.23,96.22L270.77,96.22L262.31,90.1L253.85,93.65L245.38,96.25L236.92,96.15L228.46,97.68L220,97.53L203.08,95.35L194.62,96.27L186.15,88.94L177.69,92.39L169.23,88.59L160.77,90.99L152.31,87.97L143.85,88.12L135.38,90.79L126.92,91.83L118.46,87.06L110,89.41L101.54,89.55L93.08,83.42L84.62,82.61L76.15,94.66L67.69,100.8L59.23,103.5L50.77,109.09L42.31,116.89L33.85,121.82L25.38,133.55L16.92,133.56L8.46,137.26L0,134.37Z" style="fill: rgb(255, 255, 191); fill-opacity: 1; stroke-width: 0;"/></g></g><g class="errorbars"/><g class="lines"><path class="js-line" d="M0,134.37L8.46,137.26L16.92,133.56L25.38,133.55L33.85,121.82L42.31,116.89L50.77,109.09L59.23,103.5L67.69,100.8L76.15,94.66L84.62,82.61L93.08,83.42L101.54,89.55L110,89.41L118.46,87.06L126.92,91.83L135.38,90.79L143.85,88.12L152.31,87.97L160.77,90.99L169.23,88.59L177.69,92.39L186.15,88.94L194.62,96.27L203.08,95.35L220,97.53L228.46,97.68L236.92,96.15L245.38,96.25L253.85,93.65L262.31,90.1L270.77,96.22L279.23,96.22L296.15,97.43L304.62,95.93L313.08,95.12L321.54,95.83L330,94.64L338.46,97.75L346.92,93.78L355.38,93.41L363.85,98.8L372.31,100.53L380.77,107.34L389.23,110.13L406.15,123.71L414.62,126.39L423.08,134.17L431.54,135.89L440,131.7" style="vector-effect: non-scaling-stroke; fill: none; stroke: rgb(0, 0, 0); stroke-opacity: 1; stroke-width: 0.5px; opacity: 1;"/></g><g class="points"/><g class="text"/></g><g class="trace scatter trace0b1b1a" style="stroke-miterlimit: 2;"><g class="fills"><g><path class="js-fill" d="M0,125.24L8.46,128.27L16.92,119.52L25.38,117.2L33.85,111.43L42.31,100.32L50.77,94.86L59.23,91.81L67.69,83.97L76.15,81.24L84.62,71.95L93.08,66.05L101.54,68.14L110,69.76L118.46,69.47L126.92,70.84L135.38,68.21L143.85,78.28L152.31,73.93L169.23,77.55L177.69,78.08L186.15,79.87L194.62,83.34L203.08,84.53L211.54,83.77L220,81.02L228.46,85.35L236.92,81.54L245.38,81.26L253.85,78.89L262.31,80.98L279.23,82.04L287.69,80.91L296.15,81.11L304.62,85.34L313.08,80.96L321.54,87.31L330,78.24L338.46,80.35L346.92,86.34L355.38,87.81L372.31,92.35L380.77,99.35L397.69,106.56L406.15,112.29L414.62,116.89L423.08,120.36L431.54,122.62L440,121.5L440,127.02L431.54,129.49L423.08,123.7L414.62,123.43L406.15,116.69L397.69,113.34L389.23,108.32L380.77,101.14L372.31,96.62L363.85,95.13L355.38,90.54L346.92,90.76L338.46,89.02L330,85.99L321.54,89.54L313.08,86.98L304.62,89.31L296.15,90.62L287.69,87.21L279.23,88.96L270.77,88.68L262.31,83.76L253.85,85.15L245.38,90.06L236.92,89.88L228.46,92.83L211.54,90.18L203.08,90.08L194.62,91.2L186.15,85.29L177.69,84.55L169.23,83.93L152.31,79.01L143.85,85.74L135.38,80.31L126.92,83.58L118.46,81.08L110,82.73L101.54,74.66L93.08,75.38L84.62,77.33L76.15,88.12L67.69,90.8L59.23,97.42L50.77,102.77L42.31,110.97L33.85,117.98L25.38,125.32L16.92,123.46L8.46,133.38L0,128.76Z" style="fill: rgb(255, 255, 191); fill-opacity: 1; stroke-width: 0;"/></g></g><g class="errorbars"/><g class="lines"><path class="js-line" d="M0,128.76L8.46,133.38L16.92,123.46L25.38,125.32L33.85,117.98L42.31,110.97L50.77,102.77L59.23,97.42L67.69,90.8L76.15,88.12L84.62,77.33L93.08,75.38L101.54,74.66L110,82.73L118.46,81.08L126.92,83.58L135.38,80.31L143.85,85.74L152.31,79.01L169.23,83.93L177.69,84.55L186.15,85.29L194.62,91.2L203.08,90.08L211.54,90.18L228.46,92.83L236.92,89.88L245.38,90.06L253.85,85.15L262.31,83.76L270.77,88.68L279.23,88.96L287.69,87.21L296.15,90.62L304.62,89.31L313.08,86.98L321.54,89.54L330,85.99L338.46,89.02L346.92,90.76L355.38,90.54L363.85,95.13L372.31,96.62L380.77,101.14L389.23,108.32L397.69,113.34L406.15,116.69L414.62,123.43L423.08,123.7L431.54,129.49L440,127.02" style="vector-effect: non-scaling-stroke; fill: none; stroke: rgb(0, 0, 0); stroke-opacity: 1; stroke-width: 1px; opacity: 1;"/></g><g class="points"/><g class="text"/></g><g class="trace scatter trace7d45a8" style="stroke-miterlimit: 2;"><g class="fills"><g><path class="js-fill" d="M0,113.22L8.46,118.2L16.92,107.51L25.38,95.75L33.85,103.11L50.77,84.06L59.23,86.81L67.69,75.88L76.15,68.38L84.62,63.87L93.08,53.21L101.54,56.25L110,60.09L118.46,57.47L126.92,47.93L135.38,38.71L143.85,65.95L152.31,67.83L160.77,65.51L169.23,61.04L177.69,70.2L186.15,73.47L194.62,68.13L203.08,70.8L211.54,76.3L220,63.45L228.46,70.18L236.92,67.69L245.38,69.26L253.85,66.11L262.31,73.62L270.77,66.52L279.23,67.58L287.69,62.82L296.15,62.29L304.62,71.48L313.08,63.45L321.54,81.39L330,72.63L338.46,77.03L346.92,79.07L355.38,80.39L363.85,85.53L372.31,84.79L380.77,87.8L389.23,97.29L397.69,91.61L406.15,100.02L414.62,106.71L423.08,115.92L431.54,109.51L440,114.78L440,121.5L431.54,122.62L423.08,120.36L414.62,116.89L406.15,112.29L397.69,106.56L380.77,99.35L372.31,92.35L355.38,87.81L346.92,86.34L338.46,80.35L330,78.24L321.54,87.31L313.08,80.96L304.62,85.34L296.15,81.11L287.69,80.91L279.23,82.04L262.31,80.98L253.85,78.89L245.38,81.26L236.92,81.54L228.46,85.35L220,81.02L211.54,83.77L203.08,84.53L194.62,83.34L186.15,79.87L177.69,78.08L169.23,77.55L152.31,73.93L143.85,78.28L135.38,68.21L126.92,70.84L118.46,69.47L110,69.76L101.54,68.14L93.08,66.05L84.62,71.95L76.15,81.24L67.69,83.97L59.23,91.81L50.77,94.86L42.31,100.32L33.85,111.43L25.38,117.2L16.92,119.52L8.46,128.27L0,125.24Z" style="fill: rgb(252, 141, 89); fill-opacity: 1; stroke-width: 0;"/></g></g><g class="errorbars"/><g class="lines"><path class="js-line" d="M0,125.24L8.46,128.27L16.92,119.52L25.38,117.2L33.85,111.43L42.31,100.32L50.77,94.86L59.23,91.81L67.69,83.97L76.15,81.24L84.62,71.95L93.08,66.05L101.54,68.14L110,69.76L118.46,69.47L126.92,70.84L135.38,68.21L143.85,78.28L152.31,73.93L169.23,77.55L177.69,78.08L186.15,79.87L194.62,83.34L203.08,84.53L211.54,83.77L220,81.02L228.46,85.35L236.92,81.54L245.38,81.26L253.85,78.89L262.31,80.98L279.23,82.04L287.69,80.91L296.15,81.11L304.62,85.34L313.08,80.96L321.54,87.31L330,78.24L338.46,80.35L346.92,86.34L355.38,87.81L372.31,92.35L380.77,99.35L397.69,106.56L406.15,112.29L414.62,116.89L423.08,120.36L431.54,122.62L440,121.5" style="vector-effect: non-scaling-stroke; fill: none; stroke: rgb(0, 0, 0); stroke-opacity: 1; stroke-width: 0.5px; opacity: 1;"/></g><g class="points"/><g class="text"/></g><g class="trace scatter trace11db13" style="stroke-miterlimit: 2;"><g class="fills"/><g class="errorbars"/><g class="lines"><path class="js-line" d="M0,113.22L8.46,118.2L16.92,107.51L25.38,95.75L33.85,103.11L50.77,84.06L59.23,86.81L67.69,75.88L76.15,68.38L84.62,63.87L93.08,53.21L101.54,56.25L110,60.09L118.46,57.47L126.92,47.93L135.38,38.71L143.85,65.95L152.31,67.83L160.77,65.51L169.23,61.04L177.69,70.2L186.15,73.47L194.62,68.13L203.08,70.8L211.54,76.3L220,63.45L228.46,70.18L236.92,67.69L245.38,69.26L253.85,66.11L262.31,73.62L270.77,66.52L279.23,67.58L287.69,62.82L296.15,62.29L304.62,71.48L313.08,63.45L321.54,81.39L330,72.63L338.46,77.03L346.92,79.07L355.38,80.39L363.85,85.53L372.31,84.79L380.77,87.8L389.23,97.29L397.69,91.61L406.15,100.02L414.62,106.71L423.08,115.92L431.54,109.51L440,114.78" style="vector-effect: non-scaling-stroke; fill: none; stroke: rgb(0, 0, 0); stroke-opacity: 1; stroke-width: 0.25px; opacity: 1;"/></g><g class="points"/><g class="text"/></g><g class="trace scatter traceaab36e" style="stroke-miterlimit: 2; opacity: 1;"><g class="fills"/><g class="errorbars"/><g class="lines"/><g class="points"><path class="point" transform="translate(220,93)" d="M4,0A4,4 0 1,1 0,-4A4,4 0 0,1 4,0ZM0,0.5L0.5,0L0,-0.5L-0.5,0Z" style="opacity: 1; stroke: rgb(0, 0, 0); stroke-opacity: 1; stroke-width: 1px; fill: none;"/><path class="point" transform="translate(228.46,93)" d="M4,0A4,4 0 1,1 0,-4A4,4 0 0,1 4,0ZM0,0.5L0.5,0L0,-0.5L-0.5,0Z" style="opacity: 1; stroke: rgb(0, 0, 0); stroke-opacity: 1; stroke-width: 1px; fill: none;"/><path class="point" transform="translate(236.92,86.8)" d="M4,0A4,4 0 1,1 0,-4A4,4 0 0,1 4,0ZM0,0.5L0.5,0L0,-0.5L-0.5,0Z" style="opacity: 1; stroke: rgb(0, 0, 0); stroke-opacity: 1; stroke-width: 1px; fill: none;"/><path class="point" transform="translate(245.38,86.8)" d="M4,0A4,4 0 1,1 0,-4A4,4 0 0,1 4,0ZM0,0.5L0.5,0L0,-0.5L-0.5,0Z" style="opacity: 1; stroke: rgb(0, 0, 0); stroke-opacity: 1; stroke-width: 1px; fill: none;"/></g><g class="text"/></g></g></g><g class="overplot"/><path class="xlines-above crisp" d="M0,0" style="fill: none;"/><path class="ylines-above crisp" d="M0,0" style="fill: none;"/><g class="overlines-above"/><g class="xaxislayer-above"/><g class="yaxislayer-above"><g class="y2tick"><text text-anchor="end" x="79" y="4.199999999999999" transform="translate(0,472.00000000000006)" style="font-family: 'Open Sans', verdana, arial, sans-serif; font-size: 12px; fill: rgb(42, 63, 95); fill-opacity: 1; white-space: pre; opacity: 1;">20</text></g><g class="y2tick"><text text-anchor="end" x="79" y="4.199999999999999" style="font-family: 'Open Sans', verdana, arial, sans-serif; font-size: 12px; fill: rgb(42, 63, 95); fill-opacity: 1; white-space: pre; opacity: 1;" transform="translate(0,410.00000000000006)">30</text></g><g class="y2tick"><text text-anchor="end" x="79" y="4.199999999999999" style="font-family: 'Open Sans', verdana, arial, sans-serif; font-size: 12px; fill: rgb(42, 63, 95); fill-opacity: 1; white-space: pre; opacity: 1;" transform="translate(0,348.00000000000006)">40</text></g></g><g class="overaxes-above"/></g><g class="subplot x3y3"><g class="layer-subplot"><g class="shapelayer"/><g class="imagelayer"/></g><g class="minor-gridlayer"><g class="x3"/><g class="y3"/></g><g class="gridlayer"><g class="x3"><path class="x3grid crisp" transform="translate(156.15,0)" d="M0,534v186" style="stroke: rgb(255, 255, 255); stroke-opacity: 1; stroke-width: 1px;"/><path class="x3grid crisp" transform="translate(240.77,0)" d="M0,534v186" style="stroke: rgb(255, 255, 255); stroke-opacity: 1; stroke-width: 1px;"/><path class="x3grid crisp" transform="translate(325.38,0)" d="M0,534v186" style="stroke: rgb(255, 255, 255); stroke-opacity: 1; stroke-width: 1px;"/><path class="x3grid crisp" transform="translate(410,0)" d="M0,534v186" style="stroke: rgb(255, 255, 255); stroke-opacity: 1; stroke-width: 1px;"/><path class="x3grid crisp" transform="translate(494.62,0)" d="M0,534v186" style="stroke: rgb(255, 255, 255); stroke-opacity: 1; stroke-width: 1px;"/></g><g class="y3"><path class="y3grid crisp" transform="translate(0,682.8)" d="M80,0h440" style="stroke: rgb(255, 255, 255); stroke-opacity: 1; stroke-width: 1px;"/><path class="y3grid crisp" transform="translate(0,645.6)" d="M80,0h440" style="stroke: rgb(255, 255, 255); stroke-opacity: 1; stroke-width: 1px;"/><path class="y3grid crisp" transform="translate(0,608.4)" d="M80,0h440" style="stroke: rgb(255, 255, 255); stroke-opacity: 1; stroke-width: 1px;"/><path class="y3grid crisp" transform="translate(0,571.2)" d="M80,0h440" style="stroke: rgb(255, 255, 255); stroke-opacity: 1; stroke-width: 1px;"/></g></g><g class="zerolinelayer"/><path class="xlines-below"/><path class="ylines-below"/><g class="overlines-below"/><g class="xaxislayer-below"/><g class="yaxislayer-below"/><g class="overaxes-below"/><g class="plot" transform="translate(80,534)" clip-path="url(#clip35b2d8x3y3plot)"><g class="scatterlayer mlayer"><g class="trace scatter trace8b1a68" style="stroke-miterlimit: 2;"><g class="fills"><g><path class="js-fill" d="M0,116.5L8.46,124.12L16.92,117.26L25.38,119.94L33.85,119.88L42.31,112.55L50.77,108.68L59.23,97.63L67.69,91.77L76.15,90.59L84.62,80.61L101.54,70.62L110,70L118.46,67.81L126.92,64.32L135.38,63L143.85,59.48L177.69,48.75L186.15,47.76L203.08,45.65L211.54,45.42L220,44.42L228.46,45.39L253.85,45.8L262.31,44.56L279.23,45.92L287.69,44.55L296.15,46.57L304.62,47.09L313.08,48.65L321.54,47.98L330,50.71L338.46,51.53L346.92,59.25L355.38,58.29L363.85,65.34L372.31,70.9L380.77,77.17L389.23,85.45L397.69,93.38L406.15,100.07L414.62,105.6L423.08,116.86L440,121.74L440,129.15L431.54,123.98L423.08,119.97L414.62,117.4L406.15,110.23L397.69,105.02L389.23,94.04L380.77,83.62L372.31,79.86L363.85,73.96L355.38,63.92L346.92,63.27L321.54,52.07L313.08,51.58L304.62,49.95L296.15,49.11L287.69,47.07L279.23,49.82L262.31,50.14L253.85,47.18L245.38,52.65L236.92,48.47L211.54,47.68L203.08,48.11L194.62,49.36L186.15,51.62L177.69,52.55L169.23,59.54L160.77,60.36L152.31,59.52L143.85,62.21L135.38,69.21L126.92,72.59L118.46,80.83L101.54,78.32L93.08,88.76L84.62,96.68L76.15,100.08L67.69,107.82L59.23,109.53L50.77,128.95L42.31,130.63L33.85,136.1L25.38,135.01L16.92,123.08L8.46,135.18L0,126.82Z" style="fill: rgb(90, 180, 172); fill-opacity: 1; stroke-width: 0;"/></g></g><g class="errorbars"/><g class="lines"><path class="js-line" d="M0,126.82L8.46,135.18L16.92,123.08L25.38,135.01L33.85,136.1L42.31,130.63L50.77,128.95L59.23,109.53L67.69,107.82L76.15,100.08L84.62,96.68L93.08,88.76L101.54,78.32L118.46,80.83L126.92,72.59L135.38,69.21L143.85,62.21L152.31,59.52L160.77,60.36L169.23,59.54L177.69,52.55L186.15,51.62L194.62,49.36L203.08,48.11L211.54,47.68L236.92,48.47L245.38,52.65L253.85,47.18L262.31,50.14L279.23,49.82L287.69,47.07L296.15,49.11L304.62,49.95L313.08,51.58L321.54,52.07L346.92,63.27L355.38,63.92L363.85,73.96L372.31,79.86L380.77,83.62L389.23,94.04L397.69,105.02L406.15,110.23L414.62,117.4L423.08,119.97L431.54,123.98L440,129.15" style="vector-effect: non-scaling-stroke; fill: none; stroke: rgb(0, 0, 0); stroke-opacity: 1; stroke-width: 0.25px; opacity: 1;"/></g><g class="points"/><g class="text"/></g><g class="trace scatter trace84f99e" style="stroke-miterlimit: 2;"><g class="fills"><g><path class="js-fill" d="M0,111.29L8.46,119.82L16.92,114.13L25.38,115.45L33.85,111.52L42.31,106.25L50.77,96.53L59.23,92.74L67.69,85.26L76.15,81.66L84.62,74.4L93.08,69.02L101.54,65.81L110,66.42L118.46,60.37L135.38,58.37L143.85,58.93L152.31,53.44L160.77,50.02L169.23,48.18L177.69,47.29L186.15,45.37L194.62,44.57L203.08,43.77L211.54,44.33L220,42.94L228.46,43.42L245.38,44.62L253.85,42.84L262.31,42.28L270.77,44.06L279.23,43.32L287.69,43.6L296.15,44.1L304.62,45.54L313.08,45.22L321.54,46.08L330,44.62L338.46,49.08L346.92,50.52L355.38,56.74L372.31,66.65L380.77,73.69L397.69,88.12L406.15,91.99L414.62,101.59L423.08,98.59L431.54,110.48L440,117.87L440,121.74L423.08,116.86L414.62,105.6L406.15,100.07L397.69,93.38L389.23,85.45L380.77,77.17L372.31,70.9L363.85,65.34L355.38,58.29L346.92,59.25L338.46,51.53L330,50.71L321.54,47.98L313.08,48.65L304.62,47.09L296.15,46.57L287.69,44.55L279.23,45.92L262.31,44.56L253.85,45.8L228.46,45.39L220,44.42L211.54,45.42L203.08,45.65L186.15,47.76L177.69,48.75L143.85,59.48L135.38,63L126.92,64.32L118.46,67.81L110,70L101.54,70.62L84.62,80.61L76.15,90.59L67.69,91.77L59.23,97.63L50.77,108.68L42.31,112.55L33.85,119.88L25.38,119.94L16.92,117.26L8.46,124.12L0,116.5Z" style="fill: rgb(245, 245, 245); fill-opacity: 1; stroke-width: 0;"/></g></g><g class="errorbars"/><g class="lines"><path class="js-line" d="M0,116.5L8.46,124.12L16.92,117.26L25.38,119.94L33.85,119.88L42.31,112.55L50.77,108.68L59.23,97.63L67.69,91.77L76.15,90.59L84.62,80.61L101.54,70.62L110,70L118.46,67.81L126.92,64.32L135.38,63L143.85,59.48L177.69,48.75L186.15,47.76L203.08,45.65L211.54,45.42L220,44.42L228.46,45.39L253.85,45.8L262.31,44.56L279.23,45.92L287.69,44.55L296.15,46.57L304.62,47.09L313.08,48.65L321.54,47.98L330,50.71L338.46,51.53L346.92,59.25L355.38,58.29L363.85,65.34L372.31,70.9L380.77,77.17L389.23,85.45L397.69,93.38L406.15,100.07L414.62,105.6L423.08,116.86L440,121.74" style="vector-effect: non-scaling-stroke; fill: none; stroke: rgb(0, 0, 0); stroke-opacity: 1; stroke-width: 0.5px; opacity: 1;"/></g><g class="points"/><g class="text"/></g><g class="trace scatter traceeb2c50" style="stroke-miterlimit: 2;"><g class="fills"><g><path class="js-fill" d="M0,107.98L8.46,115.22L16.92,110.74L25.38,108.59L33.85,102.69L42.31,96.11L50.77,93.95L59.23,89.08L67.69,77.41L76.15,76.05L84.62,67.4L93.08,62.31L101.54,61.17L110,60.14L118.46,57.79L135.38,51.48L143.85,55.09L169.23,44.09L177.69,46.02L186.15,41.34L194.62,42.34L220,41.35L228.46,40.83L245.38,41.39L253.85,39.75L262.31,37.48L270.77,40.65L279.23,40.89L287.69,42.47L304.62,42.49L313.08,40.51L321.54,44.36L330,43.37L338.46,44.62L346.92,47.07L363.85,58.37L372.31,62.97L389.23,77.69L397.69,84.08L406.15,86.58L414.62,91.1L423.08,94.61L431.54,102.06L440,112.71L440,117.87L431.54,110.48L423.08,98.59L414.62,101.59L406.15,91.99L397.69,88.12L380.77,73.69L372.31,66.65L355.38,56.74L346.92,50.52L338.46,49.08L330,44.62L321.54,46.08L313.08,45.22L304.62,45.54L296.15,44.1L287.69,43.6L279.23,43.32L270.77,44.06L262.31,42.28L253.85,42.84L245.38,44.62L228.46,43.42L220,42.94L211.54,44.33L203.08,43.77L194.62,44.57L186.15,45.37L177.69,47.29L169.23,48.18L160.77,50.02L152.31,53.44L143.85,58.93L135.38,58.37L118.46,60.37L110,66.42L101.54,65.81L93.08,69.02L84.62,74.4L76.15,81.66L67.69,85.26L59.23,92.74L50.77,96.53L42.31,106.25L33.85,111.52L25.38,115.45L16.92,114.13L8.46,119.82L0,111.29Z" style="fill: rgb(245, 245, 245); fill-opacity: 1; stroke-width: 0;"/></g></g><g class="errorbars"/><g class="lines"><path class="js-line" d="M0,111.29L8.46,119.82L16.92,114.13L25.38,115.45L33.85,111.52L42.31,106.25L50.77,96.53L59.23,92.74L67.69,85.26L76.15,81.66L84.62,74.4L93.08,69.02L101.54,65.81L110,66.42L118.46,60.37L135.38,58.37L143.85,58.93L152.31,53.44L160.77,50.02L169.23,48.18L177.69,47.29L186.15,45.37L194.62,44.57L203.08,43.77L211.54,44.33L220,42.94L228.46,43.42L245.38,44.62L253.85,42.84L262.31,42.28L270.77,44.06L279.23,43.32L287.69,43.6L296.15,44.1L304.62,45.54L313.08,45.22L321.54,46.08L330,44.62L338.46,49.08L346.92,50.52L355.38,56.74L372.31,66.65L380.77,73.69L397.69,88.12L406.15,91.99L414.62,101.59L423.08,98.59L431.54,110.48L440,117.87" style="vector-effect: non-scaling-stroke; fill: none; stroke: rgb(0, 0, 0); stroke-opacity: 1; stroke-width: 1px; opacity: 1;"/></g><g class="points"/><g class="text"/></g><g class="trace scatter tracebd2fd0" style="stroke-miterlimit: 2;"><g class="fills"><g><path class="js-fill" d="M0,101.71L8.46,104.9L16.92,101.59L25.38,93.8L33.85,94.65L42.31,90.32L50.77,76.21L59.23,79.07L67.69,68.79L76.15,55.24L84.62,55.34L93.08,52.09L101.54,50.66L110,51.57L118.46,50.71L126.92,42.43L135.38,38L143.85,48.7L152.31,44.81L160.77,42.62L169.23,37.41L177.69,42.41L186.15,34.45L194.62,40.32L203.08,38.32L211.54,36.29L220,39.45L228.46,36.63L236.92,35.48L245.38,39.73L253.85,32.52L262.31,31.09L270.77,36.36L279.23,34.47L287.69,40.06L304.62,40.68L313.08,29.58L321.54,41.62L330,34.18L338.46,34.91L346.92,41.76L355.38,46.65L363.85,49.66L389.23,70.37L397.69,74.27L414.62,85.15L423.08,86.93L431.54,96.68L440,101.32L440,112.71L431.54,102.06L423.08,94.61L414.62,91.1L406.15,86.58L397.69,84.08L389.23,77.69L372.31,62.97L363.85,58.37L346.92,47.07L338.46,44.62L330,43.37L321.54,44.36L313.08,40.51L304.62,42.49L287.69,42.47L279.23,40.89L270.77,40.65L262.31,37.48L253.85,39.75L245.38,41.39L228.46,40.83L220,41.35L194.62,42.34L186.15,41.34L177.69,46.02L169.23,44.09L143.85,55.09L135.38,51.48L118.46,57.79L110,60.14L101.54,61.17L93.08,62.31L84.62,67.4L76.15,76.05L67.69,77.41L59.23,89.08L50.77,93.95L42.31,96.11L33.85,102.69L25.38,108.59L16.92,110.74L8.46,115.22L0,107.98Z" style="fill: rgb(216, 179, 101); fill-opacity: 1; stroke-width: 0;"/></g></g><g class="errorbars"/><g class="lines"><path class="js-line" d="M0,107.98L8.46,115.22L16.92,110.74L25.38,108.59L33.85,102.69L42.31,96.11L50.77,93.95L59.23,89.08L67.69,77.41L76.15,76.05L84.62,67.4L93.08,62.31L101.54,61.17L110,60.14L118.46,57.79L135.38,51.48L143.85,55.09L169.23,44.09L177.69,46.02L186.15,41.34L194.62,42.34L220,41.35L228.46,40.83L245.38,41.39L253.85,39.75L262.31,37.48L270.77,40.65L279.23,40.89L287.69,42.47L304.62,42.49L313.08,40.51L321.54,44.36L330,43.37L338.46,44.62L346.92,47.07L363.85,58.37L372.31,62.97L389.23,77.69L397.69,84.08L406.15,86.58L414.62,91.1L423.08,94.61L431.54,102.06L440,112.71" style="vector-effect: non-scaling-stroke; fill: none; stroke: rgb(0, 0, 0); stroke-opacity: 1; stroke-width: 0.5px; opacity: 1;"/></g><g class="points"/><g class="text"/></g><g class="trace scatter traceffe560" style="stroke-miterlimit: 2;"><g class="fills"/><g class="errorbars"/><g class="lines"><path class="js-line" d="M0,101.71L8.46,104.9L16.92,101.59L25.38,93.8L33.85,94.65L42.31,90.32L50.77,76.21L59.23,79.07L67.69,68.79L76.15,55.24L84.62,55.34L93.08,52.09L101.54,50.66L110,51.57L118.46,50.71L126.92,42.43L135.38,38L143.85,48.7L152.31,44.81L160.77,42.62L169.23,37.41L177.69,42.41L186.15,34.45L194.62,40.32L203.08,38.32L211.54,36.29L220,39.45L228.46,36.63L236.92,35.48L245.38,39.73L253.85,32.52L262.31,31.09L270.77,36.36L279.23,34.47L287.69,40.06L304.62,40.68L313.08,29.58L321.54,41.62L330,34.18L338.46,34.91L346.92,41.76L355.38,46.65L363.85,49.66L389.23,70.37L397.69,74.27L414.62,85.15L423.08,86.93L431.54,96.68L440,101.32" style="vector-effect: non-scaling-stroke; fill: none; stroke: rgb(0, 0, 0); stroke-opacity: 1; stroke-width: 0.25px; opacity: 1;"/></g><g class="points"/><g class="text"/></g><g class="trace scatter trace313ef9" style="stroke-miterlimit: 2; opacity: 1;"><g class="fills"/><g class="errorbars"/><g class="lines"/><g class="points"><path class="point" transform="translate(220,29.76)" d="M4,0A4,4 0 1,1 0,-4A4,4 0 0,1 4,0ZM0,0.5L0.5,0L0,-0.5L-0.5,0Z" style="opacity: 1; stroke: rgb(0, 0, 0); stroke-opacity: 1; stroke-width: 1px; fill: none;"/><path class="point" transform="translate(228.46,29.76)" d="M4,0A4,4 0 1,1 0,-4A4,4 0 0,1 4,0ZM0,0.5L0.5,0L0,-0.5L-0.5,0Z" style="opacity: 1; stroke: rgb(0, 0, 0); stroke-opacity: 1; stroke-width: 1px; fill: none;"/><path class="point" transform="translate(236.92,29.76)" d="M4,0A4,4 0 1,1 0,-4A4,4 0 0,1 4,0ZM0,0.5L0.5,0L0,-0.5L-0.5,0Z" style="opacity: 1; stroke: rgb(0, 0, 0); stroke-opacity: 1; stroke-width: 1px; fill: none;"/><path class="point" transform="translate(245.38,29.76)" d="M4,0A4,4 0 1,1 0,-4A4,4 0 0,1 4,0ZM0,0.5L0.5,0L0,-0.5L-0.5,0Z" style="opacity: 1; stroke: rgb(0, 0, 0); stroke-opacity: 1; stroke-width: 1px; fill: none;"/></g><g class="text"/></g></g></g><g class="overplot"/><path class="xlines-above crisp" d="M0,0" style="fill: none;"/><path class="ylines-above crisp" d="M0,0" style="fill: none;"/><g class="overlines-above"/><g class="xaxislayer-above"><g class="x3tick"><text text-anchor="middle" x="0" y="733" transform="translate(156.15,0)" style="font-family: 'Open Sans', verdana, arial, sans-serif; font-size: 12px; fill: rgb(42, 63, 95); fill-opacity: 1; white-space: pre; opacity: 1;">10</text></g><g class="x3tick"><text text-anchor="middle" x="0" y="733" style="font-family: 'Open Sans', verdana, arial, sans-serif; font-size: 12px; fill: rgb(42, 63, 95); fill-opacity: 1; white-space: pre; opacity: 1;" transform="translate(240.77,0)">20</text></g><g class="x3tick"><text text-anchor="middle" x="0" y="733" style="font-family: 'Open Sans', verdana, arial, sans-serif; font-size: 12px; fill: rgb(42, 63, 95); fill-opacity: 1; white-space: pre; opacity: 1;" transform="translate(325.38,0)">30</text></g><g class="x3tick"><text text-anchor="middle" x="0" y="733" style="font-family: 'Open Sans', verdana, arial, sans-serif; font-size: 12px; fill: rgb(42, 63, 95); fill-opacity: 1; white-space: pre; opacity: 1;" transform="translate(410,0)">40</text></g><g class="x3tick"><text text-anchor="middle" x="0" y="733" style="font-family: 'Open Sans', verdana, arial, sans-serif; font-size: 12px; fill: rgb(42, 63, 95); fill-opacity: 1; white-space: pre; opacity: 1;" transform="translate(494.62,0)">50</text></g></g><g class="yaxislayer-above"><g class="y3tick"><text text-anchor="end" x="79" y="4.199999999999999" transform="translate(0,720)" style="font-family: 'Open Sans', verdana, arial, sans-serif; font-size: 12px; fill: rgb(42, 63, 95); fill-opacity: 1; white-space: pre; opacity: 1;">5</text></g><g class="y3tick"><text text-anchor="end" x="79" y="4.199999999999999" style="font-family: 'Open Sans', verdana, arial, sans-serif; font-size: 12px; fill: rgb(42, 63, 95); fill-opacity: 1; white-space: pre; opacity: 1;" transform="translate(0,682.8)">10</text></g><g class="y3tick"><text text-anchor="end" x="79" y="4.199999999999999" style="font-family: 'Open Sans', verdana, arial, sans-serif; font-size: 12px; fill: rgb(42, 63, 95); fill-opacity: 1; white-space: pre; opacity: 1;" transform="translate(0,645.6)">15</text></g><g class="y3tick"><text text-anchor="end" x="79" y="4.199999999999999" style="font-family: 'Open Sans', verdana, arial, sans-serif; font-size: 12px; fill: rgb(42, 63, 95); fill-opacity: 1; white-space: pre; opacity: 1;" transform="translate(0,608.4)">20</text></g><g class="y3tick"><text text-anchor="end" x="79" y="4.199999999999999" style="font-family: 'Open Sans', verdana, arial, sans-serif; font-size: 12px; fill: rgb(42, 63, 95); fill-opacity: 1; white-space: pre; opacity: 1;" transform="translate(0,571.2)">25</text></g><g class="y3tick"><text text-anchor="end" x="79" y="4.199999999999999" style="font-family: 'Open Sans', verdana, arial, sans-serif; font-size: 12px; fill: rgb(42, 63, 95); fill-opacity: 1; white-space: pre; opacity: 1;" transform="translate(0,534)">30</text></g></g><g class="overaxes-above"/></g></g><g class="polarlayer"/><g class="smithlayer"/><g class="ternarylayer"/><g class="geolayer"/><g class="funnelarealayer"/><g class="pielayer"/><g class="iciclelayer"/><g class="treemaplayer"/><g class="sunburstlayer"/><g class="glimages"/><defs id="topdefs-35b2d8"><g class="clips"/></defs><g class="layer-above"><g class="imagelayer"/><g class="shapelayer"/></g><g class="infolayer"><g class="g-gtitle"><text class="gtitle" x="30" y="50" text-anchor="start" dy="0em" style="font-family: 'Open Sans', verdana, arial, sans-serif; font-size: 17px; fill: rgb(42, 63, 95); opacity: 1; font-weight: normal; white-space: pre;">Climatology and S2S forecast for Sylhet</text></g><g class="g-xtitle"/><g class="g-x2title"/><g class="g-x3title"/><g class="g-ytitle"><text class="ytitle" transform="rotate(-90,34.16875,193)" x="34.16875" y="193" text-anchor="middle" style="font-family: 'Open Sans', verdana, arial, sans-serif; font-size: 14px; fill: rgb(42, 63, 95); opacity: 1; font-weight: normal; white-space: pre;">[mm]</text></g><g class="g-y2title"><text class="y2title" transform="rotate(-90,40.840625,410.00000000000006)" x="40.840625" y="410.00000000000006" text-anchor="middle" style="font-family: 'Open Sans', verdana, arial, sans-serif; font-size: 14px; fill: rgb(42, 63, 95); opacity: 1; font-weight: normal; white-space: pre;">[C]</text></g><g class="g-y3title"><text class="y3title" transform="rotate(-90,40.840625,627)" x="40.840625" y="627" text-anchor="middle" style="font-family: 'Open Sans', verdana, arial, sans-serif; font-size: 14px; fill: rgb(42, 63, 95); opacity: 1; font-weight: normal; white-space: pre;">[C]</text></g><g class="annotation" data-index="0" style="opacity: 1;"><g class="annotation-text-g" transform="rotate(0,300,89.5)"><g class="cursor-pointer" transform="translate(237,79)"><rect class="bg" x="0.5" y="0.5" width="126" height="20" style="stroke-width: 1px; stroke: rgb(0, 0, 0); stroke-opacity: 0; fill: rgb(0, 0, 0); fill-opacity: 0;"/><text class="annotation-text" text-anchor="middle" x="63.359375" y="16" style="font-family: 'Open Sans', verdana, arial, sans-serif; font-size: 16px; fill: rgb(42, 63, 95); fill-opacity: 1; white-space: pre;">Precipitation sum</text></g></g></g><g class="annotation" data-index="1" style="opacity: 1;"><g class="annotation-text-g" transform="rotate(0,300,306.50000000000006)"><g class="cursor-pointer" transform="translate(196,296)"><rect class="bg" x="0.5" y="0.5" width="208" height="20" style="stroke-width: 1px; stroke: rgb(0, 0, 0); stroke-opacity: 0; fill: rgb(0, 0, 0); fill-opacity: 0;"/><text class="annotation-text" text-anchor="middle" x="104.265625" y="16" style="font-family: 'Open Sans', verdana, arial, sans-serif; font-size: 16px; fill: rgb(42, 63, 95); fill-opacity: 1; white-space: pre;">Mean maximum temperature</text></g></g></g><g class="annotation" data-index="2" style="opacity: 1;"><g class="annotation-text-g" transform="rotate(0,300,523.5)"><g class="cursor-pointer" transform="translate(198,513)"><rect class="bg" x="0.5" y="0.5" width="203" height="20" style="stroke-width: 1px; stroke: rgb(0, 0, 0); stroke-opacity: 0; fill: rgb(0, 0, 0); fill-opacity: 0;"/><text class="annotation-text" text-anchor="middle" x="102.046875" y="16" style="font-family: 'Open Sans', verdana, arial, sans-serif; font-size: 16px; fill: rgb(42, 63, 95); fill-opacity: 1; white-space: pre;">Mean minimum temperature</text></g></g></g><g class="annotation" data-index="3" style="opacity: 1;"><g class="annotation-text-g" transform="rotate(0,300,760.5)"><g class="cursor-pointer" transform="translate(277,750)"><rect class="bg" x="0.5" y="0.5" width="45" height="20" style="stroke-width: 1px; stroke: rgb(0, 0, 0); stroke-opacity: 0; fill: rgb(0, 0, 0); fill-opacity: 0;"/><text class="annotation-text" text-anchor="middle" x="22.3125" y="16" style="font-family: 'Open Sans', verdana, arial, sans-serif; font-size: 16px; fill: rgb(42, 63, 95); fill-opacity: 1; white-space: pre;">Week</text></g></g></g></g></svg>