<svg class="main-svg" xmlns="http://www.w3.org/2000/svg" xmlns:xlink="http://www.w3.org/1999/xlink" width="600" height="800" style="" viewBox="0 0 600 800"><rect x="0" y="0" width="600" height="800" style="fill: rgb(255, 255, 255); fill-opacity: 1;"/><defs id="defs-60bf2b"><g class="clips"><clipPath id="clip60bf2bxyplot" class="plotclip"><rect width="440" height="186.00000000000003"/></clipPath><clipPath id="clip60bf2bx2y2plot" class="plotclip"><rect width="440" height="185.99999999999997"/></clipPath><clipPath id="clip60bf2bx3y3plot" class="plotclip"><rect width="440" height="186"/></clipPath><clipPath class="axesclip" id="clip60bf2bx"><rect x="80" y="0" width="440" height="800"/></clipPath><clipPath class="axesclip" id="clip60bf2by"><rect x="0" y="100" width="600" height="186.00000000000003"/></clipPath><clipPath class="axesclip" id="clip60bf2bxy"><rect x="80" y="100" width="440" height="186.00000000000003"/></clipPath><clipPath class="axesclip" id="clip60bf2by2"><rect x="0" y="317.00000000000006" width="600" height="185.99999999999997"/></clipPath><clipPath class="axesclip" id="clip60bf2bxy2"><rect x="80" y="317.00000000000006" width="440" height="185.99999999999997"/></clipPath><clipPath class="axesclip" id="clip60bf2by3"><rect x="0" y="534" width="600" height="186"/></clipPath><clipPath class="axesclip" id="clip60bf2bxy3"><rect x="80" y="534" width="440" height="186"/></clipPath><clipPath class="axesclip" id="clip60bf2bx2"><rect x="80" y="0" width="440" height="800"/></clipPath><clipPath class="axesclip" id="clip60bf2bx2y"><rect x="80" y="100" width="440" height="186.00000000000003"/></clipPath><clipPath class="axesclip" id="clip60bf2bx2y2"><rect x="80" y="317.00000000000006" width="440" height="185.99999999999997"/></clipPath><clipPath class="axesclip" id="clip60bf2bx2y3"><rect x="80" y="534" width="440" height="186"/></clipPath><clipPath class="axesclip" id="clip60bf2bx3"><rect x="80" y="0" width="440" height="800"/></clipPath><clipPath class="axesclip" id="clip60bf2bx3y"><rect x="80" y="100" width="440" height="186.00000000000003"/></clipPath><clipPath class="axesclip" id="clip60bf2bx3y2"><rect x="80" y="317.00000000000006" width="440" height="185.99999999999997"/></clipPath><clipPath class="axesclip" id="clip60bf2bx3y3"><rect x="80" y="534" width="440" height="186"/></clipPath></g><g class="gradients"/><g class="patterns"/></defs><g class="bglayer"><rect class="bg" x="80" y="100" width="440" height="186.00000000000003" style="fill: rgb(229, 236, 246); fill-opacity: 1; stroke-width: 0;"/><rect class="bg" x="80" y="317.00000000000006" width="440" height="185.99999999999997" style="fill: rgb(229, 236, 246); fill-opacity: 1; stroke-width: 0;"/><rect class="bg" x="80" y="534" width="440" height="186" style="fill: rgb(229, 236, 246); fill-opacity: 1; stroke-width: 0;"/></g><g class="layer-below"><g class="imagelayer"/><g class="shapelayer"/></g><g class="cartesianlayer"><g class="subplot xy"><g class="layer-subplot"><g class="shapelayer"/><g class="imagelayer"/></g><g class="minor-gridlayer"><g class="x"/><g class="y"/></g><g class="gridlayer"><g class="x"><path class="xgrid crisp" transform="translate(156.15,0)" d="M0,100v186.00000000000003" style="stroke: rgb(255, 255, 255); stroke-opacity: 1; stroke-width: 1px;"/><path class="xgrid crisp" transform="translate(240.77,0)" d="M0,100v186.00000000000003" style="stroke: rgb(255, 255, 255); stroke-opacity: 1; stroke-width: 1px;"/><path class="xgrid crisp" transform="translate(325.38,0)" d="M0,100v186.00000000000003" style="stroke: rgb(255, 255, 255); stroke-opacity: 1; stroke-width: 1px;"/><path class="xgrid crisp" transform="translate(410,0)" d="M0,100v186.00000000000003" style="stroke: rgb(255, 255, 255); stroke-opacity: 1; stroke-width: 1px;"/><path class="xgrid crisp" transform="translate(494.62,0)" d="M0,100v186.00000000000003" style="stroke: rgb(255, 255, 255); stroke-opacity: 1; stroke-width: 1px;"/></g><g class="y"><path class="ygrid crisp" transform="translate(0,248.8)" d="M80,0h440" style="stroke: rgb(255, 255, 255); stroke-opacity: 1; stroke-width: 1px;"/><path class="ygrid crisp" transform="translate(0,211.6)" d="M80,0h440" style="stroke: rgb(255, 255, 255); stroke-opacity: 1; stroke-width: 1px;"/><path class="ygrid crisp" transform="translate(0,174.4)" d="M80,0h440" style="stroke: rgb(255, 255, 255); stroke-opacity: 1; stroke-width: 1px;"/><path class="ygrid crisp" transform="translate(0,137.2)" d="M80,0h440" style="stroke: rgb(255, 255, 255); stroke-opacity: 1; stroke-width: 1px;"/></g></g><g class="zerolinelayer"><path class="yzl zl crisp" transform="translate(0,286)" d="M80,0h440" style="stroke: rgb(255, 255, 255); stroke-opacity: 1; stroke-width: 2px;"/></g><path class="xlines-below"/><path class="ylines-below"/><g class="overlines-below"/><g class="xaxislayer-below"/><g class="yaxislayer-below"/><g class="overaxes-below"/><g class="plot" transform="translate(80,100)" clip-path="url(#clip60bf2bxyplot)"><g class="scatterlayer mlayer"><g class="trace scatter tracea2dfb4" style="stroke-miterlimit: 2;"><g class="fills"><g><path class="js-fill" d="M0,186L126.92,185.79L135.38,184.75L143.85,176.5L152.31,182.23L160.77,182.12L169.23,180.04L177.69,171.22L186.15,174.29L194.62,175.55L203.08,167.29L211.54,174.5L220,173.64L228.46,169.4L236.92,166.95L245.38,162.1L253.85,171.03L262.31,166.27L270.77,154.35L279.23,169L287.69,177.2L296.15,174.43L304.62,172.95L313.08,164.98L321.54,179.05L330,181.71L338.46,182.38L346.92,185.62L355.38,186L440,186L440,186L313.08,185.97L304.62,185.97L296.15,183.44L287.69,185.99L279.23,180.26L270.77,176.78L262.31,182.7L253.85,182.87L245.38,185.97L236.92,180.64L228.46,184.77L220,186L211.54,185.2L203.08,186L0,186Z" style="fill: rgb(224, 236, 244); fill-opacity: 1; stroke-width: 0;"/></g></g><g class="errorbars"/><g class="lines"><path class="js-line" d="M0,186L203.08,186L211.54,185.2L220,186L228.46,184.77L236.92,180.64L245.38,185.97L253.85,182.87L262.31,182.7L270.77,176.78L279.23,180.26L287.69,185.99L296.15,183.44L304.62,185.97L313.08,185.97L440,186" style="vector-effect: non-scaling-stroke; fill: none; stroke: rgb(0, 0, 0); stroke-opacity: 1; stroke-width: 0.25px; opacity: 1;"/></g><g class="points"/><g class="text"/></g><g class="trace scatter trace052635" style="stroke-miterlimit: 2;"><g class="fills"><g><path class="js-fill" d="M0,186L93.08,185.88L101.54,183.23L126.92,178.83L135.38,183.7L143.85,164.73L152.31,167.38L160.77,170.43L169.23,151.25L177.69,162.91L186.15,155.9L194.62,155.28L203.08,147.22L211.54,147.92L220,158.08L228.46,156.3L236.92,151.76L253.85,162.93L262.31,151.23L270.77,135.98L279.23,155.63L287.69,164.1L296.15,162.39L304.62,149.17L313.08,157.32L321.54,156.93L330,168.59L338.46,173.78L346.92,175.47L355.38,186L363.85,185.79L397.69,186L406.15,186L440,186L440,186L355.38,186L346.92,185.62L338.46,182.38L330,181.71L321.54,179.05L313.08,164.98L304.62,172.95L296.15,174.43L287.69,177.2L279.23,169L270.77,154.35L262.31,166.27L253.85,171.03L245.38,162.1L236.92,166.95L228.46,169.4L220,173.64L211.54,174.5L203.08,167.29L194.62,175.55L186.15,174.29L177.69,171.22L169.23,180.04L160.77,182.12L152.31,182.23L143.85,176.5L135.38,184.75L126.92,185.79L0,186Z" style="fill: rgb(158, 188, 218); fill-opacity: 1; stroke-width: 0;"/></g></g><g class="errorbars"/><g class="lines"><path class="js-line" d="M0,186L126.92,185.79L135.38,184.75L143.85,176.5L152.31,182.23L160.77,182.12L169.23,180.04L177.69,171.22L186.15,174.29L194.62,175.55L203.08,167.29L211.54,174.5L220,173.64L228.46,169.4L236.92,166.95L245.38,162.1L253.85,171.03L262.31,166.27L270.77,154.35L279.23,169L287.69,177.2L296.15,174.43L304.62,172.95L313.08,164.98L321.54,179.05L330,181.71L338.46,182.38L346.92,185.62L355.38,186L440,186" style="vector-effect: non-scaling-stroke; fill: none; stroke: rgb(0, 0, 0); stroke-opacity: 1; stroke-width: 0.5px; opacity: 1;"/></g><g class="points"/><g class="text"/></g><g class="trace scatter traced81028" style="stroke-miterlimit: 2;"><g class="fills"><g><path class="js-fill" d="M0,186L33.85,185.8L42.31,185L50.77,183.43L59.23,183.62L67.69,184.18L76.15,180.58L84.62,183.58L93.08,177.33L101.54,166.47L110,170.28L118.46,170.47L126.92,166.85L135.38,166.92L143.85,148.28L152.31,162.2L160.77,156.15L169.23,130.48L177.69,132.28L186.15,132.63L194.62,128.27L203.08,118.14L211.54,103.11L220,121.01L228.46,114.76L236.92,139.26L245.38,135.51L253.85,144.1L262.31,134.75L270.77,116.93L279.23,145.92L287.69,149.02L296.15,141.29L304.62,138.45L313.08,113.59L321.54,126.23L330,134.1L338.46,137.73L346.92,144.84L363.85,177.36L372.31,184.16L380.77,186L389.23,186L440,186L440,186L406.15,186L397.69,186L363.85,185.79L355.38,186L346.92,175.47L338.46,173.78L330,168.59L321.54,156.93L313.08,157.32L304.62,149.17L296.15,162.39L287.69,164.1L279.23,155.63L270.77,135.98L262.31,151.23L253.85,162.93L236.92,151.76L228.46,156.3L220,158.08L211.54,147.92L203.08,147.22L194.62,155.28L186.15,155.9L177.69,162.91L169.23,151.25L160.77,170.43L152.31,167.38L143.85,164.73L135.38,183.7L126.92,178.83L101.54,183.23L93.08,185.88L0,186Z" style="fill: rgb(158, 188, 218); fill-opacity: 1; stroke-width: 0;"/></g></g><g class="errorbars"/><g class="lines"><path class="js-line" d="M0,186L93.08,185.88L101.54,183.23L126.92,178.83L135.38,183.7L143.85,164.73L152.31,167.38L160.77,170.43L169.23,151.25L177.69,162.91L186.15,155.9L194.62,155.28L203.08,147.22L211.54,147.92L220,158.08L228.46,156.3L236.92,151.76L253.85,162.93L262.31,151.23L270.77,135.98L279.23,155.63L287.69,164.1L296.15,162.39L304.62,149.17L313.08,157.32L321.54,156.93L330,168.59L338.46,173.78L346.92,175.47L355.38,186L363.85,185.79L397.69,186L406.15,186L440,186" style="vector-effect: non-scaling-stroke; fill: none; stroke: rgb(0, 0, 0); stroke-opacity: 1; stroke-width: 1px; opacity: 1;"/></g><g class="points"/><g class="text"/></g><g class="trace scatter tracee849d4" style="stroke-miterlimit: 2;"><g class="fills"><g><path class="js-fill" d="M0,186L33.85,185.77L42.31,184.04L50.77,182.85L59.23,180.39L67.69,183.76L76.15,177.09L84.62,182.42L93.08,166.67L101.54,143.4L110,147.49L118.46,148.36L126.92,150.36L135.38,157.38L143.85,123.97L152.31,133.27L160.77,129.61L169.23,78.86L177.69,96.16L186.15,93.96L194.62,62.71L203.08,56.96L211.54,67.81L220,61.1L228.46,61.82L236.92,114.03L245.38,101.43L253.85,120.79L262.31,108.24L270.77,67.39L279.23,122.53L296.15,110.58L304.62,118.33L313.08,47.43L321.54,47.34L330,90.86L338.46,110.35L346.92,118.59L355.38,157.72L363.85,169.53L372.31,182.89L380.77,186L389.23,186L440,186L440,186L389.23,186L380.77,186L372.31,184.16L363.85,177.36L346.92,144.84L338.46,137.73L330,134.1L321.54,126.23L313.08,113.59L304.62,138.45L296.15,141.29L287.69,149.02L279.23,145.92L270.77,116.93L262.31,134.75L253.85,144.1L245.38,135.51L236.92,139.26L228.46,114.76L220,121.01L211.54,103.11L203.08,118.14L194.62,128.27L186.15,132.63L177.69,132.28L169.23,130.48L160.77,156.15L152.31,162.2L143.85,148.28L135.38,166.92L126.92,166.85L118.46,170.47L110,170.28L101.54,166.47L93.08,177.33L84.62,183.58L76.15,180.58L67.69,184.18L59.23,183.62L50.77,183.43L42.31,185L33.85,185.8L0,186Z" style="fill: rgb(136, 86, 167); fill-opacity: 1; stroke-width: 0;"/></g></g><g class="errorbars"/><g class="lines"><path class="js-line" d="M0,186L33.85,185.8L42.31,185L50.77,183.43L59.23,183.62L67.69,184.18L76.15,180.58L84.62,183.58L93.08,177.33L101.54,166.47L110,170.28L118.46,170.47L126.92,166.85L135.38,166.92L143.85,148.28L152.31,162.2L160.77,156.15L169.23,130.48L177.69,132.28L186.15,132.63L194.62,128.27L203.08,118.14L211.54,103.11L220,121.01L228.46,114.76L236.92,139.26L245.38,135.51L253.85,144.1L262.31,134.75L270.77,116.93L279.23,145.92L287.69,149.02L296.15,141.29L304.62,138.45L313.08,113.59L321.54,126.23L330,134.1L338.46,137.73L346.92,144.84L363.85,177.36L372.31,184.16L380.77,186L389.23,186L440,186" style="vector-effect: non-scaling-stroke; fill: none; stroke: rgb(0, 0, 0); stroke-opacity: 1; stroke-width: 0.5px; opacity: 1;"/></g><g class="points"/><g class="text"/></g><g class="trace scatter trace241a94" style="stroke-miterlimit: 2;"><g class="fills"/><g class="errorbars"/><g class="lines"><path class="js-line" d="M0,186L33.85,185.77L42.31,184.04L50.77,182.85L59.23,180.39L67.69,183.76L76.15,177.09L84.62,182.42L93.08,166.67L101.54,143.4L110,147.49L118.46,148.36L126.92,150.36L135.38,157.38L143.85,123.97L152.31,133.27L160.77,129.61L169.23,78.86L177.69,96.16L186.15,93.96L194.62,62.71L203.08,56.96L211.54,67.81L220,61.1L228.46,61.82L236.92,114.03L245.38,101.43L253.85,120.79L262.31,108.24L270.77,67.39L279.23,122.53L296.15,110.58L304.62,118.33L313.08,47.43L321.54,47.34L330,90.86L338.46,110.35L346.92,118.59L355.38,157.72L363.85,169.53L372.31,182.89L380.77,186L389.23,186L440,186" style="vector-effect: non-scaling-stroke; fill: none; stroke: rgb(0, 0, 0); stroke-opacity: 1; stroke-width: 0.25px; opacity: 1;"/></g><g class="points"/><g class="text"/></g><g class="trace scatter trace7d10a9" style="stroke-miterlimit: 2; opacity: 1;"><g class="fills"/><g class="errorbars"/><g class="lines"/><g class="points"><path class="point" transform="translate(177.69,186)" d="M4,0A4,4 0 1,1 0,-4A4,4 0 0,1 4,0ZM0,0.5L0.5,0L0,-0.5L-0.5,0Z" style="opacity: 1; stroke: rgb(0, 0, 0); stroke-opacity: 1; stroke-width: 1px; fill: none;"/><path class="point" transform="translate(186.15,186)" d="M4,0A4,4 0 1,1 0,-4A4,4 0 0,1 4,0ZM0,0.5L0.5,0L0,-0.5L-0.5,0Z" style="opacity: 1; stroke: rgb(0, 0, 0); stroke-opacity: 1; stroke-width: 1px; fill: none;"/><path class="point" transform="translate(194.62,155.5)" d="M4,0A4,4 0 1,1 0,-4A4,4 0 0,1 4,0ZM0,0.5L0.5,0L0,-0.5L-0.5,0Z" style="opacity: 1; stroke: rgb(0, 0, 0); stroke-opacity: 1; stroke-width: 1px; fill: none;"/><path class="point" transform="translate(203.08,155.5)" d="M4,0A4,4 0 1,1 0,-4A4,4 0 0,1 4,0ZM0,0.5L0.5,0L0,-0.5L-0.5,0Z" style="opacity: 1; stroke: rgb(0, 0, 0); stroke-opacity: 1; stroke-width: 1px; fill: none;"/></g><g class="text"/></g></g></g><g class="overplot"/><path class="xlines-above crisp" d="M0,0" style="fill: none;"/><path class="ylines-above crisp" d="M0,0" style="fill: none;"/><g class="overlines-above"/><g class="xaxislayer-above"/><g class="yaxislayer-above"><g class="ytick"><text text-anchor="end" x="79" y="4.199999999999999" transform="translate(0,286)" style="font-family: 'Open Sans', verdana, arial, sans-serif; font-size: 12px; fill: rgb(42, 63, 95); fill-opacity: 1; white-space: pre; opacity: 1;">0</text></g><g class="ytick"><text text-anchor="end" x="79" y="4.199999999999999" style="font-family: 'Open Sans', verdana, arial, sans-serif; font-size: 12px; fill: rgb(42, 63, 95); fill-opacity: 1; white-space: pre; opacity: 1;" transform="translate(0,248.8)">50</text></g><g class="ytick"><text text-anchor="end" x="79" y="4.199999999999999" style="font-family: 'Open Sans', verdana, arial, sans-serif; font-size: 12px; fill: rgb(42, 63, 95); fill-opacity: 1; white-space: pre; opacity: 1;" transform="translate(0,211.6)">100</text></g><g class="ytick"><text text-anchor="end" x="79" y="4.199999999999999" style="font-family: 'Open Sans', verdana, arial, sans-serif; font-size: 12px; fill: rgb(42, 63, 95); fill-opacity: 1; white-space: pre; opacity: 1;" transform="translate(0,174.4)">150</text></g><g class="ytick"><text text-anchor="end" x="79" y="4.199999999999999" style="font-family: 'Open Sans', verdana, arial, sans-serif; font-size: 12px; fill: rgb(42, 63, 95); fill-opacity: 1; white-space: pre; opacity: 1;" transform="translate(0,137.2)">200</text></g><g class="ytick"><text text-anchor="end" x="79" y="4.199999999999999" style="font-family: 'Open Sans', verdana, arial, sans-serif; font-size: 12px; fill: rgb(42, 63, 95); fill-opacity: 1; white-space: pre; opacity: 1;" transform="translate(0,100)">250</text></g></g><g class="overaxes-above"/></g><g class="subplot x2y2"><g class="layer-subplot"><g class="shapelayer"/><g class="imagelayer"/></g><g class="minor-gridlayer"><g class="x2"/><g class="y2"/></g><g class="gridlayer"><g class="x2"><path class="x2grid crisp" transform="translate(156.15,0)" d="M0,317.00000000000006v185.99999999999997" style="stroke: rgb(255, 255, 255); stroke-opacity: 1; stroke-width: 1px;"/><path class="x2grid crisp" transform="translate(240.77,0)" d="M0,317.00000000000006v185.99999999999997" style="stroke: rgb(255, 255, 255); stroke-opacity: 1; stroke-width: 1px;"/><path class="x2grid crisp" transform="translate(325.38,0)" d="M0,317.00000000000006v185.99999999999997" style="stroke: rgb(255, 255, 255); stroke-opacity: 1; stroke-width: 1px;"/><path class="x2grid crisp" transform="translate(410,0)" d="M0,317.00000000000006v185.99999999999997" style="stroke: rgb(255, 255, 255); stroke-opacity: 1; stroke-width: 1px;"/><path class="x2grid crisp" transform="translate(494.62,0)" d="M0,317.00000000000006v185.99999999999997" style="stroke: rgb(255, 255, 255); stroke-opacity: 1; stroke-width: 1px;"/></g><g class="y2"><path class="y2grid crisp" transform="translate(0,472.00000000000006)" d="M80,0h440" style="stroke: rgb(255, 255, 255); stroke-opacity: 1; stroke-width: 1px;"/><path class="y2grid crisp" transform="translate(0,410.00000000000006)" d="M80,0h440" style="stroke: rgb(255, 255, 255); stroke-opacity: 1; stroke-width: 1px;"/><path class="y2grid crisp" transform="translate(0,348.00000000000006)" d="M80,0h440" style="stroke: rgb(255, 255, 255); stroke-opacity: 1; stroke-width: 1px;"/></g></g><g class="zerolinelayer"/><path class="xlines-below"/><path class="ylines-below"/><g class="overlines-below"/><g class="xaxislayer-below"/><g class="yaxislayer-below"/><g class="overaxes-below"/><g class="plot" transform="translate(80,317.00000000000006)" clip-path="url(#clip60bf2bx2y2plot)"><g class="scatterlayer mlayer"><g class="trace scatter tracec541ef" style="stroke-miterlimit: 2;"><g class="fills"><g><path class="js-fill" d="M0,150.34L8.46,151.67L16.92,141.26L25.38,136.32L33.85,129.03L42.31,117.63L50.77,113.37L67.69,91.54L76.15,87.08L84.62,75.16L93.08,68.07L101.54,75.86L110,79.17L118.46,83.53L126.92,77.49L135.38,84.88L143.85,88.9L152.31,82.8L160.77,84.45L169.23,83.4L177.69,86.75L186.15,86.78L194.62,91.52L203.08,93.77L211.54,92.1L220,95.85L228.46,93.34L236.92,94.48L245.38,93.43L253.85,93.16L262.31,91.42L270.77,96.19L279.23,95.25L287.69,93.92L296.15,96.08L304.62,95.36L313.08,98.45L330,94.24L338.46,94.06L355.38,89.65L363.85,93.83L372.31,98.45L380.77,105.82L389.23,112.76L397.69,123.92L406.15,133.46L414.62,135.92L431.54,147.92L440,152.35L440,154.55L431.54,154.14L423.08,157.24L414.62,142.38L406.15,147.27L397.69,134.23L389.23,122.13L380.77,113.61L372.31,110.9L363.85,99.3L355.38,94.33L346.92,102.79L338.46,105.83L330,104.33L321.54,105.49L313.08,111.19L304.62,105.31L296.15,103.35L287.69,97.85L279.23,105L270.77,104.28L262.31,107.45L253.85,102.51L236.92,104.51L228.46,94.87L220,105.22L211.54,101.75L203.08,104.92L194.62,98.32L186.15,96.55L177.69,94.31L160.77,93.69L152.31,90.57L135.38,94.22L126.92,95.87L118.46,95.79L110,90.36L101.54,92.86L93.08,86.04L84.62,92.85L76.15,105.3L67.69,115.86L59.23,116.82L50.77,128.59L42.31,134.37L33.85,144.46L25.38,151.14L16.92,154.2L8.46,168.16L0,169.45Z" style="fill: rgb(145, 191, 219); fill-opacity: 1; stroke-width: 0;"/></g></g><g class="errorbars"/><g class="lines"><path class="js-line" d="M0,169.45L8.46,168.16L16.92,154.2L25.38,151.14L33.85,144.46L42.31,134.37L50.77,128.59L59.23,116.82L67.69,115.86L76.15,105.3L84.62,92.85L93.08,86.04L101.54,92.86L110,90.36L118.46,95.79L126.92,95.87L135.38,94.22L152.31,90.57L160.77,93.69L177.69,94.31L186.15,96.55L194.62,98.32L203.08,104.92L211.54,101.75L220,105.22L228.46,94.87L236.92,104.51L253.85,102.51L262.31,107.45L270.77,104.28L279.23,105L287.69,97.85L296.15,103.35L304.62,105.31L313.08,111.19L321.54,105.49L330,104.33L338.46,105.83L346.92,102.79L355.38,94.33L363.85,99.3L372.31,110.9L380.77,113.61L389.23,122.13L397.69,134.23L406.15,147.27L414.62,142.38L423.08,157.24L431.54,154.14L440,154.55" style="vector-effect: non-scaling-stroke; fill: none; stroke: rgb(0, 0, 0); stroke-opacity: 1; stroke-width: 0.25px; opacity: 1;"/></g><g class="points"/><g class="text"/></g><g class="trace scatter trace4c781c" style="stroke-miterlimit: 2;"><g class="fills"><g><path class="js-fill" d="M0,140.45L8.46,142.75L16.92,135.67L25.38,131.62L33.85,123.04L42.31,111.3L50.77,103.08L67.69,80.77L76.15,75.81L84.62,66.14L93.08,60.4L101.54,63.93L110,71.28L118.46,65.62L126.92,66.41L135.38,73.65L143.85,79.47L152.31,74.94L160.77,76.28L169.23,79.19L177.69,80.59L186.15,83.19L194.62,83.96L211.54,88.83L220,87.61L228.46,88.85L236.92,92.17L262.31,86.23L270.77,89.28L279.23,88.22L287.69,91.28L296.15,92.3L304.62,91.95L313.08,91.43L321.54,89.75L330,85.67L338.46,83.84L346.92,86.15L355.38,86.48L363.85,92.33L372.31,93.59L397.69,114.45L406.15,125.3L423.08,131.87L431.54,140.47L440,138.98L440,152.35L431.54,147.92L414.62,135.92L406.15,133.46L397.69,123.92L389.23,112.76L380.77,105.82L372.31,98.45L363.85,93.83L355.38,89.65L338.46,94.06L330,94.24L313.08,98.45L304.62,95.36L296.15,96.08L287.69,93.92L279.23,95.25L270.77,96.19L262.31,91.42L253.85,93.16L245.38,93.43L236.92,94.48L228.46,93.34L220,95.85L211.54,92.1L203.08,93.77L194.62,91.52L186.15,86.78L177.69,86.75L169.23,83.4L160.77,84.45L152.31,82.8L143.85,88.9L135.38,84.88L126.92,77.49L118.46,83.53L110,79.17L101.54,75.86L93.08,68.07L84.62,75.16L76.15,87.08L67.69,91.54L50.77,113.37L42.31,117.63L33.85,129.03L25.38,136.32L16.92,141.26L8.46,151.67L0,150.34Z" style="fill: rgb(255, 255, 191); fill-opacity: 1; stroke-width: 0;"/></g></g><g class="errorbars"/><g class="lines"><path class="js-line" d="M0,150.34L8.46,151.67L16.92,141.26L25.38,136.32L33.85,129.03L42.31,117.63L50.77,113.37L67.69,91.54L76.15,87.08L84.62,75.16L93.08,68.07L101.54,75.86L110,79.17L118.46,83.53L126.92,77.49L135.38,84.88L143.85,88.9L152.31,82.8L160.77,84.45L169.23,83.4L177.69,86.75L186.15,86.78L194.62,91.52L203.08,93.77L211.54,92.1L220,95.85L228.46,93.34L236.92,94.48L245.38,93.43L253.85,93.16L262.31,91.42L270.77,96.19L279.23,95.25L287.69,93.92L296.15,96.08L304.62,95.36L313.08,98.45L330,94.24L338.46,94.06L355.38,89.65L363.85,93.83L372.31,98.45L380.77,105.82L389.23,112.76L397.69,123.92L406.15,133.46L414.62,135.92L431.54,147.92L440,152.35" style="vector-effect: non-scaling-stroke; fill: none; stroke: rgb(0, 0, 0); stroke-opacity: 1; stroke-width: 0.5px; opacity: 1;"/></g><g class="points"/><g class="text"/></g><g class="trace scatter trace1feed7" style="stroke-miterlimit: 2;"><g class="fills"><g><path class="js-fill" d="M0,132.46L8.46,133.62L16.92,129.16L25.38,124.67L33.85,115.96L67.69,71.93L76.15,65.91L93.08,54.41L101.54,51.02L110,57.77L118.46,56.34L126.92,60.2L135.38,55.39L143.85,70.75L152.31,66L160.77,64.9L169.23,73.6L177.69,71.92L186.15,77.15L194.62,76.07L203.08,81.85L211.54,83.65L220,83.58L228.46,83.57L236.92,80.36L245.38,82.2L253.85,85.57L262.31,79.69L270.77,84.62L279.23,82.73L287.69,87.72L296.15,83.49L304.62,83.27L313.08,85.55L321.54,82.15L330,76.37L338.46,79.95L346.92,78.6L355.38,84.53L363.85,90L372.31,90.08L380.77,97.67L389.23,103.08L397.69,109.51L406.15,119.23L414.62,118.52L423.08,125.82L431.54,129.44L440,124.54L440,138.98L431.54,140.47L423.08,131.87L406.15,125.3L397.69,114.45L372.31,93.59L363.85,92.33L355.38,86.48L346.92,86.15L338.46,83.84L330,85.67L321.54,89.75L313.08,91.43L304.62,91.95L296.15,92.3L287.69,91.28L279.23,88.22L270.77,89.28L262.31,86.23L236.92,92.17L228.46,88.85L220,87.61L211.54,88.83L194.62,83.96L186.15,83.19L177.69,80.59L169.23,79.19L160.77,76.28L152.31,74.94L143.85,79.47L135.38,73.65L126.92,66.41L118.46,65.62L110,71.28L101.54,63.93L93.08,60.4L84.62,66.14L76.15,75.81L67.69,80.77L50.77,103.08L42.31,111.3L33.85,123.04L25.38,131.62L16.92,135.67L8.46,142.75L0,140.45Z" style="fill: rgb(255, 255, 191); fill-opacity: 1; stroke-width: 0;"/></g></g><g class="errorbars"/><g class="lines"><path class="js-line" d="M0,140.45L8.46,142.75L16.92,135.67L25.38,131.62L33.85,123.04L42.31,111.3L50.77,103.08L67.69,80.77L76.15,75.81L84.62,66.14L93.08,60.4L101.54,63.93L110,71.28L118.46,65.62L126.92,66.41L135.38,73.65L143.85,79.47L152.31,74.94L160.77,76.28L169.23,79.19L177.69,80.59L186.15,83.19L194.62,83.96L211.54,88.83L220,87.61L228.46,88.85L236.92,92.17L262.31,86.23L270.77,89.28L279.23,88.22L287.69,91.28L296.15,92.3L304.62,91.95L313.08,91.43L321.54,89.75L330,85.67L338.46,83.84L346.92,86.15L355.38,86.48L363.85,92.33L372.31,93.59L397.69,114.45L406.15,125.3L423.08,131.87L431.54,140.47L440,138.98" style="vector-effect: non-scaling-stroke; fill: none; stroke: rgb(0, 0, 0); stroke-opacity: 1; stroke-width: 1px; opacity: 1;"/></g><g class="points"/><g class="text"/></g><g class="trace scatter tracee5dfd9" style="stroke-miterlimit: 2;"><g class="fills"><g><path class="js-fill" d="M0,109.52L8.46,122.71L16.92,112.88L25.38,110.19L33.85,106.62L42.31,89.67L50.77,69.75L59.23,68.26L67.69,57.16L76.15,52.67L84.62,52.94L93.08,48.27L101.54,40.53L110,36.08L118.46,42.81L126.92,35.4L135.38,22.16L143.85,52.2L152.31,46.27L160.77,40.71L169.23,66.38L177.69,53.13L186.15,69.88L194.62,55.39L203.08,67.9L211.54,80.05L220,65.53L228.46,72.87L236.92,61.43L245.38,73.04L253.85,81.6L262.31,65.46L270.77,69.7L279.23,67.19L287.69,80.15L296.15,69.02L304.62,71.22L321.54,71.41L330,66.08L346.92,61.19L355.38,79.41L363.85,85.73L372.31,84.99L380.77,89.56L389.23,97.52L397.69,96.5L406.15,104.43L414.62,112.55L423.08,117.49L431.54,124.02L440,120.31L440,124.54L431.54,129.44L423.08,125.82L414.62,118.52L406.15,119.23L397.69,109.51L389.23,103.08L380.77,97.67L372.31,90.08L363.85,90L355.38,84.53L346.92,78.6L338.46,79.95L330,76.37L321.54,82.15L313.08,85.55L304.62,83.27L296.15,83.49L287.69,87.72L279.23,82.73L270.77,84.62L262.31,79.69L253.85,85.57L245.38,82.2L236.92,80.36L228.46,83.57L220,83.58L211.54,83.65L203.08,81.85L194.62,76.07L186.15,77.15L177.69,71.92L169.23,73.6L160.77,64.9L152.31,66L143.85,70.75L135.38,55.39L126.92,60.2L118.46,56.34L110,57.77L101.54,51.02L93.08,54.41L76.15,65.91L67.69,71.93L33.85,115.96L25.38,124.67L16.92,129.16L8.46,133.62L0,132.46Z" style="fill: rgb(252, 141, 89); fill-opacity: 1; stroke-width: 0;"/></g></g><g class="errorbars"/><g class="lines"><path class="js-line" d="M0,132.46L8.46,133.62L16.92,129.16L25.38,124.67L33.85,115.96L67.69,71.93L76.15,65.91L93.08,54.41L101.54,51.02L110,57.77L118.46,56.34L126.92,60.2L135.38,55.39L143.85,70.75L152.31,66L160.77,64.9L169.23,73.6L177.69,71.92L186.15,77.15L194.62,76.07L203.08,81.85L211.54,83.65L220,83.58L228.46,83.57L236.92,80.36L245.38,82.2L253.85,85.57L262.31,79.69L270.77,84.62L279.23,82.73L287.69,87.72L296.15,83.49L304.62,83.27L313.08,85.55L321.54,82.15L330,76.37L338.46,79.95L346.92,78.6L355.38,84.53L363.85,90L372.31,90.08L380.77,97.67L389.23,103.08L397.69,109.51L406.15,119.23L414.62,118.52L423.08,125.82L431.54,129.44L440,124.54" style="vector-effect: non-scaling-stroke; fill: none; stroke: rgb(0, 0, 0); stroke-opacity: 1; stroke-width: 0.5px; opacity: 1;"/></g><g class="points"/><g class="text"/></g><g class="trace scatter trace944d4f" style="stroke-miterlimit: 2;"><g class="fills"/><g class="errorbars"/><g class="lines"><path class="js-line" d="M0,109.52L8.46,122.71L16.92,112.88L25.38,110.19L33.85,106.62L42.31,89.67L50.77,69.75L59.23,68.26L67.69,57.16L76.15,52.67L84.62,52.94L93.08,48.27L101.54,40.53L110,36.08L118.46,42.81L126.92,35.4L135.38,22.16L143.85,52.2L152.31,46.27L160.77,40.71L169.23,66.38L177.69,53.13L186.15,69.88L194.62,55.39L203.08,67.9L211.54,80.05L220,65.53L228.46,72.87L236.92,61.43L245.38,73.04L253.85,81.6L262.31,65.46L270.77,69.7L279.23,67.19L287.69,80.15L296.15,69.02L304.62,71.22L321.54,71.41L330,66.08L346.92,61.19L355.38,79.41L363.85,85.73L372.31,84.99L380.77,89.56L389.23,97.52L397.69,96.5L406.15,104.43L414.62,112.55L423.08,117.49L431.54,124.02L440,120.31" style="vector-effect: non-scaling-stroke; fill: none; stroke: rgb(0, 0, 0); stroke-opacity: 1; stroke-width: 0.25px; opacity: 1;"/></g><g class="points"/><g class="text"/></g><g class="trace scatter trace49966b" style="stroke-miterlimit: 2; opacity: 1;"><g class="fills"/><g class="errorbars"/><g class="lines"/><g class="points"><path class="point" transform="translate(177.69,74.4)" d="M4,0A4,4 0 1,1 0,-4A4,4 0 0,1 4,0ZM0,0.5L0.5,0L0,-0.5L-0.5,0Z" style="opacity: 1; stroke: rgb(0, 0, 0); stroke-opacity: 1; stroke-width: 1px; fill: none;"/><path class="point" transform="translate(186.15,55.8)" d="M4,0A4,4 0 1,1 0,-4A4,4 0 0,1 4,0ZM0,0.5L0.5,0L0,-0.5L-0.5,0Z" style="opacity: 1; stroke: rgb(0, 0, 0); stroke-opacity: 1; stroke-width: 1px; fill: none;"/><path class="point" transform="translate(194.62,74.4)" d="M4,0A4,4 0 1,1 0,-4A4,4 0 0,1 4,0ZM0,0.5L0.5,0L0,-0.5L-0.5,0Z" style="opacity: 1; stroke: rgb(0, 0, 0); stroke-opacity: 1; stroke-width: 1px; fill: none;"/><path class="point" transform="translate(203.08,74.4)" d="M4,0A4,4 0 1,1 0,-4A4,4 0 0,1 4,0ZM0,0.5L0.5,0L0,-0.5L-0.5,0Z" style="opacity: 1; stroke: rgb(0, 0, 0); stroke-opacity: 1; stroke-width: 1px; fill: none;"/></g><g class="text"/></g></g></g><g class="overplot"/><path class="xlines-above crisp" d="M0,0" style="fill: none;"/><path class="ylines-above crisp" d="M0,0" style="fill: none;"/><g class="overlines-above"/><g class="xaxislayer-above"/><g class="yaxislayer-above"><g class="y2tick"><text text-anchor="end" x="79" y="4.199999999999999" transform="translate(0,472.00000000000006)" style="font-family: 'Open Sans', verdana, arial, sans-serif; font-size: 12px; fill: rgb(42, 63, 95); fill-opacity: 1; white-space: pre; opacity: 1;">20</text></g><g class="y2tick"><text text-anchor="end" x="79" y="4.199999999999999" style="font-family: 'Open Sans', verdana, arial, sans-serif; font-size: 12px; fill: rgb(42, 63, 95); fill-opacity: 1; white-space: pre; opacity: 1;" transform="translate(0,410.00000000000006)">30</text></g><g class="y2tick"><text text-anchor="end" x="79" y="4.199999999999999" style="font-family: 'Open Sans', verdana, arial, sans-serif; font-size: 12px; fill: rgb(42, 63, 95); fill-opacity: 1; white-space: pre; opacity: 1;" transform="translate(0,348.00000000000006)">40</text></g></g><g class="overaxes-above"/></g><g class="subplot x3y3"><g class="layer-subplot"><g class="shapelayer"/><g class="imagelayer"/></g><g class="minor-gridlayer"><g class="x3"/><g class="y3"/></g><g class="gridlayer"><g class="x3"><path class="x3grid crisp" transform="translate(156.15,0)" d="M0,534v186" style="stroke: rgb(255, 255, 255); stroke-opacity: 1; stroke-width: 1px;"/><path class="x3grid crisp" transform="translate(240.77,0)" d="M0,534v186" style="stroke: rgb(255, 255, 255); stroke-opacity: 1; stroke-width: 1px;"/><path class="x3grid crisp" transform="translate(325.38,0)" d="M0,534v186" style="stroke: rgb(255, 255, 255); stroke-opacity: 1; stroke-width: 1px;"/><path class="x3grid crisp" transform="translate(410,0)" d="M0,534v186" style="stroke: rgb(255, 255, 255); stroke-opacity: 1; stroke-width: 1px;"/><path class="x3grid crisp" transform="translate(494.62,0)" d="M0,534v186" style="stroke: rgb(255, 255, 255); stroke-opacity: 1; stroke-width: 1px;"/></g><g class="y3"><path class="y3grid crisp" transform="translate(0,682.8)" d="M80,0h440" style="stroke: rgb(255, 255, 255); stroke-opacity: 1; stroke-width: 1px;"/><path class="y3grid crisp" transform="translate(0,645.6)" d="M80,0h440" style="stroke: rgb(255, 255, 255); stroke-opacity: 1; stroke-width: 1px;"/><path class="y3grid crisp" transform="translate(0,608.4)" d="M80,0h440" style="stroke: rgb(255, 255, 255); stroke-opacity: 1; stroke-width: 1px;"/><path class="y3grid crisp" transform="translate(0,571.2)" d="M80,0h440" style="stroke: rgb(255, 255, 255); stroke-opacity: 1; stroke-width: 1px;"/></g></g><g class="zerolinelayer"/><path class="xlines-below"/><path class="ylines-below"/><g class="overlines-below"/><g class="xaxislayer-below"/><g class="yaxislayer-below"/><g class="overaxes-below"/><g class="plot" transform="translate(80,534)" clip-path="url(#clip60bf2bx3y3plot)"><g class="scatterlayer mlayer"><g class="trace scatter traceb4c8f2" style="stroke-miterlimit: 2;"><g class="fills"><g><path class="js-fill" d="M0,125.25L8.46,134.08L16.92,125.79L25.38,122.63L33.85,120.53L42.31,109.09L50.77,105.51L59.23,99.09L67.69,82.35L84.62,73.72L93.08,65.54L101.54,61.72L110,63.56L118.46,59.57L126.92,53.42L143.85,53.6L152.31,47.01L169.23,38.91L177.69,39.37L186.15,36.5L194.62,36.37L203.08,35.9L211.54,36.6L220,35.27L228.46,36.47L236.92,37.55L245.38,37.7L253.85,37.75L262.31,36.97L270.77,37.17L279.23,38.45L296.15,37.96L304.62,39.5L313.08,41.5L321.54,41.03L330,42.87L338.46,46.49L355.38,51.62L363.85,62.92L372.31,69.64L380.77,80.38L389.23,87.2L397.69,98.07L406.15,104.49L414.62,108.05L423.08,119.58L431.54,122.14L440,136.53L440,139.39L431.54,139.94L423.08,135.15L414.62,121.8L406.15,117.29L397.69,110.94L380.77,92.32L372.31,81.62L355.38,57.03L346.92,55.73L330,48.61L321.54,43.23L313.08,48.4L304.62,42.87L296.15,40.28L287.69,40.91L270.77,38.8L262.31,41.86L253.85,39.98L245.38,40.55L236.92,39.57L228.46,38.35L220,37.9L211.54,38.19L203.08,40.46L194.62,40.79L186.15,42.53L177.69,47.21L169.23,43.43L160.77,49.83L152.31,53.84L143.85,59.31L135.38,62.1L126.92,65.7L118.46,65.07L110,75.05L93.08,80.23L84.62,88.83L76.15,100.3L67.69,92.74L59.23,111.93L50.77,135.28L42.31,129.62L33.85,144.31L16.92,139.66L8.46,143.33L0,128.9Z" style="fill: rgb(90, 180, 172); fill-opacity: 1; stroke-width: 0;"/></g></g><g class="errorbars"/><g class="lines"><path class="js-line" d="M0,128.9L8.46,143.33L16.92,139.66L33.85,144.31L42.31,129.62L50.77,135.28L59.23,111.93L67.69,92.74L76.15,100.3L84.62,88.83L93.08,80.23L110,75.05L118.46,65.07L126.92,65.7L135.38,62.1L143.85,59.31L152.31,53.84L160.77,49.83L169.23,43.43L177.69,47.21L186.15,42.53L194.62,40.79L203.08,40.46L211.54,38.19L220,37.9L228.46,38.35L236.92,39.57L245.38,40.55L253.85,39.98L262.31,41.86L270.77,38.8L287.69,40.91L296.15,40.28L304.62,42.87L313.08,48.4L321.54,43.23L330,48.61L346.92,55.73L355.38,57.03L372.31,81.62L380.77,92.32L397.69,110.94L406.15,117.29L414.62,121.8L423.08,135.15L431.54,139.94L440,139.39" style="vector-effect: non-scaling-stroke; fill: none; stroke: rgb(0, 0, 0); stroke-opacity: 1; stroke-width: 0.25px; opacity: 1;"/></g><g class="points"/><g class="text"/></g><g class="trace scatter trace1e3ced" style="stroke-miterlimit: 2;"><g class="fills"><g><path class="js-fill" d="M0,119.24L8.46,125.25L16.92,117.47L25.38,114.81L33.85,113.13L42.31,100.76L50.77,94.43L59.23,86.48L67.69,77.31L76.15,73.41L84.62,64.73L93.08,55.43L101.54,52.6L110,53.47L118.46,55.19L126.92,49.52L135.38,48.75L143.85,49.82L152.31,42.31L160.77,38.94L169.23,38.18L177.69,36.9L186.15,34.74L203.08,34.63L211.54,35.38L220,34.15L228.46,34.37L253.85,36.86L262.31,34.55L270.77,35.56L279.23,35.67L296.15,37.25L304.62,38.75L321.54,37.81L330,40.12L338.46,41.11L346.92,45.05L355.38,49.84L363.85,58.34L372.31,61.4L380.77,71.95L397.69,90.37L406.15,96.5L423.08,108.86L431.54,116.99L440,127.76L440,136.53L431.54,122.14L423.08,119.58L414.62,108.05L406.15,104.49L397.69,98.07L389.23,87.2L380.77,80.38L372.31,69.64L363.85,62.92L355.38,51.62L338.46,46.49L330,42.87L321.54,41.03L313.08,41.5L304.62,39.5L296.15,37.96L279.23,38.45L270.77,37.17L262.31,36.97L253.85,37.75L245.38,37.7L236.92,37.55L228.46,36.47L220,35.27L211.54,36.6L203.08,35.9L194.62,36.37L186.15,36.5L177.69,39.37L169.23,38.91L152.31,47.01L143.85,53.6L126.92,53.42L118.46,59.57L110,63.56L101.54,61.72L93.08,65.54L84.62,73.72L67.69,82.35L59.23,99.09L50.77,105.51L42.31,109.09L33.85,120.53L25.38,122.63L16.92,125.79L8.46,134.08L0,125.25Z" style="fill: rgb(245, 245, 245); fill-opacity: 1; stroke-width: 0;"/></g></g><g class="errorbars"/><g class="lines"><path class="js-line" d="M0,125.25L8.46,134.08L16.92,125.79L25.38,122.63L33.85,120.53L42.31,109.09L50.77,105.51L59.23,99.09L67.69,82.35L84.62,73.72L93.08,65.54L101.54,61.72L110,63.56L118.46,59.57L126.92,53.42L143.85,53.6L152.31,47.01L169.23,38.91L177.69,39.37L186.15,36.5L194.62,36.37L203.08,35.9L211.54,36.6L220,35.27L228.46,36.47L236.92,37.55L245.38,37.7L253.85,37.75L262.31,36.97L270.77,37.17L279.23,38.45L296.15,37.96L304.62,39.5L313.08,41.5L321.54,41.03L330,42.87L338.46,46.49L355.38,51.62L363.85,62.92L372.31,69.64L380.77,80.38L389.23,87.2L397.69,98.07L406.15,104.49L414.62,108.05L423.08,119.58L431.54,122.14L440,136.53" style="vector-effect: non-scaling-stroke; fill: none; stroke: rgb(0, 0, 0); stroke-opacity: 1; stroke-width: 0.5px; opacity: 1;"/></g><g class="points"/><g class="text"/></g><g class="trace scatter trace67253b" style="stroke-miterlimit: 2;"><g class="fills"><g><path class="js-fill" d="M0,113.15L8.46,115.48L16.92,112.91L25.38,109.1L33.85,102.2L42.31,91.05L50.77,85.12L59.23,75.53L67.69,67.08L76.15,62.67L84.62,56.73L93.08,52.65L101.54,46.39L110,48.81L118.46,46.38L126.92,44.03L135.38,45.73L143.85,41.5L152.31,40.96L160.77,36.78L169.23,34.78L177.69,32.64L186.15,32.13L194.62,31.57L203.08,31.94L211.54,33.03L220,32.02L228.46,32.01L236.92,32.9L245.38,34.88L253.85,33.05L262.31,31.91L270.77,33.74L279.23,32.78L287.69,34.32L296.15,36.35L304.62,37.25L313.08,35.94L321.54,36.24L330,34.54L338.46,38.02L346.92,40.52L355.38,47.12L363.85,53.85L372.31,56.23L389.23,75.79L397.69,85.75L406.15,92.11L414.62,95.29L423.08,97.95L431.54,109.26L440,121.99L440,127.76L431.54,116.99L423.08,108.86L406.15,96.5L397.69,90.37L380.77,71.95L372.31,61.4L363.85,58.34L355.38,49.84L346.92,45.05L338.46,41.11L330,40.12L321.54,37.81L304.62,38.75L296.15,37.25L279.23,35.67L270.77,35.56L262.31,34.55L253.85,36.86L228.46,34.37L220,34.15L211.54,35.38L203.08,34.63L186.15,34.74L177.69,36.9L169.23,38.18L160.77,38.94L152.31,42.31L143.85,49.82L135.38,48.75L126.92,49.52L118.46,55.19L110,53.47L101.54,52.6L93.08,55.43L84.62,64.73L76.15,73.41L67.69,77.31L59.23,86.48L50.77,94.43L42.31,100.76L33.85,113.13L25.38,114.81L16.92,117.47L8.46,125.25L0,119.24Z" style="fill: rgb(245, 245, 245); fill-opacity: 1; stroke-width: 0;"/></g></g><g class="errorbars"/><g class="lines"><path class="js-line" d="M0,119.24L8.46,125.25L16.92,117.47L25.38,114.81L33.85,113.13L42.31,100.76L50.77,94.43L59.23,86.48L67.69,77.31L76.15,73.41L84.62,64.73L93.08,55.43L101.54,52.6L110,53.47L118.46,55.19L126.92,49.52L135.38,48.75L143.85,49.82L152.31,42.31L160.77,38.94L169.23,38.18L177.69,36.9L186.15,34.74L203.08,34.63L211.54,35.38L220,34.15L228.46,34.37L253.85,36.86L262.31,34.55L270.77,35.56L279.23,35.67L296.15,37.25L304.62,38.75L321.54,37.81L330,40.12L338.46,41.11L346.92,45.05L355.38,49.84L363.85,58.34L372.31,61.4L380.77,71.95L397.69,90.37L406.15,96.5L423.08,108.86L431.54,116.99L440,127.76" style="vector-effect: non-scaling-stroke; fill: none; stroke: rgb(0, 0, 0); stroke-opacity: 1; stroke-width: 1px; opacity: 1;"/></g><g class="points"/><g class="text"/></g><g class="trace scatter trace77f9d4" style="stroke-miterlimit: 2;"><g class="fills"><g><path class="js-fill" d="M0,104.2L8.46,104.76L16.92,101.79L25.38,93.74L33.85,86.76L42.31,81.95L50.77,56.75L59.23,63.11L67.69,54.07L76.15,40.65L84.62,47.77L93.08,41.78L101.54,39.85L110,35.24L118.46,37.37L126.92,37.39L135.38,34.1L143.85,30.76L152.31,34.09L160.77,28.62L169.23,32.35L177.69,28.93L186.15,29.22L194.62,24.97L203.08,27.98L211.54,30.55L220,31.14L228.46,27.3L236.92,26.6L245.38,30.84L253.85,26.54L262.31,29.59L270.77,31.07L279.23,25.29L287.69,34.02L296.15,36.34L304.62,35.59L313.08,28.52L321.54,30.79L330,23.39L338.46,31.13L346.92,33.67L355.38,40.86L363.85,47.16L372.31,51.23L380.77,59.64L389.23,65.8L397.69,74.89L406.15,78.95L414.62,79.11L423.08,87.91L431.54,99.16L440,100.18L440,121.99L431.54,109.26L423.08,97.95L414.62,95.29L406.15,92.11L397.69,85.75L389.23,75.79L372.31,56.23L363.85,53.85L355.38,47.12L346.92,40.52L338.46,38.02L330,34.54L321.54,36.24L313.08,35.94L304.62,37.25L296.15,36.35L287.69,34.32L279.23,32.78L270.77,33.74L262.31,31.91L253.85,33.05L245.38,34.88L236.92,32.9L228.46,32.01L220,32.02L211.54,33.03L203.08,31.94L194.62,31.57L186.15,32.13L177.69,32.64L169.23,34.78L160.77,36.78L152.31,40.96L143.85,41.5L135.38,45.73L126.92,44.03L118.46,46.38L110,48.81L101.54,46.39L93.08,52.65L84.62,56.73L76.15,62.67L67.69,67.08L59.23,75.53L50.77,85.12L42.31,91.05L33.85,102.2L25.38,109.1L16.92,112.91L8.46,115.48L0,113.15Z" style="fill: rgb(216, 179, 101); fill-opacity: 1; stroke-width: 0;"/></g></g><g class="errorbars"/><g class="lines"><path class="js-line" d="M0,113.15L8.46,115.48L16.92,112.91L25.38,109.1L33.85,102.2L42.31,91.05L50.77,85.12L59.23,75.53L67.69,67.08L76.15,62.67L84.62,56.73L93.08,52.65L101.54,46.39L110,48.81L118.46,46.38L126.92,44.03L135.38,45.73L143.85,41.5L152.31,40.96L160.77,36.78L169.23,34.78L177.69,32.64L186.15,32.13L194.62,31.57L203.08,31.94L211.54,33.03L220,32.02L228.46,32.01L236.92,32.9L245.38,34.88L253.85,33.05L262.31,31.91L270.77,33.74L279.23,32.78L287.69,34.32L296.15,36.35L304.62,37.25L313.08,35.94L321.54,36.24L330,34.54L338.46,38.02L346.92,40.52L355.38,47.12L363.85,53.85L372.31,56.23L389.23,75.79L397.69,85.75L406.15,92.11L414.62,95.29L423.08,97.95L431.54,109.26L440,121.99" style="vector-effect: non-scaling-stroke; fill: none; stroke: rgb(0, 0, 0); stroke-opacity: 1; stroke-width: 0.5px; opacity: 1;"/></g><g class="points"/><g class="text"/></g><g class="trace scatter tracee29b7f" style="stroke-miterlimit: 2;"><g class="fills"/><g class="errorbars"/><g class="lines"><path class="js-line" d="M0,104.2L8.46,104.76L16.92,101.79L25.38,93.74L33.85,86.76L42.31,81.95L50.77,56.75L59.23,63.11L67.69,54.07L76.15,40.65L84.62,47.77L93.08,41.78L101.54,39.85L110,35.24L118.46,37.37L126.92,37.39L135.38,34.1L143.85,30.76L152.31,34.09L160.77,28.62L169.23,32.35L177.69,28.93L186.15,29.22L194.62,24.97L203.08,27.98L211.54,30.55L220,31.14L228.46,27.3L236.92,26.6L245.38,30.84L253.85,26.54L262.31,29.59L270.77,31.07L279.23,25.29L287.69,34.02L296.15,36.34L304.62,35.59L313.08,28.52L321.54,30.79L330,23.39L338.46,31.13L346.92,33.67L355.38,40.86L363.85,47.16L372.31,51.23L380.77,59.64L389.23,65.8L397.69,74.89L406.15,78.95L414.62,79.11L423.08,87.91L431.54,99.16L440,100.18" style="vector-effect: non-scaling-stroke; fill: none; stroke: rgb(0, 0, 0); stroke-opacity: 1; stroke-width: 0.25px; opacity: 1;"/></g><g class="points"/><g class="text"/></g><g class="trace scatter traceb046d2" style="stroke-miterlimit: 2; opacity: 1;"><g class="fills"/><g class="errorbars"/><g class="lines"/><g class="points"><path class="point" transform="translate(177.69,37.2)" d="M4,0A4,4 0 1,1 0,-4A4,4 0 0,1 4,0ZM0,0.5L0.5,0L0,-0.5L-0.5,0Z" style="opacity: 1; stroke: rgb(0, 0, 0); stroke-opacity: 1; stroke-width: 1px; fill: none;"/><path class="point" transform="translate(186.15,29.76)" d="M4,0A4,4 0 1,1 0,-4A4,4 0 0,1 4,0ZM0,0.5L0.5,0L0,-0.5L-0.5,0Z" style="opacity: 1; stroke: rgb(0, 0, 0); stroke-opacity: 1; stroke-width: 1px; fill: none;"/><path class="point" transform="translate(194.62,29.76)" d="M4,0A4,4 0 1,1 0,-4A4,4 0 0,1 4,0ZM0,0.5L0.5,0L0,-0.5L-0.5,0Z" style="opacity: 1; stroke: rgb(0, 0, 0); stroke-opacity: 1; stroke-width: 1px; fill: none;"/><path class="point" transform="translate(203.08,29.76)" d="M4,0A4,4 0 1,1 0,-4A4,4 0 0,1 4,0ZM0,0.5L0.5,0L0,-0.5L-0.5,0Z" style="opacity: 1; stroke: rgb(0, 0, 0); stroke-opacity: 1; stroke-width: 1px; fill: none;"/></g><g class="text"/></g></g></g><g class="overplot"/><path class="xlines-above crisp" d="M0,0" style="fill: none;"/><path class="ylines-above crisp" d="M0,0" style="fill: none;"/><g class="overlines-above"/><g class="xaxislayer-above"><g class="x3tick"><text text-anchor="middle" x="0" y="733" transform="translate(156.15,0)" style="font-family: 'Open Sans', verdana, arial, sans-serif; font-size: 12px; fill: rgb(42, 63, 95); fill-opacity: 1; white-space: pre; opacity: 1;">10</text></g><g class="x3tick"><text text-anchor="middle" x="0" y="733" style="font-family: 'Open Sans', verdana, arial, sans-serif; font-size: 12px; fill: rgb(42, 63, 95); fill-opacity: 1; white-space: pre; opacity: 1;" transform="translate(240.77,0)">20</text></g><g class="x3tick"><text text-anchor="middle" x="0" y="733" style="font-family: 'Open Sans', verdana, arial, sans-serif; font-size: 12px; fill: rgb(42, 63, 95); fill-opacity: 1; white-space: pre; opacity: 1;" transform="translate(325.38,0)">30</text></g><g class="x3tick"><text text-anchor="middle" x="0" y="733" style="font-family: 'Open Sans', verdana, arial, sans-serif; font-size: 12px; fill: rgb(42, 63, 95); fill-opacity: 1; white-space: pre; opacity: 1;" transform="translate(410,0)">40</text></g><g class="x3tick"><text text-anchor="middle" x="0" y="733" style="font-family: 'Open Sans', verdana, arial, sans-serif; font-size: 12px; fill: rgb(42, 63, 95); fill-opacity: 1; white-space: pre; opacity: 1;" transform="translate(494.62,0)">50</text></g></g><g class="yaxislayer-above"><g class="y3tick"><text text-anchor="end" x="79" y="4.199999999999999" transform="translate(0,720)" style="font-family: 'Open Sans', verdana, arial, sans-serif; font-size: 12px; fill: rgb(42, 63, 95); fill-opacity: 1; white-space: pre; opacity: 1;">5</text></g><g class="y3tick"><text text-anchor="end" x="79" y="4.199999999999999" style="font-family: 'Open Sans', verdana, arial, sans-serif; font-size: 12px; fill: rgb(42, 63, 95); fill-opacity: 1; white-space: pre; opacity: 1;" transform="translate(0,682.8)">10</text></g><g class="y3tick"><text text-anchor="end" x="79" y="4.199999999999999" style="font-family: 'Open Sans', verdana, arial, sans-serif; font-size: 12px; fill: rgb(42, 63, 95); fill-opacity: 1; white-space: pre; opacity: 1;" transform="translate(0,645.6)">15</text></g><g class="y3tick"><text text-anchor="end" x="79" y="4.199999999999999" style="font-family: 'Open Sans', verdana, arial, sans-serif; font-size: 12px; fill: rgb(42, 63, 95); fill-opacity: 1; white-space: pre; opacity: 1;" transform="translate(0,608.4)">20</text></g><g class="y3tick"><text text-anchor="end" x="79" y="4.199999999999999" style="font-family: 'Open Sans', verdana, arial, sans-serif; font-size: 12px; fill: rgb(42, 63, 95); fill-opacity: 1; white-space: pre; opacity: 1;" transform="translate(0,571.2)">25</text></g><g class="y3tick"><text text-anchor="end" x="79" y="4.199999999999999" style="font-family: 'Open Sans', verdana, arial, sans-serif; font-size: 12px; fill: rgb(42, 63, 95); fill-opacity: 1; white-space: pre; opacity: 1;" transform="translate(0,534)">30</text></g></g><g class="overaxes-above"/></g></g><g class="polarlayer"/><g class="smithlayer"/><g class="ternarylayer"/><g class="geolayer"/><g class="funnelarealayer"/><g class="pielayer"/><g class="iciclelayer"/><g class="treemaplayer"/><g class="sunburstlayer"/><g class="glimages"/><defs id="topdefs-60bf2b"><g class="clips"/></defs><g class="layer-above"><g class="imagelayer"/><g class="shapelayer"/></g><g class="infolayer"><g class="g-gtitle"><text class="gtitle" x="30" y="50" text-anchor="start" dy="0em" style="font-family: 'Open Sans', verdana, arial, sans-serif; font-size: 17px; fill: rgb(42, 63, 95); opacity: 1; font-weight: normal; white-space: pre;">Climatology and S2S forecast for Pabna</text></g><g class="g-xtitle"/><g class="g-x2title"/><g class="g-x3title"/><g class="g-ytitle"><text class="ytitle" transform="rotate(-90,34.16875,193)" x="34.16875" y="193" text-anchor="middle" style="font-family: 'Open Sans', verdana, arial, sans-serif; font-size: 14px; fill: rgb(42, 63, 95); opacity: 1; font-weight: normal; white-space: pre;">[mm]</text></g><g class="g-y2title"><text class="y2title" transform="rotate(-90,40.840625,410.00000000000006)" x="40.840625" y="410.00000000000006" text-anchor="middle" style="font-family: 'Open Sans', verdana, arial, sans-serif; font-size: 14px; fill: rgb(42, 63, 95); opacity: 1; font-weight: normal; white-space: pre;">[C]</text></g><g class="g-y3title"><text class="y3title" transform="rotate(-90,40.840625,627)" x="40.840625" y="627" text-anchor="middle" style="font-family: 'Open Sans', verdana, arial, sans-serif; font-size: 14px; fill: rgb(42, 63, 95); opacity: 1; font-weight: normal; white-space: pre;">[C]</text></g><g class="annotation" data-index="0" style="opacity: 1;"><g class="annotation-text-g" transform="rotate(0,300,89.5)"><g class="cursor-pointer" transform="translate(237,79)"><rect class="bg" x="0.5" y="0.5" width="126" height="20" style="stroke-width: 1px; stroke: rgb(0, 0, 0); stroke-opacity: 0; fill: rgb(0, 0, 0); fill-opacity: 0;"/><text class="annotation-text" text-anchor="middle" x="63.359375" y="16" style="font-family: 'Open Sans', verdana, arial, sans-serif; font-size: 16px; fill: rgb(42, 63, 95); fill-opacity: 1; white-space: pre;">Precipitation sum</text></g></g></g><g class="annotation" data-index="1" style="opacity: 1;"><g class="annotation-text-g" transform="rotate(0,300,306.50000000000006)"><g class="cursor-pointer" transform="translate(196,296)"><rect class="bg" x="0.5" y="0.5" width="208" height="20" style="stroke-width: 1px; stroke: rgb(0, 0, 0); stroke-opacity: 0; fill: rgb(0, 0, 0); fill-opacity: 0;"/><text class="annotation-text" text-anchor="middle" x="104.265625" y="16" style="font-family: 'Open Sans', verdana, arial, sans-serif; font-size: 16px; fill: rgb(42, 63, 95); fill-opacity: 1; white-space: pre;">Mean maximum temperature</text></g></g></g><g class="annotation" data-index="2" style="opacity: 1;"><g class="annotation-text-g" transform="rotate(0,300,523.5)"><g class="cursor-pointer" transform="translate(198,513)"><rect class="bg" x="0.5" y="0.5" width="203" height="20" style="stroke-width: 1px; stroke: rgb(0, 0, 0); stroke-opacity: 0; fill: rgb(0, 0, 0); fill-opacity: 0;"/><text class="annotation-text" text-anchor="middle" x="102.046875" y="16" style="font-family: 'Open Sans', verdana, arial, sans-serif; font-size: 16px; fill: rgb(42, 63, 95); fill-opacity: 1; white-space: pre;">Mean minimum temperature</text></g></g></g><g class="annotation" data-index="3" style="opacity: 1;"><g class="annotation-text-g" transform="rotate(0,300,760.5)"><g class="cursor-pointer" transform="translate(277,750)"><rect class="bg" x="0.5" y="0.5" width="45" height="20" style="stroke-width: 1px; stroke: rgb(0, 0, 0); stroke-opacity: 0; fill: rgb(0, 0, 0); fill-opacity: 0;"/><text class="annotation-text" text-anchor="middle" x="22.3125" y="16" style="font-family: 'Open Sans', verdana, arial, sans-serif; font-size: 16px; fill: rgb(42, 63, 95); fill-opacity: 1; white-space: pre;">Week</text></g></g></g></g></svg>