<svg class="main-svg" xmlns="http://www.w3.org/2000/svg" xmlns:xlink="http://www.w3.org/1999/xlink" width="600" height="800" style="" viewBox="0 0 600 800"><rect x="0" y="0" width="600" height="800" style="fill: rgb(255, 255, 255); fill-opacity: 1;"/><defs id="defs-94d918"><g class="clips"><clipPath id="clip94d918xyplot" class="plotclip"><rect width="440" height="186.00000000000003"/></clipPath><clipPath id="clip94d918x2y2plot" class="plotclip"><rect width="440" height="185.99999999999997"/></clipPath><clipPath id="clip94d918x3y3plot" class="plotclip"><rect width="440" height="186"/></clipPath><clipPath class="axesclip" id="clip94d918x"><rect x="80" y="0" width="440" height="800"/></clipPath><clipPath class="axesclip" id="clip94d918y"><rect x="0" y="100" width="600" height="186.00000000000003"/></clipPath><clipPath class="axesclip" id="clip94d918xy"><rect x="80" y="100" width="440" height="186.00000000000003"/></clipPath><clipPath class="axesclip" id="clip94d918y2"><rect x="0" y="317.00000000000006" width="600" height="185.99999999999997"/></clipPath><clipPath class="axesclip" id="clip94d918xy2"><rect x="80" y="317.00000000000006" width="440" height="185.99999999999997"/></clipPath><clipPath class="axesclip" id="clip94d918y3"><rect x="0" y="534" width="600" height="186"/></clipPath><clipPath class="axesclip" id="clip94d918xy3"><rect x="80" y="534" width="440" height="186"/></clipPath><clipPath class="axesclip" id="clip94d918x2"><rect x="80" y="0" width="440" height="800"/></clipPath><clipPath class="axesclip" id="clip94d918x2y"><rect x="80" y="100" width="440" height="186.00000000000003"/></clipPath><clipPath class="axesclip" id="clip94d918x2y2"><rect x="80" y="317.00000000000006" width="440" height="185.99999999999997"/></clipPath><clipPath class="axesclip" id="clip94d918x2y3"><rect x="80" y="534" width="440" height="186"/></clipPath><clipPath class="axesclip" id="clip94d918x3"><rect x="80" y="0" width="440" height="800"/></clipPath><clipPath class="axesclip" id="clip94d918x3y"><rect x="80" y="100" width="440" height="186.00000000000003"/></clipPath><clipPath class="axesclip" id="clip94d918x3y2"><rect x="80" y="317.00000000000006" width="440" height="185.99999999999997"/></clipPath><clipPath class="axesclip" id="clip94d918x3y3"><rect x="80" y="534" width="440" height="186"/></clipPath></g><g class="gradients"/><g class="patterns"/></defs><g class="bglayer"><rect class="bg" x="80" y="100" width="440" height="186.00000000000003" style="fill: rgb(229, 236, 246); fill-opacity: 1; stroke-width: 0;"/><rect class="bg" x="80" y="317.00000000000006" width="440" height="185.99999999999997" style="fill: rgb(229, 236, 246); fill-opacity: 1; stroke-width: 0;"/><rect class="bg" x="80" y="534" width="440" height="186" style="fill: rgb(229, 236, 246); fill-opacity: 1; stroke-width: 0;"/></g><g class="layer-below"><g class="imagelayer"/><g class="shapelayer"/></g><g class="cartesianlayer"><g class="subplot xy"><g class="layer-subplot"><g class="shapelayer"/><g class="imagelayer"/></g><g class="minor-gridlayer"><g class="x"/><g class="y"/></g><g class="gridlayer"><g class="x"><path class="xgrid crisp" transform="translate(156.15,0)" d="M0,100v186.00000000000003" style="stroke: rgb(255, 255, 255); stroke-opacity: 1; stroke-width: 1px;"/><path class="xgrid crisp" transform="translate(240.77,0)" d="M0,100v186.00000000000003" style="stroke: rgb(255, 255, 255); stroke-opacity: 1; stroke-width: 1px;"/><path class="xgrid crisp" transform="translate(325.38,0)" d="M0,100v186.00000000000003" style="stroke: rgb(255, 255, 255); stroke-opacity: 1; stroke-width: 1px;"/><path class="xgrid crisp" transform="translate(410,0)" d="M0,100v186.00000000000003" style="stroke: rgb(255, 255, 255); stroke-opacity: 1; stroke-width: 1px;"/><path class="xgrid crisp" transform="translate(494.62,0)" d="M0,100v186.00000000000003" style="stroke: rgb(255, 255, 255); stroke-opacity: 1; stroke-width: 1px;"/></g><g class="y"><path class="ygrid crisp" transform="translate(0,248.8)" d="M80,0h440" style="stroke: rgb(255, 255, 255); stroke-opacity: 1; stroke-width: 1px;"/><path class="ygrid crisp" transform="translate(0,211.6)" d="M80,0h440" style="stroke: rgb(255, 255, 255); stroke-opacity: 1; stroke-width: 1px;"/><path class="ygrid crisp" transform="translate(0,174.4)" d="M80,0h440" style="stroke: rgb(255, 255, 255); stroke-opacity: 1; stroke-width: 1px;"/><path class="ygrid crisp" transform="translate(0,137.2)" d="M80,0h440" style="stroke: rgb(255, 255, 255); stroke-opacity: 1; stroke-width: 1px;"/></g></g><g class="zerolinelayer"><path class="yzl zl crisp" transform="translate(0,286)" d="M80,0h440" style="stroke: rgb(255, 255, 255); stroke-opacity: 1; stroke-width: 2px;"/></g><path class="xlines-below"/><path class="ylines-below"/><g class="overlines-below"/><g class="xaxislayer-below"/><g class="yaxislayer-below"/><g class="overaxes-below"/><g class="plot" transform="translate(80,100)" clip-path="url(#clip94d918xyplot)"><g class="scatterlayer mlayer"><g class="trace scatter trace6a1f9d" style="stroke-miterlimit: 2;"><g class="fills"><g><path class="js-fill" d="M0,186L135.38,185.65L143.85,178.4L152.31,183.4L160.77,183.04L169.23,171.84L177.69,171.92L186.15,154.32L194.62,164.12L203.08,155.93L211.54,154.57L220,152.93L228.46,163.03L236.92,157.63L245.38,138.72L253.85,152.53L262.31,152.54L270.77,150.67L279.23,165.15L287.69,165.7L296.15,168.76L304.62,170.6L313.08,162.89L321.54,168.06L330,177.47L338.46,174.28L346.92,184.83L355.38,186L363.85,186L440,186L440,186L330,186L321.54,185.98L313.08,184.63L304.62,184.56L296.15,182.92L287.69,180.86L279.23,184.51L270.77,163.53L262.31,179.37L253.85,172.42L245.38,186L236.92,183.31L228.46,184.32L220,175.66L211.54,177.83L203.08,186L160.77,186L152.31,186L143.85,181.64L135.38,186L0,186Z" style="fill: rgb(224, 236, 244); fill-opacity: 1; stroke-width: 0;"/></g></g><g class="errorbars"/><g class="lines"><path class="js-line" d="M0,186L135.38,186L143.85,181.64L152.31,186L160.77,186L203.08,186L211.54,177.83L220,175.66L228.46,184.32L236.92,183.31L245.38,186L253.85,172.42L262.31,179.37L270.77,163.53L279.23,184.51L287.69,180.86L296.15,182.92L304.62,184.56L313.08,184.63L321.54,185.98L330,186L440,186" style="vector-effect: non-scaling-stroke; fill: none; stroke: rgb(0, 0, 0); stroke-opacity: 1; stroke-width: 0.25px; opacity: 1;"/></g><g class="points"/><g class="text"/></g><g class="trace scatter trace423758" style="stroke-miterlimit: 2;"><g class="fills"><g><path class="js-fill" d="M0,186L101.54,185.65L110,176.14L118.46,185.57L126.92,185.63L143.85,157.05L152.31,173.91L160.77,169.78L169.23,152.65L177.69,148.44L186.15,132.53L194.62,138.24L203.08,135.93L211.54,134.84L220,141.84L228.46,140.2L236.92,120.69L245.38,127.37L253.85,138.26L262.31,115.65L270.77,134.95L279.23,147.02L287.69,151.33L296.15,153.03L304.62,140.83L313.08,140.37L321.54,143.82L330,155.79L338.46,163.85L346.92,174.95L355.38,184.45L372.31,186L380.77,186L440,186L440,186L363.85,186L355.38,186L346.92,184.83L338.46,174.28L330,177.47L321.54,168.06L313.08,162.89L304.62,170.6L296.15,168.76L287.69,165.7L279.23,165.15L270.77,150.67L262.31,152.54L253.85,152.53L245.38,138.72L236.92,157.63L228.46,163.03L220,152.93L211.54,154.57L203.08,155.93L194.62,164.12L186.15,154.32L177.69,171.92L169.23,171.84L160.77,183.04L152.31,183.4L143.85,178.4L135.38,185.65L0,186Z" style="fill: rgb(158, 188, 218); fill-opacity: 1; stroke-width: 0;"/></g></g><g class="errorbars"/><g class="lines"><path class="js-line" d="M0,186L135.38,185.65L143.85,178.4L152.31,183.4L160.77,183.04L169.23,171.84L177.69,171.92L186.15,154.32L194.62,164.12L203.08,155.93L211.54,154.57L220,152.93L228.46,163.03L236.92,157.63L245.38,138.72L253.85,152.53L262.31,152.54L270.77,150.67L279.23,165.15L287.69,165.7L296.15,168.76L304.62,170.6L313.08,162.89L321.54,168.06L330,177.47L338.46,174.28L346.92,184.83L355.38,186L363.85,186L440,186" style="vector-effect: non-scaling-stroke; fill: none; stroke: rgb(0, 0, 0); stroke-opacity: 1; stroke-width: 0.5px; opacity: 1;"/></g><g class="points"/><g class="text"/></g><g class="trace scatter trace2c390a" style="stroke-miterlimit: 2;"><g class="fills"><g><path class="js-fill" d="M0,186L42.31,186L50.77,182.28L59.23,185.48L67.69,184.14L76.15,179.75L84.62,182.37L93.08,182.91L101.54,178.22L110,160.93L118.46,164.53L126.92,170.01L135.38,157.75L143.85,143.68L152.31,151.13L160.77,150.23L169.23,128.93L177.69,109.15L186.15,127.97L194.62,73.99L203.08,79.13L211.54,82.39L220,89.82L228.46,102.85L236.92,84.92L245.38,105.17L253.85,115.36L262.31,97.5L270.77,112.24L279.23,139.5L287.69,138.08L296.15,134.61L304.62,122.36L313.08,110.82L321.54,113.92L330,141.3L338.46,118.26L346.92,156.13L355.38,153.47L363.85,178.79L372.31,185.42L389.23,186L397.69,186L440,186L440,186L380.77,186L372.31,186L355.38,184.45L346.92,174.95L338.46,163.85L330,155.79L321.54,143.82L313.08,140.37L304.62,140.83L296.15,153.03L287.69,151.33L279.23,147.02L270.77,134.95L262.31,115.65L253.85,138.26L245.38,127.37L236.92,120.69L228.46,140.2L220,141.84L211.54,134.84L203.08,135.93L194.62,138.24L186.15,132.53L177.69,148.44L169.23,152.65L160.77,169.78L152.31,173.91L143.85,157.05L126.92,185.63L118.46,185.57L110,176.14L101.54,185.65L0,186Z" style="fill: rgb(158, 188, 218); fill-opacity: 1; stroke-width: 0;"/></g></g><g class="errorbars"/><g class="lines"><path class="js-line" d="M0,186L101.54,185.65L110,176.14L118.46,185.57L126.92,185.63L143.85,157.05L152.31,173.91L160.77,169.78L169.23,152.65L177.69,148.44L186.15,132.53L194.62,138.24L203.08,135.93L211.54,134.84L220,141.84L228.46,140.2L236.92,120.69L245.38,127.37L253.85,138.26L262.31,115.65L270.77,134.95L279.23,147.02L287.69,151.33L296.15,153.03L304.62,140.83L313.08,140.37L321.54,143.82L330,155.79L338.46,163.85L346.92,174.95L355.38,184.45L372.31,186L380.77,186L440,186" style="vector-effect: non-scaling-stroke; fill: none; stroke: rgb(0, 0, 0); stroke-opacity: 1; stroke-width: 1px; opacity: 1;"/></g><g class="points"/><g class="text"/></g><g class="trace scatter traceddb3f5" style="stroke-miterlimit: 2;"><g class="fills"><g><path class="js-fill" d="M0,186L42.31,186L50.77,177.41L59.23,185.3L67.69,183.01L76.15,172.56L84.62,177.66L93.08,179.26L101.54,172.66L110,139.22L118.46,148.98L126.92,153.11L135.38,133.63L143.85,107.01L152.31,115.37L160.77,118.09L169.23,98.05L177.69,70.32L186.15,102.72L194.62,-21.03L203.08,-6.81L211.54,-15.17L220,0.11L228.46,53.08L236.92,18.28L245.38,83.36L253.85,82.58L262.31,72.86L270.77,77.31L279.23,120.21L287.69,133.05L296.15,92.61L304.62,69.44L313.08,81.54L321.54,92.3L330,104.39L338.46,56.42L346.92,146.8L355.38,124.95L363.85,177.82L372.31,185.24L389.23,186L397.69,186L440,186L440,186L397.69,186L389.23,186L372.31,185.42L363.85,178.79L355.38,153.47L346.92,156.13L338.46,118.26L330,141.3L321.54,113.92L313.08,110.82L304.62,122.36L296.15,134.61L287.69,138.08L279.23,139.5L270.77,112.24L262.31,97.5L253.85,115.36L245.38,105.17L236.92,84.92L228.46,102.85L220,89.82L211.54,82.39L203.08,79.13L194.62,73.99L186.15,127.97L177.69,109.15L169.23,128.93L160.77,150.23L152.31,151.13L143.85,143.68L135.38,157.75L126.92,170.01L118.46,164.53L110,160.93L101.54,178.22L93.08,182.91L84.62,182.37L76.15,179.75L67.69,184.14L59.23,185.48L50.77,182.28L42.31,186L0,186Z" style="fill: rgb(136, 86, 167); fill-opacity: 1; stroke-width: 0;"/></g></g><g class="errorbars"/><g class="lines"><path class="js-line" d="M0,186L42.31,186L50.77,182.28L59.23,185.48L67.69,184.14L76.15,179.75L84.62,182.37L93.08,182.91L101.54,178.22L110,160.93L118.46,164.53L126.92,170.01L135.38,157.75L143.85,143.68L152.31,151.13L160.77,150.23L169.23,128.93L177.69,109.15L186.15,127.97L194.62,73.99L203.08,79.13L211.54,82.39L220,89.82L228.46,102.85L236.92,84.92L245.38,105.17L253.85,115.36L262.31,97.5L270.77,112.24L279.23,139.5L287.69,138.08L296.15,134.61L304.62,122.36L313.08,110.82L321.54,113.92L330,141.3L338.46,118.26L346.92,156.13L355.38,153.47L363.85,178.79L372.31,185.42L389.23,186L397.69,186L440,186" style="vector-effect: non-scaling-stroke; fill: none; stroke: rgb(0, 0, 0); stroke-opacity: 1; stroke-width: 0.5px; opacity: 1;"/></g><g class="points"/><g class="text"/></g><g class="trace scatter tracec85ba8" style="stroke-miterlimit: 2;"><g class="fills"/><g class="errorbars"/><g class="lines"><path class="js-line" d="M0,186L42.31,186L50.77,177.41L59.23,185.3L67.69,183.01L76.15,172.56L84.62,177.66L93.08,179.26L101.54,172.66L110,139.22L118.46,148.98L126.92,153.11L135.38,133.63L143.85,107.01L152.31,115.37L160.77,118.09L169.23,98.05L177.69,70.32L186.15,102.72L194.62,-21.03L203.08,-6.81L211.54,-15.17L220,0.11L228.46,53.08L236.92,18.28L245.38,83.36L253.85,82.58L262.31,72.86L270.77,77.31L279.23,120.21L287.69,133.05L296.15,92.61L304.62,69.44L313.08,81.54L321.54,92.3L330,104.39L338.46,56.42L346.92,146.8L355.38,124.95L363.85,177.82L372.31,185.24L389.23,186L397.69,186L440,186" style="vector-effect: non-scaling-stroke; fill: none; stroke: rgb(0, 0, 0); stroke-opacity: 1; stroke-width: 0.25px; opacity: 1;"/></g><g class="points"/><g class="text"/></g><g class="trace scatter trace18d70b" style="stroke-miterlimit: 2; opacity: 1;"><g class="fills"/><g class="errorbars"/><g class="lines"/><g class="points"><path class="point" transform="translate(177.69,186)" d="M4,0A4,4 0 1,1 0,-4A4,4 0 0,1 4,0ZM0,0.5L0.5,0L0,-0.5L-0.5,0Z" style="opacity: 1; stroke: rgb(0, 0, 0); stroke-opacity: 1; stroke-width: 1px; fill: none;"/><path class="point" transform="translate(186.15,180.79)" d="M4,0A4,4 0 1,1 0,-4A4,4 0 0,1 4,0ZM0,0.5L0.5,0L0,-0.5L-0.5,0Z" style="opacity: 1; stroke: rgb(0, 0, 0); stroke-opacity: 1; stroke-width: 1px; fill: none;"/><path class="point" transform="translate(194.62,78.86)" d="M4,0A4,4 0 1,1 0,-4A4,4 0 0,1 4,0ZM0,0.5L0.5,0L0,-0.5L-0.5,0Z" style="opacity: 1; stroke: rgb(0, 0, 0); stroke-opacity: 1; stroke-width: 1px; fill: none;"/><path class="point" transform="translate(203.08,78.86)" d="M4,0A4,4 0 1,1 0,-4A4,4 0 0,1 4,0ZM0,0.5L0.5,0L0,-0.5L-0.5,0Z" style="opacity: 1; stroke: rgb(0, 0, 0); stroke-opacity: 1; stroke-width: 1px; fill: none;"/></g><g class="text"/></g></g></g><g class="overplot"/><path class="xlines-above crisp" d="M0,0" style="fill: none;"/><path class="ylines-above crisp" d="M0,0" style="fill: none;"/><g class="overlines-above"/><g class="xaxislayer-above"/><g class="yaxislayer-above"><g class="ytick"><text text-anchor="end" x="79" y="4.199999999999999" transform="translate(0,286)" style="font-family: 'Open Sans', verdana, arial, sans-serif; font-size: 12px; fill: rgb(42, 63, 95); fill-opacity: 1; white-space: pre; opacity: 1;">0</text></g><g class="ytick"><text text-anchor="end" x="79" y="4.199999999999999" style="font-family: 'Open Sans', verdana, arial, sans-serif; font-size: 12px; fill: rgb(42, 63, 95); fill-opacity: 1; white-space: pre; opacity: 1;" transform="translate(0,248.8)">50</text></g><g class="ytick"><text text-anchor="end" x="79" y="4.199999999999999" style="font-family: 'Open Sans', verdana, arial, sans-serif; font-size: 12px; fill: rgb(42, 63, 95); fill-opacity: 1; white-space: pre; opacity: 1;" transform="translate(0,211.6)">100</text></g><g class="ytick"><text text-anchor="end" x="79" y="4.199999999999999" style="font-family: 'Open Sans', verdana, arial, sans-serif; font-size: 12px; fill: rgb(42, 63, 95); fill-opacity: 1; white-space: pre; opacity: 1;" transform="translate(0,174.4)">150</text></g><g class="ytick"><text text-anchor="end" x="79" y="4.199999999999999" style="font-family: 'Open Sans', verdana, arial, sans-serif; font-size: 12px; fill: rgb(42, 63, 95); fill-opacity: 1; white-space: pre; opacity: 1;" transform="translate(0,137.2)">200</text></g><g class="ytick"><text text-anchor="end" x="79" y="4.199999999999999" style="font-family: 'Open Sans', verdana, arial, sans-serif; font-size: 12px; fill: rgb(42, 63, 95); fill-opacity: 1; white-space: pre; opacity: 1;" transform="translate(0,100)">250</text></g></g><g class="overaxes-above"/></g><g class="subplot x2y2"><g class="layer-subplot"><g class="shapelayer"/><g class="imagelayer"/></g><g class="minor-gridlayer"><g class="x2"/><g class="y2"/></g><g class="gridlayer"><g class="x2"><path class="x2grid crisp" transform="translate(156.15,0)" d="M0,317.00000000000006v185.99999999999997" style="stroke: rgb(255, 255, 255); stroke-opacity: 1; stroke-width: 1px;"/><path class="x2grid crisp" transform="translate(240.77,0)" d="M0,317.00000000000006v185.99999999999997" style="stroke: rgb(255, 255, 255); stroke-opacity: 1; stroke-width: 1px;"/><path class="x2grid crisp" transform="translate(325.38,0)" d="M0,317.00000000000006v185.99999999999997" style="stroke: rgb(255, 255, 255); stroke-opacity: 1; stroke-width: 1px;"/><path class="x2grid crisp" transform="translate(410,0)" d="M0,317.00000000000006v185.99999999999997" style="stroke: rgb(255, 255, 255); stroke-opacity: 1; stroke-width: 1px;"/><path class="x2grid crisp" transform="translate(494.62,0)" d="M0,317.00000000000006v185.99999999999997" style="stroke: rgb(255, 255, 255); stroke-opacity: 1; stroke-width: 1px;"/></g><g class="y2"><path class="y2grid crisp" transform="translate(0,472.00000000000006)" d="M80,0h440" style="stroke: rgb(255, 255, 255); stroke-opacity: 1; stroke-width: 1px;"/><path class="y2grid crisp" transform="translate(0,410.00000000000006)" d="M80,0h440" style="stroke: rgb(255, 255, 255); stroke-opacity: 1; stroke-width: 1px;"/><path class="y2grid crisp" transform="translate(0,348.00000000000006)" d="M80,0h440" style="stroke: rgb(255, 255, 255); stroke-opacity: 1; stroke-width: 1px;"/></g></g><g class="zerolinelayer"/><path class="xlines-below"/><path class="ylines-below"/><g class="overlines-below"/><g class="xaxislayer-below"/><g class="yaxislayer-below"/><g class="overaxes-below"/><g class="plot" transform="translate(80,317.00000000000006)" clip-path="url(#clip94d918x2y2plot)"><g class="scatterlayer mlayer"><g class="trace scatter trace75dd9d" style="stroke-miterlimit: 2;"><g class="fills"><g><path class="js-fill" d="M0,141.37L8.46,143.56L16.92,131.39L33.85,119.3L42.31,110.49L59.23,93.51L67.69,88.49L76.15,84.87L84.62,72.33L93.08,74.21L101.54,79.49L110,84.06L118.46,77.62L126.92,81.63L135.38,83.17L143.85,86.55L152.31,80.25L160.77,87.22L169.23,84.87L177.69,88.59L186.15,94.01L194.62,97.06L203.08,96.86L211.54,100.43L220,98.62L228.46,97.17L236.92,101.52L245.38,99.39L253.85,99.23L262.31,100.91L270.77,100.19L279.23,100.58L287.69,98.09L296.15,98.03L304.62,97.1L313.08,101.09L321.54,96.36L330,96.05L338.46,96.58L346.92,95.43L355.38,92.4L363.85,92.02L372.31,94.81L389.23,105.05L397.69,114.61L406.15,125.89L414.62,126.91L423.08,134.62L431.54,138.88L440,143.85L440,146.66L431.54,144.39L423.08,152.3L414.62,135.07L406.15,140.28L397.69,124.29L389.23,110.02L380.77,103.91L372.31,99.18L363.85,104.52L355.38,101.98L346.92,108.25L338.46,106.02L330,106.7L321.54,106.81L313.08,111.92L304.62,109.39L296.15,109.45L287.69,103.74L270.77,106.29L262.31,109.69L253.85,110.37L245.38,104.47L236.92,106.59L228.46,100.98L220,103.16L211.54,105.87L203.08,104.19L194.62,111.52L186.15,100.4L177.69,94.96L169.23,95.27L160.77,96.87L152.31,93.06L143.85,94.39L135.38,99.29L126.92,92.33L118.46,94.1L110,90.37L101.54,93.87L93.08,88.98L84.62,86.47L76.15,99.96L67.69,103.37L59.23,101.9L50.77,119.31L42.31,126.14L33.85,129.08L25.38,129.84L16.92,145.65L8.46,158.73L0,158.19Z" style="fill: rgb(145, 191, 219); fill-opacity: 1; stroke-width: 0;"/></g></g><g class="errorbars"/><g class="lines"><path class="js-line" d="M0,158.19L8.46,158.73L16.92,145.65L25.38,129.84L33.85,129.08L42.31,126.14L50.77,119.31L59.23,101.9L67.69,103.37L76.15,99.96L84.62,86.47L93.08,88.98L101.54,93.87L110,90.37L118.46,94.1L126.92,92.33L135.38,99.29L143.85,94.39L152.31,93.06L160.77,96.87L169.23,95.27L177.69,94.96L186.15,100.4L194.62,111.52L203.08,104.19L211.54,105.87L220,103.16L228.46,100.98L236.92,106.59L245.38,104.47L253.85,110.37L262.31,109.69L270.77,106.29L287.69,103.74L296.15,109.45L304.62,109.39L313.08,111.92L321.54,106.81L330,106.7L338.46,106.02L346.92,108.25L355.38,101.98L363.85,104.52L372.31,99.18L380.77,103.91L389.23,110.02L397.69,124.29L406.15,140.28L414.62,135.07L423.08,152.3L431.54,144.39L440,146.66" style="vector-effect: non-scaling-stroke; fill: none; stroke: rgb(0, 0, 0); stroke-opacity: 1; stroke-width: 0.25px; opacity: 1;"/></g><g class="points"/><g class="text"/></g><g class="trace scatter tracefa4feb" style="stroke-miterlimit: 2;"><g class="fills"><g><path class="js-fill" d="M0,133.62L8.46,135.41L16.92,124.99L25.38,120.6L33.85,113.33L50.77,94.71L59.23,87.15L67.69,75.93L76.15,74.09L84.62,67.25L93.08,58.36L101.54,67.19L110,74.07L118.46,70.35L126.92,75.44L135.38,79.2L143.85,81.26L152.31,76.53L160.77,80.76L169.23,80.69L177.69,82.4L186.15,89.6L194.62,89.65L203.08,92.53L211.54,93.71L220,93.51L228.46,95.33L236.92,98.26L245.38,93.8L253.85,96.17L262.31,95.52L279.23,94.68L287.69,96.15L296.15,95.38L304.62,92.66L313.08,96.75L321.54,88.65L330,90.26L338.46,90.89L346.92,86.75L355.38,83.65L380.77,95.8L389.23,101.32L397.69,107.75L406.15,116.34L423.08,125.18L431.54,132.65L440,130.68L440,143.85L431.54,138.88L423.08,134.62L414.62,126.91L406.15,125.89L397.69,114.61L389.23,105.05L372.31,94.81L363.85,92.02L355.38,92.4L346.92,95.43L338.46,96.58L330,96.05L321.54,96.36L313.08,101.09L304.62,97.1L296.15,98.03L287.69,98.09L279.23,100.58L270.77,100.19L262.31,100.91L253.85,99.23L245.38,99.39L236.92,101.52L228.46,97.17L220,98.62L211.54,100.43L203.08,96.86L194.62,97.06L186.15,94.01L177.69,88.59L169.23,84.87L160.77,87.22L152.31,80.25L143.85,86.55L135.38,83.17L126.92,81.63L118.46,77.62L110,84.06L101.54,79.49L93.08,74.21L84.62,72.33L76.15,84.87L67.69,88.49L59.23,93.51L42.31,110.49L33.85,119.3L16.92,131.39L8.46,143.56L0,141.37Z" style="fill: rgb(255, 255, 191); fill-opacity: 1; stroke-width: 0;"/></g></g><g class="errorbars"/><g class="lines"><path class="js-line" d="M0,141.37L8.46,143.56L16.92,131.39L33.85,119.3L42.31,110.49L59.23,93.51L67.69,88.49L76.15,84.87L84.62,72.33L93.08,74.21L101.54,79.49L110,84.06L118.46,77.62L126.92,81.63L135.38,83.17L143.85,86.55L152.31,80.25L160.77,87.22L169.23,84.87L177.69,88.59L186.15,94.01L194.62,97.06L203.08,96.86L211.54,100.43L220,98.62L228.46,97.17L236.92,101.52L245.38,99.39L253.85,99.23L262.31,100.91L270.77,100.19L279.23,100.58L287.69,98.09L296.15,98.03L304.62,97.1L313.08,101.09L321.54,96.36L330,96.05L338.46,96.58L346.92,95.43L355.38,92.4L363.85,92.02L372.31,94.81L389.23,105.05L397.69,114.61L406.15,125.89L414.62,126.91L423.08,134.62L431.54,138.88L440,143.85" style="vector-effect: non-scaling-stroke; fill: none; stroke: rgb(0, 0, 0); stroke-opacity: 1; stroke-width: 0.5px; opacity: 1;"/></g><g class="points"/><g class="text"/></g><g class="trace scatter traced418d3" style="stroke-miterlimit: 2;"><g class="fills"><g><path class="js-fill" d="M0,127.79L8.46,126.64L16.92,120.18L25.38,116.12L33.85,110.2L42.31,97.31L50.77,87.96L59.23,82L67.69,69.46L93.08,56.51L101.54,57.1L110,60.87L118.46,62.94L135.38,61.26L143.85,68.91L160.77,72.3L169.23,74.04L177.69,76.59L186.15,81.78L203.08,87.54L211.54,89.38L220,87.9L228.46,88.59L236.92,90.65L245.38,85.71L253.85,91.65L262.31,88.17L270.77,92.88L279.23,89.37L287.69,93.07L296.15,88.02L304.62,87.92L313.08,89.95L321.54,85.2L330,81.61L338.46,83.58L346.92,80.35L355.38,80.22L363.85,82.87L380.77,93.64L389.23,96.71L397.69,102.03L406.15,112L414.62,113.25L423.08,118.93L431.54,123.57L440,117.57L440,130.68L431.54,132.65L423.08,125.18L406.15,116.34L397.69,107.75L389.23,101.32L380.77,95.8L355.38,83.65L346.92,86.75L338.46,90.89L330,90.26L321.54,88.65L313.08,96.75L304.62,92.66L296.15,95.38L287.69,96.15L279.23,94.68L262.31,95.52L253.85,96.17L245.38,93.8L236.92,98.26L228.46,95.33L220,93.51L211.54,93.71L203.08,92.53L194.62,89.65L186.15,89.6L177.69,82.4L169.23,80.69L160.77,80.76L152.31,76.53L143.85,81.26L135.38,79.2L126.92,75.44L118.46,70.35L110,74.07L101.54,67.19L93.08,58.36L84.62,67.25L76.15,74.09L67.69,75.93L59.23,87.15L50.77,94.71L33.85,113.33L25.38,120.6L16.92,124.99L8.46,135.41L0,133.62Z" style="fill: rgb(255, 255, 191); fill-opacity: 1; stroke-width: 0;"/></g></g><g class="errorbars"/><g class="lines"><path class="js-line" d="M0,133.62L8.46,135.41L16.92,124.99L25.38,120.6L33.85,113.33L50.77,94.71L59.23,87.15L67.69,75.93L76.15,74.09L84.62,67.25L93.08,58.36L101.54,67.19L110,74.07L118.46,70.35L126.92,75.44L135.38,79.2L143.85,81.26L152.31,76.53L160.77,80.76L169.23,80.69L177.69,82.4L186.15,89.6L194.62,89.65L203.08,92.53L211.54,93.71L220,93.51L228.46,95.33L236.92,98.26L245.38,93.8L253.85,96.17L262.31,95.52L279.23,94.68L287.69,96.15L296.15,95.38L304.62,92.66L313.08,96.75L321.54,88.65L330,90.26L338.46,90.89L346.92,86.75L355.38,83.65L380.77,95.8L389.23,101.32L397.69,107.75L406.15,116.34L423.08,125.18L431.54,132.65L440,130.68" style="vector-effect: non-scaling-stroke; fill: none; stroke: rgb(0, 0, 0); stroke-opacity: 1; stroke-width: 1px; opacity: 1;"/></g><g class="points"/><g class="text"/></g><g class="trace scatter traced20d26" style="stroke-miterlimit: 2;"><g class="fills"><g><path class="js-fill" d="M0,113.34L8.46,114.52L16.92,106.79L25.38,112.58L33.85,100.75L42.31,80.52L50.77,81.46L59.23,69.97L67.69,62.51L76.15,55.4L84.62,46.48L93.08,51.46L101.54,47.97L110,48.27L118.46,53.39L126.92,34.45L135.38,30.66L143.85,63.82L152.31,56.47L160.77,57.77L169.23,64.09L177.69,59.28L186.15,68.44L194.62,77.15L203.08,80.03L211.54,77.65L220,73.61L228.46,79.91L236.92,77.06L245.38,77.56L253.85,82.46L262.31,75.43L270.77,83.37L279.23,72.62L287.69,90.7L296.15,73.06L304.62,80.93L313.08,74.57L321.54,74.35L330,65.08L338.46,70.04L346.92,66.51L355.38,75.7L363.85,77.42L372.31,83.9L380.77,85.61L389.23,89.16L397.69,91.83L406.15,96.17L414.62,106.21L423.08,111.18L431.54,110.57L440,111.78L440,117.57L431.54,123.57L423.08,118.93L414.62,113.25L406.15,112L397.69,102.03L389.23,96.71L380.77,93.64L363.85,82.87L355.38,80.22L346.92,80.35L338.46,83.58L330,81.61L321.54,85.2L313.08,89.95L304.62,87.92L296.15,88.02L287.69,93.07L279.23,89.37L270.77,92.88L262.31,88.17L253.85,91.65L245.38,85.71L236.92,90.65L228.46,88.59L220,87.9L211.54,89.38L203.08,87.54L186.15,81.78L177.69,76.59L169.23,74.04L160.77,72.3L143.85,68.91L135.38,61.26L118.46,62.94L110,60.87L101.54,57.1L93.08,56.51L67.69,69.46L59.23,82L50.77,87.96L42.31,97.31L33.85,110.2L25.38,116.12L16.92,120.18L8.46,126.64L0,127.79Z" style="fill: rgb(252, 141, 89); fill-opacity: 1; stroke-width: 0;"/></g></g><g class="errorbars"/><g class="lines"><path class="js-line" d="M0,127.79L8.46,126.64L16.92,120.18L25.38,116.12L33.85,110.2L42.31,97.31L50.77,87.96L59.23,82L67.69,69.46L93.08,56.51L101.54,57.1L110,60.87L118.46,62.94L135.38,61.26L143.85,68.91L160.77,72.3L169.23,74.04L177.69,76.59L186.15,81.78L203.08,87.54L211.54,89.38L220,87.9L228.46,88.59L236.92,90.65L245.38,85.71L253.85,91.65L262.31,88.17L270.77,92.88L279.23,89.37L287.69,93.07L296.15,88.02L304.62,87.92L313.08,89.95L321.54,85.2L330,81.61L338.46,83.58L346.92,80.35L355.38,80.22L363.85,82.87L380.77,93.64L389.23,96.71L397.69,102.03L406.15,112L414.62,113.25L423.08,118.93L431.54,123.57L440,117.57" style="vector-effect: non-scaling-stroke; fill: none; stroke: rgb(0, 0, 0); stroke-opacity: 1; stroke-width: 0.5px; opacity: 1;"/></g><g class="points"/><g class="text"/></g><g class="trace scatter trace2c714f" style="stroke-miterlimit: 2;"><g class="fills"/><g class="errorbars"/><g class="lines"><path class="js-line" d="M0,113.34L8.46,114.52L16.92,106.79L25.38,112.58L33.85,100.75L42.31,80.52L50.77,81.46L59.23,69.97L67.69,62.51L76.15,55.4L84.62,46.48L93.08,51.46L101.54,47.97L110,48.27L118.46,53.39L126.92,34.45L135.38,30.66L143.85,63.82L152.31,56.47L160.77,57.77L169.23,64.09L177.69,59.28L186.15,68.44L194.62,77.15L203.08,80.03L211.54,77.65L220,73.61L228.46,79.91L236.92,77.06L245.38,77.56L253.85,82.46L262.31,75.43L270.77,83.37L279.23,72.62L287.69,90.7L296.15,73.06L304.62,80.93L313.08,74.57L321.54,74.35L330,65.08L338.46,70.04L346.92,66.51L355.38,75.7L363.85,77.42L372.31,83.9L380.77,85.61L389.23,89.16L397.69,91.83L406.15,96.17L414.62,106.21L423.08,111.18L431.54,110.57L440,111.78" style="vector-effect: non-scaling-stroke; fill: none; stroke: rgb(0, 0, 0); stroke-opacity: 1; stroke-width: 0.25px; opacity: 1;"/></g><g class="points"/><g class="text"/></g><g class="trace scatter trace2b9c72" style="stroke-miterlimit: 2; opacity: 1;"><g class="fills"/><g class="errorbars"/><g class="lines"/><g class="points"><path class="point" transform="translate(177.69,74.4)" d="M4,0A4,4 0 1,1 0,-4A4,4 0 0,1 4,0ZM0,0.5L0.5,0L0,-0.5L-0.5,0Z" style="opacity: 1; stroke: rgb(0, 0, 0); stroke-opacity: 1; stroke-width: 1px; fill: none;"/><path class="point" transform="translate(186.15,55.8)" d="M4,0A4,4 0 1,1 0,-4A4,4 0 0,1 4,0ZM0,0.5L0.5,0L0,-0.5L-0.5,0Z" style="opacity: 1; stroke: rgb(0, 0, 0); stroke-opacity: 1; stroke-width: 1px; fill: none;"/><path class="point" transform="translate(194.62,80.6)" d="M4,0A4,4 0 1,1 0,-4A4,4 0 0,1 4,0ZM0,0.5L0.5,0L0,-0.5L-0.5,0Z" style="opacity: 1; stroke: rgb(0, 0, 0); stroke-opacity: 1; stroke-width: 1px; fill: none;"/><path class="point" transform="translate(203.08,80.6)" d="M4,0A4,4 0 1,1 0,-4A4,4 0 0,1 4,0ZM0,0.5L0.5,0L0,-0.5L-0.5,0Z" style="opacity: 1; stroke: rgb(0, 0, 0); stroke-opacity: 1; stroke-width: 1px; fill: none;"/></g><g class="text"/></g></g></g><g class="overplot"/><path class="xlines-above crisp" d="M0,0" style="fill: none;"/><path class="ylines-above crisp" d="M0,0" style="fill: none;"/><g class="overlines-above"/><g class="xaxislayer-above"/><g class="yaxislayer-above"><g class="y2tick"><text text-anchor="end" x="79" y="4.199999999999999" transform="translate(0,472.00000000000006)" style="font-family: 'Open Sans', verdana, arial, sans-serif; font-size: 12px; fill: rgb(42, 63, 95); fill-opacity: 1; white-space: pre; opacity: 1;">20</text></g><g class="y2tick"><text text-anchor="end" x="79" y="4.199999999999999" style="font-family: 'Open Sans', verdana, arial, sans-serif; font-size: 12px; fill: rgb(42, 63, 95); fill-opacity: 1; white-space: pre; opacity: 1;" transform="translate(0,410.00000000000006)">30</text></g><g class="y2tick"><text text-anchor="end" x="79" y="4.199999999999999" style="font-family: 'Open Sans', verdana, arial, sans-serif; font-size: 12px; fill: rgb(42, 63, 95); fill-opacity: 1; white-space: pre; opacity: 1;" transform="translate(0,348.00000000000006)">40</text></g></g><g class="overaxes-above"/></g><g class="subplot x3y3"><g class="layer-subplot"><g class="shapelayer"/><g class="imagelayer"/></g><g class="minor-gridlayer"><g class="x3"/><g class="y3"/></g><g class="gridlayer"><g class="x3"><path class="x3grid crisp" transform="translate(156.15,0)" d="M0,534v186" style="stroke: rgb(255, 255, 255); stroke-opacity: 1; stroke-width: 1px;"/><path class="x3grid crisp" transform="translate(240.77,0)" d="M0,534v186" style="stroke: rgb(255, 255, 255); stroke-opacity: 1; stroke-width: 1px;"/><path class="x3grid crisp" transform="translate(325.38,0)" d="M0,534v186" style="stroke: rgb(255, 255, 255); stroke-opacity: 1; stroke-width: 1px;"/><path class="x3grid crisp" transform="translate(410,0)" d="M0,534v186" style="stroke: rgb(255, 255, 255); stroke-opacity: 1; stroke-width: 1px;"/><path class="x3grid crisp" transform="translate(494.62,0)" d="M0,534v186" style="stroke: rgb(255, 255, 255); stroke-opacity: 1; stroke-width: 1px;"/></g><g class="y3"><path class="y3grid crisp" transform="translate(0,682.8)" d="M80,0h440" style="stroke: rgb(255, 255, 255); stroke-opacity: 1; stroke-width: 1px;"/><path class="y3grid crisp" transform="translate(0,645.6)" d="M80,0h440" style="stroke: rgb(255, 255, 255); stroke-opacity: 1; stroke-width: 1px;"/><path class="y3grid crisp" transform="translate(0,608.4)" d="M80,0h440" style="stroke: rgb(255, 255, 255); stroke-opacity: 1; stroke-width: 1px;"/><path class="y3grid crisp" transform="translate(0,571.2)" d="M80,0h440" style="stroke: rgb(255, 255, 255); stroke-opacity: 1; stroke-width: 1px;"/></g></g><g class="zerolinelayer"/><path class="xlines-below"/><path class="ylines-below"/><g class="overlines-below"/><g class="xaxislayer-below"/><g class="yaxislayer-below"/><g class="overaxes-below"/><g class="plot" transform="translate(80,534)" clip-path="url(#clip94d918x3y3plot)"><g class="scatterlayer mlayer"><g class="trace scatter traceec623f" style="stroke-miterlimit: 2;"><g class="fills"><g><path class="js-fill" d="M0,120.07L8.46,124.63L16.92,120.55L25.38,119.88L33.85,117.78L42.31,105.21L50.77,95.55L59.23,91.45L67.69,77.03L76.15,74.48L84.62,68.95L93.08,63.62L101.54,59.42L110,57.74L118.46,54.4L126.92,50.62L135.38,51.52L143.85,50.41L152.31,43.38L160.77,40.07L169.23,38.37L203.08,36.09L211.54,37.13L220,36.3L228.46,36.49L236.92,38.23L245.38,38.52L253.85,39.07L262.31,37.54L279.23,38.15L287.69,38.79L296.15,39.68L304.62,39.7L313.08,42.35L321.54,40.95L330,42.08L338.46,45.09L346.92,49.39L355.38,49.82L363.85,58.81L372.31,65.03L380.77,73.45L389.23,83.12L397.69,96.03L406.15,103.75L414.62,106.97L423.08,116.52L431.54,119.64L440,132.24L440,143.39L431.54,135.22L423.08,136.94L414.62,125.29L406.15,114.45L397.69,117.75L389.23,95.64L380.77,82.21L372.31,70.19L363.85,66.55L355.38,55.36L346.92,54.13L338.46,49.78L330,46.93L321.54,44.35L313.08,44.99L304.62,42.16L296.15,40.9L287.69,41.64L270.77,39.44L262.31,41.57L253.85,41.31L245.38,41.71L220,38.3L211.54,38.48L203.08,39.58L194.62,42.23L186.15,39.19L177.69,44.95L169.23,40.76L160.77,47.72L152.31,46.05L143.85,55.69L135.38,58.44L126.92,60.22L101.54,69.12L93.08,80.58L84.62,86.41L76.15,88.37L67.69,85.85L59.23,117.78L50.77,107.29L42.31,130.72L33.85,136.91L25.38,139.01L16.92,132.31L8.46,138.5L0,123.81Z" style="fill: rgb(90, 180, 172); fill-opacity: 1; stroke-width: 0;"/></g></g><g class="errorbars"/><g class="lines"><path class="js-line" d="M0,123.81L8.46,138.5L16.92,132.31L25.38,139.01L33.85,136.91L42.31,130.72L50.77,107.29L59.23,117.78L67.69,85.85L76.15,88.37L84.62,86.41L93.08,80.58L101.54,69.12L126.92,60.22L135.38,58.44L143.85,55.69L152.31,46.05L160.77,47.72L169.23,40.76L177.69,44.95L186.15,39.19L194.62,42.23L203.08,39.58L211.54,38.48L220,38.3L245.38,41.71L253.85,41.31L262.31,41.57L270.77,39.44L287.69,41.64L296.15,40.9L304.62,42.16L313.08,44.99L321.54,44.35L330,46.93L338.46,49.78L346.92,54.13L355.38,55.36L363.85,66.55L372.31,70.19L380.77,82.21L389.23,95.64L397.69,117.75L406.15,114.45L414.62,125.29L423.08,136.94L431.54,135.22L440,143.39" style="vector-effect: non-scaling-stroke; fill: none; stroke: rgb(0, 0, 0); stroke-opacity: 1; stroke-width: 0.25px; opacity: 1;"/></g><g class="points"/><g class="text"/></g><g class="trace scatter trace9f5a39" style="stroke-miterlimit: 2;"><g class="fills"><g><path class="js-fill" d="M0,116.51L8.46,119.55L16.92,113.13L25.38,110.02L33.85,109.38L42.31,94.19L50.77,90.6L59.23,83.59L67.69,72.83L76.15,70.72L84.62,61.34L93.08,56.03L101.54,54.71L110,53.18L118.46,50.68L126.92,45.76L135.38,46.51L143.85,46.02L152.31,40.89L160.77,38.01L169.23,36.23L203.08,34.7L211.54,35.71L228.46,35.46L236.92,36.51L253.85,38.07L262.31,35.41L279.23,37.31L287.69,37.37L313.08,39.8L321.54,38.82L338.46,43.37L346.92,45L355.38,47.63L363.85,55.88L372.31,59.17L380.77,66.25L389.23,78.41L397.69,87.3L406.15,89.3L414.62,102.34L423.08,103.39L431.54,113.42L440,126.54L440,132.24L431.54,119.64L423.08,116.52L414.62,106.97L406.15,103.75L397.69,96.03L389.23,83.12L380.77,73.45L372.31,65.03L363.85,58.81L355.38,49.82L346.92,49.39L338.46,45.09L330,42.08L321.54,40.95L313.08,42.35L304.62,39.7L296.15,39.68L287.69,38.79L279.23,38.15L262.31,37.54L253.85,39.07L245.38,38.52L236.92,38.23L228.46,36.49L220,36.3L211.54,37.13L203.08,36.09L169.23,38.37L160.77,40.07L152.31,43.38L143.85,50.41L135.38,51.52L126.92,50.62L118.46,54.4L110,57.74L101.54,59.42L93.08,63.62L84.62,68.95L76.15,74.48L67.69,77.03L59.23,91.45L50.77,95.55L42.31,105.21L33.85,117.78L25.38,119.88L16.92,120.55L8.46,124.63L0,120.07Z" style="fill: rgb(245, 245, 245); fill-opacity: 1; stroke-width: 0;"/></g></g><g class="errorbars"/><g class="lines"><path class="js-line" d="M0,120.07L8.46,124.63L16.92,120.55L25.38,119.88L33.85,117.78L42.31,105.21L50.77,95.55L59.23,91.45L67.69,77.03L76.15,74.48L84.62,68.95L93.08,63.62L101.54,59.42L110,57.74L118.46,54.4L126.92,50.62L135.38,51.52L143.85,50.41L152.31,43.38L160.77,40.07L169.23,38.37L203.08,36.09L211.54,37.13L220,36.3L228.46,36.49L236.92,38.23L245.38,38.52L253.85,39.07L262.31,37.54L279.23,38.15L287.69,38.79L296.15,39.68L304.62,39.7L313.08,42.35L321.54,40.95L330,42.08L338.46,45.09L346.92,49.39L355.38,49.82L363.85,58.81L372.31,65.03L380.77,73.45L389.23,83.12L397.69,96.03L406.15,103.75L414.62,106.97L423.08,116.52L431.54,119.64L440,132.24" style="vector-effect: non-scaling-stroke; fill: none; stroke: rgb(0, 0, 0); stroke-opacity: 1; stroke-width: 0.5px; opacity: 1;"/></g><g class="points"/><g class="text"/></g><g class="trace scatter trace9b7baa" style="stroke-miterlimit: 2;"><g class="fills"><g><path class="js-fill" d="M0,108.55L8.46,113.42L16.92,109.47L33.85,99.43L42.31,87.83L50.77,80.02L59.23,73.36L67.69,66.4L76.15,63.06L84.62,53.97L93.08,52.07L101.54,49.78L110,49.17L126.92,42.13L135.38,41.14L143.85,41.16L152.31,39.31L160.77,34.74L169.23,33.43L177.69,32.36L186.15,33.42L194.62,31.89L203.08,33.45L211.54,34.17L220,33.84L228.46,32.44L236.92,34.53L245.38,35.08L253.85,34.71L262.31,34.1L270.77,35.39L279.23,34.73L287.69,35.48L296.15,36.15L304.62,37.86L321.54,36.82L330,37.71L338.46,39.81L346.92,40.35L355.38,44.11L363.85,50.58L372.31,56.05L380.77,63.96L389.23,71.09L397.69,79.53L406.15,83.71L414.62,92.41L423.08,91.72L431.54,106.33L440,119.17L440,126.54L431.54,113.42L423.08,103.39L414.62,102.34L406.15,89.3L397.69,87.3L389.23,78.41L380.77,66.25L372.31,59.17L363.85,55.88L355.38,47.63L346.92,45L338.46,43.37L321.54,38.82L313.08,39.8L287.69,37.37L279.23,37.31L262.31,35.41L253.85,38.07L236.92,36.51L228.46,35.46L211.54,35.71L203.08,34.7L169.23,36.23L160.77,38.01L152.31,40.89L143.85,46.02L135.38,46.51L126.92,45.76L118.46,50.68L110,53.18L101.54,54.71L93.08,56.03L84.62,61.34L76.15,70.72L67.69,72.83L59.23,83.59L50.77,90.6L42.31,94.19L33.85,109.38L25.38,110.02L16.92,113.13L8.46,119.55L0,116.51Z" style="fill: rgb(245, 245, 245); fill-opacity: 1; stroke-width: 0;"/></g></g><g class="errorbars"/><g class="lines"><path class="js-line" d="M0,116.51L8.46,119.55L16.92,113.13L25.38,110.02L33.85,109.38L42.31,94.19L50.77,90.6L59.23,83.59L67.69,72.83L76.15,70.72L84.62,61.34L93.08,56.03L101.54,54.71L110,53.18L118.46,50.68L126.92,45.76L135.38,46.51L143.85,46.02L152.31,40.89L160.77,38.01L169.23,36.23L203.08,34.7L211.54,35.71L228.46,35.46L236.92,36.51L253.85,38.07L262.31,35.41L279.23,37.31L287.69,37.37L313.08,39.8L321.54,38.82L338.46,43.37L346.92,45L355.38,47.63L363.85,55.88L372.31,59.17L380.77,66.25L389.23,78.41L397.69,87.3L406.15,89.3L414.62,102.34L423.08,103.39L431.54,113.42L440,126.54" style="vector-effect: non-scaling-stroke; fill: none; stroke: rgb(0, 0, 0); stroke-opacity: 1; stroke-width: 1px; opacity: 1;"/></g><g class="points"/><g class="text"/></g><g class="trace scatter traceb125ba" style="stroke-miterlimit: 2;"><g class="fills"><g><path class="js-fill" d="M0,101.71L8.46,100.84L16.92,97.34L33.85,88.17L42.31,75.89L50.77,62.8L59.23,66.78L67.69,55.53L76.15,51.18L84.62,47.6L93.08,41.63L101.54,36.85L110,41.81L118.46,37.21L126.92,30.21L135.38,35.57L143.85,28.35L152.31,36.99L160.77,29.21L169.23,27.64L177.69,28.13L186.15,30.97L194.62,27.82L211.54,31.73L220,32.41L228.46,29.79L236.92,32.54L245.38,30.66L253.85,32.03L262.31,32.93L270.77,32.06L279.23,31.77L287.69,33.85L304.62,36.63L313.08,33.26L321.54,31.89L330,37.05L338.46,35.08L346.92,29.42L363.85,42.93L372.31,46.27L389.23,62.97L397.69,68.74L406.15,75L414.62,74.15L423.08,85.96L431.54,93.23L440,99.89L440,119.17L431.54,106.33L423.08,91.72L414.62,92.41L406.15,83.71L397.69,79.53L389.23,71.09L380.77,63.96L372.31,56.05L363.85,50.58L355.38,44.11L346.92,40.35L338.46,39.81L330,37.71L321.54,36.82L304.62,37.86L296.15,36.15L287.69,35.48L279.23,34.73L270.77,35.39L262.31,34.1L253.85,34.71L245.38,35.08L236.92,34.53L228.46,32.44L220,33.84L211.54,34.17L203.08,33.45L194.62,31.89L186.15,33.42L177.69,32.36L169.23,33.43L160.77,34.74L152.31,39.31L143.85,41.16L135.38,41.14L126.92,42.13L110,49.17L101.54,49.78L93.08,52.07L84.62,53.97L76.15,63.06L67.69,66.4L59.23,73.36L50.77,80.02L42.31,87.83L33.85,99.43L16.92,109.47L8.46,113.42L0,108.55Z" style="fill: rgb(216, 179, 101); fill-opacity: 1; stroke-width: 0;"/></g></g><g class="errorbars"/><g class="lines"><path class="js-line" d="M0,108.55L8.46,113.42L16.92,109.47L33.85,99.43L42.31,87.83L50.77,80.02L59.23,73.36L67.69,66.4L76.15,63.06L84.62,53.97L93.08,52.07L101.54,49.78L110,49.17L126.92,42.13L135.38,41.14L143.85,41.16L152.31,39.31L160.77,34.74L169.23,33.43L177.69,32.36L186.15,33.42L194.62,31.89L203.08,33.45L211.54,34.17L220,33.84L228.46,32.44L236.92,34.53L245.38,35.08L253.85,34.71L262.31,34.1L270.77,35.39L279.23,34.73L287.69,35.48L296.15,36.15L304.62,37.86L321.54,36.82L330,37.71L338.46,39.81L346.92,40.35L355.38,44.11L363.85,50.58L372.31,56.05L380.77,63.96L389.23,71.09L397.69,79.53L406.15,83.71L414.62,92.41L423.08,91.72L431.54,106.33L440,119.17" style="vector-effect: non-scaling-stroke; fill: none; stroke: rgb(0, 0, 0); stroke-opacity: 1; stroke-width: 0.5px; opacity: 1;"/></g><g class="points"/><g class="text"/></g><g class="trace scatter trace1ff24d" style="stroke-miterlimit: 2;"><g class="fills"/><g class="errorbars"/><g class="lines"><path class="js-line" d="M0,101.71L8.46,100.84L16.92,97.34L33.85,88.17L42.31,75.89L50.77,62.8L59.23,66.78L67.69,55.53L76.15,51.18L84.62,47.6L93.08,41.63L101.54,36.85L110,41.81L118.46,37.21L126.92,30.21L135.38,35.57L143.85,28.35L152.31,36.99L160.77,29.21L169.23,27.64L177.69,28.13L186.15,30.97L194.62,27.82L211.54,31.73L220,32.41L228.46,29.79L236.92,32.54L245.38,30.66L253.85,32.03L262.31,32.93L270.77,32.06L279.23,31.77L287.69,33.85L304.62,36.63L313.08,33.26L321.54,31.89L330,37.05L338.46,35.08L346.92,29.42L363.85,42.93L372.31,46.27L389.23,62.97L397.69,68.74L406.15,75L414.62,74.15L423.08,85.96L431.54,93.23L440,99.89" style="vector-effect: non-scaling-stroke; fill: none; stroke: rgb(0, 0, 0); stroke-opacity: 1; stroke-width: 0.25px; opacity: 1;"/></g><g class="points"/><g class="text"/></g><g class="trace scatter trace294816" style="stroke-miterlimit: 2; opacity: 1;"><g class="fills"/><g class="errorbars"/><g class="lines"/><g class="points"><path class="point" transform="translate(177.69,37.2)" d="M4,0A4,4 0 1,1 0,-4A4,4 0 0,1 4,0ZM0,0.5L0.5,0L0,-0.5L-0.5,0Z" style="opacity: 1; stroke: rgb(0, 0, 0); stroke-opacity: 1; stroke-width: 1px; fill: none;"/><path class="point" transform="translate(186.15,29.76)" d="M4,0A4,4 0 1,1 0,-4A4,4 0 0,1 4,0ZM0,0.5L0.5,0L0,-0.5L-0.5,0Z" style="opacity: 1; stroke: rgb(0, 0, 0); stroke-opacity: 1; stroke-width: 1px; fill: none;"/><path class="point" transform="translate(194.62,37.2)" d="M4,0A4,4 0 1,1 0,-4A4,4 0 0,1 4,0ZM0,0.5L0.5,0L0,-0.5L-0.5,0Z" style="opacity: 1; stroke: rgb(0, 0, 0); stroke-opacity: 1; stroke-width: 1px; fill: none;"/><path class="point" transform="translate(203.08,37.2)" d="M4,0A4,4 0 1,1 0,-4A4,4 0 0,1 4,0ZM0,0.5L0.5,0L0,-0.5L-0.5,0Z" style="opacity: 1; stroke: rgb(0, 0, 0); stroke-opacity: 1; stroke-width: 1px; fill: none;"/></g><g class="text"/></g></g></g><g class="overplot"/><path class="xlines-above crisp" d="M0,0" style="fill: none;"/><path class="ylines-above crisp" d="M0,0" style="fill: none;"/><g class="overlines-above"/><g class="xaxislayer-above"><g class="x3tick"><text text-anchor="middle" x="0" y="733" transform="translate(156.15,0)" style="font-family: 'Open Sans', verdana, arial, sans-serif; font-size: 12px; fill: rgb(42, 63, 95); fill-opacity: 1; white-space: pre; opacity: 1;">10</text></g><g class="x3tick"><text text-anchor="middle" x="0" y="733" style="font-family: 'Open Sans', verdana, arial, sans-serif; font-size: 12px; fill: rgb(42, 63, 95); fill-opacity: 1; white-space: pre; opacity: 1;" transform="translate(240.77,0)">20</text></g><g class="x3tick"><text text-anchor="middle" x="0" y="733" style="font-family: 'Open Sans', verdana, arial, sans-serif; font-size: 12px; fill: rgb(42, 63, 95); fill-opacity: 1; white-space: pre; opacity: 1;" transform="translate(325.38,0)">30</text></g><g class="x3tick"><text text-anchor="middle" x="0" y="733" style="font-family: 'Open Sans', verdana, arial, sans-serif; font-size: 12px; fill: rgb(42, 63, 95); fill-opacity: 1; white-space: pre; opacity: 1;" transform="translate(410,0)">40</text></g><g class="x3tick"><text text-anchor="middle" x="0" y="733" style="font-family: 'Open Sans', verdana, arial, sans-serif; font-size: 12px; fill: rgb(42, 63, 95); fill-opacity: 1; white-space: pre; opacity: 1;" transform="translate(494.62,0)">50</text></g></g><g class="yaxislayer-above"><g class="y3tick"><text text-anchor="end" x="79" y="4.199999999999999" transform="translate(0,720)" style="font-family: 'Open Sans', verdana, arial, sans-serif; font-size: 12px; fill: rgb(42, 63, 95); fill-opacity: 1; white-space: pre; opacity: 1;">5</text></g><g class="y3tick"><text text-anchor="end" x="79" y="4.199999999999999" style="font-family: 'Open Sans', verdana, arial, sans-serif; font-size: 12px; fill: rgb(42, 63, 95); fill-opacity: 1; white-space: pre; opacity: 1;" transform="translate(0,682.8)">10</text></g><g class="y3tick"><text text-anchor="end" x="79" y="4.199999999999999" style="font-family: 'Open Sans', verdana, arial, sans-serif; font-size: 12px; fill: rgb(42, 63, 95); fill-opacity: 1; white-space: pre; opacity: 1;" transform="translate(0,645.6)">15</text></g><g class="y3tick"><text text-anchor="end" x="79" y="4.199999999999999" style="font-family: 'Open Sans', verdana, arial, sans-serif; font-size: 12px; fill: rgb(42, 63, 95); fill-opacity: 1; white-space: pre; opacity: 1;" transform="translate(0,608.4)">20</text></g><g class="y3tick"><text text-anchor="end" x="79" y="4.199999999999999" style="font-family: 'Open Sans', verdana, arial, sans-serif; font-size: 12px; fill: rgb(42, 63, 95); fill-opacity: 1; white-space: pre; opacity: 1;" transform="translate(0,571.2)">25</text></g><g class="y3tick"><text text-anchor="end" x="79" y="4.199999999999999" style="font-family: 'Open Sans', verdana, arial, sans-serif; font-size: 12px; fill: rgb(42, 63, 95); fill-opacity: 1; white-space: pre; opacity: 1;" transform="translate(0,534)">30</text></g></g><g class="overaxes-above"/></g></g><g class="polarlayer"/><g class="smithlayer"/><g class="ternarylayer"/><g class="geolayer"/><g class="funnelarealayer"/><g class="pielayer"/><g class="iciclelayer"/><g class="treemaplayer"/><g class="sunburstlayer"/><g class="glimages"/><defs id="topdefs-94d918"><g class="clips"/></defs><g class="layer-above"><g class="imagelayer"/><g class="shapelayer"/></g><g class="infolayer"><g class="g-gtitle"><text class="gtitle" x="30" y="50" text-anchor="start" dy="0em" style="font-family: 'Open Sans', verdana, arial, sans-serif; font-size: 17px; fill: rgb(42, 63, 95); opacity: 1; font-weight: normal; white-space: pre;">Climatology and S2S forecast for Barisal</text></g><g class="g-xtitle"/><g class="g-x2title"/><g class="g-x3title"/><g class="g-ytitle"><text class="ytitle" transform="rotate(-90,34.16875,193)" x="34.16875" y="193" text-anchor="middle" style="font-family: 'Open Sans', verdana, arial, sans-serif; font-size: 14px; fill: rgb(42, 63, 95); opacity: 1; font-weight: normal; white-space: pre;">[mm]</text></g><g class="g-y2title"><text class="y2title" transform="rotate(-90,40.840625,410.00000000000006)" x="40.840625" y="410.00000000000006" text-anchor="middle" style="font-family: 'Open Sans', verdana, arial, sans-serif; font-size: 14px; fill: rgb(42, 63, 95); opacity: 1; font-weight: normal; white-space: pre;">[C]</text></g><g class="g-y3title"><text class="y3title" transform="rotate(-90,40.840625,627)" x="40.840625" y="627" text-anchor="middle" style="font-family: 'Open Sans', verdana, arial, sans-serif; font-size: 14px; fill: rgb(42, 63, 95); opacity: 1; font-weight: normal; white-space: pre;">[C]</text></g><g class="annotation" data-index="0" style="opacity: 1;"><g class="annotation-text-g" transform="rotate(0,300,89.5)"><g class="cursor-pointer" transform="translate(237,79)"><rect class="bg" x="0.5" y="0.5" width="126" height="20" style="stroke-width: 1px; stroke: rgb(0, 0, 0); stroke-opacity: 0; fill: rgb(0, 0, 0); fill-opacity: 0;"/><text class="annotation-text" text-anchor="middle" x="63.359375" y="16" style="font-family: 'Open Sans', verdana, arial, sans-serif; font-size: 16px; fill: rgb(42, 63, 95); fill-opacity: 1; white-space: pre;">Precipitation sum</text></g></g></g><g class="annotation" data-index="1" style="opacity: 1;"><g class="annotation-text-g" transform="rotate(0,300,306.50000000000006)"><g class="cursor-pointer" transform="translate(196,296)"><rect class="bg" x="0.5" y="0.5" width="208" height="20" style="stroke-width: 1px; stroke: rgb(0, 0, 0); stroke-opacity: 0; fill: rgb(0, 0, 0); fill-opacity: 0;"/><text class="annotation-text" text-anchor="middle" x="104.265625" y="16" style="font-family: 'Open Sans', verdana, arial, sans-serif; font-size: 16px; fill: rgb(42, 63, 95); fill-opacity: 1; white-space: pre;">Mean maximum temperature</text></g></g></g><g class="annotation" data-index="2" style="opacity: 1;"><g class="annotation-text-g" transform="rotate(0,300,523.5)"><g class="cursor-pointer" transform="translate(198,513)"><rect class="bg" x="0.5" y="0.5" width="203" height="20" style="stroke-width: 1px; stroke: rgb(0, 0, 0); stroke-opacity: 0; fill: rgb(0, 0, 0); fill-opacity: 0;"/><text class="annotation-text" text-anchor="middle" x="102.046875" y="16" style="font-family: 'Open Sans', verdana, arial, sans-serif; font-size: 16px; fill: rgb(42, 63, 95); fill-opacity: 1; white-space: pre;">Mean minimum temperature</text></g></g></g><g class="annotation" data-index="3" style="opacity: 1;"><g class="annotation-text-g" transform="rotate(0,300,760.5)"><g class="cursor-pointer" transform="translate(277,750)"><rect class="bg" x="0.5" y="0.5" width="45" height="20" style="stroke-width: 1px; stroke: rgb(0, 0, 0); stroke-opacity: 0; fill: rgb(0, 0, 0); fill-opacity: 0;"/><text class="annotation-text" text-anchor="middle" x="22.3125" y="16" style="font-family: 'Open Sans', verdana, arial, sans-serif; font-size: 16px; fill: rgb(42, 63, 95); fill-opacity: 1; white-space: pre;">Week</text></g></g></g></g></svg>