<svg class="main-svg" xmlns="http://www.w3.org/2000/svg" xmlns:xlink="http://www.w3.org/1999/xlink" width="600" height="800" style="" viewBox="0 0 600 800"><rect x="0" y="0" width="600" height="800" style="fill: rgb(255, 255, 255); fill-opacity: 1;"/><defs id="defs-631a80"><g class="clips"><clipPath id="clip631a80xyplot" class="plotclip"><rect width="440" height="186.00000000000003"/></clipPath><clipPath id="clip631a80x2y2plot" class="plotclip"><rect width="440" height="185.99999999999997"/></clipPath><clipPath id="clip631a80x3y3plot" class="plotclip"><rect width="440" height="186"/></clipPath><clipPath class="axesclip" id="clip631a80x"><rect x="80" y="0" width="440" height="800"/></clipPath><clipPath class="axesclip" id="clip631a80y"><rect x="0" y="100" width="600" height="186.00000000000003"/></clipPath><clipPath class="axesclip" id="clip631a80xy"><rect x="80" y="100" width="440" height="186.00000000000003"/></clipPath><clipPath class="axesclip" id="clip631a80y2"><rect x="0" y="317.00000000000006" width="600" height="185.99999999999997"/></clipPath><clipPath class="axesclip" id="clip631a80xy2"><rect x="80" y="317.00000000000006" width="440" height="185.99999999999997"/></clipPath><clipPath class="axesclip" id="clip631a80y3"><rect x="0" y="534" width="600" height="186"/></clipPath><clipPath class="axesclip" id="clip631a80xy3"><rect x="80" y="534" width="440" height="186"/></clipPath><clipPath class="axesclip" id="clip631a80x2"><rect x="80" y="0" width="440" height="800"/></clipPath><clipPath class="axesclip" id="clip631a80x2y"><rect x="80" y="100" width="440" height="186.00000000000003"/></clipPath><clipPath class="axesclip" id="clip631a80x2y2"><rect x="80" y="317.00000000000006" width="440" height="185.99999999999997"/></clipPath><clipPath class="axesclip" id="clip631a80x2y3"><rect x="80" y="534" width="440" height="186"/></clipPath><clipPath class="axesclip" id="clip631a80x3"><rect x="80" y="0" width="440" height="800"/></clipPath><clipPath class="axesclip" id="clip631a80x3y"><rect x="80" y="100" width="440" height="186.00000000000003"/></clipPath><clipPath class="axesclip" id="clip631a80x3y2"><rect x="80" y="317.00000000000006" width="440" height="185.99999999999997"/></clipPath><clipPath class="axesclip" id="clip631a80x3y3"><rect x="80" y="534" width="440" height="186"/></clipPath></g><g class="gradients"/><g class="patterns"/></defs><g class="bglayer"><rect class="bg" x="80" y="100" width="440" height="186.00000000000003" style="fill: rgb(229, 236, 246); fill-opacity: 1; stroke-width: 0;"/><rect class="bg" x="80" y="317.00000000000006" width="440" height="185.99999999999997" style="fill: rgb(229, 236, 246); fill-opacity: 1; stroke-width: 0;"/><rect class="bg" x="80" y="534" width="440" height="186" style="fill: rgb(229, 236, 246); fill-opacity: 1; stroke-width: 0;"/></g><g class="layer-below"><g class="imagelayer"/><g class="shapelayer"/></g><g class="cartesianlayer"><g class="subplot xy"><g class="layer-subplot"><g class="shapelayer"/><g class="imagelayer"/></g><g class="minor-gridlayer"><g class="x"/><g class="y"/></g><g class="gridlayer"><g class="x"><path class="xgrid crisp" transform="translate(156.15,0)" d="M0,100v186.00000000000003" style="stroke: rgb(255, 255, 255); stroke-opacity: 1; stroke-width: 1px;"/><path class="xgrid crisp" transform="translate(240.77,0)" d="M0,100v186.00000000000003" style="stroke: rgb(255, 255, 255); stroke-opacity: 1; stroke-width: 1px;"/><path class="xgrid crisp" transform="translate(325.38,0)" d="M0,100v186.00000000000003" style="stroke: rgb(255, 255, 255); stroke-opacity: 1; stroke-width: 1px;"/><path class="xgrid crisp" transform="translate(410,0)" d="M0,100v186.00000000000003" style="stroke: rgb(255, 255, 255); stroke-opacity: 1; stroke-width: 1px;"/><path class="xgrid crisp" transform="translate(494.62,0)" d="M0,100v186.00000000000003" style="stroke: rgb(255, 255, 255); stroke-opacity: 1; stroke-width: 1px;"/></g><g class="y"><path class="ygrid crisp" transform="translate(0,248.8)" d="M80,0h440" style="stroke: rgb(255, 255, 255); stroke-opacity: 1; stroke-width: 1px;"/><path class="ygrid crisp" transform="translate(0,211.6)" d="M80,0h440" style="stroke: rgb(255, 255, 255); stroke-opacity: 1; stroke-width: 1px;"/><path class="ygrid crisp" transform="translate(0,174.4)" d="M80,0h440" style="stroke: rgb(255, 255, 255); stroke-opacity: 1; stroke-width: 1px;"/><path class="ygrid crisp" transform="translate(0,137.2)" d="M80,0h440" style="stroke: rgb(255, 255, 255); stroke-opacity: 1; stroke-width: 1px;"/></g></g><g class="zerolinelayer"><path class="yzl zl crisp" transform="translate(0,286)" d="M80,0h440" style="stroke: rgb(255, 255, 255); stroke-opacity: 1; stroke-width: 2px;"/></g><path class="xlines-below"/><path class="ylines-below"/><g class="overlines-below"/><g class="xaxislayer-below"/><g class="yaxislayer-below"/><g class="overaxes-below"/><g class="plot" transform="translate(80,100)" clip-path="url(#clip631a80xyplot)"><g class="scatterlayer mlayer"><g class="trace scatter trace93df39" style="stroke-miterlimit: 2;"><g class="fills"><g><path class="js-fill" d="M0,186L135.38,185.56L143.85,174.27L152.31,182.04L160.77,176.38L169.23,178.88L177.69,172.03L186.15,172.52L194.62,171.25L203.08,169.65L211.54,171.75L220,169.6L228.46,163.66L236.92,164.1L245.38,168.33L253.85,170.71L262.31,163.21L270.77,154.78L279.23,169.58L287.69,177.43L296.15,176.49L313.08,168.33L321.54,171.93L330,184.71L338.46,182.76L346.92,185.33L355.38,186L440,186L440,186L431.54,186L423.08,186L330,185.93L321.54,186L313.08,184.52L304.62,185.99L296.15,185.55L287.69,185.8L279.23,178.41L270.77,175.73L262.31,181.44L253.85,184.81L245.38,186L236.92,184.62L228.46,180.45L220,185.73L194.62,185.55L186.15,185.99L177.69,184.88L169.23,186L0,186Z" style="fill: rgb(224, 236, 244); fill-opacity: 1; stroke-width: 0;"/></g></g><g class="errorbars"/><g class="lines"><path class="js-line" d="M0,186L169.23,186L177.69,184.88L186.15,185.99L194.62,185.55L220,185.73L228.46,180.45L236.92,184.62L245.38,186L253.85,184.81L262.31,181.44L270.77,175.73L279.23,178.41L287.69,185.8L296.15,185.55L304.62,185.99L313.08,184.52L321.54,186L330,185.93L423.08,186L431.54,186L440,186" style="vector-effect: non-scaling-stroke; fill: none; stroke: rgb(0, 0, 0); stroke-opacity: 1; stroke-width: 0.25px; opacity: 1;"/></g><g class="points"/><g class="text"/></g><g class="trace scatter traced6fed6" style="stroke-miterlimit: 2;"><g class="fills"><g><path class="js-fill" d="M0,186L84.62,185.99L93.08,184.45L101.54,183.13L110,180.52L118.46,180.96L126.92,175.92L135.38,180.69L143.85,163.27L152.31,166.4L160.77,166.67L169.23,157.07L177.69,153.69L186.15,152L194.62,153.64L203.08,149.74L211.54,149.35L220,155.9L228.46,139.73L236.92,138.63L245.38,150.57L253.85,154.37L262.31,139.72L270.77,138.48L279.23,157.48L287.69,163.4L296.15,162.08L304.62,154.88L313.08,159.42L321.54,159.01L330,169.99L338.46,170.2L346.92,176.45L355.38,185.98L363.85,186L440,186L440,186L355.38,186L346.92,185.33L338.46,182.76L330,184.71L321.54,171.93L313.08,168.33L296.15,176.49L287.69,177.43L279.23,169.58L270.77,154.78L262.31,163.21L253.85,170.71L245.38,168.33L236.92,164.1L228.46,163.66L220,169.6L211.54,171.75L203.08,169.65L194.62,171.25L186.15,172.52L177.69,172.03L169.23,178.88L160.77,176.38L152.31,182.04L143.85,174.27L135.38,185.56L0,186Z" style="fill: rgb(158, 188, 218); fill-opacity: 1; stroke-width: 0;"/></g></g><g class="errorbars"/><g class="lines"><path class="js-line" d="M0,186L135.38,185.56L143.85,174.27L152.31,182.04L160.77,176.38L169.23,178.88L177.69,172.03L186.15,172.52L194.62,171.25L203.08,169.65L211.54,171.75L220,169.6L228.46,163.66L236.92,164.1L245.38,168.33L253.85,170.71L262.31,163.21L270.77,154.78L279.23,169.58L287.69,177.43L296.15,176.49L313.08,168.33L321.54,171.93L330,184.71L338.46,182.76L346.92,185.33L355.38,186L440,186" style="vector-effect: non-scaling-stroke; fill: none; stroke: rgb(0, 0, 0); stroke-opacity: 1; stroke-width: 0.5px; opacity: 1;"/></g><g class="points"/><g class="text"/></g><g class="trace scatter trace701cf5" style="stroke-miterlimit: 2;"><g class="fills"><g><path class="js-fill" d="M0,185.96L42.31,185.62L50.77,184.4L59.23,185.62L67.69,184.51L76.15,182.03L84.62,184.71L93.08,180.32L101.54,167.33L110,170.32L118.46,167.27L135.38,168.34L143.85,152.79L152.31,150.67L160.77,156.83L169.23,127.37L177.69,126.56L186.15,135.8L194.62,132.19L211.54,109.51L220,131.87L228.46,109.57L236.92,128.09L245.38,117.23L253.85,135.39L262.31,129.45L270.77,105.54L279.23,136.05L287.69,143.99L296.15,147.73L304.62,146.86L313.08,119.52L321.54,120.94L330,154.26L338.46,148.96L346.92,165.25L355.38,151.87L363.85,183.44L372.31,185.39L389.23,186L397.69,186L440,186L440,186L363.85,186L355.38,185.98L346.92,176.45L338.46,170.2L330,169.99L321.54,159.01L313.08,159.42L304.62,154.88L296.15,162.08L287.69,163.4L279.23,157.48L270.77,138.48L262.31,139.72L253.85,154.37L245.38,150.57L236.92,138.63L228.46,139.73L220,155.9L211.54,149.35L203.08,149.74L194.62,153.64L186.15,152L177.69,153.69L169.23,157.07L160.77,166.67L152.31,166.4L143.85,163.27L135.38,180.69L126.92,175.92L118.46,180.96L110,180.52L101.54,183.13L93.08,184.45L84.62,185.99L0,186Z" style="fill: rgb(158, 188, 218); fill-opacity: 1; stroke-width: 0;"/></g></g><g class="errorbars"/><g class="lines"><path class="js-line" d="M0,186L84.62,185.99L93.08,184.45L101.54,183.13L110,180.52L118.46,180.96L126.92,175.92L135.38,180.69L143.85,163.27L152.31,166.4L160.77,166.67L169.23,157.07L177.69,153.69L186.15,152L194.62,153.64L203.08,149.74L211.54,149.35L220,155.9L228.46,139.73L236.92,138.63L245.38,150.57L253.85,154.37L262.31,139.72L270.77,138.48L279.23,157.48L287.69,163.4L296.15,162.08L304.62,154.88L313.08,159.42L321.54,159.01L330,169.99L338.46,170.2L346.92,176.45L355.38,185.98L363.85,186L440,186" style="vector-effect: non-scaling-stroke; fill: none; stroke: rgb(0, 0, 0); stroke-opacity: 1; stroke-width: 1px; opacity: 1;"/></g><g class="points"/><g class="text"/></g><g class="trace scatter tracee0ca47" style="stroke-miterlimit: 2;"><g class="fills"><g><path class="js-fill" d="M0,185.95L42.31,185.51L50.77,182.34L59.23,185.29L67.69,182.53L76.15,178.56L84.62,183.06L93.08,174.23L101.54,154.96L110,164.21L118.46,144.84L126.92,152.12L135.38,148.42L143.85,133.05L152.31,109.42L160.77,131.34L169.23,81.84L177.69,96.41L186.15,121.75L194.62,80.44L203.08,60.64L211.54,31.06L220,78.91L228.46,42.17L236.92,85.8L245.38,42.49L253.85,90.2L262.31,109.71L270.77,32.25L279.23,109.06L287.69,98.71L296.15,137.89L304.62,133.35L313.08,66.1L321.54,60.92L330,117.3L338.46,103.04L346.92,142.61L355.38,114.67L363.85,183.05L372.31,184.54L380.77,186L389.23,186L440,186L440,186L397.69,186L389.23,186L372.31,185.39L363.85,183.44L355.38,151.87L346.92,165.25L338.46,148.96L330,154.26L321.54,120.94L313.08,119.52L304.62,146.86L296.15,147.73L287.69,143.99L279.23,136.05L270.77,105.54L262.31,129.45L253.85,135.39L245.38,117.23L236.92,128.09L228.46,109.57L220,131.87L211.54,109.51L194.62,132.19L186.15,135.8L177.69,126.56L169.23,127.37L160.77,156.83L152.31,150.67L143.85,152.79L135.38,168.34L118.46,167.27L110,170.32L101.54,167.33L93.08,180.32L84.62,184.71L76.15,182.03L67.69,184.51L59.23,185.62L50.77,184.4L42.31,185.62L0,185.96Z" style="fill: rgb(136, 86, 167); fill-opacity: 1; stroke-width: 0;"/></g></g><g class="errorbars"/><g class="lines"><path class="js-line" d="M0,185.96L42.31,185.62L50.77,184.4L59.23,185.62L67.69,184.51L76.15,182.03L84.62,184.71L93.08,180.32L101.54,167.33L110,170.32L118.46,167.27L135.38,168.34L143.85,152.79L152.31,150.67L160.77,156.83L169.23,127.37L177.69,126.56L186.15,135.8L194.62,132.19L211.54,109.51L220,131.87L228.46,109.57L236.92,128.09L245.38,117.23L253.85,135.39L262.31,129.45L270.77,105.54L279.23,136.05L287.69,143.99L296.15,147.73L304.62,146.86L313.08,119.52L321.54,120.94L330,154.26L338.46,148.96L346.92,165.25L355.38,151.87L363.85,183.44L372.31,185.39L389.23,186L397.69,186L440,186" style="vector-effect: non-scaling-stroke; fill: none; stroke: rgb(0, 0, 0); stroke-opacity: 1; stroke-width: 0.5px; opacity: 1;"/></g><g class="points"/><g class="text"/></g><g class="trace scatter tracec575ea" style="stroke-miterlimit: 2;"><g class="fills"/><g class="errorbars"/><g class="lines"><path class="js-line" d="M0,185.95L42.31,185.51L50.77,182.34L59.23,185.29L67.69,182.53L76.15,178.56L84.62,183.06L93.08,174.23L101.54,154.96L110,164.21L118.46,144.84L126.92,152.12L135.38,148.42L143.85,133.05L152.31,109.42L160.77,131.34L169.23,81.84L177.69,96.41L186.15,121.75L194.62,80.44L203.08,60.64L211.54,31.06L220,78.91L228.46,42.17L236.92,85.8L245.38,42.49L253.85,90.2L262.31,109.71L270.77,32.25L279.23,109.06L287.69,98.71L296.15,137.89L304.62,133.35L313.08,66.1L321.54,60.92L330,117.3L338.46,103.04L346.92,142.61L355.38,114.67L363.85,183.05L372.31,184.54L380.77,186L389.23,186L440,186" style="vector-effect: non-scaling-stroke; fill: none; stroke: rgb(0, 0, 0); stroke-opacity: 1; stroke-width: 0.25px; opacity: 1;"/></g><g class="points"/><g class="text"/></g><g class="trace scatter tracef3e919" style="stroke-miterlimit: 2; opacity: 1;"><g class="fills"/><g class="errorbars"/><g class="lines"/><g class="points"><path class="point" transform="translate(160.77,186)" d="M4,0A4,4 0 1,1 0,-4A4,4 0 0,1 4,0ZM0,0.5L0.5,0L0,-0.5L-0.5,0Z" style="opacity: 1; stroke: rgb(0, 0, 0); stroke-opacity: 1; stroke-width: 1px; fill: none;"/><path class="point" transform="translate(169.23,186)" d="M4,0A4,4 0 1,1 0,-4A4,4 0 0,1 4,0ZM0,0.5L0.5,0L0,-0.5L-0.5,0Z" style="opacity: 1; stroke: rgb(0, 0, 0); stroke-opacity: 1; stroke-width: 1px; fill: none;"/><path class="point" transform="translate(177.69,186)" d="M4,0A4,4 0 1,1 0,-4A4,4 0 0,1 4,0ZM0,0.5L0.5,0L0,-0.5L-0.5,0Z" style="opacity: 1; stroke: rgb(0, 0, 0); stroke-opacity: 1; stroke-width: 1px; fill: none;"/><path class="point" transform="translate(186.15,186)" d="M4,0A4,4 0 1,1 0,-4A4,4 0 0,1 4,0ZM0,0.5L0.5,0L0,-0.5L-0.5,0Z" style="opacity: 1; stroke: rgb(0, 0, 0); stroke-opacity: 1; stroke-width: 1px; fill: none;"/></g><g class="text"/></g></g></g><g class="overplot"/><path class="xlines-above crisp" d="M0,0" style="fill: none;"/><path class="ylines-above crisp" d="M0,0" style="fill: none;"/><g class="overlines-above"/><g class="xaxislayer-above"/><g class="yaxislayer-above"><g class="ytick"><text text-anchor="end" x="79" y="4.199999999999999" transform="translate(0,286)" style="font-family: 'Open Sans', verdana, arial, sans-serif; font-size: 12px; fill: rgb(42, 63, 95); fill-opacity: 1; white-space: pre; opacity: 1;">0</text></g><g class="ytick"><text text-anchor="end" x="79" y="4.199999999999999" style="font-family: 'Open Sans', verdana, arial, sans-serif; font-size: 12px; fill: rgb(42, 63, 95); fill-opacity: 1; white-space: pre; opacity: 1;" transform="translate(0,248.8)">50</text></g><g class="ytick"><text text-anchor="end" x="79" y="4.199999999999999" style="font-family: 'Open Sans', verdana, arial, sans-serif; font-size: 12px; fill: rgb(42, 63, 95); fill-opacity: 1; white-space: pre; opacity: 1;" transform="translate(0,211.6)">100</text></g><g class="ytick"><text text-anchor="end" x="79" y="4.199999999999999" style="font-family: 'Open Sans', verdana, arial, sans-serif; font-size: 12px; fill: rgb(42, 63, 95); fill-opacity: 1; white-space: pre; opacity: 1;" transform="translate(0,174.4)">150</text></g><g class="ytick"><text text-anchor="end" x="79" y="4.199999999999999" style="font-family: 'Open Sans', verdana, arial, sans-serif; font-size: 12px; fill: rgb(42, 63, 95); fill-opacity: 1; white-space: pre; opacity: 1;" transform="translate(0,137.2)">200</text></g><g class="ytick"><text text-anchor="end" x="79" y="4.199999999999999" style="font-family: 'Open Sans', verdana, arial, sans-serif; font-size: 12px; fill: rgb(42, 63, 95); fill-opacity: 1; white-space: pre; opacity: 1;" transform="translate(0,100)">250</text></g></g><g class="overaxes-above"/></g><g class="subplot x2y2"><g class="layer-subplot"><g class="shapelayer"/><g class="imagelayer"/></g><g class="minor-gridlayer"><g class="x2"/><g class="y2"/></g><g class="gridlayer"><g class="x2"><path class="x2grid crisp" transform="translate(156.15,0)" d="M0,317.00000000000006v185.99999999999997" style="stroke: rgb(255, 255, 255); stroke-opacity: 1; stroke-width: 1px;"/><path class="x2grid crisp" transform="translate(240.77,0)" d="M0,317.00000000000006v185.99999999999997" style="stroke: rgb(255, 255, 255); stroke-opacity: 1; stroke-width: 1px;"/><path class="x2grid crisp" transform="translate(325.38,0)" d="M0,317.00000000000006v185.99999999999997" style="stroke: rgb(255, 255, 255); stroke-opacity: 1; stroke-width: 1px;"/><path class="x2grid crisp" transform="translate(410,0)" d="M0,317.00000000000006v185.99999999999997" style="stroke: rgb(255, 255, 255); stroke-opacity: 1; stroke-width: 1px;"/><path class="x2grid crisp" transform="translate(494.62,0)" d="M0,317.00000000000006v185.99999999999997" style="stroke: rgb(255, 255, 255); stroke-opacity: 1; stroke-width: 1px;"/></g><g class="y2"><path class="y2grid crisp" transform="translate(0,472.00000000000006)" d="M80,0h440" style="stroke: rgb(255, 255, 255); stroke-opacity: 1; stroke-width: 1px;"/><path class="y2grid crisp" transform="translate(0,410.00000000000006)" d="M80,0h440" style="stroke: rgb(255, 255, 255); stroke-opacity: 1; stroke-width: 1px;"/><path class="y2grid crisp" transform="translate(0,348.00000000000006)" d="M80,0h440" style="stroke: rgb(255, 255, 255); stroke-opacity: 1; stroke-width: 1px;"/></g></g><g class="zerolinelayer"/><path class="xlines-below"/><path class="ylines-below"/><g class="overlines-below"/><g class="xaxislayer-below"/><g class="yaxislayer-below"/><g class="overaxes-below"/><g class="plot" transform="translate(80,317.00000000000006)" clip-path="url(#clip631a80x2y2plot)"><g class="scatterlayer mlayer"><g class="trace scatter tracef11f44" style="stroke-miterlimit: 2;"><g class="fills"><g><path class="js-fill" d="M0,152.63L8.46,152.28L16.92,144.39L25.38,138.24L33.85,133.21L42.31,120.18L50.77,114.33L59.23,104.69L67.69,92.12L76.15,90.76L84.62,77.58L93.08,68.36L101.54,77.82L110,78.38L118.46,83.57L126.92,78.75L135.38,86.14L143.85,89.13L152.31,82.74L169.23,84.44L177.69,87.81L186.15,86.86L194.62,90.65L203.08,93.26L211.54,94.55L220,95.05L228.46,92.92L236.92,93.13L245.38,95.1L253.85,90.87L262.31,90.31L270.77,94.8L279.23,94.4L287.69,94.38L296.15,96.65L304.62,95.84L313.08,97.13L330,96.78L338.46,94.04L346.92,89.86L355.38,88.33L363.85,95.45L372.31,98.01L380.77,107.73L389.23,113.85L406.15,134.98L414.62,136.81L431.54,148.79L440,153.67L440,156.05L431.54,157.44L423.08,157.96L414.62,143.21L406.15,147.58L397.69,136.02L389.23,124.06L380.77,114.57L372.31,103.93L363.85,100.64L355.38,91.12L346.92,103.96L338.46,108.81L330,105.69L321.54,105.83L313.08,111.14L304.62,106.83L296.15,105.43L287.69,99.36L279.23,108.22L270.77,107.08L262.31,106.95L253.85,98.56L245.38,104.61L236.92,104.58L228.46,98.06L220,108.35L203.08,108.01L194.62,99.22L186.15,99.42L177.69,94.46L169.23,94.01L160.77,94.39L152.31,90.1L143.85,94.19L135.38,93.96L126.92,96.42L118.46,97.29L110,90.84L101.54,94.74L93.08,83.77L84.62,96.78L76.15,108.24L67.69,110.19L59.23,117.52L50.77,130.83L42.31,136.06L33.85,146.54L25.38,153.91L16.92,154.42L8.46,168.37L0,171.42Z" style="fill: rgb(145, 191, 219); fill-opacity: 1; stroke-width: 0;"/></g></g><g class="errorbars"/><g class="lines"><path class="js-line" d="M0,171.42L8.46,168.37L16.92,154.42L25.38,153.91L33.85,146.54L42.31,136.06L50.77,130.83L59.23,117.52L67.69,110.19L76.15,108.24L84.62,96.78L93.08,83.77L101.54,94.74L110,90.84L118.46,97.29L126.92,96.42L135.38,93.96L143.85,94.19L152.31,90.1L160.77,94.39L169.23,94.01L177.69,94.46L186.15,99.42L194.62,99.22L203.08,108.01L220,108.35L228.46,98.06L236.92,104.58L245.38,104.61L253.85,98.56L262.31,106.95L270.77,107.08L279.23,108.22L287.69,99.36L296.15,105.43L304.62,106.83L313.08,111.14L321.54,105.83L330,105.69L338.46,108.81L346.92,103.96L355.38,91.12L363.85,100.64L372.31,103.93L380.77,114.57L389.23,124.06L397.69,136.02L406.15,147.58L414.62,143.21L423.08,157.96L431.54,157.44L440,156.05" style="vector-effect: non-scaling-stroke; fill: none; stroke: rgb(0, 0, 0); stroke-opacity: 1; stroke-width: 0.25px; opacity: 1;"/></g><g class="points"/><g class="text"/></g><g class="trace scatter tracef4da4f" style="stroke-miterlimit: 2;"><g class="fills"><g><path class="js-fill" d="M0,141.87L8.46,145.95L16.92,137.37L25.38,132.83L33.85,125.18L42.31,114.09L50.77,106.29L59.23,97.51L67.69,81.84L76.15,78.35L84.62,68.28L93.08,60.04L101.54,63.72L110,72.91L118.46,64.19L126.92,66.87L135.38,74.37L143.85,80.96L152.31,76.06L160.77,75.69L169.23,79.69L186.15,83.45L194.62,82.56L203.08,87.28L211.54,85.51L220,87.64L228.46,88.25L236.92,89.21L245.38,88.43L262.31,86.67L270.77,90.69L279.23,89.16L287.69,89.4L304.62,91.98L313.08,92.22L321.54,90.88L330,83.8L338.46,84.27L346.92,85.63L355.38,86.87L363.85,92.73L372.31,95.05L380.77,101.93L397.69,116.01L406.15,127.03L414.62,129.59L423.08,134.42L431.54,142.08L440,140.38L440,153.67L431.54,148.79L414.62,136.81L406.15,134.98L389.23,113.85L380.77,107.73L372.31,98.01L363.85,95.45L355.38,88.33L346.92,89.86L338.46,94.04L330,96.78L313.08,97.13L304.62,95.84L296.15,96.65L287.69,94.38L279.23,94.4L270.77,94.8L262.31,90.31L253.85,90.87L245.38,95.1L236.92,93.13L228.46,92.92L220,95.05L211.54,94.55L203.08,93.26L194.62,90.65L186.15,86.86L177.69,87.81L169.23,84.44L152.31,82.74L143.85,89.13L135.38,86.14L126.92,78.75L118.46,83.57L110,78.38L101.54,77.82L93.08,68.36L84.62,77.58L76.15,90.76L67.69,92.12L59.23,104.69L50.77,114.33L42.31,120.18L33.85,133.21L25.38,138.24L16.92,144.39L8.46,152.28L0,152.63Z" style="fill: rgb(255, 255, 191); fill-opacity: 1; stroke-width: 0;"/></g></g><g class="errorbars"/><g class="lines"><path class="js-line" d="M0,152.63L8.46,152.28L16.92,144.39L25.38,138.24L33.85,133.21L42.31,120.18L50.77,114.33L59.23,104.69L67.69,92.12L76.15,90.76L84.62,77.58L93.08,68.36L101.54,77.82L110,78.38L118.46,83.57L126.92,78.75L135.38,86.14L143.85,89.13L152.31,82.74L169.23,84.44L177.69,87.81L186.15,86.86L194.62,90.65L203.08,93.26L211.54,94.55L220,95.05L228.46,92.92L236.92,93.13L245.38,95.1L253.85,90.87L262.31,90.31L270.77,94.8L279.23,94.4L287.69,94.38L296.15,96.65L304.62,95.84L313.08,97.13L330,96.78L338.46,94.04L346.92,89.86L355.38,88.33L363.85,95.45L372.31,98.01L380.77,107.73L389.23,113.85L406.15,134.98L414.62,136.81L431.54,148.79L440,153.67" style="vector-effect: non-scaling-stroke; fill: none; stroke: rgb(0, 0, 0); stroke-opacity: 1; stroke-width: 0.5px; opacity: 1;"/></g><g class="points"/><g class="text"/></g><g class="trace scatter tracef58efa" style="stroke-miterlimit: 2;"><g class="fills"><g><path class="js-fill" d="M0,131.26L8.46,135.18L16.92,129.69L25.38,127.55L33.85,118.68L42.31,108.69L50.77,100.65L59.23,83.83L67.69,75.18L84.62,60.55L93.08,55.82L101.54,49.77L110,57.55L118.46,56.66L126.92,59.58L135.38,57.4L143.85,70.97L152.31,66.36L160.77,66.42L169.23,73.65L177.69,72.49L186.15,75.49L194.62,76.35L203.08,80.83L211.54,82.17L220,81.68L228.46,84.23L236.92,81.98L245.38,80.84L253.85,84.32L262.31,78.22L270.77,82.27L279.23,80.65L287.69,87.41L296.15,83.85L304.62,83.9L313.08,85.62L321.54,83.83L330,74.6L338.46,78.05L346.92,78.71L355.38,85.29L363.85,90.74L372.31,90.91L380.77,97.74L397.69,111.13L406.15,120.66L414.62,118.87L423.08,125.75L431.54,130.67L440,124.01L440,140.38L431.54,142.08L423.08,134.42L414.62,129.59L406.15,127.03L397.69,116.01L380.77,101.93L372.31,95.05L363.85,92.73L355.38,86.87L346.92,85.63L338.46,84.27L330,83.8L321.54,90.88L313.08,92.22L304.62,91.98L287.69,89.4L279.23,89.16L270.77,90.69L262.31,86.67L245.38,88.43L236.92,89.21L228.46,88.25L220,87.64L211.54,85.51L203.08,87.28L194.62,82.56L186.15,83.45L169.23,79.69L160.77,75.69L152.31,76.06L143.85,80.96L135.38,74.37L126.92,66.87L118.46,64.19L110,72.91L101.54,63.72L93.08,60.04L84.62,68.28L76.15,78.35L67.69,81.84L59.23,97.51L50.77,106.29L42.31,114.09L33.85,125.18L25.38,132.83L16.92,137.37L8.46,145.95L0,141.87Z" style="fill: rgb(255, 255, 191); fill-opacity: 1; stroke-width: 0;"/></g></g><g class="errorbars"/><g class="lines"><path class="js-line" d="M0,141.87L8.46,145.95L16.92,137.37L25.38,132.83L33.85,125.18L42.31,114.09L50.77,106.29L59.23,97.51L67.69,81.84L76.15,78.35L84.62,68.28L93.08,60.04L101.54,63.72L110,72.91L118.46,64.19L126.92,66.87L135.38,74.37L143.85,80.96L152.31,76.06L160.77,75.69L169.23,79.69L186.15,83.45L194.62,82.56L203.08,87.28L211.54,85.51L220,87.64L228.46,88.25L236.92,89.21L245.38,88.43L262.31,86.67L270.77,90.69L279.23,89.16L287.69,89.4L304.62,91.98L313.08,92.22L321.54,90.88L330,83.8L338.46,84.27L346.92,85.63L355.38,86.87L363.85,92.73L372.31,95.05L380.77,101.93L397.69,116.01L406.15,127.03L414.62,129.59L423.08,134.42L431.54,142.08L440,140.38" style="vector-effect: non-scaling-stroke; fill: none; stroke: rgb(0, 0, 0); stroke-opacity: 1; stroke-width: 1px; opacity: 1;"/></g><g class="points"/><g class="text"/></g><g class="trace scatter trace565fcf" style="stroke-miterlimit: 2;"><g class="fills"><g><path class="js-fill" d="M0,109.71L8.46,122.99L16.92,113.47L25.38,117.64L33.85,107.82L42.31,94.65L50.77,85.48L59.23,70.5L67.69,57.82L76.15,54.21L84.62,54.19L93.08,48.69L101.54,37.36L110,31.21L118.46,36.21L126.92,33.73L135.38,22.08L143.85,56.39L152.31,47.35L160.77,43.47L169.23,68L177.69,54.03L186.15,61.93L194.62,55.51L203.08,67.2L211.54,71.47L220,65.85L228.46,73.9L236.92,71.68L245.38,70.08L253.85,78.4L262.31,61.97L270.77,68.47L279.23,67.77L287.69,79.35L296.15,67.41L304.62,71.61L313.08,78.9L321.54,69.59L330,66.72L338.46,62.55L355.38,81.26L363.85,86.88L372.31,85.16L380.77,89.09L389.23,97.65L397.69,96.49L406.15,104.52L414.62,114.9L431.54,124.1L440,119.25L440,124.01L431.54,130.67L423.08,125.75L414.62,118.87L406.15,120.66L397.69,111.13L380.77,97.74L372.31,90.91L363.85,90.74L355.38,85.29L346.92,78.71L338.46,78.05L330,74.6L321.54,83.83L313.08,85.62L304.62,83.9L296.15,83.85L287.69,87.41L279.23,80.65L270.77,82.27L262.31,78.22L253.85,84.32L245.38,80.84L236.92,81.98L228.46,84.23L220,81.68L211.54,82.17L203.08,80.83L194.62,76.35L186.15,75.49L177.69,72.49L169.23,73.65L160.77,66.42L152.31,66.36L143.85,70.97L135.38,57.4L126.92,59.58L118.46,56.66L110,57.55L101.54,49.77L93.08,55.82L84.62,60.55L67.69,75.18L59.23,83.83L50.77,100.65L42.31,108.69L33.85,118.68L25.38,127.55L16.92,129.69L8.46,135.18L0,131.26Z" style="fill: rgb(252, 141, 89); fill-opacity: 1; stroke-width: 0;"/></g></g><g class="errorbars"/><g class="lines"><path class="js-line" d="M0,131.26L8.46,135.18L16.92,129.69L25.38,127.55L33.85,118.68L42.31,108.69L50.77,100.65L59.23,83.83L67.69,75.18L84.62,60.55L93.08,55.82L101.54,49.77L110,57.55L118.46,56.66L126.92,59.58L135.38,57.4L143.85,70.97L152.31,66.36L160.77,66.42L169.23,73.65L177.69,72.49L186.15,75.49L194.62,76.35L203.08,80.83L211.54,82.17L220,81.68L228.46,84.23L236.92,81.98L245.38,80.84L253.85,84.32L262.31,78.22L270.77,82.27L279.23,80.65L287.69,87.41L296.15,83.85L304.62,83.9L313.08,85.62L321.54,83.83L330,74.6L338.46,78.05L346.92,78.71L355.38,85.29L363.85,90.74L372.31,90.91L380.77,97.74L397.69,111.13L406.15,120.66L414.62,118.87L423.08,125.75L431.54,130.67L440,124.01" style="vector-effect: non-scaling-stroke; fill: none; stroke: rgb(0, 0, 0); stroke-opacity: 1; stroke-width: 0.5px; opacity: 1;"/></g><g class="points"/><g class="text"/></g><g class="trace scatter trace12abea" style="stroke-miterlimit: 2;"><g class="fills"/><g class="errorbars"/><g class="lines"><path class="js-line" d="M0,109.71L8.46,122.99L16.92,113.47L25.38,117.64L33.85,107.82L42.31,94.65L50.77,85.48L59.23,70.5L67.69,57.82L76.15,54.21L84.62,54.19L93.08,48.69L101.54,37.36L110,31.21L118.46,36.21L126.92,33.73L135.38,22.08L143.85,56.39L152.31,47.35L160.77,43.47L169.23,68L177.69,54.03L186.15,61.93L194.62,55.51L203.08,67.2L211.54,71.47L220,65.85L228.46,73.9L236.92,71.68L245.38,70.08L253.85,78.4L262.31,61.97L270.77,68.47L279.23,67.77L287.69,79.35L296.15,67.41L304.62,71.61L313.08,78.9L321.54,69.59L330,66.72L338.46,62.55L355.38,81.26L363.85,86.88L372.31,85.16L380.77,89.09L389.23,97.65L397.69,96.49L406.15,104.52L414.62,114.9L431.54,124.1L440,119.25" style="vector-effect: non-scaling-stroke; fill: none; stroke: rgb(0, 0, 0); stroke-opacity: 1; stroke-width: 0.25px; opacity: 1;"/></g><g class="points"/><g class="text"/></g><g class="trace scatter tracec56279" style="stroke-miterlimit: 2; opacity: 1;"><g class="fills"/><g class="errorbars"/><g class="lines"/><g class="points"><path class="point" transform="translate(160.77,68.2)" d="M4,0A4,4 0 1,1 0,-4A4,4 0 0,1 4,0ZM0,0.5L0.5,0L0,-0.5L-0.5,0Z" style="opacity: 1; stroke: rgb(0, 0, 0); stroke-opacity: 1; stroke-width: 1px; fill: none;"/><path class="point" transform="translate(169.23,74.4)" d="M4,0A4,4 0 1,1 0,-4A4,4 0 0,1 4,0ZM0,0.5L0.5,0L0,-0.5L-0.5,0Z" style="opacity: 1; stroke: rgb(0, 0, 0); stroke-opacity: 1; stroke-width: 1px; fill: none;"/><path class="point" transform="translate(177.69,74.4)" d="M4,0A4,4 0 1,1 0,-4A4,4 0 0,1 4,0ZM0,0.5L0.5,0L0,-0.5L-0.5,0Z" style="opacity: 1; stroke: rgb(0, 0, 0); stroke-opacity: 1; stroke-width: 1px; fill: none;"/><path class="point" transform="translate(186.15,74.4)" d="M4,0A4,4 0 1,1 0,-4A4,4 0 0,1 4,0ZM0,0.5L0.5,0L0,-0.5L-0.5,0Z" style="opacity: 1; stroke: rgb(0, 0, 0); stroke-opacity: 1; stroke-width: 1px; fill: none;"/></g><g class="text"/></g></g></g><g class="overplot"/><path class="xlines-above crisp" d="M0,0" style="fill: none;"/><path class="ylines-above crisp" d="M0,0" style="fill: none;"/><g class="overlines-above"/><g class="xaxislayer-above"/><g class="yaxislayer-above"><g class="y2tick"><text text-anchor="end" x="79" y="4.199999999999999" transform="translate(0,472.00000000000006)" style="font-family: 'Open Sans', verdana, arial, sans-serif; font-size: 12px; fill: rgb(42, 63, 95); fill-opacity: 1; white-space: pre; opacity: 1;">20</text></g><g class="y2tick"><text text-anchor="end" x="79" y="4.199999999999999" style="font-family: 'Open Sans', verdana, arial, sans-serif; font-size: 12px; fill: rgb(42, 63, 95); fill-opacity: 1; white-space: pre; opacity: 1;" transform="translate(0,410.00000000000006)">30</text></g><g class="y2tick"><text text-anchor="end" x="79" y="4.199999999999999" style="font-family: 'Open Sans', verdana, arial, sans-serif; font-size: 12px; fill: rgb(42, 63, 95); fill-opacity: 1; white-space: pre; opacity: 1;" transform="translate(0,348.00000000000006)">40</text></g></g><g class="overaxes-above"/></g><g class="subplot x3y3"><g class="layer-subplot"><g class="shapelayer"/><g class="imagelayer"/></g><g class="minor-gridlayer"><g class="x3"/><g class="y3"/></g><g class="gridlayer"><g class="x3"><path class="x3grid crisp" transform="translate(156.15,0)" d="M0,534v186" style="stroke: rgb(255, 255, 255); stroke-opacity: 1; stroke-width: 1px;"/><path class="x3grid crisp" transform="translate(240.77,0)" d="M0,534v186" style="stroke: rgb(255, 255, 255); stroke-opacity: 1; stroke-width: 1px;"/><path class="x3grid crisp" transform="translate(325.38,0)" d="M0,534v186" style="stroke: rgb(255, 255, 255); stroke-opacity: 1; stroke-width: 1px;"/><path class="x3grid crisp" transform="translate(410,0)" d="M0,534v186" style="stroke: rgb(255, 255, 255); stroke-opacity: 1; stroke-width: 1px;"/><path class="x3grid crisp" transform="translate(494.62,0)" d="M0,534v186" style="stroke: rgb(255, 255, 255); stroke-opacity: 1; stroke-width: 1px;"/></g><g class="y3"><path class="y3grid crisp" transform="translate(0,682.8)" d="M80,0h440" style="stroke: rgb(255, 255, 255); stroke-opacity: 1; stroke-width: 1px;"/><path class="y3grid crisp" transform="translate(0,645.6)" d="M80,0h440" style="stroke: rgb(255, 255, 255); stroke-opacity: 1; stroke-width: 1px;"/><path class="y3grid crisp" transform="translate(0,608.4)" d="M80,0h440" style="stroke: rgb(255, 255, 255); stroke-opacity: 1; stroke-width: 1px;"/><path class="y3grid crisp" transform="translate(0,571.2)" d="M80,0h440" style="stroke: rgb(255, 255, 255); stroke-opacity: 1; stroke-width: 1px;"/></g></g><g class="zerolinelayer"/><path class="xlines-below"/><path class="ylines-below"/><g class="overlines-below"/><g class="xaxislayer-below"/><g class="yaxislayer-below"/><g class="overaxes-below"/><g class="plot" transform="translate(80,534)" clip-path="url(#clip631a80x3y3plot)"><g class="scatterlayer mlayer"><g class="trace scatter trace54d809" style="stroke-miterlimit: 2;"><g class="fills"><g><path class="js-fill" d="M0,124.91L8.46,135.63L16.92,127.15L25.38,121.58L33.85,121.14L42.31,112.32L50.77,109.37L59.23,98.59L67.69,85.25L84.62,76.16L93.08,65.03L101.54,62.73L110,63.66L118.46,60.92L126.92,53.98L135.38,55.57L143.85,55.44L152.31,48.86L160.77,43.25L169.23,39.5L177.69,39.36L186.15,37.05L194.62,36.58L203.08,35.97L211.54,36.26L220,35.59L228.46,36.59L236.92,36.42L245.38,38.13L262.31,36.71L270.77,36.97L279.23,38.17L287.69,37.86L296.15,38.18L304.62,39.55L313.08,41.13L321.54,41.79L330,43.12L338.46,46.06L346.92,49.58L355.38,52.13L363.85,64.18L372.31,69.38L380.77,80.92L389.23,87.89L397.69,98.18L406.15,104.32L414.62,109.27L423.08,120.94L431.54,121.84L440,135.48L440,139.44L431.54,138.42L423.08,134.4L414.62,122.42L406.15,118.59L397.69,111.29L389.23,98.99L380.77,92.76L372.31,82.66L363.85,70.67L355.38,59.24L346.92,56.76L338.46,53.07L330,50.48L321.54,43.14L313.08,48.61L304.62,42.97L296.15,40.1L287.69,40.44L279.23,39.9L270.77,41.78L262.31,41.51L253.85,38.89L245.38,40.97L236.92,38.78L220,37.68L211.54,38.33L203.08,41.17L194.62,40.78L186.15,42.37L177.69,48.02L169.23,44.44L160.77,50.38L152.31,53.28L143.85,60.88L135.38,61.16L126.92,67.74L118.46,64.05L110,78L101.54,77.01L93.08,82.14L84.62,90.21L76.15,93.49L67.69,99.52L59.23,110.94L50.77,133.49L42.31,128.5L33.85,143.78L25.38,133.9L16.92,139.64L8.46,145.21L0,131.51Z" style="fill: rgb(90, 180, 172); fill-opacity: 1; stroke-width: 0;"/></g></g><g class="errorbars"/><g class="lines"><path class="js-line" d="M0,131.51L8.46,145.21L16.92,139.64L25.38,133.9L33.85,143.78L42.31,128.5L50.77,133.49L59.23,110.94L67.69,99.52L76.15,93.49L84.62,90.21L93.08,82.14L101.54,77.01L110,78L118.46,64.05L126.92,67.74L135.38,61.16L143.85,60.88L152.31,53.28L160.77,50.38L169.23,44.44L177.69,48.02L186.15,42.37L194.62,40.78L203.08,41.17L211.54,38.33L220,37.68L236.92,38.78L245.38,40.97L253.85,38.89L262.31,41.51L270.77,41.78L279.23,39.9L287.69,40.44L296.15,40.1L304.62,42.97L313.08,48.61L321.54,43.14L330,50.48L338.46,53.07L346.92,56.76L355.38,59.24L363.85,70.67L372.31,82.66L380.77,92.76L389.23,98.99L397.69,111.29L406.15,118.59L414.62,122.42L423.08,134.4L431.54,138.42L440,139.44" style="vector-effect: non-scaling-stroke; fill: none; stroke: rgb(0, 0, 0); stroke-opacity: 1; stroke-width: 0.25px; opacity: 1;"/></g><g class="points"/><g class="text"/></g><g class="trace scatter traceeacde2" style="stroke-miterlimit: 2;"><g class="fills"><g><path class="js-fill" d="M0,120.82L8.46,127.22L16.92,118.74L25.38,115.93L33.85,114.12L42.31,101.98L50.77,96.14L59.23,87.38L67.69,80.24L76.15,72.29L84.62,65.87L93.08,56.55L101.54,52.66L118.46,56.43L126.92,50.18L143.85,50.9L152.31,43.93L160.77,39.76L169.23,38.5L186.15,34.94L194.62,34.63L211.54,35.22L220,34.05L228.46,34.85L236.92,34.68L245.38,36.27L253.85,36.77L262.31,34.22L270.77,34.75L287.69,35.78L296.15,37.17L304.62,38.7L313.08,38.06L321.54,37.83L330,39.71L338.46,40.62L346.92,45.81L355.38,50.91L363.85,60.41L372.31,62.58L380.77,73.88L397.69,91.39L406.15,97.71L423.08,110.49L431.54,117.91L440,128.66L440,135.48L431.54,121.84L423.08,120.94L414.62,109.27L406.15,104.32L397.69,98.18L389.23,87.89L380.77,80.92L372.31,69.38L363.85,64.18L355.38,52.13L346.92,49.58L338.46,46.06L330,43.12L321.54,41.79L313.08,41.13L304.62,39.55L296.15,38.18L287.69,37.86L279.23,38.17L270.77,36.97L262.31,36.71L245.38,38.13L236.92,36.42L228.46,36.59L220,35.59L211.54,36.26L203.08,35.97L194.62,36.58L186.15,37.05L177.69,39.36L169.23,39.5L160.77,43.25L152.31,48.86L143.85,55.44L135.38,55.57L126.92,53.98L118.46,60.92L110,63.66L101.54,62.73L93.08,65.03L84.62,76.16L67.69,85.25L59.23,98.59L50.77,109.37L42.31,112.32L33.85,121.14L25.38,121.58L16.92,127.15L8.46,135.63L0,124.91Z" style="fill: rgb(245, 245, 245); fill-opacity: 1; stroke-width: 0;"/></g></g><g class="errorbars"/><g class="lines"><path class="js-line" d="M0,124.91L8.46,135.63L16.92,127.15L25.38,121.58L33.85,121.14L42.31,112.32L50.77,109.37L59.23,98.59L67.69,85.25L84.62,76.16L93.08,65.03L101.54,62.73L110,63.66L118.46,60.92L126.92,53.98L135.38,55.57L143.85,55.44L152.31,48.86L160.77,43.25L169.23,39.5L177.69,39.36L186.15,37.05L194.62,36.58L203.08,35.97L211.54,36.26L220,35.59L228.46,36.59L236.92,36.42L245.38,38.13L262.31,36.71L270.77,36.97L279.23,38.17L287.69,37.86L296.15,38.18L304.62,39.55L313.08,41.13L321.54,41.79L330,43.12L338.46,46.06L346.92,49.58L355.38,52.13L363.85,64.18L372.31,69.38L380.77,80.92L389.23,87.89L397.69,98.18L406.15,104.32L414.62,109.27L423.08,120.94L431.54,121.84L440,135.48" style="vector-effect: non-scaling-stroke; fill: none; stroke: rgb(0, 0, 0); stroke-opacity: 1; stroke-width: 0.5px; opacity: 1;"/></g><g class="points"/><g class="text"/></g><g class="trace scatter trace5e8251" style="stroke-miterlimit: 2;"><g class="fills"><g><path class="js-fill" d="M0,113.79L8.46,116.93L16.92,113.91L25.38,110.29L33.85,105.64L42.31,93.5L50.77,87.58L59.23,76.25L67.69,68.73L93.08,51.78L101.54,46.15L110,48.74L118.46,45.7L126.92,43.16L135.38,44.02L143.85,41.8L152.31,40.9L160.77,37.75L169.23,35.73L177.69,32.5L186.15,31.52L203.08,31.79L211.54,32.91L220,31.66L228.46,31.23L245.38,34.41L253.85,31.89L262.31,31.22L270.77,33.31L279.23,33L287.69,34.13L304.62,36.63L313.08,35.58L321.54,35.15L330,31.73L355.38,47.08L363.85,53.89L372.31,57.03L380.77,68.13L389.23,76.78L397.69,86.55L406.15,93.81L414.62,96.68L423.08,99.72L431.54,109.98L440,121.66L440,128.66L431.54,117.91L423.08,110.49L406.15,97.71L397.69,91.39L380.77,73.88L372.31,62.58L363.85,60.41L355.38,50.91L346.92,45.81L338.46,40.62L330,39.71L321.54,37.83L313.08,38.06L304.62,38.7L296.15,37.17L287.69,35.78L270.77,34.75L262.31,34.22L253.85,36.77L245.38,36.27L236.92,34.68L228.46,34.85L220,34.05L211.54,35.22L194.62,34.63L186.15,34.94L169.23,38.5L160.77,39.76L152.31,43.93L143.85,50.9L126.92,50.18L118.46,56.43L101.54,52.66L93.08,56.55L84.62,65.87L76.15,72.29L67.69,80.24L59.23,87.38L50.77,96.14L42.31,101.98L33.85,114.12L25.38,115.93L16.92,118.74L8.46,127.22L0,120.82Z" style="fill: rgb(245, 245, 245); fill-opacity: 1; stroke-width: 0;"/></g></g><g class="errorbars"/><g class="lines"><path class="js-line" d="M0,120.82L8.46,127.22L16.92,118.74L25.38,115.93L33.85,114.12L42.31,101.98L50.77,96.14L59.23,87.38L67.69,80.24L76.15,72.29L84.62,65.87L93.08,56.55L101.54,52.66L118.46,56.43L126.92,50.18L143.85,50.9L152.31,43.93L160.77,39.76L169.23,38.5L186.15,34.94L194.62,34.63L211.54,35.22L220,34.05L228.46,34.85L236.92,34.68L245.38,36.27L253.85,36.77L262.31,34.22L270.77,34.75L287.69,35.78L296.15,37.17L304.62,38.7L313.08,38.06L321.54,37.83L330,39.71L338.46,40.62L346.92,45.81L355.38,50.91L363.85,60.41L372.31,62.58L380.77,73.88L397.69,91.39L406.15,97.71L423.08,110.49L431.54,117.91L440,128.66" style="vector-effect: non-scaling-stroke; fill: none; stroke: rgb(0, 0, 0); stroke-opacity: 1; stroke-width: 1px; opacity: 1;"/></g><g class="points"/><g class="text"/></g><g class="trace scatter trace1f49b2" style="stroke-miterlimit: 2;"><g class="fills"><g><path class="js-fill" d="M0,105.53L8.46,105.6L16.92,104.83L25.38,94.29L33.85,87.98L42.31,83.93L50.77,58.06L59.23,61.06L67.69,54.58L76.15,41.56L84.62,49.14L93.08,42.81L101.54,38.39L110,32.84L118.46,32.62L126.92,31.96L135.38,27.93L152.31,34.86L160.77,35.17L169.23,32.38L177.69,28.64L186.15,29.62L194.62,24.86L203.08,26.89L211.54,30.84L220,29.81L228.46,25.49L236.92,29.5L245.38,28.93L253.85,25.65L262.31,23.66L270.77,31.05L279.23,29.15L287.69,33.3L296.15,32.32L304.62,35.16L313.08,28.38L321.54,30.28L330,22.86L338.46,26.41L346.92,35.19L363.85,48.9L372.31,51.95L380.77,60.97L389.23,67.24L397.69,76.32L406.15,79.72L414.62,81.54L423.08,88.19L431.54,102.09L440,100.95L440,121.66L431.54,109.98L423.08,99.72L414.62,96.68L406.15,93.81L397.69,86.55L389.23,76.78L380.77,68.13L372.31,57.03L363.85,53.89L355.38,47.08L330,31.73L321.54,35.15L313.08,35.58L304.62,36.63L287.69,34.13L279.23,33L270.77,33.31L262.31,31.22L253.85,31.89L245.38,34.41L228.46,31.23L220,31.66L211.54,32.91L203.08,31.79L186.15,31.52L177.69,32.5L169.23,35.73L160.77,37.75L152.31,40.9L143.85,41.8L135.38,44.02L126.92,43.16L118.46,45.7L110,48.74L101.54,46.15L93.08,51.78L67.69,68.73L59.23,76.25L50.77,87.58L42.31,93.5L33.85,105.64L25.38,110.29L16.92,113.91L8.46,116.93L0,113.79Z" style="fill: rgb(216, 179, 101); fill-opacity: 1; stroke-width: 0;"/></g></g><g class="errorbars"/><g class="lines"><path class="js-line" d="M0,113.79L8.46,116.93L16.92,113.91L25.38,110.29L33.85,105.64L42.31,93.5L50.77,87.58L59.23,76.25L67.69,68.73L93.08,51.78L101.54,46.15L110,48.74L118.46,45.7L126.92,43.16L135.38,44.02L143.85,41.8L152.31,40.9L160.77,37.75L169.23,35.73L177.69,32.5L186.15,31.52L203.08,31.79L211.54,32.91L220,31.66L228.46,31.23L245.38,34.41L253.85,31.89L262.31,31.22L270.77,33.31L279.23,33L287.69,34.13L304.62,36.63L313.08,35.58L321.54,35.15L330,31.73L355.38,47.08L363.85,53.89L372.31,57.03L380.77,68.13L389.23,76.78L397.69,86.55L406.15,93.81L414.62,96.68L423.08,99.72L431.54,109.98L440,121.66" style="vector-effect: non-scaling-stroke; fill: none; stroke: rgb(0, 0, 0); stroke-opacity: 1; stroke-width: 0.5px; opacity: 1;"/></g><g class="points"/><g class="text"/></g><g class="trace scatter tracee93f02" style="stroke-miterlimit: 2;"><g class="fills"/><g class="errorbars"/><g class="lines"><path class="js-line" d="M0,105.53L8.46,105.6L16.92,104.83L25.38,94.29L33.85,87.98L42.31,83.93L50.77,58.06L59.23,61.06L67.69,54.58L76.15,41.56L84.62,49.14L93.08,42.81L101.54,38.39L110,32.84L118.46,32.62L126.92,31.96L135.38,27.93L152.31,34.86L160.77,35.17L169.23,32.38L177.69,28.64L186.15,29.62L194.62,24.86L203.08,26.89L211.54,30.84L220,29.81L228.46,25.49L236.92,29.5L245.38,28.93L253.85,25.65L262.31,23.66L270.77,31.05L279.23,29.15L287.69,33.3L296.15,32.32L304.62,35.16L313.08,28.38L321.54,30.28L330,22.86L338.46,26.41L346.92,35.19L363.85,48.9L372.31,51.95L380.77,60.97L389.23,67.24L397.69,76.32L406.15,79.72L414.62,81.54L423.08,88.19L431.54,102.09L440,100.95" style="vector-effect: non-scaling-stroke; fill: none; stroke: rgb(0, 0, 0); stroke-opacity: 1; stroke-width: 0.25px; opacity: 1;"/></g><g class="points"/><g class="text"/></g><g class="trace scatter traceafd04b" style="stroke-miterlimit: 2; opacity: 1;"><g class="fills"/><g class="errorbars"/><g class="lines"/><g class="points"><path class="point" transform="translate(160.77,44.64)" d="M4,0A4,4 0 1,1 0,-4A4,4 0 0,1 4,0ZM0,0.5L0.5,0L0,-0.5L-0.5,0Z" style="opacity: 1; stroke: rgb(0, 0, 0); stroke-opacity: 1; stroke-width: 1px; fill: none;"/><path class="point" transform="translate(169.23,37.2)" d="M4,0A4,4 0 1,1 0,-4A4,4 0 0,1 4,0ZM0,0.5L0.5,0L0,-0.5L-0.5,0Z" style="opacity: 1; stroke: rgb(0, 0, 0); stroke-opacity: 1; stroke-width: 1px; fill: none;"/><path class="point" transform="translate(177.69,37.2)" d="M4,0A4,4 0 1,1 0,-4A4,4 0 0,1 4,0ZM0,0.5L0.5,0L0,-0.5L-0.5,0Z" style="opacity: 1; stroke: rgb(0, 0, 0); stroke-opacity: 1; stroke-width: 1px; fill: none;"/><path class="point" transform="translate(186.15,37.2)" d="M4,0A4,4 0 1,1 0,-4A4,4 0 0,1 4,0ZM0,0.5L0.5,0L0,-0.5L-0.5,0Z" style="opacity: 1; stroke: rgb(0, 0, 0); stroke-opacity: 1; stroke-width: 1px; fill: none;"/></g><g class="text"/></g></g></g><g class="overplot"/><path class="xlines-above crisp" d="M0,0" style="fill: none;"/><path class="ylines-above crisp" d="M0,0" style="fill: none;"/><g class="overlines-above"/><g class="xaxislayer-above"><g class="x3tick"><text text-anchor="middle" x="0" y="733" transform="translate(156.15,0)" style="font-family: 'Open Sans', verdana, arial, sans-serif; font-size: 12px; fill: rgb(42, 63, 95); fill-opacity: 1; white-space: pre; opacity: 1;">10</text></g><g class="x3tick"><text text-anchor="middle" x="0" y="733" style="font-family: 'Open Sans', verdana, arial, sans-serif; font-size: 12px; fill: rgb(42, 63, 95); fill-opacity: 1; white-space: pre; opacity: 1;" transform="translate(240.77,0)">20</text></g><g class="x3tick"><text text-anchor="middle" x="0" y="733" style="font-family: 'Open Sans', verdana, arial, sans-serif; font-size: 12px; fill: rgb(42, 63, 95); fill-opacity: 1; white-space: pre; opacity: 1;" transform="translate(325.38,0)">30</text></g><g class="x3tick"><text text-anchor="middle" x="0" y="733" style="font-family: 'Open Sans', verdana, arial, sans-serif; font-size: 12px; fill: rgb(42, 63, 95); fill-opacity: 1; white-space: pre; opacity: 1;" transform="translate(410,0)">40</text></g><g class="x3tick"><text text-anchor="middle" x="0" y="733" style="font-family: 'Open Sans', verdana, arial, sans-serif; font-size: 12px; fill: rgb(42, 63, 95); fill-opacity: 1; white-space: pre; opacity: 1;" transform="translate(494.62,0)">50</text></g></g><g class="yaxislayer-above"><g class="y3tick"><text text-anchor="end" x="79" y="4.199999999999999" transform="translate(0,720)" style="font-family: 'Open Sans', verdana, arial, sans-serif; font-size: 12px; fill: rgb(42, 63, 95); fill-opacity: 1; white-space: pre; opacity: 1;">5</text></g><g class="y3tick"><text text-anchor="end" x="79" y="4.199999999999999" style="font-family: 'Open Sans', verdana, arial, sans-serif; font-size: 12px; fill: rgb(42, 63, 95); fill-opacity: 1; white-space: pre; opacity: 1;" transform="translate(0,682.8)">10</text></g><g class="y3tick"><text text-anchor="end" x="79" y="4.199999999999999" style="font-family: 'Open Sans', verdana, arial, sans-serif; font-size: 12px; fill: rgb(42, 63, 95); fill-opacity: 1; white-space: pre; opacity: 1;" transform="translate(0,645.6)">15</text></g><g class="y3tick"><text text-anchor="end" x="79" y="4.199999999999999" style="font-family: 'Open Sans', verdana, arial, sans-serif; font-size: 12px; fill: rgb(42, 63, 95); fill-opacity: 1; white-space: pre; opacity: 1;" transform="translate(0,608.4)">20</text></g><g class="y3tick"><text text-anchor="end" x="79" y="4.199999999999999" style="font-family: 'Open Sans', verdana, arial, sans-serif; font-size: 12px; fill: rgb(42, 63, 95); fill-opacity: 1; white-space: pre; opacity: 1;" transform="translate(0,571.2)">25</text></g><g class="y3tick"><text text-anchor="end" x="79" y="4.199999999999999" style="font-family: 'Open Sans', verdana, arial, sans-serif; font-size: 12px; fill: rgb(42, 63, 95); fill-opacity: 1; white-space: pre; opacity: 1;" transform="translate(0,534)">30</text></g></g><g class="overaxes-above"/></g></g><g class="polarlayer"/><g class="smithlayer"/><g class="ternarylayer"/><g class="geolayer"/><g class="funnelarealayer"/><g class="pielayer"/><g class="iciclelayer"/><g class="treemaplayer"/><g class="sunburstlayer"/><g class="glimages"/><defs id="topdefs-631a80"><g class="clips"/></defs><g class="layer-above"><g class="imagelayer"/><g class="shapelayer"/></g><g class="infolayer"><g class="g-gtitle"><text class="gtitle" x="30" y="50" text-anchor="start" dy="0em" style="font-family: 'Open Sans', verdana, arial, sans-serif; font-size: 17px; fill: rgb(42, 63, 95); opacity: 1; font-weight: normal; white-space: pre;">Climatology and S2S forecast for Natore</text></g><g class="g-xtitle"/><g class="g-x2title"/><g class="g-x3title"/><g class="g-ytitle"><text class="ytitle" transform="rotate(-90,34.16875,193)" x="34.16875" y="193" text-anchor="middle" style="font-family: 'Open Sans', verdana, arial, sans-serif; font-size: 14px; fill: rgb(42, 63, 95); opacity: 1; font-weight: normal; white-space: pre;">[mm]</text></g><g class="g-y2title"><text class="y2title" transform="rotate(-90,40.840625,410.00000000000006)" x="40.840625" y="410.00000000000006" text-anchor="middle" style="font-family: 'Open Sans', verdana, arial, sans-serif; font-size: 14px; fill: rgb(42, 63, 95); opacity: 1; font-weight: normal; white-space: pre;">[C]</text></g><g class="g-y3title"><text class="y3title" transform="rotate(-90,40.840625,627)" x="40.840625" y="627" text-anchor="middle" style="font-family: 'Open Sans', verdana, arial, sans-serif; font-size: 14px; fill: rgb(42, 63, 95); opacity: 1; font-weight: normal; white-space: pre;">[C]</text></g><g class="annotation" data-index="0" style="opacity: 1;"><g class="annotation-text-g" transform="rotate(0,300,89.5)"><g class="cursor-pointer" transform="translate(237,79)"><rect class="bg" x="0.5" y="0.5" width="126" height="20" style="stroke-width: 1px; stroke: rgb(0, 0, 0); stroke-opacity: 0; fill: rgb(0, 0, 0); fill-opacity: 0;"/><text class="annotation-text" text-anchor="middle" x="63.359375" y="16" style="font-family: 'Open Sans', verdana, arial, sans-serif; font-size: 16px; fill: rgb(42, 63, 95); fill-opacity: 1; white-space: pre;">Precipitation sum</text></g></g></g><g class="annotation" data-index="1" style="opacity: 1;"><g class="annotation-text-g" transform="rotate(0,300,306.50000000000006)"><g class="cursor-pointer" transform="translate(196,296)"><rect class="bg" x="0.5" y="0.5" width="208" height="20" style="stroke-width: 1px; stroke: rgb(0, 0, 0); stroke-opacity: 0; fill: rgb(0, 0, 0); fill-opacity: 0;"/><text class="annotation-text" text-anchor="middle" x="104.265625" y="16" style="font-family: 'Open Sans', verdana, arial, sans-serif; font-size: 16px; fill: rgb(42, 63, 95); fill-opacity: 1; white-space: pre;">Mean maximum temperature</text></g></g></g><g class="annotation" data-index="2" style="opacity: 1;"><g class="annotation-text-g" transform="rotate(0,300,523.5)"><g class="cursor-pointer" transform="translate(198,513)"><rect class="bg" x="0.5" y="0.5" width="203" height="20" style="stroke-width: 1px; stroke: rgb(0, 0, 0); stroke-opacity: 0; fill: rgb(0, 0, 0); fill-opacity: 0;"/><text class="annotation-text" text-anchor="middle" x="102.046875" y="16" style="font-family: 'Open Sans', verdana, arial, sans-serif; font-size: 16px; fill: rgb(42, 63, 95); fill-opacity: 1; white-space: pre;">Mean minimum temperature</text></g></g></g><g class="annotation" data-index="3" style="opacity: 1;"><g class="annotation-text-g" transform="rotate(0,300,760.5)"><g class="cursor-pointer" transform="translate(277,750)"><rect class="bg" x="0.5" y="0.5" width="45" height="20" style="stroke-width: 1px; stroke: rgb(0, 0, 0); stroke-opacity: 0; fill: rgb(0, 0, 0); fill-opacity: 0;"/><text class="annotation-text" text-anchor="middle" x="22.3125" y="16" style="font-family: 'Open Sans', verdana, arial, sans-serif; font-size: 16px; fill: rgb(42, 63, 95); fill-opacity: 1; white-space: pre;">Week</text></g></g></g></g></svg>