<svg class="main-svg" xmlns="http://www.w3.org/2000/svg" xmlns:xlink="http://www.w3.org/1999/xlink" width="600" height="800" style="" viewBox="0 0 600 800"><rect x="0" y="0" width="600" height="800" style="fill: rgb(255, 255, 255); fill-opacity: 1;"/><defs id="defs-7dc676"><g class="clips"><clipPath id="clip7dc676xyplot" class="plotclip"><rect width="440" height="186.00000000000003"/></clipPath><clipPath id="clip7dc676x2y2plot" class="plotclip"><rect width="440" height="185.99999999999997"/></clipPath><clipPath id="clip7dc676x3y3plot" class="plotclip"><rect width="440" height="186"/></clipPath><clipPath class="axesclip" id="clip7dc676x"><rect x="80" y="0" width="440" height="800"/></clipPath><clipPath class="axesclip" id="clip7dc676y"><rect x="0" y="100" width="600" height="186.00000000000003"/></clipPath><clipPath class="axesclip" id="clip7dc676xy"><rect x="80" y="100" width="440" height="186.00000000000003"/></clipPath><clipPath class="axesclip" id="clip7dc676y2"><rect x="0" y="317.00000000000006" width="600" height="185.99999999999997"/></clipPath><clipPath class="axesclip" id="clip7dc676xy2"><rect x="80" y="317.00000000000006" width="440" height="185.99999999999997"/></clipPath><clipPath class="axesclip" id="clip7dc676y3"><rect x="0" y="534" width="600" height="186"/></clipPath><clipPath class="axesclip" id="clip7dc676xy3"><rect x="80" y="534" width="440" height="186"/></clipPath><clipPath class="axesclip" id="clip7dc676x2"><rect x="80" y="0" width="440" height="800"/></clipPath><clipPath class="axesclip" id="clip7dc676x2y"><rect x="80" y="100" width="440" height="186.00000000000003"/></clipPath><clipPath class="axesclip" id="clip7dc676x2y2"><rect x="80" y="317.00000000000006" width="440" height="185.99999999999997"/></clipPath><clipPath class="axesclip" id="clip7dc676x2y3"><rect x="80" y="534" width="440" height="186"/></clipPath><clipPath class="axesclip" id="clip7dc676x3"><rect x="80" y="0" width="440" height="800"/></clipPath><clipPath class="axesclip" id="clip7dc676x3y"><rect x="80" y="100" width="440" height="186.00000000000003"/></clipPath><clipPath class="axesclip" id="clip7dc676x3y2"><rect x="80" y="317.00000000000006" width="440" height="185.99999999999997"/></clipPath><clipPath class="axesclip" id="clip7dc676x3y3"><rect x="80" y="534" width="440" height="186"/></clipPath></g><g class="gradients"/><g class="patterns"/></defs><g class="bglayer"><rect class="bg" x="80" y="100" width="440" height="186.00000000000003" style="fill: rgb(229, 236, 246); fill-opacity: 1; stroke-width: 0;"/><rect class="bg" x="80" y="317.00000000000006" width="440" height="185.99999999999997" style="fill: rgb(229, 236, 246); fill-opacity: 1; stroke-width: 0;"/><rect class="bg" x="80" y="534" width="440" height="186" style="fill: rgb(229, 236, 246); fill-opacity: 1; stroke-width: 0;"/></g><g class="layer-below"><g class="imagelayer"/><g class="shapelayer"/></g><g class="cartesianlayer"><g class="subplot xy"><g class="layer-subplot"><g class="shapelayer"/><g class="imagelayer"/></g><g class="minor-gridlayer"><g class="x"/><g class="y"/></g><g class="gridlayer"><g class="x"><path class="xgrid crisp" transform="translate(156.15,0)" d="M0,100v186.00000000000003" style="stroke: rgb(255, 255, 255); stroke-opacity: 1; stroke-width: 1px;"/><path class="xgrid crisp" transform="translate(240.77,0)" d="M0,100v186.00000000000003" style="stroke: rgb(255, 255, 255); stroke-opacity: 1; stroke-width: 1px;"/><path class="xgrid crisp" transform="translate(325.38,0)" d="M0,100v186.00000000000003" style="stroke: rgb(255, 255, 255); stroke-opacity: 1; stroke-width: 1px;"/><path class="xgrid crisp" transform="translate(410,0)" d="M0,100v186.00000000000003" style="stroke: rgb(255, 255, 255); stroke-opacity: 1; stroke-width: 1px;"/><path class="xgrid crisp" transform="translate(494.62,0)" d="M0,100v186.00000000000003" style="stroke: rgb(255, 255, 255); stroke-opacity: 1; stroke-width: 1px;"/></g><g class="y"><path class="ygrid crisp" transform="translate(0,248.8)" d="M80,0h440" style="stroke: rgb(255, 255, 255); stroke-opacity: 1; stroke-width: 1px;"/><path class="ygrid crisp" transform="translate(0,211.6)" d="M80,0h440" style="stroke: rgb(255, 255, 255); stroke-opacity: 1; stroke-width: 1px;"/><path class="ygrid crisp" transform="translate(0,174.4)" d="M80,0h440" style="stroke: rgb(255, 255, 255); stroke-opacity: 1; stroke-width: 1px;"/><path class="ygrid crisp" transform="translate(0,137.2)" d="M80,0h440" style="stroke: rgb(255, 255, 255); stroke-opacity: 1; stroke-width: 1px;"/></g></g><g class="zerolinelayer"><path class="yzl zl crisp" transform="translate(0,286)" d="M80,0h440" style="stroke: rgb(255, 255, 255); stroke-opacity: 1; stroke-width: 2px;"/></g><path class="xlines-below"/><path class="ylines-below"/><g class="overlines-below"/><g class="xaxislayer-below"/><g class="yaxislayer-below"/><g class="overaxes-below"/><g class="plot" transform="translate(80,100)" clip-path="url(#clip7dc676xyplot)"><g class="scatterlayer mlayer"><g class="trace scatter tracee75ff7" style="stroke-miterlimit: 2;"><g class="fills"><g><path class="js-fill" d="M0,186L110,185.63L118.46,184.83L126.92,179.45L135.38,169.52L143.85,151.02L152.31,165.69L160.77,162.93L169.23,144.73L177.69,156.91L186.15,173.42L194.62,143.6L203.08,155.78L211.54,159.79L220,145.72L228.46,138.59L236.92,163.44L245.38,158.48L253.85,176.82L262.31,172.92L270.77,167.78L279.23,173.27L287.69,177.66L296.15,181.72L304.62,175.25L321.54,170.67L330,171.9L338.46,183.72L346.92,185.98L440,186L440,186L330,186L321.54,185.99L313.08,182.5L304.62,185.98L296.15,185.98L287.69,185.98L279.23,184.35L270.77,185.97L262.31,183.62L253.85,185.26L245.38,183.41L236.92,185.91L228.46,180.44L220,183.37L211.54,183.18L203.08,174.68L194.62,174.39L186.15,185.55L177.69,184.12L169.23,161.89L160.77,182.81L152.31,186L0,186Z" style="fill: rgb(224, 236, 244); fill-opacity: 1; stroke-width: 0;"/></g></g><g class="errorbars"/><g class="lines"><path class="js-line" d="M0,186L152.31,186L160.77,182.81L169.23,161.89L177.69,184.12L186.15,185.55L194.62,174.39L203.08,174.68L211.54,183.18L220,183.37L228.46,180.44L236.92,185.91L245.38,183.41L253.85,185.26L262.31,183.62L270.77,185.97L279.23,184.35L287.69,185.98L296.15,185.98L304.62,185.98L313.08,182.5L321.54,185.99L330,186L440,186" style="vector-effect: non-scaling-stroke; fill: none; stroke: rgb(0, 0, 0); stroke-opacity: 1; stroke-width: 0.25px; opacity: 1;"/></g><g class="points"/><g class="text"/></g><g class="trace scatter trace525cb0" style="stroke-miterlimit: 2;"><g class="fills"><g><path class="js-fill" d="M0,186L93.08,185.97L101.54,182.38L110,180.64L118.46,177.61L126.92,165.65L135.38,151.98L143.85,127.95L152.31,145.75L160.77,149.66L169.23,128.93L177.69,108.24L186.15,144.11L194.62,132.94L203.08,126.43L211.54,102.36L220,115.41L228.46,96.05L236.92,132.78L245.38,139.81L253.85,156.03L262.31,146.69L270.77,131.48L279.23,153.8L287.69,172.4L296.15,160.4L304.62,134.31L313.08,149.67L321.54,94.16L330,151.07L338.46,174.14L346.92,184.36L355.38,185.99L440,186L440,186L346.92,185.98L338.46,183.72L330,171.9L321.54,170.67L304.62,175.25L296.15,181.72L287.69,177.66L279.23,173.27L270.77,167.78L262.31,172.92L253.85,176.82L245.38,158.48L236.92,163.44L228.46,138.59L220,145.72L211.54,159.79L203.08,155.78L194.62,143.6L186.15,173.42L177.69,156.91L169.23,144.73L160.77,162.93L152.31,165.69L143.85,151.02L135.38,169.52L126.92,179.45L118.46,184.83L110,185.63L0,186Z" style="fill: rgb(158, 188, 218); fill-opacity: 1; stroke-width: 0;"/></g></g><g class="errorbars"/><g class="lines"><path class="js-line" d="M0,186L110,185.63L118.46,184.83L126.92,179.45L135.38,169.52L143.85,151.02L152.31,165.69L160.77,162.93L169.23,144.73L177.69,156.91L186.15,173.42L194.62,143.6L203.08,155.78L211.54,159.79L220,145.72L228.46,138.59L236.92,163.44L245.38,158.48L253.85,176.82L262.31,172.92L270.77,167.78L279.23,173.27L287.69,177.66L296.15,181.72L304.62,175.25L321.54,170.67L330,171.9L338.46,183.72L346.92,185.98L440,186" style="vector-effect: non-scaling-stroke; fill: none; stroke: rgb(0, 0, 0); stroke-opacity: 1; stroke-width: 0.5px; opacity: 1;"/></g><g class="points"/><g class="text"/></g><g class="trace scatter trace1ce5b5" style="stroke-miterlimit: 2;"><g class="fills"><g><path class="js-fill" d="M0,186L25.38,186L33.85,184.72L42.31,184.4L50.77,185.6L59.23,183.03L67.69,185.32L76.15,184.02L84.62,184.64L93.08,178.17L101.54,173.7L110,171.28L118.46,154.65L126.92,155.42L135.38,109.03L143.85,110.3L152.31,121.05L160.77,130.08L169.23,108.84L177.69,82.41L186.15,102.96L194.62,78.36L203.08,85.86L211.54,69.5L220,67.94L228.46,18.22L236.92,89.91L245.38,93.37L253.85,127.45L262.31,114L270.77,92.19L279.23,103.23L287.69,161.64L296.15,105.13L304.62,101.74L313.08,106.15L321.54,26.87L330,104.76L338.46,140.51L346.92,165.83L355.38,176.81L363.85,185.35L372.31,186L440,186L440,186L355.38,185.99L346.92,184.36L338.46,174.14L330,151.07L321.54,94.16L313.08,149.67L304.62,134.31L296.15,160.4L287.69,172.4L279.23,153.8L270.77,131.48L262.31,146.69L253.85,156.03L245.38,139.81L236.92,132.78L228.46,96.05L220,115.41L211.54,102.36L203.08,126.43L194.62,132.94L186.15,144.11L177.69,108.24L169.23,128.93L160.77,149.66L152.31,145.75L143.85,127.95L135.38,151.98L126.92,165.65L118.46,177.61L110,180.64L101.54,182.38L93.08,185.97L0,186Z" style="fill: rgb(158, 188, 218); fill-opacity: 1; stroke-width: 0;"/></g></g><g class="errorbars"/><g class="lines"><path class="js-line" d="M0,186L93.08,185.97L101.54,182.38L110,180.64L118.46,177.61L126.92,165.65L135.38,151.98L143.85,127.95L152.31,145.75L160.77,149.66L169.23,128.93L177.69,108.24L186.15,144.11L194.62,132.94L203.08,126.43L211.54,102.36L220,115.41L228.46,96.05L236.92,132.78L245.38,139.81L253.85,156.03L262.31,146.69L270.77,131.48L279.23,153.8L287.69,172.4L296.15,160.4L304.62,134.31L313.08,149.67L321.54,94.16L330,151.07L338.46,174.14L346.92,184.36L355.38,185.99L440,186" style="vector-effect: non-scaling-stroke; fill: none; stroke: rgb(0, 0, 0); stroke-opacity: 1; stroke-width: 1px; opacity: 1;"/></g><g class="points"/><g class="text"/></g><g class="trace scatter trace72d6fa" style="stroke-miterlimit: 2;"><g class="fills"><g><path class="js-fill" d="M0,186L25.38,186L33.85,182.92L42.31,182.41L50.77,185.55L59.23,178.66L67.69,184.51L76.15,183.61L84.62,184.43L93.08,167.31L101.54,156.92L110,154.06L118.46,132.96L126.92,123.24L135.38,49.63L143.85,90.51L152.31,81.1L160.77,118.5L169.23,74.44L177.69,33.48L186.15,49.68L194.62,-11.98L203.08,37.83L211.54,35.17L220,-21.22L228.46,-144.07L236.92,8.76L245.38,45.93L253.85,59.81L262.31,40.06L270.77,12.73L287.69,145.64L296.15,49.41L304.62,13.05L313.08,39.18L321.54,-149.07L330,52.62L338.46,123.3L346.92,158.05L355.38,175.77L363.85,185.22L372.31,185.99L380.77,186L440,186L440,186L372.31,186L363.85,185.35L355.38,176.81L346.92,165.83L338.46,140.51L330,104.76L321.54,26.87L313.08,106.15L304.62,101.74L296.15,105.13L287.69,161.64L279.23,103.23L270.77,92.19L262.31,114L253.85,127.45L245.38,93.37L236.92,89.91L228.46,18.22L220,67.94L211.54,69.5L203.08,85.86L194.62,78.36L186.15,102.96L177.69,82.41L169.23,108.84L160.77,130.08L152.31,121.05L143.85,110.3L135.38,109.03L126.92,155.42L118.46,154.65L110,171.28L101.54,173.7L93.08,178.17L84.62,184.64L76.15,184.02L67.69,185.32L59.23,183.03L50.77,185.6L42.31,184.4L33.85,184.72L25.38,186L0,186Z" style="fill: rgb(136, 86, 167); fill-opacity: 1; stroke-width: 0;"/></g></g><g class="errorbars"/><g class="lines"><path class="js-line" d="M0,186L25.38,186L33.85,184.72L42.31,184.4L50.77,185.6L59.23,183.03L67.69,185.32L76.15,184.02L84.62,184.64L93.08,178.17L101.54,173.7L110,171.28L118.46,154.65L126.92,155.42L135.38,109.03L143.85,110.3L152.31,121.05L160.77,130.08L169.23,108.84L177.69,82.41L186.15,102.96L194.62,78.36L203.08,85.86L211.54,69.5L220,67.94L228.46,18.22L236.92,89.91L245.38,93.37L253.85,127.45L262.31,114L270.77,92.19L279.23,103.23L287.69,161.64L296.15,105.13L304.62,101.74L313.08,106.15L321.54,26.87L330,104.76L338.46,140.51L346.92,165.83L355.38,176.81L363.85,185.35L372.31,186L440,186" style="vector-effect: non-scaling-stroke; fill: none; stroke: rgb(0, 0, 0); stroke-opacity: 1; stroke-width: 0.5px; opacity: 1;"/></g><g class="points"/><g class="text"/></g><g class="trace scatter trace0f5a0f" style="stroke-miterlimit: 2;"><g class="fills"/><g class="errorbars"/><g class="lines"><path class="js-line" d="M0,186L25.38,186L33.85,182.92L42.31,182.41L50.77,185.55L59.23,178.66L67.69,184.51L76.15,183.61L84.62,184.43L93.08,167.31L101.54,156.92L110,154.06L118.46,132.96L126.92,123.24L135.38,49.63L143.85,90.51L152.31,81.1L160.77,118.5L169.23,74.44L177.69,33.48L186.15,49.68L194.62,-11.98L203.08,37.83L211.54,35.17L220,-21.22L228.46,-144.07L236.92,8.76L245.38,45.93L253.85,59.81L262.31,40.06L270.77,12.73L287.69,145.64L296.15,49.41L304.62,13.05L313.08,39.18L321.54,-149.07L330,52.62L338.46,123.3L346.92,158.05L355.38,175.77L363.85,185.22L372.31,185.99L380.77,186L440,186" style="vector-effect: non-scaling-stroke; fill: none; stroke: rgb(0, 0, 0); stroke-opacity: 1; stroke-width: 0.25px; opacity: 1;"/></g><g class="points"/><g class="text"/></g><g class="trace scatter tracecbd0ac" style="stroke-miterlimit: 2; opacity: 1;"><g class="fills"/><g class="errorbars"/><g class="lines"/><g class="points"><path class="point" transform="translate(220,58.03)" d="M4,0A4,4 0 1,1 0,-4A4,4 0 0,1 4,0ZM0,0.5L0.5,0L0,-0.5L-0.5,0Z" style="opacity: 1; stroke: rgb(0, 0, 0); stroke-opacity: 1; stroke-width: 1px; fill: none;"/><path class="point" transform="translate(228.46,61.01)" d="M4,0A4,4 0 1,1 0,-4A4,4 0 0,1 4,0ZM0,0.5L0.5,0L0,-0.5L-0.5,0Z" style="opacity: 1; stroke: rgb(0, 0, 0); stroke-opacity: 1; stroke-width: 1px; fill: none;"/><path class="point" transform="translate(236.92,49.85)" d="M4,0A4,4 0 1,1 0,-4A4,4 0 0,1 4,0ZM0,0.5L0.5,0L0,-0.5L-0.5,0Z" style="opacity: 1; stroke: rgb(0, 0, 0); stroke-opacity: 1; stroke-width: 1px; fill: none;"/><path class="point" transform="translate(245.38,49.85)" d="M4,0A4,4 0 1,1 0,-4A4,4 0 0,1 4,0ZM0,0.5L0.5,0L0,-0.5L-0.5,0Z" style="opacity: 1; stroke: rgb(0, 0, 0); stroke-opacity: 1; stroke-width: 1px; fill: none;"/></g><g class="text"/></g></g></g><g class="overplot"/><path class="xlines-above crisp" d="M0,0" style="fill: none;"/><path class="ylines-above crisp" d="M0,0" style="fill: none;"/><g class="overlines-above"/><g class="xaxislayer-above"/><g class="yaxislayer-above"><g class="ytick"><text text-anchor="end" x="79" y="4.199999999999999" transform="translate(0,286)" style="font-family: 'Open Sans', verdana, arial, sans-serif; font-size: 12px; fill: rgb(42, 63, 95); fill-opacity: 1; white-space: pre; opacity: 1;">0</text></g><g class="ytick"><text text-anchor="end" x="79" y="4.199999999999999" style="font-family: 'Open Sans', verdana, arial, sans-serif; font-size: 12px; fill: rgb(42, 63, 95); fill-opacity: 1; white-space: pre; opacity: 1;" transform="translate(0,248.8)">50</text></g><g class="ytick"><text text-anchor="end" x="79" y="4.199999999999999" style="font-family: 'Open Sans', verdana, arial, sans-serif; font-size: 12px; fill: rgb(42, 63, 95); fill-opacity: 1; white-space: pre; opacity: 1;" transform="translate(0,211.6)">100</text></g><g class="ytick"><text text-anchor="end" x="79" y="4.199999999999999" style="font-family: 'Open Sans', verdana, arial, sans-serif; font-size: 12px; fill: rgb(42, 63, 95); fill-opacity: 1; white-space: pre; opacity: 1;" transform="translate(0,174.4)">150</text></g><g class="ytick"><text text-anchor="end" x="79" y="4.199999999999999" style="font-family: 'Open Sans', verdana, arial, sans-serif; font-size: 12px; fill: rgb(42, 63, 95); fill-opacity: 1; white-space: pre; opacity: 1;" transform="translate(0,137.2)">200</text></g><g class="ytick"><text text-anchor="end" x="79" y="4.199999999999999" style="font-family: 'Open Sans', verdana, arial, sans-serif; font-size: 12px; fill: rgb(42, 63, 95); fill-opacity: 1; white-space: pre; opacity: 1;" transform="translate(0,100)">250</text></g></g><g class="overaxes-above"/></g><g class="subplot x2y2"><g class="layer-subplot"><g class="shapelayer"/><g class="imagelayer"/></g><g class="minor-gridlayer"><g class="x2"/><g class="y2"/></g><g class="gridlayer"><g class="x2"><path class="x2grid crisp" transform="translate(156.15,0)" d="M0,317.00000000000006v185.99999999999997" style="stroke: rgb(255, 255, 255); stroke-opacity: 1; stroke-width: 1px;"/><path class="x2grid crisp" transform="translate(240.77,0)" d="M0,317.00000000000006v185.99999999999997" style="stroke: rgb(255, 255, 255); stroke-opacity: 1; stroke-width: 1px;"/><path class="x2grid crisp" transform="translate(325.38,0)" d="M0,317.00000000000006v185.99999999999997" style="stroke: rgb(255, 255, 255); stroke-opacity: 1; stroke-width: 1px;"/><path class="x2grid crisp" transform="translate(410,0)" d="M0,317.00000000000006v185.99999999999997" style="stroke: rgb(255, 255, 255); stroke-opacity: 1; stroke-width: 1px;"/><path class="x2grid crisp" transform="translate(494.62,0)" d="M0,317.00000000000006v185.99999999999997" style="stroke: rgb(255, 255, 255); stroke-opacity: 1; stroke-width: 1px;"/></g><g class="y2"><path class="y2grid crisp" transform="translate(0,472.00000000000006)" d="M80,0h440" style="stroke: rgb(255, 255, 255); stroke-opacity: 1; stroke-width: 1px;"/><path class="y2grid crisp" transform="translate(0,410.00000000000006)" d="M80,0h440" style="stroke: rgb(255, 255, 255); stroke-opacity: 1; stroke-width: 1px;"/><path class="y2grid crisp" transform="translate(0,348.00000000000006)" d="M80,0h440" style="stroke: rgb(255, 255, 255); stroke-opacity: 1; stroke-width: 1px;"/></g></g><g class="zerolinelayer"/><path class="xlines-below"/><path class="ylines-below"/><g class="overlines-below"/><g class="xaxislayer-below"/><g class="yaxislayer-below"/><g class="overaxes-below"/><g class="plot" transform="translate(80,317.00000000000006)" clip-path="url(#clip7dc676x2y2plot)"><g class="scatterlayer mlayer"><g class="trace scatter traceee6dac" style="stroke-miterlimit: 2;"><g class="fills"><g><path class="js-fill" d="M0,144.05L8.46,147.94L16.92,139.38L33.85,131.78L42.31,122.87L50.77,115.7L59.23,107.52L67.69,95.55L76.15,98.54L84.62,81.96L93.08,70.42L101.54,80.02L110,87.79L126.92,83.12L135.38,83.22L143.85,85.58L152.31,76.19L169.23,83.45L177.69,82.47L186.15,82.39L194.62,92.14L203.08,89.62L211.54,88.99L220,94.8L228.46,95L236.92,87.79L245.38,88.42L253.85,83.46L262.31,82.7L270.77,91.8L279.23,88.94L287.69,87.93L296.15,93.05L304.62,91.16L313.08,92.82L321.54,89.37L330,92.84L338.46,93.34L346.92,88.18L355.38,88.14L363.85,94.52L372.31,97.46L380.77,106.35L397.69,119.29L406.15,126.15L414.62,129.65L423.08,139.97L431.54,140.06L440,146.06L440,151.34L431.54,150.36L423.08,160.49L414.62,136.39L406.15,133.53L397.69,133.99L389.23,118.16L380.77,113.09L372.31,101.07L363.85,100.85L355.38,90.52L346.92,95.24L338.46,108.02L330,108.35L321.54,97.18L313.08,96.89L304.62,97.13L296.15,106.59L287.69,97.44L279.23,95.38L270.77,105.26L262.31,96.16L253.85,90.2L245.38,97.21L236.92,108.53L228.46,110.75L220,101.85L203.08,96.93L194.62,101.03L186.15,102.07L177.69,91.41L169.23,95.17L160.77,86.28L152.31,80.88L143.85,96.95L135.38,100.83L126.92,93.08L118.46,92.13L110,103.37L101.54,95.28L93.08,84.98L84.62,101.23L76.15,104.83L67.69,111.96L59.23,122.39L50.77,138.15L42.31,134.85L33.85,150.09L25.38,138.48L16.92,147.01L8.46,160.97L0,164.55Z" style="fill: rgb(145, 191, 219); fill-opacity: 1; stroke-width: 0;"/></g></g><g class="errorbars"/><g class="lines"><path class="js-line" d="M0,164.55L8.46,160.97L16.92,147.01L25.38,138.48L33.85,150.09L42.31,134.85L50.77,138.15L59.23,122.39L67.69,111.96L76.15,104.83L84.62,101.23L93.08,84.98L101.54,95.28L110,103.37L118.46,92.13L126.92,93.08L135.38,100.83L143.85,96.95L152.31,80.88L160.77,86.28L169.23,95.17L177.69,91.41L186.15,102.07L194.62,101.03L203.08,96.93L220,101.85L228.46,110.75L236.92,108.53L245.38,97.21L253.85,90.2L262.31,96.16L270.77,105.26L279.23,95.38L287.69,97.44L296.15,106.59L304.62,97.13L313.08,96.89L321.54,97.18L330,108.35L338.46,108.02L346.92,95.24L355.38,90.52L363.85,100.85L372.31,101.07L380.77,113.09L389.23,118.16L397.69,133.99L406.15,133.53L414.62,136.39L423.08,160.49L431.54,150.36L440,151.34" style="vector-effect: non-scaling-stroke; fill: none; stroke: rgb(0, 0, 0); stroke-opacity: 1; stroke-width: 0.25px; opacity: 1;"/></g><g class="points"/><g class="text"/></g><g class="trace scatter trace8ad76e" style="stroke-miterlimit: 2;"><g class="fills"><g><path class="js-fill" d="M0,139.15L8.46,142.07L16.92,132.14L25.38,132.08L33.85,125.53L42.31,115.95L50.77,110.23L59.23,99.88L67.69,87.23L84.62,74.41L93.08,65.1L101.54,70.46L110,73.65L118.46,75.71L126.92,78.92L135.38,76.86L143.85,79.05L152.31,73.05L160.77,74.69L169.23,73.67L177.69,75.85L186.15,76.04L194.62,81.23L203.08,83.93L211.54,85.33L220,88.39L228.46,84.29L236.92,77.92L245.38,81.45L253.85,80.58L262.31,75.8L270.77,83.09L279.23,82.73L287.69,83.62L296.15,82.64L304.62,86.47L313.08,86.22L321.54,86.35L330,79.47L338.46,79.38L346.92,84.95L355.38,86.75L363.85,91.66L372.31,94.58L380.77,102.8L389.23,109.48L397.69,112.92L406.15,120.19L414.62,124.61L423.08,129.17L431.54,136.58L440,132.83L440,146.06L431.54,140.06L423.08,139.97L414.62,129.65L406.15,126.15L397.69,119.29L380.77,106.35L372.31,97.46L363.85,94.52L355.38,88.14L346.92,88.18L338.46,93.34L330,92.84L321.54,89.37L313.08,92.82L304.62,91.16L296.15,93.05L287.69,87.93L279.23,88.94L270.77,91.8L262.31,82.7L253.85,83.46L245.38,88.42L236.92,87.79L228.46,95L220,94.8L211.54,88.99L203.08,89.62L194.62,92.14L186.15,82.39L177.69,82.47L169.23,83.45L152.31,76.19L143.85,85.58L135.38,83.22L126.92,83.12L110,87.79L101.54,80.02L93.08,70.42L84.62,81.96L76.15,98.54L67.69,95.55L59.23,107.52L50.77,115.7L42.31,122.87L33.85,131.78L16.92,139.38L8.46,147.94L0,144.05Z" style="fill: rgb(255, 255, 191); fill-opacity: 1; stroke-width: 0;"/></g></g><g class="errorbars"/><g class="lines"><path class="js-line" d="M0,144.05L8.46,147.94L16.92,139.38L33.85,131.78L42.31,122.87L50.77,115.7L59.23,107.52L67.69,95.55L76.15,98.54L84.62,81.96L93.08,70.42L101.54,80.02L110,87.79L126.92,83.12L135.38,83.22L143.85,85.58L152.31,76.19L169.23,83.45L177.69,82.47L186.15,82.39L194.62,92.14L203.08,89.62L211.54,88.99L220,94.8L228.46,95L236.92,87.79L245.38,88.42L253.85,83.46L262.31,82.7L270.77,91.8L279.23,88.94L287.69,87.93L296.15,93.05L304.62,91.16L313.08,92.82L321.54,89.37L330,92.84L338.46,93.34L346.92,88.18L355.38,88.14L363.85,94.52L372.31,97.46L380.77,106.35L397.69,119.29L406.15,126.15L414.62,129.65L423.08,139.97L431.54,140.06L440,146.06" style="vector-effect: non-scaling-stroke; fill: none; stroke: rgb(0, 0, 0); stroke-opacity: 1; stroke-width: 0.5px; opacity: 1;"/></g><g class="points"/><g class="text"/></g><g class="trace scatter trace8c223c" style="stroke-miterlimit: 2;"><g class="fills"><g><path class="js-fill" d="M0,129.99L8.46,135.78L16.92,125.88L25.38,127.86L33.85,116.29L42.31,109.18L50.77,96.33L59.23,92.72L67.69,82.7L76.15,73.18L84.62,66.87L93.08,57.91L101.54,53.99L110,59.95L118.46,63.84L126.92,68.46L135.38,68.05L143.85,73.3L152.31,70.18L160.77,66.07L169.23,70.83L177.69,70.43L186.15,69.03L203.08,77.66L211.54,80.26L220,79.75L228.46,75.79L236.92,72.74L245.38,75.76L253.85,73.09L262.31,72.66L270.77,73.3L279.23,78.54L287.69,77.05L296.15,78.1L304.62,82.87L313.08,78.62L321.54,82.58L330,72.91L338.46,73.48L346.92,77.2L355.38,85.35L363.85,88.62L372.31,91.6L380.77,99.5L397.69,108.03L406.15,114.46L414.62,120.12L423.08,122.75L431.54,126.76L440,122.18L440,132.83L431.54,136.58L423.08,129.17L414.62,124.61L406.15,120.19L397.69,112.92L389.23,109.48L380.77,102.8L372.31,94.58L363.85,91.66L355.38,86.75L346.92,84.95L338.46,79.38L330,79.47L321.54,86.35L313.08,86.22L304.62,86.47L296.15,82.64L287.69,83.62L279.23,82.73L270.77,83.09L262.31,75.8L253.85,80.58L245.38,81.45L236.92,77.92L228.46,84.29L220,88.39L211.54,85.33L203.08,83.93L194.62,81.23L186.15,76.04L177.69,75.85L169.23,73.67L160.77,74.69L152.31,73.05L143.85,79.05L135.38,76.86L126.92,78.92L118.46,75.71L110,73.65L101.54,70.46L93.08,65.1L84.62,74.41L67.69,87.23L59.23,99.88L50.77,110.23L42.31,115.95L33.85,125.53L25.38,132.08L16.92,132.14L8.46,142.07L0,139.15Z" style="fill: rgb(255, 255, 191); fill-opacity: 1; stroke-width: 0;"/></g></g><g class="errorbars"/><g class="lines"><path class="js-line" d="M0,139.15L8.46,142.07L16.92,132.14L25.38,132.08L33.85,125.53L42.31,115.95L50.77,110.23L59.23,99.88L67.69,87.23L84.62,74.41L93.08,65.1L101.54,70.46L110,73.65L118.46,75.71L126.92,78.92L135.38,76.86L143.85,79.05L152.31,73.05L160.77,74.69L169.23,73.67L177.69,75.85L186.15,76.04L194.62,81.23L203.08,83.93L211.54,85.33L220,88.39L228.46,84.29L236.92,77.92L245.38,81.45L253.85,80.58L262.31,75.8L270.77,83.09L279.23,82.73L287.69,83.62L296.15,82.64L304.62,86.47L313.08,86.22L321.54,86.35L330,79.47L338.46,79.38L346.92,84.95L355.38,86.75L363.85,91.66L372.31,94.58L380.77,102.8L389.23,109.48L397.69,112.92L406.15,120.19L414.62,124.61L423.08,129.17L431.54,136.58L440,132.83" style="vector-effect: non-scaling-stroke; fill: none; stroke: rgb(0, 0, 0); stroke-opacity: 1; stroke-width: 1px; opacity: 1;"/></g><g class="points"/><g class="text"/></g><g class="trace scatter tracedb8dab" style="stroke-miterlimit: 2;"><g class="fills"><g><path class="js-fill" d="M0,115.71L8.46,123.46L16.92,119.37L25.38,120.78L33.85,108.61L42.31,98.66L50.77,85.88L59.23,74.84L67.69,67.82L76.15,61.59L84.62,51.66L93.08,52.89L101.54,39.22L110,44.38L118.46,40.22L126.92,51.31L135.38,49.58L143.85,61.96L152.31,66.16L160.77,54.14L169.23,52.94L177.69,60.89L186.15,61.98L194.62,63.33L203.08,66.09L211.54,72.06L220,59.72L228.46,71.05L236.92,61.8L245.38,65.45L253.85,59.88L262.31,61.99L270.77,66.27L279.23,66.52L287.69,64.99L296.15,68.17L304.62,74.99L313.08,62.94L321.54,73.19L330,64.86L338.46,63.78L346.92,60.86L355.38,81.31L363.85,80.63L372.31,86.34L380.77,90.91L389.23,98.61L406.15,106.1L414.62,112.37L423.08,117.57L431.54,120.29L440,117.94L440,122.18L431.54,126.76L423.08,122.75L414.62,120.12L406.15,114.46L397.69,108.03L380.77,99.5L372.31,91.6L363.85,88.62L355.38,85.35L346.92,77.2L338.46,73.48L330,72.91L321.54,82.58L313.08,78.62L304.62,82.87L296.15,78.1L287.69,77.05L279.23,78.54L270.77,73.3L262.31,72.66L253.85,73.09L245.38,75.76L236.92,72.74L228.46,75.79L220,79.75L211.54,80.26L203.08,77.66L186.15,69.03L177.69,70.43L169.23,70.83L160.77,66.07L152.31,70.18L143.85,73.3L135.38,68.05L126.92,68.46L118.46,63.84L110,59.95L101.54,53.99L93.08,57.91L84.62,66.87L76.15,73.18L67.69,82.7L59.23,92.72L50.77,96.33L42.31,109.18L33.85,116.29L25.38,127.86L16.92,125.88L8.46,135.78L0,129.99Z" style="fill: rgb(252, 141, 89); fill-opacity: 1; stroke-width: 0;"/></g></g><g class="errorbars"/><g class="lines"><path class="js-line" d="M0,129.99L8.46,135.78L16.92,125.88L25.38,127.86L33.85,116.29L42.31,109.18L50.77,96.33L59.23,92.72L67.69,82.7L76.15,73.18L84.62,66.87L93.08,57.91L101.54,53.99L110,59.95L118.46,63.84L126.92,68.46L135.38,68.05L143.85,73.3L152.31,70.18L160.77,66.07L169.23,70.83L177.69,70.43L186.15,69.03L203.08,77.66L211.54,80.26L220,79.75L228.46,75.79L236.92,72.74L245.38,75.76L253.85,73.09L262.31,72.66L270.77,73.3L279.23,78.54L287.69,77.05L296.15,78.1L304.62,82.87L313.08,78.62L321.54,82.58L330,72.91L338.46,73.48L346.92,77.2L355.38,85.35L363.85,88.62L372.31,91.6L380.77,99.5L397.69,108.03L406.15,114.46L414.62,120.12L423.08,122.75L431.54,126.76L440,122.18" style="vector-effect: non-scaling-stroke; fill: none; stroke: rgb(0, 0, 0); stroke-opacity: 1; stroke-width: 0.5px; opacity: 1;"/></g><g class="points"/><g class="text"/></g><g class="trace scatter trace3b40c8" style="stroke-miterlimit: 2;"><g class="fills"/><g class="errorbars"/><g class="lines"><path class="js-line" d="M0,115.71L8.46,123.46L16.92,119.37L25.38,120.78L33.85,108.61L42.31,98.66L50.77,85.88L59.23,74.84L67.69,67.82L76.15,61.59L84.62,51.66L93.08,52.89L101.54,39.22L110,44.38L118.46,40.22L126.92,51.31L135.38,49.58L143.85,61.96L152.31,66.16L160.77,54.14L169.23,52.94L177.69,60.89L186.15,61.98L194.62,63.33L203.08,66.09L211.54,72.06L220,59.72L228.46,71.05L236.92,61.8L245.38,65.45L253.85,59.88L262.31,61.99L270.77,66.27L279.23,66.52L287.69,64.99L296.15,68.17L304.62,74.99L313.08,62.94L321.54,73.19L330,64.86L338.46,63.78L346.92,60.86L355.38,81.31L363.85,80.63L372.31,86.34L380.77,90.91L389.23,98.61L406.15,106.1L414.62,112.37L423.08,117.57L431.54,120.29L440,117.94" style="vector-effect: non-scaling-stroke; fill: none; stroke: rgb(0, 0, 0); stroke-opacity: 1; stroke-width: 0.25px; opacity: 1;"/></g><g class="points"/><g class="text"/></g><g class="trace scatter tracea53702" style="stroke-miterlimit: 2; opacity: 1;"><g class="fills"/><g class="errorbars"/><g class="lines"/><g class="points"><path class="point" transform="translate(220,62)" d="M4,0A4,4 0 1,1 0,-4A4,4 0 0,1 4,0ZM0,0.5L0.5,0L0,-0.5L-0.5,0Z" style="opacity: 1; stroke: rgb(0, 0, 0); stroke-opacity: 1; stroke-width: 1px; fill: none;"/><path class="point" transform="translate(228.46,55.8)" d="M4,0A4,4 0 1,1 0,-4A4,4 0 0,1 4,0ZM0,0.5L0.5,0L0,-0.5L-0.5,0Z" style="opacity: 1; stroke: rgb(0, 0, 0); stroke-opacity: 1; stroke-width: 1px; fill: none;"/><path class="point" transform="translate(236.92,62)" d="M4,0A4,4 0 1,1 0,-4A4,4 0 0,1 4,0ZM0,0.5L0.5,0L0,-0.5L-0.5,0Z" style="opacity: 1; stroke: rgb(0, 0, 0); stroke-opacity: 1; stroke-width: 1px; fill: none;"/><path class="point" transform="translate(245.38,62)" d="M4,0A4,4 0 1,1 0,-4A4,4 0 0,1 4,0ZM0,0.5L0.5,0L0,-0.5L-0.5,0Z" style="opacity: 1; stroke: rgb(0, 0, 0); stroke-opacity: 1; stroke-width: 1px; fill: none;"/></g><g class="text"/></g></g></g><g class="overplot"/><path class="xlines-above crisp" d="M0,0" style="fill: none;"/><path class="ylines-above crisp" d="M0,0" style="fill: none;"/><g class="overlines-above"/><g class="xaxislayer-above"/><g class="yaxislayer-above"><g class="y2tick"><text text-anchor="end" x="79" y="4.199999999999999" transform="translate(0,472.00000000000006)" style="font-family: 'Open Sans', verdana, arial, sans-serif; font-size: 12px; fill: rgb(42, 63, 95); fill-opacity: 1; white-space: pre; opacity: 1;">20</text></g><g class="y2tick"><text text-anchor="end" x="79" y="4.199999999999999" style="font-family: 'Open Sans', verdana, arial, sans-serif; font-size: 12px; fill: rgb(42, 63, 95); fill-opacity: 1; white-space: pre; opacity: 1;" transform="translate(0,410.00000000000006)">30</text></g><g class="y2tick"><text text-anchor="end" x="79" y="4.199999999999999" style="font-family: 'Open Sans', verdana, arial, sans-serif; font-size: 12px; fill: rgb(42, 63, 95); fill-opacity: 1; white-space: pre; opacity: 1;" transform="translate(0,348.00000000000006)">40</text></g></g><g class="overaxes-above"/></g><g class="subplot x3y3"><g class="layer-subplot"><g class="shapelayer"/><g class="imagelayer"/></g><g class="minor-gridlayer"><g class="x3"/><g class="y3"/></g><g class="gridlayer"><g class="x3"><path class="x3grid crisp" transform="translate(156.15,0)" d="M0,534v186" style="stroke: rgb(255, 255, 255); stroke-opacity: 1; stroke-width: 1px;"/><path class="x3grid crisp" transform="translate(240.77,0)" d="M0,534v186" style="stroke: rgb(255, 255, 255); stroke-opacity: 1; stroke-width: 1px;"/><path class="x3grid crisp" transform="translate(325.38,0)" d="M0,534v186" style="stroke: rgb(255, 255, 255); stroke-opacity: 1; stroke-width: 1px;"/><path class="x3grid crisp" transform="translate(410,0)" d="M0,534v186" style="stroke: rgb(255, 255, 255); stroke-opacity: 1; stroke-width: 1px;"/><path class="x3grid crisp" transform="translate(494.62,0)" d="M0,534v186" style="stroke: rgb(255, 255, 255); stroke-opacity: 1; stroke-width: 1px;"/></g><g class="y3"><path class="y3grid crisp" transform="translate(0,682.8)" d="M80,0h440" style="stroke: rgb(255, 255, 255); stroke-opacity: 1; stroke-width: 1px;"/><path class="y3grid crisp" transform="translate(0,645.6)" d="M80,0h440" style="stroke: rgb(255, 255, 255); stroke-opacity: 1; stroke-width: 1px;"/><path class="y3grid crisp" transform="translate(0,608.4)" d="M80,0h440" style="stroke: rgb(255, 255, 255); stroke-opacity: 1; stroke-width: 1px;"/><path class="y3grid crisp" transform="translate(0,571.2)" d="M80,0h440" style="stroke: rgb(255, 255, 255); stroke-opacity: 1; stroke-width: 1px;"/></g></g><g class="zerolinelayer"/><path class="xlines-below"/><path class="ylines-below"/><g class="overlines-below"/><g class="xaxislayer-below"/><g class="yaxislayer-below"/><g class="overaxes-below"/><g class="plot" transform="translate(80,534)" clip-path="url(#clip7dc676x3y3plot)"><g class="scatterlayer mlayer"><g class="trace scatter traceb3ef38" style="stroke-miterlimit: 2;"><g class="fills"><g><path class="js-fill" d="M0,127.81L8.46,139.15L16.92,132.21L33.85,123.42L42.31,117.48L50.77,115.29L59.23,104.32L67.69,95.02L76.15,87.24L84.62,86.43L93.08,73.09L101.54,68.8L110,69.33L118.46,66.2L126.92,60.4L135.38,57.98L143.85,60.67L152.31,50.65L160.77,48.81L169.23,44.91L177.69,44.12L186.15,40.25L194.62,38.9L203.08,37.49L211.54,37.1L220,36.21L228.46,36.15L245.38,36.77L253.85,35.31L262.31,34.37L270.77,36.19L279.23,37.4L287.69,35.67L296.15,38.8L304.62,40.55L313.08,39.29L321.54,41.7L330,43.93L338.46,47.62L346.92,53.64L355.38,56.8L363.85,66.79L372.31,71.95L389.23,88.85L397.69,100L406.15,104.83L414.62,112.71L423.08,125.67L431.54,125.93L440,135.72L440,149.67L431.54,152.08L423.08,139.18L414.62,133.6L406.15,118.06L397.69,120.21L389.23,103.78L380.77,84.72L372.31,86.94L363.85,72.77L355.38,64.86L346.92,63.21L338.46,56.22L330,49.59L321.54,46.16L313.08,43.47L304.62,43.59L296.15,45.36L287.69,38.28L279.23,42.72L262.31,41.1L253.85,38.43L236.92,40.01L228.46,42.06L220,42.49L211.54,39.75L203.08,39.35L194.62,41.02L186.15,44.12L177.69,55.33L169.23,49.27L160.77,60.42L152.31,58.72L143.85,68.81L135.38,61.55L126.92,67.34L118.46,76.08L110,89.42L101.54,83.72L93.08,90.95L84.62,97.11L76.15,99.3L67.69,117.26L59.23,117.96L50.77,143.75L42.31,137.66L33.85,141.93L25.38,134.65L16.92,153.79L8.46,155.8L0,139.69Z" style="fill: rgb(90, 180, 172); fill-opacity: 1; stroke-width: 0;"/></g></g><g class="errorbars"/><g class="lines"><path class="js-line" d="M0,139.69L8.46,155.8L16.92,153.79L25.38,134.65L33.85,141.93L42.31,137.66L50.77,143.75L59.23,117.96L67.69,117.26L76.15,99.3L84.62,97.11L93.08,90.95L101.54,83.72L110,89.42L118.46,76.08L126.92,67.34L135.38,61.55L143.85,68.81L152.31,58.72L160.77,60.42L169.23,49.27L177.69,55.33L186.15,44.12L194.62,41.02L203.08,39.35L211.54,39.75L220,42.49L228.46,42.06L236.92,40.01L253.85,38.43L262.31,41.1L279.23,42.72L287.69,38.28L296.15,45.36L304.62,43.59L313.08,43.47L321.54,46.16L330,49.59L338.46,56.22L346.92,63.21L355.38,64.86L363.85,72.77L372.31,86.94L380.77,84.72L389.23,103.78L397.69,120.21L406.15,118.06L414.62,133.6L423.08,139.18L431.54,152.08L440,149.67" style="vector-effect: non-scaling-stroke; fill: none; stroke: rgb(0, 0, 0); stroke-opacity: 1; stroke-width: 0.25px; opacity: 1;"/></g><g class="points"/><g class="text"/></g><g class="trace scatter trace146cda" style="stroke-miterlimit: 2;"><g class="fills"><g><path class="js-fill" d="M0,122.04L8.46,127.88L16.92,120.93L25.38,118.6L33.85,119.1L42.31,108.07L50.77,102.85L59.23,96.55L67.69,84.51L76.15,82.32L84.62,70.54L93.08,64.32L101.54,61.6L110,60.57L118.46,61.64L126.92,55.86L135.38,54.06L143.85,53.74L152.31,46.34L160.77,43.21L169.23,42.6L177.69,41.43L186.15,36.63L194.62,36.68L203.08,35.05L236.92,33.91L245.38,34.66L262.31,31.08L270.77,33.53L287.69,34.65L296.15,35.42L304.62,38.1L313.08,37.46L321.54,37.68L330,39.42L338.46,39.97L346.92,46.81L363.85,61.68L372.31,66.39L380.77,76.62L389.23,83.5L397.69,90.43L406.15,100.03L414.62,102.26L423.08,109.81L431.54,118.43L440,128.94L440,135.72L431.54,125.93L423.08,125.67L414.62,112.71L406.15,104.83L397.69,100L389.23,88.85L372.31,71.95L363.85,66.79L355.38,56.8L346.92,53.64L338.46,47.62L330,43.93L321.54,41.7L313.08,39.29L304.62,40.55L296.15,38.8L287.69,35.67L279.23,37.4L270.77,36.19L262.31,34.37L253.85,35.31L245.38,36.77L228.46,36.15L220,36.21L211.54,37.1L203.08,37.49L194.62,38.9L186.15,40.25L177.69,44.12L169.23,44.91L160.77,48.81L152.31,50.65L143.85,60.67L135.38,57.98L126.92,60.4L118.46,66.2L110,69.33L101.54,68.8L93.08,73.09L84.62,86.43L76.15,87.24L67.69,95.02L59.23,104.32L50.77,115.29L42.31,117.48L33.85,123.42L16.92,132.21L8.46,139.15L0,127.81Z" style="fill: rgb(245, 245, 245); fill-opacity: 1; stroke-width: 0;"/></g></g><g class="errorbars"/><g class="lines"><path class="js-line" d="M0,127.81L8.46,139.15L16.92,132.21L33.85,123.42L42.31,117.48L50.77,115.29L59.23,104.32L67.69,95.02L76.15,87.24L84.62,86.43L93.08,73.09L101.54,68.8L110,69.33L118.46,66.2L126.92,60.4L135.38,57.98L143.85,60.67L152.31,50.65L160.77,48.81L169.23,44.91L177.69,44.12L186.15,40.25L194.62,38.9L203.08,37.49L211.54,37.1L220,36.21L228.46,36.15L245.38,36.77L253.85,35.31L262.31,34.37L270.77,36.19L279.23,37.4L287.69,35.67L296.15,38.8L304.62,40.55L313.08,39.29L321.54,41.7L330,43.93L338.46,47.62L346.92,53.64L355.38,56.8L363.85,66.79L372.31,71.95L389.23,88.85L397.69,100L406.15,104.83L414.62,112.71L423.08,125.67L431.54,125.93L440,135.72" style="vector-effect: non-scaling-stroke; fill: none; stroke: rgb(0, 0, 0); stroke-opacity: 1; stroke-width: 0.5px; opacity: 1;"/></g><g class="points"/><g class="text"/></g><g class="trace scatter tracee3e056" style="stroke-miterlimit: 2;"><g class="fills"><g><path class="js-fill" d="M0,113.49L8.46,118.33L16.92,114.16L25.38,114.07L33.85,110.16L42.31,101.46L50.77,95.8L59.23,87.37L67.69,75.26L76.15,73.48L84.62,66.09L93.08,59.44L101.54,50.74L110,53.77L118.46,51.03L126.92,52.82L135.38,49.98L143.85,50.02L152.31,44.01L160.77,40.85L169.23,38.5L186.15,34.97L194.62,35.2L211.54,32.49L220,30.75L245.38,32.25L253.85,29.48L270.77,29.27L279.23,32.19L296.15,32.59L304.62,34.79L313.08,34.08L321.54,36.51L338.46,35.57L346.92,42.4L355.38,51.26L363.85,57.71L372.31,60.85L380.77,72.99L389.23,78.06L397.69,84.55L406.15,93.01L414.62,97.61L423.08,97.05L431.54,106.87L440,118.01L440,128.94L431.54,118.43L423.08,109.81L414.62,102.26L406.15,100.03L397.69,90.43L389.23,83.5L380.77,76.62L372.31,66.39L363.85,61.68L346.92,46.81L338.46,39.97L330,39.42L321.54,37.68L313.08,37.46L304.62,38.1L296.15,35.42L287.69,34.65L270.77,33.53L262.31,31.08L245.38,34.66L236.92,33.91L203.08,35.05L194.62,36.68L186.15,36.63L177.69,41.43L169.23,42.6L160.77,43.21L152.31,46.34L143.85,53.74L135.38,54.06L126.92,55.86L118.46,61.64L110,60.57L101.54,61.6L93.08,64.32L84.62,70.54L76.15,82.32L67.69,84.51L59.23,96.55L50.77,102.85L42.31,108.07L33.85,119.1L25.38,118.6L16.92,120.93L8.46,127.88L0,122.04Z" style="fill: rgb(245, 245, 245); fill-opacity: 1; stroke-width: 0;"/></g></g><g class="errorbars"/><g class="lines"><path class="js-line" d="M0,122.04L8.46,127.88L16.92,120.93L25.38,118.6L33.85,119.1L42.31,108.07L50.77,102.85L59.23,96.55L67.69,84.51L76.15,82.32L84.62,70.54L93.08,64.32L101.54,61.6L110,60.57L118.46,61.64L126.92,55.86L135.38,54.06L143.85,53.74L152.31,46.34L160.77,43.21L169.23,42.6L177.69,41.43L186.15,36.63L194.62,36.68L203.08,35.05L236.92,33.91L245.38,34.66L262.31,31.08L270.77,33.53L287.69,34.65L296.15,35.42L304.62,38.1L313.08,37.46L321.54,37.68L330,39.42L338.46,39.97L346.92,46.81L363.85,61.68L372.31,66.39L380.77,76.62L389.23,83.5L397.69,90.43L406.15,100.03L414.62,102.26L423.08,109.81L431.54,118.43L440,128.94" style="vector-effect: non-scaling-stroke; fill: none; stroke: rgb(0, 0, 0); stroke-opacity: 1; stroke-width: 1px; opacity: 1;"/></g><g class="points"/><g class="text"/></g><g class="trace scatter tracefd1f11" style="stroke-miterlimit: 2;"><g class="fills"><g><path class="js-fill" d="M0,107L8.46,109.96L16.92,101.76L25.38,100.08L33.85,90.43L42.31,92.35L50.77,77.86L59.23,79.89L67.69,63.67L76.15,59.49L84.62,51.53L93.08,41.88L101.54,38.6L110,41.33L118.46,35.38L126.92,50.03L135.38,42.39L143.85,36.75L152.31,38.03L160.77,33.45L169.23,34.92L177.69,32.87L186.15,29.32L194.62,32.69L203.08,29.34L211.54,30.62L220,22.8L228.46,26.76L236.92,24.54L245.38,28.13L253.85,22.04L262.31,21.94L270.77,25.25L279.23,28.4L287.69,29.83L296.15,24.14L304.62,27.4L313.08,27.9L321.54,34.06L330,28.1L338.46,29.61L346.92,38.45L355.38,43.45L363.85,51.14L372.31,54.45L380.77,66.1L389.23,72.51L423.08,87.13L431.54,98.34L440,102.63L440,118.01L431.54,106.87L423.08,97.05L414.62,97.61L406.15,93.01L397.69,84.55L389.23,78.06L380.77,72.99L372.31,60.85L363.85,57.71L355.38,51.26L346.92,42.4L338.46,35.57L321.54,36.51L313.08,34.08L304.62,34.79L296.15,32.59L279.23,32.19L270.77,29.27L253.85,29.48L245.38,32.25L220,30.75L211.54,32.49L194.62,35.2L186.15,34.97L169.23,38.5L160.77,40.85L152.31,44.01L143.85,50.02L135.38,49.98L126.92,52.82L118.46,51.03L110,53.77L101.54,50.74L93.08,59.44L84.62,66.09L76.15,73.48L67.69,75.26L59.23,87.37L50.77,95.8L42.31,101.46L33.85,110.16L25.38,114.07L16.92,114.16L8.46,118.33L0,113.49Z" style="fill: rgb(216, 179, 101); fill-opacity: 1; stroke-width: 0;"/></g></g><g class="errorbars"/><g class="lines"><path class="js-line" d="M0,113.49L8.46,118.33L16.92,114.16L25.38,114.07L33.85,110.16L42.31,101.46L50.77,95.8L59.23,87.37L67.69,75.26L76.15,73.48L84.62,66.09L93.08,59.44L101.54,50.74L110,53.77L118.46,51.03L126.92,52.82L135.38,49.98L143.85,50.02L152.31,44.01L160.77,40.85L169.23,38.5L186.15,34.97L194.62,35.2L211.54,32.49L220,30.75L245.38,32.25L253.85,29.48L270.77,29.27L279.23,32.19L296.15,32.59L304.62,34.79L313.08,34.08L321.54,36.51L338.46,35.57L346.92,42.4L355.38,51.26L363.85,57.71L372.31,60.85L380.77,72.99L389.23,78.06L397.69,84.55L406.15,93.01L414.62,97.61L423.08,97.05L431.54,106.87L440,118.01" style="vector-effect: non-scaling-stroke; fill: none; stroke: rgb(0, 0, 0); stroke-opacity: 1; stroke-width: 0.5px; opacity: 1;"/></g><g class="points"/><g class="text"/></g><g class="trace scatter trace940e21" style="stroke-miterlimit: 2;"><g class="fills"/><g class="errorbars"/><g class="lines"><path class="js-line" d="M0,107L8.46,109.96L16.92,101.76L25.38,100.08L33.85,90.43L42.31,92.35L50.77,77.86L59.23,79.89L67.69,63.67L76.15,59.49L84.62,51.53L93.08,41.88L101.54,38.6L110,41.33L118.46,35.38L126.92,50.03L135.38,42.39L143.85,36.75L152.31,38.03L160.77,33.45L169.23,34.92L177.69,32.87L186.15,29.32L194.62,32.69L203.08,29.34L211.54,30.62L220,22.8L228.46,26.76L236.92,24.54L245.38,28.13L253.85,22.04L262.31,21.94L270.77,25.25L279.23,28.4L287.69,29.83L296.15,24.14L304.62,27.4L313.08,27.9L321.54,34.06L330,28.1L338.46,29.61L346.92,38.45L355.38,43.45L363.85,51.14L372.31,54.45L380.77,66.1L389.23,72.51L423.08,87.13L431.54,98.34L440,102.63" style="vector-effect: non-scaling-stroke; fill: none; stroke: rgb(0, 0, 0); stroke-opacity: 1; stroke-width: 0.25px; opacity: 1;"/></g><g class="points"/><g class="text"/></g><g class="trace scatter trace5706b9" style="stroke-miterlimit: 2; opacity: 1;"><g class="fills"/><g class="errorbars"/><g class="lines"/><g class="points"><path class="point" transform="translate(220,14.88)" d="M4,0A4,4 0 1,1 0,-4A4,4 0 0,1 4,0ZM0,0.5L0.5,0L0,-0.5L-0.5,0Z" style="opacity: 1; stroke: rgb(0, 0, 0); stroke-opacity: 1; stroke-width: 1px; fill: none;"/><path class="point" transform="translate(228.46,7.44)" d="M4,0A4,4 0 1,1 0,-4A4,4 0 0,1 4,0ZM0,0.5L0.5,0L0,-0.5L-0.5,0Z" style="opacity: 1; stroke: rgb(0, 0, 0); stroke-opacity: 1; stroke-width: 1px; fill: none;"/><path class="point" transform="translate(236.92,7.44)" d="M4,0A4,4 0 1,1 0,-4A4,4 0 0,1 4,0ZM0,0.5L0.5,0L0,-0.5L-0.5,0Z" style="opacity: 1; stroke: rgb(0, 0, 0); stroke-opacity: 1; stroke-width: 1px; fill: none;"/><path class="point" transform="translate(245.38,7.44)" d="M4,0A4,4 0 1,1 0,-4A4,4 0 0,1 4,0ZM0,0.5L0.5,0L0,-0.5L-0.5,0Z" style="opacity: 1; stroke: rgb(0, 0, 0); stroke-opacity: 1; stroke-width: 1px; fill: none;"/></g><g class="text"/></g></g></g><g class="overplot"/><path class="xlines-above crisp" d="M0,0" style="fill: none;"/><path class="ylines-above crisp" d="M0,0" style="fill: none;"/><g class="overlines-above"/><g class="xaxislayer-above"><g class="x3tick"><text text-anchor="middle" x="0" y="733" transform="translate(156.15,0)" style="font-family: 'Open Sans', verdana, arial, sans-serif; font-size: 12px; fill: rgb(42, 63, 95); fill-opacity: 1; white-space: pre; opacity: 1;">10</text></g><g class="x3tick"><text text-anchor="middle" x="0" y="733" style="font-family: 'Open Sans', verdana, arial, sans-serif; font-size: 12px; fill: rgb(42, 63, 95); fill-opacity: 1; white-space: pre; opacity: 1;" transform="translate(240.77,0)">20</text></g><g class="x3tick"><text text-anchor="middle" x="0" y="733" style="font-family: 'Open Sans', verdana, arial, sans-serif; font-size: 12px; fill: rgb(42, 63, 95); fill-opacity: 1; white-space: pre; opacity: 1;" transform="translate(325.38,0)">30</text></g><g class="x3tick"><text text-anchor="middle" x="0" y="733" style="font-family: 'Open Sans', verdana, arial, sans-serif; font-size: 12px; fill: rgb(42, 63, 95); fill-opacity: 1; white-space: pre; opacity: 1;" transform="translate(410,0)">40</text></g><g class="x3tick"><text text-anchor="middle" x="0" y="733" style="font-family: 'Open Sans', verdana, arial, sans-serif; font-size: 12px; fill: rgb(42, 63, 95); fill-opacity: 1; white-space: pre; opacity: 1;" transform="translate(494.62,0)">50</text></g></g><g class="yaxislayer-above"><g class="y3tick"><text text-anchor="end" x="79" y="4.199999999999999" transform="translate(0,720)" style="font-family: 'Open Sans', verdana, arial, sans-serif; font-size: 12px; fill: rgb(42, 63, 95); fill-opacity: 1; white-space: pre; opacity: 1;">5</text></g><g class="y3tick"><text text-anchor="end" x="79" y="4.199999999999999" style="font-family: 'Open Sans', verdana, arial, sans-serif; font-size: 12px; fill: rgb(42, 63, 95); fill-opacity: 1; white-space: pre; opacity: 1;" transform="translate(0,682.8)">10</text></g><g class="y3tick"><text text-anchor="end" x="79" y="4.199999999999999" style="font-family: 'Open Sans', verdana, arial, sans-serif; font-size: 12px; fill: rgb(42, 63, 95); fill-opacity: 1; white-space: pre; opacity: 1;" transform="translate(0,645.6)">15</text></g><g class="y3tick"><text text-anchor="end" x="79" y="4.199999999999999" style="font-family: 'Open Sans', verdana, arial, sans-serif; font-size: 12px; fill: rgb(42, 63, 95); fill-opacity: 1; white-space: pre; opacity: 1;" transform="translate(0,608.4)">20</text></g><g class="y3tick"><text text-anchor="end" x="79" y="4.199999999999999" style="font-family: 'Open Sans', verdana, arial, sans-serif; font-size: 12px; fill: rgb(42, 63, 95); fill-opacity: 1; white-space: pre; opacity: 1;" transform="translate(0,571.2)">25</text></g><g class="y3tick"><text text-anchor="end" x="79" y="4.199999999999999" style="font-family: 'Open Sans', verdana, arial, sans-serif; font-size: 12px; fill: rgb(42, 63, 95); fill-opacity: 1; white-space: pre; opacity: 1;" transform="translate(0,534)">30</text></g></g><g class="overaxes-above"/></g></g><g class="polarlayer"/><g class="smithlayer"/><g class="ternarylayer"/><g class="geolayer"/><g class="funnelarealayer"/><g class="pielayer"/><g class="iciclelayer"/><g class="treemaplayer"/><g class="sunburstlayer"/><g class="glimages"/><defs id="topdefs-7dc676"><g class="clips"/></defs><g class="layer-above"><g class="imagelayer"/><g class="shapelayer"/></g><g class="infolayer"><g class="g-gtitle"><text class="gtitle" x="30" y="50" text-anchor="start" dy="0em" style="font-family: 'Open Sans', verdana, arial, sans-serif; font-size: 17px; fill: rgb(42, 63, 95); opacity: 1; font-weight: normal; white-space: pre;">Climatology and S2S forecast for Lalmonirhat</text></g><g class="g-xtitle"/><g class="g-x2title"/><g class="g-x3title"/><g class="g-ytitle"><text class="ytitle" transform="rotate(-90,34.16875,193)" x="34.16875" y="193" text-anchor="middle" style="font-family: 'Open Sans', verdana, arial, sans-serif; font-size: 14px; fill: rgb(42, 63, 95); opacity: 1; font-weight: normal; white-space: pre;">[mm]</text></g><g class="g-y2title"><text class="y2title" transform="rotate(-90,40.840625,410.00000000000006)" x="40.840625" y="410.00000000000006" text-anchor="middle" style="font-family: 'Open Sans', verdana, arial, sans-serif; font-size: 14px; fill: rgb(42, 63, 95); opacity: 1; font-weight: normal; white-space: pre;">[C]</text></g><g class="g-y3title"><text class="y3title" transform="rotate(-90,40.840625,627)" x="40.840625" y="627" text-anchor="middle" style="font-family: 'Open Sans', verdana, arial, sans-serif; font-size: 14px; fill: rgb(42, 63, 95); opacity: 1; font-weight: normal; white-space: pre;">[C]</text></g><g class="annotation" data-index="0" style="opacity: 1;"><g class="annotation-text-g" transform="rotate(0,300,89.5)"><g class="cursor-pointer" transform="translate(237,79)"><rect class="bg" x="0.5" y="0.5" width="126" height="20" style="stroke-width: 1px; stroke: rgb(0, 0, 0); stroke-opacity: 0; fill: rgb(0, 0, 0); fill-opacity: 0;"/><text class="annotation-text" text-anchor="middle" x="63.359375" y="16" style="font-family: 'Open Sans', verdana, arial, sans-serif; font-size: 16px; fill: rgb(42, 63, 95); fill-opacity: 1; white-space: pre;">Precipitation sum</text></g></g></g><g class="annotation" data-index="1" style="opacity: 1;"><g class="annotation-text-g" transform="rotate(0,300,306.50000000000006)"><g class="cursor-pointer" transform="translate(196,296)"><rect class="bg" x="0.5" y="0.5" width="208" height="20" style="stroke-width: 1px; stroke: rgb(0, 0, 0); stroke-opacity: 0; fill: rgb(0, 0, 0); fill-opacity: 0;"/><text class="annotation-text" text-anchor="middle" x="104.265625" y="16" style="font-family: 'Open Sans', verdana, arial, sans-serif; font-size: 16px; fill: rgb(42, 63, 95); fill-opacity: 1; white-space: pre;">Mean maximum temperature</text></g></g></g><g class="annotation" data-index="2" style="opacity: 1;"><g class="annotation-text-g" transform="rotate(0,300,523.5)"><g class="cursor-pointer" transform="translate(198,513)"><rect class="bg" x="0.5" y="0.5" width="203" height="20" style="stroke-width: 1px; stroke: rgb(0, 0, 0); stroke-opacity: 0; fill: rgb(0, 0, 0); fill-opacity: 0;"/><text class="annotation-text" text-anchor="middle" x="102.046875" y="16" style="font-family: 'Open Sans', verdana, arial, sans-serif; font-size: 16px; fill: rgb(42, 63, 95); fill-opacity: 1; white-space: pre;">Mean minimum temperature</text></g></g></g><g class="annotation" data-index="3" style="opacity: 1;"><g class="annotation-text-g" transform="rotate(0,300,760.5)"><g class="cursor-pointer" transform="translate(277,750)"><rect class="bg" x="0.5" y="0.5" width="45" height="20" style="stroke-width: 1px; stroke: rgb(0, 0, 0); stroke-opacity: 0; fill: rgb(0, 0, 0); fill-opacity: 0;"/><text class="annotation-text" text-anchor="middle" x="22.3125" y="16" style="font-family: 'Open Sans', verdana, arial, sans-serif; font-size: 16px; fill: rgb(42, 63, 95); fill-opacity: 1; white-space: pre;">Week</text></g></g></g></g></svg>