<svg class="main-svg" xmlns="http://www.w3.org/2000/svg" xmlns:xlink="http://www.w3.org/1999/xlink" width="600" height="800" style="" viewBox="0 0 600 800"><rect x="0" y="0" width="600" height="800" style="fill: rgb(255, 255, 255); fill-opacity: 1;"/><defs id="defs-0b621d"><g class="clips"><clipPath id="clip0b621dxyplot" class="plotclip"><rect width="440" height="186.00000000000003"/></clipPath><clipPath id="clip0b621dx2y2plot" class="plotclip"><rect width="440" height="185.99999999999997"/></clipPath><clipPath id="clip0b621dx3y3plot" class="plotclip"><rect width="440" height="186"/></clipPath><clipPath class="axesclip" id="clip0b621dx"><rect x="80" y="0" width="440" height="800"/></clipPath><clipPath class="axesclip" id="clip0b621dy"><rect x="0" y="100" width="600" height="186.00000000000003"/></clipPath><clipPath class="axesclip" id="clip0b621dxy"><rect x="80" y="100" width="440" height="186.00000000000003"/></clipPath><clipPath class="axesclip" id="clip0b621dy2"><rect x="0" y="317.00000000000006" width="600" height="185.99999999999997"/></clipPath><clipPath class="axesclip" id="clip0b621dxy2"><rect x="80" y="317.00000000000006" width="440" height="185.99999999999997"/></clipPath><clipPath class="axesclip" id="clip0b621dy3"><rect x="0" y="534" width="600" height="186"/></clipPath><clipPath class="axesclip" id="clip0b621dxy3"><rect x="80" y="534" width="440" height="186"/></clipPath><clipPath class="axesclip" id="clip0b621dx2"><rect x="80" y="0" width="440" height="800"/></clipPath><clipPath class="axesclip" id="clip0b621dx2y"><rect x="80" y="100" width="440" height="186.00000000000003"/></clipPath><clipPath class="axesclip" id="clip0b621dx2y2"><rect x="80" y="317.00000000000006" width="440" height="185.99999999999997"/></clipPath><clipPath class="axesclip" id="clip0b621dx2y3"><rect x="80" y="534" width="440" height="186"/></clipPath><clipPath class="axesclip" id="clip0b621dx3"><rect x="80" y="0" width="440" height="800"/></clipPath><clipPath class="axesclip" id="clip0b621dx3y"><rect x="80" y="100" width="440" height="186.00000000000003"/></clipPath><clipPath class="axesclip" id="clip0b621dx3y2"><rect x="80" y="317.00000000000006" width="440" height="185.99999999999997"/></clipPath><clipPath class="axesclip" id="clip0b621dx3y3"><rect x="80" y="534" width="440" height="186"/></clipPath></g><g class="gradients"/><g class="patterns"/></defs><g class="bglayer"><rect class="bg" x="80" y="100" width="440" height="186.00000000000003" style="fill: rgb(229, 236, 246); fill-opacity: 1; stroke-width: 0;"/><rect class="bg" x="80" y="317.00000000000006" width="440" height="185.99999999999997" style="fill: rgb(229, 236, 246); fill-opacity: 1; stroke-width: 0;"/><rect class="bg" x="80" y="534" width="440" height="186" style="fill: rgb(229, 236, 246); fill-opacity: 1; stroke-width: 0;"/></g><g class="layer-below"><g class="imagelayer"/><g class="shapelayer"/></g><g class="cartesianlayer"><g class="subplot xy"><g class="layer-subplot"><g class="shapelayer"/><g class="imagelayer"/></g><g class="minor-gridlayer"><g class="x"/><g class="y"/></g><g class="gridlayer"><g class="x"><path class="xgrid crisp" transform="translate(156.15,0)" d="M0,100v186.00000000000003" style="stroke: rgb(255, 255, 255); stroke-opacity: 1; stroke-width: 1px;"/><path class="xgrid crisp" transform="translate(240.77,0)" d="M0,100v186.00000000000003" style="stroke: rgb(255, 255, 255); stroke-opacity: 1; stroke-width: 1px;"/><path class="xgrid crisp" transform="translate(325.38,0)" d="M0,100v186.00000000000003" style="stroke: rgb(255, 255, 255); stroke-opacity: 1; stroke-width: 1px;"/><path class="xgrid crisp" transform="translate(410,0)" d="M0,100v186.00000000000003" style="stroke: rgb(255, 255, 255); stroke-opacity: 1; stroke-width: 1px;"/><path class="xgrid crisp" transform="translate(494.62,0)" d="M0,100v186.00000000000003" style="stroke: rgb(255, 255, 255); stroke-opacity: 1; stroke-width: 1px;"/></g><g class="y"><path class="ygrid crisp" transform="translate(0,248.8)" d="M80,0h440" style="stroke: rgb(255, 255, 255); stroke-opacity: 1; stroke-width: 1px;"/><path class="ygrid crisp" transform="translate(0,211.6)" d="M80,0h440" style="stroke: rgb(255, 255, 255); stroke-opacity: 1; stroke-width: 1px;"/><path class="ygrid crisp" transform="translate(0,174.4)" d="M80,0h440" style="stroke: rgb(255, 255, 255); stroke-opacity: 1; stroke-width: 1px;"/><path class="ygrid crisp" transform="translate(0,137.2)" d="M80,0h440" style="stroke: rgb(255, 255, 255); stroke-opacity: 1; stroke-width: 1px;"/></g></g><g class="zerolinelayer"><path class="yzl zl crisp" transform="translate(0,286)" d="M80,0h440" style="stroke: rgb(255, 255, 255); stroke-opacity: 1; stroke-width: 2px;"/></g><path class="xlines-below"/><path class="ylines-below"/><g class="overlines-below"/><g class="xaxislayer-below"/><g class="yaxislayer-below"/><g class="overaxes-below"/><g class="plot" transform="translate(80,100)" clip-path="url(#clip0b621dxyplot)"><g class="scatterlayer mlayer"><g class="trace scatter tracef0d2f4" style="stroke-miterlimit: 2;"><g class="fills"><g><path class="js-fill" d="M0,186L118.46,185.76L126.92,177.82L135.38,173.57L143.85,165.82L152.31,176.28L160.77,163.61L169.23,163.92L177.69,162.42L186.15,169.36L194.62,154.19L203.08,152.63L211.54,155.42L220,163.7L228.46,162.26L236.92,167.79L245.38,159.87L253.85,169L262.31,164.1L270.77,162.65L279.23,172.75L287.69,172.01L296.15,176.14L304.62,178.32L313.08,174.79L321.54,166.53L330,179.4L338.46,183.52L346.92,185.72L372.31,186L380.77,186L440,186L440,186L338.46,185.98L330,185.58L304.62,185.19L296.15,185.85L287.69,185.22L279.23,183.83L270.77,178.3L262.31,178.95L253.85,184.91L245.38,182.86L228.46,184.24L220,185.18L211.54,184.04L203.08,184.98L194.62,176.98L186.15,185.39L177.69,182.19L169.23,173.45L160.77,184.75L152.31,186L143.85,184.55L135.38,186L0,186Z" style="fill: rgb(224, 236, 244); fill-opacity: 1; stroke-width: 0;"/></g></g><g class="errorbars"/><g class="lines"><path class="js-line" d="M0,186L135.38,186L143.85,184.55L152.31,186L160.77,184.75L169.23,173.45L177.69,182.19L186.15,185.39L194.62,176.98L203.08,184.98L211.54,184.04L220,185.18L228.46,184.24L245.38,182.86L253.85,184.91L262.31,178.95L270.77,178.3L279.23,183.83L287.69,185.22L296.15,185.85L304.62,185.19L330,185.58L338.46,185.98L440,186" style="vector-effect: non-scaling-stroke; fill: none; stroke: rgb(0, 0, 0); stroke-opacity: 1; stroke-width: 0.25px; opacity: 1;"/></g><g class="points"/><g class="text"/></g><g class="trace scatter trace0a0c38" style="stroke-miterlimit: 2;"><g class="fills"><g><path class="js-fill" d="M0,186L93.08,185.43L101.54,185.15L118.46,178.22L126.92,168.84L135.38,168.84L143.85,144.13L152.31,147.44L160.77,151.76L169.23,145.8L177.69,136.58L186.15,148.12L194.62,138.51L203.08,127.2L211.54,119.64L220,137.82L228.46,138.78L236.92,150.22L245.38,135.37L253.85,149.83L262.31,143.89L270.77,137.41L279.23,154.54L296.15,170.95L304.62,161L313.08,162.55L321.54,140.19L330,166.53L338.46,168.95L346.92,181.73L355.38,185.77L440,186L440,186L380.77,186L372.31,186L346.92,185.72L338.46,183.52L330,179.4L321.54,166.53L313.08,174.79L304.62,178.32L296.15,176.14L287.69,172.01L279.23,172.75L270.77,162.65L262.31,164.1L253.85,169L245.38,159.87L236.92,167.79L228.46,162.26L220,163.7L211.54,155.42L203.08,152.63L194.62,154.19L186.15,169.36L177.69,162.42L169.23,163.92L160.77,163.61L152.31,176.28L143.85,165.82L135.38,173.57L126.92,177.82L118.46,185.76L0,186Z" style="fill: rgb(158, 188, 218); fill-opacity: 1; stroke-width: 0;"/></g></g><g class="errorbars"/><g class="lines"><path class="js-line" d="M0,186L118.46,185.76L126.92,177.82L135.38,173.57L143.85,165.82L152.31,176.28L160.77,163.61L169.23,163.92L177.69,162.42L186.15,169.36L194.62,154.19L203.08,152.63L211.54,155.42L220,163.7L228.46,162.26L236.92,167.79L245.38,159.87L253.85,169L262.31,164.1L270.77,162.65L279.23,172.75L287.69,172.01L296.15,176.14L304.62,178.32L313.08,174.79L321.54,166.53L330,179.4L338.46,183.52L346.92,185.72L372.31,186L380.77,186L440,186" style="vector-effect: non-scaling-stroke; fill: none; stroke: rgb(0, 0, 0); stroke-opacity: 1; stroke-width: 0.5px; opacity: 1;"/></g><g class="points"/><g class="text"/></g><g class="trace scatter trace42e36c" style="stroke-miterlimit: 2;"><g class="fills"><g><path class="js-fill" d="M0,185.9L42.31,185.68L50.77,183.23L59.23,184.32L67.69,183.62L76.15,184.86L84.62,184.88L93.08,183.39L101.54,172.08L110,169.68L118.46,161.09L126.92,161.15L135.38,144L143.85,133.73L152.31,137.27L160.77,137.49L169.23,106.36L177.69,109.5L186.15,119.69L194.62,120.24L203.08,92.54L211.54,98.26L220,109.89L228.46,98.4L236.92,110.1L245.38,94.55L253.85,118.72L262.31,117.4L270.77,85.86L279.23,121.44L287.69,144.16L296.15,114.2L304.62,140.16L313.08,148.98L321.54,120.28L330,140.81L338.46,141.28L346.92,170.35L355.38,172.5L363.85,185.02L372.31,185.89L380.77,185.32L389.23,186L440,186L440,186L355.38,185.77L346.92,181.73L338.46,168.95L330,166.53L321.54,140.19L313.08,162.55L304.62,161L296.15,170.95L279.23,154.54L270.77,137.41L262.31,143.89L253.85,149.83L245.38,135.37L236.92,150.22L228.46,138.78L220,137.82L211.54,119.64L203.08,127.2L194.62,138.51L186.15,148.12L177.69,136.58L169.23,145.8L160.77,151.76L152.31,147.44L143.85,144.13L135.38,168.84L126.92,168.84L118.46,178.22L101.54,185.15L93.08,185.43L0,186Z" style="fill: rgb(158, 188, 218); fill-opacity: 1; stroke-width: 0;"/></g></g><g class="errorbars"/><g class="lines"><path class="js-line" d="M0,186L93.08,185.43L101.54,185.15L118.46,178.22L126.92,168.84L135.38,168.84L143.85,144.13L152.31,147.44L160.77,151.76L169.23,145.8L177.69,136.58L186.15,148.12L194.62,138.51L203.08,127.2L211.54,119.64L220,137.82L228.46,138.78L236.92,150.22L245.38,135.37L253.85,149.83L262.31,143.89L270.77,137.41L279.23,154.54L296.15,170.95L304.62,161L313.08,162.55L321.54,140.19L330,166.53L338.46,168.95L346.92,181.73L355.38,185.77L440,186" style="vector-effect: non-scaling-stroke; fill: none; stroke: rgb(0, 0, 0); stroke-opacity: 1; stroke-width: 1px; opacity: 1;"/></g><g class="points"/><g class="text"/></g><g class="trace scatter tracef2f997" style="stroke-miterlimit: 2;"><g class="fills"><g><path class="js-fill" d="M0,185.87L33.85,185.79L42.31,185.3L50.77,182.13L59.23,182.6L67.69,181.87L76.15,183.29L84.62,183.77L93.08,183.28L101.54,154.82L110,154.57L118.46,128.33L126.92,143.56L135.38,107.89L143.85,108.13L152.31,78.81L160.77,124.48L169.23,75.65L177.69,73.29L186.15,80.68L194.62,85.29L203.08,44.25L211.54,22.93L220,80.99L228.46,48.79L236.92,75.03L245.38,59.58L253.85,69.13L262.31,58.57L270.77,-7.68L279.23,85.09L287.69,123.4L296.15,65.98L304.62,86.12L313.08,113.04L321.54,73.12L330,100.39L338.46,86.96L346.92,167.04L355.38,170.6L363.85,184.86L372.31,185.87L380.77,184.32L389.23,186L397.69,186L440,186L440,186L389.23,186L380.77,185.32L372.31,185.89L363.85,185.02L355.38,172.5L346.92,170.35L338.46,141.28L330,140.81L321.54,120.28L313.08,148.98L304.62,140.16L296.15,114.2L287.69,144.16L279.23,121.44L270.77,85.86L262.31,117.4L253.85,118.72L245.38,94.55L236.92,110.1L228.46,98.4L220,109.89L211.54,98.26L203.08,92.54L194.62,120.24L186.15,119.69L177.69,109.5L169.23,106.36L160.77,137.49L152.31,137.27L143.85,133.73L135.38,144L126.92,161.15L118.46,161.09L110,169.68L101.54,172.08L93.08,183.39L84.62,184.88L76.15,184.86L67.69,183.62L59.23,184.32L50.77,183.23L42.31,185.68L0,185.9Z" style="fill: rgb(136, 86, 167); fill-opacity: 1; stroke-width: 0;"/></g></g><g class="errorbars"/><g class="lines"><path class="js-line" d="M0,185.9L42.31,185.68L50.77,183.23L59.23,184.32L67.69,183.62L76.15,184.86L84.62,184.88L93.08,183.39L101.54,172.08L110,169.68L118.46,161.09L126.92,161.15L135.38,144L143.85,133.73L152.31,137.27L160.77,137.49L169.23,106.36L177.69,109.5L186.15,119.69L194.62,120.24L203.08,92.54L211.54,98.26L220,109.89L228.46,98.4L236.92,110.1L245.38,94.55L253.85,118.72L262.31,117.4L270.77,85.86L279.23,121.44L287.69,144.16L296.15,114.2L304.62,140.16L313.08,148.98L321.54,120.28L330,140.81L338.46,141.28L346.92,170.35L355.38,172.5L363.85,185.02L372.31,185.89L380.77,185.32L389.23,186L440,186" style="vector-effect: non-scaling-stroke; fill: none; stroke: rgb(0, 0, 0); stroke-opacity: 1; stroke-width: 0.5px; opacity: 1;"/></g><g class="points"/><g class="text"/></g><g class="trace scatter tracef9bacb" style="stroke-miterlimit: 2;"><g class="fills"/><g class="errorbars"/><g class="lines"><path class="js-line" d="M0,185.87L33.85,185.79L42.31,185.3L50.77,182.13L59.23,182.6L67.69,181.87L76.15,183.29L84.62,183.77L93.08,183.28L101.54,154.82L110,154.57L118.46,128.33L126.92,143.56L135.38,107.89L143.85,108.13L152.31,78.81L160.77,124.48L169.23,75.65L177.69,73.29L186.15,80.68L194.62,85.29L203.08,44.25L211.54,22.93L220,80.99L228.46,48.79L236.92,75.03L245.38,59.58L253.85,69.13L262.31,58.57L270.77,-7.68L279.23,85.09L287.69,123.4L296.15,65.98L304.62,86.12L313.08,113.04L321.54,73.12L330,100.39L338.46,86.96L346.92,167.04L355.38,170.6L363.85,184.86L372.31,185.87L380.77,184.32L389.23,186L397.69,186L440,186" style="vector-effect: non-scaling-stroke; fill: none; stroke: rgb(0, 0, 0); stroke-opacity: 1; stroke-width: 0.25px; opacity: 1;"/></g><g class="points"/><g class="text"/></g><g class="trace scatter trace6c3e0c" style="stroke-miterlimit: 2; opacity: 1;"><g class="fills"/><g class="errorbars"/><g class="lines"/><g class="points"><path class="point" transform="translate(169.23,120.53)" d="M4,0A4,4 0 1,1 0,-4A4,4 0 0,1 4,0ZM0,0.5L0.5,0L0,-0.5L-0.5,0Z" style="opacity: 1; stroke: rgb(0, 0, 0); stroke-opacity: 1; stroke-width: 1px; fill: none;"/><path class="point" transform="translate(177.69,149.54)" d="M4,0A4,4 0 1,1 0,-4A4,4 0 0,1 4,0ZM0,0.5L0.5,0L0,-0.5L-0.5,0Z" style="opacity: 1; stroke: rgb(0, 0, 0); stroke-opacity: 1; stroke-width: 1px; fill: none;"/><path class="point" transform="translate(186.15,77.38)" d="M4,0A4,4 0 1,1 0,-4A4,4 0 0,1 4,0ZM0,0.5L0.5,0L0,-0.5L-0.5,0Z" style="opacity: 1; stroke: rgb(0, 0, 0); stroke-opacity: 1; stroke-width: 1px; fill: none;"/><path class="point" transform="translate(194.62,77.38)" d="M4,0A4,4 0 1,1 0,-4A4,4 0 0,1 4,0ZM0,0.5L0.5,0L0,-0.5L-0.5,0Z" style="opacity: 1; stroke: rgb(0, 0, 0); stroke-opacity: 1; stroke-width: 1px; fill: none;"/></g><g class="text"/></g></g></g><g class="overplot"/><path class="xlines-above crisp" d="M0,0" style="fill: none;"/><path class="ylines-above crisp" d="M0,0" style="fill: none;"/><g class="overlines-above"/><g class="xaxislayer-above"/><g class="yaxislayer-above"><g class="ytick"><text text-anchor="end" x="79" y="4.199999999999999" transform="translate(0,286)" style="font-family: 'Open Sans', verdana, arial, sans-serif; font-size: 12px; fill: rgb(42, 63, 95); fill-opacity: 1; white-space: pre; opacity: 1;">0</text></g><g class="ytick"><text text-anchor="end" x="79" y="4.199999999999999" style="font-family: 'Open Sans', verdana, arial, sans-serif; font-size: 12px; fill: rgb(42, 63, 95); fill-opacity: 1; white-space: pre; opacity: 1;" transform="translate(0,248.8)">50</text></g><g class="ytick"><text text-anchor="end" x="79" y="4.199999999999999" style="font-family: 'Open Sans', verdana, arial, sans-serif; font-size: 12px; fill: rgb(42, 63, 95); fill-opacity: 1; white-space: pre; opacity: 1;" transform="translate(0,211.6)">100</text></g><g class="ytick"><text text-anchor="end" x="79" y="4.199999999999999" style="font-family: 'Open Sans', verdana, arial, sans-serif; font-size: 12px; fill: rgb(42, 63, 95); fill-opacity: 1; white-space: pre; opacity: 1;" transform="translate(0,174.4)">150</text></g><g class="ytick"><text text-anchor="end" x="79" y="4.199999999999999" style="font-family: 'Open Sans', verdana, arial, sans-serif; font-size: 12px; fill: rgb(42, 63, 95); fill-opacity: 1; white-space: pre; opacity: 1;" transform="translate(0,137.2)">200</text></g><g class="ytick"><text text-anchor="end" x="79" y="4.199999999999999" style="font-family: 'Open Sans', verdana, arial, sans-serif; font-size: 12px; fill: rgb(42, 63, 95); fill-opacity: 1; white-space: pre; opacity: 1;" transform="translate(0,100)">250</text></g></g><g class="overaxes-above"/></g><g class="subplot x2y2"><g class="layer-subplot"><g class="shapelayer"/><g class="imagelayer"/></g><g class="minor-gridlayer"><g class="x2"/><g class="y2"/></g><g class="gridlayer"><g class="x2"><path class="x2grid crisp" transform="translate(156.15,0)" d="M0,317.00000000000006v185.99999999999997" style="stroke: rgb(255, 255, 255); stroke-opacity: 1; stroke-width: 1px;"/><path class="x2grid crisp" transform="translate(240.77,0)" d="M0,317.00000000000006v185.99999999999997" style="stroke: rgb(255, 255, 255); stroke-opacity: 1; stroke-width: 1px;"/><path class="x2grid crisp" transform="translate(325.38,0)" d="M0,317.00000000000006v185.99999999999997" style="stroke: rgb(255, 255, 255); stroke-opacity: 1; stroke-width: 1px;"/><path class="x2grid crisp" transform="translate(410,0)" d="M0,317.00000000000006v185.99999999999997" style="stroke: rgb(255, 255, 255); stroke-opacity: 1; stroke-width: 1px;"/><path class="x2grid crisp" transform="translate(494.62,0)" d="M0,317.00000000000006v185.99999999999997" style="stroke: rgb(255, 255, 255); stroke-opacity: 1; stroke-width: 1px;"/></g><g class="y2"><path class="y2grid crisp" transform="translate(0,472.00000000000006)" d="M80,0h440" style="stroke: rgb(255, 255, 255); stroke-opacity: 1; stroke-width: 1px;"/><path class="y2grid crisp" transform="translate(0,410.00000000000006)" d="M80,0h440" style="stroke: rgb(255, 255, 255); stroke-opacity: 1; stroke-width: 1px;"/><path class="y2grid crisp" transform="translate(0,348.00000000000006)" d="M80,0h440" style="stroke: rgb(255, 255, 255); stroke-opacity: 1; stroke-width: 1px;"/></g></g><g class="zerolinelayer"/><path class="xlines-below"/><path class="ylines-below"/><g class="overlines-below"/><g class="xaxislayer-below"/><g class="yaxislayer-below"/><g class="overaxes-below"/><g class="plot" transform="translate(80,317.00000000000006)" clip-path="url(#clip0b621dx2y2plot)"><g class="scatterlayer mlayer"><g class="trace scatter trace8983ac" style="stroke-miterlimit: 2;"><g class="fills"><g><path class="js-fill" d="M0,148.64L8.46,149.13L16.92,143.68L33.85,132.7L42.31,122.45L50.77,115.74L59.23,107.62L67.69,97.31L76.15,97L84.62,79.03L93.08,71.03L101.54,83.47L110,89.01L118.46,86.37L126.92,86.76L135.38,90.88L143.85,87.55L152.31,81.94L160.77,85.25L169.23,85.89L177.69,89.81L186.15,87.22L194.62,92.54L203.08,91.79L211.54,96.29L228.46,91.07L236.92,92.04L245.38,92.65L253.85,87.71L262.31,87.48L270.77,92.94L279.23,95.28L287.69,90.3L296.15,95.28L304.62,93.37L313.08,95.46L321.54,96.04L330,97.65L338.46,94.88L346.92,89.84L355.38,89.35L363.85,96.58L372.31,98.22L380.77,107.21L389.23,113.02L397.69,120.05L406.15,130.24L414.62,131.22L423.08,141.75L431.54,144.33L440,150.48L440,153.92L431.54,153.57L423.08,159.57L414.62,139.23L406.15,140.23L397.69,133.83L389.23,119.34L380.77,116.6L372.31,105.41L363.85,102.71L355.38,92.58L346.92,99.53L338.46,109.99L330,109.94L321.54,105.88L313.08,108.15L304.62,101.46L296.15,111.96L287.69,95.51L279.23,109.19L270.77,106.64L262.31,101.46L253.85,98.04L245.38,109.66L236.92,101.17L228.46,101.15L220,109.1L203.08,101.76L194.62,105.61L186.15,93.16L177.69,91.69L169.23,90.98L160.77,89.12L152.31,86.22L143.85,93L135.38,100.84L126.92,98.67L118.46,97.78L110,102.21L101.54,101.51L93.08,88.32L84.62,94.14L76.15,106.82L67.69,110.14L59.23,120.39L50.77,136.56L42.31,136.11L33.85,150.42L25.38,149.26L16.92,152.31L8.46,165.96L0,169.08Z" style="fill: rgb(145, 191, 219); fill-opacity: 1; stroke-width: 0;"/></g></g><g class="errorbars"/><g class="lines"><path class="js-line" d="M0,169.08L8.46,165.96L16.92,152.31L25.38,149.26L33.85,150.42L42.31,136.11L50.77,136.56L59.23,120.39L67.69,110.14L76.15,106.82L84.62,94.14L93.08,88.32L101.54,101.51L110,102.21L118.46,97.78L126.92,98.67L135.38,100.84L143.85,93L152.31,86.22L160.77,89.12L169.23,90.98L177.69,91.69L186.15,93.16L194.62,105.61L203.08,101.76L220,109.1L228.46,101.15L236.92,101.17L245.38,109.66L253.85,98.04L262.31,101.46L270.77,106.64L279.23,109.19L287.69,95.51L296.15,111.96L304.62,101.46L313.08,108.15L321.54,105.88L330,109.94L338.46,109.99L346.92,99.53L355.38,92.58L363.85,102.71L372.31,105.41L380.77,116.6L389.23,119.34L397.69,133.83L406.15,140.23L414.62,139.23L423.08,159.57L431.54,153.57L440,153.92" style="vector-effect: non-scaling-stroke; fill: none; stroke: rgb(0, 0, 0); stroke-opacity: 1; stroke-width: 0.25px; opacity: 1;"/></g><g class="points"/><g class="text"/></g><g class="trace scatter tracebc7e68" style="stroke-miterlimit: 2;"><g class="fills"><g><path class="js-fill" d="M0,139.7L8.46,146.13L16.92,133.9L25.38,133.95L33.85,125.17L50.77,108.02L59.23,101.25L67.69,86.37L76.15,82.97L84.62,73.12L93.08,67.15L110,76.68L118.46,73.91L126.92,78.6L135.38,79.95L143.85,85.34L152.31,77.8L160.77,77.13L169.23,80.29L177.69,81.59L186.15,84.67L194.62,86.03L203.08,88.71L211.54,85.27L220,89.41L228.46,88.47L236.92,81.64L245.38,84.34L253.85,82.25L262.31,82.1L270.77,87.23L279.23,85.05L287.69,86.93L296.15,86.08L304.62,89.63L313.08,88.78L321.54,90.65L330,83.4L338.46,82.39L346.92,88.21L355.38,88.01L363.85,93.46L372.31,96.23L380.77,103.94L389.23,109.97L397.69,114.32L406.15,124.04L414.62,126.77L423.08,132.53L431.54,137.83L440,136.37L440,150.48L431.54,144.33L423.08,141.75L414.62,131.22L406.15,130.24L397.69,120.05L389.23,113.02L380.77,107.21L372.31,98.22L363.85,96.58L355.38,89.35L346.92,89.84L338.46,94.88L330,97.65L321.54,96.04L313.08,95.46L304.62,93.37L296.15,95.28L287.69,90.3L279.23,95.28L270.77,92.94L262.31,87.48L253.85,87.71L245.38,92.65L236.92,92.04L228.46,91.07L211.54,96.29L203.08,91.79L194.62,92.54L186.15,87.22L177.69,89.81L169.23,85.89L160.77,85.25L152.31,81.94L143.85,87.55L135.38,90.88L126.92,86.76L118.46,86.37L110,89.01L101.54,83.47L93.08,71.03L84.62,79.03L76.15,97L67.69,97.31L59.23,107.62L50.77,115.74L42.31,122.45L33.85,132.7L16.92,143.68L8.46,149.13L0,148.64Z" style="fill: rgb(255, 255, 191); fill-opacity: 1; stroke-width: 0;"/></g></g><g class="errorbars"/><g class="lines"><path class="js-line" d="M0,148.64L8.46,149.13L16.92,143.68L33.85,132.7L42.31,122.45L50.77,115.74L59.23,107.62L67.69,97.31L76.15,97L84.62,79.03L93.08,71.03L101.54,83.47L110,89.01L118.46,86.37L126.92,86.76L135.38,90.88L143.85,87.55L152.31,81.94L160.77,85.25L169.23,85.89L177.69,89.81L186.15,87.22L194.62,92.54L203.08,91.79L211.54,96.29L228.46,91.07L236.92,92.04L245.38,92.65L253.85,87.71L262.31,87.48L270.77,92.94L279.23,95.28L287.69,90.3L296.15,95.28L304.62,93.37L313.08,95.46L321.54,96.04L330,97.65L338.46,94.88L346.92,89.84L355.38,89.35L363.85,96.58L372.31,98.22L380.77,107.21L389.23,113.02L397.69,120.05L406.15,130.24L414.62,131.22L423.08,141.75L431.54,144.33L440,150.48" style="vector-effect: non-scaling-stroke; fill: none; stroke: rgb(0, 0, 0); stroke-opacity: 1; stroke-width: 0.5px; opacity: 1;"/></g><g class="points"/><g class="text"/></g><g class="trace scatter tracea944b1" style="stroke-miterlimit: 2;"><g class="fills"><g><path class="js-fill" d="M0,131.3L8.46,136.29L16.92,127.58L25.38,129.65L33.85,117.42L59.23,89.34L67.69,83.26L76.15,71.61L84.62,66.93L93.08,59.14L101.54,55.22L110,62.13L118.46,66.31L126.92,68.44L135.38,66.12L143.85,79.96L152.31,73.29L160.77,71.01L169.23,77.2L186.15,76.67L194.62,79.6L203.08,83.64L211.54,81.8L220,78.37L228.46,81.88L236.92,78.39L245.38,81.07L262.31,76.88L270.77,77.34L279.23,81.09L287.69,82.57L296.15,80.45L304.62,84.58L313.08,82.26L321.54,84.66L330,76.81L338.46,76.48L346.92,78.9L355.38,87.04L363.85,90.93L372.31,92.23L380.77,100.88L389.23,105.39L397.69,109.46L406.15,115.78L423.08,125.18L431.54,126.87L440,123.56L440,136.37L431.54,137.83L423.08,132.53L414.62,126.77L406.15,124.04L397.69,114.32L389.23,109.97L380.77,103.94L372.31,96.23L363.85,93.46L355.38,88.01L346.92,88.21L338.46,82.39L330,83.4L321.54,90.65L313.08,88.78L304.62,89.63L296.15,86.08L287.69,86.93L279.23,85.05L270.77,87.23L262.31,82.1L253.85,82.25L245.38,84.34L236.92,81.64L228.46,88.47L220,89.41L211.54,85.27L203.08,88.71L194.62,86.03L186.15,84.67L177.69,81.59L169.23,80.29L160.77,77.13L152.31,77.8L143.85,85.34L135.38,79.95L126.92,78.6L118.46,73.91L110,76.68L93.08,67.15L84.62,73.12L76.15,82.97L67.69,86.37L59.23,101.25L50.77,108.02L33.85,125.17L25.38,133.95L16.92,133.9L8.46,146.13L0,139.7Z" style="fill: rgb(255, 255, 191); fill-opacity: 1; stroke-width: 0;"/></g></g><g class="errorbars"/><g class="lines"><path class="js-line" d="M0,139.7L8.46,146.13L16.92,133.9L25.38,133.95L33.85,125.17L50.77,108.02L59.23,101.25L67.69,86.37L76.15,82.97L84.62,73.12L93.08,67.15L110,76.68L118.46,73.91L126.92,78.6L135.38,79.95L143.85,85.34L152.31,77.8L160.77,77.13L169.23,80.29L177.69,81.59L186.15,84.67L194.62,86.03L203.08,88.71L211.54,85.27L220,89.41L228.46,88.47L236.92,81.64L245.38,84.34L253.85,82.25L262.31,82.1L270.77,87.23L279.23,85.05L287.69,86.93L296.15,86.08L304.62,89.63L313.08,88.78L321.54,90.65L330,83.4L338.46,82.39L346.92,88.21L355.38,88.01L363.85,93.46L372.31,96.23L380.77,103.94L389.23,109.97L397.69,114.32L406.15,124.04L414.62,126.77L423.08,132.53L431.54,137.83L440,136.37" style="vector-effect: non-scaling-stroke; fill: none; stroke: rgb(0, 0, 0); stroke-opacity: 1; stroke-width: 1px; opacity: 1;"/></g><g class="points"/><g class="text"/></g><g class="trace scatter trace85938f" style="stroke-miterlimit: 2;"><g class="fills"><g><path class="js-fill" d="M0,111.43L8.46,121.19L16.92,118.56L25.38,125.29L33.85,110.99L42.31,100.27L50.77,82.51L59.23,76.96L67.69,64.92L76.15,59.53L84.62,52.71L93.08,55.09L101.54,39.54L110,42.63L118.46,41.13L126.92,50.16L135.38,29.2L143.85,70.36L152.31,67.68L160.77,54.43L169.23,72.44L177.69,64.72L186.15,71.17L194.62,67.26L203.08,71.63L211.54,71.18L220,65.77L228.46,72.66L236.92,69.69L245.38,66.86L253.85,69.68L262.31,63.09L270.77,72.41L279.23,66.93L287.69,76.05L296.15,69.87L304.62,77.18L313.08,68.16L321.54,72.4L338.46,62.52L346.92,73.83L355.38,84.18L363.85,85.87L372.31,87.01L380.77,95.71L389.23,97.22L397.69,99.84L406.15,105.1L414.62,114.39L423.08,118.83L431.54,120.72L440,117.69L440,123.56L431.54,126.87L423.08,125.18L406.15,115.78L397.69,109.46L389.23,105.39L380.77,100.88L372.31,92.23L363.85,90.93L355.38,87.04L346.92,78.9L338.46,76.48L330,76.81L321.54,84.66L313.08,82.26L304.62,84.58L296.15,80.45L287.69,82.57L279.23,81.09L270.77,77.34L262.31,76.88L245.38,81.07L236.92,78.39L228.46,81.88L220,78.37L211.54,81.8L203.08,83.64L194.62,79.6L186.15,76.67L169.23,77.2L160.77,71.01L152.31,73.29L143.85,79.96L135.38,66.12L126.92,68.44L118.46,66.31L110,62.13L101.54,55.22L93.08,59.14L84.62,66.93L76.15,71.61L67.69,83.26L59.23,89.34L33.85,117.42L25.38,129.65L16.92,127.58L8.46,136.29L0,131.3Z" style="fill: rgb(252, 141, 89); fill-opacity: 1; stroke-width: 0;"/></g></g><g class="errorbars"/><g class="lines"><path class="js-line" d="M0,131.3L8.46,136.29L16.92,127.58L25.38,129.65L33.85,117.42L59.23,89.34L67.69,83.26L76.15,71.61L84.62,66.93L93.08,59.14L101.54,55.22L110,62.13L118.46,66.31L126.92,68.44L135.38,66.12L143.85,79.96L152.31,73.29L160.77,71.01L169.23,77.2L186.15,76.67L194.62,79.6L203.08,83.64L211.54,81.8L220,78.37L228.46,81.88L236.92,78.39L245.38,81.07L262.31,76.88L270.77,77.34L279.23,81.09L287.69,82.57L296.15,80.45L304.62,84.58L313.08,82.26L321.54,84.66L330,76.81L338.46,76.48L346.92,78.9L355.38,87.04L363.85,90.93L372.31,92.23L380.77,100.88L389.23,105.39L397.69,109.46L406.15,115.78L423.08,125.18L431.54,126.87L440,123.56" style="vector-effect: non-scaling-stroke; fill: none; stroke: rgb(0, 0, 0); stroke-opacity: 1; stroke-width: 0.5px; opacity: 1;"/></g><g class="points"/><g class="text"/></g><g class="trace scatter trace995869" style="stroke-miterlimit: 2;"><g class="fills"/><g class="errorbars"/><g class="lines"><path class="js-line" d="M0,111.43L8.46,121.19L16.92,118.56L25.38,125.29L33.85,110.99L42.31,100.27L50.77,82.51L59.23,76.96L67.69,64.92L76.15,59.53L84.62,52.71L93.08,55.09L101.54,39.54L110,42.63L118.46,41.13L126.92,50.16L135.38,29.2L143.85,70.36L152.31,67.68L160.77,54.43L169.23,72.44L177.69,64.72L186.15,71.17L194.62,67.26L203.08,71.63L211.54,71.18L220,65.77L228.46,72.66L236.92,69.69L245.38,66.86L253.85,69.68L262.31,63.09L270.77,72.41L279.23,66.93L287.69,76.05L296.15,69.87L304.62,77.18L313.08,68.16L321.54,72.4L338.46,62.52L346.92,73.83L355.38,84.18L363.85,85.87L372.31,87.01L380.77,95.71L389.23,97.22L397.69,99.84L406.15,105.1L414.62,114.39L423.08,118.83L431.54,120.72L440,117.69" style="vector-effect: non-scaling-stroke; fill: none; stroke: rgb(0, 0, 0); stroke-opacity: 1; stroke-width: 0.25px; opacity: 1;"/></g><g class="points"/><g class="text"/></g><g class="trace scatter trace03720f" style="stroke-miterlimit: 2; opacity: 1;"><g class="fills"/><g class="errorbars"/><g class="lines"/><g class="points"><path class="point" transform="translate(169.23,86.8)" d="M4,0A4,4 0 1,1 0,-4A4,4 0 0,1 4,0ZM0,0.5L0.5,0L0,-0.5L-0.5,0Z" style="opacity: 1; stroke: rgb(0, 0, 0); stroke-opacity: 1; stroke-width: 1px; fill: none;"/><path class="point" transform="translate(177.69,80.6)" d="M4,0A4,4 0 1,1 0,-4A4,4 0 0,1 4,0ZM0,0.5L0.5,0L0,-0.5L-0.5,0Z" style="opacity: 1; stroke: rgb(0, 0, 0); stroke-opacity: 1; stroke-width: 1px; fill: none;"/><path class="point" transform="translate(186.15,80.6)" d="M4,0A4,4 0 1,1 0,-4A4,4 0 0,1 4,0ZM0,0.5L0.5,0L0,-0.5L-0.5,0Z" style="opacity: 1; stroke: rgb(0, 0, 0); stroke-opacity: 1; stroke-width: 1px; fill: none;"/><path class="point" transform="translate(194.62,80.6)" d="M4,0A4,4 0 1,1 0,-4A4,4 0 0,1 4,0ZM0,0.5L0.5,0L0,-0.5L-0.5,0Z" style="opacity: 1; stroke: rgb(0, 0, 0); stroke-opacity: 1; stroke-width: 1px; fill: none;"/></g><g class="text"/></g></g></g><g class="overplot"/><path class="xlines-above crisp" d="M0,0" style="fill: none;"/><path class="ylines-above crisp" d="M0,0" style="fill: none;"/><g class="overlines-above"/><g class="xaxislayer-above"/><g class="yaxislayer-above"><g class="y2tick"><text text-anchor="end" x="79" y="4.199999999999999" transform="translate(0,472.00000000000006)" style="font-family: 'Open Sans', verdana, arial, sans-serif; font-size: 12px; fill: rgb(42, 63, 95); fill-opacity: 1; white-space: pre; opacity: 1;">20</text></g><g class="y2tick"><text text-anchor="end" x="79" y="4.199999999999999" style="font-family: 'Open Sans', verdana, arial, sans-serif; font-size: 12px; fill: rgb(42, 63, 95); fill-opacity: 1; white-space: pre; opacity: 1;" transform="translate(0,410.00000000000006)">30</text></g><g class="y2tick"><text text-anchor="end" x="79" y="4.199999999999999" style="font-family: 'Open Sans', verdana, arial, sans-serif; font-size: 12px; fill: rgb(42, 63, 95); fill-opacity: 1; white-space: pre; opacity: 1;" transform="translate(0,348.00000000000006)">40</text></g></g><g class="overaxes-above"/></g><g class="subplot x3y3"><g class="layer-subplot"><g class="shapelayer"/><g class="imagelayer"/></g><g class="minor-gridlayer"><g class="x3"/><g class="y3"/></g><g class="gridlayer"><g class="x3"><path class="x3grid crisp" transform="translate(156.15,0)" d="M0,534v186" style="stroke: rgb(255, 255, 255); stroke-opacity: 1; stroke-width: 1px;"/><path class="x3grid crisp" transform="translate(240.77,0)" d="M0,534v186" style="stroke: rgb(255, 255, 255); stroke-opacity: 1; stroke-width: 1px;"/><path class="x3grid crisp" transform="translate(325.38,0)" d="M0,534v186" style="stroke: rgb(255, 255, 255); stroke-opacity: 1; stroke-width: 1px;"/><path class="x3grid crisp" transform="translate(410,0)" d="M0,534v186" style="stroke: rgb(255, 255, 255); stroke-opacity: 1; stroke-width: 1px;"/><path class="x3grid crisp" transform="translate(494.62,0)" d="M0,534v186" style="stroke: rgb(255, 255, 255); stroke-opacity: 1; stroke-width: 1px;"/></g><g class="y3"><path class="y3grid crisp" transform="translate(0,682.8)" d="M80,0h440" style="stroke: rgb(255, 255, 255); stroke-opacity: 1; stroke-width: 1px;"/><path class="y3grid crisp" transform="translate(0,645.6)" d="M80,0h440" style="stroke: rgb(255, 255, 255); stroke-opacity: 1; stroke-width: 1px;"/><path class="y3grid crisp" transform="translate(0,608.4)" d="M80,0h440" style="stroke: rgb(255, 255, 255); stroke-opacity: 1; stroke-width: 1px;"/><path class="y3grid crisp" transform="translate(0,571.2)" d="M80,0h440" style="stroke: rgb(255, 255, 255); stroke-opacity: 1; stroke-width: 1px;"/></g></g><g class="zerolinelayer"/><path class="xlines-below"/><path class="ylines-below"/><g class="overlines-below"/><g class="xaxislayer-below"/><g class="yaxislayer-below"/><g class="overaxes-below"/><g class="plot" transform="translate(80,534)" clip-path="url(#clip0b621dx3y3plot)"><g class="scatterlayer mlayer"><g class="trace scatter traceca92d1" style="stroke-miterlimit: 2;"><g class="fills"><g><path class="js-fill" d="M0,128.83L8.46,138.29L16.92,132.39L25.38,126.51L33.85,122.94L42.31,116.21L50.77,112.48L67.69,92.46L76.15,87.43L93.08,73.07L101.54,68.16L110,65.29L118.46,66.49L126.92,57.91L135.38,59.74L143.85,61.45L152.31,51.01L160.77,48.91L169.23,44.72L177.69,43.4L186.15,41.16L203.08,37.86L211.54,37.91L220,36.75L228.46,37.34L236.92,37.14L245.38,38.65L262.31,36.96L270.77,38.04L279.23,39.17L287.69,39.01L313.08,42.96L321.54,41.95L330,44.5L338.46,49.47L346.92,51.95L355.38,56.21L363.85,66.64L372.31,70.57L380.77,81.01L389.23,89.7L397.69,99.48L406.15,105.85L414.62,111.15L423.08,127.48L431.54,126L440,136.07L440,142.93L431.54,148.53L423.08,134.77L414.62,129.18L397.69,114.7L389.23,102.34L380.77,91.52L372.31,82.15L363.85,69.69L355.38,63.81L346.92,58.83L338.46,56.22L330,52.08L321.54,47.13L313.08,51.49L304.62,44.58L296.15,44.15L287.69,41.49L270.77,43.28L262.31,42.82L253.85,40.04L245.38,44.25L236.92,41.08L228.46,42.11L220,41.67L211.54,39.74L203.08,40.5L194.62,41.62L177.69,50.26L169.23,49.93L160.77,56.18L152.31,60.22L135.38,69.7L126.92,67.27L118.46,69.78L110,77.91L101.54,78.31L93.08,94.16L84.62,97.86L76.15,110.58L67.69,112.87L59.23,112.96L50.77,136.62L42.31,130.58L33.85,136.77L25.38,133.26L16.92,144.53L8.46,147.17L0,136.92Z" style="fill: rgb(90, 180, 172); fill-opacity: 1; stroke-width: 0;"/></g></g><g class="errorbars"/><g class="lines"><path class="js-line" d="M0,136.92L8.46,147.17L16.92,144.53L25.38,133.26L33.85,136.77L42.31,130.58L50.77,136.62L59.23,112.96L67.69,112.87L76.15,110.58L84.62,97.86L93.08,94.16L101.54,78.31L110,77.91L118.46,69.78L126.92,67.27L135.38,69.7L152.31,60.22L160.77,56.18L169.23,49.93L177.69,50.26L194.62,41.62L203.08,40.5L211.54,39.74L220,41.67L228.46,42.11L236.92,41.08L245.38,44.25L253.85,40.04L262.31,42.82L270.77,43.28L287.69,41.49L296.15,44.15L304.62,44.58L313.08,51.49L321.54,47.13L330,52.08L338.46,56.22L346.92,58.83L355.38,63.81L363.85,69.69L372.31,82.15L380.77,91.52L389.23,102.34L397.69,114.7L414.62,129.18L423.08,134.77L431.54,148.53L440,142.93" style="vector-effect: non-scaling-stroke; fill: none; stroke: rgb(0, 0, 0); stroke-opacity: 1; stroke-width: 0.25px; opacity: 1;"/></g><g class="points"/><g class="text"/></g><g class="trace scatter trace716b2a" style="stroke-miterlimit: 2;"><g class="fills"><g><path class="js-fill" d="M0,123.4L8.46,130.62L16.92,122.69L25.38,117.67L33.85,116.86L42.31,106.1L50.77,99.98L59.23,93.37L67.69,81.97L76.15,77.85L84.62,69.21L93.08,62.95L101.54,61.47L110,62.48L118.46,61.23L126.92,54.9L135.38,55.25L143.85,55.11L152.31,47.35L160.77,43.78L169.23,42.93L177.69,41.3L186.15,37.39L194.62,37.34L203.08,36.16L211.54,35.38L220,35.39L228.46,36.18L236.92,35.31L245.38,36.38L253.85,35.68L262.31,32.83L270.77,34.89L287.69,35.99L296.15,37.39L304.62,39.74L313.08,39.53L321.54,39.58L330,41.73L338.46,42.02L346.92,48.27L355.38,53.77L363.85,62.45L372.31,66.36L380.77,76.81L389.23,82.97L397.69,91.42L406.15,100.85L414.62,104.88L431.54,120.05L440,131.68L440,136.07L431.54,126L423.08,127.48L414.62,111.15L406.15,105.85L397.69,99.48L389.23,89.7L380.77,81.01L372.31,70.57L363.85,66.64L355.38,56.21L346.92,51.95L338.46,49.47L330,44.5L321.54,41.95L313.08,42.96L287.69,39.01L279.23,39.17L270.77,38.04L262.31,36.96L245.38,38.65L236.92,37.14L228.46,37.34L220,36.75L211.54,37.91L203.08,37.86L186.15,41.16L177.69,43.4L169.23,44.72L160.77,48.91L152.31,51.01L143.85,61.45L135.38,59.74L126.92,57.91L118.46,66.49L110,65.29L101.54,68.16L93.08,73.07L76.15,87.43L67.69,92.46L50.77,112.48L42.31,116.21L33.85,122.94L25.38,126.51L16.92,132.39L8.46,138.29L0,128.83Z" style="fill: rgb(245, 245, 245); fill-opacity: 1; stroke-width: 0;"/></g></g><g class="errorbars"/><g class="lines"><path class="js-line" d="M0,128.83L8.46,138.29L16.92,132.39L25.38,126.51L33.85,122.94L42.31,116.21L50.77,112.48L67.69,92.46L76.15,87.43L93.08,73.07L101.54,68.16L110,65.29L118.46,66.49L126.92,57.91L135.38,59.74L143.85,61.45L152.31,51.01L160.77,48.91L169.23,44.72L177.69,43.4L186.15,41.16L203.08,37.86L211.54,37.91L220,36.75L228.46,37.34L236.92,37.14L245.38,38.65L262.31,36.96L270.77,38.04L279.23,39.17L287.69,39.01L313.08,42.96L321.54,41.95L330,44.5L338.46,49.47L346.92,51.95L355.38,56.21L363.85,66.64L372.31,70.57L380.77,81.01L389.23,89.7L397.69,99.48L406.15,105.85L414.62,111.15L423.08,127.48L431.54,126L440,136.07" style="vector-effect: non-scaling-stroke; fill: none; stroke: rgb(0, 0, 0); stroke-opacity: 1; stroke-width: 0.5px; opacity: 1;"/></g><g class="points"/><g class="text"/></g><g class="trace scatter tracefa128b" style="stroke-miterlimit: 2;"><g class="fills"><g><path class="js-fill" d="M0,115.52L8.46,119.06L16.92,114.58L25.38,115.06L33.85,110.85L42.31,99.85L50.77,95.81L59.23,83.56L67.69,76.16L76.15,70.8L84.62,64.07L93.08,58.66L101.54,50.27L110,53.24L118.46,51.82L126.92,51.02L135.38,47.07L143.85,48.15L152.31,43.94L186.15,35.49L194.62,35.01L203.08,35.15L211.54,33.61L220,31.9L228.46,33.07L236.92,32.86L245.38,33.54L253.85,31.81L262.31,31.06L270.77,31.92L279.23,33.65L287.69,34.21L296.15,35.56L304.62,37.04L313.08,34.92L321.54,38.2L330,36.08L338.46,37.12L346.92,44.33L363.85,56.5L372.31,61.41L380.77,72.14L389.23,78.54L397.69,85.56L406.15,93.75L414.62,98.72L423.08,98.23L431.54,108.23L440,121.5L440,131.68L431.54,120.05L414.62,104.88L406.15,100.85L397.69,91.42L389.23,82.97L380.77,76.81L372.31,66.36L363.85,62.45L355.38,53.77L346.92,48.27L338.46,42.02L330,41.73L321.54,39.58L313.08,39.53L304.62,39.74L296.15,37.39L287.69,35.99L270.77,34.89L262.31,32.83L253.85,35.68L245.38,36.38L236.92,35.31L228.46,36.18L220,35.39L211.54,35.38L203.08,36.16L194.62,37.34L186.15,37.39L177.69,41.3L169.23,42.93L160.77,43.78L152.31,47.35L143.85,55.11L135.38,55.25L126.92,54.9L118.46,61.23L110,62.48L101.54,61.47L93.08,62.95L84.62,69.21L76.15,77.85L67.69,81.97L59.23,93.37L50.77,99.98L42.31,106.1L33.85,116.86L25.38,117.67L16.92,122.69L8.46,130.62L0,123.4Z" style="fill: rgb(245, 245, 245); fill-opacity: 1; stroke-width: 0;"/></g></g><g class="errorbars"/><g class="lines"><path class="js-line" d="M0,123.4L8.46,130.62L16.92,122.69L25.38,117.67L33.85,116.86L42.31,106.1L50.77,99.98L59.23,93.37L67.69,81.97L76.15,77.85L84.62,69.21L93.08,62.95L101.54,61.47L110,62.48L118.46,61.23L126.92,54.9L135.38,55.25L143.85,55.11L152.31,47.35L160.77,43.78L169.23,42.93L177.69,41.3L186.15,37.39L194.62,37.34L203.08,36.16L211.54,35.38L220,35.39L228.46,36.18L236.92,35.31L245.38,36.38L253.85,35.68L262.31,32.83L270.77,34.89L287.69,35.99L296.15,37.39L304.62,39.74L313.08,39.53L321.54,39.58L330,41.73L338.46,42.02L346.92,48.27L355.38,53.77L363.85,62.45L372.31,66.36L380.77,76.81L389.23,82.97L397.69,91.42L406.15,100.85L414.62,104.88L431.54,120.05L440,131.68" style="vector-effect: non-scaling-stroke; fill: none; stroke: rgb(0, 0, 0); stroke-opacity: 1; stroke-width: 1px; opacity: 1;"/></g><g class="points"/><g class="text"/></g><g class="trace scatter traceda8a47" style="stroke-miterlimit: 2;"><g class="fills"><g><path class="js-fill" d="M0,109.84L8.46,110.61L16.92,98.16L33.85,104.13L42.31,90.3L50.77,73.15L59.23,62.18L67.69,60.12L76.15,48.54L84.62,52.85L93.08,42.14L101.54,38.71L110,40.37L118.46,35.13L126.92,44.03L135.38,29.31L143.85,39.31L152.31,34.51L160.77,34.38L169.23,35.81L177.69,31.99L186.15,31.7L194.62,32.45L203.08,32.63L211.54,29.07L220,25.53L228.46,26.67L236.92,26.72L245.38,28.13L262.31,27.19L270.77,23.9L287.69,31.36L296.15,31.14L313.08,29.9L321.54,32.99L330,27.27L338.46,31.78L346.92,34.18L355.38,44.36L363.85,51.17L372.31,53.25L380.77,66.28L389.23,71.82L397.69,78.13L406.15,79.87L414.62,84.09L423.08,87.08L431.54,101.64L440,103.2L440,121.5L431.54,108.23L423.08,98.23L414.62,98.72L406.15,93.75L397.69,85.56L389.23,78.54L380.77,72.14L372.31,61.41L363.85,56.5L346.92,44.33L338.46,37.12L330,36.08L321.54,38.2L313.08,34.92L304.62,37.04L296.15,35.56L287.69,34.21L279.23,33.65L270.77,31.92L262.31,31.06L253.85,31.81L245.38,33.54L236.92,32.86L228.46,33.07L220,31.9L211.54,33.61L203.08,35.15L194.62,35.01L186.15,35.49L152.31,43.94L143.85,48.15L135.38,47.07L126.92,51.02L118.46,51.82L110,53.24L101.54,50.27L93.08,58.66L84.62,64.07L76.15,70.8L67.69,76.16L59.23,83.56L50.77,95.81L42.31,99.85L33.85,110.85L25.38,115.06L16.92,114.58L8.46,119.06L0,115.52Z" style="fill: rgb(216, 179, 101); fill-opacity: 1; stroke-width: 0;"/></g></g><g class="errorbars"/><g class="lines"><path class="js-line" d="M0,115.52L8.46,119.06L16.92,114.58L25.38,115.06L33.85,110.85L42.31,99.85L50.77,95.81L59.23,83.56L67.69,76.16L76.15,70.8L84.62,64.07L93.08,58.66L101.54,50.27L110,53.24L118.46,51.82L126.92,51.02L135.38,47.07L143.85,48.15L152.31,43.94L186.15,35.49L194.62,35.01L203.08,35.15L211.54,33.61L220,31.9L228.46,33.07L236.92,32.86L245.38,33.54L253.85,31.81L262.31,31.06L270.77,31.92L279.23,33.65L287.69,34.21L296.15,35.56L304.62,37.04L313.08,34.92L321.54,38.2L330,36.08L338.46,37.12L346.92,44.33L363.85,56.5L372.31,61.41L380.77,72.14L389.23,78.54L397.69,85.56L406.15,93.75L414.62,98.72L423.08,98.23L431.54,108.23L440,121.5" style="vector-effect: non-scaling-stroke; fill: none; stroke: rgb(0, 0, 0); stroke-opacity: 1; stroke-width: 0.5px; opacity: 1;"/></g><g class="points"/><g class="text"/></g><g class="trace scatter trace6d907c" style="stroke-miterlimit: 2;"><g class="fills"/><g class="errorbars"/><g class="lines"><path class="js-line" d="M0,109.84L8.46,110.61L16.92,98.16L33.85,104.13L42.31,90.3L50.77,73.15L59.23,62.18L67.69,60.12L76.15,48.54L84.62,52.85L93.08,42.14L101.54,38.71L110,40.37L118.46,35.13L126.92,44.03L135.38,29.31L143.85,39.31L152.31,34.51L160.77,34.38L169.23,35.81L177.69,31.99L186.15,31.7L194.62,32.45L203.08,32.63L211.54,29.07L220,25.53L228.46,26.67L236.92,26.72L245.38,28.13L262.31,27.19L270.77,23.9L287.69,31.36L296.15,31.14L313.08,29.9L321.54,32.99L330,27.27L338.46,31.78L346.92,34.18L355.38,44.36L363.85,51.17L372.31,53.25L380.77,66.28L389.23,71.82L397.69,78.13L406.15,79.87L414.62,84.09L423.08,87.08L431.54,101.64L440,103.2" style="vector-effect: non-scaling-stroke; fill: none; stroke: rgb(0, 0, 0); stroke-opacity: 1; stroke-width: 0.25px; opacity: 1;"/></g><g class="points"/><g class="text"/></g><g class="trace scatter tracea00abd" style="stroke-miterlimit: 2; opacity: 1;"><g class="fills"/><g class="errorbars"/><g class="lines"/><g class="points"><path class="point" transform="translate(169.23,44.64)" d="M4,0A4,4 0 1,1 0,-4A4,4 0 0,1 4,0ZM0,0.5L0.5,0L0,-0.5L-0.5,0Z" style="opacity: 1; stroke: rgb(0, 0, 0); stroke-opacity: 1; stroke-width: 1px; fill: none;"/><path class="point" transform="translate(177.69,44.64)" d="M4,0A4,4 0 1,1 0,-4A4,4 0 0,1 4,0ZM0,0.5L0.5,0L0,-0.5L-0.5,0Z" style="opacity: 1; stroke: rgb(0, 0, 0); stroke-opacity: 1; stroke-width: 1px; fill: none;"/><path class="point" transform="translate(186.15,29.76)" d="M4,0A4,4 0 1,1 0,-4A4,4 0 0,1 4,0ZM0,0.5L0.5,0L0,-0.5L-0.5,0Z" style="opacity: 1; stroke: rgb(0, 0, 0); stroke-opacity: 1; stroke-width: 1px; fill: none;"/><path class="point" transform="translate(194.62,29.76)" d="M4,0A4,4 0 1,1 0,-4A4,4 0 0,1 4,0ZM0,0.5L0.5,0L0,-0.5L-0.5,0Z" style="opacity: 1; stroke: rgb(0, 0, 0); stroke-opacity: 1; stroke-width: 1px; fill: none;"/></g><g class="text"/></g></g></g><g class="overplot"/><path class="xlines-above crisp" d="M0,0" style="fill: none;"/><path class="ylines-above crisp" d="M0,0" style="fill: none;"/><g class="overlines-above"/><g class="xaxislayer-above"><g class="x3tick"><text text-anchor="middle" x="0" y="733" transform="translate(156.15,0)" style="font-family: 'Open Sans', verdana, arial, sans-serif; font-size: 12px; fill: rgb(42, 63, 95); fill-opacity: 1; white-space: pre; opacity: 1;">10</text></g><g class="x3tick"><text text-anchor="middle" x="0" y="733" style="font-family: 'Open Sans', verdana, arial, sans-serif; font-size: 12px; fill: rgb(42, 63, 95); fill-opacity: 1; white-space: pre; opacity: 1;" transform="translate(240.77,0)">20</text></g><g class="x3tick"><text text-anchor="middle" x="0" y="733" style="font-family: 'Open Sans', verdana, arial, sans-serif; font-size: 12px; fill: rgb(42, 63, 95); fill-opacity: 1; white-space: pre; opacity: 1;" transform="translate(325.38,0)">30</text></g><g class="x3tick"><text text-anchor="middle" x="0" y="733" style="font-family: 'Open Sans', verdana, arial, sans-serif; font-size: 12px; fill: rgb(42, 63, 95); fill-opacity: 1; white-space: pre; opacity: 1;" transform="translate(410,0)">40</text></g><g class="x3tick"><text text-anchor="middle" x="0" y="733" style="font-family: 'Open Sans', verdana, arial, sans-serif; font-size: 12px; fill: rgb(42, 63, 95); fill-opacity: 1; white-space: pre; opacity: 1;" transform="translate(494.62,0)">50</text></g></g><g class="yaxislayer-above"><g class="y3tick"><text text-anchor="end" x="79" y="4.199999999999999" transform="translate(0,720)" style="font-family: 'Open Sans', verdana, arial, sans-serif; font-size: 12px; fill: rgb(42, 63, 95); fill-opacity: 1; white-space: pre; opacity: 1;">5</text></g><g class="y3tick"><text text-anchor="end" x="79" y="4.199999999999999" style="font-family: 'Open Sans', verdana, arial, sans-serif; font-size: 12px; fill: rgb(42, 63, 95); fill-opacity: 1; white-space: pre; opacity: 1;" transform="translate(0,682.8)">10</text></g><g class="y3tick"><text text-anchor="end" x="79" y="4.199999999999999" style="font-family: 'Open Sans', verdana, arial, sans-serif; font-size: 12px; fill: rgb(42, 63, 95); fill-opacity: 1; white-space: pre; opacity: 1;" transform="translate(0,645.6)">15</text></g><g class="y3tick"><text text-anchor="end" x="79" y="4.199999999999999" style="font-family: 'Open Sans', verdana, arial, sans-serif; font-size: 12px; fill: rgb(42, 63, 95); fill-opacity: 1; white-space: pre; opacity: 1;" transform="translate(0,608.4)">20</text></g><g class="y3tick"><text text-anchor="end" x="79" y="4.199999999999999" style="font-family: 'Open Sans', verdana, arial, sans-serif; font-size: 12px; fill: rgb(42, 63, 95); fill-opacity: 1; white-space: pre; opacity: 1;" transform="translate(0,571.2)">25</text></g><g class="y3tick"><text text-anchor="end" x="79" y="4.199999999999999" style="font-family: 'Open Sans', verdana, arial, sans-serif; font-size: 12px; fill: rgb(42, 63, 95); fill-opacity: 1; white-space: pre; opacity: 1;" transform="translate(0,534)">30</text></g></g><g class="overaxes-above"/></g></g><g class="polarlayer"/><g class="smithlayer"/><g class="ternarylayer"/><g class="geolayer"/><g class="funnelarealayer"/><g class="pielayer"/><g class="iciclelayer"/><g class="treemaplayer"/><g class="sunburstlayer"/><g class="glimages"/><defs id="topdefs-0b621d"><g class="clips"/></defs><g class="layer-above"><g class="imagelayer"/><g class="shapelayer"/></g><g class="infolayer"><g class="g-gtitle"><text class="gtitle" x="30" y="50" text-anchor="start" dy="0em" style="font-family: 'Open Sans', verdana, arial, sans-serif; font-size: 17px; fill: rgb(42, 63, 95); opacity: 1; font-weight: normal; white-space: pre;">Climatology and S2S forecast for Gaibandha</text></g><g class="g-xtitle"/><g class="g-x2title"/><g class="g-x3title"/><g class="g-ytitle"><text class="ytitle" transform="rotate(-90,34.16875,193)" x="34.16875" y="193" text-anchor="middle" style="font-family: 'Open Sans', verdana, arial, sans-serif; font-size: 14px; fill: rgb(42, 63, 95); opacity: 1; font-weight: normal; white-space: pre;">[mm]</text></g><g class="g-y2title"><text class="y2title" transform="rotate(-90,40.840625,410.00000000000006)" x="40.840625" y="410.00000000000006" text-anchor="middle" style="font-family: 'Open Sans', verdana, arial, sans-serif; font-size: 14px; fill: rgb(42, 63, 95); opacity: 1; font-weight: normal; white-space: pre;">[C]</text></g><g class="g-y3title"><text class="y3title" transform="rotate(-90,40.840625,627)" x="40.840625" y="627" text-anchor="middle" style="font-family: 'Open Sans', verdana, arial, sans-serif; font-size: 14px; fill: rgb(42, 63, 95); opacity: 1; font-weight: normal; white-space: pre;">[C]</text></g><g class="annotation" data-index="0" style="opacity: 1;"><g class="annotation-text-g" transform="rotate(0,300,89.5)"><g class="cursor-pointer" transform="translate(237,79)"><rect class="bg" x="0.5" y="0.5" width="126" height="20" style="stroke-width: 1px; stroke: rgb(0, 0, 0); stroke-opacity: 0; fill: rgb(0, 0, 0); fill-opacity: 0;"/><text class="annotation-text" text-anchor="middle" x="63.359375" y="16" style="font-family: 'Open Sans', verdana, arial, sans-serif; font-size: 16px; fill: rgb(42, 63, 95); fill-opacity: 1; white-space: pre;">Precipitation sum</text></g></g></g><g class="annotation" data-index="1" style="opacity: 1;"><g class="annotation-text-g" transform="rotate(0,300,306.50000000000006)"><g class="cursor-pointer" transform="translate(196,296)"><rect class="bg" x="0.5" y="0.5" width="208" height="20" style="stroke-width: 1px; stroke: rgb(0, 0, 0); stroke-opacity: 0; fill: rgb(0, 0, 0); fill-opacity: 0;"/><text class="annotation-text" text-anchor="middle" x="104.265625" y="16" style="font-family: 'Open Sans', verdana, arial, sans-serif; font-size: 16px; fill: rgb(42, 63, 95); fill-opacity: 1; white-space: pre;">Mean maximum temperature</text></g></g></g><g class="annotation" data-index="2" style="opacity: 1;"><g class="annotation-text-g" transform="rotate(0,300,523.5)"><g class="cursor-pointer" transform="translate(198,513)"><rect class="bg" x="0.5" y="0.5" width="203" height="20" style="stroke-width: 1px; stroke: rgb(0, 0, 0); stroke-opacity: 0; fill: rgb(0, 0, 0); fill-opacity: 0;"/><text class="annotation-text" text-anchor="middle" x="102.046875" y="16" style="font-family: 'Open Sans', verdana, arial, sans-serif; font-size: 16px; fill: rgb(42, 63, 95); fill-opacity: 1; white-space: pre;">Mean minimum temperature</text></g></g></g><g class="annotation" data-index="3" style="opacity: 1;"><g class="annotation-text-g" transform="rotate(0,300,760.5)"><g class="cursor-pointer" transform="translate(277,750)"><rect class="bg" x="0.5" y="0.5" width="45" height="20" style="stroke-width: 1px; stroke: rgb(0, 0, 0); stroke-opacity: 0; fill: rgb(0, 0, 0); fill-opacity: 0;"/><text class="annotation-text" text-anchor="middle" x="22.3125" y="16" style="font-family: 'Open Sans', verdana, arial, sans-serif; font-size: 16px; fill: rgb(42, 63, 95); fill-opacity: 1; white-space: pre;">Week</text></g></g></g></g></svg>