<svg class="main-svg" xmlns="http://www.w3.org/2000/svg" xmlns:xlink="http://www.w3.org/1999/xlink" width="600" height="800" style="" viewBox="0 0 600 800"><rect x="0" y="0" width="600" height="800" style="fill: rgb(255, 255, 255); fill-opacity: 1;"/><defs id="defs-a5b9b3"><g class="clips"><clipPath id="clipa5b9b3xyplot" class="plotclip"><rect width="440" height="186.00000000000003"/></clipPath><clipPath id="clipa5b9b3x2y2plot" class="plotclip"><rect width="440" height="185.99999999999997"/></clipPath><clipPath id="clipa5b9b3x3y3plot" class="plotclip"><rect width="440" height="186"/></clipPath><clipPath class="axesclip" id="clipa5b9b3x"><rect x="80" y="0" width="440" height="800"/></clipPath><clipPath class="axesclip" id="clipa5b9b3y"><rect x="0" y="100" width="600" height="186.00000000000003"/></clipPath><clipPath class="axesclip" id="clipa5b9b3xy"><rect x="80" y="100" width="440" height="186.00000000000003"/></clipPath><clipPath class="axesclip" id="clipa5b9b3y2"><rect x="0" y="317.00000000000006" width="600" height="185.99999999999997"/></clipPath><clipPath class="axesclip" id="clipa5b9b3xy2"><rect x="80" y="317.00000000000006" width="440" height="185.99999999999997"/></clipPath><clipPath class="axesclip" id="clipa5b9b3y3"><rect x="0" y="534" width="600" height="186"/></clipPath><clipPath class="axesclip" id="clipa5b9b3xy3"><rect x="80" y="534" width="440" height="186"/></clipPath><clipPath class="axesclip" id="clipa5b9b3x2"><rect x="80" y="0" width="440" height="800"/></clipPath><clipPath class="axesclip" id="clipa5b9b3x2y"><rect x="80" y="100" width="440" height="186.00000000000003"/></clipPath><clipPath class="axesclip" id="clipa5b9b3x2y2"><rect x="80" y="317.00000000000006" width="440" height="185.99999999999997"/></clipPath><clipPath class="axesclip" id="clipa5b9b3x2y3"><rect x="80" y="534" width="440" height="186"/></clipPath><clipPath class="axesclip" id="clipa5b9b3x3"><rect x="80" y="0" width="440" height="800"/></clipPath><clipPath class="axesclip" id="clipa5b9b3x3y"><rect x="80" y="100" width="440" height="186.00000000000003"/></clipPath><clipPath class="axesclip" id="clipa5b9b3x3y2"><rect x="80" y="317.00000000000006" width="440" height="185.99999999999997"/></clipPath><clipPath class="axesclip" id="clipa5b9b3x3y3"><rect x="80" y="534" width="440" height="186"/></clipPath></g><g class="gradients"/><g class="patterns"/></defs><g class="bglayer"><rect class="bg" x="80" y="100" width="440" height="186.00000000000003" style="fill: rgb(229, 236, 246); fill-opacity: 1; stroke-width: 0;"/><rect class="bg" x="80" y="317.00000000000006" width="440" height="185.99999999999997" style="fill: rgb(229, 236, 246); fill-opacity: 1; stroke-width: 0;"/><rect class="bg" x="80" y="534" width="440" height="186" style="fill: rgb(229, 236, 246); fill-opacity: 1; stroke-width: 0;"/></g><g class="layer-below"><g class="imagelayer"/><g class="shapelayer"/></g><g class="cartesianlayer"><g class="subplot xy"><g class="layer-subplot"><g class="shapelayer"/><g class="imagelayer"/></g><g class="minor-gridlayer"><g class="x"/><g class="y"/></g><g class="gridlayer"><g class="x"><path class="xgrid crisp" transform="translate(156.15,0)" d="M0,100v186.00000000000003" style="stroke: rgb(255, 255, 255); stroke-opacity: 1; stroke-width: 1px;"/><path class="xgrid crisp" transform="translate(240.77,0)" d="M0,100v186.00000000000003" style="stroke: rgb(255, 255, 255); stroke-opacity: 1; stroke-width: 1px;"/><path class="xgrid crisp" transform="translate(325.38,0)" d="M0,100v186.00000000000003" style="stroke: rgb(255, 255, 255); stroke-opacity: 1; stroke-width: 1px;"/><path class="xgrid crisp" transform="translate(410,0)" d="M0,100v186.00000000000003" style="stroke: rgb(255, 255, 255); stroke-opacity: 1; stroke-width: 1px;"/><path class="xgrid crisp" transform="translate(494.62,0)" d="M0,100v186.00000000000003" style="stroke: rgb(255, 255, 255); stroke-opacity: 1; stroke-width: 1px;"/></g><g class="y"><path class="ygrid crisp" transform="translate(0,248.8)" d="M80,0h440" style="stroke: rgb(255, 255, 255); stroke-opacity: 1; stroke-width: 1px;"/><path class="ygrid crisp" transform="translate(0,211.6)" d="M80,0h440" style="stroke: rgb(255, 255, 255); stroke-opacity: 1; stroke-width: 1px;"/><path class="ygrid crisp" transform="translate(0,174.4)" d="M80,0h440" style="stroke: rgb(255, 255, 255); stroke-opacity: 1; stroke-width: 1px;"/><path class="ygrid crisp" transform="translate(0,137.2)" d="M80,0h440" style="stroke: rgb(255, 255, 255); stroke-opacity: 1; stroke-width: 1px;"/></g></g><g class="zerolinelayer"><path class="yzl zl crisp" transform="translate(0,286)" d="M80,0h440" style="stroke: rgb(255, 255, 255); stroke-opacity: 1; stroke-width: 2px;"/></g><path class="xlines-below"/><path class="ylines-below"/><g class="overlines-below"/><g class="xaxislayer-below"/><g class="yaxislayer-below"/><g class="overaxes-below"/><g class="plot" transform="translate(80,100)" clip-path="url(#clipa5b9b3xyplot)"><g class="scatterlayer mlayer"><g class="trace scatter trace7dab2d" style="stroke-miterlimit: 2;"><g class="fills"><g><path class="js-fill" d="M0,186L135.38,186L143.85,176.47L152.31,183.47L160.77,175.16L169.23,181.18L177.69,175.44L186.15,177.91L194.62,183.03L203.08,169.88L211.54,178.78L220,168.4L228.46,164.19L236.92,167.52L245.38,167.86L253.85,171.39L262.31,172.4L270.77,164.38L279.23,169.81L287.69,177.03L296.15,172.69L313.08,174.56L321.54,170.99L330,182.41L338.46,183.61L346.92,186L355.38,186L440,186L440,186L380.77,186L372.31,186L321.54,186L313.08,180.95L304.62,186L296.15,184.67L287.69,186L279.23,183.78L270.77,185.99L262.31,184.43L253.85,185.25L245.38,186L236.92,182.31L228.46,179.19L220,183.94L211.54,185.26L0,186Z" style="fill: rgb(224, 236, 244); fill-opacity: 1; stroke-width: 0;"/></g></g><g class="errorbars"/><g class="lines"><path class="js-line" d="M0,186L211.54,185.26L220,183.94L228.46,179.19L236.92,182.31L245.38,186L253.85,185.25L262.31,184.43L270.77,185.99L279.23,183.78L287.69,186L296.15,184.67L304.62,186L313.08,180.95L321.54,186L372.31,186L380.77,186L440,186" style="vector-effect: non-scaling-stroke; fill: none; stroke: rgb(0, 0, 0); stroke-opacity: 1; stroke-width: 0.25px; opacity: 1;"/></g><g class="points"/><g class="text"/></g><g class="trace scatter traced64a4f" style="stroke-miterlimit: 2;"><g class="fills"><g><path class="js-fill" d="M0,186L93.08,185.99L101.54,183.7L110,180.75L118.46,180.09L126.92,177.49L135.38,184L143.85,163.31L152.31,163.17L160.77,168.95L169.23,158.95L177.69,157.75L186.15,154.99L194.62,153.44L203.08,148.77L211.54,155.99L220,151.81L228.46,151.55L236.92,141.73L245.38,155.28L253.85,162.65L262.31,145.27L270.77,152.1L279.23,160.21L287.69,162.89L296.15,155.28L304.62,158.51L313.08,159.21L321.54,157.32L330,169.17L338.46,175.61L346.92,183.66L355.38,186L440,186L440,186L355.38,186L346.92,186L338.46,183.61L330,182.41L321.54,170.99L313.08,174.56L296.15,172.69L287.69,177.03L279.23,169.81L270.77,164.38L262.31,172.4L253.85,171.39L245.38,167.86L236.92,167.52L228.46,164.19L220,168.4L211.54,178.78L203.08,169.88L194.62,183.03L186.15,177.91L177.69,175.44L169.23,181.18L160.77,175.16L152.31,183.47L143.85,176.47L135.38,186L0,186Z" style="fill: rgb(158, 188, 218); fill-opacity: 1; stroke-width: 0;"/></g></g><g class="errorbars"/><g class="lines"><path class="js-line" d="M0,186L135.38,186L143.85,176.47L152.31,183.47L160.77,175.16L169.23,181.18L177.69,175.44L186.15,177.91L194.62,183.03L203.08,169.88L211.54,178.78L220,168.4L228.46,164.19L236.92,167.52L245.38,167.86L253.85,171.39L262.31,172.4L270.77,164.38L279.23,169.81L287.69,177.03L296.15,172.69L313.08,174.56L321.54,170.99L330,182.41L338.46,183.61L346.92,186L355.38,186L440,186" style="vector-effect: non-scaling-stroke; fill: none; stroke: rgb(0, 0, 0); stroke-opacity: 1; stroke-width: 0.5px; opacity: 1;"/></g><g class="points"/><g class="text"/></g><g class="trace scatter traceb27a11" style="stroke-miterlimit: 2;"><g class="fills"><g><path class="js-fill" d="M0,185.93L8.46,185.31L16.92,186L42.31,185.97L50.77,182.85L59.23,185.96L67.69,183.99L76.15,183.22L84.62,184.15L93.08,183.22L101.54,167.25L110,170.46L118.46,167.92L135.38,174.55L143.85,156.33L152.31,149.4L160.77,152.86L177.69,132.54L186.15,146.28L194.62,121.5L203.08,119.05L211.54,125.3L220,135.13L228.46,93.65L236.92,117.67L245.38,125.28L253.85,123.87L262.31,119.66L270.77,123.13L279.23,145.83L287.69,135.33L296.15,141.12L304.62,148.78L313.08,123.49L321.54,134.14L330,157.07L338.46,147.62L346.92,159.04L355.38,166.66L363.85,185.44L372.31,185.42L389.23,186L397.69,186L440,186L440,186L355.38,186L346.92,183.66L338.46,175.61L330,169.17L321.54,157.32L313.08,159.21L304.62,158.51L296.15,155.28L287.69,162.89L279.23,160.21L270.77,152.1L262.31,145.27L253.85,162.65L245.38,155.28L236.92,141.73L228.46,151.55L220,151.81L211.54,155.99L203.08,148.77L194.62,153.44L186.15,154.99L177.69,157.75L169.23,158.95L160.77,168.95L152.31,163.17L143.85,163.31L135.38,184L126.92,177.49L118.46,180.09L110,180.75L101.54,183.7L93.08,185.99L0,186Z" style="fill: rgb(158, 188, 218); fill-opacity: 1; stroke-width: 0;"/></g></g><g class="errorbars"/><g class="lines"><path class="js-line" d="M0,186L93.08,185.99L101.54,183.7L110,180.75L118.46,180.09L126.92,177.49L135.38,184L143.85,163.31L152.31,163.17L160.77,168.95L169.23,158.95L177.69,157.75L186.15,154.99L194.62,153.44L203.08,148.77L211.54,155.99L220,151.81L228.46,151.55L236.92,141.73L245.38,155.28L253.85,162.65L262.31,145.27L270.77,152.1L279.23,160.21L287.69,162.89L296.15,155.28L304.62,158.51L313.08,159.21L321.54,157.32L330,169.17L338.46,175.61L346.92,183.66L355.38,186L440,186" style="vector-effect: non-scaling-stroke; fill: none; stroke: rgb(0, 0, 0); stroke-opacity: 1; stroke-width: 1px; opacity: 1;"/></g><g class="points"/><g class="text"/></g><g class="trace scatter trace99141c" style="stroke-miterlimit: 2;"><g class="fills"><g><path class="js-fill" d="M0,185.87L8.46,184.56L16.92,186L25.38,186L33.85,185.04L42.31,185.97L50.77,180.92L59.23,185.94L67.69,183.93L76.15,181.52L84.62,181.58L93.08,182.34L101.54,145.24L110,147.24L118.46,147.43L126.92,153.7L135.38,169.49L143.85,135.67L152.31,125.55L160.77,132.32L169.23,95.23L177.69,78.45L186.15,113L194.62,73.81L203.08,71.68L211.54,50.27L220,92.59L228.46,-5.7L236.92,43.6L245.38,71.65L253.85,80L262.31,76.12L270.77,92.4L279.23,114.55L287.69,77.54L296.15,126.47L304.62,116.07L313.08,104.88L321.54,90.07L330,129.53L338.46,111.37L346.92,143.11L355.38,143.73L363.85,184.76L372.31,184.74L380.77,186L389.23,186L440,186L440,186L397.69,186L389.23,186L372.31,185.42L363.85,185.44L355.38,166.66L346.92,159.04L338.46,147.62L330,157.07L321.54,134.14L313.08,123.49L304.62,148.78L296.15,141.12L287.69,135.33L279.23,145.83L270.77,123.13L262.31,119.66L253.85,123.87L245.38,125.28L236.92,117.67L228.46,93.65L220,135.13L211.54,125.3L203.08,119.05L194.62,121.5L186.15,146.28L177.69,132.54L160.77,152.86L152.31,149.4L143.85,156.33L135.38,174.55L118.46,167.92L110,170.46L101.54,167.25L93.08,183.22L84.62,184.15L76.15,183.22L67.69,183.99L59.23,185.96L50.77,182.85L42.31,185.97L16.92,186L8.46,185.31L0,185.93Z" style="fill: rgb(136, 86, 167); fill-opacity: 1; stroke-width: 0;"/></g></g><g class="errorbars"/><g class="lines"><path class="js-line" d="M0,185.93L8.46,185.31L16.92,186L42.31,185.97L50.77,182.85L59.23,185.96L67.69,183.99L76.15,183.22L84.62,184.15L93.08,183.22L101.54,167.25L110,170.46L118.46,167.92L135.38,174.55L143.85,156.33L152.31,149.4L160.77,152.86L177.69,132.54L186.15,146.28L194.62,121.5L203.08,119.05L211.54,125.3L220,135.13L228.46,93.65L236.92,117.67L245.38,125.28L253.85,123.87L262.31,119.66L270.77,123.13L279.23,145.83L287.69,135.33L296.15,141.12L304.62,148.78L313.08,123.49L321.54,134.14L330,157.07L338.46,147.62L346.92,159.04L355.38,166.66L363.85,185.44L372.31,185.42L389.23,186L397.69,186L440,186" style="vector-effect: non-scaling-stroke; fill: none; stroke: rgb(0, 0, 0); stroke-opacity: 1; stroke-width: 0.5px; opacity: 1;"/></g><g class="points"/><g class="text"/></g><g class="trace scatter traceb7627b" style="stroke-miterlimit: 2;"><g class="fills"/><g class="errorbars"/><g class="lines"><path class="js-line" d="M0,185.87L8.46,184.56L16.92,186L25.38,186L33.85,185.04L42.31,185.97L50.77,180.92L59.23,185.94L67.69,183.93L76.15,181.52L84.62,181.58L93.08,182.34L101.54,145.24L110,147.24L118.46,147.43L126.92,153.7L135.38,169.49L143.85,135.67L152.31,125.55L160.77,132.32L169.23,95.23L177.69,78.45L186.15,113L194.62,73.81L203.08,71.68L211.54,50.27L220,92.59L228.46,-5.7L236.92,43.6L245.38,71.65L253.85,80L262.31,76.12L270.77,92.4L279.23,114.55L287.69,77.54L296.15,126.47L304.62,116.07L313.08,104.88L321.54,90.07L330,129.53L338.46,111.37L346.92,143.11L355.38,143.73L363.85,184.76L372.31,184.74L380.77,186L389.23,186L440,186" style="vector-effect: non-scaling-stroke; fill: none; stroke: rgb(0, 0, 0); stroke-opacity: 1; stroke-width: 0.25px; opacity: 1;"/></g><g class="points"/><g class="text"/></g><g class="trace scatter trace8acee3" style="stroke-miterlimit: 2; opacity: 1;"><g class="fills"/><g class="errorbars"/><g class="lines"/><g class="points"><path class="point" transform="translate(169.23,159.96)" d="M4,0A4,4 0 1,1 0,-4A4,4 0 0,1 4,0ZM0,0.5L0.5,0L0,-0.5L-0.5,0Z" style="opacity: 1; stroke: rgb(0, 0, 0); stroke-opacity: 1; stroke-width: 1px; fill: none;"/><path class="point" transform="translate(177.69,174.84)" d="M4,0A4,4 0 1,1 0,-4A4,4 0 0,1 4,0ZM0,0.5L0.5,0L0,-0.5L-0.5,0Z" style="opacity: 1; stroke: rgb(0, 0, 0); stroke-opacity: 1; stroke-width: 1px; fill: none;"/><path class="point" transform="translate(186.15,125.74)" d="M4,0A4,4 0 1,1 0,-4A4,4 0 0,1 4,0ZM0,0.5L0.5,0L0,-0.5L-0.5,0Z" style="opacity: 1; stroke: rgb(0, 0, 0); stroke-opacity: 1; stroke-width: 1px; fill: none;"/><path class="point" transform="translate(194.62,125.74)" d="M4,0A4,4 0 1,1 0,-4A4,4 0 0,1 4,0ZM0,0.5L0.5,0L0,-0.5L-0.5,0Z" style="opacity: 1; stroke: rgb(0, 0, 0); stroke-opacity: 1; stroke-width: 1px; fill: none;"/></g><g class="text"/></g></g></g><g class="overplot"/><path class="xlines-above crisp" d="M0,0" style="fill: none;"/><path class="ylines-above crisp" d="M0,0" style="fill: none;"/><g class="overlines-above"/><g class="xaxislayer-above"/><g class="yaxislayer-above"><g class="ytick"><text text-anchor="end" x="79" y="4.199999999999999" transform="translate(0,286)" style="font-family: 'Open Sans', verdana, arial, sans-serif; font-size: 12px; fill: rgb(42, 63, 95); fill-opacity: 1; white-space: pre; opacity: 1;">0</text></g><g class="ytick"><text text-anchor="end" x="79" y="4.199999999999999" style="font-family: 'Open Sans', verdana, arial, sans-serif; font-size: 12px; fill: rgb(42, 63, 95); fill-opacity: 1; white-space: pre; opacity: 1;" transform="translate(0,248.8)">50</text></g><g class="ytick"><text text-anchor="end" x="79" y="4.199999999999999" style="font-family: 'Open Sans', verdana, arial, sans-serif; font-size: 12px; fill: rgb(42, 63, 95); fill-opacity: 1; white-space: pre; opacity: 1;" transform="translate(0,211.6)">100</text></g><g class="ytick"><text text-anchor="end" x="79" y="4.199999999999999" style="font-family: 'Open Sans', verdana, arial, sans-serif; font-size: 12px; fill: rgb(42, 63, 95); fill-opacity: 1; white-space: pre; opacity: 1;" transform="translate(0,174.4)">150</text></g><g class="ytick"><text text-anchor="end" x="79" y="4.199999999999999" style="font-family: 'Open Sans', verdana, arial, sans-serif; font-size: 12px; fill: rgb(42, 63, 95); fill-opacity: 1; white-space: pre; opacity: 1;" transform="translate(0,137.2)">200</text></g><g class="ytick"><text text-anchor="end" x="79" y="4.199999999999999" style="font-family: 'Open Sans', verdana, arial, sans-serif; font-size: 12px; fill: rgb(42, 63, 95); fill-opacity: 1; white-space: pre; opacity: 1;" transform="translate(0,100)">250</text></g></g><g class="overaxes-above"/></g><g class="subplot x2y2"><g class="layer-subplot"><g class="shapelayer"/><g class="imagelayer"/></g><g class="minor-gridlayer"><g class="x2"/><g class="y2"/></g><g class="gridlayer"><g class="x2"><path class="x2grid crisp" transform="translate(156.15,0)" d="M0,317.00000000000006v185.99999999999997" style="stroke: rgb(255, 255, 255); stroke-opacity: 1; stroke-width: 1px;"/><path class="x2grid crisp" transform="translate(240.77,0)" d="M0,317.00000000000006v185.99999999999997" style="stroke: rgb(255, 255, 255); stroke-opacity: 1; stroke-width: 1px;"/><path class="x2grid crisp" transform="translate(325.38,0)" d="M0,317.00000000000006v185.99999999999997" style="stroke: rgb(255, 255, 255); stroke-opacity: 1; stroke-width: 1px;"/><path class="x2grid crisp" transform="translate(410,0)" d="M0,317.00000000000006v185.99999999999997" style="stroke: rgb(255, 255, 255); stroke-opacity: 1; stroke-width: 1px;"/><path class="x2grid crisp" transform="translate(494.62,0)" d="M0,317.00000000000006v185.99999999999997" style="stroke: rgb(255, 255, 255); stroke-opacity: 1; stroke-width: 1px;"/></g><g class="y2"><path class="y2grid crisp" transform="translate(0,472.00000000000006)" d="M80,0h440" style="stroke: rgb(255, 255, 255); stroke-opacity: 1; stroke-width: 1px;"/><path class="y2grid crisp" transform="translate(0,410.00000000000006)" d="M80,0h440" style="stroke: rgb(255, 255, 255); stroke-opacity: 1; stroke-width: 1px;"/><path class="y2grid crisp" transform="translate(0,348.00000000000006)" d="M80,0h440" style="stroke: rgb(255, 255, 255); stroke-opacity: 1; stroke-width: 1px;"/></g></g><g class="zerolinelayer"/><path class="xlines-below"/><path class="ylines-below"/><g class="overlines-below"/><g class="xaxislayer-below"/><g class="yaxislayer-below"/><g class="overaxes-below"/><g class="plot" transform="translate(80,317.00000000000006)" clip-path="url(#clipa5b9b3x2y2plot)"><g class="scatterlayer mlayer"><g class="trace scatter traceb87d76" style="stroke-miterlimit: 2;"><g class="fills"><g><path class="js-fill" d="M0,154.41L8.46,154.05L16.92,143.57L33.85,133.75L42.31,118.67L50.77,114.45L59.23,105.54L67.69,90.82L76.15,92.81L84.62,77.41L93.08,67.54L101.54,73.17L110,74.5L118.46,79.41L126.92,74.48L135.38,83.21L143.85,85.73L152.31,81.5L160.77,82.13L177.69,86.99L186.15,85.79L203.08,93.98L211.54,95.14L220,93.42L228.46,94.07L236.92,94.15L245.38,95.5L253.85,93.52L262.31,92.45L270.77,96.09L279.23,95.16L287.69,94.76L296.15,96.09L304.62,96.59L313.08,100.39L321.54,95.97L330,97.09L346.92,90.67L355.38,88.66L363.85,96.43L372.31,97.91L380.77,106.98L389.23,114.89L397.69,127.25L406.15,137.59L414.62,139.03L423.08,144.17L440,155.9L440,157.75L431.54,159.52L423.08,159.82L414.62,145.48L406.15,148.59L397.69,139.4L389.23,127.4L380.77,118.84L372.31,103.76L363.85,101.31L355.38,91.67L346.92,103.48L338.46,109.46L330,105.4L321.54,106.84L313.08,111.83L296.15,105.7L287.69,101.01L279.23,107.65L270.77,106.8L262.31,108.36L253.85,103.01L245.38,105.03L236.92,105.3L228.46,97.63L220,106.69L211.54,108.38L203.08,106.83L194.62,99.1L186.15,95.32L177.69,94.64L169.23,96.84L160.77,93.55L152.31,89.28L135.38,91.45L126.92,91.44L118.46,96.28L110,88.8L101.54,90.79L93.08,86.65L84.62,104.75L76.15,101.72L67.69,115.84L59.23,117.32L50.77,131.99L42.31,128.72L33.85,145.9L25.38,152.98L16.92,154.52L8.46,169.36L0,172.07Z" style="fill: rgb(145, 191, 219); fill-opacity: 1; stroke-width: 0;"/></g></g><g class="errorbars"/><g class="lines"><path class="js-line" d="M0,172.07L8.46,169.36L16.92,154.52L25.38,152.98L33.85,145.9L42.31,128.72L50.77,131.99L59.23,117.32L67.69,115.84L76.15,101.72L84.62,104.75L93.08,86.65L101.54,90.79L110,88.8L118.46,96.28L126.92,91.44L135.38,91.45L152.31,89.28L160.77,93.55L169.23,96.84L177.69,94.64L186.15,95.32L194.62,99.1L203.08,106.83L211.54,108.38L220,106.69L228.46,97.63L236.92,105.3L245.38,105.03L253.85,103.01L262.31,108.36L270.77,106.8L279.23,107.65L287.69,101.01L296.15,105.7L313.08,111.83L321.54,106.84L330,105.4L338.46,109.46L346.92,103.48L355.38,91.67L363.85,101.31L372.31,103.76L380.77,118.84L389.23,127.4L397.69,139.4L406.15,148.59L414.62,145.48L423.08,159.82L431.54,159.52L440,157.75" style="vector-effect: non-scaling-stroke; fill: none; stroke: rgb(0, 0, 0); stroke-opacity: 1; stroke-width: 0.25px; opacity: 1;"/></g><g class="points"/><g class="text"/></g><g class="trace scatter trace4ce7c8" style="stroke-miterlimit: 2;"><g class="fills"><g><path class="js-fill" d="M0,142.97L8.46,147.34L16.92,137.97L25.38,133.04L33.85,125.01L42.31,113.92L50.77,104.99L59.23,96.32L67.69,80.81L76.15,76.65L84.62,68.83L93.08,59.16L101.54,59.69L110,67.55L118.46,58.24L135.38,68.9L143.85,79.76L152.31,74.29L160.77,75.09L177.69,79.31L186.15,80.77L194.62,80.96L203.08,87.04L211.54,86.24L220,88.74L228.46,90.18L236.92,90.84L245.38,90.66L253.85,88.73L262.31,88.08L270.77,92.09L279.23,88.64L287.69,91.43L296.15,93.61L304.62,91.18L313.08,92.25L321.54,91.8L330,84.52L338.46,84.27L355.38,86.98L363.85,93.46L372.31,95.22L380.77,102.56L397.69,118.1L406.15,129.26L414.62,131.03L423.08,136.73L431.54,143.21L440,141.55L440,155.9L423.08,144.17L414.62,139.03L406.15,137.59L397.69,127.25L389.23,114.89L380.77,106.98L372.31,97.91L363.85,96.43L355.38,88.66L346.92,90.67L330,97.09L321.54,95.97L313.08,100.39L304.62,96.59L296.15,96.09L287.69,94.76L279.23,95.16L270.77,96.09L262.31,92.45L253.85,93.52L245.38,95.5L236.92,94.15L228.46,94.07L220,93.42L211.54,95.14L203.08,93.98L186.15,85.79L177.69,86.99L160.77,82.13L152.31,81.5L143.85,85.73L135.38,83.21L126.92,74.48L118.46,79.41L110,74.5L101.54,73.17L93.08,67.54L84.62,77.41L76.15,92.81L67.69,90.82L59.23,105.54L50.77,114.45L42.31,118.67L33.85,133.75L16.92,143.57L8.46,154.05L0,154.41Z" style="fill: rgb(255, 255, 191); fill-opacity: 1; stroke-width: 0;"/></g></g><g class="errorbars"/><g class="lines"><path class="js-line" d="M0,154.41L8.46,154.05L16.92,143.57L33.85,133.75L42.31,118.67L50.77,114.45L59.23,105.54L67.69,90.82L76.15,92.81L84.62,77.41L93.08,67.54L101.54,73.17L110,74.5L118.46,79.41L126.92,74.48L135.38,83.21L143.85,85.73L152.31,81.5L160.77,82.13L177.69,86.99L186.15,85.79L203.08,93.98L211.54,95.14L220,93.42L228.46,94.07L236.92,94.15L245.38,95.5L253.85,93.52L262.31,92.45L270.77,96.09L279.23,95.16L287.69,94.76L296.15,96.09L304.62,96.59L313.08,100.39L321.54,95.97L330,97.09L346.92,90.67L355.38,88.66L363.85,96.43L372.31,97.91L380.77,106.98L389.23,114.89L397.69,127.25L406.15,137.59L414.62,139.03L423.08,144.17L440,155.9" style="vector-effect: non-scaling-stroke; fill: none; stroke: rgb(0, 0, 0); stroke-opacity: 1; stroke-width: 0.5px; opacity: 1;"/></g><g class="points"/><g class="text"/></g><g class="trace scatter trace7f5ab8" style="stroke-miterlimit: 2;"><g class="fills"><g><path class="js-fill" d="M0,134.5L8.46,135.24L16.92,131.13L25.38,128.43L33.85,119.36L42.31,107.1L50.77,98.06L59.23,82.79L67.69,73.51L76.15,67.2L84.62,59.17L93.08,53.8L101.54,46.32L110,52.24L118.46,51.79L135.38,52.2L143.85,69.34L152.31,63.72L160.77,62.36L169.23,70.35L177.69,72.2L186.15,75.37L194.62,74.16L211.54,83.18L220,82.49L228.46,86.08L236.92,82.22L245.38,83.41L253.85,85.8L262.31,79.71L270.77,85.04L279.23,81.17L287.69,87.7L304.62,83.51L313.08,83.83L321.54,82.86L330,75.13L338.46,77.48L346.92,78.02L355.38,85.46L363.85,90.78L372.31,91.61L380.77,98.03L397.69,111.88L406.15,122.28L414.62,119.57L423.08,125.84L431.54,131.79L440,123.69L440,141.55L431.54,143.21L423.08,136.73L414.62,131.03L406.15,129.26L397.69,118.1L380.77,102.56L372.31,95.22L363.85,93.46L355.38,86.98L338.46,84.27L330,84.52L321.54,91.8L313.08,92.25L304.62,91.18L296.15,93.61L287.69,91.43L279.23,88.64L270.77,92.09L262.31,88.08L253.85,88.73L245.38,90.66L236.92,90.84L228.46,90.18L220,88.74L211.54,86.24L203.08,87.04L194.62,80.96L186.15,80.77L177.69,79.31L160.77,75.09L152.31,74.29L143.85,79.76L135.38,68.9L118.46,58.24L110,67.55L101.54,59.69L93.08,59.16L84.62,68.83L76.15,76.65L67.69,80.81L59.23,96.32L50.77,104.99L42.31,113.92L33.85,125.01L25.38,133.04L16.92,137.97L8.46,147.34L0,142.97Z" style="fill: rgb(255, 255, 191); fill-opacity: 1; stroke-width: 0;"/></g></g><g class="errorbars"/><g class="lines"><path class="js-line" d="M0,142.97L8.46,147.34L16.92,137.97L25.38,133.04L33.85,125.01L42.31,113.92L50.77,104.99L59.23,96.32L67.69,80.81L76.15,76.65L84.62,68.83L93.08,59.16L101.54,59.69L110,67.55L118.46,58.24L135.38,68.9L143.85,79.76L152.31,74.29L160.77,75.09L177.69,79.31L186.15,80.77L194.62,80.96L203.08,87.04L211.54,86.24L220,88.74L228.46,90.18L236.92,90.84L245.38,90.66L253.85,88.73L262.31,88.08L270.77,92.09L279.23,88.64L287.69,91.43L296.15,93.61L304.62,91.18L313.08,92.25L321.54,91.8L330,84.52L338.46,84.27L355.38,86.98L363.85,93.46L372.31,95.22L380.77,102.56L397.69,118.1L406.15,129.26L414.62,131.03L423.08,136.73L431.54,143.21L440,141.55" style="vector-effect: non-scaling-stroke; fill: none; stroke: rgb(0, 0, 0); stroke-opacity: 1; stroke-width: 1px; opacity: 1;"/></g><g class="points"/><g class="text"/></g><g class="trace scatter trace25a1ee" style="stroke-miterlimit: 2;"><g class="fills"><g><path class="js-fill" d="M0,107.37L8.46,121.62L16.92,112.49L25.38,118.85L33.85,106.57L42.31,93.8L50.77,83.29L59.23,67.67L67.69,56.75L76.15,53.48L84.62,54.56L101.54,32.79L110,25L118.46,32.28L126.92,32.05L135.38,20.33L143.85,50.38L160.77,34.97L169.23,62.81L177.69,53L186.15,60.01L194.62,62.72L203.08,55.23L211.54,70.06L220,67.49L228.46,80.03L236.92,71.06L245.38,69.16L253.85,82.73L262.31,60.85L270.77,72.13L279.23,64.29L287.69,82.28L296.15,70.82L304.62,69.14L313.08,61.27L321.54,71.78L330,66.26L338.46,63.84L346.92,61.11L355.38,84.31L363.85,86.15L372.31,85.92L380.77,86.42L389.23,96.48L397.69,96.21L406.15,105.56L414.62,114.85L423.08,120.51L431.54,124.18L440,118.82L440,123.69L431.54,131.79L423.08,125.84L414.62,119.57L406.15,122.28L397.69,111.88L380.77,98.03L372.31,91.61L363.85,90.78L355.38,85.46L346.92,78.02L338.46,77.48L330,75.13L321.54,82.86L313.08,83.83L304.62,83.51L287.69,87.7L279.23,81.17L270.77,85.04L262.31,79.71L253.85,85.8L245.38,83.41L236.92,82.22L228.46,86.08L220,82.49L211.54,83.18L194.62,74.16L186.15,75.37L177.69,72.2L169.23,70.35L160.77,62.36L152.31,63.72L143.85,69.34L135.38,52.2L118.46,51.79L110,52.24L101.54,46.32L93.08,53.8L84.62,59.17L76.15,67.2L67.69,73.51L59.23,82.79L50.77,98.06L42.31,107.1L33.85,119.36L25.38,128.43L16.92,131.13L8.46,135.24L0,134.5Z" style="fill: rgb(252, 141, 89); fill-opacity: 1; stroke-width: 0;"/></g></g><g class="errorbars"/><g class="lines"><path class="js-line" d="M0,134.5L8.46,135.24L16.92,131.13L25.38,128.43L33.85,119.36L42.31,107.1L50.77,98.06L59.23,82.79L67.69,73.51L76.15,67.2L84.62,59.17L93.08,53.8L101.54,46.32L110,52.24L118.46,51.79L135.38,52.2L143.85,69.34L152.31,63.72L160.77,62.36L169.23,70.35L177.69,72.2L186.15,75.37L194.62,74.16L211.54,83.18L220,82.49L228.46,86.08L236.92,82.22L245.38,83.41L253.85,85.8L262.31,79.71L270.77,85.04L279.23,81.17L287.69,87.7L304.62,83.51L313.08,83.83L321.54,82.86L330,75.13L338.46,77.48L346.92,78.02L355.38,85.46L363.85,90.78L372.31,91.61L380.77,98.03L397.69,111.88L406.15,122.28L414.62,119.57L423.08,125.84L431.54,131.79L440,123.69" style="vector-effect: non-scaling-stroke; fill: none; stroke: rgb(0, 0, 0); stroke-opacity: 1; stroke-width: 0.5px; opacity: 1;"/></g><g class="points"/><g class="text"/></g><g class="trace scatter trace9605bf" style="stroke-miterlimit: 2;"><g class="fills"/><g class="errorbars"/><g class="lines"><path class="js-line" d="M0,107.37L8.46,121.62L16.92,112.49L25.38,118.85L33.85,106.57L42.31,93.8L50.77,83.29L59.23,67.67L67.69,56.75L76.15,53.48L84.62,54.56L101.54,32.79L110,25L118.46,32.28L126.92,32.05L135.38,20.33L143.85,50.38L160.77,34.97L169.23,62.81L177.69,53L186.15,60.01L194.62,62.72L203.08,55.23L211.54,70.06L220,67.49L228.46,80.03L236.92,71.06L245.38,69.16L253.85,82.73L262.31,60.85L270.77,72.13L279.23,64.29L287.69,82.28L296.15,70.82L304.62,69.14L313.08,61.27L321.54,71.78L330,66.26L338.46,63.84L346.92,61.11L355.38,84.31L363.85,86.15L372.31,85.92L380.77,86.42L389.23,96.48L397.69,96.21L406.15,105.56L414.62,114.85L423.08,120.51L431.54,124.18L440,118.82" style="vector-effect: non-scaling-stroke; fill: none; stroke: rgb(0, 0, 0); stroke-opacity: 1; stroke-width: 0.25px; opacity: 1;"/></g><g class="points"/><g class="text"/></g><g class="trace scatter trace1c6ba4" style="stroke-miterlimit: 2; opacity: 1;"><g class="fills"/><g class="errorbars"/><g class="lines"/><g class="points"><path class="point" transform="translate(169.23,80.6)" d="M4,0A4,4 0 1,1 0,-4A4,4 0 0,1 4,0ZM0,0.5L0.5,0L0,-0.5L-0.5,0Z" style="opacity: 1; stroke: rgb(0, 0, 0); stroke-opacity: 1; stroke-width: 1px; fill: none;"/><path class="point" transform="translate(177.69,80.6)" d="M4,0A4,4 0 1,1 0,-4A4,4 0 0,1 4,0ZM0,0.5L0.5,0L0,-0.5L-0.5,0Z" style="opacity: 1; stroke: rgb(0, 0, 0); stroke-opacity: 1; stroke-width: 1px; fill: none;"/><path class="point" transform="translate(186.15,74.4)" d="M4,0A4,4 0 1,1 0,-4A4,4 0 0,1 4,0ZM0,0.5L0.5,0L0,-0.5L-0.5,0Z" style="opacity: 1; stroke: rgb(0, 0, 0); stroke-opacity: 1; stroke-width: 1px; fill: none;"/><path class="point" transform="translate(194.62,74.4)" d="M4,0A4,4 0 1,1 0,-4A4,4 0 0,1 4,0ZM0,0.5L0.5,0L0,-0.5L-0.5,0Z" style="opacity: 1; stroke: rgb(0, 0, 0); stroke-opacity: 1; stroke-width: 1px; fill: none;"/></g><g class="text"/></g></g></g><g class="overplot"/><path class="xlines-above crisp" d="M0,0" style="fill: none;"/><path class="ylines-above crisp" d="M0,0" style="fill: none;"/><g class="overlines-above"/><g class="xaxislayer-above"/><g class="yaxislayer-above"><g class="y2tick"><text text-anchor="end" x="79" y="4.199999999999999" transform="translate(0,472.00000000000006)" style="font-family: 'Open Sans', verdana, arial, sans-serif; font-size: 12px; fill: rgb(42, 63, 95); fill-opacity: 1; white-space: pre; opacity: 1;">20</text></g><g class="y2tick"><text text-anchor="end" x="79" y="4.199999999999999" style="font-family: 'Open Sans', verdana, arial, sans-serif; font-size: 12px; fill: rgb(42, 63, 95); fill-opacity: 1; white-space: pre; opacity: 1;" transform="translate(0,410.00000000000006)">30</text></g><g class="y2tick"><text text-anchor="end" x="79" y="4.199999999999999" style="font-family: 'Open Sans', verdana, arial, sans-serif; font-size: 12px; fill: rgb(42, 63, 95); fill-opacity: 1; white-space: pre; opacity: 1;" transform="translate(0,348.00000000000006)">40</text></g></g><g class="overaxes-above"/></g><g class="subplot x3y3"><g class="layer-subplot"><g class="shapelayer"/><g class="imagelayer"/></g><g class="minor-gridlayer"><g class="x3"/><g class="y3"/></g><g class="gridlayer"><g class="x3"><path class="x3grid crisp" transform="translate(156.15,0)" d="M0,534v186" style="stroke: rgb(255, 255, 255); stroke-opacity: 1; stroke-width: 1px;"/><path class="x3grid crisp" transform="translate(240.77,0)" d="M0,534v186" style="stroke: rgb(255, 255, 255); stroke-opacity: 1; stroke-width: 1px;"/><path class="x3grid crisp" transform="translate(325.38,0)" d="M0,534v186" style="stroke: rgb(255, 255, 255); stroke-opacity: 1; stroke-width: 1px;"/><path class="x3grid crisp" transform="translate(410,0)" d="M0,534v186" style="stroke: rgb(255, 255, 255); stroke-opacity: 1; stroke-width: 1px;"/><path class="x3grid crisp" transform="translate(494.62,0)" d="M0,534v186" style="stroke: rgb(255, 255, 255); stroke-opacity: 1; stroke-width: 1px;"/></g><g class="y3"><path class="y3grid crisp" transform="translate(0,682.8)" d="M80,0h440" style="stroke: rgb(255, 255, 255); stroke-opacity: 1; stroke-width: 1px;"/><path class="y3grid crisp" transform="translate(0,645.6)" d="M80,0h440" style="stroke: rgb(255, 255, 255); stroke-opacity: 1; stroke-width: 1px;"/><path class="y3grid crisp" transform="translate(0,608.4)" d="M80,0h440" style="stroke: rgb(255, 255, 255); stroke-opacity: 1; stroke-width: 1px;"/><path class="y3grid crisp" transform="translate(0,571.2)" d="M80,0h440" style="stroke: rgb(255, 255, 255); stroke-opacity: 1; stroke-width: 1px;"/></g></g><g class="zerolinelayer"/><path class="xlines-below"/><path class="ylines-below"/><g class="overlines-below"/><g class="xaxislayer-below"/><g class="yaxislayer-below"/><g class="overaxes-below"/><g class="plot" transform="translate(80,534)" clip-path="url(#clipa5b9b3x3y3plot)"><g class="scatterlayer mlayer"><g class="trace scatter tracea1bd4d" style="stroke-miterlimit: 2;"><g class="fills"><g><path class="js-fill" d="M0,126.17L8.46,136.19L16.92,127.17L33.85,121.59L42.31,113.44L50.77,110.68L59.23,99.76L67.69,84.97L76.15,80.5L84.62,77.27L93.08,63.04L101.54,62.14L110,64.72L118.46,60.56L126.92,54.27L135.38,55.33L143.85,55.6L160.77,42.97L169.23,39.44L177.69,39.11L186.15,36.3L220,35.66L228.46,36.51L236.92,36.54L245.38,38.02L262.31,36.57L270.77,36.79L279.23,38.11L287.69,37.36L296.15,38.04L304.62,39.63L321.54,41.78L330,42.87L338.46,45.91L346.92,49.79L355.38,53.98L363.85,65.31L372.31,71.38L380.77,83.47L389.23,91.58L397.69,100.82L406.15,106.75L414.62,110.86L423.08,121.74L431.54,123.83L440,138.77L440,145.95L431.54,135.1L423.08,137.49L414.62,121.93L406.15,116.89L397.69,117.61L380.77,97.63L372.31,88.63L363.85,72.84L355.38,62.88L346.92,56.36L338.46,52.92L330,50.98L321.54,44.12L313.08,48.28L304.62,42.92L296.15,40.58L287.69,40.08L270.77,39.1L262.31,41.84L253.85,40.13L245.38,40.79L236.92,39.1L228.46,37.81L220,37.81L211.54,38.26L203.08,40.93L194.62,40.56L186.15,41.3L177.69,47.69L169.23,44.25L160.77,51.5L152.31,53.7L143.85,61.73L135.38,63.61L126.92,67.49L118.46,66.95L110,83.02L101.54,79.99L93.08,76.42L84.62,93.54L76.15,106.83L67.69,102.69L59.23,115.07L50.77,138.35L42.31,136.18L33.85,137.86L25.38,135.12L16.92,139.45L8.46,151.95L0,131.36Z" style="fill: rgb(90, 180, 172); fill-opacity: 1; stroke-width: 0;"/></g></g><g class="errorbars"/><g class="lines"><path class="js-line" d="M0,131.36L8.46,151.95L16.92,139.45L25.38,135.12L33.85,137.86L42.31,136.18L50.77,138.35L59.23,115.07L67.69,102.69L76.15,106.83L84.62,93.54L93.08,76.42L101.54,79.99L110,83.02L118.46,66.95L126.92,67.49L135.38,63.61L143.85,61.73L152.31,53.7L160.77,51.5L169.23,44.25L177.69,47.69L186.15,41.3L194.62,40.56L203.08,40.93L211.54,38.26L220,37.81L228.46,37.81L236.92,39.1L245.38,40.79L253.85,40.13L262.31,41.84L270.77,39.1L287.69,40.08L296.15,40.58L304.62,42.92L313.08,48.28L321.54,44.12L330,50.98L338.46,52.92L346.92,56.36L355.38,62.88L363.85,72.84L372.31,88.63L380.77,97.63L397.69,117.61L406.15,116.89L414.62,121.93L423.08,137.49L431.54,135.1L440,145.95" style="vector-effect: non-scaling-stroke; fill: none; stroke: rgb(0, 0, 0); stroke-opacity: 1; stroke-width: 0.25px; opacity: 1;"/></g><g class="points"/><g class="text"/></g><g class="trace scatter trace3d606d" style="stroke-miterlimit: 2;"><g class="fills"><g><path class="js-fill" d="M0,122.35L8.46,127.9L16.92,118.83L25.38,117.05L33.85,114.05L42.31,101.52L50.77,96.09L67.69,77.82L76.15,73.38L84.62,66.65L93.08,57.04L101.54,51.74L110,52.55L118.46,54.67L126.92,50.61L135.38,47.92L143.85,50.92L152.31,43.42L160.77,39.82L186.15,34.58L194.62,33.81L211.54,35.39L220,34.21L236.92,34.33L245.38,35.91L253.85,36.46L262.31,34.34L296.15,36.89L304.62,38.67L313.08,37.8L321.54,38.06L338.46,40.68L346.92,47.3L355.38,51.93L363.85,61.81L372.31,63.25L380.77,74.57L397.69,93.53L406.15,99.79L414.62,106.05L423.08,111.09L431.54,118.36L440,127.77L440,138.77L431.54,123.83L423.08,121.74L414.62,110.86L406.15,106.75L397.69,100.82L389.23,91.58L380.77,83.47L372.31,71.38L363.85,65.31L355.38,53.98L346.92,49.79L338.46,45.91L330,42.87L321.54,41.78L304.62,39.63L296.15,38.04L287.69,37.36L279.23,38.11L270.77,36.79L262.31,36.57L245.38,38.02L236.92,36.54L228.46,36.51L220,35.66L186.15,36.3L177.69,39.11L169.23,39.44L160.77,42.97L143.85,55.6L135.38,55.33L126.92,54.27L118.46,60.56L110,64.72L101.54,62.14L93.08,63.04L84.62,77.27L76.15,80.5L67.69,84.97L59.23,99.76L50.77,110.68L42.31,113.44L33.85,121.59L16.92,127.17L8.46,136.19L0,126.17Z" style="fill: rgb(245, 245, 245); fill-opacity: 1; stroke-width: 0;"/></g></g><g class="errorbars"/><g class="lines"><path class="js-line" d="M0,126.17L8.46,136.19L16.92,127.17L33.85,121.59L42.31,113.44L50.77,110.68L59.23,99.76L67.69,84.97L76.15,80.5L84.62,77.27L93.08,63.04L101.54,62.14L110,64.72L118.46,60.56L126.92,54.27L135.38,55.33L143.85,55.6L160.77,42.97L169.23,39.44L177.69,39.11L186.15,36.3L220,35.66L228.46,36.51L236.92,36.54L245.38,38.02L262.31,36.57L270.77,36.79L279.23,38.11L287.69,37.36L296.15,38.04L304.62,39.63L321.54,41.78L330,42.87L338.46,45.91L346.92,49.79L355.38,53.98L363.85,65.31L372.31,71.38L380.77,83.47L389.23,91.58L397.69,100.82L406.15,106.75L414.62,110.86L423.08,121.74L431.54,123.83L440,138.77" style="vector-effect: non-scaling-stroke; fill: none; stroke: rgb(0, 0, 0); stroke-opacity: 1; stroke-width: 0.5px; opacity: 1;"/></g><g class="points"/><g class="text"/></g><g class="trace scatter trace1f9b1f" style="stroke-miterlimit: 2;"><g class="fills"><g><path class="js-fill" d="M0,114.9L8.46,119.06L16.92,115.63L25.38,110.68L33.85,107.07L42.31,94.29L50.77,86.54L59.23,76.48L67.69,67.62L84.62,57.25L93.08,51.17L101.54,45.81L110,47.57L126.92,38.59L135.38,44.3L143.85,42.37L152.31,39.6L160.77,36.81L169.23,35.73L177.69,32.93L186.15,31.77L194.62,31.05L203.08,31.31L211.54,32.12L220,31.36L228.46,31.49L236.92,32.47L245.38,34.29L253.85,32.25L262.31,31.42L270.77,33.7L279.23,32.67L287.69,34.47L304.62,36.82L313.08,35.93L330,32.97L338.46,36.08L355.38,47.39L363.85,55.55L372.31,57.87L380.77,68.8L389.23,78.03L397.69,88.6L406.15,96.36L414.62,96.73L423.08,102.55L431.54,112.88L440,120.6L440,127.77L431.54,118.36L423.08,111.09L414.62,106.05L406.15,99.79L397.69,93.53L380.77,74.57L372.31,63.25L363.85,61.81L355.38,51.93L346.92,47.3L338.46,40.68L321.54,38.06L313.08,37.8L304.62,38.67L296.15,36.89L262.31,34.34L253.85,36.46L245.38,35.91L236.92,34.33L220,34.21L211.54,35.39L194.62,33.81L186.15,34.58L160.77,39.82L152.31,43.42L143.85,50.92L135.38,47.92L126.92,50.61L118.46,54.67L110,52.55L101.54,51.74L93.08,57.04L84.62,66.65L76.15,73.38L67.69,77.82L50.77,96.09L42.31,101.52L33.85,114.05L25.38,117.05L16.92,118.83L8.46,127.9L0,122.35Z" style="fill: rgb(245, 245, 245); fill-opacity: 1; stroke-width: 0;"/></g></g><g class="errorbars"/><g class="lines"><path class="js-line" d="M0,122.35L8.46,127.9L16.92,118.83L25.38,117.05L33.85,114.05L42.31,101.52L50.77,96.09L67.69,77.82L76.15,73.38L84.62,66.65L93.08,57.04L101.54,51.74L110,52.55L118.46,54.67L126.92,50.61L135.38,47.92L143.85,50.92L152.31,43.42L160.77,39.82L186.15,34.58L194.62,33.81L211.54,35.39L220,34.21L236.92,34.33L245.38,35.91L253.85,36.46L262.31,34.34L296.15,36.89L304.62,38.67L313.08,37.8L321.54,38.06L338.46,40.68L346.92,47.3L355.38,51.93L363.85,61.81L372.31,63.25L380.77,74.57L397.69,93.53L406.15,99.79L414.62,106.05L423.08,111.09L431.54,118.36L440,127.77" style="vector-effect: non-scaling-stroke; fill: none; stroke: rgb(0, 0, 0); stroke-opacity: 1; stroke-width: 1px; opacity: 1;"/></g><g class="points"/><g class="text"/></g><g class="trace scatter tracedba99b" style="stroke-miterlimit: 2;"><g class="fills"><g><path class="js-fill" d="M0,104.97L8.46,105.26L16.92,103.46L25.38,95.26L33.85,88.3L42.31,83.6L50.77,56.08L59.23,59.3L67.69,53.33L76.15,41.59L84.62,49.03L93.08,41.37L101.54,37.68L110,29.98L118.46,28.99L126.92,24.89L135.38,30.36L143.85,29.81L152.31,33.5L160.77,29.32L169.23,31.73L177.69,29.47L186.15,29.37L194.62,24.35L203.08,25.68L211.54,30.43L220,30.03L228.46,25.3L236.92,29.55L245.38,29.4L253.85,31.65L262.31,26.14L270.77,30.82L279.23,24.78L287.69,33.51L304.62,34.31L313.08,29.43L321.54,25.41L330,24.7L338.46,29.3L346.92,30.25L355.38,42.52L363.85,49.94L372.31,53.17L380.77,60.23L389.23,69.26L397.69,76.88L406.15,81.53L414.62,82.11L423.08,91.62L431.54,102.71L440,101.53L440,120.6L431.54,112.88L423.08,102.55L414.62,96.73L406.15,96.36L397.69,88.6L389.23,78.03L380.77,68.8L372.31,57.87L363.85,55.55L355.38,47.39L338.46,36.08L330,32.97L313.08,35.93L304.62,36.82L287.69,34.47L279.23,32.67L270.77,33.7L262.31,31.42L253.85,32.25L245.38,34.29L236.92,32.47L228.46,31.49L220,31.36L211.54,32.12L203.08,31.31L194.62,31.05L186.15,31.77L177.69,32.93L169.23,35.73L160.77,36.81L152.31,39.6L143.85,42.37L135.38,44.3L126.92,38.59L110,47.57L101.54,45.81L93.08,51.17L84.62,57.25L67.69,67.62L59.23,76.48L50.77,86.54L42.31,94.29L33.85,107.07L25.38,110.68L16.92,115.63L8.46,119.06L0,114.9Z" style="fill: rgb(216, 179, 101); fill-opacity: 1; stroke-width: 0;"/></g></g><g class="errorbars"/><g class="lines"><path class="js-line" d="M0,114.9L8.46,119.06L16.92,115.63L25.38,110.68L33.85,107.07L42.31,94.29L50.77,86.54L59.23,76.48L67.69,67.62L84.62,57.25L93.08,51.17L101.54,45.81L110,47.57L126.92,38.59L135.38,44.3L143.85,42.37L152.31,39.6L160.77,36.81L169.23,35.73L177.69,32.93L186.15,31.77L194.62,31.05L203.08,31.31L211.54,32.12L220,31.36L228.46,31.49L236.92,32.47L245.38,34.29L253.85,32.25L262.31,31.42L270.77,33.7L279.23,32.67L287.69,34.47L304.62,36.82L313.08,35.93L330,32.97L338.46,36.08L355.38,47.39L363.85,55.55L372.31,57.87L380.77,68.8L389.23,78.03L397.69,88.6L406.15,96.36L414.62,96.73L423.08,102.55L431.54,112.88L440,120.6" style="vector-effect: non-scaling-stroke; fill: none; stroke: rgb(0, 0, 0); stroke-opacity: 1; stroke-width: 0.5px; opacity: 1;"/></g><g class="points"/><g class="text"/></g><g class="trace scatter trace3b9906" style="stroke-miterlimit: 2;"><g class="fills"/><g class="errorbars"/><g class="lines"><path class="js-line" d="M0,104.97L8.46,105.26L16.92,103.46L25.38,95.26L33.85,88.3L42.31,83.6L50.77,56.08L59.23,59.3L67.69,53.33L76.15,41.59L84.62,49.03L93.08,41.37L101.54,37.68L110,29.98L118.46,28.99L126.92,24.89L135.38,30.36L143.85,29.81L152.31,33.5L160.77,29.32L169.23,31.73L177.69,29.47L186.15,29.37L194.62,24.35L203.08,25.68L211.54,30.43L220,30.03L228.46,25.3L236.92,29.55L245.38,29.4L253.85,31.65L262.31,26.14L270.77,30.82L279.23,24.78L287.69,33.51L304.62,34.31L313.08,29.43L321.54,25.41L330,24.7L338.46,29.3L346.92,30.25L355.38,42.52L363.85,49.94L372.31,53.17L380.77,60.23L389.23,69.26L397.69,76.88L406.15,81.53L414.62,82.11L423.08,91.62L431.54,102.71L440,101.53" style="vector-effect: non-scaling-stroke; fill: none; stroke: rgb(0, 0, 0); stroke-opacity: 1; stroke-width: 0.25px; opacity: 1;"/></g><g class="points"/><g class="text"/></g><g class="trace scatter tracef7190f" style="stroke-miterlimit: 2; opacity: 1;"><g class="fills"/><g class="errorbars"/><g class="lines"/><g class="points"><path class="point" transform="translate(169.23,37.2)" d="M4,0A4,4 0 1,1 0,-4A4,4 0 0,1 4,0ZM0,0.5L0.5,0L0,-0.5L-0.5,0Z" style="opacity: 1; stroke: rgb(0, 0, 0); stroke-opacity: 1; stroke-width: 1px; fill: none;"/><path class="point" transform="translate(177.69,37.2)" d="M4,0A4,4 0 1,1 0,-4A4,4 0 0,1 4,0ZM0,0.5L0.5,0L0,-0.5L-0.5,0Z" style="opacity: 1; stroke: rgb(0, 0, 0); stroke-opacity: 1; stroke-width: 1px; fill: none;"/><path class="point" transform="translate(186.15,29.76)" d="M4,0A4,4 0 1,1 0,-4A4,4 0 0,1 4,0ZM0,0.5L0.5,0L0,-0.5L-0.5,0Z" style="opacity: 1; stroke: rgb(0, 0, 0); stroke-opacity: 1; stroke-width: 1px; fill: none;"/><path class="point" transform="translate(194.62,29.76)" d="M4,0A4,4 0 1,1 0,-4A4,4 0 0,1 4,0ZM0,0.5L0.5,0L0,-0.5L-0.5,0Z" style="opacity: 1; stroke: rgb(0, 0, 0); stroke-opacity: 1; stroke-width: 1px; fill: none;"/></g><g class="text"/></g></g></g><g class="overplot"/><path class="xlines-above crisp" d="M0,0" style="fill: none;"/><path class="ylines-above crisp" d="M0,0" style="fill: none;"/><g class="overlines-above"/><g class="xaxislayer-above"><g class="x3tick"><text text-anchor="middle" x="0" y="733" transform="translate(156.15,0)" style="font-family: 'Open Sans', verdana, arial, sans-serif; font-size: 12px; fill: rgb(42, 63, 95); fill-opacity: 1; white-space: pre; opacity: 1;">10</text></g><g class="x3tick"><text text-anchor="middle" x="0" y="733" style="font-family: 'Open Sans', verdana, arial, sans-serif; font-size: 12px; fill: rgb(42, 63, 95); fill-opacity: 1; white-space: pre; opacity: 1;" transform="translate(240.77,0)">20</text></g><g class="x3tick"><text text-anchor="middle" x="0" y="733" style="font-family: 'Open Sans', verdana, arial, sans-serif; font-size: 12px; fill: rgb(42, 63, 95); fill-opacity: 1; white-space: pre; opacity: 1;" transform="translate(325.38,0)">30</text></g><g class="x3tick"><text text-anchor="middle" x="0" y="733" style="font-family: 'Open Sans', verdana, arial, sans-serif; font-size: 12px; fill: rgb(42, 63, 95); fill-opacity: 1; white-space: pre; opacity: 1;" transform="translate(410,0)">40</text></g><g class="x3tick"><text text-anchor="middle" x="0" y="733" style="font-family: 'Open Sans', verdana, arial, sans-serif; font-size: 12px; fill: rgb(42, 63, 95); fill-opacity: 1; white-space: pre; opacity: 1;" transform="translate(494.62,0)">50</text></g></g><g class="yaxislayer-above"><g class="y3tick"><text text-anchor="end" x="79" y="4.199999999999999" transform="translate(0,720)" style="font-family: 'Open Sans', verdana, arial, sans-serif; font-size: 12px; fill: rgb(42, 63, 95); fill-opacity: 1; white-space: pre; opacity: 1;">5</text></g><g class="y3tick"><text text-anchor="end" x="79" y="4.199999999999999" style="font-family: 'Open Sans', verdana, arial, sans-serif; font-size: 12px; fill: rgb(42, 63, 95); fill-opacity: 1; white-space: pre; opacity: 1;" transform="translate(0,682.8)">10</text></g><g class="y3tick"><text text-anchor="end" x="79" y="4.199999999999999" style="font-family: 'Open Sans', verdana, arial, sans-serif; font-size: 12px; fill: rgb(42, 63, 95); fill-opacity: 1; white-space: pre; opacity: 1;" transform="translate(0,645.6)">15</text></g><g class="y3tick"><text text-anchor="end" x="79" y="4.199999999999999" style="font-family: 'Open Sans', verdana, arial, sans-serif; font-size: 12px; fill: rgb(42, 63, 95); fill-opacity: 1; white-space: pre; opacity: 1;" transform="translate(0,608.4)">20</text></g><g class="y3tick"><text text-anchor="end" x="79" y="4.199999999999999" style="font-family: 'Open Sans', verdana, arial, sans-serif; font-size: 12px; fill: rgb(42, 63, 95); fill-opacity: 1; white-space: pre; opacity: 1;" transform="translate(0,571.2)">25</text></g><g class="y3tick"><text text-anchor="end" x="79" y="4.199999999999999" style="font-family: 'Open Sans', verdana, arial, sans-serif; font-size: 12px; fill: rgb(42, 63, 95); fill-opacity: 1; white-space: pre; opacity: 1;" transform="translate(0,534)">30</text></g></g><g class="overaxes-above"/></g></g><g class="polarlayer"/><g class="smithlayer"/><g class="ternarylayer"/><g class="geolayer"/><g class="funnelarealayer"/><g class="pielayer"/><g class="iciclelayer"/><g class="treemaplayer"/><g class="sunburstlayer"/><g class="glimages"/><defs id="topdefs-a5b9b3"><g class="clips"/></defs><g class="layer-above"><g class="imagelayer"/><g class="shapelayer"/></g><g class="infolayer"><g class="g-gtitle"><text class="gtitle" x="30" y="50" text-anchor="start" dy="0em" style="font-family: 'Open Sans', verdana, arial, sans-serif; font-size: 17px; fill: rgb(42, 63, 95); opacity: 1; font-weight: normal; white-space: pre;">Climatology and S2S forecast for Rajshahi</text></g><g class="g-xtitle"/><g class="g-x2title"/><g class="g-x3title"/><g class="g-ytitle"><text class="ytitle" transform="rotate(-90,34.16875,193)" x="34.16875" y="193" text-anchor="middle" style="font-family: 'Open Sans', verdana, arial, sans-serif; font-size: 14px; fill: rgb(42, 63, 95); opacity: 1; font-weight: normal; white-space: pre;">[mm]</text></g><g class="g-y2title"><text class="y2title" transform="rotate(-90,40.840625,410.00000000000006)" x="40.840625" y="410.00000000000006" text-anchor="middle" style="font-family: 'Open Sans', verdana, arial, sans-serif; font-size: 14px; fill: rgb(42, 63, 95); opacity: 1; font-weight: normal; white-space: pre;">[C]</text></g><g class="g-y3title"><text class="y3title" transform="rotate(-90,40.840625,627)" x="40.840625" y="627" text-anchor="middle" style="font-family: 'Open Sans', verdana, arial, sans-serif; font-size: 14px; fill: rgb(42, 63, 95); opacity: 1; font-weight: normal; white-space: pre;">[C]</text></g><g class="annotation" data-index="0" style="opacity: 1;"><g class="annotation-text-g" transform="rotate(0,300,89.5)"><g class="cursor-pointer" transform="translate(237,79)"><rect class="bg" x="0.5" y="0.5" width="126" height="20" style="stroke-width: 1px; stroke: rgb(0, 0, 0); stroke-opacity: 0; fill: rgb(0, 0, 0); fill-opacity: 0;"/><text class="annotation-text" text-anchor="middle" x="63.359375" y="16" style="font-family: 'Open Sans', verdana, arial, sans-serif; font-size: 16px; fill: rgb(42, 63, 95); fill-opacity: 1; white-space: pre;">Precipitation sum</text></g></g></g><g class="annotation" data-index="1" style="opacity: 1;"><g class="annotation-text-g" transform="rotate(0,300,306.50000000000006)"><g class="cursor-pointer" transform="translate(196,296)"><rect class="bg" x="0.5" y="0.5" width="208" height="20" style="stroke-width: 1px; stroke: rgb(0, 0, 0); stroke-opacity: 0; fill: rgb(0, 0, 0); fill-opacity: 0;"/><text class="annotation-text" text-anchor="middle" x="104.265625" y="16" style="font-family: 'Open Sans', verdana, arial, sans-serif; font-size: 16px; fill: rgb(42, 63, 95); fill-opacity: 1; white-space: pre;">Mean maximum temperature</text></g></g></g><g class="annotation" data-index="2" style="opacity: 1;"><g class="annotation-text-g" transform="rotate(0,300,523.5)"><g class="cursor-pointer" transform="translate(198,513)"><rect class="bg" x="0.5" y="0.5" width="203" height="20" style="stroke-width: 1px; stroke: rgb(0, 0, 0); stroke-opacity: 0; fill: rgb(0, 0, 0); fill-opacity: 0;"/><text class="annotation-text" text-anchor="middle" x="102.046875" y="16" style="font-family: 'Open Sans', verdana, arial, sans-serif; font-size: 16px; fill: rgb(42, 63, 95); fill-opacity: 1; white-space: pre;">Mean minimum temperature</text></g></g></g><g class="annotation" data-index="3" style="opacity: 1;"><g class="annotation-text-g" transform="rotate(0,300,760.5)"><g class="cursor-pointer" transform="translate(277,750)"><rect class="bg" x="0.5" y="0.5" width="45" height="20" style="stroke-width: 1px; stroke: rgb(0, 0, 0); stroke-opacity: 0; fill: rgb(0, 0, 0); fill-opacity: 0;"/><text class="annotation-text" text-anchor="middle" x="22.3125" y="16" style="font-family: 'Open Sans', verdana, arial, sans-serif; font-size: 16px; fill: rgb(42, 63, 95); fill-opacity: 1; white-space: pre;">Week</text></g></g></g></g></svg>