<svg class="main-svg" xmlns="http://www.w3.org/2000/svg" xmlns:xlink="http://www.w3.org/1999/xlink" width="600" height="800" style="" viewBox="0 0 600 800"><rect x="0" y="0" width="600" height="800" style="fill: rgb(255, 255, 255); fill-opacity: 1;"/><defs id="defs-e6a903"><g class="clips"><clipPath id="clipe6a903xyplot" class="plotclip"><rect width="440" height="186.00000000000003"/></clipPath><clipPath id="clipe6a903x2y2plot" class="plotclip"><rect width="440" height="185.99999999999997"/></clipPath><clipPath id="clipe6a903x3y3plot" class="plotclip"><rect width="440" height="186"/></clipPath><clipPath class="axesclip" id="clipe6a903x"><rect x="80" y="0" width="440" height="800"/></clipPath><clipPath class="axesclip" id="clipe6a903y"><rect x="0" y="100" width="600" height="186.00000000000003"/></clipPath><clipPath class="axesclip" id="clipe6a903xy"><rect x="80" y="100" width="440" height="186.00000000000003"/></clipPath><clipPath class="axesclip" id="clipe6a903y2"><rect x="0" y="317.00000000000006" width="600" height="185.99999999999997"/></clipPath><clipPath class="axesclip" id="clipe6a903xy2"><rect x="80" y="317.00000000000006" width="440" height="185.99999999999997"/></clipPath><clipPath class="axesclip" id="clipe6a903y3"><rect x="0" y="534" width="600" height="186"/></clipPath><clipPath class="axesclip" id="clipe6a903xy3"><rect x="80" y="534" width="440" height="186"/></clipPath><clipPath class="axesclip" id="clipe6a903x2"><rect x="80" y="0" width="440" height="800"/></clipPath><clipPath class="axesclip" id="clipe6a903x2y"><rect x="80" y="100" width="440" height="186.00000000000003"/></clipPath><clipPath class="axesclip" id="clipe6a903x2y2"><rect x="80" y="317.00000000000006" width="440" height="185.99999999999997"/></clipPath><clipPath class="axesclip" id="clipe6a903x2y3"><rect x="80" y="534" width="440" height="186"/></clipPath><clipPath class="axesclip" id="clipe6a903x3"><rect x="80" y="0" width="440" height="800"/></clipPath><clipPath class="axesclip" id="clipe6a903x3y"><rect x="80" y="100" width="440" height="186.00000000000003"/></clipPath><clipPath class="axesclip" id="clipe6a903x3y2"><rect x="80" y="317.00000000000006" width="440" height="185.99999999999997"/></clipPath><clipPath class="axesclip" id="clipe6a903x3y3"><rect x="80" y="534" width="440" height="186"/></clipPath></g><g class="gradients"/><g class="patterns"/></defs><g class="bglayer"><rect class="bg" x="80" y="100" width="440" height="186.00000000000003" style="fill: rgb(229, 236, 246); fill-opacity: 1; stroke-width: 0;"/><rect class="bg" x="80" y="317.00000000000006" width="440" height="185.99999999999997" style="fill: rgb(229, 236, 246); fill-opacity: 1; stroke-width: 0;"/><rect class="bg" x="80" y="534" width="440" height="186" style="fill: rgb(229, 236, 246); fill-opacity: 1; stroke-width: 0;"/></g><g class="layer-below"><g class="imagelayer"/><g class="shapelayer"/></g><g class="cartesianlayer"><g class="subplot xy"><g class="layer-subplot"><g class="shapelayer"/><g class="imagelayer"/></g><g class="minor-gridlayer"><g class="x"/><g class="y"/></g><g class="gridlayer"><g class="x"><path class="xgrid crisp" transform="translate(156.15,0)" d="M0,100v186.00000000000003" style="stroke: rgb(255, 255, 255); stroke-opacity: 1; stroke-width: 1px;"/><path class="xgrid crisp" transform="translate(240.77,0)" d="M0,100v186.00000000000003" style="stroke: rgb(255, 255, 255); stroke-opacity: 1; stroke-width: 1px;"/><path class="xgrid crisp" transform="translate(325.38,0)" d="M0,100v186.00000000000003" style="stroke: rgb(255, 255, 255); stroke-opacity: 1; stroke-width: 1px;"/><path class="xgrid crisp" transform="translate(410,0)" d="M0,100v186.00000000000003" style="stroke: rgb(255, 255, 255); stroke-opacity: 1; stroke-width: 1px;"/><path class="xgrid crisp" transform="translate(494.62,0)" d="M0,100v186.00000000000003" style="stroke: rgb(255, 255, 255); stroke-opacity: 1; stroke-width: 1px;"/></g><g class="y"><path class="ygrid crisp" transform="translate(0,248.8)" d="M80,0h440" style="stroke: rgb(255, 255, 255); stroke-opacity: 1; stroke-width: 1px;"/><path class="ygrid crisp" transform="translate(0,211.6)" d="M80,0h440" style="stroke: rgb(255, 255, 255); stroke-opacity: 1; stroke-width: 1px;"/><path class="ygrid crisp" transform="translate(0,174.4)" d="M80,0h440" style="stroke: rgb(255, 255, 255); stroke-opacity: 1; stroke-width: 1px;"/><path class="ygrid crisp" transform="translate(0,137.2)" d="M80,0h440" style="stroke: rgb(255, 255, 255); stroke-opacity: 1; stroke-width: 1px;"/></g></g><g class="zerolinelayer"><path class="yzl zl crisp" transform="translate(0,286)" d="M80,0h440" style="stroke: rgb(255, 255, 255); stroke-opacity: 1; stroke-width: 2px;"/></g><path class="xlines-below"/><path class="ylines-below"/><g class="overlines-below"/><g class="xaxislayer-below"/><g class="yaxislayer-below"/><g class="overaxes-below"/><g class="plot" transform="translate(80,100)" clip-path="url(#clipe6a903xyplot)"><g class="scatterlayer mlayer"><g class="trace scatter trace3beed4" style="stroke-miterlimit: 2;"><g class="fills"><g><path class="js-fill" d="M0,186L135.38,185.76L143.85,177.63L152.31,185.08L160.77,178.84L169.23,166.34L177.69,176.21L186.15,168.23L194.62,165.75L203.08,172.26L211.54,154.47L220,165.63L228.46,162.39L236.92,156.6L245.38,151.94L253.85,168.88L262.31,167L270.77,164.05L279.23,167.95L287.69,170.72L296.15,174.75L304.62,166.6L313.08,172.78L321.54,174.11L330,182.77L338.46,174.71L346.92,186L440,186L440,186L321.54,186L313.08,183.11L304.62,182.96L296.15,183.2L287.69,185.11L279.23,177.17L270.77,178.58L262.31,174.92L245.38,186L236.92,185.54L228.46,169L220,181.02L211.54,183L203.08,185.26L0,186Z" style="fill: rgb(224, 236, 244); fill-opacity: 1; stroke-width: 0;"/></g></g><g class="errorbars"/><g class="lines"><path class="js-line" d="M0,186L203.08,185.26L211.54,183L220,181.02L228.46,169L236.92,185.54L245.38,186L262.31,174.92L270.77,178.58L279.23,177.17L287.69,185.11L296.15,183.2L304.62,182.96L313.08,183.11L321.54,186L440,186" style="vector-effect: non-scaling-stroke; fill: none; stroke: rgb(0, 0, 0); stroke-opacity: 1; stroke-width: 0.25px; opacity: 1;"/></g><g class="points"/><g class="text"/></g><g class="trace scatter trace67d23b" style="stroke-miterlimit: 2;"><g class="fills"><g><path class="js-fill" d="M0,186L101.54,185.26L110,184.09L118.46,182.24L126.92,185.82L143.85,166.99L152.31,167.19L160.77,159.92L169.23,151.02L177.69,150.07L186.15,151.25L194.62,145.17L203.08,149.95L211.54,124.7L220,134.13L228.46,132.49L236.92,143.91L245.38,131.2L253.85,145.97L262.31,157.59L270.77,149.2L279.23,155.63L287.69,152.27L296.15,147L304.62,148.25L313.08,159.23L321.54,158.25L330,171.78L338.46,163.08L346.92,178.42L355.38,186L440,186L440,186L346.92,186L338.46,174.71L330,182.77L321.54,174.11L313.08,172.78L304.62,166.6L296.15,174.75L287.69,170.72L279.23,167.95L270.77,164.05L262.31,167L253.85,168.88L245.38,151.94L236.92,156.6L228.46,162.39L220,165.63L211.54,154.47L203.08,172.26L194.62,165.75L186.15,168.23L177.69,176.21L169.23,166.34L160.77,178.84L152.31,185.08L143.85,177.63L135.38,185.76L0,186Z" style="fill: rgb(158, 188, 218); fill-opacity: 1; stroke-width: 0;"/></g></g><g class="errorbars"/><g class="lines"><path class="js-line" d="M0,186L135.38,185.76L143.85,177.63L152.31,185.08L160.77,178.84L169.23,166.34L177.69,176.21L186.15,168.23L194.62,165.75L203.08,172.26L211.54,154.47L220,165.63L228.46,162.39L236.92,156.6L245.38,151.94L253.85,168.88L262.31,167L270.77,164.05L279.23,167.95L287.69,170.72L296.15,174.75L304.62,166.6L313.08,172.78L321.54,174.11L330,182.77L338.46,174.71L346.92,186L440,186" style="vector-effect: non-scaling-stroke; fill: none; stroke: rgb(0, 0, 0); stroke-opacity: 1; stroke-width: 0.5px; opacity: 1;"/></g><g class="points"/><g class="text"/></g><g class="trace scatter trace652ae9" style="stroke-miterlimit: 2;"><g class="fills"><g><path class="js-fill" d="M0,186L42.31,185.39L50.77,180.85L59.23,183.94L67.69,184.7L76.15,181.6L84.62,181.04L93.08,176.94L101.54,174.85L110,169.2L118.46,166.67L126.92,181.35L135.38,156.05L143.85,152.62L152.31,153.66L160.77,144.62L169.23,131.89L177.69,126.23L186.15,122.02L194.62,102.41L203.08,116.27L211.54,102.65L220,100.12L228.46,94.33L236.92,81.21L245.38,104.15L253.85,99.38L262.31,130.67L270.77,116.22L279.23,149.16L287.69,136.21L296.15,132.55L304.62,111.53L321.54,131.08L330,146.84L338.46,140.98L346.92,160.23L355.38,153.5L363.85,180.93L372.31,184.92L380.77,185.44L397.69,186L406.15,186L440,186L440,186L355.38,186L346.92,178.42L338.46,163.08L330,171.78L321.54,158.25L313.08,159.23L304.62,148.25L296.15,147L287.69,152.27L279.23,155.63L270.77,149.2L262.31,157.59L253.85,145.97L245.38,131.2L236.92,143.91L228.46,132.49L220,134.13L211.54,124.7L203.08,149.95L194.62,145.17L186.15,151.25L177.69,150.07L169.23,151.02L160.77,159.92L152.31,167.19L143.85,166.99L126.92,185.82L118.46,182.24L110,184.09L101.54,185.26L0,186Z" style="fill: rgb(158, 188, 218); fill-opacity: 1; stroke-width: 0;"/></g></g><g class="errorbars"/><g class="lines"><path class="js-line" d="M0,186L101.54,185.26L110,184.09L118.46,182.24L126.92,185.82L143.85,166.99L152.31,167.19L160.77,159.92L169.23,151.02L177.69,150.07L186.15,151.25L194.62,145.17L203.08,149.95L211.54,124.7L220,134.13L228.46,132.49L236.92,143.91L245.38,131.2L253.85,145.97L262.31,157.59L270.77,149.2L279.23,155.63L287.69,152.27L296.15,147L304.62,148.25L313.08,159.23L321.54,158.25L330,171.78L338.46,163.08L346.92,178.42L355.38,186L440,186" style="vector-effect: non-scaling-stroke; fill: none; stroke: rgb(0, 0, 0); stroke-opacity: 1; stroke-width: 1px; opacity: 1;"/></g><g class="points"/><g class="text"/></g><g class="trace scatter trace55fc7c" style="stroke-miterlimit: 2;"><g class="fills"><g><path class="js-fill" d="M0,186L33.85,185.93L42.31,184.54L50.77,174.88L59.23,183.77L67.69,183.04L76.15,175.08L84.62,176.2L93.08,166.36L101.54,159.99L110,158.28L118.46,152.64L126.92,178.58L135.38,128.02L143.85,127.45L152.31,140.59L160.77,109.99L169.23,83.33L177.69,65.05L186.15,54.71L194.62,18.89L203.08,71.67L211.54,68.39L220,20.28L228.46,69.62L236.92,4.27L245.38,75.34L253.85,44.93L262.31,78.2L270.77,66.72L279.23,135.85L287.69,99.93L296.15,81.51L304.62,76.57L313.08,90.44L321.54,69.8L330,99.52L338.46,122.37L346.92,139L355.38,108.15L363.85,178.38L372.31,183.77L380.77,185.26L397.69,186L406.15,186L440,186L440,186L406.15,186L397.69,186L380.77,185.44L372.31,184.92L363.85,180.93L355.38,153.5L346.92,160.23L338.46,140.98L330,146.84L321.54,131.08L304.62,111.53L296.15,132.55L287.69,136.21L279.23,149.16L270.77,116.22L262.31,130.67L253.85,99.38L245.38,104.15L236.92,81.21L228.46,94.33L220,100.12L211.54,102.65L203.08,116.27L194.62,102.41L186.15,122.02L177.69,126.23L169.23,131.89L160.77,144.62L152.31,153.66L143.85,152.62L135.38,156.05L126.92,181.35L118.46,166.67L110,169.2L101.54,174.85L93.08,176.94L84.62,181.04L76.15,181.6L67.69,184.7L59.23,183.94L50.77,180.85L42.31,185.39L0,186Z" style="fill: rgb(136, 86, 167); fill-opacity: 1; stroke-width: 0;"/></g></g><g class="errorbars"/><g class="lines"><path class="js-line" d="M0,186L42.31,185.39L50.77,180.85L59.23,183.94L67.69,184.7L76.15,181.6L84.62,181.04L93.08,176.94L101.54,174.85L110,169.2L118.46,166.67L126.92,181.35L135.38,156.05L143.85,152.62L152.31,153.66L160.77,144.62L169.23,131.89L177.69,126.23L186.15,122.02L194.62,102.41L203.08,116.27L211.54,102.65L220,100.12L228.46,94.33L236.92,81.21L245.38,104.15L253.85,99.38L262.31,130.67L270.77,116.22L279.23,149.16L287.69,136.21L296.15,132.55L304.62,111.53L321.54,131.08L330,146.84L338.46,140.98L346.92,160.23L355.38,153.5L363.85,180.93L372.31,184.92L380.77,185.44L397.69,186L406.15,186L440,186" style="vector-effect: non-scaling-stroke; fill: none; stroke: rgb(0, 0, 0); stroke-opacity: 1; stroke-width: 0.5px; opacity: 1;"/></g><g class="points"/><g class="text"/></g><g class="trace scatter tracef98cc1" style="stroke-miterlimit: 2;"><g class="fills"/><g class="errorbars"/><g class="lines"><path class="js-line" d="M0,186L33.85,185.93L42.31,184.54L50.77,174.88L59.23,183.77L67.69,183.04L76.15,175.08L84.62,176.2L93.08,166.36L101.54,159.99L110,158.28L118.46,152.64L126.92,178.58L135.38,128.02L143.85,127.45L152.31,140.59L160.77,109.99L169.23,83.33L177.69,65.05L186.15,54.71L194.62,18.89L203.08,71.67L211.54,68.39L220,20.28L228.46,69.62L236.92,4.27L245.38,75.34L253.85,44.93L262.31,78.2L270.77,66.72L279.23,135.85L287.69,99.93L296.15,81.51L304.62,76.57L313.08,90.44L321.54,69.8L330,99.52L338.46,122.37L346.92,139L355.38,108.15L363.85,178.38L372.31,183.77L380.77,185.26L397.69,186L406.15,186L440,186" style="vector-effect: non-scaling-stroke; fill: none; stroke: rgb(0, 0, 0); stroke-opacity: 1; stroke-width: 0.25px; opacity: 1;"/></g><g class="points"/><g class="text"/></g><g class="trace scatter traceb76765" style="stroke-miterlimit: 2; opacity: 1;"><g class="fills"/><g class="errorbars"/><g class="lines"/><g class="points"><path class="point" transform="translate(186.15,186)" d="M4,0A4,4 0 1,1 0,-4A4,4 0 0,1 4,0ZM0,0.5L0.5,0L0,-0.5L-0.5,0Z" style="opacity: 1; stroke: rgb(0, 0, 0); stroke-opacity: 1; stroke-width: 1px; fill: none;"/><path class="point" transform="translate(194.62,186)" d="M4,0A4,4 0 1,1 0,-4A4,4 0 0,1 4,0ZM0,0.5L0.5,0L0,-0.5L-0.5,0Z" style="opacity: 1; stroke: rgb(0, 0, 0); stroke-opacity: 1; stroke-width: 1px; fill: none;"/><path class="point" transform="translate(203.08,115.32)" d="M4,0A4,4 0 1,1 0,-4A4,4 0 0,1 4,0ZM0,0.5L0.5,0L0,-0.5L-0.5,0Z" style="opacity: 1; stroke: rgb(0, 0, 0); stroke-opacity: 1; stroke-width: 1px; fill: none;"/><path class="point" transform="translate(211.54,115.32)" d="M4,0A4,4 0 1,1 0,-4A4,4 0 0,1 4,0ZM0,0.5L0.5,0L0,-0.5L-0.5,0Z" style="opacity: 1; stroke: rgb(0, 0, 0); stroke-opacity: 1; stroke-width: 1px; fill: none;"/></g><g class="text"/></g></g></g><g class="overplot"/><path class="xlines-above crisp" d="M0,0" style="fill: none;"/><path class="ylines-above crisp" d="M0,0" style="fill: none;"/><g class="overlines-above"/><g class="xaxislayer-above"/><g class="yaxislayer-above"><g class="ytick"><text text-anchor="end" x="79" y="4.199999999999999" transform="translate(0,286)" style="font-family: 'Open Sans', verdana, arial, sans-serif; font-size: 12px; fill: rgb(42, 63, 95); fill-opacity: 1; white-space: pre; opacity: 1;">0</text></g><g class="ytick"><text text-anchor="end" x="79" y="4.199999999999999" style="font-family: 'Open Sans', verdana, arial, sans-serif; font-size: 12px; fill: rgb(42, 63, 95); fill-opacity: 1; white-space: pre; opacity: 1;" transform="translate(0,248.8)">50</text></g><g class="ytick"><text text-anchor="end" x="79" y="4.199999999999999" style="font-family: 'Open Sans', verdana, arial, sans-serif; font-size: 12px; fill: rgb(42, 63, 95); fill-opacity: 1; white-space: pre; opacity: 1;" transform="translate(0,211.6)">100</text></g><g class="ytick"><text text-anchor="end" x="79" y="4.199999999999999" style="font-family: 'Open Sans', verdana, arial, sans-serif; font-size: 12px; fill: rgb(42, 63, 95); fill-opacity: 1; white-space: pre; opacity: 1;" transform="translate(0,174.4)">150</text></g><g class="ytick"><text text-anchor="end" x="79" y="4.199999999999999" style="font-family: 'Open Sans', verdana, arial, sans-serif; font-size: 12px; fill: rgb(42, 63, 95); fill-opacity: 1; white-space: pre; opacity: 1;" transform="translate(0,137.2)">200</text></g><g class="ytick"><text text-anchor="end" x="79" y="4.199999999999999" style="font-family: 'Open Sans', verdana, arial, sans-serif; font-size: 12px; fill: rgb(42, 63, 95); fill-opacity: 1; white-space: pre; opacity: 1;" transform="translate(0,100)">250</text></g></g><g class="overaxes-above"/></g><g class="subplot x2y2"><g class="layer-subplot"><g class="shapelayer"/><g class="imagelayer"/></g><g class="minor-gridlayer"><g class="x2"/><g class="y2"/></g><g class="gridlayer"><g class="x2"><path class="x2grid crisp" transform="translate(156.15,0)" d="M0,317.00000000000006v185.99999999999997" style="stroke: rgb(255, 255, 255); stroke-opacity: 1; stroke-width: 1px;"/><path class="x2grid crisp" transform="translate(240.77,0)" d="M0,317.00000000000006v185.99999999999997" style="stroke: rgb(255, 255, 255); stroke-opacity: 1; stroke-width: 1px;"/><path class="x2grid crisp" transform="translate(325.38,0)" d="M0,317.00000000000006v185.99999999999997" style="stroke: rgb(255, 255, 255); stroke-opacity: 1; stroke-width: 1px;"/><path class="x2grid crisp" transform="translate(410,0)" d="M0,317.00000000000006v185.99999999999997" style="stroke: rgb(255, 255, 255); stroke-opacity: 1; stroke-width: 1px;"/><path class="x2grid crisp" transform="translate(494.62,0)" d="M0,317.00000000000006v185.99999999999997" style="stroke: rgb(255, 255, 255); stroke-opacity: 1; stroke-width: 1px;"/></g><g class="y2"><path class="y2grid crisp" transform="translate(0,472.00000000000006)" d="M80,0h440" style="stroke: rgb(255, 255, 255); stroke-opacity: 1; stroke-width: 1px;"/><path class="y2grid crisp" transform="translate(0,410.00000000000006)" d="M80,0h440" style="stroke: rgb(255, 255, 255); stroke-opacity: 1; stroke-width: 1px;"/><path class="y2grid crisp" transform="translate(0,348.00000000000006)" d="M80,0h440" style="stroke: rgb(255, 255, 255); stroke-opacity: 1; stroke-width: 1px;"/></g></g><g class="zerolinelayer"/><path class="xlines-below"/><path class="ylines-below"/><g class="overlines-below"/><g class="xaxislayer-below"/><g class="yaxislayer-below"/><g class="overaxes-below"/><g class="plot" transform="translate(80,317.00000000000006)" clip-path="url(#clipe6a903x2y2plot)"><g class="scatterlayer mlayer"><g class="trace scatter trace6b27d7" style="stroke-miterlimit: 2;"><g class="fills"><g><path class="js-fill" d="M0,148.78L8.46,150.79L16.92,136.91L33.85,124.71L42.31,114.07L50.77,107.97L59.23,99.26L67.69,85.02L76.15,86.33L84.62,71.96L93.08,69.76L110,76.9L118.46,81.29L126.92,78L135.38,80.53L143.85,86.16L152.31,82.25L160.77,84.95L169.23,81.49L186.15,89.97L194.62,94.14L203.08,93.45L211.54,94.06L220,94.75L228.46,93.2L236.92,97.14L245.38,93.33L253.85,97.04L262.31,96.24L270.77,98.68L279.23,97.4L287.69,96.79L296.15,98.33L304.62,95L313.08,99.34L321.54,97.25L330,93.26L346.92,94.11L355.38,90.25L363.85,93.79L372.31,98.25L380.77,103.66L389.23,111.29L406.15,133.35L414.62,134.15L423.08,138.99L431.54,146.49L440,150.34L440,152.73L431.54,152.91L423.08,157.42L414.62,140.13L406.15,148.01L397.69,133.8L389.23,120.98L380.77,112.49L372.31,108.97L363.85,97.14L355.38,98.31L346.92,115.06L338.46,100.41L321.54,106.05L313.08,113.07L304.62,105.82L296.15,104.77L287.69,99.95L279.23,101.06L270.77,104.15L262.31,110.06L245.38,101.89L236.92,106.49L228.46,100.22L220,98.22L211.54,107.54L203.08,104.46L194.62,103.68L186.15,96.81L177.69,96.06L169.23,93.74L160.77,90.41L152.31,90.24L143.85,91.67L135.38,95.01L126.92,93.12L118.46,93.3L110,88.43L101.54,92.24L93.08,82.3L84.62,86.76L76.15,95.16L67.69,108.35L50.77,123.17L42.31,132.8L33.85,138.49L25.38,139.4L16.92,148.61L8.46,167.8L0,167.2Z" style="fill: rgb(145, 191, 219); fill-opacity: 1; stroke-width: 0;"/></g></g><g class="errorbars"/><g class="lines"><path class="js-line" d="M0,167.2L8.46,167.8L16.92,148.61L25.38,139.4L33.85,138.49L42.31,132.8L50.77,123.17L67.69,108.35L76.15,95.16L84.62,86.76L93.08,82.3L101.54,92.24L110,88.43L118.46,93.3L126.92,93.12L135.38,95.01L143.85,91.67L152.31,90.24L160.77,90.41L169.23,93.74L177.69,96.06L186.15,96.81L194.62,103.68L203.08,104.46L211.54,107.54L220,98.22L228.46,100.22L236.92,106.49L245.38,101.89L262.31,110.06L270.77,104.15L279.23,101.06L287.69,99.95L296.15,104.77L304.62,105.82L313.08,113.07L321.54,106.05L338.46,100.41L346.92,115.06L355.38,98.31L363.85,97.14L372.31,108.97L380.77,112.49L389.23,120.98L397.69,133.8L406.15,148.01L414.62,140.13L423.08,157.42L431.54,152.91L440,152.73" style="vector-effect: non-scaling-stroke; fill: none; stroke: rgb(0, 0, 0); stroke-opacity: 1; stroke-width: 0.25px; opacity: 1;"/></g><g class="points"/><g class="text"/></g><g class="trace scatter trace780734" style="stroke-miterlimit: 2;"><g class="fills"><g><path class="js-fill" d="M0,138.74L8.46,139.42L16.92,130.01L25.38,128.45L33.85,118.34L42.31,106.51L50.77,100.14L59.23,88.81L67.69,79.66L76.15,73.87L84.62,64.41L93.08,58.74L101.54,63.59L110,72.52L118.46,63.12L126.92,64.6L135.38,70.04L143.85,78.28L152.31,74.54L160.77,76.59L169.23,76.57L177.69,78.57L186.15,82.74L194.62,84.9L203.08,90.5L211.54,90.35L220,92.22L228.46,90.08L236.92,94.39L245.38,90.61L253.85,92.89L262.31,90.16L270.77,94.29L279.23,90.4L287.69,94.11L296.15,93.67L304.62,92.14L313.08,93.82L321.54,87.36L330,88.44L338.46,85.74L355.38,84.78L363.85,91.08L372.31,91.86L380.77,99.26L389.23,105.04L397.69,112.74L406.15,123.75L414.62,126.47L423.08,131.25L431.54,138.36L440,135.59L440,150.34L431.54,146.49L423.08,138.99L414.62,134.15L406.15,133.35L389.23,111.29L380.77,103.66L372.31,98.25L363.85,93.79L355.38,90.25L346.92,94.11L330,93.26L321.54,97.25L313.08,99.34L304.62,95L296.15,98.33L287.69,96.79L279.23,97.4L270.77,98.68L262.31,96.24L253.85,97.04L245.38,93.33L236.92,97.14L228.46,93.2L220,94.75L211.54,94.06L203.08,93.45L194.62,94.14L186.15,89.97L169.23,81.49L160.77,84.95L152.31,82.25L143.85,86.16L135.38,80.53L126.92,78L118.46,81.29L110,76.9L93.08,69.76L84.62,71.96L76.15,86.33L67.69,85.02L59.23,99.26L50.77,107.97L42.31,114.07L33.85,124.71L16.92,136.91L8.46,150.79L0,148.78Z" style="fill: rgb(255, 255, 191); fill-opacity: 1; stroke-width: 0;"/></g></g><g class="errorbars"/><g class="lines"><path class="js-line" d="M0,148.78L8.46,150.79L16.92,136.91L33.85,124.71L42.31,114.07L50.77,107.97L59.23,99.26L67.69,85.02L76.15,86.33L84.62,71.96L93.08,69.76L110,76.9L118.46,81.29L126.92,78L135.38,80.53L143.85,86.16L152.31,82.25L160.77,84.95L169.23,81.49L186.15,89.97L194.62,94.14L203.08,93.45L211.54,94.06L220,94.75L228.46,93.2L236.92,97.14L245.38,93.33L253.85,97.04L262.31,96.24L270.77,98.68L279.23,97.4L287.69,96.79L296.15,98.33L304.62,95L313.08,99.34L321.54,97.25L330,93.26L346.92,94.11L355.38,90.25L363.85,93.79L372.31,98.25L380.77,103.66L389.23,111.29L406.15,133.35L414.62,134.15L423.08,138.99L431.54,146.49L440,150.34" style="vector-effect: non-scaling-stroke; fill: none; stroke: rgb(0, 0, 0); stroke-opacity: 1; stroke-width: 0.5px; opacity: 1;"/></g><g class="points"/><g class="text"/></g><g class="trace scatter tracee161ee" style="stroke-miterlimit: 2;"><g class="fills"><g><path class="js-fill" d="M0,130.75L8.46,128.5L16.92,127.55L25.38,121.31L33.85,112.34L42.31,99.6L50.77,90.85L59.23,82.25L67.69,67.32L84.62,59.99L93.08,51.67L101.54,52.77L110,57.44L118.46,52.69L126.92,58.32L135.38,52.17L143.85,67.78L152.31,64.79L160.77,64.37L169.23,72.02L177.69,73L186.15,76.59L194.62,73.53L211.54,84.94L220,85.75L228.46,87.51L236.92,87.63L245.38,86.62L253.85,88.35L262.31,86.92L270.77,87.32L279.23,86.11L287.69,90.24L296.15,86.37L304.62,86.3L313.08,87.24L321.54,82.47L330,76.59L338.46,80.42L346.92,78.72L355.38,83.09L363.85,87.46L372.31,88.75L380.77,96.77L389.23,100.2L397.69,107.23L406.15,117.33L414.62,118.36L423.08,120.51L431.54,130.08L440,119.49L440,135.59L431.54,138.36L423.08,131.25L414.62,126.47L406.15,123.75L397.69,112.74L389.23,105.04L380.77,99.26L372.31,91.86L363.85,91.08L355.38,84.78L338.46,85.74L330,88.44L321.54,87.36L313.08,93.82L304.62,92.14L296.15,93.67L287.69,94.11L279.23,90.4L270.77,94.29L262.31,90.16L253.85,92.89L245.38,90.61L236.92,94.39L228.46,90.08L220,92.22L211.54,90.35L203.08,90.5L194.62,84.9L186.15,82.74L177.69,78.57L169.23,76.57L160.77,76.59L152.31,74.54L143.85,78.28L135.38,70.04L126.92,64.6L118.46,63.12L110,72.52L101.54,63.59L93.08,58.74L84.62,64.41L76.15,73.87L67.69,79.66L59.23,88.81L50.77,100.14L42.31,106.51L33.85,118.34L25.38,128.45L16.92,130.01L8.46,139.42L0,138.74Z" style="fill: rgb(255, 255, 191); fill-opacity: 1; stroke-width: 0;"/></g></g><g class="errorbars"/><g class="lines"><path class="js-line" d="M0,138.74L8.46,139.42L16.92,130.01L25.38,128.45L33.85,118.34L42.31,106.51L50.77,100.14L59.23,88.81L67.69,79.66L76.15,73.87L84.62,64.41L93.08,58.74L101.54,63.59L110,72.52L118.46,63.12L126.92,64.6L135.38,70.04L143.85,78.28L152.31,74.54L160.77,76.59L169.23,76.57L177.69,78.57L186.15,82.74L194.62,84.9L203.08,90.5L211.54,90.35L220,92.22L228.46,90.08L236.92,94.39L245.38,90.61L253.85,92.89L262.31,90.16L270.77,94.29L279.23,90.4L287.69,94.11L296.15,93.67L304.62,92.14L313.08,93.82L321.54,87.36L330,88.44L338.46,85.74L355.38,84.78L363.85,91.08L372.31,91.86L380.77,99.26L389.23,105.04L397.69,112.74L406.15,123.75L414.62,126.47L423.08,131.25L431.54,138.36L440,135.59" style="vector-effect: non-scaling-stroke; fill: none; stroke: rgb(0, 0, 0); stroke-opacity: 1; stroke-width: 1px; opacity: 1;"/></g><g class="points"/><g class="text"/></g><g class="trace scatter traceef80ef" style="stroke-miterlimit: 2;"><g class="fills"><g><path class="js-fill" d="M0,114.14L8.46,116.35L16.92,114.66L25.38,115.41L33.85,103.69L42.31,82.91L50.77,66.34L59.23,64.61L67.69,57L84.62,49.38L93.08,47.94L101.54,44.77L110,38.38L118.46,46.07L126.92,35.37L135.38,23.27L143.85,47.98L152.31,42.89L160.77,41.06L169.23,64.24L177.69,60.22L186.15,57L194.62,46.13L203.08,68.81L211.54,75.78L220,74.49L228.46,81.71L236.92,74.42L245.38,79.63L253.85,82.98L262.31,83.59L270.77,70.42L279.23,79.37L287.69,85.67L296.15,68.5L304.62,73.64L313.08,75.58L321.54,73.16L330,62.79L338.46,63.29L346.92,62.52L355.38,77.42L363.85,82.44L372.31,83.39L380.77,91.51L389.23,91.89L397.69,90.94L406.15,97.53L414.62,107.45L423.08,116.15L431.54,119.39L440,113.52L440,119.49L431.54,130.08L423.08,120.51L414.62,118.36L406.15,117.33L397.69,107.23L389.23,100.2L380.77,96.77L372.31,88.75L363.85,87.46L355.38,83.09L346.92,78.72L338.46,80.42L330,76.59L321.54,82.47L313.08,87.24L304.62,86.3L296.15,86.37L287.69,90.24L279.23,86.11L270.77,87.32L262.31,86.92L253.85,88.35L245.38,86.62L236.92,87.63L228.46,87.51L220,85.75L211.54,84.94L194.62,73.53L186.15,76.59L177.69,73L169.23,72.02L160.77,64.37L152.31,64.79L143.85,67.78L135.38,52.17L126.92,58.32L118.46,52.69L110,57.44L101.54,52.77L93.08,51.67L84.62,59.99L67.69,67.32L59.23,82.25L50.77,90.85L42.31,99.6L33.85,112.34L25.38,121.31L16.92,127.55L8.46,128.5L0,130.75Z" style="fill: rgb(252, 141, 89); fill-opacity: 1; stroke-width: 0;"/></g></g><g class="errorbars"/><g class="lines"><path class="js-line" d="M0,130.75L8.46,128.5L16.92,127.55L25.38,121.31L33.85,112.34L42.31,99.6L50.77,90.85L59.23,82.25L67.69,67.32L84.62,59.99L93.08,51.67L101.54,52.77L110,57.44L118.46,52.69L126.92,58.32L135.38,52.17L143.85,67.78L152.31,64.79L160.77,64.37L169.23,72.02L177.69,73L186.15,76.59L194.62,73.53L211.54,84.94L220,85.75L228.46,87.51L236.92,87.63L245.38,86.62L253.85,88.35L262.31,86.92L270.77,87.32L279.23,86.11L287.69,90.24L296.15,86.37L304.62,86.3L313.08,87.24L321.54,82.47L330,76.59L338.46,80.42L346.92,78.72L355.38,83.09L363.85,87.46L372.31,88.75L380.77,96.77L389.23,100.2L397.69,107.23L406.15,117.33L414.62,118.36L423.08,120.51L431.54,130.08L440,119.49" style="vector-effect: non-scaling-stroke; fill: none; stroke: rgb(0, 0, 0); stroke-opacity: 1; stroke-width: 0.5px; opacity: 1;"/></g><g class="points"/><g class="text"/></g><g class="trace scatter tracefdb1ef" style="stroke-miterlimit: 2;"><g class="fills"/><g class="errorbars"/><g class="lines"><path class="js-line" d="M0,114.14L8.46,116.35L16.92,114.66L25.38,115.41L33.85,103.69L42.31,82.91L50.77,66.34L59.23,64.61L67.69,57L84.62,49.38L93.08,47.94L101.54,44.77L110,38.38L118.46,46.07L126.92,35.37L135.38,23.27L143.85,47.98L152.31,42.89L160.77,41.06L169.23,64.24L177.69,60.22L186.15,57L194.62,46.13L203.08,68.81L211.54,75.78L220,74.49L228.46,81.71L236.92,74.42L245.38,79.63L253.85,82.98L262.31,83.59L270.77,70.42L279.23,79.37L287.69,85.67L296.15,68.5L304.62,73.64L313.08,75.58L321.54,73.16L330,62.79L338.46,63.29L346.92,62.52L355.38,77.42L363.85,82.44L372.31,83.39L380.77,91.51L389.23,91.89L397.69,90.94L406.15,97.53L414.62,107.45L423.08,116.15L431.54,119.39L440,113.52" style="vector-effect: non-scaling-stroke; fill: none; stroke: rgb(0, 0, 0); stroke-opacity: 1; stroke-width: 0.25px; opacity: 1;"/></g><g class="points"/><g class="text"/></g><g class="trace scatter trace40931d" style="stroke-miterlimit: 2; opacity: 1;"><g class="fills"/><g class="errorbars"/><g class="lines"/><g class="points"><path class="point" transform="translate(186.15,43.4)" d="M4,0A4,4 0 1,1 0,-4A4,4 0 0,1 4,0ZM0,0.5L0.5,0L0,-0.5L-0.5,0Z" style="opacity: 1; stroke: rgb(0, 0, 0); stroke-opacity: 1; stroke-width: 1px; fill: none;"/><path class="point" transform="translate(194.62,55.8)" d="M4,0A4,4 0 1,1 0,-4A4,4 0 0,1 4,0ZM0,0.5L0.5,0L0,-0.5L-0.5,0Z" style="opacity: 1; stroke: rgb(0, 0, 0); stroke-opacity: 1; stroke-width: 1px; fill: none;"/><path class="point" transform="translate(203.08,86.8)" d="M4,0A4,4 0 1,1 0,-4A4,4 0 0,1 4,0ZM0,0.5L0.5,0L0,-0.5L-0.5,0Z" style="opacity: 1; stroke: rgb(0, 0, 0); stroke-opacity: 1; stroke-width: 1px; fill: none;"/><path class="point" transform="translate(211.54,86.8)" d="M4,0A4,4 0 1,1 0,-4A4,4 0 0,1 4,0ZM0,0.5L0.5,0L0,-0.5L-0.5,0Z" style="opacity: 1; stroke: rgb(0, 0, 0); stroke-opacity: 1; stroke-width: 1px; fill: none;"/></g><g class="text"/></g></g></g><g class="overplot"/><path class="xlines-above crisp" d="M0,0" style="fill: none;"/><path class="ylines-above crisp" d="M0,0" style="fill: none;"/><g class="overlines-above"/><g class="xaxislayer-above"/><g class="yaxislayer-above"><g class="y2tick"><text text-anchor="end" x="79" y="4.199999999999999" transform="translate(0,472.00000000000006)" style="font-family: 'Open Sans', verdana, arial, sans-serif; font-size: 12px; fill: rgb(42, 63, 95); fill-opacity: 1; white-space: pre; opacity: 1;">20</text></g><g class="y2tick"><text text-anchor="end" x="79" y="4.199999999999999" style="font-family: 'Open Sans', verdana, arial, sans-serif; font-size: 12px; fill: rgb(42, 63, 95); fill-opacity: 1; white-space: pre; opacity: 1;" transform="translate(0,410.00000000000006)">30</text></g><g class="y2tick"><text text-anchor="end" x="79" y="4.199999999999999" style="font-family: 'Open Sans', verdana, arial, sans-serif; font-size: 12px; fill: rgb(42, 63, 95); fill-opacity: 1; white-space: pre; opacity: 1;" transform="translate(0,348.00000000000006)">40</text></g></g><g class="overaxes-above"/></g><g class="subplot x3y3"><g class="layer-subplot"><g class="shapelayer"/><g class="imagelayer"/></g><g class="minor-gridlayer"><g class="x3"/><g class="y3"/></g><g class="gridlayer"><g class="x3"><path class="x3grid crisp" transform="translate(156.15,0)" d="M0,534v186" style="stroke: rgb(255, 255, 255); stroke-opacity: 1; stroke-width: 1px;"/><path class="x3grid crisp" transform="translate(240.77,0)" d="M0,534v186" style="stroke: rgb(255, 255, 255); stroke-opacity: 1; stroke-width: 1px;"/><path class="x3grid crisp" transform="translate(325.38,0)" d="M0,534v186" style="stroke: rgb(255, 255, 255); stroke-opacity: 1; stroke-width: 1px;"/><path class="x3grid crisp" transform="translate(410,0)" d="M0,534v186" style="stroke: rgb(255, 255, 255); stroke-opacity: 1; stroke-width: 1px;"/><path class="x3grid crisp" transform="translate(494.62,0)" d="M0,534v186" style="stroke: rgb(255, 255, 255); stroke-opacity: 1; stroke-width: 1px;"/></g><g class="y3"><path class="y3grid crisp" transform="translate(0,682.8)" d="M80,0h440" style="stroke: rgb(255, 255, 255); stroke-opacity: 1; stroke-width: 1px;"/><path class="y3grid crisp" transform="translate(0,645.6)" d="M80,0h440" style="stroke: rgb(255, 255, 255); stroke-opacity: 1; stroke-width: 1px;"/><path class="y3grid crisp" transform="translate(0,608.4)" d="M80,0h440" style="stroke: rgb(255, 255, 255); stroke-opacity: 1; stroke-width: 1px;"/><path class="y3grid crisp" transform="translate(0,571.2)" d="M80,0h440" style="stroke: rgb(255, 255, 255); stroke-opacity: 1; stroke-width: 1px;"/></g></g><g class="zerolinelayer"/><path class="xlines-below"/><path class="ylines-below"/><g class="overlines-below"/><g class="xaxislayer-below"/><g class="yaxislayer-below"/><g class="overaxes-below"/><g class="plot" transform="translate(80,534)" clip-path="url(#clipe6a903x3y3plot)"><g class="scatterlayer mlayer"><g class="trace scatter trace7d7bcb" style="stroke-miterlimit: 2;"><g class="fills"><g><path class="js-fill" d="M0,123.03L8.46,128.64L16.92,123.5L25.38,119.39L33.85,118.29L42.31,106.08L50.77,98.16L59.23,94.11L67.69,78.25L76.15,75.41L84.62,68.67L93.08,63.02L101.54,59.84L110,58.45L118.46,55.96L126.92,51.12L135.38,52.63L143.85,51.09L152.31,44.09L169.23,37.72L177.69,38.05L186.15,36.11L194.62,35.88L203.08,35.87L211.54,36.67L220,35.88L228.46,36.47L245.38,37.73L253.85,38.45L262.31,37.21L270.77,37.84L279.23,38.66L287.69,38.43L304.62,39.31L313.08,41.72L321.54,40.8L330,42.46L355.38,51.32L363.85,61.38L372.31,68.95L380.77,78.15L389.23,86.41L397.69,98.24L406.15,105.19L414.62,106.4L423.08,116.74L431.54,119.79L440,137.76L440,146.6L431.54,131.59L423.08,139.21L414.62,119.46L397.69,116L389.23,99.69L380.77,92.16L372.31,83.28L363.85,68.44L355.38,54.97L346.92,53.55L338.46,49.22L330,45.93L321.54,44.17L313.08,47.39L304.62,42.53L296.15,42.27L287.69,40.77L279.23,40.04L270.77,42.18L262.31,42.26L253.85,43.32L228.46,38.16L220,37.32L211.54,38.1L203.08,39.37L194.62,41.47L186.15,37.81L177.69,44.31L169.23,41.72L160.77,46.82L152.31,50.23L143.85,57.26L135.38,58.81L126.92,62.72L118.46,65L110,66.5L101.54,74.48L93.08,74.39L84.62,83.77L76.15,86.93L67.69,86.13L59.23,106.98L50.77,123.45L33.85,142.41L25.38,131.01L16.92,139.8L8.46,138.37L0,126.25Z" style="fill: rgb(90, 180, 172); fill-opacity: 1; stroke-width: 0;"/></g></g><g class="errorbars"/><g class="lines"><path class="js-line" d="M0,126.25L8.46,138.37L16.92,139.8L25.38,131.01L33.85,142.41L50.77,123.45L59.23,106.98L67.69,86.13L76.15,86.93L84.62,83.77L93.08,74.39L101.54,74.48L110,66.5L118.46,65L126.92,62.72L135.38,58.81L143.85,57.26L152.31,50.23L160.77,46.82L169.23,41.72L177.69,44.31L186.15,37.81L194.62,41.47L203.08,39.37L211.54,38.1L220,37.32L228.46,38.16L253.85,43.32L262.31,42.26L270.77,42.18L279.23,40.04L287.69,40.77L296.15,42.27L304.62,42.53L313.08,47.39L321.54,44.17L330,45.93L338.46,49.22L346.92,53.55L355.38,54.97L363.85,68.44L372.31,83.28L380.77,92.16L389.23,99.69L397.69,116L414.62,119.46L423.08,139.21L431.54,131.59L440,146.6" style="vector-effect: non-scaling-stroke; fill: none; stroke: rgb(0, 0, 0); stroke-opacity: 1; stroke-width: 0.25px; opacity: 1;"/></g><g class="points"/><g class="text"/></g><g class="trace scatter trace01dd31" style="stroke-miterlimit: 2;"><g class="fills"><g><path class="js-fill" d="M0,118.93L8.46,122.42L16.92,115.98L25.38,112.49L33.85,111.6L42.31,94.71L50.77,91.46L59.23,84.35L67.69,74.16L76.15,71.43L84.62,62.75L93.08,55.51L101.54,52.71L110,52.87L118.46,51.64L126.92,47.21L135.38,48.04L143.85,47.14L152.31,41.4L160.77,37.79L169.23,36.49L177.69,35.15L186.15,35.02L203.08,34.31L211.54,35.15L228.46,33.58L236.92,35.89L253.85,36.96L262.31,34.92L279.23,36.31L287.69,36.51L304.62,38.66L313.08,38.92L321.54,37.9L330,39.72L338.46,41.44L346.92,45.23L355.38,49.05L363.85,56.3L372.31,59.46L380.77,70.19L389.23,78.31L397.69,88.94L406.15,95.24L414.62,103.09L423.08,108.28L431.54,114.84L440,125.75L440,137.76L431.54,119.79L423.08,116.74L414.62,106.4L406.15,105.19L397.69,98.24L389.23,86.41L380.77,78.15L372.31,68.95L363.85,61.38L355.38,51.32L330,42.46L321.54,40.8L313.08,41.72L304.62,39.31L287.69,38.43L279.23,38.66L270.77,37.84L262.31,37.21L253.85,38.45L245.38,37.73L228.46,36.47L220,35.88L211.54,36.67L203.08,35.87L194.62,35.88L186.15,36.11L177.69,38.05L169.23,37.72L152.31,44.09L143.85,51.09L135.38,52.63L126.92,51.12L118.46,55.96L110,58.45L101.54,59.84L93.08,63.02L84.62,68.67L76.15,75.41L67.69,78.25L59.23,94.11L50.77,98.16L42.31,106.08L33.85,118.29L25.38,119.39L16.92,123.5L8.46,128.64L0,123.03Z" style="fill: rgb(245, 245, 245); fill-opacity: 1; stroke-width: 0;"/></g></g><g class="errorbars"/><g class="lines"><path class="js-line" d="M0,123.03L8.46,128.64L16.92,123.5L25.38,119.39L33.85,118.29L42.31,106.08L50.77,98.16L59.23,94.11L67.69,78.25L76.15,75.41L84.62,68.67L93.08,63.02L101.54,59.84L110,58.45L118.46,55.96L126.92,51.12L135.38,52.63L143.85,51.09L152.31,44.09L169.23,37.72L177.69,38.05L186.15,36.11L194.62,35.88L203.08,35.87L211.54,36.67L220,35.88L228.46,36.47L245.38,37.73L253.85,38.45L262.31,37.21L270.77,37.84L279.23,38.66L287.69,38.43L304.62,39.31L313.08,41.72L321.54,40.8L330,42.46L355.38,51.32L363.85,61.38L372.31,68.95L380.77,78.15L389.23,86.41L397.69,98.24L406.15,105.19L414.62,106.4L423.08,116.74L431.54,119.79L440,137.76" style="vector-effect: non-scaling-stroke; fill: none; stroke: rgb(0, 0, 0); stroke-opacity: 1; stroke-width: 0.5px; opacity: 1;"/></g><g class="points"/><g class="text"/></g><g class="trace scatter trace1ce066" style="stroke-miterlimit: 2;"><g class="fills"><g><path class="js-fill" d="M0,110.6L8.46,113.98L16.92,112.09L25.38,106.97L33.85,98.45L42.31,87.53L50.77,80.55L67.69,65.66L76.15,61.67L84.62,54.54L93.08,51.99L101.54,47.4L110,48.9L118.46,43.59L126.92,43.2L135.38,40.81L143.85,42.32L152.31,38.16L160.77,35.91L169.23,32.77L177.69,32.34L186.15,32.97L194.62,31.16L220,32.84L228.46,32.25L245.38,34.86L253.85,34.25L262.31,32.83L270.77,33.96L279.23,33.55L287.69,35.28L304.62,36.89L313.08,36.97L330,35.86L338.46,38.02L346.92,40.65L355.38,47.53L363.85,52.24L372.31,53.23L380.77,65.29L389.23,74.79L406.15,90.21L414.62,93.66L423.08,96.53L431.54,109.08L440,120.51L440,125.75L431.54,114.84L423.08,108.28L414.62,103.09L406.15,95.24L397.69,88.94L389.23,78.31L380.77,70.19L372.31,59.46L363.85,56.3L355.38,49.05L346.92,45.23L338.46,41.44L330,39.72L321.54,37.9L313.08,38.92L304.62,38.66L287.69,36.51L279.23,36.31L262.31,34.92L253.85,36.96L236.92,35.89L228.46,33.58L211.54,35.15L203.08,34.31L186.15,35.02L177.69,35.15L169.23,36.49L160.77,37.79L152.31,41.4L143.85,47.14L135.38,48.04L126.92,47.21L118.46,51.64L110,52.87L101.54,52.71L93.08,55.51L84.62,62.75L76.15,71.43L67.69,74.16L59.23,84.35L50.77,91.46L42.31,94.71L33.85,111.6L25.38,112.49L16.92,115.98L8.46,122.42L0,118.93Z" style="fill: rgb(245, 245, 245); fill-opacity: 1; stroke-width: 0;"/></g></g><g class="errorbars"/><g class="lines"><path class="js-line" d="M0,118.93L8.46,122.42L16.92,115.98L25.38,112.49L33.85,111.6L42.31,94.71L50.77,91.46L59.23,84.35L67.69,74.16L76.15,71.43L84.62,62.75L93.08,55.51L101.54,52.71L110,52.87L118.46,51.64L126.92,47.21L135.38,48.04L143.85,47.14L152.31,41.4L160.77,37.79L169.23,36.49L177.69,35.15L186.15,35.02L203.08,34.31L211.54,35.15L228.46,33.58L236.92,35.89L253.85,36.96L262.31,34.92L279.23,36.31L287.69,36.51L304.62,38.66L313.08,38.92L321.54,37.9L330,39.72L338.46,41.44L346.92,45.23L355.38,49.05L363.85,56.3L372.31,59.46L380.77,70.19L389.23,78.31L397.69,88.94L406.15,95.24L414.62,103.09L423.08,108.28L431.54,114.84L440,125.75" style="vector-effect: non-scaling-stroke; fill: none; stroke: rgb(0, 0, 0); stroke-opacity: 1; stroke-width: 1px; opacity: 1;"/></g><g class="points"/><g class="text"/></g><g class="trace scatter tracedfb4b0" style="stroke-miterlimit: 2;"><g class="fills"><g><path class="js-fill" d="M0,100.69L8.46,101.24L16.92,96.49L33.85,85.04L42.31,76.15L50.77,54.82L59.23,63.26L67.69,54.72L76.15,43.19L84.62,46.04L93.08,42.15L101.54,37.59L110,35.46L118.46,36.55L126.92,32.37L135.38,31.56L143.85,29.55L152.31,32.12L160.77,30.97L169.23,30.73L177.69,28.54L186.15,28.53L194.62,24.17L203.08,27.94L211.54,30.45L220,31.46L228.46,30.66L236.92,31.69L245.38,31.06L253.85,32.5L262.31,32.01L279.23,27.44L287.69,33.97L296.15,34.27L304.62,36.59L313.08,31.54L321.54,32.56L330,26.44L338.46,27.06L346.92,30.56L355.38,42.05L363.85,44.39L372.31,49.01L397.69,71.99L406.15,74.75L414.62,75.05L423.08,88.54L440,99.92L440,120.51L431.54,109.08L423.08,96.53L414.62,93.66L406.15,90.21L389.23,74.79L380.77,65.29L372.31,53.23L363.85,52.24L355.38,47.53L346.92,40.65L338.46,38.02L330,35.86L313.08,36.97L304.62,36.89L287.69,35.28L279.23,33.55L270.77,33.96L262.31,32.83L253.85,34.25L245.38,34.86L228.46,32.25L220,32.84L194.62,31.16L186.15,32.97L177.69,32.34L169.23,32.77L160.77,35.91L152.31,38.16L143.85,42.32L135.38,40.81L126.92,43.2L118.46,43.59L110,48.9L101.54,47.4L93.08,51.99L84.62,54.54L76.15,61.67L67.69,65.66L50.77,80.55L42.31,87.53L33.85,98.45L25.38,106.97L16.92,112.09L8.46,113.98L0,110.6Z" style="fill: rgb(216, 179, 101); fill-opacity: 1; stroke-width: 0;"/></g></g><g class="errorbars"/><g class="lines"><path class="js-line" d="M0,110.6L8.46,113.98L16.92,112.09L25.38,106.97L33.85,98.45L42.31,87.53L50.77,80.55L67.69,65.66L76.15,61.67L84.62,54.54L93.08,51.99L101.54,47.4L110,48.9L118.46,43.59L126.92,43.2L135.38,40.81L143.85,42.32L152.31,38.16L160.77,35.91L169.23,32.77L177.69,32.34L186.15,32.97L194.62,31.16L220,32.84L228.46,32.25L245.38,34.86L253.85,34.25L262.31,32.83L270.77,33.96L279.23,33.55L287.69,35.28L304.62,36.89L313.08,36.97L330,35.86L338.46,38.02L346.92,40.65L355.38,47.53L363.85,52.24L372.31,53.23L380.77,65.29L389.23,74.79L406.15,90.21L414.62,93.66L423.08,96.53L431.54,109.08L440,120.51" style="vector-effect: non-scaling-stroke; fill: none; stroke: rgb(0, 0, 0); stroke-opacity: 1; stroke-width: 0.5px; opacity: 1;"/></g><g class="points"/><g class="text"/></g><g class="trace scatter trace36fa71" style="stroke-miterlimit: 2;"><g class="fills"/><g class="errorbars"/><g class="lines"><path class="js-line" d="M0,100.69L8.46,101.24L16.92,96.49L33.85,85.04L42.31,76.15L50.77,54.82L59.23,63.26L67.69,54.72L76.15,43.19L84.62,46.04L93.08,42.15L101.54,37.59L110,35.46L118.46,36.55L126.92,32.37L135.38,31.56L143.85,29.55L152.31,32.12L160.77,30.97L169.23,30.73L177.69,28.54L186.15,28.53L194.62,24.17L203.08,27.94L211.54,30.45L220,31.46L228.46,30.66L236.92,31.69L245.38,31.06L253.85,32.5L262.31,32.01L279.23,27.44L287.69,33.97L296.15,34.27L304.62,36.59L313.08,31.54L321.54,32.56L330,26.44L338.46,27.06L346.92,30.56L355.38,42.05L363.85,44.39L372.31,49.01L397.69,71.99L406.15,74.75L414.62,75.05L423.08,88.54L440,99.92" style="vector-effect: non-scaling-stroke; fill: none; stroke: rgb(0, 0, 0); stroke-opacity: 1; stroke-width: 0.25px; opacity: 1;"/></g><g class="points"/><g class="text"/></g><g class="trace scatter traced2ecd2" style="stroke-miterlimit: 2; opacity: 1;"><g class="fills"/><g class="errorbars"/><g class="lines"/><g class="points"><path class="point" transform="translate(186.15,29.76)" d="M4,0A4,4 0 1,1 0,-4A4,4 0 0,1 4,0ZM0,0.5L0.5,0L0,-0.5L-0.5,0Z" style="opacity: 1; stroke: rgb(0, 0, 0); stroke-opacity: 1; stroke-width: 1px; fill: none;"/><path class="point" transform="translate(194.62,29.76)" d="M4,0A4,4 0 1,1 0,-4A4,4 0 0,1 4,0ZM0,0.5L0.5,0L0,-0.5L-0.5,0Z" style="opacity: 1; stroke: rgb(0, 0, 0); stroke-opacity: 1; stroke-width: 1px; fill: none;"/><path class="point" transform="translate(203.08,37.2)" d="M4,0A4,4 0 1,1 0,-4A4,4 0 0,1 4,0ZM0,0.5L0.5,0L0,-0.5L-0.5,0Z" style="opacity: 1; stroke: rgb(0, 0, 0); stroke-opacity: 1; stroke-width: 1px; fill: none;"/><path class="point" transform="translate(211.54,37.2)" d="M4,0A4,4 0 1,1 0,-4A4,4 0 0,1 4,0ZM0,0.5L0.5,0L0,-0.5L-0.5,0Z" style="opacity: 1; stroke: rgb(0, 0, 0); stroke-opacity: 1; stroke-width: 1px; fill: none;"/></g><g class="text"/></g></g></g><g class="overplot"/><path class="xlines-above crisp" d="M0,0" style="fill: none;"/><path class="ylines-above crisp" d="M0,0" style="fill: none;"/><g class="overlines-above"/><g class="xaxislayer-above"><g class="x3tick"><text text-anchor="middle" x="0" y="733" transform="translate(156.15,0)" style="font-family: 'Open Sans', verdana, arial, sans-serif; font-size: 12px; fill: rgb(42, 63, 95); fill-opacity: 1; white-space: pre; opacity: 1;">10</text></g><g class="x3tick"><text text-anchor="middle" x="0" y="733" style="font-family: 'Open Sans', verdana, arial, sans-serif; font-size: 12px; fill: rgb(42, 63, 95); fill-opacity: 1; white-space: pre; opacity: 1;" transform="translate(240.77,0)">20</text></g><g class="x3tick"><text text-anchor="middle" x="0" y="733" style="font-family: 'Open Sans', verdana, arial, sans-serif; font-size: 12px; fill: rgb(42, 63, 95); fill-opacity: 1; white-space: pre; opacity: 1;" transform="translate(325.38,0)">30</text></g><g class="x3tick"><text text-anchor="middle" x="0" y="733" style="font-family: 'Open Sans', verdana, arial, sans-serif; font-size: 12px; fill: rgb(42, 63, 95); fill-opacity: 1; white-space: pre; opacity: 1;" transform="translate(410,0)">40</text></g><g class="x3tick"><text text-anchor="middle" x="0" y="733" style="font-family: 'Open Sans', verdana, arial, sans-serif; font-size: 12px; fill: rgb(42, 63, 95); fill-opacity: 1; white-space: pre; opacity: 1;" transform="translate(494.62,0)">50</text></g></g><g class="yaxislayer-above"><g class="y3tick"><text text-anchor="end" x="79" y="4.199999999999999" transform="translate(0,720)" style="font-family: 'Open Sans', verdana, arial, sans-serif; font-size: 12px; fill: rgb(42, 63, 95); fill-opacity: 1; white-space: pre; opacity: 1;">5</text></g><g class="y3tick"><text text-anchor="end" x="79" y="4.199999999999999" style="font-family: 'Open Sans', verdana, arial, sans-serif; font-size: 12px; fill: rgb(42, 63, 95); fill-opacity: 1; white-space: pre; opacity: 1;" transform="translate(0,682.8)">10</text></g><g class="y3tick"><text text-anchor="end" x="79" y="4.199999999999999" style="font-family: 'Open Sans', verdana, arial, sans-serif; font-size: 12px; fill: rgb(42, 63, 95); fill-opacity: 1; white-space: pre; opacity: 1;" transform="translate(0,645.6)">15</text></g><g class="y3tick"><text text-anchor="end" x="79" y="4.199999999999999" style="font-family: 'Open Sans', verdana, arial, sans-serif; font-size: 12px; fill: rgb(42, 63, 95); fill-opacity: 1; white-space: pre; opacity: 1;" transform="translate(0,608.4)">20</text></g><g class="y3tick"><text text-anchor="end" x="79" y="4.199999999999999" style="font-family: 'Open Sans', verdana, arial, sans-serif; font-size: 12px; fill: rgb(42, 63, 95); fill-opacity: 1; white-space: pre; opacity: 1;" transform="translate(0,571.2)">25</text></g><g class="y3tick"><text text-anchor="end" x="79" y="4.199999999999999" style="font-family: 'Open Sans', verdana, arial, sans-serif; font-size: 12px; fill: rgb(42, 63, 95); fill-opacity: 1; white-space: pre; opacity: 1;" transform="translate(0,534)">30</text></g></g><g class="overaxes-above"/></g></g><g class="polarlayer"/><g class="smithlayer"/><g class="ternarylayer"/><g class="geolayer"/><g class="funnelarealayer"/><g class="pielayer"/><g class="iciclelayer"/><g class="treemaplayer"/><g class="sunburstlayer"/><g class="glimages"/><defs id="topdefs-e6a903"><g class="clips"/></defs><g class="layer-above"><g class="imagelayer"/><g class="shapelayer"/></g><g class="infolayer"><g class="g-gtitle"><text class="gtitle" x="30" y="50" text-anchor="start" dy="0em" style="font-family: 'Open Sans', verdana, arial, sans-serif; font-size: 17px; fill: rgb(42, 63, 95); opacity: 1; font-weight: normal; white-space: pre;">Climatology and S2S forecast for Jashore</text></g><g class="g-xtitle"/><g class="g-x2title"/><g class="g-x3title"/><g class="g-ytitle"><text class="ytitle" transform="rotate(-90,34.16875,193)" x="34.16875" y="193" text-anchor="middle" style="font-family: 'Open Sans', verdana, arial, sans-serif; font-size: 14px; fill: rgb(42, 63, 95); opacity: 1; font-weight: normal; white-space: pre;">[mm]</text></g><g class="g-y2title"><text class="y2title" transform="rotate(-90,40.840625,410.00000000000006)" x="40.840625" y="410.00000000000006" text-anchor="middle" style="font-family: 'Open Sans', verdana, arial, sans-serif; font-size: 14px; fill: rgb(42, 63, 95); opacity: 1; font-weight: normal; white-space: pre;">[C]</text></g><g class="g-y3title"><text class="y3title" transform="rotate(-90,40.840625,627)" x="40.840625" y="627" text-anchor="middle" style="font-family: 'Open Sans', verdana, arial, sans-serif; font-size: 14px; fill: rgb(42, 63, 95); opacity: 1; font-weight: normal; white-space: pre;">[C]</text></g><g class="annotation" data-index="0" style="opacity: 1;"><g class="annotation-text-g" transform="rotate(0,300,89.5)"><g class="cursor-pointer" transform="translate(237,79)"><rect class="bg" x="0.5" y="0.5" width="126" height="20" style="stroke-width: 1px; stroke: rgb(0, 0, 0); stroke-opacity: 0; fill: rgb(0, 0, 0); fill-opacity: 0;"/><text class="annotation-text" text-anchor="middle" x="63.359375" y="16" style="font-family: 'Open Sans', verdana, arial, sans-serif; font-size: 16px; fill: rgb(42, 63, 95); fill-opacity: 1; white-space: pre;">Precipitation sum</text></g></g></g><g class="annotation" data-index="1" style="opacity: 1;"><g class="annotation-text-g" transform="rotate(0,300,306.50000000000006)"><g class="cursor-pointer" transform="translate(196,296)"><rect class="bg" x="0.5" y="0.5" width="208" height="20" style="stroke-width: 1px; stroke: rgb(0, 0, 0); stroke-opacity: 0; fill: rgb(0, 0, 0); fill-opacity: 0;"/><text class="annotation-text" text-anchor="middle" x="104.265625" y="16" style="font-family: 'Open Sans', verdana, arial, sans-serif; font-size: 16px; fill: rgb(42, 63, 95); fill-opacity: 1; white-space: pre;">Mean maximum temperature</text></g></g></g><g class="annotation" data-index="2" style="opacity: 1;"><g class="annotation-text-g" transform="rotate(0,300,523.5)"><g class="cursor-pointer" transform="translate(198,513)"><rect class="bg" x="0.5" y="0.5" width="203" height="20" style="stroke-width: 1px; stroke: rgb(0, 0, 0); stroke-opacity: 0; fill: rgb(0, 0, 0); fill-opacity: 0;"/><text class="annotation-text" text-anchor="middle" x="102.046875" y="16" style="font-family: 'Open Sans', verdana, arial, sans-serif; font-size: 16px; fill: rgb(42, 63, 95); fill-opacity: 1; white-space: pre;">Mean minimum temperature</text></g></g></g><g class="annotation" data-index="3" style="opacity: 1;"><g class="annotation-text-g" transform="rotate(0,300,760.5)"><g class="cursor-pointer" transform="translate(277,750)"><rect class="bg" x="0.5" y="0.5" width="45" height="20" style="stroke-width: 1px; stroke: rgb(0, 0, 0); stroke-opacity: 0; fill: rgb(0, 0, 0); fill-opacity: 0;"/><text class="annotation-text" text-anchor="middle" x="22.3125" y="16" style="font-family: 'Open Sans', verdana, arial, sans-serif; font-size: 16px; fill: rgb(42, 63, 95); fill-opacity: 1; white-space: pre;">Week</text></g></g></g></g></svg>