<svg class="main-svg" xmlns="http://www.w3.org/2000/svg" xmlns:xlink="http://www.w3.org/1999/xlink" width="600" height="800" style="" viewBox="0 0 600 800"><rect x="0" y="0" width="600" height="800" style="fill: rgb(255, 255, 255); fill-opacity: 1;"/><defs id="defs-328361"><g class="clips"><clipPath id="clip328361xyplot" class="plotclip"><rect width="440" height="186.00000000000003"/></clipPath><clipPath id="clip328361x2y2plot" class="plotclip"><rect width="440" height="185.99999999999997"/></clipPath><clipPath id="clip328361x3y3plot" class="plotclip"><rect width="440" height="186"/></clipPath><clipPath class="axesclip" id="clip328361x"><rect x="80" y="0" width="440" height="800"/></clipPath><clipPath class="axesclip" id="clip328361y"><rect x="0" y="100" width="600" height="186.00000000000003"/></clipPath><clipPath class="axesclip" id="clip328361xy"><rect x="80" y="100" width="440" height="186.00000000000003"/></clipPath><clipPath class="axesclip" id="clip328361y2"><rect x="0" y="317.00000000000006" width="600" height="185.99999999999997"/></clipPath><clipPath class="axesclip" id="clip328361xy2"><rect x="80" y="317.00000000000006" width="440" height="185.99999999999997"/></clipPath><clipPath class="axesclip" id="clip328361y3"><rect x="0" y="534" width="600" height="186"/></clipPath><clipPath class="axesclip" id="clip328361xy3"><rect x="80" y="534" width="440" height="186"/></clipPath><clipPath class="axesclip" id="clip328361x2"><rect x="80" y="0" width="440" height="800"/></clipPath><clipPath class="axesclip" id="clip328361x2y"><rect x="80" y="100" width="440" height="186.00000000000003"/></clipPath><clipPath class="axesclip" id="clip328361x2y2"><rect x="80" y="317.00000000000006" width="440" height="185.99999999999997"/></clipPath><clipPath class="axesclip" id="clip328361x2y3"><rect x="80" y="534" width="440" height="186"/></clipPath><clipPath class="axesclip" id="clip328361x3"><rect x="80" y="0" width="440" height="800"/></clipPath><clipPath class="axesclip" id="clip328361x3y"><rect x="80" y="100" width="440" height="186.00000000000003"/></clipPath><clipPath class="axesclip" id="clip328361x3y2"><rect x="80" y="317.00000000000006" width="440" height="185.99999999999997"/></clipPath><clipPath class="axesclip" id="clip328361x3y3"><rect x="80" y="534" width="440" height="186"/></clipPath></g><g class="gradients"/><g class="patterns"/></defs><g class="bglayer"><rect class="bg" x="80" y="100" width="440" height="186.00000000000003" style="fill: rgb(229, 236, 246); fill-opacity: 1; stroke-width: 0;"/><rect class="bg" x="80" y="317.00000000000006" width="440" height="185.99999999999997" style="fill: rgb(229, 236, 246); fill-opacity: 1; stroke-width: 0;"/><rect class="bg" x="80" y="534" width="440" height="186" style="fill: rgb(229, 236, 246); fill-opacity: 1; stroke-width: 0;"/></g><g class="layer-below"><g class="imagelayer"/><g class="shapelayer"/></g><g class="cartesianlayer"><g class="subplot xy"><g class="layer-subplot"><g class="shapelayer"/><g class="imagelayer"/></g><g class="minor-gridlayer"><g class="x"/><g class="y"/></g><g class="gridlayer"><g class="x"><path class="xgrid crisp" transform="translate(156.15,0)" d="M0,100v186.00000000000003" style="stroke: rgb(255, 255, 255); stroke-opacity: 1; stroke-width: 1px;"/><path class="xgrid crisp" transform="translate(240.77,0)" d="M0,100v186.00000000000003" style="stroke: rgb(255, 255, 255); stroke-opacity: 1; stroke-width: 1px;"/><path class="xgrid crisp" transform="translate(325.38,0)" d="M0,100v186.00000000000003" style="stroke: rgb(255, 255, 255); stroke-opacity: 1; stroke-width: 1px;"/><path class="xgrid crisp" transform="translate(410,0)" d="M0,100v186.00000000000003" style="stroke: rgb(255, 255, 255); stroke-opacity: 1; stroke-width: 1px;"/><path class="xgrid crisp" transform="translate(494.62,0)" d="M0,100v186.00000000000003" style="stroke: rgb(255, 255, 255); stroke-opacity: 1; stroke-width: 1px;"/></g><g class="y"><path class="ygrid crisp" transform="translate(0,248.8)" d="M80,0h440" style="stroke: rgb(255, 255, 255); stroke-opacity: 1; stroke-width: 1px;"/><path class="ygrid crisp" transform="translate(0,211.6)" d="M80,0h440" style="stroke: rgb(255, 255, 255); stroke-opacity: 1; stroke-width: 1px;"/><path class="ygrid crisp" transform="translate(0,174.4)" d="M80,0h440" style="stroke: rgb(255, 255, 255); stroke-opacity: 1; stroke-width: 1px;"/><path class="ygrid crisp" transform="translate(0,137.2)" d="M80,0h440" style="stroke: rgb(255, 255, 255); stroke-opacity: 1; stroke-width: 1px;"/></g></g><g class="zerolinelayer"><path class="yzl zl crisp" transform="translate(0,286)" d="M80,0h440" style="stroke: rgb(255, 255, 255); stroke-opacity: 1; stroke-width: 2px;"/></g><path class="xlines-below"/><path class="ylines-below"/><g class="overlines-below"/><g class="xaxislayer-below"/><g class="yaxislayer-below"/><g class="overaxes-below"/><g class="plot" transform="translate(80,100)" clip-path="url(#clip328361xyplot)"><g class="scatterlayer mlayer"><g class="trace scatter traced717cc" style="stroke-miterlimit: 2;"><g class="fills"><g><path class="js-fill" d="M0,186L101.54,185.85L110,183.28L118.46,184.9L126.92,181.8L135.38,177.78L143.85,175.32L152.31,175.43L160.77,170.45L169.23,163.24L177.69,151.49L186.15,143.71L194.62,163.86L203.08,165.94L211.54,153.98L220,162.61L228.46,158.28L236.92,156.79L245.38,156.37L253.85,166.07L262.31,155.41L270.77,160.2L279.23,170.12L287.69,166.51L296.15,171.91L304.62,173.49L313.08,168.82L330,175.2L338.46,181.07L346.92,185L355.38,186L440,186L440,186L363.85,186L355.38,186L321.54,184.81L313.08,177.47L304.62,184.9L296.15,185.14L287.69,184.5L279.23,180.05L270.77,177.83L262.31,177.61L253.85,182.01L245.38,185.18L236.92,178.15L228.46,182.3L220,184.09L211.54,185.27L194.62,182.58L186.15,184.01L160.77,184.44L152.31,186L0,186Z" style="fill: rgb(224, 236, 244); fill-opacity: 1; stroke-width: 0;"/></g></g><g class="errorbars"/><g class="lines"><path class="js-line" d="M0,186L152.31,186L160.77,184.44L186.15,184.01L194.62,182.58L211.54,185.27L220,184.09L228.46,182.3L236.92,178.15L245.38,185.18L253.85,182.01L262.31,177.61L270.77,177.83L279.23,180.05L287.69,184.5L296.15,185.14L304.62,184.9L313.08,177.47L321.54,184.81L355.38,186L363.85,186L440,186" style="vector-effect: non-scaling-stroke; fill: none; stroke: rgb(0, 0, 0); stroke-opacity: 1; stroke-width: 0.25px; opacity: 1;"/></g><g class="points"/><g class="text"/></g><g class="trace scatter trace49d970" style="stroke-miterlimit: 2;"><g class="fills"><g><path class="js-fill" d="M0,186L84.62,185.59L93.08,185.1L101.54,182.32L110,173.17L118.46,175.57L126.92,170.28L135.38,167.92L143.85,160.97L152.31,161.08L160.77,148L169.23,150.89L177.69,135.3L186.15,132.35L194.62,130.61L203.08,152L211.54,136.65L220,155.12L228.46,136.59L236.92,138.78L245.38,133.62L253.85,149.29L262.31,142.57L270.77,146.85L279.23,145.78L287.69,159.15L296.15,164.75L304.62,161.12L313.08,149.09L321.54,140.45L330,169.96L338.46,164.34L346.92,178.96L355.38,185.59L363.85,184.97L372.31,185.98L380.77,186L440,186L440,186L355.38,186L346.92,185L338.46,181.07L330,175.2L313.08,168.82L304.62,173.49L296.15,171.91L287.69,166.51L279.23,170.12L270.77,160.2L262.31,155.41L253.85,166.07L245.38,156.37L236.92,156.79L228.46,158.28L220,162.61L211.54,153.98L203.08,165.94L194.62,163.86L186.15,143.71L177.69,151.49L169.23,163.24L160.77,170.45L152.31,175.43L143.85,175.32L135.38,177.78L126.92,181.8L118.46,184.9L110,183.28L101.54,185.85L0,186Z" style="fill: rgb(158, 188, 218); fill-opacity: 1; stroke-width: 0;"/></g></g><g class="errorbars"/><g class="lines"><path class="js-line" d="M0,186L101.54,185.85L110,183.28L118.46,184.9L126.92,181.8L135.38,177.78L143.85,175.32L152.31,175.43L160.77,170.45L169.23,163.24L177.69,151.49L186.15,143.71L194.62,163.86L203.08,165.94L211.54,153.98L220,162.61L228.46,158.28L236.92,156.79L245.38,156.37L253.85,166.07L262.31,155.41L270.77,160.2L279.23,170.12L287.69,166.51L296.15,171.91L304.62,173.49L313.08,168.82L330,175.2L338.46,181.07L346.92,185L355.38,186L440,186" style="vector-effect: non-scaling-stroke; fill: none; stroke: rgb(0, 0, 0); stroke-opacity: 1; stroke-width: 0.5px; opacity: 1;"/></g><g class="points"/><g class="text"/></g><g class="trace scatter traced9a3f8" style="stroke-miterlimit: 2;"><g class="fills"><g><path class="js-fill" d="M0,185.99L42.31,186L50.77,183.73L59.23,184.04L67.69,183.35L76.15,177.49L84.62,176.65L93.08,177.72L101.54,161.22L110,145.65L118.46,165.35L126.92,153.54L135.38,153.04L143.85,143.84L152.31,137.84L160.77,120.57L169.23,126.92L177.69,109.37L186.15,84.06L194.62,102.61L203.08,131.19L211.54,95.35L220,130.25L228.46,112.5L236.92,100.94L245.38,108.09L253.85,116.79L262.31,114.5L270.77,132.5L279.23,117.85L287.69,146.13L296.15,146.85L304.62,148.51L313.08,120.3L321.54,111.52L330,144.73L338.46,158.45L346.92,167.66L355.38,152.78L363.85,176.59L372.31,184.01L380.77,185.66L389.23,186L440,186L440,186L380.77,186L372.31,185.98L363.85,184.97L355.38,185.59L346.92,178.96L338.46,164.34L330,169.96L321.54,140.45L313.08,149.09L304.62,161.12L296.15,164.75L287.69,159.15L279.23,145.78L270.77,146.85L262.31,142.57L253.85,149.29L245.38,133.62L236.92,138.78L228.46,136.59L220,155.12L211.54,136.65L203.08,152L194.62,130.61L186.15,132.35L177.69,135.3L169.23,150.89L160.77,148L152.31,161.08L143.85,160.97L135.38,167.92L126.92,170.28L118.46,175.57L110,173.17L101.54,182.32L93.08,185.1L84.62,185.59L0,186Z" style="fill: rgb(158, 188, 218); fill-opacity: 1; stroke-width: 0;"/></g></g><g class="errorbars"/><g class="lines"><path class="js-line" d="M0,186L84.62,185.59L93.08,185.1L101.54,182.32L110,173.17L118.46,175.57L126.92,170.28L135.38,167.92L143.85,160.97L152.31,161.08L160.77,148L169.23,150.89L177.69,135.3L186.15,132.35L194.62,130.61L203.08,152L211.54,136.65L220,155.12L228.46,136.59L236.92,138.78L245.38,133.62L253.85,149.29L262.31,142.57L270.77,146.85L279.23,145.78L287.69,159.15L296.15,164.75L304.62,161.12L313.08,149.09L321.54,140.45L330,169.96L338.46,164.34L346.92,178.96L355.38,185.59L363.85,184.97L372.31,185.98L380.77,186L440,186" style="vector-effect: non-scaling-stroke; fill: none; stroke: rgb(0, 0, 0); stroke-opacity: 1; stroke-width: 1px; opacity: 1;"/></g><g class="points"/><g class="text"/></g><g class="trace scatter trace85f192" style="stroke-miterlimit: 2;"><g class="fills"><g><path class="js-fill" d="M0,185.99L42.31,186L50.77,180.53L59.23,183.62L67.69,179.8L76.15,165.07L84.62,164.55L93.08,168.75L101.54,133.35L110,96.91L118.46,140.96L126.92,127.44L135.38,126.73L143.85,121.42L152.31,104.29L160.77,46.46L169.23,102.85L177.69,73.63L186.15,47.27L194.62,46.64L203.08,81.99L211.54,23.16L220,83.84L228.46,55.34L236.92,56.67L245.38,67.92L253.85,74.41L262.31,91.27L270.77,92.84L279.23,47.52L287.69,126L296.15,114.3L304.62,128.43L313.08,95.47L321.54,51.05L330,137.94L338.46,133.63L346.92,167.38L355.38,129.67L363.85,162.67L372.31,183.59L380.77,185.54L389.23,186L440,186L440,186L389.23,186L380.77,185.66L372.31,184.01L363.85,176.59L355.38,152.78L346.92,167.66L338.46,158.45L330,144.73L321.54,111.52L313.08,120.3L304.62,148.51L296.15,146.85L287.69,146.13L279.23,117.85L270.77,132.5L262.31,114.5L253.85,116.79L245.38,108.09L236.92,100.94L228.46,112.5L220,130.25L211.54,95.35L203.08,131.19L194.62,102.61L186.15,84.06L177.69,109.37L169.23,126.92L160.77,120.57L152.31,137.84L143.85,143.84L135.38,153.04L126.92,153.54L118.46,165.35L110,145.65L101.54,161.22L93.08,177.72L84.62,176.65L76.15,177.49L67.69,183.35L59.23,184.04L50.77,183.73L42.31,186L0,185.99Z" style="fill: rgb(136, 86, 167); fill-opacity: 1; stroke-width: 0;"/></g></g><g class="errorbars"/><g class="lines"><path class="js-line" d="M0,185.99L42.31,186L50.77,183.73L59.23,184.04L67.69,183.35L76.15,177.49L84.62,176.65L93.08,177.72L101.54,161.22L110,145.65L118.46,165.35L126.92,153.54L135.38,153.04L143.85,143.84L152.31,137.84L160.77,120.57L169.23,126.92L177.69,109.37L186.15,84.06L194.62,102.61L203.08,131.19L211.54,95.35L220,130.25L228.46,112.5L236.92,100.94L245.38,108.09L253.85,116.79L262.31,114.5L270.77,132.5L279.23,117.85L287.69,146.13L296.15,146.85L304.62,148.51L313.08,120.3L321.54,111.52L330,144.73L338.46,158.45L346.92,167.66L355.38,152.78L363.85,176.59L372.31,184.01L380.77,185.66L389.23,186L440,186" style="vector-effect: non-scaling-stroke; fill: none; stroke: rgb(0, 0, 0); stroke-opacity: 1; stroke-width: 0.5px; opacity: 1;"/></g><g class="points"/><g class="text"/></g><g class="trace scatter trace12080e" style="stroke-miterlimit: 2;"><g class="fills"/><g class="errorbars"/><g class="lines"><path class="js-line" d="M0,185.99L42.31,186L50.77,180.53L59.23,183.62L67.69,179.8L76.15,165.07L84.62,164.55L93.08,168.75L101.54,133.35L110,96.91L118.46,140.96L126.92,127.44L135.38,126.73L143.85,121.42L152.31,104.29L160.77,46.46L169.23,102.85L177.69,73.63L186.15,47.27L194.62,46.64L203.08,81.99L211.54,23.16L220,83.84L228.46,55.34L236.92,56.67L245.38,67.92L253.85,74.41L262.31,91.27L270.77,92.84L279.23,47.52L287.69,126L296.15,114.3L304.62,128.43L313.08,95.47L321.54,51.05L330,137.94L338.46,133.63L346.92,167.38L355.38,129.67L363.85,162.67L372.31,183.59L380.77,185.54L389.23,186L440,186" style="vector-effect: non-scaling-stroke; fill: none; stroke: rgb(0, 0, 0); stroke-opacity: 1; stroke-width: 0.25px; opacity: 1;"/></g><g class="points"/><g class="text"/></g><g class="trace scatter tracefcc6f0" style="stroke-miterlimit: 2; opacity: 1;"><g class="fills"/><g class="errorbars"/><g class="lines"/><g class="points"><path class="point" transform="translate(186.15,186)" d="M4,0A4,4 0 1,1 0,-4A4,4 0 0,1 4,0ZM0,0.5L0.5,0L0,-0.5L-0.5,0Z" style="opacity: 1; stroke: rgb(0, 0, 0); stroke-opacity: 1; stroke-width: 1px; fill: none;"/><path class="point" transform="translate(194.62,175.58)" d="M4,0A4,4 0 1,1 0,-4A4,4 0 0,1 4,0ZM0,0.5L0.5,0L0,-0.5L-0.5,0Z" style="opacity: 1; stroke: rgb(0, 0, 0); stroke-opacity: 1; stroke-width: 1px; fill: none;"/><path class="point" transform="translate(203.08,110.86)" d="M4,0A4,4 0 1,1 0,-4A4,4 0 0,1 4,0ZM0,0.5L0.5,0L0,-0.5L-0.5,0Z" style="opacity: 1; stroke: rgb(0, 0, 0); stroke-opacity: 1; stroke-width: 1px; fill: none;"/><path class="point" transform="translate(211.54,110.86)" d="M4,0A4,4 0 1,1 0,-4A4,4 0 0,1 4,0ZM0,0.5L0.5,0L0,-0.5L-0.5,0Z" style="opacity: 1; stroke: rgb(0, 0, 0); stroke-opacity: 1; stroke-width: 1px; fill: none;"/></g><g class="text"/></g></g></g><g class="overplot"/><path class="xlines-above crisp" d="M0,0" style="fill: none;"/><path class="ylines-above crisp" d="M0,0" style="fill: none;"/><g class="overlines-above"/><g class="xaxislayer-above"/><g class="yaxislayer-above"><g class="ytick"><text text-anchor="end" x="79" y="4.199999999999999" transform="translate(0,286)" style="font-family: 'Open Sans', verdana, arial, sans-serif; font-size: 12px; fill: rgb(42, 63, 95); fill-opacity: 1; white-space: pre; opacity: 1;">0</text></g><g class="ytick"><text text-anchor="end" x="79" y="4.199999999999999" style="font-family: 'Open Sans', verdana, arial, sans-serif; font-size: 12px; fill: rgb(42, 63, 95); fill-opacity: 1; white-space: pre; opacity: 1;" transform="translate(0,248.8)">50</text></g><g class="ytick"><text text-anchor="end" x="79" y="4.199999999999999" style="font-family: 'Open Sans', verdana, arial, sans-serif; font-size: 12px; fill: rgb(42, 63, 95); fill-opacity: 1; white-space: pre; opacity: 1;" transform="translate(0,211.6)">100</text></g><g class="ytick"><text text-anchor="end" x="79" y="4.199999999999999" style="font-family: 'Open Sans', verdana, arial, sans-serif; font-size: 12px; fill: rgb(42, 63, 95); fill-opacity: 1; white-space: pre; opacity: 1;" transform="translate(0,174.4)">150</text></g><g class="ytick"><text text-anchor="end" x="79" y="4.199999999999999" style="font-family: 'Open Sans', verdana, arial, sans-serif; font-size: 12px; fill: rgb(42, 63, 95); fill-opacity: 1; white-space: pre; opacity: 1;" transform="translate(0,137.2)">200</text></g><g class="ytick"><text text-anchor="end" x="79" y="4.199999999999999" style="font-family: 'Open Sans', verdana, arial, sans-serif; font-size: 12px; fill: rgb(42, 63, 95); fill-opacity: 1; white-space: pre; opacity: 1;" transform="translate(0,100)">250</text></g></g><g class="overaxes-above"/></g><g class="subplot x2y2"><g class="layer-subplot"><g class="shapelayer"/><g class="imagelayer"/></g><g class="minor-gridlayer"><g class="x2"/><g class="y2"/></g><g class="gridlayer"><g class="x2"><path class="x2grid crisp" transform="translate(156.15,0)" d="M0,317.00000000000006v185.99999999999997" style="stroke: rgb(255, 255, 255); stroke-opacity: 1; stroke-width: 1px;"/><path class="x2grid crisp" transform="translate(240.77,0)" d="M0,317.00000000000006v185.99999999999997" style="stroke: rgb(255, 255, 255); stroke-opacity: 1; stroke-width: 1px;"/><path class="x2grid crisp" transform="translate(325.38,0)" d="M0,317.00000000000006v185.99999999999997" style="stroke: rgb(255, 255, 255); stroke-opacity: 1; stroke-width: 1px;"/><path class="x2grid crisp" transform="translate(410,0)" d="M0,317.00000000000006v185.99999999999997" style="stroke: rgb(255, 255, 255); stroke-opacity: 1; stroke-width: 1px;"/><path class="x2grid crisp" transform="translate(494.62,0)" d="M0,317.00000000000006v185.99999999999997" style="stroke: rgb(255, 255, 255); stroke-opacity: 1; stroke-width: 1px;"/></g><g class="y2"><path class="y2grid crisp" transform="translate(0,472.00000000000006)" d="M80,0h440" style="stroke: rgb(255, 255, 255); stroke-opacity: 1; stroke-width: 1px;"/><path class="y2grid crisp" transform="translate(0,410.00000000000006)" d="M80,0h440" style="stroke: rgb(255, 255, 255); stroke-opacity: 1; stroke-width: 1px;"/><path class="y2grid crisp" transform="translate(0,348.00000000000006)" d="M80,0h440" style="stroke: rgb(255, 255, 255); stroke-opacity: 1; stroke-width: 1px;"/></g></g><g class="zerolinelayer"/><path class="xlines-below"/><path class="ylines-below"/><g class="overlines-below"/><g class="xaxislayer-below"/><g class="yaxislayer-below"/><g class="overaxes-below"/><g class="plot" transform="translate(80,317.00000000000006)" clip-path="url(#clip328361x2y2plot)"><g class="scatterlayer mlayer"><g class="trace scatter tracebb77b4" style="stroke-miterlimit: 2;"><g class="fills"><g><path class="js-fill" d="M0,139.63L8.46,148.6L16.92,135.19L25.38,132.95L33.85,124.47L50.77,108.52L59.23,98.48L67.69,93.76L76.15,87.76L84.62,75.96L93.08,79.35L101.54,86.52L110,89.46L118.46,84.67L126.92,83.33L143.85,90.83L152.31,82.88L160.77,88.01L169.23,85.15L177.69,88.87L186.15,90.52L194.62,89.47L203.08,91.49L211.54,95.56L220,93.49L228.46,91.87L236.92,95.19L245.38,91.61L253.85,92.87L262.31,92.19L270.77,95.44L287.69,91.98L296.15,93.57L304.62,92.8L313.08,95.77L330,93.04L338.46,95.26L346.92,94.06L355.38,91.73L372.31,95.95L380.77,98.98L397.69,114.17L406.15,124.8L414.62,126.44L423.08,136.13L440,139.98L440,145.71L431.54,145.82L423.08,152.98L414.62,134.8L406.15,136.28L389.23,110.99L380.77,101.55L372.31,101.89L363.85,100.77L355.38,101.61L346.92,106.06L338.46,101.97L330,105.73L321.54,101.33L313.08,103.83L304.62,96.79L296.15,107.25L287.69,98L279.23,104.54L270.77,107.38L262.31,101.42L253.85,98.36L245.38,101.85L236.92,102.29L228.46,102.66L220,108.7L211.54,101.46L203.08,98.05L194.62,95.65L169.23,96.71L160.77,97.77L152.31,94.39L143.85,100.64L135.38,99.94L126.92,97.11L118.46,97.93L110,93.5L101.54,98.27L93.08,92.38L84.62,85.09L76.15,104.54L67.69,117.69L59.23,115.54L50.77,126.07L42.31,130.03L33.85,140.92L25.38,134.22L16.92,141.67L8.46,155.91L0,157.72Z" style="fill: rgb(145, 191, 219); fill-opacity: 1; stroke-width: 0;"/></g></g><g class="errorbars"/><g class="lines"><path class="js-line" d="M0,157.72L8.46,155.91L16.92,141.67L25.38,134.22L33.85,140.92L42.31,130.03L50.77,126.07L59.23,115.54L67.69,117.69L76.15,104.54L84.62,85.09L93.08,92.38L101.54,98.27L110,93.5L118.46,97.93L126.92,97.11L135.38,99.94L143.85,100.64L152.31,94.39L160.77,97.77L169.23,96.71L194.62,95.65L203.08,98.05L211.54,101.46L220,108.7L228.46,102.66L236.92,102.29L245.38,101.85L253.85,98.36L262.31,101.42L270.77,107.38L279.23,104.54L287.69,98L296.15,107.25L304.62,96.79L313.08,103.83L321.54,101.33L330,105.73L338.46,101.97L346.92,106.06L355.38,101.61L363.85,100.77L372.31,101.89L380.77,101.55L389.23,110.99L406.15,136.28L414.62,134.8L423.08,152.98L431.54,145.82L440,145.71" style="vector-effect: non-scaling-stroke; fill: none; stroke: rgb(0, 0, 0); stroke-opacity: 1; stroke-width: 0.25px; opacity: 1;"/></g><g class="points"/><g class="text"/></g><g class="trace scatter tracef3de28" style="stroke-miterlimit: 2;"><g class="fills"><g><path class="js-fill" d="M0,133.99L8.46,137.62L16.92,128.9L25.38,125.12L33.85,117.72L42.31,107.01L50.77,101.56L59.23,92.23L67.69,80.84L76.15,82.33L84.62,69.83L93.08,64.36L101.54,74.06L110,78.36L118.46,72.13L126.92,77.69L135.38,80.78L143.85,83.97L152.31,78.68L160.77,80.91L169.23,81.15L177.69,83.31L186.15,84.4L194.62,87.12L203.08,87.41L220,88.41L228.46,86.58L236.92,87.9L245.38,87.18L253.85,88.6L262.31,86.52L270.77,88.47L279.23,87.51L304.62,89.67L313.08,89.66L321.54,89.87L330,88.55L338.46,89.25L346.92,86.68L355.38,84.69L363.85,91.1L372.31,93.03L380.77,97.36L389.23,104.29L397.69,108.76L406.15,117.92L414.62,122.6L423.08,123.99L431.54,132.79L440,132.34L440,139.98L423.08,136.13L414.62,126.44L406.15,124.8L397.69,114.17L380.77,98.98L372.31,95.95L355.38,91.73L346.92,94.06L338.46,95.26L330,93.04L313.08,95.77L304.62,92.8L296.15,93.57L287.69,91.98L270.77,95.44L262.31,92.19L253.85,92.87L245.38,91.61L236.92,95.19L228.46,91.87L220,93.49L211.54,95.56L203.08,91.49L194.62,89.47L186.15,90.52L177.69,88.87L169.23,85.15L160.77,88.01L152.31,82.88L143.85,90.83L126.92,83.33L118.46,84.67L110,89.46L101.54,86.52L93.08,79.35L84.62,75.96L76.15,87.76L67.69,93.76L59.23,98.48L50.77,108.52L33.85,124.47L25.38,132.95L16.92,135.19L8.46,148.6L0,139.63Z" style="fill: rgb(255, 255, 191); fill-opacity: 1; stroke-width: 0;"/></g></g><g class="errorbars"/><g class="lines"><path class="js-line" d="M0,139.63L8.46,148.6L16.92,135.19L25.38,132.95L33.85,124.47L50.77,108.52L59.23,98.48L67.69,93.76L76.15,87.76L84.62,75.96L93.08,79.35L101.54,86.52L110,89.46L118.46,84.67L126.92,83.33L143.85,90.83L152.31,82.88L160.77,88.01L169.23,85.15L177.69,88.87L186.15,90.52L194.62,89.47L203.08,91.49L211.54,95.56L220,93.49L228.46,91.87L236.92,95.19L245.38,91.61L253.85,92.87L262.31,92.19L270.77,95.44L287.69,91.98L296.15,93.57L304.62,92.8L313.08,95.77L330,93.04L338.46,95.26L346.92,94.06L355.38,91.73L372.31,95.95L380.77,98.98L397.69,114.17L406.15,124.8L414.62,126.44L423.08,136.13L440,139.98" style="vector-effect: non-scaling-stroke; fill: none; stroke: rgb(0, 0, 0); stroke-opacity: 1; stroke-width: 0.5px; opacity: 1;"/></g><g class="points"/><g class="text"/></g><g class="trace scatter traceaf4e74" style="stroke-miterlimit: 2;"><g class="fills"><g><path class="js-fill" d="M0,126.2L8.46,129.14L16.92,121.46L25.38,121.95L33.85,112.71L42.31,103.09L50.77,94.91L59.23,86.57L67.69,73.38L76.15,72.32L84.62,64.56L93.08,56.21L101.54,59.63L110,63.12L118.46,67.87L126.92,67.77L135.38,62.28L143.85,74.8L152.31,69.95L160.77,69.52L169.23,75.75L177.69,75.68L186.15,79.3L194.62,83.64L203.08,85.06L211.54,80.55L220,80.48L228.46,82.18L236.92,82.82L245.38,81.51L253.85,82.95L262.31,79.75L270.77,82.17L279.23,80.63L287.69,82.51L296.15,82L304.62,83.57L313.08,84.75L321.54,84.19L330,79.46L338.46,79.06L346.92,79.05L355.38,82.39L363.85,85.07L372.31,90.4L380.77,95.26L389.23,98.56L397.69,104.31L406.15,111.76L414.62,115.35L423.08,121.01L431.54,122.21L440,119.74L440,132.34L431.54,132.79L423.08,123.99L414.62,122.6L406.15,117.92L397.69,108.76L389.23,104.29L380.77,97.36L372.31,93.03L363.85,91.1L355.38,84.69L346.92,86.68L338.46,89.25L330,88.55L321.54,89.87L313.08,89.66L304.62,89.67L279.23,87.51L270.77,88.47L262.31,86.52L253.85,88.6L245.38,87.18L236.92,87.9L228.46,86.58L220,88.41L203.08,87.41L194.62,87.12L186.15,84.4L177.69,83.31L169.23,81.15L160.77,80.91L152.31,78.68L143.85,83.97L135.38,80.78L126.92,77.69L118.46,72.13L110,78.36L101.54,74.06L93.08,64.36L84.62,69.83L76.15,82.33L67.69,80.84L59.23,92.23L50.77,101.56L42.31,107.01L33.85,117.72L25.38,125.12L16.92,128.9L8.46,137.62L0,133.99Z" style="fill: rgb(255, 255, 191); fill-opacity: 1; stroke-width: 0;"/></g></g><g class="errorbars"/><g class="lines"><path class="js-line" d="M0,133.99L8.46,137.62L16.92,128.9L25.38,125.12L33.85,117.72L42.31,107.01L50.77,101.56L59.23,92.23L67.69,80.84L76.15,82.33L84.62,69.83L93.08,64.36L101.54,74.06L110,78.36L118.46,72.13L126.92,77.69L135.38,80.78L143.85,83.97L152.31,78.68L160.77,80.91L169.23,81.15L177.69,83.31L186.15,84.4L194.62,87.12L203.08,87.41L220,88.41L228.46,86.58L236.92,87.9L245.38,87.18L253.85,88.6L262.31,86.52L270.77,88.47L279.23,87.51L304.62,89.67L313.08,89.66L321.54,89.87L330,88.55L338.46,89.25L346.92,86.68L355.38,84.69L363.85,91.1L372.31,93.03L380.77,97.36L389.23,104.29L397.69,108.76L406.15,117.92L414.62,122.6L423.08,123.99L431.54,132.79L440,132.34" style="vector-effect: non-scaling-stroke; fill: none; stroke: rgb(0, 0, 0); stroke-opacity: 1; stroke-width: 1px; opacity: 1;"/></g><g class="points"/><g class="text"/></g><g class="trace scatter trace3feb02" style="stroke-miterlimit: 2;"><g class="fills"><g><path class="js-fill" d="M0,115.55L8.46,116.66L16.92,115.26L25.38,111.65L33.85,106.47L42.31,87.88L50.77,87.4L67.69,63.01L76.15,56.47L84.62,48.38L93.08,52.96L101.54,45.22L110,44.19L118.46,52.5L126.92,56.35L135.38,30.97L143.85,63.11L152.31,59.06L160.77,53.97L169.23,63.86L177.69,63.51L186.15,69.58L194.62,76.65L203.08,77.27L211.54,66.09L220,70.92L228.46,68.07L236.92,70.05L245.38,68.56L253.85,71.93L262.31,66.31L270.77,71.21L279.23,66.2L287.69,68.51L296.15,66.75L304.62,69.86L313.08,68.61L321.54,70.12L330,68.29L338.46,60.36L346.92,65.07L355.38,76.11L363.85,77.17L372.31,84.14L380.77,93.09L389.23,96.01L397.69,93.68L406.15,101.32L414.62,110.41L423.08,113.11L431.54,118.15L440,112.2L440,119.74L431.54,122.21L423.08,121.01L414.62,115.35L406.15,111.76L397.69,104.31L389.23,98.56L380.77,95.26L372.31,90.4L363.85,85.07L355.38,82.39L346.92,79.05L338.46,79.06L330,79.46L321.54,84.19L313.08,84.75L304.62,83.57L296.15,82L287.69,82.51L279.23,80.63L270.77,82.17L262.31,79.75L253.85,82.95L245.38,81.51L236.92,82.82L228.46,82.18L220,80.48L211.54,80.55L203.08,85.06L194.62,83.64L186.15,79.3L177.69,75.68L169.23,75.75L160.77,69.52L152.31,69.95L143.85,74.8L135.38,62.28L126.92,67.77L118.46,67.87L110,63.12L101.54,59.63L93.08,56.21L84.62,64.56L76.15,72.32L67.69,73.38L59.23,86.57L50.77,94.91L42.31,103.09L33.85,112.71L25.38,121.95L16.92,121.46L8.46,129.14L0,126.2Z" style="fill: rgb(252, 141, 89); fill-opacity: 1; stroke-width: 0;"/></g></g><g class="errorbars"/><g class="lines"><path class="js-line" d="M0,126.2L8.46,129.14L16.92,121.46L25.38,121.95L33.85,112.71L42.31,103.09L50.77,94.91L59.23,86.57L67.69,73.38L76.15,72.32L84.62,64.56L93.08,56.21L101.54,59.63L110,63.12L118.46,67.87L126.92,67.77L135.38,62.28L143.85,74.8L152.31,69.95L160.77,69.52L169.23,75.75L177.69,75.68L186.15,79.3L194.62,83.64L203.08,85.06L211.54,80.55L220,80.48L228.46,82.18L236.92,82.82L245.38,81.51L253.85,82.95L262.31,79.75L270.77,82.17L279.23,80.63L287.69,82.51L296.15,82L304.62,83.57L313.08,84.75L321.54,84.19L330,79.46L338.46,79.06L346.92,79.05L355.38,82.39L363.85,85.07L372.31,90.4L380.77,95.26L389.23,98.56L397.69,104.31L406.15,111.76L414.62,115.35L423.08,121.01L431.54,122.21L440,119.74" style="vector-effect: non-scaling-stroke; fill: none; stroke: rgb(0, 0, 0); stroke-opacity: 1; stroke-width: 0.5px; opacity: 1;"/></g><g class="points"/><g class="text"/></g><g class="trace scatter traceb060e7" style="stroke-miterlimit: 2;"><g class="fills"/><g class="errorbars"/><g class="lines"><path class="js-line" d="M0,115.55L8.46,116.66L16.92,115.26L25.38,111.65L33.85,106.47L42.31,87.88L50.77,87.4L67.69,63.01L76.15,56.47L84.62,48.38L93.08,52.96L101.54,45.22L110,44.19L118.46,52.5L126.92,56.35L135.38,30.97L143.85,63.11L152.31,59.06L160.77,53.97L169.23,63.86L177.69,63.51L186.15,69.58L194.62,76.65L203.08,77.27L211.54,66.09L220,70.92L228.46,68.07L236.92,70.05L245.38,68.56L253.85,71.93L262.31,66.31L270.77,71.21L279.23,66.2L287.69,68.51L296.15,66.75L304.62,69.86L313.08,68.61L321.54,70.12L330,68.29L338.46,60.36L346.92,65.07L355.38,76.11L363.85,77.17L372.31,84.14L380.77,93.09L389.23,96.01L397.69,93.68L406.15,101.32L414.62,110.41L423.08,113.11L431.54,118.15L440,112.2" style="vector-effect: non-scaling-stroke; fill: none; stroke: rgb(0, 0, 0); stroke-opacity: 1; stroke-width: 0.25px; opacity: 1;"/></g><g class="points"/><g class="text"/></g><g class="trace scatter trace367ea2" style="stroke-miterlimit: 2; opacity: 1;"><g class="fills"/><g class="errorbars"/><g class="lines"/><g class="points"><path class="point" transform="translate(186.15,37.2)" d="M4,0A4,4 0 1,1 0,-4A4,4 0 0,1 4,0ZM0,0.5L0.5,0L0,-0.5L-0.5,0Z" style="opacity: 1; stroke: rgb(0, 0, 0); stroke-opacity: 1; stroke-width: 1px; fill: none;"/><path class="point" transform="translate(194.62,55.8)" d="M4,0A4,4 0 1,1 0,-4A4,4 0 0,1 4,0ZM0,0.5L0.5,0L0,-0.5L-0.5,0Z" style="opacity: 1; stroke: rgb(0, 0, 0); stroke-opacity: 1; stroke-width: 1px; fill: none;"/><path class="point" transform="translate(203.08,80.6)" d="M4,0A4,4 0 1,1 0,-4A4,4 0 0,1 4,0ZM0,0.5L0.5,0L0,-0.5L-0.5,0Z" style="opacity: 1; stroke: rgb(0, 0, 0); stroke-opacity: 1; stroke-width: 1px; fill: none;"/><path class="point" transform="translate(211.54,80.6)" d="M4,0A4,4 0 1,1 0,-4A4,4 0 0,1 4,0ZM0,0.5L0.5,0L0,-0.5L-0.5,0Z" style="opacity: 1; stroke: rgb(0, 0, 0); stroke-opacity: 1; stroke-width: 1px; fill: none;"/></g><g class="text"/></g></g></g><g class="overplot"/><path class="xlines-above crisp" d="M0,0" style="fill: none;"/><path class="ylines-above crisp" d="M0,0" style="fill: none;"/><g class="overlines-above"/><g class="xaxislayer-above"/><g class="yaxislayer-above"><g class="y2tick"><text text-anchor="end" x="79" y="4.199999999999999" transform="translate(0,472.00000000000006)" style="font-family: 'Open Sans', verdana, arial, sans-serif; font-size: 12px; fill: rgb(42, 63, 95); fill-opacity: 1; white-space: pre; opacity: 1;">20</text></g><g class="y2tick"><text text-anchor="end" x="79" y="4.199999999999999" style="font-family: 'Open Sans', verdana, arial, sans-serif; font-size: 12px; fill: rgb(42, 63, 95); fill-opacity: 1; white-space: pre; opacity: 1;" transform="translate(0,410.00000000000006)">30</text></g><g class="y2tick"><text text-anchor="end" x="79" y="4.199999999999999" style="font-family: 'Open Sans', verdana, arial, sans-serif; font-size: 12px; fill: rgb(42, 63, 95); fill-opacity: 1; white-space: pre; opacity: 1;" transform="translate(0,348.00000000000006)">40</text></g></g><g class="overaxes-above"/></g><g class="subplot x3y3"><g class="layer-subplot"><g class="shapelayer"/><g class="imagelayer"/></g><g class="minor-gridlayer"><g class="x3"/><g class="y3"/></g><g class="gridlayer"><g class="x3"><path class="x3grid crisp" transform="translate(156.15,0)" d="M0,534v186" style="stroke: rgb(255, 255, 255); stroke-opacity: 1; stroke-width: 1px;"/><path class="x3grid crisp" transform="translate(240.77,0)" d="M0,534v186" style="stroke: rgb(255, 255, 255); stroke-opacity: 1; stroke-width: 1px;"/><path class="x3grid crisp" transform="translate(325.38,0)" d="M0,534v186" style="stroke: rgb(255, 255, 255); stroke-opacity: 1; stroke-width: 1px;"/><path class="x3grid crisp" transform="translate(410,0)" d="M0,534v186" style="stroke: rgb(255, 255, 255); stroke-opacity: 1; stroke-width: 1px;"/><path class="x3grid crisp" transform="translate(494.62,0)" d="M0,534v186" style="stroke: rgb(255, 255, 255); stroke-opacity: 1; stroke-width: 1px;"/></g><g class="y3"><path class="y3grid crisp" transform="translate(0,682.8)" d="M80,0h440" style="stroke: rgb(255, 255, 255); stroke-opacity: 1; stroke-width: 1px;"/><path class="y3grid crisp" transform="translate(0,645.6)" d="M80,0h440" style="stroke: rgb(255, 255, 255); stroke-opacity: 1; stroke-width: 1px;"/><path class="y3grid crisp" transform="translate(0,608.4)" d="M80,0h440" style="stroke: rgb(255, 255, 255); stroke-opacity: 1; stroke-width: 1px;"/><path class="y3grid crisp" transform="translate(0,571.2)" d="M80,0h440" style="stroke: rgb(255, 255, 255); stroke-opacity: 1; stroke-width: 1px;"/></g></g><g class="zerolinelayer"/><path class="xlines-below"/><path class="ylines-below"/><g class="overlines-below"/><g class="xaxislayer-below"/><g class="yaxislayer-below"/><g class="overaxes-below"/><g class="plot" transform="translate(80,534)" clip-path="url(#clip328361x3y3plot)"><g class="scatterlayer mlayer"><g class="trace scatter tracef3f7f4" style="stroke-miterlimit: 2;"><g class="fills"><g><path class="js-fill" d="M0,119.1L8.46,127.21L16.92,120.15L25.38,121.65L33.85,116.23L42.31,105.73L50.77,98.86L59.23,93.26L67.69,81.13L76.15,79.71L84.62,68.83L101.54,61.99L110,59.85L118.46,58.87L126.92,51.78L135.38,54.55L143.85,51.28L152.31,45.97L160.77,43.01L177.69,39.54L186.15,39.17L194.62,37.92L203.08,37.55L220,36.99L228.46,37.84L245.38,38.66L253.85,38.86L262.31,37.87L270.77,37.91L279.23,39.12L287.69,38.27L304.62,41.12L313.08,41.35L321.54,41.12L330,42.85L346.92,49.9L355.38,50L363.85,57.49L372.31,63.9L380.77,71.03L389.23,81.16L397.69,92.96L406.15,100.1L414.62,104.06L423.08,115.77L431.54,116.61L440,123.37L440,130.85L431.54,126.19L423.08,123.54L414.62,118.18L406.15,114.28L397.69,102.26L389.23,86.89L380.77,79.3L372.31,72.86L363.85,62.87L355.38,53.25L346.92,56.35L338.46,49.84L321.54,45.74L313.08,45.88L304.62,44.83L296.15,41.7L287.69,41.09L279.23,42.74L270.77,43.41L262.31,42.03L253.85,42.53L245.38,43.22L236.92,40.93L228.46,39.82L211.54,40.12L203.08,42.07L194.62,41.97L186.15,43.37L177.69,42.12L169.23,45.28L160.77,49.31L152.31,52.17L143.85,57.17L135.38,59.72L126.92,59.89L118.46,65.97L110,70.58L101.54,69.02L93.08,74.6L84.62,88.51L76.15,89.5L67.69,101.25L50.77,111.79L42.31,122.08L33.85,128.02L25.38,130.08L16.92,126.54L8.46,137.89L0,127.9Z" style="fill: rgb(90, 180, 172); fill-opacity: 1; stroke-width: 0;"/></g></g><g class="errorbars"/><g class="lines"><path class="js-line" d="M0,127.9L8.46,137.89L16.92,126.54L25.38,130.08L33.85,128.02L42.31,122.08L50.77,111.79L67.69,101.25L76.15,89.5L84.62,88.51L93.08,74.6L101.54,69.02L110,70.58L118.46,65.97L126.92,59.89L135.38,59.72L143.85,57.17L152.31,52.17L160.77,49.31L169.23,45.28L177.69,42.12L186.15,43.37L194.62,41.97L203.08,42.07L211.54,40.12L228.46,39.82L236.92,40.93L245.38,43.22L253.85,42.53L262.31,42.03L270.77,43.41L279.23,42.74L287.69,41.09L296.15,41.7L304.62,44.83L313.08,45.88L321.54,45.74L338.46,49.84L346.92,56.35L355.38,53.25L363.85,62.87L372.31,72.86L380.77,79.3L389.23,86.89L397.69,102.26L406.15,114.28L414.62,118.18L423.08,123.54L431.54,126.19L440,130.85" style="vector-effect: non-scaling-stroke; fill: none; stroke: rgb(0, 0, 0); stroke-opacity: 1; stroke-width: 0.25px; opacity: 1;"/></g><g class="points"/><g class="text"/></g><g class="trace scatter trace843fe0" style="stroke-miterlimit: 2;"><g class="fills"><g><path class="js-fill" d="M0,112.87L8.46,118.07L16.92,115.02L25.38,108.52L33.85,109.47L42.31,99.65L50.77,91.9L59.23,83.58L67.69,73.68L76.15,72.6L84.62,63.33L93.08,56.46L101.54,55.5L110,57.14L118.46,53.21L126.92,48.44L135.38,49.44L143.85,48.99L152.31,44.65L160.77,40.47L169.23,39.98L186.15,36.87L194.62,36.75L211.54,35.79L220,35.13L236.92,36.52L245.38,37.38L253.85,37.89L262.31,34.42L270.77,36.51L279.23,36.71L296.15,38.56L304.62,39.56L321.54,39.22L330,40.63L346.92,44.39L355.38,47.92L363.85,54.7L372.31,59.5L380.77,66.63L389.23,75.33L397.69,83.94L406.15,88.82L414.62,98.38L423.08,103.58L440,120.62L440,123.37L431.54,116.61L423.08,115.77L414.62,104.06L406.15,100.1L397.69,92.96L389.23,81.16L380.77,71.03L372.31,63.9L363.85,57.49L355.38,50L346.92,49.9L330,42.85L321.54,41.12L313.08,41.35L304.62,41.12L287.69,38.27L279.23,39.12L270.77,37.91L262.31,37.87L253.85,38.86L245.38,38.66L228.46,37.84L220,36.99L203.08,37.55L194.62,37.92L186.15,39.17L177.69,39.54L160.77,43.01L152.31,45.97L143.85,51.28L135.38,54.55L126.92,51.78L118.46,58.87L110,59.85L101.54,61.99L84.62,68.83L76.15,79.71L67.69,81.13L59.23,93.26L50.77,98.86L42.31,105.73L33.85,116.23L25.38,121.65L16.92,120.15L8.46,127.21L0,119.1Z" style="fill: rgb(245, 245, 245); fill-opacity: 1; stroke-width: 0;"/></g></g><g class="errorbars"/><g class="lines"><path class="js-line" d="M0,119.1L8.46,127.21L16.92,120.15L25.38,121.65L33.85,116.23L42.31,105.73L50.77,98.86L59.23,93.26L67.69,81.13L76.15,79.71L84.62,68.83L101.54,61.99L110,59.85L118.46,58.87L126.92,51.78L135.38,54.55L143.85,51.28L152.31,45.97L160.77,43.01L177.69,39.54L186.15,39.17L194.62,37.92L203.08,37.55L220,36.99L228.46,37.84L245.38,38.66L253.85,38.86L262.31,37.87L270.77,37.91L279.23,39.12L287.69,38.27L304.62,41.12L313.08,41.35L321.54,41.12L330,42.85L346.92,49.9L355.38,50L363.85,57.49L372.31,63.9L380.77,71.03L389.23,81.16L397.69,92.96L406.15,100.1L414.62,104.06L423.08,115.77L431.54,116.61L440,123.37" style="vector-effect: non-scaling-stroke; fill: none; stroke: rgb(0, 0, 0); stroke-opacity: 1; stroke-width: 0.5px; opacity: 1;"/></g><g class="points"/><g class="text"/></g><g class="trace scatter tracec93aea" style="stroke-miterlimit: 2;"><g class="fills"><g><path class="js-fill" d="M0,108.34L8.46,111.92L16.92,108.94L25.38,106.54L33.85,98.68L42.31,89.97L50.77,85.03L59.23,77.04L67.69,65.44L76.15,64.88L84.62,54.7L101.54,49.42L110,51.48L135.38,39.59L143.85,44.15L160.77,38.24L169.23,35.81L177.69,34.62L186.15,34.25L203.08,33.95L211.54,34.57L228.46,33.06L236.92,35.48L253.85,34.91L262.31,32.3L270.77,34.09L279.23,34.58L296.15,35.26L304.62,37.43L321.54,36.76L330,35.11L338.46,37.95L346.92,38.44L355.38,45.74L363.85,51.92L372.31,54.74L380.77,63.47L397.69,75.43L406.15,83.75L414.62,88.44L423.08,90.9L431.54,99.93L440,116.33L440,120.62L423.08,103.58L414.62,98.38L406.15,88.82L397.69,83.94L389.23,75.33L380.77,66.63L372.31,59.5L363.85,54.7L355.38,47.92L346.92,44.39L330,40.63L321.54,39.22L304.62,39.56L296.15,38.56L279.23,36.71L270.77,36.51L262.31,34.42L253.85,37.89L245.38,37.38L236.92,36.52L220,35.13L211.54,35.79L194.62,36.75L186.15,36.87L169.23,39.98L160.77,40.47L152.31,44.65L143.85,48.99L135.38,49.44L126.92,48.44L118.46,53.21L110,57.14L101.54,55.5L93.08,56.46L84.62,63.33L76.15,72.6L67.69,73.68L59.23,83.58L50.77,91.9L42.31,99.65L33.85,109.47L25.38,108.52L16.92,115.02L8.46,118.07L0,112.87Z" style="fill: rgb(245, 245, 245); fill-opacity: 1; stroke-width: 0;"/></g></g><g class="errorbars"/><g class="lines"><path class="js-line" d="M0,112.87L8.46,118.07L16.92,115.02L25.38,108.52L33.85,109.47L42.31,99.65L50.77,91.9L59.23,83.58L67.69,73.68L76.15,72.6L84.62,63.33L93.08,56.46L101.54,55.5L110,57.14L118.46,53.21L126.92,48.44L135.38,49.44L143.85,48.99L152.31,44.65L160.77,40.47L169.23,39.98L186.15,36.87L194.62,36.75L211.54,35.79L220,35.13L236.92,36.52L245.38,37.38L253.85,37.89L262.31,34.42L270.77,36.51L279.23,36.71L296.15,38.56L304.62,39.56L321.54,39.22L330,40.63L346.92,44.39L355.38,47.92L363.85,54.7L372.31,59.5L380.77,66.63L389.23,75.33L397.69,83.94L406.15,88.82L414.62,98.38L423.08,103.58L440,120.62" style="vector-effect: non-scaling-stroke; fill: none; stroke: rgb(0, 0, 0); stroke-opacity: 1; stroke-width: 1px; opacity: 1;"/></g><g class="points"/><g class="text"/></g><g class="trace scatter trace08924a" style="stroke-miterlimit: 2;"><g class="fills"><g><path class="js-fill" d="M0,100.29L16.92,103.09L25.38,93.23L33.85,92.35L42.31,80.51L50.77,68.84L59.23,64.94L67.69,53.67L76.15,46.76L84.62,46.47L93.08,41.53L101.54,39.56L110,41.37L118.46,40.39L126.92,41.56L135.38,20.06L143.85,39.8L152.31,34.24L160.77,36.79L169.23,28.26L177.69,27.86L186.15,30.61L194.62,29.99L203.08,30.34L211.54,31.49L220,31.28L228.46,27.24L236.92,32.35L245.38,29.96L253.85,32.88L262.31,30.47L270.77,32L279.23,32.03L287.69,30.35L296.15,33.87L304.62,36.18L313.08,31.29L321.54,33.23L330,26.56L346.92,28.42L355.38,39.62L363.85,48.74L372.31,43.46L380.77,57.32L389.23,62.34L397.69,70.04L406.15,70.54L414.62,77.44L423.08,80.97L431.54,92.01L440,115.9L440,116.33L431.54,99.93L423.08,90.9L414.62,88.44L406.15,83.75L397.69,75.43L380.77,63.47L372.31,54.74L363.85,51.92L355.38,45.74L346.92,38.44L338.46,37.95L330,35.11L321.54,36.76L304.62,37.43L296.15,35.26L279.23,34.58L270.77,34.09L262.31,32.3L253.85,34.91L236.92,35.48L228.46,33.06L211.54,34.57L203.08,33.95L186.15,34.25L177.69,34.62L169.23,35.81L160.77,38.24L143.85,44.15L135.38,39.59L110,51.48L101.54,49.42L84.62,54.7L76.15,64.88L67.69,65.44L59.23,77.04L50.77,85.03L42.31,89.97L33.85,98.68L25.38,106.54L16.92,108.94L8.46,111.92L0,108.34Z" style="fill: rgb(216, 179, 101); fill-opacity: 1; stroke-width: 0;"/></g></g><g class="errorbars"/><g class="lines"><path class="js-line" d="M0,108.34L8.46,111.92L16.92,108.94L25.38,106.54L33.85,98.68L42.31,89.97L50.77,85.03L59.23,77.04L67.69,65.44L76.15,64.88L84.62,54.7L101.54,49.42L110,51.48L135.38,39.59L143.85,44.15L160.77,38.24L169.23,35.81L177.69,34.62L186.15,34.25L203.08,33.95L211.54,34.57L228.46,33.06L236.92,35.48L253.85,34.91L262.31,32.3L270.77,34.09L279.23,34.58L296.15,35.26L304.62,37.43L321.54,36.76L330,35.11L338.46,37.95L346.92,38.44L355.38,45.74L363.85,51.92L372.31,54.74L380.77,63.47L397.69,75.43L406.15,83.75L414.62,88.44L423.08,90.9L431.54,99.93L440,116.33" style="vector-effect: non-scaling-stroke; fill: none; stroke: rgb(0, 0, 0); stroke-opacity: 1; stroke-width: 0.5px; opacity: 1;"/></g><g class="points"/><g class="text"/></g><g class="trace scatter trace679979" style="stroke-miterlimit: 2;"><g class="fills"/><g class="errorbars"/><g class="lines"><path class="js-line" d="M0,100.29L16.92,103.09L25.38,93.23L33.85,92.35L42.31,80.51L50.77,68.84L59.23,64.94L67.69,53.67L76.15,46.76L84.62,46.47L93.08,41.53L101.54,39.56L110,41.37L118.46,40.39L126.92,41.56L135.38,20.06L143.85,39.8L152.31,34.24L160.77,36.79L169.23,28.26L177.69,27.86L186.15,30.61L194.62,29.99L203.08,30.34L211.54,31.49L220,31.28L228.46,27.24L236.92,32.35L245.38,29.96L253.85,32.88L262.31,30.47L270.77,32L279.23,32.03L287.69,30.35L296.15,33.87L304.62,36.18L313.08,31.29L321.54,33.23L330,26.56L346.92,28.42L355.38,39.62L363.85,48.74L372.31,43.46L380.77,57.32L389.23,62.34L397.69,70.04L406.15,70.54L414.62,77.44L423.08,80.97L431.54,92.01L440,115.9" style="vector-effect: non-scaling-stroke; fill: none; stroke: rgb(0, 0, 0); stroke-opacity: 1; stroke-width: 0.25px; opacity: 1;"/></g><g class="points"/><g class="text"/></g><g class="trace scatter trace7667b2" style="stroke-miterlimit: 2; opacity: 1;"><g class="fills"/><g class="errorbars"/><g class="lines"/><g class="points"><path class="point" transform="translate(186.15,14.88)" d="M4,0A4,4 0 1,1 0,-4A4,4 0 0,1 4,0ZM0,0.5L0.5,0L0,-0.5L-0.5,0Z" style="opacity: 1; stroke: rgb(0, 0, 0); stroke-opacity: 1; stroke-width: 1px; fill: none;"/><path class="point" transform="translate(194.62,29.76)" d="M4,0A4,4 0 1,1 0,-4A4,4 0 0,1 4,0ZM0,0.5L0.5,0L0,-0.5L-0.5,0Z" style="opacity: 1; stroke: rgb(0, 0, 0); stroke-opacity: 1; stroke-width: 1px; fill: none;"/><path class="point" transform="translate(203.08,29.76)" d="M4,0A4,4 0 1,1 0,-4A4,4 0 0,1 4,0ZM0,0.5L0.5,0L0,-0.5L-0.5,0Z" style="opacity: 1; stroke: rgb(0, 0, 0); stroke-opacity: 1; stroke-width: 1px; fill: none;"/><path class="point" transform="translate(211.54,29.76)" d="M4,0A4,4 0 1,1 0,-4A4,4 0 0,1 4,0ZM0,0.5L0.5,0L0,-0.5L-0.5,0Z" style="opacity: 1; stroke: rgb(0, 0, 0); stroke-opacity: 1; stroke-width: 1px; fill: none;"/></g><g class="text"/></g></g></g><g class="overplot"/><path class="xlines-above crisp" d="M0,0" style="fill: none;"/><path class="ylines-above crisp" d="M0,0" style="fill: none;"/><g class="overlines-above"/><g class="xaxislayer-above"><g class="x3tick"><text text-anchor="middle" x="0" y="733" transform="translate(156.15,0)" style="font-family: 'Open Sans', verdana, arial, sans-serif; font-size: 12px; fill: rgb(42, 63, 95); fill-opacity: 1; white-space: pre; opacity: 1;">10</text></g><g class="x3tick"><text text-anchor="middle" x="0" y="733" style="font-family: 'Open Sans', verdana, arial, sans-serif; font-size: 12px; fill: rgb(42, 63, 95); fill-opacity: 1; white-space: pre; opacity: 1;" transform="translate(240.77,0)">20</text></g><g class="x3tick"><text text-anchor="middle" x="0" y="733" style="font-family: 'Open Sans', verdana, arial, sans-serif; font-size: 12px; fill: rgb(42, 63, 95); fill-opacity: 1; white-space: pre; opacity: 1;" transform="translate(325.38,0)">30</text></g><g class="x3tick"><text text-anchor="middle" x="0" y="733" style="font-family: 'Open Sans', verdana, arial, sans-serif; font-size: 12px; fill: rgb(42, 63, 95); fill-opacity: 1; white-space: pre; opacity: 1;" transform="translate(410,0)">40</text></g><g class="x3tick"><text text-anchor="middle" x="0" y="733" style="font-family: 'Open Sans', verdana, arial, sans-serif; font-size: 12px; fill: rgb(42, 63, 95); fill-opacity: 1; white-space: pre; opacity: 1;" transform="translate(494.62,0)">50</text></g></g><g class="yaxislayer-above"><g class="y3tick"><text text-anchor="end" x="79" y="4.199999999999999" transform="translate(0,720)" style="font-family: 'Open Sans', verdana, arial, sans-serif; font-size: 12px; fill: rgb(42, 63, 95); fill-opacity: 1; white-space: pre; opacity: 1;">5</text></g><g class="y3tick"><text text-anchor="end" x="79" y="4.199999999999999" style="font-family: 'Open Sans', verdana, arial, sans-serif; font-size: 12px; fill: rgb(42, 63, 95); fill-opacity: 1; white-space: pre; opacity: 1;" transform="translate(0,682.8)">10</text></g><g class="y3tick"><text text-anchor="end" x="79" y="4.199999999999999" style="font-family: 'Open Sans', verdana, arial, sans-serif; font-size: 12px; fill: rgb(42, 63, 95); fill-opacity: 1; white-space: pre; opacity: 1;" transform="translate(0,645.6)">15</text></g><g class="y3tick"><text text-anchor="end" x="79" y="4.199999999999999" style="font-family: 'Open Sans', verdana, arial, sans-serif; font-size: 12px; fill: rgb(42, 63, 95); fill-opacity: 1; white-space: pre; opacity: 1;" transform="translate(0,608.4)">20</text></g><g class="y3tick"><text text-anchor="end" x="79" y="4.199999999999999" style="font-family: 'Open Sans', verdana, arial, sans-serif; font-size: 12px; fill: rgb(42, 63, 95); fill-opacity: 1; white-space: pre; opacity: 1;" transform="translate(0,571.2)">25</text></g><g class="y3tick"><text text-anchor="end" x="79" y="4.199999999999999" style="font-family: 'Open Sans', verdana, arial, sans-serif; font-size: 12px; fill: rgb(42, 63, 95); fill-opacity: 1; white-space: pre; opacity: 1;" transform="translate(0,534)">30</text></g></g><g class="overaxes-above"/></g></g><g class="polarlayer"/><g class="smithlayer"/><g class="ternarylayer"/><g class="geolayer"/><g class="funnelarealayer"/><g class="pielayer"/><g class="iciclelayer"/><g class="treemaplayer"/><g class="sunburstlayer"/><g class="glimages"/><defs id="topdefs-328361"><g class="clips"/></defs><g class="layer-above"><g class="imagelayer"/><g class="shapelayer"/></g><g class="infolayer"><g class="g-gtitle"><text class="gtitle" x="30" y="50" text-anchor="start" dy="0em" style="font-family: 'Open Sans', verdana, arial, sans-serif; font-size: 17px; fill: rgb(42, 63, 95); opacity: 1; font-weight: normal; white-space: pre;">Climatology and S2S forecast for Narsingdi</text></g><g class="g-xtitle"/><g class="g-x2title"/><g class="g-x3title"/><g class="g-ytitle"><text class="ytitle" transform="rotate(-90,34.16875,193)" x="34.16875" y="193" text-anchor="middle" style="font-family: 'Open Sans', verdana, arial, sans-serif; font-size: 14px; fill: rgb(42, 63, 95); opacity: 1; font-weight: normal; white-space: pre;">[mm]</text></g><g class="g-y2title"><text class="y2title" transform="rotate(-90,40.840625,410.00000000000006)" x="40.840625" y="410.00000000000006" text-anchor="middle" style="font-family: 'Open Sans', verdana, arial, sans-serif; font-size: 14px; fill: rgb(42, 63, 95); opacity: 1; font-weight: normal; white-space: pre;">[C]</text></g><g class="g-y3title"><text class="y3title" transform="rotate(-90,40.840625,627)" x="40.840625" y="627" text-anchor="middle" style="font-family: 'Open Sans', verdana, arial, sans-serif; font-size: 14px; fill: rgb(42, 63, 95); opacity: 1; font-weight: normal; white-space: pre;">[C]</text></g><g class="annotation" data-index="0" style="opacity: 1;"><g class="annotation-text-g" transform="rotate(0,300,89.5)"><g class="cursor-pointer" transform="translate(237,79)"><rect class="bg" x="0.5" y="0.5" width="126" height="20" style="stroke-width: 1px; stroke: rgb(0, 0, 0); stroke-opacity: 0; fill: rgb(0, 0, 0); fill-opacity: 0;"/><text class="annotation-text" text-anchor="middle" x="63.359375" y="16" style="font-family: 'Open Sans', verdana, arial, sans-serif; font-size: 16px; fill: rgb(42, 63, 95); fill-opacity: 1; white-space: pre;">Precipitation sum</text></g></g></g><g class="annotation" data-index="1" style="opacity: 1;"><g class="annotation-text-g" transform="rotate(0,300,306.50000000000006)"><g class="cursor-pointer" transform="translate(196,296)"><rect class="bg" x="0.5" y="0.5" width="208" height="20" style="stroke-width: 1px; stroke: rgb(0, 0, 0); stroke-opacity: 0; fill: rgb(0, 0, 0); fill-opacity: 0;"/><text class="annotation-text" text-anchor="middle" x="104.265625" y="16" style="font-family: 'Open Sans', verdana, arial, sans-serif; font-size: 16px; fill: rgb(42, 63, 95); fill-opacity: 1; white-space: pre;">Mean maximum temperature</text></g></g></g><g class="annotation" data-index="2" style="opacity: 1;"><g class="annotation-text-g" transform="rotate(0,300,523.5)"><g class="cursor-pointer" transform="translate(198,513)"><rect class="bg" x="0.5" y="0.5" width="203" height="20" style="stroke-width: 1px; stroke: rgb(0, 0, 0); stroke-opacity: 0; fill: rgb(0, 0, 0); fill-opacity: 0;"/><text class="annotation-text" text-anchor="middle" x="102.046875" y="16" style="font-family: 'Open Sans', verdana, arial, sans-serif; font-size: 16px; fill: rgb(42, 63, 95); fill-opacity: 1; white-space: pre;">Mean minimum temperature</text></g></g></g><g class="annotation" data-index="3" style="opacity: 1;"><g class="annotation-text-g" transform="rotate(0,300,760.5)"><g class="cursor-pointer" transform="translate(277,750)"><rect class="bg" x="0.5" y="0.5" width="45" height="20" style="stroke-width: 1px; stroke: rgb(0, 0, 0); stroke-opacity: 0; fill: rgb(0, 0, 0); fill-opacity: 0;"/><text class="annotation-text" text-anchor="middle" x="22.3125" y="16" style="font-family: 'Open Sans', verdana, arial, sans-serif; font-size: 16px; fill: rgb(42, 63, 95); fill-opacity: 1; white-space: pre;">Week</text></g></g></g></g></svg>