<svg class="main-svg" xmlns="http://www.w3.org/2000/svg" xmlns:xlink="http://www.w3.org/1999/xlink" width="600" height="800" style="" viewBox="0 0 600 800"><rect x="0" y="0" width="600" height="800" style="fill: rgb(255, 255, 255); fill-opacity: 1;"/><defs id="defs-3d718c"><g class="clips"><clipPath id="clip3d718cxyplot" class="plotclip"><rect width="440" height="186.00000000000003"/></clipPath><clipPath id="clip3d718cx2y2plot" class="plotclip"><rect width="440" height="185.99999999999997"/></clipPath><clipPath id="clip3d718cx3y3plot" class="plotclip"><rect width="440" height="186"/></clipPath><clipPath class="axesclip" id="clip3d718cx"><rect x="80" y="0" width="440" height="800"/></clipPath><clipPath class="axesclip" id="clip3d718cy"><rect x="0" y="100" width="600" height="186.00000000000003"/></clipPath><clipPath class="axesclip" id="clip3d718cxy"><rect x="80" y="100" width="440" height="186.00000000000003"/></clipPath><clipPath class="axesclip" id="clip3d718cy2"><rect x="0" y="317.00000000000006" width="600" height="185.99999999999997"/></clipPath><clipPath class="axesclip" id="clip3d718cxy2"><rect x="80" y="317.00000000000006" width="440" height="185.99999999999997"/></clipPath><clipPath class="axesclip" id="clip3d718cy3"><rect x="0" y="534" width="600" height="186"/></clipPath><clipPath class="axesclip" id="clip3d718cxy3"><rect x="80" y="534" width="440" height="186"/></clipPath><clipPath class="axesclip" id="clip3d718cx2"><rect x="80" y="0" width="440" height="800"/></clipPath><clipPath class="axesclip" id="clip3d718cx2y"><rect x="80" y="100" width="440" height="186.00000000000003"/></clipPath><clipPath class="axesclip" id="clip3d718cx2y2"><rect x="80" y="317.00000000000006" width="440" height="185.99999999999997"/></clipPath><clipPath class="axesclip" id="clip3d718cx2y3"><rect x="80" y="534" width="440" height="186"/></clipPath><clipPath class="axesclip" id="clip3d718cx3"><rect x="80" y="0" width="440" height="800"/></clipPath><clipPath class="axesclip" id="clip3d718cx3y"><rect x="80" y="100" width="440" height="186.00000000000003"/></clipPath><clipPath class="axesclip" id="clip3d718cx3y2"><rect x="80" y="317.00000000000006" width="440" height="185.99999999999997"/></clipPath><clipPath class="axesclip" id="clip3d718cx3y3"><rect x="80" y="534" width="440" height="186"/></clipPath></g><g class="gradients"/><g class="patterns"/></defs><g class="bglayer"><rect class="bg" x="80" y="100" width="440" height="186.00000000000003" style="fill: rgb(229, 236, 246); fill-opacity: 1; stroke-width: 0;"/><rect class="bg" x="80" y="317.00000000000006" width="440" height="185.99999999999997" style="fill: rgb(229, 236, 246); fill-opacity: 1; stroke-width: 0;"/><rect class="bg" x="80" y="534" width="440" height="186" style="fill: rgb(229, 236, 246); fill-opacity: 1; stroke-width: 0;"/></g><g class="layer-below"><g class="imagelayer"/><g class="shapelayer"/></g><g class="cartesianlayer"><g class="subplot xy"><g class="layer-subplot"><g class="shapelayer"/><g class="imagelayer"/></g><g class="minor-gridlayer"><g class="x"/><g class="y"/></g><g class="gridlayer"><g class="x"><path class="xgrid crisp" transform="translate(156.15,0)" d="M0,100v186.00000000000003" style="stroke: rgb(255, 255, 255); stroke-opacity: 1; stroke-width: 1px;"/><path class="xgrid crisp" transform="translate(240.77,0)" d="M0,100v186.00000000000003" style="stroke: rgb(255, 255, 255); stroke-opacity: 1; stroke-width: 1px;"/><path class="xgrid crisp" transform="translate(325.38,0)" d="M0,100v186.00000000000003" style="stroke: rgb(255, 255, 255); stroke-opacity: 1; stroke-width: 1px;"/><path class="xgrid crisp" transform="translate(410,0)" d="M0,100v186.00000000000003" style="stroke: rgb(255, 255, 255); stroke-opacity: 1; stroke-width: 1px;"/><path class="xgrid crisp" transform="translate(494.62,0)" d="M0,100v186.00000000000003" style="stroke: rgb(255, 255, 255); stroke-opacity: 1; stroke-width: 1px;"/></g><g class="y"><path class="ygrid crisp" transform="translate(0,248.8)" d="M80,0h440" style="stroke: rgb(255, 255, 255); stroke-opacity: 1; stroke-width: 1px;"/><path class="ygrid crisp" transform="translate(0,211.6)" d="M80,0h440" style="stroke: rgb(255, 255, 255); stroke-opacity: 1; stroke-width: 1px;"/><path class="ygrid crisp" transform="translate(0,174.4)" d="M80,0h440" style="stroke: rgb(255, 255, 255); stroke-opacity: 1; stroke-width: 1px;"/><path class="ygrid crisp" transform="translate(0,137.2)" d="M80,0h440" style="stroke: rgb(255, 255, 255); stroke-opacity: 1; stroke-width: 1px;"/></g></g><g class="zerolinelayer"><path class="yzl zl crisp" transform="translate(0,286)" d="M80,0h440" style="stroke: rgb(255, 255, 255); stroke-opacity: 1; stroke-width: 2px;"/></g><path class="xlines-below"/><path class="ylines-below"/><g class="overlines-below"/><g class="xaxislayer-below"/><g class="yaxislayer-below"/><g class="overaxes-below"/><g class="plot" transform="translate(80,100)" clip-path="url(#clip3d718cxyplot)"><g class="scatterlayer mlayer"><g class="trace scatter trace5233e8" style="stroke-miterlimit: 2;"><g class="fills"><g><path class="js-fill" d="M0,186L118.46,186L126.92,183.73L135.38,185.14L143.85,172.47L152.31,183.42L160.77,176.62L177.69,161.56L186.15,175.1L194.62,160.46L203.08,149.6L211.54,156.98L220,162.73L228.46,149.93L236.92,170.22L245.38,156.17L253.85,179.11L262.31,175L270.77,171.85L279.23,165.97L287.69,166.84L296.15,176.09L304.62,173.63L313.08,168.49L321.54,176.15L330,184.83L338.46,184.33L346.92,186L355.38,186L440,186L440,186L321.54,186L313.08,184.45L304.62,186L296.15,185.27L287.69,186L279.23,185.29L270.77,185.99L262.31,180.01L253.85,185.27L245.38,183.11L228.46,184.52L220,183.58L211.54,174.87L203.08,180.22L194.62,177.04L186.15,186L177.69,183.96L169.23,184.52L160.77,186L152.31,186L143.85,185.24L135.38,186L0,186Z" style="fill: rgb(224, 236, 244); fill-opacity: 1; stroke-width: 0;"/></g></g><g class="errorbars"/><g class="lines"><path class="js-line" d="M0,186L135.38,186L143.85,185.24L152.31,186L160.77,186L169.23,184.52L177.69,183.96L186.15,186L194.62,177.04L203.08,180.22L211.54,174.87L220,183.58L228.46,184.52L245.38,183.11L253.85,185.27L262.31,180.01L270.77,185.99L279.23,185.29L287.69,186L296.15,185.27L304.62,186L313.08,184.45L321.54,186L440,186" style="vector-effect: non-scaling-stroke; fill: none; stroke: rgb(0, 0, 0); stroke-opacity: 1; stroke-width: 0.25px; opacity: 1;"/></g><g class="points"/><g class="text"/></g><g class="trace scatter trace5a3453" style="stroke-miterlimit: 2;"><g class="fills"><g><path class="js-fill" d="M0,186L101.54,186L110,183.91L118.46,182.84L126.92,170.02L143.85,168.16L152.31,166.21L160.77,160.52L169.23,153.62L177.69,120.36L186.15,158.86L194.62,135.76L203.08,115.71L211.54,119.07L220,144.23L228.46,136.92L236.92,152.02L245.38,136.47L253.85,159.64L262.31,163.78L270.77,136.87L279.23,144.49L287.69,156.13L296.15,162.89L304.62,149.51L313.08,142.24L321.54,149.51L338.46,178.99L346.92,183.4L355.38,186L363.85,186L440,186L440,186L355.38,186L346.92,186L338.46,184.33L330,184.83L321.54,176.15L313.08,168.49L304.62,173.63L296.15,176.09L287.69,166.84L279.23,165.97L270.77,171.85L262.31,175L253.85,179.11L245.38,156.17L236.92,170.22L228.46,149.93L220,162.73L211.54,156.98L203.08,149.6L194.62,160.46L186.15,175.1L177.69,161.56L160.77,176.62L152.31,183.42L143.85,172.47L135.38,185.14L126.92,183.73L118.46,186L0,186Z" style="fill: rgb(158, 188, 218); fill-opacity: 1; stroke-width: 0;"/></g></g><g class="errorbars"/><g class="lines"><path class="js-line" d="M0,186L118.46,186L126.92,183.73L135.38,185.14L143.85,172.47L152.31,183.42L160.77,176.62L177.69,161.56L186.15,175.1L194.62,160.46L203.08,149.6L211.54,156.98L220,162.73L228.46,149.93L236.92,170.22L245.38,156.17L253.85,179.11L262.31,175L270.77,171.85L279.23,165.97L287.69,166.84L296.15,176.09L304.62,173.63L313.08,168.49L321.54,176.15L330,184.83L338.46,184.33L346.92,186L355.38,186L440,186" style="vector-effect: non-scaling-stroke; fill: none; stroke: rgb(0, 0, 0); stroke-opacity: 1; stroke-width: 0.5px; opacity: 1;"/></g><g class="points"/><g class="text"/></g><g class="trace scatter trace054d1b" style="stroke-miterlimit: 2;"><g class="fills"><g><path class="js-fill" d="M0,186L93.08,185.99L101.54,173.65L110,179.03L118.46,163.83L126.92,156.68L135.38,155.48L143.85,148.55L152.31,152.67L160.77,138.18L169.23,127.79L177.69,95.18L186.15,139.47L194.62,112.4L203.08,70.36L211.54,87.6L220,88.03L228.46,92.08L236.92,131.45L245.38,103.33L253.85,114.1L262.31,130.77L270.77,94.01L279.23,115.01L287.69,141.59L296.15,139.92L304.62,109.91L313.08,113.44L321.54,103.34L330,121.84L338.46,162.81L346.92,160.43L355.38,185.47L380.77,186L389.23,186L440,186L440,186L363.85,186L355.38,186L346.92,183.4L338.46,178.99L321.54,149.51L313.08,142.24L304.62,149.51L296.15,162.89L287.69,156.13L279.23,144.49L270.77,136.87L262.31,163.78L253.85,159.64L245.38,136.47L236.92,152.02L228.46,136.92L220,144.23L211.54,119.07L203.08,115.71L194.62,135.76L186.15,158.86L177.69,120.36L169.23,153.62L160.77,160.52L152.31,166.21L143.85,168.16L126.92,170.02L118.46,182.84L110,183.91L101.54,186L0,186Z" style="fill: rgb(158, 188, 218); fill-opacity: 1; stroke-width: 0;"/></g></g><g class="errorbars"/><g class="lines"><path class="js-line" d="M0,186L101.54,186L110,183.91L118.46,182.84L126.92,170.02L143.85,168.16L152.31,166.21L160.77,160.52L169.23,153.62L177.69,120.36L186.15,158.86L194.62,135.76L203.08,115.71L211.54,119.07L220,144.23L228.46,136.92L236.92,152.02L245.38,136.47L253.85,159.64L262.31,163.78L270.77,136.87L279.23,144.49L287.69,156.13L296.15,162.89L304.62,149.51L313.08,142.24L321.54,149.51L338.46,178.99L346.92,183.4L355.38,186L363.85,186L440,186" style="vector-effect: non-scaling-stroke; fill: none; stroke: rgb(0, 0, 0); stroke-opacity: 1; stroke-width: 1px; opacity: 1;"/></g><g class="points"/><g class="text"/></g><g class="trace scatter trace2561b0" style="stroke-miterlimit: 2;"><g class="fills"><g><path class="js-fill" d="M0,186L25.38,186L33.85,185.24L42.31,185.99L50.77,185.24L67.69,185.99L76.15,186L93.08,185.99L101.54,166.34L110,169.52L118.46,156.57L126.92,132.31L135.38,118.3L143.85,127.65L152.31,113.68L160.77,97.55L169.23,96.27L177.69,14.04L186.15,89.12L194.62,81.51L203.08,-19.08L211.54,47.52L220,47.55L228.46,83.38L236.92,74.66L245.38,41.19L253.85,25.91L262.31,90.97L270.77,49.6L279.23,83.83L287.69,137.41L296.15,105.04L304.62,59.4L313.08,37.01L321.54,32.33L330,111.05L338.46,151.97L346.92,124.86L355.38,185.27L372.31,185.99L380.77,186L440,186L440,186L389.23,186L380.77,186L355.38,185.47L346.92,160.43L338.46,162.81L330,121.84L321.54,103.34L313.08,113.44L304.62,109.91L296.15,139.92L287.69,141.59L279.23,115.01L270.77,94.01L262.31,130.77L253.85,114.1L245.38,103.33L236.92,131.45L228.46,92.08L220,88.03L211.54,87.6L203.08,70.36L194.62,112.4L186.15,139.47L177.69,95.18L169.23,127.79L160.77,138.18L152.31,152.67L143.85,148.55L135.38,155.48L126.92,156.68L118.46,163.83L110,179.03L101.54,173.65L93.08,185.99L0,186Z" style="fill: rgb(136, 86, 167); fill-opacity: 1; stroke-width: 0;"/></g></g><g class="errorbars"/><g class="lines"><path class="js-line" d="M0,186L93.08,185.99L101.54,173.65L110,179.03L118.46,163.83L126.92,156.68L135.38,155.48L143.85,148.55L152.31,152.67L160.77,138.18L169.23,127.79L177.69,95.18L186.15,139.47L194.62,112.4L203.08,70.36L211.54,87.6L220,88.03L228.46,92.08L236.92,131.45L245.38,103.33L253.85,114.1L262.31,130.77L270.77,94.01L279.23,115.01L287.69,141.59L296.15,139.92L304.62,109.91L313.08,113.44L321.54,103.34L330,121.84L338.46,162.81L346.92,160.43L355.38,185.47L380.77,186L389.23,186L440,186" style="vector-effect: non-scaling-stroke; fill: none; stroke: rgb(0, 0, 0); stroke-opacity: 1; stroke-width: 0.5px; opacity: 1;"/></g><g class="points"/><g class="text"/></g><g class="trace scatter tracef19253" style="stroke-miterlimit: 2;"><g class="fills"/><g class="errorbars"/><g class="lines"><path class="js-line" d="M0,186L25.38,186L33.85,185.24L42.31,185.99L50.77,185.24L67.69,185.99L76.15,186L93.08,185.99L101.54,166.34L110,169.52L118.46,156.57L126.92,132.31L135.38,118.3L143.85,127.65L152.31,113.68L160.77,97.55L169.23,96.27L177.69,14.04L186.15,89.12L194.62,81.51L203.08,-19.08L211.54,47.52L220,47.55L228.46,83.38L236.92,74.66L245.38,41.19L253.85,25.91L262.31,90.97L270.77,49.6L279.23,83.83L287.69,137.41L296.15,105.04L304.62,59.4L313.08,37.01L321.54,32.33L330,111.05L338.46,151.97L346.92,124.86L355.38,185.27L372.31,185.99L380.77,186L440,186" style="vector-effect: non-scaling-stroke; fill: none; stroke: rgb(0, 0, 0); stroke-opacity: 1; stroke-width: 0.25px; opacity: 1;"/></g><g class="points"/><g class="text"/></g><g class="trace scatter trace396f84" style="stroke-miterlimit: 2; opacity: 1;"><g class="fills"/><g class="errorbars"/><g class="lines"/><g class="points"><path class="point" transform="translate(186.15,186)" d="M4,0A4,4 0 1,1 0,-4A4,4 0 0,1 4,0ZM0,0.5L0.5,0L0,-0.5L-0.5,0Z" style="opacity: 1; stroke: rgb(0, 0, 0); stroke-opacity: 1; stroke-width: 1px; fill: none;"/><path class="point" transform="translate(194.62,186)" d="M4,0A4,4 0 1,1 0,-4A4,4 0 0,1 4,0ZM0,0.5L0.5,0L0,-0.5L-0.5,0Z" style="opacity: 1; stroke: rgb(0, 0, 0); stroke-opacity: 1; stroke-width: 1px; fill: none;"/><path class="point" transform="translate(203.08,108.62)" d="M4,0A4,4 0 1,1 0,-4A4,4 0 0,1 4,0ZM0,0.5L0.5,0L0,-0.5L-0.5,0Z" style="opacity: 1; stroke: rgb(0, 0, 0); stroke-opacity: 1; stroke-width: 1px; fill: none;"/><path class="point" transform="translate(211.54,108.62)" d="M4,0A4,4 0 1,1 0,-4A4,4 0 0,1 4,0ZM0,0.5L0.5,0L0,-0.5L-0.5,0Z" style="opacity: 1; stroke: rgb(0, 0, 0); stroke-opacity: 1; stroke-width: 1px; fill: none;"/></g><g class="text"/></g></g></g><g class="overplot"/><path class="xlines-above crisp" d="M0,0" style="fill: none;"/><path class="ylines-above crisp" d="M0,0" style="fill: none;"/><g class="overlines-above"/><g class="xaxislayer-above"/><g class="yaxislayer-above"><g class="ytick"><text text-anchor="end" x="79" y="4.199999999999999" transform="translate(0,286)" style="font-family: 'Open Sans', verdana, arial, sans-serif; font-size: 12px; fill: rgb(42, 63, 95); fill-opacity: 1; white-space: pre; opacity: 1;">0</text></g><g class="ytick"><text text-anchor="end" x="79" y="4.199999999999999" style="font-family: 'Open Sans', verdana, arial, sans-serif; font-size: 12px; fill: rgb(42, 63, 95); fill-opacity: 1; white-space: pre; opacity: 1;" transform="translate(0,248.8)">50</text></g><g class="ytick"><text text-anchor="end" x="79" y="4.199999999999999" style="font-family: 'Open Sans', verdana, arial, sans-serif; font-size: 12px; fill: rgb(42, 63, 95); fill-opacity: 1; white-space: pre; opacity: 1;" transform="translate(0,211.6)">100</text></g><g class="ytick"><text text-anchor="end" x="79" y="4.199999999999999" style="font-family: 'Open Sans', verdana, arial, sans-serif; font-size: 12px; fill: rgb(42, 63, 95); fill-opacity: 1; white-space: pre; opacity: 1;" transform="translate(0,174.4)">150</text></g><g class="ytick"><text text-anchor="end" x="79" y="4.199999999999999" style="font-family: 'Open Sans', verdana, arial, sans-serif; font-size: 12px; fill: rgb(42, 63, 95); fill-opacity: 1; white-space: pre; opacity: 1;" transform="translate(0,137.2)">200</text></g><g class="ytick"><text text-anchor="end" x="79" y="4.199999999999999" style="font-family: 'Open Sans', verdana, arial, sans-serif; font-size: 12px; fill: rgb(42, 63, 95); fill-opacity: 1; white-space: pre; opacity: 1;" transform="translate(0,100)">250</text></g></g><g class="overaxes-above"/></g><g class="subplot x2y2"><g class="layer-subplot"><g class="shapelayer"/><g class="imagelayer"/></g><g class="minor-gridlayer"><g class="x2"/><g class="y2"/></g><g class="gridlayer"><g class="x2"><path class="x2grid crisp" transform="translate(156.15,0)" d="M0,317.00000000000006v185.99999999999997" style="stroke: rgb(255, 255, 255); stroke-opacity: 1; stroke-width: 1px;"/><path class="x2grid crisp" transform="translate(240.77,0)" d="M0,317.00000000000006v185.99999999999997" style="stroke: rgb(255, 255, 255); stroke-opacity: 1; stroke-width: 1px;"/><path class="x2grid crisp" transform="translate(325.38,0)" d="M0,317.00000000000006v185.99999999999997" style="stroke: rgb(255, 255, 255); stroke-opacity: 1; stroke-width: 1px;"/><path class="x2grid crisp" transform="translate(410,0)" d="M0,317.00000000000006v185.99999999999997" style="stroke: rgb(255, 255, 255); stroke-opacity: 1; stroke-width: 1px;"/><path class="x2grid crisp" transform="translate(494.62,0)" d="M0,317.00000000000006v185.99999999999997" style="stroke: rgb(255, 255, 255); stroke-opacity: 1; stroke-width: 1px;"/></g><g class="y2"><path class="y2grid crisp" transform="translate(0,472.00000000000006)" d="M80,0h440" style="stroke: rgb(255, 255, 255); stroke-opacity: 1; stroke-width: 1px;"/><path class="y2grid crisp" transform="translate(0,410.00000000000006)" d="M80,0h440" style="stroke: rgb(255, 255, 255); stroke-opacity: 1; stroke-width: 1px;"/><path class="y2grid crisp" transform="translate(0,348.00000000000006)" d="M80,0h440" style="stroke: rgb(255, 255, 255); stroke-opacity: 1; stroke-width: 1px;"/></g></g><g class="zerolinelayer"/><path class="xlines-below"/><path class="ylines-below"/><g class="overlines-below"/><g class="xaxislayer-below"/><g class="yaxislayer-below"/><g class="overaxes-below"/><g class="plot" transform="translate(80,317.00000000000006)" clip-path="url(#clip3d718cx2y2plot)"><g class="scatterlayer mlayer"><g class="trace scatter trace2d5f1c" style="stroke-miterlimit: 2;"><g class="fills"><g><path class="js-fill" d="M0,153.08L8.46,156.1L16.92,146.69L25.38,139.3L33.85,136.14L42.31,124.49L50.77,116.71L59.23,109.73L67.69,95L76.15,99.74L84.62,84.83L93.08,75.37L101.54,81.45L110,80.79L118.46,81.76L126.92,84.72L135.38,86.49L143.85,84.23L152.31,80.42L160.77,81.25L169.23,85.58L186.15,85.72L194.62,88L211.54,97.13L220,97.09L236.92,91.83L245.38,91.99L253.85,88.01L262.31,89.31L270.77,93.35L279.23,94.65L287.69,92.01L296.15,95.01L304.62,94.87L313.08,96.71L321.54,95.66L330,95.45L338.46,95.83L346.92,91.84L355.38,90.91L363.85,98.21L372.31,99.45L380.77,110.6L389.23,116.87L397.69,125.81L406.15,136.26L414.62,135.26L423.08,150.18L431.54,150.88L440,157.11L440,159.61L431.54,159.72L423.08,158.44L414.62,144.25L406.15,144.37L397.69,138.81L389.23,126.89L380.77,118.45L372.31,106.03L363.85,101.56L355.38,93.29L346.92,97.68L338.46,111.03L321.54,103.2L313.08,112.08L304.62,105.28L296.15,110.91L287.69,106.88L279.23,109.56L270.77,106.86L262.31,106.33L253.85,100.67L245.38,99.84L236.92,102.41L228.46,105.79L220,104.18L211.54,105.89L203.08,103.33L194.62,101.88L186.15,104.54L177.69,93.24L160.77,88.96L152.31,87.09L143.85,92.34L135.38,101.31L126.92,90.86L118.46,96.57L110,101.4L101.54,99.97L93.08,95.21L84.62,105.74L76.15,107.52L67.69,112.12L50.77,132.15L42.31,138.3L33.85,152.52L25.38,145.81L16.92,155.54L8.46,168.57L0,172.41Z" style="fill: rgb(145, 191, 219); fill-opacity: 1; stroke-width: 0;"/></g></g><g class="errorbars"/><g class="lines"><path class="js-line" d="M0,172.41L8.46,168.57L16.92,155.54L25.38,145.81L33.85,152.52L42.31,138.3L50.77,132.15L67.69,112.12L76.15,107.52L84.62,105.74L93.08,95.21L101.54,99.97L110,101.4L118.46,96.57L126.92,90.86L135.38,101.31L143.85,92.34L152.31,87.09L160.77,88.96L177.69,93.24L186.15,104.54L194.62,101.88L203.08,103.33L211.54,105.89L220,104.18L228.46,105.79L236.92,102.41L245.38,99.84L253.85,100.67L262.31,106.33L270.77,106.86L279.23,109.56L287.69,106.88L296.15,110.91L304.62,105.28L313.08,112.08L321.54,103.2L338.46,111.03L346.92,97.68L355.38,93.29L363.85,101.56L372.31,106.03L380.77,118.45L389.23,126.89L397.69,138.81L406.15,144.37L414.62,144.25L423.08,158.44L431.54,159.72L440,159.61" style="vector-effect: non-scaling-stroke; fill: none; stroke: rgb(0, 0, 0); stroke-opacity: 1; stroke-width: 0.25px; opacity: 1;"/></g><g class="points"/><g class="text"/></g><g class="trace scatter tracedcc254" style="stroke-miterlimit: 2;"><g class="fills"><g><path class="js-fill" d="M0,143.41L8.46,149.96L16.92,138.3L25.38,136.08L33.85,128.42L50.77,109.01L59.23,101.35L67.69,88.04L76.15,82.97L93.08,64.94L101.54,67.43L110,74.23L118.46,68.24L126.92,73.43L135.38,75.46L143.85,81.07L152.31,75.11L160.77,73.33L169.23,76.16L177.69,80.77L186.15,79.22L203.08,87.26L211.54,87.03L220,91.66L228.46,88.33L236.92,83.49L245.38,86.73L253.85,81.5L262.31,81.93L270.77,86.95L279.23,84.69L296.15,85.8L304.62,91.02L313.08,90.11L321.54,90.55L330,83.24L338.46,83.35L346.92,87.19L355.38,88.74L363.85,93.72L372.31,97.13L380.77,105.15L389.23,114.32L397.69,118.35L406.15,127.79L414.62,128.83L423.08,138.49L431.54,144.65L440,141.08L440,157.11L431.54,150.88L423.08,150.18L414.62,135.26L406.15,136.26L397.69,125.81L389.23,116.87L380.77,110.6L372.31,99.45L363.85,98.21L355.38,90.91L346.92,91.84L338.46,95.83L330,95.45L321.54,95.66L313.08,96.71L304.62,94.87L296.15,95.01L287.69,92.01L279.23,94.65L270.77,93.35L262.31,89.31L253.85,88.01L245.38,91.99L236.92,91.83L220,97.09L211.54,97.13L194.62,88L186.15,85.72L169.23,85.58L160.77,81.25L152.31,80.42L143.85,84.23L135.38,86.49L126.92,84.72L118.46,81.76L110,80.79L101.54,81.45L93.08,75.37L84.62,84.83L76.15,99.74L67.69,95L59.23,109.73L50.77,116.71L42.31,124.49L33.85,136.14L25.38,139.3L16.92,146.69L8.46,156.1L0,153.08Z" style="fill: rgb(255, 255, 191); fill-opacity: 1; stroke-width: 0;"/></g></g><g class="errorbars"/><g class="lines"><path class="js-line" d="M0,153.08L8.46,156.1L16.92,146.69L25.38,139.3L33.85,136.14L42.31,124.49L50.77,116.71L59.23,109.73L67.69,95L76.15,99.74L84.62,84.83L93.08,75.37L101.54,81.45L110,80.79L118.46,81.76L126.92,84.72L135.38,86.49L143.85,84.23L152.31,80.42L160.77,81.25L169.23,85.58L186.15,85.72L194.62,88L211.54,97.13L220,97.09L236.92,91.83L245.38,91.99L253.85,88.01L262.31,89.31L270.77,93.35L279.23,94.65L287.69,92.01L296.15,95.01L304.62,94.87L313.08,96.71L321.54,95.66L330,95.45L338.46,95.83L346.92,91.84L355.38,90.91L363.85,98.21L372.31,99.45L380.77,110.6L389.23,116.87L397.69,125.81L406.15,136.26L414.62,135.26L423.08,150.18L431.54,150.88L440,157.11" style="vector-effect: non-scaling-stroke; fill: none; stroke: rgb(0, 0, 0); stroke-opacity: 1; stroke-width: 0.5px; opacity: 1;"/></g><g class="points"/><g class="text"/></g><g class="trace scatter traceb74e9f" style="stroke-miterlimit: 2;"><g class="fills"><g><path class="js-fill" d="M0,136.04L8.46,139.99L16.92,132.37L25.38,132.71L33.85,122.5L42.31,111.32L50.77,101.74L59.23,90.99L67.69,83L84.62,67.16L93.08,56.87L101.54,54.08L110,56.56L118.46,58.48L126.92,62.68L135.38,63.89L143.85,75.64L152.31,67.95L160.77,66.61L169.23,72.39L177.69,72.31L186.15,71.71L194.62,73.78L203.08,81.77L211.54,83.52L220,80.19L228.46,80.72L236.92,77.45L245.38,80L253.85,79.55L262.31,77.55L270.77,76.43L279.23,81L287.69,80.72L296.15,82.22L304.62,83.55L313.08,82.09L321.54,84.2L330,75.12L338.46,75.66L346.92,79.12L355.38,87.06L363.85,90.83L372.31,93.3L380.77,102.88L389.23,107.35L397.69,114.64L406.15,121.28L414.62,124.32L423.08,129.01L431.54,132.6L440,125.78L440,141.08L431.54,144.65L423.08,138.49L414.62,128.83L406.15,127.79L397.69,118.35L389.23,114.32L380.77,105.15L372.31,97.13L363.85,93.72L355.38,88.74L346.92,87.19L338.46,83.35L330,83.24L321.54,90.55L313.08,90.11L304.62,91.02L296.15,85.8L279.23,84.69L270.77,86.95L262.31,81.93L253.85,81.5L245.38,86.73L236.92,83.49L228.46,88.33L220,91.66L211.54,87.03L203.08,87.26L186.15,79.22L177.69,80.77L169.23,76.16L160.77,73.33L152.31,75.11L143.85,81.07L135.38,75.46L126.92,73.43L118.46,68.24L110,74.23L101.54,67.43L93.08,64.94L76.15,82.97L67.69,88.04L59.23,101.35L50.77,109.01L33.85,128.42L25.38,136.08L16.92,138.3L8.46,149.96L0,143.41Z" style="fill: rgb(255, 255, 191); fill-opacity: 1; stroke-width: 0;"/></g></g><g class="errorbars"/><g class="lines"><path class="js-line" d="M0,143.41L8.46,149.96L16.92,138.3L25.38,136.08L33.85,128.42L50.77,109.01L59.23,101.35L67.69,88.04L76.15,82.97L93.08,64.94L101.54,67.43L110,74.23L118.46,68.24L126.92,73.43L135.38,75.46L143.85,81.07L152.31,75.11L160.77,73.33L169.23,76.16L177.69,80.77L186.15,79.22L203.08,87.26L211.54,87.03L220,91.66L228.46,88.33L236.92,83.49L245.38,86.73L253.85,81.5L262.31,81.93L270.77,86.95L279.23,84.69L296.15,85.8L304.62,91.02L313.08,90.11L321.54,90.55L330,83.24L338.46,83.35L346.92,87.19L355.38,88.74L363.85,93.72L372.31,97.13L380.77,105.15L389.23,114.32L397.69,118.35L406.15,127.79L414.62,128.83L423.08,138.49L431.54,144.65L440,141.08" style="vector-effect: non-scaling-stroke; fill: none; stroke: rgb(0, 0, 0); stroke-opacity: 1; stroke-width: 1px; opacity: 1;"/></g><g class="points"/><g class="text"/></g><g class="trace scatter trace33d6ab" style="stroke-miterlimit: 2;"><g class="fills"><g><path class="js-fill" d="M0,115.93L8.46,120.51L16.92,118.74L25.38,130.27L33.85,112.54L42.31,104.22L50.77,85.39L59.23,77.43L67.69,67.12L76.15,61.78L84.62,54.9L93.08,53.17L101.54,33.94L110,35.35L118.46,32.74L126.92,36.11L135.38,32.44L143.85,63.35L152.31,57.38L160.77,63.43L169.23,68.4L177.69,59.26L186.15,67.44L194.62,63.27L203.08,68.19L211.54,65.31L220,63.87L228.46,70.91L236.92,64.43L245.38,67.77L253.85,68.45L262.31,60.92L270.77,70.82L279.23,62.48L287.69,65.17L296.15,66.26L304.62,71.12L313.08,66.54L321.54,72.26L330,67.14L338.46,59.98L346.92,60.72L355.38,82.41L372.31,87.71L380.77,95.46L389.23,98.34L397.69,98.42L406.15,104.89L414.62,117.4L431.54,122.67L440,117.8L440,125.78L431.54,132.6L423.08,129.01L414.62,124.32L406.15,121.28L397.69,114.64L389.23,107.35L380.77,102.88L372.31,93.3L363.85,90.83L355.38,87.06L346.92,79.12L338.46,75.66L330,75.12L321.54,84.2L313.08,82.09L304.62,83.55L296.15,82.22L287.69,80.72L279.23,81L270.77,76.43L262.31,77.55L253.85,79.55L245.38,80L236.92,77.45L228.46,80.72L220,80.19L211.54,83.52L203.08,81.77L194.62,73.78L186.15,71.71L177.69,72.31L169.23,72.39L160.77,66.61L152.31,67.95L143.85,75.64L135.38,63.89L126.92,62.68L118.46,58.48L110,56.56L101.54,54.08L93.08,56.87L84.62,67.16L67.69,83L59.23,90.99L50.77,101.74L42.31,111.32L33.85,122.5L25.38,132.71L16.92,132.37L8.46,139.99L0,136.04Z" style="fill: rgb(252, 141, 89); fill-opacity: 1; stroke-width: 0;"/></g></g><g class="errorbars"/><g class="lines"><path class="js-line" d="M0,136.04L8.46,139.99L16.92,132.37L25.38,132.71L33.85,122.5L42.31,111.32L50.77,101.74L59.23,90.99L67.69,83L84.62,67.16L93.08,56.87L101.54,54.08L110,56.56L118.46,58.48L126.92,62.68L135.38,63.89L143.85,75.64L152.31,67.95L160.77,66.61L169.23,72.39L177.69,72.31L186.15,71.71L194.62,73.78L203.08,81.77L211.54,83.52L220,80.19L228.46,80.72L236.92,77.45L245.38,80L253.85,79.55L262.31,77.55L270.77,76.43L279.23,81L287.69,80.72L296.15,82.22L304.62,83.55L313.08,82.09L321.54,84.2L330,75.12L338.46,75.66L346.92,79.12L355.38,87.06L363.85,90.83L372.31,93.3L380.77,102.88L389.23,107.35L397.69,114.64L406.15,121.28L414.62,124.32L423.08,129.01L431.54,132.6L440,125.78" style="vector-effect: non-scaling-stroke; fill: none; stroke: rgb(0, 0, 0); stroke-opacity: 1; stroke-width: 0.5px; opacity: 1;"/></g><g class="points"/><g class="text"/></g><g class="trace scatter trace868cbb" style="stroke-miterlimit: 2;"><g class="fills"/><g class="errorbars"/><g class="lines"><path class="js-line" d="M0,115.93L8.46,120.51L16.92,118.74L25.38,130.27L33.85,112.54L42.31,104.22L50.77,85.39L59.23,77.43L67.69,67.12L76.15,61.78L84.62,54.9L93.08,53.17L101.54,33.94L110,35.35L118.46,32.74L126.92,36.11L135.38,32.44L143.85,63.35L152.31,57.38L160.77,63.43L169.23,68.4L177.69,59.26L186.15,67.44L194.62,63.27L203.08,68.19L211.54,65.31L220,63.87L228.46,70.91L236.92,64.43L245.38,67.77L253.85,68.45L262.31,60.92L270.77,70.82L279.23,62.48L287.69,65.17L296.15,66.26L304.62,71.12L313.08,66.54L321.54,72.26L330,67.14L338.46,59.98L346.92,60.72L355.38,82.41L372.31,87.71L380.77,95.46L389.23,98.34L397.69,98.42L406.15,104.89L414.62,117.4L431.54,122.67L440,117.8" style="vector-effect: non-scaling-stroke; fill: none; stroke: rgb(0, 0, 0); stroke-opacity: 1; stroke-width: 0.25px; opacity: 1;"/></g><g class="points"/><g class="text"/></g><g class="trace scatter tracebbd475" style="stroke-miterlimit: 2; opacity: 1;"><g class="fills"/><g class="errorbars"/><g class="lines"/><g class="points"><path class="point" transform="translate(186.15,31)" d="M4,0A4,4 0 1,1 0,-4A4,4 0 0,1 4,0ZM0,0.5L0.5,0L0,-0.5L-0.5,0Z" style="opacity: 1; stroke: rgb(0, 0, 0); stroke-opacity: 1; stroke-width: 1px; fill: none;"/><path class="point" transform="translate(194.62,49.6)" d="M4,0A4,4 0 1,1 0,-4A4,4 0 0,1 4,0ZM0,0.5L0.5,0L0,-0.5L-0.5,0Z" style="opacity: 1; stroke: rgb(0, 0, 0); stroke-opacity: 1; stroke-width: 1px; fill: none;"/><path class="point" transform="translate(203.08,80.6)" d="M4,0A4,4 0 1,1 0,-4A4,4 0 0,1 4,0ZM0,0.5L0.5,0L0,-0.5L-0.5,0Z" style="opacity: 1; stroke: rgb(0, 0, 0); stroke-opacity: 1; stroke-width: 1px; fill: none;"/><path class="point" transform="translate(211.54,80.6)" d="M4,0A4,4 0 1,1 0,-4A4,4 0 0,1 4,0ZM0,0.5L0.5,0L0,-0.5L-0.5,0Z" style="opacity: 1; stroke: rgb(0, 0, 0); stroke-opacity: 1; stroke-width: 1px; fill: none;"/></g><g class="text"/></g></g></g><g class="overplot"/><path class="xlines-above crisp" d="M0,0" style="fill: none;"/><path class="ylines-above crisp" d="M0,0" style="fill: none;"/><g class="overlines-above"/><g class="xaxislayer-above"/><g class="yaxislayer-above"><g class="y2tick"><text text-anchor="end" x="79" y="4.199999999999999" transform="translate(0,472.00000000000006)" style="font-family: 'Open Sans', verdana, arial, sans-serif; font-size: 12px; fill: rgb(42, 63, 95); fill-opacity: 1; white-space: pre; opacity: 1;">20</text></g><g class="y2tick"><text text-anchor="end" x="79" y="4.199999999999999" style="font-family: 'Open Sans', verdana, arial, sans-serif; font-size: 12px; fill: rgb(42, 63, 95); fill-opacity: 1; white-space: pre; opacity: 1;" transform="translate(0,410.00000000000006)">30</text></g><g class="y2tick"><text text-anchor="end" x="79" y="4.199999999999999" style="font-family: 'Open Sans', verdana, arial, sans-serif; font-size: 12px; fill: rgb(42, 63, 95); fill-opacity: 1; white-space: pre; opacity: 1;" transform="translate(0,348.00000000000006)">40</text></g></g><g class="overaxes-above"/></g><g class="subplot x3y3"><g class="layer-subplot"><g class="shapelayer"/><g class="imagelayer"/></g><g class="minor-gridlayer"><g class="x3"/><g class="y3"/></g><g class="gridlayer"><g class="x3"><path class="x3grid crisp" transform="translate(156.15,0)" d="M0,534v186" style="stroke: rgb(255, 255, 255); stroke-opacity: 1; stroke-width: 1px;"/><path class="x3grid crisp" transform="translate(240.77,0)" d="M0,534v186" style="stroke: rgb(255, 255, 255); stroke-opacity: 1; stroke-width: 1px;"/><path class="x3grid crisp" transform="translate(325.38,0)" d="M0,534v186" style="stroke: rgb(255, 255, 255); stroke-opacity: 1; stroke-width: 1px;"/><path class="x3grid crisp" transform="translate(410,0)" d="M0,534v186" style="stroke: rgb(255, 255, 255); stroke-opacity: 1; stroke-width: 1px;"/><path class="x3grid crisp" transform="translate(494.62,0)" d="M0,534v186" style="stroke: rgb(255, 255, 255); stroke-opacity: 1; stroke-width: 1px;"/></g><g class="y3"><path class="y3grid crisp" transform="translate(0,682.8)" d="M80,0h440" style="stroke: rgb(255, 255, 255); stroke-opacity: 1; stroke-width: 1px;"/><path class="y3grid crisp" transform="translate(0,645.6)" d="M80,0h440" style="stroke: rgb(255, 255, 255); stroke-opacity: 1; stroke-width: 1px;"/><path class="y3grid crisp" transform="translate(0,608.4)" d="M80,0h440" style="stroke: rgb(255, 255, 255); stroke-opacity: 1; stroke-width: 1px;"/><path class="y3grid crisp" transform="translate(0,571.2)" d="M80,0h440" style="stroke: rgb(255, 255, 255); stroke-opacity: 1; stroke-width: 1px;"/></g></g><g class="zerolinelayer"/><path class="xlines-below"/><path class="ylines-below"/><g class="overlines-below"/><g class="xaxislayer-below"/><g class="yaxislayer-below"/><g class="overaxes-below"/><g class="plot" transform="translate(80,534)" clip-path="url(#clip3d718cx3y3plot)"><g class="scatterlayer mlayer"><g class="trace scatter trace96ad0c" style="stroke-miterlimit: 2;"><g class="fills"><g><path class="js-fill" d="M0,131.46L8.46,142.49L16.92,135.37L33.85,125.89L42.31,116.76L50.77,116.73L59.23,104.06L67.69,94.48L76.15,89.37L84.62,86.35L93.08,72.3L101.54,69.35L110,68.11L118.46,65.98L126.92,58.72L143.85,60.39L152.31,51.69L160.77,47.43L169.23,45.32L177.69,44.85L186.15,40.13L203.08,37.88L211.54,38.04L236.92,36.5L245.38,37.89L253.85,36.51L262.31,36.64L279.23,38.44L287.69,38.21L296.15,39.61L304.62,41.86L321.54,42.37L330,45.06L338.46,50.55L346.92,52.63L355.38,58.1L363.85,68.22L372.31,73.84L380.77,83.58L389.23,94.22L397.69,101.92L406.15,110.41L414.62,114.28L423.08,129.18L431.54,130.53L440,142.09L440,148.83L431.54,144.97L423.08,143.04L414.62,131.74L406.15,126.19L397.69,121.27L389.23,106.99L380.77,90.41L372.31,91.04L363.85,73.83L346.92,59.39L338.46,58.51L330,51.26L321.54,47.32L313.08,45.32L304.62,44.12L296.15,45.14L287.69,40.87L270.77,42.6L262.31,41.97L253.85,39.57L245.38,44.97L236.92,40.02L228.46,41.85L220,41.87L211.54,39.77L203.08,40.34L194.62,40.5L186.15,43.79L177.69,52.57L169.23,50.3L160.77,52.8L152.31,58.98L143.85,64.62L135.38,69.21L126.92,68L118.46,77.22L110,89.23L101.54,82.06L93.08,84.01L84.62,99.45L76.15,112.61L67.69,115.72L59.23,115.69L50.77,138.47L42.31,133.85L33.85,140.15L25.38,135.07L16.92,146.52L8.46,154.31L0,143.74Z" style="fill: rgb(90, 180, 172); fill-opacity: 1; stroke-width: 0;"/></g></g><g class="errorbars"/><g class="lines"><path class="js-line" d="M0,143.74L8.46,154.31L16.92,146.52L25.38,135.07L33.85,140.15L42.31,133.85L50.77,138.47L59.23,115.69L67.69,115.72L76.15,112.61L84.62,99.45L93.08,84.01L101.54,82.06L110,89.23L118.46,77.22L126.92,68L135.38,69.21L143.85,64.62L152.31,58.98L160.77,52.8L169.23,50.3L177.69,52.57L186.15,43.79L194.62,40.5L203.08,40.34L211.54,39.77L220,41.87L228.46,41.85L236.92,40.02L245.38,44.97L253.85,39.57L262.31,41.97L270.77,42.6L287.69,40.87L296.15,45.14L304.62,44.12L313.08,45.32L321.54,47.32L330,51.26L338.46,58.51L346.92,59.39L363.85,73.83L372.31,91.04L380.77,90.41L389.23,106.99L397.69,121.27L406.15,126.19L414.62,131.74L423.08,143.04L431.54,144.97L440,148.83" style="vector-effect: non-scaling-stroke; fill: none; stroke: rgb(0, 0, 0); stroke-opacity: 1; stroke-width: 0.25px; opacity: 1;"/></g><g class="points"/><g class="text"/></g><g class="trace scatter traced67d12" style="stroke-miterlimit: 2;"><g class="fills"><g><path class="js-fill" d="M0,125.47L8.46,133.7L16.92,125.67L25.38,120.84L33.85,119.73L42.31,108.72L50.77,101.43L59.23,94.61L67.69,83.69L76.15,80.56L84.62,72.26L93.08,62.83L101.54,60.62L110,61L118.46,58.87L126.92,54.21L135.38,55.17L143.85,55.24L152.31,48.1L160.77,43.85L169.23,42.85L177.69,42.34L186.15,36.89L194.62,37.94L203.08,36.41L211.54,34.88L220,34.71L228.46,35.46L236.92,34.81L245.38,36.43L253.85,34.68L262.31,32.86L270.77,34.08L279.23,35.55L287.69,35.89L296.15,36.82L304.62,40.23L330,38.48L338.46,42.37L355.38,55.47L363.85,64.33L372.31,67.92L380.77,77.75L389.23,87.58L397.69,96.23L406.15,105.39L414.62,108.72L431.54,124.56L440,135.74L440,142.09L431.54,130.53L423.08,129.18L414.62,114.28L406.15,110.41L397.69,101.92L389.23,94.22L380.77,83.58L372.31,73.84L363.85,68.22L355.38,58.1L346.92,52.63L338.46,50.55L330,45.06L321.54,42.37L304.62,41.86L296.15,39.61L287.69,38.21L279.23,38.44L262.31,36.64L253.85,36.51L245.38,37.89L236.92,36.5L211.54,38.04L203.08,37.88L186.15,40.13L177.69,44.85L169.23,45.32L160.77,47.43L152.31,51.69L143.85,60.39L126.92,58.72L118.46,65.98L110,68.11L101.54,69.35L93.08,72.3L84.62,86.35L76.15,89.37L67.69,94.48L59.23,104.06L50.77,116.73L42.31,116.76L33.85,125.89L16.92,135.37L8.46,142.49L0,131.46Z" style="fill: rgb(245, 245, 245); fill-opacity: 1; stroke-width: 0;"/></g></g><g class="errorbars"/><g class="lines"><path class="js-line" d="M0,131.46L8.46,142.49L16.92,135.37L33.85,125.89L42.31,116.76L50.77,116.73L59.23,104.06L67.69,94.48L76.15,89.37L84.62,86.35L93.08,72.3L101.54,69.35L110,68.11L118.46,65.98L126.92,58.72L143.85,60.39L152.31,51.69L160.77,47.43L169.23,45.32L177.69,44.85L186.15,40.13L203.08,37.88L211.54,38.04L236.92,36.5L245.38,37.89L253.85,36.51L262.31,36.64L279.23,38.44L287.69,38.21L296.15,39.61L304.62,41.86L321.54,42.37L330,45.06L338.46,50.55L346.92,52.63L355.38,58.1L363.85,68.22L372.31,73.84L380.77,83.58L389.23,94.22L397.69,101.92L406.15,110.41L414.62,114.28L423.08,129.18L431.54,130.53L440,142.09" style="vector-effect: non-scaling-stroke; fill: none; stroke: rgb(0, 0, 0); stroke-opacity: 1; stroke-width: 0.5px; opacity: 1;"/></g><g class="points"/><g class="text"/></g><g class="trace scatter trace1b7a76" style="stroke-miterlimit: 2;"><g class="fills"><g><path class="js-fill" d="M0,120.64L8.46,122.7L16.92,118.85L25.38,117.91L33.85,113.94L42.31,102.58L50.77,96.34L67.69,74.74L76.15,72.92L101.54,50.94L110,50.6L135.38,46.63L143.85,48.51L152.31,43.97L160.77,41.64L177.69,38.06L186.15,34.99L194.62,35.32L203.08,34.56L220,31.5L228.46,31.99L236.92,29.91L245.38,32.22L262.31,30.96L270.77,31.58L304.62,37.03L313.08,35.9L321.54,37.63L330,35.07L338.46,37.59L346.92,46.04L355.38,51.52L363.85,60.54L372.31,61.66L380.77,74.46L397.69,88.97L406.15,99.4L414.62,100.34L423.08,102.73L440,123.66L440,135.74L431.54,124.56L414.62,108.72L406.15,105.39L397.69,96.23L389.23,87.58L380.77,77.75L372.31,67.92L363.85,64.33L355.38,55.47L338.46,42.37L330,38.48L304.62,40.23L296.15,36.82L287.69,35.89L279.23,35.55L270.77,34.08L262.31,32.86L253.85,34.68L245.38,36.43L236.92,34.81L228.46,35.46L220,34.71L211.54,34.88L203.08,36.41L194.62,37.94L186.15,36.89L177.69,42.34L169.23,42.85L160.77,43.85L152.31,48.1L143.85,55.24L135.38,55.17L126.92,54.21L118.46,58.87L110,61L101.54,60.62L93.08,62.83L84.62,72.26L76.15,80.56L67.69,83.69L59.23,94.61L50.77,101.43L42.31,108.72L33.85,119.73L25.38,120.84L16.92,125.67L8.46,133.7L0,125.47Z" style="fill: rgb(245, 245, 245); fill-opacity: 1; stroke-width: 0;"/></g></g><g class="errorbars"/><g class="lines"><path class="js-line" d="M0,125.47L8.46,133.7L16.92,125.67L25.38,120.84L33.85,119.73L42.31,108.72L50.77,101.43L59.23,94.61L67.69,83.69L76.15,80.56L84.62,72.26L93.08,62.83L101.54,60.62L110,61L118.46,58.87L126.92,54.21L135.38,55.17L143.85,55.24L152.31,48.1L160.77,43.85L169.23,42.85L177.69,42.34L186.15,36.89L194.62,37.94L203.08,36.41L211.54,34.88L220,34.71L228.46,35.46L236.92,34.81L245.38,36.43L253.85,34.68L262.31,32.86L270.77,34.08L279.23,35.55L287.69,35.89L296.15,36.82L304.62,40.23L330,38.48L338.46,42.37L355.38,55.47L363.85,64.33L372.31,67.92L380.77,77.75L389.23,87.58L397.69,96.23L406.15,105.39L414.62,108.72L431.54,124.56L440,135.74" style="vector-effect: non-scaling-stroke; fill: none; stroke: rgb(0, 0, 0); stroke-opacity: 1; stroke-width: 1px; opacity: 1;"/></g><g class="points"/><g class="text"/></g><g class="trace scatter traced8b6ec" style="stroke-miterlimit: 2;"><g class="fills"><g><path class="js-fill" d="M0,113.15L8.46,112.36L16.92,102.22L25.38,105.59L33.85,107.34L42.31,93.04L50.77,74.16L59.23,62.61L67.69,61.26L76.15,52.45L84.62,54.33L101.54,34.57L110,35.93L118.46,30.73L126.92,34.42L135.38,28.14L143.85,40.31L152.31,38.67L160.77,33.12L169.23,35.71L177.69,29L194.62,34.28L203.08,32.91L211.54,28.53L220,25.98L228.46,24.77L236.92,20.48L245.38,25.85L253.85,27.41L262.31,26.95L270.77,23.14L279.23,26.08L287.69,31.28L296.15,29.38L304.62,29.86L321.54,32.41L330,29.73L338.46,32.28L346.92,37.73L355.38,44.54L363.85,53.89L372.31,57.83L380.77,69.75L389.23,74.49L397.69,80.1L406.15,86.52L414.62,88.06L423.08,90.35L431.54,102.67L440,105.67L440,123.66L423.08,102.73L414.62,100.34L406.15,99.4L397.69,88.97L380.77,74.46L372.31,61.66L363.85,60.54L355.38,51.52L346.92,46.04L338.46,37.59L330,35.07L321.54,37.63L313.08,35.9L304.62,37.03L270.77,31.58L262.31,30.96L245.38,32.22L236.92,29.91L228.46,31.99L220,31.5L203.08,34.56L194.62,35.32L186.15,34.99L177.69,38.06L160.77,41.64L152.31,43.97L143.85,48.51L135.38,46.63L110,50.6L101.54,50.94L76.15,72.92L67.69,74.74L50.77,96.34L42.31,102.58L33.85,113.94L25.38,117.91L16.92,118.85L8.46,122.7L0,120.64Z" style="fill: rgb(216, 179, 101); fill-opacity: 1; stroke-width: 0;"/></g></g><g class="errorbars"/><g class="lines"><path class="js-line" d="M0,120.64L8.46,122.7L16.92,118.85L25.38,117.91L33.85,113.94L42.31,102.58L50.77,96.34L67.69,74.74L76.15,72.92L101.54,50.94L110,50.6L135.38,46.63L143.85,48.51L152.31,43.97L160.77,41.64L177.69,38.06L186.15,34.99L194.62,35.32L203.08,34.56L220,31.5L228.46,31.99L236.92,29.91L245.38,32.22L262.31,30.96L270.77,31.58L304.62,37.03L313.08,35.9L321.54,37.63L330,35.07L338.46,37.59L346.92,46.04L355.38,51.52L363.85,60.54L372.31,61.66L380.77,74.46L397.69,88.97L406.15,99.4L414.62,100.34L423.08,102.73L440,123.66" style="vector-effect: non-scaling-stroke; fill: none; stroke: rgb(0, 0, 0); stroke-opacity: 1; stroke-width: 0.5px; opacity: 1;"/></g><g class="points"/><g class="text"/></g><g class="trace scatter tracebf4d20" style="stroke-miterlimit: 2;"><g class="fills"/><g class="errorbars"/><g class="lines"><path class="js-line" d="M0,113.15L8.46,112.36L16.92,102.22L25.38,105.59L33.85,107.34L42.31,93.04L50.77,74.16L59.23,62.61L67.69,61.26L76.15,52.45L84.62,54.33L101.54,34.57L110,35.93L118.46,30.73L126.92,34.42L135.38,28.14L143.85,40.31L152.31,38.67L160.77,33.12L169.23,35.71L177.69,29L194.62,34.28L203.08,32.91L211.54,28.53L220,25.98L228.46,24.77L236.92,20.48L245.38,25.85L253.85,27.41L262.31,26.95L270.77,23.14L279.23,26.08L287.69,31.28L296.15,29.38L304.62,29.86L321.54,32.41L330,29.73L338.46,32.28L346.92,37.73L355.38,44.54L363.85,53.89L372.31,57.83L380.77,69.75L389.23,74.49L397.69,80.1L406.15,86.52L414.62,88.06L423.08,90.35L431.54,102.67L440,105.67" style="vector-effect: non-scaling-stroke; fill: none; stroke: rgb(0, 0, 0); stroke-opacity: 1; stroke-width: 0.25px; opacity: 1;"/></g><g class="points"/><g class="text"/></g><g class="trace scatter tracedbbd1c" style="stroke-miterlimit: 2; opacity: 1;"><g class="fills"/><g class="errorbars"/><g class="lines"/><g class="points"><path class="point" transform="translate(186.15,29.76)" d="M4,0A4,4 0 1,1 0,-4A4,4 0 0,1 4,0ZM0,0.5L0.5,0L0,-0.5L-0.5,0Z" style="opacity: 1; stroke: rgb(0, 0, 0); stroke-opacity: 1; stroke-width: 1px; fill: none;"/><path class="point" transform="translate(194.62,29.76)" d="M4,0A4,4 0 1,1 0,-4A4,4 0 0,1 4,0ZM0,0.5L0.5,0L0,-0.5L-0.5,0Z" style="opacity: 1; stroke: rgb(0, 0, 0); stroke-opacity: 1; stroke-width: 1px; fill: none;"/><path class="point" transform="translate(203.08,22.32)" d="M4,0A4,4 0 1,1 0,-4A4,4 0 0,1 4,0ZM0,0.5L0.5,0L0,-0.5L-0.5,0Z" style="opacity: 1; stroke: rgb(0, 0, 0); stroke-opacity: 1; stroke-width: 1px; fill: none;"/><path class="point" transform="translate(211.54,22.32)" d="M4,0A4,4 0 1,1 0,-4A4,4 0 0,1 4,0ZM0,0.5L0.5,0L0,-0.5L-0.5,0Z" style="opacity: 1; stroke: rgb(0, 0, 0); stroke-opacity: 1; stroke-width: 1px; fill: none;"/></g><g class="text"/></g></g></g><g class="overplot"/><path class="xlines-above crisp" d="M0,0" style="fill: none;"/><path class="ylines-above crisp" d="M0,0" style="fill: none;"/><g class="overlines-above"/><g class="xaxislayer-above"><g class="x3tick"><text text-anchor="middle" x="0" y="733" transform="translate(156.15,0)" style="font-family: 'Open Sans', verdana, arial, sans-serif; font-size: 12px; fill: rgb(42, 63, 95); fill-opacity: 1; white-space: pre; opacity: 1;">10</text></g><g class="x3tick"><text text-anchor="middle" x="0" y="733" style="font-family: 'Open Sans', verdana, arial, sans-serif; font-size: 12px; fill: rgb(42, 63, 95); fill-opacity: 1; white-space: pre; opacity: 1;" transform="translate(240.77,0)">20</text></g><g class="x3tick"><text text-anchor="middle" x="0" y="733" style="font-family: 'Open Sans', verdana, arial, sans-serif; font-size: 12px; fill: rgb(42, 63, 95); fill-opacity: 1; white-space: pre; opacity: 1;" transform="translate(325.38,0)">30</text></g><g class="x3tick"><text text-anchor="middle" x="0" y="733" style="font-family: 'Open Sans', verdana, arial, sans-serif; font-size: 12px; fill: rgb(42, 63, 95); fill-opacity: 1; white-space: pre; opacity: 1;" transform="translate(410,0)">40</text></g><g class="x3tick"><text text-anchor="middle" x="0" y="733" style="font-family: 'Open Sans', verdana, arial, sans-serif; font-size: 12px; fill: rgb(42, 63, 95); fill-opacity: 1; white-space: pre; opacity: 1;" transform="translate(494.62,0)">50</text></g></g><g class="yaxislayer-above"><g class="y3tick"><text text-anchor="end" x="79" y="4.199999999999999" transform="translate(0,720)" style="font-family: 'Open Sans', verdana, arial, sans-serif; font-size: 12px; fill: rgb(42, 63, 95); fill-opacity: 1; white-space: pre; opacity: 1;">5</text></g><g class="y3tick"><text text-anchor="end" x="79" y="4.199999999999999" style="font-family: 'Open Sans', verdana, arial, sans-serif; font-size: 12px; fill: rgb(42, 63, 95); fill-opacity: 1; white-space: pre; opacity: 1;" transform="translate(0,682.8)">10</text></g><g class="y3tick"><text text-anchor="end" x="79" y="4.199999999999999" style="font-family: 'Open Sans', verdana, arial, sans-serif; font-size: 12px; fill: rgb(42, 63, 95); fill-opacity: 1; white-space: pre; opacity: 1;" transform="translate(0,645.6)">15</text></g><g class="y3tick"><text text-anchor="end" x="79" y="4.199999999999999" style="font-family: 'Open Sans', verdana, arial, sans-serif; font-size: 12px; fill: rgb(42, 63, 95); fill-opacity: 1; white-space: pre; opacity: 1;" transform="translate(0,608.4)">20</text></g><g class="y3tick"><text text-anchor="end" x="79" y="4.199999999999999" style="font-family: 'Open Sans', verdana, arial, sans-serif; font-size: 12px; fill: rgb(42, 63, 95); fill-opacity: 1; white-space: pre; opacity: 1;" transform="translate(0,571.2)">25</text></g><g class="y3tick"><text text-anchor="end" x="79" y="4.199999999999999" style="font-family: 'Open Sans', verdana, arial, sans-serif; font-size: 12px; fill: rgb(42, 63, 95); fill-opacity: 1; white-space: pre; opacity: 1;" transform="translate(0,534)">30</text></g></g><g class="overaxes-above"/></g></g><g class="polarlayer"/><g class="smithlayer"/><g class="ternarylayer"/><g class="geolayer"/><g class="funnelarealayer"/><g class="pielayer"/><g class="iciclelayer"/><g class="treemaplayer"/><g class="sunburstlayer"/><g class="glimages"/><defs id="topdefs-3d718c"><g class="clips"/></defs><g class="layer-above"><g class="imagelayer"/><g class="shapelayer"/></g><g class="infolayer"><g class="g-gtitle"><text class="gtitle" x="30" y="50" text-anchor="start" dy="0em" style="font-family: 'Open Sans', verdana, arial, sans-serif; font-size: 17px; fill: rgb(42, 63, 95); opacity: 1; font-weight: normal; white-space: pre;">Climatology and S2S forecast for Dinajpur</text></g><g class="g-xtitle"/><g class="g-x2title"/><g class="g-x3title"/><g class="g-ytitle"><text class="ytitle" transform="rotate(-90,34.16875,193)" x="34.16875" y="193" text-anchor="middle" style="font-family: 'Open Sans', verdana, arial, sans-serif; font-size: 14px; fill: rgb(42, 63, 95); opacity: 1; font-weight: normal; white-space: pre;">[mm]</text></g><g class="g-y2title"><text class="y2title" transform="rotate(-90,40.840625,410.00000000000006)" x="40.840625" y="410.00000000000006" text-anchor="middle" style="font-family: 'Open Sans', verdana, arial, sans-serif; font-size: 14px; fill: rgb(42, 63, 95); opacity: 1; font-weight: normal; white-space: pre;">[C]</text></g><g class="g-y3title"><text class="y3title" transform="rotate(-90,40.840625,627)" x="40.840625" y="627" text-anchor="middle" style="font-family: 'Open Sans', verdana, arial, sans-serif; font-size: 14px; fill: rgb(42, 63, 95); opacity: 1; font-weight: normal; white-space: pre;">[C]</text></g><g class="annotation" data-index="0" style="opacity: 1;"><g class="annotation-text-g" transform="rotate(0,300,89.5)"><g class="cursor-pointer" transform="translate(237,79)"><rect class="bg" x="0.5" y="0.5" width="126" height="20" style="stroke-width: 1px; stroke: rgb(0, 0, 0); stroke-opacity: 0; fill: rgb(0, 0, 0); fill-opacity: 0;"/><text class="annotation-text" text-anchor="middle" x="63.359375" y="16" style="font-family: 'Open Sans', verdana, arial, sans-serif; font-size: 16px; fill: rgb(42, 63, 95); fill-opacity: 1; white-space: pre;">Precipitation sum</text></g></g></g><g class="annotation" data-index="1" style="opacity: 1;"><g class="annotation-text-g" transform="rotate(0,300,306.50000000000006)"><g class="cursor-pointer" transform="translate(196,296)"><rect class="bg" x="0.5" y="0.5" width="208" height="20" style="stroke-width: 1px; stroke: rgb(0, 0, 0); stroke-opacity: 0; fill: rgb(0, 0, 0); fill-opacity: 0;"/><text class="annotation-text" text-anchor="middle" x="104.265625" y="16" style="font-family: 'Open Sans', verdana, arial, sans-serif; font-size: 16px; fill: rgb(42, 63, 95); fill-opacity: 1; white-space: pre;">Mean maximum temperature</text></g></g></g><g class="annotation" data-index="2" style="opacity: 1;"><g class="annotation-text-g" transform="rotate(0,300,523.5)"><g class="cursor-pointer" transform="translate(198,513)"><rect class="bg" x="0.5" y="0.5" width="203" height="20" style="stroke-width: 1px; stroke: rgb(0, 0, 0); stroke-opacity: 0; fill: rgb(0, 0, 0); fill-opacity: 0;"/><text class="annotation-text" text-anchor="middle" x="102.046875" y="16" style="font-family: 'Open Sans', verdana, arial, sans-serif; font-size: 16px; fill: rgb(42, 63, 95); fill-opacity: 1; white-space: pre;">Mean minimum temperature</text></g></g></g><g class="annotation" data-index="3" style="opacity: 1;"><g class="annotation-text-g" transform="rotate(0,300,760.5)"><g class="cursor-pointer" transform="translate(277,750)"><rect class="bg" x="0.5" y="0.5" width="45" height="20" style="stroke-width: 1px; stroke: rgb(0, 0, 0); stroke-opacity: 0; fill: rgb(0, 0, 0); fill-opacity: 0;"/><text class="annotation-text" text-anchor="middle" x="22.3125" y="16" style="font-family: 'Open Sans', verdana, arial, sans-serif; font-size: 16px; fill: rgb(42, 63, 95); fill-opacity: 1; white-space: pre;">Week</text></g></g></g></g></svg>