<svg class="main-svg" xmlns="http://www.w3.org/2000/svg" xmlns:xlink="http://www.w3.org/1999/xlink" width="600" height="800" style="" viewBox="0 0 600 800"><rect x="0" y="0" width="600" height="800" style="fill: rgb(255, 255, 255); fill-opacity: 1;"/><defs id="defs-cfc61f"><g class="clips"><clipPath id="clipcfc61fxyplot" class="plotclip"><rect width="440" height="186.00000000000003"/></clipPath><clipPath id="clipcfc61fx2y2plot" class="plotclip"><rect width="440" height="185.99999999999997"/></clipPath><clipPath id="clipcfc61fx3y3plot" class="plotclip"><rect width="440" height="186"/></clipPath><clipPath class="axesclip" id="clipcfc61fx"><rect x="80" y="0" width="440" height="800"/></clipPath><clipPath class="axesclip" id="clipcfc61fy"><rect x="0" y="100" width="600" height="186.00000000000003"/></clipPath><clipPath class="axesclip" id="clipcfc61fxy"><rect x="80" y="100" width="440" height="186.00000000000003"/></clipPath><clipPath class="axesclip" id="clipcfc61fy2"><rect x="0" y="317.00000000000006" width="600" height="185.99999999999997"/></clipPath><clipPath class="axesclip" id="clipcfc61fxy2"><rect x="80" y="317.00000000000006" width="440" height="185.99999999999997"/></clipPath><clipPath class="axesclip" id="clipcfc61fy3"><rect x="0" y="534" width="600" height="186"/></clipPath><clipPath class="axesclip" id="clipcfc61fxy3"><rect x="80" y="534" width="440" height="186"/></clipPath><clipPath class="axesclip" id="clipcfc61fx2"><rect x="80" y="0" width="440" height="800"/></clipPath><clipPath class="axesclip" id="clipcfc61fx2y"><rect x="80" y="100" width="440" height="186.00000000000003"/></clipPath><clipPath class="axesclip" id="clipcfc61fx2y2"><rect x="80" y="317.00000000000006" width="440" height="185.99999999999997"/></clipPath><clipPath class="axesclip" id="clipcfc61fx2y3"><rect x="80" y="534" width="440" height="186"/></clipPath><clipPath class="axesclip" id="clipcfc61fx3"><rect x="80" y="0" width="440" height="800"/></clipPath><clipPath class="axesclip" id="clipcfc61fx3y"><rect x="80" y="100" width="440" height="186.00000000000003"/></clipPath><clipPath class="axesclip" id="clipcfc61fx3y2"><rect x="80" y="317.00000000000006" width="440" height="185.99999999999997"/></clipPath><clipPath class="axesclip" id="clipcfc61fx3y3"><rect x="80" y="534" width="440" height="186"/></clipPath></g><g class="gradients"/><g class="patterns"/></defs><g class="bglayer"><rect class="bg" x="80" y="100" width="440" height="186.00000000000003" style="fill: rgb(229, 236, 246); fill-opacity: 1; stroke-width: 0;"/><rect class="bg" x="80" y="317.00000000000006" width="440" height="185.99999999999997" style="fill: rgb(229, 236, 246); fill-opacity: 1; stroke-width: 0;"/><rect class="bg" x="80" y="534" width="440" height="186" style="fill: rgb(229, 236, 246); fill-opacity: 1; stroke-width: 0;"/></g><g class="layer-below"><g class="imagelayer"/><g class="shapelayer"/></g><g class="cartesianlayer"><g class="subplot xy"><g class="layer-subplot"><g class="shapelayer"/><g class="imagelayer"/></g><g class="minor-gridlayer"><g class="x"/><g class="y"/></g><g class="gridlayer"><g class="x"><path class="xgrid crisp" transform="translate(156.15,0)" d="M0,100v186.00000000000003" style="stroke: rgb(255, 255, 255); stroke-opacity: 1; stroke-width: 1px;"/><path class="xgrid crisp" transform="translate(240.77,0)" d="M0,100v186.00000000000003" style="stroke: rgb(255, 255, 255); stroke-opacity: 1; stroke-width: 1px;"/><path class="xgrid crisp" transform="translate(325.38,0)" d="M0,100v186.00000000000003" style="stroke: rgb(255, 255, 255); stroke-opacity: 1; stroke-width: 1px;"/><path class="xgrid crisp" transform="translate(410,0)" d="M0,100v186.00000000000003" style="stroke: rgb(255, 255, 255); stroke-opacity: 1; stroke-width: 1px;"/><path class="xgrid crisp" transform="translate(494.62,0)" d="M0,100v186.00000000000003" style="stroke: rgb(255, 255, 255); stroke-opacity: 1; stroke-width: 1px;"/></g><g class="y"><path class="ygrid crisp" transform="translate(0,248.8)" d="M80,0h440" style="stroke: rgb(255, 255, 255); stroke-opacity: 1; stroke-width: 1px;"/><path class="ygrid crisp" transform="translate(0,211.6)" d="M80,0h440" style="stroke: rgb(255, 255, 255); stroke-opacity: 1; stroke-width: 1px;"/><path class="ygrid crisp" transform="translate(0,174.4)" d="M80,0h440" style="stroke: rgb(255, 255, 255); stroke-opacity: 1; stroke-width: 1px;"/><path class="ygrid crisp" transform="translate(0,137.2)" d="M80,0h440" style="stroke: rgb(255, 255, 255); stroke-opacity: 1; stroke-width: 1px;"/></g></g><g class="zerolinelayer"><path class="yzl zl crisp" transform="translate(0,286)" d="M80,0h440" style="stroke: rgb(255, 255, 255); stroke-opacity: 1; stroke-width: 2px;"/></g><path class="xlines-below"/><path class="ylines-below"/><g class="overlines-below"/><g class="xaxislayer-below"/><g class="yaxislayer-below"/><g class="overaxes-below"/><g class="plot" transform="translate(80,100)" clip-path="url(#clipcfc61fxyplot)"><g class="scatterlayer mlayer"><g class="trace scatter trace5b3304" style="stroke-miterlimit: 2;"><g class="fills"><g><path class="js-fill" d="M0,186L101.54,185.99L110,184.77L118.46,184.81L126.92,180.74L135.38,183.72L143.85,174.84L152.31,177.79L160.77,170.43L169.23,163.51L177.69,154.98L186.15,150.86L194.62,166.11L203.08,166.03L211.54,160.94L220,163.37L228.46,157.96L245.38,164.41L253.85,166.48L262.31,159.49L270.77,159.28L279.23,169.83L287.69,168.92L296.15,175.44L304.62,172.67L313.08,167.1L321.54,172.66L330,174.29L338.46,177.78L346.92,184.59L355.38,186L440,186L440,186L346.92,186L338.46,185.19L330,185.85L321.54,184.99L313.08,180.45L304.62,185.21L296.15,185.28L287.69,183.94L279.23,178.37L270.77,180.88L262.31,179.11L253.85,180.58L245.38,185.88L236.92,185.31L228.46,181.04L220,184.46L211.54,184.63L203.08,185.95L194.62,184.6L186.15,183.96L177.69,185.82L169.23,184.52L160.77,184.34L152.31,186L0,186Z" style="fill: rgb(224, 236, 244); fill-opacity: 1; stroke-width: 0;"/></g></g><g class="errorbars"/><g class="lines"><path class="js-line" d="M0,186L152.31,186L160.77,184.34L169.23,184.52L177.69,185.82L186.15,183.96L194.62,184.6L203.08,185.95L211.54,184.63L220,184.46L228.46,181.04L236.92,185.31L245.38,185.88L253.85,180.58L262.31,179.11L270.77,180.88L279.23,178.37L287.69,183.94L296.15,185.28L304.62,185.21L313.08,180.45L321.54,184.99L330,185.85L338.46,185.19L346.92,186L440,186" style="vector-effect: non-scaling-stroke; fill: none; stroke: rgb(0, 0, 0); stroke-opacity: 1; stroke-width: 0.25px; opacity: 1;"/></g><g class="points"/><g class="text"/></g><g class="trace scatter trace324226" style="stroke-miterlimit: 2;"><g class="fills"><g><path class="js-fill" d="M0,186L84.62,185.54L93.08,184.85L101.54,182.69L110,177.41L118.46,173.36L126.92,173.22L135.38,168.38L143.85,162.35L152.31,156.25L160.77,153.41L169.23,149.23L177.69,136.64L186.15,135.27L194.62,137.04L203.08,151.21L211.54,135.12L220,152.88L228.46,140.26L236.92,143.06L245.38,142.73L253.85,151.1L262.31,144.48L270.77,149.1L279.23,150.85L287.69,159.46L296.15,160.5L304.62,163.34L313.08,147.8L321.54,145.92L330,164.92L338.46,164.94L346.92,179.42L355.38,185.09L363.85,185.68L389.23,186L397.69,186L440,186L440,186L355.38,186L346.92,184.59L338.46,177.78L330,174.29L321.54,172.66L313.08,167.1L304.62,172.67L296.15,175.44L287.69,168.92L279.23,169.83L270.77,159.28L262.31,159.49L253.85,166.48L245.38,164.41L228.46,157.96L220,163.37L211.54,160.94L203.08,166.03L194.62,166.11L186.15,150.86L177.69,154.98L169.23,163.51L160.77,170.43L152.31,177.79L143.85,174.84L135.38,183.72L126.92,180.74L118.46,184.81L110,184.77L101.54,185.99L0,186Z" style="fill: rgb(158, 188, 218); fill-opacity: 1; stroke-width: 0;"/></g></g><g class="errorbars"/><g class="lines"><path class="js-line" d="M0,186L101.54,185.99L110,184.77L118.46,184.81L126.92,180.74L135.38,183.72L143.85,174.84L152.31,177.79L160.77,170.43L169.23,163.51L177.69,154.98L186.15,150.86L194.62,166.11L203.08,166.03L211.54,160.94L220,163.37L228.46,157.96L245.38,164.41L253.85,166.48L262.31,159.49L270.77,159.28L279.23,169.83L287.69,168.92L296.15,175.44L304.62,172.67L313.08,167.1L321.54,172.66L330,174.29L338.46,177.78L346.92,184.59L355.38,186L440,186" style="vector-effect: non-scaling-stroke; fill: none; stroke: rgb(0, 0, 0); stroke-opacity: 1; stroke-width: 0.5px; opacity: 1;"/></g><g class="points"/><g class="text"/></g><g class="trace scatter trace9b7e59" style="stroke-miterlimit: 2;"><g class="fills"><g><path class="js-fill" d="M0,186L42.31,186L50.77,183.84L59.23,183.91L67.69,183.01L84.62,180.34L93.08,177.99L101.54,162.6L110,149.12L118.46,168.07L126.92,157.65L143.85,133.27L152.31,134L160.77,119.71L169.23,130.9L186.15,101.44L194.62,95.48L203.08,137.05L211.54,90.66L220,130.92L228.46,104.92L236.92,113.57L245.38,110.23L253.85,130.4L262.31,115.9L270.77,130.4L279.23,119.77L287.69,148.62L296.15,149.13L304.62,144.16L313.08,119.02L321.54,115.4L330,145.7L338.46,157.65L346.92,166.17L355.38,151.35L363.85,178.26L372.31,184.18L380.77,185.96L440,186L440,186L397.69,186L389.23,186L363.85,185.68L355.38,185.09L346.92,179.42L338.46,164.94L330,164.92L321.54,145.92L313.08,147.8L304.62,163.34L296.15,160.5L287.69,159.46L279.23,150.85L270.77,149.1L262.31,144.48L253.85,151.1L245.38,142.73L236.92,143.06L228.46,140.26L220,152.88L211.54,135.12L203.08,151.21L194.62,137.04L186.15,135.27L177.69,136.64L169.23,149.23L160.77,153.41L152.31,156.25L143.85,162.35L135.38,168.38L126.92,173.22L118.46,173.36L110,177.41L101.54,182.69L93.08,184.85L84.62,185.54L0,186Z" style="fill: rgb(158, 188, 218); fill-opacity: 1; stroke-width: 0;"/></g></g><g class="errorbars"/><g class="lines"><path class="js-line" d="M0,186L84.62,185.54L93.08,184.85L101.54,182.69L110,177.41L118.46,173.36L126.92,173.22L135.38,168.38L143.85,162.35L152.31,156.25L160.77,153.41L169.23,149.23L177.69,136.64L186.15,135.27L194.62,137.04L203.08,151.21L211.54,135.12L220,152.88L228.46,140.26L236.92,143.06L245.38,142.73L253.85,151.1L262.31,144.48L270.77,149.1L279.23,150.85L287.69,159.46L296.15,160.5L304.62,163.34L313.08,147.8L321.54,145.92L330,164.92L338.46,164.94L346.92,179.42L355.38,185.09L363.85,185.68L389.23,186L397.69,186L440,186" style="vector-effect: non-scaling-stroke; fill: none; stroke: rgb(0, 0, 0); stroke-opacity: 1; stroke-width: 1px; opacity: 1;"/></g><g class="points"/><g class="text"/></g><g class="trace scatter trace4e7d86" style="stroke-miterlimit: 2;"><g class="fills"><g><path class="js-fill" d="M0,186L42.31,186L50.77,183.59L59.23,182.67L67.69,179L76.15,180.64L84.62,172.62L93.08,168.18L101.54,138.29L110,96.92L118.46,144.79L126.92,143.73L135.38,93.32L143.85,122.36L152.31,69.32L160.77,46.13L169.23,84.12L177.69,62.85L186.15,61.96L194.62,60.83L203.08,109.55L211.54,34.15L220,83.05L228.46,43.9L236.92,67.82L245.38,74.14L253.85,76.54L262.31,100.19L270.77,91.63L279.23,47.96L287.69,130.22L296.15,122.83L304.62,119.52L313.08,91.46L321.54,60.35L330,128.36L338.46,149.61L346.92,165.89L355.38,124.63L363.85,170.61L372.31,183.52L380.77,185.94L389.23,186L440,186L440,186L380.77,185.96L372.31,184.18L363.85,178.26L355.38,151.35L346.92,166.17L338.46,157.65L330,145.7L321.54,115.4L313.08,119.02L304.62,144.16L296.15,149.13L287.69,148.62L279.23,119.77L270.77,130.4L262.31,115.9L253.85,130.4L245.38,110.23L236.92,113.57L228.46,104.92L220,130.92L211.54,90.66L203.08,137.05L194.62,95.48L186.15,101.44L169.23,130.9L160.77,119.71L152.31,134L143.85,133.27L126.92,157.65L118.46,168.07L110,149.12L101.54,162.6L93.08,177.99L84.62,180.34L67.69,183.01L59.23,183.91L50.77,183.84L42.31,186L0,186Z" style="fill: rgb(136, 86, 167); fill-opacity: 1; stroke-width: 0;"/></g></g><g class="errorbars"/><g class="lines"><path class="js-line" d="M0,186L42.31,186L50.77,183.84L59.23,183.91L67.69,183.01L84.62,180.34L93.08,177.99L101.54,162.6L110,149.12L118.46,168.07L126.92,157.65L143.85,133.27L152.31,134L160.77,119.71L169.23,130.9L186.15,101.44L194.62,95.48L203.08,137.05L211.54,90.66L220,130.92L228.46,104.92L236.92,113.57L245.38,110.23L253.85,130.4L262.31,115.9L270.77,130.4L279.23,119.77L287.69,148.62L296.15,149.13L304.62,144.16L313.08,119.02L321.54,115.4L330,145.7L338.46,157.65L346.92,166.17L355.38,151.35L363.85,178.26L372.31,184.18L380.77,185.96L440,186" style="vector-effect: non-scaling-stroke; fill: none; stroke: rgb(0, 0, 0); stroke-opacity: 1; stroke-width: 0.5px; opacity: 1;"/></g><g class="points"/><g class="text"/></g><g class="trace scatter trace2908f6" style="stroke-miterlimit: 2;"><g class="fills"/><g class="errorbars"/><g class="lines"><path class="js-line" d="M0,186L42.31,186L50.77,183.59L59.23,182.67L67.69,179L76.15,180.64L84.62,172.62L93.08,168.18L101.54,138.29L110,96.92L118.46,144.79L126.92,143.73L135.38,93.32L143.85,122.36L152.31,69.32L160.77,46.13L169.23,84.12L177.69,62.85L186.15,61.96L194.62,60.83L203.08,109.55L211.54,34.15L220,83.05L228.46,43.9L236.92,67.82L245.38,74.14L253.85,76.54L262.31,100.19L270.77,91.63L279.23,47.96L287.69,130.22L296.15,122.83L304.62,119.52L313.08,91.46L321.54,60.35L330,128.36L338.46,149.61L346.92,165.89L355.38,124.63L363.85,170.61L372.31,183.52L380.77,185.94L389.23,186L440,186" style="vector-effect: non-scaling-stroke; fill: none; stroke: rgb(0, 0, 0); stroke-opacity: 1; stroke-width: 0.25px; opacity: 1;"/></g><g class="points"/><g class="text"/></g><g class="trace scatter trace9faa6b" style="stroke-miterlimit: 2; opacity: 1;"><g class="fills"/><g class="errorbars"/><g class="lines"/><g class="points"><path class="point" transform="translate(245.38,183.02)" d="M4,0A4,4 0 1,1 0,-4A4,4 0 0,1 4,0ZM0,0.5L0.5,0L0,-0.5L-0.5,0Z" style="opacity: 1; stroke: rgb(0, 0, 0); stroke-opacity: 1; stroke-width: 1px; fill: none;"/><path class="point" transform="translate(253.85,162.19)" d="M4,0A4,4 0 1,1 0,-4A4,4 0 0,1 4,0ZM0,0.5L0.5,0L0,-0.5L-0.5,0Z" style="opacity: 1; stroke: rgb(0, 0, 0); stroke-opacity: 1; stroke-width: 1px; fill: none;"/><path class="point" transform="translate(262.31,51.34)" d="M4,0A4,4 0 1,1 0,-4A4,4 0 0,1 4,0ZM0,0.5L0.5,0L0,-0.5L-0.5,0Z" style="opacity: 1; stroke: rgb(0, 0, 0); stroke-opacity: 1; stroke-width: 1px; fill: none;"/><path class="point" transform="translate(270.77,51.34)" d="M4,0A4,4 0 1,1 0,-4A4,4 0 0,1 4,0ZM0,0.5L0.5,0L0,-0.5L-0.5,0Z" style="opacity: 1; stroke: rgb(0, 0, 0); stroke-opacity: 1; stroke-width: 1px; fill: none;"/></g><g class="text"/></g></g></g><g class="overplot"/><path class="xlines-above crisp" d="M0,0" style="fill: none;"/><path class="ylines-above crisp" d="M0,0" style="fill: none;"/><g class="overlines-above"/><g class="xaxislayer-above"/><g class="yaxislayer-above"><g class="ytick"><text text-anchor="end" x="79" y="4.199999999999999" transform="translate(0,286)" style="font-family: 'Open Sans', verdana, arial, sans-serif; font-size: 12px; fill: rgb(42, 63, 95); fill-opacity: 1; white-space: pre; opacity: 1;">0</text></g><g class="ytick"><text text-anchor="end" x="79" y="4.199999999999999" style="font-family: 'Open Sans', verdana, arial, sans-serif; font-size: 12px; fill: rgb(42, 63, 95); fill-opacity: 1; white-space: pre; opacity: 1;" transform="translate(0,248.8)">50</text></g><g class="ytick"><text text-anchor="end" x="79" y="4.199999999999999" style="font-family: 'Open Sans', verdana, arial, sans-serif; font-size: 12px; fill: rgb(42, 63, 95); fill-opacity: 1; white-space: pre; opacity: 1;" transform="translate(0,211.6)">100</text></g><g class="ytick"><text text-anchor="end" x="79" y="4.199999999999999" style="font-family: 'Open Sans', verdana, arial, sans-serif; font-size: 12px; fill: rgb(42, 63, 95); fill-opacity: 1; white-space: pre; opacity: 1;" transform="translate(0,174.4)">150</text></g><g class="ytick"><text text-anchor="end" x="79" y="4.199999999999999" style="font-family: 'Open Sans', verdana, arial, sans-serif; font-size: 12px; fill: rgb(42, 63, 95); fill-opacity: 1; white-space: pre; opacity: 1;" transform="translate(0,137.2)">200</text></g><g class="ytick"><text text-anchor="end" x="79" y="4.199999999999999" style="font-family: 'Open Sans', verdana, arial, sans-serif; font-size: 12px; fill: rgb(42, 63, 95); fill-opacity: 1; white-space: pre; opacity: 1;" transform="translate(0,100)">250</text></g></g><g class="overaxes-above"/></g><g class="subplot x2y2"><g class="layer-subplot"><g class="shapelayer"/><g class="imagelayer"/></g><g class="minor-gridlayer"><g class="x2"/><g class="y2"/></g><g class="gridlayer"><g class="x2"><path class="x2grid crisp" transform="translate(156.15,0)" d="M0,317.00000000000006v185.99999999999997" style="stroke: rgb(255, 255, 255); stroke-opacity: 1; stroke-width: 1px;"/><path class="x2grid crisp" transform="translate(240.77,0)" d="M0,317.00000000000006v185.99999999999997" style="stroke: rgb(255, 255, 255); stroke-opacity: 1; stroke-width: 1px;"/><path class="x2grid crisp" transform="translate(325.38,0)" d="M0,317.00000000000006v185.99999999999997" style="stroke: rgb(255, 255, 255); stroke-opacity: 1; stroke-width: 1px;"/><path class="x2grid crisp" transform="translate(410,0)" d="M0,317.00000000000006v185.99999999999997" style="stroke: rgb(255, 255, 255); stroke-opacity: 1; stroke-width: 1px;"/><path class="x2grid crisp" transform="translate(494.62,0)" d="M0,317.00000000000006v185.99999999999997" style="stroke: rgb(255, 255, 255); stroke-opacity: 1; stroke-width: 1px;"/></g><g class="y2"><path class="y2grid crisp" transform="translate(0,472.00000000000006)" d="M80,0h440" style="stroke: rgb(255, 255, 255); stroke-opacity: 1; stroke-width: 1px;"/><path class="y2grid crisp" transform="translate(0,410.00000000000006)" d="M80,0h440" style="stroke: rgb(255, 255, 255); stroke-opacity: 1; stroke-width: 1px;"/><path class="y2grid crisp" transform="translate(0,348.00000000000006)" d="M80,0h440" style="stroke: rgb(255, 255, 255); stroke-opacity: 1; stroke-width: 1px;"/></g></g><g class="zerolinelayer"/><path class="xlines-below"/><path class="ylines-below"/><g class="overlines-below"/><g class="xaxislayer-below"/><g class="yaxislayer-below"/><g class="overaxes-below"/><g class="plot" transform="translate(80,317.00000000000006)" clip-path="url(#clipcfc61fx2y2plot)"><g class="scatterlayer mlayer"><g class="trace scatter trace585f6c" style="stroke-miterlimit: 2;"><g class="fills"><g><path class="js-fill" d="M0,141.54L8.46,149.2L16.92,135.71L25.38,131.65L33.85,124.51L50.77,109.55L59.23,99.17L67.69,93.29L76.15,88.69L84.62,73.32L93.08,77.58L101.54,85.2L110,87.87L126.92,82.38L135.38,86.62L143.85,90.68L152.31,82.59L160.77,89.14L169.23,84.02L177.69,88.67L186.15,89.94L194.62,89.76L203.08,91.5L211.54,95.87L220,93.87L228.46,91.56L236.92,96.53L245.38,91.8L253.85,93L262.31,92.19L270.77,95.79L279.23,93.59L287.69,93.93L296.15,94.53L304.62,92.75L313.08,96.57L321.54,95.7L330,93.29L338.46,93.24L346.92,93.4L355.38,91.32L372.31,95.94L380.77,100.6L397.69,114.94L406.15,125.53L414.62,126.84L423.08,137.04L431.54,139.92L440,141.47L440,145.63L431.54,144.02L423.08,153.99L414.62,135.3L406.15,137.82L397.69,124.34L389.23,111.79L380.77,105.67L372.31,102.38L363.85,97.9L355.38,100.15L346.92,107.88L338.46,103.06L330,104.49L321.54,100.58L313.08,104.88L304.62,98.95L296.15,106.27L287.69,99.54L279.23,104.75L270.77,107.31L262.31,104.27L253.85,97L245.38,100.5L236.92,102.22L228.46,101.95L220,108.62L211.54,103.59L203.08,100.62L194.62,95.57L186.15,97.7L177.69,95.15L169.23,93.2L160.77,96.49L152.31,92.96L143.85,99.76L135.38,99.6L126.92,97.98L118.46,97.04L110,93.6L101.54,95.96L84.62,84.87L76.15,102.29L67.69,117.53L59.23,115.94L50.77,126.28L42.31,130.59L33.85,141.76L25.38,134.94L16.92,143.59L8.46,158.07L0,159.95Z" style="fill: rgb(145, 191, 219); fill-opacity: 1; stroke-width: 0;"/></g></g><g class="errorbars"/><g class="lines"><path class="js-line" d="M0,159.95L8.46,158.07L16.92,143.59L25.38,134.94L33.85,141.76L42.31,130.59L50.77,126.28L59.23,115.94L67.69,117.53L76.15,102.29L84.62,84.87L101.54,95.96L110,93.6L118.46,97.04L126.92,97.98L135.38,99.6L143.85,99.76L152.31,92.96L160.77,96.49L169.23,93.2L177.69,95.15L186.15,97.7L194.62,95.57L203.08,100.62L211.54,103.59L220,108.62L228.46,101.95L236.92,102.22L245.38,100.5L253.85,97L262.31,104.27L270.77,107.31L279.23,104.75L287.69,99.54L296.15,106.27L304.62,98.95L313.08,104.88L321.54,100.58L330,104.49L338.46,103.06L346.92,107.88L355.38,100.15L363.85,97.9L372.31,102.38L380.77,105.67L389.23,111.79L397.69,124.34L406.15,137.82L414.62,135.3L423.08,153.99L431.54,144.02L440,145.63" style="vector-effect: non-scaling-stroke; fill: none; stroke: rgb(0, 0, 0); stroke-opacity: 1; stroke-width: 0.25px; opacity: 1;"/></g><g class="points"/><g class="text"/></g><g class="trace scatter trace56ebe7" style="stroke-miterlimit: 2;"><g class="fills"><g><path class="js-fill" d="M0,134.68L8.46,138.69L16.92,129.22L25.38,124.96L33.85,118.35L42.31,107.4L50.77,101.5L67.69,81.35L76.15,80.75L84.62,68.41L93.08,63.29L101.54,71.5L110,78.42L118.46,72.68L126.92,76.65L135.38,78.84L143.85,82.51L152.31,77.33L160.77,80.11L169.23,81.13L177.69,84.56L186.15,84.18L194.62,86.63L203.08,87.14L211.54,89.3L228.46,88.53L236.92,88.69L253.85,88.64L262.31,86.62L270.77,89.3L279.23,88L304.62,90.14L313.08,89.83L330,88.75L338.46,89.31L346.92,85.2L355.38,84.59L363.85,90.48L372.31,92.85L380.77,97.3L389.23,104.25L397.69,108.78L406.15,118.41L414.62,123.29L423.08,125.35L431.54,133.46L440,132.75L440,141.47L431.54,139.92L423.08,137.04L414.62,126.84L406.15,125.53L397.69,114.94L380.77,100.6L372.31,95.94L355.38,91.32L346.92,93.4L338.46,93.24L330,93.29L321.54,95.7L313.08,96.57L304.62,92.75L296.15,94.53L287.69,93.93L279.23,93.59L270.77,95.79L262.31,92.19L253.85,93L245.38,91.8L236.92,96.53L228.46,91.56L220,93.87L211.54,95.87L203.08,91.5L194.62,89.76L186.15,89.94L177.69,88.67L169.23,84.02L160.77,89.14L152.31,82.59L143.85,90.68L135.38,86.62L126.92,82.38L110,87.87L101.54,85.2L93.08,77.58L84.62,73.32L76.15,88.69L67.69,93.29L59.23,99.17L50.77,109.55L33.85,124.51L25.38,131.65L16.92,135.71L8.46,149.2L0,141.54Z" style="fill: rgb(255, 255, 191); fill-opacity: 1; stroke-width: 0;"/></g></g><g class="errorbars"/><g class="lines"><path class="js-line" d="M0,141.54L8.46,149.2L16.92,135.71L25.38,131.65L33.85,124.51L50.77,109.55L59.23,99.17L67.69,93.29L76.15,88.69L84.62,73.32L93.08,77.58L101.54,85.2L110,87.87L126.92,82.38L135.38,86.62L143.85,90.68L152.31,82.59L160.77,89.14L169.23,84.02L177.69,88.67L186.15,89.94L194.62,89.76L203.08,91.5L211.54,95.87L220,93.87L228.46,91.56L236.92,96.53L245.38,91.8L253.85,93L262.31,92.19L270.77,95.79L279.23,93.59L287.69,93.93L296.15,94.53L304.62,92.75L313.08,96.57L321.54,95.7L330,93.29L338.46,93.24L346.92,93.4L355.38,91.32L372.31,95.94L380.77,100.6L397.69,114.94L406.15,125.53L414.62,126.84L423.08,137.04L431.54,139.92L440,141.47" style="vector-effect: non-scaling-stroke; fill: none; stroke: rgb(0, 0, 0); stroke-opacity: 1; stroke-width: 0.5px; opacity: 1;"/></g><g class="points"/><g class="text"/></g><g class="trace scatter trace3122bc" style="stroke-miterlimit: 2;"><g class="fills"><g><path class="js-fill" d="M0,127.68L8.46,130.36L16.92,122.1L25.38,122.61L33.85,111.5L50.77,94.45L59.23,86.62L67.69,72.93L76.15,70.89L84.62,64.33L93.08,54.23L110,60.54L118.46,64.07L126.92,66.11L135.38,61.14L143.85,74.23L152.31,70.38L160.77,67.78L169.23,76.09L177.69,73L186.15,79.3L194.62,84.35L203.08,84.37L211.54,81.11L220,79.7L228.46,82.83L236.92,81.96L253.85,81.8L262.31,79.54L270.77,82.18L279.23,81.53L287.69,84.38L296.15,82.09L304.62,84.54L313.08,84.62L321.54,84.21L330,77.13L338.46,78.49L346.92,79.06L363.85,85.94L372.31,90.48L380.77,95.75L389.23,98.4L397.69,104.54L406.15,112.78L414.62,115.71L423.08,121.35L431.54,123.37L440,119.93L440,132.75L431.54,133.46L423.08,125.35L414.62,123.29L406.15,118.41L397.69,108.78L389.23,104.25L380.77,97.3L372.31,92.85L363.85,90.48L355.38,84.59L346.92,85.2L338.46,89.31L330,88.75L313.08,89.83L304.62,90.14L279.23,88L270.77,89.3L262.31,86.62L253.85,88.64L236.92,88.69L228.46,88.53L211.54,89.3L203.08,87.14L194.62,86.63L186.15,84.18L177.69,84.56L169.23,81.13L160.77,80.11L152.31,77.33L143.85,82.51L135.38,78.84L126.92,76.65L118.46,72.68L110,78.42L101.54,71.5L93.08,63.29L84.62,68.41L76.15,80.75L67.69,81.35L50.77,101.5L42.31,107.4L33.85,118.35L25.38,124.96L16.92,129.22L8.46,138.69L0,134.68Z" style="fill: rgb(255, 255, 191); fill-opacity: 1; stroke-width: 0;"/></g></g><g class="errorbars"/><g class="lines"><path class="js-line" d="M0,134.68L8.46,138.69L16.92,129.22L25.38,124.96L33.85,118.35L42.31,107.4L50.77,101.5L67.69,81.35L76.15,80.75L84.62,68.41L93.08,63.29L101.54,71.5L110,78.42L118.46,72.68L126.92,76.65L135.38,78.84L143.85,82.51L152.31,77.33L160.77,80.11L169.23,81.13L177.69,84.56L186.15,84.18L194.62,86.63L203.08,87.14L211.54,89.3L228.46,88.53L236.92,88.69L253.85,88.64L262.31,86.62L270.77,89.3L279.23,88L304.62,90.14L313.08,89.83L330,88.75L338.46,89.31L346.92,85.2L355.38,84.59L363.85,90.48L372.31,92.85L380.77,97.3L389.23,104.25L397.69,108.78L406.15,118.41L414.62,123.29L423.08,125.35L431.54,133.46L440,132.75" style="vector-effect: non-scaling-stroke; fill: none; stroke: rgb(0, 0, 0); stroke-opacity: 1; stroke-width: 1px; opacity: 1;"/></g><g class="points"/><g class="text"/></g><g class="trace scatter tracea04a3d" style="stroke-miterlimit: 2;"><g class="fills"><g><path class="js-fill" d="M0,113.04L8.46,114.57L16.92,114.71L25.38,111.83L33.85,107.04L42.31,88.05L50.77,86.23L67.69,61.08L76.15,55.31L84.62,57.21L93.08,52.27L101.54,44.44L110,41.56L118.46,49.06L126.92,55.13L135.38,29.38L143.85,62.42L152.31,57.28L160.77,54.15L169.23,65.23L177.69,62.48L186.15,66.1L194.62,81.92L203.08,75.18L211.54,64.52L220,68.73L228.46,76.28L236.92,66.49L245.38,68.8L253.85,70.43L262.31,65.68L270.77,71.06L279.23,65.53L287.69,70.73L296.15,66.69L304.62,73.13L313.08,68.58L321.54,70.06L330,66.98L338.46,60.49L346.92,64.12L355.38,76.71L363.85,76.04L372.31,82.95L380.77,93.61L389.23,94.73L397.69,92.15L406.15,98.98L414.62,110.31L423.08,113.44L431.54,119.27L440,111.13L440,119.93L431.54,123.37L423.08,121.35L414.62,115.71L406.15,112.78L397.69,104.54L389.23,98.4L380.77,95.75L372.31,90.48L363.85,85.94L346.92,79.06L338.46,78.49L330,77.13L321.54,84.21L313.08,84.62L304.62,84.54L296.15,82.09L287.69,84.38L279.23,81.53L270.77,82.18L262.31,79.54L253.85,81.8L236.92,81.96L228.46,82.83L220,79.7L211.54,81.11L203.08,84.37L194.62,84.35L186.15,79.3L177.69,73L169.23,76.09L160.77,67.78L152.31,70.38L143.85,74.23L135.38,61.14L126.92,66.11L118.46,64.07L110,60.54L93.08,54.23L84.62,64.33L76.15,70.89L67.69,72.93L59.23,86.62L50.77,94.45L33.85,111.5L25.38,122.61L16.92,122.1L8.46,130.36L0,127.68Z" style="fill: rgb(252, 141, 89); fill-opacity: 1; stroke-width: 0;"/></g></g><g class="errorbars"/><g class="lines"><path class="js-line" d="M0,127.68L8.46,130.36L16.92,122.1L25.38,122.61L33.85,111.5L50.77,94.45L59.23,86.62L67.69,72.93L76.15,70.89L84.62,64.33L93.08,54.23L110,60.54L118.46,64.07L126.92,66.11L135.38,61.14L143.85,74.23L152.31,70.38L160.77,67.78L169.23,76.09L177.69,73L186.15,79.3L194.62,84.35L203.08,84.37L211.54,81.11L220,79.7L228.46,82.83L236.92,81.96L253.85,81.8L262.31,79.54L270.77,82.18L279.23,81.53L287.69,84.38L296.15,82.09L304.62,84.54L313.08,84.62L321.54,84.21L330,77.13L338.46,78.49L346.92,79.06L363.85,85.94L372.31,90.48L380.77,95.75L389.23,98.4L397.69,104.54L406.15,112.78L414.62,115.71L423.08,121.35L431.54,123.37L440,119.93" style="vector-effect: non-scaling-stroke; fill: none; stroke: rgb(0, 0, 0); stroke-opacity: 1; stroke-width: 0.5px; opacity: 1;"/></g><g class="points"/><g class="text"/></g><g class="trace scatter traceb082d9" style="stroke-miterlimit: 2;"><g class="fills"/><g class="errorbars"/><g class="lines"><path class="js-line" d="M0,113.04L8.46,114.57L16.92,114.71L25.38,111.83L33.85,107.04L42.31,88.05L50.77,86.23L67.69,61.08L76.15,55.31L84.62,57.21L93.08,52.27L101.54,44.44L110,41.56L118.46,49.06L126.92,55.13L135.38,29.38L143.85,62.42L152.31,57.28L160.77,54.15L169.23,65.23L177.69,62.48L186.15,66.1L194.62,81.92L203.08,75.18L211.54,64.52L220,68.73L228.46,76.28L236.92,66.49L245.38,68.8L253.85,70.43L262.31,65.68L270.77,71.06L279.23,65.53L287.69,70.73L296.15,66.69L304.62,73.13L313.08,68.58L321.54,70.06L330,66.98L338.46,60.49L346.92,64.12L355.38,76.71L363.85,76.04L372.31,82.95L380.77,93.61L389.23,94.73L397.69,92.15L406.15,98.98L414.62,110.31L423.08,113.44L431.54,119.27L440,111.13" style="vector-effect: non-scaling-stroke; fill: none; stroke: rgb(0, 0, 0); stroke-opacity: 1; stroke-width: 0.25px; opacity: 1;"/></g><g class="points"/><g class="text"/></g><g class="trace scatter trace2c5e90" style="stroke-miterlimit: 2; opacity: 1;"><g class="fills"/><g class="errorbars"/><g class="lines"/><g class="points"><path class="point" transform="translate(245.38,68.2)" d="M4,0A4,4 0 1,1 0,-4A4,4 0 0,1 4,0ZM0,0.5L0.5,0L0,-0.5L-0.5,0Z" style="opacity: 1; stroke: rgb(0, 0, 0); stroke-opacity: 1; stroke-width: 1px; fill: none;"/><path class="point" transform="translate(253.85,68.2)" d="M4,0A4,4 0 1,1 0,-4A4,4 0 0,1 4,0ZM0,0.5L0.5,0L0,-0.5L-0.5,0Z" style="opacity: 1; stroke: rgb(0, 0, 0); stroke-opacity: 1; stroke-width: 1px; fill: none;"/><path class="point" transform="translate(262.31,93)" d="M4,0A4,4 0 1,1 0,-4A4,4 0 0,1 4,0ZM0,0.5L0.5,0L0,-0.5L-0.5,0Z" style="opacity: 1; stroke: rgb(0, 0, 0); stroke-opacity: 1; stroke-width: 1px; fill: none;"/><path class="point" transform="translate(270.77,93)" d="M4,0A4,4 0 1,1 0,-4A4,4 0 0,1 4,0ZM0,0.5L0.5,0L0,-0.5L-0.5,0Z" style="opacity: 1; stroke: rgb(0, 0, 0); stroke-opacity: 1; stroke-width: 1px; fill: none;"/></g><g class="text"/></g></g></g><g class="overplot"/><path class="xlines-above crisp" d="M0,0" style="fill: none;"/><path class="ylines-above crisp" d="M0,0" style="fill: none;"/><g class="overlines-above"/><g class="xaxislayer-above"/><g class="yaxislayer-above"><g class="y2tick"><text text-anchor="end" x="79" y="4.199999999999999" transform="translate(0,472.00000000000006)" style="font-family: 'Open Sans', verdana, arial, sans-serif; font-size: 12px; fill: rgb(42, 63, 95); fill-opacity: 1; white-space: pre; opacity: 1;">20</text></g><g class="y2tick"><text text-anchor="end" x="79" y="4.199999999999999" style="font-family: 'Open Sans', verdana, arial, sans-serif; font-size: 12px; fill: rgb(42, 63, 95); fill-opacity: 1; white-space: pre; opacity: 1;" transform="translate(0,410.00000000000006)">30</text></g><g class="y2tick"><text text-anchor="end" x="79" y="4.199999999999999" style="font-family: 'Open Sans', verdana, arial, sans-serif; font-size: 12px; fill: rgb(42, 63, 95); fill-opacity: 1; white-space: pre; opacity: 1;" transform="translate(0,348.00000000000006)">40</text></g></g><g class="overaxes-above"/></g><g class="subplot x3y3"><g class="layer-subplot"><g class="shapelayer"/><g class="imagelayer"/></g><g class="minor-gridlayer"><g class="x3"/><g class="y3"/></g><g class="gridlayer"><g class="x3"><path class="x3grid crisp" transform="translate(156.15,0)" d="M0,534v186" style="stroke: rgb(255, 255, 255); stroke-opacity: 1; stroke-width: 1px;"/><path class="x3grid crisp" transform="translate(240.77,0)" d="M0,534v186" style="stroke: rgb(255, 255, 255); stroke-opacity: 1; stroke-width: 1px;"/><path class="x3grid crisp" transform="translate(325.38,0)" d="M0,534v186" style="stroke: rgb(255, 255, 255); stroke-opacity: 1; stroke-width: 1px;"/><path class="x3grid crisp" transform="translate(410,0)" d="M0,534v186" style="stroke: rgb(255, 255, 255); stroke-opacity: 1; stroke-width: 1px;"/><path class="x3grid crisp" transform="translate(494.62,0)" d="M0,534v186" style="stroke: rgb(255, 255, 255); stroke-opacity: 1; stroke-width: 1px;"/></g><g class="y3"><path class="y3grid crisp" transform="translate(0,682.8)" d="M80,0h440" style="stroke: rgb(255, 255, 255); stroke-opacity: 1; stroke-width: 1px;"/><path class="y3grid crisp" transform="translate(0,645.6)" d="M80,0h440" style="stroke: rgb(255, 255, 255); stroke-opacity: 1; stroke-width: 1px;"/><path class="y3grid crisp" transform="translate(0,608.4)" d="M80,0h440" style="stroke: rgb(255, 255, 255); stroke-opacity: 1; stroke-width: 1px;"/><path class="y3grid crisp" transform="translate(0,571.2)" d="M80,0h440" style="stroke: rgb(255, 255, 255); stroke-opacity: 1; stroke-width: 1px;"/></g></g><g class="zerolinelayer"/><path class="xlines-below"/><path class="ylines-below"/><g class="overlines-below"/><g class="xaxislayer-below"/><g class="yaxislayer-below"/><g class="overaxes-below"/><g class="plot" transform="translate(80,534)" clip-path="url(#clipcfc61fx3y3plot)"><g class="scatterlayer mlayer"><g class="trace scatter trace9c9271" style="stroke-miterlimit: 2;"><g class="fills"><g><path class="js-fill" d="M0,120.39L8.46,128.72L16.92,121.4L25.38,122.79L33.85,116.58L42.31,105.84L50.77,98.22L59.23,93.09L67.69,81.65L76.15,79.26L84.62,68.6L93.08,64.32L101.54,61.41L118.46,59.01L126.92,51.96L135.38,54.33L143.85,51.62L152.31,46.06L160.77,42.72L169.23,40.61L177.69,39.93L203.08,36.92L211.54,36.87L220,36.53L228.46,37.41L245.38,38.36L253.85,38.51L262.31,37.53L270.77,37.68L279.23,38.64L287.69,37.84L304.62,40.44L313.08,41.09L321.54,40.71L330,42.81L346.92,49.07L355.38,50.68L372.31,64.18L380.77,72.65L389.23,82.22L397.69,93.86L414.62,103.57L423.08,115.97L431.54,117.31L440,123.56L440,130.91L431.54,125.62L406.15,115.19L397.69,105.38L389.23,89.62L380.77,79.84L372.31,75.59L363.85,64.06L355.38,56.92L346.92,56.79L338.46,49.66L330,48.41L321.54,44.72L313.08,47.98L296.15,41.55L287.69,40.64L270.77,42.87L262.31,41.78L253.85,41.93L245.38,42.32L236.92,40.47L228.46,39.01L211.54,39.26L203.08,41.73L194.62,42.13L186.15,43.38L177.69,48.21L169.23,45.05L160.77,47.95L152.31,51.21L143.85,57.5L135.38,59.88L126.92,60.12L118.46,64.92L110,70.72L101.54,68.46L93.08,73.73L84.62,88.43L76.15,88.92L67.69,100.4L50.77,113.11L42.31,124.54L33.85,126.28L25.38,131.67L16.92,127.22L8.46,138.35L0,127.74Z" style="fill: rgb(90, 180, 172); fill-opacity: 1; stroke-width: 0;"/></g></g><g class="errorbars"/><g class="lines"><path class="js-line" d="M0,127.74L8.46,138.35L16.92,127.22L25.38,131.67L33.85,126.28L42.31,124.54L50.77,113.11L67.69,100.4L76.15,88.92L84.62,88.43L93.08,73.73L101.54,68.46L110,70.72L118.46,64.92L126.92,60.12L135.38,59.88L143.85,57.5L152.31,51.21L160.77,47.95L169.23,45.05L177.69,48.21L186.15,43.38L194.62,42.13L203.08,41.73L211.54,39.26L228.46,39.01L236.92,40.47L245.38,42.32L253.85,41.93L262.31,41.78L270.77,42.87L287.69,40.64L296.15,41.55L313.08,47.98L321.54,44.72L330,48.41L338.46,49.66L346.92,56.79L355.38,56.92L363.85,64.06L372.31,75.59L380.77,79.84L389.23,89.62L397.69,105.38L406.15,115.19L431.54,125.62L440,130.91" style="vector-effect: non-scaling-stroke; fill: none; stroke: rgb(0, 0, 0); stroke-opacity: 1; stroke-width: 0.25px; opacity: 1;"/></g><g class="points"/><g class="text"/></g><g class="trace scatter trace21891f" style="stroke-miterlimit: 2;"><g class="fills"><g><path class="js-fill" d="M0,113.71L8.46,119.24L16.92,114.71L25.38,109.49L33.85,109.88L42.31,99.91L50.77,92.29L67.69,74.69L76.15,73.17L84.62,62.9L93.08,55.86L101.54,55.31L110,57.05L118.46,54.11L126.92,48.59L135.38,50.36L143.85,49.15L160.77,39.44L169.23,39.32L186.15,36.84L194.62,36.31L211.54,35.46L220,34.74L236.92,35.69L245.38,37.27L253.85,37.45L262.31,33.96L270.77,35.8L279.23,36.45L287.69,36.67L296.15,38.07L304.62,39.17L313.08,38.97L321.54,38.88L330,40.74L338.46,41.83L346.92,44.66L355.38,48.3L363.85,55.51L372.31,59.47L380.77,66.49L397.69,84.49L406.15,90.73L414.62,98.43L423.08,104.67L440,122.18L440,123.56L431.54,117.31L423.08,115.97L414.62,103.57L397.69,93.86L389.23,82.22L380.77,72.65L372.31,64.18L355.38,50.68L346.92,49.07L330,42.81L321.54,40.71L313.08,41.09L304.62,40.44L287.69,37.84L279.23,38.64L270.77,37.68L262.31,37.53L253.85,38.51L245.38,38.36L228.46,37.41L220,36.53L211.54,36.87L203.08,36.92L177.69,39.93L169.23,40.61L160.77,42.72L152.31,46.06L143.85,51.62L135.38,54.33L126.92,51.96L118.46,59.01L101.54,61.41L93.08,64.32L84.62,68.6L76.15,79.26L67.69,81.65L59.23,93.09L50.77,98.22L42.31,105.84L33.85,116.58L25.38,122.79L16.92,121.4L8.46,128.72L0,120.39Z" style="fill: rgb(245, 245, 245); fill-opacity: 1; stroke-width: 0;"/></g></g><g class="errorbars"/><g class="lines"><path class="js-line" d="M0,120.39L8.46,128.72L16.92,121.4L25.38,122.79L33.85,116.58L42.31,105.84L50.77,98.22L59.23,93.09L67.69,81.65L76.15,79.26L84.62,68.6L93.08,64.32L101.54,61.41L118.46,59.01L126.92,51.96L135.38,54.33L143.85,51.62L152.31,46.06L160.77,42.72L169.23,40.61L177.69,39.93L203.08,36.92L211.54,36.87L220,36.53L228.46,37.41L245.38,38.36L253.85,38.51L262.31,37.53L270.77,37.68L279.23,38.64L287.69,37.84L304.62,40.44L313.08,41.09L321.54,40.71L330,42.81L346.92,49.07L355.38,50.68L372.31,64.18L380.77,72.65L389.23,82.22L397.69,93.86L414.62,103.57L423.08,115.97L431.54,117.31L440,123.56" style="vector-effect: non-scaling-stroke; fill: none; stroke: rgb(0, 0, 0); stroke-opacity: 1; stroke-width: 0.5px; opacity: 1;"/></g><g class="points"/><g class="text"/></g><g class="trace scatter trace7540b2" style="stroke-miterlimit: 2;"><g class="fills"><g><path class="js-fill" d="M0,108.22L8.46,112.17L16.92,109.35L25.38,106.66L33.85,99.3L42.31,89.68L50.77,85.1L59.23,76.91L67.69,67.19L76.15,64.12L84.62,52.96L101.54,48.42L110,50.06L118.46,48.2L126.92,44.56L135.38,39.37L143.85,43.3L160.77,37.91L169.23,35.23L177.69,33.97L186.15,34.21L203.08,33.38L211.54,34.31L228.46,32.67L236.92,34.74L253.85,34.28L262.31,32.13L270.77,34.06L279.23,34.42L296.15,35.15L304.62,37.25L313.08,36.29L321.54,36.69L330,34.6L338.46,36.38L346.92,37.94L355.38,45.11L363.85,52.75L372.31,54.09L380.77,64.52L389.23,71.18L397.69,76.74L406.15,84.65L414.62,89.81L423.08,91.64L431.54,101.93L440,116.82L440,122.18L423.08,104.67L414.62,98.43L406.15,90.73L397.69,84.49L380.77,66.49L372.31,59.47L363.85,55.51L355.38,48.3L346.92,44.66L338.46,41.83L330,40.74L321.54,38.88L313.08,38.97L304.62,39.17L296.15,38.07L287.69,36.67L279.23,36.45L270.77,35.8L262.31,33.96L253.85,37.45L245.38,37.27L236.92,35.69L220,34.74L211.54,35.46L194.62,36.31L186.15,36.84L169.23,39.32L160.77,39.44L143.85,49.15L135.38,50.36L126.92,48.59L118.46,54.11L110,57.05L101.54,55.31L93.08,55.86L84.62,62.9L76.15,73.17L67.69,74.69L50.77,92.29L42.31,99.91L33.85,109.88L25.38,109.49L16.92,114.71L8.46,119.24L0,113.71Z" style="fill: rgb(245, 245, 245); fill-opacity: 1; stroke-width: 0;"/></g></g><g class="errorbars"/><g class="lines"><path class="js-line" d="M0,113.71L8.46,119.24L16.92,114.71L25.38,109.49L33.85,109.88L42.31,99.91L50.77,92.29L67.69,74.69L76.15,73.17L84.62,62.9L93.08,55.86L101.54,55.31L110,57.05L118.46,54.11L126.92,48.59L135.38,50.36L143.85,49.15L160.77,39.44L169.23,39.32L186.15,36.84L194.62,36.31L211.54,35.46L220,34.74L236.92,35.69L245.38,37.27L253.85,37.45L262.31,33.96L270.77,35.8L279.23,36.45L287.69,36.67L296.15,38.07L304.62,39.17L313.08,38.97L321.54,38.88L330,40.74L338.46,41.83L346.92,44.66L355.38,48.3L363.85,55.51L372.31,59.47L380.77,66.49L397.69,84.49L406.15,90.73L414.62,98.43L423.08,104.67L440,122.18" style="vector-effect: non-scaling-stroke; fill: none; stroke: rgb(0, 0, 0); stroke-opacity: 1; stroke-width: 1px; opacity: 1;"/></g><g class="points"/><g class="text"/></g><g class="trace scatter trace744528" style="stroke-miterlimit: 2;"><g class="fills"><g><path class="js-fill" d="M0,102L16.92,102.97L25.38,92.97L33.85,91.01L42.31,80.98L50.77,68.51L59.23,63.73L67.69,54.05L76.15,41.71L84.62,45.39L93.08,41.45L101.54,37.39L110,40.67L118.46,39.66L126.92,40.26L135.38,19.83L143.85,39.21L152.31,34.57L160.77,37.01L169.23,30.32L177.69,28.13L186.15,30.64L194.62,29.35L203.08,32.52L211.54,31.08L220,31.23L228.46,28.47L236.92,32.53L245.38,30.7L253.85,32.58L262.31,30.05L270.77,31.63L279.23,28.89L287.69,33.89L296.15,33.19L304.62,35.3L313.08,30.73L321.54,32.28L330,25.99L338.46,24.65L346.92,26.81L363.85,48.9L372.31,44.07L380.77,58.83L389.23,62.77L397.69,70.72L406.15,72.11L414.62,77.71L423.08,81.63L431.54,93.26L440,116.51L440,116.82L431.54,101.93L423.08,91.64L414.62,89.81L406.15,84.65L397.69,76.74L389.23,71.18L380.77,64.52L372.31,54.09L363.85,52.75L355.38,45.11L346.92,37.94L338.46,36.38L330,34.6L321.54,36.69L313.08,36.29L304.62,37.25L296.15,35.15L279.23,34.42L270.77,34.06L262.31,32.13L253.85,34.28L236.92,34.74L228.46,32.67L211.54,34.31L203.08,33.38L186.15,34.21L177.69,33.97L169.23,35.23L160.77,37.91L143.85,43.3L135.38,39.37L126.92,44.56L118.46,48.2L110,50.06L101.54,48.42L84.62,52.96L76.15,64.12L67.69,67.19L59.23,76.91L50.77,85.1L42.31,89.68L33.85,99.3L25.38,106.66L16.92,109.35L8.46,112.17L0,108.22Z" style="fill: rgb(216, 179, 101); fill-opacity: 1; stroke-width: 0;"/></g></g><g class="errorbars"/><g class="lines"><path class="js-line" d="M0,108.22L8.46,112.17L16.92,109.35L25.38,106.66L33.85,99.3L42.31,89.68L50.77,85.1L59.23,76.91L67.69,67.19L76.15,64.12L84.62,52.96L101.54,48.42L110,50.06L118.46,48.2L126.92,44.56L135.38,39.37L143.85,43.3L160.77,37.91L169.23,35.23L177.69,33.97L186.15,34.21L203.08,33.38L211.54,34.31L228.46,32.67L236.92,34.74L253.85,34.28L262.31,32.13L270.77,34.06L279.23,34.42L296.15,35.15L304.62,37.25L313.08,36.29L321.54,36.69L330,34.6L338.46,36.38L346.92,37.94L355.38,45.11L363.85,52.75L372.31,54.09L380.77,64.52L389.23,71.18L397.69,76.74L406.15,84.65L414.62,89.81L423.08,91.64L431.54,101.93L440,116.82" style="vector-effect: non-scaling-stroke; fill: none; stroke: rgb(0, 0, 0); stroke-opacity: 1; stroke-width: 0.5px; opacity: 1;"/></g><g class="points"/><g class="text"/></g><g class="trace scatter tracea056e5" style="stroke-miterlimit: 2;"><g class="fills"/><g class="errorbars"/><g class="lines"><path class="js-line" d="M0,102L16.92,102.97L25.38,92.97L33.85,91.01L42.31,80.98L50.77,68.51L59.23,63.73L67.69,54.05L76.15,41.71L84.62,45.39L93.08,41.45L101.54,37.39L110,40.67L118.46,39.66L126.92,40.26L135.38,19.83L143.85,39.21L152.31,34.57L160.77,37.01L169.23,30.32L177.69,28.13L186.15,30.64L194.62,29.35L203.08,32.52L211.54,31.08L220,31.23L228.46,28.47L236.92,32.53L245.38,30.7L253.85,32.58L262.31,30.05L270.77,31.63L279.23,28.89L287.69,33.89L296.15,33.19L304.62,35.3L313.08,30.73L321.54,32.28L330,25.99L338.46,24.65L346.92,26.81L363.85,48.9L372.31,44.07L380.77,58.83L389.23,62.77L397.69,70.72L406.15,72.11L414.62,77.71L423.08,81.63L431.54,93.26L440,116.51" style="vector-effect: non-scaling-stroke; fill: none; stroke: rgb(0, 0, 0); stroke-opacity: 1; stroke-width: 0.25px; opacity: 1;"/></g><g class="points"/><g class="text"/></g><g class="trace scatter trace36f0b1" style="stroke-miterlimit: 2; opacity: 1;"><g class="fills"/><g class="errorbars"/><g class="lines"/><g class="points"><path class="point" transform="translate(245.38,22.32)" d="M4,0A4,4 0 1,1 0,-4A4,4 0 0,1 4,0ZM0,0.5L0.5,0L0,-0.5L-0.5,0Z" style="opacity: 1; stroke: rgb(0, 0, 0); stroke-opacity: 1; stroke-width: 1px; fill: none;"/><path class="point" transform="translate(253.85,22.32)" d="M4,0A4,4 0 1,1 0,-4A4,4 0 0,1 4,0ZM0,0.5L0.5,0L0,-0.5L-0.5,0Z" style="opacity: 1; stroke: rgb(0, 0, 0); stroke-opacity: 1; stroke-width: 1px; fill: none;"/><path class="point" transform="translate(262.31,29.76)" d="M4,0A4,4 0 1,1 0,-4A4,4 0 0,1 4,0ZM0,0.5L0.5,0L0,-0.5L-0.5,0Z" style="opacity: 1; stroke: rgb(0, 0, 0); stroke-opacity: 1; stroke-width: 1px; fill: none;"/><path class="point" transform="translate(270.77,29.76)" d="M4,0A4,4 0 1,1 0,-4A4,4 0 0,1 4,0ZM0,0.5L0.5,0L0,-0.5L-0.5,0Z" style="opacity: 1; stroke: rgb(0, 0, 0); stroke-opacity: 1; stroke-width: 1px; fill: none;"/></g><g class="text"/></g></g></g><g class="overplot"/><path class="xlines-above crisp" d="M0,0" style="fill: none;"/><path class="ylines-above crisp" d="M0,0" style="fill: none;"/><g class="overlines-above"/><g class="xaxislayer-above"><g class="x3tick"><text text-anchor="middle" x="0" y="733" transform="translate(156.15,0)" style="font-family: 'Open Sans', verdana, arial, sans-serif; font-size: 12px; fill: rgb(42, 63, 95); fill-opacity: 1; white-space: pre; opacity: 1;">10</text></g><g class="x3tick"><text text-anchor="middle" x="0" y="733" style="font-family: 'Open Sans', verdana, arial, sans-serif; font-size: 12px; fill: rgb(42, 63, 95); fill-opacity: 1; white-space: pre; opacity: 1;" transform="translate(240.77,0)">20</text></g><g class="x3tick"><text text-anchor="middle" x="0" y="733" style="font-family: 'Open Sans', verdana, arial, sans-serif; font-size: 12px; fill: rgb(42, 63, 95); fill-opacity: 1; white-space: pre; opacity: 1;" transform="translate(325.38,0)">30</text></g><g class="x3tick"><text text-anchor="middle" x="0" y="733" style="font-family: 'Open Sans', verdana, arial, sans-serif; font-size: 12px; fill: rgb(42, 63, 95); fill-opacity: 1; white-space: pre; opacity: 1;" transform="translate(410,0)">40</text></g><g class="x3tick"><text text-anchor="middle" x="0" y="733" style="font-family: 'Open Sans', verdana, arial, sans-serif; font-size: 12px; fill: rgb(42, 63, 95); fill-opacity: 1; white-space: pre; opacity: 1;" transform="translate(494.62,0)">50</text></g></g><g class="yaxislayer-above"><g class="y3tick"><text text-anchor="end" x="79" y="4.199999999999999" transform="translate(0,720)" style="font-family: 'Open Sans', verdana, arial, sans-serif; font-size: 12px; fill: rgb(42, 63, 95); fill-opacity: 1; white-space: pre; opacity: 1;">5</text></g><g class="y3tick"><text text-anchor="end" x="79" y="4.199999999999999" style="font-family: 'Open Sans', verdana, arial, sans-serif; font-size: 12px; fill: rgb(42, 63, 95); fill-opacity: 1; white-space: pre; opacity: 1;" transform="translate(0,682.8)">10</text></g><g class="y3tick"><text text-anchor="end" x="79" y="4.199999999999999" style="font-family: 'Open Sans', verdana, arial, sans-serif; font-size: 12px; fill: rgb(42, 63, 95); fill-opacity: 1; white-space: pre; opacity: 1;" transform="translate(0,645.6)">15</text></g><g class="y3tick"><text text-anchor="end" x="79" y="4.199999999999999" style="font-family: 'Open Sans', verdana, arial, sans-serif; font-size: 12px; fill: rgb(42, 63, 95); fill-opacity: 1; white-space: pre; opacity: 1;" transform="translate(0,608.4)">20</text></g><g class="y3tick"><text text-anchor="end" x="79" y="4.199999999999999" style="font-family: 'Open Sans', verdana, arial, sans-serif; font-size: 12px; fill: rgb(42, 63, 95); fill-opacity: 1; white-space: pre; opacity: 1;" transform="translate(0,571.2)">25</text></g><g class="y3tick"><text text-anchor="end" x="79" y="4.199999999999999" style="font-family: 'Open Sans', verdana, arial, sans-serif; font-size: 12px; fill: rgb(42, 63, 95); fill-opacity: 1; white-space: pre; opacity: 1;" transform="translate(0,534)">30</text></g></g><g class="overaxes-above"/></g></g><g class="polarlayer"/><g class="smithlayer"/><g class="ternarylayer"/><g class="geolayer"/><g class="funnelarealayer"/><g class="pielayer"/><g class="iciclelayer"/><g class="treemaplayer"/><g class="sunburstlayer"/><g class="glimages"/><defs id="topdefs-cfc61f"><g class="clips"/></defs><g class="layer-above"><g class="imagelayer"/><g class="shapelayer"/></g><g class="infolayer"><g class="g-gtitle"><text class="gtitle" x="30" y="50" text-anchor="start" dy="0em" style="font-family: 'Open Sans', verdana, arial, sans-serif; font-size: 17px; fill: rgb(42, 63, 95); opacity: 1; font-weight: normal; white-space: pre;">Climatology and S2S forecast for Gazipur</text></g><g class="g-xtitle"/><g class="g-x2title"/><g class="g-x3title"/><g class="g-ytitle"><text class="ytitle" transform="rotate(-90,34.16875,193)" x="34.16875" y="193" text-anchor="middle" style="font-family: 'Open Sans', verdana, arial, sans-serif; font-size: 14px; fill: rgb(42, 63, 95); opacity: 1; font-weight: normal; white-space: pre;">[mm]</text></g><g class="g-y2title"><text class="y2title" transform="rotate(-90,40.840625,410.00000000000006)" x="40.840625" y="410.00000000000006" text-anchor="middle" style="font-family: 'Open Sans', verdana, arial, sans-serif; font-size: 14px; fill: rgb(42, 63, 95); opacity: 1; font-weight: normal; white-space: pre;">[C]</text></g><g class="g-y3title"><text class="y3title" transform="rotate(-90,40.840625,627)" x="40.840625" y="627" text-anchor="middle" style="font-family: 'Open Sans', verdana, arial, sans-serif; font-size: 14px; fill: rgb(42, 63, 95); opacity: 1; font-weight: normal; white-space: pre;">[C]</text></g><g class="annotation" data-index="0" style="opacity: 1;"><g class="annotation-text-g" transform="rotate(0,300,89.5)"><g class="cursor-pointer" transform="translate(237,79)"><rect class="bg" x="0.5" y="0.5" width="126" height="20" style="stroke-width: 1px; stroke: rgb(0, 0, 0); stroke-opacity: 0; fill: rgb(0, 0, 0); fill-opacity: 0;"/><text class="annotation-text" text-anchor="middle" x="63.359375" y="16" style="font-family: 'Open Sans', verdana, arial, sans-serif; font-size: 16px; fill: rgb(42, 63, 95); fill-opacity: 1; white-space: pre;">Precipitation sum</text></g></g></g><g class="annotation" data-index="1" style="opacity: 1;"><g class="annotation-text-g" transform="rotate(0,300,306.50000000000006)"><g class="cursor-pointer" transform="translate(196,296)"><rect class="bg" x="0.5" y="0.5" width="208" height="20" style="stroke-width: 1px; stroke: rgb(0, 0, 0); stroke-opacity: 0; fill: rgb(0, 0, 0); fill-opacity: 0;"/><text class="annotation-text" text-anchor="middle" x="104.265625" y="16" style="font-family: 'Open Sans', verdana, arial, sans-serif; font-size: 16px; fill: rgb(42, 63, 95); fill-opacity: 1; white-space: pre;">Mean maximum temperature</text></g></g></g><g class="annotation" data-index="2" style="opacity: 1;"><g class="annotation-text-g" transform="rotate(0,300,523.5)"><g class="cursor-pointer" transform="translate(198,513)"><rect class="bg" x="0.5" y="0.5" width="203" height="20" style="stroke-width: 1px; stroke: rgb(0, 0, 0); stroke-opacity: 0; fill: rgb(0, 0, 0); fill-opacity: 0;"/><text class="annotation-text" text-anchor="middle" x="102.046875" y="16" style="font-family: 'Open Sans', verdana, arial, sans-serif; font-size: 16px; fill: rgb(42, 63, 95); fill-opacity: 1; white-space: pre;">Mean minimum temperature</text></g></g></g><g class="annotation" data-index="3" style="opacity: 1;"><g class="annotation-text-g" transform="rotate(0,300,760.5)"><g class="cursor-pointer" transform="translate(277,750)"><rect class="bg" x="0.5" y="0.5" width="45" height="20" style="stroke-width: 1px; stroke: rgb(0, 0, 0); stroke-opacity: 0; fill: rgb(0, 0, 0); fill-opacity: 0;"/><text class="annotation-text" text-anchor="middle" x="22.3125" y="16" style="font-family: 'Open Sans', verdana, arial, sans-serif; font-size: 16px; fill: rgb(42, 63, 95); fill-opacity: 1; white-space: pre;">Week</text></g></g></g></g></svg>