<svg class="main-svg" xmlns="http://www.w3.org/2000/svg" xmlns:xlink="http://www.w3.org/1999/xlink" width="600" height="800" style="" viewBox="0 0 600 800"><rect x="0" y="0" width="600" height="800" style="fill: rgb(255, 255, 255); fill-opacity: 1;"/><defs id="defs-7a29ef"><g class="clips"><clipPath id="clip7a29efxyplot" class="plotclip"><rect width="440" height="186.00000000000003"/></clipPath><clipPath id="clip7a29efx2y2plot" class="plotclip"><rect width="440" height="185.99999999999997"/></clipPath><clipPath id="clip7a29efx3y3plot" class="plotclip"><rect width="440" height="186"/></clipPath><clipPath class="axesclip" id="clip7a29efx"><rect x="80" y="0" width="440" height="800"/></clipPath><clipPath class="axesclip" id="clip7a29efy"><rect x="0" y="100" width="600" height="186.00000000000003"/></clipPath><clipPath class="axesclip" id="clip7a29efxy"><rect x="80" y="100" width="440" height="186.00000000000003"/></clipPath><clipPath class="axesclip" id="clip7a29efy2"><rect x="0" y="317.00000000000006" width="600" height="185.99999999999997"/></clipPath><clipPath class="axesclip" id="clip7a29efxy2"><rect x="80" y="317.00000000000006" width="440" height="185.99999999999997"/></clipPath><clipPath class="axesclip" id="clip7a29efy3"><rect x="0" y="534" width="600" height="186"/></clipPath><clipPath class="axesclip" id="clip7a29efxy3"><rect x="80" y="534" width="440" height="186"/></clipPath><clipPath class="axesclip" id="clip7a29efx2"><rect x="80" y="0" width="440" height="800"/></clipPath><clipPath class="axesclip" id="clip7a29efx2y"><rect x="80" y="100" width="440" height="186.00000000000003"/></clipPath><clipPath class="axesclip" id="clip7a29efx2y2"><rect x="80" y="317.00000000000006" width="440" height="185.99999999999997"/></clipPath><clipPath class="axesclip" id="clip7a29efx2y3"><rect x="80" y="534" width="440" height="186"/></clipPath><clipPath class="axesclip" id="clip7a29efx3"><rect x="80" y="0" width="440" height="800"/></clipPath><clipPath class="axesclip" id="clip7a29efx3y"><rect x="80" y="100" width="440" height="186.00000000000003"/></clipPath><clipPath class="axesclip" id="clip7a29efx3y2"><rect x="80" y="317.00000000000006" width="440" height="185.99999999999997"/></clipPath><clipPath class="axesclip" id="clip7a29efx3y3"><rect x="80" y="534" width="440" height="186"/></clipPath></g><g class="gradients"/><g class="patterns"/></defs><g class="bglayer"><rect class="bg" x="80" y="100" width="440" height="186.00000000000003" style="fill: rgb(229, 236, 246); fill-opacity: 1; stroke-width: 0;"/><rect class="bg" x="80" y="317.00000000000006" width="440" height="185.99999999999997" style="fill: rgb(229, 236, 246); fill-opacity: 1; stroke-width: 0;"/><rect class="bg" x="80" y="534" width="440" height="186" style="fill: rgb(229, 236, 246); fill-opacity: 1; stroke-width: 0;"/></g><g class="layer-below"><g class="imagelayer"/><g class="shapelayer"/></g><g class="cartesianlayer"><g class="subplot xy"><g class="layer-subplot"><g class="shapelayer"/><g class="imagelayer"/></g><g class="minor-gridlayer"><g class="x"/><g class="y"/></g><g class="gridlayer"><g class="x"><path class="xgrid crisp" transform="translate(156.15,0)" d="M0,100v186.00000000000003" style="stroke: rgb(255, 255, 255); stroke-opacity: 1; stroke-width: 1px;"/><path class="xgrid crisp" transform="translate(240.77,0)" d="M0,100v186.00000000000003" style="stroke: rgb(255, 255, 255); stroke-opacity: 1; stroke-width: 1px;"/><path class="xgrid crisp" transform="translate(325.38,0)" d="M0,100v186.00000000000003" style="stroke: rgb(255, 255, 255); stroke-opacity: 1; stroke-width: 1px;"/><path class="xgrid crisp" transform="translate(410,0)" d="M0,100v186.00000000000003" style="stroke: rgb(255, 255, 255); stroke-opacity: 1; stroke-width: 1px;"/><path class="xgrid crisp" transform="translate(494.62,0)" d="M0,100v186.00000000000003" style="stroke: rgb(255, 255, 255); stroke-opacity: 1; stroke-width: 1px;"/></g><g class="y"><path class="ygrid crisp" transform="translate(0,248.8)" d="M80,0h440" style="stroke: rgb(255, 255, 255); stroke-opacity: 1; stroke-width: 1px;"/><path class="ygrid crisp" transform="translate(0,211.6)" d="M80,0h440" style="stroke: rgb(255, 255, 255); stroke-opacity: 1; stroke-width: 1px;"/><path class="ygrid crisp" transform="translate(0,174.4)" d="M80,0h440" style="stroke: rgb(255, 255, 255); stroke-opacity: 1; stroke-width: 1px;"/><path class="ygrid crisp" transform="translate(0,137.2)" d="M80,0h440" style="stroke: rgb(255, 255, 255); stroke-opacity: 1; stroke-width: 1px;"/></g></g><g class="zerolinelayer"><path class="yzl zl crisp" transform="translate(0,286)" d="M80,0h440" style="stroke: rgb(255, 255, 255); stroke-opacity: 1; stroke-width: 2px;"/></g><path class="xlines-below"/><path class="ylines-below"/><g class="overlines-below"/><g class="xaxislayer-below"/><g class="yaxislayer-below"/><g class="overaxes-below"/><g class="plot" transform="translate(80,100)" clip-path="url(#clip7a29efxyplot)"><g class="scatterlayer mlayer"><g class="trace scatter tracea8a833" style="stroke-miterlimit: 2;"><g class="fills"><g><path class="js-fill" d="M0,186L101.54,185.6L110,178.69L118.46,178.2L126.92,174.38L143.85,163.03L152.31,151.98L160.77,163.48L169.23,144.71L177.69,118.83L186.15,116.89L194.62,130.09L203.08,149.81L211.54,164.58L220,158.01L236.92,141.28L245.38,151.59L253.85,156.14L262.31,151.98L270.77,143.62L279.23,148.79L287.69,167.7L296.15,155.04L304.62,165.73L313.08,163.96L321.54,160.21L330,172.67L338.46,182.41L346.92,185.43L363.85,186L372.31,186L440,186L440,186L338.46,186L330,185.83L321.54,178.93L313.08,185.12L304.62,173.96L296.15,171.02L287.69,179.17L279.23,176.08L270.77,183.64L262.31,176.16L253.85,171.91L245.38,179.96L236.92,178.29L228.46,184.89L211.54,169.51L203.08,165.17L194.62,183.16L186.15,179.6L177.69,169.28L169.23,181.26L160.77,185.97L152.31,186L143.85,184.54L135.38,186L0,186Z" style="fill: rgb(224, 236, 244); fill-opacity: 1; stroke-width: 0;"/></g></g><g class="errorbars"/><g class="lines"><path class="js-line" d="M0,186L135.38,186L143.85,184.54L152.31,186L160.77,185.97L169.23,181.26L177.69,169.28L186.15,179.6L194.62,183.16L203.08,165.17L211.54,169.51L228.46,184.89L236.92,178.29L245.38,179.96L253.85,171.91L262.31,176.16L270.77,183.64L279.23,176.08L287.69,179.17L296.15,171.02L304.62,173.96L313.08,185.12L321.54,178.93L330,185.83L338.46,186L440,186" style="vector-effect: non-scaling-stroke; fill: none; stroke: rgb(0, 0, 0); stroke-opacity: 1; stroke-width: 0.25px; opacity: 1;"/></g><g class="points"/><g class="text"/></g><g class="trace scatter tracec21098" style="stroke-miterlimit: 2;"><g class="fills"><g><path class="js-fill" d="M0,186L84.62,185.86L93.08,183.64L101.54,162.2L110,157.95L118.46,164.31L126.92,148L135.38,152.79L143.85,144.83L152.31,126.84L160.77,113.09L169.23,112.32L177.69,103.34L186.15,95.25L194.62,93.96L203.08,136.28L211.54,136.36L228.46,134.91L236.92,110.28L245.38,128.62L253.85,139.3L262.31,126.7L270.77,129.92L279.23,113.41L287.69,136.46L296.15,146.85L304.62,149.93L313.08,147.71L321.54,140.9L338.46,167.79L346.92,164.39L355.38,185.61L363.85,185.74L397.69,186L406.15,186L440,186L440,186L372.31,186L363.85,186L346.92,185.43L338.46,182.41L330,172.67L321.54,160.21L313.08,163.96L304.62,165.73L296.15,155.04L287.69,167.7L279.23,148.79L270.77,143.62L262.31,151.98L253.85,156.14L245.38,151.59L236.92,141.28L220,158.01L211.54,164.58L203.08,149.81L194.62,130.09L186.15,116.89L177.69,118.83L169.23,144.71L160.77,163.48L152.31,151.98L143.85,163.03L126.92,174.38L118.46,178.2L110,178.69L101.54,185.6L0,186Z" style="fill: rgb(158, 188, 218); fill-opacity: 1; stroke-width: 0;"/></g></g><g class="errorbars"/><g class="lines"><path class="js-line" d="M0,186L101.54,185.6L110,178.69L118.46,178.2L126.92,174.38L143.85,163.03L152.31,151.98L160.77,163.48L169.23,144.71L177.69,118.83L186.15,116.89L194.62,130.09L203.08,149.81L211.54,164.58L220,158.01L236.92,141.28L245.38,151.59L253.85,156.14L262.31,151.98L270.77,143.62L279.23,148.79L287.69,167.7L296.15,155.04L304.62,165.73L313.08,163.96L321.54,160.21L330,172.67L338.46,182.41L346.92,185.43L363.85,186L372.31,186L440,186" style="vector-effect: non-scaling-stroke; fill: none; stroke: rgb(0, 0, 0); stroke-opacity: 1; stroke-width: 0.5px; opacity: 1;"/></g><g class="points"/><g class="text"/></g><g class="trace scatter trace43a5b5" style="stroke-miterlimit: 2;"><g class="fills"><g><path class="js-fill" d="M0,186L42.31,185.99L50.77,181.94L59.23,185.19L67.69,181.06L76.15,177.1L84.62,177.55L93.08,167.88L101.54,151.36L110,135.01L118.46,150.83L126.92,122.74L135.38,122.57L143.85,102.72L152.31,96.55L160.77,77.15L169.23,90.55L177.69,51.04L186.15,27.95L194.62,43.37L203.08,84.93L211.54,109.29L220,123.55L228.46,103.3L236.92,89.52L245.38,109.5L253.85,98.06L262.31,85.1L270.77,88.15L279.23,102.65L287.69,127.8L296.15,133.73L304.62,131.32L313.08,129.03L321.54,112.19L330,125.58L338.46,151.04L346.92,154.44L355.38,143.1L363.85,178.19L372.31,185.01L380.77,185.97L389.23,186L440,186L440,186L406.15,186L397.69,186L363.85,185.74L355.38,185.61L346.92,164.39L338.46,167.79L321.54,140.9L313.08,147.71L304.62,149.93L296.15,146.85L287.69,136.46L279.23,113.41L270.77,129.92L262.31,126.7L253.85,139.3L245.38,128.62L236.92,110.28L228.46,134.91L211.54,136.36L203.08,136.28L194.62,93.96L186.15,95.25L177.69,103.34L169.23,112.32L160.77,113.09L152.31,126.84L143.85,144.83L135.38,152.79L126.92,148L118.46,164.31L110,157.95L101.54,162.2L93.08,183.64L84.62,185.86L0,186Z" style="fill: rgb(158, 188, 218); fill-opacity: 1; stroke-width: 0;"/></g></g><g class="errorbars"/><g class="lines"><path class="js-line" d="M0,186L84.62,185.86L93.08,183.64L101.54,162.2L110,157.95L118.46,164.31L126.92,148L135.38,152.79L143.85,144.83L152.31,126.84L160.77,113.09L169.23,112.32L177.69,103.34L186.15,95.25L194.62,93.96L203.08,136.28L211.54,136.36L228.46,134.91L236.92,110.28L245.38,128.62L253.85,139.3L262.31,126.7L270.77,129.92L279.23,113.41L287.69,136.46L296.15,146.85L304.62,149.93L313.08,147.71L321.54,140.9L338.46,167.79L346.92,164.39L355.38,185.61L363.85,185.74L397.69,186L406.15,186L440,186" style="vector-effect: non-scaling-stroke; fill: none; stroke: rgb(0, 0, 0); stroke-opacity: 1; stroke-width: 1px; opacity: 1;"/></g><g class="points"/><g class="text"/></g><g class="trace scatter trace31fb1f" style="stroke-miterlimit: 2;"><g class="fills"><g><path class="js-fill" d="M0,186L42.31,185.97L50.77,178.39L59.23,185.14L67.69,179.18L76.15,164.51L84.62,166.19L101.54,118.05L110,96.13L118.46,112.92L126.92,100.42L135.38,92.71L143.85,54.54L152.31,38.17L160.77,44.66L169.23,36.25L177.69,-45.38L186.15,-52.9L194.62,-45.27L203.08,58.2L211.54,50.54L220,89.26L228.46,54.22L236.92,29.74L245.38,63.41L253.85,22.8L262.31,-4.42L270.77,50.72L279.23,37.47L287.69,90.72L296.15,119.54L304.62,117.21L313.08,101.2L321.54,54.57L330,98.81L338.46,120.83L346.92,125.52L355.38,95.03L363.85,172.08L372.31,184.38L380.77,185.96L440,186L440,186L389.23,186L380.77,185.97L372.31,185.01L363.85,178.19L355.38,143.1L346.92,154.44L338.46,151.04L330,125.58L321.54,112.19L313.08,129.03L304.62,131.32L296.15,133.73L287.69,127.8L279.23,102.65L270.77,88.15L262.31,85.1L253.85,98.06L245.38,109.5L236.92,89.52L228.46,103.3L220,123.55L211.54,109.29L203.08,84.93L194.62,43.37L186.15,27.95L177.69,51.04L169.23,90.55L160.77,77.15L152.31,96.55L143.85,102.72L135.38,122.57L126.92,122.74L118.46,150.83L110,135.01L101.54,151.36L93.08,167.88L84.62,177.55L76.15,177.1L67.69,181.06L59.23,185.19L50.77,181.94L42.31,185.99L0,186Z" style="fill: rgb(136, 86, 167); fill-opacity: 1; stroke-width: 0;"/></g></g><g class="errorbars"/><g class="lines"><path class="js-line" d="M0,186L42.31,185.99L50.77,181.94L59.23,185.19L67.69,181.06L76.15,177.1L84.62,177.55L93.08,167.88L101.54,151.36L110,135.01L118.46,150.83L126.92,122.74L135.38,122.57L143.85,102.72L152.31,96.55L160.77,77.15L169.23,90.55L177.69,51.04L186.15,27.95L194.62,43.37L203.08,84.93L211.54,109.29L220,123.55L228.46,103.3L236.92,89.52L245.38,109.5L253.85,98.06L262.31,85.1L270.77,88.15L279.23,102.65L287.69,127.8L296.15,133.73L304.62,131.32L313.08,129.03L321.54,112.19L330,125.58L338.46,151.04L346.92,154.44L355.38,143.1L363.85,178.19L372.31,185.01L380.77,185.97L389.23,186L440,186" style="vector-effect: non-scaling-stroke; fill: none; stroke: rgb(0, 0, 0); stroke-opacity: 1; stroke-width: 0.5px; opacity: 1;"/></g><g class="points"/><g class="text"/></g><g class="trace scatter trace196ec8" style="stroke-miterlimit: 2;"><g class="fills"/><g class="errorbars"/><g class="lines"><path class="js-line" d="M0,186L42.31,185.97L50.77,178.39L59.23,185.14L67.69,179.18L76.15,164.51L84.62,166.19L101.54,118.05L110,96.13L118.46,112.92L126.92,100.42L135.38,92.71L143.85,54.54L152.31,38.17L160.77,44.66L169.23,36.25L177.69,-45.38L186.15,-52.9L194.62,-45.27L203.08,58.2L211.54,50.54L220,89.26L228.46,54.22L236.92,29.74L245.38,63.41L253.85,22.8L262.31,-4.42L270.77,50.72L279.23,37.47L287.69,90.72L296.15,119.54L304.62,117.21L313.08,101.2L321.54,54.57L330,98.81L338.46,120.83L346.92,125.52L355.38,95.03L363.85,172.08L372.31,184.38L380.77,185.96L440,186" style="vector-effect: non-scaling-stroke; fill: none; stroke: rgb(0, 0, 0); stroke-opacity: 1; stroke-width: 0.25px; opacity: 1;"/></g><g class="points"/><g class="text"/></g><g class="trace scatter trace24db95" style="stroke-miterlimit: 2; opacity: 1;"><g class="fills"/><g class="errorbars"/><g class="lines"/><g class="points"><path class="point" transform="translate(177.69,166.66)" d="M4,0A4,4 0 1,1 0,-4A4,4 0 0,1 4,0ZM0,0.5L0.5,0L0,-0.5L-0.5,0Z" style="opacity: 1; stroke: rgb(0, 0, 0); stroke-opacity: 1; stroke-width: 1px; fill: none;"/><path class="point" transform="translate(186.15,186)" d="M4,0A4,4 0 1,1 0,-4A4,4 0 0,1 4,0ZM0,0.5L0.5,0L0,-0.5L-0.5,0Z" style="opacity: 1; stroke: rgb(0, 0, 0); stroke-opacity: 1; stroke-width: 1px; fill: none;"/><path class="point" transform="translate(194.62,63.98)" d="M4,0A4,4 0 1,1 0,-4A4,4 0 0,1 4,0ZM0,0.5L0.5,0L0,-0.5L-0.5,0Z" style="opacity: 1; stroke: rgb(0, 0, 0); stroke-opacity: 1; stroke-width: 1px; fill: none;"/><path class="point" transform="translate(203.08,63.98)" d="M4,0A4,4 0 1,1 0,-4A4,4 0 0,1 4,0ZM0,0.5L0.5,0L0,-0.5L-0.5,0Z" style="opacity: 1; stroke: rgb(0, 0, 0); stroke-opacity: 1; stroke-width: 1px; fill: none;"/></g><g class="text"/></g></g></g><g class="overplot"/><path class="xlines-above crisp" d="M0,0" style="fill: none;"/><path class="ylines-above crisp" d="M0,0" style="fill: none;"/><g class="overlines-above"/><g class="xaxislayer-above"/><g class="yaxislayer-above"><g class="ytick"><text text-anchor="end" x="79" y="4.199999999999999" transform="translate(0,286)" style="font-family: 'Open Sans', verdana, arial, sans-serif; font-size: 12px; fill: rgb(42, 63, 95); fill-opacity: 1; white-space: pre; opacity: 1;">0</text></g><g class="ytick"><text text-anchor="end" x="79" y="4.199999999999999" style="font-family: 'Open Sans', verdana, arial, sans-serif; font-size: 12px; fill: rgb(42, 63, 95); fill-opacity: 1; white-space: pre; opacity: 1;" transform="translate(0,248.8)">50</text></g><g class="ytick"><text text-anchor="end" x="79" y="4.199999999999999" style="font-family: 'Open Sans', verdana, arial, sans-serif; font-size: 12px; fill: rgb(42, 63, 95); fill-opacity: 1; white-space: pre; opacity: 1;" transform="translate(0,211.6)">100</text></g><g class="ytick"><text text-anchor="end" x="79" y="4.199999999999999" style="font-family: 'Open Sans', verdana, arial, sans-serif; font-size: 12px; fill: rgb(42, 63, 95); fill-opacity: 1; white-space: pre; opacity: 1;" transform="translate(0,174.4)">150</text></g><g class="ytick"><text text-anchor="end" x="79" y="4.199999999999999" style="font-family: 'Open Sans', verdana, arial, sans-serif; font-size: 12px; fill: rgb(42, 63, 95); fill-opacity: 1; white-space: pre; opacity: 1;" transform="translate(0,137.2)">200</text></g><g class="ytick"><text text-anchor="end" x="79" y="4.199999999999999" style="font-family: 'Open Sans', verdana, arial, sans-serif; font-size: 12px; fill: rgb(42, 63, 95); fill-opacity: 1; white-space: pre; opacity: 1;" transform="translate(0,100)">250</text></g></g><g class="overaxes-above"/></g><g class="subplot x2y2"><g class="layer-subplot"><g class="shapelayer"/><g class="imagelayer"/></g><g class="minor-gridlayer"><g class="x2"/><g class="y2"/></g><g class="gridlayer"><g class="x2"><path class="x2grid crisp" transform="translate(156.15,0)" d="M0,317.00000000000006v185.99999999999997" style="stroke: rgb(255, 255, 255); stroke-opacity: 1; stroke-width: 1px;"/><path class="x2grid crisp" transform="translate(240.77,0)" d="M0,317.00000000000006v185.99999999999997" style="stroke: rgb(255, 255, 255); stroke-opacity: 1; stroke-width: 1px;"/><path class="x2grid crisp" transform="translate(325.38,0)" d="M0,317.00000000000006v185.99999999999997" style="stroke: rgb(255, 255, 255); stroke-opacity: 1; stroke-width: 1px;"/><path class="x2grid crisp" transform="translate(410,0)" d="M0,317.00000000000006v185.99999999999997" style="stroke: rgb(255, 255, 255); stroke-opacity: 1; stroke-width: 1px;"/><path class="x2grid crisp" transform="translate(494.62,0)" d="M0,317.00000000000006v185.99999999999997" style="stroke: rgb(255, 255, 255); stroke-opacity: 1; stroke-width: 1px;"/></g><g class="y2"><path class="y2grid crisp" transform="translate(0,472.00000000000006)" d="M80,0h440" style="stroke: rgb(255, 255, 255); stroke-opacity: 1; stroke-width: 1px;"/><path class="y2grid crisp" transform="translate(0,410.00000000000006)" d="M80,0h440" style="stroke: rgb(255, 255, 255); stroke-opacity: 1; stroke-width: 1px;"/><path class="y2grid crisp" transform="translate(0,348.00000000000006)" d="M80,0h440" style="stroke: rgb(255, 255, 255); stroke-opacity: 1; stroke-width: 1px;"/></g></g><g class="zerolinelayer"/><path class="xlines-below"/><path class="ylines-below"/><g class="overlines-below"/><g class="xaxislayer-below"/><g class="yaxislayer-below"/><g class="overaxes-below"/><g class="plot" transform="translate(80,317.00000000000006)" clip-path="url(#clip7a29efx2y2plot)"><g class="scatterlayer mlayer"><g class="trace scatter traced66727" style="stroke-miterlimit: 2;"><g class="fills"><g><path class="js-fill" d="M0,129.18L8.46,137.92L16.92,127.92L25.38,126.98L33.85,119.29L42.31,111.05L50.77,104.08L59.23,96.1L67.69,92.76L76.15,85.49L84.62,75.69L93.08,74L101.54,85.66L110,86.26L118.46,82.62L126.92,82.02L135.38,83.2L143.85,82.88L152.31,81.62L160.77,83.75L169.23,81.97L177.69,86.76L186.15,86.39L194.62,88.6L203.08,86.27L211.54,89.18L220,87.23L228.46,86.55L236.92,87.86L245.38,90.03L253.85,84.66L262.31,84.8L270.77,89.52L279.23,89.51L287.69,87.09L296.15,91.74L304.62,88.1L313.08,89.6L321.54,88.31L330,89.31L338.46,91.55L355.38,87.57L363.85,90.51L372.31,92.08L380.77,96.92L389.23,101.91L397.69,108.6L406.15,116.85L414.62,119.17L423.08,128.61L431.54,129.11L440,126.32L440,136.66L431.54,138.26L423.08,138.77L414.62,126.98L406.15,124.82L397.69,119.59L389.23,106.78L380.77,105.93L372.31,98.44L363.85,96.4L346.92,101.11L338.46,101.73L330,104.14L321.54,96.14L304.62,98.09L296.15,107.71L287.69,97.82L279.23,105.01L270.77,104.2L262.31,100.4L253.85,98.4L245.38,107.38L236.92,101.25L228.46,94.87L220,105.1L211.54,99.23L203.08,92.02L194.62,96.97L186.15,95.29L177.69,91.5L169.23,99.01L160.77,92.82L152.31,97.53L143.85,96.39L135.38,99.08L126.92,93.43L118.46,98.3L110,92.83L101.54,96.26L93.08,96.99L84.62,93.9L76.15,103.73L67.69,117.44L59.23,106.9L50.77,122.18L42.31,124.81L33.85,125.5L25.38,141.46L16.92,138.04L8.46,147L0,141.17Z" style="fill: rgb(145, 191, 219); fill-opacity: 1; stroke-width: 0;"/></g></g><g class="errorbars"/><g class="lines"><path class="js-line" d="M0,141.17L8.46,147L16.92,138.04L25.38,141.46L33.85,125.5L42.31,124.81L50.77,122.18L59.23,106.9L67.69,117.44L76.15,103.73L84.62,93.9L93.08,96.99L101.54,96.26L110,92.83L118.46,98.3L126.92,93.43L135.38,99.08L143.85,96.39L152.31,97.53L160.77,92.82L169.23,99.01L177.69,91.5L186.15,95.29L194.62,96.97L203.08,92.02L211.54,99.23L220,105.1L228.46,94.87L236.92,101.25L245.38,107.38L253.85,98.4L262.31,100.4L270.77,104.2L279.23,105.01L287.69,97.82L296.15,107.71L304.62,98.09L321.54,96.14L330,104.14L338.46,101.73L346.92,101.11L363.85,96.4L372.31,98.44L380.77,105.93L389.23,106.78L397.69,119.59L406.15,124.82L414.62,126.98L423.08,138.77L431.54,138.26L440,136.66" style="vector-effect: non-scaling-stroke; fill: none; stroke: rgb(0, 0, 0); stroke-opacity: 1; stroke-width: 0.25px; opacity: 1;"/></g><g class="points"/><g class="text"/></g><g class="trace scatter tracedf051c" style="stroke-miterlimit: 2;"><g class="fills"><g><path class="js-fill" d="M0,124.39L8.46,127.22L16.92,121.9L25.38,119.28L33.85,110.81L42.31,103.07L50.77,96.92L67.69,79.37L76.15,80.69L84.62,66.36L93.08,66.42L101.54,71.91L110,74.09L118.46,69.84L126.92,76.45L135.38,76.27L143.85,79.36L152.31,72.19L160.77,74.49L169.23,78.4L177.69,78.59L186.15,79.2L194.62,82.38L203.08,82.02L211.54,80.35L228.46,81.89L236.92,81.38L253.85,79.89L262.31,79.04L270.77,81.79L279.23,79.85L304.62,82.29L313.08,79.58L321.54,84.75L330,80.16L338.46,84.5L346.92,83.1L355.38,80.72L363.85,85.63L372.31,88.15L380.77,92.28L389.23,99.66L397.69,104.81L406.15,111.37L414.62,114.85L423.08,119.74L431.54,125.52L440,123.06L440,126.32L431.54,129.11L423.08,128.61L414.62,119.17L406.15,116.85L397.69,108.6L389.23,101.91L380.77,96.92L372.31,92.08L363.85,90.51L355.38,87.57L338.46,91.55L330,89.31L321.54,88.31L313.08,89.6L304.62,88.1L296.15,91.74L287.69,87.09L279.23,89.51L270.77,89.52L262.31,84.8L253.85,84.66L245.38,90.03L236.92,87.86L228.46,86.55L220,87.23L211.54,89.18L203.08,86.27L194.62,88.6L186.15,86.39L177.69,86.76L169.23,81.97L160.77,83.75L152.31,81.62L143.85,82.88L135.38,83.2L126.92,82.02L118.46,82.62L110,86.26L101.54,85.66L93.08,74L84.62,75.69L76.15,85.49L67.69,92.76L59.23,96.1L50.77,104.08L42.31,111.05L33.85,119.29L25.38,126.98L16.92,127.92L8.46,137.92L0,129.18Z" style="fill: rgb(255, 255, 191); fill-opacity: 1; stroke-width: 0;"/></g></g><g class="errorbars"/><g class="lines"><path class="js-line" d="M0,129.18L8.46,137.92L16.92,127.92L25.38,126.98L33.85,119.29L42.31,111.05L50.77,104.08L59.23,96.1L67.69,92.76L76.15,85.49L84.62,75.69L93.08,74L101.54,85.66L110,86.26L118.46,82.62L126.92,82.02L135.38,83.2L143.85,82.88L152.31,81.62L160.77,83.75L169.23,81.97L177.69,86.76L186.15,86.39L194.62,88.6L203.08,86.27L211.54,89.18L220,87.23L228.46,86.55L236.92,87.86L245.38,90.03L253.85,84.66L262.31,84.8L270.77,89.52L279.23,89.51L287.69,87.09L296.15,91.74L304.62,88.1L313.08,89.6L321.54,88.31L330,89.31L338.46,91.55L355.38,87.57L363.85,90.51L372.31,92.08L380.77,96.92L389.23,101.91L397.69,108.6L406.15,116.85L414.62,119.17L423.08,128.61L431.54,129.11L440,126.32" style="vector-effect: non-scaling-stroke; fill: none; stroke: rgb(0, 0, 0); stroke-opacity: 1; stroke-width: 0.5px; opacity: 1;"/></g><g class="points"/><g class="text"/></g><g class="trace scatter tracea80b94" style="stroke-miterlimit: 2;"><g class="fills"><g><path class="js-fill" d="M0,118.75L8.46,123.21L16.92,114.15L25.38,114.19L33.85,108.45L42.31,97.21L50.77,88.08L59.23,85.23L67.69,72.44L76.15,69.62L84.62,61.74L93.08,54.79L101.54,55.49L110,63.3L118.46,64.52L126.92,67.58L135.38,64.15L143.85,71.54L152.31,67.69L160.77,67.73L169.23,69.51L177.69,72.53L186.15,73.92L194.62,76.17L203.08,75.58L211.54,74.69L220,74.82L228.46,77.67L236.92,74.53L245.38,76.03L253.85,75.07L262.31,74.35L270.77,76.83L279.23,76.35L287.69,74.05L296.15,74.71L304.62,77.91L313.08,76.03L321.54,81.98L330,72.82L338.46,74.54L346.92,77.66L355.38,77.95L363.85,82.18L372.31,85.53L380.77,90.27L389.23,97.25L397.69,99.97L406.15,105.68L414.62,111.58L423.08,114.26L440,117.2L440,123.06L431.54,125.52L423.08,119.74L414.62,114.85L406.15,111.37L397.69,104.81L389.23,99.66L380.77,92.28L372.31,88.15L363.85,85.63L355.38,80.72L346.92,83.1L338.46,84.5L330,80.16L321.54,84.75L313.08,79.58L304.62,82.29L279.23,79.85L270.77,81.79L262.31,79.04L253.85,79.89L236.92,81.38L228.46,81.89L211.54,80.35L203.08,82.02L194.62,82.38L186.15,79.2L177.69,78.59L169.23,78.4L160.77,74.49L152.31,72.19L143.85,79.36L135.38,76.27L126.92,76.45L118.46,69.84L110,74.09L101.54,71.91L93.08,66.42L84.62,66.36L76.15,80.69L67.69,79.37L50.77,96.92L42.31,103.07L33.85,110.81L25.38,119.28L16.92,121.9L8.46,127.22L0,124.39Z" style="fill: rgb(255, 255, 191); fill-opacity: 1; stroke-width: 0;"/></g></g><g class="errorbars"/><g class="lines"><path class="js-line" d="M0,124.39L8.46,127.22L16.92,121.9L25.38,119.28L33.85,110.81L42.31,103.07L50.77,96.92L67.69,79.37L76.15,80.69L84.62,66.36L93.08,66.42L101.54,71.91L110,74.09L118.46,69.84L126.92,76.45L135.38,76.27L143.85,79.36L152.31,72.19L160.77,74.49L169.23,78.4L177.69,78.59L186.15,79.2L194.62,82.38L203.08,82.02L211.54,80.35L228.46,81.89L236.92,81.38L253.85,79.89L262.31,79.04L270.77,81.79L279.23,79.85L304.62,82.29L313.08,79.58L321.54,84.75L330,80.16L338.46,84.5L346.92,83.1L355.38,80.72L363.85,85.63L372.31,88.15L380.77,92.28L389.23,99.66L397.69,104.81L406.15,111.37L414.62,114.85L423.08,119.74L431.54,125.52L440,123.06" style="vector-effect: non-scaling-stroke; fill: none; stroke: rgb(0, 0, 0); stroke-opacity: 1; stroke-width: 1px; opacity: 1;"/></g><g class="points"/><g class="text"/></g><g class="trace scatter trace9f16c4" style="stroke-miterlimit: 2;"><g class="fills"><g><path class="js-fill" d="M0,104.54L8.46,115.88L16.92,111.57L25.38,100.64L33.85,99.74L42.31,86.04L50.77,69.48L59.23,76.53L67.69,62.18L76.15,55.07L84.62,43.27L93.08,51.3L101.54,42.52L118.46,54.58L126.92,51.52L135.38,35.61L143.85,54.98L152.31,57.92L160.77,59.92L169.23,56.48L177.69,60.88L186.15,68.28L194.62,64.82L203.08,62.63L211.54,68.81L220,63.18L228.46,68.43L236.92,59.82L245.38,61.05L253.85,62.2L262.31,60.96L279.23,67.63L287.69,63.71L296.15,64.26L304.62,70.69L313.08,63.57L321.54,73.84L330,63.83L338.46,59.34L346.92,62.88L355.38,69.91L363.85,77.66L372.31,80.04L380.77,80.89L389.23,91.52L397.69,94.42L406.15,101.99L423.08,109.7L431.54,111.74L440,107.74L440,117.2L423.08,114.26L414.62,111.58L406.15,105.68L397.69,99.97L389.23,97.25L380.77,90.27L372.31,85.53L363.85,82.18L355.38,77.95L346.92,77.66L338.46,74.54L330,72.82L321.54,81.98L313.08,76.03L304.62,77.91L296.15,74.71L287.69,74.05L279.23,76.35L270.77,76.83L262.31,74.35L253.85,75.07L245.38,76.03L236.92,74.53L228.46,77.67L220,74.82L211.54,74.69L203.08,75.58L194.62,76.17L186.15,73.92L177.69,72.53L169.23,69.51L160.77,67.73L152.31,67.69L143.85,71.54L135.38,64.15L126.92,67.58L118.46,64.52L110,63.3L101.54,55.49L93.08,54.79L84.62,61.74L76.15,69.62L67.69,72.44L59.23,85.23L50.77,88.08L42.31,97.21L33.85,108.45L25.38,114.19L16.92,114.15L8.46,123.21L0,118.75Z" style="fill: rgb(252, 141, 89); fill-opacity: 1; stroke-width: 0;"/></g></g><g class="errorbars"/><g class="lines"><path class="js-line" d="M0,118.75L8.46,123.21L16.92,114.15L25.38,114.19L33.85,108.45L42.31,97.21L50.77,88.08L59.23,85.23L67.69,72.44L76.15,69.62L84.62,61.74L93.08,54.79L101.54,55.49L110,63.3L118.46,64.52L126.92,67.58L135.38,64.15L143.85,71.54L152.31,67.69L160.77,67.73L169.23,69.51L177.69,72.53L186.15,73.92L194.62,76.17L203.08,75.58L211.54,74.69L220,74.82L228.46,77.67L236.92,74.53L245.38,76.03L253.85,75.07L262.31,74.35L270.77,76.83L279.23,76.35L287.69,74.05L296.15,74.71L304.62,77.91L313.08,76.03L321.54,81.98L330,72.82L338.46,74.54L346.92,77.66L355.38,77.95L363.85,82.18L372.31,85.53L380.77,90.27L389.23,97.25L397.69,99.97L406.15,105.68L414.62,111.58L423.08,114.26L440,117.2" style="vector-effect: non-scaling-stroke; fill: none; stroke: rgb(0, 0, 0); stroke-opacity: 1; stroke-width: 0.5px; opacity: 1;"/></g><g class="points"/><g class="text"/></g><g class="trace scatter traceb683aa" style="stroke-miterlimit: 2;"><g class="fills"/><g class="errorbars"/><g class="lines"><path class="js-line" d="M0,104.54L8.46,115.88L16.92,111.57L25.38,100.64L33.85,99.74L42.31,86.04L50.77,69.48L59.23,76.53L67.69,62.18L76.15,55.07L84.62,43.27L93.08,51.3L101.54,42.52L118.46,54.58L126.92,51.52L135.38,35.61L143.85,54.98L152.31,57.92L160.77,59.92L169.23,56.48L177.69,60.88L186.15,68.28L194.62,64.82L203.08,62.63L211.54,68.81L220,63.18L228.46,68.43L236.92,59.82L245.38,61.05L253.85,62.2L262.31,60.96L279.23,67.63L287.69,63.71L296.15,64.26L304.62,70.69L313.08,63.57L321.54,73.84L330,63.83L338.46,59.34L346.92,62.88L355.38,69.91L363.85,77.66L372.31,80.04L380.77,80.89L389.23,91.52L397.69,94.42L406.15,101.99L423.08,109.7L431.54,111.74L440,107.74" style="vector-effect: non-scaling-stroke; fill: none; stroke: rgb(0, 0, 0); stroke-opacity: 1; stroke-width: 0.25px; opacity: 1;"/></g><g class="points"/><g class="text"/></g><g class="trace scatter tracee8106d" style="stroke-miterlimit: 2; opacity: 1;"><g class="fills"/><g class="errorbars"/><g class="lines"/><g class="points"><path class="point" transform="translate(177.69,62)" d="M4,0A4,4 0 1,1 0,-4A4,4 0 0,1 4,0ZM0,0.5L0.5,0L0,-0.5L-0.5,0Z" style="opacity: 1; stroke: rgb(0, 0, 0); stroke-opacity: 1; stroke-width: 1px; fill: none;"/><path class="point" transform="translate(186.15,49.6)" d="M4,0A4,4 0 1,1 0,-4A4,4 0 0,1 4,0ZM0,0.5L0.5,0L0,-0.5L-0.5,0Z" style="opacity: 1; stroke: rgb(0, 0, 0); stroke-opacity: 1; stroke-width: 1px; fill: none;"/><path class="point" transform="translate(194.62,74.4)" d="M4,0A4,4 0 1,1 0,-4A4,4 0 0,1 4,0ZM0,0.5L0.5,0L0,-0.5L-0.5,0Z" style="opacity: 1; stroke: rgb(0, 0, 0); stroke-opacity: 1; stroke-width: 1px; fill: none;"/><path class="point" transform="translate(203.08,74.4)" d="M4,0A4,4 0 1,1 0,-4A4,4 0 0,1 4,0ZM0,0.5L0.5,0L0,-0.5L-0.5,0Z" style="opacity: 1; stroke: rgb(0, 0, 0); stroke-opacity: 1; stroke-width: 1px; fill: none;"/></g><g class="text"/></g></g></g><g class="overplot"/><path class="xlines-above crisp" d="M0,0" style="fill: none;"/><path class="ylines-above crisp" d="M0,0" style="fill: none;"/><g class="overlines-above"/><g class="xaxislayer-above"/><g class="yaxislayer-above"><g class="y2tick"><text text-anchor="end" x="79" y="4.199999999999999" transform="translate(0,472.00000000000006)" style="font-family: 'Open Sans', verdana, arial, sans-serif; font-size: 12px; fill: rgb(42, 63, 95); fill-opacity: 1; white-space: pre; opacity: 1;">20</text></g><g class="y2tick"><text text-anchor="end" x="79" y="4.199999999999999" style="font-family: 'Open Sans', verdana, arial, sans-serif; font-size: 12px; fill: rgb(42, 63, 95); fill-opacity: 1; white-space: pre; opacity: 1;" transform="translate(0,410.00000000000006)">30</text></g><g class="y2tick"><text text-anchor="end" x="79" y="4.199999999999999" style="font-family: 'Open Sans', verdana, arial, sans-serif; font-size: 12px; fill: rgb(42, 63, 95); fill-opacity: 1; white-space: pre; opacity: 1;" transform="translate(0,348.00000000000006)">40</text></g></g><g class="overaxes-above"/></g><g class="subplot x3y3"><g class="layer-subplot"><g class="shapelayer"/><g class="imagelayer"/></g><g class="minor-gridlayer"><g class="x3"/><g class="y3"/></g><g class="gridlayer"><g class="x3"><path class="x3grid crisp" transform="translate(156.15,0)" d="M0,534v186" style="stroke: rgb(255, 255, 255); stroke-opacity: 1; stroke-width: 1px;"/><path class="x3grid crisp" transform="translate(240.77,0)" d="M0,534v186" style="stroke: rgb(255, 255, 255); stroke-opacity: 1; stroke-width: 1px;"/><path class="x3grid crisp" transform="translate(325.38,0)" d="M0,534v186" style="stroke: rgb(255, 255, 255); stroke-opacity: 1; stroke-width: 1px;"/><path class="x3grid crisp" transform="translate(410,0)" d="M0,534v186" style="stroke: rgb(255, 255, 255); stroke-opacity: 1; stroke-width: 1px;"/><path class="x3grid crisp" transform="translate(494.62,0)" d="M0,534v186" style="stroke: rgb(255, 255, 255); stroke-opacity: 1; stroke-width: 1px;"/></g><g class="y3"><path class="y3grid crisp" transform="translate(0,682.8)" d="M80,0h440" style="stroke: rgb(255, 255, 255); stroke-opacity: 1; stroke-width: 1px;"/><path class="y3grid crisp" transform="translate(0,645.6)" d="M80,0h440" style="stroke: rgb(255, 255, 255); stroke-opacity: 1; stroke-width: 1px;"/><path class="y3grid crisp" transform="translate(0,608.4)" d="M80,0h440" style="stroke: rgb(255, 255, 255); stroke-opacity: 1; stroke-width: 1px;"/><path class="y3grid crisp" transform="translate(0,571.2)" d="M80,0h440" style="stroke: rgb(255, 255, 255); stroke-opacity: 1; stroke-width: 1px;"/></g></g><g class="zerolinelayer"/><path class="xlines-below"/><path class="ylines-below"/><g class="overlines-below"/><g class="xaxislayer-below"/><g class="yaxislayer-below"/><g class="overaxes-below"/><g class="plot" transform="translate(80,534)" clip-path="url(#clip7a29efx3y3plot)"><g class="scatterlayer mlayer"><g class="trace scatter trace6bb913" style="stroke-miterlimit: 2;"><g class="fills"><g><path class="js-fill" d="M0,110.82L8.46,124.8L16.92,111.31L25.38,116.23L33.85,110.56L42.31,102.24L50.77,99.77L59.23,97.66L67.69,79.39L76.15,78.98L84.62,74.22L93.08,69.47L101.54,61.7L110,59.45L118.46,58.24L126.92,54.16L135.38,51.73L143.85,52.18L152.31,44.84L160.77,43.89L169.23,39.96L177.69,38.37L186.15,37.87L194.62,35.88L203.08,35.65L228.46,34.6L236.92,36.1L253.85,35.87L262.31,34.25L270.77,36.13L279.23,36.53L287.69,35.39L296.15,36.49L304.62,37.97L313.08,37.97L330,39.68L338.46,43.02L346.92,48.41L355.38,45.96L372.31,63.12L380.77,67.65L389.23,75.91L397.69,86.88L406.15,94.21L414.62,99.13L423.08,110.46L431.54,111.65L440,126.89L440,142.26L431.54,140.34L423.08,128.04L414.62,126.56L406.15,104.46L397.69,104.9L389.23,84.98L380.77,76.41L372.31,76L363.85,62.25L355.38,51.8L346.92,50.87L330,43.68L321.54,42.29L304.62,41.54L296.15,39.04L287.69,37.93L279.23,39.65L270.77,39.61L262.31,40.06L253.85,37.88L245.38,37.66L236.92,38.43L228.46,36.65L220,38.91L211.54,37.44L203.08,39.4L194.62,39.27L186.15,42.67L177.69,40.57L169.23,43.23L160.77,49.19L152.31,53.1L143.85,59.16L135.38,54.99L126.92,63.63L118.46,68.05L110,74.32L101.54,67.1L93.08,89.32L84.62,99.04L76.15,95.84L67.69,88.7L59.23,113.79L50.77,118.45L42.31,127.16L33.85,133.79L25.38,133.9L16.92,122.68L8.46,149L0,124.28Z" style="fill: rgb(90, 180, 172); fill-opacity: 1; stroke-width: 0;"/></g></g><g class="errorbars"/><g class="lines"><path class="js-line" d="M0,124.28L8.46,149L16.92,122.68L25.38,133.9L33.85,133.79L42.31,127.16L50.77,118.45L59.23,113.79L67.69,88.7L76.15,95.84L84.62,99.04L93.08,89.32L101.54,67.1L110,74.32L118.46,68.05L126.92,63.63L135.38,54.99L143.85,59.16L152.31,53.1L160.77,49.19L169.23,43.23L177.69,40.57L186.15,42.67L194.62,39.27L203.08,39.4L211.54,37.44L220,38.91L228.46,36.65L236.92,38.43L245.38,37.66L253.85,37.88L262.31,40.06L270.77,39.61L279.23,39.65L287.69,37.93L296.15,39.04L304.62,41.54L321.54,42.29L330,43.68L346.92,50.87L355.38,51.8L363.85,62.25L372.31,76L380.77,76.41L389.23,84.98L397.69,104.9L406.15,104.46L414.62,126.56L423.08,128.04L431.54,140.34L440,142.26" style="vector-effect: non-scaling-stroke; fill: none; stroke: rgb(0, 0, 0); stroke-opacity: 1; stroke-width: 0.25px; opacity: 1;"/></g><g class="points"/><g class="text"/></g><g class="trace scatter tracec5a353" style="stroke-miterlimit: 2;"><g class="fills"><g><path class="js-fill" d="M0,106.21L8.46,112.34L16.92,105.7L33.85,101.83L42.31,94.47L50.77,86.52L59.23,80.84L67.69,72.3L76.15,71.69L84.62,63.41L93.08,57.64L101.54,53.17L110,54.16L118.46,51.53L126.92,47.33L135.38,49.2L143.85,46.97L152.31,42L160.77,38.36L186.15,35.51L194.62,34.8L203.08,33.76L211.54,34.01L220,31.77L228.46,33.73L236.92,33.83L245.38,34.82L253.85,34.18L262.31,31.51L270.77,34.34L279.23,33.6L296.15,34.9L304.62,36.44L313.08,36.08L321.54,36.61L330,36.38L338.46,38.87L346.92,41.86L355.38,43.28L363.85,49.88L372.31,53.92L380.77,61.03L389.23,69.29L397.69,79.46L406.15,83.24L414.62,91.07L423.08,93.07L431.54,103.75L440,110.74L440,126.89L431.54,111.65L423.08,110.46L414.62,99.13L406.15,94.21L397.69,86.88L389.23,75.91L380.77,67.65L372.31,63.12L355.38,45.96L346.92,48.41L338.46,43.02L330,39.68L313.08,37.97L304.62,37.97L296.15,36.49L287.69,35.39L279.23,36.53L270.77,36.13L262.31,34.25L253.85,35.87L236.92,36.1L228.46,34.6L203.08,35.65L194.62,35.88L186.15,37.87L177.69,38.37L169.23,39.96L160.77,43.89L152.31,44.84L143.85,52.18L135.38,51.73L126.92,54.16L118.46,58.24L110,59.45L101.54,61.7L93.08,69.47L84.62,74.22L76.15,78.98L67.69,79.39L59.23,97.66L50.77,99.77L42.31,102.24L33.85,110.56L25.38,116.23L16.92,111.31L8.46,124.8L0,110.82Z" style="fill: rgb(245, 245, 245); fill-opacity: 1; stroke-width: 0;"/></g></g><g class="errorbars"/><g class="lines"><path class="js-line" d="M0,110.82L8.46,124.8L16.92,111.31L25.38,116.23L33.85,110.56L42.31,102.24L50.77,99.77L59.23,97.66L67.69,79.39L76.15,78.98L84.62,74.22L93.08,69.47L101.54,61.7L110,59.45L118.46,58.24L126.92,54.16L135.38,51.73L143.85,52.18L152.31,44.84L160.77,43.89L169.23,39.96L177.69,38.37L186.15,37.87L194.62,35.88L203.08,35.65L228.46,34.6L236.92,36.1L253.85,35.87L262.31,34.25L270.77,36.13L279.23,36.53L287.69,35.39L296.15,36.49L304.62,37.97L313.08,37.97L330,39.68L338.46,43.02L346.92,48.41L355.38,45.96L372.31,63.12L380.77,67.65L389.23,75.91L397.69,86.88L406.15,94.21L414.62,99.13L423.08,110.46L431.54,111.65L440,126.89" style="vector-effect: non-scaling-stroke; fill: none; stroke: rgb(0, 0, 0); stroke-opacity: 1; stroke-width: 0.5px; opacity: 1;"/></g><g class="points"/><g class="text"/></g><g class="trace scatter trace744e8a" style="stroke-miterlimit: 2;"><g class="fills"><g><path class="js-fill" d="M0,101.77L8.46,106.83L16.92,102.27L25.38,99.09L33.85,92.98L42.31,84.91L50.77,80.39L59.23,76.12L67.69,67.22L76.15,63.77L84.62,52.58L93.08,49.43L101.54,49.51L110,47.64L118.46,43.92L126.92,43.33L135.38,43.99L143.85,39.47L152.31,38.55L160.77,35.99L169.23,34.9L177.69,35.35L186.15,32.48L211.54,32.04L220,30.53L228.46,32.55L236.92,32.66L253.85,32.08L262.31,28.77L270.77,31.04L279.23,31.21L287.69,32.02L296.15,31.69L304.62,33.29L313.08,31.53L321.54,34.28L330,32.63L346.92,35.07L355.38,40.78L363.85,46.52L372.31,50.44L389.23,65.32L397.69,70.68L406.15,76.32L414.62,79.85L423.08,83.28L431.54,91.31L440,107.71L440,110.74L431.54,103.75L423.08,93.07L414.62,91.07L406.15,83.24L397.69,79.46L389.23,69.29L380.77,61.03L372.31,53.92L363.85,49.88L355.38,43.28L346.92,41.86L338.46,38.87L330,36.38L321.54,36.61L313.08,36.08L304.62,36.44L296.15,34.9L279.23,33.6L270.77,34.34L262.31,31.51L253.85,34.18L245.38,34.82L236.92,33.83L228.46,33.73L220,31.77L211.54,34.01L203.08,33.76L194.62,34.8L186.15,35.51L160.77,38.36L152.31,42L143.85,46.97L135.38,49.2L126.92,47.33L118.46,51.53L110,54.16L101.54,53.17L93.08,57.64L84.62,63.41L76.15,71.69L67.69,72.3L59.23,80.84L50.77,86.52L42.31,94.47L33.85,101.83L16.92,105.7L8.46,112.34L0,106.21Z" style="fill: rgb(245, 245, 245); fill-opacity: 1; stroke-width: 0;"/></g></g><g class="errorbars"/><g class="lines"><path class="js-line" d="M0,106.21L8.46,112.34L16.92,105.7L33.85,101.83L42.31,94.47L50.77,86.52L59.23,80.84L67.69,72.3L76.15,71.69L84.62,63.41L93.08,57.64L101.54,53.17L110,54.16L118.46,51.53L126.92,47.33L135.38,49.2L143.85,46.97L152.31,42L160.77,38.36L186.15,35.51L194.62,34.8L203.08,33.76L211.54,34.01L220,31.77L228.46,33.73L236.92,33.83L245.38,34.82L253.85,34.18L262.31,31.51L270.77,34.34L279.23,33.6L296.15,34.9L304.62,36.44L313.08,36.08L321.54,36.61L330,36.38L338.46,38.87L346.92,41.86L355.38,43.28L363.85,49.88L372.31,53.92L380.77,61.03L389.23,69.29L397.69,79.46L406.15,83.24L414.62,91.07L423.08,93.07L431.54,103.75L440,110.74" style="vector-effect: non-scaling-stroke; fill: none; stroke: rgb(0, 0, 0); stroke-opacity: 1; stroke-width: 1px; opacity: 1;"/></g><g class="points"/><g class="text"/></g><g class="trace scatter traced2680a" style="stroke-miterlimit: 2;"><g class="fills"><g><path class="js-fill" d="M0,92.6L8.46,96.37L16.92,88.83L25.38,84.87L33.85,88.8L42.31,78.35L50.77,58.72L59.23,61.12L67.69,52.82L76.15,44.71L84.62,43.05L93.08,38.88L101.54,36.56L110,37.55L118.46,37.29L126.92,34.77L135.38,33.97L143.85,37.3L152.31,32.76L160.77,29.88L169.23,29.19L177.69,32.39L186.15,28.67L194.62,29.49L203.08,28.6L211.54,30.25L220,26.52L228.46,30.31L236.92,27.6L245.38,28.32L253.85,26.7L262.31,21.28L270.77,25.45L279.23,26.91L287.69,30.32L296.15,28.1L304.62,28.83L313.08,27.97L321.54,29.79L330,22.46L338.46,25.73L346.92,27.41L355.38,37.2L363.85,36.54L372.31,39.23L380.77,49.64L389.23,55.55L397.69,64.37L406.15,65.28L414.62,73.12L423.08,73.93L431.54,83.91L440,91.3L440,107.71L431.54,91.31L423.08,83.28L414.62,79.85L406.15,76.32L397.69,70.68L389.23,65.32L372.31,50.44L363.85,46.52L355.38,40.78L346.92,35.07L330,32.63L321.54,34.28L313.08,31.53L304.62,33.29L296.15,31.69L287.69,32.02L279.23,31.21L270.77,31.04L262.31,28.77L253.85,32.08L236.92,32.66L228.46,32.55L220,30.53L211.54,32.04L186.15,32.48L177.69,35.35L169.23,34.9L160.77,35.99L152.31,38.55L143.85,39.47L135.38,43.99L126.92,43.33L118.46,43.92L110,47.64L101.54,49.51L93.08,49.43L84.62,52.58L76.15,63.77L67.69,67.22L59.23,76.12L50.77,80.39L42.31,84.91L33.85,92.98L25.38,99.09L16.92,102.27L8.46,106.83L0,101.77Z" style="fill: rgb(216, 179, 101); fill-opacity: 1; stroke-width: 0;"/></g></g><g class="errorbars"/><g class="lines"><path class="js-line" d="M0,101.77L8.46,106.83L16.92,102.27L25.38,99.09L33.85,92.98L42.31,84.91L50.77,80.39L59.23,76.12L67.69,67.22L76.15,63.77L84.62,52.58L93.08,49.43L101.54,49.51L110,47.64L118.46,43.92L126.92,43.33L135.38,43.99L143.85,39.47L152.31,38.55L160.77,35.99L169.23,34.9L177.69,35.35L186.15,32.48L211.54,32.04L220,30.53L228.46,32.55L236.92,32.66L253.85,32.08L262.31,28.77L270.77,31.04L279.23,31.21L287.69,32.02L296.15,31.69L304.62,33.29L313.08,31.53L321.54,34.28L330,32.63L346.92,35.07L355.38,40.78L363.85,46.52L372.31,50.44L389.23,65.32L397.69,70.68L406.15,76.32L414.62,79.85L423.08,83.28L431.54,91.31L440,107.71" style="vector-effect: non-scaling-stroke; fill: none; stroke: rgb(0, 0, 0); stroke-opacity: 1; stroke-width: 0.5px; opacity: 1;"/></g><g class="points"/><g class="text"/></g><g class="trace scatter trace81c17d" style="stroke-miterlimit: 2;"><g class="fills"/><g class="errorbars"/><g class="lines"><path class="js-line" d="M0,92.6L8.46,96.37L16.92,88.83L25.38,84.87L33.85,88.8L42.31,78.35L50.77,58.72L59.23,61.12L67.69,52.82L76.15,44.71L84.62,43.05L93.08,38.88L101.54,36.56L110,37.55L118.46,37.29L126.92,34.77L135.38,33.97L143.85,37.3L152.31,32.76L160.77,29.88L169.23,29.19L177.69,32.39L186.15,28.67L194.62,29.49L203.08,28.6L211.54,30.25L220,26.52L228.46,30.31L236.92,27.6L245.38,28.32L253.85,26.7L262.31,21.28L270.77,25.45L279.23,26.91L287.69,30.32L296.15,28.1L304.62,28.83L313.08,27.97L321.54,29.79L330,22.46L338.46,25.73L346.92,27.41L355.38,37.2L363.85,36.54L372.31,39.23L380.77,49.64L389.23,55.55L397.69,64.37L406.15,65.28L414.62,73.12L423.08,73.93L431.54,83.91L440,91.3" style="vector-effect: non-scaling-stroke; fill: none; stroke: rgb(0, 0, 0); stroke-opacity: 1; stroke-width: 0.25px; opacity: 1;"/></g><g class="points"/><g class="text"/></g><g class="trace scatter tracee78c7e" style="stroke-miterlimit: 2; opacity: 1;"><g class="fills"/><g class="errorbars"/><g class="lines"/><g class="points"><path class="point" transform="translate(177.69,37.2)" d="M4,0A4,4 0 1,1 0,-4A4,4 0 0,1 4,0ZM0,0.5L0.5,0L0,-0.5L-0.5,0Z" style="opacity: 1; stroke: rgb(0, 0, 0); stroke-opacity: 1; stroke-width: 1px; fill: none;"/><path class="point" transform="translate(186.15,29.76)" d="M4,0A4,4 0 1,1 0,-4A4,4 0 0,1 4,0ZM0,0.5L0.5,0L0,-0.5L-0.5,0Z" style="opacity: 1; stroke: rgb(0, 0, 0); stroke-opacity: 1; stroke-width: 1px; fill: none;"/><path class="point" transform="translate(194.62,29.76)" d="M4,0A4,4 0 1,1 0,-4A4,4 0 0,1 4,0ZM0,0.5L0.5,0L0,-0.5L-0.5,0Z" style="opacity: 1; stroke: rgb(0, 0, 0); stroke-opacity: 1; stroke-width: 1px; fill: none;"/><path class="point" transform="translate(203.08,29.76)" d="M4,0A4,4 0 1,1 0,-4A4,4 0 0,1 4,0ZM0,0.5L0.5,0L0,-0.5L-0.5,0Z" style="opacity: 1; stroke: rgb(0, 0, 0); stroke-opacity: 1; stroke-width: 1px; fill: none;"/></g><g class="text"/></g></g></g><g class="overplot"/><path class="xlines-above crisp" d="M0,0" style="fill: none;"/><path class="ylines-above crisp" d="M0,0" style="fill: none;"/><g class="overlines-above"/><g class="xaxislayer-above"><g class="x3tick"><text text-anchor="middle" x="0" y="733" transform="translate(156.15,0)" style="font-family: 'Open Sans', verdana, arial, sans-serif; font-size: 12px; fill: rgb(42, 63, 95); fill-opacity: 1; white-space: pre; opacity: 1;">10</text></g><g class="x3tick"><text text-anchor="middle" x="0" y="733" style="font-family: 'Open Sans', verdana, arial, sans-serif; font-size: 12px; fill: rgb(42, 63, 95); fill-opacity: 1; white-space: pre; opacity: 1;" transform="translate(240.77,0)">20</text></g><g class="x3tick"><text text-anchor="middle" x="0" y="733" style="font-family: 'Open Sans', verdana, arial, sans-serif; font-size: 12px; fill: rgb(42, 63, 95); fill-opacity: 1; white-space: pre; opacity: 1;" transform="translate(325.38,0)">30</text></g><g class="x3tick"><text text-anchor="middle" x="0" y="733" style="font-family: 'Open Sans', verdana, arial, sans-serif; font-size: 12px; fill: rgb(42, 63, 95); fill-opacity: 1; white-space: pre; opacity: 1;" transform="translate(410,0)">40</text></g><g class="x3tick"><text text-anchor="middle" x="0" y="733" style="font-family: 'Open Sans', verdana, arial, sans-serif; font-size: 12px; fill: rgb(42, 63, 95); fill-opacity: 1; white-space: pre; opacity: 1;" transform="translate(494.62,0)">50</text></g></g><g class="yaxislayer-above"><g class="y3tick"><text text-anchor="end" x="79" y="4.199999999999999" transform="translate(0,720)" style="font-family: 'Open Sans', verdana, arial, sans-serif; font-size: 12px; fill: rgb(42, 63, 95); fill-opacity: 1; white-space: pre; opacity: 1;">5</text></g><g class="y3tick"><text text-anchor="end" x="79" y="4.199999999999999" style="font-family: 'Open Sans', verdana, arial, sans-serif; font-size: 12px; fill: rgb(42, 63, 95); fill-opacity: 1; white-space: pre; opacity: 1;" transform="translate(0,682.8)">10</text></g><g class="y3tick"><text text-anchor="end" x="79" y="4.199999999999999" style="font-family: 'Open Sans', verdana, arial, sans-serif; font-size: 12px; fill: rgb(42, 63, 95); fill-opacity: 1; white-space: pre; opacity: 1;" transform="translate(0,645.6)">15</text></g><g class="y3tick"><text text-anchor="end" x="79" y="4.199999999999999" style="font-family: 'Open Sans', verdana, arial, sans-serif; font-size: 12px; fill: rgb(42, 63, 95); fill-opacity: 1; white-space: pre; opacity: 1;" transform="translate(0,608.4)">20</text></g><g class="y3tick"><text text-anchor="end" x="79" y="4.199999999999999" style="font-family: 'Open Sans', verdana, arial, sans-serif; font-size: 12px; fill: rgb(42, 63, 95); fill-opacity: 1; white-space: pre; opacity: 1;" transform="translate(0,571.2)">25</text></g><g class="y3tick"><text text-anchor="end" x="79" y="4.199999999999999" style="font-family: 'Open Sans', verdana, arial, sans-serif; font-size: 12px; fill: rgb(42, 63, 95); fill-opacity: 1; white-space: pre; opacity: 1;" transform="translate(0,534)">30</text></g></g><g class="overaxes-above"/></g></g><g class="polarlayer"/><g class="smithlayer"/><g class="ternarylayer"/><g class="geolayer"/><g class="funnelarealayer"/><g class="pielayer"/><g class="iciclelayer"/><g class="treemaplayer"/><g class="sunburstlayer"/><g class="glimages"/><defs id="topdefs-7a29ef"><g class="clips"/></defs><g class="layer-above"><g class="imagelayer"/><g class="shapelayer"/></g><g class="infolayer"><g class="g-gtitle"><text class="gtitle" x="30" y="50" text-anchor="start" dy="0em" style="font-family: 'Open Sans', verdana, arial, sans-serif; font-size: 17px; fill: rgb(42, 63, 95); opacity: 1; font-weight: normal; white-space: pre;">Climatology and S2S forecast for Habiganj</text></g><g class="g-xtitle"/><g class="g-x2title"/><g class="g-x3title"/><g class="g-ytitle"><text class="ytitle" transform="rotate(-90,34.16875,193)" x="34.16875" y="193" text-anchor="middle" style="font-family: 'Open Sans', verdana, arial, sans-serif; font-size: 14px; fill: rgb(42, 63, 95); opacity: 1; font-weight: normal; white-space: pre;">[mm]</text></g><g class="g-y2title"><text class="y2title" transform="rotate(-90,40.840625,410.00000000000006)" x="40.840625" y="410.00000000000006" text-anchor="middle" style="font-family: 'Open Sans', verdana, arial, sans-serif; font-size: 14px; fill: rgb(42, 63, 95); opacity: 1; font-weight: normal; white-space: pre;">[C]</text></g><g class="g-y3title"><text class="y3title" transform="rotate(-90,40.840625,627)" x="40.840625" y="627" text-anchor="middle" style="font-family: 'Open Sans', verdana, arial, sans-serif; font-size: 14px; fill: rgb(42, 63, 95); opacity: 1; font-weight: normal; white-space: pre;">[C]</text></g><g class="annotation" data-index="0" style="opacity: 1;"><g class="annotation-text-g" transform="rotate(0,300,89.5)"><g class="cursor-pointer" transform="translate(237,79)"><rect class="bg" x="0.5" y="0.5" width="126" height="20" style="stroke-width: 1px; stroke: rgb(0, 0, 0); stroke-opacity: 0; fill: rgb(0, 0, 0); fill-opacity: 0;"/><text class="annotation-text" text-anchor="middle" x="63.359375" y="16" style="font-family: 'Open Sans', verdana, arial, sans-serif; font-size: 16px; fill: rgb(42, 63, 95); fill-opacity: 1; white-space: pre;">Precipitation sum</text></g></g></g><g class="annotation" data-index="1" style="opacity: 1;"><g class="annotation-text-g" transform="rotate(0,300,306.50000000000006)"><g class="cursor-pointer" transform="translate(196,296)"><rect class="bg" x="0.5" y="0.5" width="208" height="20" style="stroke-width: 1px; stroke: rgb(0, 0, 0); stroke-opacity: 0; fill: rgb(0, 0, 0); fill-opacity: 0;"/><text class="annotation-text" text-anchor="middle" x="104.265625" y="16" style="font-family: 'Open Sans', verdana, arial, sans-serif; font-size: 16px; fill: rgb(42, 63, 95); fill-opacity: 1; white-space: pre;">Mean maximum temperature</text></g></g></g><g class="annotation" data-index="2" style="opacity: 1;"><g class="annotation-text-g" transform="rotate(0,300,523.5)"><g class="cursor-pointer" transform="translate(198,513)"><rect class="bg" x="0.5" y="0.5" width="203" height="20" style="stroke-width: 1px; stroke: rgb(0, 0, 0); stroke-opacity: 0; fill: rgb(0, 0, 0); fill-opacity: 0;"/><text class="annotation-text" text-anchor="middle" x="102.046875" y="16" style="font-family: 'Open Sans', verdana, arial, sans-serif; font-size: 16px; fill: rgb(42, 63, 95); fill-opacity: 1; white-space: pre;">Mean minimum temperature</text></g></g></g><g class="annotation" data-index="3" style="opacity: 1;"><g class="annotation-text-g" transform="rotate(0,300,760.5)"><g class="cursor-pointer" transform="translate(277,750)"><rect class="bg" x="0.5" y="0.5" width="45" height="20" style="stroke-width: 1px; stroke: rgb(0, 0, 0); stroke-opacity: 0; fill: rgb(0, 0, 0); fill-opacity: 0;"/><text class="annotation-text" text-anchor="middle" x="22.3125" y="16" style="font-family: 'Open Sans', verdana, arial, sans-serif; font-size: 16px; fill: rgb(42, 63, 95); fill-opacity: 1; white-space: pre;">Week</text></g></g></g></g></svg>