<svg class="main-svg" xmlns="http://www.w3.org/2000/svg" xmlns:xlink="http://www.w3.org/1999/xlink" width="600" height="800" style="" viewBox="0 0 600 800"><rect x="0" y="0" width="600" height="800" style="fill: rgb(255, 255, 255); fill-opacity: 1;"/><defs id="defs-57578a"><g class="clips"><clipPath id="clip57578axyplot" class="plotclip"><rect width="440" height="186.00000000000003"/></clipPath><clipPath id="clip57578ax2y2plot" class="plotclip"><rect width="440" height="185.99999999999997"/></clipPath><clipPath id="clip57578ax3y3plot" class="plotclip"><rect width="440" height="186"/></clipPath><clipPath class="axesclip" id="clip57578ax"><rect x="80" y="0" width="440" height="800"/></clipPath><clipPath class="axesclip" id="clip57578ay"><rect x="0" y="100" width="600" height="186.00000000000003"/></clipPath><clipPath class="axesclip" id="clip57578axy"><rect x="80" y="100" width="440" height="186.00000000000003"/></clipPath><clipPath class="axesclip" id="clip57578ay2"><rect x="0" y="317.00000000000006" width="600" height="185.99999999999997"/></clipPath><clipPath class="axesclip" id="clip57578axy2"><rect x="80" y="317.00000000000006" width="440" height="185.99999999999997"/></clipPath><clipPath class="axesclip" id="clip57578ay3"><rect x="0" y="534" width="600" height="186"/></clipPath><clipPath class="axesclip" id="clip57578axy3"><rect x="80" y="534" width="440" height="186"/></clipPath><clipPath class="axesclip" id="clip57578ax2"><rect x="80" y="0" width="440" height="800"/></clipPath><clipPath class="axesclip" id="clip57578ax2y"><rect x="80" y="100" width="440" height="186.00000000000003"/></clipPath><clipPath class="axesclip" id="clip57578ax2y2"><rect x="80" y="317.00000000000006" width="440" height="185.99999999999997"/></clipPath><clipPath class="axesclip" id="clip57578ax2y3"><rect x="80" y="534" width="440" height="186"/></clipPath><clipPath class="axesclip" id="clip57578ax3"><rect x="80" y="0" width="440" height="800"/></clipPath><clipPath class="axesclip" id="clip57578ax3y"><rect x="80" y="100" width="440" height="186.00000000000003"/></clipPath><clipPath class="axesclip" id="clip57578ax3y2"><rect x="80" y="317.00000000000006" width="440" height="185.99999999999997"/></clipPath><clipPath class="axesclip" id="clip57578ax3y3"><rect x="80" y="534" width="440" height="186"/></clipPath></g><g class="gradients"/><g class="patterns"/></defs><g class="bglayer"><rect class="bg" x="80" y="100" width="440" height="186.00000000000003" style="fill: rgb(229, 236, 246); fill-opacity: 1; stroke-width: 0;"/><rect class="bg" x="80" y="317.00000000000006" width="440" height="185.99999999999997" style="fill: rgb(229, 236, 246); fill-opacity: 1; stroke-width: 0;"/><rect class="bg" x="80" y="534" width="440" height="186" style="fill: rgb(229, 236, 246); fill-opacity: 1; stroke-width: 0;"/></g><g class="layer-below"><g class="imagelayer"/><g class="shapelayer"/></g><g class="cartesianlayer"><g class="subplot xy"><g class="layer-subplot"><g class="shapelayer"/><g class="imagelayer"/></g><g class="minor-gridlayer"><g class="x"/><g class="y"/></g><g class="gridlayer"><g class="x"><path class="xgrid crisp" transform="translate(156.15,0)" d="M0,100v186.00000000000003" style="stroke: rgb(255, 255, 255); stroke-opacity: 1; stroke-width: 1px;"/><path class="xgrid crisp" transform="translate(240.77,0)" d="M0,100v186.00000000000003" style="stroke: rgb(255, 255, 255); stroke-opacity: 1; stroke-width: 1px;"/><path class="xgrid crisp" transform="translate(325.38,0)" d="M0,100v186.00000000000003" style="stroke: rgb(255, 255, 255); stroke-opacity: 1; stroke-width: 1px;"/><path class="xgrid crisp" transform="translate(410,0)" d="M0,100v186.00000000000003" style="stroke: rgb(255, 255, 255); stroke-opacity: 1; stroke-width: 1px;"/><path class="xgrid crisp" transform="translate(494.62,0)" d="M0,100v186.00000000000003" style="stroke: rgb(255, 255, 255); stroke-opacity: 1; stroke-width: 1px;"/></g><g class="y"><path class="ygrid crisp" transform="translate(0,248.8)" d="M80,0h440" style="stroke: rgb(255, 255, 255); stroke-opacity: 1; stroke-width: 1px;"/><path class="ygrid crisp" transform="translate(0,211.6)" d="M80,0h440" style="stroke: rgb(255, 255, 255); stroke-opacity: 1; stroke-width: 1px;"/><path class="ygrid crisp" transform="translate(0,174.4)" d="M80,0h440" style="stroke: rgb(255, 255, 255); stroke-opacity: 1; stroke-width: 1px;"/><path class="ygrid crisp" transform="translate(0,137.2)" d="M80,0h440" style="stroke: rgb(255, 255, 255); stroke-opacity: 1; stroke-width: 1px;"/></g></g><g class="zerolinelayer"><path class="yzl zl crisp" transform="translate(0,286)" d="M80,0h440" style="stroke: rgb(255, 255, 255); stroke-opacity: 1; stroke-width: 2px;"/></g><path class="xlines-below"/><path class="ylines-below"/><g class="overlines-below"/><g class="xaxislayer-below"/><g class="yaxislayer-below"/><g class="overaxes-below"/><g class="plot" transform="translate(80,100)" clip-path="url(#clip57578axyplot)"><g class="scatterlayer mlayer"><g class="trace scatter trace7cfcf6" style="stroke-miterlimit: 2;"><g class="fills"><g><path class="js-fill" d="M0,186L135.38,185.98L143.85,176.96L152.31,185.61L160.77,179.63L169.23,171.76L177.69,167.6L186.15,149.25L194.62,170.74L203.08,150.78L211.54,138.46L220,143.7L228.46,154.43L236.92,135.89L245.38,129.93L253.85,144.37L262.31,133.37L279.23,165.21L287.69,155.61L296.15,165.61L304.62,171.05L313.08,150.04L321.54,161.2L330,178.06L338.46,174.71L346.92,185.81L355.38,186L440,186L440,186L330,186L321.54,186L313.08,174.71L304.62,186L296.15,181.49L287.69,175.01L279.23,185.25L270.77,172.68L253.85,175.81L245.38,181.61L236.92,171.09L228.46,168.66L220,171.02L211.54,175.51L203.08,176.76L194.62,185.26L0,186Z" style="fill: rgb(224, 236, 244); fill-opacity: 1; stroke-width: 0;"/></g></g><g class="errorbars"/><g class="lines"><path class="js-line" d="M0,186L194.62,185.26L203.08,176.76L211.54,175.51L220,171.02L228.46,168.66L236.92,171.09L245.38,181.61L253.85,175.81L270.77,172.68L279.23,185.25L287.69,175.01L296.15,181.49L304.62,186L313.08,174.71L321.54,186L330,186L440,186" style="vector-effect: non-scaling-stroke; fill: none; stroke: rgb(0, 0, 0); stroke-opacity: 1; stroke-width: 0.25px; opacity: 1;"/></g><g class="points"/><g class="text"/></g><g class="trace scatter traceb1f59e" style="stroke-miterlimit: 2;"><g class="fills"><g><path class="js-fill" d="M0,186L101.54,186L110,184.16L118.46,185.64L126.92,185.99L135.38,178.94L143.85,154.55L152.31,169.83L160.77,169.39L169.23,151.26L177.69,143.95L186.15,128L194.62,137.36L203.08,134.12L211.54,90.09L228.46,136.11L236.92,98.07L245.38,90.65L253.85,127.45L262.31,113.29L270.77,109.44L279.23,141.44L287.69,129.89L296.15,137.8L304.62,147.47L313.08,129.39L321.54,146.06L330,162.79L338.46,154.36L346.92,178.2L355.38,185.45L363.85,184.97L372.31,186L440,186L440,186L355.38,186L346.92,185.81L338.46,174.71L330,178.06L321.54,161.2L313.08,150.04L304.62,171.05L296.15,165.61L287.69,155.61L279.23,165.21L262.31,133.37L253.85,144.37L245.38,129.93L236.92,135.89L228.46,154.43L220,143.7L211.54,138.46L203.08,150.78L194.62,170.74L186.15,149.25L177.69,167.6L169.23,171.76L160.77,179.63L152.31,185.61L143.85,176.96L135.38,185.98L0,186Z" style="fill: rgb(158, 188, 218); fill-opacity: 1; stroke-width: 0;"/></g></g><g class="errorbars"/><g class="lines"><path class="js-line" d="M0,186L135.38,185.98L143.85,176.96L152.31,185.61L160.77,179.63L169.23,171.76L177.69,167.6L186.15,149.25L194.62,170.74L203.08,150.78L211.54,138.46L220,143.7L228.46,154.43L236.92,135.89L245.38,129.93L253.85,144.37L262.31,133.37L279.23,165.21L287.69,155.61L296.15,165.61L304.62,171.05L313.08,150.04L321.54,161.2L330,178.06L338.46,174.71L346.92,185.81L355.38,186L440,186" style="vector-effect: non-scaling-stroke; fill: none; stroke: rgb(0, 0, 0); stroke-opacity: 1; stroke-width: 0.5px; opacity: 1;"/></g><g class="points"/><g class="text"/></g><g class="trace scatter trace7b9333" style="stroke-miterlimit: 2;"><g class="fills"><g><path class="js-fill" d="M0,186L42.31,186L50.77,183.56L59.23,186L67.69,185.44L76.15,182.84L84.62,185.34L93.08,184.69L101.54,178.76L110,173.88L118.46,162L126.92,177.61L135.38,166.01L143.85,132.29L152.31,139.95L169.23,136.29L177.69,100.54L186.15,112.4L194.62,85.96L203.08,67.57L211.54,24.29L220,57.19L228.46,63.75L236.92,46.46L245.38,64.17L253.85,96.03L262.31,77.55L270.77,81.04L279.23,122.77L287.69,114.3L296.15,127.38L304.62,104.09L313.08,108.29L321.54,107.96L330,128.89L338.46,91.78L346.92,146.48L355.38,157.87L363.85,174.26L372.31,185.95L380.77,184.56L389.23,186L397.69,186L440,186L440,186L372.31,186L363.85,184.97L355.38,185.45L346.92,178.2L338.46,154.36L330,162.79L321.54,146.06L313.08,129.39L304.62,147.47L296.15,137.8L287.69,129.89L279.23,141.44L270.77,109.44L262.31,113.29L253.85,127.45L245.38,90.65L236.92,98.07L228.46,136.11L211.54,90.09L203.08,134.12L194.62,137.36L186.15,128L177.69,143.95L169.23,151.26L160.77,169.39L152.31,169.83L143.85,154.55L135.38,178.94L126.92,185.99L118.46,185.64L110,184.16L101.54,186L0,186Z" style="fill: rgb(158, 188, 218); fill-opacity: 1; stroke-width: 0;"/></g></g><g class="errorbars"/><g class="lines"><path class="js-line" d="M0,186L101.54,186L110,184.16L118.46,185.64L126.92,185.99L135.38,178.94L143.85,154.55L152.31,169.83L160.77,169.39L169.23,151.26L177.69,143.95L186.15,128L194.62,137.36L203.08,134.12L211.54,90.09L228.46,136.11L236.92,98.07L245.38,90.65L253.85,127.45L262.31,113.29L270.77,109.44L279.23,141.44L287.69,129.89L296.15,137.8L304.62,147.47L313.08,129.39L321.54,146.06L330,162.79L338.46,154.36L346.92,178.2L355.38,185.45L363.85,184.97L372.31,186L440,186" style="vector-effect: non-scaling-stroke; fill: none; stroke: rgb(0, 0, 0); stroke-opacity: 1; stroke-width: 1px; opacity: 1;"/></g><g class="points"/><g class="text"/></g><g class="trace scatter trace321b73" style="stroke-miterlimit: 2;"><g class="fills"><g><path class="js-fill" d="M0,186L42.31,186L50.77,181.81L59.23,186L67.69,185.25L76.15,182.28L84.62,184.51L93.08,184.36L101.54,169.02L110,160.24L118.46,143.78L126.92,167.47L135.38,136.22L143.85,102.49L152.31,107.28L160.77,86.1L169.23,90.35L177.69,42.59L186.15,75.65L194.62,1.17L203.08,-39.86L211.54,-130.37L220,23.86L228.46,-38.35L236.92,-14.45L245.38,-28.05L253.85,75.48L262.31,0.03L270.77,52.63L279.23,69.64L287.69,70.88L296.15,103.65L304.62,7.63L313.08,99.08L321.54,96.55L330,57.69L338.46,-0.79L346.92,123.52L355.38,117.76L363.85,164.87L372.31,185.93L380.77,183.92L389.23,186L440,186L440,186L397.69,186L389.23,186L380.77,184.56L372.31,185.95L363.85,174.26L355.38,157.87L346.92,146.48L338.46,91.78L330,128.89L321.54,107.96L313.08,108.29L304.62,104.09L296.15,127.38L287.69,114.3L279.23,122.77L270.77,81.04L262.31,77.55L253.85,96.03L245.38,64.17L236.92,46.46L228.46,63.75L220,57.19L211.54,24.29L203.08,67.57L194.62,85.96L186.15,112.4L177.69,100.54L169.23,136.29L152.31,139.95L143.85,132.29L135.38,166.01L126.92,177.61L118.46,162L110,173.88L101.54,178.76L93.08,184.69L84.62,185.34L76.15,182.84L67.69,185.44L59.23,186L50.77,183.56L42.31,186L0,186Z" style="fill: rgb(136, 86, 167); fill-opacity: 1; stroke-width: 0;"/></g></g><g class="errorbars"/><g class="lines"><path class="js-line" d="M0,186L42.31,186L50.77,183.56L59.23,186L67.69,185.44L76.15,182.84L84.62,185.34L93.08,184.69L101.54,178.76L110,173.88L118.46,162L126.92,177.61L135.38,166.01L143.85,132.29L152.31,139.95L169.23,136.29L177.69,100.54L186.15,112.4L194.62,85.96L203.08,67.57L211.54,24.29L220,57.19L228.46,63.75L236.92,46.46L245.38,64.17L253.85,96.03L262.31,77.55L270.77,81.04L279.23,122.77L287.69,114.3L296.15,127.38L304.62,104.09L313.08,108.29L321.54,107.96L330,128.89L338.46,91.78L346.92,146.48L355.38,157.87L363.85,174.26L372.31,185.95L380.77,184.56L389.23,186L397.69,186L440,186" style="vector-effect: non-scaling-stroke; fill: none; stroke: rgb(0, 0, 0); stroke-opacity: 1; stroke-width: 0.5px; opacity: 1;"/></g><g class="points"/><g class="text"/></g><g class="trace scatter trace9891d0" style="stroke-miterlimit: 2;"><g class="fills"/><g class="errorbars"/><g class="lines"><path class="js-line" d="M0,186L42.31,186L50.77,181.81L59.23,186L67.69,185.25L76.15,182.28L84.62,184.51L93.08,184.36L101.54,169.02L110,160.24L118.46,143.78L126.92,167.47L135.38,136.22L143.85,102.49L152.31,107.28L160.77,86.1L169.23,90.35L177.69,42.59L186.15,75.65L194.62,1.17L203.08,-39.86L211.54,-130.37L220,23.86L228.46,-38.35L236.92,-14.45L245.38,-28.05L253.85,75.48L262.31,0.03L270.77,52.63L279.23,69.64L287.69,70.88L296.15,103.65L304.62,7.63L313.08,99.08L321.54,96.55L330,57.69L338.46,-0.79L346.92,123.52L355.38,117.76L363.85,164.87L372.31,185.93L380.77,183.92L389.23,186L440,186" style="vector-effect: non-scaling-stroke; fill: none; stroke: rgb(0, 0, 0); stroke-opacity: 1; stroke-width: 0.25px; opacity: 1;"/></g><g class="points"/><g class="text"/></g><g class="trace scatter traced7d954" style="stroke-miterlimit: 2; opacity: 1;"><g class="fills"/><g class="errorbars"/><g class="lines"/><g class="points"><path class="point" transform="translate(160.77,184.51)" d="M4,0A4,4 0 1,1 0,-4A4,4 0 0,1 4,0ZM0,0.5L0.5,0L0,-0.5L-0.5,0Z" style="opacity: 1; stroke: rgb(0, 0, 0); stroke-opacity: 1; stroke-width: 1px; fill: none;"/><path class="point" transform="translate(169.23,180.79)" d="M4,0A4,4 0 1,1 0,-4A4,4 0 0,1 4,0ZM0,0.5L0.5,0L0,-0.5L-0.5,0Z" style="opacity: 1; stroke: rgb(0, 0, 0); stroke-opacity: 1; stroke-width: 1px; fill: none;"/><path class="point" transform="translate(177.69,184.51)" d="M4,0A4,4 0 1,1 0,-4A4,4 0 0,1 4,0ZM0,0.5L0.5,0L0,-0.5L-0.5,0Z" style="opacity: 1; stroke: rgb(0, 0, 0); stroke-opacity: 1; stroke-width: 1px; fill: none;"/><path class="point" transform="translate(186.15,184.51)" d="M4,0A4,4 0 1,1 0,-4A4,4 0 0,1 4,0ZM0,0.5L0.5,0L0,-0.5L-0.5,0Z" style="opacity: 1; stroke: rgb(0, 0, 0); stroke-opacity: 1; stroke-width: 1px; fill: none;"/></g><g class="text"/></g></g></g><g class="overplot"/><path class="xlines-above crisp" d="M0,0" style="fill: none;"/><path class="ylines-above crisp" d="M0,0" style="fill: none;"/><g class="overlines-above"/><g class="xaxislayer-above"/><g class="yaxislayer-above"><g class="ytick"><text text-anchor="end" x="79" y="4.199999999999999" transform="translate(0,286)" style="font-family: 'Open Sans', verdana, arial, sans-serif; font-size: 12px; fill: rgb(42, 63, 95); fill-opacity: 1; white-space: pre; opacity: 1;">0</text></g><g class="ytick"><text text-anchor="end" x="79" y="4.199999999999999" style="font-family: 'Open Sans', verdana, arial, sans-serif; font-size: 12px; fill: rgb(42, 63, 95); fill-opacity: 1; white-space: pre; opacity: 1;" transform="translate(0,248.8)">50</text></g><g class="ytick"><text text-anchor="end" x="79" y="4.199999999999999" style="font-family: 'Open Sans', verdana, arial, sans-serif; font-size: 12px; fill: rgb(42, 63, 95); fill-opacity: 1; white-space: pre; opacity: 1;" transform="translate(0,211.6)">100</text></g><g class="ytick"><text text-anchor="end" x="79" y="4.199999999999999" style="font-family: 'Open Sans', verdana, arial, sans-serif; font-size: 12px; fill: rgb(42, 63, 95); fill-opacity: 1; white-space: pre; opacity: 1;" transform="translate(0,174.4)">150</text></g><g class="ytick"><text text-anchor="end" x="79" y="4.199999999999999" style="font-family: 'Open Sans', verdana, arial, sans-serif; font-size: 12px; fill: rgb(42, 63, 95); fill-opacity: 1; white-space: pre; opacity: 1;" transform="translate(0,137.2)">200</text></g><g class="ytick"><text text-anchor="end" x="79" y="4.199999999999999" style="font-family: 'Open Sans', verdana, arial, sans-serif; font-size: 12px; fill: rgb(42, 63, 95); fill-opacity: 1; white-space: pre; opacity: 1;" transform="translate(0,100)">250</text></g></g><g class="overaxes-above"/></g><g class="subplot x2y2"><g class="layer-subplot"><g class="shapelayer"/><g class="imagelayer"/></g><g class="minor-gridlayer"><g class="x2"/><g class="y2"/></g><g class="gridlayer"><g class="x2"><path class="x2grid crisp" transform="translate(156.15,0)" d="M0,317.00000000000006v185.99999999999997" style="stroke: rgb(255, 255, 255); stroke-opacity: 1; stroke-width: 1px;"/><path class="x2grid crisp" transform="translate(240.77,0)" d="M0,317.00000000000006v185.99999999999997" style="stroke: rgb(255, 255, 255); stroke-opacity: 1; stroke-width: 1px;"/><path class="x2grid crisp" transform="translate(325.38,0)" d="M0,317.00000000000006v185.99999999999997" style="stroke: rgb(255, 255, 255); stroke-opacity: 1; stroke-width: 1px;"/><path class="x2grid crisp" transform="translate(410,0)" d="M0,317.00000000000006v185.99999999999997" style="stroke: rgb(255, 255, 255); stroke-opacity: 1; stroke-width: 1px;"/><path class="x2grid crisp" transform="translate(494.62,0)" d="M0,317.00000000000006v185.99999999999997" style="stroke: rgb(255, 255, 255); stroke-opacity: 1; stroke-width: 1px;"/></g><g class="y2"><path class="y2grid crisp" transform="translate(0,472.00000000000006)" d="M80,0h440" style="stroke: rgb(255, 255, 255); stroke-opacity: 1; stroke-width: 1px;"/><path class="y2grid crisp" transform="translate(0,410.00000000000006)" d="M80,0h440" style="stroke: rgb(255, 255, 255); stroke-opacity: 1; stroke-width: 1px;"/><path class="y2grid crisp" transform="translate(0,348.00000000000006)" d="M80,0h440" style="stroke: rgb(255, 255, 255); stroke-opacity: 1; stroke-width: 1px;"/></g></g><g class="zerolinelayer"/><path class="xlines-below"/><path class="ylines-below"/><g class="overlines-below"/><g class="xaxislayer-below"/><g class="yaxislayer-below"/><g class="overaxes-below"/><g class="plot" transform="translate(80,317.00000000000006)" clip-path="url(#clip57578ax2y2plot)"><g class="scatterlayer mlayer"><g class="trace scatter trace6285de" style="stroke-miterlimit: 2;"><g class="fills"><g><path class="js-fill" d="M0,141.46L8.46,142.33L16.92,131.46L25.38,126.3L33.85,118.92L50.77,102.49L59.23,94.48L67.69,89.01L76.15,86.75L84.62,73.96L93.08,75.27L110,86.55L118.46,78.21L126.92,83.58L135.38,85.02L143.85,87.71L152.31,84.41L160.77,89.47L169.23,86.78L186.15,96.16L194.62,98.46L203.08,97.73L211.54,101.79L228.46,100.25L236.92,103.79L245.38,102.22L253.85,102.99L262.31,104.14L270.77,101.58L279.23,102.87L287.69,101.66L296.15,102.13L304.62,100.35L313.08,103.43L321.54,99.12L330,98.07L338.46,98.78L355.38,94.05L363.85,93.1L372.31,96.08L380.77,100.47L389.23,105.87L397.69,115.45L406.15,126.14L414.62,128.78L423.08,135.22L431.54,138.73L440,143.08L440,146.93L431.54,145.2L423.08,151.41L414.62,135.32L406.15,142.03L397.69,125.4L389.23,110.7L380.77,105L372.31,100.91L363.85,100.23L355.38,103.03L346.92,108.36L338.46,109.88L330,108.98L321.54,109.7L313.08,112.66L304.62,110.52L296.15,108.98L287.69,105.4L279.23,105.43L270.77,107.81L262.31,110.97L253.85,113.16L245.38,108L228.46,105.75L220,104.85L211.54,108.1L203.08,106.03L194.62,112.5L186.15,102.27L177.69,100.01L169.23,97.73L160.77,97.54L152.31,94.62L143.85,94.68L135.38,100.91L126.92,93.06L118.46,95.27L110,92.44L101.54,94.09L84.62,89.33L76.15,98.38L67.69,102.65L59.23,101.98L50.77,120L42.31,125.14L33.85,129.3L25.38,130.7L16.92,145.27L8.46,158.85L0,156.81Z" style="fill: rgb(145, 191, 219); fill-opacity: 1; stroke-width: 0;"/></g></g><g class="errorbars"/><g class="lines"><path class="js-line" d="M0,156.81L8.46,158.85L16.92,145.27L25.38,130.7L33.85,129.3L42.31,125.14L50.77,120L59.23,101.98L67.69,102.65L76.15,98.38L84.62,89.33L101.54,94.09L110,92.44L118.46,95.27L126.92,93.06L135.38,100.91L143.85,94.68L152.31,94.62L160.77,97.54L169.23,97.73L177.69,100.01L186.15,102.27L194.62,112.5L203.08,106.03L211.54,108.1L220,104.85L228.46,105.75L245.38,108L253.85,113.16L262.31,110.97L270.77,107.81L279.23,105.43L287.69,105.4L296.15,108.98L304.62,110.52L313.08,112.66L321.54,109.7L330,108.98L338.46,109.88L346.92,108.36L355.38,103.03L363.85,100.23L372.31,100.91L380.77,105L389.23,110.7L397.69,125.4L406.15,142.03L414.62,135.32L423.08,151.41L431.54,145.2L440,146.93" style="vector-effect: non-scaling-stroke; fill: none; stroke: rgb(0, 0, 0); stroke-opacity: 1; stroke-width: 0.25px; opacity: 1;"/></g><g class="points"/><g class="text"/></g><g class="trace scatter trace3dfe04" style="stroke-miterlimit: 2;"><g class="fills"><g><path class="js-fill" d="M0,132.68L8.46,133.28L16.92,125.41L25.38,120.35L33.85,113.12L42.31,104.1L50.77,96.44L59.23,90.03L67.69,81.64L76.15,74.13L84.62,70.47L93.08,66.03L101.54,67.06L110,76.67L118.46,71.7L126.92,77.13L135.38,79.73L143.85,82.04L152.31,77.95L160.77,81.19L169.23,83.06L177.69,84.75L186.15,92.39L194.62,91.76L203.08,96.04L220,96.89L228.46,98.33L236.92,101.8L245.38,96.87L253.85,100.59L262.31,97.83L270.77,99.78L279.23,97.82L287.69,99.65L296.15,98.37L304.62,95.87L313.08,98.24L321.54,91.4L330,91.01L338.46,91.87L346.92,88.7L355.38,84.85L363.85,90.52L372.31,93.09L380.77,96.79L389.23,102.23L397.69,108.61L406.15,115.83L414.62,121.41L423.08,124.02L431.54,132.57L440,131.33L440,143.08L431.54,138.73L423.08,135.22L414.62,128.78L406.15,126.14L397.69,115.45L389.23,105.87L380.77,100.47L372.31,96.08L363.85,93.1L355.38,94.05L338.46,98.78L330,98.07L321.54,99.12L313.08,103.43L304.62,100.35L296.15,102.13L287.69,101.66L279.23,102.87L270.77,101.58L262.31,104.14L253.85,102.99L245.38,102.22L236.92,103.79L228.46,100.25L211.54,101.79L203.08,97.73L194.62,98.46L186.15,96.16L169.23,86.78L160.77,89.47L152.31,84.41L143.85,87.71L135.38,85.02L126.92,83.58L118.46,78.21L110,86.55L93.08,75.27L84.62,73.96L76.15,86.75L67.69,89.01L59.23,94.48L50.77,102.49L33.85,118.92L25.38,126.3L16.92,131.46L8.46,142.33L0,141.46Z" style="fill: rgb(255, 255, 191); fill-opacity: 1; stroke-width: 0;"/></g></g><g class="errorbars"/><g class="lines"><path class="js-line" d="M0,141.46L8.46,142.33L16.92,131.46L25.38,126.3L33.85,118.92L50.77,102.49L59.23,94.48L67.69,89.01L76.15,86.75L84.62,73.96L93.08,75.27L110,86.55L118.46,78.21L126.92,83.58L135.38,85.02L143.85,87.71L152.31,84.41L160.77,89.47L169.23,86.78L186.15,96.16L194.62,98.46L203.08,97.73L211.54,101.79L228.46,100.25L236.92,103.79L245.38,102.22L253.85,102.99L262.31,104.14L270.77,101.58L279.23,102.87L287.69,101.66L296.15,102.13L304.62,100.35L313.08,103.43L321.54,99.12L330,98.07L338.46,98.78L355.38,94.05L363.85,93.1L372.31,96.08L380.77,100.47L389.23,105.87L397.69,115.45L406.15,126.14L414.62,128.78L423.08,135.22L431.54,138.73L440,143.08" style="vector-effect: non-scaling-stroke; fill: none; stroke: rgb(0, 0, 0); stroke-opacity: 1; stroke-width: 0.5px; opacity: 1;"/></g><g class="points"/><g class="text"/></g><g class="trace scatter traceef6bec" style="stroke-miterlimit: 2;"><g class="fills"><g><path class="js-fill" d="M0,127.94L8.46,127.34L16.92,119.02L25.38,115.82L33.85,111.22L42.31,98.08L50.77,90.48L59.23,82.97L67.69,73.34L76.15,69.76L84.62,62.09L93.08,61.44L101.54,63.93L110,63.52L118.46,65.56L126.92,63.39L135.38,62.12L143.85,69.61L152.31,73.42L160.77,74.56L169.23,77.64L177.69,79.39L186.15,84.79L194.62,85.45L203.08,91.07L211.54,93.16L220,92.96L228.46,91.47L236.92,95.87L245.38,87.51L253.85,94.04L262.31,92.88L270.77,96.21L279.23,93.13L287.69,97.46L296.15,92.93L304.62,90.42L313.08,92.74L321.54,87.5L330,81.96L338.46,84.25L346.92,81.95L355.38,82.62L363.85,85.09L372.31,89.31L380.77,94.58L389.23,98.05L397.69,103.48L406.15,112.36L431.54,124.26L440,120.13L440,131.33L431.54,132.57L423.08,124.02L414.62,121.41L406.15,115.83L397.69,108.61L389.23,102.23L380.77,96.79L372.31,93.09L363.85,90.52L355.38,84.85L346.92,88.7L338.46,91.87L330,91.01L321.54,91.4L313.08,98.24L304.62,95.87L296.15,98.37L287.69,99.65L279.23,97.82L270.77,99.78L262.31,97.83L253.85,100.59L245.38,96.87L236.92,101.8L228.46,98.33L220,96.89L203.08,96.04L194.62,91.76L186.15,92.39L177.69,84.75L169.23,83.06L160.77,81.19L152.31,77.95L143.85,82.04L135.38,79.73L126.92,77.13L118.46,71.7L110,76.67L101.54,67.06L93.08,66.03L84.62,70.47L76.15,74.13L67.69,81.64L59.23,90.03L50.77,96.44L42.31,104.1L33.85,113.12L25.38,120.35L16.92,125.41L8.46,133.28L0,132.68Z" style="fill: rgb(255, 255, 191); fill-opacity: 1; stroke-width: 0;"/></g></g><g class="errorbars"/><g class="lines"><path class="js-line" d="M0,132.68L8.46,133.28L16.92,125.41L25.38,120.35L33.85,113.12L42.31,104.1L50.77,96.44L59.23,90.03L67.69,81.64L76.15,74.13L84.62,70.47L93.08,66.03L101.54,67.06L110,76.67L118.46,71.7L126.92,77.13L135.38,79.73L143.85,82.04L152.31,77.95L160.77,81.19L169.23,83.06L177.69,84.75L186.15,92.39L194.62,91.76L203.08,96.04L220,96.89L228.46,98.33L236.92,101.8L245.38,96.87L253.85,100.59L262.31,97.83L270.77,99.78L279.23,97.82L287.69,99.65L296.15,98.37L304.62,95.87L313.08,98.24L321.54,91.4L330,91.01L338.46,91.87L346.92,88.7L355.38,84.85L363.85,90.52L372.31,93.09L380.77,96.79L389.23,102.23L397.69,108.61L406.15,115.83L414.62,121.41L423.08,124.02L431.54,132.57L440,131.33" style="vector-effect: non-scaling-stroke; fill: none; stroke: rgb(0, 0, 0); stroke-opacity: 1; stroke-width: 1px; opacity: 1;"/></g><g class="points"/><g class="text"/></g><g class="trace scatter trace9de05a" style="stroke-miterlimit: 2;"><g class="fills"><g><path class="js-fill" d="M0,112L8.46,115.48L16.92,104.27L25.38,113.01L33.85,102.63L42.31,83.84L50.77,85.66L59.23,74.54L67.69,66.73L76.15,60.83L84.62,50.74L93.08,53.47L101.54,55.2L110,54.73L118.46,56.88L126.92,41.43L135.38,37.21L143.85,64.66L152.31,59.41L160.77,54.74L169.23,64.38L177.69,66.79L186.15,68.04L194.62,77.98L203.08,89.12L211.54,91.25L220,87.76L228.46,82.66L236.92,86.37L245.38,79.05L253.85,80.89L262.31,79.77L270.77,93.53L279.23,78.61L287.69,95.9L296.15,82.67L304.62,80.92L313.08,78.21L321.54,77.86L330,65.9L338.46,66.93L346.92,65.71L355.38,77.19L363.85,81.7L372.31,84.9L380.77,88.17L389.23,92.58L397.69,93.22L406.15,98.95L414.62,106.52L423.08,112.03L431.54,111.35L440,113.57L440,120.13L431.54,124.26L406.15,112.36L397.69,103.48L389.23,98.05L380.77,94.58L372.31,89.31L363.85,85.09L355.38,82.62L346.92,81.95L338.46,84.25L330,81.96L321.54,87.5L313.08,92.74L304.62,90.42L296.15,92.93L287.69,97.46L279.23,93.13L270.77,96.21L262.31,92.88L253.85,94.04L245.38,87.51L236.92,95.87L228.46,91.47L220,92.96L211.54,93.16L203.08,91.07L194.62,85.45L186.15,84.79L177.69,79.39L169.23,77.64L160.77,74.56L152.31,73.42L143.85,69.61L135.38,62.12L126.92,63.39L118.46,65.56L110,63.52L101.54,63.93L93.08,61.44L84.62,62.09L76.15,69.76L67.69,73.34L59.23,82.97L50.77,90.48L42.31,98.08L33.85,111.22L25.38,115.82L16.92,119.02L8.46,127.34L0,127.94Z" style="fill: rgb(252, 141, 89); fill-opacity: 1; stroke-width: 0;"/></g></g><g class="errorbars"/><g class="lines"><path class="js-line" d="M0,127.94L8.46,127.34L16.92,119.02L25.38,115.82L33.85,111.22L42.31,98.08L50.77,90.48L59.23,82.97L67.69,73.34L76.15,69.76L84.62,62.09L93.08,61.44L101.54,63.93L110,63.52L118.46,65.56L126.92,63.39L135.38,62.12L143.85,69.61L152.31,73.42L160.77,74.56L169.23,77.64L177.69,79.39L186.15,84.79L194.62,85.45L203.08,91.07L211.54,93.16L220,92.96L228.46,91.47L236.92,95.87L245.38,87.51L253.85,94.04L262.31,92.88L270.77,96.21L279.23,93.13L287.69,97.46L296.15,92.93L304.62,90.42L313.08,92.74L321.54,87.5L330,81.96L338.46,84.25L346.92,81.95L355.38,82.62L363.85,85.09L372.31,89.31L380.77,94.58L389.23,98.05L397.69,103.48L406.15,112.36L431.54,124.26L440,120.13" style="vector-effect: non-scaling-stroke; fill: none; stroke: rgb(0, 0, 0); stroke-opacity: 1; stroke-width: 0.5px; opacity: 1;"/></g><g class="points"/><g class="text"/></g><g class="trace scatter tracecf42f7" style="stroke-miterlimit: 2;"><g class="fills"/><g class="errorbars"/><g class="lines"><path class="js-line" d="M0,112L8.46,115.48L16.92,104.27L25.38,113.01L33.85,102.63L42.31,83.84L50.77,85.66L59.23,74.54L67.69,66.73L76.15,60.83L84.62,50.74L93.08,53.47L101.54,55.2L110,54.73L118.46,56.88L126.92,41.43L135.38,37.21L143.85,64.66L152.31,59.41L160.77,54.74L169.23,64.38L177.69,66.79L186.15,68.04L194.62,77.98L203.08,89.12L211.54,91.25L220,87.76L228.46,82.66L236.92,86.37L245.38,79.05L253.85,80.89L262.31,79.77L270.77,93.53L279.23,78.61L287.69,95.9L296.15,82.67L304.62,80.92L313.08,78.21L321.54,77.86L330,65.9L338.46,66.93L346.92,65.71L355.38,77.19L363.85,81.7L372.31,84.9L380.77,88.17L389.23,92.58L397.69,93.22L406.15,98.95L414.62,106.52L423.08,112.03L431.54,111.35L440,113.57" style="vector-effect: non-scaling-stroke; fill: none; stroke: rgb(0, 0, 0); stroke-opacity: 1; stroke-width: 0.25px; opacity: 1;"/></g><g class="points"/><g class="text"/></g><g class="trace scatter tracefe2155" style="stroke-miterlimit: 2; opacity: 1;"><g class="fills"/><g class="errorbars"/><g class="lines"/><g class="points"><path class="point" transform="translate(160.77,74.4)" d="M4,0A4,4 0 1,1 0,-4A4,4 0 0,1 4,0ZM0,0.5L0.5,0L0,-0.5L-0.5,0Z" style="opacity: 1; stroke: rgb(0, 0, 0); stroke-opacity: 1; stroke-width: 1px; fill: none;"/><path class="point" transform="translate(169.23,80.6)" d="M4,0A4,4 0 1,1 0,-4A4,4 0 0,1 4,0ZM0,0.5L0.5,0L0,-0.5L-0.5,0Z" style="opacity: 1; stroke: rgb(0, 0, 0); stroke-opacity: 1; stroke-width: 1px; fill: none;"/><path class="point" transform="translate(177.69,80.6)" d="M4,0A4,4 0 1,1 0,-4A4,4 0 0,1 4,0ZM0,0.5L0.5,0L0,-0.5L-0.5,0Z" style="opacity: 1; stroke: rgb(0, 0, 0); stroke-opacity: 1; stroke-width: 1px; fill: none;"/><path class="point" transform="translate(186.15,80.6)" d="M4,0A4,4 0 1,1 0,-4A4,4 0 0,1 4,0ZM0,0.5L0.5,0L0,-0.5L-0.5,0Z" style="opacity: 1; stroke: rgb(0, 0, 0); stroke-opacity: 1; stroke-width: 1px; fill: none;"/></g><g class="text"/></g></g></g><g class="overplot"/><path class="xlines-above crisp" d="M0,0" style="fill: none;"/><path class="ylines-above crisp" d="M0,0" style="fill: none;"/><g class="overlines-above"/><g class="xaxislayer-above"/><g class="yaxislayer-above"><g class="y2tick"><text text-anchor="end" x="79" y="4.199999999999999" transform="translate(0,472.00000000000006)" style="font-family: 'Open Sans', verdana, arial, sans-serif; font-size: 12px; fill: rgb(42, 63, 95); fill-opacity: 1; white-space: pre; opacity: 1;">20</text></g><g class="y2tick"><text text-anchor="end" x="79" y="4.199999999999999" style="font-family: 'Open Sans', verdana, arial, sans-serif; font-size: 12px; fill: rgb(42, 63, 95); fill-opacity: 1; white-space: pre; opacity: 1;" transform="translate(0,410.00000000000006)">30</text></g><g class="y2tick"><text text-anchor="end" x="79" y="4.199999999999999" style="font-family: 'Open Sans', verdana, arial, sans-serif; font-size: 12px; fill: rgb(42, 63, 95); fill-opacity: 1; white-space: pre; opacity: 1;" transform="translate(0,348.00000000000006)">40</text></g></g><g class="overaxes-above"/></g><g class="subplot x3y3"><g class="layer-subplot"><g class="shapelayer"/><g class="imagelayer"/></g><g class="minor-gridlayer"><g class="x3"/><g class="y3"/></g><g class="gridlayer"><g class="x3"><path class="x3grid crisp" transform="translate(156.15,0)" d="M0,534v186" style="stroke: rgb(255, 255, 255); stroke-opacity: 1; stroke-width: 1px;"/><path class="x3grid crisp" transform="translate(240.77,0)" d="M0,534v186" style="stroke: rgb(255, 255, 255); stroke-opacity: 1; stroke-width: 1px;"/><path class="x3grid crisp" transform="translate(325.38,0)" d="M0,534v186" style="stroke: rgb(255, 255, 255); stroke-opacity: 1; stroke-width: 1px;"/><path class="x3grid crisp" transform="translate(410,0)" d="M0,534v186" style="stroke: rgb(255, 255, 255); stroke-opacity: 1; stroke-width: 1px;"/><path class="x3grid crisp" transform="translate(494.62,0)" d="M0,534v186" style="stroke: rgb(255, 255, 255); stroke-opacity: 1; stroke-width: 1px;"/></g><g class="y3"><path class="y3grid crisp" transform="translate(0,682.8)" d="M80,0h440" style="stroke: rgb(255, 255, 255); stroke-opacity: 1; stroke-width: 1px;"/><path class="y3grid crisp" transform="translate(0,645.6)" d="M80,0h440" style="stroke: rgb(255, 255, 255); stroke-opacity: 1; stroke-width: 1px;"/><path class="y3grid crisp" transform="translate(0,608.4)" d="M80,0h440" style="stroke: rgb(255, 255, 255); stroke-opacity: 1; stroke-width: 1px;"/><path class="y3grid crisp" transform="translate(0,571.2)" d="M80,0h440" style="stroke: rgb(255, 255, 255); stroke-opacity: 1; stroke-width: 1px;"/></g></g><g class="zerolinelayer"/><path class="xlines-below"/><path class="ylines-below"/><g class="overlines-below"/><g class="xaxislayer-below"/><g class="yaxislayer-below"/><g class="overaxes-below"/><g class="plot" transform="translate(80,534)" clip-path="url(#clip57578ax3y3plot)"><g class="scatterlayer mlayer"><g class="trace scatter traceb1c1d0" style="stroke-miterlimit: 2;"><g class="fills"><g><path class="js-fill" d="M0,115.24L8.46,121.55L16.92,117.19L33.85,113.13L42.31,100.97L50.77,90.92L59.23,86.98L67.69,74.13L76.15,71.06L84.62,65.29L93.08,58.28L101.54,56.76L110,53.69L118.46,51.74L126.92,47.1L135.38,48.21L143.85,46.97L152.31,41.16L160.77,37.78L177.69,35.33L186.15,35.69L203.08,34.64L211.54,36.01L228.46,35.31L236.92,37.26L245.38,37.16L253.85,38.08L262.31,36.63L270.77,36.82L296.15,38.76L304.62,38.46L313.08,40.8L321.54,39.51L338.46,42.39L346.92,47.8L355.38,47.76L363.85,56.1L372.31,60.32L380.77,69L397.69,91.74L406.15,99.09L414.62,101.5L423.08,111.35L431.54,113.44L440,127.13L440,132.54L431.54,125.27L423.08,126.68L414.62,116.67L406.15,111.13L397.69,102.76L389.23,85.36L380.77,79.1L363.85,58.98L355.38,52.31L346.92,51.05L338.46,47.2L330,45.04L321.54,42.93L313.08,43.78L304.62,39.82L296.15,39.8L287.69,40.71L279.23,39.4L270.77,38.51L262.31,40.15L253.85,39.87L245.38,40.73L236.92,39.04L228.46,38.68L220,37.32L203.08,37.68L194.62,41L186.15,37.7L177.69,42.6L169.23,38.48L160.77,45.19L152.31,44.19L143.85,52.35L135.38,55.93L126.92,56.54L118.46,59.61L110,62.87L101.54,62.55L93.08,66.95L84.62,77.23L76.15,82.21L67.69,82.81L59.23,107.03L50.77,102.66L42.31,124.16L33.85,136.4L25.38,128.05L16.92,133.5L8.46,133.54L0,131.48Z" style="fill: rgb(90, 180, 172); fill-opacity: 1; stroke-width: 0;"/></g></g><g class="errorbars"/><g class="lines"><path class="js-line" d="M0,131.48L8.46,133.54L16.92,133.5L25.38,128.05L33.85,136.4L42.31,124.16L50.77,102.66L59.23,107.03L67.69,82.81L76.15,82.21L84.62,77.23L93.08,66.95L101.54,62.55L110,62.87L118.46,59.61L126.92,56.54L135.38,55.93L143.85,52.35L152.31,44.19L160.77,45.19L169.23,38.48L177.69,42.6L186.15,37.7L194.62,41L203.08,37.68L220,37.32L228.46,38.68L236.92,39.04L245.38,40.73L253.85,39.87L262.31,40.15L270.77,38.51L279.23,39.4L287.69,40.71L296.15,39.8L304.62,39.82L313.08,43.78L321.54,42.93L330,45.04L338.46,47.2L346.92,51.05L355.38,52.31L363.85,58.98L380.77,79.1L389.23,85.36L397.69,102.76L406.15,111.13L414.62,116.67L423.08,126.68L431.54,125.27L440,132.54" style="vector-effect: non-scaling-stroke; fill: none; stroke: rgb(0, 0, 0); stroke-opacity: 1; stroke-width: 0.25px; opacity: 1;"/></g><g class="points"/><g class="text"/></g><g class="trace scatter trace70ab9a" style="stroke-miterlimit: 2;"><g class="fills"><g><path class="js-fill" d="M0,111.62L8.46,113.84L16.92,109.35L25.38,105.56L33.85,104.68L42.31,90.31L50.77,87.36L59.23,79.33L67.69,69.41L76.15,67.07L84.62,58.52L93.08,53.03L101.54,52.27L110,50.99L118.46,46.62L126.92,41.53L135.38,43.41L143.85,42.49L152.31,38.15L160.77,35.48L169.23,34.52L203.08,33.8L211.54,34.78L228.46,34.41L236.92,35.3L253.85,37.02L262.31,34.99L313.08,38.47L321.54,37.86L330,39.85L338.46,41.01L355.38,44.37L363.85,53.95L372.31,55.81L380.77,63.49L397.69,83.59L406.15,85.94L414.62,97.5L423.08,99.42L431.54,108.51L440,122.66L440,127.13L431.54,113.44L423.08,111.35L414.62,101.5L406.15,99.09L397.69,91.74L380.77,69L372.31,60.32L363.85,56.1L355.38,47.76L346.92,47.8L338.46,42.39L321.54,39.51L313.08,40.8L304.62,38.46L296.15,38.76L270.77,36.82L262.31,36.63L253.85,38.08L245.38,37.16L236.92,37.26L228.46,35.31L211.54,36.01L203.08,34.64L186.15,35.69L177.69,35.33L160.77,37.78L152.31,41.16L143.85,46.97L135.38,48.21L126.92,47.1L118.46,51.74L110,53.69L101.54,56.76L93.08,58.28L84.62,65.29L76.15,71.06L67.69,74.13L59.23,86.98L50.77,90.92L42.31,100.97L33.85,113.13L16.92,117.19L8.46,121.55L0,115.24Z" style="fill: rgb(245, 245, 245); fill-opacity: 1; stroke-width: 0;"/></g></g><g class="errorbars"/><g class="lines"><path class="js-line" d="M0,115.24L8.46,121.55L16.92,117.19L33.85,113.13L42.31,100.97L50.77,90.92L59.23,86.98L67.69,74.13L76.15,71.06L84.62,65.29L93.08,58.28L101.54,56.76L110,53.69L118.46,51.74L126.92,47.1L135.38,48.21L143.85,46.97L152.31,41.16L160.77,37.78L177.69,35.33L186.15,35.69L203.08,34.64L211.54,36.01L228.46,35.31L236.92,37.26L245.38,37.16L253.85,38.08L262.31,36.63L270.77,36.82L296.15,38.76L304.62,38.46L313.08,40.8L321.54,39.51L338.46,42.39L346.92,47.8L355.38,47.76L363.85,56.1L372.31,60.32L380.77,69L397.69,91.74L406.15,99.09L414.62,101.5L423.08,111.35L431.54,113.44L440,127.13" style="vector-effect: non-scaling-stroke; fill: none; stroke: rgb(0, 0, 0); stroke-opacity: 1; stroke-width: 0.5px; opacity: 1;"/></g><g class="points"/><g class="text"/></g><g class="trace scatter tracedcc7a6" style="stroke-miterlimit: 2;"><g class="fills"><g><path class="js-fill" d="M0,103.26L8.46,108.84L16.92,105.1L33.85,95.99L42.31,84.25L50.77,76.56L59.23,70.77L67.69,63.5L76.15,60.38L84.62,53.17L93.08,50.63L101.54,47.03L110,45.88L118.46,42.93L126.92,39.08L135.38,36.19L143.85,37.87L152.31,36.23L160.77,32.07L169.23,31.5L177.69,30.12L186.15,32.48L194.62,30L203.08,32.16L211.54,33.1L228.46,32.37L236.92,33.32L245.38,33.89L253.85,33.48L262.31,33.23L270.77,34L279.23,33.61L287.69,34.5L296.15,35.11L304.62,37L313.08,35.65L321.54,35.82L330,36.13L338.46,38.55L346.92,39.1L355.38,42.53L363.85,48.78L372.31,53.48L380.77,61.62L389.23,67.53L397.69,77L406.15,81.24L414.62,88.5L423.08,88.6L431.54,103.47L440,114.68L440,122.66L431.54,108.51L423.08,99.42L414.62,97.5L406.15,85.94L397.69,83.59L380.77,63.49L372.31,55.81L363.85,53.95L355.38,44.37L338.46,41.01L330,39.85L321.54,37.86L313.08,38.47L262.31,34.99L253.85,37.02L236.92,35.3L228.46,34.41L211.54,34.78L203.08,33.8L169.23,34.52L160.77,35.48L152.31,38.15L143.85,42.49L135.38,43.41L126.92,41.53L118.46,46.62L110,50.99L101.54,52.27L93.08,53.03L84.62,58.52L76.15,67.07L67.69,69.41L59.23,79.33L50.77,87.36L42.31,90.31L33.85,104.68L25.38,105.56L16.92,109.35L8.46,113.84L0,111.62Z" style="fill: rgb(245, 245, 245); fill-opacity: 1; stroke-width: 0;"/></g></g><g class="errorbars"/><g class="lines"><path class="js-line" d="M0,111.62L8.46,113.84L16.92,109.35L25.38,105.56L33.85,104.68L42.31,90.31L50.77,87.36L59.23,79.33L67.69,69.41L76.15,67.07L84.62,58.52L93.08,53.03L101.54,52.27L110,50.99L118.46,46.62L126.92,41.53L135.38,43.41L143.85,42.49L152.31,38.15L160.77,35.48L169.23,34.52L203.08,33.8L211.54,34.78L228.46,34.41L236.92,35.3L253.85,37.02L262.31,34.99L313.08,38.47L321.54,37.86L330,39.85L338.46,41.01L355.38,44.37L363.85,53.95L372.31,55.81L380.77,63.49L397.69,83.59L406.15,85.94L414.62,97.5L423.08,99.42L431.54,108.51L440,122.66" style="vector-effect: non-scaling-stroke; fill: none; stroke: rgb(0, 0, 0); stroke-opacity: 1; stroke-width: 1px; opacity: 1;"/></g><g class="points"/><g class="text"/></g><g class="trace scatter trace861535" style="stroke-miterlimit: 2;"><g class="fills"><g><path class="js-fill" d="M0,98.08L8.46,96.57L16.92,88.62L33.85,84.25L42.31,72.43L50.77,58.96L59.23,63.94L67.69,55.04L76.15,50.01L84.62,45.73L93.08,40.56L110,34.21L118.46,34.32L126.92,31.23L135.38,22.61L152.31,34.87L160.77,24.57L169.23,27.34L177.69,25.93L186.15,29.53L194.62,24.4L203.08,29.58L211.54,30.56L220,30.91L228.46,30.19L236.92,32.16L245.38,29.72L253.85,27.48L262.31,32.29L270.77,31.78L279.23,30.12L296.15,34.45L304.62,35.62L313.08,30.97L321.54,31.17L330,30.68L338.46,34.62L346.92,32.38L355.38,35.36L363.85,41.87L372.31,45.21L380.77,51.49L389.23,60.57L406.15,71.47L414.62,70.9L423.08,83.89L431.54,92.47L440,97.33L440,114.68L431.54,103.47L423.08,88.6L414.62,88.5L406.15,81.24L397.69,77L389.23,67.53L380.77,61.62L372.31,53.48L363.85,48.78L355.38,42.53L346.92,39.1L338.46,38.55L330,36.13L321.54,35.82L313.08,35.65L304.62,37L296.15,35.11L287.69,34.5L279.23,33.61L270.77,34L262.31,33.23L253.85,33.48L245.38,33.89L236.92,33.32L228.46,32.37L211.54,33.1L203.08,32.16L194.62,30L186.15,32.48L177.69,30.12L169.23,31.5L160.77,32.07L152.31,36.23L143.85,37.87L135.38,36.19L126.92,39.08L118.46,42.93L110,45.88L101.54,47.03L93.08,50.63L84.62,53.17L76.15,60.38L67.69,63.5L59.23,70.77L50.77,76.56L42.31,84.25L33.85,95.99L16.92,105.1L8.46,108.84L0,103.26Z" style="fill: rgb(216, 179, 101); fill-opacity: 1; stroke-width: 0;"/></g></g><g class="errorbars"/><g class="lines"><path class="js-line" d="M0,103.26L8.46,108.84L16.92,105.1L33.85,95.99L42.31,84.25L50.77,76.56L59.23,70.77L67.69,63.5L76.15,60.38L84.62,53.17L93.08,50.63L101.54,47.03L110,45.88L118.46,42.93L126.92,39.08L135.38,36.19L143.85,37.87L152.31,36.23L160.77,32.07L169.23,31.5L177.69,30.12L186.15,32.48L194.62,30L203.08,32.16L211.54,33.1L228.46,32.37L236.92,33.32L245.38,33.89L253.85,33.48L262.31,33.23L270.77,34L279.23,33.61L287.69,34.5L296.15,35.11L304.62,37L313.08,35.65L321.54,35.82L330,36.13L338.46,38.55L346.92,39.1L355.38,42.53L363.85,48.78L372.31,53.48L380.77,61.62L389.23,67.53L397.69,77L406.15,81.24L414.62,88.5L423.08,88.6L431.54,103.47L440,114.68" style="vector-effect: non-scaling-stroke; fill: none; stroke: rgb(0, 0, 0); stroke-opacity: 1; stroke-width: 0.5px; opacity: 1;"/></g><g class="points"/><g class="text"/></g><g class="trace scatter traced48074" style="stroke-miterlimit: 2;"><g class="fills"/><g class="errorbars"/><g class="lines"><path class="js-line" d="M0,98.08L8.46,96.57L16.92,88.62L33.85,84.25L42.31,72.43L50.77,58.96L59.23,63.94L67.69,55.04L76.15,50.01L84.62,45.73L93.08,40.56L110,34.21L118.46,34.32L126.92,31.23L135.38,22.61L152.31,34.87L160.77,24.57L169.23,27.34L177.69,25.93L186.15,29.53L194.62,24.4L203.08,29.58L211.54,30.56L220,30.91L228.46,30.19L236.92,32.16L245.38,29.72L253.85,27.48L262.31,32.29L270.77,31.78L279.23,30.12L296.15,34.45L304.62,35.62L313.08,30.97L321.54,31.17L330,30.68L338.46,34.62L346.92,32.38L355.38,35.36L363.85,41.87L372.31,45.21L380.77,51.49L389.23,60.57L406.15,71.47L414.62,70.9L423.08,83.89L431.54,92.47L440,97.33" style="vector-effect: non-scaling-stroke; fill: none; stroke: rgb(0, 0, 0); stroke-opacity: 1; stroke-width: 0.25px; opacity: 1;"/></g><g class="points"/><g class="text"/></g><g class="trace scatter trace5b8af6" style="stroke-miterlimit: 2; opacity: 1;"><g class="fills"/><g class="errorbars"/><g class="lines"/><g class="points"><path class="point" transform="translate(160.77,37.2)" d="M4,0A4,4 0 1,1 0,-4A4,4 0 0,1 4,0ZM0,0.5L0.5,0L0,-0.5L-0.5,0Z" style="opacity: 1; stroke: rgb(0, 0, 0); stroke-opacity: 1; stroke-width: 1px; fill: none;"/><path class="point" transform="translate(169.23,29.76)" d="M4,0A4,4 0 1,1 0,-4A4,4 0 0,1 4,0ZM0,0.5L0.5,0L0,-0.5L-0.5,0Z" style="opacity: 1; stroke: rgb(0, 0, 0); stroke-opacity: 1; stroke-width: 1px; fill: none;"/><path class="point" transform="translate(177.69,29.76)" d="M4,0A4,4 0 1,1 0,-4A4,4 0 0,1 4,0ZM0,0.5L0.5,0L0,-0.5L-0.5,0Z" style="opacity: 1; stroke: rgb(0, 0, 0); stroke-opacity: 1; stroke-width: 1px; fill: none;"/><path class="point" transform="translate(186.15,29.76)" d="M4,0A4,4 0 1,1 0,-4A4,4 0 0,1 4,0ZM0,0.5L0.5,0L0,-0.5L-0.5,0Z" style="opacity: 1; stroke: rgb(0, 0, 0); stroke-opacity: 1; stroke-width: 1px; fill: none;"/></g><g class="text"/></g></g></g><g class="overplot"/><path class="xlines-above crisp" d="M0,0" style="fill: none;"/><path class="ylines-above crisp" d="M0,0" style="fill: none;"/><g class="overlines-above"/><g class="xaxislayer-above"><g class="x3tick"><text text-anchor="middle" x="0" y="733" transform="translate(156.15,0)" style="font-family: 'Open Sans', verdana, arial, sans-serif; font-size: 12px; fill: rgb(42, 63, 95); fill-opacity: 1; white-space: pre; opacity: 1;">10</text></g><g class="x3tick"><text text-anchor="middle" x="0" y="733" style="font-family: 'Open Sans', verdana, arial, sans-serif; font-size: 12px; fill: rgb(42, 63, 95); fill-opacity: 1; white-space: pre; opacity: 1;" transform="translate(240.77,0)">20</text></g><g class="x3tick"><text text-anchor="middle" x="0" y="733" style="font-family: 'Open Sans', verdana, arial, sans-serif; font-size: 12px; fill: rgb(42, 63, 95); fill-opacity: 1; white-space: pre; opacity: 1;" transform="translate(325.38,0)">30</text></g><g class="x3tick"><text text-anchor="middle" x="0" y="733" style="font-family: 'Open Sans', verdana, arial, sans-serif; font-size: 12px; fill: rgb(42, 63, 95); fill-opacity: 1; white-space: pre; opacity: 1;" transform="translate(410,0)">40</text></g><g class="x3tick"><text text-anchor="middle" x="0" y="733" style="font-family: 'Open Sans', verdana, arial, sans-serif; font-size: 12px; fill: rgb(42, 63, 95); fill-opacity: 1; white-space: pre; opacity: 1;" transform="translate(494.62,0)">50</text></g></g><g class="yaxislayer-above"><g class="y3tick"><text text-anchor="end" x="79" y="4.199999999999999" transform="translate(0,720)" style="font-family: 'Open Sans', verdana, arial, sans-serif; font-size: 12px; fill: rgb(42, 63, 95); fill-opacity: 1; white-space: pre; opacity: 1;">5</text></g><g class="y3tick"><text text-anchor="end" x="79" y="4.199999999999999" style="font-family: 'Open Sans', verdana, arial, sans-serif; font-size: 12px; fill: rgb(42, 63, 95); fill-opacity: 1; white-space: pre; opacity: 1;" transform="translate(0,682.8)">10</text></g><g class="y3tick"><text text-anchor="end" x="79" y="4.199999999999999" style="font-family: 'Open Sans', verdana, arial, sans-serif; font-size: 12px; fill: rgb(42, 63, 95); fill-opacity: 1; white-space: pre; opacity: 1;" transform="translate(0,645.6)">15</text></g><g class="y3tick"><text text-anchor="end" x="79" y="4.199999999999999" style="font-family: 'Open Sans', verdana, arial, sans-serif; font-size: 12px; fill: rgb(42, 63, 95); fill-opacity: 1; white-space: pre; opacity: 1;" transform="translate(0,608.4)">20</text></g><g class="y3tick"><text text-anchor="end" x="79" y="4.199999999999999" style="font-family: 'Open Sans', verdana, arial, sans-serif; font-size: 12px; fill: rgb(42, 63, 95); fill-opacity: 1; white-space: pre; opacity: 1;" transform="translate(0,571.2)">25</text></g><g class="y3tick"><text text-anchor="end" x="79" y="4.199999999999999" style="font-family: 'Open Sans', verdana, arial, sans-serif; font-size: 12px; fill: rgb(42, 63, 95); fill-opacity: 1; white-space: pre; opacity: 1;" transform="translate(0,534)">30</text></g></g><g class="overaxes-above"/></g></g><g class="polarlayer"/><g class="smithlayer"/><g class="ternarylayer"/><g class="geolayer"/><g class="funnelarealayer"/><g class="pielayer"/><g class="iciclelayer"/><g class="treemaplayer"/><g class="sunburstlayer"/><g class="glimages"/><defs id="topdefs-57578a"><g class="clips"/></defs><g class="layer-above"><g class="imagelayer"/><g class="shapelayer"/></g><g class="infolayer"><g class="g-gtitle"><text class="gtitle" x="30" y="50" text-anchor="start" dy="0em" style="font-family: 'Open Sans', verdana, arial, sans-serif; font-size: 17px; fill: rgb(42, 63, 95); opacity: 1; font-weight: normal; white-space: pre;">Climatology and S2S forecast for Patuakhali</text></g><g class="g-xtitle"/><g class="g-x2title"/><g class="g-x3title"/><g class="g-ytitle"><text class="ytitle" transform="rotate(-90,34.16875,193)" x="34.16875" y="193" text-anchor="middle" style="font-family: 'Open Sans', verdana, arial, sans-serif; font-size: 14px; fill: rgb(42, 63, 95); opacity: 1; font-weight: normal; white-space: pre;">[mm]</text></g><g class="g-y2title"><text class="y2title" transform="rotate(-90,40.840625,410.00000000000006)" x="40.840625" y="410.00000000000006" text-anchor="middle" style="font-family: 'Open Sans', verdana, arial, sans-serif; font-size: 14px; fill: rgb(42, 63, 95); opacity: 1; font-weight: normal; white-space: pre;">[C]</text></g><g class="g-y3title"><text class="y3title" transform="rotate(-90,40.840625,627)" x="40.840625" y="627" text-anchor="middle" style="font-family: 'Open Sans', verdana, arial, sans-serif; font-size: 14px; fill: rgb(42, 63, 95); opacity: 1; font-weight: normal; white-space: pre;">[C]</text></g><g class="annotation" data-index="0" style="opacity: 1;"><g class="annotation-text-g" transform="rotate(0,300,89.5)"><g class="cursor-pointer" transform="translate(237,79)"><rect class="bg" x="0.5" y="0.5" width="126" height="20" style="stroke-width: 1px; stroke: rgb(0, 0, 0); stroke-opacity: 0; fill: rgb(0, 0, 0); fill-opacity: 0;"/><text class="annotation-text" text-anchor="middle" x="63.359375" y="16" style="font-family: 'Open Sans', verdana, arial, sans-serif; font-size: 16px; fill: rgb(42, 63, 95); fill-opacity: 1; white-space: pre;">Precipitation sum</text></g></g></g><g class="annotation" data-index="1" style="opacity: 1;"><g class="annotation-text-g" transform="rotate(0,300,306.50000000000006)"><g class="cursor-pointer" transform="translate(196,296)"><rect class="bg" x="0.5" y="0.5" width="208" height="20" style="stroke-width: 1px; stroke: rgb(0, 0, 0); stroke-opacity: 0; fill: rgb(0, 0, 0); fill-opacity: 0;"/><text class="annotation-text" text-anchor="middle" x="104.265625" y="16" style="font-family: 'Open Sans', verdana, arial, sans-serif; font-size: 16px; fill: rgb(42, 63, 95); fill-opacity: 1; white-space: pre;">Mean maximum temperature</text></g></g></g><g class="annotation" data-index="2" style="opacity: 1;"><g class="annotation-text-g" transform="rotate(0,300,523.5)"><g class="cursor-pointer" transform="translate(198,513)"><rect class="bg" x="0.5" y="0.5" width="203" height="20" style="stroke-width: 1px; stroke: rgb(0, 0, 0); stroke-opacity: 0; fill: rgb(0, 0, 0); fill-opacity: 0;"/><text class="annotation-text" text-anchor="middle" x="102.046875" y="16" style="font-family: 'Open Sans', verdana, arial, sans-serif; font-size: 16px; fill: rgb(42, 63, 95); fill-opacity: 1; white-space: pre;">Mean minimum temperature</text></g></g></g><g class="annotation" data-index="3" style="opacity: 1;"><g class="annotation-text-g" transform="rotate(0,300,760.5)"><g class="cursor-pointer" transform="translate(277,750)"><rect class="bg" x="0.5" y="0.5" width="45" height="20" style="stroke-width: 1px; stroke: rgb(0, 0, 0); stroke-opacity: 0; fill: rgb(0, 0, 0); fill-opacity: 0;"/><text class="annotation-text" text-anchor="middle" x="22.3125" y="16" style="font-family: 'Open Sans', verdana, arial, sans-serif; font-size: 16px; fill: rgb(42, 63, 95); fill-opacity: 1; white-space: pre;">Week</text></g></g></g></g></svg>