<svg class="main-svg" xmlns="http://www.w3.org/2000/svg" xmlns:xlink="http://www.w3.org/1999/xlink" width="600" height="800" style="" viewBox="0 0 600 800"><rect x="0" y="0" width="600" height="800" style="fill: rgb(255, 255, 255); fill-opacity: 1;"/><defs id="defs-4f17d3"><g class="clips"><clipPath id="clip4f17d3xyplot" class="plotclip"><rect width="440" height="186.00000000000003"/></clipPath><clipPath id="clip4f17d3x2y2plot" class="plotclip"><rect width="440" height="185.99999999999997"/></clipPath><clipPath id="clip4f17d3x3y3plot" class="plotclip"><rect width="440" height="186"/></clipPath><clipPath class="axesclip" id="clip4f17d3x"><rect x="80" y="0" width="440" height="800"/></clipPath><clipPath class="axesclip" id="clip4f17d3y"><rect x="0" y="100" width="600" height="186.00000000000003"/></clipPath><clipPath class="axesclip" id="clip4f17d3xy"><rect x="80" y="100" width="440" height="186.00000000000003"/></clipPath><clipPath class="axesclip" id="clip4f17d3y2"><rect x="0" y="317.00000000000006" width="600" height="185.99999999999997"/></clipPath><clipPath class="axesclip" id="clip4f17d3xy2"><rect x="80" y="317.00000000000006" width="440" height="185.99999999999997"/></clipPath><clipPath class="axesclip" id="clip4f17d3y3"><rect x="0" y="534" width="600" height="186"/></clipPath><clipPath class="axesclip" id="clip4f17d3xy3"><rect x="80" y="534" width="440" height="186"/></clipPath><clipPath class="axesclip" id="clip4f17d3x2"><rect x="80" y="0" width="440" height="800"/></clipPath><clipPath class="axesclip" id="clip4f17d3x2y"><rect x="80" y="100" width="440" height="186.00000000000003"/></clipPath><clipPath class="axesclip" id="clip4f17d3x2y2"><rect x="80" y="317.00000000000006" width="440" height="185.99999999999997"/></clipPath><clipPath class="axesclip" id="clip4f17d3x2y3"><rect x="80" y="534" width="440" height="186"/></clipPath><clipPath class="axesclip" id="clip4f17d3x3"><rect x="80" y="0" width="440" height="800"/></clipPath><clipPath class="axesclip" id="clip4f17d3x3y"><rect x="80" y="100" width="440" height="186.00000000000003"/></clipPath><clipPath class="axesclip" id="clip4f17d3x3y2"><rect x="80" y="317.00000000000006" width="440" height="185.99999999999997"/></clipPath><clipPath class="axesclip" id="clip4f17d3x3y3"><rect x="80" y="534" width="440" height="186"/></clipPath></g><g class="gradients"/><g class="patterns"/></defs><g class="bglayer"><rect class="bg" x="80" y="100" width="440" height="186.00000000000003" style="fill: rgb(229, 236, 246); fill-opacity: 1; stroke-width: 0;"/><rect class="bg" x="80" y="317.00000000000006" width="440" height="185.99999999999997" style="fill: rgb(229, 236, 246); fill-opacity: 1; stroke-width: 0;"/><rect class="bg" x="80" y="534" width="440" height="186" style="fill: rgb(229, 236, 246); fill-opacity: 1; stroke-width: 0;"/></g><g class="layer-below"><g class="imagelayer"/><g class="shapelayer"/></g><g class="cartesianlayer"><g class="subplot xy"><g class="layer-subplot"><g class="shapelayer"/><g class="imagelayer"/></g><g class="minor-gridlayer"><g class="x"/><g class="y"/></g><g class="gridlayer"><g class="x"><path class="xgrid crisp" transform="translate(156.15,0)" d="M0,100v186.00000000000003" style="stroke: rgb(255, 255, 255); stroke-opacity: 1; stroke-width: 1px;"/><path class="xgrid crisp" transform="translate(240.77,0)" d="M0,100v186.00000000000003" style="stroke: rgb(255, 255, 255); stroke-opacity: 1; stroke-width: 1px;"/><path class="xgrid crisp" transform="translate(325.38,0)" d="M0,100v186.00000000000003" style="stroke: rgb(255, 255, 255); stroke-opacity: 1; stroke-width: 1px;"/><path class="xgrid crisp" transform="translate(410,0)" d="M0,100v186.00000000000003" style="stroke: rgb(255, 255, 255); stroke-opacity: 1; stroke-width: 1px;"/><path class="xgrid crisp" transform="translate(494.62,0)" d="M0,100v186.00000000000003" style="stroke: rgb(255, 255, 255); stroke-opacity: 1; stroke-width: 1px;"/></g><g class="y"><path class="ygrid crisp" transform="translate(0,248.8)" d="M80,0h440" style="stroke: rgb(255, 255, 255); stroke-opacity: 1; stroke-width: 1px;"/><path class="ygrid crisp" transform="translate(0,211.6)" d="M80,0h440" style="stroke: rgb(255, 255, 255); stroke-opacity: 1; stroke-width: 1px;"/><path class="ygrid crisp" transform="translate(0,174.4)" d="M80,0h440" style="stroke: rgb(255, 255, 255); stroke-opacity: 1; stroke-width: 1px;"/><path class="ygrid crisp" transform="translate(0,137.2)" d="M80,0h440" style="stroke: rgb(255, 255, 255); stroke-opacity: 1; stroke-width: 1px;"/></g></g><g class="zerolinelayer"><path class="yzl zl crisp" transform="translate(0,286)" d="M80,0h440" style="stroke: rgb(255, 255, 255); stroke-opacity: 1; stroke-width: 2px;"/></g><path class="xlines-below"/><path class="ylines-below"/><g class="overlines-below"/><g class="xaxislayer-below"/><g class="yaxislayer-below"/><g class="overaxes-below"/><g class="plot" transform="translate(80,100)" clip-path="url(#clip4f17d3xyplot)"><g class="scatterlayer mlayer"><g class="trace scatter trace5605be" style="stroke-miterlimit: 2;"><g class="fills"><g><path class="js-fill" d="M0,186L135.38,185.48L143.85,178.81L152.31,184.72L160.77,172.56L169.23,170.38L177.69,169.4L186.15,114.59L194.62,144.77L203.08,152.36L211.54,113.18L220,147.65L228.46,127.41L236.92,102.26L245.38,102.28L253.85,144.27L262.31,116.88L270.77,126.89L279.23,146.36L287.69,150.96L296.15,171.67L304.62,157.49L313.08,170.77L321.54,169.29L330,170.77L355.38,185.97L363.85,185.72L389.23,186L397.69,185.99L440,186L440,186L338.46,185.97L330,186L321.54,183.19L313.08,185.17L304.62,176.17L296.15,184.76L287.69,182.71L279.23,184.63L270.77,145.57L262.31,176.87L253.85,180.16L245.38,170.06L236.92,179.49L228.46,180.85L220,177.78L211.54,184.79L203.08,179.66L194.62,174.4L186.15,156.47L177.69,185.75L169.23,184.66L160.77,186L0,186Z" style="fill: rgb(224, 236, 244); fill-opacity: 1; stroke-width: 0;"/></g></g><g class="errorbars"/><g class="lines"><path class="js-line" d="M0,186L160.77,186L169.23,184.66L177.69,185.75L186.15,156.47L194.62,174.4L203.08,179.66L211.54,184.79L220,177.78L228.46,180.85L236.92,179.49L245.38,170.06L253.85,180.16L262.31,176.87L270.77,145.57L279.23,184.63L287.69,182.71L296.15,184.76L304.62,176.17L313.08,185.17L321.54,183.19L330,186L338.46,185.97L440,186" style="vector-effect: non-scaling-stroke; fill: none; stroke: rgb(0, 0, 0); stroke-opacity: 1; stroke-width: 0.25px; opacity: 1;"/></g><g class="points"/><g class="text"/></g><g class="trace scatter trace08e3a6" style="stroke-miterlimit: 2;"><g class="fills"><g><path class="js-fill" d="M0,186L101.54,186L110,182.67L118.46,184.46L126.92,184.35L135.38,179.6L143.85,163.24L152.31,172.99L160.77,150.83L169.23,159.63L177.69,130.87L186.15,76.96L194.62,90.8L203.08,77.52L211.54,77.38L220,96.8L228.46,77.41L236.92,45.13L245.38,74.9L253.85,68.21L262.31,83.75L270.77,78.55L279.23,89.13L287.69,106.21L296.15,143.54L304.62,124.98L313.08,147.87L321.54,145.39L330,162.18L338.46,159.05L346.92,162.47L355.38,181.79L363.85,183.02L372.31,185.9L380.77,185.99L440,186L440,186L397.69,185.99L389.23,186L363.85,185.72L355.38,185.97L330,170.77L321.54,169.29L313.08,170.77L304.62,157.49L296.15,171.67L287.69,150.96L279.23,146.36L270.77,126.89L262.31,116.88L253.85,144.27L245.38,102.28L236.92,102.26L228.46,127.41L220,147.65L211.54,113.18L203.08,152.36L194.62,144.77L186.15,114.59L177.69,169.4L169.23,170.38L160.77,172.56L152.31,184.72L143.85,178.81L135.38,185.48L0,186Z" style="fill: rgb(158, 188, 218); fill-opacity: 1; stroke-width: 0;"/></g></g><g class="errorbars"/><g class="lines"><path class="js-line" d="M0,186L135.38,185.48L143.85,178.81L152.31,184.72L160.77,172.56L169.23,170.38L177.69,169.4L186.15,114.59L194.62,144.77L203.08,152.36L211.54,113.18L220,147.65L228.46,127.41L236.92,102.26L245.38,102.28L253.85,144.27L262.31,116.88L270.77,126.89L279.23,146.36L287.69,150.96L296.15,171.67L304.62,157.49L313.08,170.77L321.54,169.29L330,170.77L355.38,185.97L363.85,185.72L389.23,186L397.69,185.99L440,186" style="vector-effect: non-scaling-stroke; fill: none; stroke: rgb(0, 0, 0); stroke-opacity: 1; stroke-width: 0.5px; opacity: 1;"/></g><g class="points"/><g class="text"/></g><g class="trace scatter tracee5af57" style="stroke-miterlimit: 2;"><g class="fills"><g><path class="js-fill" d="M0,185.79L33.85,185.97L42.31,185.99L84.62,185.91L93.08,183.49L101.54,185.1L110,177.6L126.92,173.13L135.38,152.18L143.85,145.7L152.31,136.71L160.77,106.8L169.23,119.48L177.69,104.16L186.15,54.72L194.62,-35.05L203.08,-5.94L211.54,-23.09L220,-28.8L236.92,-60.79L245.38,-102.25L253.85,25L262.31,33.43L270.77,-23.63L279.23,47.53L296.15,106.27L304.62,101.82L313.08,117.01L321.54,112.78L330,136.32L338.46,117.56L346.92,131.59L355.38,164.37L363.85,154.88L372.31,176.68L380.77,185.89L389.23,185.59L414.62,186L423.08,185.86L440,185.99L440,186L380.77,185.99L372.31,185.9L363.85,183.02L355.38,181.79L346.92,162.47L338.46,159.05L330,162.18L321.54,145.39L313.08,147.87L304.62,124.98L296.15,143.54L287.69,106.21L279.23,89.13L270.77,78.55L262.31,83.75L253.85,68.21L245.38,74.9L236.92,45.13L228.46,77.41L220,96.8L211.54,77.38L203.08,77.52L194.62,90.8L186.15,76.96L177.69,130.87L169.23,159.63L160.77,150.83L152.31,172.99L143.85,163.24L135.38,179.6L126.92,184.35L118.46,184.46L110,182.67L101.54,186L0,186Z" style="fill: rgb(158, 188, 218); fill-opacity: 1; stroke-width: 0;"/></g></g><g class="errorbars"/><g class="lines"><path class="js-line" d="M0,186L101.54,186L110,182.67L118.46,184.46L126.92,184.35L135.38,179.6L143.85,163.24L152.31,172.99L160.77,150.83L169.23,159.63L177.69,130.87L186.15,76.96L194.62,90.8L203.08,77.52L211.54,77.38L220,96.8L228.46,77.41L236.92,45.13L245.38,74.9L253.85,68.21L262.31,83.75L270.77,78.55L279.23,89.13L287.69,106.21L296.15,143.54L304.62,124.98L313.08,147.87L321.54,145.39L330,162.18L338.46,159.05L346.92,162.47L355.38,181.79L363.85,183.02L372.31,185.9L380.77,185.99L440,186" style="vector-effect: non-scaling-stroke; fill: none; stroke: rgb(0, 0, 0); stroke-opacity: 1; stroke-width: 1px; opacity: 1;"/></g><g class="points"/><g class="text"/></g><g class="trace scatter trace1fc9a4" style="stroke-miterlimit: 2;"><g class="fills"><g><path class="js-fill" d="M0,185.7L25.38,186L33.85,185.94L84.62,185.88L93.08,181.56L101.54,184.84L110,169.37L118.46,171.41L126.92,155.92L135.38,124.15L143.85,120.68L152.31,72.89L160.77,39.84L169.23,56.56L177.69,17.83L186.15,-1.9L194.62,-133.56L203.08,-188.66L211.54,-81.8L220,-291.67L228.46,-252.47L236.92,-301.68L245.38,-358.42L253.85,-131.53L262.31,-86.75L270.77,-228.91L279.23,-43.67L287.69,11.94L296.15,13.05L304.62,51.86L313.08,81.94L321.54,38.12L330,95.78L338.46,57.41L346.92,61.96L355.38,155.48L363.85,116.58L372.31,164.73L380.77,185.87L389.23,185.39L406.15,185.87L414.62,186L440,185.99L440,185.99L423.08,185.86L414.62,186L389.23,185.59L380.77,185.89L372.31,176.68L363.85,154.88L355.38,164.37L346.92,131.59L338.46,117.56L330,136.32L321.54,112.78L313.08,117.01L304.62,101.82L296.15,106.27L279.23,47.53L270.77,-23.63L262.31,33.43L253.85,25L245.38,-102.25L236.92,-60.79L220,-28.8L211.54,-23.09L203.08,-5.94L194.62,-35.05L186.15,54.72L177.69,104.16L169.23,119.48L160.77,106.8L152.31,136.71L143.85,145.7L135.38,152.18L126.92,173.13L110,177.6L101.54,185.1L93.08,183.49L84.62,185.91L42.31,185.99L33.85,185.97L0,185.79Z" style="fill: rgb(136, 86, 167); fill-opacity: 1; stroke-width: 0;"/></g></g><g class="errorbars"/><g class="lines"><path class="js-line" d="M0,185.79L33.85,185.97L42.31,185.99L84.62,185.91L93.08,183.49L101.54,185.1L110,177.6L126.92,173.13L135.38,152.18L143.85,145.7L152.31,136.71L160.77,106.8L169.23,119.48L177.69,104.16L186.15,54.72L194.62,-35.05L203.08,-5.94L211.54,-23.09L220,-28.8L236.92,-60.79L245.38,-102.25L253.85,25L262.31,33.43L270.77,-23.63L279.23,47.53L296.15,106.27L304.62,101.82L313.08,117.01L321.54,112.78L330,136.32L338.46,117.56L346.92,131.59L355.38,164.37L363.85,154.88L372.31,176.68L380.77,185.89L389.23,185.59L414.62,186L423.08,185.86L440,185.99" style="vector-effect: non-scaling-stroke; fill: none; stroke: rgb(0, 0, 0); stroke-opacity: 1; stroke-width: 0.5px; opacity: 1;"/></g><g class="points"/><g class="text"/></g><g class="trace scatter trace871ca6" style="stroke-miterlimit: 2;"><g class="fills"/><g class="errorbars"/><g class="lines"><path class="js-line" d="M0,185.7L25.38,186L33.85,185.94L84.62,185.88L93.08,181.56L101.54,184.84L110,169.37L118.46,171.41L126.92,155.92L135.38,124.15L143.85,120.68L152.31,72.89L160.77,39.84L169.23,56.56L177.69,17.83L186.15,-1.9L194.62,-133.56L203.08,-188.66L211.54,-81.8L220,-291.67L228.46,-252.47L236.92,-301.68L245.38,-358.42L253.85,-131.53L262.31,-86.75L270.77,-228.91L279.23,-43.67L287.69,11.94L296.15,13.05L304.62,51.86L313.08,81.94L321.54,38.12L330,95.78L338.46,57.41L346.92,61.96L355.38,155.48L363.85,116.58L372.31,164.73L380.77,185.87L389.23,185.39L406.15,185.87L414.62,186L440,185.99" style="vector-effect: non-scaling-stroke; fill: none; stroke: rgb(0, 0, 0); stroke-opacity: 1; stroke-width: 0.25px; opacity: 1;"/></g><g class="points"/><g class="text"/></g><g class="trace scatter trace550779" style="stroke-miterlimit: 2; opacity: 1;"><g class="fills"/><g class="errorbars"/><g class="lines"/><g class="points"><path class="point" transform="translate(220,145.08)" d="M4,0A4,4 0 1,1 0,-4A4,4 0 0,1 4,0ZM0,0.5L0.5,0L0,-0.5L-0.5,0Z" style="opacity: 1; stroke: rgb(0, 0, 0); stroke-opacity: 1; stroke-width: 1px; fill: none;"/><path class="point" transform="translate(228.46,46.87)" d="M4,0A4,4 0 1,1 0,-4A4,4 0 0,1 4,0ZM0,0.5L0.5,0L0,-0.5L-0.5,0Z" style="opacity: 1; stroke: rgb(0, 0, 0); stroke-opacity: 1; stroke-width: 1px; fill: none;"/><path class="point" transform="translate(236.92,-110.11)" d="M4,0A4,4 0 1,1 0,-4A4,4 0 0,1 4,0ZM0,0.5L0.5,0L0,-0.5L-0.5,0Z" style="opacity: 1; stroke: rgb(0, 0, 0); stroke-opacity: 1; stroke-width: 1px; fill: none;"/><path class="point" transform="translate(245.38,-110.11)" d="M4,0A4,4 0 1,1 0,-4A4,4 0 0,1 4,0ZM0,0.5L0.5,0L0,-0.5L-0.5,0Z" style="opacity: 1; stroke: rgb(0, 0, 0); stroke-opacity: 1; stroke-width: 1px; fill: none;"/></g><g class="text"/></g></g></g><g class="overplot"/><path class="xlines-above crisp" d="M0,0" style="fill: none;"/><path class="ylines-above crisp" d="M0,0" style="fill: none;"/><g class="overlines-above"/><g class="xaxislayer-above"/><g class="yaxislayer-above"><g class="ytick"><text text-anchor="end" x="79" y="4.199999999999999" transform="translate(0,286)" style="font-family: 'Open Sans', verdana, arial, sans-serif; font-size: 12px; fill: rgb(42, 63, 95); fill-opacity: 1; white-space: pre; opacity: 1;">0</text></g><g class="ytick"><text text-anchor="end" x="79" y="4.199999999999999" style="font-family: 'Open Sans', verdana, arial, sans-serif; font-size: 12px; fill: rgb(42, 63, 95); fill-opacity: 1; white-space: pre; opacity: 1;" transform="translate(0,248.8)">50</text></g><g class="ytick"><text text-anchor="end" x="79" y="4.199999999999999" style="font-family: 'Open Sans', verdana, arial, sans-serif; font-size: 12px; fill: rgb(42, 63, 95); fill-opacity: 1; white-space: pre; opacity: 1;" transform="translate(0,211.6)">100</text></g><g class="ytick"><text text-anchor="end" x="79" y="4.199999999999999" style="font-family: 'Open Sans', verdana, arial, sans-serif; font-size: 12px; fill: rgb(42, 63, 95); fill-opacity: 1; white-space: pre; opacity: 1;" transform="translate(0,174.4)">150</text></g><g class="ytick"><text text-anchor="end" x="79" y="4.199999999999999" style="font-family: 'Open Sans', verdana, arial, sans-serif; font-size: 12px; fill: rgb(42, 63, 95); fill-opacity: 1; white-space: pre; opacity: 1;" transform="translate(0,137.2)">200</text></g><g class="ytick"><text text-anchor="end" x="79" y="4.199999999999999" style="font-family: 'Open Sans', verdana, arial, sans-serif; font-size: 12px; fill: rgb(42, 63, 95); fill-opacity: 1; white-space: pre; opacity: 1;" transform="translate(0,100)">250</text></g></g><g class="overaxes-above"/></g><g class="subplot x2y2"><g class="layer-subplot"><g class="shapelayer"/><g class="imagelayer"/></g><g class="minor-gridlayer"><g class="x2"/><g class="y2"/></g><g class="gridlayer"><g class="x2"><path class="x2grid crisp" transform="translate(156.15,0)" d="M0,317.00000000000006v185.99999999999997" style="stroke: rgb(255, 255, 255); stroke-opacity: 1; stroke-width: 1px;"/><path class="x2grid crisp" transform="translate(240.77,0)" d="M0,317.00000000000006v185.99999999999997" style="stroke: rgb(255, 255, 255); stroke-opacity: 1; stroke-width: 1px;"/><path class="x2grid crisp" transform="translate(325.38,0)" d="M0,317.00000000000006v185.99999999999997" style="stroke: rgb(255, 255, 255); stroke-opacity: 1; stroke-width: 1px;"/><path class="x2grid crisp" transform="translate(410,0)" d="M0,317.00000000000006v185.99999999999997" style="stroke: rgb(255, 255, 255); stroke-opacity: 1; stroke-width: 1px;"/><path class="x2grid crisp" transform="translate(494.62,0)" d="M0,317.00000000000006v185.99999999999997" style="stroke: rgb(255, 255, 255); stroke-opacity: 1; stroke-width: 1px;"/></g><g class="y2"><path class="y2grid crisp" transform="translate(0,472.00000000000006)" d="M80,0h440" style="stroke: rgb(255, 255, 255); stroke-opacity: 1; stroke-width: 1px;"/><path class="y2grid crisp" transform="translate(0,410.00000000000006)" d="M80,0h440" style="stroke: rgb(255, 255, 255); stroke-opacity: 1; stroke-width: 1px;"/><path class="y2grid crisp" transform="translate(0,348.00000000000006)" d="M80,0h440" style="stroke: rgb(255, 255, 255); stroke-opacity: 1; stroke-width: 1px;"/></g></g><g class="zerolinelayer"/><path class="xlines-below"/><path class="ylines-below"/><g class="overlines-below"/><g class="xaxislayer-below"/><g class="yaxislayer-below"/><g class="overaxes-below"/><g class="plot" transform="translate(80,317.00000000000006)" clip-path="url(#clip4f17d3x2y2plot)"><g class="scatterlayer mlayer"><g class="trace scatter trace291f3e" style="stroke-miterlimit: 2;"><g class="fills"><g><path class="js-fill" d="M0,136.38L8.46,144.45L16.92,138.19L25.38,133.83L33.85,133.21L42.31,127.17L50.77,123.1L59.23,120.12L67.69,113.37L76.15,106.02L84.62,105.4L93.08,99.58L101.54,99.51L110,94.67L118.46,90.73L126.92,93.68L135.38,93.12L143.85,94.94L152.31,95.41L160.77,98.63L169.23,100.96L177.69,101.19L186.15,104.6L211.54,108.61L220,108.35L228.46,106.87L236.92,110.57L245.38,109.8L253.85,110L262.31,108.14L270.77,108.02L279.23,107.85L287.69,105.96L296.15,106.29L304.62,104.16L313.08,105.22L321.54,104.02L330,102.43L338.46,106.74L346.92,105.74L355.38,105.98L363.85,106.35L372.31,109.78L380.77,111.47L389.23,116.38L397.69,121.46L406.15,124.89L414.62,127.31L423.08,133.2L431.54,135.18L440,141.06L440,143.48L431.54,142.01L423.08,144.82L414.62,136.48L406.15,134.06L397.69,129.19L389.23,119.23L380.77,115.71L372.31,114.37L363.85,111.01L355.38,113.02L346.92,113.84L338.46,111.92L330,106.41L321.54,110.22L313.08,115.37L304.62,108.19L296.15,112.57L287.69,110.79L279.23,111.87L270.77,116.26L262.31,111.58L253.85,114.1L228.46,113.46L220,116.61L211.54,113.05L203.08,111.7L194.62,112.65L186.15,109.63L177.69,107.73L169.23,108.68L152.31,104.56L143.85,99.79L135.38,102.07L126.92,101.97L118.46,96.73L110,99.3L101.54,103.8L93.08,111.3L84.62,114.72L76.15,115.93L67.69,122.52L59.23,132.65L50.77,132.44L42.31,136.01L33.85,143.64L25.38,139.49L16.92,141.65L8.46,147.43L0,142.35Z" style="fill: rgb(145, 191, 219); fill-opacity: 1; stroke-width: 0;"/></g></g><g class="errorbars"/><g class="lines"><path class="js-line" d="M0,142.35L8.46,147.43L16.92,141.65L25.38,139.49L33.85,143.64L42.31,136.01L50.77,132.44L59.23,132.65L67.69,122.52L76.15,115.93L84.62,114.72L93.08,111.3L101.54,103.8L110,99.3L118.46,96.73L126.92,101.97L135.38,102.07L143.85,99.79L152.31,104.56L169.23,108.68L177.69,107.73L186.15,109.63L194.62,112.65L203.08,111.7L211.54,113.05L220,116.61L228.46,113.46L253.85,114.1L262.31,111.58L270.77,116.26L279.23,111.87L287.69,110.79L296.15,112.57L304.62,108.19L313.08,115.37L321.54,110.22L330,106.41L338.46,111.92L346.92,113.84L355.38,113.02L363.85,111.01L372.31,114.37L380.77,115.71L389.23,119.23L397.69,129.19L406.15,134.06L414.62,136.48L423.08,144.82L431.54,142.01L440,143.48" style="vector-effect: non-scaling-stroke; fill: none; stroke: rgb(0, 0, 0); stroke-opacity: 1; stroke-width: 0.25px; opacity: 1;"/></g><g class="points"/><g class="text"/></g><g class="trace scatter trace4db0e0" style="stroke-miterlimit: 2;"><g class="fills"><g><path class="js-fill" d="M0,133.88L8.46,137.59L16.92,133.26L25.38,132.09L33.85,129.87L50.77,119.62L59.23,116.38L76.15,103.59L84.62,94.73L93.08,95.22L101.54,93.62L110,92.7L118.46,88.06L126.92,88.63L135.38,88.38L143.85,90.21L152.31,87.99L160.77,93.74L169.23,95.9L177.69,98.2L186.15,102.41L203.08,103.24L211.54,106.62L220,104.64L228.46,104.03L236.92,106.23L245.38,105.95L253.85,106.86L262.31,105.24L270.77,106.24L279.23,104.82L287.69,103.16L296.15,104.26L304.62,102.05L313.08,100.88L321.54,102.35L330,99.32L346.92,101.69L355.38,101.3L363.85,104.63L372.31,106.94L380.77,110L389.23,114.02L406.15,121.64L414.62,123.89L423.08,126.17L431.54,130.97L440,137.52L440,141.06L431.54,135.18L423.08,133.2L414.62,127.31L406.15,124.89L397.69,121.46L389.23,116.38L380.77,111.47L372.31,109.78L363.85,106.35L355.38,105.98L346.92,105.74L338.46,106.74L330,102.43L321.54,104.02L313.08,105.22L304.62,104.16L296.15,106.29L287.69,105.96L279.23,107.85L270.77,108.02L262.31,108.14L253.85,110L245.38,109.8L236.92,110.57L228.46,106.87L220,108.35L211.54,108.61L186.15,104.6L177.69,101.19L169.23,100.96L160.77,98.63L152.31,95.41L143.85,94.94L135.38,93.12L126.92,93.68L118.46,90.73L110,94.67L101.54,99.51L93.08,99.58L84.62,105.4L76.15,106.02L67.69,113.37L59.23,120.12L50.77,123.1L42.31,127.17L33.85,133.21L25.38,133.83L16.92,138.19L8.46,144.45L0,136.38Z" style="fill: rgb(255, 255, 191); fill-opacity: 1; stroke-width: 0;"/></g></g><g class="errorbars"/><g class="lines"><path class="js-line" d="M0,136.38L8.46,144.45L16.92,138.19L25.38,133.83L33.85,133.21L42.31,127.17L50.77,123.1L59.23,120.12L67.69,113.37L76.15,106.02L84.62,105.4L93.08,99.58L101.54,99.51L110,94.67L118.46,90.73L126.92,93.68L135.38,93.12L143.85,94.94L152.31,95.41L160.77,98.63L169.23,100.96L177.69,101.19L186.15,104.6L211.54,108.61L220,108.35L228.46,106.87L236.92,110.57L245.38,109.8L253.85,110L262.31,108.14L270.77,108.02L279.23,107.85L287.69,105.96L296.15,106.29L304.62,104.16L313.08,105.22L321.54,104.02L330,102.43L338.46,106.74L346.92,105.74L355.38,105.98L363.85,106.35L372.31,109.78L380.77,111.47L389.23,116.38L397.69,121.46L406.15,124.89L414.62,127.31L423.08,133.2L431.54,135.18L440,141.06" style="vector-effect: non-scaling-stroke; fill: none; stroke: rgb(0, 0, 0); stroke-opacity: 1; stroke-width: 0.5px; opacity: 1;"/></g><g class="points"/><g class="text"/></g><g class="trace scatter tracea2c562" style="stroke-miterlimit: 2;"><g class="fills"><g><path class="js-fill" d="M0,130.1L8.46,133.13L16.92,131.11L33.85,125.71L42.31,120.61L50.77,116.03L59.23,110.14L67.69,101.98L76.15,98.86L84.62,89.52L93.08,89.69L101.54,91.59L110,90.36L118.46,85.44L126.92,85.25L135.38,82.05L143.85,84L152.31,85.07L160.77,84.34L169.23,89.34L177.69,91.72L186.15,95.52L194.62,100.42L203.08,98.12L211.54,100.7L236.92,102.98L245.38,102.1L253.85,102.39L262.31,100.92L279.23,101.53L287.69,99.58L296.15,101.74L304.62,99.48L313.08,97.61L321.54,98.22L330,97.83L338.46,96.38L346.92,98.05L355.38,98.86L363.85,100.32L372.31,104.85L380.77,106.81L389.23,110.48L397.69,114.82L406.15,118.18L431.54,126.53L440,126.66L440,137.52L431.54,130.97L423.08,126.17L414.62,123.89L406.15,121.64L389.23,114.02L380.77,110L372.31,106.94L363.85,104.63L355.38,101.3L346.92,101.69L330,99.32L321.54,102.35L313.08,100.88L304.62,102.05L296.15,104.26L287.69,103.16L279.23,104.82L270.77,106.24L262.31,105.24L253.85,106.86L245.38,105.95L236.92,106.23L228.46,104.03L220,104.64L211.54,106.62L203.08,103.24L186.15,102.41L177.69,98.2L169.23,95.9L160.77,93.74L152.31,87.99L143.85,90.21L135.38,88.38L126.92,88.63L118.46,88.06L110,92.7L101.54,93.62L93.08,95.22L84.62,94.73L76.15,103.59L59.23,116.38L50.77,119.62L33.85,129.87L25.38,132.09L16.92,133.26L8.46,137.59L0,133.88Z" style="fill: rgb(255, 255, 191); fill-opacity: 1; stroke-width: 0;"/></g></g><g class="errorbars"/><g class="lines"><path class="js-line" d="M0,133.88L8.46,137.59L16.92,133.26L25.38,132.09L33.85,129.87L50.77,119.62L59.23,116.38L76.15,103.59L84.62,94.73L93.08,95.22L101.54,93.62L110,92.7L118.46,88.06L126.92,88.63L135.38,88.38L143.85,90.21L152.31,87.99L160.77,93.74L169.23,95.9L177.69,98.2L186.15,102.41L203.08,103.24L211.54,106.62L220,104.64L228.46,104.03L236.92,106.23L245.38,105.95L253.85,106.86L262.31,105.24L270.77,106.24L279.23,104.82L287.69,103.16L296.15,104.26L304.62,102.05L313.08,100.88L321.54,102.35L330,99.32L346.92,101.69L355.38,101.3L363.85,104.63L372.31,106.94L380.77,110L389.23,114.02L406.15,121.64L414.62,123.89L423.08,126.17L431.54,130.97L440,137.52" style="vector-effect: non-scaling-stroke; fill: none; stroke: rgb(0, 0, 0); stroke-opacity: 1; stroke-width: 1px; opacity: 1;"/></g><g class="points"/><g class="text"/></g><g class="trace scatter trace9781fa" style="stroke-miterlimit: 2;"><g class="fills"><g><path class="js-fill" d="M0,121.43L8.46,123.22L16.92,129.62L25.38,121.74L33.85,122.66L42.31,113.43L50.77,109.16L59.23,103.9L67.69,91.6L76.15,89.46L84.62,65.88L93.08,82.49L101.54,90.8L110,85.6L118.46,84.6L126.92,79.15L135.38,66.05L143.85,80.3L152.31,69.73L160.77,82.52L169.23,73.02L177.69,79.04L186.15,87.18L194.62,92.95L203.08,85.23L211.54,89.51L220,98.45L228.46,98.8L236.92,100.95L245.38,99.13L253.85,96.09L262.31,97.63L270.77,91.75L279.23,94.18L287.69,97.72L296.15,99.43L304.62,95.91L313.08,94.15L321.54,95.19L330,94.76L338.46,88.44L346.92,94.15L355.38,97.31L363.85,97.9L372.31,101.85L380.77,104.59L389.23,109.54L397.69,113.78L406.15,114.79L414.62,119.37L423.08,118.23L431.54,119.37L440,112.11L440,126.66L431.54,126.53L406.15,118.18L397.69,114.82L389.23,110.48L380.77,106.81L372.31,104.85L363.85,100.32L355.38,98.86L346.92,98.05L338.46,96.38L330,97.83L321.54,98.22L313.08,97.61L304.62,99.48L296.15,101.74L287.69,99.58L279.23,101.53L262.31,100.92L253.85,102.39L245.38,102.1L236.92,102.98L211.54,100.7L203.08,98.12L194.62,100.42L186.15,95.52L177.69,91.72L169.23,89.34L160.77,84.34L152.31,85.07L143.85,84L135.38,82.05L126.92,85.25L118.46,85.44L110,90.36L101.54,91.59L93.08,89.69L84.62,89.52L76.15,98.86L67.69,101.98L59.23,110.14L50.77,116.03L42.31,120.61L33.85,125.71L16.92,131.11L8.46,133.13L0,130.1Z" style="fill: rgb(252, 141, 89); fill-opacity: 1; stroke-width: 0;"/></g></g><g class="errorbars"/><g class="lines"><path class="js-line" d="M0,130.1L8.46,133.13L16.92,131.11L33.85,125.71L42.31,120.61L50.77,116.03L59.23,110.14L67.69,101.98L76.15,98.86L84.62,89.52L93.08,89.69L101.54,91.59L110,90.36L118.46,85.44L126.92,85.25L135.38,82.05L143.85,84L152.31,85.07L160.77,84.34L169.23,89.34L177.69,91.72L186.15,95.52L194.62,100.42L203.08,98.12L211.54,100.7L236.92,102.98L245.38,102.1L253.85,102.39L262.31,100.92L279.23,101.53L287.69,99.58L296.15,101.74L304.62,99.48L313.08,97.61L321.54,98.22L330,97.83L338.46,96.38L346.92,98.05L355.38,98.86L363.85,100.32L372.31,104.85L380.77,106.81L389.23,110.48L397.69,114.82L406.15,118.18L431.54,126.53L440,126.66" style="vector-effect: non-scaling-stroke; fill: none; stroke: rgb(0, 0, 0); stroke-opacity: 1; stroke-width: 0.5px; opacity: 1;"/></g><g class="points"/><g class="text"/></g><g class="trace scatter trace59ba2d" style="stroke-miterlimit: 2;"><g class="fills"/><g class="errorbars"/><g class="lines"><path class="js-line" d="M0,121.43L8.46,123.22L16.92,129.62L25.38,121.74L33.85,122.66L42.31,113.43L50.77,109.16L59.23,103.9L67.69,91.6L76.15,89.46L84.62,65.88L93.08,82.49L101.54,90.8L110,85.6L118.46,84.6L126.92,79.15L135.38,66.05L143.85,80.3L152.31,69.73L160.77,82.52L169.23,73.02L177.69,79.04L186.15,87.18L194.62,92.95L203.08,85.23L211.54,89.51L220,98.45L228.46,98.8L236.92,100.95L245.38,99.13L253.85,96.09L262.31,97.63L270.77,91.75L279.23,94.18L287.69,97.72L296.15,99.43L304.62,95.91L313.08,94.15L321.54,95.19L330,94.76L338.46,88.44L346.92,94.15L355.38,97.31L363.85,97.9L372.31,101.85L380.77,104.59L389.23,109.54L397.69,113.78L406.15,114.79L414.62,119.37L423.08,118.23L431.54,119.37L440,112.11" style="vector-effect: non-scaling-stroke; fill: none; stroke: rgb(0, 0, 0); stroke-opacity: 1; stroke-width: 0.25px; opacity: 1;"/></g><g class="points"/><g class="text"/></g><g class="trace scatter trace096bf1" style="stroke-miterlimit: 2; opacity: 1;"><g class="fills"/><g class="errorbars"/><g class="lines"/><g class="points"><path class="point" transform="translate(220,86.8)" d="M4,0A4,4 0 1,1 0,-4A4,4 0 0,1 4,0ZM0,0.5L0.5,0L0,-0.5L-0.5,0Z" style="opacity: 1; stroke: rgb(0, 0, 0); stroke-opacity: 1; stroke-width: 1px; fill: none;"/><path class="point" transform="translate(228.46,99.2)" d="M4,0A4,4 0 1,1 0,-4A4,4 0 0,1 4,0ZM0,0.5L0.5,0L0,-0.5L-0.5,0Z" style="opacity: 1; stroke: rgb(0, 0, 0); stroke-opacity: 1; stroke-width: 1px; fill: none;"/><path class="point" transform="translate(236.92,93)" d="M4,0A4,4 0 1,1 0,-4A4,4 0 0,1 4,0ZM0,0.5L0.5,0L0,-0.5L-0.5,0Z" style="opacity: 1; stroke: rgb(0, 0, 0); stroke-opacity: 1; stroke-width: 1px; fill: none;"/><path class="point" transform="translate(245.38,93)" d="M4,0A4,4 0 1,1 0,-4A4,4 0 0,1 4,0ZM0,0.5L0.5,0L0,-0.5L-0.5,0Z" style="opacity: 1; stroke: rgb(0, 0, 0); stroke-opacity: 1; stroke-width: 1px; fill: none;"/></g><g class="text"/></g></g></g><g class="overplot"/><path class="xlines-above crisp" d="M0,0" style="fill: none;"/><path class="ylines-above crisp" d="M0,0" style="fill: none;"/><g class="overlines-above"/><g class="xaxislayer-above"/><g class="yaxislayer-above"><g class="y2tick"><text text-anchor="end" x="79" y="4.199999999999999" transform="translate(0,472.00000000000006)" style="font-family: 'Open Sans', verdana, arial, sans-serif; font-size: 12px; fill: rgb(42, 63, 95); fill-opacity: 1; white-space: pre; opacity: 1;">20</text></g><g class="y2tick"><text text-anchor="end" x="79" y="4.199999999999999" style="font-family: 'Open Sans', verdana, arial, sans-serif; font-size: 12px; fill: rgb(42, 63, 95); fill-opacity: 1; white-space: pre; opacity: 1;" transform="translate(0,410.00000000000006)">30</text></g><g class="y2tick"><text text-anchor="end" x="79" y="4.199999999999999" style="font-family: 'Open Sans', verdana, arial, sans-serif; font-size: 12px; fill: rgb(42, 63, 95); fill-opacity: 1; white-space: pre; opacity: 1;" transform="translate(0,348.00000000000006)">40</text></g></g><g class="overaxes-above"/></g><g class="subplot x3y3"><g class="layer-subplot"><g class="shapelayer"/><g class="imagelayer"/></g><g class="minor-gridlayer"><g class="x3"/><g class="y3"/></g><g class="gridlayer"><g class="x3"><path class="x3grid crisp" transform="translate(156.15,0)" d="M0,534v186" style="stroke: rgb(255, 255, 255); stroke-opacity: 1; stroke-width: 1px;"/><path class="x3grid crisp" transform="translate(240.77,0)" d="M0,534v186" style="stroke: rgb(255, 255, 255); stroke-opacity: 1; stroke-width: 1px;"/><path class="x3grid crisp" transform="translate(325.38,0)" d="M0,534v186" style="stroke: rgb(255, 255, 255); stroke-opacity: 1; stroke-width: 1px;"/><path class="x3grid crisp" transform="translate(410,0)" d="M0,534v186" style="stroke: rgb(255, 255, 255); stroke-opacity: 1; stroke-width: 1px;"/><path class="x3grid crisp" transform="translate(494.62,0)" d="M0,534v186" style="stroke: rgb(255, 255, 255); stroke-opacity: 1; stroke-width: 1px;"/></g><g class="y3"><path class="y3grid crisp" transform="translate(0,682.8)" d="M80,0h440" style="stroke: rgb(255, 255, 255); stroke-opacity: 1; stroke-width: 1px;"/><path class="y3grid crisp" transform="translate(0,645.6)" d="M80,0h440" style="stroke: rgb(255, 255, 255); stroke-opacity: 1; stroke-width: 1px;"/><path class="y3grid crisp" transform="translate(0,608.4)" d="M80,0h440" style="stroke: rgb(255, 255, 255); stroke-opacity: 1; stroke-width: 1px;"/><path class="y3grid crisp" transform="translate(0,571.2)" d="M80,0h440" style="stroke: rgb(255, 255, 255); stroke-opacity: 1; stroke-width: 1px;"/></g></g><g class="zerolinelayer"/><path class="xlines-below"/><path class="ylines-below"/><g class="overlines-below"/><g class="xaxislayer-below"/><g class="yaxislayer-below"/><g class="overaxes-below"/><g class="plot" transform="translate(80,534)" clip-path="url(#clip4f17d3x3y3plot)"><g class="scatterlayer mlayer"><g class="trace scatter trace6080a9" style="stroke-miterlimit: 2;"><g class="fills"><g><path class="js-fill" d="M0,87.07L8.46,97.23L16.92,89.11L25.38,92.5L33.85,86.68L50.77,77.13L59.23,73.78L67.69,66.41L76.15,61.51L84.62,57.17L93.08,49.2L101.54,44.92L110,42.73L118.46,42.56L126.92,37.04L135.38,33.73L143.85,36.86L169.23,32.47L177.69,32.81L186.15,33.88L194.62,32.63L203.08,32.81L211.54,34.23L220,33.48L228.46,34.43L236.92,35.22L245.38,35.19L253.85,36.08L262.31,35.24L270.77,34.86L279.23,35.62L287.69,35.23L296.15,36.06L304.62,35.32L313.08,36.74L321.54,35.53L330,36.13L346.92,39.97L355.38,39.83L372.31,47.97L380.77,52.59L397.69,68.84L406.15,71.93L414.62,77.17L423.08,86.36L431.54,85.62L440,94.82L440,104.5L431.54,103.82L423.08,108.64L414.62,98.44L406.15,85.56L397.69,86.66L389.23,73.48L380.77,57.95L372.31,49.17L363.85,47.4L355.38,44.89L346.92,43.69L338.46,42.54L321.54,38.11L313.08,38.94L304.62,37.56L296.15,38.22L279.23,36.37L270.77,37.32L253.85,37.85L245.38,37L228.46,37.26L220,35.07L194.62,35.57L186.15,38.43L177.69,38.08L169.23,35.49L160.77,39.39L152.31,39.94L143.85,43.74L135.38,38.99L126.92,43.16L118.46,48.95L110,50.38L101.54,50.22L93.08,57.2L84.62,68.68L76.15,68.72L67.69,77.64L59.23,82.28L50.77,94.5L33.85,104.78L25.38,109.83L16.92,91.81L8.46,110.2L0,92.54Z" style="fill: rgb(90, 180, 172); fill-opacity: 1; stroke-width: 0;"/></g></g><g class="errorbars"/><g class="lines"><path class="js-line" d="M0,92.54L8.46,110.2L16.92,91.81L25.38,109.83L33.85,104.78L50.77,94.5L59.23,82.28L67.69,77.64L76.15,68.72L84.62,68.68L93.08,57.2L101.54,50.22L110,50.38L118.46,48.95L126.92,43.16L135.38,38.99L143.85,43.74L152.31,39.94L160.77,39.39L169.23,35.49L177.69,38.08L186.15,38.43L194.62,35.57L220,35.07L228.46,37.26L245.38,37L253.85,37.85L270.77,37.32L279.23,36.37L296.15,38.22L304.62,37.56L313.08,38.94L321.54,38.11L338.46,42.54L346.92,43.69L355.38,44.89L363.85,47.4L372.31,49.17L380.77,57.95L389.23,73.48L397.69,86.66L406.15,85.56L414.62,98.44L423.08,108.64L431.54,103.82L440,104.5" style="vector-effect: non-scaling-stroke; fill: none; stroke: rgb(0, 0, 0); stroke-opacity: 1; stroke-width: 0.25px; opacity: 1;"/></g><g class="points"/><g class="text"/></g><g class="trace scatter tracec1b2cb" style="stroke-miterlimit: 2;"><g class="fills"><g><path class="js-fill" d="M0,80.78L8.46,89.19L16.92,84.87L25.38,80.81L33.85,80.69L42.31,74.38L50.77,69.53L59.23,66.72L67.69,59.18L76.15,55.96L84.62,50.23L93.08,45.98L101.54,43.26L110,40.26L118.46,36L126.92,32.73L135.38,32.58L143.85,32.39L152.31,29.21L160.77,31.11L169.23,30.55L194.62,32.19L203.08,31.8L228.46,32.63L236.92,34.01L253.85,34.72L262.31,32.69L279.23,34.47L287.69,33.95L296.15,33.54L304.62,34.31L321.54,34.56L330,34.48L355.38,38.49L363.85,42.1L372.31,45.02L380.77,49.5L389.23,55.33L397.69,59.83L423.08,71.8L431.54,80.11L440,87.73L440,94.82L431.54,85.62L423.08,86.36L414.62,77.17L406.15,71.93L397.69,68.84L380.77,52.59L372.31,47.97L355.38,39.83L346.92,39.97L330,36.13L321.54,35.53L313.08,36.74L304.62,35.32L296.15,36.06L287.69,35.23L279.23,35.62L270.77,34.86L262.31,35.24L253.85,36.08L245.38,35.19L236.92,35.22L228.46,34.43L220,33.48L211.54,34.23L203.08,32.81L194.62,32.63L186.15,33.88L177.69,32.81L169.23,32.47L143.85,36.86L135.38,33.73L126.92,37.04L118.46,42.56L110,42.73L101.54,44.92L93.08,49.2L84.62,57.17L76.15,61.51L67.69,66.41L59.23,73.78L50.77,77.13L33.85,86.68L25.38,92.5L16.92,89.11L8.46,97.23L0,87.07Z" style="fill: rgb(245, 245, 245); fill-opacity: 1; stroke-width: 0;"/></g></g><g class="errorbars"/><g class="lines"><path class="js-line" d="M0,87.07L8.46,97.23L16.92,89.11L25.38,92.5L33.85,86.68L50.77,77.13L59.23,73.78L67.69,66.41L76.15,61.51L84.62,57.17L93.08,49.2L101.54,44.92L110,42.73L118.46,42.56L126.92,37.04L135.38,33.73L143.85,36.86L169.23,32.47L177.69,32.81L186.15,33.88L194.62,32.63L203.08,32.81L211.54,34.23L220,33.48L228.46,34.43L236.92,35.22L245.38,35.19L253.85,36.08L262.31,35.24L270.77,34.86L279.23,35.62L287.69,35.23L296.15,36.06L304.62,35.32L313.08,36.74L321.54,35.53L330,36.13L346.92,39.97L355.38,39.83L372.31,47.97L380.77,52.59L397.69,68.84L406.15,71.93L414.62,77.17L423.08,86.36L431.54,85.62L440,94.82" style="vector-effect: non-scaling-stroke; fill: none; stroke: rgb(0, 0, 0); stroke-opacity: 1; stroke-width: 0.5px; opacity: 1;"/></g><g class="points"/><g class="text"/></g><g class="trace scatter tracec216b0" style="stroke-miterlimit: 2;"><g class="fills"><g><path class="js-fill" d="M0,77.27L8.46,83.84L16.92,77.91L25.38,77.06L33.85,74.57L42.31,69.39L50.77,65.34L59.23,63.75L67.69,56.15L76.15,52.17L84.62,44.74L101.54,40.28L110,36.71L126.92,29.72L135.38,29.77L143.85,29.41L152.31,26.45L160.77,25.27L169.23,29.2L177.69,28.2L186.15,29.57L220,31.73L228.46,31.59L236.92,31.57L245.38,33.3L253.85,33.2L262.31,32.02L279.23,32.99L287.69,32.85L313.08,32.64L321.54,33.41L330,31.58L338.46,34.52L346.92,34.42L355.38,35.54L372.31,43.94L380.77,45.16L389.23,51.63L397.69,56.93L406.15,59.54L414.62,62.95L423.08,66.79L431.54,73.31L440,84.91L440,87.73L431.54,80.11L423.08,71.8L397.69,59.83L389.23,55.33L380.77,49.5L372.31,45.02L363.85,42.1L355.38,38.49L330,34.48L321.54,34.56L304.62,34.31L296.15,33.54L287.69,33.95L279.23,34.47L262.31,32.69L253.85,34.72L236.92,34.01L228.46,32.63L203.08,31.8L194.62,32.19L169.23,30.55L160.77,31.11L152.31,29.21L143.85,32.39L135.38,32.58L126.92,32.73L118.46,36L110,40.26L101.54,43.26L93.08,45.98L84.62,50.23L76.15,55.96L67.69,59.18L59.23,66.72L50.77,69.53L42.31,74.38L33.85,80.69L25.38,80.81L16.92,84.87L8.46,89.19L0,80.78Z" style="fill: rgb(245, 245, 245); fill-opacity: 1; stroke-width: 0;"/></g></g><g class="errorbars"/><g class="lines"><path class="js-line" d="M0,80.78L8.46,89.19L16.92,84.87L25.38,80.81L33.85,80.69L42.31,74.38L50.77,69.53L59.23,66.72L67.69,59.18L76.15,55.96L84.62,50.23L93.08,45.98L101.54,43.26L110,40.26L118.46,36L126.92,32.73L135.38,32.58L143.85,32.39L152.31,29.21L160.77,31.11L169.23,30.55L194.62,32.19L203.08,31.8L228.46,32.63L236.92,34.01L253.85,34.72L262.31,32.69L279.23,34.47L287.69,33.95L296.15,33.54L304.62,34.31L321.54,34.56L330,34.48L355.38,38.49L363.85,42.1L372.31,45.02L380.77,49.5L389.23,55.33L397.69,59.83L423.08,71.8L431.54,80.11L440,87.73" style="vector-effect: non-scaling-stroke; fill: none; stroke: rgb(0, 0, 0); stroke-opacity: 1; stroke-width: 1px; opacity: 1;"/></g><g class="points"/><g class="text"/></g><g class="trace scatter trace7e6053" style="stroke-miterlimit: 2;"><g class="fills"><g><path class="js-fill" d="M0,68.39L8.46,76.8L16.92,75.07L25.38,65.7L33.85,71.73L42.31,65.8L50.77,52.2L59.23,48.94L67.69,46.9L76.15,40.32L84.62,37.78L93.08,34.94L101.54,35.01L110,31.14L118.46,23.17L126.92,25.85L135.38,25.21L143.85,23.38L152.31,18.42L160.77,20.55L169.23,24.86L186.15,24.93L194.62,28.27L203.08,27.67L211.54,29.41L228.46,29.84L236.92,28.14L245.38,31.83L253.85,29.63L262.31,27.91L270.77,30.53L279.23,30.01L287.69,31.48L296.15,28.34L304.62,30.49L313.08,27.59L321.54,30.89L330,29.65L338.46,29.36L346.92,32.25L355.38,32.11L363.85,35.79L372.31,38.56L380.77,39.67L389.23,47.32L397.69,48.09L406.15,52.82L414.62,56.23L423.08,62.09L431.54,63.89L440,77.61L440,84.91L431.54,73.31L423.08,66.79L414.62,62.95L406.15,59.54L397.69,56.93L389.23,51.63L380.77,45.16L372.31,43.94L355.38,35.54L346.92,34.42L338.46,34.52L330,31.58L321.54,33.41L313.08,32.64L287.69,32.85L279.23,32.99L262.31,32.02L253.85,33.2L245.38,33.3L236.92,31.57L228.46,31.59L220,31.73L186.15,29.57L177.69,28.2L169.23,29.2L160.77,25.27L152.31,26.45L143.85,29.41L135.38,29.77L126.92,29.72L110,36.71L101.54,40.28L84.62,44.74L76.15,52.17L67.69,56.15L59.23,63.75L50.77,65.34L42.31,69.39L33.85,74.57L25.38,77.06L16.92,77.91L8.46,83.84L0,77.27Z" style="fill: rgb(216, 179, 101); fill-opacity: 1; stroke-width: 0;"/></g></g><g class="errorbars"/><g class="lines"><path class="js-line" d="M0,77.27L8.46,83.84L16.92,77.91L25.38,77.06L33.85,74.57L42.31,69.39L50.77,65.34L59.23,63.75L67.69,56.15L76.15,52.17L84.62,44.74L101.54,40.28L110,36.71L126.92,29.72L135.38,29.77L143.85,29.41L152.31,26.45L160.77,25.27L169.23,29.2L177.69,28.2L186.15,29.57L220,31.73L228.46,31.59L236.92,31.57L245.38,33.3L253.85,33.2L262.31,32.02L279.23,32.99L287.69,32.85L313.08,32.64L321.54,33.41L330,31.58L338.46,34.52L346.92,34.42L355.38,35.54L372.31,43.94L380.77,45.16L389.23,51.63L397.69,56.93L406.15,59.54L414.62,62.95L423.08,66.79L431.54,73.31L440,84.91" style="vector-effect: non-scaling-stroke; fill: none; stroke: rgb(0, 0, 0); stroke-opacity: 1; stroke-width: 0.5px; opacity: 1;"/></g><g class="points"/><g class="text"/></g><g class="trace scatter trace24037b" style="stroke-miterlimit: 2;"><g class="fills"/><g class="errorbars"/><g class="lines"><path class="js-line" d="M0,68.39L8.46,76.8L16.92,75.07L25.38,65.7L33.85,71.73L42.31,65.8L50.77,52.2L59.23,48.94L67.69,46.9L76.15,40.32L84.62,37.78L93.08,34.94L101.54,35.01L110,31.14L118.46,23.17L126.92,25.85L135.38,25.21L143.85,23.38L152.31,18.42L160.77,20.55L169.23,24.86L186.15,24.93L194.62,28.27L203.08,27.67L211.54,29.41L228.46,29.84L236.92,28.14L245.38,31.83L253.85,29.63L262.31,27.91L270.77,30.53L279.23,30.01L287.69,31.48L296.15,28.34L304.62,30.49L313.08,27.59L321.54,30.89L330,29.65L338.46,29.36L346.92,32.25L355.38,32.11L363.85,35.79L372.31,38.56L380.77,39.67L389.23,47.32L397.69,48.09L406.15,52.82L414.62,56.23L423.08,62.09L431.54,63.89L440,77.61" style="vector-effect: non-scaling-stroke; fill: none; stroke: rgb(0, 0, 0); stroke-opacity: 1; stroke-width: 0.25px; opacity: 1;"/></g><g class="points"/><g class="text"/></g><g class="trace scatter trace17f2dd" style="stroke-miterlimit: 2; opacity: 1;"><g class="fills"/><g class="errorbars"/><g class="lines"/><g class="points"><path class="point" transform="translate(220,29.76)" d="M4,0A4,4 0 1,1 0,-4A4,4 0 0,1 4,0ZM0,0.5L0.5,0L0,-0.5L-0.5,0Z" style="opacity: 1; stroke: rgb(0, 0, 0); stroke-opacity: 1; stroke-width: 1px; fill: none;"/><path class="point" transform="translate(228.46,37.2)" d="M4,0A4,4 0 1,1 0,-4A4,4 0 0,1 4,0ZM0,0.5L0.5,0L0,-0.5L-0.5,0Z" style="opacity: 1; stroke: rgb(0, 0, 0); stroke-opacity: 1; stroke-width: 1px; fill: none;"/><path class="point" transform="translate(236.92,37.2)" d="M4,0A4,4 0 1,1 0,-4A4,4 0 0,1 4,0ZM0,0.5L0.5,0L0,-0.5L-0.5,0Z" style="opacity: 1; stroke: rgb(0, 0, 0); stroke-opacity: 1; stroke-width: 1px; fill: none;"/><path class="point" transform="translate(245.38,37.2)" d="M4,0A4,4 0 1,1 0,-4A4,4 0 0,1 4,0ZM0,0.5L0.5,0L0,-0.5L-0.5,0Z" style="opacity: 1; stroke: rgb(0, 0, 0); stroke-opacity: 1; stroke-width: 1px; fill: none;"/></g><g class="text"/></g></g></g><g class="overplot"/><path class="xlines-above crisp" d="M0,0" style="fill: none;"/><path class="ylines-above crisp" d="M0,0" style="fill: none;"/><g class="overlines-above"/><g class="xaxislayer-above"><g class="x3tick"><text text-anchor="middle" x="0" y="733" transform="translate(156.15,0)" style="font-family: 'Open Sans', verdana, arial, sans-serif; font-size: 12px; fill: rgb(42, 63, 95); fill-opacity: 1; white-space: pre; opacity: 1;">10</text></g><g class="x3tick"><text text-anchor="middle" x="0" y="733" style="font-family: 'Open Sans', verdana, arial, sans-serif; font-size: 12px; fill: rgb(42, 63, 95); fill-opacity: 1; white-space: pre; opacity: 1;" transform="translate(240.77,0)">20</text></g><g class="x3tick"><text text-anchor="middle" x="0" y="733" style="font-family: 'Open Sans', verdana, arial, sans-serif; font-size: 12px; fill: rgb(42, 63, 95); fill-opacity: 1; white-space: pre; opacity: 1;" transform="translate(325.38,0)">30</text></g><g class="x3tick"><text text-anchor="middle" x="0" y="733" style="font-family: 'Open Sans', verdana, arial, sans-serif; font-size: 12px; fill: rgb(42, 63, 95); fill-opacity: 1; white-space: pre; opacity: 1;" transform="translate(410,0)">40</text></g><g class="x3tick"><text text-anchor="middle" x="0" y="733" style="font-family: 'Open Sans', verdana, arial, sans-serif; font-size: 12px; fill: rgb(42, 63, 95); fill-opacity: 1; white-space: pre; opacity: 1;" transform="translate(494.62,0)">50</text></g></g><g class="yaxislayer-above"><g class="y3tick"><text text-anchor="end" x="79" y="4.199999999999999" transform="translate(0,720)" style="font-family: 'Open Sans', verdana, arial, sans-serif; font-size: 12px; fill: rgb(42, 63, 95); fill-opacity: 1; white-space: pre; opacity: 1;">5</text></g><g class="y3tick"><text text-anchor="end" x="79" y="4.199999999999999" style="font-family: 'Open Sans', verdana, arial, sans-serif; font-size: 12px; fill: rgb(42, 63, 95); fill-opacity: 1; white-space: pre; opacity: 1;" transform="translate(0,682.8)">10</text></g><g class="y3tick"><text text-anchor="end" x="79" y="4.199999999999999" style="font-family: 'Open Sans', verdana, arial, sans-serif; font-size: 12px; fill: rgb(42, 63, 95); fill-opacity: 1; white-space: pre; opacity: 1;" transform="translate(0,645.6)">15</text></g><g class="y3tick"><text text-anchor="end" x="79" y="4.199999999999999" style="font-family: 'Open Sans', verdana, arial, sans-serif; font-size: 12px; fill: rgb(42, 63, 95); fill-opacity: 1; white-space: pre; opacity: 1;" transform="translate(0,608.4)">20</text></g><g class="y3tick"><text text-anchor="end" x="79" y="4.199999999999999" style="font-family: 'Open Sans', verdana, arial, sans-serif; font-size: 12px; fill: rgb(42, 63, 95); fill-opacity: 1; white-space: pre; opacity: 1;" transform="translate(0,571.2)">25</text></g><g class="y3tick"><text text-anchor="end" x="79" y="4.199999999999999" style="font-family: 'Open Sans', verdana, arial, sans-serif; font-size: 12px; fill: rgb(42, 63, 95); fill-opacity: 1; white-space: pre; opacity: 1;" transform="translate(0,534)">30</text></g></g><g class="overaxes-above"/></g></g><g class="polarlayer"/><g class="smithlayer"/><g class="ternarylayer"/><g class="geolayer"/><g class="funnelarealayer"/><g class="pielayer"/><g class="iciclelayer"/><g class="treemaplayer"/><g class="sunburstlayer"/><g class="glimages"/><defs id="topdefs-4f17d3"><g class="clips"/></defs><g class="layer-above"><g class="imagelayer"/><g class="shapelayer"/></g><g class="infolayer"><g class="g-gtitle"><text class="gtitle" x="30" y="50" text-anchor="start" dy="0em" style="font-family: 'Open Sans', verdana, arial, sans-serif; font-size: 17px; fill: rgb(42, 63, 95); opacity: 1; font-weight: normal; white-space: pre;">Climatology and S2S forecast for Coxsbazar</text></g><g class="g-xtitle"/><g class="g-x2title"/><g class="g-x3title"/><g class="g-ytitle"><text class="ytitle" transform="rotate(-90,34.16875,193)" x="34.16875" y="193" text-anchor="middle" style="font-family: 'Open Sans', verdana, arial, sans-serif; font-size: 14px; fill: rgb(42, 63, 95); opacity: 1; font-weight: normal; white-space: pre;">[mm]</text></g><g class="g-y2title"><text class="y2title" transform="rotate(-90,40.840625,410.00000000000006)" x="40.840625" y="410.00000000000006" text-anchor="middle" style="font-family: 'Open Sans', verdana, arial, sans-serif; font-size: 14px; fill: rgb(42, 63, 95); opacity: 1; font-weight: normal; white-space: pre;">[C]</text></g><g class="g-y3title"><text class="y3title" transform="rotate(-90,40.840625,627)" x="40.840625" y="627" text-anchor="middle" style="font-family: 'Open Sans', verdana, arial, sans-serif; font-size: 14px; fill: rgb(42, 63, 95); opacity: 1; font-weight: normal; white-space: pre;">[C]</text></g><g class="annotation" data-index="0" style="opacity: 1;"><g class="annotation-text-g" transform="rotate(0,300,89.5)"><g class="cursor-pointer" transform="translate(237,79)"><rect class="bg" x="0.5" y="0.5" width="126" height="20" style="stroke-width: 1px; stroke: rgb(0, 0, 0); stroke-opacity: 0; fill: rgb(0, 0, 0); fill-opacity: 0;"/><text class="annotation-text" text-anchor="middle" x="63.359375" y="16" style="font-family: 'Open Sans', verdana, arial, sans-serif; font-size: 16px; fill: rgb(42, 63, 95); fill-opacity: 1; white-space: pre;">Precipitation sum</text></g></g></g><g class="annotation" data-index="1" style="opacity: 1;"><g class="annotation-text-g" transform="rotate(0,300,306.50000000000006)"><g class="cursor-pointer" transform="translate(196,296)"><rect class="bg" x="0.5" y="0.5" width="208" height="20" style="stroke-width: 1px; stroke: rgb(0, 0, 0); stroke-opacity: 0; fill: rgb(0, 0, 0); fill-opacity: 0;"/><text class="annotation-text" text-anchor="middle" x="104.265625" y="16" style="font-family: 'Open Sans', verdana, arial, sans-serif; font-size: 16px; fill: rgb(42, 63, 95); fill-opacity: 1; white-space: pre;">Mean maximum temperature</text></g></g></g><g class="annotation" data-index="2" style="opacity: 1;"><g class="annotation-text-g" transform="rotate(0,300,523.5)"><g class="cursor-pointer" transform="translate(198,513)"><rect class="bg" x="0.5" y="0.5" width="203" height="20" style="stroke-width: 1px; stroke: rgb(0, 0, 0); stroke-opacity: 0; fill: rgb(0, 0, 0); fill-opacity: 0;"/><text class="annotation-text" text-anchor="middle" x="102.046875" y="16" style="font-family: 'Open Sans', verdana, arial, sans-serif; font-size: 16px; fill: rgb(42, 63, 95); fill-opacity: 1; white-space: pre;">Mean minimum temperature</text></g></g></g><g class="annotation" data-index="3" style="opacity: 1;"><g class="annotation-text-g" transform="rotate(0,300,760.5)"><g class="cursor-pointer" transform="translate(277,750)"><rect class="bg" x="0.5" y="0.5" width="45" height="20" style="stroke-width: 1px; stroke: rgb(0, 0, 0); stroke-opacity: 0; fill: rgb(0, 0, 0); fill-opacity: 0;"/><text class="annotation-text" text-anchor="middle" x="22.3125" y="16" style="font-family: 'Open Sans', verdana, arial, sans-serif; font-size: 16px; fill: rgb(42, 63, 95); fill-opacity: 1; white-space: pre;">Week</text></g></g></g></g></svg>