<svg class="main-svg" xmlns="http://www.w3.org/2000/svg" xmlns:xlink="http://www.w3.org/1999/xlink" width="600" height="800" style="" viewBox="0 0 600 800"><rect x="0" y="0" width="600" height="800" style="fill: rgb(255, 255, 255); fill-opacity: 1;"/><defs id="defs-338305"><g class="clips"><clipPath id="clip338305xyplot" class="plotclip"><rect width="440" height="186.00000000000003"/></clipPath><clipPath id="clip338305x2y2plot" class="plotclip"><rect width="440" height="185.99999999999997"/></clipPath><clipPath id="clip338305x3y3plot" class="plotclip"><rect width="440" height="186"/></clipPath><clipPath class="axesclip" id="clip338305x"><rect x="80" y="0" width="440" height="800"/></clipPath><clipPath class="axesclip" id="clip338305y"><rect x="0" y="100" width="600" height="186.00000000000003"/></clipPath><clipPath class="axesclip" id="clip338305xy"><rect x="80" y="100" width="440" height="186.00000000000003"/></clipPath><clipPath class="axesclip" id="clip338305y2"><rect x="0" y="317.00000000000006" width="600" height="185.99999999999997"/></clipPath><clipPath class="axesclip" id="clip338305xy2"><rect x="80" y="317.00000000000006" width="440" height="185.99999999999997"/></clipPath><clipPath class="axesclip" id="clip338305y3"><rect x="0" y="534" width="600" height="186"/></clipPath><clipPath class="axesclip" id="clip338305xy3"><rect x="80" y="534" width="440" height="186"/></clipPath><clipPath class="axesclip" id="clip338305x2"><rect x="80" y="0" width="440" height="800"/></clipPath><clipPath class="axesclip" id="clip338305x2y"><rect x="80" y="100" width="440" height="186.00000000000003"/></clipPath><clipPath class="axesclip" id="clip338305x2y2"><rect x="80" y="317.00000000000006" width="440" height="185.99999999999997"/></clipPath><clipPath class="axesclip" id="clip338305x2y3"><rect x="80" y="534" width="440" height="186"/></clipPath><clipPath class="axesclip" id="clip338305x3"><rect x="80" y="0" width="440" height="800"/></clipPath><clipPath class="axesclip" id="clip338305x3y"><rect x="80" y="100" width="440" height="186.00000000000003"/></clipPath><clipPath class="axesclip" id="clip338305x3y2"><rect x="80" y="317.00000000000006" width="440" height="185.99999999999997"/></clipPath><clipPath class="axesclip" id="clip338305x3y3"><rect x="80" y="534" width="440" height="186"/></clipPath></g><g class="gradients"/><g class="patterns"/></defs><g class="bglayer"><rect class="bg" x="80" y="100" width="440" height="186.00000000000003" style="fill: rgb(229, 236, 246); fill-opacity: 1; stroke-width: 0;"/><rect class="bg" x="80" y="317.00000000000006" width="440" height="185.99999999999997" style="fill: rgb(229, 236, 246); fill-opacity: 1; stroke-width: 0;"/><rect class="bg" x="80" y="534" width="440" height="186" style="fill: rgb(229, 236, 246); fill-opacity: 1; stroke-width: 0;"/></g><g class="layer-below"><g class="imagelayer"/><g class="shapelayer"/></g><g class="cartesianlayer"><g class="subplot xy"><g class="layer-subplot"><g class="shapelayer"/><g class="imagelayer"/></g><g class="minor-gridlayer"><g class="x"/><g class="y"/></g><g class="gridlayer"><g class="x"><path class="xgrid crisp" transform="translate(156.15,0)" d="M0,100v186.00000000000003" style="stroke: rgb(255, 255, 255); stroke-opacity: 1; stroke-width: 1px;"/><path class="xgrid crisp" transform="translate(240.77,0)" d="M0,100v186.00000000000003" style="stroke: rgb(255, 255, 255); stroke-opacity: 1; stroke-width: 1px;"/><path class="xgrid crisp" transform="translate(325.38,0)" d="M0,100v186.00000000000003" style="stroke: rgb(255, 255, 255); stroke-opacity: 1; stroke-width: 1px;"/><path class="xgrid crisp" transform="translate(410,0)" d="M0,100v186.00000000000003" style="stroke: rgb(255, 255, 255); stroke-opacity: 1; stroke-width: 1px;"/><path class="xgrid crisp" transform="translate(494.62,0)" d="M0,100v186.00000000000003" style="stroke: rgb(255, 255, 255); stroke-opacity: 1; stroke-width: 1px;"/></g><g class="y"><path class="ygrid crisp" transform="translate(0,248.8)" d="M80,0h440" style="stroke: rgb(255, 255, 255); stroke-opacity: 1; stroke-width: 1px;"/><path class="ygrid crisp" transform="translate(0,211.6)" d="M80,0h440" style="stroke: rgb(255, 255, 255); stroke-opacity: 1; stroke-width: 1px;"/><path class="ygrid crisp" transform="translate(0,174.4)" d="M80,0h440" style="stroke: rgb(255, 255, 255); stroke-opacity: 1; stroke-width: 1px;"/><path class="ygrid crisp" transform="translate(0,137.2)" d="M80,0h440" style="stroke: rgb(255, 255, 255); stroke-opacity: 1; stroke-width: 1px;"/></g></g><g class="zerolinelayer"><path class="yzl zl crisp" transform="translate(0,286)" d="M80,0h440" style="stroke: rgb(255, 255, 255); stroke-opacity: 1; stroke-width: 2px;"/></g><path class="xlines-below"/><path class="ylines-below"/><g class="overlines-below"/><g class="xaxislayer-below"/><g class="yaxislayer-below"/><g class="overaxes-below"/><g class="plot" transform="translate(80,100)" clip-path="url(#clip338305xyplot)"><g class="scatterlayer mlayer"><g class="trace scatter trace9b761c" style="stroke-miterlimit: 2;"><g class="fills"><g><path class="js-fill" d="M0,186L135.38,185.26L143.85,174.66L152.31,184.33L160.77,178.57L169.23,176.88L177.69,167.02L186.15,160.88L194.62,163.67L203.08,158.47L211.54,142.1L220,153.26L228.46,145.46L236.92,156.98L245.38,149.51L253.85,152.9L262.31,148.43L270.77,153.45L279.23,167.96L287.69,164.8L296.15,170L304.62,169.63L313.08,174.66L321.54,160.7L330,182.65L338.46,171.88L346.92,186L440,186L440,186L330,186L321.54,185.99L313.08,182.28L304.62,183.77L296.15,178.56L287.69,180.79L279.23,177.08L270.77,176.32L262.31,178.56L253.85,178.56L245.38,171.86L236.92,181.53L228.46,173.23L220,175.59L211.54,177.07L203.08,186L194.62,184.51L186.15,186L0,186Z" style="fill: rgb(224, 236, 244); fill-opacity: 1; stroke-width: 0;"/></g></g><g class="errorbars"/><g class="lines"><path class="js-line" d="M0,186L186.15,186L194.62,184.51L203.08,186L211.54,177.07L220,175.59L228.46,173.23L236.92,181.53L245.38,171.86L253.85,178.56L262.31,178.56L270.77,176.32L279.23,177.08L287.69,180.79L296.15,178.56L304.62,183.77L313.08,182.28L321.54,185.99L330,186L440,186" style="vector-effect: non-scaling-stroke; fill: none; stroke: rgb(0, 0, 0); stroke-opacity: 1; stroke-width: 0.25px; opacity: 1;"/></g><g class="points"/><g class="text"/></g><g class="trace scatter trace64abc4" style="stroke-miterlimit: 2;"><g class="fills"><g><path class="js-fill" d="M0,186L101.54,186L110,179.3L118.46,184.89L126.92,183.4L135.38,176.69L143.85,164.05L152.31,172.98L160.77,156.98L169.23,157.36L177.69,144.34L186.15,120.86L194.62,139.88L203.08,117.18L211.54,120.16L220,130.2L228.46,128.71L236.92,125.78L245.38,124.62L253.85,139.13L262.31,113.46L270.77,119.39L279.23,148.81L287.69,145.82L296.15,137.62L304.62,149.54L313.08,157.22L321.54,148.45L330,171.86L338.46,155.49L346.92,182.28L363.85,186L372.31,186L440,186L440,186L346.92,186L338.46,171.88L330,182.65L321.54,160.7L313.08,174.66L304.62,169.63L296.15,170L287.69,164.8L279.23,167.96L270.77,153.45L262.31,148.43L253.85,152.9L245.38,149.51L236.92,156.98L228.46,145.46L220,153.26L211.54,142.1L203.08,158.47L194.62,163.67L186.15,160.88L177.69,167.02L169.23,176.88L160.77,178.57L152.31,184.33L143.85,174.66L135.38,185.26L0,186Z" style="fill: rgb(158, 188, 218); fill-opacity: 1; stroke-width: 0;"/></g></g><g class="errorbars"/><g class="lines"><path class="js-line" d="M0,186L135.38,185.26L143.85,174.66L152.31,184.33L160.77,178.57L169.23,176.88L177.69,167.02L186.15,160.88L194.62,163.67L203.08,158.47L211.54,142.1L220,153.26L228.46,145.46L236.92,156.98L245.38,149.51L253.85,152.9L262.31,148.43L270.77,153.45L279.23,167.96L287.69,164.8L296.15,170L304.62,169.63L313.08,174.66L321.54,160.7L330,182.65L338.46,171.88L346.92,186L440,186" style="vector-effect: non-scaling-stroke; fill: none; stroke: rgb(0, 0, 0); stroke-opacity: 1; stroke-width: 0.5px; opacity: 1;"/></g><g class="points"/><g class="text"/></g><g class="trace scatter trace1f24fe" style="stroke-miterlimit: 2;"><g class="fills"><g><path class="js-fill" d="M0,186L42.31,185.44L50.77,184.51L59.23,186L67.69,184.14L76.15,184.51L84.62,181.16L93.08,184.68L101.54,183.77L110,159.96L118.46,172.23L126.92,165.91L135.38,157.36L143.85,132.79L152.31,154.75L160.77,131.33L169.23,112.9L177.69,114.42L186.15,95.61L194.62,115.95L203.08,86.29L211.54,63.8L220,78.68L228.46,70.11L236.92,97.65L245.38,89.84L253.85,110.85L270.77,82.96L279.23,128.17L287.69,130.2L296.15,126.67L304.62,121.83L313.08,126.67L321.54,120.16L330,142.1L338.46,128.16L346.92,168.87L355.38,158.66L363.85,180.98L372.31,184.31L380.77,184.91L389.23,186L397.69,186L440,186L440,186L372.31,186L363.85,186L346.92,182.28L338.46,155.49L330,171.86L321.54,148.45L313.08,157.22L304.62,149.54L296.15,137.62L287.69,145.82L279.23,148.81L270.77,119.39L262.31,113.46L253.85,139.13L245.38,124.62L236.92,125.78L228.46,128.71L220,130.2L211.54,120.16L203.08,117.18L194.62,139.88L186.15,120.86L177.69,144.34L169.23,157.36L160.77,156.98L152.31,172.98L143.85,164.05L135.38,176.69L126.92,183.4L118.46,184.89L110,179.3L101.54,186L0,186Z" style="fill: rgb(158, 188, 218); fill-opacity: 1; stroke-width: 0;"/></g></g><g class="errorbars"/><g class="lines"><path class="js-line" d="M0,186L101.54,186L110,179.3L118.46,184.89L126.92,183.4L135.38,176.69L143.85,164.05L152.31,172.98L160.77,156.98L169.23,157.36L177.69,144.34L186.15,120.86L194.62,139.88L203.08,117.18L211.54,120.16L220,130.2L228.46,128.71L236.92,125.78L245.38,124.62L253.85,139.13L262.31,113.46L270.77,119.39L279.23,148.81L287.69,145.82L296.15,137.62L304.62,149.54L313.08,157.22L321.54,148.45L330,171.86L338.46,155.49L346.92,182.28L363.85,186L372.31,186L440,186" style="vector-effect: non-scaling-stroke; fill: none; stroke: rgb(0, 0, 0); stroke-opacity: 1; stroke-width: 1px; opacity: 1;"/></g><g class="points"/><g class="text"/></g><g class="trace scatter tracea7ef4b" style="stroke-miterlimit: 2;"><g class="fills"><g><path class="js-fill" d="M0,186L42.31,185.26L50.77,182.28L59.23,186L67.69,183.03L76.15,184.51L84.62,174.99L93.08,183.98L101.54,182.28L110,139.87L118.46,152.52L126.92,154.75L135.38,124.98L143.85,95.23L152.31,151.78L160.77,90.77L169.23,62.52L177.69,43.46L186.15,19.36L194.62,93.81L203.08,-2.19L211.54,0L220,31.99L228.46,-17.12L236.92,25.3L245.38,6.73L253.85,66.22L262.31,45.52L270.77,-6.69L279.23,81.11L287.69,107.14L296.15,86.3L304.62,78.86L313.08,100.43L321.54,67.7L330,117.56L338.46,100.44L346.92,159.22L355.38,136.89L363.85,176.33L372.31,183.77L397.69,186L406.15,186L440,186L440,186L397.69,186L389.23,186L380.77,184.91L372.31,184.31L363.85,180.98L355.38,158.66L346.92,168.87L338.46,128.16L330,142.1L321.54,120.16L313.08,126.67L304.62,121.83L296.15,126.67L287.69,130.2L279.23,128.17L270.77,82.96L253.85,110.85L245.38,89.84L236.92,97.65L228.46,70.11L220,78.68L211.54,63.8L203.08,86.29L194.62,115.95L186.15,95.61L177.69,114.42L169.23,112.9L160.77,131.33L152.31,154.75L143.85,132.79L135.38,157.36L126.92,165.91L118.46,172.23L110,159.96L101.54,183.77L93.08,184.68L84.62,181.16L76.15,184.51L67.69,184.14L59.23,186L50.77,184.51L42.31,185.44L0,186Z" style="fill: rgb(136, 86, 167); fill-opacity: 1; stroke-width: 0;"/></g></g><g class="errorbars"/><g class="lines"><path class="js-line" d="M0,186L42.31,185.44L50.77,184.51L59.23,186L67.69,184.14L76.15,184.51L84.62,181.16L93.08,184.68L101.54,183.77L110,159.96L118.46,172.23L126.92,165.91L135.38,157.36L143.85,132.79L152.31,154.75L160.77,131.33L169.23,112.9L177.69,114.42L186.15,95.61L194.62,115.95L203.08,86.29L211.54,63.8L220,78.68L228.46,70.11L236.92,97.65L245.38,89.84L253.85,110.85L270.77,82.96L279.23,128.17L287.69,130.2L296.15,126.67L304.62,121.83L313.08,126.67L321.54,120.16L330,142.1L338.46,128.16L346.92,168.87L355.38,158.66L363.85,180.98L372.31,184.31L380.77,184.91L389.23,186L397.69,186L440,186" style="vector-effect: non-scaling-stroke; fill: none; stroke: rgb(0, 0, 0); stroke-opacity: 1; stroke-width: 0.5px; opacity: 1;"/></g><g class="points"/><g class="text"/></g><g class="trace scatter trace421ff4" style="stroke-miterlimit: 2;"><g class="fills"/><g class="errorbars"/><g class="lines"><path class="js-line" d="M0,186L42.31,185.26L50.77,182.28L59.23,186L67.69,183.03L76.15,184.51L84.62,174.99L93.08,183.98L101.54,182.28L110,139.87L118.46,152.52L126.92,154.75L135.38,124.98L143.85,95.23L152.31,151.78L160.77,90.77L169.23,62.52L177.69,43.46L186.15,19.36L194.62,93.81L203.08,-2.19L211.54,0L220,31.99L228.46,-17.12L236.92,25.3L245.38,6.73L253.85,66.22L262.31,45.52L270.77,-6.69L279.23,81.11L287.69,107.14L296.15,86.3L304.62,78.86L313.08,100.43L321.54,67.7L330,117.56L338.46,100.44L346.92,159.22L355.38,136.89L363.85,176.33L372.31,183.77L397.69,186L406.15,186L440,186" style="vector-effect: non-scaling-stroke; fill: none; stroke: rgb(0, 0, 0); stroke-opacity: 1; stroke-width: 0.25px; opacity: 1;"/></g><g class="points"/><g class="text"/></g><g class="trace scatter trace1a59c5" style="stroke-miterlimit: 2; opacity: 1;"><g class="fills"/><g class="errorbars"/><g class="lines"/><g class="points"><path class="point" transform="translate(169.23,138.38)" d="M4,0A4,4 0 1,1 0,-4A4,4 0 0,1 4,0ZM0,0.5L0.5,0L0,-0.5L-0.5,0Z" style="opacity: 1; stroke: rgb(0, 0, 0); stroke-opacity: 1; stroke-width: 1px; fill: none;"/><path class="point" transform="translate(177.69,145.82)" d="M4,0A4,4 0 1,1 0,-4A4,4 0 0,1 4,0ZM0,0.5L0.5,0L0,-0.5L-0.5,0Z" style="opacity: 1; stroke: rgb(0, 0, 0); stroke-opacity: 1; stroke-width: 1px; fill: none;"/><path class="point" transform="translate(186.15,55.06)" d="M4,0A4,4 0 1,1 0,-4A4,4 0 0,1 4,0ZM0,0.5L0.5,0L0,-0.5L-0.5,0Z" style="opacity: 1; stroke: rgb(0, 0, 0); stroke-opacity: 1; stroke-width: 1px; fill: none;"/><path class="point" transform="translate(194.62,55.06)" d="M4,0A4,4 0 1,1 0,-4A4,4 0 0,1 4,0ZM0,0.5L0.5,0L0,-0.5L-0.5,0Z" style="opacity: 1; stroke: rgb(0, 0, 0); stroke-opacity: 1; stroke-width: 1px; fill: none;"/></g><g class="text"/></g></g></g><g class="overplot"/><path class="xlines-above crisp" d="M0,0" style="fill: none;"/><path class="ylines-above crisp" d="M0,0" style="fill: none;"/><g class="overlines-above"/><g class="xaxislayer-above"/><g class="yaxislayer-above"><g class="ytick"><text text-anchor="end" x="79" y="4.199999999999999" transform="translate(0,286)" style="font-family: 'Open Sans', verdana, arial, sans-serif; font-size: 12px; fill: rgb(42, 63, 95); fill-opacity: 1; white-space: pre; opacity: 1;">0</text></g><g class="ytick"><text text-anchor="end" x="79" y="4.199999999999999" style="font-family: 'Open Sans', verdana, arial, sans-serif; font-size: 12px; fill: rgb(42, 63, 95); fill-opacity: 1; white-space: pre; opacity: 1;" transform="translate(0,248.8)">50</text></g><g class="ytick"><text text-anchor="end" x="79" y="4.199999999999999" style="font-family: 'Open Sans', verdana, arial, sans-serif; font-size: 12px; fill: rgb(42, 63, 95); fill-opacity: 1; white-space: pre; opacity: 1;" transform="translate(0,211.6)">100</text></g><g class="ytick"><text text-anchor="end" x="79" y="4.199999999999999" style="font-family: 'Open Sans', verdana, arial, sans-serif; font-size: 12px; fill: rgb(42, 63, 95); fill-opacity: 1; white-space: pre; opacity: 1;" transform="translate(0,174.4)">150</text></g><g class="ytick"><text text-anchor="end" x="79" y="4.199999999999999" style="font-family: 'Open Sans', verdana, arial, sans-serif; font-size: 12px; fill: rgb(42, 63, 95); fill-opacity: 1; white-space: pre; opacity: 1;" transform="translate(0,137.2)">200</text></g><g class="ytick"><text text-anchor="end" x="79" y="4.199999999999999" style="font-family: 'Open Sans', verdana, arial, sans-serif; font-size: 12px; fill: rgb(42, 63, 95); fill-opacity: 1; white-space: pre; opacity: 1;" transform="translate(0,100)">250</text></g></g><g class="overaxes-above"/></g><g class="subplot x2y2"><g class="layer-subplot"><g class="shapelayer"/><g class="imagelayer"/></g><g class="minor-gridlayer"><g class="x2"/><g class="y2"/></g><g class="gridlayer"><g class="x2"><path class="x2grid crisp" transform="translate(156.15,0)" d="M0,317.00000000000006v185.99999999999997" style="stroke: rgb(255, 255, 255); stroke-opacity: 1; stroke-width: 1px;"/><path class="x2grid crisp" transform="translate(240.77,0)" d="M0,317.00000000000006v185.99999999999997" style="stroke: rgb(255, 255, 255); stroke-opacity: 1; stroke-width: 1px;"/><path class="x2grid crisp" transform="translate(325.38,0)" d="M0,317.00000000000006v185.99999999999997" style="stroke: rgb(255, 255, 255); stroke-opacity: 1; stroke-width: 1px;"/><path class="x2grid crisp" transform="translate(410,0)" d="M0,317.00000000000006v185.99999999999997" style="stroke: rgb(255, 255, 255); stroke-opacity: 1; stroke-width: 1px;"/><path class="x2grid crisp" transform="translate(494.62,0)" d="M0,317.00000000000006v185.99999999999997" style="stroke: rgb(255, 255, 255); stroke-opacity: 1; stroke-width: 1px;"/></g><g class="y2"><path class="y2grid crisp" transform="translate(0,472.00000000000006)" d="M80,0h440" style="stroke: rgb(255, 255, 255); stroke-opacity: 1; stroke-width: 1px;"/><path class="y2grid crisp" transform="translate(0,410.00000000000006)" d="M80,0h440" style="stroke: rgb(255, 255, 255); stroke-opacity: 1; stroke-width: 1px;"/><path class="y2grid crisp" transform="translate(0,348.00000000000006)" d="M80,0h440" style="stroke: rgb(255, 255, 255); stroke-opacity: 1; stroke-width: 1px;"/></g></g><g class="zerolinelayer"/><path class="xlines-below"/><path class="ylines-below"/><g class="overlines-below"/><g class="xaxislayer-below"/><g class="yaxislayer-below"/><g class="overaxes-below"/><g class="plot" transform="translate(80,317.00000000000006)" clip-path="url(#clip338305x2y2plot)"><g class="scatterlayer mlayer"><g class="trace scatter trace33c694" style="stroke-miterlimit: 2;"><g class="fills"><g><path class="js-fill" d="M0,139.89L8.46,142.02L16.92,131.93L25.38,127.01L33.85,119.36L50.77,102.61L59.23,94.24L67.69,88.7L76.15,87.22L84.62,75.93L93.08,75.09L110,86.09L118.46,78.19L126.92,83.71L135.38,85.14L143.85,87.33L152.31,81.45L160.77,87.95L169.23,86.42L177.69,89.72L186.15,95.46L194.62,98.23L203.08,98.19L211.54,101.3L220,99.69L228.46,98.88L236.92,102.32L253.85,99.51L262.31,102.23L270.77,102.03L279.23,100.93L287.69,98.16L296.15,98.56L304.62,98.25L313.08,101.66L321.54,97.72L330,97.61L338.46,98.54L346.92,95.65L355.38,92.11L363.85,91.75L372.31,96.4L380.77,98.67L389.23,104.96L397.69,113.37L406.15,123.45L414.62,125.24L423.08,134.14L431.54,137.54L440,141.99L440,146.07L431.54,144.1L423.08,151.81L414.62,134.9L406.15,138.7L397.69,122.85L389.23,109.03L380.77,103.63L372.31,99.82L363.85,98.14L355.38,102.92L346.92,106.2L338.46,107.17L321.54,106.46L313.08,112.13L304.62,110.45L296.15,110.01L287.69,101.24L279.23,106.64L270.77,107.97L262.31,109.48L253.85,109.21L245.38,105.05L236.92,107.53L228.46,102.92L220,105.67L211.54,105.93L203.08,103.45L194.62,111.42L186.15,102.83L177.69,95.21L169.23,98.05L160.77,98.49L152.31,94.68L143.85,95.66L135.38,100.26L126.92,93.09L118.46,95.66L110,91.76L101.54,94.83L93.08,91.85L84.62,87.6L76.15,100.97L67.69,103.28L59.23,103.98L50.77,119.48L42.31,125.15L33.85,128.78L25.38,130.2L16.92,143.13L8.46,156.95L0,156.09Z" style="fill: rgb(145, 191, 219); fill-opacity: 1; stroke-width: 0;"/></g></g><g class="errorbars"/><g class="lines"><path class="js-line" d="M0,156.09L8.46,156.95L16.92,143.13L25.38,130.2L33.85,128.78L42.31,125.15L50.77,119.48L59.23,103.98L67.69,103.28L76.15,100.97L84.62,87.6L93.08,91.85L101.54,94.83L110,91.76L118.46,95.66L126.92,93.09L135.38,100.26L143.85,95.66L152.31,94.68L160.77,98.49L169.23,98.05L177.69,95.21L186.15,102.83L194.62,111.42L203.08,103.45L211.54,105.93L220,105.67L228.46,102.92L236.92,107.53L245.38,105.05L253.85,109.21L262.31,109.48L270.77,107.97L279.23,106.64L287.69,101.24L296.15,110.01L304.62,110.45L313.08,112.13L321.54,106.46L338.46,107.17L346.92,106.2L355.38,102.92L363.85,98.14L372.31,99.82L380.77,103.63L389.23,109.03L397.69,122.85L406.15,138.7L414.62,134.9L423.08,151.81L431.54,144.1L440,146.07" style="vector-effect: non-scaling-stroke; fill: none; stroke: rgb(0, 0, 0); stroke-opacity: 1; stroke-width: 0.25px; opacity: 1;"/></g><g class="points"/><g class="text"/></g><g class="trace scatter traceedbfad" style="stroke-miterlimit: 2;"><g class="fills"><g><path class="js-fill" d="M0,133.34L8.46,135.15L16.92,124.98L25.38,120.23L33.85,112.93L50.77,95.2L59.23,89.52L67.69,78.56L76.15,76.19L84.62,68.04L93.08,61.6L110,76.37L118.46,71.62L126.92,77.23L135.38,80.82L143.85,82.57L152.31,77.06L160.77,81.62L169.23,82.46L177.69,84.05L186.15,91.38L194.62,91L203.08,93.04L211.54,94.95L220,95.54L228.46,96.41L236.92,99.64L245.38,94.22L253.85,97.61L279.23,95.37L287.69,96.81L296.15,95.96L304.62,92.56L313.08,96.1L321.54,89.06L338.46,91.85L346.92,88.66L355.38,84.41L363.85,89.48L380.77,96.2L389.23,101.59L397.69,106.85L406.15,115.5L414.62,120.86L423.08,124.35L431.54,132.07L440,130.97L440,141.99L431.54,137.54L423.08,134.14L414.62,125.24L406.15,123.45L397.69,113.37L389.23,104.96L380.77,98.67L372.31,96.4L363.85,91.75L355.38,92.11L346.92,95.65L338.46,98.54L330,97.61L321.54,97.72L313.08,101.66L304.62,98.25L296.15,98.56L287.69,98.16L279.23,100.93L270.77,102.03L262.31,102.23L253.85,99.51L236.92,102.32L228.46,98.88L220,99.69L211.54,101.3L203.08,98.19L194.62,98.23L186.15,95.46L177.69,89.72L169.23,86.42L160.77,87.95L152.31,81.45L143.85,87.33L135.38,85.14L126.92,83.71L118.46,78.19L110,86.09L93.08,75.09L84.62,75.93L76.15,87.22L67.69,88.7L59.23,94.24L50.77,102.61L33.85,119.36L25.38,127.01L16.92,131.93L8.46,142.02L0,139.89Z" style="fill: rgb(255, 255, 191); fill-opacity: 1; stroke-width: 0;"/></g></g><g class="errorbars"/><g class="lines"><path class="js-line" d="M0,139.89L8.46,142.02L16.92,131.93L25.38,127.01L33.85,119.36L50.77,102.61L59.23,94.24L67.69,88.7L76.15,87.22L84.62,75.93L93.08,75.09L110,86.09L118.46,78.19L126.92,83.71L135.38,85.14L143.85,87.33L152.31,81.45L160.77,87.95L169.23,86.42L177.69,89.72L186.15,95.46L194.62,98.23L203.08,98.19L211.54,101.3L220,99.69L228.46,98.88L236.92,102.32L253.85,99.51L262.31,102.23L270.77,102.03L279.23,100.93L287.69,98.16L296.15,98.56L304.62,98.25L313.08,101.66L321.54,97.72L330,97.61L338.46,98.54L346.92,95.65L355.38,92.11L363.85,91.75L372.31,96.4L380.77,98.67L389.23,104.96L397.69,113.37L406.15,123.45L414.62,125.24L423.08,134.14L431.54,137.54L440,141.99" style="vector-effect: non-scaling-stroke; fill: none; stroke: rgb(0, 0, 0); stroke-opacity: 1; stroke-width: 0.5px; opacity: 1;"/></g><g class="points"/><g class="text"/></g><g class="trace scatter trace3f4f4a" style="stroke-miterlimit: 2;"><g class="fills"><g><path class="js-fill" d="M0,127.41L8.46,126.92L16.92,119.68L25.38,115.83L33.85,109.5L42.31,97.98L50.77,89.81L59.23,84.98L67.69,72.47L76.15,68.27L84.62,62L93.08,58.88L101.54,60.78L110,64.04L118.46,65.48L126.92,66.1L135.38,61.73L143.85,71.73L152.31,71.81L160.77,74.03L169.23,75.4L177.69,78.25L186.15,83.48L203.08,89.29L211.54,89.41L220,87.93L228.46,89.79L236.92,91.72L245.38,87.65L253.85,92.81L262.31,88.66L270.77,94.02L279.23,92.53L287.69,94.09L296.15,89.63L304.62,88.19L313.08,90.5L330,82.22L338.46,84.3L346.92,81.4L355.38,80.68L363.85,83.06L372.31,89.28L380.77,93.62L389.23,96.99L397.69,101.57L406.15,110.63L414.62,113.69L423.08,118.58L431.54,122.54L440,118.72L440,130.97L431.54,132.07L423.08,124.35L414.62,120.86L406.15,115.5L397.69,106.85L389.23,101.59L380.77,96.2L363.85,89.48L355.38,84.41L346.92,88.66L338.46,91.85L321.54,89.06L313.08,96.1L304.62,92.56L296.15,95.96L287.69,96.81L279.23,95.37L253.85,97.61L245.38,94.22L236.92,99.64L228.46,96.41L220,95.54L211.54,94.95L203.08,93.04L194.62,91L186.15,91.38L177.69,84.05L169.23,82.46L160.77,81.62L152.31,77.06L143.85,82.57L135.38,80.82L126.92,77.23L118.46,71.62L110,76.37L93.08,61.6L84.62,68.04L76.15,76.19L67.69,78.56L59.23,89.52L50.77,95.2L33.85,112.93L25.38,120.23L16.92,124.98L8.46,135.15L0,133.34Z" style="fill: rgb(255, 255, 191); fill-opacity: 1; stroke-width: 0;"/></g></g><g class="errorbars"/><g class="lines"><path class="js-line" d="M0,133.34L8.46,135.15L16.92,124.98L25.38,120.23L33.85,112.93L50.77,95.2L59.23,89.52L67.69,78.56L76.15,76.19L84.62,68.04L93.08,61.6L110,76.37L118.46,71.62L126.92,77.23L135.38,80.82L143.85,82.57L152.31,77.06L160.77,81.62L169.23,82.46L177.69,84.05L186.15,91.38L194.62,91L203.08,93.04L211.54,94.95L220,95.54L228.46,96.41L236.92,99.64L245.38,94.22L253.85,97.61L279.23,95.37L287.69,96.81L296.15,95.96L304.62,92.56L313.08,96.1L321.54,89.06L338.46,91.85L346.92,88.66L355.38,84.41L363.85,89.48L380.77,96.2L389.23,101.59L397.69,106.85L406.15,115.5L414.62,120.86L423.08,124.35L431.54,132.07L440,130.97" style="vector-effect: non-scaling-stroke; fill: none; stroke: rgb(0, 0, 0); stroke-opacity: 1; stroke-width: 1px; opacity: 1;"/></g><g class="points"/><g class="text"/></g><g class="trace scatter trace7a112a" style="stroke-miterlimit: 2;"><g class="fills"><g><path class="js-fill" d="M0,111.76L8.46,112.04L16.92,109.32L25.38,111.87L33.85,101.5L42.31,82.37L50.77,85.03L59.23,73.07L67.69,64.13L76.15,57.84L84.62,48.45L93.08,54.91L101.54,51.02L118.46,55.89L126.92,53.76L135.38,33.39L143.85,65.1L152.31,59.79L160.77,59.75L169.23,66.16L177.69,62.18L194.62,76.97L203.08,81.92L211.54,73.37L220,75.14L228.46,80.74L236.92,79.43L245.38,78.21L253.85,83.26L262.31,75.25L270.77,83.02L279.23,82.9L287.69,90.12L296.15,84.5L304.62,83.08L313.08,75.52L321.54,74.39L330,67.61L338.46,70.17L346.92,65.15L355.38,76.26L363.85,76.9L372.31,83.7L389.23,90.92L397.69,90.43L406.15,97.8L414.62,106.73L423.08,111.07L431.54,109.41L440,111.35L440,118.72L431.54,122.54L423.08,118.58L414.62,113.69L406.15,110.63L397.69,101.57L389.23,96.99L380.77,93.62L372.31,89.28L363.85,83.06L355.38,80.68L346.92,81.4L338.46,84.3L330,82.22L313.08,90.5L304.62,88.19L296.15,89.63L287.69,94.09L279.23,92.53L270.77,94.02L262.31,88.66L253.85,92.81L245.38,87.65L236.92,91.72L228.46,89.79L220,87.93L211.54,89.41L203.08,89.29L186.15,83.48L177.69,78.25L169.23,75.4L160.77,74.03L152.31,71.81L143.85,71.73L135.38,61.73L126.92,66.1L118.46,65.48L110,64.04L101.54,60.78L93.08,58.88L84.62,62L76.15,68.27L67.69,72.47L59.23,84.98L50.77,89.81L42.31,97.98L33.85,109.5L25.38,115.83L16.92,119.68L8.46,126.92L0,127.41Z" style="fill: rgb(252, 141, 89); fill-opacity: 1; stroke-width: 0;"/></g></g><g class="errorbars"/><g class="lines"><path class="js-line" d="M0,127.41L8.46,126.92L16.92,119.68L25.38,115.83L33.85,109.5L42.31,97.98L50.77,89.81L59.23,84.98L67.69,72.47L76.15,68.27L84.62,62L93.08,58.88L101.54,60.78L110,64.04L118.46,65.48L126.92,66.1L135.38,61.73L143.85,71.73L152.31,71.81L160.77,74.03L169.23,75.4L177.69,78.25L186.15,83.48L203.08,89.29L211.54,89.41L220,87.93L228.46,89.79L236.92,91.72L245.38,87.65L253.85,92.81L262.31,88.66L270.77,94.02L279.23,92.53L287.69,94.09L296.15,89.63L304.62,88.19L313.08,90.5L330,82.22L338.46,84.3L346.92,81.4L355.38,80.68L363.85,83.06L372.31,89.28L380.77,93.62L389.23,96.99L397.69,101.57L406.15,110.63L414.62,113.69L423.08,118.58L431.54,122.54L440,118.72" style="vector-effect: non-scaling-stroke; fill: none; stroke: rgb(0, 0, 0); stroke-opacity: 1; stroke-width: 0.5px; opacity: 1;"/></g><g class="points"/><g class="text"/></g><g class="trace scatter tracef0ed8a" style="stroke-miterlimit: 2;"><g class="fills"/><g class="errorbars"/><g class="lines"><path class="js-line" d="M0,111.76L8.46,112.04L16.92,109.32L25.38,111.87L33.85,101.5L42.31,82.37L50.77,85.03L59.23,73.07L67.69,64.13L76.15,57.84L84.62,48.45L93.08,54.91L101.54,51.02L118.46,55.89L126.92,53.76L135.38,33.39L143.85,65.1L152.31,59.79L160.77,59.75L169.23,66.16L177.69,62.18L194.62,76.97L203.08,81.92L211.54,73.37L220,75.14L228.46,80.74L236.92,79.43L245.38,78.21L253.85,83.26L262.31,75.25L270.77,83.02L279.23,82.9L287.69,90.12L296.15,84.5L304.62,83.08L313.08,75.52L321.54,74.39L330,67.61L338.46,70.17L346.92,65.15L355.38,76.26L363.85,76.9L372.31,83.7L389.23,90.92L397.69,90.43L406.15,97.8L414.62,106.73L423.08,111.07L431.54,109.41L440,111.35" style="vector-effect: non-scaling-stroke; fill: none; stroke: rgb(0, 0, 0); stroke-opacity: 1; stroke-width: 0.25px; opacity: 1;"/></g><g class="points"/><g class="text"/></g><g class="trace scatter trace29c345" style="stroke-miterlimit: 2; opacity: 1;"><g class="fills"/><g class="errorbars"/><g class="lines"/><g class="points"><path class="point" transform="translate(169.23,86.8)" d="M4,0A4,4 0 1,1 0,-4A4,4 0 0,1 4,0ZM0,0.5L0.5,0L0,-0.5L-0.5,0Z" style="opacity: 1; stroke: rgb(0, 0, 0); stroke-opacity: 1; stroke-width: 1px; fill: none;"/><path class="point" transform="translate(177.69,86.8)" d="M4,0A4,4 0 1,1 0,-4A4,4 0 0,1 4,0ZM0,0.5L0.5,0L0,-0.5L-0.5,0Z" style="opacity: 1; stroke: rgb(0, 0, 0); stroke-opacity: 1; stroke-width: 1px; fill: none;"/><path class="point" transform="translate(186.15,80.6)" d="M4,0A4,4 0 1,1 0,-4A4,4 0 0,1 4,0ZM0,0.5L0.5,0L0,-0.5L-0.5,0Z" style="opacity: 1; stroke: rgb(0, 0, 0); stroke-opacity: 1; stroke-width: 1px; fill: none;"/><path class="point" transform="translate(194.62,80.6)" d="M4,0A4,4 0 1,1 0,-4A4,4 0 0,1 4,0ZM0,0.5L0.5,0L0,-0.5L-0.5,0Z" style="opacity: 1; stroke: rgb(0, 0, 0); stroke-opacity: 1; stroke-width: 1px; fill: none;"/></g><g class="text"/></g></g></g><g class="overplot"/><path class="xlines-above crisp" d="M0,0" style="fill: none;"/><path class="ylines-above crisp" d="M0,0" style="fill: none;"/><g class="overlines-above"/><g class="xaxislayer-above"/><g class="yaxislayer-above"><g class="y2tick"><text text-anchor="end" x="79" y="4.199999999999999" transform="translate(0,472.00000000000006)" style="font-family: 'Open Sans', verdana, arial, sans-serif; font-size: 12px; fill: rgb(42, 63, 95); fill-opacity: 1; white-space: pre; opacity: 1;">20</text></g><g class="y2tick"><text text-anchor="end" x="79" y="4.199999999999999" style="font-family: 'Open Sans', verdana, arial, sans-serif; font-size: 12px; fill: rgb(42, 63, 95); fill-opacity: 1; white-space: pre; opacity: 1;" transform="translate(0,410.00000000000006)">30</text></g><g class="y2tick"><text text-anchor="end" x="79" y="4.199999999999999" style="font-family: 'Open Sans', verdana, arial, sans-serif; font-size: 12px; fill: rgb(42, 63, 95); fill-opacity: 1; white-space: pre; opacity: 1;" transform="translate(0,348.00000000000006)">40</text></g></g><g class="overaxes-above"/></g><g class="subplot x3y3"><g class="layer-subplot"><g class="shapelayer"/><g class="imagelayer"/></g><g class="minor-gridlayer"><g class="x3"/><g class="y3"/></g><g class="gridlayer"><g class="x3"><path class="x3grid crisp" transform="translate(156.15,0)" d="M0,534v186" style="stroke: rgb(255, 255, 255); stroke-opacity: 1; stroke-width: 1px;"/><path class="x3grid crisp" transform="translate(240.77,0)" d="M0,534v186" style="stroke: rgb(255, 255, 255); stroke-opacity: 1; stroke-width: 1px;"/><path class="x3grid crisp" transform="translate(325.38,0)" d="M0,534v186" style="stroke: rgb(255, 255, 255); stroke-opacity: 1; stroke-width: 1px;"/><path class="x3grid crisp" transform="translate(410,0)" d="M0,534v186" style="stroke: rgb(255, 255, 255); stroke-opacity: 1; stroke-width: 1px;"/><path class="x3grid crisp" transform="translate(494.62,0)" d="M0,534v186" style="stroke: rgb(255, 255, 255); stroke-opacity: 1; stroke-width: 1px;"/></g><g class="y3"><path class="y3grid crisp" transform="translate(0,682.8)" d="M80,0h440" style="stroke: rgb(255, 255, 255); stroke-opacity: 1; stroke-width: 1px;"/><path class="y3grid crisp" transform="translate(0,645.6)" d="M80,0h440" style="stroke: rgb(255, 255, 255); stroke-opacity: 1; stroke-width: 1px;"/><path class="y3grid crisp" transform="translate(0,608.4)" d="M80,0h440" style="stroke: rgb(255, 255, 255); stroke-opacity: 1; stroke-width: 1px;"/><path class="y3grid crisp" transform="translate(0,571.2)" d="M80,0h440" style="stroke: rgb(255, 255, 255); stroke-opacity: 1; stroke-width: 1px;"/></g></g><g class="zerolinelayer"/><path class="xlines-below"/><path class="ylines-below"/><g class="overlines-below"/><g class="xaxislayer-below"/><g class="yaxislayer-below"/><g class="overaxes-below"/><g class="plot" transform="translate(80,534)" clip-path="url(#clip338305x3y3plot)"><g class="scatterlayer mlayer"><g class="trace scatter trace0744a2" style="stroke-miterlimit: 2;"><g class="fills"><g><path class="js-fill" d="M0,117.77L8.46,122.65L16.92,118.51L25.38,118L33.85,115.72L42.31,103.58L50.77,93.88L59.23,91.27L67.69,75.73L76.15,73.9L84.62,67.15L93.08,59.65L101.54,58.62L110,56.33L118.46,53.21L126.92,49.34L135.38,50.27L143.85,49.32L152.31,43.05L160.77,39.09L169.23,38.05L186.15,36.88L194.62,36.56L203.08,36.27L211.54,36.83L228.46,36.32L236.92,38.01L253.85,38.98L262.31,37.7L270.77,37.55L279.23,38.38L287.69,38.53L296.15,39.55L304.62,39.32L313.08,41.82L321.54,40.65L330,41.85L338.46,44.11L346.92,48.86L355.38,48.63L363.85,57.06L372.31,63.35L380.77,71.45L389.23,81.44L397.69,93.08L406.15,101.4L414.62,104.72L423.08,114.19L431.54,117.92L440,130.06L440,141.34L431.54,138.8L423.08,131.71L414.62,123.45L406.15,112.03L397.69,112.5L389.23,88.98L380.77,81.19L372.31,68.31L363.85,62.71L355.38,53.14L346.92,52.82L338.46,48.79L330,46.13L321.54,43.79L313.08,44.43L304.62,42.09L296.15,40.71L287.69,41.77L279.23,40.6L270.77,39.43L262.31,41.26L253.85,45.63L245.38,41.98L236.92,40.18L220,38.48L211.54,38.37L203.08,39.43L194.62,41.98L186.15,42.09L177.69,44.85L169.23,39.96L160.77,45.49L152.31,48.48L143.85,53.89L135.38,57.58L126.92,58.88L118.46,61.86L110,64.94L101.54,64.68L93.08,69.62L84.62,80.99L76.15,86.2L67.69,83.97L59.23,114.79L50.77,106.07L42.31,128.69L33.85,129.88L25.38,137.17L16.92,129.14L8.46,137L0,120.9Z" style="fill: rgb(90, 180, 172); fill-opacity: 1; stroke-width: 0;"/></g></g><g class="errorbars"/><g class="lines"><path class="js-line" d="M0,120.9L8.46,137L16.92,129.14L25.38,137.17L33.85,129.88L42.31,128.69L50.77,106.07L59.23,114.79L67.69,83.97L76.15,86.2L84.62,80.99L93.08,69.62L101.54,64.68L110,64.94L118.46,61.86L126.92,58.88L135.38,57.58L143.85,53.89L152.31,48.48L160.77,45.49L169.23,39.96L177.69,44.85L186.15,42.09L194.62,41.98L203.08,39.43L211.54,38.37L220,38.48L236.92,40.18L245.38,41.98L253.85,45.63L262.31,41.26L270.77,39.43L279.23,40.6L287.69,41.77L296.15,40.71L304.62,42.09L313.08,44.43L321.54,43.79L330,46.13L338.46,48.79L346.92,52.82L355.38,53.14L363.85,62.71L372.31,68.31L380.77,81.19L389.23,88.98L397.69,112.5L406.15,112.03L414.62,123.45L423.08,131.71L431.54,138.8L440,141.34" style="vector-effect: non-scaling-stroke; fill: none; stroke: rgb(0, 0, 0); stroke-opacity: 1; stroke-width: 0.25px; opacity: 1;"/></g><g class="points"/><g class="text"/></g><g class="trace scatter trace5abfd3" style="stroke-miterlimit: 2;"><g class="fills"><g><path class="js-fill" d="M0,113.71L8.46,116.43L16.92,111.17L25.38,107.4L33.85,107.19L42.31,93.55L50.77,89.39L59.23,81.69L67.69,71.91L76.15,69.06L84.62,59.95L93.08,54.95L101.54,53.46L110,51.91L118.46,49.14L126.92,43.1L135.38,46.02L143.85,45.12L152.31,39.93L169.23,35.92L177.69,35.73L186.15,35.02L194.62,35.66L203.08,34.76L211.54,35.63L220,35.07L228.46,35.32L253.85,38.11L262.31,35.29L279.23,37.42L287.69,37.25L313.08,39.27L321.54,38.76L355.38,46.18L363.85,53.25L372.31,57.98L380.77,64.66L389.23,76.31L397.69,85.17L406.15,86.83L414.62,100.28L423.08,101.26L431.54,110.61L440,123.63L440,130.06L431.54,117.92L423.08,114.19L414.62,104.72L406.15,101.4L397.69,93.08L389.23,81.44L380.77,71.45L372.31,63.35L363.85,57.06L355.38,48.63L346.92,48.86L338.46,44.11L330,41.85L321.54,40.65L313.08,41.82L304.62,39.32L296.15,39.55L287.69,38.53L279.23,38.38L270.77,37.55L262.31,37.7L253.85,38.98L236.92,38.01L228.46,36.32L211.54,36.83L203.08,36.27L194.62,36.56L186.15,36.88L169.23,38.05L160.77,39.09L152.31,43.05L143.85,49.32L135.38,50.27L126.92,49.34L118.46,53.21L110,56.33L101.54,58.62L93.08,59.65L84.62,67.15L76.15,73.9L67.69,75.73L59.23,91.27L50.77,93.88L42.31,103.58L33.85,115.72L25.38,118L16.92,118.51L8.46,122.65L0,117.77Z" style="fill: rgb(245, 245, 245); fill-opacity: 1; stroke-width: 0;"/></g></g><g class="errorbars"/><g class="lines"><path class="js-line" d="M0,117.77L8.46,122.65L16.92,118.51L25.38,118L33.85,115.72L42.31,103.58L50.77,93.88L59.23,91.27L67.69,75.73L76.15,73.9L84.62,67.15L93.08,59.65L101.54,58.62L110,56.33L118.46,53.21L126.92,49.34L135.38,50.27L143.85,49.32L152.31,43.05L160.77,39.09L169.23,38.05L186.15,36.88L194.62,36.56L203.08,36.27L211.54,36.83L228.46,36.32L236.92,38.01L253.85,38.98L262.31,37.7L270.77,37.55L279.23,38.38L287.69,38.53L296.15,39.55L304.62,39.32L313.08,41.82L321.54,40.65L330,41.85L338.46,44.11L346.92,48.86L355.38,48.63L363.85,57.06L372.31,63.35L380.77,71.45L389.23,81.44L397.69,93.08L406.15,101.4L414.62,104.72L423.08,114.19L431.54,117.92L440,130.06" style="vector-effect: non-scaling-stroke; fill: none; stroke: rgb(0, 0, 0); stroke-opacity: 1; stroke-width: 0.5px; opacity: 1;"/></g><g class="points"/><g class="text"/></g><g class="trace scatter tracef61c46" style="stroke-miterlimit: 2;"><g class="fills"><g><path class="js-fill" d="M0,106.54L8.46,111.73L16.92,107.07L33.85,97.78L42.31,86.6L50.77,79.03L59.23,72.97L67.69,65.42L76.15,62.4L84.62,52.66L93.08,51.52L101.54,49.13L110,48.34L118.46,43.87L126.92,41.2L135.38,37.78L143.85,40.1L152.31,38.48L160.77,33.98L177.69,31.87L186.15,32.75L194.62,31.95L203.08,33.27L211.54,34.22L220,33.93L228.46,33.29L236.92,34.12L245.38,35.01L253.85,34.39L262.31,34.01L270.77,35.07L279.23,34.65L287.69,35.18L304.62,37.41L313.08,36.83L321.54,36.51L330,37.57L338.46,39.59L346.92,40.36L355.38,43.56L363.85,49.18L372.31,55L380.77,61.88L397.69,77.93L406.15,80.96L414.62,89.71L423.08,89.73L440,116.34L440,123.63L431.54,110.61L423.08,101.26L414.62,100.28L406.15,86.83L397.69,85.17L389.23,76.31L380.77,64.66L372.31,57.98L363.85,53.25L355.38,46.18L321.54,38.76L313.08,39.27L287.69,37.25L279.23,37.42L262.31,35.29L253.85,38.11L228.46,35.32L220,35.07L211.54,35.63L203.08,34.76L194.62,35.66L186.15,35.02L177.69,35.73L169.23,35.92L152.31,39.93L143.85,45.12L135.38,46.02L126.92,43.1L118.46,49.14L110,51.91L101.54,53.46L93.08,54.95L84.62,59.95L76.15,69.06L67.69,71.91L59.23,81.69L50.77,89.39L42.31,93.55L33.85,107.19L25.38,107.4L16.92,111.17L8.46,116.43L0,113.71Z" style="fill: rgb(245, 245, 245); fill-opacity: 1; stroke-width: 0;"/></g></g><g class="errorbars"/><g class="lines"><path class="js-line" d="M0,113.71L8.46,116.43L16.92,111.17L25.38,107.4L33.85,107.19L42.31,93.55L50.77,89.39L59.23,81.69L67.69,71.91L76.15,69.06L84.62,59.95L93.08,54.95L101.54,53.46L110,51.91L118.46,49.14L126.92,43.1L135.38,46.02L143.85,45.12L152.31,39.93L169.23,35.92L177.69,35.73L186.15,35.02L194.62,35.66L203.08,34.76L211.54,35.63L220,35.07L228.46,35.32L253.85,38.11L262.31,35.29L279.23,37.42L287.69,37.25L313.08,39.27L321.54,38.76L355.38,46.18L363.85,53.25L372.31,57.98L380.77,64.66L389.23,76.31L397.69,85.17L406.15,86.83L414.62,100.28L423.08,101.26L431.54,110.61L440,123.63" style="vector-effect: non-scaling-stroke; fill: none; stroke: rgb(0, 0, 0); stroke-opacity: 1; stroke-width: 1px; opacity: 1;"/></g><g class="points"/><g class="text"/></g><g class="trace scatter trace0317c5" style="stroke-miterlimit: 2;"><g class="fills"><g><path class="js-fill" d="M0,100.03L8.46,99.38L16.92,91.3L25.38,91.09L33.85,87.58L50.77,62.18L59.23,65.68L67.69,53.78L76.15,49.64L84.62,46.98L93.08,40.81L101.54,37.79L110,37.94L118.46,36.56L126.92,29.02L135.38,22.87L143.85,33.69L152.31,36.49L160.77,28.37L169.23,26.78L177.69,24.23L186.15,27.4L194.62,27.36L203.08,30.89L211.54,31.46L220,32.42L228.46,31.57L245.38,34.12L253.85,27.64L262.31,32.2L270.77,31.83L279.23,30.99L287.69,33.05L304.62,36.56L313.08,33.15L330,31.54L338.46,34.83L346.92,32.52L355.38,37.01L372.31,45.6L380.77,53.14L389.23,62.07L397.69,66.85L406.15,72.17L414.62,73.12L423.08,83.12L431.54,90.56L440,98.21L440,116.34L423.08,89.73L414.62,89.71L406.15,80.96L397.69,77.93L380.77,61.88L372.31,55L363.85,49.18L355.38,43.56L346.92,40.36L338.46,39.59L330,37.57L321.54,36.51L313.08,36.83L304.62,37.41L287.69,35.18L279.23,34.65L270.77,35.07L262.31,34.01L253.85,34.39L245.38,35.01L236.92,34.12L228.46,33.29L220,33.93L211.54,34.22L203.08,33.27L194.62,31.95L186.15,32.75L177.69,31.87L160.77,33.98L152.31,38.48L143.85,40.1L135.38,37.78L126.92,41.2L118.46,43.87L110,48.34L101.54,49.13L93.08,51.52L84.62,52.66L76.15,62.4L67.69,65.42L59.23,72.97L50.77,79.03L42.31,86.6L33.85,97.78L16.92,107.07L8.46,111.73L0,106.54Z" style="fill: rgb(216, 179, 101); fill-opacity: 1; stroke-width: 0;"/></g></g><g class="errorbars"/><g class="lines"><path class="js-line" d="M0,106.54L8.46,111.73L16.92,107.07L33.85,97.78L42.31,86.6L50.77,79.03L59.23,72.97L67.69,65.42L76.15,62.4L84.62,52.66L93.08,51.52L101.54,49.13L110,48.34L118.46,43.87L126.92,41.2L135.38,37.78L143.85,40.1L152.31,38.48L160.77,33.98L177.69,31.87L186.15,32.75L194.62,31.95L203.08,33.27L211.54,34.22L220,33.93L228.46,33.29L236.92,34.12L245.38,35.01L253.85,34.39L262.31,34.01L270.77,35.07L279.23,34.65L287.69,35.18L304.62,37.41L313.08,36.83L321.54,36.51L330,37.57L338.46,39.59L346.92,40.36L355.38,43.56L363.85,49.18L372.31,55L380.77,61.88L397.69,77.93L406.15,80.96L414.62,89.71L423.08,89.73L440,116.34" style="vector-effect: non-scaling-stroke; fill: none; stroke: rgb(0, 0, 0); stroke-opacity: 1; stroke-width: 0.5px; opacity: 1;"/></g><g class="points"/><g class="text"/></g><g class="trace scatter tracec25928" style="stroke-miterlimit: 2;"><g class="fills"/><g class="errorbars"/><g class="lines"><path class="js-line" d="M0,100.03L8.46,99.38L16.92,91.3L25.38,91.09L33.85,87.58L50.77,62.18L59.23,65.68L67.69,53.78L76.15,49.64L84.62,46.98L93.08,40.81L101.54,37.79L110,37.94L118.46,36.56L126.92,29.02L135.38,22.87L143.85,33.69L152.31,36.49L160.77,28.37L169.23,26.78L177.69,24.23L186.15,27.4L194.62,27.36L203.08,30.89L211.54,31.46L220,32.42L228.46,31.57L245.38,34.12L253.85,27.64L262.31,32.2L270.77,31.83L279.23,30.99L287.69,33.05L304.62,36.56L313.08,33.15L330,31.54L338.46,34.83L346.92,32.52L355.38,37.01L372.31,45.6L380.77,53.14L389.23,62.07L397.69,66.85L406.15,72.17L414.62,73.12L423.08,83.12L431.54,90.56L440,98.21" style="vector-effect: non-scaling-stroke; fill: none; stroke: rgb(0, 0, 0); stroke-opacity: 1; stroke-width: 0.25px; opacity: 1;"/></g><g class="points"/><g class="text"/></g><g class="trace scatter traceebee96" style="stroke-miterlimit: 2; opacity: 1;"><g class="fills"/><g class="errorbars"/><g class="lines"/><g class="points"><path class="point" transform="translate(169.23,29.76)" d="M4,0A4,4 0 1,1 0,-4A4,4 0 0,1 4,0ZM0,0.5L0.5,0L0,-0.5L-0.5,0Z" style="opacity: 1; stroke: rgb(0, 0, 0); stroke-opacity: 1; stroke-width: 1px; fill: none;"/><path class="point" transform="translate(177.69,29.76)" d="M4,0A4,4 0 1,1 0,-4A4,4 0 0,1 4,0ZM0,0.5L0.5,0L0,-0.5L-0.5,0Z" style="opacity: 1; stroke: rgb(0, 0, 0); stroke-opacity: 1; stroke-width: 1px; fill: none;"/><path class="point" transform="translate(186.15,29.76)" d="M4,0A4,4 0 1,1 0,-4A4,4 0 0,1 4,0ZM0,0.5L0.5,0L0,-0.5L-0.5,0Z" style="opacity: 1; stroke: rgb(0, 0, 0); stroke-opacity: 1; stroke-width: 1px; fill: none;"/><path class="point" transform="translate(194.62,29.76)" d="M4,0A4,4 0 1,1 0,-4A4,4 0 0,1 4,0ZM0,0.5L0.5,0L0,-0.5L-0.5,0Z" style="opacity: 1; stroke: rgb(0, 0, 0); stroke-opacity: 1; stroke-width: 1px; fill: none;"/></g><g class="text"/></g></g></g><g class="overplot"/><path class="xlines-above crisp" d="M0,0" style="fill: none;"/><path class="ylines-above crisp" d="M0,0" style="fill: none;"/><g class="overlines-above"/><g class="xaxislayer-above"><g class="x3tick"><text text-anchor="middle" x="0" y="733" transform="translate(156.15,0)" style="font-family: 'Open Sans', verdana, arial, sans-serif; font-size: 12px; fill: rgb(42, 63, 95); fill-opacity: 1; white-space: pre; opacity: 1;">10</text></g><g class="x3tick"><text text-anchor="middle" x="0" y="733" style="font-family: 'Open Sans', verdana, arial, sans-serif; font-size: 12px; fill: rgb(42, 63, 95); fill-opacity: 1; white-space: pre; opacity: 1;" transform="translate(240.77,0)">20</text></g><g class="x3tick"><text text-anchor="middle" x="0" y="733" style="font-family: 'Open Sans', verdana, arial, sans-serif; font-size: 12px; fill: rgb(42, 63, 95); fill-opacity: 1; white-space: pre; opacity: 1;" transform="translate(325.38,0)">30</text></g><g class="x3tick"><text text-anchor="middle" x="0" y="733" style="font-family: 'Open Sans', verdana, arial, sans-serif; font-size: 12px; fill: rgb(42, 63, 95); fill-opacity: 1; white-space: pre; opacity: 1;" transform="translate(410,0)">40</text></g><g class="x3tick"><text text-anchor="middle" x="0" y="733" style="font-family: 'Open Sans', verdana, arial, sans-serif; font-size: 12px; fill: rgb(42, 63, 95); fill-opacity: 1; white-space: pre; opacity: 1;" transform="translate(494.62,0)">50</text></g></g><g class="yaxislayer-above"><g class="y3tick"><text text-anchor="end" x="79" y="4.199999999999999" transform="translate(0,720)" style="font-family: 'Open Sans', verdana, arial, sans-serif; font-size: 12px; fill: rgb(42, 63, 95); fill-opacity: 1; white-space: pre; opacity: 1;">5</text></g><g class="y3tick"><text text-anchor="end" x="79" y="4.199999999999999" style="font-family: 'Open Sans', verdana, arial, sans-serif; font-size: 12px; fill: rgb(42, 63, 95); fill-opacity: 1; white-space: pre; opacity: 1;" transform="translate(0,682.8)">10</text></g><g class="y3tick"><text text-anchor="end" x="79" y="4.199999999999999" style="font-family: 'Open Sans', verdana, arial, sans-serif; font-size: 12px; fill: rgb(42, 63, 95); fill-opacity: 1; white-space: pre; opacity: 1;" transform="translate(0,645.6)">15</text></g><g class="y3tick"><text text-anchor="end" x="79" y="4.199999999999999" style="font-family: 'Open Sans', verdana, arial, sans-serif; font-size: 12px; fill: rgb(42, 63, 95); fill-opacity: 1; white-space: pre; opacity: 1;" transform="translate(0,608.4)">20</text></g><g class="y3tick"><text text-anchor="end" x="79" y="4.199999999999999" style="font-family: 'Open Sans', verdana, arial, sans-serif; font-size: 12px; fill: rgb(42, 63, 95); fill-opacity: 1; white-space: pre; opacity: 1;" transform="translate(0,571.2)">25</text></g><g class="y3tick"><text text-anchor="end" x="79" y="4.199999999999999" style="font-family: 'Open Sans', verdana, arial, sans-serif; font-size: 12px; fill: rgb(42, 63, 95); fill-opacity: 1; white-space: pre; opacity: 1;" transform="translate(0,534)">30</text></g></g><g class="overaxes-above"/></g></g><g class="polarlayer"/><g class="smithlayer"/><g class="ternarylayer"/><g class="geolayer"/><g class="funnelarealayer"/><g class="pielayer"/><g class="iciclelayer"/><g class="treemaplayer"/><g class="sunburstlayer"/><g class="glimages"/><defs id="topdefs-338305"><g class="clips"/></defs><g class="layer-above"><g class="imagelayer"/><g class="shapelayer"/></g><g class="infolayer"><g class="g-gtitle"><text class="gtitle" x="30" y="50" text-anchor="start" dy="0em" style="font-family: 'Open Sans', verdana, arial, sans-serif; font-size: 17px; fill: rgb(42, 63, 95); opacity: 1; font-weight: normal; white-space: pre;">Climatology and S2S forecast for Bhola</text></g><g class="g-xtitle"/><g class="g-x2title"/><g class="g-x3title"/><g class="g-ytitle"><text class="ytitle" transform="rotate(-90,34.16875,193)" x="34.16875" y="193" text-anchor="middle" style="font-family: 'Open Sans', verdana, arial, sans-serif; font-size: 14px; fill: rgb(42, 63, 95); opacity: 1; font-weight: normal; white-space: pre;">[mm]</text></g><g class="g-y2title"><text class="y2title" transform="rotate(-90,40.840625,410.00000000000006)" x="40.840625" y="410.00000000000006" text-anchor="middle" style="font-family: 'Open Sans', verdana, arial, sans-serif; font-size: 14px; fill: rgb(42, 63, 95); opacity: 1; font-weight: normal; white-space: pre;">[C]</text></g><g class="g-y3title"><text class="y3title" transform="rotate(-90,40.840625,627)" x="40.840625" y="627" text-anchor="middle" style="font-family: 'Open Sans', verdana, arial, sans-serif; font-size: 14px; fill: rgb(42, 63, 95); opacity: 1; font-weight: normal; white-space: pre;">[C]</text></g><g class="annotation" data-index="0" style="opacity: 1;"><g class="annotation-text-g" transform="rotate(0,300,89.5)"><g class="cursor-pointer" transform="translate(237,79)"><rect class="bg" x="0.5" y="0.5" width="126" height="20" style="stroke-width: 1px; stroke: rgb(0, 0, 0); stroke-opacity: 0; fill: rgb(0, 0, 0); fill-opacity: 0;"/><text class="annotation-text" text-anchor="middle" x="63.359375" y="16" style="font-family: 'Open Sans', verdana, arial, sans-serif; font-size: 16px; fill: rgb(42, 63, 95); fill-opacity: 1; white-space: pre;">Precipitation sum</text></g></g></g><g class="annotation" data-index="1" style="opacity: 1;"><g class="annotation-text-g" transform="rotate(0,300,306.50000000000006)"><g class="cursor-pointer" transform="translate(196,296)"><rect class="bg" x="0.5" y="0.5" width="208" height="20" style="stroke-width: 1px; stroke: rgb(0, 0, 0); stroke-opacity: 0; fill: rgb(0, 0, 0); fill-opacity: 0;"/><text class="annotation-text" text-anchor="middle" x="104.265625" y="16" style="font-family: 'Open Sans', verdana, arial, sans-serif; font-size: 16px; fill: rgb(42, 63, 95); fill-opacity: 1; white-space: pre;">Mean maximum temperature</text></g></g></g><g class="annotation" data-index="2" style="opacity: 1;"><g class="annotation-text-g" transform="rotate(0,300,523.5)"><g class="cursor-pointer" transform="translate(198,513)"><rect class="bg" x="0.5" y="0.5" width="203" height="20" style="stroke-width: 1px; stroke: rgb(0, 0, 0); stroke-opacity: 0; fill: rgb(0, 0, 0); fill-opacity: 0;"/><text class="annotation-text" text-anchor="middle" x="102.046875" y="16" style="font-family: 'Open Sans', verdana, arial, sans-serif; font-size: 16px; fill: rgb(42, 63, 95); fill-opacity: 1; white-space: pre;">Mean minimum temperature</text></g></g></g><g class="annotation" data-index="3" style="opacity: 1;"><g class="annotation-text-g" transform="rotate(0,300,760.5)"><g class="cursor-pointer" transform="translate(277,750)"><rect class="bg" x="0.5" y="0.5" width="45" height="20" style="stroke-width: 1px; stroke: rgb(0, 0, 0); stroke-opacity: 0; fill: rgb(0, 0, 0); fill-opacity: 0;"/><text class="annotation-text" text-anchor="middle" x="22.3125" y="16" style="font-family: 'Open Sans', verdana, arial, sans-serif; font-size: 16px; fill: rgb(42, 63, 95); fill-opacity: 1; white-space: pre;">Week</text></g></g></g></g></svg>