<svg class="main-svg" xmlns="http://www.w3.org/2000/svg" xmlns:xlink="http://www.w3.org/1999/xlink" width="600" height="800" style="" viewBox="0 0 600 800"><rect x="0" y="0" width="600" height="800" style="fill: rgb(255, 255, 255); fill-opacity: 1;"/><defs id="defs-86f66c"><g class="clips"><clipPath id="clip86f66cxyplot" class="plotclip"><rect width="440" height="186.00000000000003"/></clipPath><clipPath id="clip86f66cx2y2plot" class="plotclip"><rect width="440" height="185.99999999999997"/></clipPath><clipPath id="clip86f66cx3y3plot" class="plotclip"><rect width="440" height="186"/></clipPath><clipPath class="axesclip" id="clip86f66cx"><rect x="80" y="0" width="440" height="800"/></clipPath><clipPath class="axesclip" id="clip86f66cy"><rect x="0" y="100" width="600" height="186.00000000000003"/></clipPath><clipPath class="axesclip" id="clip86f66cxy"><rect x="80" y="100" width="440" height="186.00000000000003"/></clipPath><clipPath class="axesclip" id="clip86f66cy2"><rect x="0" y="317.00000000000006" width="600" height="185.99999999999997"/></clipPath><clipPath class="axesclip" id="clip86f66cxy2"><rect x="80" y="317.00000000000006" width="440" height="185.99999999999997"/></clipPath><clipPath class="axesclip" id="clip86f66cy3"><rect x="0" y="534" width="600" height="186"/></clipPath><clipPath class="axesclip" id="clip86f66cxy3"><rect x="80" y="534" width="440" height="186"/></clipPath><clipPath class="axesclip" id="clip86f66cx2"><rect x="80" y="0" width="440" height="800"/></clipPath><clipPath class="axesclip" id="clip86f66cx2y"><rect x="80" y="100" width="440" height="186.00000000000003"/></clipPath><clipPath class="axesclip" id="clip86f66cx2y2"><rect x="80" y="317.00000000000006" width="440" height="185.99999999999997"/></clipPath><clipPath class="axesclip" id="clip86f66cx2y3"><rect x="80" y="534" width="440" height="186"/></clipPath><clipPath class="axesclip" id="clip86f66cx3"><rect x="80" y="0" width="440" height="800"/></clipPath><clipPath class="axesclip" id="clip86f66cx3y"><rect x="80" y="100" width="440" height="186.00000000000003"/></clipPath><clipPath class="axesclip" id="clip86f66cx3y2"><rect x="80" y="317.00000000000006" width="440" height="185.99999999999997"/></clipPath><clipPath class="axesclip" id="clip86f66cx3y3"><rect x="80" y="534" width="440" height="186"/></clipPath></g><g class="gradients"/><g class="patterns"/></defs><g class="bglayer"><rect class="bg" x="80" y="100" width="440" height="186.00000000000003" style="fill: rgb(229, 236, 246); fill-opacity: 1; stroke-width: 0;"/><rect class="bg" x="80" y="317.00000000000006" width="440" height="185.99999999999997" style="fill: rgb(229, 236, 246); fill-opacity: 1; stroke-width: 0;"/><rect class="bg" x="80" y="534" width="440" height="186" style="fill: rgb(229, 236, 246); fill-opacity: 1; stroke-width: 0;"/></g><g class="layer-below"><g class="imagelayer"/><g class="shapelayer"/></g><g class="cartesianlayer"><g class="subplot xy"><g class="layer-subplot"><g class="shapelayer"/><g class="imagelayer"/></g><g class="minor-gridlayer"><g class="x"/><g class="y"/></g><g class="gridlayer"><g class="x"><path class="xgrid crisp" transform="translate(156.15,0)" d="M0,100v186.00000000000003" style="stroke: rgb(255, 255, 255); stroke-opacity: 1; stroke-width: 1px;"/><path class="xgrid crisp" transform="translate(240.77,0)" d="M0,100v186.00000000000003" style="stroke: rgb(255, 255, 255); stroke-opacity: 1; stroke-width: 1px;"/><path class="xgrid crisp" transform="translate(325.38,0)" d="M0,100v186.00000000000003" style="stroke: rgb(255, 255, 255); stroke-opacity: 1; stroke-width: 1px;"/><path class="xgrid crisp" transform="translate(410,0)" d="M0,100v186.00000000000003" style="stroke: rgb(255, 255, 255); stroke-opacity: 1; stroke-width: 1px;"/><path class="xgrid crisp" transform="translate(494.62,0)" d="M0,100v186.00000000000003" style="stroke: rgb(255, 255, 255); stroke-opacity: 1; stroke-width: 1px;"/></g><g class="y"><path class="ygrid crisp" transform="translate(0,248.8)" d="M80,0h440" style="stroke: rgb(255, 255, 255); stroke-opacity: 1; stroke-width: 1px;"/><path class="ygrid crisp" transform="translate(0,211.6)" d="M80,0h440" style="stroke: rgb(255, 255, 255); stroke-opacity: 1; stroke-width: 1px;"/><path class="ygrid crisp" transform="translate(0,174.4)" d="M80,0h440" style="stroke: rgb(255, 255, 255); stroke-opacity: 1; stroke-width: 1px;"/><path class="ygrid crisp" transform="translate(0,137.2)" d="M80,0h440" style="stroke: rgb(255, 255, 255); stroke-opacity: 1; stroke-width: 1px;"/></g></g><g class="zerolinelayer"><path class="yzl zl crisp" transform="translate(0,286)" d="M80,0h440" style="stroke: rgb(255, 255, 255); stroke-opacity: 1; stroke-width: 2px;"/></g><path class="xlines-below"/><path class="ylines-below"/><g class="overlines-below"/><g class="xaxislayer-below"/><g class="yaxislayer-below"/><g class="overaxes-below"/><g class="plot" transform="translate(80,100)" clip-path="url(#clip86f66cxyplot)"><g class="scatterlayer mlayer"><g class="trace scatter trace16b1df" style="stroke-miterlimit: 2;"><g class="fills"><g><path class="js-fill" d="M0,186L101.54,186L110,183.99L118.46,185.98L126.92,185.24L135.38,183.51L143.85,173.26L152.31,177.29L160.77,158.73L169.23,156.72L177.69,153.13L186.15,153.15L194.62,148.14L203.08,167.25L211.54,139.61L220,169.91L228.46,155.56L236.92,162.18L245.38,160.8L253.85,166.76L262.31,155.36L270.77,153.83L279.23,167.99L296.15,170.91L304.62,160.16L313.08,166.63L321.54,166.44L330,179.65L338.46,178.06L346.92,185.73L355.38,186L440,186L440,186L338.46,186L330,186L321.54,180.6L313.08,186L304.62,184.46L296.15,182.16L287.69,184.47L279.23,180.82L270.77,181.65L262.31,184.51L253.85,180.12L245.38,182.25L236.92,183.02L228.46,180.78L220,179.64L211.54,180.82L203.08,185.95L194.62,179.69L186.15,186L177.69,185.27L169.23,180.79L160.77,186L0,186Z" style="fill: rgb(224, 236, 244); fill-opacity: 1; stroke-width: 0;"/></g></g><g class="errorbars"/><g class="lines"><path class="js-line" d="M0,186L160.77,186L169.23,180.79L177.69,185.27L186.15,186L194.62,179.69L203.08,185.95L211.54,180.82L220,179.64L228.46,180.78L236.92,183.02L245.38,182.25L253.85,180.12L262.31,184.51L270.77,181.65L279.23,180.82L287.69,184.47L296.15,182.16L304.62,184.46L313.08,186L321.54,180.6L330,186L338.46,186L440,186" style="vector-effect: non-scaling-stroke; fill: none; stroke: rgb(0, 0, 0); stroke-opacity: 1; stroke-width: 0.25px; opacity: 1;"/></g><g class="points"/><g class="text"/></g><g class="trace scatter trace7244de" style="stroke-miterlimit: 2;"><g class="fills"><g><path class="js-fill" d="M0,186L84.62,186L93.08,183.82L101.54,184.9L110,168.14L118.46,183.41L126.92,174.47L135.38,166.51L143.85,140.19L152.31,149.69L160.77,140.8L169.23,139.36L177.69,146.7L186.15,110.95L194.62,107.7L203.08,147.38L211.54,124.06L220,146.13L228.46,141.19L236.92,143.17L245.38,127.41L253.85,144.79L262.31,143.68L270.77,136.68L279.23,151.93L287.69,145.96L296.15,159.62L304.62,146.18L313.08,147.92L321.54,147.67L330,164.31L338.46,162.98L346.92,179.84L355.38,185.63L363.85,186L440,186L440,186L355.38,186L346.92,185.73L338.46,178.06L330,179.65L321.54,166.44L313.08,166.63L304.62,160.16L296.15,170.91L279.23,167.99L270.77,153.83L262.31,155.36L253.85,166.76L245.38,160.8L236.92,162.18L228.46,155.56L220,169.91L211.54,139.61L203.08,167.25L194.62,148.14L186.15,153.15L177.69,153.13L169.23,156.72L160.77,158.73L152.31,177.29L143.85,173.26L135.38,183.51L126.92,185.24L118.46,185.98L110,183.99L101.54,186L0,186Z" style="fill: rgb(158, 188, 218); fill-opacity: 1; stroke-width: 0;"/></g></g><g class="errorbars"/><g class="lines"><path class="js-line" d="M0,186L101.54,186L110,183.99L118.46,185.98L126.92,185.24L135.38,183.51L143.85,173.26L152.31,177.29L160.77,158.73L169.23,156.72L177.69,153.13L186.15,153.15L194.62,148.14L203.08,167.25L211.54,139.61L220,169.91L228.46,155.56L236.92,162.18L245.38,160.8L253.85,166.76L262.31,155.36L270.77,153.83L279.23,167.99L296.15,170.91L304.62,160.16L313.08,166.63L321.54,166.44L330,179.65L338.46,178.06L346.92,185.73L355.38,186L440,186" style="vector-effect: non-scaling-stroke; fill: none; stroke: rgb(0, 0, 0); stroke-opacity: 1; stroke-width: 0.5px; opacity: 1;"/></g><g class="points"/><g class="text"/></g><g class="trace scatter traceeb98ae" style="stroke-miterlimit: 2;"><g class="fills"><g><path class="js-fill" d="M0,186L42.31,186L50.77,184.68L59.23,181.19L67.69,183.16L84.62,181.38L93.08,173.93L101.54,171.98L110,140.92L118.46,172.08L126.92,158.8L135.38,151.15L143.85,124.74L152.31,121.5L160.77,115.16L169.23,96.87L177.69,98.59L186.15,98.12L194.62,63.15L203.08,91.36L211.54,88.07L220,109.28L228.46,89.57L236.92,103.74L245.38,87.63L253.85,127.01L262.31,107.68L270.77,102.87L279.23,136.65L287.69,126.19L296.15,145.12L304.62,128.9L313.08,144.4L321.54,137.17L330,141.16L338.46,146.63L346.92,149.32L355.38,172.74L363.85,182.53L372.31,185.27L380.77,185.94L440,186L440,186L363.85,186L355.38,185.63L346.92,179.84L338.46,162.98L330,164.31L321.54,147.67L313.08,147.92L304.62,146.18L296.15,159.62L287.69,145.96L279.23,151.93L270.77,136.68L262.31,143.68L253.85,144.79L245.38,127.41L236.92,143.17L228.46,141.19L220,146.13L211.54,124.06L203.08,147.38L194.62,107.7L186.15,110.95L177.69,146.7L169.23,139.36L160.77,140.8L152.31,149.69L143.85,140.19L135.38,166.51L126.92,174.47L118.46,183.41L110,168.14L101.54,184.9L93.08,183.82L84.62,186L0,186Z" style="fill: rgb(158, 188, 218); fill-opacity: 1; stroke-width: 0;"/></g></g><g class="errorbars"/><g class="lines"><path class="js-line" d="M0,186L84.62,186L93.08,183.82L101.54,184.9L110,168.14L118.46,183.41L126.92,174.47L135.38,166.51L143.85,140.19L152.31,149.69L160.77,140.8L169.23,139.36L177.69,146.7L186.15,110.95L194.62,107.7L203.08,147.38L211.54,124.06L220,146.13L228.46,141.19L236.92,143.17L245.38,127.41L253.85,144.79L262.31,143.68L270.77,136.68L279.23,151.93L287.69,145.96L296.15,159.62L304.62,146.18L313.08,147.92L321.54,147.67L330,164.31L338.46,162.98L346.92,179.84L355.38,185.63L363.85,186L440,186" style="vector-effect: non-scaling-stroke; fill: none; stroke: rgb(0, 0, 0); stroke-opacity: 1; stroke-width: 1px; opacity: 1;"/></g><g class="points"/><g class="text"/></g><g class="trace scatter trace6c31cd" style="stroke-miterlimit: 2;"><g class="fills"><g><path class="js-fill" d="M0,186L42.31,186L50.77,183.77L59.23,176.14L67.69,180.79L76.15,181.55L84.62,179.98L93.08,160.67L101.54,153.36L110,93.18L118.46,166.62L126.92,130.05L135.38,117.6L143.85,90.11L152.31,56.36L160.77,78.2L169.23,85.09L177.69,38.78L186.15,25.22L194.62,-28.72L203.08,0.79L211.54,35.07L220,51.54L228.46,44.21L236.92,30.71L245.38,-7.89L253.85,87.92L262.31,94.6L270.77,53.16L279.23,94.73L287.69,95.5L296.15,123.08L304.62,105.25L313.08,144.37L321.54,127.95L330,119.58L338.46,105.62L346.92,102.02L355.38,171.38L363.85,182.1L372.31,185.27L389.23,186L397.69,186L440,186L440,186L380.77,185.94L372.31,185.27L363.85,182.53L355.38,172.74L346.92,149.32L338.46,146.63L330,141.16L321.54,137.17L313.08,144.4L304.62,128.9L296.15,145.12L287.69,126.19L279.23,136.65L270.77,102.87L262.31,107.68L253.85,127.01L245.38,87.63L236.92,103.74L228.46,89.57L220,109.28L211.54,88.07L203.08,91.36L194.62,63.15L186.15,98.12L177.69,98.59L169.23,96.87L160.77,115.16L152.31,121.5L143.85,124.74L135.38,151.15L126.92,158.8L118.46,172.08L110,140.92L101.54,171.98L93.08,173.93L84.62,181.38L67.69,183.16L59.23,181.19L50.77,184.68L42.31,186L0,186Z" style="fill: rgb(136, 86, 167); fill-opacity: 1; stroke-width: 0;"/></g></g><g class="errorbars"/><g class="lines"><path class="js-line" d="M0,186L42.31,186L50.77,184.68L59.23,181.19L67.69,183.16L84.62,181.38L93.08,173.93L101.54,171.98L110,140.92L118.46,172.08L126.92,158.8L135.38,151.15L143.85,124.74L152.31,121.5L160.77,115.16L169.23,96.87L177.69,98.59L186.15,98.12L194.62,63.15L203.08,91.36L211.54,88.07L220,109.28L228.46,89.57L236.92,103.74L245.38,87.63L253.85,127.01L262.31,107.68L270.77,102.87L279.23,136.65L287.69,126.19L296.15,145.12L304.62,128.9L313.08,144.4L321.54,137.17L330,141.16L338.46,146.63L346.92,149.32L355.38,172.74L363.85,182.53L372.31,185.27L380.77,185.94L440,186" style="vector-effect: non-scaling-stroke; fill: none; stroke: rgb(0, 0, 0); stroke-opacity: 1; stroke-width: 0.5px; opacity: 1;"/></g><g class="points"/><g class="text"/></g><g class="trace scatter trace542a30" style="stroke-miterlimit: 2;"><g class="fills"/><g class="errorbars"/><g class="lines"><path class="js-line" d="M0,186L42.31,186L50.77,183.77L59.23,176.14L67.69,180.79L76.15,181.55L84.62,179.98L93.08,160.67L101.54,153.36L110,93.18L118.46,166.62L126.92,130.05L135.38,117.6L143.85,90.11L152.31,56.36L160.77,78.2L169.23,85.09L177.69,38.78L186.15,25.22L194.62,-28.72L203.08,0.79L211.54,35.07L220,51.54L228.46,44.21L236.92,30.71L245.38,-7.89L253.85,87.92L262.31,94.6L270.77,53.16L279.23,94.73L287.69,95.5L296.15,123.08L304.62,105.25L313.08,144.37L321.54,127.95L330,119.58L338.46,105.62L346.92,102.02L355.38,171.38L363.85,182.1L372.31,185.27L389.23,186L397.69,186L440,186" style="vector-effect: non-scaling-stroke; fill: none; stroke: rgb(0, 0, 0); stroke-opacity: 1; stroke-width: 0.25px; opacity: 1;"/></g><g class="points"/><g class="text"/></g><g class="trace scatter trace46afb1" style="stroke-miterlimit: 2; opacity: 1;"><g class="fills"/><g class="errorbars"/><g class="lines"/><g class="points"><path class="point" transform="translate(169.23,142.1)" d="M4,0A4,4 0 1,1 0,-4A4,4 0 0,1 4,0ZM0,0.5L0.5,0L0,-0.5L-0.5,0Z" style="opacity: 1; stroke: rgb(0, 0, 0); stroke-opacity: 1; stroke-width: 1px; fill: none;"/><path class="point" transform="translate(177.69,138.38)" d="M4,0A4,4 0 1,1 0,-4A4,4 0 0,1 4,0ZM0,0.5L0.5,0L0,-0.5L-0.5,0Z" style="opacity: 1; stroke: rgb(0, 0, 0); stroke-opacity: 1; stroke-width: 1px; fill: none;"/><path class="point" transform="translate(186.15,49.85)" d="M4,0A4,4 0 1,1 0,-4A4,4 0 0,1 4,0ZM0,0.5L0.5,0L0,-0.5L-0.5,0Z" style="opacity: 1; stroke: rgb(0, 0, 0); stroke-opacity: 1; stroke-width: 1px; fill: none;"/><path class="point" transform="translate(194.62,49.85)" d="M4,0A4,4 0 1,1 0,-4A4,4 0 0,1 4,0ZM0,0.5L0.5,0L0,-0.5L-0.5,0Z" style="opacity: 1; stroke: rgb(0, 0, 0); stroke-opacity: 1; stroke-width: 1px; fill: none;"/></g><g class="text"/></g></g></g><g class="overplot"/><path class="xlines-above crisp" d="M0,0" style="fill: none;"/><path class="ylines-above crisp" d="M0,0" style="fill: none;"/><g class="overlines-above"/><g class="xaxislayer-above"/><g class="yaxislayer-above"><g class="ytick"><text text-anchor="end" x="79" y="4.199999999999999" transform="translate(0,286)" style="font-family: 'Open Sans', verdana, arial, sans-serif; font-size: 12px; fill: rgb(42, 63, 95); fill-opacity: 1; white-space: pre; opacity: 1;">0</text></g><g class="ytick"><text text-anchor="end" x="79" y="4.199999999999999" style="font-family: 'Open Sans', verdana, arial, sans-serif; font-size: 12px; fill: rgb(42, 63, 95); fill-opacity: 1; white-space: pre; opacity: 1;" transform="translate(0,248.8)">50</text></g><g class="ytick"><text text-anchor="end" x="79" y="4.199999999999999" style="font-family: 'Open Sans', verdana, arial, sans-serif; font-size: 12px; fill: rgb(42, 63, 95); fill-opacity: 1; white-space: pre; opacity: 1;" transform="translate(0,211.6)">100</text></g><g class="ytick"><text text-anchor="end" x="79" y="4.199999999999999" style="font-family: 'Open Sans', verdana, arial, sans-serif; font-size: 12px; fill: rgb(42, 63, 95); fill-opacity: 1; white-space: pre; opacity: 1;" transform="translate(0,174.4)">150</text></g><g class="ytick"><text text-anchor="end" x="79" y="4.199999999999999" style="font-family: 'Open Sans', verdana, arial, sans-serif; font-size: 12px; fill: rgb(42, 63, 95); fill-opacity: 1; white-space: pre; opacity: 1;" transform="translate(0,137.2)">200</text></g><g class="ytick"><text text-anchor="end" x="79" y="4.199999999999999" style="font-family: 'Open Sans', verdana, arial, sans-serif; font-size: 12px; fill: rgb(42, 63, 95); fill-opacity: 1; white-space: pre; opacity: 1;" transform="translate(0,100)">250</text></g></g><g class="overaxes-above"/></g><g class="subplot x2y2"><g class="layer-subplot"><g class="shapelayer"/><g class="imagelayer"/></g><g class="minor-gridlayer"><g class="x2"/><g class="y2"/></g><g class="gridlayer"><g class="x2"><path class="x2grid crisp" transform="translate(156.15,0)" d="M0,317.00000000000006v185.99999999999997" style="stroke: rgb(255, 255, 255); stroke-opacity: 1; stroke-width: 1px;"/><path class="x2grid crisp" transform="translate(240.77,0)" d="M0,317.00000000000006v185.99999999999997" style="stroke: rgb(255, 255, 255); stroke-opacity: 1; stroke-width: 1px;"/><path class="x2grid crisp" transform="translate(325.38,0)" d="M0,317.00000000000006v185.99999999999997" style="stroke: rgb(255, 255, 255); stroke-opacity: 1; stroke-width: 1px;"/><path class="x2grid crisp" transform="translate(410,0)" d="M0,317.00000000000006v185.99999999999997" style="stroke: rgb(255, 255, 255); stroke-opacity: 1; stroke-width: 1px;"/><path class="x2grid crisp" transform="translate(494.62,0)" d="M0,317.00000000000006v185.99999999999997" style="stroke: rgb(255, 255, 255); stroke-opacity: 1; stroke-width: 1px;"/></g><g class="y2"><path class="y2grid crisp" transform="translate(0,472.00000000000006)" d="M80,0h440" style="stroke: rgb(255, 255, 255); stroke-opacity: 1; stroke-width: 1px;"/><path class="y2grid crisp" transform="translate(0,410.00000000000006)" d="M80,0h440" style="stroke: rgb(255, 255, 255); stroke-opacity: 1; stroke-width: 1px;"/><path class="y2grid crisp" transform="translate(0,348.00000000000006)" d="M80,0h440" style="stroke: rgb(255, 255, 255); stroke-opacity: 1; stroke-width: 1px;"/></g></g><g class="zerolinelayer"/><path class="xlines-below"/><path class="ylines-below"/><g class="overlines-below"/><g class="xaxislayer-below"/><g class="yaxislayer-below"/><g class="overaxes-below"/><g class="plot" transform="translate(80,317.00000000000006)" clip-path="url(#clip86f66cx2y2plot)"><g class="scatterlayer mlayer"><g class="trace scatter traced3f41a" style="stroke-miterlimit: 2;"><g class="fills"><g><path class="js-fill" d="M0,135.73L8.46,145.93L16.92,130.95L25.38,128.04L33.85,122.01L42.31,112.4L50.77,104.46L59.23,96.49L67.69,91.53L76.15,87.26L84.62,80.68L93.08,75.48L101.54,82.17L110,86.26L118.46,81.45L126.92,81.58L135.38,86.65L143.85,86.92L152.31,82.02L160.77,85.67L169.23,85.4L177.69,87.97L186.15,93.01L194.62,91.27L203.08,90.97L211.54,94.57L220,93.41L228.46,92.86L236.92,96.14L245.38,92.57L253.85,92.45L262.31,92.06L270.77,96.13L287.69,91L296.15,90.66L304.62,90.52L313.08,93.46L321.54,92.4L330,93.47L338.46,98.8L346.92,93.75L355.38,90.68L363.85,91.68L380.77,97.65L389.23,105.03L397.69,112.26L406.15,122.53L414.62,124.06L423.08,131.74L440,138.63L440,144.63L431.54,147.59L423.08,149.26L414.62,134.38L406.15,133.99L397.69,121.64L380.77,100.43L372.31,98.31L363.85,102.93L355.38,104.26L346.92,104.5L338.46,100.63L330,105.55L321.54,101.76L313.08,101.79L304.62,94.65L296.15,97.12L287.69,98.64L279.23,103.87L270.77,106.22L262.31,101.27L253.85,99.51L245.38,103.04L236.92,105.93L228.46,102.46L220,107.77L194.62,93.18L186.15,97.44L169.23,92.54L160.77,100.31L152.31,94.07L143.85,98.29L135.38,97.78L126.92,92.46L118.46,97.16L110,92.25L101.54,97.06L93.08,95.29L84.62,92.24L76.15,108.19L67.69,108.77L59.23,109.98L50.77,122.77L42.31,126.49L33.85,136.52L25.38,131.11L16.92,138.35L8.46,152.41L0,144.22Z" style="fill: rgb(145, 191, 219); fill-opacity: 1; stroke-width: 0;"/></g></g><g class="errorbars"/><g class="lines"><path class="js-line" d="M0,144.22L8.46,152.41L16.92,138.35L25.38,131.11L33.85,136.52L42.31,126.49L50.77,122.77L59.23,109.98L67.69,108.77L76.15,108.19L84.62,92.24L93.08,95.29L101.54,97.06L110,92.25L118.46,97.16L126.92,92.46L135.38,97.78L143.85,98.29L152.31,94.07L160.77,100.31L169.23,92.54L186.15,97.44L194.62,93.18L220,107.77L228.46,102.46L236.92,105.93L245.38,103.04L253.85,99.51L262.31,101.27L270.77,106.22L279.23,103.87L287.69,98.64L296.15,97.12L304.62,94.65L313.08,101.79L321.54,101.76L330,105.55L338.46,100.63L346.92,104.5L355.38,104.26L363.85,102.93L372.31,98.31L380.77,100.43L397.69,121.64L406.15,133.99L414.62,134.38L423.08,149.26L431.54,147.59L440,144.63" style="vector-effect: non-scaling-stroke; fill: none; stroke: rgb(0, 0, 0); stroke-opacity: 1; stroke-width: 0.25px; opacity: 1;"/></g><g class="points"/><g class="text"/></g><g class="trace scatter tracea93328" style="stroke-miterlimit: 2;"><g class="fills"><g><path class="js-fill" d="M0,130.7L8.46,134.69L16.92,126.32L25.38,121.36L33.85,114.94L42.31,104.94L50.77,97.86L59.23,90.24L67.69,79.02L76.15,79.31L84.62,68.04L93.08,63.41L101.54,74.25L110,73.31L118.46,71.16L126.92,75.74L135.38,77.44L143.85,81.32L152.31,73.92L160.77,79.17L169.23,80.57L177.69,82.45L186.15,85.16L194.62,87.57L203.08,87.15L211.54,86.46L220,88.04L228.46,88.35L236.92,90.03L245.38,87.09L253.85,88.02L270.77,90.04L279.23,89.32L287.69,88.04L296.15,88.24L304.62,86.36L313.08,88.8L321.54,89.36L330,87.28L338.46,89.38L346.92,89.56L355.38,84.11L363.85,89.33L380.77,95.17L389.23,102.62L397.69,107.71L406.15,115.64L414.62,119.54L423.08,121.59L431.54,130.63L440,130.62L440,138.63L423.08,131.74L414.62,124.06L406.15,122.53L397.69,112.26L389.23,105.03L380.77,97.65L363.85,91.68L355.38,90.68L346.92,93.75L338.46,98.8L330,93.47L321.54,92.4L313.08,93.46L304.62,90.52L296.15,90.66L287.69,91L270.77,96.13L262.31,92.06L253.85,92.45L245.38,92.57L236.92,96.14L228.46,92.86L220,93.41L211.54,94.57L203.08,90.97L194.62,91.27L186.15,93.01L177.69,87.97L169.23,85.4L160.77,85.67L152.31,82.02L143.85,86.92L135.38,86.65L126.92,81.58L118.46,81.45L110,86.26L101.54,82.17L93.08,75.48L84.62,80.68L76.15,87.26L67.69,91.53L59.23,96.49L50.77,104.46L42.31,112.4L33.85,122.01L25.38,128.04L16.92,130.95L8.46,145.93L0,135.73Z" style="fill: rgb(255, 255, 191); fill-opacity: 1; stroke-width: 0;"/></g></g><g class="errorbars"/><g class="lines"><path class="js-line" d="M0,135.73L8.46,145.93L16.92,130.95L25.38,128.04L33.85,122.01L42.31,112.4L50.77,104.46L59.23,96.49L67.69,91.53L76.15,87.26L84.62,80.68L93.08,75.48L101.54,82.17L110,86.26L118.46,81.45L126.92,81.58L135.38,86.65L143.85,86.92L152.31,82.02L160.77,85.67L169.23,85.4L177.69,87.97L186.15,93.01L194.62,91.27L203.08,90.97L211.54,94.57L220,93.41L228.46,92.86L236.92,96.14L245.38,92.57L253.85,92.45L262.31,92.06L270.77,96.13L287.69,91L296.15,90.66L304.62,90.52L313.08,93.46L321.54,92.4L330,93.47L338.46,98.8L346.92,93.75L355.38,90.68L363.85,91.68L380.77,97.65L389.23,105.03L397.69,112.26L406.15,122.53L414.62,124.06L423.08,131.74L440,138.63" style="vector-effect: non-scaling-stroke; fill: none; stroke: rgb(0, 0, 0); stroke-opacity: 1; stroke-width: 0.5px; opacity: 1;"/></g><g class="points"/><g class="text"/></g><g class="trace scatter tracee052eb" style="stroke-miterlimit: 2;"><g class="fills"><g><path class="js-fill" d="M0,124.55L8.46,126.26L16.92,118.78L25.38,118.54L33.85,110.74L42.31,99.12L50.77,91.09L59.23,85.64L67.69,72.82L76.15,70.01L84.62,62.25L93.08,58.69L101.54,57.06L110,66.1L118.46,66.26L126.92,66.43L135.38,62.16L143.85,70.77L152.31,69.93L160.77,69.83L169.23,75.35L177.69,73.84L186.15,78.21L194.62,81.44L203.08,83.24L211.54,81.25L220,80.59L228.46,83.1L236.92,82.79L245.38,81.94L253.85,82.22L262.31,81.36L270.77,84.9L279.23,79.72L287.69,83.14L296.15,82.22L304.62,83.49L313.08,82.45L321.54,84.01L330,80.06L338.46,79.43L346.92,80.63L355.38,80.97L363.85,82.92L372.31,89.65L380.77,94.13L389.23,99.86L397.69,101.36L406.15,109.28L423.08,118.51L431.54,120.01L440,118.08L440,130.62L431.54,130.63L423.08,121.59L414.62,119.54L406.15,115.64L397.69,107.71L389.23,102.62L380.77,95.17L363.85,89.33L355.38,84.11L346.92,89.56L338.46,89.38L330,87.28L321.54,89.36L313.08,88.8L304.62,86.36L296.15,88.24L287.69,88.04L279.23,89.32L270.77,90.04L253.85,88.02L245.38,87.09L236.92,90.03L228.46,88.35L220,88.04L211.54,86.46L203.08,87.15L194.62,87.57L186.15,85.16L177.69,82.45L169.23,80.57L160.77,79.17L152.31,73.92L143.85,81.32L135.38,77.44L126.92,75.74L118.46,71.16L110,73.31L101.54,74.25L93.08,63.41L84.62,68.04L76.15,79.31L67.69,79.02L59.23,90.24L50.77,97.86L42.31,104.94L33.85,114.94L25.38,121.36L16.92,126.32L8.46,134.69L0,130.7Z" style="fill: rgb(255, 255, 191); fill-opacity: 1; stroke-width: 0;"/></g></g><g class="errorbars"/><g class="lines"><path class="js-line" d="M0,130.7L8.46,134.69L16.92,126.32L25.38,121.36L33.85,114.94L42.31,104.94L50.77,97.86L59.23,90.24L67.69,79.02L76.15,79.31L84.62,68.04L93.08,63.41L101.54,74.25L110,73.31L118.46,71.16L126.92,75.74L135.38,77.44L143.85,81.32L152.31,73.92L160.77,79.17L169.23,80.57L177.69,82.45L186.15,85.16L194.62,87.57L203.08,87.15L211.54,86.46L220,88.04L228.46,88.35L236.92,90.03L245.38,87.09L253.85,88.02L270.77,90.04L279.23,89.32L287.69,88.04L296.15,88.24L304.62,86.36L313.08,88.8L321.54,89.36L330,87.28L338.46,89.38L346.92,89.56L355.38,84.11L363.85,89.33L380.77,95.17L389.23,102.62L397.69,107.71L406.15,115.64L414.62,119.54L423.08,121.59L431.54,130.63L440,130.62" style="vector-effect: non-scaling-stroke; fill: none; stroke: rgb(0, 0, 0); stroke-opacity: 1; stroke-width: 1px; opacity: 1;"/></g><g class="points"/><g class="text"/></g><g class="trace scatter traceaa3f69" style="stroke-miterlimit: 2;"><g class="fills"><g><path class="js-fill" d="M0,113.03L8.46,115.64L16.92,113.62L25.38,109.94L33.85,103.65L42.31,84.73L50.77,87.52L67.69,63.63L76.15,56.11L84.62,48.53L93.08,53.54L101.54,46.26L110,50.23L118.46,54.35L126.92,54.71L135.38,28.75L143.85,60.12L152.31,59.16L160.77,52.05L169.23,65.59L177.69,64.03L186.15,74.21L194.62,68.95L203.08,78.75L211.54,66.32L220,72.65L228.46,71.64L236.92,71.39L245.38,69.07L253.85,74.13L262.31,71.79L270.77,74.86L279.23,74.38L287.69,75.32L296.15,72.67L304.62,75.18L313.08,67.34L321.54,72.43L330,70.28L338.46,60.92L346.92,64.88L355.38,74.86L363.85,77.26L389.23,94.88L397.69,92.1L406.15,96.73L414.62,108.07L423.08,111.41L431.54,109.54L440,108.01L440,118.08L431.54,120.01L423.08,118.51L406.15,109.28L397.69,101.36L389.23,99.86L380.77,94.13L372.31,89.65L363.85,82.92L355.38,80.97L346.92,80.63L338.46,79.43L330,80.06L321.54,84.01L313.08,82.45L304.62,83.49L296.15,82.22L287.69,83.14L279.23,79.72L270.77,84.9L262.31,81.36L253.85,82.22L245.38,81.94L236.92,82.79L228.46,83.1L220,80.59L211.54,81.25L203.08,83.24L194.62,81.44L186.15,78.21L177.69,73.84L169.23,75.35L160.77,69.83L152.31,69.93L143.85,70.77L135.38,62.16L126.92,66.43L118.46,66.26L110,66.1L101.54,57.06L93.08,58.69L84.62,62.25L76.15,70.01L67.69,72.82L59.23,85.64L50.77,91.09L42.31,99.12L33.85,110.74L25.38,118.54L16.92,118.78L8.46,126.26L0,124.55Z" style="fill: rgb(252, 141, 89); fill-opacity: 1; stroke-width: 0;"/></g></g><g class="errorbars"/><g class="lines"><path class="js-line" d="M0,124.55L8.46,126.26L16.92,118.78L25.38,118.54L33.85,110.74L42.31,99.12L50.77,91.09L59.23,85.64L67.69,72.82L76.15,70.01L84.62,62.25L93.08,58.69L101.54,57.06L110,66.1L118.46,66.26L126.92,66.43L135.38,62.16L143.85,70.77L152.31,69.93L160.77,69.83L169.23,75.35L177.69,73.84L186.15,78.21L194.62,81.44L203.08,83.24L211.54,81.25L220,80.59L228.46,83.1L236.92,82.79L245.38,81.94L253.85,82.22L262.31,81.36L270.77,84.9L279.23,79.72L287.69,83.14L296.15,82.22L304.62,83.49L313.08,82.45L321.54,84.01L330,80.06L338.46,79.43L346.92,80.63L355.38,80.97L363.85,82.92L372.31,89.65L380.77,94.13L389.23,99.86L397.69,101.36L406.15,109.28L423.08,118.51L431.54,120.01L440,118.08" style="vector-effect: non-scaling-stroke; fill: none; stroke: rgb(0, 0, 0); stroke-opacity: 1; stroke-width: 0.5px; opacity: 1;"/></g><g class="points"/><g class="text"/></g><g class="trace scatter traceb473d9" style="stroke-miterlimit: 2;"><g class="fills"/><g class="errorbars"/><g class="lines"><path class="js-line" d="M0,113.03L8.46,115.64L16.92,113.62L25.38,109.94L33.85,103.65L42.31,84.73L50.77,87.52L67.69,63.63L76.15,56.11L84.62,48.53L93.08,53.54L101.54,46.26L110,50.23L118.46,54.35L126.92,54.71L135.38,28.75L143.85,60.12L152.31,59.16L160.77,52.05L169.23,65.59L177.69,64.03L186.15,74.21L194.62,68.95L203.08,78.75L211.54,66.32L220,72.65L228.46,71.64L236.92,71.39L245.38,69.07L253.85,74.13L262.31,71.79L270.77,74.86L279.23,74.38L287.69,75.32L296.15,72.67L304.62,75.18L313.08,67.34L321.54,72.43L330,70.28L338.46,60.92L346.92,64.88L355.38,74.86L363.85,77.26L389.23,94.88L397.69,92.1L406.15,96.73L414.62,108.07L423.08,111.41L431.54,109.54L440,108.01" style="vector-effect: non-scaling-stroke; fill: none; stroke: rgb(0, 0, 0); stroke-opacity: 1; stroke-width: 0.25px; opacity: 1;"/></g><g class="points"/><g class="text"/></g><g class="trace scatter trace373e69" style="stroke-miterlimit: 2; opacity: 1;"><g class="fills"/><g class="errorbars"/><g class="lines"/><g class="points"><path class="point" transform="translate(169.23,80.6)" d="M4,0A4,4 0 1,1 0,-4A4,4 0 0,1 4,0ZM0,0.5L0.5,0L0,-0.5L-0.5,0Z" style="opacity: 1; stroke: rgb(0, 0, 0); stroke-opacity: 1; stroke-width: 1px; fill: none;"/><path class="point" transform="translate(177.69,74.4)" d="M4,0A4,4 0 1,1 0,-4A4,4 0 0,1 4,0ZM0,0.5L0.5,0L0,-0.5L-0.5,0Z" style="opacity: 1; stroke: rgb(0, 0, 0); stroke-opacity: 1; stroke-width: 1px; fill: none;"/><path class="point" transform="translate(186.15,74.4)" d="M4,0A4,4 0 1,1 0,-4A4,4 0 0,1 4,0ZM0,0.5L0.5,0L0,-0.5L-0.5,0Z" style="opacity: 1; stroke: rgb(0, 0, 0); stroke-opacity: 1; stroke-width: 1px; fill: none;"/><path class="point" transform="translate(194.62,74.4)" d="M4,0A4,4 0 1,1 0,-4A4,4 0 0,1 4,0ZM0,0.5L0.5,0L0,-0.5L-0.5,0Z" style="opacity: 1; stroke: rgb(0, 0, 0); stroke-opacity: 1; stroke-width: 1px; fill: none;"/></g><g class="text"/></g></g></g><g class="overplot"/><path class="xlines-above crisp" d="M0,0" style="fill: none;"/><path class="ylines-above crisp" d="M0,0" style="fill: none;"/><g class="overlines-above"/><g class="xaxislayer-above"/><g class="yaxislayer-above"><g class="y2tick"><text text-anchor="end" x="79" y="4.199999999999999" transform="translate(0,472.00000000000006)" style="font-family: 'Open Sans', verdana, arial, sans-serif; font-size: 12px; fill: rgb(42, 63, 95); fill-opacity: 1; white-space: pre; opacity: 1;">20</text></g><g class="y2tick"><text text-anchor="end" x="79" y="4.199999999999999" style="font-family: 'Open Sans', verdana, arial, sans-serif; font-size: 12px; fill: rgb(42, 63, 95); fill-opacity: 1; white-space: pre; opacity: 1;" transform="translate(0,410.00000000000006)">30</text></g><g class="y2tick"><text text-anchor="end" x="79" y="4.199999999999999" style="font-family: 'Open Sans', verdana, arial, sans-serif; font-size: 12px; fill: rgb(42, 63, 95); fill-opacity: 1; white-space: pre; opacity: 1;" transform="translate(0,348.00000000000006)">40</text></g></g><g class="overaxes-above"/></g><g class="subplot x3y3"><g class="layer-subplot"><g class="shapelayer"/><g class="imagelayer"/></g><g class="minor-gridlayer"><g class="x3"/><g class="y3"/></g><g class="gridlayer"><g class="x3"><path class="x3grid crisp" transform="translate(156.15,0)" d="M0,534v186" style="stroke: rgb(255, 255, 255); stroke-opacity: 1; stroke-width: 1px;"/><path class="x3grid crisp" transform="translate(240.77,0)" d="M0,534v186" style="stroke: rgb(255, 255, 255); stroke-opacity: 1; stroke-width: 1px;"/><path class="x3grid crisp" transform="translate(325.38,0)" d="M0,534v186" style="stroke: rgb(255, 255, 255); stroke-opacity: 1; stroke-width: 1px;"/><path class="x3grid crisp" transform="translate(410,0)" d="M0,534v186" style="stroke: rgb(255, 255, 255); stroke-opacity: 1; stroke-width: 1px;"/><path class="x3grid crisp" transform="translate(494.62,0)" d="M0,534v186" style="stroke: rgb(255, 255, 255); stroke-opacity: 1; stroke-width: 1px;"/></g><g class="y3"><path class="y3grid crisp" transform="translate(0,682.8)" d="M80,0h440" style="stroke: rgb(255, 255, 255); stroke-opacity: 1; stroke-width: 1px;"/><path class="y3grid crisp" transform="translate(0,645.6)" d="M80,0h440" style="stroke: rgb(255, 255, 255); stroke-opacity: 1; stroke-width: 1px;"/><path class="y3grid crisp" transform="translate(0,608.4)" d="M80,0h440" style="stroke: rgb(255, 255, 255); stroke-opacity: 1; stroke-width: 1px;"/><path class="y3grid crisp" transform="translate(0,571.2)" d="M80,0h440" style="stroke: rgb(255, 255, 255); stroke-opacity: 1; stroke-width: 1px;"/></g></g><g class="zerolinelayer"/><path class="xlines-below"/><path class="ylines-below"/><g class="overlines-below"/><g class="xaxislayer-below"/><g class="yaxislayer-below"/><g class="overaxes-below"/><g class="plot" transform="translate(80,534)" clip-path="url(#clip86f66cx3y3plot)"><g class="scatterlayer mlayer"><g class="trace scatter trace490706" style="stroke-miterlimit: 2;"><g class="fills"><g><path class="js-fill" d="M0,117.45L8.46,124.73L16.92,120.62L25.38,122.86L33.85,117.18L42.31,104.55L50.77,99.22L59.23,91.08L67.69,79.95L76.15,78.76L84.62,69.63L93.08,67.9L101.54,60.62L110,59.9L118.46,57.72L126.92,51.75L135.38,53.25L143.85,51.04L152.31,45.93L160.77,44.88L169.23,41.43L177.69,39.55L186.15,39.99L194.62,38.74L203.08,38.56L220,37.94L228.46,38.97L253.85,40.21L262.31,39.16L270.77,38.91L279.23,39.79L304.62,41.48L313.08,42.14L330,42.71L338.46,46.02L346.92,51.5L355.38,48.72L363.85,58.05L372.31,63.11L380.77,69.69L389.23,80.39L397.69,92.17L406.15,101.78L414.62,103.49L423.08,117.36L431.54,116.97L440,131.55L440,139.48L431.54,138.36L423.08,125.97L414.62,120L406.15,114.91L397.69,109.38L389.23,94.94L380.77,79.21L372.31,72.27L363.85,58.51L355.38,51.52L346.92,53.89L330,46.9L321.54,46.39L313.08,47.75L304.62,44.57L296.15,42.39L287.69,41.59L279.23,43.64L270.77,43.79L262.31,42.57L253.85,44.51L245.38,44.3L236.92,41.5L220,41.56L211.54,41.19L203.08,42.21L194.62,41.99L186.15,43.54L177.69,42.21L169.23,44.12L160.77,50.81L152.31,51.17L143.85,56.41L135.38,64.58L126.92,63.11L118.46,64.45L110,70.29L101.54,73.37L93.08,75.92L84.62,86.92L76.15,88.55L67.69,87.45L59.23,109.81L50.77,111.34L42.31,123.67L33.85,141.38L25.38,137.36L16.92,136.52L8.46,141.49L0,123.42Z" style="fill: rgb(90, 180, 172); fill-opacity: 1; stroke-width: 0;"/></g></g><g class="errorbars"/><g class="lines"><path class="js-line" d="M0,123.42L8.46,141.49L16.92,136.52L25.38,137.36L33.85,141.38L42.31,123.67L50.77,111.34L59.23,109.81L67.69,87.45L76.15,88.55L84.62,86.92L93.08,75.92L101.54,73.37L110,70.29L118.46,64.45L126.92,63.11L135.38,64.58L143.85,56.41L152.31,51.17L160.77,50.81L169.23,44.12L177.69,42.21L186.15,43.54L194.62,41.99L203.08,42.21L211.54,41.19L220,41.56L236.92,41.5L245.38,44.3L253.85,44.51L262.31,42.57L270.77,43.79L279.23,43.64L287.69,41.59L296.15,42.39L304.62,44.57L313.08,47.75L321.54,46.39L330,46.9L346.92,53.89L355.38,51.52L363.85,58.51L372.31,72.27L380.77,79.21L389.23,94.94L397.69,109.38L406.15,114.91L414.62,120L423.08,125.97L431.54,138.36L440,139.48" style="vector-effect: non-scaling-stroke; fill: none; stroke: rgb(0, 0, 0); stroke-opacity: 1; stroke-width: 0.25px; opacity: 1;"/></g><g class="points"/><g class="text"/></g><g class="trace scatter trace9a2536" style="stroke-miterlimit: 2;"><g class="fills"><g><path class="js-fill" d="M0,114.01L8.46,118.64L16.92,112.82L25.38,107.76L33.85,108.91L42.31,97.09L50.77,91.35L59.23,83.75L67.69,73.34L76.15,70.22L84.62,63.13L93.08,57.51L101.54,54.71L110,56.46L118.46,52.83L126.92,46.89L135.38,48.24L143.85,48.26L152.31,44.23L160.77,40.84L169.23,39.93L186.15,37.44L194.62,37.41L228.46,36.75L236.92,38.2L253.85,39.31L262.31,35.44L270.77,37.33L279.23,38.34L287.69,38.11L296.15,39.38L313.08,40.36L321.54,39.88L330,40.16L338.46,43.71L346.92,44.45L355.38,47.3L363.85,54.3L372.31,59.95L380.77,65.59L389.23,76.44L397.69,84.33L406.15,86.66L414.62,97.8L423.08,101.87L431.54,110.12L440,119.82L440,131.55L431.54,116.97L423.08,117.36L414.62,103.49L406.15,101.78L397.69,92.17L389.23,80.39L380.77,69.69L372.31,63.11L363.85,58.05L355.38,48.72L346.92,51.5L338.46,46.02L330,42.71L313.08,42.14L304.62,41.48L279.23,39.79L270.77,38.91L262.31,39.16L253.85,40.21L228.46,38.97L220,37.94L203.08,38.56L194.62,38.74L186.15,39.99L177.69,39.55L169.23,41.43L160.77,44.88L152.31,45.93L143.85,51.04L135.38,53.25L126.92,51.75L118.46,57.72L110,59.9L101.54,60.62L93.08,67.9L84.62,69.63L76.15,78.76L67.69,79.95L59.23,91.08L50.77,99.22L42.31,104.55L33.85,117.18L25.38,122.86L16.92,120.62L8.46,124.73L0,117.45Z" style="fill: rgb(245, 245, 245); fill-opacity: 1; stroke-width: 0;"/></g></g><g class="errorbars"/><g class="lines"><path class="js-line" d="M0,117.45L8.46,124.73L16.92,120.62L25.38,122.86L33.85,117.18L42.31,104.55L50.77,99.22L59.23,91.08L67.69,79.95L76.15,78.76L84.62,69.63L93.08,67.9L101.54,60.62L110,59.9L118.46,57.72L126.92,51.75L135.38,53.25L143.85,51.04L152.31,45.93L160.77,44.88L169.23,41.43L177.69,39.55L186.15,39.99L194.62,38.74L203.08,38.56L220,37.94L228.46,38.97L253.85,40.21L262.31,39.16L270.77,38.91L279.23,39.79L304.62,41.48L313.08,42.14L330,42.71L338.46,46.02L346.92,51.5L355.38,48.72L363.85,58.05L372.31,63.11L380.77,69.69L389.23,80.39L397.69,92.17L406.15,101.78L414.62,103.49L423.08,117.36L431.54,116.97L440,131.55" style="vector-effect: non-scaling-stroke; fill: none; stroke: rgb(0, 0, 0); stroke-opacity: 1; stroke-width: 0.5px; opacity: 1;"/></g><g class="points"/><g class="text"/></g><g class="trace scatter traceb2b992" style="stroke-miterlimit: 2;"><g class="fills"><g><path class="js-fill" d="M0,106.2L8.46,112.7L16.92,106.7L25.38,104.8L33.85,97.53L42.31,89.24L50.77,84.43L59.23,77.02L67.69,65.84L76.15,65.01L84.62,53.17L93.08,52.9L101.54,50.39L110,51.77L118.46,45.2L135.38,42.31L143.85,42.21L169.23,35.55L177.69,34.79L203.08,34.67L211.54,36.05L228.46,34.07L236.92,35.9L253.85,36.07L262.31,33.97L304.62,37.81L313.08,38.2L330,37.91L338.46,40.62L346.92,40.51L355.38,44.83L363.85,49.56L372.31,56.42L380.77,61.64L389.23,69.78L397.69,74.35L406.15,79.97L414.62,87.35L423.08,89.02L431.54,97.42L440,116.43L440,119.82L431.54,110.12L423.08,101.87L414.62,97.8L406.15,86.66L397.69,84.33L389.23,76.44L380.77,65.59L372.31,59.95L363.85,54.3L355.38,47.3L346.92,44.45L338.46,43.71L330,40.16L321.54,39.88L313.08,40.36L296.15,39.38L287.69,38.11L279.23,38.34L270.77,37.33L262.31,35.44L253.85,39.31L236.92,38.2L228.46,36.75L194.62,37.41L186.15,37.44L169.23,39.93L160.77,40.84L152.31,44.23L143.85,48.26L135.38,48.24L126.92,46.89L118.46,52.83L110,56.46L101.54,54.71L93.08,57.51L84.62,63.13L76.15,70.22L67.69,73.34L59.23,83.75L50.77,91.35L42.31,97.09L33.85,108.91L25.38,107.76L16.92,112.82L8.46,118.64L0,114.01Z" style="fill: rgb(245, 245, 245); fill-opacity: 1; stroke-width: 0;"/></g></g><g class="errorbars"/><g class="lines"><path class="js-line" d="M0,114.01L8.46,118.64L16.92,112.82L25.38,107.76L33.85,108.91L42.31,97.09L50.77,91.35L59.23,83.75L67.69,73.34L76.15,70.22L84.62,63.13L93.08,57.51L101.54,54.71L110,56.46L118.46,52.83L126.92,46.89L135.38,48.24L143.85,48.26L152.31,44.23L160.77,40.84L169.23,39.93L186.15,37.44L194.62,37.41L228.46,36.75L236.92,38.2L253.85,39.31L262.31,35.44L270.77,37.33L279.23,38.34L287.69,38.11L296.15,39.38L313.08,40.36L321.54,39.88L330,40.16L338.46,43.71L346.92,44.45L355.38,47.3L363.85,54.3L372.31,59.95L380.77,65.59L389.23,76.44L397.69,84.33L406.15,86.66L414.62,97.8L423.08,101.87L431.54,110.12L440,119.82" style="vector-effect: non-scaling-stroke; fill: none; stroke: rgb(0, 0, 0); stroke-opacity: 1; stroke-width: 1px; opacity: 1;"/></g><g class="points"/><g class="text"/></g><g class="trace scatter tracedd9aa0" style="stroke-miterlimit: 2;"><g class="fills"><g><path class="js-fill" d="M0,98.53L8.46,101.47L16.92,94.89L25.38,93.39L33.85,92.9L42.31,78.76L50.77,67.93L59.23,67.25L67.69,52.53L76.15,48.29L84.62,47.9L93.08,40.94L101.54,42.66L118.46,41.59L126.92,39.64L135.38,33.57L143.85,30.92L152.31,33.13L160.77,31.5L169.23,27.65L177.69,28.7L186.15,30.55L194.62,30.43L203.08,30.57L211.54,33.32L220,32.54L228.46,32.93L236.92,33.23L245.38,30.49L253.85,31.84L262.31,26.21L279.23,34.36L287.69,29.48L296.15,34.56L304.62,37L313.08,37.46L321.54,32.06L330,36.59L338.46,35.07L346.92,30.34L355.38,41.81L363.85,42.41L372.31,52.54L380.77,56L389.23,61.58L397.69,68.7L406.15,68.69L414.62,75.58L423.08,80.23L431.54,91.66L440,96.93L440,116.43L431.54,97.42L423.08,89.02L414.62,87.35L406.15,79.97L397.69,74.35L389.23,69.78L380.77,61.64L372.31,56.42L363.85,49.56L355.38,44.83L346.92,40.51L338.46,40.62L330,37.91L313.08,38.2L304.62,37.81L262.31,33.97L253.85,36.07L236.92,35.9L228.46,34.07L211.54,36.05L203.08,34.67L177.69,34.79L169.23,35.55L143.85,42.21L135.38,42.31L118.46,45.2L110,51.77L101.54,50.39L93.08,52.9L84.62,53.17L76.15,65.01L67.69,65.84L59.23,77.02L50.77,84.43L42.31,89.24L33.85,97.53L25.38,104.8L16.92,106.7L8.46,112.7L0,106.2Z" style="fill: rgb(216, 179, 101); fill-opacity: 1; stroke-width: 0;"/></g></g><g class="errorbars"/><g class="lines"><path class="js-line" d="M0,106.2L8.46,112.7L16.92,106.7L25.38,104.8L33.85,97.53L42.31,89.24L50.77,84.43L59.23,77.02L67.69,65.84L76.15,65.01L84.62,53.17L93.08,52.9L101.54,50.39L110,51.77L118.46,45.2L135.38,42.31L143.85,42.21L169.23,35.55L177.69,34.79L203.08,34.67L211.54,36.05L228.46,34.07L236.92,35.9L253.85,36.07L262.31,33.97L304.62,37.81L313.08,38.2L330,37.91L338.46,40.62L346.92,40.51L355.38,44.83L363.85,49.56L372.31,56.42L380.77,61.64L389.23,69.78L397.69,74.35L406.15,79.97L414.62,87.35L423.08,89.02L431.54,97.42L440,116.43" style="vector-effect: non-scaling-stroke; fill: none; stroke: rgb(0, 0, 0); stroke-opacity: 1; stroke-width: 0.5px; opacity: 1;"/></g><g class="points"/><g class="text"/></g><g class="trace scatter trace4a57d0" style="stroke-miterlimit: 2;"><g class="fills"/><g class="errorbars"/><g class="lines"><path class="js-line" d="M0,98.53L8.46,101.47L16.92,94.89L25.38,93.39L33.85,92.9L42.31,78.76L50.77,67.93L59.23,67.25L67.69,52.53L76.15,48.29L84.62,47.9L93.08,40.94L101.54,42.66L118.46,41.59L126.92,39.64L135.38,33.57L143.85,30.92L152.31,33.13L160.77,31.5L169.23,27.65L177.69,28.7L186.15,30.55L194.62,30.43L203.08,30.57L211.54,33.32L220,32.54L228.46,32.93L236.92,33.23L245.38,30.49L253.85,31.84L262.31,26.21L279.23,34.36L287.69,29.48L296.15,34.56L304.62,37L313.08,37.46L321.54,32.06L330,36.59L338.46,35.07L346.92,30.34L355.38,41.81L363.85,42.41L372.31,52.54L380.77,56L389.23,61.58L397.69,68.7L406.15,68.69L414.62,75.58L423.08,80.23L431.54,91.66L440,96.93" style="vector-effect: non-scaling-stroke; fill: none; stroke: rgb(0, 0, 0); stroke-opacity: 1; stroke-width: 0.25px; opacity: 1;"/></g><g class="points"/><g class="text"/></g><g class="trace scatter tracebe14fa" style="stroke-miterlimit: 2; opacity: 1;"><g class="fills"/><g class="errorbars"/><g class="lines"/><g class="points"><path class="point" transform="translate(169.23,37.2)" d="M4,0A4,4 0 1,1 0,-4A4,4 0 0,1 4,0ZM0,0.5L0.5,0L0,-0.5L-0.5,0Z" style="opacity: 1; stroke: rgb(0, 0, 0); stroke-opacity: 1; stroke-width: 1px; fill: none;"/><path class="point" transform="translate(177.69,37.2)" d="M4,0A4,4 0 1,1 0,-4A4,4 0 0,1 4,0ZM0,0.5L0.5,0L0,-0.5L-0.5,0Z" style="opacity: 1; stroke: rgb(0, 0, 0); stroke-opacity: 1; stroke-width: 1px; fill: none;"/><path class="point" transform="translate(186.15,29.76)" d="M4,0A4,4 0 1,1 0,-4A4,4 0 0,1 4,0ZM0,0.5L0.5,0L0,-0.5L-0.5,0Z" style="opacity: 1; stroke: rgb(0, 0, 0); stroke-opacity: 1; stroke-width: 1px; fill: none;"/><path class="point" transform="translate(194.62,29.76)" d="M4,0A4,4 0 1,1 0,-4A4,4 0 0,1 4,0ZM0,0.5L0.5,0L0,-0.5L-0.5,0Z" style="opacity: 1; stroke: rgb(0, 0, 0); stroke-opacity: 1; stroke-width: 1px; fill: none;"/></g><g class="text"/></g></g></g><g class="overplot"/><path class="xlines-above crisp" d="M0,0" style="fill: none;"/><path class="ylines-above crisp" d="M0,0" style="fill: none;"/><g class="overlines-above"/><g class="xaxislayer-above"><g class="x3tick"><text text-anchor="middle" x="0" y="733" transform="translate(156.15,0)" style="font-family: 'Open Sans', verdana, arial, sans-serif; font-size: 12px; fill: rgb(42, 63, 95); fill-opacity: 1; white-space: pre; opacity: 1;">10</text></g><g class="x3tick"><text text-anchor="middle" x="0" y="733" style="font-family: 'Open Sans', verdana, arial, sans-serif; font-size: 12px; fill: rgb(42, 63, 95); fill-opacity: 1; white-space: pre; opacity: 1;" transform="translate(240.77,0)">20</text></g><g class="x3tick"><text text-anchor="middle" x="0" y="733" style="font-family: 'Open Sans', verdana, arial, sans-serif; font-size: 12px; fill: rgb(42, 63, 95); fill-opacity: 1; white-space: pre; opacity: 1;" transform="translate(325.38,0)">30</text></g><g class="x3tick"><text text-anchor="middle" x="0" y="733" style="font-family: 'Open Sans', verdana, arial, sans-serif; font-size: 12px; fill: rgb(42, 63, 95); fill-opacity: 1; white-space: pre; opacity: 1;" transform="translate(410,0)">40</text></g><g class="x3tick"><text text-anchor="middle" x="0" y="733" style="font-family: 'Open Sans', verdana, arial, sans-serif; font-size: 12px; fill: rgb(42, 63, 95); fill-opacity: 1; white-space: pre; opacity: 1;" transform="translate(494.62,0)">50</text></g></g><g class="yaxislayer-above"><g class="y3tick"><text text-anchor="end" x="79" y="4.199999999999999" transform="translate(0,720)" style="font-family: 'Open Sans', verdana, arial, sans-serif; font-size: 12px; fill: rgb(42, 63, 95); fill-opacity: 1; white-space: pre; opacity: 1;">5</text></g><g class="y3tick"><text text-anchor="end" x="79" y="4.199999999999999" style="font-family: 'Open Sans', verdana, arial, sans-serif; font-size: 12px; fill: rgb(42, 63, 95); fill-opacity: 1; white-space: pre; opacity: 1;" transform="translate(0,682.8)">10</text></g><g class="y3tick"><text text-anchor="end" x="79" y="4.199999999999999" style="font-family: 'Open Sans', verdana, arial, sans-serif; font-size: 12px; fill: rgb(42, 63, 95); fill-opacity: 1; white-space: pre; opacity: 1;" transform="translate(0,645.6)">15</text></g><g class="y3tick"><text text-anchor="end" x="79" y="4.199999999999999" style="font-family: 'Open Sans', verdana, arial, sans-serif; font-size: 12px; fill: rgb(42, 63, 95); fill-opacity: 1; white-space: pre; opacity: 1;" transform="translate(0,608.4)">20</text></g><g class="y3tick"><text text-anchor="end" x="79" y="4.199999999999999" style="font-family: 'Open Sans', verdana, arial, sans-serif; font-size: 12px; fill: rgb(42, 63, 95); fill-opacity: 1; white-space: pre; opacity: 1;" transform="translate(0,571.2)">25</text></g><g class="y3tick"><text text-anchor="end" x="79" y="4.199999999999999" style="font-family: 'Open Sans', verdana, arial, sans-serif; font-size: 12px; fill: rgb(42, 63, 95); fill-opacity: 1; white-space: pre; opacity: 1;" transform="translate(0,534)">30</text></g></g><g class="overaxes-above"/></g></g><g class="polarlayer"/><g class="smithlayer"/><g class="ternarylayer"/><g class="geolayer"/><g class="funnelarealayer"/><g class="pielayer"/><g class="iciclelayer"/><g class="treemaplayer"/><g class="sunburstlayer"/><g class="glimages"/><defs id="topdefs-86f66c"><g class="clips"/></defs><g class="layer-above"><g class="imagelayer"/><g class="shapelayer"/></g><g class="infolayer"><g class="g-gtitle"><text class="gtitle" x="30" y="50" text-anchor="start" dy="0em" style="font-family: 'Open Sans', verdana, arial, sans-serif; font-size: 17px; fill: rgb(42, 63, 95); opacity: 1; font-weight: normal; white-space: pre;">Climatology and S2S forecast for Comilla</text></g><g class="g-xtitle"/><g class="g-x2title"/><g class="g-x3title"/><g class="g-ytitle"><text class="ytitle" transform="rotate(-90,34.16875,193)" x="34.16875" y="193" text-anchor="middle" style="font-family: 'Open Sans', verdana, arial, sans-serif; font-size: 14px; fill: rgb(42, 63, 95); opacity: 1; font-weight: normal; white-space: pre;">[mm]</text></g><g class="g-y2title"><text class="y2title" transform="rotate(-90,40.840625,410.00000000000006)" x="40.840625" y="410.00000000000006" text-anchor="middle" style="font-family: 'Open Sans', verdana, arial, sans-serif; font-size: 14px; fill: rgb(42, 63, 95); opacity: 1; font-weight: normal; white-space: pre;">[C]</text></g><g class="g-y3title"><text class="y3title" transform="rotate(-90,40.840625,627)" x="40.840625" y="627" text-anchor="middle" style="font-family: 'Open Sans', verdana, arial, sans-serif; font-size: 14px; fill: rgb(42, 63, 95); opacity: 1; font-weight: normal; white-space: pre;">[C]</text></g><g class="annotation" data-index="0" style="opacity: 1;"><g class="annotation-text-g" transform="rotate(0,300,89.5)"><g class="cursor-pointer" transform="translate(237,79)"><rect class="bg" x="0.5" y="0.5" width="126" height="20" style="stroke-width: 1px; stroke: rgb(0, 0, 0); stroke-opacity: 0; fill: rgb(0, 0, 0); fill-opacity: 0;"/><text class="annotation-text" text-anchor="middle" x="63.359375" y="16" style="font-family: 'Open Sans', verdana, arial, sans-serif; font-size: 16px; fill: rgb(42, 63, 95); fill-opacity: 1; white-space: pre;">Precipitation sum</text></g></g></g><g class="annotation" data-index="1" style="opacity: 1;"><g class="annotation-text-g" transform="rotate(0,300,306.50000000000006)"><g class="cursor-pointer" transform="translate(196,296)"><rect class="bg" x="0.5" y="0.5" width="208" height="20" style="stroke-width: 1px; stroke: rgb(0, 0, 0); stroke-opacity: 0; fill: rgb(0, 0, 0); fill-opacity: 0;"/><text class="annotation-text" text-anchor="middle" x="104.265625" y="16" style="font-family: 'Open Sans', verdana, arial, sans-serif; font-size: 16px; fill: rgb(42, 63, 95); fill-opacity: 1; white-space: pre;">Mean maximum temperature</text></g></g></g><g class="annotation" data-index="2" style="opacity: 1;"><g class="annotation-text-g" transform="rotate(0,300,523.5)"><g class="cursor-pointer" transform="translate(198,513)"><rect class="bg" x="0.5" y="0.5" width="203" height="20" style="stroke-width: 1px; stroke: rgb(0, 0, 0); stroke-opacity: 0; fill: rgb(0, 0, 0); fill-opacity: 0;"/><text class="annotation-text" text-anchor="middle" x="102.046875" y="16" style="font-family: 'Open Sans', verdana, arial, sans-serif; font-size: 16px; fill: rgb(42, 63, 95); fill-opacity: 1; white-space: pre;">Mean minimum temperature</text></g></g></g><g class="annotation" data-index="3" style="opacity: 1;"><g class="annotation-text-g" transform="rotate(0,300,760.5)"><g class="cursor-pointer" transform="translate(277,750)"><rect class="bg" x="0.5" y="0.5" width="45" height="20" style="stroke-width: 1px; stroke: rgb(0, 0, 0); stroke-opacity: 0; fill: rgb(0, 0, 0); fill-opacity: 0;"/><text class="annotation-text" text-anchor="middle" x="22.3125" y="16" style="font-family: 'Open Sans', verdana, arial, sans-serif; font-size: 16px; fill: rgb(42, 63, 95); fill-opacity: 1; white-space: pre;">Week</text></g></g></g></g></svg>