<svg class="main-svg" xmlns="http://www.w3.org/2000/svg" xmlns:xlink="http://www.w3.org/1999/xlink" width="600" height="800" style="" viewBox="0 0 600 800"><rect x="0" y="0" width="600" height="800" style="fill: rgb(255, 255, 255); fill-opacity: 1;"/><defs id="defs-59b32a"><g class="clips"><clipPath id="clip59b32axyplot" class="plotclip"><rect width="440" height="186.00000000000003"/></clipPath><clipPath id="clip59b32ax2y2plot" class="plotclip"><rect width="440" height="185.99999999999997"/></clipPath><clipPath id="clip59b32ax3y3plot" class="plotclip"><rect width="440" height="186"/></clipPath><clipPath class="axesclip" id="clip59b32ax"><rect x="80" y="0" width="440" height="800"/></clipPath><clipPath class="axesclip" id="clip59b32ay"><rect x="0" y="100" width="600" height="186.00000000000003"/></clipPath><clipPath class="axesclip" id="clip59b32axy"><rect x="80" y="100" width="440" height="186.00000000000003"/></clipPath><clipPath class="axesclip" id="clip59b32ay2"><rect x="0" y="317.00000000000006" width="600" height="185.99999999999997"/></clipPath><clipPath class="axesclip" id="clip59b32axy2"><rect x="80" y="317.00000000000006" width="440" height="185.99999999999997"/></clipPath><clipPath class="axesclip" id="clip59b32ay3"><rect x="0" y="534" width="600" height="186"/></clipPath><clipPath class="axesclip" id="clip59b32axy3"><rect x="80" y="534" width="440" height="186"/></clipPath><clipPath class="axesclip" id="clip59b32ax2"><rect x="80" y="0" width="440" height="800"/></clipPath><clipPath class="axesclip" id="clip59b32ax2y"><rect x="80" y="100" width="440" height="186.00000000000003"/></clipPath><clipPath class="axesclip" id="clip59b32ax2y2"><rect x="80" y="317.00000000000006" width="440" height="185.99999999999997"/></clipPath><clipPath class="axesclip" id="clip59b32ax2y3"><rect x="80" y="534" width="440" height="186"/></clipPath><clipPath class="axesclip" id="clip59b32ax3"><rect x="80" y="0" width="440" height="800"/></clipPath><clipPath class="axesclip" id="clip59b32ax3y"><rect x="80" y="100" width="440" height="186.00000000000003"/></clipPath><clipPath class="axesclip" id="clip59b32ax3y2"><rect x="80" y="317.00000000000006" width="440" height="185.99999999999997"/></clipPath><clipPath class="axesclip" id="clip59b32ax3y3"><rect x="80" y="534" width="440" height="186"/></clipPath></g><g class="gradients"/><g class="patterns"/></defs><g class="bglayer"><rect class="bg" x="80" y="100" width="440" height="186.00000000000003" style="fill: rgb(229, 236, 246); fill-opacity: 1; stroke-width: 0;"/><rect class="bg" x="80" y="317.00000000000006" width="440" height="185.99999999999997" style="fill: rgb(229, 236, 246); fill-opacity: 1; stroke-width: 0;"/><rect class="bg" x="80" y="534" width="440" height="186" style="fill: rgb(229, 236, 246); fill-opacity: 1; stroke-width: 0;"/></g><g class="layer-below"><g class="imagelayer"/><g class="shapelayer"/></g><g class="cartesianlayer"><g class="subplot xy"><g class="layer-subplot"><g class="shapelayer"/><g class="imagelayer"/></g><g class="minor-gridlayer"><g class="x"/><g class="y"/></g><g class="gridlayer"><g class="x"><path class="xgrid crisp" transform="translate(156.15,0)" d="M0,100v186.00000000000003" style="stroke: rgb(255, 255, 255); stroke-opacity: 1; stroke-width: 1px;"/><path class="xgrid crisp" transform="translate(240.77,0)" d="M0,100v186.00000000000003" style="stroke: rgb(255, 255, 255); stroke-opacity: 1; stroke-width: 1px;"/><path class="xgrid crisp" transform="translate(325.38,0)" d="M0,100v186.00000000000003" style="stroke: rgb(255, 255, 255); stroke-opacity: 1; stroke-width: 1px;"/><path class="xgrid crisp" transform="translate(410,0)" d="M0,100v186.00000000000003" style="stroke: rgb(255, 255, 255); stroke-opacity: 1; stroke-width: 1px;"/><path class="xgrid crisp" transform="translate(494.62,0)" d="M0,100v186.00000000000003" style="stroke: rgb(255, 255, 255); stroke-opacity: 1; stroke-width: 1px;"/></g><g class="y"><path class="ygrid crisp" transform="translate(0,248.8)" d="M80,0h440" style="stroke: rgb(255, 255, 255); stroke-opacity: 1; stroke-width: 1px;"/><path class="ygrid crisp" transform="translate(0,211.6)" d="M80,0h440" style="stroke: rgb(255, 255, 255); stroke-opacity: 1; stroke-width: 1px;"/><path class="ygrid crisp" transform="translate(0,174.4)" d="M80,0h440" style="stroke: rgb(255, 255, 255); stroke-opacity: 1; stroke-width: 1px;"/><path class="ygrid crisp" transform="translate(0,137.2)" d="M80,0h440" style="stroke: rgb(255, 255, 255); stroke-opacity: 1; stroke-width: 1px;"/></g></g><g class="zerolinelayer"><path class="yzl zl crisp" transform="translate(0,286)" d="M80,0h440" style="stroke: rgb(255, 255, 255); stroke-opacity: 1; stroke-width: 2px;"/></g><path class="xlines-below"/><path class="ylines-below"/><g class="overlines-below"/><g class="xaxislayer-below"/><g class="yaxislayer-below"/><g class="overaxes-below"/><g class="plot" transform="translate(80,100)" clip-path="url(#clip59b32axyplot)"><g class="scatterlayer mlayer"><g class="trace scatter trace285878" style="stroke-miterlimit: 2;"><g class="fills"><g><path class="js-fill" d="M0,186L126.92,185.55L135.38,184.81L143.85,176.14L152.31,181.54L160.77,182.71L169.23,178.16L177.69,171.26L186.15,174.21L194.62,174.17L203.08,172.55L211.54,172.98L220,171.43L228.46,169.22L236.92,165.62L245.38,162.37L253.85,170.76L262.31,166.82L270.77,152.97L279.23,169.74L287.69,177.33L296.15,173.65L304.62,172.24L313.08,164.46L321.54,177.38L330,183.33L338.46,182.79L346.92,185.55L355.38,186L440,186L440,186L406.15,186L397.69,186L313.08,185.92L304.62,185.92L296.15,183.47L287.69,185.98L279.23,179.66L270.77,177.8L262.31,182.48L253.85,182.65L245.38,185.9L236.92,181.06L228.46,184.85L220,186L211.54,185.1L203.08,185.93L0,186Z" style="fill: rgb(224, 236, 244); fill-opacity: 1; stroke-width: 0;"/></g></g><g class="errorbars"/><g class="lines"><path class="js-line" d="M0,186L203.08,185.93L211.54,185.1L220,186L228.46,184.85L236.92,181.06L245.38,185.9L253.85,182.65L262.31,182.48L270.77,177.8L279.23,179.66L287.69,185.98L296.15,183.47L304.62,185.92L313.08,185.92L397.69,186L406.15,186L440,186" style="vector-effect: non-scaling-stroke; fill: none; stroke: rgb(0, 0, 0); stroke-opacity: 1; stroke-width: 0.25px; opacity: 1;"/></g><g class="points"/><g class="text"/></g><g class="trace scatter trace116ce7" style="stroke-miterlimit: 2;"><g class="fills"><g><path class="js-fill" d="M0,186L93.08,185.86L101.54,183.07L110,181.1L118.46,181.21L126.92,179.44L135.38,181.84L143.85,165.99L152.31,168.39L160.77,170L169.23,152.22L177.69,163.74L186.15,158.84L194.62,158.65L203.08,145.86L211.54,147.18L220,158.16L228.46,156.82L236.92,147.01L245.38,156.33L253.85,162.87L262.31,152.79L270.77,141.21L279.23,155.97L287.69,163.38L296.15,162.1L304.62,149.54L313.08,160.24L321.54,158.39L330,169.42L338.46,172.34L346.92,176.06L355.38,186L363.85,185.58L372.31,186L440,186L440,186L355.38,186L346.92,185.55L338.46,182.79L330,183.33L321.54,177.38L313.08,164.46L304.62,172.24L296.15,173.65L287.69,177.33L279.23,169.74L270.77,152.97L262.31,166.82L253.85,170.76L245.38,162.37L236.92,165.62L228.46,169.22L220,171.43L211.54,172.98L203.08,172.55L194.62,174.17L186.15,174.21L177.69,171.26L169.23,178.16L160.77,182.71L152.31,181.54L143.85,176.14L135.38,184.81L126.92,185.55L0,186Z" style="fill: rgb(158, 188, 218); fill-opacity: 1; stroke-width: 0;"/></g></g><g class="errorbars"/><g class="lines"><path class="js-line" d="M0,186L126.92,185.55L135.38,184.81L143.85,176.14L152.31,181.54L160.77,182.71L169.23,178.16L177.69,171.26L186.15,174.21L194.62,174.17L203.08,172.55L211.54,172.98L220,171.43L228.46,169.22L236.92,165.62L245.38,162.37L253.85,170.76L262.31,166.82L270.77,152.97L279.23,169.74L287.69,177.33L296.15,173.65L304.62,172.24L313.08,164.46L321.54,177.38L330,183.33L338.46,182.79L346.92,185.55L355.38,186L440,186" style="vector-effect: non-scaling-stroke; fill: none; stroke: rgb(0, 0, 0); stroke-opacity: 1; stroke-width: 0.5px; opacity: 1;"/></g><g class="points"/><g class="text"/></g><g class="trace scatter trace911d38" style="stroke-miterlimit: 2;"><g class="fills"><g><path class="js-fill" d="M0,186L42.31,185.02L50.77,183.24L59.23,182.98L67.69,184.61L76.15,179.96L84.62,183.31L93.08,178.86L101.54,169.13L110,170.5L118.46,168.58L126.92,164.06L135.38,167.09L143.85,151.17L152.31,161.39L160.77,155.6L169.23,129.7L177.69,137.4L186.15,137.69L194.62,135.11L203.08,119.23L211.54,104.63L220,117.62L228.46,115.75L236.92,134.04L245.38,137.68L253.85,138.09L262.31,134.06L270.77,121.58L279.23,149.59L287.69,149.56L296.15,137.7L304.62,135.89L313.08,118.39L321.54,125.94L330,134.4L338.46,130.28L363.85,179.56L372.31,184.17L380.77,186L389.23,186L440,186L440,186L372.31,186L363.85,185.58L355.38,186L346.92,176.06L338.46,172.34L330,169.42L321.54,158.39L313.08,160.24L304.62,149.54L296.15,162.1L287.69,163.38L279.23,155.97L270.77,141.21L262.31,152.79L253.85,162.87L245.38,156.33L236.92,147.01L228.46,156.82L220,158.16L211.54,147.18L203.08,145.86L194.62,158.65L186.15,158.84L177.69,163.74L169.23,152.22L160.77,170L152.31,168.39L143.85,165.99L135.38,181.84L126.92,179.44L118.46,181.21L110,181.1L101.54,183.07L93.08,185.86L0,186Z" style="fill: rgb(158, 188, 218); fill-opacity: 1; stroke-width: 0;"/></g></g><g class="errorbars"/><g class="lines"><path class="js-line" d="M0,186L93.08,185.86L101.54,183.07L110,181.1L118.46,181.21L126.92,179.44L135.38,181.84L143.85,165.99L152.31,168.39L160.77,170L169.23,152.22L177.69,163.74L186.15,158.84L194.62,158.65L203.08,145.86L211.54,147.18L220,158.16L228.46,156.82L236.92,147.01L245.38,156.33L253.85,162.87L262.31,152.79L270.77,141.21L279.23,155.97L287.69,163.38L296.15,162.1L304.62,149.54L313.08,160.24L321.54,158.39L330,169.42L338.46,172.34L346.92,176.06L355.38,186L363.85,185.58L372.31,186L440,186" style="vector-effect: non-scaling-stroke; fill: none; stroke: rgb(0, 0, 0); stroke-opacity: 1; stroke-width: 1px; opacity: 1;"/></g><g class="points"/><g class="text"/></g><g class="trace scatter trace2e5a9b" style="stroke-miterlimit: 2;"><g class="fills"><g><path class="js-fill" d="M0,186L16.92,185.93L25.38,186L42.31,184.33L50.77,182.87L59.23,182.44L67.69,183.75L76.15,171.96L84.62,181.48L93.08,173.89L101.54,144.86L110,154.83L118.46,143.05L126.92,151.94L135.38,154.2L143.85,123.29L152.31,133.27L160.77,130.28L169.23,85.56L177.69,96.24L186.15,100.22L194.62,83.6L203.08,53.61L211.54,64.84L220,64.36L228.46,68.67L236.92,98.52L245.38,101.64L253.85,98.29L262.31,114.67L270.77,76.6L279.23,128.68L287.69,117.25L296.15,86.02L304.62,127.19L313.08,72.05L321.54,52.56L330,105.55L338.46,62.9L346.92,122.29L355.38,162.36L363.85,170.76L372.31,182.9L380.77,186L389.23,186L440,186L440,186L389.23,186L380.77,186L372.31,184.17L363.85,179.56L338.46,130.28L330,134.4L321.54,125.94L313.08,118.39L304.62,135.89L296.15,137.7L287.69,149.56L279.23,149.59L270.77,121.58L262.31,134.06L253.85,138.09L245.38,137.68L236.92,134.04L228.46,115.75L220,117.62L211.54,104.63L203.08,119.23L194.62,135.11L186.15,137.69L177.69,137.4L169.23,129.7L160.77,155.6L152.31,161.39L143.85,151.17L135.38,167.09L126.92,164.06L118.46,168.58L110,170.5L101.54,169.13L93.08,178.86L84.62,183.31L76.15,179.96L67.69,184.61L59.23,182.98L50.77,183.24L42.31,185.02L0,186Z" style="fill: rgb(136, 86, 167); fill-opacity: 1; stroke-width: 0;"/></g></g><g class="errorbars"/><g class="lines"><path class="js-line" d="M0,186L42.31,185.02L50.77,183.24L59.23,182.98L67.69,184.61L76.15,179.96L84.62,183.31L93.08,178.86L101.54,169.13L110,170.5L118.46,168.58L126.92,164.06L135.38,167.09L143.85,151.17L152.31,161.39L160.77,155.6L169.23,129.7L177.69,137.4L186.15,137.69L194.62,135.11L203.08,119.23L211.54,104.63L220,117.62L228.46,115.75L236.92,134.04L245.38,137.68L253.85,138.09L262.31,134.06L270.77,121.58L279.23,149.59L287.69,149.56L296.15,137.7L304.62,135.89L313.08,118.39L321.54,125.94L330,134.4L338.46,130.28L363.85,179.56L372.31,184.17L380.77,186L389.23,186L440,186" style="vector-effect: non-scaling-stroke; fill: none; stroke: rgb(0, 0, 0); stroke-opacity: 1; stroke-width: 0.5px; opacity: 1;"/></g><g class="points"/><g class="text"/></g><g class="trace scatter tracebf20bd" style="stroke-miterlimit: 2;"><g class="fills"/><g class="errorbars"/><g class="lines"><path class="js-line" d="M0,186L16.92,185.93L25.38,186L42.31,184.33L50.77,182.87L59.23,182.44L67.69,183.75L76.15,171.96L84.62,181.48L93.08,173.89L101.54,144.86L110,154.83L118.46,143.05L126.92,151.94L135.38,154.2L143.85,123.29L152.31,133.27L160.77,130.28L169.23,85.56L177.69,96.24L186.15,100.22L194.62,83.6L203.08,53.61L211.54,64.84L220,64.36L228.46,68.67L236.92,98.52L245.38,101.64L253.85,98.29L262.31,114.67L270.77,76.6L279.23,128.68L287.69,117.25L296.15,86.02L304.62,127.19L313.08,72.05L321.54,52.56L330,105.55L338.46,62.9L346.92,122.29L355.38,162.36L363.85,170.76L372.31,182.9L380.77,186L389.23,186L440,186" style="vector-effect: non-scaling-stroke; fill: none; stroke: rgb(0, 0, 0); stroke-opacity: 1; stroke-width: 0.25px; opacity: 1;"/></g><g class="points"/><g class="text"/></g><g class="trace scatter trace0d5cd6" style="stroke-miterlimit: 2; opacity: 1;"><g class="fills"/><g class="errorbars"/><g class="lines"/><g class="points"><path class="point" transform="translate(169.23,154.01)" d="M4,0A4,4 0 1,1 0,-4A4,4 0 0,1 4,0ZM0,0.5L0.5,0L0,-0.5L-0.5,0Z" style="opacity: 1; stroke: rgb(0, 0, 0); stroke-opacity: 1; stroke-width: 1px; fill: none;"/><path class="point" transform="translate(177.69,160.7)" d="M4,0A4,4 0 1,1 0,-4A4,4 0 0,1 4,0ZM0,0.5L0.5,0L0,-0.5L-0.5,0Z" style="opacity: 1; stroke: rgb(0, 0, 0); stroke-opacity: 1; stroke-width: 1px; fill: none;"/><path class="point" transform="translate(186.15,122.02)" d="M4,0A4,4 0 1,1 0,-4A4,4 0 0,1 4,0ZM0,0.5L0.5,0L0,-0.5L-0.5,0Z" style="opacity: 1; stroke: rgb(0, 0, 0); stroke-opacity: 1; stroke-width: 1px; fill: none;"/><path class="point" transform="translate(194.62,122.02)" d="M4,0A4,4 0 1,1 0,-4A4,4 0 0,1 4,0ZM0,0.5L0.5,0L0,-0.5L-0.5,0Z" style="opacity: 1; stroke: rgb(0, 0, 0); stroke-opacity: 1; stroke-width: 1px; fill: none;"/></g><g class="text"/></g></g></g><g class="overplot"/><path class="xlines-above crisp" d="M0,0" style="fill: none;"/><path class="ylines-above crisp" d="M0,0" style="fill: none;"/><g class="overlines-above"/><g class="xaxislayer-above"/><g class="yaxislayer-above"><g class="ytick"><text text-anchor="end" x="79" y="4.199999999999999" transform="translate(0,286)" style="font-family: 'Open Sans', verdana, arial, sans-serif; font-size: 12px; fill: rgb(42, 63, 95); fill-opacity: 1; white-space: pre; opacity: 1;">0</text></g><g class="ytick"><text text-anchor="end" x="79" y="4.199999999999999" style="font-family: 'Open Sans', verdana, arial, sans-serif; font-size: 12px; fill: rgb(42, 63, 95); fill-opacity: 1; white-space: pre; opacity: 1;" transform="translate(0,248.8)">50</text></g><g class="ytick"><text text-anchor="end" x="79" y="4.199999999999999" style="font-family: 'Open Sans', verdana, arial, sans-serif; font-size: 12px; fill: rgb(42, 63, 95); fill-opacity: 1; white-space: pre; opacity: 1;" transform="translate(0,211.6)">100</text></g><g class="ytick"><text text-anchor="end" x="79" y="4.199999999999999" style="font-family: 'Open Sans', verdana, arial, sans-serif; font-size: 12px; fill: rgb(42, 63, 95); fill-opacity: 1; white-space: pre; opacity: 1;" transform="translate(0,174.4)">150</text></g><g class="ytick"><text text-anchor="end" x="79" y="4.199999999999999" style="font-family: 'Open Sans', verdana, arial, sans-serif; font-size: 12px; fill: rgb(42, 63, 95); fill-opacity: 1; white-space: pre; opacity: 1;" transform="translate(0,137.2)">200</text></g><g class="ytick"><text text-anchor="end" x="79" y="4.199999999999999" style="font-family: 'Open Sans', verdana, arial, sans-serif; font-size: 12px; fill: rgb(42, 63, 95); fill-opacity: 1; white-space: pre; opacity: 1;" transform="translate(0,100)">250</text></g></g><g class="overaxes-above"/></g><g class="subplot x2y2"><g class="layer-subplot"><g class="shapelayer"/><g class="imagelayer"/></g><g class="minor-gridlayer"><g class="x2"/><g class="y2"/></g><g class="gridlayer"><g class="x2"><path class="x2grid crisp" transform="translate(156.15,0)" d="M0,317.00000000000006v185.99999999999997" style="stroke: rgb(255, 255, 255); stroke-opacity: 1; stroke-width: 1px;"/><path class="x2grid crisp" transform="translate(240.77,0)" d="M0,317.00000000000006v185.99999999999997" style="stroke: rgb(255, 255, 255); stroke-opacity: 1; stroke-width: 1px;"/><path class="x2grid crisp" transform="translate(325.38,0)" d="M0,317.00000000000006v185.99999999999997" style="stroke: rgb(255, 255, 255); stroke-opacity: 1; stroke-width: 1px;"/><path class="x2grid crisp" transform="translate(410,0)" d="M0,317.00000000000006v185.99999999999997" style="stroke: rgb(255, 255, 255); stroke-opacity: 1; stroke-width: 1px;"/><path class="x2grid crisp" transform="translate(494.62,0)" d="M0,317.00000000000006v185.99999999999997" style="stroke: rgb(255, 255, 255); stroke-opacity: 1; stroke-width: 1px;"/></g><g class="y2"><path class="y2grid crisp" transform="translate(0,472.00000000000006)" d="M80,0h440" style="stroke: rgb(255, 255, 255); stroke-opacity: 1; stroke-width: 1px;"/><path class="y2grid crisp" transform="translate(0,410.00000000000006)" d="M80,0h440" style="stroke: rgb(255, 255, 255); stroke-opacity: 1; stroke-width: 1px;"/><path class="y2grid crisp" transform="translate(0,348.00000000000006)" d="M80,0h440" style="stroke: rgb(255, 255, 255); stroke-opacity: 1; stroke-width: 1px;"/></g></g><g class="zerolinelayer"/><path class="xlines-below"/><path class="ylines-below"/><g class="overlines-below"/><g class="xaxislayer-below"/><g class="yaxislayer-below"/><g class="overaxes-below"/><g class="plot" transform="translate(80,317.00000000000006)" clip-path="url(#clip59b32ax2y2plot)"><g class="scatterlayer mlayer"><g class="trace scatter trace17a0a8" style="stroke-miterlimit: 2;"><g class="fills"><g><path class="js-fill" d="M0,150.68L8.46,152.05L16.92,141.52L25.38,135.86L33.85,129.01L42.31,117.56L50.77,113.31L67.69,91.05L76.15,86.79L84.62,74.05L93.08,67.08L101.54,74.01L110,78.45L118.46,82.28L126.92,77.34L135.38,83.97L143.85,87.81L152.31,82.39L160.77,83.86L169.23,83.11L177.69,86.11L186.15,86.09L194.62,91.45L203.08,93.14L211.54,91.93L220,94.79L228.46,92.83L236.92,94.52L245.38,93.25L253.85,93.02L262.31,91.35L270.77,96.16L279.23,95.55L287.69,93.26L296.15,96.37L304.62,95.76L313.08,99.32L330,94.09L338.46,94.04L355.38,89.53L363.85,93.56L372.31,98.32L380.77,106.06L389.23,112.81L397.69,124.84L406.15,134.24L414.62,136.13L423.08,141.6L431.54,148.26L440,152.6L440,155.03L431.54,155L423.08,157.74L414.62,143.04L406.15,147.77L397.69,135.02L389.23,122.77L372.31,103.79L363.85,98.03L355.38,93.89L346.92,102.86L338.46,105.98L330,104.49L321.54,105.73L313.08,112L304.62,105.6L296.15,103.53L287.69,97.97L279.23,104.31L270.77,104.91L262.31,107.35L253.85,102.65L245.38,102.71L236.92,104.99L228.46,95.47L220,104.17L211.54,102.74L203.08,104.46L194.62,97.51L177.69,94.21L169.23,94.26L160.77,92.69L152.31,90.34L126.92,94.69L118.46,95.49L110,89.58L101.54,92.09L93.08,85.19L84.62,91.14L67.69,114.65L59.23,116.88L50.77,128.51L42.31,134.45L33.85,144.17L25.38,150.64L16.92,154.26L8.46,168.65L0,169.79Z" style="fill: rgb(145, 191, 219); fill-opacity: 1; stroke-width: 0;"/></g></g><g class="errorbars"/><g class="lines"><path class="js-line" d="M0,169.79L8.46,168.65L16.92,154.26L25.38,150.64L33.85,144.17L42.31,134.45L50.77,128.51L59.23,116.88L67.69,114.65L84.62,91.14L93.08,85.19L101.54,92.09L110,89.58L118.46,95.49L126.92,94.69L152.31,90.34L160.77,92.69L169.23,94.26L177.69,94.21L194.62,97.51L203.08,104.46L211.54,102.74L220,104.17L228.46,95.47L236.92,104.99L245.38,102.71L253.85,102.65L262.31,107.35L270.77,104.91L279.23,104.31L287.69,97.97L296.15,103.53L304.62,105.6L313.08,112L321.54,105.73L330,104.49L338.46,105.98L346.92,102.86L355.38,93.89L363.85,98.03L372.31,103.79L389.23,122.77L397.69,135.02L406.15,147.77L414.62,143.04L423.08,157.74L431.54,155L440,155.03" style="vector-effect: non-scaling-stroke; fill: none; stroke: rgb(0, 0, 0); stroke-opacity: 1; stroke-width: 0.25px; opacity: 1;"/></g><g class="points"/><g class="text"/></g><g class="trace scatter traceb24087" style="stroke-miterlimit: 2;"><g class="fills"><g><path class="js-fill" d="M0,140.78L8.46,142.66L16.92,135.42L25.38,131.89L33.85,122.65L42.31,111.21L50.77,103.06L67.69,80.82L76.15,75.5L84.62,65.65L93.08,59.61L101.54,63.25L110,69.7L118.46,64.22L126.92,65.05L143.85,78.96L152.31,74.34L160.77,75.61L169.23,78.38L177.69,80.16L186.15,82.92L194.62,83.44L203.08,86.85L211.54,88.39L220,87.79L228.46,89.03L236.92,92.48L262.31,86.25L270.77,89.49L279.23,88.05L287.69,91.54L296.15,92.8L304.62,91.78L321.54,89.78L330,85.84L338.46,84.05L346.92,85.72L355.38,86.45L363.85,92.46L372.31,93.45L380.77,100.84L389.23,107.25L397.69,114.65L406.15,125.57L414.62,128.41L423.08,132.31L431.54,140.6L440,139.28L440,152.6L431.54,148.26L423.08,141.6L414.62,136.13L406.15,134.24L397.69,124.84L389.23,112.81L380.77,106.06L372.31,98.32L363.85,93.56L355.38,89.53L338.46,94.04L330,94.09L313.08,99.32L304.62,95.76L296.15,96.37L287.69,93.26L279.23,95.55L270.77,96.16L262.31,91.35L253.85,93.02L245.38,93.25L236.92,94.52L228.46,92.83L220,94.79L211.54,91.93L203.08,93.14L194.62,91.45L186.15,86.09L177.69,86.11L169.23,83.11L160.77,83.86L152.31,82.39L143.85,87.81L135.38,83.97L126.92,77.34L118.46,82.28L110,78.45L101.54,74.01L93.08,67.08L84.62,74.05L76.15,86.79L67.69,91.05L50.77,113.31L42.31,117.56L33.85,129.01L25.38,135.86L16.92,141.52L8.46,152.05L0,150.68Z" style="fill: rgb(255, 255, 191); fill-opacity: 1; stroke-width: 0;"/></g></g><g class="errorbars"/><g class="lines"><path class="js-line" d="M0,150.68L8.46,152.05L16.92,141.52L25.38,135.86L33.85,129.01L42.31,117.56L50.77,113.31L67.69,91.05L76.15,86.79L84.62,74.05L93.08,67.08L101.54,74.01L110,78.45L118.46,82.28L126.92,77.34L135.38,83.97L143.85,87.81L152.31,82.39L160.77,83.86L169.23,83.11L177.69,86.11L186.15,86.09L194.62,91.45L203.08,93.14L211.54,91.93L220,94.79L228.46,92.83L236.92,94.52L245.38,93.25L253.85,93.02L262.31,91.35L270.77,96.16L279.23,95.55L287.69,93.26L296.15,96.37L304.62,95.76L313.08,99.32L330,94.09L338.46,94.04L355.38,89.53L363.85,93.56L372.31,98.32L380.77,106.06L389.23,112.81L397.69,124.84L406.15,134.24L414.62,136.13L423.08,141.6L431.54,148.26L440,152.6" style="vector-effect: non-scaling-stroke; fill: none; stroke: rgb(0, 0, 0); stroke-opacity: 1; stroke-width: 0.5px; opacity: 1;"/></g><g class="points"/><g class="text"/></g><g class="trace scatter trace512af6" style="stroke-miterlimit: 2;"><g class="fills"><g><path class="js-fill" d="M0,132.5L8.46,133.43L16.92,129.45L25.38,124.58L33.85,115.88L42.31,104.16L50.77,94.28L67.69,70.96L76.15,65.43L84.62,59.79L93.08,53.14L101.54,50.35L110,57.53L118.46,53.79L126.92,58.17L135.38,53.31L143.85,69.27L152.31,65.73L160.77,63.85L169.23,72.55L177.69,71.79L186.15,76.79L194.62,75.69L203.08,81.06L211.54,82.89L220,83.78L228.46,83.37L236.92,80.94L245.38,82.75L253.85,85.8L262.31,80.08L270.77,85.19L279.23,82.56L287.69,87.61L296.15,83.81L304.62,83.33L313.08,85.65L321.54,81.7L330,76.7L338.46,79.83L346.92,78.36L363.85,90.08L372.31,90.14L380.77,97.71L389.23,102.85L397.69,109.62L406.15,119.64L414.62,118.64L423.08,126.08L431.54,130.1L440,124.62L440,139.28L431.54,140.6L423.08,132.31L414.62,128.41L406.15,125.57L397.69,114.65L389.23,107.25L380.77,100.84L372.31,93.45L363.85,92.46L355.38,86.45L346.92,85.72L338.46,84.05L330,85.84L321.54,89.78L304.62,91.78L296.15,92.8L287.69,91.54L279.23,88.05L270.77,89.49L262.31,86.25L236.92,92.48L228.46,89.03L220,87.79L211.54,88.39L203.08,86.85L194.62,83.44L186.15,82.92L177.69,80.16L169.23,78.38L160.77,75.61L152.31,74.34L143.85,78.96L126.92,65.05L118.46,64.22L110,69.7L101.54,63.25L93.08,59.61L84.62,65.65L76.15,75.5L67.69,80.82L50.77,103.06L42.31,111.21L33.85,122.65L25.38,131.89L16.92,135.42L8.46,142.66L0,140.78Z" style="fill: rgb(255, 255, 191); fill-opacity: 1; stroke-width: 0;"/></g></g><g class="errorbars"/><g class="lines"><path class="js-line" d="M0,140.78L8.46,142.66L16.92,135.42L25.38,131.89L33.85,122.65L42.31,111.21L50.77,103.06L67.69,80.82L76.15,75.5L84.62,65.65L93.08,59.61L101.54,63.25L110,69.7L118.46,64.22L126.92,65.05L143.85,78.96L152.31,74.34L160.77,75.61L169.23,78.38L177.69,80.16L186.15,82.92L194.62,83.44L203.08,86.85L211.54,88.39L220,87.79L228.46,89.03L236.92,92.48L262.31,86.25L270.77,89.49L279.23,88.05L287.69,91.54L296.15,92.8L304.62,91.78L321.54,89.78L330,85.84L338.46,84.05L346.92,85.72L355.38,86.45L363.85,92.46L372.31,93.45L380.77,100.84L389.23,107.25L397.69,114.65L406.15,125.57L414.62,128.41L423.08,132.31L431.54,140.6L440,139.28" style="vector-effect: non-scaling-stroke; fill: none; stroke: rgb(0, 0, 0); stroke-opacity: 1; stroke-width: 1px; opacity: 1;"/></g><g class="points"/><g class="text"/></g><g class="trace scatter tracecea463" style="stroke-miterlimit: 2;"><g class="fills"><g><path class="js-fill" d="M0,108.82L8.46,122.34L16.92,112.27L25.38,109.78L33.85,106.03L42.31,89.19L50.77,69.1L59.23,67.09L67.69,56.64L76.15,52.16L84.62,53.21L93.08,47.73L101.54,39.99L110,34.56L118.46,42.57L126.92,35.05L135.38,21.63L143.85,50.5L152.31,44.99L160.77,39.44L169.23,64.49L177.69,52.03L186.15,69.05L194.62,54.51L203.08,67.89L211.54,69.79L220,69.36L228.46,71.27L236.92,70.2L245.38,72.06L253.85,82.37L262.31,65.57L270.77,69.01L279.23,66.86L287.69,80.9L296.15,69.25L304.62,70.89L313.08,65.24L321.54,72.15L330,66.47L338.46,64.28L346.92,61.69L355.38,79.09L363.85,85.71L372.31,85.24L380.77,89.12L389.23,97.31L397.69,96.41L406.15,104.89L414.62,112.38L423.08,117.59L431.54,124.61L440,120.82L440,124.62L431.54,130.1L423.08,126.08L414.62,118.64L406.15,119.64L397.69,109.62L389.23,102.85L380.77,97.71L372.31,90.14L363.85,90.08L346.92,78.36L338.46,79.83L330,76.7L321.54,81.7L313.08,85.65L304.62,83.33L296.15,83.81L287.69,87.61L279.23,82.56L270.77,85.19L262.31,80.08L253.85,85.8L245.38,82.75L236.92,80.94L228.46,83.37L220,83.78L211.54,82.89L203.08,81.06L194.62,75.69L186.15,76.79L177.69,71.79L169.23,72.55L160.77,63.85L152.31,65.73L143.85,69.27L135.38,53.31L126.92,58.17L118.46,53.79L110,57.53L101.54,50.35L93.08,53.14L84.62,59.79L76.15,65.43L67.69,70.96L50.77,94.28L42.31,104.16L33.85,115.88L25.38,124.58L16.92,129.45L8.46,133.43L0,132.5Z" style="fill: rgb(252, 141, 89); fill-opacity: 1; stroke-width: 0;"/></g></g><g class="errorbars"/><g class="lines"><path class="js-line" d="M0,132.5L8.46,133.43L16.92,129.45L25.38,124.58L33.85,115.88L42.31,104.16L50.77,94.28L67.69,70.96L76.15,65.43L84.62,59.79L93.08,53.14L101.54,50.35L110,57.53L118.46,53.79L126.92,58.17L135.38,53.31L143.85,69.27L152.31,65.73L160.77,63.85L169.23,72.55L177.69,71.79L186.15,76.79L194.62,75.69L203.08,81.06L211.54,82.89L220,83.78L228.46,83.37L236.92,80.94L245.38,82.75L253.85,85.8L262.31,80.08L270.77,85.19L279.23,82.56L287.69,87.61L296.15,83.81L304.62,83.33L313.08,85.65L321.54,81.7L330,76.7L338.46,79.83L346.92,78.36L363.85,90.08L372.31,90.14L380.77,97.71L389.23,102.85L397.69,109.62L406.15,119.64L414.62,118.64L423.08,126.08L431.54,130.1L440,124.62" style="vector-effect: non-scaling-stroke; fill: none; stroke: rgb(0, 0, 0); stroke-opacity: 1; stroke-width: 0.5px; opacity: 1;"/></g><g class="points"/><g class="text"/></g><g class="trace scatter tracee694d6" style="stroke-miterlimit: 2;"><g class="fills"/><g class="errorbars"/><g class="lines"><path class="js-line" d="M0,108.82L8.46,122.34L16.92,112.27L25.38,109.78L33.85,106.03L42.31,89.19L50.77,69.1L59.23,67.09L67.69,56.64L76.15,52.16L84.62,53.21L93.08,47.73L101.54,39.99L110,34.56L118.46,42.57L126.92,35.05L135.38,21.63L143.85,50.5L152.31,44.99L160.77,39.44L169.23,64.49L177.69,52.03L186.15,69.05L194.62,54.51L203.08,67.89L211.54,69.79L220,69.36L228.46,71.27L236.92,70.2L245.38,72.06L253.85,82.37L262.31,65.57L270.77,69.01L279.23,66.86L287.69,80.9L296.15,69.25L304.62,70.89L313.08,65.24L321.54,72.15L330,66.47L338.46,64.28L346.92,61.69L355.38,79.09L363.85,85.71L372.31,85.24L380.77,89.12L389.23,97.31L397.69,96.41L406.15,104.89L414.62,112.38L423.08,117.59L431.54,124.61L440,120.82" style="vector-effect: non-scaling-stroke; fill: none; stroke: rgb(0, 0, 0); stroke-opacity: 1; stroke-width: 0.25px; opacity: 1;"/></g><g class="points"/><g class="text"/></g><g class="trace scatter trace7b4b04" style="stroke-miterlimit: 2; opacity: 1;"><g class="fills"/><g class="errorbars"/><g class="lines"/><g class="points"><path class="point" transform="translate(169.23,74.4)" d="M4,0A4,4 0 1,1 0,-4A4,4 0 0,1 4,0ZM0,0.5L0.5,0L0,-0.5L-0.5,0Z" style="opacity: 1; stroke: rgb(0, 0, 0); stroke-opacity: 1; stroke-width: 1px; fill: none;"/><path class="point" transform="translate(177.69,80.6)" d="M4,0A4,4 0 1,1 0,-4A4,4 0 0,1 4,0ZM0,0.5L0.5,0L0,-0.5L-0.5,0Z" style="opacity: 1; stroke: rgb(0, 0, 0); stroke-opacity: 1; stroke-width: 1px; fill: none;"/><path class="point" transform="translate(186.15,74.4)" d="M4,0A4,4 0 1,1 0,-4A4,4 0 0,1 4,0ZM0,0.5L0.5,0L0,-0.5L-0.5,0Z" style="opacity: 1; stroke: rgb(0, 0, 0); stroke-opacity: 1; stroke-width: 1px; fill: none;"/><path class="point" transform="translate(194.62,74.4)" d="M4,0A4,4 0 1,1 0,-4A4,4 0 0,1 4,0ZM0,0.5L0.5,0L0,-0.5L-0.5,0Z" style="opacity: 1; stroke: rgb(0, 0, 0); stroke-opacity: 1; stroke-width: 1px; fill: none;"/></g><g class="text"/></g></g></g><g class="overplot"/><path class="xlines-above crisp" d="M0,0" style="fill: none;"/><path class="ylines-above crisp" d="M0,0" style="fill: none;"/><g class="overlines-above"/><g class="xaxislayer-above"/><g class="yaxislayer-above"><g class="y2tick"><text text-anchor="end" x="79" y="4.199999999999999" transform="translate(0,472.00000000000006)" style="font-family: 'Open Sans', verdana, arial, sans-serif; font-size: 12px; fill: rgb(42, 63, 95); fill-opacity: 1; white-space: pre; opacity: 1;">20</text></g><g class="y2tick"><text text-anchor="end" x="79" y="4.199999999999999" style="font-family: 'Open Sans', verdana, arial, sans-serif; font-size: 12px; fill: rgb(42, 63, 95); fill-opacity: 1; white-space: pre; opacity: 1;" transform="translate(0,410.00000000000006)">30</text></g><g class="y2tick"><text text-anchor="end" x="79" y="4.199999999999999" style="font-family: 'Open Sans', verdana, arial, sans-serif; font-size: 12px; fill: rgb(42, 63, 95); fill-opacity: 1; white-space: pre; opacity: 1;" transform="translate(0,348.00000000000006)">40</text></g></g><g class="overaxes-above"/></g><g class="subplot x3y3"><g class="layer-subplot"><g class="shapelayer"/><g class="imagelayer"/></g><g class="minor-gridlayer"><g class="x3"/><g class="y3"/></g><g class="gridlayer"><g class="x3"><path class="x3grid crisp" transform="translate(156.15,0)" d="M0,534v186" style="stroke: rgb(255, 255, 255); stroke-opacity: 1; stroke-width: 1px;"/><path class="x3grid crisp" transform="translate(240.77,0)" d="M0,534v186" style="stroke: rgb(255, 255, 255); stroke-opacity: 1; stroke-width: 1px;"/><path class="x3grid crisp" transform="translate(325.38,0)" d="M0,534v186" style="stroke: rgb(255, 255, 255); stroke-opacity: 1; stroke-width: 1px;"/><path class="x3grid crisp" transform="translate(410,0)" d="M0,534v186" style="stroke: rgb(255, 255, 255); stroke-opacity: 1; stroke-width: 1px;"/><path class="x3grid crisp" transform="translate(494.62,0)" d="M0,534v186" style="stroke: rgb(255, 255, 255); stroke-opacity: 1; stroke-width: 1px;"/></g><g class="y3"><path class="y3grid crisp" transform="translate(0,682.8)" d="M80,0h440" style="stroke: rgb(255, 255, 255); stroke-opacity: 1; stroke-width: 1px;"/><path class="y3grid crisp" transform="translate(0,645.6)" d="M80,0h440" style="stroke: rgb(255, 255, 255); stroke-opacity: 1; stroke-width: 1px;"/><path class="y3grid crisp" transform="translate(0,608.4)" d="M80,0h440" style="stroke: rgb(255, 255, 255); stroke-opacity: 1; stroke-width: 1px;"/><path class="y3grid crisp" transform="translate(0,571.2)" d="M80,0h440" style="stroke: rgb(255, 255, 255); stroke-opacity: 1; stroke-width: 1px;"/></g></g><g class="zerolinelayer"/><path class="xlines-below"/><path class="ylines-below"/><g class="overlines-below"/><g class="xaxislayer-below"/><g class="yaxislayer-below"/><g class="overaxes-below"/><g class="plot" transform="translate(80,534)" clip-path="url(#clip59b32ax3y3plot)"><g class="scatterlayer mlayer"><g class="trace scatter trace97e171" style="stroke-miterlimit: 2;"><g class="fills"><g><path class="js-fill" d="M0,125.3L8.46,135.12L16.92,125.64L33.85,120.57L42.31,109L50.77,105.58L59.23,98.85L67.69,82.08L76.15,77.4L84.62,73.04L93.08,64.53L101.54,61.48L110,62.67L118.46,59.38L126.92,52.52L135.38,53.35L143.85,53.22L152.31,46.92L160.77,42.86L169.23,38.69L177.69,38.71L186.15,36.04L194.62,36.06L203.08,35.73L211.54,36.47L220,35.21L228.46,36.33L236.92,37.39L245.38,37.65L253.85,37.6L262.31,36.79L270.77,37.14L279.23,38.48L296.15,37.86L304.62,39.38L313.08,41.39L321.54,40.92L330,42.82L338.46,46.34L355.38,51.39L363.85,62.93L372.31,69.6L380.77,80.98L389.23,87.86L397.69,98.56L406.15,104.58L414.62,108.17L423.08,119.42L431.54,122.23L440,137.93L440,142.15L431.54,133.22L423.08,136.59L414.62,121.75L397.69,112.92L389.23,101.87L380.77,93.19L372.31,82.52L355.38,57.66L346.92,55.43L330,48.32L321.54,43.37L313.08,48.35L304.62,42.07L296.15,39.81L287.69,40.88L270.77,38.64L262.31,41.94L253.85,39.85L245.38,40.32L236.92,39.48L228.46,38.17L220,38L211.54,38.08L203.08,40.31L194.62,40.54L186.15,38.69L177.69,46.87L169.23,43.25L160.77,49.33L152.31,53.89L143.85,58.5L135.38,61.84L126.92,65.59L118.46,64.82L110,74.57L101.54,78.42L93.08,79.91L84.62,89.72L76.15,90.4L67.69,93.71L59.23,114.96L50.77,124.08L42.31,133.2L33.85,146.5L25.38,143.55L16.92,143.87L8.46,145.92L0,128.67Z" style="fill: rgb(90, 180, 172); fill-opacity: 1; stroke-width: 0;"/></g></g><g class="errorbars"/><g class="lines"><path class="js-line" d="M0,128.67L8.46,145.92L16.92,143.87L25.38,143.55L33.85,146.5L42.31,133.2L50.77,124.08L59.23,114.96L67.69,93.71L76.15,90.4L84.62,89.72L93.08,79.91L101.54,78.42L110,74.57L118.46,64.82L126.92,65.59L135.38,61.84L143.85,58.5L152.31,53.89L160.77,49.33L169.23,43.25L177.69,46.87L186.15,38.69L194.62,40.54L203.08,40.31L211.54,38.08L220,38L228.46,38.17L236.92,39.48L245.38,40.32L253.85,39.85L262.31,41.94L270.77,38.64L287.69,40.88L296.15,39.81L304.62,42.07L313.08,48.35L321.54,43.37L330,48.32L346.92,55.43L355.38,57.66L372.31,82.52L380.77,93.19L389.23,101.87L397.69,112.92L414.62,121.75L423.08,136.59L431.54,133.22L440,142.15" style="vector-effect: non-scaling-stroke; fill: none; stroke: rgb(0, 0, 0); stroke-opacity: 1; stroke-width: 0.25px; opacity: 1;"/></g><g class="points"/><g class="text"/></g><g class="trace scatter trace2d15b7" style="stroke-miterlimit: 2;"><g class="fills"><g><path class="js-fill" d="M0,120.36L8.46,125.36L16.92,117.28L33.85,113.21L42.31,100.63L50.77,94.31L59.23,85.91L67.69,76.97L76.15,73.06L84.62,64.78L93.08,55.38L101.54,51.78L110,52.88L118.46,54.7L126.92,48.93L135.38,48.35L143.85,49.53L152.31,42.04L160.77,38.68L177.69,36.63L186.15,34.64L203.08,34.46L211.54,35.4L220,33.91L228.46,34.19L245.38,36.42L253.85,36.67L262.31,34.58L270.77,35.57L279.23,35.52L287.69,36.26L296.15,37.05L304.62,38.72L321.54,37.99L330,40.54L338.46,41.1L346.92,45.01L355.38,50.02L363.85,58.29L372.31,61.09L380.77,72.22L397.69,90.64L406.15,96.95L414.62,103.66L423.08,108.87L431.54,117.15L440,126.93L440,137.93L431.54,122.23L423.08,119.42L414.62,108.17L406.15,104.58L397.69,98.56L389.23,87.86L380.77,80.98L372.31,69.6L363.85,62.93L355.38,51.39L338.46,46.34L330,42.82L321.54,40.92L313.08,41.39L304.62,39.38L296.15,37.86L279.23,38.48L270.77,37.14L262.31,36.79L253.85,37.6L245.38,37.65L236.92,37.39L228.46,36.33L220,35.21L211.54,36.47L203.08,35.73L194.62,36.06L186.15,36.04L177.69,38.71L169.23,38.69L160.77,42.86L152.31,46.92L143.85,53.22L135.38,53.35L126.92,52.52L118.46,59.38L110,62.67L101.54,61.48L93.08,64.53L84.62,73.04L76.15,77.4L67.69,82.08L59.23,98.85L50.77,105.58L42.31,109L33.85,120.57L16.92,125.64L8.46,135.12L0,125.3Z" style="fill: rgb(245, 245, 245); fill-opacity: 1; stroke-width: 0;"/></g></g><g class="errorbars"/><g class="lines"><path class="js-line" d="M0,125.3L8.46,135.12L16.92,125.64L33.85,120.57L42.31,109L50.77,105.58L59.23,98.85L67.69,82.08L76.15,77.4L84.62,73.04L93.08,64.53L101.54,61.48L110,62.67L118.46,59.38L126.92,52.52L135.38,53.35L143.85,53.22L152.31,46.92L160.77,42.86L169.23,38.69L177.69,38.71L186.15,36.04L194.62,36.06L203.08,35.73L211.54,36.47L220,35.21L228.46,36.33L236.92,37.39L245.38,37.65L253.85,37.6L262.31,36.79L270.77,37.14L279.23,38.48L296.15,37.86L304.62,39.38L313.08,41.39L321.54,40.92L330,42.82L338.46,46.34L355.38,51.39L363.85,62.93L372.31,69.6L380.77,80.98L389.23,87.86L397.69,98.56L406.15,104.58L414.62,108.17L423.08,119.42L431.54,122.23L440,137.93" style="vector-effect: non-scaling-stroke; fill: none; stroke: rgb(0, 0, 0); stroke-opacity: 1; stroke-width: 0.5px; opacity: 1;"/></g><g class="points"/><g class="text"/></g><g class="trace scatter trace62271e" style="stroke-miterlimit: 2;"><g class="fills"><g><path class="js-fill" d="M0,113.15L8.46,115.68L16.92,113.01L25.38,109.19L33.85,102.04L42.31,90.78L50.77,84.45L67.69,66.63L76.15,62.52L84.62,56.27L93.08,52.59L101.54,46.58L110,48.82L118.46,44.95L126.92,42.92L135.38,45.53L143.85,41.56L152.31,40.43L160.77,36.38L177.69,32.68L186.15,32.45L194.62,31.3L203.08,31.78L211.54,33L220,31.9L236.92,32.81L245.38,34.65L262.31,31.82L270.77,33.7L279.23,32.83L287.69,34.44L296.15,36.43L304.62,37.14L313.08,35.86L321.54,36.16L330,34.46L338.46,37.95L346.92,40.59L355.38,47.07L363.85,53.76L372.31,56.15L397.69,86.5L406.15,92.55L414.62,95.18L423.08,98.6L431.54,109.52L440,122.17L440,126.93L431.54,117.15L423.08,108.87L414.62,103.66L406.15,96.95L397.69,90.64L380.77,72.22L372.31,61.09L363.85,58.29L355.38,50.02L346.92,45.01L338.46,41.1L330,40.54L321.54,37.99L304.62,38.72L296.15,37.05L287.69,36.26L279.23,35.52L270.77,35.57L262.31,34.58L253.85,36.67L245.38,36.42L228.46,34.19L220,33.91L211.54,35.4L203.08,34.46L186.15,34.64L177.69,36.63L160.77,38.68L152.31,42.04L143.85,49.53L135.38,48.35L126.92,48.93L118.46,54.7L110,52.88L101.54,51.78L93.08,55.38L84.62,64.78L76.15,73.06L67.69,76.97L59.23,85.91L50.77,94.31L42.31,100.63L33.85,113.21L16.92,117.28L8.46,125.36L0,120.36Z" style="fill: rgb(245, 245, 245); fill-opacity: 1; stroke-width: 0;"/></g></g><g class="errorbars"/><g class="lines"><path class="js-line" d="M0,120.36L8.46,125.36L16.92,117.28L33.85,113.21L42.31,100.63L50.77,94.31L59.23,85.91L67.69,76.97L76.15,73.06L84.62,64.78L93.08,55.38L101.54,51.78L110,52.88L118.46,54.7L126.92,48.93L135.38,48.35L143.85,49.53L152.31,42.04L160.77,38.68L177.69,36.63L186.15,34.64L203.08,34.46L211.54,35.4L220,33.91L228.46,34.19L245.38,36.42L253.85,36.67L262.31,34.58L270.77,35.57L279.23,35.52L287.69,36.26L296.15,37.05L304.62,38.72L321.54,37.99L330,40.54L338.46,41.1L346.92,45.01L355.38,50.02L363.85,58.29L372.31,61.09L380.77,72.22L397.69,90.64L406.15,96.95L414.62,103.66L423.08,108.87L431.54,117.15L440,126.93" style="vector-effect: non-scaling-stroke; fill: none; stroke: rgb(0, 0, 0); stroke-opacity: 1; stroke-width: 1px; opacity: 1;"/></g><g class="points"/><g class="text"/></g><g class="trace scatter trace609efd" style="stroke-miterlimit: 2;"><g class="fills"><g><path class="js-fill" d="M0,103.66L8.46,104.55L16.92,101.25L33.85,86.39L42.31,81.43L50.77,56.3L59.23,62.57L67.69,53.47L76.15,40.27L84.62,47.81L93.08,41.6L101.54,39.7L110,34.42L118.46,36.94L126.92,36.95L135.38,35.12L143.85,30.05L152.31,33.5L160.77,28.15L169.23,32.3L177.69,29.06L186.15,28.95L194.62,24.76L203.08,28.33L211.54,30.38L220,31.17L228.46,27.19L236.92,27.27L245.38,30.99L253.85,26.22L262.31,29.65L270.77,30.91L279.23,25.67L287.69,33.72L296.15,36.41L304.62,35.44L313.08,28.89L321.54,30.17L330,23.52L338.46,25.65L346.92,33.55L363.85,48.57L372.31,51.11L380.77,59.3L389.23,66.06L397.69,74.71L406.15,78.29L414.62,78.99L423.08,88.63L431.54,98.87L440,100.25L440,122.17L431.54,109.52L423.08,98.6L414.62,95.18L406.15,92.55L397.69,86.5L372.31,56.15L363.85,53.76L355.38,47.07L346.92,40.59L338.46,37.95L330,34.46L321.54,36.16L313.08,35.86L304.62,37.14L296.15,36.43L287.69,34.44L279.23,32.83L270.77,33.7L262.31,31.82L245.38,34.65L236.92,32.81L220,31.9L211.54,33L203.08,31.78L194.62,31.3L186.15,32.45L177.69,32.68L160.77,36.38L152.31,40.43L143.85,41.56L135.38,45.53L126.92,42.92L118.46,44.95L110,48.82L101.54,46.58L93.08,52.59L84.62,56.27L76.15,62.52L67.69,66.63L50.77,84.45L42.31,90.78L33.85,102.04L25.38,109.19L16.92,113.01L8.46,115.68L0,113.15Z" style="fill: rgb(216, 179, 101); fill-opacity: 1; stroke-width: 0;"/></g></g><g class="errorbars"/><g class="lines"><path class="js-line" d="M0,113.15L8.46,115.68L16.92,113.01L25.38,109.19L33.85,102.04L42.31,90.78L50.77,84.45L67.69,66.63L76.15,62.52L84.62,56.27L93.08,52.59L101.54,46.58L110,48.82L118.46,44.95L126.92,42.92L135.38,45.53L143.85,41.56L152.31,40.43L160.77,36.38L177.69,32.68L186.15,32.45L194.62,31.3L203.08,31.78L211.54,33L220,31.9L236.92,32.81L245.38,34.65L262.31,31.82L270.77,33.7L279.23,32.83L287.69,34.44L296.15,36.43L304.62,37.14L313.08,35.86L321.54,36.16L330,34.46L338.46,37.95L346.92,40.59L355.38,47.07L363.85,53.76L372.31,56.15L397.69,86.5L406.15,92.55L414.62,95.18L423.08,98.6L431.54,109.52L440,122.17" style="vector-effect: non-scaling-stroke; fill: none; stroke: rgb(0, 0, 0); stroke-opacity: 1; stroke-width: 0.5px; opacity: 1;"/></g><g class="points"/><g class="text"/></g><g class="trace scatter trace0a6d37" style="stroke-miterlimit: 2;"><g class="fills"/><g class="errorbars"/><g class="lines"><path class="js-line" d="M0,103.66L8.46,104.55L16.92,101.25L33.85,86.39L42.31,81.43L50.77,56.3L59.23,62.57L67.69,53.47L76.15,40.27L84.62,47.81L93.08,41.6L101.54,39.7L110,34.42L118.46,36.94L126.92,36.95L135.38,35.12L143.85,30.05L152.31,33.5L160.77,28.15L169.23,32.3L177.69,29.06L186.15,28.95L194.62,24.76L203.08,28.33L211.54,30.38L220,31.17L228.46,27.19L236.92,27.27L245.38,30.99L253.85,26.22L262.31,29.65L270.77,30.91L279.23,25.67L287.69,33.72L296.15,36.41L304.62,35.44L313.08,28.89L321.54,30.17L330,23.52L338.46,25.65L346.92,33.55L363.85,48.57L372.31,51.11L380.77,59.3L389.23,66.06L397.69,74.71L406.15,78.29L414.62,78.99L423.08,88.63L431.54,98.87L440,100.25" style="vector-effect: non-scaling-stroke; fill: none; stroke: rgb(0, 0, 0); stroke-opacity: 1; stroke-width: 0.25px; opacity: 1;"/></g><g class="points"/><g class="text"/></g><g class="trace scatter traceb56570" style="stroke-miterlimit: 2; opacity: 1;"><g class="fills"/><g class="errorbars"/><g class="lines"/><g class="points"><path class="point" transform="translate(169.23,37.2)" d="M4,0A4,4 0 1,1 0,-4A4,4 0 0,1 4,0ZM0,0.5L0.5,0L0,-0.5L-0.5,0Z" style="opacity: 1; stroke: rgb(0, 0, 0); stroke-opacity: 1; stroke-width: 1px; fill: none;"/><path class="point" transform="translate(177.69,37.2)" d="M4,0A4,4 0 1,1 0,-4A4,4 0 0,1 4,0ZM0,0.5L0.5,0L0,-0.5L-0.5,0Z" style="opacity: 1; stroke: rgb(0, 0, 0); stroke-opacity: 1; stroke-width: 1px; fill: none;"/><path class="point" transform="translate(186.15,29.76)" d="M4,0A4,4 0 1,1 0,-4A4,4 0 0,1 4,0ZM0,0.5L0.5,0L0,-0.5L-0.5,0Z" style="opacity: 1; stroke: rgb(0, 0, 0); stroke-opacity: 1; stroke-width: 1px; fill: none;"/><path class="point" transform="translate(194.62,29.76)" d="M4,0A4,4 0 1,1 0,-4A4,4 0 0,1 4,0ZM0,0.5L0.5,0L0,-0.5L-0.5,0Z" style="opacity: 1; stroke: rgb(0, 0, 0); stroke-opacity: 1; stroke-width: 1px; fill: none;"/></g><g class="text"/></g></g></g><g class="overplot"/><path class="xlines-above crisp" d="M0,0" style="fill: none;"/><path class="ylines-above crisp" d="M0,0" style="fill: none;"/><g class="overlines-above"/><g class="xaxislayer-above"><g class="x3tick"><text text-anchor="middle" x="0" y="733" transform="translate(156.15,0)" style="font-family: 'Open Sans', verdana, arial, sans-serif; font-size: 12px; fill: rgb(42, 63, 95); fill-opacity: 1; white-space: pre; opacity: 1;">10</text></g><g class="x3tick"><text text-anchor="middle" x="0" y="733" style="font-family: 'Open Sans', verdana, arial, sans-serif; font-size: 12px; fill: rgb(42, 63, 95); fill-opacity: 1; white-space: pre; opacity: 1;" transform="translate(240.77,0)">20</text></g><g class="x3tick"><text text-anchor="middle" x="0" y="733" style="font-family: 'Open Sans', verdana, arial, sans-serif; font-size: 12px; fill: rgb(42, 63, 95); fill-opacity: 1; white-space: pre; opacity: 1;" transform="translate(325.38,0)">30</text></g><g class="x3tick"><text text-anchor="middle" x="0" y="733" style="font-family: 'Open Sans', verdana, arial, sans-serif; font-size: 12px; fill: rgb(42, 63, 95); fill-opacity: 1; white-space: pre; opacity: 1;" transform="translate(410,0)">40</text></g><g class="x3tick"><text text-anchor="middle" x="0" y="733" style="font-family: 'Open Sans', verdana, arial, sans-serif; font-size: 12px; fill: rgb(42, 63, 95); fill-opacity: 1; white-space: pre; opacity: 1;" transform="translate(494.62,0)">50</text></g></g><g class="yaxislayer-above"><g class="y3tick"><text text-anchor="end" x="79" y="4.199999999999999" transform="translate(0,720)" style="font-family: 'Open Sans', verdana, arial, sans-serif; font-size: 12px; fill: rgb(42, 63, 95); fill-opacity: 1; white-space: pre; opacity: 1;">5</text></g><g class="y3tick"><text text-anchor="end" x="79" y="4.199999999999999" style="font-family: 'Open Sans', verdana, arial, sans-serif; font-size: 12px; fill: rgb(42, 63, 95); fill-opacity: 1; white-space: pre; opacity: 1;" transform="translate(0,682.8)">10</text></g><g class="y3tick"><text text-anchor="end" x="79" y="4.199999999999999" style="font-family: 'Open Sans', verdana, arial, sans-serif; font-size: 12px; fill: rgb(42, 63, 95); fill-opacity: 1; white-space: pre; opacity: 1;" transform="translate(0,645.6)">15</text></g><g class="y3tick"><text text-anchor="end" x="79" y="4.199999999999999" style="font-family: 'Open Sans', verdana, arial, sans-serif; font-size: 12px; fill: rgb(42, 63, 95); fill-opacity: 1; white-space: pre; opacity: 1;" transform="translate(0,608.4)">20</text></g><g class="y3tick"><text text-anchor="end" x="79" y="4.199999999999999" style="font-family: 'Open Sans', verdana, arial, sans-serif; font-size: 12px; fill: rgb(42, 63, 95); fill-opacity: 1; white-space: pre; opacity: 1;" transform="translate(0,571.2)">25</text></g><g class="y3tick"><text text-anchor="end" x="79" y="4.199999999999999" style="font-family: 'Open Sans', verdana, arial, sans-serif; font-size: 12px; fill: rgb(42, 63, 95); fill-opacity: 1; white-space: pre; opacity: 1;" transform="translate(0,534)">30</text></g></g><g class="overaxes-above"/></g></g><g class="polarlayer"/><g class="smithlayer"/><g class="ternarylayer"/><g class="geolayer"/><g class="funnelarealayer"/><g class="pielayer"/><g class="iciclelayer"/><g class="treemaplayer"/><g class="sunburstlayer"/><g class="glimages"/><defs id="topdefs-59b32a"><g class="clips"/></defs><g class="layer-above"><g class="imagelayer"/><g class="shapelayer"/></g><g class="infolayer"><g class="g-gtitle"><text class="gtitle" x="30" y="50" text-anchor="start" dy="0em" style="font-family: 'Open Sans', verdana, arial, sans-serif; font-size: 17px; fill: rgb(42, 63, 95); opacity: 1; font-weight: normal; white-space: pre;">Climatology and S2S forecast for Kushtia</text></g><g class="g-xtitle"/><g class="g-x2title"/><g class="g-x3title"/><g class="g-ytitle"><text class="ytitle" transform="rotate(-90,34.16875,193)" x="34.16875" y="193" text-anchor="middle" style="font-family: 'Open Sans', verdana, arial, sans-serif; font-size: 14px; fill: rgb(42, 63, 95); opacity: 1; font-weight: normal; white-space: pre;">[mm]</text></g><g class="g-y2title"><text class="y2title" transform="rotate(-90,40.840625,410.00000000000006)" x="40.840625" y="410.00000000000006" text-anchor="middle" style="font-family: 'Open Sans', verdana, arial, sans-serif; font-size: 14px; fill: rgb(42, 63, 95); opacity: 1; font-weight: normal; white-space: pre;">[C]</text></g><g class="g-y3title"><text class="y3title" transform="rotate(-90,40.840625,627)" x="40.840625" y="627" text-anchor="middle" style="font-family: 'Open Sans', verdana, arial, sans-serif; font-size: 14px; fill: rgb(42, 63, 95); opacity: 1; font-weight: normal; white-space: pre;">[C]</text></g><g class="annotation" data-index="0" style="opacity: 1;"><g class="annotation-text-g" transform="rotate(0,300,89.5)"><g class="cursor-pointer" transform="translate(237,79)"><rect class="bg" x="0.5" y="0.5" width="126" height="20" style="stroke-width: 1px; stroke: rgb(0, 0, 0); stroke-opacity: 0; fill: rgb(0, 0, 0); fill-opacity: 0;"/><text class="annotation-text" text-anchor="middle" x="63.359375" y="16" style="font-family: 'Open Sans', verdana, arial, sans-serif; font-size: 16px; fill: rgb(42, 63, 95); fill-opacity: 1; white-space: pre;">Precipitation sum</text></g></g></g><g class="annotation" data-index="1" style="opacity: 1;"><g class="annotation-text-g" transform="rotate(0,300,306.50000000000006)"><g class="cursor-pointer" transform="translate(196,296)"><rect class="bg" x="0.5" y="0.5" width="208" height="20" style="stroke-width: 1px; stroke: rgb(0, 0, 0); stroke-opacity: 0; fill: rgb(0, 0, 0); fill-opacity: 0;"/><text class="annotation-text" text-anchor="middle" x="104.265625" y="16" style="font-family: 'Open Sans', verdana, arial, sans-serif; font-size: 16px; fill: rgb(42, 63, 95); fill-opacity: 1; white-space: pre;">Mean maximum temperature</text></g></g></g><g class="annotation" data-index="2" style="opacity: 1;"><g class="annotation-text-g" transform="rotate(0,300,523.5)"><g class="cursor-pointer" transform="translate(198,513)"><rect class="bg" x="0.5" y="0.5" width="203" height="20" style="stroke-width: 1px; stroke: rgb(0, 0, 0); stroke-opacity: 0; fill: rgb(0, 0, 0); fill-opacity: 0;"/><text class="annotation-text" text-anchor="middle" x="102.046875" y="16" style="font-family: 'Open Sans', verdana, arial, sans-serif; font-size: 16px; fill: rgb(42, 63, 95); fill-opacity: 1; white-space: pre;">Mean minimum temperature</text></g></g></g><g class="annotation" data-index="3" style="opacity: 1;"><g class="annotation-text-g" transform="rotate(0,300,760.5)"><g class="cursor-pointer" transform="translate(277,750)"><rect class="bg" x="0.5" y="0.5" width="45" height="20" style="stroke-width: 1px; stroke: rgb(0, 0, 0); stroke-opacity: 0; fill: rgb(0, 0, 0); fill-opacity: 0;"/><text class="annotation-text" text-anchor="middle" x="22.3125" y="16" style="font-family: 'Open Sans', verdana, arial, sans-serif; font-size: 16px; fill: rgb(42, 63, 95); fill-opacity: 1; white-space: pre;">Week</text></g></g></g></g></svg>