<svg class="main-svg" xmlns="http://www.w3.org/2000/svg" xmlns:xlink="http://www.w3.org/1999/xlink" width="600" height="800" style="" viewBox="0 0 600 800"><rect x="0" y="0" width="600" height="800" style="fill: rgb(255, 255, 255); fill-opacity: 1;"/><defs id="defs-9739e1"><g class="clips"><clipPath id="clip9739e1xyplot" class="plotclip"><rect width="440" height="186.00000000000003"/></clipPath><clipPath id="clip9739e1x2y2plot" class="plotclip"><rect width="440" height="185.99999999999997"/></clipPath><clipPath id="clip9739e1x3y3plot" class="plotclip"><rect width="440" height="186"/></clipPath><clipPath class="axesclip" id="clip9739e1x"><rect x="80" y="0" width="440" height="800"/></clipPath><clipPath class="axesclip" id="clip9739e1y"><rect x="0" y="100" width="600" height="186.00000000000003"/></clipPath><clipPath class="axesclip" id="clip9739e1xy"><rect x="80" y="100" width="440" height="186.00000000000003"/></clipPath><clipPath class="axesclip" id="clip9739e1y2"><rect x="0" y="317.00000000000006" width="600" height="185.99999999999997"/></clipPath><clipPath class="axesclip" id="clip9739e1xy2"><rect x="80" y="317.00000000000006" width="440" height="185.99999999999997"/></clipPath><clipPath class="axesclip" id="clip9739e1y3"><rect x="0" y="534" width="600" height="186"/></clipPath><clipPath class="axesclip" id="clip9739e1xy3"><rect x="80" y="534" width="440" height="186"/></clipPath><clipPath class="axesclip" id="clip9739e1x2"><rect x="80" y="0" width="440" height="800"/></clipPath><clipPath class="axesclip" id="clip9739e1x2y"><rect x="80" y="100" width="440" height="186.00000000000003"/></clipPath><clipPath class="axesclip" id="clip9739e1x2y2"><rect x="80" y="317.00000000000006" width="440" height="185.99999999999997"/></clipPath><clipPath class="axesclip" id="clip9739e1x2y3"><rect x="80" y="534" width="440" height="186"/></clipPath><clipPath class="axesclip" id="clip9739e1x3"><rect x="80" y="0" width="440" height="800"/></clipPath><clipPath class="axesclip" id="clip9739e1x3y"><rect x="80" y="100" width="440" height="186.00000000000003"/></clipPath><clipPath class="axesclip" id="clip9739e1x3y2"><rect x="80" y="317.00000000000006" width="440" height="185.99999999999997"/></clipPath><clipPath class="axesclip" id="clip9739e1x3y3"><rect x="80" y="534" width="440" height="186"/></clipPath></g><g class="gradients"/><g class="patterns"/></defs><g class="bglayer"><rect class="bg" x="80" y="100" width="440" height="186.00000000000003" style="fill: rgb(229, 236, 246); fill-opacity: 1; stroke-width: 0;"/><rect class="bg" x="80" y="317.00000000000006" width="440" height="185.99999999999997" style="fill: rgb(229, 236, 246); fill-opacity: 1; stroke-width: 0;"/><rect class="bg" x="80" y="534" width="440" height="186" style="fill: rgb(229, 236, 246); fill-opacity: 1; stroke-width: 0;"/></g><g class="layer-below"><g class="imagelayer"/><g class="shapelayer"/></g><g class="cartesianlayer"><g class="subplot xy"><g class="layer-subplot"><g class="shapelayer"/><g class="imagelayer"/></g><g class="minor-gridlayer"><g class="x"/><g class="y"/></g><g class="gridlayer"><g class="x"><path class="xgrid crisp" transform="translate(156.15,0)" d="M0,100v186.00000000000003" style="stroke: rgb(255, 255, 255); stroke-opacity: 1; stroke-width: 1px;"/><path class="xgrid crisp" transform="translate(240.77,0)" d="M0,100v186.00000000000003" style="stroke: rgb(255, 255, 255); stroke-opacity: 1; stroke-width: 1px;"/><path class="xgrid crisp" transform="translate(325.38,0)" d="M0,100v186.00000000000003" style="stroke: rgb(255, 255, 255); stroke-opacity: 1; stroke-width: 1px;"/><path class="xgrid crisp" transform="translate(410,0)" d="M0,100v186.00000000000003" style="stroke: rgb(255, 255, 255); stroke-opacity: 1; stroke-width: 1px;"/><path class="xgrid crisp" transform="translate(494.62,0)" d="M0,100v186.00000000000003" style="stroke: rgb(255, 255, 255); stroke-opacity: 1; stroke-width: 1px;"/></g><g class="y"><path class="ygrid crisp" transform="translate(0,248.8)" d="M80,0h440" style="stroke: rgb(255, 255, 255); stroke-opacity: 1; stroke-width: 1px;"/><path class="ygrid crisp" transform="translate(0,211.6)" d="M80,0h440" style="stroke: rgb(255, 255, 255); stroke-opacity: 1; stroke-width: 1px;"/><path class="ygrid crisp" transform="translate(0,174.4)" d="M80,0h440" style="stroke: rgb(255, 255, 255); stroke-opacity: 1; stroke-width: 1px;"/><path class="ygrid crisp" transform="translate(0,137.2)" d="M80,0h440" style="stroke: rgb(255, 255, 255); stroke-opacity: 1; stroke-width: 1px;"/></g></g><g class="zerolinelayer"><path class="yzl zl crisp" transform="translate(0,286)" d="M80,0h440" style="stroke: rgb(255, 255, 255); stroke-opacity: 1; stroke-width: 2px;"/></g><path class="xlines-below"/><path class="ylines-below"/><g class="overlines-below"/><g class="xaxislayer-below"/><g class="yaxislayer-below"/><g class="overaxes-below"/><g class="plot" transform="translate(80,100)" clip-path="url(#clip9739e1xyplot)"><g class="scatterlayer mlayer"><g class="trace scatter trace36eaab" style="stroke-miterlimit: 2;"><g class="fills"><g><path class="js-fill" d="M0,186L135.38,185.95L143.85,176.92L152.31,185L160.77,178.25L169.23,175.36L177.69,175.78L186.15,165.45L194.62,162.33L203.08,159.21L211.54,161.57L220,152.68L228.46,160.96L245.38,150.47L253.85,151.82L262.31,161.21L270.77,147.8L279.23,167.57L287.69,169.82L296.15,154.74L304.62,166.34L313.08,163.68L321.54,177.63L330,183.5L338.46,179.72L346.92,185.64L355.38,186L440,186L440,186L321.54,185.96L313.08,184.46L304.62,183.8L296.15,185.94L287.69,180.98L279.23,179.1L270.77,172.23L262.31,183.77L253.85,174.48L245.38,173.26L236.92,184.03L228.46,171.02L220,177.13L211.54,175.56L203.08,179.36L194.62,185.99L186.15,184.77L177.69,186L160.77,186L152.31,186L143.85,185.24L135.38,186L0,186Z" style="fill: rgb(224, 236, 244); fill-opacity: 1; stroke-width: 0;"/></g></g><g class="errorbars"/><g class="lines"><path class="js-line" d="M0,186L135.38,186L143.85,185.24L152.31,186L160.77,186L177.69,186L186.15,184.77L194.62,185.99L203.08,179.36L211.54,175.56L220,177.13L228.46,171.02L236.92,184.03L245.38,173.26L253.85,174.48L262.31,183.77L270.77,172.23L279.23,179.1L287.69,180.98L296.15,185.94L304.62,183.8L313.08,184.46L321.54,185.96L440,186" style="vector-effect: non-scaling-stroke; fill: none; stroke: rgb(0, 0, 0); stroke-opacity: 1; stroke-width: 0.25px; opacity: 1;"/></g><g class="points"/><g class="text"/></g><g class="trace scatter trace8d77d3" style="stroke-miterlimit: 2;"><g class="fills"><g><path class="js-fill" d="M0,186L101.54,185.62L110,179.61L118.46,183.59L126.92,185.61L135.38,179.44L143.85,167.84L152.31,166.22L160.77,167.24L169.23,146.89L177.69,158.05L186.15,144.07L194.62,150.59L203.08,136.63L211.54,142.91L220,126.4L228.46,142L236.92,137.56L245.38,124.41L253.85,135.55L262.31,144.15L270.77,138.4L279.23,160.7L287.69,163.72L296.15,144.64L313.08,148.9L321.54,152.32L330,172.55L338.46,159.58L346.92,175.54L355.38,185.93L414.62,186L423.08,186L440,186L440,186L355.38,186L346.92,185.64L338.46,179.72L330,183.5L321.54,177.63L313.08,163.68L304.62,166.34L296.15,154.74L287.69,169.82L279.23,167.57L270.77,147.8L262.31,161.21L253.85,151.82L245.38,150.47L228.46,160.96L220,152.68L211.54,161.57L203.08,159.21L194.62,162.33L186.15,165.45L177.69,175.78L169.23,175.36L160.77,178.25L152.31,185L143.85,176.92L135.38,185.95L0,186Z" style="fill: rgb(158, 188, 218); fill-opacity: 1; stroke-width: 0;"/></g></g><g class="errorbars"/><g class="lines"><path class="js-line" d="M0,186L135.38,185.95L143.85,176.92L152.31,185L160.77,178.25L169.23,175.36L177.69,175.78L186.15,165.45L194.62,162.33L203.08,159.21L211.54,161.57L220,152.68L228.46,160.96L245.38,150.47L253.85,151.82L262.31,161.21L270.77,147.8L279.23,167.57L287.69,169.82L296.15,154.74L304.62,166.34L313.08,163.68L321.54,177.63L330,183.5L338.46,179.72L346.92,185.64L355.38,186L440,186" style="vector-effect: non-scaling-stroke; fill: none; stroke: rgb(0, 0, 0); stroke-opacity: 1; stroke-width: 0.5px; opacity: 1;"/></g><g class="points"/><g class="text"/></g><g class="trace scatter trace3f82ee" style="stroke-miterlimit: 2;"><g class="fills"><g><path class="js-fill" d="M0,185.99L42.31,185.98L50.77,183.16L67.69,185.96L76.15,183.54L93.08,182.75L101.54,173.51L110,172.45L118.46,168.17L126.92,180.37L135.38,163.07L143.85,157.35L152.31,144.76L160.77,149.88L169.23,129.23L177.69,117.3L186.15,132.1L194.62,95.3L203.08,75.35L211.54,112.94L220,100.45L228.46,122.52L236.92,92.13L245.38,110.61L253.85,103.13L262.31,114.81L270.77,118.72L279.23,145.85L287.69,134.63L296.15,118.23L304.62,112.57L313.08,96.75L321.54,122.96L330,146L338.46,144.07L346.92,142.72L355.38,153.46L363.85,183.32L372.31,185.38L380.77,184.58L389.23,186L440,186L440,186L423.08,186L414.62,186L355.38,185.93L346.92,175.54L338.46,159.58L330,172.55L321.54,152.32L313.08,148.9L296.15,144.64L287.69,163.72L279.23,160.7L270.77,138.4L262.31,144.15L253.85,135.55L245.38,124.41L236.92,137.56L228.46,142L220,126.4L211.54,142.91L203.08,136.63L194.62,150.59L186.15,144.07L177.69,158.05L169.23,146.89L160.77,167.24L152.31,166.22L143.85,167.84L135.38,179.44L126.92,185.61L118.46,183.59L110,179.61L101.54,185.62L0,186Z" style="fill: rgb(158, 188, 218); fill-opacity: 1; stroke-width: 0;"/></g></g><g class="errorbars"/><g class="lines"><path class="js-line" d="M0,186L101.54,185.62L110,179.61L118.46,183.59L126.92,185.61L135.38,179.44L143.85,167.84L152.31,166.22L160.77,167.24L169.23,146.89L177.69,158.05L186.15,144.07L194.62,150.59L203.08,136.63L211.54,142.91L220,126.4L228.46,142L236.92,137.56L245.38,124.41L253.85,135.55L262.31,144.15L270.77,138.4L279.23,160.7L287.69,163.72L296.15,144.64L313.08,148.9L321.54,152.32L330,172.55L338.46,159.58L346.92,175.54L355.38,185.93L414.62,186L423.08,186L440,186" style="vector-effect: non-scaling-stroke; fill: none; stroke: rgb(0, 0, 0); stroke-opacity: 1; stroke-width: 1px; opacity: 1;"/></g><g class="points"/><g class="text"/></g><g class="trace scatter trace92059e" style="stroke-miterlimit: 2;"><g class="fills"><g><path class="js-fill" d="M0,185.99L25.38,186L33.85,185.26L42.31,185.97L50.77,180.82L59.23,184.52L67.69,185.95L76.15,183.24L84.62,181.35L93.08,182.61L101.54,157.6L110,161.57L118.46,144.12L126.92,173.98L135.38,144.35L143.85,143.69L152.31,108.62L160.77,126.84L169.23,95.54L177.69,73.25L186.15,110.03L194.62,17.07L203.08,-37L211.54,77.58L220,40.11L228.46,79.22L236.92,18.89L245.38,56.52L253.85,33.8L262.31,81.6L270.77,84.11L279.23,123.84L287.69,88.25L296.15,63.57L304.62,58.21L313.08,29.91L321.54,67.38L330,118.95L338.46,128.1L346.92,85.32L355.38,119.06L363.85,180.71L372.31,185.18L380.77,184.13L389.23,186L440,186L440,186L389.23,186L380.77,184.58L372.31,185.38L363.85,183.32L355.38,153.46L346.92,142.72L338.46,144.07L330,146L321.54,122.96L313.08,96.75L304.62,112.57L296.15,118.23L287.69,134.63L279.23,145.85L270.77,118.72L262.31,114.81L253.85,103.13L245.38,110.61L236.92,92.13L228.46,122.52L220,100.45L211.54,112.94L203.08,75.35L194.62,95.3L186.15,132.1L177.69,117.3L169.23,129.23L160.77,149.88L152.31,144.76L143.85,157.35L135.38,163.07L126.92,180.37L118.46,168.17L110,172.45L101.54,173.51L93.08,182.75L76.15,183.54L67.69,185.96L50.77,183.16L42.31,185.98L0,185.99Z" style="fill: rgb(136, 86, 167); fill-opacity: 1; stroke-width: 0;"/></g></g><g class="errorbars"/><g class="lines"><path class="js-line" d="M0,185.99L42.31,185.98L50.77,183.16L67.69,185.96L76.15,183.54L93.08,182.75L101.54,173.51L110,172.45L118.46,168.17L126.92,180.37L135.38,163.07L143.85,157.35L152.31,144.76L160.77,149.88L169.23,129.23L177.69,117.3L186.15,132.1L194.62,95.3L203.08,75.35L211.54,112.94L220,100.45L228.46,122.52L236.92,92.13L245.38,110.61L253.85,103.13L262.31,114.81L270.77,118.72L279.23,145.85L287.69,134.63L296.15,118.23L304.62,112.57L313.08,96.75L321.54,122.96L330,146L338.46,144.07L346.92,142.72L355.38,153.46L363.85,183.32L372.31,185.38L380.77,184.58L389.23,186L440,186" style="vector-effect: non-scaling-stroke; fill: none; stroke: rgb(0, 0, 0); stroke-opacity: 1; stroke-width: 0.5px; opacity: 1;"/></g><g class="points"/><g class="text"/></g><g class="trace scatter tracef4588d" style="stroke-miterlimit: 2;"><g class="fills"/><g class="errorbars"/><g class="lines"><path class="js-line" d="M0,185.99L25.38,186L33.85,185.26L42.31,185.97L50.77,180.82L59.23,184.52L67.69,185.95L76.15,183.24L84.62,181.35L93.08,182.61L101.54,157.6L110,161.57L118.46,144.12L126.92,173.98L135.38,144.35L143.85,143.69L152.31,108.62L160.77,126.84L169.23,95.54L177.69,73.25L186.15,110.03L194.62,17.07L203.08,-37L211.54,77.58L220,40.11L228.46,79.22L236.92,18.89L245.38,56.52L253.85,33.8L262.31,81.6L270.77,84.11L279.23,123.84L287.69,88.25L296.15,63.57L304.62,58.21L313.08,29.91L321.54,67.38L330,118.95L338.46,128.1L346.92,85.32L355.38,119.06L363.85,180.71L372.31,185.18L380.77,184.13L389.23,186L440,186" style="vector-effect: non-scaling-stroke; fill: none; stroke: rgb(0, 0, 0); stroke-opacity: 1; stroke-width: 0.25px; opacity: 1;"/></g><g class="points"/><g class="text"/></g><g class="trace scatter trace60544d" style="stroke-miterlimit: 2; opacity: 1;"><g class="fills"/><g class="errorbars"/><g class="lines"/><g class="points"><path class="point" transform="translate(152.31,177.07)" d="M4,0A4,4 0 1,1 0,-4A4,4 0 0,1 4,0ZM0,0.5L0.5,0L0,-0.5L-0.5,0Z" style="opacity: 1; stroke: rgb(0, 0, 0); stroke-opacity: 1; stroke-width: 1px; fill: none;"/><path class="point" transform="translate(160.77,165.91)" d="M4,0A4,4 0 1,1 0,-4A4,4 0 0,1 4,0ZM0,0.5L0.5,0L0,-0.5L-0.5,0Z" style="opacity: 1; stroke: rgb(0, 0, 0); stroke-opacity: 1; stroke-width: 1px; fill: none;"/><path class="point" transform="translate(169.23,119.04)" d="M4,0A4,4 0 1,1 0,-4A4,4 0 0,1 4,0ZM0,0.5L0.5,0L0,-0.5L-0.5,0Z" style="opacity: 1; stroke: rgb(0, 0, 0); stroke-opacity: 1; stroke-width: 1px; fill: none;"/><path class="point" transform="translate(177.69,119.04)" d="M4,0A4,4 0 1,1 0,-4A4,4 0 0,1 4,0ZM0,0.5L0.5,0L0,-0.5L-0.5,0Z" style="opacity: 1; stroke: rgb(0, 0, 0); stroke-opacity: 1; stroke-width: 1px; fill: none;"/></g><g class="text"/></g></g></g><g class="overplot"/><path class="xlines-above crisp" d="M0,0" style="fill: none;"/><path class="ylines-above crisp" d="M0,0" style="fill: none;"/><g class="overlines-above"/><g class="xaxislayer-above"/><g class="yaxislayer-above"><g class="ytick"><text text-anchor="end" x="79" y="4.199999999999999" transform="translate(0,286)" style="font-family: 'Open Sans', verdana, arial, sans-serif; font-size: 12px; fill: rgb(42, 63, 95); fill-opacity: 1; white-space: pre; opacity: 1;">0</text></g><g class="ytick"><text text-anchor="end" x="79" y="4.199999999999999" style="font-family: 'Open Sans', verdana, arial, sans-serif; font-size: 12px; fill: rgb(42, 63, 95); fill-opacity: 1; white-space: pre; opacity: 1;" transform="translate(0,248.8)">50</text></g><g class="ytick"><text text-anchor="end" x="79" y="4.199999999999999" style="font-family: 'Open Sans', verdana, arial, sans-serif; font-size: 12px; fill: rgb(42, 63, 95); fill-opacity: 1; white-space: pre; opacity: 1;" transform="translate(0,211.6)">100</text></g><g class="ytick"><text text-anchor="end" x="79" y="4.199999999999999" style="font-family: 'Open Sans', verdana, arial, sans-serif; font-size: 12px; fill: rgb(42, 63, 95); fill-opacity: 1; white-space: pre; opacity: 1;" transform="translate(0,174.4)">150</text></g><g class="ytick"><text text-anchor="end" x="79" y="4.199999999999999" style="font-family: 'Open Sans', verdana, arial, sans-serif; font-size: 12px; fill: rgb(42, 63, 95); fill-opacity: 1; white-space: pre; opacity: 1;" transform="translate(0,137.2)">200</text></g><g class="ytick"><text text-anchor="end" x="79" y="4.199999999999999" style="font-family: 'Open Sans', verdana, arial, sans-serif; font-size: 12px; fill: rgb(42, 63, 95); fill-opacity: 1; white-space: pre; opacity: 1;" transform="translate(0,100)">250</text></g></g><g class="overaxes-above"/></g><g class="subplot x2y2"><g class="layer-subplot"><g class="shapelayer"/><g class="imagelayer"/></g><g class="minor-gridlayer"><g class="x2"/><g class="y2"/></g><g class="gridlayer"><g class="x2"><path class="x2grid crisp" transform="translate(156.15,0)" d="M0,317.00000000000006v185.99999999999997" style="stroke: rgb(255, 255, 255); stroke-opacity: 1; stroke-width: 1px;"/><path class="x2grid crisp" transform="translate(240.77,0)" d="M0,317.00000000000006v185.99999999999997" style="stroke: rgb(255, 255, 255); stroke-opacity: 1; stroke-width: 1px;"/><path class="x2grid crisp" transform="translate(325.38,0)" d="M0,317.00000000000006v185.99999999999997" style="stroke: rgb(255, 255, 255); stroke-opacity: 1; stroke-width: 1px;"/><path class="x2grid crisp" transform="translate(410,0)" d="M0,317.00000000000006v185.99999999999997" style="stroke: rgb(255, 255, 255); stroke-opacity: 1; stroke-width: 1px;"/><path class="x2grid crisp" transform="translate(494.62,0)" d="M0,317.00000000000006v185.99999999999997" style="stroke: rgb(255, 255, 255); stroke-opacity: 1; stroke-width: 1px;"/></g><g class="y2"><path class="y2grid crisp" transform="translate(0,472.00000000000006)" d="M80,0h440" style="stroke: rgb(255, 255, 255); stroke-opacity: 1; stroke-width: 1px;"/><path class="y2grid crisp" transform="translate(0,410.00000000000006)" d="M80,0h440" style="stroke: rgb(255, 255, 255); stroke-opacity: 1; stroke-width: 1px;"/><path class="y2grid crisp" transform="translate(0,348.00000000000006)" d="M80,0h440" style="stroke: rgb(255, 255, 255); stroke-opacity: 1; stroke-width: 1px;"/></g></g><g class="zerolinelayer"/><path class="xlines-below"/><path class="ylines-below"/><g class="overlines-below"/><g class="xaxislayer-below"/><g class="yaxislayer-below"/><g class="overaxes-below"/><g class="plot" transform="translate(80,317.00000000000006)" clip-path="url(#clip9739e1x2y2plot)"><g class="scatterlayer mlayer"><g class="trace scatter tracea8a96e" style="stroke-miterlimit: 2;"><g class="fills"><g><path class="js-fill" d="M0,145.66L8.46,148.78L16.92,133.04L25.38,130.39L33.85,122.39L42.31,111.73L50.77,106.34L59.23,95.81L67.69,83.63L76.15,86.76L84.62,71.65L93.08,73.08L101.54,72.99L110,81.47L118.46,78.54L126.92,77.63L135.38,82.17L143.85,85.3L152.31,82.12L160.77,85.78L169.23,82.32L177.69,87.11L186.15,89.04L194.62,95.62L203.08,94.58L220,96.12L228.46,96.04L236.92,98.58L245.38,95.8L253.85,98.12L262.31,98.57L270.77,99.82L279.23,98.52L296.15,98.88L304.62,94.79L313.08,100.02L321.54,96.54L330,94.5L338.46,95.05L355.38,91.91L363.85,92.11L372.31,96.38L380.77,101.98L389.23,107.83L397.69,120.66L406.15,130.31L414.62,132.84L423.08,139.32L431.54,144.76L440,148.4L440,149.19L431.54,149.52L423.08,154.18L414.62,136.8L406.15,146.16L397.69,130.68L389.23,117.65L380.77,111.21L372.31,108.28L363.85,95.14L355.38,101.77L346.92,114.02L338.46,100.94L330,104.65L321.54,107.41L313.08,112.86L304.62,97.46L296.15,107.1L287.69,100.28L279.23,101.41L270.77,105.33L262.31,110.75L253.85,109.92L245.38,102.75L236.92,105.81L228.46,100.46L220,100.69L211.54,107.4L203.08,105L194.62,108.45L186.15,96.16L177.69,97.36L152.31,90.16L143.85,91.62L135.38,96.19L126.92,92.16L118.46,92.26L110,88.88L101.54,92.81L93.08,83.86L84.62,87.05L76.15,97.67L67.69,95.26L59.23,115.12L50.77,120.37L42.31,130.24L33.85,135.15L25.38,144.08L16.92,146.02L8.46,164.98L0,164.03Z" style="fill: rgb(145, 191, 219); fill-opacity: 1; stroke-width: 0;"/></g></g><g class="errorbars"/><g class="lines"><path class="js-line" d="M0,164.03L8.46,164.98L16.92,146.02L25.38,144.08L33.85,135.15L42.31,130.24L50.77,120.37L59.23,115.12L67.69,95.26L76.15,97.67L84.62,87.05L93.08,83.86L101.54,92.81L110,88.88L118.46,92.26L126.92,92.16L135.38,96.19L143.85,91.62L152.31,90.16L177.69,97.36L186.15,96.16L194.62,108.45L203.08,105L211.54,107.4L220,100.69L228.46,100.46L236.92,105.81L245.38,102.75L253.85,109.92L262.31,110.75L270.77,105.33L279.23,101.41L287.69,100.28L296.15,107.1L304.62,97.46L313.08,112.86L321.54,107.41L330,104.65L338.46,100.94L346.92,114.02L355.38,101.77L363.85,95.14L372.31,108.28L380.77,111.21L389.23,117.65L397.69,130.68L406.15,146.16L414.62,136.8L423.08,154.18L431.54,149.52L440,149.19" style="vector-effect: non-scaling-stroke; fill: none; stroke: rgb(0, 0, 0); stroke-opacity: 1; stroke-width: 0.25px; opacity: 1;"/></g><g class="points"/><g class="text"/></g><g class="trace scatter tracecd81c5" style="stroke-miterlimit: 2;"><g class="fills"><g><path class="js-fill" d="M0,137.61L8.46,137.93L16.92,127.03L25.38,124.17L33.85,114.9L42.31,104.24L50.77,98.42L67.69,77.2L76.15,73.65L84.62,66.84L93.08,58.27L101.54,67.09L110,73.98L118.46,66.14L126.92,71.48L135.38,73.19L143.85,79.2L152.31,73.7L160.77,77.04L169.23,77.24L177.69,79.37L186.15,85.34L194.62,87.98L211.54,92.58L220,92.61L228.46,92.57L236.92,96.93L245.38,92.8L253.85,95.16L262.31,91.9L270.77,95.88L279.23,92.5L287.69,94.66L296.15,94.63L304.62,92.41L313.08,95.26L321.54,88.49L330,89.84L338.46,87.93L346.92,86.62L355.38,83.51L363.85,89.45L372.31,90.25L397.69,110.66L406.15,121.29L423.08,129.5L431.54,135.7L440,132.04L440,148.4L431.54,144.76L423.08,139.32L414.62,132.84L406.15,130.31L397.69,120.66L389.23,107.83L380.77,101.98L372.31,96.38L363.85,92.11L355.38,91.91L338.46,95.05L330,94.5L321.54,96.54L313.08,100.02L304.62,94.79L296.15,98.88L279.23,98.52L270.77,99.82L262.31,98.57L253.85,98.12L245.38,95.8L236.92,98.58L228.46,96.04L220,96.12L203.08,94.58L194.62,95.62L186.15,89.04L177.69,87.11L169.23,82.32L160.77,85.78L152.31,82.12L143.85,85.3L135.38,82.17L126.92,77.63L118.46,78.54L110,81.47L101.54,72.99L93.08,73.08L84.62,71.65L76.15,86.76L67.69,83.63L59.23,95.81L50.77,106.34L42.31,111.73L33.85,122.39L25.38,130.39L16.92,133.04L8.46,148.78L0,145.66Z" style="fill: rgb(255, 255, 191); fill-opacity: 1; stroke-width: 0;"/></g></g><g class="errorbars"/><g class="lines"><path class="js-line" d="M0,145.66L8.46,148.78L16.92,133.04L25.38,130.39L33.85,122.39L42.31,111.73L50.77,106.34L59.23,95.81L67.69,83.63L76.15,86.76L84.62,71.65L93.08,73.08L101.54,72.99L110,81.47L118.46,78.54L126.92,77.63L135.38,82.17L143.85,85.3L152.31,82.12L160.77,85.78L169.23,82.32L177.69,87.11L186.15,89.04L194.62,95.62L203.08,94.58L220,96.12L228.46,96.04L236.92,98.58L245.38,95.8L253.85,98.12L262.31,98.57L270.77,99.82L279.23,98.52L296.15,98.88L304.62,94.79L313.08,100.02L321.54,96.54L330,94.5L338.46,95.05L355.38,91.91L363.85,92.11L372.31,96.38L380.77,101.98L389.23,107.83L397.69,120.66L406.15,130.31L414.62,132.84L423.08,139.32L431.54,144.76L440,148.4" style="vector-effect: non-scaling-stroke; fill: none; stroke: rgb(0, 0, 0); stroke-opacity: 1; stroke-width: 0.5px; opacity: 1;"/></g><g class="points"/><g class="text"/></g><g class="trace scatter trace18ae24" style="stroke-miterlimit: 2;"><g class="fills"><g><path class="js-fill" d="M0,129.42L8.46,127.33L16.92,124.05L25.38,118.82L33.85,111.94L42.31,98.14L50.77,88.52L59.23,82.79L67.69,67.61L84.62,60.61L93.08,53.99L101.54,54.06L110,58.07L118.46,55.43L126.92,59.61L135.38,57.29L143.85,67.71L152.31,68.08L160.77,66.77L169.23,73.66L177.69,73.09L186.15,79.41L194.62,76.75L203.08,85.43L211.54,87.01L220,86.55L228.46,88.1L236.92,89.53L245.38,85.67L253.85,89.78L262.31,88.39L270.77,90.48L279.23,88.08L287.69,92.22L296.15,88.44L304.62,88.05L313.08,88.6L321.54,84.7L330,77.39L338.46,80.17L346.92,78.66L355.38,81.31L363.85,86.03L372.31,88.07L380.77,95.26L389.23,98.94L397.69,105.66L406.15,114.75L414.62,118.11L423.08,121.79L431.54,127.99L440,120.1L440,132.04L431.54,135.7L423.08,129.5L406.15,121.29L397.69,110.66L372.31,90.25L363.85,89.45L355.38,83.51L346.92,86.62L338.46,87.93L330,89.84L321.54,88.49L313.08,95.26L304.62,92.41L296.15,94.63L287.69,94.66L279.23,92.5L270.77,95.88L262.31,91.9L253.85,95.16L245.38,92.8L236.92,96.93L228.46,92.57L220,92.61L211.54,92.58L194.62,87.98L186.15,85.34L177.69,79.37L169.23,77.24L160.77,77.04L152.31,73.7L143.85,79.2L135.38,73.19L126.92,71.48L118.46,66.14L110,73.98L101.54,67.09L93.08,58.27L84.62,66.84L76.15,73.65L67.69,77.2L50.77,98.42L42.31,104.24L33.85,114.9L25.38,124.17L16.92,127.03L8.46,137.93L0,137.61Z" style="fill: rgb(255, 255, 191); fill-opacity: 1; stroke-width: 0;"/></g></g><g class="errorbars"/><g class="lines"><path class="js-line" d="M0,137.61L8.46,137.93L16.92,127.03L25.38,124.17L33.85,114.9L42.31,104.24L50.77,98.42L67.69,77.2L76.15,73.65L84.62,66.84L93.08,58.27L101.54,67.09L110,73.98L118.46,66.14L126.92,71.48L135.38,73.19L143.85,79.2L152.31,73.7L160.77,77.04L169.23,77.24L177.69,79.37L186.15,85.34L194.62,87.98L211.54,92.58L220,92.61L228.46,92.57L236.92,96.93L245.38,92.8L253.85,95.16L262.31,91.9L270.77,95.88L279.23,92.5L287.69,94.66L296.15,94.63L304.62,92.41L313.08,95.26L321.54,88.49L330,89.84L338.46,87.93L346.92,86.62L355.38,83.51L363.85,89.45L372.31,90.25L397.69,110.66L406.15,121.29L423.08,129.5L431.54,135.7L440,132.04" style="vector-effect: non-scaling-stroke; fill: none; stroke: rgb(0, 0, 0); stroke-opacity: 1; stroke-width: 1px; opacity: 1;"/></g><g class="points"/><g class="text"/></g><g class="trace scatter trace8f803e" style="stroke-miterlimit: 2;"><g class="fills"><g><path class="js-fill" d="M0,118.22L8.46,116L16.92,111.03L25.38,113.37L33.85,101.97L42.31,80.54L50.77,63.77L59.23,65.51L67.69,59.28L76.15,53.98L84.62,46.39L93.08,48.8L101.54,46.69L110,43.35L118.46,50.13L126.92,34.53L135.38,27.11L143.85,54.39L152.31,47.84L160.77,41.72L169.23,67.65L177.69,53.85L186.15,73.56L194.62,52.8L203.08,77.34L211.54,78.52L220,78.01L228.46,83.56L236.92,78.16L245.38,70.66L253.85,79.68L262.31,76.77L270.77,82.48L279.23,81.81L287.69,83.66L296.15,77.45L304.62,82.47L313.08,75.13L321.54,73.85L330,65.45L338.46,67.37L346.92,62.86L355.38,76.4L363.85,81.8L372.31,82.12L380.77,88.97L389.23,91.62L397.69,96.32L406.15,99.07L414.62,107.5L423.08,114.15L431.54,118.44L440,117.09L440,120.1L431.54,127.99L423.08,121.79L414.62,118.11L406.15,114.75L397.69,105.66L389.23,98.94L380.77,95.26L372.31,88.07L363.85,86.03L355.38,81.31L346.92,78.66L338.46,80.17L330,77.39L321.54,84.7L313.08,88.6L304.62,88.05L296.15,88.44L287.69,92.22L279.23,88.08L270.77,90.48L262.31,88.39L253.85,89.78L245.38,85.67L236.92,89.53L228.46,88.1L220,86.55L211.54,87.01L203.08,85.43L194.62,76.75L186.15,79.41L177.69,73.09L169.23,73.66L160.77,66.77L152.31,68.08L143.85,67.71L135.38,57.29L126.92,59.61L118.46,55.43L110,58.07L101.54,54.06L93.08,53.99L84.62,60.61L67.69,67.61L59.23,82.79L50.77,88.52L42.31,98.14L33.85,111.94L25.38,118.82L16.92,124.05L8.46,127.33L0,129.42Z" style="fill: rgb(252, 141, 89); fill-opacity: 1; stroke-width: 0;"/></g></g><g class="errorbars"/><g class="lines"><path class="js-line" d="M0,129.42L8.46,127.33L16.92,124.05L25.38,118.82L33.85,111.94L42.31,98.14L50.77,88.52L59.23,82.79L67.69,67.61L84.62,60.61L93.08,53.99L101.54,54.06L110,58.07L118.46,55.43L126.92,59.61L135.38,57.29L143.85,67.71L152.31,68.08L160.77,66.77L169.23,73.66L177.69,73.09L186.15,79.41L194.62,76.75L203.08,85.43L211.54,87.01L220,86.55L228.46,88.1L236.92,89.53L245.38,85.67L253.85,89.78L262.31,88.39L270.77,90.48L279.23,88.08L287.69,92.22L296.15,88.44L304.62,88.05L313.08,88.6L321.54,84.7L330,77.39L338.46,80.17L346.92,78.66L355.38,81.31L363.85,86.03L372.31,88.07L380.77,95.26L389.23,98.94L397.69,105.66L406.15,114.75L414.62,118.11L423.08,121.79L431.54,127.99L440,120.1" style="vector-effect: non-scaling-stroke; fill: none; stroke: rgb(0, 0, 0); stroke-opacity: 1; stroke-width: 0.5px; opacity: 1;"/></g><g class="points"/><g class="text"/></g><g class="trace scatter traced2c4a5" style="stroke-miterlimit: 2;"><g class="fills"/><g class="errorbars"/><g class="lines"><path class="js-line" d="M0,118.22L8.46,116L16.92,111.03L25.38,113.37L33.85,101.97L42.31,80.54L50.77,63.77L59.23,65.51L67.69,59.28L76.15,53.98L84.62,46.39L93.08,48.8L101.54,46.69L110,43.35L118.46,50.13L126.92,34.53L135.38,27.11L143.85,54.39L152.31,47.84L160.77,41.72L169.23,67.65L177.69,53.85L186.15,73.56L194.62,52.8L203.08,77.34L211.54,78.52L220,78.01L228.46,83.56L236.92,78.16L245.38,70.66L253.85,79.68L262.31,76.77L270.77,82.48L279.23,81.81L287.69,83.66L296.15,77.45L304.62,82.47L313.08,75.13L321.54,73.85L330,65.45L338.46,67.37L346.92,62.86L355.38,76.4L363.85,81.8L372.31,82.12L380.77,88.97L389.23,91.62L397.69,96.32L406.15,99.07L414.62,107.5L423.08,114.15L431.54,118.44L440,117.09" style="vector-effect: non-scaling-stroke; fill: none; stroke: rgb(0, 0, 0); stroke-opacity: 1; stroke-width: 0.25px; opacity: 1;"/></g><g class="points"/><g class="text"/></g><g class="trace scatter trace8818db" style="stroke-miterlimit: 2; opacity: 1;"><g class="fills"/><g class="errorbars"/><g class="lines"/><g class="points"><path class="point" transform="translate(152.31,86.8)" d="M4,0A4,4 0 1,1 0,-4A4,4 0 0,1 4,0ZM0,0.5L0.5,0L0,-0.5L-0.5,0Z" style="opacity: 1; stroke: rgb(0, 0, 0); stroke-opacity: 1; stroke-width: 1px; fill: none;"/><path class="point" transform="translate(160.77,86.8)" d="M4,0A4,4 0 1,1 0,-4A4,4 0 0,1 4,0ZM0,0.5L0.5,0L0,-0.5L-0.5,0Z" style="opacity: 1; stroke: rgb(0, 0, 0); stroke-opacity: 1; stroke-width: 1px; fill: none;"/><path class="point" transform="translate(169.23,93)" d="M4,0A4,4 0 1,1 0,-4A4,4 0 0,1 4,0ZM0,0.5L0.5,0L0,-0.5L-0.5,0Z" style="opacity: 1; stroke: rgb(0, 0, 0); stroke-opacity: 1; stroke-width: 1px; fill: none;"/><path class="point" transform="translate(177.69,93)" d="M4,0A4,4 0 1,1 0,-4A4,4 0 0,1 4,0ZM0,0.5L0.5,0L0,-0.5L-0.5,0Z" style="opacity: 1; stroke: rgb(0, 0, 0); stroke-opacity: 1; stroke-width: 1px; fill: none;"/></g><g class="text"/></g></g></g><g class="overplot"/><path class="xlines-above crisp" d="M0,0" style="fill: none;"/><path class="ylines-above crisp" d="M0,0" style="fill: none;"/><g class="overlines-above"/><g class="xaxislayer-above"/><g class="yaxislayer-above"><g class="y2tick"><text text-anchor="end" x="79" y="4.199999999999999" transform="translate(0,472.00000000000006)" style="font-family: 'Open Sans', verdana, arial, sans-serif; font-size: 12px; fill: rgb(42, 63, 95); fill-opacity: 1; white-space: pre; opacity: 1;">20</text></g><g class="y2tick"><text text-anchor="end" x="79" y="4.199999999999999" style="font-family: 'Open Sans', verdana, arial, sans-serif; font-size: 12px; fill: rgb(42, 63, 95); fill-opacity: 1; white-space: pre; opacity: 1;" transform="translate(0,410.00000000000006)">30</text></g><g class="y2tick"><text text-anchor="end" x="79" y="4.199999999999999" style="font-family: 'Open Sans', verdana, arial, sans-serif; font-size: 12px; fill: rgb(42, 63, 95); fill-opacity: 1; white-space: pre; opacity: 1;" transform="translate(0,348.00000000000006)">40</text></g></g><g class="overaxes-above"/></g><g class="subplot x3y3"><g class="layer-subplot"><g class="shapelayer"/><g class="imagelayer"/></g><g class="minor-gridlayer"><g class="x3"/><g class="y3"/></g><g class="gridlayer"><g class="x3"><path class="x3grid crisp" transform="translate(156.15,0)" d="M0,534v186" style="stroke: rgb(255, 255, 255); stroke-opacity: 1; stroke-width: 1px;"/><path class="x3grid crisp" transform="translate(240.77,0)" d="M0,534v186" style="stroke: rgb(255, 255, 255); stroke-opacity: 1; stroke-width: 1px;"/><path class="x3grid crisp" transform="translate(325.38,0)" d="M0,534v186" style="stroke: rgb(255, 255, 255); stroke-opacity: 1; stroke-width: 1px;"/><path class="x3grid crisp" transform="translate(410,0)" d="M0,534v186" style="stroke: rgb(255, 255, 255); stroke-opacity: 1; stroke-width: 1px;"/><path class="x3grid crisp" transform="translate(494.62,0)" d="M0,534v186" style="stroke: rgb(255, 255, 255); stroke-opacity: 1; stroke-width: 1px;"/></g><g class="y3"><path class="y3grid crisp" transform="translate(0,682.8)" d="M80,0h440" style="stroke: rgb(255, 255, 255); stroke-opacity: 1; stroke-width: 1px;"/><path class="y3grid crisp" transform="translate(0,645.6)" d="M80,0h440" style="stroke: rgb(255, 255, 255); stroke-opacity: 1; stroke-width: 1px;"/><path class="y3grid crisp" transform="translate(0,608.4)" d="M80,0h440" style="stroke: rgb(255, 255, 255); stroke-opacity: 1; stroke-width: 1px;"/><path class="y3grid crisp" transform="translate(0,571.2)" d="M80,0h440" style="stroke: rgb(255, 255, 255); stroke-opacity: 1; stroke-width: 1px;"/></g></g><g class="zerolinelayer"/><path class="xlines-below"/><path class="ylines-below"/><g class="overlines-below"/><g class="xaxislayer-below"/><g class="yaxislayer-below"/><g class="overaxes-below"/><g class="plot" transform="translate(80,534)" clip-path="url(#clip9739e1x3y3plot)"><g class="scatterlayer mlayer"><g class="trace scatter trace0f93b2" style="stroke-miterlimit: 2;"><g class="fills"><g><path class="js-fill" d="M0,122.11L8.46,126.79L16.92,122.72L25.38,119.5L33.85,117.52L42.31,105.05L50.77,95.37L59.23,89.74L67.69,77.38L76.15,74.82L84.62,67.24L93.08,59.94L101.54,57.82L118.46,54.68L126.92,50.6L135.38,51.76L143.85,50.09L152.31,43.58L160.77,40.28L169.23,37.26L177.69,37.38L186.15,35.81L194.62,35.68L211.54,36.56L220,35.93L228.46,36L236.92,36.86L253.85,38.2L262.31,36.7L279.23,38.13L287.69,38.24L296.15,39.22L304.62,39.38L313.08,41.9L321.54,40.57L338.46,44.37L346.92,48.56L355.38,49.64L363.85,60.5L372.31,65.64L380.77,73L397.69,97.36L406.15,99.94L414.62,105.84L423.08,114.3L431.54,117.31L440,132.1L440,137.79L431.54,129.69L414.62,119.97L406.15,114.68L372.31,70.99L363.85,65.77L355.38,53.18L346.92,53.7L338.46,49.56L330,46.09L321.54,44.02L313.08,46.28L304.62,42.05L296.15,41.41L279.23,39.82L270.77,41.92L262.31,41.53L253.85,40.46L245.38,41.92L236.92,39.29L228.46,38.47L220,37.56L203.08,38.51L194.62,41.65L186.15,37.85L177.69,43.46L169.23,40.62L160.77,45.91L152.31,46.47L143.85,56.55L135.38,58.34L126.92,61L110,65.51L101.54,63.11L93.08,72.08L84.62,80.62L76.15,86.01L67.69,86.35L59.23,107.35L50.77,116.24L42.31,121.66L33.85,134.95L25.38,131.47L16.92,138.53L0,137.67Z" style="fill: rgb(90, 180, 172); fill-opacity: 1; stroke-width: 0;"/></g></g><g class="errorbars"/><g class="lines"><path class="js-line" d="M0,137.67L16.92,138.53L25.38,131.47L33.85,134.95L42.31,121.66L50.77,116.24L59.23,107.35L67.69,86.35L76.15,86.01L84.62,80.62L93.08,72.08L101.54,63.11L110,65.51L126.92,61L135.38,58.34L143.85,56.55L152.31,46.47L160.77,45.91L169.23,40.62L177.69,43.46L186.15,37.85L194.62,41.65L203.08,38.51L220,37.56L228.46,38.47L236.92,39.29L245.38,41.92L253.85,40.46L262.31,41.53L270.77,41.92L279.23,39.82L296.15,41.41L304.62,42.05L313.08,46.28L321.54,44.02L330,46.09L338.46,49.56L346.92,53.7L355.38,53.18L363.85,65.77L372.31,70.99L406.15,114.68L414.62,119.97L431.54,129.69L440,137.79" style="vector-effect: non-scaling-stroke; fill: none; stroke: rgb(0, 0, 0); stroke-opacity: 1; stroke-width: 0.25px; opacity: 1;"/></g><g class="points"/><g class="text"/></g><g class="trace scatter tracecbcfe6" style="stroke-miterlimit: 2;"><g class="fills"><g><path class="js-fill" d="M0,116.48L8.46,120.85L16.92,116.06L25.38,111.39L33.85,110.36L42.31,92.77L50.77,90.5L67.69,71.97L76.15,71.06L84.62,62.05L93.08,54.87L101.54,53.77L110,51.87L118.46,47.73L126.92,45.33L135.38,46.53L143.85,45.94L152.31,39.71L160.77,36.99L177.69,34.86L186.15,34.28L194.62,34.62L203.08,33.82L211.54,34.94L220,34.11L228.46,33.96L236.92,35.68L245.38,35.81L253.85,36.95L262.31,35.08L270.77,36.03L287.69,36.77L296.15,37.8L313.08,38.91L321.54,37.94L330,40.03L338.46,41.34L346.92,42.68L355.38,47.6L363.85,56.33L372.31,58.89L389.23,77.44L397.69,88.14L406.15,93.65L414.62,101.96L423.08,106.93L431.54,113.63L440,127.38L440,132.1L431.54,117.31L423.08,114.3L414.62,105.84L406.15,99.94L397.69,97.36L380.77,73L372.31,65.64L363.85,60.5L355.38,49.64L346.92,48.56L338.46,44.37L321.54,40.57L313.08,41.9L304.62,39.38L296.15,39.22L287.69,38.24L279.23,38.13L262.31,36.7L253.85,38.2L236.92,36.86L228.46,36L220,35.93L211.54,36.56L194.62,35.68L186.15,35.81L177.69,37.38L169.23,37.26L160.77,40.28L152.31,43.58L143.85,50.09L135.38,51.76L126.92,50.6L118.46,54.68L101.54,57.82L93.08,59.94L84.62,67.24L76.15,74.82L67.69,77.38L59.23,89.74L50.77,95.37L42.31,105.05L33.85,117.52L25.38,119.5L16.92,122.72L8.46,126.79L0,122.11Z" style="fill: rgb(245, 245, 245); fill-opacity: 1; stroke-width: 0;"/></g></g><g class="errorbars"/><g class="lines"><path class="js-line" d="M0,122.11L8.46,126.79L16.92,122.72L25.38,119.5L33.85,117.52L42.31,105.05L50.77,95.37L59.23,89.74L67.69,77.38L76.15,74.82L84.62,67.24L93.08,59.94L101.54,57.82L118.46,54.68L126.92,50.6L135.38,51.76L143.85,50.09L152.31,43.58L160.77,40.28L169.23,37.26L177.69,37.38L186.15,35.81L194.62,35.68L211.54,36.56L220,35.93L228.46,36L236.92,36.86L253.85,38.2L262.31,36.7L279.23,38.13L287.69,38.24L296.15,39.22L304.62,39.38L313.08,41.9L321.54,40.57L338.46,44.37L346.92,48.56L355.38,49.64L363.85,60.5L372.31,65.64L380.77,73L397.69,97.36L406.15,99.94L414.62,105.84L423.08,114.3L431.54,117.31L440,132.1" style="vector-effect: non-scaling-stroke; fill: none; stroke: rgb(0, 0, 0); stroke-opacity: 1; stroke-width: 0.5px; opacity: 1;"/></g><g class="points"/><g class="text"/></g><g class="trace scatter trace576267" style="stroke-miterlimit: 2;"><g class="fills"><g><path class="js-fill" d="M0,107.53L8.46,111.73L16.92,111.87L25.38,105.77L33.85,98.31L42.31,86.89L50.77,79.59L67.69,65.53L76.15,60.04L84.62,54.37L93.08,51.69L101.54,48.76L110,46.89L118.46,45.11L126.92,40.89L135.38,37.65L143.85,41.65L152.31,38.34L160.77,33.62L169.23,32.08L177.69,32.26L186.15,32.48L194.62,30.41L203.08,32.23L211.54,32.9L220,32.96L228.46,31.57L245.38,34.62L253.85,34.12L262.31,33.13L270.77,33.88L287.69,34.92L296.15,35.72L304.62,37.5L313.08,36.82L330,36.8L338.46,37.23L346.92,39.13L355.38,45.59L363.85,50.79L372.31,53.93L380.77,65.16L389.23,70.79L397.69,80.29L406.15,88.39L414.62,94.36L423.08,94.84L431.54,108.3L440,119.6L440,127.38L431.54,113.63L423.08,106.93L414.62,101.96L406.15,93.65L397.69,88.14L389.23,77.44L372.31,58.89L363.85,56.33L355.38,47.6L346.92,42.68L338.46,41.34L330,40.03L321.54,37.94L313.08,38.91L296.15,37.8L287.69,36.77L270.77,36.03L262.31,35.08L253.85,36.95L245.38,35.81L236.92,35.68L228.46,33.96L220,34.11L211.54,34.94L203.08,33.82L194.62,34.62L186.15,34.28L177.69,34.86L160.77,36.99L152.31,39.71L143.85,45.94L135.38,46.53L126.92,45.33L118.46,47.73L110,51.87L101.54,53.77L93.08,54.87L84.62,62.05L76.15,71.06L67.69,71.97L50.77,90.5L42.31,92.77L33.85,110.36L25.38,111.39L16.92,116.06L8.46,120.85L0,116.48Z" style="fill: rgb(245, 245, 245); fill-opacity: 1; stroke-width: 0;"/></g></g><g class="errorbars"/><g class="lines"><path class="js-line" d="M0,116.48L8.46,120.85L16.92,116.06L25.38,111.39L33.85,110.36L42.31,92.77L50.77,90.5L67.69,71.97L76.15,71.06L84.62,62.05L93.08,54.87L101.54,53.77L110,51.87L118.46,47.73L126.92,45.33L135.38,46.53L143.85,45.94L152.31,39.71L160.77,36.99L177.69,34.86L186.15,34.28L194.62,34.62L203.08,33.82L211.54,34.94L220,34.11L228.46,33.96L236.92,35.68L245.38,35.81L253.85,36.95L262.31,35.08L270.77,36.03L287.69,36.77L296.15,37.8L313.08,38.91L321.54,37.94L330,40.03L338.46,41.34L346.92,42.68L355.38,47.6L363.85,56.33L372.31,58.89L389.23,77.44L397.69,88.14L406.15,93.65L414.62,101.96L423.08,106.93L431.54,113.63L440,127.38" style="vector-effect: non-scaling-stroke; fill: none; stroke: rgb(0, 0, 0); stroke-opacity: 1; stroke-width: 1px; opacity: 1;"/></g><g class="points"/><g class="text"/></g><g class="trace scatter traced83d89" style="stroke-miterlimit: 2;"><g class="fills"><g><path class="js-fill" d="M0,99.53L8.46,100.56L16.92,95.71L33.85,84.96L42.31,74.83L50.77,61.79L59.23,64.36L67.69,56.27L76.15,44.81L84.62,46.03L93.08,41.6L101.54,41.91L110,37.41L118.46,36.11L126.92,32.9L135.38,21.6L143.85,33.9L152.31,30.7L160.77,25.22L169.23,25.42L177.69,28.55L186.15,28.55L194.62,25.44L203.08,30.9L211.54,28.29L220,31.05L228.46,30.45L236.92,31.69L245.38,33.75L262.31,32.25L270.77,28.69L279.23,29.25L287.69,34.31L304.62,35.46L313.08,32.68L321.54,32.87L330,29.52L338.46,28.14L346.92,30.97L355.38,40.45L363.85,41.24L380.77,54.49L389.23,63.25L397.69,70.78L406.15,74.49L414.62,82.53L423.08,88.69L431.54,96.82L440,119.09L440,119.6L431.54,108.3L423.08,94.84L414.62,94.36L406.15,88.39L397.69,80.29L389.23,70.79L380.77,65.16L372.31,53.93L363.85,50.79L355.38,45.59L346.92,39.13L338.46,37.23L330,36.8L313.08,36.82L304.62,37.5L296.15,35.72L287.69,34.92L270.77,33.88L262.31,33.13L253.85,34.12L245.38,34.62L228.46,31.57L220,32.96L211.54,32.9L203.08,32.23L194.62,30.41L186.15,32.48L177.69,32.26L169.23,32.08L160.77,33.62L152.31,38.34L143.85,41.65L135.38,37.65L126.92,40.89L118.46,45.11L110,46.89L101.54,48.76L93.08,51.69L84.62,54.37L76.15,60.04L67.69,65.53L50.77,79.59L42.31,86.89L33.85,98.31L25.38,105.77L16.92,111.87L8.46,111.73L0,107.53Z" style="fill: rgb(216, 179, 101); fill-opacity: 1; stroke-width: 0;"/></g></g><g class="errorbars"/><g class="lines"><path class="js-line" d="M0,107.53L8.46,111.73L16.92,111.87L25.38,105.77L33.85,98.31L42.31,86.89L50.77,79.59L67.69,65.53L76.15,60.04L84.62,54.37L93.08,51.69L101.54,48.76L110,46.89L118.46,45.11L126.92,40.89L135.38,37.65L143.85,41.65L152.31,38.34L160.77,33.62L169.23,32.08L177.69,32.26L186.15,32.48L194.62,30.41L203.08,32.23L211.54,32.9L220,32.96L228.46,31.57L245.38,34.62L253.85,34.12L262.31,33.13L270.77,33.88L287.69,34.92L296.15,35.72L304.62,37.5L313.08,36.82L330,36.8L338.46,37.23L346.92,39.13L355.38,45.59L363.85,50.79L372.31,53.93L380.77,65.16L389.23,70.79L397.69,80.29L406.15,88.39L414.62,94.36L423.08,94.84L431.54,108.3L440,119.6" style="vector-effect: non-scaling-stroke; fill: none; stroke: rgb(0, 0, 0); stroke-opacity: 1; stroke-width: 0.5px; opacity: 1;"/></g><g class="points"/><g class="text"/></g><g class="trace scatter traced6788c" style="stroke-miterlimit: 2;"><g class="fills"/><g class="errorbars"/><g class="lines"><path class="js-line" d="M0,99.53L8.46,100.56L16.92,95.71L33.85,84.96L42.31,74.83L50.77,61.79L59.23,64.36L67.69,56.27L76.15,44.81L84.62,46.03L93.08,41.6L101.54,41.91L110,37.41L118.46,36.11L126.92,32.9L135.38,21.6L143.85,33.9L152.31,30.7L160.77,25.22L169.23,25.42L177.69,28.55L186.15,28.55L194.62,25.44L203.08,30.9L211.54,28.29L220,31.05L228.46,30.45L236.92,31.69L245.38,33.75L262.31,32.25L270.77,28.69L279.23,29.25L287.69,34.31L304.62,35.46L313.08,32.68L321.54,32.87L330,29.52L338.46,28.14L346.92,30.97L355.38,40.45L363.85,41.24L380.77,54.49L389.23,63.25L397.69,70.78L406.15,74.49L414.62,82.53L423.08,88.69L431.54,96.82L440,119.09" style="vector-effect: non-scaling-stroke; fill: none; stroke: rgb(0, 0, 0); stroke-opacity: 1; stroke-width: 0.25px; opacity: 1;"/></g><g class="points"/><g class="text"/></g><g class="trace scatter traceae26d4" style="stroke-miterlimit: 2; opacity: 1;"><g class="fills"/><g class="errorbars"/><g class="lines"/><g class="points"><path class="point" transform="translate(152.31,52.08)" d="M4,0A4,4 0 1,1 0,-4A4,4 0 0,1 4,0ZM0,0.5L0.5,0L0,-0.5L-0.5,0Z" style="opacity: 1; stroke: rgb(0, 0, 0); stroke-opacity: 1; stroke-width: 1px; fill: none;"/><path class="point" transform="translate(160.77,52.08)" d="M4,0A4,4 0 1,1 0,-4A4,4 0 0,1 4,0ZM0,0.5L0.5,0L0,-0.5L-0.5,0Z" style="opacity: 1; stroke: rgb(0, 0, 0); stroke-opacity: 1; stroke-width: 1px; fill: none;"/><path class="point" transform="translate(169.23,44.64)" d="M4,0A4,4 0 1,1 0,-4A4,4 0 0,1 4,0ZM0,0.5L0.5,0L0,-0.5L-0.5,0Z" style="opacity: 1; stroke: rgb(0, 0, 0); stroke-opacity: 1; stroke-width: 1px; fill: none;"/><path class="point" transform="translate(177.69,44.64)" d="M4,0A4,4 0 1,1 0,-4A4,4 0 0,1 4,0ZM0,0.5L0.5,0L0,-0.5L-0.5,0Z" style="opacity: 1; stroke: rgb(0, 0, 0); stroke-opacity: 1; stroke-width: 1px; fill: none;"/></g><g class="text"/></g></g></g><g class="overplot"/><path class="xlines-above crisp" d="M0,0" style="fill: none;"/><path class="ylines-above crisp" d="M0,0" style="fill: none;"/><g class="overlines-above"/><g class="xaxislayer-above"><g class="x3tick"><text text-anchor="middle" x="0" y="733" transform="translate(156.15,0)" style="font-family: 'Open Sans', verdana, arial, sans-serif; font-size: 12px; fill: rgb(42, 63, 95); fill-opacity: 1; white-space: pre; opacity: 1;">10</text></g><g class="x3tick"><text text-anchor="middle" x="0" y="733" style="font-family: 'Open Sans', verdana, arial, sans-serif; font-size: 12px; fill: rgb(42, 63, 95); fill-opacity: 1; white-space: pre; opacity: 1;" transform="translate(240.77,0)">20</text></g><g class="x3tick"><text text-anchor="middle" x="0" y="733" style="font-family: 'Open Sans', verdana, arial, sans-serif; font-size: 12px; fill: rgb(42, 63, 95); fill-opacity: 1; white-space: pre; opacity: 1;" transform="translate(325.38,0)">30</text></g><g class="x3tick"><text text-anchor="middle" x="0" y="733" style="font-family: 'Open Sans', verdana, arial, sans-serif; font-size: 12px; fill: rgb(42, 63, 95); fill-opacity: 1; white-space: pre; opacity: 1;" transform="translate(410,0)">40</text></g><g class="x3tick"><text text-anchor="middle" x="0" y="733" style="font-family: 'Open Sans', verdana, arial, sans-serif; font-size: 12px; fill: rgb(42, 63, 95); fill-opacity: 1; white-space: pre; opacity: 1;" transform="translate(494.62,0)">50</text></g></g><g class="yaxislayer-above"><g class="y3tick"><text text-anchor="end" x="79" y="4.199999999999999" transform="translate(0,720)" style="font-family: 'Open Sans', verdana, arial, sans-serif; font-size: 12px; fill: rgb(42, 63, 95); fill-opacity: 1; white-space: pre; opacity: 1;">5</text></g><g class="y3tick"><text text-anchor="end" x="79" y="4.199999999999999" style="font-family: 'Open Sans', verdana, arial, sans-serif; font-size: 12px; fill: rgb(42, 63, 95); fill-opacity: 1; white-space: pre; opacity: 1;" transform="translate(0,682.8)">10</text></g><g class="y3tick"><text text-anchor="end" x="79" y="4.199999999999999" style="font-family: 'Open Sans', verdana, arial, sans-serif; font-size: 12px; fill: rgb(42, 63, 95); fill-opacity: 1; white-space: pre; opacity: 1;" transform="translate(0,645.6)">15</text></g><g class="y3tick"><text text-anchor="end" x="79" y="4.199999999999999" style="font-family: 'Open Sans', verdana, arial, sans-serif; font-size: 12px; fill: rgb(42, 63, 95); fill-opacity: 1; white-space: pre; opacity: 1;" transform="translate(0,608.4)">20</text></g><g class="y3tick"><text text-anchor="end" x="79" y="4.199999999999999" style="font-family: 'Open Sans', verdana, arial, sans-serif; font-size: 12px; fill: rgb(42, 63, 95); fill-opacity: 1; white-space: pre; opacity: 1;" transform="translate(0,571.2)">25</text></g><g class="y3tick"><text text-anchor="end" x="79" y="4.199999999999999" style="font-family: 'Open Sans', verdana, arial, sans-serif; font-size: 12px; fill: rgb(42, 63, 95); fill-opacity: 1; white-space: pre; opacity: 1;" transform="translate(0,534)">30</text></g></g><g class="overaxes-above"/></g></g><g class="polarlayer"/><g class="smithlayer"/><g class="ternarylayer"/><g class="geolayer"/><g class="funnelarealayer"/><g class="pielayer"/><g class="iciclelayer"/><g class="treemaplayer"/><g class="sunburstlayer"/><g class="glimages"/><defs id="topdefs-9739e1"><g class="clips"/></defs><g class="layer-above"><g class="imagelayer"/><g class="shapelayer"/></g><g class="infolayer"><g class="g-gtitle"><text class="gtitle" x="30" y="50" text-anchor="start" dy="0em" style="font-family: 'Open Sans', verdana, arial, sans-serif; font-size: 17px; fill: rgb(42, 63, 95); opacity: 1; font-weight: normal; white-space: pre;">Climatology and S2S forecast for Khulna</text></g><g class="g-xtitle"/><g class="g-x2title"/><g class="g-x3title"/><g class="g-ytitle"><text class="ytitle" transform="rotate(-90,34.16875,193)" x="34.16875" y="193" text-anchor="middle" style="font-family: 'Open Sans', verdana, arial, sans-serif; font-size: 14px; fill: rgb(42, 63, 95); opacity: 1; font-weight: normal; white-space: pre;">[mm]</text></g><g class="g-y2title"><text class="y2title" transform="rotate(-90,40.840625,410.00000000000006)" x="40.840625" y="410.00000000000006" text-anchor="middle" style="font-family: 'Open Sans', verdana, arial, sans-serif; font-size: 14px; fill: rgb(42, 63, 95); opacity: 1; font-weight: normal; white-space: pre;">[C]</text></g><g class="g-y3title"><text class="y3title" transform="rotate(-90,40.840625,627)" x="40.840625" y="627" text-anchor="middle" style="font-family: 'Open Sans', verdana, arial, sans-serif; font-size: 14px; fill: rgb(42, 63, 95); opacity: 1; font-weight: normal; white-space: pre;">[C]</text></g><g class="annotation" data-index="0" style="opacity: 1;"><g class="annotation-text-g" transform="rotate(0,300,89.5)"><g class="cursor-pointer" transform="translate(237,79)"><rect class="bg" x="0.5" y="0.5" width="126" height="20" style="stroke-width: 1px; stroke: rgb(0, 0, 0); stroke-opacity: 0; fill: rgb(0, 0, 0); fill-opacity: 0;"/><text class="annotation-text" text-anchor="middle" x="63.359375" y="16" style="font-family: 'Open Sans', verdana, arial, sans-serif; font-size: 16px; fill: rgb(42, 63, 95); fill-opacity: 1; white-space: pre;">Precipitation sum</text></g></g></g><g class="annotation" data-index="1" style="opacity: 1;"><g class="annotation-text-g" transform="rotate(0,300,306.50000000000006)"><g class="cursor-pointer" transform="translate(196,296)"><rect class="bg" x="0.5" y="0.5" width="208" height="20" style="stroke-width: 1px; stroke: rgb(0, 0, 0); stroke-opacity: 0; fill: rgb(0, 0, 0); fill-opacity: 0;"/><text class="annotation-text" text-anchor="middle" x="104.265625" y="16" style="font-family: 'Open Sans', verdana, arial, sans-serif; font-size: 16px; fill: rgb(42, 63, 95); fill-opacity: 1; white-space: pre;">Mean maximum temperature</text></g></g></g><g class="annotation" data-index="2" style="opacity: 1;"><g class="annotation-text-g" transform="rotate(0,300,523.5)"><g class="cursor-pointer" transform="translate(198,513)"><rect class="bg" x="0.5" y="0.5" width="203" height="20" style="stroke-width: 1px; stroke: rgb(0, 0, 0); stroke-opacity: 0; fill: rgb(0, 0, 0); fill-opacity: 0;"/><text class="annotation-text" text-anchor="middle" x="102.046875" y="16" style="font-family: 'Open Sans', verdana, arial, sans-serif; font-size: 16px; fill: rgb(42, 63, 95); fill-opacity: 1; white-space: pre;">Mean minimum temperature</text></g></g></g><g class="annotation" data-index="3" style="opacity: 1;"><g class="annotation-text-g" transform="rotate(0,300,760.5)"><g class="cursor-pointer" transform="translate(277,750)"><rect class="bg" x="0.5" y="0.5" width="45" height="20" style="stroke-width: 1px; stroke: rgb(0, 0, 0); stroke-opacity: 0; fill: rgb(0, 0, 0); fill-opacity: 0;"/><text class="annotation-text" text-anchor="middle" x="22.3125" y="16" style="font-family: 'Open Sans', verdana, arial, sans-serif; font-size: 16px; fill: rgb(42, 63, 95); fill-opacity: 1; white-space: pre;">Week</text></g></g></g></g></svg>