<svg class="main-svg" xmlns="http://www.w3.org/2000/svg" xmlns:xlink="http://www.w3.org/1999/xlink" width="600" height="800" style="" viewBox="0 0 600 800"><rect x="0" y="0" width="600" height="800" style="fill: rgb(255, 255, 255); fill-opacity: 1;"/><defs id="defs-f351a9"><g class="clips"><clipPath id="clipf351a9xyplot" class="plotclip"><rect width="440" height="186.00000000000003"/></clipPath><clipPath id="clipf351a9x2y2plot" class="plotclip"><rect width="440" height="185.99999999999997"/></clipPath><clipPath id="clipf351a9x3y3plot" class="plotclip"><rect width="440" height="186"/></clipPath><clipPath class="axesclip" id="clipf351a9x"><rect x="80" y="0" width="440" height="800"/></clipPath><clipPath class="axesclip" id="clipf351a9y"><rect x="0" y="100" width="600" height="186.00000000000003"/></clipPath><clipPath class="axesclip" id="clipf351a9xy"><rect x="80" y="100" width="440" height="186.00000000000003"/></clipPath><clipPath class="axesclip" id="clipf351a9y2"><rect x="0" y="317.00000000000006" width="600" height="185.99999999999997"/></clipPath><clipPath class="axesclip" id="clipf351a9xy2"><rect x="80" y="317.00000000000006" width="440" height="185.99999999999997"/></clipPath><clipPath class="axesclip" id="clipf351a9y3"><rect x="0" y="534" width="600" height="186"/></clipPath><clipPath class="axesclip" id="clipf351a9xy3"><rect x="80" y="534" width="440" height="186"/></clipPath><clipPath class="axesclip" id="clipf351a9x2"><rect x="80" y="0" width="440" height="800"/></clipPath><clipPath class="axesclip" id="clipf351a9x2y"><rect x="80" y="100" width="440" height="186.00000000000003"/></clipPath><clipPath class="axesclip" id="clipf351a9x2y2"><rect x="80" y="317.00000000000006" width="440" height="185.99999999999997"/></clipPath><clipPath class="axesclip" id="clipf351a9x2y3"><rect x="80" y="534" width="440" height="186"/></clipPath><clipPath class="axesclip" id="clipf351a9x3"><rect x="80" y="0" width="440" height="800"/></clipPath><clipPath class="axesclip" id="clipf351a9x3y"><rect x="80" y="100" width="440" height="186.00000000000003"/></clipPath><clipPath class="axesclip" id="clipf351a9x3y2"><rect x="80" y="317.00000000000006" width="440" height="185.99999999999997"/></clipPath><clipPath class="axesclip" id="clipf351a9x3y3"><rect x="80" y="534" width="440" height="186"/></clipPath></g><g class="gradients"/><g class="patterns"/></defs><g class="bglayer"><rect class="bg" x="80" y="100" width="440" height="186.00000000000003" style="fill: rgb(229, 236, 246); fill-opacity: 1; stroke-width: 0;"/><rect class="bg" x="80" y="317.00000000000006" width="440" height="185.99999999999997" style="fill: rgb(229, 236, 246); fill-opacity: 1; stroke-width: 0;"/><rect class="bg" x="80" y="534" width="440" height="186" style="fill: rgb(229, 236, 246); fill-opacity: 1; stroke-width: 0;"/></g><g class="layer-below"><g class="imagelayer"/><g class="shapelayer"/></g><g class="cartesianlayer"><g class="subplot xy"><g class="layer-subplot"><g class="shapelayer"/><g class="imagelayer"/></g><g class="minor-gridlayer"><g class="x"/><g class="y"/></g><g class="gridlayer"><g class="x"><path class="xgrid crisp" transform="translate(156.15,0)" d="M0,100v186.00000000000003" style="stroke: rgb(255, 255, 255); stroke-opacity: 1; stroke-width: 1px;"/><path class="xgrid crisp" transform="translate(240.77,0)" d="M0,100v186.00000000000003" style="stroke: rgb(255, 255, 255); stroke-opacity: 1; stroke-width: 1px;"/><path class="xgrid crisp" transform="translate(325.38,0)" d="M0,100v186.00000000000003" style="stroke: rgb(255, 255, 255); stroke-opacity: 1; stroke-width: 1px;"/><path class="xgrid crisp" transform="translate(410,0)" d="M0,100v186.00000000000003" style="stroke: rgb(255, 255, 255); stroke-opacity: 1; stroke-width: 1px;"/><path class="xgrid crisp" transform="translate(494.62,0)" d="M0,100v186.00000000000003" style="stroke: rgb(255, 255, 255); stroke-opacity: 1; stroke-width: 1px;"/></g><g class="y"><path class="ygrid crisp" transform="translate(0,248.8)" d="M80,0h440" style="stroke: rgb(255, 255, 255); stroke-opacity: 1; stroke-width: 1px;"/><path class="ygrid crisp" transform="translate(0,211.6)" d="M80,0h440" style="stroke: rgb(255, 255, 255); stroke-opacity: 1; stroke-width: 1px;"/><path class="ygrid crisp" transform="translate(0,174.4)" d="M80,0h440" style="stroke: rgb(255, 255, 255); stroke-opacity: 1; stroke-width: 1px;"/><path class="ygrid crisp" transform="translate(0,137.2)" d="M80,0h440" style="stroke: rgb(255, 255, 255); stroke-opacity: 1; stroke-width: 1px;"/></g></g><g class="zerolinelayer"><path class="yzl zl crisp" transform="translate(0,286)" d="M80,0h440" style="stroke: rgb(255, 255, 255); stroke-opacity: 1; stroke-width: 2px;"/></g><path class="xlines-below"/><path class="ylines-below"/><g class="overlines-below"/><g class="xaxislayer-below"/><g class="yaxislayer-below"/><g class="overaxes-below"/><g class="plot" transform="translate(80,100)" clip-path="url(#clipf351a9xyplot)"><g class="scatterlayer mlayer"><g class="trace scatter tracefed928" style="stroke-miterlimit: 2;"><g class="fills"><g><path class="js-fill" d="M0,186L126.92,185.99L135.38,183.94L143.85,177.26L152.31,179.86L160.77,173.35L169.23,150.29L177.69,167.03L186.15,138.2L194.62,154.94L203.08,122.95L211.54,104.16L220,137.46L236.92,118.67L245.38,127.97L253.85,142.48L262.31,138.4L270.77,123.32L279.23,131.69L287.69,159.13L296.15,157.17L304.62,164.24L313.08,162.94L321.54,166.82L330,174.47L338.46,164.61L346.92,179.68L355.38,186L363.85,186L440,186L440,186L330,186L321.54,186L304.62,180.79L296.15,178.56L287.69,182.28L279.23,158.47L270.77,165.17L262.31,176.33L253.85,185.26L245.38,184.51L236.92,165.91L228.46,171.86L220,183.77L211.54,161.45L203.08,177.78L194.62,184.51L186.15,186L177.69,186L169.23,184.51L160.77,186L0,186Z" style="fill: rgb(224, 236, 244); fill-opacity: 1; stroke-width: 0;"/></g></g><g class="errorbars"/><g class="lines"><path class="js-line" d="M0,186L160.77,186L169.23,184.51L177.69,186L186.15,186L194.62,184.51L203.08,177.78L211.54,161.45L220,183.77L228.46,171.86L236.92,165.91L245.38,184.51L253.85,185.26L262.31,176.33L270.77,165.17L279.23,158.47L287.69,182.28L296.15,178.56L304.62,180.79L321.54,186L330,186L440,186" style="vector-effect: non-scaling-stroke; fill: none; stroke: rgb(0, 0, 0); stroke-opacity: 1; stroke-width: 0.25px; opacity: 1;"/></g><g class="points"/><g class="text"/></g><g class="trace scatter trace8f064e" style="stroke-miterlimit: 2;"><g class="fills"><g><path class="js-fill" d="M0,186L101.54,186L110,161.82L118.46,185.14L126.92,175.21L135.38,174.47L143.85,148.44L152.31,163.68L160.77,121.27L169.23,122.39L177.69,133.18L186.15,107.14L194.62,102.3L211.54,57.66L220,107.14L228.46,85.56L236.92,102.67L245.38,81.84L253.85,107.51L262.31,105.65L270.77,93.74L279.23,109.36L287.69,135.04L296.15,139.6L304.62,129.97L313.08,158.47L321.54,139.87L330,143.22L338.46,139.91L346.92,169.63L355.38,184.76L363.85,186L372.31,186L440,186L440,186L363.85,186L355.38,186L346.92,179.68L338.46,164.61L330,174.47L321.54,166.82L313.08,162.94L304.62,164.24L296.15,157.17L287.69,159.13L279.23,131.69L270.77,123.32L262.31,138.4L253.85,142.48L245.38,127.97L236.92,118.67L220,137.46L211.54,104.16L203.08,122.95L194.62,154.94L186.15,138.2L177.69,167.03L169.23,150.29L160.77,173.35L152.31,179.86L143.85,177.26L135.38,183.94L126.92,185.99L0,186Z" style="fill: rgb(158, 188, 218); fill-opacity: 1; stroke-width: 0;"/></g></g><g class="errorbars"/><g class="lines"><path class="js-line" d="M0,186L126.92,185.99L135.38,183.94L143.85,177.26L152.31,179.86L160.77,173.35L169.23,150.29L177.69,167.03L186.15,138.2L194.62,154.94L203.08,122.95L211.54,104.16L220,137.46L236.92,118.67L245.38,127.97L253.85,142.48L262.31,138.4L270.77,123.32L279.23,131.69L287.69,159.13L296.15,157.17L304.62,164.24L313.08,162.94L321.54,166.82L330,174.47L338.46,164.61L346.92,179.68L355.38,186L363.85,186L440,186" style="vector-effect: non-scaling-stroke; fill: none; stroke: rgb(0, 0, 0); stroke-opacity: 1; stroke-width: 0.5px; opacity: 1;"/></g><g class="points"/><g class="text"/></g><g class="trace scatter tracec70b30" style="stroke-miterlimit: 2;"><g class="fills"><g><path class="js-fill" d="M0,186L42.31,186L50.77,184.7L59.23,185.26L67.69,184.51L76.15,182.47L84.62,181.35L93.08,178.75L101.54,180.98L110,154.57L118.46,174.28L126.92,163.86L135.38,157.54L143.85,116.44L152.31,128.59L160.77,99.51L169.23,99.14L177.69,90.95L186.15,68.26L194.62,35.34L203.08,62.49L211.54,-17.11L220,20.46L228.46,44.45L236.92,57.1L245.38,28.83L253.85,70.31L262.31,77.01L270.77,61.19L279.23,101.35L287.69,83.88L296.15,101.18L304.62,78.12L313.08,121.64L321.54,114.02L330,111.41L338.46,102.67L346.92,132.8L355.38,150.27L363.85,183.77L372.31,185.4L380.77,180.4L389.23,186L440,186L440,186L372.31,186L363.85,186L355.38,184.76L346.92,169.63L338.46,139.91L330,143.22L321.54,139.87L313.08,158.47L304.62,129.97L296.15,139.6L287.69,135.04L279.23,109.36L270.77,93.74L262.31,105.65L253.85,107.51L245.38,81.84L236.92,102.67L228.46,85.56L220,107.14L211.54,57.66L194.62,102.3L186.15,107.14L177.69,133.18L169.23,122.39L160.77,121.27L152.31,163.68L143.85,148.44L135.38,174.47L126.92,175.21L118.46,185.14L110,161.82L101.54,186L0,186Z" style="fill: rgb(158, 188, 218); fill-opacity: 1; stroke-width: 0;"/></g></g><g class="errorbars"/><g class="lines"><path class="js-line" d="M0,186L101.54,186L110,161.82L118.46,185.14L126.92,175.21L135.38,174.47L143.85,148.44L152.31,163.68L160.77,121.27L169.23,122.39L177.69,133.18L186.15,107.14L194.62,102.3L211.54,57.66L220,107.14L228.46,85.56L236.92,102.67L245.38,81.84L253.85,107.51L262.31,105.65L270.77,93.74L279.23,109.36L287.69,135.04L296.15,139.6L304.62,129.97L313.08,158.47L321.54,139.87L330,143.22L338.46,139.91L346.92,169.63L355.38,184.76L363.85,186L372.31,186L440,186" style="vector-effect: non-scaling-stroke; fill: none; stroke: rgb(0, 0, 0); stroke-opacity: 1; stroke-width: 1px; opacity: 1;"/></g><g class="points"/><g class="text"/></g><g class="trace scatter tracec93220" style="stroke-miterlimit: 2;"><g class="fills"><g><path class="js-fill" d="M0,186L42.31,186L50.77,184.51L59.23,185.26L67.69,184.51L76.15,178.56L84.62,176.33L93.08,169.63L101.54,180.79L110,107.88L118.46,173.35L126.92,130.94L135.38,124.99L143.85,65.47L152.31,76.63L160.77,2.98L169.23,23.06L177.69,14.88L186.15,20.09L194.62,-141.36L203.08,-14.88L211.54,-154.75L220,-142.85L228.46,-49.1L236.92,-24.55L245.38,-107.87L253.85,-25.3L270.77,7.44L279.23,84.82L287.69,44.64L296.15,69.19L304.62,13.39L313.08,84.82L321.54,79.61L330,48.36L338.46,63.98L346.92,67.7L355.38,117.55L363.85,183.77L372.31,185.26L380.77,174.1L389.23,186L397.69,186L440,186L440,186L389.23,186L380.77,180.4L372.31,185.4L363.85,183.77L355.38,150.27L346.92,132.8L338.46,102.67L330,111.41L321.54,114.02L313.08,121.64L304.62,78.12L296.15,101.18L287.69,83.88L279.23,101.35L270.77,61.19L262.31,77.01L253.85,70.31L245.38,28.83L236.92,57.1L228.46,44.45L220,20.46L211.54,-17.11L203.08,62.49L194.62,35.34L186.15,68.26L177.69,90.95L169.23,99.14L160.77,99.51L152.31,128.59L143.85,116.44L135.38,157.54L126.92,163.86L118.46,174.28L110,154.57L101.54,180.98L93.08,178.75L84.62,181.35L76.15,182.47L67.69,184.51L59.23,185.26L50.77,184.7L42.31,186L0,186Z" style="fill: rgb(136, 86, 167); fill-opacity: 1; stroke-width: 0;"/></g></g><g class="errorbars"/><g class="lines"><path class="js-line" d="M0,186L42.31,186L50.77,184.7L59.23,185.26L67.69,184.51L76.15,182.47L84.62,181.35L93.08,178.75L101.54,180.98L110,154.57L118.46,174.28L126.92,163.86L135.38,157.54L143.85,116.44L152.31,128.59L160.77,99.51L169.23,99.14L177.69,90.95L186.15,68.26L194.62,35.34L203.08,62.49L211.54,-17.11L220,20.46L228.46,44.45L236.92,57.1L245.38,28.83L253.85,70.31L262.31,77.01L270.77,61.19L279.23,101.35L287.69,83.88L296.15,101.18L304.62,78.12L313.08,121.64L321.54,114.02L330,111.41L338.46,102.67L346.92,132.8L355.38,150.27L363.85,183.77L372.31,185.4L380.77,180.4L389.23,186L440,186" style="vector-effect: non-scaling-stroke; fill: none; stroke: rgb(0, 0, 0); stroke-opacity: 1; stroke-width: 0.5px; opacity: 1;"/></g><g class="points"/><g class="text"/></g><g class="trace scatter trace54c2ba" style="stroke-miterlimit: 2;"><g class="fills"/><g class="errorbars"/><g class="lines"><path class="js-line" d="M0,186L42.31,186L50.77,184.51L59.23,185.26L67.69,184.51L76.15,178.56L84.62,176.33L93.08,169.63L101.54,180.79L110,107.88L118.46,173.35L126.92,130.94L135.38,124.99L143.85,65.47L152.31,76.63L160.77,2.98L169.23,23.06L177.69,14.88L186.15,20.09L194.62,-141.36L203.08,-14.88L211.54,-154.75L220,-142.85L228.46,-49.1L236.92,-24.55L245.38,-107.87L253.85,-25.3L270.77,7.44L279.23,84.82L287.69,44.64L296.15,69.19L304.62,13.39L313.08,84.82L321.54,79.61L330,48.36L338.46,63.98L346.92,67.7L355.38,117.55L363.85,183.77L372.31,185.26L380.77,174.1L389.23,186L397.69,186L440,186" style="vector-effect: non-scaling-stroke; fill: none; stroke: rgb(0, 0, 0); stroke-opacity: 1; stroke-width: 0.25px; opacity: 1;"/></g><g class="points"/><g class="text"/></g><g class="trace scatter tracebfd36a" style="stroke-miterlimit: 2; opacity: 1;"><g class="fills"/><g class="errorbars"/><g class="lines"/><g class="points"><path class="point" transform="translate(245.38,180.05)" d="M4,0A4,4 0 1,1 0,-4A4,4 0 0,1 4,0ZM0,0.5L0.5,0L0,-0.5L-0.5,0Z" style="opacity: 1; stroke: rgb(0, 0, 0); stroke-opacity: 1; stroke-width: 1px; fill: none;"/><path class="point" transform="translate(253.85,119.78)" d="M4,0A4,4 0 1,1 0,-4A4,4 0 0,1 4,0ZM0,0.5L0.5,0L0,-0.5L-0.5,0Z" style="opacity: 1; stroke: rgb(0, 0, 0); stroke-opacity: 1; stroke-width: 1px; fill: none;"/><path class="point" transform="translate(262.31,-86.3)" d="M4,0A4,4 0 1,1 0,-4A4,4 0 0,1 4,0ZM0,0.5L0.5,0L0,-0.5L-0.5,0Z" style="opacity: 1; stroke: rgb(0, 0, 0); stroke-opacity: 1; stroke-width: 1px; fill: none;"/><path class="point" transform="translate(270.77,-86.3)" d="M4,0A4,4 0 1,1 0,-4A4,4 0 0,1 4,0ZM0,0.5L0.5,0L0,-0.5L-0.5,0Z" style="opacity: 1; stroke: rgb(0, 0, 0); stroke-opacity: 1; stroke-width: 1px; fill: none;"/></g><g class="text"/></g></g></g><g class="overplot"/><path class="xlines-above crisp" d="M0,0" style="fill: none;"/><path class="ylines-above crisp" d="M0,0" style="fill: none;"/><g class="overlines-above"/><g class="xaxislayer-above"/><g class="yaxislayer-above"><g class="ytick"><text text-anchor="end" x="79" y="4.199999999999999" transform="translate(0,286)" style="font-family: 'Open Sans', verdana, arial, sans-serif; font-size: 12px; fill: rgb(42, 63, 95); fill-opacity: 1; white-space: pre; opacity: 1;">0</text></g><g class="ytick"><text text-anchor="end" x="79" y="4.199999999999999" style="font-family: 'Open Sans', verdana, arial, sans-serif; font-size: 12px; fill: rgb(42, 63, 95); fill-opacity: 1; white-space: pre; opacity: 1;" transform="translate(0,248.8)">50</text></g><g class="ytick"><text text-anchor="end" x="79" y="4.199999999999999" style="font-family: 'Open Sans', verdana, arial, sans-serif; font-size: 12px; fill: rgb(42, 63, 95); fill-opacity: 1; white-space: pre; opacity: 1;" transform="translate(0,211.6)">100</text></g><g class="ytick"><text text-anchor="end" x="79" y="4.199999999999999" style="font-family: 'Open Sans', verdana, arial, sans-serif; font-size: 12px; fill: rgb(42, 63, 95); fill-opacity: 1; white-space: pre; opacity: 1;" transform="translate(0,174.4)">150</text></g><g class="ytick"><text text-anchor="end" x="79" y="4.199999999999999" style="font-family: 'Open Sans', verdana, arial, sans-serif; font-size: 12px; fill: rgb(42, 63, 95); fill-opacity: 1; white-space: pre; opacity: 1;" transform="translate(0,137.2)">200</text></g><g class="ytick"><text text-anchor="end" x="79" y="4.199999999999999" style="font-family: 'Open Sans', verdana, arial, sans-serif; font-size: 12px; fill: rgb(42, 63, 95); fill-opacity: 1; white-space: pre; opacity: 1;" transform="translate(0,100)">250</text></g></g><g class="overaxes-above"/></g><g class="subplot x2y2"><g class="layer-subplot"><g class="shapelayer"/><g class="imagelayer"/></g><g class="minor-gridlayer"><g class="x2"/><g class="y2"/></g><g class="gridlayer"><g class="x2"><path class="x2grid crisp" transform="translate(156.15,0)" d="M0,317.00000000000006v185.99999999999997" style="stroke: rgb(255, 255, 255); stroke-opacity: 1; stroke-width: 1px;"/><path class="x2grid crisp" transform="translate(240.77,0)" d="M0,317.00000000000006v185.99999999999997" style="stroke: rgb(255, 255, 255); stroke-opacity: 1; stroke-width: 1px;"/><path class="x2grid crisp" transform="translate(325.38,0)" d="M0,317.00000000000006v185.99999999999997" style="stroke: rgb(255, 255, 255); stroke-opacity: 1; stroke-width: 1px;"/><path class="x2grid crisp" transform="translate(410,0)" d="M0,317.00000000000006v185.99999999999997" style="stroke: rgb(255, 255, 255); stroke-opacity: 1; stroke-width: 1px;"/><path class="x2grid crisp" transform="translate(494.62,0)" d="M0,317.00000000000006v185.99999999999997" style="stroke: rgb(255, 255, 255); stroke-opacity: 1; stroke-width: 1px;"/></g><g class="y2"><path class="y2grid crisp" transform="translate(0,472.00000000000006)" d="M80,0h440" style="stroke: rgb(255, 255, 255); stroke-opacity: 1; stroke-width: 1px;"/><path class="y2grid crisp" transform="translate(0,410.00000000000006)" d="M80,0h440" style="stroke: rgb(255, 255, 255); stroke-opacity: 1; stroke-width: 1px;"/><path class="y2grid crisp" transform="translate(0,348.00000000000006)" d="M80,0h440" style="stroke: rgb(255, 255, 255); stroke-opacity: 1; stroke-width: 1px;"/></g></g><g class="zerolinelayer"/><path class="xlines-below"/><path class="ylines-below"/><g class="overlines-below"/><g class="xaxislayer-below"/><g class="yaxislayer-below"/><g class="overaxes-below"/><g class="plot" transform="translate(80,317.00000000000006)" clip-path="url(#clipf351a9x2y2plot)"><g class="scatterlayer mlayer"><g class="trace scatter trace29657a" style="stroke-miterlimit: 2;"><g class="fills"><g><path class="js-fill" d="M0,137.01L8.46,141.93L16.92,130.24L33.85,120.79L42.31,109.83L50.77,102.68L59.23,93.8L67.69,90.06L76.15,87.29L84.62,76.88L93.08,76.26L101.54,81.49L110,85.32L118.46,77.52L126.92,82.1L135.38,84.94L143.85,86.6L152.31,84.01L160.77,86.71L177.69,88.88L186.15,95.7L194.62,98.09L203.08,97.34L211.54,99.8L220,100.35L228.46,98.7L236.92,101.48L245.38,99.24L253.85,98.32L262.31,98.49L270.77,101.02L279.23,98.87L287.69,97.69L304.62,95.55L313.08,98.51L321.54,95.46L330,97.04L338.46,100.51L346.92,95.32L355.38,91.52L363.85,92.18L380.77,98.7L389.23,104.76L397.69,111.95L406.15,121.59L440,139.23L440,144.34L431.54,146.23L423.08,145.09L414.62,134.47L406.15,135.51L397.69,120.81L389.23,108.68L380.77,103.1L372.31,99.2L363.85,104.96L355.38,106.02L346.92,108.5L338.46,104.72L330,106.04L321.54,105.31L313.08,109.83L304.62,99.42L296.15,103.36L287.69,103.1L279.23,107.7L270.77,109.12L262.31,106.64L253.85,105.93L245.38,108.32L236.92,108.94L228.46,104.69L220,109.3L211.54,106.82L203.08,102.3L194.62,107.08L186.15,104.16L177.69,97.61L169.23,102.12L160.77,99.82L152.31,95.39L135.38,99.91L126.92,92.95L118.46,92.65L110,93.27L101.54,95.88L93.08,96.54L84.62,91.76L76.15,104.96L67.69,107.07L59.23,100L50.77,120.46L42.31,123.47L33.85,134.36L25.38,130.47L16.92,139.23L8.46,153.49L0,153.14Z" style="fill: rgb(145, 191, 219); fill-opacity: 1; stroke-width: 0;"/></g></g><g class="errorbars"/><g class="lines"><path class="js-line" d="M0,153.14L8.46,153.49L16.92,139.23L25.38,130.47L33.85,134.36L42.31,123.47L50.77,120.46L59.23,100L67.69,107.07L76.15,104.96L84.62,91.76L93.08,96.54L101.54,95.88L110,93.27L118.46,92.65L126.92,92.95L135.38,99.91L152.31,95.39L160.77,99.82L169.23,102.12L177.69,97.61L186.15,104.16L194.62,107.08L203.08,102.3L211.54,106.82L220,109.3L228.46,104.69L236.92,108.94L245.38,108.32L253.85,105.93L262.31,106.64L270.77,109.12L279.23,107.7L287.69,103.1L296.15,103.36L304.62,99.42L313.08,109.83L321.54,105.31L330,106.04L338.46,104.72L346.92,108.5L355.38,106.02L363.85,104.96L372.31,99.2L380.77,103.1L389.23,108.68L397.69,120.81L406.15,135.51L414.62,134.47L423.08,145.09L431.54,146.23L440,144.34" style="vector-effect: non-scaling-stroke; fill: none; stroke: rgb(0, 0, 0); stroke-opacity: 1; stroke-width: 0.25px; opacity: 1;"/></g><g class="points"/><g class="text"/></g><g class="trace scatter tracefc670f" style="stroke-miterlimit: 2;"><g class="fills"><g><path class="js-fill" d="M0,132.14L8.46,134.23L16.92,124.45L25.38,120.32L33.85,114.65L42.31,103.23L50.77,97.39L59.23,90.12L67.69,81.31L76.15,76.61L84.62,68.49L93.08,66.47L101.54,69.57L110,74.22L118.46,72.14L126.92,77.28L135.38,79.36L143.85,81.93L152.31,75.29L160.77,80.29L169.23,82.15L177.69,83.04L186.15,90.56L194.62,92.36L203.08,92.29L228.46,95.97L236.92,99.69L245.38,91.4L253.85,94.06L262.31,94.2L270.77,95.75L279.23,95.35L287.69,93.53L296.15,94.04L304.62,89.32L313.08,93.31L321.54,92.07L330,89.81L338.46,90.39L346.92,91.67L355.38,84.94L363.85,90.52L372.31,91.89L380.77,96.1L389.23,102.89L397.69,106.68L406.15,114.3L414.62,119.79L423.08,123.16L431.54,130.4L440,130.82L440,139.23L406.15,121.59L397.69,111.95L389.23,104.76L380.77,98.7L363.85,92.18L355.38,91.52L346.92,95.32L338.46,100.51L330,97.04L321.54,95.46L313.08,98.51L304.62,95.55L287.69,97.69L279.23,98.87L270.77,101.02L262.31,98.49L253.85,98.32L245.38,99.24L236.92,101.48L228.46,98.7L220,100.35L211.54,99.8L203.08,97.34L194.62,98.09L186.15,95.7L177.69,88.88L160.77,86.71L152.31,84.01L143.85,86.6L135.38,84.94L126.92,82.1L118.46,77.52L110,85.32L101.54,81.49L93.08,76.26L84.62,76.88L76.15,87.29L67.69,90.06L59.23,93.8L50.77,102.68L42.31,109.83L33.85,120.79L16.92,130.24L8.46,141.93L0,137.01Z" style="fill: rgb(255, 255, 191); fill-opacity: 1; stroke-width: 0;"/></g></g><g class="errorbars"/><g class="lines"><path class="js-line" d="M0,137.01L8.46,141.93L16.92,130.24L33.85,120.79L42.31,109.83L50.77,102.68L59.23,93.8L67.69,90.06L76.15,87.29L84.62,76.88L93.08,76.26L101.54,81.49L110,85.32L118.46,77.52L126.92,82.1L135.38,84.94L143.85,86.6L152.31,84.01L160.77,86.71L177.69,88.88L186.15,95.7L194.62,98.09L203.08,97.34L211.54,99.8L220,100.35L228.46,98.7L236.92,101.48L245.38,99.24L253.85,98.32L262.31,98.49L270.77,101.02L279.23,98.87L287.69,97.69L304.62,95.55L313.08,98.51L321.54,95.46L330,97.04L338.46,100.51L346.92,95.32L355.38,91.52L363.85,92.18L380.77,98.7L389.23,104.76L397.69,111.95L406.15,121.59L440,139.23" style="vector-effect: non-scaling-stroke; fill: none; stroke: rgb(0, 0, 0); stroke-opacity: 1; stroke-width: 0.5px; opacity: 1;"/></g><g class="points"/><g class="text"/></g><g class="trace scatter trace1f1cfb" style="stroke-miterlimit: 2;"><g class="fills"><g><path class="js-fill" d="M0,125.03L8.46,126.61L16.92,119L25.38,116.18L33.85,110.01L42.31,98.24L50.77,90.28L59.23,86.95L67.69,75.48L76.15,71.06L84.62,62.82L93.08,60.25L101.54,60.36L110,67.51L118.46,66.27L126.92,63.84L135.38,63.2L143.85,70.5L152.31,71.07L160.77,73.26L169.23,73.99L177.69,77.32L186.15,82.64L194.62,86.49L203.08,86.14L211.54,87.09L220,84.94L228.46,89.79L236.92,87.97L245.38,84.98L253.85,89.15L262.31,85.89L270.77,90.69L279.23,88.84L287.69,91.18L296.15,87.88L304.62,86.96L321.54,84.98L330,82.24L338.46,81.91L346.92,82.64L355.38,81.18L363.85,82.77L372.31,89.84L380.77,93.78L389.23,100.29L397.69,102.39L406.15,109.12L414.62,113.48L423.08,118.44L431.54,120.45L440,120.41L440,130.82L431.54,130.4L423.08,123.16L414.62,119.79L406.15,114.3L397.69,106.68L389.23,102.89L380.77,96.1L372.31,91.89L363.85,90.52L355.38,84.94L346.92,91.67L338.46,90.39L330,89.81L321.54,92.07L313.08,93.31L304.62,89.32L296.15,94.04L287.69,93.53L279.23,95.35L270.77,95.75L262.31,94.2L253.85,94.06L245.38,91.4L236.92,99.69L228.46,95.97L203.08,92.29L194.62,92.36L186.15,90.56L177.69,83.04L169.23,82.15L160.77,80.29L152.31,75.29L143.85,81.93L135.38,79.36L126.92,77.28L118.46,72.14L110,74.22L101.54,69.57L93.08,66.47L84.62,68.49L76.15,76.61L67.69,81.31L59.23,90.12L50.77,97.39L42.31,103.23L33.85,114.65L25.38,120.32L16.92,124.45L8.46,134.23L0,132.14Z" style="fill: rgb(255, 255, 191); fill-opacity: 1; stroke-width: 0;"/></g></g><g class="errorbars"/><g class="lines"><path class="js-line" d="M0,132.14L8.46,134.23L16.92,124.45L25.38,120.32L33.85,114.65L42.31,103.23L50.77,97.39L59.23,90.12L67.69,81.31L76.15,76.61L84.62,68.49L93.08,66.47L101.54,69.57L110,74.22L118.46,72.14L126.92,77.28L135.38,79.36L143.85,81.93L152.31,75.29L160.77,80.29L169.23,82.15L177.69,83.04L186.15,90.56L194.62,92.36L203.08,92.29L228.46,95.97L236.92,99.69L245.38,91.4L253.85,94.06L262.31,94.2L270.77,95.75L279.23,95.35L287.69,93.53L296.15,94.04L304.62,89.32L313.08,93.31L321.54,92.07L330,89.81L338.46,90.39L346.92,91.67L355.38,84.94L363.85,90.52L372.31,91.89L380.77,96.1L389.23,102.89L397.69,106.68L406.15,114.3L414.62,119.79L423.08,123.16L431.54,130.4L440,130.82" style="vector-effect: non-scaling-stroke; fill: none; stroke: rgb(0, 0, 0); stroke-opacity: 1; stroke-width: 1px; opacity: 1;"/></g><g class="points"/><g class="text"/></g><g class="trace scatter trace3311b7" style="stroke-miterlimit: 2;"><g class="fills"><g><path class="js-fill" d="M0,113.23L8.46,110.8L16.92,113.09L25.38,109.39L33.85,101.77L42.31,84.23L50.77,85.24L59.23,77.11L67.69,65.28L76.15,59.34L84.62,48.63L93.08,55.62L101.54,52.7L110,52.35L118.46,58.28L126.92,38.53L135.38,34.99L143.85,62.53L152.31,57.22L160.77,56.54L169.23,63.44L177.69,70.33L186.15,67.98L194.62,71.92L203.08,79.9L211.54,75.03L220,73.01L228.46,82.91L236.92,77.16L245.38,76.53L253.85,77.23L262.31,72.12L270.77,79.01L279.23,76.42L287.69,82.02L296.15,77.85L304.62,78.65L313.08,72.01L321.54,79.27L330,69.87L338.46,62.1L346.92,66.26L355.38,76.79L363.85,79.72L372.31,83.52L380.77,88.48L389.23,94.86L397.69,92.82L406.15,98.83L414.62,108.32L423.08,110.8L431.54,117.78L440,110.75L440,120.41L431.54,120.45L423.08,118.44L414.62,113.48L406.15,109.12L397.69,102.39L389.23,100.29L380.77,93.78L372.31,89.84L363.85,82.77L355.38,81.18L346.92,82.64L338.46,81.91L330,82.24L321.54,84.98L304.62,86.96L296.15,87.88L287.69,91.18L279.23,88.84L270.77,90.69L262.31,85.89L253.85,89.15L245.38,84.98L236.92,87.97L228.46,89.79L220,84.94L211.54,87.09L203.08,86.14L194.62,86.49L186.15,82.64L177.69,77.32L169.23,73.99L160.77,73.26L152.31,71.07L143.85,70.5L135.38,63.2L126.92,63.84L118.46,66.27L110,67.51L101.54,60.36L93.08,60.25L84.62,62.82L76.15,71.06L67.69,75.48L59.23,86.95L50.77,90.28L42.31,98.24L33.85,110.01L25.38,116.18L16.92,119L8.46,126.61L0,125.03Z" style="fill: rgb(252, 141, 89); fill-opacity: 1; stroke-width: 0;"/></g></g><g class="errorbars"/><g class="lines"><path class="js-line" d="M0,125.03L8.46,126.61L16.92,119L25.38,116.18L33.85,110.01L42.31,98.24L50.77,90.28L59.23,86.95L67.69,75.48L76.15,71.06L84.62,62.82L93.08,60.25L101.54,60.36L110,67.51L118.46,66.27L126.92,63.84L135.38,63.2L143.85,70.5L152.31,71.07L160.77,73.26L169.23,73.99L177.69,77.32L186.15,82.64L194.62,86.49L203.08,86.14L211.54,87.09L220,84.94L228.46,89.79L236.92,87.97L245.38,84.98L253.85,89.15L262.31,85.89L270.77,90.69L279.23,88.84L287.69,91.18L296.15,87.88L304.62,86.96L321.54,84.98L330,82.24L338.46,81.91L346.92,82.64L355.38,81.18L363.85,82.77L372.31,89.84L380.77,93.78L389.23,100.29L397.69,102.39L406.15,109.12L414.62,113.48L423.08,118.44L431.54,120.45L440,120.41" style="vector-effect: non-scaling-stroke; fill: none; stroke: rgb(0, 0, 0); stroke-opacity: 1; stroke-width: 0.5px; opacity: 1;"/></g><g class="points"/><g class="text"/></g><g class="trace scatter trace61d549" style="stroke-miterlimit: 2;"><g class="fills"/><g class="errorbars"/><g class="lines"><path class="js-line" d="M0,113.23L8.46,110.8L16.92,113.09L25.38,109.39L33.85,101.77L42.31,84.23L50.77,85.24L59.23,77.11L67.69,65.28L76.15,59.34L84.62,48.63L93.08,55.62L101.54,52.7L110,52.35L118.46,58.28L126.92,38.53L135.38,34.99L143.85,62.53L152.31,57.22L160.77,56.54L169.23,63.44L177.69,70.33L186.15,67.98L194.62,71.92L203.08,79.9L211.54,75.03L220,73.01L228.46,82.91L236.92,77.16L245.38,76.53L253.85,77.23L262.31,72.12L270.77,79.01L279.23,76.42L287.69,82.02L296.15,77.85L304.62,78.65L313.08,72.01L321.54,79.27L330,69.87L338.46,62.1L346.92,66.26L355.38,76.79L363.85,79.72L372.31,83.52L380.77,88.48L389.23,94.86L397.69,92.82L406.15,98.83L414.62,108.32L423.08,110.8L431.54,117.78L440,110.75" style="vector-effect: non-scaling-stroke; fill: none; stroke: rgb(0, 0, 0); stroke-opacity: 1; stroke-width: 0.25px; opacity: 1;"/></g><g class="points"/><g class="text"/></g><g class="trace scatter trace1369e4" style="stroke-miterlimit: 2; opacity: 1;"><g class="fills"/><g class="errorbars"/><g class="lines"/><g class="points"><path class="point" transform="translate(245.38,68.2)" d="M4,0A4,4 0 1,1 0,-4A4,4 0 0,1 4,0ZM0,0.5L0.5,0L0,-0.5L-0.5,0Z" style="opacity: 1; stroke: rgb(0, 0, 0); stroke-opacity: 1; stroke-width: 1px; fill: none;"/><path class="point" transform="translate(253.85,74.4)" d="M4,0A4,4 0 1,1 0,-4A4,4 0 0,1 4,0ZM0,0.5L0.5,0L0,-0.5L-0.5,0Z" style="opacity: 1; stroke: rgb(0, 0, 0); stroke-opacity: 1; stroke-width: 1px; fill: none;"/><path class="point" transform="translate(262.31,93)" d="M4,0A4,4 0 1,1 0,-4A4,4 0 0,1 4,0ZM0,0.5L0.5,0L0,-0.5L-0.5,0Z" style="opacity: 1; stroke: rgb(0, 0, 0); stroke-opacity: 1; stroke-width: 1px; fill: none;"/><path class="point" transform="translate(270.77,93)" d="M4,0A4,4 0 1,1 0,-4A4,4 0 0,1 4,0ZM0,0.5L0.5,0L0,-0.5L-0.5,0Z" style="opacity: 1; stroke: rgb(0, 0, 0); stroke-opacity: 1; stroke-width: 1px; fill: none;"/></g><g class="text"/></g></g></g><g class="overplot"/><path class="xlines-above crisp" d="M0,0" style="fill: none;"/><path class="ylines-above crisp" d="M0,0" style="fill: none;"/><g class="overlines-above"/><g class="xaxislayer-above"/><g class="yaxislayer-above"><g class="y2tick"><text text-anchor="end" x="79" y="4.199999999999999" transform="translate(0,472.00000000000006)" style="font-family: 'Open Sans', verdana, arial, sans-serif; font-size: 12px; fill: rgb(42, 63, 95); fill-opacity: 1; white-space: pre; opacity: 1;">20</text></g><g class="y2tick"><text text-anchor="end" x="79" y="4.199999999999999" style="font-family: 'Open Sans', verdana, arial, sans-serif; font-size: 12px; fill: rgb(42, 63, 95); fill-opacity: 1; white-space: pre; opacity: 1;" transform="translate(0,410.00000000000006)">30</text></g><g class="y2tick"><text text-anchor="end" x="79" y="4.199999999999999" style="font-family: 'Open Sans', verdana, arial, sans-serif; font-size: 12px; fill: rgb(42, 63, 95); fill-opacity: 1; white-space: pre; opacity: 1;" transform="translate(0,348.00000000000006)">40</text></g></g><g class="overaxes-above"/></g><g class="subplot x3y3"><g class="layer-subplot"><g class="shapelayer"/><g class="imagelayer"/></g><g class="minor-gridlayer"><g class="x3"/><g class="y3"/></g><g class="gridlayer"><g class="x3"><path class="x3grid crisp" transform="translate(156.15,0)" d="M0,534v186" style="stroke: rgb(255, 255, 255); stroke-opacity: 1; stroke-width: 1px;"/><path class="x3grid crisp" transform="translate(240.77,0)" d="M0,534v186" style="stroke: rgb(255, 255, 255); stroke-opacity: 1; stroke-width: 1px;"/><path class="x3grid crisp" transform="translate(325.38,0)" d="M0,534v186" style="stroke: rgb(255, 255, 255); stroke-opacity: 1; stroke-width: 1px;"/><path class="x3grid crisp" transform="translate(410,0)" d="M0,534v186" style="stroke: rgb(255, 255, 255); stroke-opacity: 1; stroke-width: 1px;"/><path class="x3grid crisp" transform="translate(494.62,0)" d="M0,534v186" style="stroke: rgb(255, 255, 255); stroke-opacity: 1; stroke-width: 1px;"/></g><g class="y3"><path class="y3grid crisp" transform="translate(0,682.8)" d="M80,0h440" style="stroke: rgb(255, 255, 255); stroke-opacity: 1; stroke-width: 1px;"/><path class="y3grid crisp" transform="translate(0,645.6)" d="M80,0h440" style="stroke: rgb(255, 255, 255); stroke-opacity: 1; stroke-width: 1px;"/><path class="y3grid crisp" transform="translate(0,608.4)" d="M80,0h440" style="stroke: rgb(255, 255, 255); stroke-opacity: 1; stroke-width: 1px;"/><path class="y3grid crisp" transform="translate(0,571.2)" d="M80,0h440" style="stroke: rgb(255, 255, 255); stroke-opacity: 1; stroke-width: 1px;"/></g></g><g class="zerolinelayer"/><path class="xlines-below"/><path class="ylines-below"/><g class="overlines-below"/><g class="xaxislayer-below"/><g class="yaxislayer-below"/><g class="overaxes-below"/><g class="plot" transform="translate(80,534)" clip-path="url(#clipf351a9x3y3plot)"><g class="scatterlayer mlayer"><g class="trace scatter trace6aa42b" style="stroke-miterlimit: 2;"><g class="fills"><g><path class="js-fill" d="M0,115.51L8.46,120.71L16.92,115.56L25.38,116.17L33.85,113.81L42.31,102.25L50.77,93.4L59.23,89.13L67.69,76.67L76.15,75.17L84.62,65.78L93.08,62.58L101.54,57.6L110,56.76L118.46,54.27L126.92,48.97L135.38,50.46L143.85,48.74L152.31,44L160.77,41.36L169.23,39.73L177.69,38.63L186.15,38.58L211.54,37.69L220,37.28L253.85,39.84L262.31,38.92L270.77,38.4L279.23,40.02L287.69,39.38L296.15,40.44L304.62,40.24L313.08,42.33L321.54,41.5L330,42.4L338.46,44.19L346.92,50.11L355.38,48.15L363.85,55.75L372.31,61.17L380.77,67.86L389.23,76.91L397.69,88.4L406.15,96.59L414.62,100.76L423.08,109.69L431.54,113.89L440,118.85L440,127.67L431.54,122.44L423.08,117.02L414.62,116.73L406.15,110.75L397.69,97.66L389.23,83.33L380.77,77.59L372.31,65.87L363.85,62.54L355.38,53.36L338.46,49.74L330,45.7L321.54,44.64L313.08,45.7L304.62,43.15L296.15,41.45L279.23,42.19L270.77,40.71L262.31,41.92L253.85,46.38L236.92,40.81L228.46,40.49L220,41.19L211.54,39.01L194.62,42.09L186.15,42.83L177.69,46.34L169.23,41.35L160.77,46.13L152.31,47.3L143.85,53.89L135.38,57.32L118.46,61.86L110,64.73L101.54,64.73L93.08,70.79L84.62,82.37L76.15,85.67L67.69,93.34L59.23,104.8L50.77,110.28L42.31,115.9L33.85,124.74L25.38,122.28L16.92,123.72L8.46,135.62L0,124.34Z" style="fill: rgb(90, 180, 172); fill-opacity: 1; stroke-width: 0;"/></g></g><g class="errorbars"/><g class="lines"><path class="js-line" d="M0,124.34L8.46,135.62L16.92,123.72L25.38,122.28L33.85,124.74L42.31,115.9L50.77,110.28L59.23,104.8L67.69,93.34L76.15,85.67L84.62,82.37L93.08,70.79L101.54,64.73L110,64.73L118.46,61.86L135.38,57.32L143.85,53.89L152.31,47.3L160.77,46.13L169.23,41.35L177.69,46.34L186.15,42.83L194.62,42.09L211.54,39.01L220,41.19L228.46,40.49L236.92,40.81L253.85,46.38L262.31,41.92L270.77,40.71L279.23,42.19L296.15,41.45L304.62,43.15L313.08,45.7L321.54,44.64L330,45.7L338.46,49.74L355.38,53.36L363.85,62.54L372.31,65.87L380.77,77.59L389.23,83.33L397.69,97.66L406.15,110.75L414.62,116.73L423.08,117.02L431.54,122.44L440,127.67" style="vector-effect: non-scaling-stroke; fill: none; stroke: rgb(0, 0, 0); stroke-opacity: 1; stroke-width: 0.25px; opacity: 1;"/></g><g class="points"/><g class="text"/></g><g class="trace scatter traced9f8ec" style="stroke-miterlimit: 2;"><g class="fills"><g><path class="js-fill" d="M0,111.14L8.46,114.96L16.92,110.43L25.38,106.14L33.85,105.98L42.31,93.74L50.77,90.08L59.23,78.23L67.69,72.23L76.15,67.7L84.62,60.16L93.08,55.28L101.54,52.45L110,52.13L118.46,50.28L126.92,43.63L135.38,46.13L143.85,45.55L152.31,41.36L169.23,37.36L177.69,36.99L186.15,36.31L194.62,36.62L211.54,36.14L220,36.19L228.46,36.36L236.92,37.63L253.85,38.53L262.31,35.77L279.23,37.94L287.69,37.36L304.62,39.22L313.08,39.59L321.54,39.33L330,40.23L338.46,43.1L346.92,43.84L355.38,45.86L363.85,51.02L372.31,57.23L380.77,61.9L397.69,81.3L406.15,84.19L414.62,95.62L423.08,99.48L431.54,108.52L440,115.11L440,118.85L431.54,113.89L423.08,109.69L414.62,100.76L406.15,96.59L397.69,88.4L389.23,76.91L380.77,67.86L372.31,61.17L363.85,55.75L355.38,48.15L346.92,50.11L338.46,44.19L330,42.4L321.54,41.5L313.08,42.33L304.62,40.24L296.15,40.44L287.69,39.38L279.23,40.02L270.77,38.4L262.31,38.92L253.85,39.84L220,37.28L211.54,37.69L186.15,38.58L177.69,38.63L169.23,39.73L160.77,41.36L152.31,44L143.85,48.74L135.38,50.46L126.92,48.97L118.46,54.27L110,56.76L101.54,57.6L93.08,62.58L84.62,65.78L76.15,75.17L67.69,76.67L59.23,89.13L50.77,93.4L42.31,102.25L33.85,113.81L25.38,116.17L16.92,115.56L8.46,120.71L0,115.51Z" style="fill: rgb(245, 245, 245); fill-opacity: 1; stroke-width: 0;"/></g></g><g class="errorbars"/><g class="lines"><path class="js-line" d="M0,115.51L8.46,120.71L16.92,115.56L25.38,116.17L33.85,113.81L42.31,102.25L50.77,93.4L59.23,89.13L67.69,76.67L76.15,75.17L84.62,65.78L93.08,62.58L101.54,57.6L110,56.76L118.46,54.27L126.92,48.97L135.38,50.46L143.85,48.74L152.31,44L160.77,41.36L169.23,39.73L177.69,38.63L186.15,38.58L211.54,37.69L220,37.28L253.85,39.84L262.31,38.92L270.77,38.4L279.23,40.02L287.69,39.38L296.15,40.44L304.62,40.24L313.08,42.33L321.54,41.5L330,42.4L338.46,44.19L346.92,50.11L355.38,48.15L363.85,55.75L372.31,61.17L380.77,67.86L389.23,76.91L397.69,88.4L406.15,96.59L414.62,100.76L423.08,109.69L431.54,113.89L440,118.85" style="vector-effect: non-scaling-stroke; fill: none; stroke: rgb(0, 0, 0); stroke-opacity: 1; stroke-width: 0.5px; opacity: 1;"/></g><g class="points"/><g class="text"/></g><g class="trace scatter trace3d90bf" style="stroke-miterlimit: 2;"><g class="fills"><g><path class="js-fill" d="M0,102.01L8.46,106.03L16.92,104.27L25.38,101.26L33.85,95.71L42.31,86.38L50.77,80.39L59.23,74.64L67.69,65.13L76.15,61.82L84.62,52.66L101.54,50.29L110,48.9L118.46,42.85L126.92,41.29L135.38,38.56L143.85,40.13L160.77,36.46L169.23,33.77L177.69,32.66L186.15,33.75L203.08,34.01L211.54,35.63L228.46,33.8L236.92,35.07L245.38,36.08L253.85,35.13L262.31,34.86L270.77,35.98L279.23,35.69L287.69,36.22L296.15,36.59L304.62,38.05L313.08,38.24L321.54,37.01L330,38.1L338.46,38.08L346.92,38.63L355.38,42.17L380.77,58.75L389.23,68.47L397.69,74.51L406.15,78.25L414.62,87.47L423.08,87.42L431.54,98.24L440,112.58L440,115.11L431.54,108.52L423.08,99.48L414.62,95.62L406.15,84.19L397.69,81.3L380.77,61.9L372.31,57.23L363.85,51.02L355.38,45.86L346.92,43.84L338.46,43.1L330,40.23L321.54,39.33L313.08,39.59L304.62,39.22L287.69,37.36L279.23,37.94L262.31,35.77L253.85,38.53L236.92,37.63L228.46,36.36L220,36.19L211.54,36.14L194.62,36.62L186.15,36.31L177.69,36.99L169.23,37.36L152.31,41.36L143.85,45.55L135.38,46.13L126.92,43.63L118.46,50.28L110,52.13L101.54,52.45L93.08,55.28L84.62,60.16L76.15,67.7L67.69,72.23L59.23,78.23L50.77,90.08L42.31,93.74L33.85,105.98L25.38,106.14L16.92,110.43L8.46,114.96L0,111.14Z" style="fill: rgb(245, 245, 245); fill-opacity: 1; stroke-width: 0;"/></g></g><g class="errorbars"/><g class="lines"><path class="js-line" d="M0,111.14L8.46,114.96L16.92,110.43L25.38,106.14L33.85,105.98L42.31,93.74L50.77,90.08L59.23,78.23L67.69,72.23L76.15,67.7L84.62,60.16L93.08,55.28L101.54,52.45L110,52.13L118.46,50.28L126.92,43.63L135.38,46.13L143.85,45.55L152.31,41.36L169.23,37.36L177.69,36.99L186.15,36.31L194.62,36.62L211.54,36.14L220,36.19L228.46,36.36L236.92,37.63L253.85,38.53L262.31,35.77L279.23,37.94L287.69,37.36L304.62,39.22L313.08,39.59L321.54,39.33L330,40.23L338.46,43.1L346.92,43.84L355.38,45.86L363.85,51.02L372.31,57.23L380.77,61.9L397.69,81.3L406.15,84.19L414.62,95.62L423.08,99.48L431.54,108.52L440,115.11" style="vector-effect: non-scaling-stroke; fill: none; stroke: rgb(0, 0, 0); stroke-opacity: 1; stroke-width: 1px; opacity: 1;"/></g><g class="points"/><g class="text"/></g><g class="trace scatter trace9f19fd" style="stroke-miterlimit: 2;"><g class="fills"><g><path class="js-fill" d="M0,97.68L8.46,98.74L16.92,93L25.38,90.56L33.85,89.17L42.31,74.72L50.77,64.41L59.23,62.28L67.69,52.29L76.15,43.15L84.62,46.55L93.08,40.39L101.54,43.36L110,39.75L118.46,37.73L126.92,37.63L135.38,22.67L143.85,34.76L152.31,30.4L160.77,30.61L169.23,26.27L177.69,28.26L186.15,28.71L194.62,27.86L203.08,28.75L211.54,32.74L220,32.63L228.46,31.99L236.92,33.8L245.38,31.69L253.85,28.6L262.31,31.99L270.77,34.01L279.23,34.45L287.69,32.2L304.62,37.09L313.08,32.67L321.54,30.83L330,32.79L338.46,34.76L346.92,23.54L355.38,34.76L363.85,37.67L380.77,53.57L389.23,60.8L397.69,65.9L406.15,68.02L414.62,72.49L423.08,79.29L431.54,89.84L440,109.37L440,112.58L431.54,98.24L423.08,87.42L414.62,87.47L406.15,78.25L397.69,74.51L389.23,68.47L380.77,58.75L355.38,42.17L346.92,38.63L338.46,38.08L330,38.1L321.54,37.01L313.08,38.24L304.62,38.05L296.15,36.59L287.69,36.22L279.23,35.69L270.77,35.98L262.31,34.86L253.85,35.13L245.38,36.08L236.92,35.07L228.46,33.8L211.54,35.63L203.08,34.01L186.15,33.75L177.69,32.66L169.23,33.77L160.77,36.46L143.85,40.13L135.38,38.56L126.92,41.29L118.46,42.85L110,48.9L101.54,50.29L84.62,52.66L76.15,61.82L67.69,65.13L59.23,74.64L50.77,80.39L42.31,86.38L33.85,95.71L25.38,101.26L16.92,104.27L8.46,106.03L0,102.01Z" style="fill: rgb(216, 179, 101); fill-opacity: 1; stroke-width: 0;"/></g></g><g class="errorbars"/><g class="lines"><path class="js-line" d="M0,102.01L8.46,106.03L16.92,104.27L25.38,101.26L33.85,95.71L42.31,86.38L50.77,80.39L59.23,74.64L67.69,65.13L76.15,61.82L84.62,52.66L101.54,50.29L110,48.9L118.46,42.85L126.92,41.29L135.38,38.56L143.85,40.13L160.77,36.46L169.23,33.77L177.69,32.66L186.15,33.75L203.08,34.01L211.54,35.63L228.46,33.8L236.92,35.07L245.38,36.08L253.85,35.13L262.31,34.86L270.77,35.98L279.23,35.69L287.69,36.22L296.15,36.59L304.62,38.05L313.08,38.24L321.54,37.01L330,38.1L338.46,38.08L346.92,38.63L355.38,42.17L380.77,58.75L389.23,68.47L397.69,74.51L406.15,78.25L414.62,87.47L423.08,87.42L431.54,98.24L440,112.58" style="vector-effect: non-scaling-stroke; fill: none; stroke: rgb(0, 0, 0); stroke-opacity: 1; stroke-width: 0.5px; opacity: 1;"/></g><g class="points"/><g class="text"/></g><g class="trace scatter trace7e6fa2" style="stroke-miterlimit: 2;"><g class="fills"/><g class="errorbars"/><g class="lines"><path class="js-line" d="M0,97.68L8.46,98.74L16.92,93L25.38,90.56L33.85,89.17L42.31,74.72L50.77,64.41L59.23,62.28L67.69,52.29L76.15,43.15L84.62,46.55L93.08,40.39L101.54,43.36L110,39.75L118.46,37.73L126.92,37.63L135.38,22.67L143.85,34.76L152.31,30.4L160.77,30.61L169.23,26.27L177.69,28.26L186.15,28.71L194.62,27.86L203.08,28.75L211.54,32.74L220,32.63L228.46,31.99L236.92,33.8L245.38,31.69L253.85,28.6L262.31,31.99L270.77,34.01L279.23,34.45L287.69,32.2L304.62,37.09L313.08,32.67L321.54,30.83L330,32.79L338.46,34.76L346.92,23.54L355.38,34.76L363.85,37.67L380.77,53.57L389.23,60.8L397.69,65.9L406.15,68.02L414.62,72.49L423.08,79.29L431.54,89.84L440,109.37" style="vector-effect: non-scaling-stroke; fill: none; stroke: rgb(0, 0, 0); stroke-opacity: 1; stroke-width: 0.25px; opacity: 1;"/></g><g class="points"/><g class="text"/></g><g class="trace scatter trace2d8f2d" style="stroke-miterlimit: 2; opacity: 1;"><g class="fills"/><g class="errorbars"/><g class="lines"/><g class="points"><path class="point" transform="translate(245.38,22.32)" d="M4,0A4,4 0 1,1 0,-4A4,4 0 0,1 4,0ZM0,0.5L0.5,0L0,-0.5L-0.5,0Z" style="opacity: 1; stroke: rgb(0, 0, 0); stroke-opacity: 1; stroke-width: 1px; fill: none;"/><path class="point" transform="translate(253.85,22.32)" d="M4,0A4,4 0 1,1 0,-4A4,4 0 0,1 4,0ZM0,0.5L0.5,0L0,-0.5L-0.5,0Z" style="opacity: 1; stroke: rgb(0, 0, 0); stroke-opacity: 1; stroke-width: 1px; fill: none;"/><path class="point" transform="translate(262.31,29.76)" d="M4,0A4,4 0 1,1 0,-4A4,4 0 0,1 4,0ZM0,0.5L0.5,0L0,-0.5L-0.5,0Z" style="opacity: 1; stroke: rgb(0, 0, 0); stroke-opacity: 1; stroke-width: 1px; fill: none;"/><path class="point" transform="translate(270.77,29.76)" d="M4,0A4,4 0 1,1 0,-4A4,4 0 0,1 4,0ZM0,0.5L0.5,0L0,-0.5L-0.5,0Z" style="opacity: 1; stroke: rgb(0, 0, 0); stroke-opacity: 1; stroke-width: 1px; fill: none;"/></g><g class="text"/></g></g></g><g class="overplot"/><path class="xlines-above crisp" d="M0,0" style="fill: none;"/><path class="ylines-above crisp" d="M0,0" style="fill: none;"/><g class="overlines-above"/><g class="xaxislayer-above"><g class="x3tick"><text text-anchor="middle" x="0" y="733" transform="translate(156.15,0)" style="font-family: 'Open Sans', verdana, arial, sans-serif; font-size: 12px; fill: rgb(42, 63, 95); fill-opacity: 1; white-space: pre; opacity: 1;">10</text></g><g class="x3tick"><text text-anchor="middle" x="0" y="733" style="font-family: 'Open Sans', verdana, arial, sans-serif; font-size: 12px; fill: rgb(42, 63, 95); fill-opacity: 1; white-space: pre; opacity: 1;" transform="translate(240.77,0)">20</text></g><g class="x3tick"><text text-anchor="middle" x="0" y="733" style="font-family: 'Open Sans', verdana, arial, sans-serif; font-size: 12px; fill: rgb(42, 63, 95); fill-opacity: 1; white-space: pre; opacity: 1;" transform="translate(325.38,0)">30</text></g><g class="x3tick"><text text-anchor="middle" x="0" y="733" style="font-family: 'Open Sans', verdana, arial, sans-serif; font-size: 12px; fill: rgb(42, 63, 95); fill-opacity: 1; white-space: pre; opacity: 1;" transform="translate(410,0)">40</text></g><g class="x3tick"><text text-anchor="middle" x="0" y="733" style="font-family: 'Open Sans', verdana, arial, sans-serif; font-size: 12px; fill: rgb(42, 63, 95); fill-opacity: 1; white-space: pre; opacity: 1;" transform="translate(494.62,0)">50</text></g></g><g class="yaxislayer-above"><g class="y3tick"><text text-anchor="end" x="79" y="4.199999999999999" transform="translate(0,720)" style="font-family: 'Open Sans', verdana, arial, sans-serif; font-size: 12px; fill: rgb(42, 63, 95); fill-opacity: 1; white-space: pre; opacity: 1;">5</text></g><g class="y3tick"><text text-anchor="end" x="79" y="4.199999999999999" style="font-family: 'Open Sans', verdana, arial, sans-serif; font-size: 12px; fill: rgb(42, 63, 95); fill-opacity: 1; white-space: pre; opacity: 1;" transform="translate(0,682.8)">10</text></g><g class="y3tick"><text text-anchor="end" x="79" y="4.199999999999999" style="font-family: 'Open Sans', verdana, arial, sans-serif; font-size: 12px; fill: rgb(42, 63, 95); fill-opacity: 1; white-space: pre; opacity: 1;" transform="translate(0,645.6)">15</text></g><g class="y3tick"><text text-anchor="end" x="79" y="4.199999999999999" style="font-family: 'Open Sans', verdana, arial, sans-serif; font-size: 12px; fill: rgb(42, 63, 95); fill-opacity: 1; white-space: pre; opacity: 1;" transform="translate(0,608.4)">20</text></g><g class="y3tick"><text text-anchor="end" x="79" y="4.199999999999999" style="font-family: 'Open Sans', verdana, arial, sans-serif; font-size: 12px; fill: rgb(42, 63, 95); fill-opacity: 1; white-space: pre; opacity: 1;" transform="translate(0,571.2)">25</text></g><g class="y3tick"><text text-anchor="end" x="79" y="4.199999999999999" style="font-family: 'Open Sans', verdana, arial, sans-serif; font-size: 12px; fill: rgb(42, 63, 95); fill-opacity: 1; white-space: pre; opacity: 1;" transform="translate(0,534)">30</text></g></g><g class="overaxes-above"/></g></g><g class="polarlayer"/><g class="smithlayer"/><g class="ternarylayer"/><g class="geolayer"/><g class="funnelarealayer"/><g class="pielayer"/><g class="iciclelayer"/><g class="treemaplayer"/><g class="sunburstlayer"/><g class="glimages"/><defs id="topdefs-f351a9"><g class="clips"/></defs><g class="layer-above"><g class="imagelayer"/><g class="shapelayer"/></g><g class="infolayer"><g class="g-gtitle"><text class="gtitle" x="30" y="50" text-anchor="start" dy="0em" style="font-family: 'Open Sans', verdana, arial, sans-serif; font-size: 17px; fill: rgb(42, 63, 95); opacity: 1; font-weight: normal; white-space: pre;">Climatology and S2S forecast for Noakhali</text></g><g class="g-xtitle"/><g class="g-x2title"/><g class="g-x3title"/><g class="g-ytitle"><text class="ytitle" transform="rotate(-90,34.16875,193)" x="34.16875" y="193" text-anchor="middle" style="font-family: 'Open Sans', verdana, arial, sans-serif; font-size: 14px; fill: rgb(42, 63, 95); opacity: 1; font-weight: normal; white-space: pre;">[mm]</text></g><g class="g-y2title"><text class="y2title" transform="rotate(-90,40.840625,410.00000000000006)" x="40.840625" y="410.00000000000006" text-anchor="middle" style="font-family: 'Open Sans', verdana, arial, sans-serif; font-size: 14px; fill: rgb(42, 63, 95); opacity: 1; font-weight: normal; white-space: pre;">[C]</text></g><g class="g-y3title"><text class="y3title" transform="rotate(-90,40.840625,627)" x="40.840625" y="627" text-anchor="middle" style="font-family: 'Open Sans', verdana, arial, sans-serif; font-size: 14px; fill: rgb(42, 63, 95); opacity: 1; font-weight: normal; white-space: pre;">[C]</text></g><g class="annotation" data-index="0" style="opacity: 1;"><g class="annotation-text-g" transform="rotate(0,300,89.5)"><g class="cursor-pointer" transform="translate(237,79)"><rect class="bg" x="0.5" y="0.5" width="126" height="20" style="stroke-width: 1px; stroke: rgb(0, 0, 0); stroke-opacity: 0; fill: rgb(0, 0, 0); fill-opacity: 0;"/><text class="annotation-text" text-anchor="middle" x="63.359375" y="16" style="font-family: 'Open Sans', verdana, arial, sans-serif; font-size: 16px; fill: rgb(42, 63, 95); fill-opacity: 1; white-space: pre;">Precipitation sum</text></g></g></g><g class="annotation" data-index="1" style="opacity: 1;"><g class="annotation-text-g" transform="rotate(0,300,306.50000000000006)"><g class="cursor-pointer" transform="translate(196,296)"><rect class="bg" x="0.5" y="0.5" width="208" height="20" style="stroke-width: 1px; stroke: rgb(0, 0, 0); stroke-opacity: 0; fill: rgb(0, 0, 0); fill-opacity: 0;"/><text class="annotation-text" text-anchor="middle" x="104.265625" y="16" style="font-family: 'Open Sans', verdana, arial, sans-serif; font-size: 16px; fill: rgb(42, 63, 95); fill-opacity: 1; white-space: pre;">Mean maximum temperature</text></g></g></g><g class="annotation" data-index="2" style="opacity: 1;"><g class="annotation-text-g" transform="rotate(0,300,523.5)"><g class="cursor-pointer" transform="translate(198,513)"><rect class="bg" x="0.5" y="0.5" width="203" height="20" style="stroke-width: 1px; stroke: rgb(0, 0, 0); stroke-opacity: 0; fill: rgb(0, 0, 0); fill-opacity: 0;"/><text class="annotation-text" text-anchor="middle" x="102.046875" y="16" style="font-family: 'Open Sans', verdana, arial, sans-serif; font-size: 16px; fill: rgb(42, 63, 95); fill-opacity: 1; white-space: pre;">Mean minimum temperature</text></g></g></g><g class="annotation" data-index="3" style="opacity: 1;"><g class="annotation-text-g" transform="rotate(0,300,760.5)"><g class="cursor-pointer" transform="translate(277,750)"><rect class="bg" x="0.5" y="0.5" width="45" height="20" style="stroke-width: 1px; stroke: rgb(0, 0, 0); stroke-opacity: 0; fill: rgb(0, 0, 0); fill-opacity: 0;"/><text class="annotation-text" text-anchor="middle" x="22.3125" y="16" style="font-family: 'Open Sans', verdana, arial, sans-serif; font-size: 16px; fill: rgb(42, 63, 95); fill-opacity: 1; white-space: pre;">Week</text></g></g></g></g></svg>