<svg class="main-svg" xmlns="http://www.w3.org/2000/svg" xmlns:xlink="http://www.w3.org/1999/xlink" width="600" height="800" style="" viewBox="0 0 600 800"><rect x="0" y="0" width="600" height="800" style="fill: rgb(255, 255, 255); fill-opacity: 1;"/><defs id="defs-aa0887"><g class="clips"><clipPath id="clipaa0887xyplot" class="plotclip"><rect width="440" height="186.00000000000003"/></clipPath><clipPath id="clipaa0887x2y2plot" class="plotclip"><rect width="440" height="185.99999999999997"/></clipPath><clipPath id="clipaa0887x3y3plot" class="plotclip"><rect width="440" height="186"/></clipPath><clipPath class="axesclip" id="clipaa0887x"><rect x="80" y="0" width="440" height="800"/></clipPath><clipPath class="axesclip" id="clipaa0887y"><rect x="0" y="100" width="600" height="186.00000000000003"/></clipPath><clipPath class="axesclip" id="clipaa0887xy"><rect x="80" y="100" width="440" height="186.00000000000003"/></clipPath><clipPath class="axesclip" id="clipaa0887y2"><rect x="0" y="317.00000000000006" width="600" height="185.99999999999997"/></clipPath><clipPath class="axesclip" id="clipaa0887xy2"><rect x="80" y="317.00000000000006" width="440" height="185.99999999999997"/></clipPath><clipPath class="axesclip" id="clipaa0887y3"><rect x="0" y="534" width="600" height="186"/></clipPath><clipPath class="axesclip" id="clipaa0887xy3"><rect x="80" y="534" width="440" height="186"/></clipPath><clipPath class="axesclip" id="clipaa0887x2"><rect x="80" y="0" width="440" height="800"/></clipPath><clipPath class="axesclip" id="clipaa0887x2y"><rect x="80" y="100" width="440" height="186.00000000000003"/></clipPath><clipPath class="axesclip" id="clipaa0887x2y2"><rect x="80" y="317.00000000000006" width="440" height="185.99999999999997"/></clipPath><clipPath class="axesclip" id="clipaa0887x2y3"><rect x="80" y="534" width="440" height="186"/></clipPath><clipPath class="axesclip" id="clipaa0887x3"><rect x="80" y="0" width="440" height="800"/></clipPath><clipPath class="axesclip" id="clipaa0887x3y"><rect x="80" y="100" width="440" height="186.00000000000003"/></clipPath><clipPath class="axesclip" id="clipaa0887x3y2"><rect x="80" y="317.00000000000006" width="440" height="185.99999999999997"/></clipPath><clipPath class="axesclip" id="clipaa0887x3y3"><rect x="80" y="534" width="440" height="186"/></clipPath></g><g class="gradients"/><g class="patterns"/></defs><g class="bglayer"><rect class="bg" x="80" y="100" width="440" height="186.00000000000003" style="fill: rgb(229, 236, 246); fill-opacity: 1; stroke-width: 0;"/><rect class="bg" x="80" y="317.00000000000006" width="440" height="185.99999999999997" style="fill: rgb(229, 236, 246); fill-opacity: 1; stroke-width: 0;"/><rect class="bg" x="80" y="534" width="440" height="186" style="fill: rgb(229, 236, 246); fill-opacity: 1; stroke-width: 0;"/></g><g class="layer-below"><g class="imagelayer"/><g class="shapelayer"/></g><g class="cartesianlayer"><g class="subplot xy"><g class="layer-subplot"><g class="shapelayer"/><g class="imagelayer"/></g><g class="minor-gridlayer"><g class="x"/><g class="y"/></g><g class="gridlayer"><g class="x"><path class="xgrid crisp" transform="translate(156.15,0)" d="M0,100v186.00000000000003" style="stroke: rgb(255, 255, 255); stroke-opacity: 1; stroke-width: 1px;"/><path class="xgrid crisp" transform="translate(240.77,0)" d="M0,100v186.00000000000003" style="stroke: rgb(255, 255, 255); stroke-opacity: 1; stroke-width: 1px;"/><path class="xgrid crisp" transform="translate(325.38,0)" d="M0,100v186.00000000000003" style="stroke: rgb(255, 255, 255); stroke-opacity: 1; stroke-width: 1px;"/><path class="xgrid crisp" transform="translate(410,0)" d="M0,100v186.00000000000003" style="stroke: rgb(255, 255, 255); stroke-opacity: 1; stroke-width: 1px;"/><path class="xgrid crisp" transform="translate(494.62,0)" d="M0,100v186.00000000000003" style="stroke: rgb(255, 255, 255); stroke-opacity: 1; stroke-width: 1px;"/></g><g class="y"><path class="ygrid crisp" transform="translate(0,248.8)" d="M80,0h440" style="stroke: rgb(255, 255, 255); stroke-opacity: 1; stroke-width: 1px;"/><path class="ygrid crisp" transform="translate(0,211.6)" d="M80,0h440" style="stroke: rgb(255, 255, 255); stroke-opacity: 1; stroke-width: 1px;"/><path class="ygrid crisp" transform="translate(0,174.4)" d="M80,0h440" style="stroke: rgb(255, 255, 255); stroke-opacity: 1; stroke-width: 1px;"/><path class="ygrid crisp" transform="translate(0,137.2)" d="M80,0h440" style="stroke: rgb(255, 255, 255); stroke-opacity: 1; stroke-width: 1px;"/></g></g><g class="zerolinelayer"><path class="yzl zl crisp" transform="translate(0,286)" d="M80,0h440" style="stroke: rgb(255, 255, 255); stroke-opacity: 1; stroke-width: 2px;"/></g><path class="xlines-below"/><path class="ylines-below"/><g class="overlines-below"/><g class="xaxislayer-below"/><g class="yaxislayer-below"/><g class="overaxes-below"/><g class="plot" transform="translate(80,100)" clip-path="url(#clipaa0887xyplot)"><g class="scatterlayer mlayer"><g class="trace scatter tracefa5fe7" style="stroke-miterlimit: 2;"><g class="fills"><g><path class="js-fill" d="M0,186L110,185.61L118.46,185.21L126.92,184.63L135.38,180.29L143.85,160.86L152.31,182.13L160.77,168L169.23,158.96L177.69,162.24L186.15,162.9L194.62,145.23L203.08,130.87L211.54,143.38L220,149.25L228.46,141.66L236.92,171.44L245.38,147.97L253.85,177.43L262.31,162.12L270.77,164.19L279.23,165.68L287.69,161.92L296.15,177.78L304.62,170.16L313.08,167.21L321.54,160.61L330,180.28L338.46,184.08L346.92,185.89L355.38,186L440,186L440,186L330,186L321.54,185.99L313.08,182.65L304.62,185.99L279.23,185.94L270.77,185.79L262.31,184.18L253.85,185.92L245.38,179.56L236.92,180.53L228.46,185.06L220,178.47L211.54,185.64L203.08,172.07L194.62,180.23L186.15,185.98L177.69,185.98L169.23,176.01L160.77,177.86L152.31,186L0,186Z" style="fill: rgb(224, 236, 244); fill-opacity: 1; stroke-width: 0;"/></g></g><g class="errorbars"/><g class="lines"><path class="js-line" d="M0,186L152.31,186L160.77,177.86L169.23,176.01L177.69,185.98L186.15,185.98L194.62,180.23L203.08,172.07L211.54,185.64L220,178.47L228.46,185.06L236.92,180.53L245.38,179.56L253.85,185.92L262.31,184.18L270.77,185.79L279.23,185.94L304.62,185.99L313.08,182.65L321.54,185.99L330,186L440,186" style="vector-effect: non-scaling-stroke; fill: none; stroke: rgb(0, 0, 0); stroke-opacity: 1; stroke-width: 0.25px; opacity: 1;"/></g><g class="points"/><g class="text"/></g><g class="trace scatter tracefd8ac2" style="stroke-miterlimit: 2;"><g class="fills"><g><path class="js-fill" d="M0,186L93.08,185.98L101.54,185.22L110,177.69L118.46,176.8L126.92,167.64L135.38,167.64L143.85,156.54L152.31,156.03L160.77,152.87L169.23,142.08L177.69,127.74L186.15,138.43L194.62,124.08L203.08,106.64L211.54,118.29L220,124.6L228.46,108.63L236.92,149.89L245.38,130.45L253.85,141.43L262.31,151.48L270.77,116.01L279.23,136.78L287.69,153.81L296.15,153.81L304.62,137.15L313.08,149.59L321.54,119.61L330,168.29L338.46,179.34L346.92,184.65L355.38,186L440,186L440,186L355.38,186L346.92,185.89L338.46,184.08L330,180.28L321.54,160.61L313.08,167.21L304.62,170.16L296.15,177.78L287.69,161.92L279.23,165.68L270.77,164.19L262.31,162.12L253.85,177.43L245.38,147.97L236.92,171.44L228.46,141.66L220,149.25L211.54,143.38L203.08,130.87L194.62,145.23L186.15,162.9L177.69,162.24L169.23,158.96L160.77,168L152.31,182.13L143.85,160.86L135.38,180.29L126.92,184.63L118.46,185.21L110,185.61L0,186Z" style="fill: rgb(158, 188, 218); fill-opacity: 1; stroke-width: 0;"/></g></g><g class="errorbars"/><g class="lines"><path class="js-line" d="M0,186L110,185.61L118.46,185.21L126.92,184.63L135.38,180.29L143.85,160.86L152.31,182.13L160.77,168L169.23,158.96L177.69,162.24L186.15,162.9L194.62,145.23L203.08,130.87L211.54,143.38L220,149.25L228.46,141.66L236.92,171.44L245.38,147.97L253.85,177.43L262.31,162.12L270.77,164.19L279.23,165.68L287.69,161.92L296.15,177.78L304.62,170.16L313.08,167.21L321.54,160.61L330,180.28L338.46,184.08L346.92,185.89L355.38,186L440,186" style="vector-effect: non-scaling-stroke; fill: none; stroke: rgb(0, 0, 0); stroke-opacity: 1; stroke-width: 0.5px; opacity: 1;"/></g><g class="points"/><g class="text"/></g><g class="trace scatter tracec03dd0" style="stroke-miterlimit: 2;"><g class="fills"><g><path class="js-fill" d="M0,186L25.38,186L33.85,185.06L42.31,185.92L50.77,185.74L76.15,185.94L84.62,184.64L93.08,184.2L101.54,169.75L110,167.67L118.46,155.53L126.92,158.06L135.38,148.61L143.85,138.47L152.31,130.01L160.77,137.98L169.23,126.95L177.69,94.78L186.15,81.24L194.62,87.99L203.08,82.81L220,85.29L228.46,47.51L236.92,96.77L245.38,90.91L253.85,102.22L262.31,107.83L270.77,88.15L279.23,104.28L287.69,128.44L296.15,108.51L304.62,66.42L313.08,87.49L321.54,77.09L330,136.26L338.46,167.45L346.92,167.55L355.38,185.16L363.85,185.9L431.54,186L440,186L440,186L355.38,186L346.92,184.65L338.46,179.34L330,168.29L321.54,119.61L313.08,149.59L304.62,137.15L296.15,153.81L287.69,153.81L279.23,136.78L270.77,116.01L262.31,151.48L253.85,141.43L245.38,130.45L236.92,149.89L228.46,108.63L220,124.6L211.54,118.29L203.08,106.64L194.62,124.08L186.15,138.43L177.69,127.74L169.23,142.08L160.77,152.87L152.31,156.03L143.85,156.54L135.38,167.64L126.92,167.64L118.46,176.8L110,177.69L101.54,185.22L93.08,185.98L0,186Z" style="fill: rgb(158, 188, 218); fill-opacity: 1; stroke-width: 0;"/></g></g><g class="errorbars"/><g class="lines"><path class="js-line" d="M0,186L93.08,185.98L101.54,185.22L110,177.69L118.46,176.8L126.92,167.64L135.38,167.64L143.85,156.54L152.31,156.03L160.77,152.87L169.23,142.08L177.69,127.74L186.15,138.43L194.62,124.08L203.08,106.64L211.54,118.29L220,124.6L228.46,108.63L236.92,149.89L245.38,130.45L253.85,141.43L262.31,151.48L270.77,116.01L279.23,136.78L287.69,153.81L296.15,153.81L304.62,137.15L313.08,149.59L321.54,119.61L330,168.29L338.46,179.34L346.92,184.65L355.38,186L440,186" style="vector-effect: non-scaling-stroke; fill: none; stroke: rgb(0, 0, 0); stroke-opacity: 1; stroke-width: 1px; opacity: 1;"/></g><g class="points"/><g class="text"/></g><g class="trace scatter trace9115c0" style="stroke-miterlimit: 2;"><g class="fills"><g><path class="js-fill" d="M0,186L25.38,185.99L33.85,183.73L42.31,185.89L50.77,185.66L59.23,185.68L67.69,184.56L76.15,185.93L84.62,183.85L93.08,184L101.54,165.43L110,161.04L118.46,122.08L126.92,126.18L135.38,109.82L143.85,121.47L152.31,94.86L160.77,111.98L169.23,101.19L177.69,29.02L186.15,-5.08L194.62,41.01L203.08,51.52L211.54,46.08L220,30.13L228.46,-12.01L236.92,47.31L245.38,19.57L253.85,49.89L262.31,47.31L270.77,-0.92L279.23,35.22L287.69,89.22L296.15,47.03L304.62,-2.08L321.54,21.13L330,85.08L338.46,154.79L346.92,140.57L355.38,185.09L363.85,185.9L440,186L440,186L431.54,186L363.85,185.9L355.38,185.16L346.92,167.55L338.46,167.45L330,136.26L321.54,77.09L313.08,87.49L304.62,66.42L296.15,108.51L287.69,128.44L279.23,104.28L270.77,88.15L262.31,107.83L253.85,102.22L245.38,90.91L236.92,96.77L228.46,47.51L220,85.29L203.08,82.81L194.62,87.99L186.15,81.24L177.69,94.78L169.23,126.95L160.77,137.98L152.31,130.01L143.85,138.47L135.38,148.61L126.92,158.06L118.46,155.53L110,167.67L101.54,169.75L93.08,184.2L84.62,184.64L76.15,185.94L50.77,185.74L42.31,185.92L33.85,185.06L25.38,186L0,186Z" style="fill: rgb(136, 86, 167); fill-opacity: 1; stroke-width: 0;"/></g></g><g class="errorbars"/><g class="lines"><path class="js-line" d="M0,186L25.38,186L33.85,185.06L42.31,185.92L50.77,185.74L76.15,185.94L84.62,184.64L93.08,184.2L101.54,169.75L110,167.67L118.46,155.53L126.92,158.06L135.38,148.61L143.85,138.47L152.31,130.01L160.77,137.98L169.23,126.95L177.69,94.78L186.15,81.24L194.62,87.99L203.08,82.81L220,85.29L228.46,47.51L236.92,96.77L245.38,90.91L253.85,102.22L262.31,107.83L270.77,88.15L279.23,104.28L287.69,128.44L296.15,108.51L304.62,66.42L313.08,87.49L321.54,77.09L330,136.26L338.46,167.45L346.92,167.55L355.38,185.16L363.85,185.9L431.54,186L440,186" style="vector-effect: non-scaling-stroke; fill: none; stroke: rgb(0, 0, 0); stroke-opacity: 1; stroke-width: 0.5px; opacity: 1;"/></g><g class="points"/><g class="text"/></g><g class="trace scatter tracea182c3" style="stroke-miterlimit: 2;"><g class="fills"/><g class="errorbars"/><g class="lines"><path class="js-line" d="M0,186L25.38,185.99L33.85,183.73L42.31,185.89L50.77,185.66L59.23,185.68L67.69,184.56L76.15,185.93L84.62,183.85L93.08,184L101.54,165.43L110,161.04L118.46,122.08L126.92,126.18L135.38,109.82L143.85,121.47L152.31,94.86L160.77,111.98L169.23,101.19L177.69,29.02L186.15,-5.08L194.62,41.01L203.08,51.52L211.54,46.08L220,30.13L228.46,-12.01L236.92,47.31L245.38,19.57L253.85,49.89L262.31,47.31L270.77,-0.92L279.23,35.22L287.69,89.22L296.15,47.03L304.62,-2.08L321.54,21.13L330,85.08L338.46,154.79L346.92,140.57L355.38,185.09L363.85,185.9L440,186" style="vector-effect: non-scaling-stroke; fill: none; stroke: rgb(0, 0, 0); stroke-opacity: 1; stroke-width: 0.25px; opacity: 1;"/></g><g class="points"/><g class="text"/></g><g class="trace scatter trace82e60c" style="stroke-miterlimit: 2; opacity: 1;"><g class="fills"/><g class="errorbars"/><g class="lines"/><g class="points"><path class="point" transform="translate(177.69,186)" d="M4,0A4,4 0 1,1 0,-4A4,4 0 0,1 4,0ZM0,0.5L0.5,0L0,-0.5L-0.5,0Z" style="opacity: 1; stroke: rgb(0, 0, 0); stroke-opacity: 1; stroke-width: 1px; fill: none;"/><path class="point" transform="translate(186.15,186)" d="M4,0A4,4 0 1,1 0,-4A4,4 0 0,1 4,0ZM0,0.5L0.5,0L0,-0.5L-0.5,0Z" style="opacity: 1; stroke: rgb(0, 0, 0); stroke-opacity: 1; stroke-width: 1px; fill: none;"/><path class="point" transform="translate(194.62,165.91)" d="M4,0A4,4 0 1,1 0,-4A4,4 0 0,1 4,0ZM0,0.5L0.5,0L0,-0.5L-0.5,0Z" style="opacity: 1; stroke: rgb(0, 0, 0); stroke-opacity: 1; stroke-width: 1px; fill: none;"/><path class="point" transform="translate(203.08,165.91)" d="M4,0A4,4 0 1,1 0,-4A4,4 0 0,1 4,0ZM0,0.5L0.5,0L0,-0.5L-0.5,0Z" style="opacity: 1; stroke: rgb(0, 0, 0); stroke-opacity: 1; stroke-width: 1px; fill: none;"/></g><g class="text"/></g></g></g><g class="overplot"/><path class="xlines-above crisp" d="M0,0" style="fill: none;"/><path class="ylines-above crisp" d="M0,0" style="fill: none;"/><g class="overlines-above"/><g class="xaxislayer-above"/><g class="yaxislayer-above"><g class="ytick"><text text-anchor="end" x="79" y="4.199999999999999" transform="translate(0,286)" style="font-family: 'Open Sans', verdana, arial, sans-serif; font-size: 12px; fill: rgb(42, 63, 95); fill-opacity: 1; white-space: pre; opacity: 1;">0</text></g><g class="ytick"><text text-anchor="end" x="79" y="4.199999999999999" style="font-family: 'Open Sans', verdana, arial, sans-serif; font-size: 12px; fill: rgb(42, 63, 95); fill-opacity: 1; white-space: pre; opacity: 1;" transform="translate(0,248.8)">50</text></g><g class="ytick"><text text-anchor="end" x="79" y="4.199999999999999" style="font-family: 'Open Sans', verdana, arial, sans-serif; font-size: 12px; fill: rgb(42, 63, 95); fill-opacity: 1; white-space: pre; opacity: 1;" transform="translate(0,211.6)">100</text></g><g class="ytick"><text text-anchor="end" x="79" y="4.199999999999999" style="font-family: 'Open Sans', verdana, arial, sans-serif; font-size: 12px; fill: rgb(42, 63, 95); fill-opacity: 1; white-space: pre; opacity: 1;" transform="translate(0,174.4)">150</text></g><g class="ytick"><text text-anchor="end" x="79" y="4.199999999999999" style="font-family: 'Open Sans', verdana, arial, sans-serif; font-size: 12px; fill: rgb(42, 63, 95); fill-opacity: 1; white-space: pre; opacity: 1;" transform="translate(0,137.2)">200</text></g><g class="ytick"><text text-anchor="end" x="79" y="4.199999999999999" style="font-family: 'Open Sans', verdana, arial, sans-serif; font-size: 12px; fill: rgb(42, 63, 95); fill-opacity: 1; white-space: pre; opacity: 1;" transform="translate(0,100)">250</text></g></g><g class="overaxes-above"/></g><g class="subplot x2y2"><g class="layer-subplot"><g class="shapelayer"/><g class="imagelayer"/></g><g class="minor-gridlayer"><g class="x2"/><g class="y2"/></g><g class="gridlayer"><g class="x2"><path class="x2grid crisp" transform="translate(156.15,0)" d="M0,317.00000000000006v185.99999999999997" style="stroke: rgb(255, 255, 255); stroke-opacity: 1; stroke-width: 1px;"/><path class="x2grid crisp" transform="translate(240.77,0)" d="M0,317.00000000000006v185.99999999999997" style="stroke: rgb(255, 255, 255); stroke-opacity: 1; stroke-width: 1px;"/><path class="x2grid crisp" transform="translate(325.38,0)" d="M0,317.00000000000006v185.99999999999997" style="stroke: rgb(255, 255, 255); stroke-opacity: 1; stroke-width: 1px;"/><path class="x2grid crisp" transform="translate(410,0)" d="M0,317.00000000000006v185.99999999999997" style="stroke: rgb(255, 255, 255); stroke-opacity: 1; stroke-width: 1px;"/><path class="x2grid crisp" transform="translate(494.62,0)" d="M0,317.00000000000006v185.99999999999997" style="stroke: rgb(255, 255, 255); stroke-opacity: 1; stroke-width: 1px;"/></g><g class="y2"><path class="y2grid crisp" transform="translate(0,472.00000000000006)" d="M80,0h440" style="stroke: rgb(255, 255, 255); stroke-opacity: 1; stroke-width: 1px;"/><path class="y2grid crisp" transform="translate(0,410.00000000000006)" d="M80,0h440" style="stroke: rgb(255, 255, 255); stroke-opacity: 1; stroke-width: 1px;"/><path class="y2grid crisp" transform="translate(0,348.00000000000006)" d="M80,0h440" style="stroke: rgb(255, 255, 255); stroke-opacity: 1; stroke-width: 1px;"/></g></g><g class="zerolinelayer"/><path class="xlines-below"/><path class="ylines-below"/><g class="overlines-below"/><g class="xaxislayer-below"/><g class="yaxislayer-below"/><g class="overaxes-below"/><g class="plot" transform="translate(80,317.00000000000006)" clip-path="url(#clipaa0887x2y2plot)"><g class="scatterlayer mlayer"><g class="trace scatter tracef75016" style="stroke-miterlimit: 2;"><g class="fills"><g><path class="js-fill" d="M0,147.41L8.46,150.35L16.92,142.37L25.38,135.99L33.85,133.07L42.31,121.45L50.77,113.84L59.23,109.22L67.69,93.38L76.15,98.21L84.62,82.96L93.08,71.36L101.54,79.91L110,83.53L118.46,82.45L135.38,82.43L143.85,83.58L152.31,76.01L160.77,78.83L177.69,82.64L186.15,81.4L194.62,86.88L203.08,88.4L220,93.27L228.46,93.76L236.92,88.83L245.38,88.46L253.85,82.62L262.31,84.01L270.77,92.85L279.23,90.33L287.69,86.61L296.15,91.78L304.62,91.7L313.08,89.99L321.54,91.99L330,90.84L338.46,92.63L346.92,88.92L355.38,88.36L363.85,95.16L372.31,97.64L380.77,107.02L397.69,122.03L406.15,131.51L414.62,131.7L423.08,143.05L431.54,143.92L440,151.33L440,155.2L431.54,152.16L423.08,154.33L414.62,139.79L406.15,138.14L397.69,136.69L389.23,121.1L380.77,112.09L372.31,106.84L363.85,99.77L355.38,91.08L346.92,93.31L338.46,107.75L330,105.69L321.54,101.24L313.08,98.88L304.62,98.44L296.15,104.35L287.69,96.31L279.23,108.44L270.77,103.53L262.31,99.01L253.85,92.48L245.38,95.27L236.92,106.36L228.46,105.33L220,101.08L211.54,96.65L203.08,95.58L194.62,100.34L186.15,87.4L177.69,85.72L169.23,90.2L160.77,86.42L152.31,85.82L143.85,90.95L135.38,99.91L126.92,91.72L118.46,93.18L110,99.26L101.54,96.46L93.08,92.66L84.62,105.13L76.15,104.33L67.69,109.99L59.23,122.14L50.77,127.63L42.31,135.96L33.85,150.06L25.38,139.65L16.92,149.45L8.46,164.1L0,168.38Z" style="fill: rgb(145, 191, 219); fill-opacity: 1; stroke-width: 0;"/></g></g><g class="errorbars"/><g class="lines"><path class="js-line" d="M0,168.38L8.46,164.1L16.92,149.45L25.38,139.65L33.85,150.06L42.31,135.96L50.77,127.63L59.23,122.14L67.69,109.99L76.15,104.33L84.62,105.13L93.08,92.66L101.54,96.46L110,99.26L118.46,93.18L126.92,91.72L135.38,99.91L143.85,90.95L152.31,85.82L160.77,86.42L169.23,90.2L177.69,85.72L186.15,87.4L194.62,100.34L203.08,95.58L211.54,96.65L220,101.08L228.46,105.33L236.92,106.36L245.38,95.27L253.85,92.48L262.31,99.01L270.77,103.53L279.23,108.44L287.69,96.31L296.15,104.35L304.62,98.44L313.08,98.88L321.54,101.24L330,105.69L338.46,107.75L346.92,93.31L355.38,91.08L363.85,99.77L372.31,106.84L380.77,112.09L389.23,121.1L397.69,136.69L406.15,138.14L414.62,139.79L423.08,154.33L431.54,152.16L440,155.2" style="vector-effect: non-scaling-stroke; fill: none; stroke: rgb(0, 0, 0); stroke-opacity: 1; stroke-width: 0.25px; opacity: 1;"/></g><g class="points"/><g class="text"/></g><g class="trace scatter trace623ff5" style="stroke-miterlimit: 2;"><g class="fills"><g><path class="js-fill" d="M0,139.43L8.46,145.19L16.92,135.29L25.38,134.27L33.85,126.17L50.77,107.72L59.23,99.75L67.69,87.33L76.15,80.45L84.62,72.31L93.08,63.12L101.54,68.01L110,74.05L118.46,72.2L126.92,74.71L135.38,76.7L143.85,77.67L152.31,71.74L160.77,72.6L169.23,74.6L177.69,75.79L186.15,75.06L194.62,80.36L203.08,83.59L211.54,85.53L220,88.32L228.46,83.76L236.92,78.71L245.38,82.41L262.31,75.69L270.77,82.95L287.69,82.08L296.15,83.19L304.62,86.82L313.08,85.06L321.54,85.72L330,80.47L338.46,79.64L346.92,83.88L355.38,86.39L363.85,91.4L372.31,94.59L380.77,103.31L389.23,111.37L397.69,114.45L406.15,124.39L414.62,125.87L431.54,138.46L440,136.5L440,151.33L431.54,143.92L423.08,143.05L414.62,131.7L406.15,131.51L397.69,122.03L380.77,107.02L372.31,97.64L363.85,95.16L355.38,88.36L346.92,88.92L338.46,92.63L330,90.84L321.54,91.99L313.08,89.99L304.62,91.7L296.15,91.78L287.69,86.61L279.23,90.33L270.77,92.85L262.31,84.01L253.85,82.62L245.38,88.46L236.92,88.83L228.46,93.76L220,93.27L203.08,88.4L194.62,86.88L186.15,81.4L177.69,82.64L160.77,78.83L152.31,76.01L143.85,83.58L135.38,82.43L118.46,82.45L110,83.53L101.54,79.91L93.08,71.36L84.62,82.96L76.15,98.21L67.69,93.38L59.23,109.22L50.77,113.84L42.31,121.45L33.85,133.07L25.38,135.99L16.92,142.37L8.46,150.35L0,147.41Z" style="fill: rgb(255, 255, 191); fill-opacity: 1; stroke-width: 0;"/></g></g><g class="errorbars"/><g class="lines"><path class="js-line" d="M0,147.41L8.46,150.35L16.92,142.37L25.38,135.99L33.85,133.07L42.31,121.45L50.77,113.84L59.23,109.22L67.69,93.38L76.15,98.21L84.62,82.96L93.08,71.36L101.54,79.91L110,83.53L118.46,82.45L135.38,82.43L143.85,83.58L152.31,76.01L160.77,78.83L177.69,82.64L186.15,81.4L194.62,86.88L203.08,88.4L220,93.27L228.46,93.76L236.92,88.83L245.38,88.46L253.85,82.62L262.31,84.01L270.77,92.85L279.23,90.33L287.69,86.61L296.15,91.78L304.62,91.7L313.08,89.99L321.54,91.99L330,90.84L338.46,92.63L346.92,88.92L355.38,88.36L363.85,95.16L372.31,97.64L380.77,107.02L397.69,122.03L406.15,131.51L414.62,131.7L423.08,143.05L431.54,143.92L440,151.33" style="vector-effect: non-scaling-stroke; fill: none; stroke: rgb(0, 0, 0); stroke-opacity: 1; stroke-width: 0.5px; opacity: 1;"/></g><g class="points"/><g class="text"/></g><g class="trace scatter trace3c9df7" style="stroke-miterlimit: 2;"><g class="fills"><g><path class="js-fill" d="M0,132.52L8.46,137.24L16.92,128.47L25.38,130.13L33.85,117.96L42.31,110.43L50.77,99.53L76.15,73.89L84.62,66.46L93.08,56.77L101.54,53.56L118.46,60.25L126.92,67.28L135.38,69.2L143.85,72.54L152.31,68.14L160.77,65.04L169.23,69.02L177.69,68.18L186.15,67.97L194.62,69.81L203.08,76.74L211.54,81.45L220,80.48L228.46,76.03L236.92,72.73L245.38,76.82L253.85,74.07L262.31,72.96L270.77,73.07L279.23,77.38L287.69,76.56L296.15,76.79L304.62,80.77L313.08,80.85L321.54,80.98L330,71.74L338.46,73L346.92,76.46L355.38,83.91L363.85,88L372.31,90.34L380.77,101.07L397.69,110.11L406.15,116.9L423.08,125.83L431.54,129L440,122.72L440,136.5L431.54,138.46L414.62,125.87L406.15,124.39L397.69,114.45L389.23,111.37L380.77,103.31L372.31,94.59L363.85,91.4L355.38,86.39L346.92,83.88L338.46,79.64L330,80.47L321.54,85.72L313.08,85.06L304.62,86.82L296.15,83.19L287.69,82.08L270.77,82.95L262.31,75.69L245.38,82.41L236.92,78.71L228.46,83.76L220,88.32L211.54,85.53L203.08,83.59L194.62,80.36L186.15,75.06L177.69,75.79L169.23,74.6L160.77,72.6L152.31,71.74L143.85,77.67L135.38,76.7L126.92,74.71L118.46,72.2L110,74.05L101.54,68.01L93.08,63.12L84.62,72.31L76.15,80.45L67.69,87.33L59.23,99.75L50.77,107.72L33.85,126.17L25.38,134.27L16.92,135.29L8.46,145.19L0,139.43Z" style="fill: rgb(255, 255, 191); fill-opacity: 1; stroke-width: 0;"/></g></g><g class="errorbars"/><g class="lines"><path class="js-line" d="M0,139.43L8.46,145.19L16.92,135.29L25.38,134.27L33.85,126.17L50.77,107.72L59.23,99.75L67.69,87.33L76.15,80.45L84.62,72.31L93.08,63.12L101.54,68.01L110,74.05L118.46,72.2L126.92,74.71L135.38,76.7L143.85,77.67L152.31,71.74L160.77,72.6L169.23,74.6L177.69,75.79L186.15,75.06L194.62,80.36L203.08,83.59L211.54,85.53L220,88.32L228.46,83.76L236.92,78.71L245.38,82.41L262.31,75.69L270.77,82.95L287.69,82.08L296.15,83.19L304.62,86.82L313.08,85.06L321.54,85.72L330,80.47L338.46,79.64L346.92,83.88L355.38,86.39L363.85,91.4L372.31,94.59L380.77,103.31L389.23,111.37L397.69,114.45L406.15,124.39L414.62,125.87L431.54,138.46L440,136.5" style="vector-effect: non-scaling-stroke; fill: none; stroke: rgb(0, 0, 0); stroke-opacity: 1; stroke-width: 1px; opacity: 1;"/></g><g class="points"/><g class="text"/></g><g class="trace scatter trace87065a" style="stroke-miterlimit: 2;"><g class="fills"><g><path class="js-fill" d="M0,114.86L8.46,117.61L16.92,115.31L25.38,124.76L33.85,109.74L42.31,101.8L50.77,86.19L59.23,74.42L67.69,68L76.15,61.9L84.62,52.12L93.08,51.51L101.54,35.29L110,42.51L118.46,34.52L126.92,46.61L135.38,50.74L143.85,59.48L152.31,64.89L160.77,48.09L169.23,66.98L177.69,58.23L186.15,62.24L194.62,61.74L203.08,64.15L211.54,68.73L220,68.14L228.46,69.21L236.92,61.93L245.38,65.24L253.85,62.47L262.31,58.49L270.77,66.05L279.23,62.65L287.69,63.03L296.15,65.68L304.62,67.15L313.08,75.28L321.54,71.49L330,65.02L338.46,57.2L346.92,59.34L355.38,80.57L363.85,82.99L372.31,86.37L380.77,92.78L389.23,95L397.69,97.56L406.15,103.35L414.62,112.71L423.08,116.99L431.54,117.15L440,114.45L440,122.72L431.54,129L423.08,125.83L406.15,116.9L397.69,110.11L380.77,101.07L372.31,90.34L363.85,88L355.38,83.91L346.92,76.46L338.46,73L330,71.74L321.54,80.98L313.08,80.85L304.62,80.77L296.15,76.79L287.69,76.56L279.23,77.38L270.77,73.07L262.31,72.96L253.85,74.07L245.38,76.82L236.92,72.73L228.46,76.03L220,80.48L211.54,81.45L203.08,76.74L194.62,69.81L186.15,67.97L177.69,68.18L169.23,69.02L160.77,65.04L152.31,68.14L143.85,72.54L135.38,69.2L126.92,67.28L118.46,60.25L101.54,53.56L93.08,56.77L84.62,66.46L76.15,73.89L50.77,99.53L42.31,110.43L33.85,117.96L25.38,130.13L16.92,128.47L8.46,137.24L0,132.52Z" style="fill: rgb(252, 141, 89); fill-opacity: 1; stroke-width: 0;"/></g></g><g class="errorbars"/><g class="lines"><path class="js-line" d="M0,132.52L8.46,137.24L16.92,128.47L25.38,130.13L33.85,117.96L42.31,110.43L50.77,99.53L76.15,73.89L84.62,66.46L93.08,56.77L101.54,53.56L118.46,60.25L126.92,67.28L135.38,69.2L143.85,72.54L152.31,68.14L160.77,65.04L169.23,69.02L177.69,68.18L186.15,67.97L194.62,69.81L203.08,76.74L211.54,81.45L220,80.48L228.46,76.03L236.92,72.73L245.38,76.82L253.85,74.07L262.31,72.96L270.77,73.07L279.23,77.38L287.69,76.56L296.15,76.79L304.62,80.77L313.08,80.85L321.54,80.98L330,71.74L338.46,73L346.92,76.46L355.38,83.91L363.85,88L372.31,90.34L380.77,101.07L397.69,110.11L406.15,116.9L423.08,125.83L431.54,129L440,122.72" style="vector-effect: non-scaling-stroke; fill: none; stroke: rgb(0, 0, 0); stroke-opacity: 1; stroke-width: 0.5px; opacity: 1;"/></g><g class="points"/><g class="text"/></g><g class="trace scatter tracee39524" style="stroke-miterlimit: 2;"><g class="fills"/><g class="errorbars"/><g class="lines"><path class="js-line" d="M0,114.86L8.46,117.61L16.92,115.31L25.38,124.76L33.85,109.74L42.31,101.8L50.77,86.19L59.23,74.42L67.69,68L76.15,61.9L84.62,52.12L93.08,51.51L101.54,35.29L110,42.51L118.46,34.52L126.92,46.61L135.38,50.74L143.85,59.48L152.31,64.89L160.77,48.09L169.23,66.98L177.69,58.23L186.15,62.24L194.62,61.74L203.08,64.15L211.54,68.73L220,68.14L228.46,69.21L236.92,61.93L245.38,65.24L253.85,62.47L262.31,58.49L270.77,66.05L279.23,62.65L287.69,63.03L296.15,65.68L304.62,67.15L313.08,75.28L321.54,71.49L330,65.02L338.46,57.2L346.92,59.34L355.38,80.57L363.85,82.99L372.31,86.37L380.77,92.78L389.23,95L397.69,97.56L406.15,103.35L414.62,112.71L423.08,116.99L431.54,117.15L440,114.45" style="vector-effect: non-scaling-stroke; fill: none; stroke: rgb(0, 0, 0); stroke-opacity: 1; stroke-width: 0.25px; opacity: 1;"/></g><g class="points"/><g class="text"/></g><g class="trace scatter tracec37b9e" style="stroke-miterlimit: 2; opacity: 1;"><g class="fills"/><g class="errorbars"/><g class="lines"/><g class="points"><path class="point" transform="translate(177.69,49.6)" d="M4,0A4,4 0 1,1 0,-4A4,4 0 0,1 4,0ZM0,0.5L0.5,0L0,-0.5L-0.5,0Z" style="opacity: 1; stroke: rgb(0, 0, 0); stroke-opacity: 1; stroke-width: 1px; fill: none;"/><path class="point" transform="translate(186.15,37.2)" d="M4,0A4,4 0 1,1 0,-4A4,4 0 0,1 4,0ZM0,0.5L0.5,0L0,-0.5L-0.5,0Z" style="opacity: 1; stroke: rgb(0, 0, 0); stroke-opacity: 1; stroke-width: 1px; fill: none;"/><path class="point" transform="translate(194.62,62)" d="M4,0A4,4 0 1,1 0,-4A4,4 0 0,1 4,0ZM0,0.5L0.5,0L0,-0.5L-0.5,0Z" style="opacity: 1; stroke: rgb(0, 0, 0); stroke-opacity: 1; stroke-width: 1px; fill: none;"/><path class="point" transform="translate(203.08,62)" d="M4,0A4,4 0 1,1 0,-4A4,4 0 0,1 4,0ZM0,0.5L0.5,0L0,-0.5L-0.5,0Z" style="opacity: 1; stroke: rgb(0, 0, 0); stroke-opacity: 1; stroke-width: 1px; fill: none;"/></g><g class="text"/></g></g></g><g class="overplot"/><path class="xlines-above crisp" d="M0,0" style="fill: none;"/><path class="ylines-above crisp" d="M0,0" style="fill: none;"/><g class="overlines-above"/><g class="xaxislayer-above"/><g class="yaxislayer-above"><g class="y2tick"><text text-anchor="end" x="79" y="4.199999999999999" transform="translate(0,472.00000000000006)" style="font-family: 'Open Sans', verdana, arial, sans-serif; font-size: 12px; fill: rgb(42, 63, 95); fill-opacity: 1; white-space: pre; opacity: 1;">20</text></g><g class="y2tick"><text text-anchor="end" x="79" y="4.199999999999999" style="font-family: 'Open Sans', verdana, arial, sans-serif; font-size: 12px; fill: rgb(42, 63, 95); fill-opacity: 1; white-space: pre; opacity: 1;" transform="translate(0,410.00000000000006)">30</text></g><g class="y2tick"><text text-anchor="end" x="79" y="4.199999999999999" style="font-family: 'Open Sans', verdana, arial, sans-serif; font-size: 12px; fill: rgb(42, 63, 95); fill-opacity: 1; white-space: pre; opacity: 1;" transform="translate(0,348.00000000000006)">40</text></g></g><g class="overaxes-above"/></g><g class="subplot x3y3"><g class="layer-subplot"><g class="shapelayer"/><g class="imagelayer"/></g><g class="minor-gridlayer"><g class="x3"/><g class="y3"/></g><g class="gridlayer"><g class="x3"><path class="x3grid crisp" transform="translate(156.15,0)" d="M0,534v186" style="stroke: rgb(255, 255, 255); stroke-opacity: 1; stroke-width: 1px;"/><path class="x3grid crisp" transform="translate(240.77,0)" d="M0,534v186" style="stroke: rgb(255, 255, 255); stroke-opacity: 1; stroke-width: 1px;"/><path class="x3grid crisp" transform="translate(325.38,0)" d="M0,534v186" style="stroke: rgb(255, 255, 255); stroke-opacity: 1; stroke-width: 1px;"/><path class="x3grid crisp" transform="translate(410,0)" d="M0,534v186" style="stroke: rgb(255, 255, 255); stroke-opacity: 1; stroke-width: 1px;"/><path class="x3grid crisp" transform="translate(494.62,0)" d="M0,534v186" style="stroke: rgb(255, 255, 255); stroke-opacity: 1; stroke-width: 1px;"/></g><g class="y3"><path class="y3grid crisp" transform="translate(0,682.8)" d="M80,0h440" style="stroke: rgb(255, 255, 255); stroke-opacity: 1; stroke-width: 1px;"/><path class="y3grid crisp" transform="translate(0,645.6)" d="M80,0h440" style="stroke: rgb(255, 255, 255); stroke-opacity: 1; stroke-width: 1px;"/><path class="y3grid crisp" transform="translate(0,608.4)" d="M80,0h440" style="stroke: rgb(255, 255, 255); stroke-opacity: 1; stroke-width: 1px;"/><path class="y3grid crisp" transform="translate(0,571.2)" d="M80,0h440" style="stroke: rgb(255, 255, 255); stroke-opacity: 1; stroke-width: 1px;"/></g></g><g class="zerolinelayer"/><path class="xlines-below"/><path class="ylines-below"/><g class="overlines-below"/><g class="xaxislayer-below"/><g class="yaxislayer-below"/><g class="overaxes-below"/><g class="plot" transform="translate(80,534)" clip-path="url(#clipaa0887x3y3plot)"><g class="scatterlayer mlayer"><g class="trace scatter trace73bdd7" style="stroke-miterlimit: 2;"><g class="fills"><g><path class="js-fill" d="M0,130.67L8.46,141.3L16.92,134.09L25.38,129.07L33.85,125.3L42.31,114.77L50.77,114.73L59.23,103.04L67.69,95.2L76.15,87.96L84.62,85.83L93.08,72.63L101.54,68.71L110,69.41L118.46,65.53L126.92,59.49L135.38,59.1L143.85,60.84L152.31,49.4L160.77,47.86L169.23,44.72L177.69,44.8L186.15,39.84L194.62,39.1L203.08,37.34L220,36.81L228.46,36.02L245.38,36.2L253.85,34.99L262.31,34.61L270.77,35.7L279.23,37.48L287.69,35.71L304.62,40.39L313.08,39.61L321.54,39.57L330,42.9L338.46,48.75L346.92,51.86L355.38,56.01L363.85,66.79L372.31,73.11L380.77,80.69L397.69,101.51L406.15,108.82L414.62,113.35L423.08,128.52L431.54,128.45L440,139.15L440,147.33L431.54,152.7L423.08,140.51L414.62,132.63L406.15,122.76L397.69,119.02L389.23,105.04L380.77,87.72L372.31,87.72L363.85,71.55L355.38,63.76L346.92,57.11L338.46,57.18L330,48.85L321.54,45.11L313.08,43.35L304.62,43.64L296.15,43.92L287.69,37.33L279.23,41.95L270.77,41.65L262.31,41.01L253.85,38.2L245.38,44.86L236.92,39.56L228.46,41.56L220,42.09L211.54,38.99L203.08,40.01L194.62,42.07L186.15,43.25L177.69,57.17L169.23,49.51L160.77,56.26L152.31,57.14L143.85,67.88L135.38,68.12L126.92,69.43L118.46,80.73L110,89.92L101.54,82.13L93.08,93.5L84.62,95.96L76.15,100.13L67.69,113.53L59.23,115.37L50.77,139.86L42.31,133.07L33.85,140.67L25.38,146.33L16.92,145.87L8.46,149.05L0,142.53Z" style="fill: rgb(90, 180, 172); fill-opacity: 1; stroke-width: 0;"/></g></g><g class="errorbars"/><g class="lines"><path class="js-line" d="M0,142.53L8.46,149.05L16.92,145.87L25.38,146.33L33.85,140.67L42.31,133.07L50.77,139.86L59.23,115.37L67.69,113.53L76.15,100.13L84.62,95.96L93.08,93.5L101.54,82.13L110,89.92L118.46,80.73L126.92,69.43L135.38,68.12L143.85,67.88L152.31,57.14L160.77,56.26L169.23,49.51L177.69,57.17L186.15,43.25L194.62,42.07L203.08,40.01L211.54,38.99L220,42.09L228.46,41.56L236.92,39.56L245.38,44.86L253.85,38.2L262.31,41.01L270.77,41.65L279.23,41.95L287.69,37.33L296.15,43.92L304.62,43.64L313.08,43.35L321.54,45.11L330,48.85L338.46,57.18L346.92,57.11L355.38,63.76L363.85,71.55L372.31,87.72L380.77,87.72L389.23,105.04L397.69,119.02L406.15,122.76L414.62,132.63L423.08,140.51L431.54,152.7L440,147.33" style="vector-effect: non-scaling-stroke; fill: none; stroke: rgb(0, 0, 0); stroke-opacity: 1; stroke-width: 0.25px; opacity: 1;"/></g><g class="points"/><g class="text"/></g><g class="trace scatter tracec850e9" style="stroke-miterlimit: 2;"><g class="fills"><g><path class="js-fill" d="M0,123.06L8.46,130.45L16.92,123.81L25.38,119.76L33.85,118.53L42.31,108.29L50.77,101.91L59.23,94.14L67.69,83.95L76.15,81.1L84.62,71.38L93.08,62.66L101.54,59.92L110,62.44L118.46,61.35L126.92,53.89L135.38,54.65L143.85,53.2L152.31,46.48L160.77,42.88L169.23,42.62L177.69,41.45L186.15,36.25L194.62,36.17L203.08,34.99L220,34.15L228.46,33.95L236.92,33.47L245.38,34.55L262.31,31.07L270.77,33.39L279.23,34.24L287.69,34.2L296.15,35.08L304.62,37.86L330,37.15L338.46,40.3L346.92,46.53L355.38,54.29L363.85,62.24L372.31,65.96L380.77,76.3L389.23,85.35L406.15,102.76L414.62,106.46L431.54,122.47L440,132.51L440,139.15L431.54,128.45L423.08,128.52L414.62,113.35L406.15,108.82L397.69,101.51L380.77,80.69L372.31,73.11L363.85,66.79L355.38,56.01L346.92,51.86L338.46,48.75L330,42.9L321.54,39.57L313.08,39.61L304.62,40.39L287.69,35.71L279.23,37.48L270.77,35.7L262.31,34.61L253.85,34.99L245.38,36.2L228.46,36.02L220,36.81L203.08,37.34L194.62,39.1L186.15,39.84L177.69,44.8L169.23,44.72L160.77,47.86L152.31,49.4L143.85,60.84L135.38,59.1L126.92,59.49L118.46,65.53L110,69.41L101.54,68.71L93.08,72.63L84.62,85.83L76.15,87.96L67.69,95.2L59.23,103.04L50.77,114.73L42.31,114.77L33.85,125.3L25.38,129.07L16.92,134.09L8.46,141.3L0,130.67Z" style="fill: rgb(245, 245, 245); fill-opacity: 1; stroke-width: 0;"/></g></g><g class="errorbars"/><g class="lines"><path class="js-line" d="M0,130.67L8.46,141.3L16.92,134.09L25.38,129.07L33.85,125.3L42.31,114.77L50.77,114.73L59.23,103.04L67.69,95.2L76.15,87.96L84.62,85.83L93.08,72.63L101.54,68.71L110,69.41L118.46,65.53L126.92,59.49L135.38,59.1L143.85,60.84L152.31,49.4L160.77,47.86L169.23,44.72L177.69,44.8L186.15,39.84L194.62,39.1L203.08,37.34L220,36.81L228.46,36.02L245.38,36.2L253.85,34.99L262.31,34.61L270.77,35.7L279.23,37.48L287.69,35.71L304.62,40.39L313.08,39.61L321.54,39.57L330,42.9L338.46,48.75L346.92,51.86L355.38,56.01L363.85,66.79L372.31,73.11L380.77,80.69L397.69,101.51L406.15,108.82L414.62,113.35L423.08,128.52L431.54,128.45L440,139.15" style="vector-effect: non-scaling-stroke; fill: none; stroke: rgb(0, 0, 0); stroke-opacity: 1; stroke-width: 0.5px; opacity: 1;"/></g><g class="points"/><g class="text"/></g><g class="trace scatter tracea62913" style="stroke-miterlimit: 2;"><g class="fills"><g><path class="js-fill" d="M0,117L8.46,120.22L16.92,116.58L25.38,115.84L33.85,111.8L42.31,100.4L50.77,96.67L67.69,75.75L76.15,73.14L93.08,58.61L101.54,50.26L110,51.13L118.46,50.3L135.38,50.69L143.85,49.23L152.31,43.69L160.77,40.26L169.23,39.19L177.69,36.37L186.15,34.59L194.62,34.86L211.54,32.45L220,30.18L228.46,31.44L236.92,28.46L245.38,29.91L253.85,29.24L262.31,28.35L270.77,28.78L279.23,30.87L287.69,31.71L296.15,32.62L304.62,35.24L313.08,34.56L321.54,35.88L330,33.96L338.46,35.33L346.92,43.93L355.38,49.73L363.85,59.17L372.31,61.22L380.77,73.99L389.23,79.85L397.69,87.48L406.15,96.58L414.62,98.86L423.08,99.63L440,120.82L440,132.51L431.54,122.47L414.62,106.46L406.15,102.76L389.23,85.35L380.77,76.3L372.31,65.96L363.85,62.24L355.38,54.29L346.92,46.53L338.46,40.3L330,37.15L304.62,37.86L296.15,35.08L287.69,34.2L279.23,34.24L270.77,33.39L262.31,31.07L245.38,34.55L236.92,33.47L228.46,33.95L220,34.15L203.08,34.99L194.62,36.17L186.15,36.25L177.69,41.45L169.23,42.62L160.77,42.88L152.31,46.48L143.85,53.2L135.38,54.65L126.92,53.89L118.46,61.35L110,62.44L101.54,59.92L93.08,62.66L84.62,71.38L76.15,81.1L67.69,83.95L59.23,94.14L50.77,101.91L42.31,108.29L33.85,118.53L25.38,119.76L16.92,123.81L8.46,130.45L0,123.06Z" style="fill: rgb(245, 245, 245); fill-opacity: 1; stroke-width: 0;"/></g></g><g class="errorbars"/><g class="lines"><path class="js-line" d="M0,123.06L8.46,130.45L16.92,123.81L25.38,119.76L33.85,118.53L42.31,108.29L50.77,101.91L59.23,94.14L67.69,83.95L76.15,81.1L84.62,71.38L93.08,62.66L101.54,59.92L110,62.44L118.46,61.35L126.92,53.89L135.38,54.65L143.85,53.2L152.31,46.48L160.77,42.88L169.23,42.62L177.69,41.45L186.15,36.25L194.62,36.17L203.08,34.99L220,34.15L228.46,33.95L236.92,33.47L245.38,34.55L262.31,31.07L270.77,33.39L279.23,34.24L287.69,34.2L296.15,35.08L304.62,37.86L330,37.15L338.46,40.3L346.92,46.53L355.38,54.29L363.85,62.24L372.31,65.96L380.77,76.3L389.23,85.35L406.15,102.76L414.62,106.46L431.54,122.47L440,132.51" style="vector-effect: non-scaling-stroke; fill: none; stroke: rgb(0, 0, 0); stroke-opacity: 1; stroke-width: 1px; opacity: 1;"/></g><g class="points"/><g class="text"/></g><g class="trace scatter trace380e86" style="stroke-miterlimit: 2;"><g class="fills"><g><path class="js-fill" d="M0,109.26L8.46,112.71L16.92,101.73L25.38,102.72L33.85,91.81L42.31,93.33L50.77,76.26L59.23,80.3L67.69,63.04L76.15,53.5L84.62,52.2L93.08,43.11L101.54,35.45L110,38.5L118.46,32.18L126.92,41.59L135.38,40.82L143.85,36.59L152.31,38.36L160.77,34.58L169.23,32.87L177.69,30.78L186.15,29.53L194.62,32.91L203.08,30.04L211.54,29.01L220,20.42L228.46,25.36L236.92,20.21L245.38,25.41L253.85,21.99L262.31,19.7L270.77,24.07L279.23,21.59L287.69,29.74L296.15,29.98L304.62,28.94L313.08,27.61L321.54,32.64L330,27.61L338.46,30.51L355.38,44.2L363.85,51.79L372.31,55.97L380.77,68.18L389.23,74.15L397.69,78.85L406.15,80.83L414.62,85.99L423.08,88.38L431.54,99.34L440,103.99L440,120.82L423.08,99.63L414.62,98.86L406.15,96.58L397.69,87.48L389.23,79.85L380.77,73.99L372.31,61.22L363.85,59.17L355.38,49.73L346.92,43.93L338.46,35.33L330,33.96L321.54,35.88L313.08,34.56L304.62,35.24L296.15,32.62L287.69,31.71L279.23,30.87L270.77,28.78L262.31,28.35L253.85,29.24L245.38,29.91L236.92,28.46L228.46,31.44L220,30.18L211.54,32.45L194.62,34.86L186.15,34.59L177.69,36.37L169.23,39.19L160.77,40.26L152.31,43.69L143.85,49.23L135.38,50.69L118.46,50.3L110,51.13L101.54,50.26L93.08,58.61L76.15,73.14L67.69,75.75L50.77,96.67L42.31,100.4L33.85,111.8L25.38,115.84L16.92,116.58L8.46,120.22L0,117Z" style="fill: rgb(216, 179, 101); fill-opacity: 1; stroke-width: 0;"/></g></g><g class="errorbars"/><g class="lines"><path class="js-line" d="M0,117L8.46,120.22L16.92,116.58L25.38,115.84L33.85,111.8L42.31,100.4L50.77,96.67L67.69,75.75L76.15,73.14L93.08,58.61L101.54,50.26L110,51.13L118.46,50.3L135.38,50.69L143.85,49.23L152.31,43.69L160.77,40.26L169.23,39.19L177.69,36.37L186.15,34.59L194.62,34.86L211.54,32.45L220,30.18L228.46,31.44L236.92,28.46L245.38,29.91L253.85,29.24L262.31,28.35L270.77,28.78L279.23,30.87L287.69,31.71L296.15,32.62L304.62,35.24L313.08,34.56L321.54,35.88L330,33.96L338.46,35.33L346.92,43.93L355.38,49.73L363.85,59.17L372.31,61.22L380.77,73.99L389.23,79.85L397.69,87.48L406.15,96.58L414.62,98.86L423.08,99.63L440,120.82" style="vector-effect: non-scaling-stroke; fill: none; stroke: rgb(0, 0, 0); stroke-opacity: 1; stroke-width: 0.5px; opacity: 1;"/></g><g class="points"/><g class="text"/></g><g class="trace scatter trace597919" style="stroke-miterlimit: 2;"><g class="fills"/><g class="errorbars"/><g class="lines"><path class="js-line" d="M0,109.26L8.46,112.71L16.92,101.73L25.38,102.72L33.85,91.81L42.31,93.33L50.77,76.26L59.23,80.3L67.69,63.04L76.15,53.5L84.62,52.2L93.08,43.11L101.54,35.45L110,38.5L118.46,32.18L126.92,41.59L135.38,40.82L143.85,36.59L152.31,38.36L160.77,34.58L169.23,32.87L177.69,30.78L186.15,29.53L194.62,32.91L203.08,30.04L211.54,29.01L220,20.42L228.46,25.36L236.92,20.21L245.38,25.41L253.85,21.99L262.31,19.7L270.77,24.07L279.23,21.59L287.69,29.74L296.15,29.98L304.62,28.94L313.08,27.61L321.54,32.64L330,27.61L338.46,30.51L355.38,44.2L363.85,51.79L372.31,55.97L380.77,68.18L389.23,74.15L397.69,78.85L406.15,80.83L414.62,85.99L423.08,88.38L431.54,99.34L440,103.99" style="vector-effect: non-scaling-stroke; fill: none; stroke: rgb(0, 0, 0); stroke-opacity: 1; stroke-width: 0.25px; opacity: 1;"/></g><g class="points"/><g class="text"/></g><g class="trace scatter traceca65d7" style="stroke-miterlimit: 2; opacity: 1;"><g class="fills"/><g class="errorbars"/><g class="lines"/><g class="points"><path class="point" transform="translate(177.69,37.2)" d="M4,0A4,4 0 1,1 0,-4A4,4 0 0,1 4,0ZM0,0.5L0.5,0L0,-0.5L-0.5,0Z" style="opacity: 1; stroke: rgb(0, 0, 0); stroke-opacity: 1; stroke-width: 1px; fill: none;"/><path class="point" transform="translate(186.15,37.2)" d="M4,0A4,4 0 1,1 0,-4A4,4 0 0,1 4,0ZM0,0.5L0.5,0L0,-0.5L-0.5,0Z" style="opacity: 1; stroke: rgb(0, 0, 0); stroke-opacity: 1; stroke-width: 1px; fill: none;"/><path class="point" transform="translate(194.62,14.88)" d="M4,0A4,4 0 1,1 0,-4A4,4 0 0,1 4,0ZM0,0.5L0.5,0L0,-0.5L-0.5,0Z" style="opacity: 1; stroke: rgb(0, 0, 0); stroke-opacity: 1; stroke-width: 1px; fill: none;"/><path class="point" transform="translate(203.08,14.88)" d="M4,0A4,4 0 1,1 0,-4A4,4 0 0,1 4,0ZM0,0.5L0.5,0L0,-0.5L-0.5,0Z" style="opacity: 1; stroke: rgb(0, 0, 0); stroke-opacity: 1; stroke-width: 1px; fill: none;"/></g><g class="text"/></g></g></g><g class="overplot"/><path class="xlines-above crisp" d="M0,0" style="fill: none;"/><path class="ylines-above crisp" d="M0,0" style="fill: none;"/><g class="overlines-above"/><g class="xaxislayer-above"><g class="x3tick"><text text-anchor="middle" x="0" y="733" transform="translate(156.15,0)" style="font-family: 'Open Sans', verdana, arial, sans-serif; font-size: 12px; fill: rgb(42, 63, 95); fill-opacity: 1; white-space: pre; opacity: 1;">10</text></g><g class="x3tick"><text text-anchor="middle" x="0" y="733" style="font-family: 'Open Sans', verdana, arial, sans-serif; font-size: 12px; fill: rgb(42, 63, 95); fill-opacity: 1; white-space: pre; opacity: 1;" transform="translate(240.77,0)">20</text></g><g class="x3tick"><text text-anchor="middle" x="0" y="733" style="font-family: 'Open Sans', verdana, arial, sans-serif; font-size: 12px; fill: rgb(42, 63, 95); fill-opacity: 1; white-space: pre; opacity: 1;" transform="translate(325.38,0)">30</text></g><g class="x3tick"><text text-anchor="middle" x="0" y="733" style="font-family: 'Open Sans', verdana, arial, sans-serif; font-size: 12px; fill: rgb(42, 63, 95); fill-opacity: 1; white-space: pre; opacity: 1;" transform="translate(410,0)">40</text></g><g class="x3tick"><text text-anchor="middle" x="0" y="733" style="font-family: 'Open Sans', verdana, arial, sans-serif; font-size: 12px; fill: rgb(42, 63, 95); fill-opacity: 1; white-space: pre; opacity: 1;" transform="translate(494.62,0)">50</text></g></g><g class="yaxislayer-above"><g class="y3tick"><text text-anchor="end" x="79" y="4.199999999999999" transform="translate(0,720)" style="font-family: 'Open Sans', verdana, arial, sans-serif; font-size: 12px; fill: rgb(42, 63, 95); fill-opacity: 1; white-space: pre; opacity: 1;">5</text></g><g class="y3tick"><text text-anchor="end" x="79" y="4.199999999999999" style="font-family: 'Open Sans', verdana, arial, sans-serif; font-size: 12px; fill: rgb(42, 63, 95); fill-opacity: 1; white-space: pre; opacity: 1;" transform="translate(0,682.8)">10</text></g><g class="y3tick"><text text-anchor="end" x="79" y="4.199999999999999" style="font-family: 'Open Sans', verdana, arial, sans-serif; font-size: 12px; fill: rgb(42, 63, 95); fill-opacity: 1; white-space: pre; opacity: 1;" transform="translate(0,645.6)">15</text></g><g class="y3tick"><text text-anchor="end" x="79" y="4.199999999999999" style="font-family: 'Open Sans', verdana, arial, sans-serif; font-size: 12px; fill: rgb(42, 63, 95); fill-opacity: 1; white-space: pre; opacity: 1;" transform="translate(0,608.4)">20</text></g><g class="y3tick"><text text-anchor="end" x="79" y="4.199999999999999" style="font-family: 'Open Sans', verdana, arial, sans-serif; font-size: 12px; fill: rgb(42, 63, 95); fill-opacity: 1; white-space: pre; opacity: 1;" transform="translate(0,571.2)">25</text></g><g class="y3tick"><text text-anchor="end" x="79" y="4.199999999999999" style="font-family: 'Open Sans', verdana, arial, sans-serif; font-size: 12px; fill: rgb(42, 63, 95); fill-opacity: 1; white-space: pre; opacity: 1;" transform="translate(0,534)">30</text></g></g><g class="overaxes-above"/></g></g><g class="polarlayer"/><g class="smithlayer"/><g class="ternarylayer"/><g class="geolayer"/><g class="funnelarealayer"/><g class="pielayer"/><g class="iciclelayer"/><g class="treemaplayer"/><g class="sunburstlayer"/><g class="glimages"/><defs id="topdefs-aa0887"><g class="clips"/></defs><g class="layer-above"><g class="imagelayer"/><g class="shapelayer"/></g><g class="infolayer"><g class="g-gtitle"><text class="gtitle" x="30" y="50" text-anchor="start" dy="0em" style="font-family: 'Open Sans', verdana, arial, sans-serif; font-size: 17px; fill: rgb(42, 63, 95); opacity: 1; font-weight: normal; white-space: pre;">Climatology and S2S forecast for Nilphamari</text></g><g class="g-xtitle"/><g class="g-x2title"/><g class="g-x3title"/><g class="g-ytitle"><text class="ytitle" transform="rotate(-90,34.16875,193)" x="34.16875" y="193" text-anchor="middle" style="font-family: 'Open Sans', verdana, arial, sans-serif; font-size: 14px; fill: rgb(42, 63, 95); opacity: 1; font-weight: normal; white-space: pre;">[mm]</text></g><g class="g-y2title"><text class="y2title" transform="rotate(-90,40.840625,410.00000000000006)" x="40.840625" y="410.00000000000006" text-anchor="middle" style="font-family: 'Open Sans', verdana, arial, sans-serif; font-size: 14px; fill: rgb(42, 63, 95); opacity: 1; font-weight: normal; white-space: pre;">[C]</text></g><g class="g-y3title"><text class="y3title" transform="rotate(-90,40.840625,627)" x="40.840625" y="627" text-anchor="middle" style="font-family: 'Open Sans', verdana, arial, sans-serif; font-size: 14px; fill: rgb(42, 63, 95); opacity: 1; font-weight: normal; white-space: pre;">[C]</text></g><g class="annotation" data-index="0" style="opacity: 1;"><g class="annotation-text-g" transform="rotate(0,300,89.5)"><g class="cursor-pointer" transform="translate(237,79)"><rect class="bg" x="0.5" y="0.5" width="126" height="20" style="stroke-width: 1px; stroke: rgb(0, 0, 0); stroke-opacity: 0; fill: rgb(0, 0, 0); fill-opacity: 0;"/><text class="annotation-text" text-anchor="middle" x="63.359375" y="16" style="font-family: 'Open Sans', verdana, arial, sans-serif; font-size: 16px; fill: rgb(42, 63, 95); fill-opacity: 1; white-space: pre;">Precipitation sum</text></g></g></g><g class="annotation" data-index="1" style="opacity: 1;"><g class="annotation-text-g" transform="rotate(0,300,306.50000000000006)"><g class="cursor-pointer" transform="translate(196,296)"><rect class="bg" x="0.5" y="0.5" width="208" height="20" style="stroke-width: 1px; stroke: rgb(0, 0, 0); stroke-opacity: 0; fill: rgb(0, 0, 0); fill-opacity: 0;"/><text class="annotation-text" text-anchor="middle" x="104.265625" y="16" style="font-family: 'Open Sans', verdana, arial, sans-serif; font-size: 16px; fill: rgb(42, 63, 95); fill-opacity: 1; white-space: pre;">Mean maximum temperature</text></g></g></g><g class="annotation" data-index="2" style="opacity: 1;"><g class="annotation-text-g" transform="rotate(0,300,523.5)"><g class="cursor-pointer" transform="translate(198,513)"><rect class="bg" x="0.5" y="0.5" width="203" height="20" style="stroke-width: 1px; stroke: rgb(0, 0, 0); stroke-opacity: 0; fill: rgb(0, 0, 0); fill-opacity: 0;"/><text class="annotation-text" text-anchor="middle" x="102.046875" y="16" style="font-family: 'Open Sans', verdana, arial, sans-serif; font-size: 16px; fill: rgb(42, 63, 95); fill-opacity: 1; white-space: pre;">Mean minimum temperature</text></g></g></g><g class="annotation" data-index="3" style="opacity: 1;"><g class="annotation-text-g" transform="rotate(0,300,760.5)"><g class="cursor-pointer" transform="translate(277,750)"><rect class="bg" x="0.5" y="0.5" width="45" height="20" style="stroke-width: 1px; stroke: rgb(0, 0, 0); stroke-opacity: 0; fill: rgb(0, 0, 0); fill-opacity: 0;"/><text class="annotation-text" text-anchor="middle" x="22.3125" y="16" style="font-family: 'Open Sans', verdana, arial, sans-serif; font-size: 16px; fill: rgb(42, 63, 95); fill-opacity: 1; white-space: pre;">Week</text></g></g></g></g></svg>