<svg class="main-svg" xmlns="http://www.w3.org/2000/svg" xmlns:xlink="http://www.w3.org/1999/xlink" width="600" height="800" style="" viewBox="0 0 600 800"><rect x="0" y="0" width="600" height="800" style="fill: rgb(255, 255, 255); fill-opacity: 1;"/><defs id="defs-ff0530"><g class="clips"><clipPath id="clipff0530xyplot" class="plotclip"><rect width="440" height="186.00000000000003"/></clipPath><clipPath id="clipff0530x2y2plot" class="plotclip"><rect width="440" height="185.99999999999997"/></clipPath><clipPath id="clipff0530x3y3plot" class="plotclip"><rect width="440" height="186"/></clipPath><clipPath class="axesclip" id="clipff0530x"><rect x="80" y="0" width="440" height="800"/></clipPath><clipPath class="axesclip" id="clipff0530y"><rect x="0" y="100" width="600" height="186.00000000000003"/></clipPath><clipPath class="axesclip" id="clipff0530xy"><rect x="80" y="100" width="440" height="186.00000000000003"/></clipPath><clipPath class="axesclip" id="clipff0530y2"><rect x="0" y="317.00000000000006" width="600" height="185.99999999999997"/></clipPath><clipPath class="axesclip" id="clipff0530xy2"><rect x="80" y="317.00000000000006" width="440" height="185.99999999999997"/></clipPath><clipPath class="axesclip" id="clipff0530y3"><rect x="0" y="534" width="600" height="186"/></clipPath><clipPath class="axesclip" id="clipff0530xy3"><rect x="80" y="534" width="440" height="186"/></clipPath><clipPath class="axesclip" id="clipff0530x2"><rect x="80" y="0" width="440" height="800"/></clipPath><clipPath class="axesclip" id="clipff0530x2y"><rect x="80" y="100" width="440" height="186.00000000000003"/></clipPath><clipPath class="axesclip" id="clipff0530x2y2"><rect x="80" y="317.00000000000006" width="440" height="185.99999999999997"/></clipPath><clipPath class="axesclip" id="clipff0530x2y3"><rect x="80" y="534" width="440" height="186"/></clipPath><clipPath class="axesclip" id="clipff0530x3"><rect x="80" y="0" width="440" height="800"/></clipPath><clipPath class="axesclip" id="clipff0530x3y"><rect x="80" y="100" width="440" height="186.00000000000003"/></clipPath><clipPath class="axesclip" id="clipff0530x3y2"><rect x="80" y="317.00000000000006" width="440" height="185.99999999999997"/></clipPath><clipPath class="axesclip" id="clipff0530x3y3"><rect x="80" y="534" width="440" height="186"/></clipPath></g><g class="gradients"/><g class="patterns"/></defs><g class="bglayer"><rect class="bg" x="80" y="100" width="440" height="186.00000000000003" style="fill: rgb(229, 236, 246); fill-opacity: 1; stroke-width: 0;"/><rect class="bg" x="80" y="317.00000000000006" width="440" height="185.99999999999997" style="fill: rgb(229, 236, 246); fill-opacity: 1; stroke-width: 0;"/><rect class="bg" x="80" y="534" width="440" height="186" style="fill: rgb(229, 236, 246); fill-opacity: 1; stroke-width: 0;"/></g><g class="layer-below"><g class="imagelayer"/><g class="shapelayer"/></g><g class="cartesianlayer"><g class="subplot xy"><g class="layer-subplot"><g class="shapelayer"/><g class="imagelayer"/></g><g class="minor-gridlayer"><g class="x"/><g class="y"/></g><g class="gridlayer"><g class="x"><path class="xgrid crisp" transform="translate(156.15,0)" d="M0,100v186.00000000000003" style="stroke: rgb(255, 255, 255); stroke-opacity: 1; stroke-width: 1px;"/><path class="xgrid crisp" transform="translate(240.77,0)" d="M0,100v186.00000000000003" style="stroke: rgb(255, 255, 255); stroke-opacity: 1; stroke-width: 1px;"/><path class="xgrid crisp" transform="translate(325.38,0)" d="M0,100v186.00000000000003" style="stroke: rgb(255, 255, 255); stroke-opacity: 1; stroke-width: 1px;"/><path class="xgrid crisp" transform="translate(410,0)" d="M0,100v186.00000000000003" style="stroke: rgb(255, 255, 255); stroke-opacity: 1; stroke-width: 1px;"/><path class="xgrid crisp" transform="translate(494.62,0)" d="M0,100v186.00000000000003" style="stroke: rgb(255, 255, 255); stroke-opacity: 1; stroke-width: 1px;"/></g><g class="y"><path class="ygrid crisp" transform="translate(0,248.8)" d="M80,0h440" style="stroke: rgb(255, 255, 255); stroke-opacity: 1; stroke-width: 1px;"/><path class="ygrid crisp" transform="translate(0,211.6)" d="M80,0h440" style="stroke: rgb(255, 255, 255); stroke-opacity: 1; stroke-width: 1px;"/><path class="ygrid crisp" transform="translate(0,174.4)" d="M80,0h440" style="stroke: rgb(255, 255, 255); stroke-opacity: 1; stroke-width: 1px;"/><path class="ygrid crisp" transform="translate(0,137.2)" d="M80,0h440" style="stroke: rgb(255, 255, 255); stroke-opacity: 1; stroke-width: 1px;"/></g></g><g class="zerolinelayer"><path class="yzl zl crisp" transform="translate(0,286)" d="M80,0h440" style="stroke: rgb(255, 255, 255); stroke-opacity: 1; stroke-width: 2px;"/></g><path class="xlines-below"/><path class="ylines-below"/><g class="overlines-below"/><g class="xaxislayer-below"/><g class="yaxislayer-below"/><g class="overaxes-below"/><g class="plot" transform="translate(80,100)" clip-path="url(#clipff0530xyplot)"><g class="scatterlayer mlayer"><g class="trace scatter trace6a49b8" style="stroke-miterlimit: 2;"><g class="fills"><g><path class="js-fill" d="M0,186L135.38,185.98L143.85,172.48L152.31,185.38L160.77,177.77L169.23,169.63L177.69,167.83L186.15,162.74L194.62,174.82L203.08,151.04L211.54,143.22L220,127.68L228.46,149.73L236.92,145.07L245.38,127.22L253.85,143.84L262.31,138.25L270.77,146.82L279.23,166.5L296.15,155.73L304.62,167.64L313.08,154.59L321.54,173.25L330,180.92L338.46,177.9L346.92,185.68L355.38,186L440,186L440,186L330,186L321.54,185.01L304.62,185.2L296.15,184.33L287.69,181.83L279.23,184.32L270.77,177.12L262.31,184.23L253.85,182.37L245.38,184.61L236.92,175.17L228.46,174.83L220,163.16L211.54,181.48L203.08,177.04L194.62,185.74L0,186Z" style="fill: rgb(224, 236, 244); fill-opacity: 1; stroke-width: 0;"/></g></g><g class="errorbars"/><g class="lines"><path class="js-line" d="M0,186L194.62,185.74L203.08,177.04L211.54,181.48L220,163.16L228.46,174.83L236.92,175.17L245.38,184.61L253.85,182.37L262.31,184.23L270.77,177.12L279.23,184.32L287.69,181.83L296.15,184.33L304.62,185.2L321.54,185.01L330,186L440,186" style="vector-effect: non-scaling-stroke; fill: none; stroke: rgb(0, 0, 0); stroke-opacity: 1; stroke-width: 0.25px; opacity: 1;"/></g><g class="points"/><g class="text"/></g><g class="trace scatter trace186f6e" style="stroke-miterlimit: 2;"><g class="fills"><g><path class="js-fill" d="M0,186L101.54,185.63L110,185.11L126.92,185.34L135.38,181.84L143.85,159.68L152.31,176.79L160.77,162.66L169.23,146.32L177.69,148.6L186.15,121.83L194.62,129.27L203.08,110.78L211.54,115.22L220,96.49L228.46,120.8L236.92,123.57L245.38,105.84L253.85,124.79L262.31,121L270.77,113.04L279.23,148.42L287.69,131.41L296.15,134.93L304.62,135.02L313.08,136.7L321.54,152.29L330,157.03L338.46,154.97L346.92,171L355.38,180.47L363.85,185.53L372.31,186L440,186L440,186L355.38,186L346.92,185.68L338.46,177.9L330,180.92L321.54,173.25L313.08,154.59L304.62,167.64L296.15,155.73L279.23,166.5L270.77,146.82L262.31,138.25L253.85,143.84L245.38,127.22L236.92,145.07L228.46,149.73L220,127.68L211.54,143.22L203.08,151.04L194.62,174.82L186.15,162.74L177.69,167.83L169.23,169.63L160.77,177.77L152.31,185.38L143.85,172.48L135.38,185.98L0,186Z" style="fill: rgb(158, 188, 218); fill-opacity: 1; stroke-width: 0;"/></g></g><g class="errorbars"/><g class="lines"><path class="js-line" d="M0,186L135.38,185.98L143.85,172.48L152.31,185.38L160.77,177.77L169.23,169.63L177.69,167.83L186.15,162.74L194.62,174.82L203.08,151.04L211.54,143.22L220,127.68L228.46,149.73L236.92,145.07L245.38,127.22L253.85,143.84L262.31,138.25L270.77,146.82L279.23,166.5L296.15,155.73L304.62,167.64L313.08,154.59L321.54,173.25L330,180.92L338.46,177.9L346.92,185.68L355.38,186L440,186" style="vector-effect: non-scaling-stroke; fill: none; stroke: rgb(0, 0, 0); stroke-opacity: 1; stroke-width: 0.5px; opacity: 1;"/></g><g class="points"/><g class="text"/></g><g class="trace scatter trace76f1b6" style="stroke-miterlimit: 2;"><g class="fills"><g><path class="js-fill" d="M0,186L42.31,186L50.77,183.68L59.23,185.5L67.69,185.8L76.15,181.25L84.62,183.35L93.08,184.31L101.54,178.53L110,178.24L118.46,173.53L126.92,173.1L135.38,165.16L143.85,134.56L152.31,144.21L160.77,147.65L169.23,125.92L177.69,108.97L186.15,100.62L194.62,80.7L203.08,69.99L211.54,47.11L220,53.6L228.46,80.1L236.92,45.23L245.38,63L253.85,98.46L262.31,92.9L270.77,71.98L279.23,126.51L287.69,110.85L296.15,114.71L304.62,111.05L313.08,117.82L321.54,120.83L330,126.98L338.46,100.56L346.92,147.05L355.38,143.16L363.85,176.05L372.31,185.12L406.15,186L414.62,186L440,186L440,186L372.31,186L363.85,185.53L355.38,180.47L346.92,171L338.46,154.97L330,157.03L321.54,152.29L313.08,136.7L304.62,135.02L296.15,134.93L287.69,131.41L279.23,148.42L270.77,113.04L262.31,121L253.85,124.79L245.38,105.84L236.92,123.57L228.46,120.8L220,96.49L211.54,115.22L203.08,110.78L194.62,129.27L186.15,121.83L177.69,148.6L169.23,146.32L160.77,162.66L152.31,176.79L143.85,159.68L135.38,181.84L126.92,185.34L110,185.11L101.54,185.63L0,186Z" style="fill: rgb(158, 188, 218); fill-opacity: 1; stroke-width: 0;"/></g></g><g class="errorbars"/><g class="lines"><path class="js-line" d="M0,186L101.54,185.63L110,185.11L126.92,185.34L135.38,181.84L143.85,159.68L152.31,176.79L160.77,162.66L169.23,146.32L177.69,148.6L186.15,121.83L194.62,129.27L203.08,110.78L211.54,115.22L220,96.49L228.46,120.8L236.92,123.57L245.38,105.84L253.85,124.79L262.31,121L270.77,113.04L279.23,148.42L287.69,131.41L296.15,134.93L304.62,135.02L313.08,136.7L321.54,152.29L330,157.03L338.46,154.97L346.92,171L355.38,180.47L363.85,185.53L372.31,186L440,186" style="vector-effect: non-scaling-stroke; fill: none; stroke: rgb(0, 0, 0); stroke-opacity: 1; stroke-width: 1px; opacity: 1;"/></g><g class="points"/><g class="text"/></g><g class="trace scatter traceedb0ef" style="stroke-miterlimit: 2;"><g class="fills"><g><path class="js-fill" d="M0,186L42.31,186L50.77,181.29L59.23,185.3L67.69,185.71L76.15,176.05L84.62,181.26L93.08,184.09L101.54,174.67L110,170.28L118.46,157.76L126.92,162.59L135.38,144.57L143.85,109.71L152.31,95.08L160.77,127.4L169.23,81.89L177.69,57.37L186.15,8.94L194.62,13.1L203.08,-23.01L211.54,-3.2L220,-28.04L228.46,21.55L236.92,-95.94L245.38,15.97L253.85,35.2L262.31,36.07L270.77,-8.4L279.23,96.38L287.69,37.32L296.15,77.21L304.62,54.89L313.08,88.98L321.54,56.92L330,47.98L338.46,42.34L346.92,90.47L355.38,82.29L363.85,175.8L372.31,185.07L397.69,186L406.15,186L440,186L440,186L414.62,186L406.15,186L372.31,185.12L363.85,176.05L355.38,143.16L346.92,147.05L338.46,100.56L330,126.98L321.54,120.83L313.08,117.82L304.62,111.05L296.15,114.71L287.69,110.85L279.23,126.51L270.77,71.98L262.31,92.9L253.85,98.46L245.38,63L236.92,45.23L228.46,80.1L220,53.6L211.54,47.11L203.08,69.99L194.62,80.7L186.15,100.62L177.69,108.97L169.23,125.92L160.77,147.65L152.31,144.21L143.85,134.56L135.38,165.16L126.92,173.1L118.46,173.53L110,178.24L101.54,178.53L93.08,184.31L84.62,183.35L76.15,181.25L67.69,185.8L59.23,185.5L50.77,183.68L42.31,186L0,186Z" style="fill: rgb(136, 86, 167); fill-opacity: 1; stroke-width: 0;"/></g></g><g class="errorbars"/><g class="lines"><path class="js-line" d="M0,186L42.31,186L50.77,183.68L59.23,185.5L67.69,185.8L76.15,181.25L84.62,183.35L93.08,184.31L101.54,178.53L110,178.24L118.46,173.53L126.92,173.1L135.38,165.16L143.85,134.56L152.31,144.21L160.77,147.65L169.23,125.92L177.69,108.97L186.15,100.62L194.62,80.7L203.08,69.99L211.54,47.11L220,53.6L228.46,80.1L236.92,45.23L245.38,63L253.85,98.46L262.31,92.9L270.77,71.98L279.23,126.51L287.69,110.85L296.15,114.71L304.62,111.05L313.08,117.82L321.54,120.83L330,126.98L338.46,100.56L346.92,147.05L355.38,143.16L363.85,176.05L372.31,185.12L406.15,186L414.62,186L440,186" style="vector-effect: non-scaling-stroke; fill: none; stroke: rgb(0, 0, 0); stroke-opacity: 1; stroke-width: 0.5px; opacity: 1;"/></g><g class="points"/><g class="text"/></g><g class="trace scatter trace0e21be" style="stroke-miterlimit: 2;"><g class="fills"/><g class="errorbars"/><g class="lines"><path class="js-line" d="M0,186L42.31,186L50.77,181.29L59.23,185.3L67.69,185.71L76.15,176.05L84.62,181.26L93.08,184.09L101.54,174.67L110,170.28L118.46,157.76L126.92,162.59L135.38,144.57L143.85,109.71L152.31,95.08L160.77,127.4L169.23,81.89L177.69,57.37L186.15,8.94L194.62,13.1L203.08,-23.01L211.54,-3.2L220,-28.04L228.46,21.55L236.92,-95.94L245.38,15.97L253.85,35.2L262.31,36.07L270.77,-8.4L279.23,96.38L287.69,37.32L296.15,77.21L304.62,54.89L313.08,88.98L321.54,56.92L330,47.98L338.46,42.34L346.92,90.47L355.38,82.29L363.85,175.8L372.31,185.07L397.69,186L406.15,186L440,186" style="vector-effect: non-scaling-stroke; fill: none; stroke: rgb(0, 0, 0); stroke-opacity: 1; stroke-width: 0.25px; opacity: 1;"/></g><g class="points"/><g class="text"/></g><g class="trace scatter trace5d2f26" style="stroke-miterlimit: 2; opacity: 1;"><g class="fills"/><g class="errorbars"/><g class="lines"/><g class="points"><path class="point" transform="translate(169.23,127.97)" d="M4,0A4,4 0 1,1 0,-4A4,4 0 0,1 4,0ZM0,0.5L0.5,0L0,-0.5L-0.5,0Z" style="opacity: 1; stroke: rgb(0, 0, 0); stroke-opacity: 1; stroke-width: 1px; fill: none;"/><path class="point" transform="translate(177.69,136.15)" d="M4,0A4,4 0 1,1 0,-4A4,4 0 0,1 4,0ZM0,0.5L0.5,0L0,-0.5L-0.5,0Z" style="opacity: 1; stroke: rgb(0, 0, 0); stroke-opacity: 1; stroke-width: 1px; fill: none;"/><path class="point" transform="translate(186.15,20.09)" d="M4,0A4,4 0 1,1 0,-4A4,4 0 0,1 4,0ZM0,0.5L0.5,0L0,-0.5L-0.5,0Z" style="opacity: 1; stroke: rgb(0, 0, 0); stroke-opacity: 1; stroke-width: 1px; fill: none;"/><path class="point" transform="translate(194.62,20.09)" d="M4,0A4,4 0 1,1 0,-4A4,4 0 0,1 4,0ZM0,0.5L0.5,0L0,-0.5L-0.5,0Z" style="opacity: 1; stroke: rgb(0, 0, 0); stroke-opacity: 1; stroke-width: 1px; fill: none;"/></g><g class="text"/></g></g></g><g class="overplot"/><path class="xlines-above crisp" d="M0,0" style="fill: none;"/><path class="ylines-above crisp" d="M0,0" style="fill: none;"/><g class="overlines-above"/><g class="xaxislayer-above"/><g class="yaxislayer-above"><g class="ytick"><text text-anchor="end" x="79" y="4.199999999999999" transform="translate(0,286)" style="font-family: 'Open Sans', verdana, arial, sans-serif; font-size: 12px; fill: rgb(42, 63, 95); fill-opacity: 1; white-space: pre; opacity: 1;">0</text></g><g class="ytick"><text text-anchor="end" x="79" y="4.199999999999999" style="font-family: 'Open Sans', verdana, arial, sans-serif; font-size: 12px; fill: rgb(42, 63, 95); fill-opacity: 1; white-space: pre; opacity: 1;" transform="translate(0,248.8)">50</text></g><g class="ytick"><text text-anchor="end" x="79" y="4.199999999999999" style="font-family: 'Open Sans', verdana, arial, sans-serif; font-size: 12px; fill: rgb(42, 63, 95); fill-opacity: 1; white-space: pre; opacity: 1;" transform="translate(0,211.6)">100</text></g><g class="ytick"><text text-anchor="end" x="79" y="4.199999999999999" style="font-family: 'Open Sans', verdana, arial, sans-serif; font-size: 12px; fill: rgb(42, 63, 95); fill-opacity: 1; white-space: pre; opacity: 1;" transform="translate(0,174.4)">150</text></g><g class="ytick"><text text-anchor="end" x="79" y="4.199999999999999" style="font-family: 'Open Sans', verdana, arial, sans-serif; font-size: 12px; fill: rgb(42, 63, 95); fill-opacity: 1; white-space: pre; opacity: 1;" transform="translate(0,137.2)">200</text></g><g class="ytick"><text text-anchor="end" x="79" y="4.199999999999999" style="font-family: 'Open Sans', verdana, arial, sans-serif; font-size: 12px; fill: rgb(42, 63, 95); fill-opacity: 1; white-space: pre; opacity: 1;" transform="translate(0,100)">250</text></g></g><g class="overaxes-above"/></g><g class="subplot x2y2"><g class="layer-subplot"><g class="shapelayer"/><g class="imagelayer"/></g><g class="minor-gridlayer"><g class="x2"/><g class="y2"/></g><g class="gridlayer"><g class="x2"><path class="x2grid crisp" transform="translate(156.15,0)" d="M0,317.00000000000006v185.99999999999997" style="stroke: rgb(255, 255, 255); stroke-opacity: 1; stroke-width: 1px;"/><path class="x2grid crisp" transform="translate(240.77,0)" d="M0,317.00000000000006v185.99999999999997" style="stroke: rgb(255, 255, 255); stroke-opacity: 1; stroke-width: 1px;"/><path class="x2grid crisp" transform="translate(325.38,0)" d="M0,317.00000000000006v185.99999999999997" style="stroke: rgb(255, 255, 255); stroke-opacity: 1; stroke-width: 1px;"/><path class="x2grid crisp" transform="translate(410,0)" d="M0,317.00000000000006v185.99999999999997" style="stroke: rgb(255, 255, 255); stroke-opacity: 1; stroke-width: 1px;"/><path class="x2grid crisp" transform="translate(494.62,0)" d="M0,317.00000000000006v185.99999999999997" style="stroke: rgb(255, 255, 255); stroke-opacity: 1; stroke-width: 1px;"/></g><g class="y2"><path class="y2grid crisp" transform="translate(0,472.00000000000006)" d="M80,0h440" style="stroke: rgb(255, 255, 255); stroke-opacity: 1; stroke-width: 1px;"/><path class="y2grid crisp" transform="translate(0,410.00000000000006)" d="M80,0h440" style="stroke: rgb(255, 255, 255); stroke-opacity: 1; stroke-width: 1px;"/><path class="y2grid crisp" transform="translate(0,348.00000000000006)" d="M80,0h440" style="stroke: rgb(255, 255, 255); stroke-opacity: 1; stroke-width: 1px;"/></g></g><g class="zerolinelayer"/><path class="xlines-below"/><path class="ylines-below"/><g class="overlines-below"/><g class="xaxislayer-below"/><g class="yaxislayer-below"/><g class="overaxes-below"/><g class="plot" transform="translate(80,317.00000000000006)" clip-path="url(#clipff0530x2y2plot)"><g class="scatterlayer mlayer"><g class="trace scatter trace205ba6" style="stroke-miterlimit: 2;"><g class="fills"><g><path class="js-fill" d="M0,142.19L8.46,143L16.92,131.35L25.38,125.97L33.85,118.85L42.31,111.46L50.77,101.99L59.23,95.54L67.69,90.05L76.15,86.88L84.62,75.4L93.08,76.45L101.54,81.78L110,87.26L118.46,80.17L126.92,83.98L135.38,85.94L143.85,88.03L152.31,85.99L160.77,89.37L169.23,87.87L177.69,91.97L186.15,96.96L194.62,99.3L203.08,99.04L211.54,101.21L220,102.1L228.46,101.66L236.92,105.2L245.38,103.82L253.85,104.9L262.31,105.17L270.77,103.3L287.69,103.97L296.15,103.33L304.62,101.46L313.08,104.75L321.54,100.83L330,100.37L338.46,100.32L346.92,95.56L363.85,92.93L372.31,96.34L389.23,106.21L397.69,116.87L406.15,127.24L414.62,131.03L431.54,139.83L440,143.69L440,147.02L431.54,146.3L423.08,151.04L414.62,135.5L406.15,144.17L397.69,127.34L389.23,112.81L380.77,110.36L372.31,100.85L363.85,101.28L355.38,103.47L346.92,110.01L338.46,111.95L330,110.9L321.54,110.75L313.08,113.51L296.15,108.48L287.69,106.23L279.23,107.15L270.77,109.26L253.85,115.63L245.38,109.64L236.92,106.77L228.46,107.66L220,107.36L211.54,109.19L203.08,107.41L194.62,113.4L186.15,102.68L177.69,103.08L169.23,98.72L160.77,97.62L152.31,94.72L143.85,94.63L135.38,101.03L126.92,93.39L118.46,95.78L110,93.16L101.54,94.08L93.08,92.17L84.62,88.77L76.15,99.18L67.69,111.38L59.23,113.05L50.77,111.23L42.31,125.44L33.85,129.68L25.38,130.82L16.92,146.57L8.46,160.08L0,157.17Z" style="fill: rgb(145, 191, 219); fill-opacity: 1; stroke-width: 0;"/></g></g><g class="errorbars"/><g class="lines"><path class="js-line" d="M0,157.17L8.46,160.08L16.92,146.57L25.38,130.82L33.85,129.68L42.31,125.44L50.77,111.23L59.23,113.05L67.69,111.38L76.15,99.18L84.62,88.77L93.08,92.17L101.54,94.08L110,93.16L118.46,95.78L126.92,93.39L135.38,101.03L143.85,94.63L152.31,94.72L160.77,97.62L169.23,98.72L177.69,103.08L186.15,102.68L194.62,113.4L203.08,107.41L211.54,109.19L220,107.36L228.46,107.66L236.92,106.77L245.38,109.64L253.85,115.63L270.77,109.26L279.23,107.15L287.69,106.23L296.15,108.48L313.08,113.51L321.54,110.75L330,110.9L338.46,111.95L346.92,110.01L355.38,103.47L363.85,101.28L372.31,100.85L380.77,110.36L389.23,112.81L397.69,127.34L406.15,144.17L414.62,135.5L423.08,151.04L431.54,146.3L440,147.02" style="vector-effect: non-scaling-stroke; fill: none; stroke: rgb(0, 0, 0); stroke-opacity: 1; stroke-width: 0.25px; opacity: 1;"/></g><g class="points"/><g class="text"/></g><g class="trace scatter trace7f5f28" style="stroke-miterlimit: 2;"><g class="fills"><g><path class="js-fill" d="M0,133.66L8.46,132.95L16.92,126.04L25.38,118.93L33.85,113.04L50.77,96.25L59.23,91.67L67.69,84.85L76.15,76.13L93.08,69.27L101.54,71.2L110,78.93L118.46,73.12L126.92,77.25L135.38,79.65L143.85,81.99L152.31,78.57L160.77,82.34L169.23,84.07L177.69,85.92L186.15,92.75L194.62,92.82L203.08,96.79L211.54,98.8L220,98.8L228.46,100.15L236.92,103.62L245.38,98.62L253.85,103.02L262.31,97.79L270.77,101.4L279.23,99.47L287.69,101.2L296.15,100.54L304.62,97.56L313.08,99.62L321.54,93.93L330,90.78L338.46,91.79L346.92,88.77L355.38,84.64L363.85,90.81L372.31,93.93L380.77,97.27L389.23,102.93L414.62,122.04L423.08,123.69L431.54,132.54L440,130.86L440,143.69L431.54,139.83L414.62,131.03L406.15,127.24L397.69,116.87L389.23,106.21L372.31,96.34L363.85,92.93L346.92,95.56L338.46,100.32L330,100.37L321.54,100.83L313.08,104.75L304.62,101.46L296.15,103.33L287.69,103.97L270.77,103.3L262.31,105.17L253.85,104.9L245.38,103.82L236.92,105.2L228.46,101.66L220,102.1L211.54,101.21L203.08,99.04L194.62,99.3L186.15,96.96L177.69,91.97L169.23,87.87L160.77,89.37L152.31,85.99L143.85,88.03L135.38,85.94L126.92,83.98L118.46,80.17L110,87.26L101.54,81.78L93.08,76.45L84.62,75.4L76.15,86.88L67.69,90.05L59.23,95.54L50.77,101.99L42.31,111.46L33.85,118.85L25.38,125.97L16.92,131.35L8.46,143L0,142.19Z" style="fill: rgb(255, 255, 191); fill-opacity: 1; stroke-width: 0;"/></g></g><g class="errorbars"/><g class="lines"><path class="js-line" d="M0,142.19L8.46,143L16.92,131.35L25.38,125.97L33.85,118.85L42.31,111.46L50.77,101.99L59.23,95.54L67.69,90.05L76.15,86.88L84.62,75.4L93.08,76.45L101.54,81.78L110,87.26L118.46,80.17L126.92,83.98L135.38,85.94L143.85,88.03L152.31,85.99L160.77,89.37L169.23,87.87L177.69,91.97L186.15,96.96L194.62,99.3L203.08,99.04L211.54,101.21L220,102.1L228.46,101.66L236.92,105.2L245.38,103.82L253.85,104.9L262.31,105.17L270.77,103.3L287.69,103.97L296.15,103.33L304.62,101.46L313.08,104.75L321.54,100.83L330,100.37L338.46,100.32L346.92,95.56L363.85,92.93L372.31,96.34L389.23,106.21L397.69,116.87L406.15,127.24L414.62,131.03L431.54,139.83L440,143.69" style="vector-effect: non-scaling-stroke; fill: none; stroke: rgb(0, 0, 0); stroke-opacity: 1; stroke-width: 0.5px; opacity: 1;"/></g><g class="points"/><g class="text"/></g><g class="trace scatter trace580987" style="stroke-miterlimit: 2;"><g class="fills"><g><path class="js-fill" d="M0,128.2L8.46,127.14L16.92,118.95L25.38,114.95L33.85,108.81L42.31,97.1L50.77,90.93L59.23,83.75L67.69,74.31L76.15,71L84.62,64.63L93.08,65.04L101.54,63.42L110,64.57L118.46,64.27L135.38,64.22L143.85,70.78L152.31,73.46L160.77,75.12L169.23,79.58L177.69,78.5L186.15,85.97L194.62,86.41L203.08,92.33L211.54,95.42L220,94.92L228.46,92.7L236.92,97.02L245.38,88.69L253.85,95.26L262.31,94.08L270.77,97.68L279.23,94.1L287.69,99.15L296.15,95.53L304.62,92.12L313.08,94.13L330,82.12L338.46,86.44L346.92,82.63L355.38,82.9L363.85,86.49L372.31,88.89L389.23,98.83L397.69,103.49L406.15,112.01L414.62,115.42L423.08,120.91L431.54,125.28L440,119.17L440,130.86L431.54,132.54L423.08,123.69L414.62,122.04L389.23,102.93L380.77,97.27L372.31,93.93L363.85,90.81L355.38,84.64L346.92,88.77L338.46,91.79L330,90.78L321.54,93.93L313.08,99.62L304.62,97.56L296.15,100.54L287.69,101.2L279.23,99.47L270.77,101.4L262.31,97.79L253.85,103.02L245.38,98.62L236.92,103.62L228.46,100.15L220,98.8L211.54,98.8L203.08,96.79L194.62,92.82L186.15,92.75L177.69,85.92L169.23,84.07L160.77,82.34L152.31,78.57L143.85,81.99L135.38,79.65L126.92,77.25L118.46,73.12L110,78.93L101.54,71.2L93.08,69.27L76.15,76.13L67.69,84.85L59.23,91.67L50.77,96.25L33.85,113.04L25.38,118.93L16.92,126.04L8.46,132.95L0,133.66Z" style="fill: rgb(255, 255, 191); fill-opacity: 1; stroke-width: 0;"/></g></g><g class="errorbars"/><g class="lines"><path class="js-line" d="M0,133.66L8.46,132.95L16.92,126.04L25.38,118.93L33.85,113.04L50.77,96.25L59.23,91.67L67.69,84.85L76.15,76.13L93.08,69.27L101.54,71.2L110,78.93L118.46,73.12L126.92,77.25L135.38,79.65L143.85,81.99L152.31,78.57L160.77,82.34L169.23,84.07L177.69,85.92L186.15,92.75L194.62,92.82L203.08,96.79L211.54,98.8L220,98.8L228.46,100.15L236.92,103.62L245.38,98.62L253.85,103.02L262.31,97.79L270.77,101.4L279.23,99.47L287.69,101.2L296.15,100.54L304.62,97.56L313.08,99.62L321.54,93.93L330,90.78L338.46,91.79L346.92,88.77L355.38,84.64L363.85,90.81L372.31,93.93L380.77,97.27L389.23,102.93L414.62,122.04L423.08,123.69L431.54,132.54L440,130.86" style="vector-effect: non-scaling-stroke; fill: none; stroke: rgb(0, 0, 0); stroke-opacity: 1; stroke-width: 1px; opacity: 1;"/></g><g class="points"/><g class="text"/></g><g class="trace scatter traced47786" style="stroke-miterlimit: 2;"><g class="fills"><g><path class="js-fill" d="M0,110.33L8.46,108.65L16.92,102.89L25.38,112.57L33.85,103.36L42.31,84.83L50.77,86.08L59.23,75.14L67.69,67.66L76.15,63.01L84.62,53.82L93.08,49.55L101.54,59.21L110,56.94L118.46,58.39L126.92,45.43L135.38,40.29L143.85,63.03L152.31,61.54L160.77,58.18L169.23,69.46L177.69,59.79L186.15,78.73L194.62,77.39L203.08,88.83L211.54,92.88L220,90.79L228.46,80.52L236.92,88.32L245.38,78.86L253.85,82.07L262.31,81.55L270.77,96.14L279.23,90.03L287.69,97.55L296.15,84.02L304.62,82.3L321.54,77.88L330,65.96L338.46,68.53L346.92,64.95L355.38,78.2L363.85,80.21L372.31,85.31L380.77,87.61L389.23,89.85L397.69,91.25L406.15,96.47L414.62,103.56L423.08,112.47L431.54,109.4L440,111.64L440,119.17L431.54,125.28L423.08,120.91L414.62,115.42L406.15,112.01L397.69,103.49L389.23,98.83L372.31,88.89L363.85,86.49L355.38,82.9L346.92,82.63L338.46,86.44L330,82.12L313.08,94.13L304.62,92.12L296.15,95.53L287.69,99.15L279.23,94.1L270.77,97.68L262.31,94.08L253.85,95.26L245.38,88.69L236.92,97.02L228.46,92.7L220,94.92L211.54,95.42L203.08,92.33L194.62,86.41L186.15,85.97L177.69,78.5L169.23,79.58L160.77,75.12L152.31,73.46L143.85,70.78L135.38,64.22L118.46,64.27L110,64.57L101.54,63.42L93.08,65.04L84.62,64.63L76.15,71L67.69,74.31L59.23,83.75L50.77,90.93L42.31,97.1L33.85,108.81L25.38,114.95L16.92,118.95L8.46,127.14L0,128.2Z" style="fill: rgb(252, 141, 89); fill-opacity: 1; stroke-width: 0;"/></g></g><g class="errorbars"/><g class="lines"><path class="js-line" d="M0,128.2L8.46,127.14L16.92,118.95L25.38,114.95L33.85,108.81L42.31,97.1L50.77,90.93L59.23,83.75L67.69,74.31L76.15,71L84.62,64.63L93.08,65.04L101.54,63.42L110,64.57L118.46,64.27L135.38,64.22L143.85,70.78L152.31,73.46L160.77,75.12L169.23,79.58L177.69,78.5L186.15,85.97L194.62,86.41L203.08,92.33L211.54,95.42L220,94.92L228.46,92.7L236.92,97.02L245.38,88.69L253.85,95.26L262.31,94.08L270.77,97.68L279.23,94.1L287.69,99.15L296.15,95.53L304.62,92.12L313.08,94.13L330,82.12L338.46,86.44L346.92,82.63L355.38,82.9L363.85,86.49L372.31,88.89L389.23,98.83L397.69,103.49L406.15,112.01L414.62,115.42L423.08,120.91L431.54,125.28L440,119.17" style="vector-effect: non-scaling-stroke; fill: none; stroke: rgb(0, 0, 0); stroke-opacity: 1; stroke-width: 0.5px; opacity: 1;"/></g><g class="points"/><g class="text"/></g><g class="trace scatter tracec6c1e2" style="stroke-miterlimit: 2;"><g class="fills"/><g class="errorbars"/><g class="lines"><path class="js-line" d="M0,110.33L8.46,108.65L16.92,102.89L25.38,112.57L33.85,103.36L42.31,84.83L50.77,86.08L59.23,75.14L67.69,67.66L76.15,63.01L84.62,53.82L93.08,49.55L101.54,59.21L110,56.94L118.46,58.39L126.92,45.43L135.38,40.29L143.85,63.03L152.31,61.54L160.77,58.18L169.23,69.46L177.69,59.79L186.15,78.73L194.62,77.39L203.08,88.83L211.54,92.88L220,90.79L228.46,80.52L236.92,88.32L245.38,78.86L253.85,82.07L262.31,81.55L270.77,96.14L279.23,90.03L287.69,97.55L296.15,84.02L304.62,82.3L321.54,77.88L330,65.96L338.46,68.53L346.92,64.95L355.38,78.2L363.85,80.21L372.31,85.31L380.77,87.61L389.23,89.85L397.69,91.25L406.15,96.47L414.62,103.56L423.08,112.47L431.54,109.4L440,111.64" style="vector-effect: non-scaling-stroke; fill: none; stroke: rgb(0, 0, 0); stroke-opacity: 1; stroke-width: 0.25px; opacity: 1;"/></g><g class="points"/><g class="text"/></g><g class="trace scatter trace61b9ad" style="stroke-miterlimit: 2; opacity: 1;"><g class="fills"/><g class="errorbars"/><g class="lines"/><g class="points"><path class="point" transform="translate(169.23,86.8)" d="M4,0A4,4 0 1,1 0,-4A4,4 0 0,1 4,0ZM0,0.5L0.5,0L0,-0.5L-0.5,0Z" style="opacity: 1; stroke: rgb(0, 0, 0); stroke-opacity: 1; stroke-width: 1px; fill: none;"/><path class="point" transform="translate(177.69,80.6)" d="M4,0A4,4 0 1,1 0,-4A4,4 0 0,1 4,0ZM0,0.5L0.5,0L0,-0.5L-0.5,0Z" style="opacity: 1; stroke: rgb(0, 0, 0); stroke-opacity: 1; stroke-width: 1px; fill: none;"/><path class="point" transform="translate(186.15,80.6)" d="M4,0A4,4 0 1,1 0,-4A4,4 0 0,1 4,0ZM0,0.5L0.5,0L0,-0.5L-0.5,0Z" style="opacity: 1; stroke: rgb(0, 0, 0); stroke-opacity: 1; stroke-width: 1px; fill: none;"/><path class="point" transform="translate(194.62,80.6)" d="M4,0A4,4 0 1,1 0,-4A4,4 0 0,1 4,0ZM0,0.5L0.5,0L0,-0.5L-0.5,0Z" style="opacity: 1; stroke: rgb(0, 0, 0); stroke-opacity: 1; stroke-width: 1px; fill: none;"/></g><g class="text"/></g></g></g><g class="overplot"/><path class="xlines-above crisp" d="M0,0" style="fill: none;"/><path class="ylines-above crisp" d="M0,0" style="fill: none;"/><g class="overlines-above"/><g class="xaxislayer-above"/><g class="yaxislayer-above"><g class="y2tick"><text text-anchor="end" x="79" y="4.199999999999999" transform="translate(0,472.00000000000006)" style="font-family: 'Open Sans', verdana, arial, sans-serif; font-size: 12px; fill: rgb(42, 63, 95); fill-opacity: 1; white-space: pre; opacity: 1;">20</text></g><g class="y2tick"><text text-anchor="end" x="79" y="4.199999999999999" style="font-family: 'Open Sans', verdana, arial, sans-serif; font-size: 12px; fill: rgb(42, 63, 95); fill-opacity: 1; white-space: pre; opacity: 1;" transform="translate(0,410.00000000000006)">30</text></g><g class="y2tick"><text text-anchor="end" x="79" y="4.199999999999999" style="font-family: 'Open Sans', verdana, arial, sans-serif; font-size: 12px; fill: rgb(42, 63, 95); fill-opacity: 1; white-space: pre; opacity: 1;" transform="translate(0,348.00000000000006)">40</text></g></g><g class="overaxes-above"/></g><g class="subplot x3y3"><g class="layer-subplot"><g class="shapelayer"/><g class="imagelayer"/></g><g class="minor-gridlayer"><g class="x3"/><g class="y3"/></g><g class="gridlayer"><g class="x3"><path class="x3grid crisp" transform="translate(156.15,0)" d="M0,534v186" style="stroke: rgb(255, 255, 255); stroke-opacity: 1; stroke-width: 1px;"/><path class="x3grid crisp" transform="translate(240.77,0)" d="M0,534v186" style="stroke: rgb(255, 255, 255); stroke-opacity: 1; stroke-width: 1px;"/><path class="x3grid crisp" transform="translate(325.38,0)" d="M0,534v186" style="stroke: rgb(255, 255, 255); stroke-opacity: 1; stroke-width: 1px;"/><path class="x3grid crisp" transform="translate(410,0)" d="M0,534v186" style="stroke: rgb(255, 255, 255); stroke-opacity: 1; stroke-width: 1px;"/><path class="x3grid crisp" transform="translate(494.62,0)" d="M0,534v186" style="stroke: rgb(255, 255, 255); stroke-opacity: 1; stroke-width: 1px;"/></g><g class="y3"><path class="y3grid crisp" transform="translate(0,682.8)" d="M80,0h440" style="stroke: rgb(255, 255, 255); stroke-opacity: 1; stroke-width: 1px;"/><path class="y3grid crisp" transform="translate(0,645.6)" d="M80,0h440" style="stroke: rgb(255, 255, 255); stroke-opacity: 1; stroke-width: 1px;"/><path class="y3grid crisp" transform="translate(0,608.4)" d="M80,0h440" style="stroke: rgb(255, 255, 255); stroke-opacity: 1; stroke-width: 1px;"/><path class="y3grid crisp" transform="translate(0,571.2)" d="M80,0h440" style="stroke: rgb(255, 255, 255); stroke-opacity: 1; stroke-width: 1px;"/></g></g><g class="zerolinelayer"/><path class="xlines-below"/><path class="ylines-below"/><g class="overlines-below"/><g class="xaxislayer-below"/><g class="yaxislayer-below"/><g class="overaxes-below"/><g class="plot" transform="translate(80,534)" clip-path="url(#clipff0530x3y3plot)"><g class="scatterlayer mlayer"><g class="trace scatter trace260ccd" style="stroke-miterlimit: 2;"><g class="fills"><g><path class="js-fill" d="M0,114.41L8.46,122.3L16.92,116.93L25.38,112.89L33.85,111.8L42.31,99.7L50.77,90.45L59.23,84.96L67.69,73L76.15,69.87L84.62,63.51L93.08,56.92L101.54,55.75L118.46,50.02L126.92,45.55L135.38,47.05L143.85,45.36L152.31,39.92L160.77,36.04L169.23,35.71L177.69,34.43L186.15,35.72L194.62,34.64L203.08,34.04L211.54,35.41L228.46,34.97L236.92,36.81L245.38,36.52L253.85,37.8L262.31,36.23L270.77,36.57L296.15,38.18L304.62,38.16L313.08,39.9L321.54,39L330,40.03L338.46,43.19L346.92,47.2L355.38,47.44L363.85,56.24L372.31,61.81L380.77,70.56L389.23,80.52L397.69,92.52L406.15,98.55L414.62,102.91L423.08,111.78L431.54,113.66L440,128.3L440,138.12L431.54,129.62L423.08,131.2L414.62,120.34L406.15,110.89L397.69,107.63L389.23,91.34L380.77,80.07L363.85,64.08L355.38,52.03L346.92,50.14L338.46,48.02L330,44.71L321.54,42.7L313.08,43.28L304.62,40.28L296.15,39.29L287.69,40.74L279.23,38.9L270.77,40.78L253.85,39.08L245.38,40.75L236.92,38.66L228.46,38.21L220,36.73L211.54,37.14L203.08,36.5L194.62,40.32L186.15,39.41L177.69,37.79L169.23,37.84L160.77,43.56L152.31,44.67L143.85,54.42L135.38,55.31L126.92,55.3L101.54,65.23L93.08,64.86L84.62,75.17L76.15,80.81L67.69,82.86L59.23,104.52L50.77,101.04L42.31,112.15L33.85,128.92L25.38,132.89L16.92,128.43L8.46,143.12L0,120.23Z" style="fill: rgb(90, 180, 172); fill-opacity: 1; stroke-width: 0;"/></g></g><g class="errorbars"/><g class="lines"><path class="js-line" d="M0,120.23L8.46,143.12L16.92,128.43L25.38,132.89L33.85,128.92L42.31,112.15L50.77,101.04L59.23,104.52L67.69,82.86L76.15,80.81L84.62,75.17L93.08,64.86L101.54,65.23L126.92,55.3L135.38,55.31L143.85,54.42L152.31,44.67L160.77,43.56L169.23,37.84L177.69,37.79L186.15,39.41L194.62,40.32L203.08,36.5L211.54,37.14L220,36.73L228.46,38.21L236.92,38.66L245.38,40.75L253.85,39.08L270.77,40.78L279.23,38.9L287.69,40.74L296.15,39.29L304.62,40.28L313.08,43.28L321.54,42.7L330,44.71L338.46,48.02L346.92,50.14L355.38,52.03L363.85,64.08L380.77,80.07L389.23,91.34L397.69,107.63L406.15,110.89L414.62,120.34L423.08,131.2L431.54,129.62L440,138.12" style="vector-effect: non-scaling-stroke; fill: none; stroke: rgb(0, 0, 0); stroke-opacity: 1; stroke-width: 0.25px; opacity: 1;"/></g><g class="points"/><g class="text"/></g><g class="trace scatter trace507434" style="stroke-miterlimit: 2;"><g class="fills"><g><path class="js-fill" d="M0,112.07L8.46,113.58L16.92,109.18L25.38,104.36L33.85,103.15L42.31,89.36L50.77,86.24L59.23,78.31L67.69,67.71L76.15,65.95L84.62,57.94L93.08,53.02L101.54,51.73L110,50.46L118.46,45.45L126.92,41.98L135.38,41.84L143.85,42.11L152.31,37.18L160.77,34.55L169.23,33.73L186.15,33.58L194.62,33.78L203.08,33.09L211.54,34.2L228.46,33.86L236.92,34.75L253.85,36.57L262.31,34.52L279.23,35.96L287.69,35.85L321.54,37.73L330,39.35L346.92,42.9L355.38,45.08L363.85,53.17L372.31,55.54L380.77,63.47L389.23,73.67L397.69,84.26L406.15,85.81L414.62,96.7L423.08,99.05L431.54,107.49L440,121.76L440,128.3L431.54,113.66L423.08,111.78L414.62,102.91L406.15,98.55L397.69,92.52L389.23,80.52L380.77,70.56L372.31,61.81L363.85,56.24L355.38,47.44L346.92,47.2L338.46,43.19L330,40.03L321.54,39L313.08,39.9L304.62,38.16L296.15,38.18L270.77,36.57L262.31,36.23L253.85,37.8L245.38,36.52L236.92,36.81L228.46,34.97L211.54,35.41L203.08,34.04L194.62,34.64L186.15,35.72L177.69,34.43L169.23,35.71L160.77,36.04L152.31,39.92L143.85,45.36L135.38,47.05L126.92,45.55L118.46,50.02L101.54,55.75L93.08,56.92L84.62,63.51L76.15,69.87L67.69,73L59.23,84.96L50.77,90.45L42.31,99.7L33.85,111.8L25.38,112.89L16.92,116.93L8.46,122.3L0,114.41Z" style="fill: rgb(245, 245, 245); fill-opacity: 1; stroke-width: 0;"/></g></g><g class="errorbars"/><g class="lines"><path class="js-line" d="M0,114.41L8.46,122.3L16.92,116.93L25.38,112.89L33.85,111.8L42.31,99.7L50.77,90.45L59.23,84.96L67.69,73L76.15,69.87L84.62,63.51L93.08,56.92L101.54,55.75L118.46,50.02L126.92,45.55L135.38,47.05L143.85,45.36L152.31,39.92L160.77,36.04L169.23,35.71L177.69,34.43L186.15,35.72L194.62,34.64L203.08,34.04L211.54,35.41L228.46,34.97L236.92,36.81L245.38,36.52L253.85,37.8L262.31,36.23L270.77,36.57L296.15,38.18L304.62,38.16L313.08,39.9L321.54,39L330,40.03L338.46,43.19L346.92,47.2L355.38,47.44L363.85,56.24L372.31,61.81L380.77,70.56L389.23,80.52L397.69,92.52L406.15,98.55L414.62,102.91L423.08,111.78L431.54,113.66L440,128.3" style="vector-effect: non-scaling-stroke; fill: none; stroke: rgb(0, 0, 0); stroke-opacity: 1; stroke-width: 0.5px; opacity: 1;"/></g><g class="points"/><g class="text"/></g><g class="trace scatter traceabffab" style="stroke-miterlimit: 2;"><g class="fills"><g><path class="js-fill" d="M0,105.19L8.46,107.47L16.92,104.36L25.38,98.86L33.85,94.86L42.31,83.01L50.77,75.2L59.23,69.81L67.69,62.51L76.15,60.33L84.62,54.32L93.08,51.25L101.54,46.35L110,44.95L118.46,41.07L126.92,37.92L135.38,36.89L143.85,36.25L152.31,34.4L160.77,30.93L169.23,30.56L177.69,29.78L186.15,31.92L194.62,28.96L203.08,31.54L220,32.49L228.46,31.6L236.92,32.87L245.38,33.23L262.31,32.87L270.77,33.72L279.23,33.15L287.69,33.99L304.62,36.24L313.08,35.89L330,36.32L338.46,38.73L346.92,39.25L355.38,42.25L363.85,48.47L372.31,53.14L380.77,61.46L389.23,66.83L397.69,76.3L406.15,81.46L414.62,88.49L423.08,88.26L431.54,102.49L440,113.14L440,121.76L431.54,107.49L423.08,99.05L414.62,96.7L406.15,85.81L397.69,84.26L389.23,73.67L380.77,63.47L372.31,55.54L363.85,53.17L355.38,45.08L346.92,42.9L330,39.35L321.54,37.73L287.69,35.85L279.23,35.96L262.31,34.52L253.85,36.57L236.92,34.75L228.46,33.86L211.54,34.2L203.08,33.09L194.62,33.78L186.15,33.58L169.23,33.73L160.77,34.55L152.31,37.18L143.85,42.11L135.38,41.84L126.92,41.98L118.46,45.45L110,50.46L101.54,51.73L93.08,53.02L84.62,57.94L76.15,65.95L67.69,67.71L59.23,78.31L50.77,86.24L42.31,89.36L33.85,103.15L25.38,104.36L16.92,109.18L8.46,113.58L0,112.07Z" style="fill: rgb(245, 245, 245); fill-opacity: 1; stroke-width: 0;"/></g></g><g class="errorbars"/><g class="lines"><path class="js-line" d="M0,112.07L8.46,113.58L16.92,109.18L25.38,104.36L33.85,103.15L42.31,89.36L50.77,86.24L59.23,78.31L67.69,67.71L76.15,65.95L84.62,57.94L93.08,53.02L101.54,51.73L110,50.46L118.46,45.45L126.92,41.98L135.38,41.84L143.85,42.11L152.31,37.18L160.77,34.55L169.23,33.73L186.15,33.58L194.62,33.78L203.08,33.09L211.54,34.2L228.46,33.86L236.92,34.75L253.85,36.57L262.31,34.52L279.23,35.96L287.69,35.85L321.54,37.73L330,39.35L346.92,42.9L355.38,45.08L363.85,53.17L372.31,55.54L380.77,63.47L389.23,73.67L397.69,84.26L406.15,85.81L414.62,96.7L423.08,99.05L431.54,107.49L440,121.76" style="vector-effect: non-scaling-stroke; fill: none; stroke: rgb(0, 0, 0); stroke-opacity: 1; stroke-width: 1px; opacity: 1;"/></g><g class="points"/><g class="text"/></g><g class="trace scatter tracefea7cc" style="stroke-miterlimit: 2;"><g class="fills"><g><path class="js-fill" d="M0,96.7L8.46,94.83L16.92,87.08L33.85,82.23L42.31,70.92L50.77,54.29L59.23,62.18L67.69,55.25L76.15,50.28L84.62,45.25L93.08,47.11L101.54,39.59L110,36.85L118.46,33.25L126.92,33.03L135.38,22.73L143.85,29.19L152.31,26.12L160.77,25.55L169.23,23.38L177.69,24.85L186.15,26.33L194.62,21.68L203.08,28.86L211.54,30.13L220,30.22L228.46,29.29L236.92,27.85L245.38,29.36L253.85,27.48L262.31,32.62L279.23,27.89L287.69,32.11L296.15,34.27L304.62,35.21L313.08,33.1L321.54,32.4L330,30.93L338.46,33.42L346.92,32.47L355.38,36L363.85,41.74L372.31,45.12L380.77,50.5L389.23,59.51L397.69,65.76L406.15,69.91L414.62,69.58L423.08,83.98L431.54,91.38L440,96.95L440,113.14L431.54,102.49L423.08,88.26L414.62,88.49L406.15,81.46L397.69,76.3L389.23,66.83L380.77,61.46L372.31,53.14L363.85,48.47L355.38,42.25L346.92,39.25L338.46,38.73L330,36.32L313.08,35.89L304.62,36.24L287.69,33.99L279.23,33.15L270.77,33.72L262.31,32.87L245.38,33.23L236.92,32.87L228.46,31.6L220,32.49L203.08,31.54L194.62,28.96L186.15,31.92L177.69,29.78L169.23,30.56L160.77,30.93L152.31,34.4L143.85,36.25L135.38,36.89L126.92,37.92L118.46,41.07L110,44.95L101.54,46.35L93.08,51.25L84.62,54.32L76.15,60.33L67.69,62.51L59.23,69.81L50.77,75.2L42.31,83.01L33.85,94.86L25.38,98.86L16.92,104.36L8.46,107.47L0,105.19Z" style="fill: rgb(216, 179, 101); fill-opacity: 1; stroke-width: 0;"/></g></g><g class="errorbars"/><g class="lines"><path class="js-line" d="M0,105.19L8.46,107.47L16.92,104.36L25.38,98.86L33.85,94.86L42.31,83.01L50.77,75.2L59.23,69.81L67.69,62.51L76.15,60.33L84.62,54.32L93.08,51.25L101.54,46.35L110,44.95L118.46,41.07L126.92,37.92L135.38,36.89L143.85,36.25L152.31,34.4L160.77,30.93L169.23,30.56L177.69,29.78L186.15,31.92L194.62,28.96L203.08,31.54L220,32.49L228.46,31.6L236.92,32.87L245.38,33.23L262.31,32.87L270.77,33.72L279.23,33.15L287.69,33.99L304.62,36.24L313.08,35.89L330,36.32L338.46,38.73L346.92,39.25L355.38,42.25L363.85,48.47L372.31,53.14L380.77,61.46L389.23,66.83L397.69,76.3L406.15,81.46L414.62,88.49L423.08,88.26L431.54,102.49L440,113.14" style="vector-effect: non-scaling-stroke; fill: none; stroke: rgb(0, 0, 0); stroke-opacity: 1; stroke-width: 0.5px; opacity: 1;"/></g><g class="points"/><g class="text"/></g><g class="trace scatter trace3f5c25" style="stroke-miterlimit: 2;"><g class="fills"/><g class="errorbars"/><g class="lines"><path class="js-line" d="M0,96.7L8.46,94.83L16.92,87.08L33.85,82.23L42.31,70.92L50.77,54.29L59.23,62.18L67.69,55.25L76.15,50.28L84.62,45.25L93.08,47.11L101.54,39.59L110,36.85L118.46,33.25L126.92,33.03L135.38,22.73L143.85,29.19L152.31,26.12L160.77,25.55L169.23,23.38L177.69,24.85L186.15,26.33L194.62,21.68L203.08,28.86L211.54,30.13L220,30.22L228.46,29.29L236.92,27.85L245.38,29.36L253.85,27.48L262.31,32.62L279.23,27.89L287.69,32.11L296.15,34.27L304.62,35.21L313.08,33.1L321.54,32.4L330,30.93L338.46,33.42L346.92,32.47L355.38,36L363.85,41.74L372.31,45.12L380.77,50.5L389.23,59.51L397.69,65.76L406.15,69.91L414.62,69.58L423.08,83.98L431.54,91.38L440,96.95" style="vector-effect: non-scaling-stroke; fill: none; stroke: rgb(0, 0, 0); stroke-opacity: 1; stroke-width: 0.25px; opacity: 1;"/></g><g class="points"/><g class="text"/></g><g class="trace scatter trace2aba5e" style="stroke-miterlimit: 2; opacity: 1;"><g class="fills"/><g class="errorbars"/><g class="lines"/><g class="points"><path class="point" transform="translate(169.23,29.76)" d="M4,0A4,4 0 1,1 0,-4A4,4 0 0,1 4,0ZM0,0.5L0.5,0L0,-0.5L-0.5,0Z" style="opacity: 1; stroke: rgb(0, 0, 0); stroke-opacity: 1; stroke-width: 1px; fill: none;"/><path class="point" transform="translate(177.69,29.76)" d="M4,0A4,4 0 1,1 0,-4A4,4 0 0,1 4,0ZM0,0.5L0.5,0L0,-0.5L-0.5,0Z" style="opacity: 1; stroke: rgb(0, 0, 0); stroke-opacity: 1; stroke-width: 1px; fill: none;"/><path class="point" transform="translate(186.15,29.76)" d="M4,0A4,4 0 1,1 0,-4A4,4 0 0,1 4,0ZM0,0.5L0.5,0L0,-0.5L-0.5,0Z" style="opacity: 1; stroke: rgb(0, 0, 0); stroke-opacity: 1; stroke-width: 1px; fill: none;"/><path class="point" transform="translate(194.62,29.76)" d="M4,0A4,4 0 1,1 0,-4A4,4 0 0,1 4,0ZM0,0.5L0.5,0L0,-0.5L-0.5,0Z" style="opacity: 1; stroke: rgb(0, 0, 0); stroke-opacity: 1; stroke-width: 1px; fill: none;"/></g><g class="text"/></g></g></g><g class="overplot"/><path class="xlines-above crisp" d="M0,0" style="fill: none;"/><path class="ylines-above crisp" d="M0,0" style="fill: none;"/><g class="overlines-above"/><g class="xaxislayer-above"><g class="x3tick"><text text-anchor="middle" x="0" y="733" transform="translate(156.15,0)" style="font-family: 'Open Sans', verdana, arial, sans-serif; font-size: 12px; fill: rgb(42, 63, 95); fill-opacity: 1; white-space: pre; opacity: 1;">10</text></g><g class="x3tick"><text text-anchor="middle" x="0" y="733" style="font-family: 'Open Sans', verdana, arial, sans-serif; font-size: 12px; fill: rgb(42, 63, 95); fill-opacity: 1; white-space: pre; opacity: 1;" transform="translate(240.77,0)">20</text></g><g class="x3tick"><text text-anchor="middle" x="0" y="733" style="font-family: 'Open Sans', verdana, arial, sans-serif; font-size: 12px; fill: rgb(42, 63, 95); fill-opacity: 1; white-space: pre; opacity: 1;" transform="translate(325.38,0)">30</text></g><g class="x3tick"><text text-anchor="middle" x="0" y="733" style="font-family: 'Open Sans', verdana, arial, sans-serif; font-size: 12px; fill: rgb(42, 63, 95); fill-opacity: 1; white-space: pre; opacity: 1;" transform="translate(410,0)">40</text></g><g class="x3tick"><text text-anchor="middle" x="0" y="733" style="font-family: 'Open Sans', verdana, arial, sans-serif; font-size: 12px; fill: rgb(42, 63, 95); fill-opacity: 1; white-space: pre; opacity: 1;" transform="translate(494.62,0)">50</text></g></g><g class="yaxislayer-above"><g class="y3tick"><text text-anchor="end" x="79" y="4.199999999999999" transform="translate(0,720)" style="font-family: 'Open Sans', verdana, arial, sans-serif; font-size: 12px; fill: rgb(42, 63, 95); fill-opacity: 1; white-space: pre; opacity: 1;">5</text></g><g class="y3tick"><text text-anchor="end" x="79" y="4.199999999999999" style="font-family: 'Open Sans', verdana, arial, sans-serif; font-size: 12px; fill: rgb(42, 63, 95); fill-opacity: 1; white-space: pre; opacity: 1;" transform="translate(0,682.8)">10</text></g><g class="y3tick"><text text-anchor="end" x="79" y="4.199999999999999" style="font-family: 'Open Sans', verdana, arial, sans-serif; font-size: 12px; fill: rgb(42, 63, 95); fill-opacity: 1; white-space: pre; opacity: 1;" transform="translate(0,645.6)">15</text></g><g class="y3tick"><text text-anchor="end" x="79" y="4.199999999999999" style="font-family: 'Open Sans', verdana, arial, sans-serif; font-size: 12px; fill: rgb(42, 63, 95); fill-opacity: 1; white-space: pre; opacity: 1;" transform="translate(0,608.4)">20</text></g><g class="y3tick"><text text-anchor="end" x="79" y="4.199999999999999" style="font-family: 'Open Sans', verdana, arial, sans-serif; font-size: 12px; fill: rgb(42, 63, 95); fill-opacity: 1; white-space: pre; opacity: 1;" transform="translate(0,571.2)">25</text></g><g class="y3tick"><text text-anchor="end" x="79" y="4.199999999999999" style="font-family: 'Open Sans', verdana, arial, sans-serif; font-size: 12px; fill: rgb(42, 63, 95); fill-opacity: 1; white-space: pre; opacity: 1;" transform="translate(0,534)">30</text></g></g><g class="overaxes-above"/></g></g><g class="polarlayer"/><g class="smithlayer"/><g class="ternarylayer"/><g class="geolayer"/><g class="funnelarealayer"/><g class="pielayer"/><g class="iciclelayer"/><g class="treemaplayer"/><g class="sunburstlayer"/><g class="glimages"/><defs id="topdefs-ff0530"><g class="clips"/></defs><g class="layer-above"><g class="imagelayer"/><g class="shapelayer"/></g><g class="infolayer"><g class="g-gtitle"><text class="gtitle" x="30" y="50" text-anchor="start" dy="0em" style="font-family: 'Open Sans', verdana, arial, sans-serif; font-size: 17px; fill: rgb(42, 63, 95); opacity: 1; font-weight: normal; white-space: pre;">Climatology and S2S forecast for Barguna</text></g><g class="g-xtitle"/><g class="g-x2title"/><g class="g-x3title"/><g class="g-ytitle"><text class="ytitle" transform="rotate(-90,34.16875,193)" x="34.16875" y="193" text-anchor="middle" style="font-family: 'Open Sans', verdana, arial, sans-serif; font-size: 14px; fill: rgb(42, 63, 95); opacity: 1; font-weight: normal; white-space: pre;">[mm]</text></g><g class="g-y2title"><text class="y2title" transform="rotate(-90,40.840625,410.00000000000006)" x="40.840625" y="410.00000000000006" text-anchor="middle" style="font-family: 'Open Sans', verdana, arial, sans-serif; font-size: 14px; fill: rgb(42, 63, 95); opacity: 1; font-weight: normal; white-space: pre;">[C]</text></g><g class="g-y3title"><text class="y3title" transform="rotate(-90,40.840625,627)" x="40.840625" y="627" text-anchor="middle" style="font-family: 'Open Sans', verdana, arial, sans-serif; font-size: 14px; fill: rgb(42, 63, 95); opacity: 1; font-weight: normal; white-space: pre;">[C]</text></g><g class="annotation" data-index="0" style="opacity: 1;"><g class="annotation-text-g" transform="rotate(0,300,89.5)"><g class="cursor-pointer" transform="translate(237,79)"><rect class="bg" x="0.5" y="0.5" width="126" height="20" style="stroke-width: 1px; stroke: rgb(0, 0, 0); stroke-opacity: 0; fill: rgb(0, 0, 0); fill-opacity: 0;"/><text class="annotation-text" text-anchor="middle" x="63.359375" y="16" style="font-family: 'Open Sans', verdana, arial, sans-serif; font-size: 16px; fill: rgb(42, 63, 95); fill-opacity: 1; white-space: pre;">Precipitation sum</text></g></g></g><g class="annotation" data-index="1" style="opacity: 1;"><g class="annotation-text-g" transform="rotate(0,300,306.50000000000006)"><g class="cursor-pointer" transform="translate(196,296)"><rect class="bg" x="0.5" y="0.5" width="208" height="20" style="stroke-width: 1px; stroke: rgb(0, 0, 0); stroke-opacity: 0; fill: rgb(0, 0, 0); fill-opacity: 0;"/><text class="annotation-text" text-anchor="middle" x="104.265625" y="16" style="font-family: 'Open Sans', verdana, arial, sans-serif; font-size: 16px; fill: rgb(42, 63, 95); fill-opacity: 1; white-space: pre;">Mean maximum temperature</text></g></g></g><g class="annotation" data-index="2" style="opacity: 1;"><g class="annotation-text-g" transform="rotate(0,300,523.5)"><g class="cursor-pointer" transform="translate(198,513)"><rect class="bg" x="0.5" y="0.5" width="203" height="20" style="stroke-width: 1px; stroke: rgb(0, 0, 0); stroke-opacity: 0; fill: rgb(0, 0, 0); fill-opacity: 0;"/><text class="annotation-text" text-anchor="middle" x="102.046875" y="16" style="font-family: 'Open Sans', verdana, arial, sans-serif; font-size: 16px; fill: rgb(42, 63, 95); fill-opacity: 1; white-space: pre;">Mean minimum temperature</text></g></g></g><g class="annotation" data-index="3" style="opacity: 1;"><g class="annotation-text-g" transform="rotate(0,300,760.5)"><g class="cursor-pointer" transform="translate(277,750)"><rect class="bg" x="0.5" y="0.5" width="45" height="20" style="stroke-width: 1px; stroke: rgb(0, 0, 0); stroke-opacity: 0; fill: rgb(0, 0, 0); fill-opacity: 0;"/><text class="annotation-text" text-anchor="middle" x="22.3125" y="16" style="font-family: 'Open Sans', verdana, arial, sans-serif; font-size: 16px; fill: rgb(42, 63, 95); fill-opacity: 1; white-space: pre;">Week</text></g></g></g></g></svg>