<svg class="main-svg" xmlns="http://www.w3.org/2000/svg" xmlns:xlink="http://www.w3.org/1999/xlink" width="600" height="800" style="" viewBox="0 0 600 800"><rect x="0" y="0" width="600" height="800" style="fill: rgb(255, 255, 255); fill-opacity: 1;"/><defs id="defs-b0dd53"><g class="clips"><clipPath id="clipb0dd53xyplot" class="plotclip"><rect width="440" height="186.00000000000003"/></clipPath><clipPath id="clipb0dd53x2y2plot" class="plotclip"><rect width="440" height="185.99999999999997"/></clipPath><clipPath id="clipb0dd53x3y3plot" class="plotclip"><rect width="440" height="186"/></clipPath><clipPath class="axesclip" id="clipb0dd53x"><rect x="80" y="0" width="440" height="800"/></clipPath><clipPath class="axesclip" id="clipb0dd53y"><rect x="0" y="100" width="600" height="186.00000000000003"/></clipPath><clipPath class="axesclip" id="clipb0dd53xy"><rect x="80" y="100" width="440" height="186.00000000000003"/></clipPath><clipPath class="axesclip" id="clipb0dd53y2"><rect x="0" y="317.00000000000006" width="600" height="185.99999999999997"/></clipPath><clipPath class="axesclip" id="clipb0dd53xy2"><rect x="80" y="317.00000000000006" width="440" height="185.99999999999997"/></clipPath><clipPath class="axesclip" id="clipb0dd53y3"><rect x="0" y="534" width="600" height="186"/></clipPath><clipPath class="axesclip" id="clipb0dd53xy3"><rect x="80" y="534" width="440" height="186"/></clipPath><clipPath class="axesclip" id="clipb0dd53x2"><rect x="80" y="0" width="440" height="800"/></clipPath><clipPath class="axesclip" id="clipb0dd53x2y"><rect x="80" y="100" width="440" height="186.00000000000003"/></clipPath><clipPath class="axesclip" id="clipb0dd53x2y2"><rect x="80" y="317.00000000000006" width="440" height="185.99999999999997"/></clipPath><clipPath class="axesclip" id="clipb0dd53x2y3"><rect x="80" y="534" width="440" height="186"/></clipPath><clipPath class="axesclip" id="clipb0dd53x3"><rect x="80" y="0" width="440" height="800"/></clipPath><clipPath class="axesclip" id="clipb0dd53x3y"><rect x="80" y="100" width="440" height="186.00000000000003"/></clipPath><clipPath class="axesclip" id="clipb0dd53x3y2"><rect x="80" y="317.00000000000006" width="440" height="185.99999999999997"/></clipPath><clipPath class="axesclip" id="clipb0dd53x3y3"><rect x="80" y="534" width="440" height="186"/></clipPath></g><g class="gradients"/><g class="patterns"/></defs><g class="bglayer"><rect class="bg" x="80" y="100" width="440" height="186.00000000000003" style="fill: rgb(229, 236, 246); fill-opacity: 1; stroke-width: 0;"/><rect class="bg" x="80" y="317.00000000000006" width="440" height="185.99999999999997" style="fill: rgb(229, 236, 246); fill-opacity: 1; stroke-width: 0;"/><rect class="bg" x="80" y="534" width="440" height="186" style="fill: rgb(229, 236, 246); fill-opacity: 1; stroke-width: 0;"/></g><g class="layer-below"><g class="imagelayer"/><g class="shapelayer"/></g><g class="cartesianlayer"><g class="subplot xy"><g class="layer-subplot"><g class="shapelayer"/><g class="imagelayer"/></g><g class="minor-gridlayer"><g class="x"/><g class="y"/></g><g class="gridlayer"><g class="x"><path class="xgrid crisp" transform="translate(156.15,0)" d="M0,100v186.00000000000003" style="stroke: rgb(255, 255, 255); stroke-opacity: 1; stroke-width: 1px;"/><path class="xgrid crisp" transform="translate(240.77,0)" d="M0,100v186.00000000000003" style="stroke: rgb(255, 255, 255); stroke-opacity: 1; stroke-width: 1px;"/><path class="xgrid crisp" transform="translate(325.38,0)" d="M0,100v186.00000000000003" style="stroke: rgb(255, 255, 255); stroke-opacity: 1; stroke-width: 1px;"/><path class="xgrid crisp" transform="translate(410,0)" d="M0,100v186.00000000000003" style="stroke: rgb(255, 255, 255); stroke-opacity: 1; stroke-width: 1px;"/><path class="xgrid crisp" transform="translate(494.62,0)" d="M0,100v186.00000000000003" style="stroke: rgb(255, 255, 255); stroke-opacity: 1; stroke-width: 1px;"/></g><g class="y"><path class="ygrid crisp" transform="translate(0,248.8)" d="M80,0h440" style="stroke: rgb(255, 255, 255); stroke-opacity: 1; stroke-width: 1px;"/><path class="ygrid crisp" transform="translate(0,211.6)" d="M80,0h440" style="stroke: rgb(255, 255, 255); stroke-opacity: 1; stroke-width: 1px;"/><path class="ygrid crisp" transform="translate(0,174.4)" d="M80,0h440" style="stroke: rgb(255, 255, 255); stroke-opacity: 1; stroke-width: 1px;"/><path class="ygrid crisp" transform="translate(0,137.2)" d="M80,0h440" style="stroke: rgb(255, 255, 255); stroke-opacity: 1; stroke-width: 1px;"/></g></g><g class="zerolinelayer"><path class="yzl zl crisp" transform="translate(0,286)" d="M80,0h440" style="stroke: rgb(255, 255, 255); stroke-opacity: 1; stroke-width: 2px;"/></g><path class="xlines-below"/><path class="ylines-below"/><g class="overlines-below"/><g class="xaxislayer-below"/><g class="yaxislayer-below"/><g class="overaxes-below"/><g class="plot" transform="translate(80,100)" clip-path="url(#clipb0dd53xyplot)"><g class="scatterlayer mlayer"><g class="trace scatter tracec36481" style="stroke-miterlimit: 2;"><g class="fills"><g><path class="js-fill" d="M0,186L135.38,185.72L143.85,175.89L152.31,183.61L160.77,183.41L169.23,170.55L177.69,170.76L186.15,160.01L194.62,168.44L203.08,157.78L211.54,157.3L220,146.29L228.46,159.12L236.92,157.56L245.38,144.34L253.85,147.65L262.31,155.79L270.77,153.93L279.23,165.19L287.69,169.86L296.15,165.54L304.62,173.29L313.08,162.32L330,180.82L338.46,175.39L346.92,184.82L355.38,186L440,186L440,186L346.92,186L338.46,186L321.54,185.58L313.08,177.18L304.62,184.96L296.15,183.79L287.69,178.82L279.23,185.5L270.77,170.53L262.31,180.88L253.85,177.29L245.38,173.24L236.92,181.28L228.46,176.58L220,178.66L211.54,176.39L203.08,168.1L194.62,185.26L160.77,186L152.31,186L143.85,185.04L135.38,186L0,186Z" style="fill: rgb(224, 236, 244); fill-opacity: 1; stroke-width: 0;"/></g></g><g class="errorbars"/><g class="lines"><path class="js-line" d="M0,186L135.38,186L143.85,185.04L152.31,186L160.77,186L194.62,185.26L203.08,168.1L211.54,176.39L220,178.66L228.46,176.58L236.92,181.28L245.38,173.24L253.85,177.29L262.31,180.88L270.77,170.53L279.23,185.5L287.69,178.82L296.15,183.79L304.62,184.96L313.08,177.18L321.54,185.58L338.46,186L346.92,186L440,186" style="vector-effect: non-scaling-stroke; fill: none; stroke: rgb(0, 0, 0); stroke-opacity: 1; stroke-width: 0.25px; opacity: 1;"/></g><g class="points"/><g class="text"/></g><g class="trace scatter traced46cd6" style="stroke-miterlimit: 2;"><g class="fills"><g><path class="js-fill" d="M0,186L101.54,185.52L110,183.63L118.46,183.56L126.92,185.23L135.38,180.26L143.85,169.65L152.31,169.8L160.77,162.89L169.23,149.52L177.69,152.69L186.15,142.6L194.62,147.59L203.08,124.89L211.54,137.33L220,127.47L228.46,136.46L236.92,139.59L245.38,127.39L262.31,142.94L270.77,134.68L279.23,157.08L287.69,162.99L296.15,152.54L304.62,152.23L313.08,146.74L321.54,152.64L330,169.83L338.46,156.3L346.92,168.1L355.38,185.61L406.15,186L414.62,186L440,186L440,186L355.38,186L346.92,184.82L338.46,175.39L330,180.82L313.08,162.32L304.62,173.29L296.15,165.54L287.69,169.86L279.23,165.19L270.77,153.93L262.31,155.79L253.85,147.65L245.38,144.34L236.92,157.56L228.46,159.12L220,146.29L211.54,157.3L203.08,157.78L194.62,168.44L186.15,160.01L177.69,170.76L169.23,170.55L160.77,183.41L152.31,183.61L143.85,175.89L135.38,185.72L0,186Z" style="fill: rgb(158, 188, 218); fill-opacity: 1; stroke-width: 0;"/></g></g><g class="errorbars"/><g class="lines"><path class="js-line" d="M0,186L135.38,185.72L143.85,175.89L152.31,183.61L160.77,183.41L169.23,170.55L177.69,170.76L186.15,160.01L194.62,168.44L203.08,157.78L211.54,157.3L220,146.29L228.46,159.12L236.92,157.56L245.38,144.34L253.85,147.65L262.31,155.79L270.77,153.93L279.23,165.19L287.69,169.86L296.15,165.54L304.62,173.29L313.08,162.32L330,180.82L338.46,175.39L346.92,184.82L355.38,186L440,186" style="vector-effect: non-scaling-stroke; fill: none; stroke: rgb(0, 0, 0); stroke-opacity: 1; stroke-width: 0.5px; opacity: 1;"/></g><g class="points"/><g class="text"/></g><g class="trace scatter tracebdb019" style="stroke-miterlimit: 2;"><g class="fills"><g><path class="js-fill" d="M0,186L42.31,185.74L50.77,182.85L59.23,184.72L67.69,184.35L76.15,181.97L84.62,185.01L93.08,180.84L101.54,181.13L110,175.88L118.46,169.59L126.92,176.69L135.38,160.14L143.85,157.01L152.31,151.15L169.23,131.84L177.69,118.88L186.15,126.66L194.62,115.21L203.08,75.24L211.54,115.67L220,106.46L228.46,119.3L236.92,106.69L245.38,98.68L253.85,112.95L262.31,108.63L270.77,116.83L279.23,138.01L287.69,143.36L296.15,129.15L304.62,116.36L313.08,101.39L321.54,110.78L330,151.15L338.46,136.69L346.92,146.92L355.38,157.58L363.85,183.79L389.23,186L397.69,186L440,186L440,186L414.62,186L406.15,186L355.38,185.61L346.92,168.1L338.46,156.3L330,169.83L321.54,152.64L313.08,146.74L304.62,152.23L296.15,152.54L287.69,162.99L279.23,157.08L270.77,134.68L262.31,142.94L245.38,127.39L236.92,139.59L228.46,136.46L220,127.47L211.54,137.33L203.08,124.89L194.62,147.59L186.15,142.6L177.69,152.69L169.23,149.52L160.77,162.89L152.31,169.8L143.85,169.65L135.38,180.26L126.92,185.23L118.46,183.56L110,183.63L101.54,185.52L0,186Z" style="fill: rgb(158, 188, 218); fill-opacity: 1; stroke-width: 0;"/></g></g><g class="errorbars"/><g class="lines"><path class="js-line" d="M0,186L101.54,185.52L110,183.63L118.46,183.56L126.92,185.23L135.38,180.26L143.85,169.65L152.31,169.8L160.77,162.89L169.23,149.52L177.69,152.69L186.15,142.6L194.62,147.59L203.08,124.89L211.54,137.33L220,127.47L228.46,136.46L236.92,139.59L245.38,127.39L262.31,142.94L270.77,134.68L279.23,157.08L287.69,162.99L296.15,152.54L304.62,152.23L313.08,146.74L321.54,152.64L330,169.83L338.46,156.3L346.92,168.1L355.38,185.61L406.15,186L414.62,186L440,186" style="vector-effect: non-scaling-stroke; fill: none; stroke: rgb(0, 0, 0); stroke-opacity: 1; stroke-width: 1px; opacity: 1;"/></g><g class="points"/><g class="text"/></g><g class="trace scatter tracebb65bf" style="stroke-miterlimit: 2;"><g class="fills"><g><path class="js-fill" d="M0,186L42.31,185.61L50.77,178.51L59.23,183.76L67.69,183.34L76.15,178.96L84.62,184.46L93.08,174.96L101.54,180.97L110,161.31L118.46,148.36L126.92,169.29L135.38,143.11L143.85,138.59L152.31,108.37L160.77,84.25L169.23,107.85L177.69,86.79L186.15,85.28L194.62,58.88L203.08,28.78L211.54,103.53L220,76.06L228.46,96.43L236.92,36.07L245.38,79.31L253.85,90.31L262.31,57.94L270.77,83.24L279.23,107.74L287.69,108.49L296.15,114.15L304.62,46.58L313.08,30.79L321.54,45.22L330,107.01L338.46,117.95L346.92,114.7L355.38,115.15L363.85,183.44L372.31,183.64L389.23,186L397.69,186L440,186L440,186L397.69,186L389.23,186L363.85,183.79L355.38,157.58L346.92,146.92L338.46,136.69L330,151.15L321.54,110.78L313.08,101.39L304.62,116.36L296.15,129.15L287.69,143.36L279.23,138.01L270.77,116.83L262.31,108.63L253.85,112.95L245.38,98.68L236.92,106.69L228.46,119.3L220,106.46L211.54,115.67L203.08,75.24L194.62,115.21L186.15,126.66L177.69,118.88L169.23,131.84L152.31,151.15L143.85,157.01L135.38,160.14L126.92,176.69L118.46,169.59L110,175.88L101.54,181.13L93.08,180.84L84.62,185.01L76.15,181.97L67.69,184.35L59.23,184.72L50.77,182.85L42.31,185.74L0,186Z" style="fill: rgb(136, 86, 167); fill-opacity: 1; stroke-width: 0;"/></g></g><g class="errorbars"/><g class="lines"><path class="js-line" d="M0,186L42.31,185.74L50.77,182.85L59.23,184.72L67.69,184.35L76.15,181.97L84.62,185.01L93.08,180.84L101.54,181.13L110,175.88L118.46,169.59L126.92,176.69L135.38,160.14L143.85,157.01L152.31,151.15L169.23,131.84L177.69,118.88L186.15,126.66L194.62,115.21L203.08,75.24L211.54,115.67L220,106.46L228.46,119.3L236.92,106.69L245.38,98.68L253.85,112.95L262.31,108.63L270.77,116.83L279.23,138.01L287.69,143.36L296.15,129.15L304.62,116.36L313.08,101.39L321.54,110.78L330,151.15L338.46,136.69L346.92,146.92L355.38,157.58L363.85,183.79L389.23,186L397.69,186L440,186" style="vector-effect: non-scaling-stroke; fill: none; stroke: rgb(0, 0, 0); stroke-opacity: 1; stroke-width: 0.5px; opacity: 1;"/></g><g class="points"/><g class="text"/></g><g class="trace scatter trace7ff61c" style="stroke-miterlimit: 2;"><g class="fills"/><g class="errorbars"/><g class="lines"><path class="js-line" d="M0,186L42.31,185.61L50.77,178.51L59.23,183.76L67.69,183.34L76.15,178.96L84.62,184.46L93.08,174.96L101.54,180.97L110,161.31L118.46,148.36L126.92,169.29L135.38,143.11L143.85,138.59L152.31,108.37L160.77,84.25L169.23,107.85L177.69,86.79L186.15,85.28L194.62,58.88L203.08,28.78L211.54,103.53L220,76.06L228.46,96.43L236.92,36.07L245.38,79.31L253.85,90.31L262.31,57.94L270.77,83.24L279.23,107.74L287.69,108.49L296.15,114.15L304.62,46.58L313.08,30.79L321.54,45.22L330,107.01L338.46,117.95L346.92,114.7L355.38,115.15L363.85,183.44L372.31,183.64L389.23,186L397.69,186L440,186" style="vector-effect: non-scaling-stroke; fill: none; stroke: rgb(0, 0, 0); stroke-opacity: 1; stroke-width: 0.25px; opacity: 1;"/></g><g class="points"/><g class="text"/></g><g class="trace scatter traceba02cf" style="stroke-miterlimit: 2; opacity: 1;"><g class="fills"/><g class="errorbars"/><g class="lines"/><g class="points"><path class="point" transform="translate(169.23,131.69)" d="M4,0A4,4 0 1,1 0,-4A4,4 0 0,1 4,0ZM0,0.5L0.5,0L0,-0.5L-0.5,0Z" style="opacity: 1; stroke: rgb(0, 0, 0); stroke-opacity: 1; stroke-width: 1px; fill: none;"/><path class="point" transform="translate(177.69,151.03)" d="M4,0A4,4 0 1,1 0,-4A4,4 0 0,1 4,0ZM0,0.5L0.5,0L0,-0.5L-0.5,0Z" style="opacity: 1; stroke: rgb(0, 0, 0); stroke-opacity: 1; stroke-width: 1px; fill: none;"/><path class="point" transform="translate(186.15,77.38)" d="M4,0A4,4 0 1,1 0,-4A4,4 0 0,1 4,0ZM0,0.5L0.5,0L0,-0.5L-0.5,0Z" style="opacity: 1; stroke: rgb(0, 0, 0); stroke-opacity: 1; stroke-width: 1px; fill: none;"/><path class="point" transform="translate(194.62,77.38)" d="M4,0A4,4 0 1,1 0,-4A4,4 0 0,1 4,0ZM0,0.5L0.5,0L0,-0.5L-0.5,0Z" style="opacity: 1; stroke: rgb(0, 0, 0); stroke-opacity: 1; stroke-width: 1px; fill: none;"/></g><g class="text"/></g></g></g><g class="overplot"/><path class="xlines-above crisp" d="M0,0" style="fill: none;"/><path class="ylines-above crisp" d="M0,0" style="fill: none;"/><g class="overlines-above"/><g class="xaxislayer-above"/><g class="yaxislayer-above"><g class="ytick"><text text-anchor="end" x="79" y="4.199999999999999" transform="translate(0,286)" style="font-family: 'Open Sans', verdana, arial, sans-serif; font-size: 12px; fill: rgb(42, 63, 95); fill-opacity: 1; white-space: pre; opacity: 1;">0</text></g><g class="ytick"><text text-anchor="end" x="79" y="4.199999999999999" style="font-family: 'Open Sans', verdana, arial, sans-serif; font-size: 12px; fill: rgb(42, 63, 95); fill-opacity: 1; white-space: pre; opacity: 1;" transform="translate(0,248.8)">50</text></g><g class="ytick"><text text-anchor="end" x="79" y="4.199999999999999" style="font-family: 'Open Sans', verdana, arial, sans-serif; font-size: 12px; fill: rgb(42, 63, 95); fill-opacity: 1; white-space: pre; opacity: 1;" transform="translate(0,211.6)">100</text></g><g class="ytick"><text text-anchor="end" x="79" y="4.199999999999999" style="font-family: 'Open Sans', verdana, arial, sans-serif; font-size: 12px; fill: rgb(42, 63, 95); fill-opacity: 1; white-space: pre; opacity: 1;" transform="translate(0,174.4)">150</text></g><g class="ytick"><text text-anchor="end" x="79" y="4.199999999999999" style="font-family: 'Open Sans', verdana, arial, sans-serif; font-size: 12px; fill: rgb(42, 63, 95); fill-opacity: 1; white-space: pre; opacity: 1;" transform="translate(0,137.2)">200</text></g><g class="ytick"><text text-anchor="end" x="79" y="4.199999999999999" style="font-family: 'Open Sans', verdana, arial, sans-serif; font-size: 12px; fill: rgb(42, 63, 95); fill-opacity: 1; white-space: pre; opacity: 1;" transform="translate(0,100)">250</text></g></g><g class="overaxes-above"/></g><g class="subplot x2y2"><g class="layer-subplot"><g class="shapelayer"/><g class="imagelayer"/></g><g class="minor-gridlayer"><g class="x2"/><g class="y2"/></g><g class="gridlayer"><g class="x2"><path class="x2grid crisp" transform="translate(156.15,0)" d="M0,317.00000000000006v185.99999999999997" style="stroke: rgb(255, 255, 255); stroke-opacity: 1; stroke-width: 1px;"/><path class="x2grid crisp" transform="translate(240.77,0)" d="M0,317.00000000000006v185.99999999999997" style="stroke: rgb(255, 255, 255); stroke-opacity: 1; stroke-width: 1px;"/><path class="x2grid crisp" transform="translate(325.38,0)" d="M0,317.00000000000006v185.99999999999997" style="stroke: rgb(255, 255, 255); stroke-opacity: 1; stroke-width: 1px;"/><path class="x2grid crisp" transform="translate(410,0)" d="M0,317.00000000000006v185.99999999999997" style="stroke: rgb(255, 255, 255); stroke-opacity: 1; stroke-width: 1px;"/><path class="x2grid crisp" transform="translate(494.62,0)" d="M0,317.00000000000006v185.99999999999997" style="stroke: rgb(255, 255, 255); stroke-opacity: 1; stroke-width: 1px;"/></g><g class="y2"><path class="y2grid crisp" transform="translate(0,472.00000000000006)" d="M80,0h440" style="stroke: rgb(255, 255, 255); stroke-opacity: 1; stroke-width: 1px;"/><path class="y2grid crisp" transform="translate(0,410.00000000000006)" d="M80,0h440" style="stroke: rgb(255, 255, 255); stroke-opacity: 1; stroke-width: 1px;"/><path class="y2grid crisp" transform="translate(0,348.00000000000006)" d="M80,0h440" style="stroke: rgb(255, 255, 255); stroke-opacity: 1; stroke-width: 1px;"/></g></g><g class="zerolinelayer"/><path class="xlines-below"/><path class="ylines-below"/><g class="overlines-below"/><g class="xaxislayer-below"/><g class="yaxislayer-below"/><g class="overaxes-below"/><g class="plot" transform="translate(80,317.00000000000006)" clip-path="url(#clipb0dd53x2y2plot)"><g class="scatterlayer mlayer"><g class="trace scatter tracebf5dca" style="stroke-miterlimit: 2;"><g class="fills"><g><path class="js-fill" d="M0,144.42L8.46,147.11L16.92,131.85L25.38,128.92L33.85,120.91L42.31,110.77L50.77,103.97L59.23,95.01L67.69,84.1L76.15,84.72L84.62,72.37L101.54,74.33L110,82.66L118.46,77.82L126.92,77.8L135.38,82.7L143.85,85.28L152.31,82.06L160.77,86.2L169.23,83.29L177.69,87.59L186.15,90.59L194.62,96.3L203.08,95.19L211.54,97.61L228.46,97.41L236.92,100.01L245.38,97.76L253.85,99.67L270.77,99.56L279.23,99.35L287.69,99.75L296.15,99.07L304.62,96.26L313.08,101.4L321.54,96.75L330,96.13L338.46,96.32L346.92,93.46L363.85,91.84L372.31,95.59L389.23,106.56L397.69,118.92L406.15,128.75L414.62,132.1L423.08,138.82L431.54,142.73L440,147.36L440,147.86L431.54,147.77L423.08,152.88L414.62,135.72L406.15,144.8L397.69,129.21L389.23,115.94L380.77,110.89L372.31,101.39L363.85,95.16L355.38,101.83L346.92,112.79L338.46,103.84L321.54,108.4L313.08,112.8L304.62,106.72L296.15,107.76L287.69,101.82L279.23,101.6L262.31,110.78L253.85,112.08L245.38,104.74L236.92,105.51L228.46,101.01L220,101.71L211.54,107.56L203.08,105.58L194.62,110.69L186.15,96.93L177.69,97.76L169.23,94.88L160.77,93.29L152.31,90.57L143.85,91.98L135.38,97.25L126.92,91.79L118.46,92.58L110,89.22L101.54,93L93.08,85.52L84.62,87.7L67.69,107.59L59.23,111.42L50.77,119.9L42.31,128.58L33.85,134.34L25.38,143.95L16.92,144.59L8.46,163.21L0,162.09Z" style="fill: rgb(145, 191, 219); fill-opacity: 1; stroke-width: 0;"/></g></g><g class="errorbars"/><g class="lines"><path class="js-line" d="M0,162.09L8.46,163.21L16.92,144.59L25.38,143.95L33.85,134.34L42.31,128.58L50.77,119.9L59.23,111.42L67.69,107.59L84.62,87.7L93.08,85.52L101.54,93L110,89.22L118.46,92.58L126.92,91.79L135.38,97.25L143.85,91.98L152.31,90.57L160.77,93.29L169.23,94.88L177.69,97.76L186.15,96.93L194.62,110.69L203.08,105.58L211.54,107.56L220,101.71L228.46,101.01L236.92,105.51L245.38,104.74L253.85,112.08L262.31,110.78L279.23,101.6L287.69,101.82L296.15,107.76L304.62,106.72L313.08,112.8L321.54,108.4L338.46,103.84L346.92,112.79L355.38,101.83L363.85,95.16L372.31,101.39L380.77,110.89L389.23,115.94L397.69,129.21L406.15,144.8L414.62,135.72L423.08,152.88L431.54,147.77L440,147.86" style="vector-effect: non-scaling-stroke; fill: none; stroke: rgb(0, 0, 0); stroke-opacity: 1; stroke-width: 0.25px; opacity: 1;"/></g><g class="points"/><g class="text"/></g><g class="trace scatter trace63ff35" style="stroke-miterlimit: 2;"><g class="fills"><g><path class="js-fill" d="M0,136.82L8.46,136.78L16.92,126L25.38,122.23L33.85,113.48L42.31,103.18L50.77,97.01L67.69,77.17L76.15,73.02L84.62,68.51L93.08,58.84L101.54,67.67L110,74.12L118.46,68.52L126.92,73.57L135.38,74.79L143.85,79.74L152.31,74.4L160.77,78.2L169.23,78.86L177.69,80.47L186.15,87.34L194.62,89.28L203.08,90.78L211.54,93.45L220,93.06L228.46,94.04L236.92,97.98L245.38,94.01L253.85,96.46L262.31,93.84L270.77,96.43L279.23,94.43L287.69,95.55L296.15,95.83L304.62,93.16L313.08,95.77L321.54,89.12L330,89.6L346.92,86.91L355.38,83.48L363.85,88.88L372.31,90.18L397.69,109.89L406.15,119.87L414.62,124.38L423.08,127.85L431.54,134.39L440,130.79L440,147.36L431.54,142.73L423.08,138.82L414.62,132.1L406.15,128.75L397.69,118.92L389.23,106.56L372.31,95.59L363.85,91.84L346.92,93.46L338.46,96.32L330,96.13L321.54,96.75L313.08,101.4L304.62,96.26L296.15,99.07L287.69,99.75L279.23,99.35L270.77,99.56L253.85,99.67L245.38,97.76L236.92,100.01L228.46,97.41L211.54,97.61L203.08,95.19L194.62,96.3L186.15,90.59L177.69,87.59L169.23,83.29L160.77,86.2L152.31,82.06L143.85,85.28L135.38,82.7L126.92,77.8L118.46,77.82L110,82.66L101.54,74.33L84.62,72.37L76.15,84.72L67.69,84.1L59.23,95.01L50.77,103.97L42.31,110.77L33.85,120.91L25.38,128.92L16.92,131.85L8.46,147.11L0,144.42Z" style="fill: rgb(255, 255, 191); fill-opacity: 1; stroke-width: 0;"/></g></g><g class="errorbars"/><g class="lines"><path class="js-line" d="M0,144.42L8.46,147.11L16.92,131.85L25.38,128.92L33.85,120.91L42.31,110.77L50.77,103.97L59.23,95.01L67.69,84.1L76.15,84.72L84.62,72.37L101.54,74.33L110,82.66L118.46,77.82L126.92,77.8L135.38,82.7L143.85,85.28L152.31,82.06L160.77,86.2L169.23,83.29L177.69,87.59L186.15,90.59L194.62,96.3L203.08,95.19L211.54,97.61L228.46,97.41L236.92,100.01L245.38,97.76L253.85,99.67L270.77,99.56L279.23,99.35L287.69,99.75L296.15,99.07L304.62,96.26L313.08,101.4L321.54,96.75L330,96.13L338.46,96.32L346.92,93.46L363.85,91.84L372.31,95.59L389.23,106.56L397.69,118.92L406.15,128.75L414.62,132.1L423.08,138.82L431.54,142.73L440,147.36" style="vector-effect: non-scaling-stroke; fill: none; stroke: rgb(0, 0, 0); stroke-opacity: 1; stroke-width: 0.5px; opacity: 1;"/></g><g class="points"/><g class="text"/></g><g class="trace scatter tracef8be84" style="stroke-miterlimit: 2;"><g class="fills"><g><path class="js-fill" d="M0,128.7L8.46,126.94L16.92,122.29L25.38,117.72L33.85,111.41L42.31,97.2L50.77,88.47L59.23,82.51L67.69,68.14L76.15,64.58L84.62,59.9L93.08,55.43L101.54,54.68L110,57.91L118.46,57.36L126.92,61.23L135.38,57.65L143.85,67.7L152.31,67.9L160.77,69.45L169.23,73.79L177.69,74.53L186.15,81.65L194.62,78.92L203.08,87.01L211.54,88.35L220,88.27L228.46,89.16L236.92,91.35L245.38,85.36L253.85,90.19L262.31,88.76L270.77,91.8L279.23,89.17L287.69,92.75L296.15,89.28L304.62,88.26L313.08,89.34L321.54,85.86L330,78.83L338.46,81.11L346.92,79.68L355.38,80.8L372.31,88.17L380.77,94.94L389.23,98.51L397.69,104.98L406.15,113.65L414.62,117.49L423.08,120.72L431.54,126.76L440,120.35L440,130.79L431.54,134.39L423.08,127.85L414.62,124.38L406.15,119.87L397.69,109.89L372.31,90.18L363.85,88.88L355.38,83.48L346.92,86.91L330,89.6L321.54,89.12L313.08,95.77L304.62,93.16L296.15,95.83L287.69,95.55L279.23,94.43L270.77,96.43L262.31,93.84L253.85,96.46L245.38,94.01L236.92,97.98L228.46,94.04L220,93.06L211.54,93.45L203.08,90.78L194.62,89.28L186.15,87.34L177.69,80.47L169.23,78.86L160.77,78.2L152.31,74.4L143.85,79.74L135.38,74.79L126.92,73.57L118.46,68.52L110,74.12L101.54,67.67L93.08,58.84L84.62,68.51L76.15,73.02L67.69,77.17L50.77,97.01L42.31,103.18L33.85,113.48L25.38,122.23L16.92,126L8.46,136.78L0,136.82Z" style="fill: rgb(255, 255, 191); fill-opacity: 1; stroke-width: 0;"/></g></g><g class="errorbars"/><g class="lines"><path class="js-line" d="M0,136.82L8.46,136.78L16.92,126L25.38,122.23L33.85,113.48L42.31,103.18L50.77,97.01L67.69,77.17L76.15,73.02L84.62,68.51L93.08,58.84L101.54,67.67L110,74.12L118.46,68.52L126.92,73.57L135.38,74.79L143.85,79.74L152.31,74.4L160.77,78.2L169.23,78.86L177.69,80.47L186.15,87.34L194.62,89.28L203.08,90.78L211.54,93.45L220,93.06L228.46,94.04L236.92,97.98L245.38,94.01L253.85,96.46L262.31,93.84L270.77,96.43L279.23,94.43L287.69,95.55L296.15,95.83L304.62,93.16L313.08,95.77L321.54,89.12L330,89.6L346.92,86.91L355.38,83.48L363.85,88.88L372.31,90.18L397.69,109.89L406.15,119.87L414.62,124.38L423.08,127.85L431.54,134.39L440,130.79" style="vector-effect: non-scaling-stroke; fill: none; stroke: rgb(0, 0, 0); stroke-opacity: 1; stroke-width: 1px; opacity: 1;"/></g><g class="points"/><g class="text"/></g><g class="trace scatter trace206ae8" style="stroke-miterlimit: 2;"><g class="fills"><g><path class="js-fill" d="M0,117.52L8.46,115.75L16.92,109.7L25.38,112.85L33.85,101.04L42.31,80.11L50.77,78.81L59.23,68.4L67.69,62.03L76.15,55.03L84.62,46.46L93.08,50.12L101.54,48.05L110,46.39L118.46,52.32L126.92,46.33L135.38,29.72L143.85,57.82L152.31,50.07L160.77,53.24L169.23,60.22L177.69,57.08L186.15,76.35L194.62,57L203.08,78.62L211.54,77.32L220,78.51L228.46,84.16L236.92,79.34L245.38,72.33L253.85,80.06L262.31,73.84L270.77,83.81L287.69,83.11L296.15,79.51L304.62,82.3L313.08,75.19L321.54,75.03L330,65.28L338.46,67.71L346.92,64.36L355.38,76.25L363.85,78.3L372.31,82.34L380.77,88.02L389.23,91.37L397.69,96.59L406.15,98.72L414.62,106.76L423.08,113.13L431.54,116.59L440,116.43L440,120.35L431.54,126.76L423.08,120.72L414.62,117.49L406.15,113.65L397.69,104.98L389.23,98.51L380.77,94.94L372.31,88.17L355.38,80.8L346.92,79.68L338.46,81.11L330,78.83L321.54,85.86L313.08,89.34L304.62,88.26L296.15,89.28L287.69,92.75L279.23,89.17L270.77,91.8L262.31,88.76L253.85,90.19L245.38,85.36L236.92,91.35L228.46,89.16L220,88.27L211.54,88.35L203.08,87.01L194.62,78.92L186.15,81.65L177.69,74.53L169.23,73.79L160.77,69.45L152.31,67.9L143.85,67.7L135.38,57.65L126.92,61.23L118.46,57.36L110,57.91L101.54,54.68L93.08,55.43L84.62,59.9L76.15,64.58L67.69,68.14L59.23,82.51L50.77,88.47L42.31,97.2L33.85,111.41L25.38,117.72L16.92,122.29L8.46,126.94L0,128.7Z" style="fill: rgb(252, 141, 89); fill-opacity: 1; stroke-width: 0;"/></g></g><g class="errorbars"/><g class="lines"><path class="js-line" d="M0,128.7L8.46,126.94L16.92,122.29L25.38,117.72L33.85,111.41L42.31,97.2L50.77,88.47L59.23,82.51L67.69,68.14L76.15,64.58L84.62,59.9L93.08,55.43L101.54,54.68L110,57.91L118.46,57.36L126.92,61.23L135.38,57.65L143.85,67.7L152.31,67.9L160.77,69.45L169.23,73.79L177.69,74.53L186.15,81.65L194.62,78.92L203.08,87.01L211.54,88.35L220,88.27L228.46,89.16L236.92,91.35L245.38,85.36L253.85,90.19L262.31,88.76L270.77,91.8L279.23,89.17L287.69,92.75L296.15,89.28L304.62,88.26L313.08,89.34L321.54,85.86L330,78.83L338.46,81.11L346.92,79.68L355.38,80.8L372.31,88.17L380.77,94.94L389.23,98.51L397.69,104.98L406.15,113.65L414.62,117.49L423.08,120.72L431.54,126.76L440,120.35" style="vector-effect: non-scaling-stroke; fill: none; stroke: rgb(0, 0, 0); stroke-opacity: 1; stroke-width: 0.5px; opacity: 1;"/></g><g class="points"/><g class="text"/></g><g class="trace scatter trace5d57fd" style="stroke-miterlimit: 2;"><g class="fills"/><g class="errorbars"/><g class="lines"><path class="js-line" d="M0,117.52L8.46,115.75L16.92,109.7L25.38,112.85L33.85,101.04L42.31,80.11L50.77,78.81L59.23,68.4L67.69,62.03L76.15,55.03L84.62,46.46L93.08,50.12L101.54,48.05L110,46.39L118.46,52.32L126.92,46.33L135.38,29.72L143.85,57.82L152.31,50.07L160.77,53.24L169.23,60.22L177.69,57.08L186.15,76.35L194.62,57L203.08,78.62L211.54,77.32L220,78.51L228.46,84.16L236.92,79.34L245.38,72.33L253.85,80.06L262.31,73.84L270.77,83.81L287.69,83.11L296.15,79.51L304.62,82.3L313.08,75.19L321.54,75.03L330,65.28L338.46,67.71L346.92,64.36L355.38,76.25L363.85,78.3L372.31,82.34L380.77,88.02L389.23,91.37L397.69,96.59L406.15,98.72L414.62,106.76L423.08,113.13L431.54,116.59L440,116.43" style="vector-effect: non-scaling-stroke; fill: none; stroke: rgb(0, 0, 0); stroke-opacity: 1; stroke-width: 0.25px; opacity: 1;"/></g><g class="points"/><g class="text"/></g><g class="trace scatter trace7fe1ff" style="stroke-miterlimit: 2; opacity: 1;"><g class="fills"/><g class="errorbars"/><g class="lines"/><g class="points"><path class="point" transform="translate(169.23,80.6)" d="M4,0A4,4 0 1,1 0,-4A4,4 0 0,1 4,0ZM0,0.5L0.5,0L0,-0.5L-0.5,0Z" style="opacity: 1; stroke: rgb(0, 0, 0); stroke-opacity: 1; stroke-width: 1px; fill: none;"/><path class="point" transform="translate(177.69,80.6)" d="M4,0A4,4 0 1,1 0,-4A4,4 0 0,1 4,0ZM0,0.5L0.5,0L0,-0.5L-0.5,0Z" style="opacity: 1; stroke: rgb(0, 0, 0); stroke-opacity: 1; stroke-width: 1px; fill: none;"/><path class="point" transform="translate(186.15,80.6)" d="M4,0A4,4 0 1,1 0,-4A4,4 0 0,1 4,0ZM0,0.5L0.5,0L0,-0.5L-0.5,0Z" style="opacity: 1; stroke: rgb(0, 0, 0); stroke-opacity: 1; stroke-width: 1px; fill: none;"/><path class="point" transform="translate(194.62,80.6)" d="M4,0A4,4 0 1,1 0,-4A4,4 0 0,1 4,0ZM0,0.5L0.5,0L0,-0.5L-0.5,0Z" style="opacity: 1; stroke: rgb(0, 0, 0); stroke-opacity: 1; stroke-width: 1px; fill: none;"/></g><g class="text"/></g></g></g><g class="overplot"/><path class="xlines-above crisp" d="M0,0" style="fill: none;"/><path class="ylines-above crisp" d="M0,0" style="fill: none;"/><g class="overlines-above"/><g class="xaxislayer-above"/><g class="yaxislayer-above"><g class="y2tick"><text text-anchor="end" x="79" y="4.199999999999999" transform="translate(0,472.00000000000006)" style="font-family: 'Open Sans', verdana, arial, sans-serif; font-size: 12px; fill: rgb(42, 63, 95); fill-opacity: 1; white-space: pre; opacity: 1;">20</text></g><g class="y2tick"><text text-anchor="end" x="79" y="4.199999999999999" style="font-family: 'Open Sans', verdana, arial, sans-serif; font-size: 12px; fill: rgb(42, 63, 95); fill-opacity: 1; white-space: pre; opacity: 1;" transform="translate(0,410.00000000000006)">30</text></g><g class="y2tick"><text text-anchor="end" x="79" y="4.199999999999999" style="font-family: 'Open Sans', verdana, arial, sans-serif; font-size: 12px; fill: rgb(42, 63, 95); fill-opacity: 1; white-space: pre; opacity: 1;" transform="translate(0,348.00000000000006)">40</text></g></g><g class="overaxes-above"/></g><g class="subplot x3y3"><g class="layer-subplot"><g class="shapelayer"/><g class="imagelayer"/></g><g class="minor-gridlayer"><g class="x3"/><g class="y3"/></g><g class="gridlayer"><g class="x3"><path class="x3grid crisp" transform="translate(156.15,0)" d="M0,534v186" style="stroke: rgb(255, 255, 255); stroke-opacity: 1; stroke-width: 1px;"/><path class="x3grid crisp" transform="translate(240.77,0)" d="M0,534v186" style="stroke: rgb(255, 255, 255); stroke-opacity: 1; stroke-width: 1px;"/><path class="x3grid crisp" transform="translate(325.38,0)" d="M0,534v186" style="stroke: rgb(255, 255, 255); stroke-opacity: 1; stroke-width: 1px;"/><path class="x3grid crisp" transform="translate(410,0)" d="M0,534v186" style="stroke: rgb(255, 255, 255); stroke-opacity: 1; stroke-width: 1px;"/><path class="x3grid crisp" transform="translate(494.62,0)" d="M0,534v186" style="stroke: rgb(255, 255, 255); stroke-opacity: 1; stroke-width: 1px;"/></g><g class="y3"><path class="y3grid crisp" transform="translate(0,682.8)" d="M80,0h440" style="stroke: rgb(255, 255, 255); stroke-opacity: 1; stroke-width: 1px;"/><path class="y3grid crisp" transform="translate(0,645.6)" d="M80,0h440" style="stroke: rgb(255, 255, 255); stroke-opacity: 1; stroke-width: 1px;"/><path class="y3grid crisp" transform="translate(0,608.4)" d="M80,0h440" style="stroke: rgb(255, 255, 255); stroke-opacity: 1; stroke-width: 1px;"/><path class="y3grid crisp" transform="translate(0,571.2)" d="M80,0h440" style="stroke: rgb(255, 255, 255); stroke-opacity: 1; stroke-width: 1px;"/></g></g><g class="zerolinelayer"/><path class="xlines-below"/><path class="ylines-below"/><g class="overlines-below"/><g class="xaxislayer-below"/><g class="yaxislayer-below"/><g class="overaxes-below"/><g class="plot" transform="translate(80,534)" clip-path="url(#clipb0dd53x3y3plot)"><g class="scatterlayer mlayer"><g class="trace scatter tracece900d" style="stroke-miterlimit: 2;"><g class="fills"><g><path class="js-fill" d="M0,121.81L8.46,126.66L16.92,122.59L25.38,119.3L33.85,117.4L42.31,104.72L50.77,94.7L59.23,89.11L67.69,76.98L76.15,74.23L84.62,67.82L93.08,60.63L101.54,57.7L118.46,54.1L126.92,49.88L135.38,51.33L143.85,49.41L152.31,43.08L160.77,40.05L169.23,37.38L177.69,37.23L194.62,35.53L203.08,35.77L211.54,36.57L220,36.03L228.46,35.95L236.92,37.24L253.85,38.49L262.31,36.68L304.62,39.41L313.08,41.89L321.54,40.47L330,42.24L338.46,44.4L346.92,48.82L355.38,49.94L363.85,61.25L372.31,65.55L380.77,73.06L397.69,96.42L406.15,100.13L414.62,105.8L423.08,113.93L431.54,116.67L440,130.16L440,136.12L431.54,129.4L423.08,126.25L414.62,120.39L406.15,115.03L397.69,104.28L389.23,91.79L380.77,84.32L372.31,71.45L355.38,56.55L346.92,53.87L330,46.04L321.54,44.11L313.08,45.67L304.62,42.15L296.15,41.29L287.69,41.02L279.23,39.98L270.77,38.93L262.31,41.27L253.85,40.62L245.38,41.86L236.92,39.05L228.46,38.72L220,37.66L211.54,37.74L203.08,38.23L194.62,41.78L186.15,38.2L177.69,43.51L169.23,40.14L160.77,45.81L152.31,47.51L143.85,56.13L135.38,58.29L110,65.38L101.54,62.83L93.08,72.02L84.62,80.53L76.15,85.63L67.69,86.62L59.23,108.04L50.77,116.2L42.31,122.09L33.85,135.5L25.38,130.72L16.92,136.57L0,137.85Z" style="fill: rgb(90, 180, 172); fill-opacity: 1; stroke-width: 0;"/></g></g><g class="errorbars"/><g class="lines"><path class="js-line" d="M0,137.85L16.92,136.57L25.38,130.72L33.85,135.5L42.31,122.09L50.77,116.2L59.23,108.04L67.69,86.62L76.15,85.63L84.62,80.53L93.08,72.02L101.54,62.83L110,65.38L135.38,58.29L143.85,56.13L152.31,47.51L160.77,45.81L169.23,40.14L177.69,43.51L186.15,38.2L194.62,41.78L203.08,38.23L211.54,37.74L220,37.66L228.46,38.72L236.92,39.05L245.38,41.86L253.85,40.62L262.31,41.27L270.77,38.93L279.23,39.98L287.69,41.02L296.15,41.29L304.62,42.15L313.08,45.67L321.54,44.11L330,46.04L346.92,53.87L355.38,56.55L372.31,71.45L380.77,84.32L389.23,91.79L397.69,104.28L406.15,115.03L414.62,120.39L423.08,126.25L431.54,129.4L440,136.12" style="vector-effect: non-scaling-stroke; fill: none; stroke: rgb(0, 0, 0); stroke-opacity: 1; stroke-width: 0.25px; opacity: 1;"/></g><g class="points"/><g class="text"/></g><g class="trace scatter trace1b5f9d" style="stroke-miterlimit: 2;"><g class="fills"><g><path class="js-fill" d="M0,115.76L8.46,119.93L16.92,115L25.38,110.87L33.85,109.66L42.31,92.69L50.77,90.25L59.23,81.78L67.69,71.89L76.15,70.48L84.62,61.91L93.08,55.25L101.54,53.98L110,52.09L118.46,47.41L126.92,44.95L135.38,45.81L143.85,45.63L152.31,39.63L160.77,36.96L169.23,35.38L186.15,34.41L194.62,34.81L203.08,33.9L211.54,35.02L228.46,34.22L236.92,35.76L245.38,35.92L253.85,37.27L262.31,35.27L270.77,36.27L287.69,36.96L296.15,37.88L313.08,38.92L321.54,38.38L330,40.65L338.46,41.51L346.92,43.77L355.38,47.13L363.85,56.25L372.31,59.05L389.23,77.46L397.69,87.77L406.15,92.55L414.62,101.43L423.08,105.59L431.54,113.72L440,127.92L440,130.16L431.54,116.67L423.08,113.93L414.62,105.8L406.15,100.13L397.69,96.42L380.77,73.06L372.31,65.55L363.85,61.25L355.38,49.94L346.92,48.82L338.46,44.4L330,42.24L321.54,40.47L313.08,41.89L304.62,39.41L262.31,36.68L253.85,38.49L236.92,37.24L228.46,35.95L220,36.03L211.54,36.57L203.08,35.77L194.62,35.53L177.69,37.23L169.23,37.38L160.77,40.05L152.31,43.08L143.85,49.41L135.38,51.33L126.92,49.88L118.46,54.1L101.54,57.7L93.08,60.63L84.62,67.82L76.15,74.23L67.69,76.98L59.23,89.11L50.77,94.7L42.31,104.72L33.85,117.4L25.38,119.3L16.92,122.59L8.46,126.66L0,121.81Z" style="fill: rgb(245, 245, 245); fill-opacity: 1; stroke-width: 0;"/></g></g><g class="errorbars"/><g class="lines"><path class="js-line" d="M0,121.81L8.46,126.66L16.92,122.59L25.38,119.3L33.85,117.4L42.31,104.72L50.77,94.7L59.23,89.11L67.69,76.98L76.15,74.23L84.62,67.82L93.08,60.63L101.54,57.7L118.46,54.1L126.92,49.88L135.38,51.33L143.85,49.41L152.31,43.08L160.77,40.05L169.23,37.38L177.69,37.23L194.62,35.53L203.08,35.77L211.54,36.57L220,36.03L228.46,35.95L236.92,37.24L253.85,38.49L262.31,36.68L304.62,39.41L313.08,41.89L321.54,40.47L330,42.24L338.46,44.4L346.92,48.82L355.38,49.94L363.85,61.25L372.31,65.55L380.77,73.06L397.69,96.42L406.15,100.13L414.62,105.8L423.08,113.93L431.54,116.67L440,130.16" style="vector-effect: non-scaling-stroke; fill: none; stroke: rgb(0, 0, 0); stroke-opacity: 1; stroke-width: 0.5px; opacity: 1;"/></g><g class="points"/><g class="text"/></g><g class="trace scatter tracedee5d7" style="stroke-miterlimit: 2;"><g class="fills"><g><path class="js-fill" d="M0,107.21L8.46,111.14L16.92,111.1L33.85,98.47L42.31,86.87L50.77,79.3L59.23,72.76L67.69,65.58L76.15,61.11L84.62,54.82L93.08,52.19L101.54,48.62L110,47.79L118.46,44.87L126.92,40.72L135.38,37.85L143.85,41.09L152.31,38.36L160.77,33.57L169.23,32.01L177.69,32.36L186.15,32.7L194.62,30.36L203.08,32.62L211.54,33.18L220,33.16L228.46,31.44L236.92,33.47L245.38,34.55L262.31,33.51L270.77,34.32L287.69,34.87L296.15,35.78L304.62,37.58L313.08,36.74L330,37.27L338.46,38.48L346.92,39.16L355.38,45.01L363.85,50.38L372.31,54.14L380.77,65.02L389.23,70.43L406.15,87.35L414.62,94.01L423.08,93.61L431.54,107.64L440,119.17L440,127.92L431.54,113.72L423.08,105.59L414.62,101.43L406.15,92.55L397.69,87.77L389.23,77.46L372.31,59.05L363.85,56.25L355.38,47.13L346.92,43.77L338.46,41.51L330,40.65L321.54,38.38L313.08,38.92L296.15,37.88L287.69,36.96L270.77,36.27L262.31,35.27L253.85,37.27L245.38,35.92L236.92,35.76L228.46,34.22L211.54,35.02L203.08,33.9L194.62,34.81L186.15,34.41L169.23,35.38L160.77,36.96L152.31,39.63L143.85,45.63L135.38,45.81L126.92,44.95L118.46,47.41L110,52.09L101.54,53.98L93.08,55.25L84.62,61.91L76.15,70.48L67.69,71.89L59.23,81.78L50.77,90.25L42.31,92.69L33.85,109.66L25.38,110.87L16.92,115L8.46,119.93L0,115.76Z" style="fill: rgb(245, 245, 245); fill-opacity: 1; stroke-width: 0;"/></g></g><g class="errorbars"/><g class="lines"><path class="js-line" d="M0,115.76L8.46,119.93L16.92,115L25.38,110.87L33.85,109.66L42.31,92.69L50.77,90.25L59.23,81.78L67.69,71.89L76.15,70.48L84.62,61.91L93.08,55.25L101.54,53.98L110,52.09L118.46,47.41L126.92,44.95L135.38,45.81L143.85,45.63L152.31,39.63L160.77,36.96L169.23,35.38L186.15,34.41L194.62,34.81L203.08,33.9L211.54,35.02L228.46,34.22L236.92,35.76L245.38,35.92L253.85,37.27L262.31,35.27L270.77,36.27L287.69,36.96L296.15,37.88L313.08,38.92L321.54,38.38L330,40.65L338.46,41.51L346.92,43.77L355.38,47.13L363.85,56.25L372.31,59.05L389.23,77.46L397.69,87.77L406.15,92.55L414.62,101.43L423.08,105.59L431.54,113.72L440,127.92" style="vector-effect: non-scaling-stroke; fill: none; stroke: rgb(0, 0, 0); stroke-opacity: 1; stroke-width: 1px; opacity: 1;"/></g><g class="points"/><g class="text"/></g><g class="trace scatter trace4013ce" style="stroke-miterlimit: 2;"><g class="fills"><g><path class="js-fill" d="M0,99.89L8.46,100.67L16.92,95.63L33.85,85.42L42.31,74.78L50.77,61.34L59.23,64.81L67.69,56.73L76.15,45.24L84.62,46.55L93.08,41.93L101.54,42.33L110,39.93L126.92,33L135.38,22.49L143.85,34.86L152.31,36.74L160.77,26.67L169.23,25.17L177.69,28.09L186.15,28.98L194.62,23.01L203.08,30.82L211.54,30.58L220,31.17L228.46,30.66L236.92,31.74L245.38,33.7L253.85,27.76L262.31,32.53L270.77,30.94L279.23,30.51L287.69,34.32L304.62,35.56L313.08,33.54L321.54,33.24L330,30.03L338.46,34.44L346.92,31.42L355.38,37.7L363.85,41.37L380.77,53.89L389.23,62.55L397.69,70.29L406.15,74.53L423.08,88.64L431.54,95.03L440,118.45L440,119.17L431.54,107.64L423.08,93.61L414.62,94.01L406.15,87.35L389.23,70.43L380.77,65.02L372.31,54.14L363.85,50.38L355.38,45.01L346.92,39.16L338.46,38.48L330,37.27L313.08,36.74L304.62,37.58L296.15,35.78L287.69,34.87L270.77,34.32L262.31,33.51L245.38,34.55L236.92,33.47L228.46,31.44L220,33.16L211.54,33.18L203.08,32.62L194.62,30.36L186.15,32.7L177.69,32.36L169.23,32.01L160.77,33.57L152.31,38.36L143.85,41.09L135.38,37.85L126.92,40.72L118.46,44.87L110,47.79L101.54,48.62L93.08,52.19L84.62,54.82L76.15,61.11L67.69,65.58L59.23,72.76L50.77,79.3L42.31,86.87L33.85,98.47L16.92,111.1L8.46,111.14L0,107.21Z" style="fill: rgb(216, 179, 101); fill-opacity: 1; stroke-width: 0;"/></g></g><g class="errorbars"/><g class="lines"><path class="js-line" d="M0,107.21L8.46,111.14L16.92,111.1L33.85,98.47L42.31,86.87L50.77,79.3L59.23,72.76L67.69,65.58L76.15,61.11L84.62,54.82L93.08,52.19L101.54,48.62L110,47.79L118.46,44.87L126.92,40.72L135.38,37.85L143.85,41.09L152.31,38.36L160.77,33.57L169.23,32.01L177.69,32.36L186.15,32.7L194.62,30.36L203.08,32.62L211.54,33.18L220,33.16L228.46,31.44L236.92,33.47L245.38,34.55L262.31,33.51L270.77,34.32L287.69,34.87L296.15,35.78L304.62,37.58L313.08,36.74L330,37.27L338.46,38.48L346.92,39.16L355.38,45.01L363.85,50.38L372.31,54.14L380.77,65.02L389.23,70.43L406.15,87.35L414.62,94.01L423.08,93.61L431.54,107.64L440,119.17" style="vector-effect: non-scaling-stroke; fill: none; stroke: rgb(0, 0, 0); stroke-opacity: 1; stroke-width: 0.5px; opacity: 1;"/></g><g class="points"/><g class="text"/></g><g class="trace scatter trace2127f2" style="stroke-miterlimit: 2;"><g class="fills"/><g class="errorbars"/><g class="lines"><path class="js-line" d="M0,99.89L8.46,100.67L16.92,95.63L33.85,85.42L42.31,74.78L50.77,61.34L59.23,64.81L67.69,56.73L76.15,45.24L84.62,46.55L93.08,41.93L101.54,42.33L110,39.93L126.92,33L135.38,22.49L143.85,34.86L152.31,36.74L160.77,26.67L169.23,25.17L177.69,28.09L186.15,28.98L194.62,23.01L203.08,30.82L211.54,30.58L220,31.17L228.46,30.66L236.92,31.74L245.38,33.7L253.85,27.76L262.31,32.53L270.77,30.94L279.23,30.51L287.69,34.32L304.62,35.56L313.08,33.54L321.54,33.24L330,30.03L338.46,34.44L346.92,31.42L355.38,37.7L363.85,41.37L380.77,53.89L389.23,62.55L397.69,70.29L406.15,74.53L423.08,88.64L431.54,95.03L440,118.45" style="vector-effect: non-scaling-stroke; fill: none; stroke: rgb(0, 0, 0); stroke-opacity: 1; stroke-width: 0.25px; opacity: 1;"/></g><g class="points"/><g class="text"/></g><g class="trace scatter trace9edd44" style="stroke-miterlimit: 2; opacity: 1;"><g class="fills"/><g class="errorbars"/><g class="lines"/><g class="points"><path class="point" transform="translate(169.23,29.76)" d="M4,0A4,4 0 1,1 0,-4A4,4 0 0,1 4,0ZM0,0.5L0.5,0L0,-0.5L-0.5,0Z" style="opacity: 1; stroke: rgb(0, 0, 0); stroke-opacity: 1; stroke-width: 1px; fill: none;"/><path class="point" transform="translate(177.69,29.76)" d="M4,0A4,4 0 1,1 0,-4A4,4 0 0,1 4,0ZM0,0.5L0.5,0L0,-0.5L-0.5,0Z" style="opacity: 1; stroke: rgb(0, 0, 0); stroke-opacity: 1; stroke-width: 1px; fill: none;"/><path class="point" transform="translate(186.15,29.76)" d="M4,0A4,4 0 1,1 0,-4A4,4 0 0,1 4,0ZM0,0.5L0.5,0L0,-0.5L-0.5,0Z" style="opacity: 1; stroke: rgb(0, 0, 0); stroke-opacity: 1; stroke-width: 1px; fill: none;"/><path class="point" transform="translate(194.62,29.76)" d="M4,0A4,4 0 1,1 0,-4A4,4 0 0,1 4,0ZM0,0.5L0.5,0L0,-0.5L-0.5,0Z" style="opacity: 1; stroke: rgb(0, 0, 0); stroke-opacity: 1; stroke-width: 1px; fill: none;"/></g><g class="text"/></g></g></g><g class="overplot"/><path class="xlines-above crisp" d="M0,0" style="fill: none;"/><path class="ylines-above crisp" d="M0,0" style="fill: none;"/><g class="overlines-above"/><g class="xaxislayer-above"><g class="x3tick"><text text-anchor="middle" x="0" y="733" transform="translate(156.15,0)" style="font-family: 'Open Sans', verdana, arial, sans-serif; font-size: 12px; fill: rgb(42, 63, 95); fill-opacity: 1; white-space: pre; opacity: 1;">10</text></g><g class="x3tick"><text text-anchor="middle" x="0" y="733" style="font-family: 'Open Sans', verdana, arial, sans-serif; font-size: 12px; fill: rgb(42, 63, 95); fill-opacity: 1; white-space: pre; opacity: 1;" transform="translate(240.77,0)">20</text></g><g class="x3tick"><text text-anchor="middle" x="0" y="733" style="font-family: 'Open Sans', verdana, arial, sans-serif; font-size: 12px; fill: rgb(42, 63, 95); fill-opacity: 1; white-space: pre; opacity: 1;" transform="translate(325.38,0)">30</text></g><g class="x3tick"><text text-anchor="middle" x="0" y="733" style="font-family: 'Open Sans', verdana, arial, sans-serif; font-size: 12px; fill: rgb(42, 63, 95); fill-opacity: 1; white-space: pre; opacity: 1;" transform="translate(410,0)">40</text></g><g class="x3tick"><text text-anchor="middle" x="0" y="733" style="font-family: 'Open Sans', verdana, arial, sans-serif; font-size: 12px; fill: rgb(42, 63, 95); fill-opacity: 1; white-space: pre; opacity: 1;" transform="translate(494.62,0)">50</text></g></g><g class="yaxislayer-above"><g class="y3tick"><text text-anchor="end" x="79" y="4.199999999999999" transform="translate(0,720)" style="font-family: 'Open Sans', verdana, arial, sans-serif; font-size: 12px; fill: rgb(42, 63, 95); fill-opacity: 1; white-space: pre; opacity: 1;">5</text></g><g class="y3tick"><text text-anchor="end" x="79" y="4.199999999999999" style="font-family: 'Open Sans', verdana, arial, sans-serif; font-size: 12px; fill: rgb(42, 63, 95); fill-opacity: 1; white-space: pre; opacity: 1;" transform="translate(0,682.8)">10</text></g><g class="y3tick"><text text-anchor="end" x="79" y="4.199999999999999" style="font-family: 'Open Sans', verdana, arial, sans-serif; font-size: 12px; fill: rgb(42, 63, 95); fill-opacity: 1; white-space: pre; opacity: 1;" transform="translate(0,645.6)">15</text></g><g class="y3tick"><text text-anchor="end" x="79" y="4.199999999999999" style="font-family: 'Open Sans', verdana, arial, sans-serif; font-size: 12px; fill: rgb(42, 63, 95); fill-opacity: 1; white-space: pre; opacity: 1;" transform="translate(0,608.4)">20</text></g><g class="y3tick"><text text-anchor="end" x="79" y="4.199999999999999" style="font-family: 'Open Sans', verdana, arial, sans-serif; font-size: 12px; fill: rgb(42, 63, 95); fill-opacity: 1; white-space: pre; opacity: 1;" transform="translate(0,571.2)">25</text></g><g class="y3tick"><text text-anchor="end" x="79" y="4.199999999999999" style="font-family: 'Open Sans', verdana, arial, sans-serif; font-size: 12px; fill: rgb(42, 63, 95); fill-opacity: 1; white-space: pre; opacity: 1;" transform="translate(0,534)">30</text></g></g><g class="overaxes-above"/></g></g><g class="polarlayer"/><g class="smithlayer"/><g class="ternarylayer"/><g class="geolayer"/><g class="funnelarealayer"/><g class="pielayer"/><g class="iciclelayer"/><g class="treemaplayer"/><g class="sunburstlayer"/><g class="glimages"/><defs id="topdefs-b0dd53"><g class="clips"/></defs><g class="layer-above"><g class="imagelayer"/><g class="shapelayer"/></g><g class="infolayer"><g class="g-gtitle"><text class="gtitle" x="30" y="50" text-anchor="start" dy="0em" style="font-family: 'Open Sans', verdana, arial, sans-serif; font-size: 17px; fill: rgb(42, 63, 95); opacity: 1; font-weight: normal; white-space: pre;">Climatology and S2S forecast for Bagerhat</text></g><g class="g-xtitle"/><g class="g-x2title"/><g class="g-x3title"/><g class="g-ytitle"><text class="ytitle" transform="rotate(-90,34.16875,193)" x="34.16875" y="193" text-anchor="middle" style="font-family: 'Open Sans', verdana, arial, sans-serif; font-size: 14px; fill: rgb(42, 63, 95); opacity: 1; font-weight: normal; white-space: pre;">[mm]</text></g><g class="g-y2title"><text class="y2title" transform="rotate(-90,40.840625,410.00000000000006)" x="40.840625" y="410.00000000000006" text-anchor="middle" style="font-family: 'Open Sans', verdana, arial, sans-serif; font-size: 14px; fill: rgb(42, 63, 95); opacity: 1; font-weight: normal; white-space: pre;">[C]</text></g><g class="g-y3title"><text class="y3title" transform="rotate(-90,40.840625,627)" x="40.840625" y="627" text-anchor="middle" style="font-family: 'Open Sans', verdana, arial, sans-serif; font-size: 14px; fill: rgb(42, 63, 95); opacity: 1; font-weight: normal; white-space: pre;">[C]</text></g><g class="annotation" data-index="0" style="opacity: 1;"><g class="annotation-text-g" transform="rotate(0,300,89.5)"><g class="cursor-pointer" transform="translate(237,79)"><rect class="bg" x="0.5" y="0.5" width="126" height="20" style="stroke-width: 1px; stroke: rgb(0, 0, 0); stroke-opacity: 0; fill: rgb(0, 0, 0); fill-opacity: 0;"/><text class="annotation-text" text-anchor="middle" x="63.359375" y="16" style="font-family: 'Open Sans', verdana, arial, sans-serif; font-size: 16px; fill: rgb(42, 63, 95); fill-opacity: 1; white-space: pre;">Precipitation sum</text></g></g></g><g class="annotation" data-index="1" style="opacity: 1;"><g class="annotation-text-g" transform="rotate(0,300,306.50000000000006)"><g class="cursor-pointer" transform="translate(196,296)"><rect class="bg" x="0.5" y="0.5" width="208" height="20" style="stroke-width: 1px; stroke: rgb(0, 0, 0); stroke-opacity: 0; fill: rgb(0, 0, 0); fill-opacity: 0;"/><text class="annotation-text" text-anchor="middle" x="104.265625" y="16" style="font-family: 'Open Sans', verdana, arial, sans-serif; font-size: 16px; fill: rgb(42, 63, 95); fill-opacity: 1; white-space: pre;">Mean maximum temperature</text></g></g></g><g class="annotation" data-index="2" style="opacity: 1;"><g class="annotation-text-g" transform="rotate(0,300,523.5)"><g class="cursor-pointer" transform="translate(198,513)"><rect class="bg" x="0.5" y="0.5" width="203" height="20" style="stroke-width: 1px; stroke: rgb(0, 0, 0); stroke-opacity: 0; fill: rgb(0, 0, 0); fill-opacity: 0;"/><text class="annotation-text" text-anchor="middle" x="102.046875" y="16" style="font-family: 'Open Sans', verdana, arial, sans-serif; font-size: 16px; fill: rgb(42, 63, 95); fill-opacity: 1; white-space: pre;">Mean minimum temperature</text></g></g></g><g class="annotation" data-index="3" style="opacity: 1;"><g class="annotation-text-g" transform="rotate(0,300,760.5)"><g class="cursor-pointer" transform="translate(277,750)"><rect class="bg" x="0.5" y="0.5" width="45" height="20" style="stroke-width: 1px; stroke: rgb(0, 0, 0); stroke-opacity: 0; fill: rgb(0, 0, 0); fill-opacity: 0;"/><text class="annotation-text" text-anchor="middle" x="22.3125" y="16" style="font-family: 'Open Sans', verdana, arial, sans-serif; font-size: 16px; fill: rgb(42, 63, 95); fill-opacity: 1; white-space: pre;">Week</text></g></g></g></g></svg>