<svg class="main-svg" xmlns="http://www.w3.org/2000/svg" xmlns:xlink="http://www.w3.org/1999/xlink" width="600" height="800" style="" viewBox="0 0 600 800"><rect x="0" y="0" width="600" height="800" style="fill: rgb(255, 255, 255); fill-opacity: 1;"/><defs id="defs-f0b7e6"><g class="clips"><clipPath id="clipf0b7e6xyplot" class="plotclip"><rect width="440" height="186.00000000000003"/></clipPath><clipPath id="clipf0b7e6x2y2plot" class="plotclip"><rect width="440" height="185.99999999999997"/></clipPath><clipPath id="clipf0b7e6x3y3plot" class="plotclip"><rect width="440" height="186"/></clipPath><clipPath class="axesclip" id="clipf0b7e6x"><rect x="80" y="0" width="440" height="800"/></clipPath><clipPath class="axesclip" id="clipf0b7e6y"><rect x="0" y="100" width="600" height="186.00000000000003"/></clipPath><clipPath class="axesclip" id="clipf0b7e6xy"><rect x="80" y="100" width="440" height="186.00000000000003"/></clipPath><clipPath class="axesclip" id="clipf0b7e6y2"><rect x="0" y="317.00000000000006" width="600" height="185.99999999999997"/></clipPath><clipPath class="axesclip" id="clipf0b7e6xy2"><rect x="80" y="317.00000000000006" width="440" height="185.99999999999997"/></clipPath><clipPath class="axesclip" id="clipf0b7e6y3"><rect x="0" y="534" width="600" height="186"/></clipPath><clipPath class="axesclip" id="clipf0b7e6xy3"><rect x="80" y="534" width="440" height="186"/></clipPath><clipPath class="axesclip" id="clipf0b7e6x2"><rect x="80" y="0" width="440" height="800"/></clipPath><clipPath class="axesclip" id="clipf0b7e6x2y"><rect x="80" y="100" width="440" height="186.00000000000003"/></clipPath><clipPath class="axesclip" id="clipf0b7e6x2y2"><rect x="80" y="317.00000000000006" width="440" height="185.99999999999997"/></clipPath><clipPath class="axesclip" id="clipf0b7e6x2y3"><rect x="80" y="534" width="440" height="186"/></clipPath><clipPath class="axesclip" id="clipf0b7e6x3"><rect x="80" y="0" width="440" height="800"/></clipPath><clipPath class="axesclip" id="clipf0b7e6x3y"><rect x="80" y="100" width="440" height="186.00000000000003"/></clipPath><clipPath class="axesclip" id="clipf0b7e6x3y2"><rect x="80" y="317.00000000000006" width="440" height="185.99999999999997"/></clipPath><clipPath class="axesclip" id="clipf0b7e6x3y3"><rect x="80" y="534" width="440" height="186"/></clipPath></g><g class="gradients"/><g class="patterns"/></defs><g class="bglayer"><rect class="bg" x="80" y="100" width="440" height="186.00000000000003" style="fill: rgb(229, 236, 246); fill-opacity: 1; stroke-width: 0;"/><rect class="bg" x="80" y="317.00000000000006" width="440" height="185.99999999999997" style="fill: rgb(229, 236, 246); fill-opacity: 1; stroke-width: 0;"/><rect class="bg" x="80" y="534" width="440" height="186" style="fill: rgb(229, 236, 246); fill-opacity: 1; stroke-width: 0;"/></g><g class="layer-below"><g class="imagelayer"/><g class="shapelayer"/></g><g class="cartesianlayer"><g class="subplot xy"><g class="layer-subplot"><g class="shapelayer"/><g class="imagelayer"/></g><g class="minor-gridlayer"><g class="x"/><g class="y"/></g><g class="gridlayer"><g class="x"><path class="xgrid crisp" transform="translate(156.15,0)" d="M0,100v186.00000000000003" style="stroke: rgb(255, 255, 255); stroke-opacity: 1; stroke-width: 1px;"/><path class="xgrid crisp" transform="translate(240.77,0)" d="M0,100v186.00000000000003" style="stroke: rgb(255, 255, 255); stroke-opacity: 1; stroke-width: 1px;"/><path class="xgrid crisp" transform="translate(325.38,0)" d="M0,100v186.00000000000003" style="stroke: rgb(255, 255, 255); stroke-opacity: 1; stroke-width: 1px;"/><path class="xgrid crisp" transform="translate(410,0)" d="M0,100v186.00000000000003" style="stroke: rgb(255, 255, 255); stroke-opacity: 1; stroke-width: 1px;"/><path class="xgrid crisp" transform="translate(494.62,0)" d="M0,100v186.00000000000003" style="stroke: rgb(255, 255, 255); stroke-opacity: 1; stroke-width: 1px;"/></g><g class="y"><path class="ygrid crisp" transform="translate(0,248.8)" d="M80,0h440" style="stroke: rgb(255, 255, 255); stroke-opacity: 1; stroke-width: 1px;"/><path class="ygrid crisp" transform="translate(0,211.6)" d="M80,0h440" style="stroke: rgb(255, 255, 255); stroke-opacity: 1; stroke-width: 1px;"/><path class="ygrid crisp" transform="translate(0,174.4)" d="M80,0h440" style="stroke: rgb(255, 255, 255); stroke-opacity: 1; stroke-width: 1px;"/><path class="ygrid crisp" transform="translate(0,137.2)" d="M80,0h440" style="stroke: rgb(255, 255, 255); stroke-opacity: 1; stroke-width: 1px;"/></g></g><g class="zerolinelayer"><path class="yzl zl crisp" transform="translate(0,286)" d="M80,0h440" style="stroke: rgb(255, 255, 255); stroke-opacity: 1; stroke-width: 2px;"/></g><path class="xlines-below"/><path class="ylines-below"/><g class="overlines-below"/><g class="xaxislayer-below"/><g class="yaxislayer-below"/><g class="overaxes-below"/><g class="plot" transform="translate(80,100)" clip-path="url(#clipf0b7e6xyplot)"><g class="scatterlayer mlayer"><g class="trace scatter trace0cfe8f" style="stroke-miterlimit: 2;"><g class="fills"><g><path class="js-fill" d="M0,186L110,185.81L118.46,184.3L126.92,180.61L135.38,185.81L143.85,161.82L152.31,169.63L160.77,172.42L169.23,171.28L177.69,155.12L186.15,164.05L194.62,169.45L203.08,170.93L211.54,155.5L220,169.82L228.46,171.49L236.92,164.98L245.38,160.89L253.85,176.33L262.31,170.75L270.77,161.82L279.23,167.96L287.69,170L296.15,174.22L304.62,176.7L313.08,159.96L321.54,170.19L330,177.45L338.46,181.91L346.92,185.98L355.38,186L440,186L440,186L372.31,186L363.85,186L330,185.76L321.54,186L313.08,183.77L304.62,186L296.15,186L287.69,185.26L279.23,182.28L270.77,184.51L262.31,184.51L253.85,186L245.38,182.28L236.92,183.77L220,181.54L211.54,183.02L203.08,179.13L194.62,183.02L186.15,186L177.69,183.02L169.23,184.69L160.77,186L0,186Z" style="fill: rgb(224, 236, 244); fill-opacity: 1; stroke-width: 0;"/></g></g><g class="errorbars"/><g class="lines"><path class="js-line" d="M0,186L160.77,186L169.23,184.69L177.69,183.02L186.15,186L194.62,183.02L203.08,179.13L211.54,183.02L220,181.54L236.92,183.77L245.38,182.28L253.85,186L262.31,184.51L270.77,184.51L279.23,182.28L287.69,185.26L296.15,186L304.62,186L313.08,183.77L321.54,186L330,185.76L363.85,186L372.31,186L440,186" style="vector-effect: non-scaling-stroke; fill: none; stroke: rgb(0, 0, 0); stroke-opacity: 1; stroke-width: 0.25px; opacity: 1;"/></g><g class="points"/><g class="text"/></g><g class="trace scatter tracef4aef4" style="stroke-miterlimit: 2;"><g class="fills"><g><path class="js-fill" d="M0,186L93.08,186L101.54,181.16L110,178.93L118.46,171.49L126.92,171.49L135.38,175.95L143.85,142.66L152.31,142.48L160.77,154.38L169.23,146.2L177.69,139.87L186.15,143.59L194.62,154.75L203.08,139.5L211.54,137.6L220,158.84L228.46,142.1L236.92,145.82L245.38,146.94L253.85,157.36L262.31,155.12L270.77,147.68L279.23,150.66L287.69,157.73L304.62,151.4L313.08,156.24L321.54,158.84L330,151.28L338.46,170.38L346.92,175.96L355.38,186L363.85,186L440,186L440,186L355.38,186L346.92,185.98L338.46,181.91L330,177.45L321.54,170.19L313.08,159.96L304.62,176.7L296.15,174.22L287.69,170L279.23,167.96L270.77,161.82L262.31,170.75L253.85,176.33L245.38,160.89L236.92,164.98L228.46,171.49L220,169.82L211.54,155.5L203.08,170.93L194.62,169.45L186.15,164.05L177.69,155.12L169.23,171.28L160.77,172.42L152.31,169.63L143.85,161.82L135.38,185.81L126.92,180.61L118.46,184.3L110,185.81L0,186Z" style="fill: rgb(158, 188, 218); fill-opacity: 1; stroke-width: 0;"/></g></g><g class="errorbars"/><g class="lines"><path class="js-line" d="M0,186L110,185.81L118.46,184.3L126.92,180.61L135.38,185.81L143.85,161.82L152.31,169.63L160.77,172.42L169.23,171.28L177.69,155.12L186.15,164.05L194.62,169.45L203.08,170.93L211.54,155.5L220,169.82L228.46,171.49L236.92,164.98L245.38,160.89L253.85,176.33L262.31,170.75L270.77,161.82L279.23,167.96L287.69,170L296.15,174.22L304.62,176.7L313.08,159.96L321.54,170.19L330,177.45L338.46,181.91L346.92,185.98L355.38,186L440,186" style="vector-effect: non-scaling-stroke; fill: none; stroke: rgb(0, 0, 0); stroke-opacity: 1; stroke-width: 0.5px; opacity: 1;"/></g><g class="points"/><g class="text"/></g><g class="trace scatter trace94a48d" style="stroke-miterlimit: 2;"><g class="fills"><g><path class="js-fill" d="M0,186L42.31,186L50.77,183.77L59.23,184.7L67.69,184.14L76.15,178.36L84.62,183.02L93.08,169.26L101.54,157.17L110,169.63L118.46,161.08L126.92,145.08L135.38,159.4L143.85,126.29L152.31,121.83L160.77,133.55L169.23,121.06L177.69,122.39L186.15,103.42L194.62,106.2L203.08,110.48L211.54,85.54L220,139.13L228.46,116.25L236.92,99.51L245.38,124.43L253.85,115.69L262.31,140.24L270.77,123.69L279.23,121.64L287.69,142.29L296.15,135.59L304.62,122.2L313.08,124.43L321.54,147.29L330,121.09L338.46,137.83L346.92,161.45L355.38,175.58L363.85,184.87L372.31,184.33L380.77,186L389.23,186L440,186L440,186L363.85,186L355.38,186L346.92,175.96L338.46,170.38L330,151.28L321.54,158.84L313.08,156.24L304.62,151.4L287.69,157.73L279.23,150.66L270.77,147.68L262.31,155.12L253.85,157.36L245.38,146.94L236.92,145.82L228.46,142.1L220,158.84L211.54,137.6L203.08,139.5L194.62,154.75L186.15,143.59L177.69,139.87L169.23,146.2L160.77,154.38L152.31,142.48L143.85,142.66L135.38,175.95L126.92,171.49L118.46,171.49L110,178.93L101.54,181.16L93.08,186L0,186Z" style="fill: rgb(158, 188, 218); fill-opacity: 1; stroke-width: 0;"/></g></g><g class="errorbars"/><g class="lines"><path class="js-line" d="M0,186L93.08,186L101.54,181.16L110,178.93L118.46,171.49L126.92,171.49L135.38,175.95L143.85,142.66L152.31,142.48L160.77,154.38L169.23,146.2L177.69,139.87L186.15,143.59L194.62,154.75L203.08,139.5L211.54,137.6L220,158.84L228.46,142.1L236.92,145.82L245.38,146.94L253.85,157.36L262.31,155.12L270.77,147.68L279.23,150.66L287.69,157.73L304.62,151.4L313.08,156.24L321.54,158.84L330,151.28L338.46,170.38L346.92,175.96L355.38,186L363.85,186L440,186" style="vector-effect: non-scaling-stroke; fill: none; stroke: rgb(0, 0, 0); stroke-opacity: 1; stroke-width: 1px; opacity: 1;"/></g><g class="points"/><g class="text"/></g><g class="trace scatter trace65d400" style="stroke-miterlimit: 2;"><g class="fills"><g><path class="js-fill" d="M0,186L42.31,186L50.77,183.02L59.23,184.51L67.69,183.77L76.15,168.89L84.62,181.54L93.08,159.96L101.54,129.46L110,145.82L118.46,142.85L126.92,122.02L135.38,120.53L143.85,84.07L152.31,97.46L160.77,100.44L169.23,55.06L177.69,78.12L186.15,69.22L194.62,34.97L203.08,83.33L211.54,1.49L220,113.09L228.46,51.35L236.92,58.77L245.38,92.26L253.85,29.05L262.31,109.38L270.77,68.45L279.23,93.74L287.69,101.18L296.15,97.46L304.62,51.34L313.08,73.65L321.54,119.04L330,84.14L338.46,88.54L346.92,137.64L355.38,164.93L363.85,183.77L372.31,182.28L380.77,186L389.23,186L440,186L440,186L389.23,186L380.77,186L372.31,184.33L363.85,184.87L355.38,175.58L346.92,161.45L338.46,137.83L330,121.09L321.54,147.29L313.08,124.43L304.62,122.2L296.15,135.59L287.69,142.29L279.23,121.64L270.77,123.69L262.31,140.24L253.85,115.69L245.38,124.43L236.92,99.51L228.46,116.25L220,139.13L211.54,85.54L203.08,110.48L194.62,106.2L186.15,103.42L177.69,122.39L169.23,121.06L160.77,133.55L152.31,121.83L143.85,126.29L135.38,159.4L126.92,145.08L118.46,161.08L110,169.63L101.54,157.17L93.08,169.26L84.62,183.02L76.15,178.36L67.69,184.14L59.23,184.7L50.77,183.77L42.31,186L0,186Z" style="fill: rgb(136, 86, 167); fill-opacity: 1; stroke-width: 0;"/></g></g><g class="errorbars"/><g class="lines"><path class="js-line" d="M0,186L42.31,186L50.77,183.77L59.23,184.7L67.69,184.14L76.15,178.36L84.62,183.02L93.08,169.26L101.54,157.17L110,169.63L118.46,161.08L126.92,145.08L135.38,159.4L143.85,126.29L152.31,121.83L160.77,133.55L169.23,121.06L177.69,122.39L186.15,103.42L194.62,106.2L203.08,110.48L211.54,85.54L220,139.13L228.46,116.25L236.92,99.51L245.38,124.43L253.85,115.69L262.31,140.24L270.77,123.69L279.23,121.64L287.69,142.29L296.15,135.59L304.62,122.2L313.08,124.43L321.54,147.29L330,121.09L338.46,137.83L346.92,161.45L355.38,175.58L363.85,184.87L372.31,184.33L380.77,186L389.23,186L440,186" style="vector-effect: non-scaling-stroke; fill: none; stroke: rgb(0, 0, 0); stroke-opacity: 1; stroke-width: 0.5px; opacity: 1;"/></g><g class="points"/><g class="text"/></g><g class="trace scatter tracea17507" style="stroke-miterlimit: 2;"><g class="fills"/><g class="errorbars"/><g class="lines"><path class="js-line" d="M0,186L42.31,186L50.77,183.02L59.23,184.51L67.69,183.77L76.15,168.89L84.62,181.54L93.08,159.96L101.54,129.46L110,145.82L118.46,142.85L126.92,122.02L135.38,120.53L143.85,84.07L152.31,97.46L160.77,100.44L169.23,55.06L177.69,78.12L186.15,69.22L194.62,34.97L203.08,83.33L211.54,1.49L220,113.09L228.46,51.35L236.92,58.77L245.38,92.26L253.85,29.05L262.31,109.38L270.77,68.45L279.23,93.74L287.69,101.18L296.15,97.46L304.62,51.34L313.08,73.65L321.54,119.04L330,84.14L338.46,88.54L346.92,137.64L355.38,164.93L363.85,183.77L372.31,182.28L380.77,186L389.23,186L440,186" style="vector-effect: non-scaling-stroke; fill: none; stroke: rgb(0, 0, 0); stroke-opacity: 1; stroke-width: 0.25px; opacity: 1;"/></g><g class="points"/><g class="text"/></g><g class="trace scatter traceb6282d" style="stroke-miterlimit: 2; opacity: 1;"><g class="fills"/><g class="errorbars"/><g class="lines"/><g class="points"><path class="point" transform="translate(253.85,165.91)" d="M4,0A4,4 0 1,1 0,-4A4,4 0 0,1 4,0ZM0,0.5L0.5,0L0,-0.5L-0.5,0Z" style="opacity: 1; stroke: rgb(0, 0, 0); stroke-opacity: 1; stroke-width: 1px; fill: none;"/><path class="point" transform="translate(262.31,-72.91)" d="M4,0A4,4 0 1,1 0,-4A4,4 0 0,1 4,0ZM0,0.5L0.5,0L0,-0.5L-0.5,0Z" style="opacity: 1; stroke: rgb(0, 0, 0); stroke-opacity: 1; stroke-width: 1px; fill: none;"/><path class="point" transform="translate(270.77,80.35)" d="M4,0A4,4 0 1,1 0,-4A4,4 0 0,1 4,0ZM0,0.5L0.5,0L0,-0.5L-0.5,0Z" style="opacity: 1; stroke: rgb(0, 0, 0); stroke-opacity: 1; stroke-width: 1px; fill: none;"/><path class="point" transform="translate(279.23,80.35)" d="M4,0A4,4 0 1,1 0,-4A4,4 0 0,1 4,0ZM0,0.5L0.5,0L0,-0.5L-0.5,0Z" style="opacity: 1; stroke: rgb(0, 0, 0); stroke-opacity: 1; stroke-width: 1px; fill: none;"/></g><g class="text"/></g></g></g><g class="overplot"/><path class="xlines-above crisp" d="M0,0" style="fill: none;"/><path class="ylines-above crisp" d="M0,0" style="fill: none;"/><g class="overlines-above"/><g class="xaxislayer-above"/><g class="yaxislayer-above"><g class="ytick"><text text-anchor="end" x="79" y="4.199999999999999" transform="translate(0,286)" style="font-family: 'Open Sans', verdana, arial, sans-serif; font-size: 12px; fill: rgb(42, 63, 95); fill-opacity: 1; white-space: pre; opacity: 1;">0</text></g><g class="ytick"><text text-anchor="end" x="79" y="4.199999999999999" style="font-family: 'Open Sans', verdana, arial, sans-serif; font-size: 12px; fill: rgb(42, 63, 95); fill-opacity: 1; white-space: pre; opacity: 1;" transform="translate(0,248.8)">50</text></g><g class="ytick"><text text-anchor="end" x="79" y="4.199999999999999" style="font-family: 'Open Sans', verdana, arial, sans-serif; font-size: 12px; fill: rgb(42, 63, 95); fill-opacity: 1; white-space: pre; opacity: 1;" transform="translate(0,211.6)">100</text></g><g class="ytick"><text text-anchor="end" x="79" y="4.199999999999999" style="font-family: 'Open Sans', verdana, arial, sans-serif; font-size: 12px; fill: rgb(42, 63, 95); fill-opacity: 1; white-space: pre; opacity: 1;" transform="translate(0,174.4)">150</text></g><g class="ytick"><text text-anchor="end" x="79" y="4.199999999999999" style="font-family: 'Open Sans', verdana, arial, sans-serif; font-size: 12px; fill: rgb(42, 63, 95); fill-opacity: 1; white-space: pre; opacity: 1;" transform="translate(0,137.2)">200</text></g><g class="ytick"><text text-anchor="end" x="79" y="4.199999999999999" style="font-family: 'Open Sans', verdana, arial, sans-serif; font-size: 12px; fill: rgb(42, 63, 95); fill-opacity: 1; white-space: pre; opacity: 1;" transform="translate(0,100)">250</text></g></g><g class="overaxes-above"/></g><g class="subplot x2y2"><g class="layer-subplot"><g class="shapelayer"/><g class="imagelayer"/></g><g class="minor-gridlayer"><g class="x2"/><g class="y2"/></g><g class="gridlayer"><g class="x2"><path class="x2grid crisp" transform="translate(156.15,0)" d="M0,317.00000000000006v185.99999999999997" style="stroke: rgb(255, 255, 255); stroke-opacity: 1; stroke-width: 1px;"/><path class="x2grid crisp" transform="translate(240.77,0)" d="M0,317.00000000000006v185.99999999999997" style="stroke: rgb(255, 255, 255); stroke-opacity: 1; stroke-width: 1px;"/><path class="x2grid crisp" transform="translate(325.38,0)" d="M0,317.00000000000006v185.99999999999997" style="stroke: rgb(255, 255, 255); stroke-opacity: 1; stroke-width: 1px;"/><path class="x2grid crisp" transform="translate(410,0)" d="M0,317.00000000000006v185.99999999999997" style="stroke: rgb(255, 255, 255); stroke-opacity: 1; stroke-width: 1px;"/><path class="x2grid crisp" transform="translate(494.62,0)" d="M0,317.00000000000006v185.99999999999997" style="stroke: rgb(255, 255, 255); stroke-opacity: 1; stroke-width: 1px;"/></g><g class="y2"><path class="y2grid crisp" transform="translate(0,472.00000000000006)" d="M80,0h440" style="stroke: rgb(255, 255, 255); stroke-opacity: 1; stroke-width: 1px;"/><path class="y2grid crisp" transform="translate(0,410.00000000000006)" d="M80,0h440" style="stroke: rgb(255, 255, 255); stroke-opacity: 1; stroke-width: 1px;"/><path class="y2grid crisp" transform="translate(0,348.00000000000006)" d="M80,0h440" style="stroke: rgb(255, 255, 255); stroke-opacity: 1; stroke-width: 1px;"/></g></g><g class="zerolinelayer"/><path class="xlines-below"/><path class="ylines-below"/><g class="overlines-below"/><g class="xaxislayer-below"/><g class="yaxislayer-below"/><g class="overaxes-below"/><g class="plot" transform="translate(80,317.00000000000006)" clip-path="url(#clipf0b7e6x2y2plot)"><g class="scatterlayer mlayer"><g class="trace scatter trace95b951" style="stroke-miterlimit: 2;"><g class="fills"><g><path class="js-fill" d="M0,146.24L8.46,151.41L16.92,138.87L25.38,135.57L33.85,128.21L42.31,118.18L50.77,111.87L67.69,93.53L76.15,90.67L84.62,72.76L93.08,73.87L101.54,83.9L110,86.03L118.46,86.34L126.92,82.06L135.38,89.39L143.85,89.9L152.31,82.87L160.77,86.45L169.23,84.32L177.69,89.04L194.62,89.95L203.08,93.27L211.54,94.32L220,93.26L228.46,93.22L236.92,94.59L245.38,93.91L253.85,91.35L262.31,90.61L270.77,97.38L279.23,93.28L287.69,95.28L296.15,95.92L304.62,93.87L313.08,95.2L321.54,97.46L330,93.95L338.46,93.89L355.38,89.88L363.85,94.36L372.31,96.26L380.77,103.55L389.23,109.33L397.69,117.51L406.15,128.61L414.62,130.02L423.08,139.41L431.54,143.35L440,146.05L440,148.18L431.54,151.37L423.08,158.19L414.62,140.74L406.15,142.42L397.69,127.01L389.23,116.29L380.77,112.4L372.31,103.01L363.85,99.29L355.38,97.63L346.92,110.89L338.46,105.58L321.54,101.95L313.08,107.08L304.62,103.36L296.15,106.02L287.69,100.37L279.23,107.35L270.77,106.82L262.31,106.35L253.85,99.47L245.38,102.12L236.92,100.35L228.46,100.97L220,109.12L211.54,106.64L203.08,105.84L194.62,102.21L186.15,100.79L177.69,93L169.23,89.37L160.77,95.39L152.31,92.03L143.85,98.05L135.38,97.45L126.92,100.21L118.46,96.99L110,93.18L101.54,96.42L93.08,89.54L84.62,74.67L76.15,104.6L67.69,114.97L59.23,116.29L50.77,128.43L42.31,132.68L33.85,144.55L25.38,137.42L16.92,149.95L8.46,163.15L0,165.23Z" style="fill: rgb(145, 191, 219); fill-opacity: 1; stroke-width: 0;"/></g></g><g class="errorbars"/><g class="lines"><path class="js-line" d="M0,165.23L8.46,163.15L16.92,149.95L25.38,137.42L33.85,144.55L42.31,132.68L50.77,128.43L59.23,116.29L67.69,114.97L76.15,104.6L84.62,74.67L93.08,89.54L101.54,96.42L110,93.18L118.46,96.99L126.92,100.21L135.38,97.45L143.85,98.05L152.31,92.03L160.77,95.39L169.23,89.37L177.69,93L186.15,100.79L194.62,102.21L203.08,105.84L211.54,106.64L220,109.12L228.46,100.97L236.92,100.35L245.38,102.12L253.85,99.47L262.31,106.35L270.77,106.82L279.23,107.35L287.69,100.37L296.15,106.02L304.62,103.36L313.08,107.08L321.54,101.95L338.46,105.58L346.92,110.89L355.38,97.63L363.85,99.29L372.31,103.01L380.77,112.4L389.23,116.29L397.69,127.01L406.15,142.42L414.62,140.74L423.08,158.19L431.54,151.37L440,148.18" style="vector-effect: non-scaling-stroke; fill: none; stroke: rgb(0, 0, 0); stroke-opacity: 1; stroke-width: 0.25px; opacity: 1;"/></g><g class="points"/><g class="text"/></g><g class="trace scatter traceceaf42" style="stroke-miterlimit: 2;"><g class="fills"><g><path class="js-fill" d="M0,137.11L8.46,141.22L16.92,132.05L25.38,127.74L33.85,121.84L42.31,110.76L50.77,103.14L67.69,83.08L76.15,79.01L84.62,67.54L93.08,62.84L101.54,70.86L110,75.11L118.46,72.23L126.92,74.13L135.38,77.32L143.85,81.44L152.31,77.15L160.77,78.27L169.23,80.47L177.69,83.64L186.15,83.7L194.62,87.33L203.08,87.42L211.54,88.58L220,87.84L228.46,89.55L236.92,88.85L245.38,89.68L253.85,87.11L262.31,86.27L270.77,88.59L279.23,86.53L287.69,88.09L296.15,88.21L304.62,91.41L313.08,91.49L321.54,88.35L330,87.49L338.46,86.96L346.92,84.29L355.38,85.45L363.85,91.15L372.31,94.11L380.77,99.55L397.69,111.38L406.15,122.01L423.08,129.89L431.54,137.35L440,134.7L440,146.05L431.54,143.35L423.08,139.41L414.62,130.02L406.15,128.61L397.69,117.51L389.23,109.33L380.77,103.55L372.31,96.26L363.85,94.36L355.38,89.88L338.46,93.89L330,93.95L321.54,97.46L313.08,95.2L304.62,93.87L296.15,95.92L287.69,95.28L279.23,93.28L270.77,97.38L262.31,90.61L253.85,91.35L245.38,93.91L236.92,94.59L228.46,93.22L220,93.26L211.54,94.32L203.08,93.27L194.62,89.95L177.69,89.04L169.23,84.32L160.77,86.45L152.31,82.87L143.85,89.9L135.38,89.39L126.92,82.06L118.46,86.34L110,86.03L101.54,83.9L93.08,73.87L84.62,72.76L76.15,90.67L67.69,93.53L50.77,111.87L42.31,118.18L33.85,128.21L25.38,135.57L16.92,138.87L8.46,151.41L0,146.24Z" style="fill: rgb(255, 255, 191); fill-opacity: 1; stroke-width: 0;"/></g></g><g class="errorbars"/><g class="lines"><path class="js-line" d="M0,146.24L8.46,151.41L16.92,138.87L25.38,135.57L33.85,128.21L42.31,118.18L50.77,111.87L67.69,93.53L76.15,90.67L84.62,72.76L93.08,73.87L101.54,83.9L110,86.03L118.46,86.34L126.92,82.06L135.38,89.39L143.85,89.9L152.31,82.87L160.77,86.45L169.23,84.32L177.69,89.04L194.62,89.95L203.08,93.27L211.54,94.32L220,93.26L228.46,93.22L236.92,94.59L245.38,93.91L253.85,91.35L262.31,90.61L270.77,97.38L279.23,93.28L287.69,95.28L296.15,95.92L304.62,93.87L313.08,95.2L321.54,97.46L330,93.95L338.46,93.89L355.38,89.88L363.85,94.36L372.31,96.26L380.77,103.55L389.23,109.33L397.69,117.51L406.15,128.61L414.62,130.02L423.08,139.41L431.54,143.35L440,146.05" style="vector-effect: non-scaling-stroke; fill: none; stroke: rgb(0, 0, 0); stroke-opacity: 1; stroke-width: 0.5px; opacity: 1;"/></g><g class="points"/><g class="text"/></g><g class="trace scatter tracef1cb97" style="stroke-miterlimit: 2;"><g class="fills"><g><path class="js-fill" d="M0,131.23L8.46,132.79L16.92,124.73L25.38,124.8L33.85,113.66L67.69,74.58L76.15,68.76L84.62,64.32L93.08,54.27L101.54,53.38L110,59.56L118.46,61.89L126.92,65.59L135.38,62.1L143.85,73.69L160.77,68.91L169.23,76.81L177.69,73.08L186.15,78.32L203.08,83.83L211.54,83.25L220,80.82L228.46,82.29L245.38,81.04L253.85,82.41L262.31,78.38L270.77,81.11L279.23,82.22L287.69,85.65L296.15,82.95L304.62,85.14L313.08,84.76L321.54,83.35L330,75.13L338.46,77.23L346.92,79L355.38,83.83L363.85,88.97L372.31,89.83L380.77,96.57L389.23,100.68L397.69,106.61L406.15,115.08L414.62,117.73L423.08,123.93L431.54,126.73L440,122.33L440,134.7L431.54,137.35L423.08,129.89L406.15,122.01L397.69,111.38L380.77,99.55L372.31,94.11L363.85,91.15L355.38,85.45L346.92,84.29L338.46,86.96L330,87.49L321.54,88.35L313.08,91.49L304.62,91.41L296.15,88.21L287.69,88.09L279.23,86.53L270.77,88.59L262.31,86.27L253.85,87.11L245.38,89.68L236.92,88.85L228.46,89.55L220,87.84L211.54,88.58L203.08,87.42L194.62,87.33L186.15,83.7L177.69,83.64L169.23,80.47L160.77,78.27L152.31,77.15L143.85,81.44L135.38,77.32L126.92,74.13L118.46,72.23L110,75.11L101.54,70.86L93.08,62.84L84.62,67.54L76.15,79.01L67.69,83.08L50.77,103.14L42.31,110.76L33.85,121.84L25.38,127.74L16.92,132.05L8.46,141.22L0,137.11Z" style="fill: rgb(255, 255, 191); fill-opacity: 1; stroke-width: 0;"/></g></g><g class="errorbars"/><g class="lines"><path class="js-line" d="M0,137.11L8.46,141.22L16.92,132.05L25.38,127.74L33.85,121.84L42.31,110.76L50.77,103.14L67.69,83.08L76.15,79.01L84.62,67.54L93.08,62.84L101.54,70.86L110,75.11L118.46,72.23L126.92,74.13L135.38,77.32L143.85,81.44L152.31,77.15L160.77,78.27L169.23,80.47L177.69,83.64L186.15,83.7L194.62,87.33L203.08,87.42L211.54,88.58L220,87.84L228.46,89.55L236.92,88.85L245.38,89.68L253.85,87.11L262.31,86.27L270.77,88.59L279.23,86.53L287.69,88.09L296.15,88.21L304.62,91.41L313.08,91.49L321.54,88.35L330,87.49L338.46,86.96L346.92,84.29L355.38,85.45L363.85,91.15L372.31,94.11L380.77,99.55L397.69,111.38L406.15,122.01L423.08,129.89L431.54,137.35L440,134.7" style="vector-effect: non-scaling-stroke; fill: none; stroke: rgb(0, 0, 0); stroke-opacity: 1; stroke-width: 1px; opacity: 1;"/></g><g class="points"/><g class="text"/></g><g class="trace scatter trace9f1e6e" style="stroke-miterlimit: 2;"><g class="fills"><g><path class="js-fill" d="M0,118.81L8.46,118.95L16.92,114.79L25.38,113.72L33.85,109.03L50.77,70.88L59.23,73.16L67.69,59.61L76.15,54.29L84.62,58.28L93.08,51.19L101.54,43.13L110,39.15L118.46,44.12L126.92,54.12L135.38,26.31L143.85,61.47L152.31,54.74L160.77,52.7L169.23,72.27L177.69,60.85L186.15,63.33L194.62,75.29L203.08,70.59L211.54,68.2L220,65.36L228.46,66.25L236.92,64.92L245.38,69.17L253.85,71.03L262.31,61.91L270.77,68.47L279.23,73.16L287.69,76.01L296.15,67.84L304.62,73.34L313.08,69.88L321.54,69.71L330,66.87L338.46,62.8L346.92,62.97L355.38,77.32L363.85,84.76L372.31,82.64L380.77,87.86L389.23,95.66L397.69,95.21L406.15,101.59L414.62,112.57L423.08,115.59L431.54,122.14L440,112.63L440,122.33L431.54,126.73L423.08,123.93L414.62,117.73L406.15,115.08L397.69,106.61L389.23,100.68L380.77,96.57L372.31,89.83L363.85,88.97L355.38,83.83L346.92,79L338.46,77.23L330,75.13L321.54,83.35L313.08,84.76L304.62,85.14L296.15,82.95L287.69,85.65L279.23,82.22L270.77,81.11L262.31,78.38L253.85,82.41L245.38,81.04L228.46,82.29L220,80.82L211.54,83.25L203.08,83.83L186.15,78.32L177.69,73.08L169.23,76.81L160.77,68.91L143.85,73.69L135.38,62.1L126.92,65.59L118.46,61.89L110,59.56L101.54,53.38L93.08,54.27L84.62,64.32L76.15,68.76L67.69,74.58L33.85,113.66L25.38,124.8L16.92,124.73L8.46,132.79L0,131.23Z" style="fill: rgb(252, 141, 89); fill-opacity: 1; stroke-width: 0;"/></g></g><g class="errorbars"/><g class="lines"><path class="js-line" d="M0,131.23L8.46,132.79L16.92,124.73L25.38,124.8L33.85,113.66L67.69,74.58L76.15,68.76L84.62,64.32L93.08,54.27L101.54,53.38L110,59.56L118.46,61.89L126.92,65.59L135.38,62.1L143.85,73.69L160.77,68.91L169.23,76.81L177.69,73.08L186.15,78.32L203.08,83.83L211.54,83.25L220,80.82L228.46,82.29L245.38,81.04L253.85,82.41L262.31,78.38L270.77,81.11L279.23,82.22L287.69,85.65L296.15,82.95L304.62,85.14L313.08,84.76L321.54,83.35L330,75.13L338.46,77.23L346.92,79L355.38,83.83L363.85,88.97L372.31,89.83L380.77,96.57L389.23,100.68L397.69,106.61L406.15,115.08L414.62,117.73L423.08,123.93L431.54,126.73L440,122.33" style="vector-effect: non-scaling-stroke; fill: none; stroke: rgb(0, 0, 0); stroke-opacity: 1; stroke-width: 0.5px; opacity: 1;"/></g><g class="points"/><g class="text"/></g><g class="trace scatter traceef2361" style="stroke-miterlimit: 2;"><g class="fills"/><g class="errorbars"/><g class="lines"><path class="js-line" d="M0,118.81L8.46,118.95L16.92,114.79L25.38,113.72L33.85,109.03L50.77,70.88L59.23,73.16L67.69,59.61L76.15,54.29L84.62,58.28L93.08,51.19L101.54,43.13L110,39.15L118.46,44.12L126.92,54.12L135.38,26.31L143.85,61.47L152.31,54.74L160.77,52.7L169.23,72.27L177.69,60.85L186.15,63.33L194.62,75.29L203.08,70.59L211.54,68.2L220,65.36L228.46,66.25L236.92,64.92L245.38,69.17L253.85,71.03L262.31,61.91L270.77,68.47L279.23,73.16L287.69,76.01L296.15,67.84L304.62,73.34L313.08,69.88L321.54,69.71L330,66.87L338.46,62.8L346.92,62.97L355.38,77.32L363.85,84.76L372.31,82.64L380.77,87.86L389.23,95.66L397.69,95.21L406.15,101.59L414.62,112.57L423.08,115.59L431.54,122.14L440,112.63" style="vector-effect: non-scaling-stroke; fill: none; stroke: rgb(0, 0, 0); stroke-opacity: 1; stroke-width: 0.25px; opacity: 1;"/></g><g class="points"/><g class="text"/></g><g class="trace scatter traceb06041" style="stroke-miterlimit: 2; opacity: 1;"><g class="fills"/><g class="errorbars"/><g class="lines"/><g class="points"><path class="point" transform="translate(253.85,68.2)" d="M4,0A4,4 0 1,1 0,-4A4,4 0 0,1 4,0ZM0,0.5L0.5,0L0,-0.5L-0.5,0Z" style="opacity: 1; stroke: rgb(0, 0, 0); stroke-opacity: 1; stroke-width: 1px; fill: none;"/><path class="point" transform="translate(262.31,105.4)" d="M4,0A4,4 0 1,1 0,-4A4,4 0 0,1 4,0ZM0,0.5L0.5,0L0,-0.5L-0.5,0Z" style="opacity: 1; stroke: rgb(0, 0, 0); stroke-opacity: 1; stroke-width: 1px; fill: none;"/><path class="point" transform="translate(270.77,74.4)" d="M4,0A4,4 0 1,1 0,-4A4,4 0 0,1 4,0ZM0,0.5L0.5,0L0,-0.5L-0.5,0Z" style="opacity: 1; stroke: rgb(0, 0, 0); stroke-opacity: 1; stroke-width: 1px; fill: none;"/><path class="point" transform="translate(279.23,74.4)" d="M4,0A4,4 0 1,1 0,-4A4,4 0 0,1 4,0ZM0,0.5L0.5,0L0,-0.5L-0.5,0Z" style="opacity: 1; stroke: rgb(0, 0, 0); stroke-opacity: 1; stroke-width: 1px; fill: none;"/></g><g class="text"/></g></g></g><g class="overplot"/><path class="xlines-above crisp" d="M0,0" style="fill: none;"/><path class="ylines-above crisp" d="M0,0" style="fill: none;"/><g class="overlines-above"/><g class="xaxislayer-above"/><g class="yaxislayer-above"><g class="y2tick"><text text-anchor="end" x="79" y="4.199999999999999" transform="translate(0,472.00000000000006)" style="font-family: 'Open Sans', verdana, arial, sans-serif; font-size: 12px; fill: rgb(42, 63, 95); fill-opacity: 1; white-space: pre; opacity: 1;">20</text></g><g class="y2tick"><text text-anchor="end" x="79" y="4.199999999999999" style="font-family: 'Open Sans', verdana, arial, sans-serif; font-size: 12px; fill: rgb(42, 63, 95); fill-opacity: 1; white-space: pre; opacity: 1;" transform="translate(0,410.00000000000006)">30</text></g><g class="y2tick"><text text-anchor="end" x="79" y="4.199999999999999" style="font-family: 'Open Sans', verdana, arial, sans-serif; font-size: 12px; fill: rgb(42, 63, 95); fill-opacity: 1; white-space: pre; opacity: 1;" transform="translate(0,348.00000000000006)">40</text></g></g><g class="overaxes-above"/></g><g class="subplot x3y3"><g class="layer-subplot"><g class="shapelayer"/><g class="imagelayer"/></g><g class="minor-gridlayer"><g class="x3"/><g class="y3"/></g><g class="gridlayer"><g class="x3"><path class="x3grid crisp" transform="translate(156.15,0)" d="M0,534v186" style="stroke: rgb(255, 255, 255); stroke-opacity: 1; stroke-width: 1px;"/><path class="x3grid crisp" transform="translate(240.77,0)" d="M0,534v186" style="stroke: rgb(255, 255, 255); stroke-opacity: 1; stroke-width: 1px;"/><path class="x3grid crisp" transform="translate(325.38,0)" d="M0,534v186" style="stroke: rgb(255, 255, 255); stroke-opacity: 1; stroke-width: 1px;"/><path class="x3grid crisp" transform="translate(410,0)" d="M0,534v186" style="stroke: rgb(255, 255, 255); stroke-opacity: 1; stroke-width: 1px;"/><path class="x3grid crisp" transform="translate(494.62,0)" d="M0,534v186" style="stroke: rgb(255, 255, 255); stroke-opacity: 1; stroke-width: 1px;"/></g><g class="y3"><path class="y3grid crisp" transform="translate(0,682.8)" d="M80,0h440" style="stroke: rgb(255, 255, 255); stroke-opacity: 1; stroke-width: 1px;"/><path class="y3grid crisp" transform="translate(0,645.6)" d="M80,0h440" style="stroke: rgb(255, 255, 255); stroke-opacity: 1; stroke-width: 1px;"/><path class="y3grid crisp" transform="translate(0,608.4)" d="M80,0h440" style="stroke: rgb(255, 255, 255); stroke-opacity: 1; stroke-width: 1px;"/><path class="y3grid crisp" transform="translate(0,571.2)" d="M80,0h440" style="stroke: rgb(255, 255, 255); stroke-opacity: 1; stroke-width: 1px;"/></g></g><g class="zerolinelayer"/><path class="xlines-below"/><path class="ylines-below"/><g class="overlines-below"/><g class="xaxislayer-below"/><g class="yaxislayer-below"/><g class="overaxes-below"/><g class="plot" transform="translate(80,534)" clip-path="url(#clipf0b7e6x3y3plot)"><g class="scatterlayer mlayer"><g class="trace scatter trace392a2f" style="stroke-miterlimit: 2;"><g class="fills"><g><path class="js-fill" d="M0,122.62L8.46,133.09L16.92,126.29L25.38,124.22L33.85,119.41L42.31,108.6L50.77,105.14L59.23,96.42L67.69,83.5L76.15,79.71L84.62,70.2L93.08,66.46L101.54,64.36L118.46,60.47L126.92,53.87L135.38,55.19L143.85,53.49L152.31,46.98L160.77,45.2L169.23,41L177.69,40.84L194.62,37.94L203.08,36.46L211.54,37.01L220,36.22L228.46,37.42L236.92,37.85L253.85,38.42L262.31,37.52L287.69,37.68L296.15,39.3L304.62,39.99L313.08,41.57L321.54,40.79L330,43.1L355.38,51.75L363.85,61.4L372.31,67.04L380.77,76.23L389.23,85.21L397.69,96.19L423.08,119.22L431.54,121.3L440,133.57L440,135.98L431.54,143.59L423.08,136.89L414.62,124.13L406.15,118.08L397.69,104.59L389.23,96.19L380.77,89.28L372.31,75.04L363.85,68.87L355.38,58.75L346.92,58.24L338.46,51.55L330,49.85L321.54,43.9L313.08,48.57L304.62,43.68L296.15,41.35L279.23,41.42L270.77,42.16L253.85,40.6L245.38,41.45L228.46,38.9L220,37.73L211.54,40.49L203.08,39.86L186.15,43.9L177.69,48.47L169.23,45.38L160.77,51.97L152.31,51.12L143.85,66.96L135.38,65.36L126.92,62.18L118.46,71.42L110,74.19L101.54,74.52L93.08,85.66L84.62,88.76L76.15,97.57L67.69,86.52L59.23,107.99L50.77,123.61L42.31,124.99L33.85,140.51L25.38,146.78L16.92,139.98L8.46,144.76L0,128.71Z" style="fill: rgb(90, 180, 172); fill-opacity: 1; stroke-width: 0;"/></g></g><g class="errorbars"/><g class="lines"><path class="js-line" d="M0,128.71L8.46,144.76L16.92,139.98L25.38,146.78L33.85,140.51L42.31,124.99L50.77,123.61L59.23,107.99L67.69,86.52L76.15,97.57L84.62,88.76L93.08,85.66L101.54,74.52L110,74.19L118.46,71.42L126.92,62.18L135.38,65.36L143.85,66.96L152.31,51.12L160.77,51.97L169.23,45.38L177.69,48.47L186.15,43.9L203.08,39.86L211.54,40.49L220,37.73L228.46,38.9L245.38,41.45L253.85,40.6L270.77,42.16L279.23,41.42L296.15,41.35L304.62,43.68L313.08,48.57L321.54,43.9L330,49.85L338.46,51.55L346.92,58.24L355.38,58.75L363.85,68.87L372.31,75.04L380.77,89.28L389.23,96.19L397.69,104.59L406.15,118.08L414.62,124.13L423.08,136.89L431.54,143.59L440,135.98" style="vector-effect: non-scaling-stroke; fill: none; stroke: rgb(0, 0, 0); stroke-opacity: 1; stroke-width: 0.25px; opacity: 1;"/></g><g class="points"/><g class="text"/></g><g class="trace scatter trace411156" style="stroke-miterlimit: 2;"><g class="fills"><g><path class="js-fill" d="M0,117.3L8.46,122.95L16.92,117.4L25.38,113.19L33.85,111.75L42.31,99.8L50.77,94.17L59.23,86.57L67.69,76.74L76.15,74.03L84.62,63.41L93.08,57.02L101.54,55.22L110,58.09L118.46,57.17L126.92,49.9L135.38,50.8L143.85,50.7L152.31,44.14L160.77,40.87L169.23,39.49L177.69,38.9L186.15,36.58L211.54,35.85L220,34.64L236.92,35.5L245.38,37.25L253.85,37.1L262.31,34L279.23,36.44L287.69,35.66L304.62,39.38L313.08,38.63L321.54,38.92L330,41.19L338.46,41.7L346.92,45.38L355.38,49.48L363.85,56.75L372.31,61.71L380.77,70.1L389.23,77.63L397.69,87.29L406.15,95.55L414.62,99.86L431.54,115.48L440,127.5L440,133.57L431.54,121.3L423.08,119.22L397.69,96.19L389.23,85.21L380.77,76.23L372.31,67.04L363.85,61.4L355.38,51.75L330,43.1L321.54,40.79L313.08,41.57L304.62,39.99L296.15,39.3L287.69,37.68L262.31,37.52L253.85,38.42L236.92,37.85L228.46,37.42L220,36.22L211.54,37.01L203.08,36.46L194.62,37.94L177.69,40.84L169.23,41L160.77,45.2L152.31,46.98L143.85,53.49L135.38,55.19L126.92,53.87L118.46,60.47L101.54,64.36L93.08,66.46L84.62,70.2L76.15,79.71L67.69,83.5L59.23,96.42L50.77,105.14L42.31,108.6L33.85,119.41L25.38,124.22L16.92,126.29L8.46,133.09L0,122.62Z" style="fill: rgb(245, 245, 245); fill-opacity: 1; stroke-width: 0;"/></g></g><g class="errorbars"/><g class="lines"><path class="js-line" d="M0,122.62L8.46,133.09L16.92,126.29L25.38,124.22L33.85,119.41L42.31,108.6L50.77,105.14L59.23,96.42L67.69,83.5L76.15,79.71L84.62,70.2L93.08,66.46L101.54,64.36L118.46,60.47L126.92,53.87L135.38,55.19L143.85,53.49L152.31,46.98L160.77,45.2L169.23,41L177.69,40.84L194.62,37.94L203.08,36.46L211.54,37.01L220,36.22L228.46,37.42L236.92,37.85L253.85,38.42L262.31,37.52L287.69,37.68L296.15,39.3L304.62,39.99L313.08,41.57L321.54,40.79L330,43.1L355.38,51.75L363.85,61.4L372.31,67.04L380.77,76.23L389.23,85.21L397.69,96.19L423.08,119.22L431.54,121.3L440,133.57" style="vector-effect: non-scaling-stroke; fill: none; stroke: rgb(0, 0, 0); stroke-opacity: 1; stroke-width: 0.5px; opacity: 1;"/></g><g class="points"/><g class="text"/></g><g class="trace scatter traced2197b" style="stroke-miterlimit: 2;"><g class="fills"><g><path class="js-fill" d="M0,112L8.46,113.09L16.92,110.62L25.38,108.28L33.85,101.87L42.31,90.99L50.77,86.76L59.23,76.12L67.69,69.14L101.54,47.27L110,49.91L152.31,41.53L160.77,38.18L186.15,34.54L194.62,34.2L203.08,33.4L211.54,33.96L220,33.08L228.46,33.19L245.38,35.18L253.85,34.18L262.31,32.1L270.77,33.58L287.69,34.74L296.15,35.02L304.62,37.04L313.08,36.35L321.54,37.28L330,36.86L338.46,37.68L346.92,39.94L355.38,45.7L363.85,53.3L372.31,55.24L380.77,66.4L397.69,79.58L406.15,87.51L414.62,92.79L423.08,94.05L431.54,104.64L440,119.11L440,127.5L431.54,115.48L414.62,99.86L406.15,95.55L397.69,87.29L389.23,77.63L380.77,70.1L372.31,61.71L363.85,56.75L355.38,49.48L346.92,45.38L338.46,41.7L330,41.19L321.54,38.92L313.08,38.63L304.62,39.38L287.69,35.66L279.23,36.44L262.31,34L253.85,37.1L245.38,37.25L236.92,35.5L220,34.64L211.54,35.85L186.15,36.58L177.69,38.9L169.23,39.49L160.77,40.87L152.31,44.14L143.85,50.7L135.38,50.8L126.92,49.9L118.46,57.17L110,58.09L101.54,55.22L93.08,57.02L84.62,63.41L76.15,74.03L67.69,76.74L59.23,86.57L50.77,94.17L42.31,99.8L33.85,111.75L25.38,113.19L16.92,117.4L8.46,122.95L0,117.3Z" style="fill: rgb(245, 245, 245); fill-opacity: 1; stroke-width: 0;"/></g></g><g class="errorbars"/><g class="lines"><path class="js-line" d="M0,117.3L8.46,122.95L16.92,117.4L25.38,113.19L33.85,111.75L42.31,99.8L50.77,94.17L59.23,86.57L67.69,76.74L76.15,74.03L84.62,63.41L93.08,57.02L101.54,55.22L110,58.09L118.46,57.17L126.92,49.9L135.38,50.8L143.85,50.7L152.31,44.14L160.77,40.87L169.23,39.49L177.69,38.9L186.15,36.58L211.54,35.85L220,34.64L236.92,35.5L245.38,37.25L253.85,37.1L262.31,34L279.23,36.44L287.69,35.66L304.62,39.38L313.08,38.63L321.54,38.92L330,41.19L338.46,41.7L346.92,45.38L355.38,49.48L363.85,56.75L372.31,61.71L380.77,70.1L389.23,77.63L397.69,87.29L406.15,95.55L414.62,99.86L431.54,115.48L440,127.5" style="vector-effect: non-scaling-stroke; fill: none; stroke: rgb(0, 0, 0); stroke-opacity: 1; stroke-width: 1px; opacity: 1;"/></g><g class="points"/><g class="text"/></g><g class="trace scatter trace54ff03" style="stroke-miterlimit: 2;"><g class="fills"><g><path class="js-fill" d="M0,105.62L8.46,105.22L16.92,90.13L25.38,93.69L33.85,88.96L42.31,83.22L50.77,67.92L59.23,63.56L67.69,54.95L76.15,41.61L84.62,45.7L101.54,39.64L110,41.35L118.46,38.09L126.92,39.96L135.38,30.82L143.85,32.84L152.31,35.39L160.77,32.2L169.23,31.67L177.69,29.55L186.15,30.72L194.62,29.25L203.08,32.18L211.54,30.4L228.46,28.37L236.92,30.61L245.38,34.01L253.85,29.23L262.31,24.76L270.77,29.97L279.23,28.99L287.69,30.39L296.15,32.63L304.62,34.01L313.08,29.33L321.54,35.51L330,30.82L338.46,34.22L346.92,32.2L355.38,40.71L363.85,50.17L372.31,46.45L380.77,61.11L389.23,64.04L397.69,73.76L406.15,75.36L423.08,83.54L431.54,97.01L440,98.88L440,119.11L431.54,104.64L423.08,94.05L414.62,92.79L406.15,87.51L397.69,79.58L380.77,66.4L372.31,55.24L363.85,53.3L355.38,45.7L346.92,39.94L338.46,37.68L330,36.86L321.54,37.28L313.08,36.35L304.62,37.04L296.15,35.02L287.69,34.74L270.77,33.58L262.31,32.1L253.85,34.18L245.38,35.18L228.46,33.19L220,33.08L211.54,33.96L203.08,33.4L194.62,34.2L186.15,34.54L160.77,38.18L152.31,41.53L110,49.91L101.54,47.27L67.69,69.14L59.23,76.12L50.77,86.76L42.31,90.99L33.85,101.87L25.38,108.28L16.92,110.62L8.46,113.09L0,112Z" style="fill: rgb(216, 179, 101); fill-opacity: 1; stroke-width: 0;"/></g></g><g class="errorbars"/><g class="lines"><path class="js-line" d="M0,112L8.46,113.09L16.92,110.62L25.38,108.28L33.85,101.87L42.31,90.99L50.77,86.76L59.23,76.12L67.69,69.14L101.54,47.27L110,49.91L152.31,41.53L160.77,38.18L186.15,34.54L194.62,34.2L203.08,33.4L211.54,33.96L220,33.08L228.46,33.19L245.38,35.18L253.85,34.18L262.31,32.1L270.77,33.58L287.69,34.74L296.15,35.02L304.62,37.04L313.08,36.35L321.54,37.28L330,36.86L338.46,37.68L346.92,39.94L355.38,45.7L363.85,53.3L372.31,55.24L380.77,66.4L397.69,79.58L406.15,87.51L414.62,92.79L423.08,94.05L431.54,104.64L440,119.11" style="vector-effect: non-scaling-stroke; fill: none; stroke: rgb(0, 0, 0); stroke-opacity: 1; stroke-width: 0.5px; opacity: 1;"/></g><g class="points"/><g class="text"/></g><g class="trace scatter trace30bcd6" style="stroke-miterlimit: 2;"><g class="fills"/><g class="errorbars"/><g class="lines"><path class="js-line" d="M0,105.62L8.46,105.22L16.92,90.13L25.38,93.69L33.85,88.96L42.31,83.22L50.77,67.92L59.23,63.56L67.69,54.95L76.15,41.61L84.62,45.7L101.54,39.64L110,41.35L118.46,38.09L126.92,39.96L135.38,30.82L143.85,32.84L152.31,35.39L160.77,32.2L169.23,31.67L177.69,29.55L186.15,30.72L194.62,29.25L203.08,32.18L211.54,30.4L228.46,28.37L236.92,30.61L245.38,34.01L253.85,29.23L262.31,24.76L270.77,29.97L279.23,28.99L287.69,30.39L296.15,32.63L304.62,34.01L313.08,29.33L321.54,35.51L330,30.82L338.46,34.22L346.92,32.2L355.38,40.71L363.85,50.17L372.31,46.45L380.77,61.11L389.23,64.04L397.69,73.76L406.15,75.36L423.08,83.54L431.54,97.01L440,98.88" style="vector-effect: non-scaling-stroke; fill: none; stroke: rgb(0, 0, 0); stroke-opacity: 1; stroke-width: 0.25px; opacity: 1;"/></g><g class="points"/><g class="text"/></g><g class="trace scatter trace44223c" style="stroke-miterlimit: 2; opacity: 1;"><g class="fills"/><g class="errorbars"/><g class="lines"/><g class="points"><path class="point" transform="translate(253.85,22.32)" d="M4,0A4,4 0 1,1 0,-4A4,4 0 0,1 4,0ZM0,0.5L0.5,0L0,-0.5L-0.5,0Z" style="opacity: 1; stroke: rgb(0, 0, 0); stroke-opacity: 1; stroke-width: 1px; fill: none;"/><path class="point" transform="translate(262.31,37.2)" d="M4,0A4,4 0 1,1 0,-4A4,4 0 0,1 4,0ZM0,0.5L0.5,0L0,-0.5L-0.5,0Z" style="opacity: 1; stroke: rgb(0, 0, 0); stroke-opacity: 1; stroke-width: 1px; fill: none;"/><path class="point" transform="translate(270.77,29.76)" d="M4,0A4,4 0 1,1 0,-4A4,4 0 0,1 4,0ZM0,0.5L0.5,0L0,-0.5L-0.5,0Z" style="opacity: 1; stroke: rgb(0, 0, 0); stroke-opacity: 1; stroke-width: 1px; fill: none;"/><path class="point" transform="translate(279.23,29.76)" d="M4,0A4,4 0 1,1 0,-4A4,4 0 0,1 4,0ZM0,0.5L0.5,0L0,-0.5L-0.5,0Z" style="opacity: 1; stroke: rgb(0, 0, 0); stroke-opacity: 1; stroke-width: 1px; fill: none;"/></g><g class="text"/></g></g></g><g class="overplot"/><path class="xlines-above crisp" d="M0,0" style="fill: none;"/><path class="ylines-above crisp" d="M0,0" style="fill: none;"/><g class="overlines-above"/><g class="xaxislayer-above"><g class="x3tick"><text text-anchor="middle" x="0" y="733" transform="translate(156.15,0)" style="font-family: 'Open Sans', verdana, arial, sans-serif; font-size: 12px; fill: rgb(42, 63, 95); fill-opacity: 1; white-space: pre; opacity: 1;">10</text></g><g class="x3tick"><text text-anchor="middle" x="0" y="733" style="font-family: 'Open Sans', verdana, arial, sans-serif; font-size: 12px; fill: rgb(42, 63, 95); fill-opacity: 1; white-space: pre; opacity: 1;" transform="translate(240.77,0)">20</text></g><g class="x3tick"><text text-anchor="middle" x="0" y="733" style="font-family: 'Open Sans', verdana, arial, sans-serif; font-size: 12px; fill: rgb(42, 63, 95); fill-opacity: 1; white-space: pre; opacity: 1;" transform="translate(325.38,0)">30</text></g><g class="x3tick"><text text-anchor="middle" x="0" y="733" style="font-family: 'Open Sans', verdana, arial, sans-serif; font-size: 12px; fill: rgb(42, 63, 95); fill-opacity: 1; white-space: pre; opacity: 1;" transform="translate(410,0)">40</text></g><g class="x3tick"><text text-anchor="middle" x="0" y="733" style="font-family: 'Open Sans', verdana, arial, sans-serif; font-size: 12px; fill: rgb(42, 63, 95); fill-opacity: 1; white-space: pre; opacity: 1;" transform="translate(494.62,0)">50</text></g></g><g class="yaxislayer-above"><g class="y3tick"><text text-anchor="end" x="79" y="4.199999999999999" transform="translate(0,720)" style="font-family: 'Open Sans', verdana, arial, sans-serif; font-size: 12px; fill: rgb(42, 63, 95); fill-opacity: 1; white-space: pre; opacity: 1;">5</text></g><g class="y3tick"><text text-anchor="end" x="79" y="4.199999999999999" style="font-family: 'Open Sans', verdana, arial, sans-serif; font-size: 12px; fill: rgb(42, 63, 95); fill-opacity: 1; white-space: pre; opacity: 1;" transform="translate(0,682.8)">10</text></g><g class="y3tick"><text text-anchor="end" x="79" y="4.199999999999999" style="font-family: 'Open Sans', verdana, arial, sans-serif; font-size: 12px; fill: rgb(42, 63, 95); fill-opacity: 1; white-space: pre; opacity: 1;" transform="translate(0,645.6)">15</text></g><g class="y3tick"><text text-anchor="end" x="79" y="4.199999999999999" style="font-family: 'Open Sans', verdana, arial, sans-serif; font-size: 12px; fill: rgb(42, 63, 95); fill-opacity: 1; white-space: pre; opacity: 1;" transform="translate(0,608.4)">20</text></g><g class="y3tick"><text text-anchor="end" x="79" y="4.199999999999999" style="font-family: 'Open Sans', verdana, arial, sans-serif; font-size: 12px; fill: rgb(42, 63, 95); fill-opacity: 1; white-space: pre; opacity: 1;" transform="translate(0,571.2)">25</text></g><g class="y3tick"><text text-anchor="end" x="79" y="4.199999999999999" style="font-family: 'Open Sans', verdana, arial, sans-serif; font-size: 12px; fill: rgb(42, 63, 95); fill-opacity: 1; white-space: pre; opacity: 1;" transform="translate(0,534)">30</text></g></g><g class="overaxes-above"/></g></g><g class="polarlayer"/><g class="smithlayer"/><g class="ternarylayer"/><g class="geolayer"/><g class="funnelarealayer"/><g class="pielayer"/><g class="iciclelayer"/><g class="treemaplayer"/><g class="sunburstlayer"/><g class="glimages"/><defs id="topdefs-f0b7e6"><g class="clips"/></defs><g class="layer-above"><g class="imagelayer"/><g class="shapelayer"/></g><g class="infolayer"><g class="g-gtitle"><text class="gtitle" x="30" y="50" text-anchor="start" dy="0em" style="font-family: 'Open Sans', verdana, arial, sans-serif; font-size: 17px; fill: rgb(42, 63, 95); opacity: 1; font-weight: normal; white-space: pre;">Climatology and S2S forecast for Tangail</text></g><g class="g-xtitle"/><g class="g-x2title"/><g class="g-x3title"/><g class="g-ytitle"><text class="ytitle" transform="rotate(-90,34.16875,193)" x="34.16875" y="193" text-anchor="middle" style="font-family: 'Open Sans', verdana, arial, sans-serif; font-size: 14px; fill: rgb(42, 63, 95); opacity: 1; font-weight: normal; white-space: pre;">[mm]</text></g><g class="g-y2title"><text class="y2title" transform="rotate(-90,40.840625,410.00000000000006)" x="40.840625" y="410.00000000000006" text-anchor="middle" style="font-family: 'Open Sans', verdana, arial, sans-serif; font-size: 14px; fill: rgb(42, 63, 95); opacity: 1; font-weight: normal; white-space: pre;">[C]</text></g><g class="g-y3title"><text class="y3title" transform="rotate(-90,40.840625,627)" x="40.840625" y="627" text-anchor="middle" style="font-family: 'Open Sans', verdana, arial, sans-serif; font-size: 14px; fill: rgb(42, 63, 95); opacity: 1; font-weight: normal; white-space: pre;">[C]</text></g><g class="annotation" data-index="0" style="opacity: 1;"><g class="annotation-text-g" transform="rotate(0,300,89.5)"><g class="cursor-pointer" transform="translate(237,79)"><rect class="bg" x="0.5" y="0.5" width="126" height="20" style="stroke-width: 1px; stroke: rgb(0, 0, 0); stroke-opacity: 0; fill: rgb(0, 0, 0); fill-opacity: 0;"/><text class="annotation-text" text-anchor="middle" x="63.359375" y="16" style="font-family: 'Open Sans', verdana, arial, sans-serif; font-size: 16px; fill: rgb(42, 63, 95); fill-opacity: 1; white-space: pre;">Precipitation sum</text></g></g></g><g class="annotation" data-index="1" style="opacity: 1;"><g class="annotation-text-g" transform="rotate(0,300,306.50000000000006)"><g class="cursor-pointer" transform="translate(196,296)"><rect class="bg" x="0.5" y="0.5" width="208" height="20" style="stroke-width: 1px; stroke: rgb(0, 0, 0); stroke-opacity: 0; fill: rgb(0, 0, 0); fill-opacity: 0;"/><text class="annotation-text" text-anchor="middle" x="104.265625" y="16" style="font-family: 'Open Sans', verdana, arial, sans-serif; font-size: 16px; fill: rgb(42, 63, 95); fill-opacity: 1; white-space: pre;">Mean maximum temperature</text></g></g></g><g class="annotation" data-index="2" style="opacity: 1;"><g class="annotation-text-g" transform="rotate(0,300,523.5)"><g class="cursor-pointer" transform="translate(198,513)"><rect class="bg" x="0.5" y="0.5" width="203" height="20" style="stroke-width: 1px; stroke: rgb(0, 0, 0); stroke-opacity: 0; fill: rgb(0, 0, 0); fill-opacity: 0;"/><text class="annotation-text" text-anchor="middle" x="102.046875" y="16" style="font-family: 'Open Sans', verdana, arial, sans-serif; font-size: 16px; fill: rgb(42, 63, 95); fill-opacity: 1; white-space: pre;">Mean minimum temperature</text></g></g></g><g class="annotation" data-index="3" style="opacity: 1;"><g class="annotation-text-g" transform="rotate(0,300,760.5)"><g class="cursor-pointer" transform="translate(277,750)"><rect class="bg" x="0.5" y="0.5" width="45" height="20" style="stroke-width: 1px; stroke: rgb(0, 0, 0); stroke-opacity: 0; fill: rgb(0, 0, 0); fill-opacity: 0;"/><text class="annotation-text" text-anchor="middle" x="22.3125" y="16" style="font-family: 'Open Sans', verdana, arial, sans-serif; font-size: 16px; fill: rgb(42, 63, 95); fill-opacity: 1; white-space: pre;">Week</text></g></g></g></g></svg>