<svg class="main-svg" xmlns="http://www.w3.org/2000/svg" xmlns:xlink="http://www.w3.org/1999/xlink" width="600" height="800" style="" viewBox="0 0 600 800"><rect x="0" y="0" width="600" height="800" style="fill: rgb(255, 255, 255); fill-opacity: 1;"/><defs id="defs-8005b8"><g class="clips"><clipPath id="clip8005b8xyplot" class="plotclip"><rect width="440" height="186.00000000000003"/></clipPath><clipPath id="clip8005b8x2y2plot" class="plotclip"><rect width="440" height="185.99999999999997"/></clipPath><clipPath id="clip8005b8x3y3plot" class="plotclip"><rect width="440" height="186"/></clipPath><clipPath class="axesclip" id="clip8005b8x"><rect x="80" y="0" width="440" height="800"/></clipPath><clipPath class="axesclip" id="clip8005b8y"><rect x="0" y="100" width="600" height="186.00000000000003"/></clipPath><clipPath class="axesclip" id="clip8005b8xy"><rect x="80" y="100" width="440" height="186.00000000000003"/></clipPath><clipPath class="axesclip" id="clip8005b8y2"><rect x="0" y="317.00000000000006" width="600" height="185.99999999999997"/></clipPath><clipPath class="axesclip" id="clip8005b8xy2"><rect x="80" y="317.00000000000006" width="440" height="185.99999999999997"/></clipPath><clipPath class="axesclip" id="clip8005b8y3"><rect x="0" y="534" width="600" height="186"/></clipPath><clipPath class="axesclip" id="clip8005b8xy3"><rect x="80" y="534" width="440" height="186"/></clipPath><clipPath class="axesclip" id="clip8005b8x2"><rect x="80" y="0" width="440" height="800"/></clipPath><clipPath class="axesclip" id="clip8005b8x2y"><rect x="80" y="100" width="440" height="186.00000000000003"/></clipPath><clipPath class="axesclip" id="clip8005b8x2y2"><rect x="80" y="317.00000000000006" width="440" height="185.99999999999997"/></clipPath><clipPath class="axesclip" id="clip8005b8x2y3"><rect x="80" y="534" width="440" height="186"/></clipPath><clipPath class="axesclip" id="clip8005b8x3"><rect x="80" y="0" width="440" height="800"/></clipPath><clipPath class="axesclip" id="clip8005b8x3y"><rect x="80" y="100" width="440" height="186.00000000000003"/></clipPath><clipPath class="axesclip" id="clip8005b8x3y2"><rect x="80" y="317.00000000000006" width="440" height="185.99999999999997"/></clipPath><clipPath class="axesclip" id="clip8005b8x3y3"><rect x="80" y="534" width="440" height="186"/></clipPath></g><g class="gradients"/><g class="patterns"/></defs><g class="bglayer"><rect class="bg" x="80" y="100" width="440" height="186.00000000000003" style="fill: rgb(229, 236, 246); fill-opacity: 1; stroke-width: 0;"/><rect class="bg" x="80" y="317.00000000000006" width="440" height="185.99999999999997" style="fill: rgb(229, 236, 246); fill-opacity: 1; stroke-width: 0;"/><rect class="bg" x="80" y="534" width="440" height="186" style="fill: rgb(229, 236, 246); fill-opacity: 1; stroke-width: 0;"/></g><g class="layer-below"><g class="imagelayer"/><g class="shapelayer"/></g><g class="cartesianlayer"><g class="subplot xy"><g class="layer-subplot"><g class="shapelayer"/><g class="imagelayer"/></g><g class="minor-gridlayer"><g class="x"/><g class="y"/></g><g class="gridlayer"><g class="x"><path class="xgrid crisp" transform="translate(156.15,0)" d="M0,100v186.00000000000003" style="stroke: rgb(255, 255, 255); stroke-opacity: 1; stroke-width: 1px;"/><path class="xgrid crisp" transform="translate(240.77,0)" d="M0,100v186.00000000000003" style="stroke: rgb(255, 255, 255); stroke-opacity: 1; stroke-width: 1px;"/><path class="xgrid crisp" transform="translate(325.38,0)" d="M0,100v186.00000000000003" style="stroke: rgb(255, 255, 255); stroke-opacity: 1; stroke-width: 1px;"/><path class="xgrid crisp" transform="translate(410,0)" d="M0,100v186.00000000000003" style="stroke: rgb(255, 255, 255); stroke-opacity: 1; stroke-width: 1px;"/><path class="xgrid crisp" transform="translate(494.62,0)" d="M0,100v186.00000000000003" style="stroke: rgb(255, 255, 255); stroke-opacity: 1; stroke-width: 1px;"/></g><g class="y"><path class="ygrid crisp" transform="translate(0,248.8)" d="M80,0h440" style="stroke: rgb(255, 255, 255); stroke-opacity: 1; stroke-width: 1px;"/><path class="ygrid crisp" transform="translate(0,211.6)" d="M80,0h440" style="stroke: rgb(255, 255, 255); stroke-opacity: 1; stroke-width: 1px;"/><path class="ygrid crisp" transform="translate(0,174.4)" d="M80,0h440" style="stroke: rgb(255, 255, 255); stroke-opacity: 1; stroke-width: 1px;"/><path class="ygrid crisp" transform="translate(0,137.2)" d="M80,0h440" style="stroke: rgb(255, 255, 255); stroke-opacity: 1; stroke-width: 1px;"/></g></g><g class="zerolinelayer"><path class="yzl zl crisp" transform="translate(0,286)" d="M80,0h440" style="stroke: rgb(255, 255, 255); stroke-opacity: 1; stroke-width: 2px;"/></g><path class="xlines-below"/><path class="ylines-below"/><g class="overlines-below"/><g class="xaxislayer-below"/><g class="yaxislayer-below"/><g class="overaxes-below"/><g class="plot" transform="translate(80,100)" clip-path="url(#clip8005b8xyplot)"><g class="scatterlayer mlayer"><g class="trace scatter tracead7c4e" style="stroke-miterlimit: 2;"><g class="fills"><g><path class="js-fill" d="M0,186L126.92,186L135.38,181.72L143.85,174.49L152.31,183.79L160.77,168.21L169.23,176.04L177.69,175.41L186.15,161.94L194.62,166.07L203.08,162.54L211.54,173.97L220,164.64L228.46,157.35L236.92,158.12L245.38,157.43L253.85,165.47L262.31,160.43L270.77,160.1L279.23,172.14L287.69,176.13L296.15,171.75L304.62,171.61L313.08,168.43L321.54,169.85L330,179.8L338.46,173.15L346.92,184.87L355.38,186L440,186L440,186L346.92,186L338.46,186L321.54,185.27L313.08,180.7L304.62,184.29L296.15,180.64L287.69,185.28L279.23,184.02L270.77,173.74L262.31,180.77L253.85,173.44L245.38,186L236.92,183.21L228.46,180.18L220,180.64L211.54,184.42L203.08,185.28L194.62,185.98L186.15,184.57L177.69,186L0,186Z" style="fill: rgb(224, 236, 244); fill-opacity: 1; stroke-width: 0;"/></g></g><g class="errorbars"/><g class="lines"><path class="js-line" d="M0,186L177.69,186L186.15,184.57L194.62,185.98L203.08,185.28L211.54,184.42L220,180.64L228.46,180.18L236.92,183.21L245.38,186L253.85,173.44L262.31,180.77L270.77,173.74L279.23,184.02L287.69,185.28L296.15,180.64L304.62,184.29L313.08,180.7L321.54,185.27L338.46,186L346.92,186L440,186" style="vector-effect: non-scaling-stroke; fill: none; stroke: rgb(0, 0, 0); stroke-opacity: 1; stroke-width: 0.25px; opacity: 1;"/></g><g class="points"/><g class="text"/></g><g class="trace scatter traceaa2158" style="stroke-miterlimit: 2;"><g class="fills"><g><path class="js-fill" d="M0,186L101.54,186L110,174.73L118.46,184.19L126.92,183.11L135.38,173.16L143.85,158.99L152.31,163.6L160.77,158.95L169.23,149.12L177.69,156.86L186.15,138.21L194.62,148.43L203.08,141.12L211.54,128.27L220,129.86L228.46,139L236.92,137.32L245.38,145.62L253.85,146.51L262.31,133.83L270.77,153.15L279.23,157.9L296.15,152.74L304.62,156.67L313.08,157.54L321.54,150.32L330,158.77L338.46,162.96L346.92,179.21L355.38,184.85L363.85,185.9L372.31,186L440,186L440,186L355.38,186L346.92,184.87L338.46,173.15L330,179.8L321.54,169.85L313.08,168.43L304.62,171.61L296.15,171.75L287.69,176.13L279.23,172.14L270.77,160.1L262.31,160.43L253.85,165.47L245.38,157.43L236.92,158.12L228.46,157.35L220,164.64L211.54,173.97L203.08,162.54L194.62,166.07L186.15,161.94L177.69,175.41L169.23,176.04L160.77,168.21L152.31,183.79L143.85,174.49L135.38,181.72L126.92,186L0,186Z" style="fill: rgb(158, 188, 218); fill-opacity: 1; stroke-width: 0;"/></g></g><g class="errorbars"/><g class="lines"><path class="js-line" d="M0,186L126.92,186L135.38,181.72L143.85,174.49L152.31,183.79L160.77,168.21L169.23,176.04L177.69,175.41L186.15,161.94L194.62,166.07L203.08,162.54L211.54,173.97L220,164.64L228.46,157.35L236.92,158.12L245.38,157.43L253.85,165.47L262.31,160.43L270.77,160.1L279.23,172.14L287.69,176.13L296.15,171.75L304.62,171.61L313.08,168.43L321.54,169.85L330,179.8L338.46,173.15L346.92,184.87L355.38,186L440,186" style="vector-effect: non-scaling-stroke; fill: none; stroke: rgb(0, 0, 0); stroke-opacity: 1; stroke-width: 0.5px; opacity: 1;"/></g><g class="points"/><g class="text"/></g><g class="trace scatter trace234a3e" style="stroke-miterlimit: 2;"><g class="fills"><g><path class="js-fill" d="M0,186L42.31,185.97L50.77,183.14L67.69,185.85L76.15,185.07L84.62,182.3L93.08,181.35L101.54,174.97L110,162.21L118.46,164.79L126.92,173.1L135.38,155.54L143.85,144.25L152.31,153.65L160.77,138.6L169.23,128.66L177.69,102.03L186.15,100.88L194.62,104.22L203.08,131.38L211.54,64.03L220,119.61L228.46,89.86L236.92,106.63L245.38,109.79L253.85,103.23L262.31,94.26L270.77,135.48L279.23,144.97L287.69,144.58L296.15,136.23L304.62,127.22L313.08,128.74L321.54,110.84L330,127.48L355.38,171.56L363.85,175.75L372.31,185.15L380.77,184.85L389.23,186L397.69,186L440,186L440,186L372.31,186L363.85,185.9L355.38,184.85L346.92,179.21L338.46,162.96L330,158.77L321.54,150.32L313.08,157.54L304.62,156.67L296.15,152.74L279.23,157.9L270.77,153.15L262.31,133.83L253.85,146.51L245.38,145.62L236.92,137.32L228.46,139L220,129.86L211.54,128.27L203.08,141.12L194.62,148.43L186.15,138.21L177.69,156.86L169.23,149.12L160.77,158.95L152.31,163.6L143.85,158.99L135.38,173.16L126.92,183.11L118.46,184.19L110,174.73L101.54,186L0,186Z" style="fill: rgb(158, 188, 218); fill-opacity: 1; stroke-width: 0;"/></g></g><g class="errorbars"/><g class="lines"><path class="js-line" d="M0,186L101.54,186L110,174.73L118.46,184.19L126.92,183.11L135.38,173.16L143.85,158.99L152.31,163.6L160.77,158.95L169.23,149.12L177.69,156.86L186.15,138.21L194.62,148.43L203.08,141.12L211.54,128.27L220,129.86L228.46,139L236.92,137.32L245.38,145.62L253.85,146.51L262.31,133.83L270.77,153.15L279.23,157.9L296.15,152.74L304.62,156.67L313.08,157.54L321.54,150.32L330,158.77L338.46,162.96L346.92,179.21L355.38,184.85L363.85,185.9L372.31,186L440,186" style="vector-effect: non-scaling-stroke; fill: none; stroke: rgb(0, 0, 0); stroke-opacity: 1; stroke-width: 1px; opacity: 1;"/></g><g class="points"/><g class="text"/></g><g class="trace scatter trace0067b2" style="stroke-miterlimit: 2;"><g class="fills"><g><path class="js-fill" d="M0,186L42.31,185.96L50.77,179.51L59.23,184.3L67.69,185.85L76.15,185.06L84.62,178.48L93.08,179.3L101.54,163.7L110,147.62L118.46,150.01L126.92,155.25L135.38,131.36L143.85,105.98L152.31,141.42L160.77,121.01L169.23,68.6L177.69,29.03L186.15,36.01L194.62,29.1L203.08,99.76L211.54,-17.78L220,52.44L228.46,24.28L236.92,45.95L245.38,86.47L253.85,60.62L262.31,46.96L270.77,126.37L279.23,116.12L287.69,120.13L296.15,93.34L304.62,94.63L313.08,78.38L321.54,65.47L330,89.2L338.46,107.73L346.92,126.52L355.38,154.21L363.85,165.82L372.31,185.09L380.77,184.46L389.23,186L440,186L440,186L397.69,186L389.23,186L380.77,184.85L372.31,185.15L363.85,175.75L355.38,171.56L330,127.48L321.54,110.84L313.08,128.74L304.62,127.22L296.15,136.23L287.69,144.58L279.23,144.97L270.77,135.48L262.31,94.26L253.85,103.23L245.38,109.79L236.92,106.63L228.46,89.86L220,119.61L211.54,64.03L203.08,131.38L194.62,104.22L186.15,100.88L177.69,102.03L169.23,128.66L160.77,138.6L152.31,153.65L143.85,144.25L135.38,155.54L126.92,173.1L118.46,164.79L110,162.21L101.54,174.97L93.08,181.35L84.62,182.3L76.15,185.07L67.69,185.85L50.77,183.14L42.31,185.97L0,186Z" style="fill: rgb(136, 86, 167); fill-opacity: 1; stroke-width: 0;"/></g></g><g class="errorbars"/><g class="lines"><path class="js-line" d="M0,186L42.31,185.97L50.77,183.14L67.69,185.85L76.15,185.07L84.62,182.3L93.08,181.35L101.54,174.97L110,162.21L118.46,164.79L126.92,173.1L135.38,155.54L143.85,144.25L152.31,153.65L160.77,138.6L169.23,128.66L177.69,102.03L186.15,100.88L194.62,104.22L203.08,131.38L211.54,64.03L220,119.61L228.46,89.86L236.92,106.63L245.38,109.79L253.85,103.23L262.31,94.26L270.77,135.48L279.23,144.97L287.69,144.58L296.15,136.23L304.62,127.22L313.08,128.74L321.54,110.84L330,127.48L355.38,171.56L363.85,175.75L372.31,185.15L380.77,184.85L389.23,186L397.69,186L440,186" style="vector-effect: non-scaling-stroke; fill: none; stroke: rgb(0, 0, 0); stroke-opacity: 1; stroke-width: 0.5px; opacity: 1;"/></g><g class="points"/><g class="text"/></g><g class="trace scatter traceff879a" style="stroke-miterlimit: 2;"><g class="fills"/><g class="errorbars"/><g class="lines"><path class="js-line" d="M0,186L42.31,185.96L50.77,179.51L59.23,184.3L67.69,185.85L76.15,185.06L84.62,178.48L93.08,179.3L101.54,163.7L110,147.62L118.46,150.01L126.92,155.25L135.38,131.36L143.85,105.98L152.31,141.42L160.77,121.01L169.23,68.6L177.69,29.03L186.15,36.01L194.62,29.1L203.08,99.76L211.54,-17.78L220,52.44L228.46,24.28L236.92,45.95L245.38,86.47L253.85,60.62L262.31,46.96L270.77,126.37L279.23,116.12L287.69,120.13L296.15,93.34L304.62,94.63L313.08,78.38L321.54,65.47L330,89.2L338.46,107.73L346.92,126.52L355.38,154.21L363.85,165.82L372.31,185.09L380.77,184.46L389.23,186L440,186" style="vector-effect: non-scaling-stroke; fill: none; stroke: rgb(0, 0, 0); stroke-opacity: 1; stroke-width: 0.25px; opacity: 1;"/></g><g class="points"/><g class="text"/></g><g class="trace scatter trace8c44e2" style="stroke-miterlimit: 2; opacity: 1;"><g class="fills"/><g class="errorbars"/><g class="lines"/><g class="points"><path class="point" transform="translate(203.08,183.77)" d="M4,0A4,4 0 1,1 0,-4A4,4 0 0,1 4,0ZM0,0.5L0.5,0L0,-0.5L-0.5,0Z" style="opacity: 1; stroke: rgb(0, 0, 0); stroke-opacity: 1; stroke-width: 1px; fill: none;"/><path class="point" transform="translate(211.54,186)" d="M4,0A4,4 0 1,1 0,-4A4,4 0 0,1 4,0ZM0,0.5L0.5,0L0,-0.5L-0.5,0Z" style="opacity: 1; stroke: rgb(0, 0, 0); stroke-opacity: 1; stroke-width: 1px; fill: none;"/><path class="point" transform="translate(220,186)" d="M4,0A4,4 0 1,1 0,-4A4,4 0 0,1 4,0ZM0,0.5L0.5,0L0,-0.5L-0.5,0Z" style="opacity: 1; stroke: rgb(0, 0, 0); stroke-opacity: 1; stroke-width: 1px; fill: none;"/><path class="point" transform="translate(228.46,186)" d="M4,0A4,4 0 1,1 0,-4A4,4 0 0,1 4,0ZM0,0.5L0.5,0L0,-0.5L-0.5,0Z" style="opacity: 1; stroke: rgb(0, 0, 0); stroke-opacity: 1; stroke-width: 1px; fill: none;"/></g><g class="text"/></g></g></g><g class="overplot"/><path class="xlines-above crisp" d="M0,0" style="fill: none;"/><path class="ylines-above crisp" d="M0,0" style="fill: none;"/><g class="overlines-above"/><g class="xaxislayer-above"/><g class="yaxislayer-above"><g class="ytick"><text text-anchor="end" x="79" y="4.199999999999999" transform="translate(0,286)" style="font-family: 'Open Sans', verdana, arial, sans-serif; font-size: 12px; fill: rgb(42, 63, 95); fill-opacity: 1; white-space: pre; opacity: 1;">0</text></g><g class="ytick"><text text-anchor="end" x="79" y="4.199999999999999" style="font-family: 'Open Sans', verdana, arial, sans-serif; font-size: 12px; fill: rgb(42, 63, 95); fill-opacity: 1; white-space: pre; opacity: 1;" transform="translate(0,248.8)">50</text></g><g class="ytick"><text text-anchor="end" x="79" y="4.199999999999999" style="font-family: 'Open Sans', verdana, arial, sans-serif; font-size: 12px; fill: rgb(42, 63, 95); fill-opacity: 1; white-space: pre; opacity: 1;" transform="translate(0,211.6)">100</text></g><g class="ytick"><text text-anchor="end" x="79" y="4.199999999999999" style="font-family: 'Open Sans', verdana, arial, sans-serif; font-size: 12px; fill: rgb(42, 63, 95); fill-opacity: 1; white-space: pre; opacity: 1;" transform="translate(0,174.4)">150</text></g><g class="ytick"><text text-anchor="end" x="79" y="4.199999999999999" style="font-family: 'Open Sans', verdana, arial, sans-serif; font-size: 12px; fill: rgb(42, 63, 95); fill-opacity: 1; white-space: pre; opacity: 1;" transform="translate(0,137.2)">200</text></g><g class="ytick"><text text-anchor="end" x="79" y="4.199999999999999" style="font-family: 'Open Sans', verdana, arial, sans-serif; font-size: 12px; fill: rgb(42, 63, 95); fill-opacity: 1; white-space: pre; opacity: 1;" transform="translate(0,100)">250</text></g></g><g class="overaxes-above"/></g><g class="subplot x2y2"><g class="layer-subplot"><g class="shapelayer"/><g class="imagelayer"/></g><g class="minor-gridlayer"><g class="x2"/><g class="y2"/></g><g class="gridlayer"><g class="x2"><path class="x2grid crisp" transform="translate(156.15,0)" d="M0,317.00000000000006v185.99999999999997" style="stroke: rgb(255, 255, 255); stroke-opacity: 1; stroke-width: 1px;"/><path class="x2grid crisp" transform="translate(240.77,0)" d="M0,317.00000000000006v185.99999999999997" style="stroke: rgb(255, 255, 255); stroke-opacity: 1; stroke-width: 1px;"/><path class="x2grid crisp" transform="translate(325.38,0)" d="M0,317.00000000000006v185.99999999999997" style="stroke: rgb(255, 255, 255); stroke-opacity: 1; stroke-width: 1px;"/><path class="x2grid crisp" transform="translate(410,0)" d="M0,317.00000000000006v185.99999999999997" style="stroke: rgb(255, 255, 255); stroke-opacity: 1; stroke-width: 1px;"/><path class="x2grid crisp" transform="translate(494.62,0)" d="M0,317.00000000000006v185.99999999999997" style="stroke: rgb(255, 255, 255); stroke-opacity: 1; stroke-width: 1px;"/></g><g class="y2"><path class="y2grid crisp" transform="translate(0,472.00000000000006)" d="M80,0h440" style="stroke: rgb(255, 255, 255); stroke-opacity: 1; stroke-width: 1px;"/><path class="y2grid crisp" transform="translate(0,410.00000000000006)" d="M80,0h440" style="stroke: rgb(255, 255, 255); stroke-opacity: 1; stroke-width: 1px;"/><path class="y2grid crisp" transform="translate(0,348.00000000000006)" d="M80,0h440" style="stroke: rgb(255, 255, 255); stroke-opacity: 1; stroke-width: 1px;"/></g></g><g class="zerolinelayer"/><path class="xlines-below"/><path class="ylines-below"/><g class="overlines-below"/><g class="xaxislayer-below"/><g class="yaxislayer-below"/><g class="overaxes-below"/><g class="plot" transform="translate(80,317.00000000000006)" clip-path="url(#clip8005b8x2y2plot)"><g class="scatterlayer mlayer"><g class="trace scatter trace6faaec" style="stroke-miterlimit: 2;"><g class="fills"><g><path class="js-fill" d="M0,143.11L8.46,145.9L16.92,133.23L25.38,130.51L33.85,122.62L42.31,113.11L50.77,106.35L59.23,97.19L67.69,90.53L76.15,85.56L84.62,73.38L93.08,76.47L101.54,81.69L110,84.54L118.46,80.16L126.92,80.58L135.38,84.19L143.85,87.13L152.31,81.49L160.77,88.01L169.23,84.27L177.69,89.76L186.15,92.34L194.62,96.72L203.08,93.61L211.54,97.59L220,95.12L228.46,94.27L236.92,99.89L245.38,96L253.85,95.74L270.77,98.15L279.23,97.27L287.69,95.73L296.15,96.16L304.62,93.79L313.08,99.58L321.54,96.24L330,93.82L338.46,97L346.92,95.37L355.38,91.56L363.85,93.52L372.31,96.23L380.77,100.84L389.23,107.43L397.69,116.05L406.15,126.99L414.62,128.75L423.08,138.51L431.54,140.88L440,145.91L440,147.55L431.54,145.1L423.08,153.95L414.62,136.88L406.15,141.12L397.69,125.1L389.23,113.34L380.77,107.56L372.31,99.63L363.85,102.63L355.38,103.63L346.92,108.94L338.46,100.94L330,104.52L321.54,102.51L313.08,111.68L304.62,99.81L296.15,106.36L287.69,100.61L279.23,102.36L270.77,105.94L262.31,107.41L253.85,105.48L245.38,99.73L236.92,107.43L228.46,97.84L220,103.62L211.54,105.8L203.08,102.64L194.62,105.21L186.15,99.42L177.69,93.52L160.77,96.65L152.31,93.52L143.85,96.65L135.38,99.45L126.92,93.94L118.46,96.14L110,91.79L101.54,95.48L93.08,88.95L84.62,89.39L76.15,97.59L67.69,104.85L59.23,114.29L50.77,122.86L33.85,137.18L25.38,132.53L16.92,147.86L8.46,160.34L0,160.7Z" style="fill: rgb(145, 191, 219); fill-opacity: 1; stroke-width: 0;"/></g></g><g class="errorbars"/><g class="lines"><path class="js-line" d="M0,160.7L8.46,160.34L16.92,147.86L25.38,132.53L33.85,137.18L50.77,122.86L59.23,114.29L67.69,104.85L76.15,97.59L84.62,89.39L93.08,88.95L101.54,95.48L110,91.79L118.46,96.14L126.92,93.94L135.38,99.45L143.85,96.65L152.31,93.52L160.77,96.65L177.69,93.52L186.15,99.42L194.62,105.21L203.08,102.64L211.54,105.8L220,103.62L228.46,97.84L236.92,107.43L245.38,99.73L253.85,105.48L262.31,107.41L270.77,105.94L279.23,102.36L287.69,100.61L296.15,106.36L304.62,99.81L313.08,111.68L321.54,102.51L330,104.52L338.46,100.94L346.92,108.94L355.38,103.63L363.85,102.63L372.31,99.63L380.77,107.56L389.23,113.34L397.69,125.1L406.15,141.12L414.62,136.88L423.08,153.95L431.54,145.1L440,147.55" style="vector-effect: non-scaling-stroke; fill: none; stroke: rgb(0, 0, 0); stroke-opacity: 1; stroke-width: 0.25px; opacity: 1;"/></g><g class="points"/><g class="text"/></g><g class="trace scatter trace29d16b" style="stroke-miterlimit: 2;"><g class="fills"><g><path class="js-fill" d="M0,134.15L8.46,138.12L16.92,128.43L25.38,124.65L33.85,117.48L42.31,105.62L50.77,98.03L59.23,88.9L67.69,78.22L76.15,77.83L84.62,67.13L93.08,61.07L101.54,68.39L110,74.87L118.46,70.52L126.92,75.59L135.38,77.94L143.85,82.11L152.31,76.3L160.77,80.65L169.23,80.84L186.15,85.09L194.62,88.54L211.54,92.08L220,91.88L228.46,91.57L236.92,94.62L245.38,88.76L253.85,92.87L262.31,91.83L270.77,92.34L279.23,91.81L287.69,92.08L296.15,93.91L304.62,90.71L313.08,92.4L321.54,89.58L330,90.44L338.46,89.47L355.38,84.86L363.85,90.45L372.31,92.09L380.77,97.3L389.23,103.83L397.69,109.38L406.15,120.02L414.62,123.61L423.08,128.7L431.54,135.1L440,132.61L440,145.91L431.54,140.88L423.08,138.51L414.62,128.75L406.15,126.99L397.69,116.05L389.23,107.43L380.77,100.84L372.31,96.23L363.85,93.52L355.38,91.56L346.92,95.37L338.46,97L330,93.82L321.54,96.24L313.08,99.58L304.62,93.79L296.15,96.16L287.69,95.73L279.23,97.27L270.77,98.15L253.85,95.74L245.38,96L236.92,99.89L228.46,94.27L220,95.12L211.54,97.59L203.08,93.61L194.62,96.72L186.15,92.34L177.69,89.76L169.23,84.27L160.77,88.01L152.31,81.49L143.85,87.13L135.38,84.19L126.92,80.58L118.46,80.16L110,84.54L101.54,81.69L93.08,76.47L84.62,73.38L76.15,85.56L67.69,90.53L59.23,97.19L50.77,106.35L42.31,113.11L33.85,122.62L25.38,130.51L16.92,133.23L8.46,145.9L0,143.11Z" style="fill: rgb(255, 255, 191); fill-opacity: 1; stroke-width: 0;"/></g></g><g class="errorbars"/><g class="lines"><path class="js-line" d="M0,143.11L8.46,145.9L16.92,133.23L25.38,130.51L33.85,122.62L42.31,113.11L50.77,106.35L59.23,97.19L67.69,90.53L76.15,85.56L84.62,73.38L93.08,76.47L101.54,81.69L110,84.54L118.46,80.16L126.92,80.58L135.38,84.19L143.85,87.13L152.31,81.49L160.77,88.01L169.23,84.27L177.69,89.76L186.15,92.34L194.62,96.72L203.08,93.61L211.54,97.59L220,95.12L228.46,94.27L236.92,99.89L245.38,96L253.85,95.74L270.77,98.15L279.23,97.27L287.69,95.73L296.15,96.16L304.62,93.79L313.08,99.58L321.54,96.24L330,93.82L338.46,97L346.92,95.37L355.38,91.56L363.85,93.52L372.31,96.23L380.77,100.84L389.23,107.43L397.69,116.05L406.15,126.99L414.62,128.75L423.08,138.51L431.54,140.88L440,145.91" style="vector-effect: non-scaling-stroke; fill: none; stroke: rgb(0, 0, 0); stroke-opacity: 1; stroke-width: 0.5px; opacity: 1;"/></g><g class="points"/><g class="text"/></g><g class="trace scatter trace0992ab" style="stroke-miterlimit: 2;"><g class="fills"><g><path class="js-fill" d="M0,130.03L8.46,127.63L16.92,123.44L25.38,120.59L33.85,112.42L50.77,90.96L59.23,84.19L67.69,70.82L76.15,67.03L84.62,62.12L93.08,55.56L101.54,56.35L110,59.99L118.46,63.59L126.92,62.57L135.38,60.43L143.85,70.44L152.31,68.95L160.77,69.49L169.23,74.21L177.69,73.95L186.15,80.66L194.62,83.63L203.08,86.21L211.54,84.8L220,83.48L228.46,87L245.38,85.17L253.85,87.85L262.31,84.32L270.77,87.66L279.23,87.51L287.69,90.33L296.15,85.74L304.62,85.96L313.08,87.68L321.54,83.8L330,80.56L338.46,82.3L346.92,80.65L355.38,82.25L363.85,84.79L372.31,90.42L380.77,95.61L389.23,98.44L397.69,104.26L406.15,113.8L414.62,115.85L423.08,121.56L431.54,125.1L440,120.65L440,132.61L431.54,135.1L423.08,128.7L414.62,123.61L406.15,120.02L397.69,109.38L389.23,103.83L380.77,97.3L372.31,92.09L363.85,90.45L355.38,84.86L338.46,89.47L330,90.44L321.54,89.58L313.08,92.4L304.62,90.71L296.15,93.91L287.69,92.08L279.23,91.81L270.77,92.34L262.31,91.83L253.85,92.87L245.38,88.76L236.92,94.62L228.46,91.57L220,91.88L211.54,92.08L194.62,88.54L186.15,85.09L169.23,80.84L160.77,80.65L152.31,76.3L143.85,82.11L135.38,77.94L126.92,75.59L118.46,70.52L110,74.87L101.54,68.39L93.08,61.07L84.62,67.13L76.15,77.83L67.69,78.22L59.23,88.9L50.77,98.03L42.31,105.62L33.85,117.48L25.38,124.65L16.92,128.43L8.46,138.12L0,134.15Z" style="fill: rgb(255, 255, 191); fill-opacity: 1; stroke-width: 0;"/></g></g><g class="errorbars"/><g class="lines"><path class="js-line" d="M0,134.15L8.46,138.12L16.92,128.43L25.38,124.65L33.85,117.48L42.31,105.62L50.77,98.03L59.23,88.9L67.69,78.22L76.15,77.83L84.62,67.13L93.08,61.07L101.54,68.39L110,74.87L118.46,70.52L126.92,75.59L135.38,77.94L143.85,82.11L152.31,76.3L160.77,80.65L169.23,80.84L186.15,85.09L194.62,88.54L211.54,92.08L220,91.88L228.46,91.57L236.92,94.62L245.38,88.76L253.85,92.87L262.31,91.83L270.77,92.34L279.23,91.81L287.69,92.08L296.15,93.91L304.62,90.71L313.08,92.4L321.54,89.58L330,90.44L338.46,89.47L355.38,84.86L363.85,90.45L372.31,92.09L380.77,97.3L389.23,103.83L397.69,109.38L406.15,120.02L414.62,123.61L423.08,128.7L431.54,135.1L440,132.61" style="vector-effect: non-scaling-stroke; fill: none; stroke: rgb(0, 0, 0); stroke-opacity: 1; stroke-width: 1px; opacity: 1;"/></g><g class="points"/><g class="text"/></g><g class="trace scatter traceea2ae9" style="stroke-miterlimit: 2;"><g class="fills"><g><path class="js-fill" d="M0,113.63L8.46,115.84L16.92,112.89L25.38,114.26L33.85,105.05L42.31,83.62L50.77,82.29L59.23,73.03L67.69,62.49L84.62,47.82L93.08,51.5L101.54,46.54L110,42.87L118.46,51L126.92,52.3L135.38,27.76L143.85,63.8L152.31,55.6L160.77,48.54L169.23,66.4L177.69,59.57L186.15,63.87L194.62,74.59L203.08,77.38L211.54,69.86L220,69.48L228.46,76.33L236.92,72.74L245.38,73.74L253.85,76.19L262.31,72.71L270.77,74.04L279.23,79.79L287.69,82.74L296.15,70.56L304.62,75.8L313.08,74.25L321.54,74.25L330,69.52L338.46,64.64L346.92,63.33L355.38,76.61L363.85,76.54L380.77,90.47L389.23,95.63L397.69,95.14L406.15,100.13L414.62,107.64L423.08,113.35L431.54,117.48L440,117.1L440,120.65L431.54,125.1L423.08,121.56L414.62,115.85L406.15,113.8L397.69,104.26L389.23,98.44L380.77,95.61L372.31,90.42L363.85,84.79L355.38,82.25L346.92,80.65L338.46,82.3L330,80.56L321.54,83.8L313.08,87.68L304.62,85.96L296.15,85.74L287.69,90.33L279.23,87.51L270.77,87.66L262.31,84.32L253.85,87.85L245.38,85.17L228.46,87L220,83.48L211.54,84.8L203.08,86.21L194.62,83.63L186.15,80.66L177.69,73.95L169.23,74.21L160.77,69.49L152.31,68.95L143.85,70.44L135.38,60.43L126.92,62.57L118.46,63.59L110,59.99L101.54,56.35L93.08,55.56L84.62,62.12L76.15,67.03L67.69,70.82L59.23,84.19L50.77,90.96L33.85,112.42L25.38,120.59L16.92,123.44L8.46,127.63L0,130.03Z" style="fill: rgb(252, 141, 89); fill-opacity: 1; stroke-width: 0;"/></g></g><g class="errorbars"/><g class="lines"><path class="js-line" d="M0,130.03L8.46,127.63L16.92,123.44L25.38,120.59L33.85,112.42L50.77,90.96L59.23,84.19L67.69,70.82L76.15,67.03L84.62,62.12L93.08,55.56L101.54,56.35L110,59.99L118.46,63.59L126.92,62.57L135.38,60.43L143.85,70.44L152.31,68.95L160.77,69.49L169.23,74.21L177.69,73.95L186.15,80.66L194.62,83.63L203.08,86.21L211.54,84.8L220,83.48L228.46,87L245.38,85.17L253.85,87.85L262.31,84.32L270.77,87.66L279.23,87.51L287.69,90.33L296.15,85.74L304.62,85.96L313.08,87.68L321.54,83.8L330,80.56L338.46,82.3L346.92,80.65L355.38,82.25L363.85,84.79L372.31,90.42L380.77,95.61L389.23,98.44L397.69,104.26L406.15,113.8L414.62,115.85L423.08,121.56L431.54,125.1L440,120.65" style="vector-effect: non-scaling-stroke; fill: none; stroke: rgb(0, 0, 0); stroke-opacity: 1; stroke-width: 0.5px; opacity: 1;"/></g><g class="points"/><g class="text"/></g><g class="trace scatter traceb9e6e2" style="stroke-miterlimit: 2;"><g class="fills"/><g class="errorbars"/><g class="lines"><path class="js-line" d="M0,113.63L8.46,115.84L16.92,112.89L25.38,114.26L33.85,105.05L42.31,83.62L50.77,82.29L59.23,73.03L67.69,62.49L84.62,47.82L93.08,51.5L101.54,46.54L110,42.87L118.46,51L126.92,52.3L135.38,27.76L143.85,63.8L152.31,55.6L160.77,48.54L169.23,66.4L177.69,59.57L186.15,63.87L194.62,74.59L203.08,77.38L211.54,69.86L220,69.48L228.46,76.33L236.92,72.74L245.38,73.74L253.85,76.19L262.31,72.71L270.77,74.04L279.23,79.79L287.69,82.74L296.15,70.56L304.62,75.8L313.08,74.25L321.54,74.25L330,69.52L338.46,64.64L346.92,63.33L355.38,76.61L363.85,76.54L380.77,90.47L389.23,95.63L397.69,95.14L406.15,100.13L414.62,107.64L423.08,113.35L431.54,117.48L440,117.1" style="vector-effect: non-scaling-stroke; fill: none; stroke: rgb(0, 0, 0); stroke-opacity: 1; stroke-width: 0.25px; opacity: 1;"/></g><g class="points"/><g class="text"/></g><g class="trace scatter traceb4c9ea" style="stroke-miterlimit: 2; opacity: 1;"><g class="fills"/><g class="errorbars"/><g class="lines"/><g class="points"><path class="point" transform="translate(203.08,49.6)" d="M4,0A4,4 0 1,1 0,-4A4,4 0 0,1 4,0ZM0,0.5L0.5,0L0,-0.5L-0.5,0Z" style="opacity: 1; stroke: rgb(0, 0, 0); stroke-opacity: 1; stroke-width: 1px; fill: none;"/><path class="point" transform="translate(211.54,86.8)" d="M4,0A4,4 0 1,1 0,-4A4,4 0 0,1 4,0ZM0,0.5L0.5,0L0,-0.5L-0.5,0Z" style="opacity: 1; stroke: rgb(0, 0, 0); stroke-opacity: 1; stroke-width: 1px; fill: none;"/><path class="point" transform="translate(220,74.4)" d="M4,0A4,4 0 1,1 0,-4A4,4 0 0,1 4,0ZM0,0.5L0.5,0L0,-0.5L-0.5,0Z" style="opacity: 1; stroke: rgb(0, 0, 0); stroke-opacity: 1; stroke-width: 1px; fill: none;"/><path class="point" transform="translate(228.46,74.4)" d="M4,0A4,4 0 1,1 0,-4A4,4 0 0,1 4,0ZM0,0.5L0.5,0L0,-0.5L-0.5,0Z" style="opacity: 1; stroke: rgb(0, 0, 0); stroke-opacity: 1; stroke-width: 1px; fill: none;"/></g><g class="text"/></g></g></g><g class="overplot"/><path class="xlines-above crisp" d="M0,0" style="fill: none;"/><path class="ylines-above crisp" d="M0,0" style="fill: none;"/><g class="overlines-above"/><g class="xaxislayer-above"/><g class="yaxislayer-above"><g class="y2tick"><text text-anchor="end" x="79" y="4.199999999999999" transform="translate(0,472.00000000000006)" style="font-family: 'Open Sans', verdana, arial, sans-serif; font-size: 12px; fill: rgb(42, 63, 95); fill-opacity: 1; white-space: pre; opacity: 1;">20</text></g><g class="y2tick"><text text-anchor="end" x="79" y="4.199999999999999" style="font-family: 'Open Sans', verdana, arial, sans-serif; font-size: 12px; fill: rgb(42, 63, 95); fill-opacity: 1; white-space: pre; opacity: 1;" transform="translate(0,410.00000000000006)">30</text></g><g class="y2tick"><text text-anchor="end" x="79" y="4.199999999999999" style="font-family: 'Open Sans', verdana, arial, sans-serif; font-size: 12px; fill: rgb(42, 63, 95); fill-opacity: 1; white-space: pre; opacity: 1;" transform="translate(0,348.00000000000006)">40</text></g></g><g class="overaxes-above"/></g><g class="subplot x3y3"><g class="layer-subplot"><g class="shapelayer"/><g class="imagelayer"/></g><g class="minor-gridlayer"><g class="x3"/><g class="y3"/></g><g class="gridlayer"><g class="x3"><path class="x3grid crisp" transform="translate(156.15,0)" d="M0,534v186" style="stroke: rgb(255, 255, 255); stroke-opacity: 1; stroke-width: 1px;"/><path class="x3grid crisp" transform="translate(240.77,0)" d="M0,534v186" style="stroke: rgb(255, 255, 255); stroke-opacity: 1; stroke-width: 1px;"/><path class="x3grid crisp" transform="translate(325.38,0)" d="M0,534v186" style="stroke: rgb(255, 255, 255); stroke-opacity: 1; stroke-width: 1px;"/><path class="x3grid crisp" transform="translate(410,0)" d="M0,534v186" style="stroke: rgb(255, 255, 255); stroke-opacity: 1; stroke-width: 1px;"/><path class="x3grid crisp" transform="translate(494.62,0)" d="M0,534v186" style="stroke: rgb(255, 255, 255); stroke-opacity: 1; stroke-width: 1px;"/></g><g class="y3"><path class="y3grid crisp" transform="translate(0,682.8)" d="M80,0h440" style="stroke: rgb(255, 255, 255); stroke-opacity: 1; stroke-width: 1px;"/><path class="y3grid crisp" transform="translate(0,645.6)" d="M80,0h440" style="stroke: rgb(255, 255, 255); stroke-opacity: 1; stroke-width: 1px;"/><path class="y3grid crisp" transform="translate(0,608.4)" d="M80,0h440" style="stroke: rgb(255, 255, 255); stroke-opacity: 1; stroke-width: 1px;"/><path class="y3grid crisp" transform="translate(0,571.2)" d="M80,0h440" style="stroke: rgb(255, 255, 255); stroke-opacity: 1; stroke-width: 1px;"/></g></g><g class="zerolinelayer"/><path class="xlines-below"/><path class="ylines-below"/><g class="overlines-below"/><g class="xaxislayer-below"/><g class="yaxislayer-below"/><g class="overaxes-below"/><g class="plot" transform="translate(80,534)" clip-path="url(#clip8005b8x3y3plot)"><g class="scatterlayer mlayer"><g class="trace scatter trace090074" style="stroke-miterlimit: 2;"><g class="fills"><g><path class="js-fill" d="M0,119.45L8.46,125.38L16.92,121.66L25.38,122.51L33.85,117.62L42.31,104.66L50.77,97.49L59.23,93.74L67.69,77.39L76.15,74.94L84.62,67.93L93.08,65.04L101.54,60.4L110,59.39L118.46,55.53L126.92,51.71L135.38,52.49L143.85,50.83L152.31,44.48L160.77,40.64L169.23,39.21L203.08,36.76L211.54,37.21L220,36.22L228.46,37.29L236.92,38.32L245.38,38.28L253.85,38.85L262.31,38L270.77,38.04L279.23,38.85L304.62,39.71L313.08,41.42L321.54,40.77L330,42.06L346.92,49.23L355.38,48.87L363.85,58.61L372.31,64.16L380.77,72.22L389.23,82.38L397.69,93.88L406.15,102.85L414.62,104.95L423.08,116.53L431.54,117.56L440,130.47L440,132.57L431.54,133.85L423.08,126.8L414.62,119.34L406.15,115.25L397.69,107.73L389.23,90.75L380.77,80.8L372.31,77.09L363.85,64.67L355.38,55.11L346.92,54.4L338.46,50.15L330,46.62L321.54,44.85L313.08,46.71L304.62,41.24L296.15,41.49L287.69,40.93L279.23,41.49L270.77,39.64L262.31,41.77L245.38,41.77L236.92,40.37L220,38.44L211.54,38.66L194.62,42.11L186.15,42.65L177.69,46.56L169.23,42.47L152.31,47.85L143.85,55.9L135.38,59.9L126.92,62.17L118.46,67.77L110,67.85L101.54,73.41L93.08,78.16L84.62,83.94L76.15,94.08L67.69,85.32L59.23,113.71L50.77,121.32L42.31,127.75L33.85,137.95L25.38,135.5L16.92,139.82L8.46,136.67L0,122.83Z" style="fill: rgb(90, 180, 172); fill-opacity: 1; stroke-width: 0;"/></g></g><g class="errorbars"/><g class="lines"><path class="js-line" d="M0,122.83L8.46,136.67L16.92,139.82L25.38,135.5L33.85,137.95L42.31,127.75L50.77,121.32L59.23,113.71L67.69,85.32L76.15,94.08L84.62,83.94L93.08,78.16L101.54,73.41L110,67.85L118.46,67.77L126.92,62.17L135.38,59.9L143.85,55.9L152.31,47.85L169.23,42.47L177.69,46.56L186.15,42.65L194.62,42.11L211.54,38.66L220,38.44L236.92,40.37L245.38,41.77L262.31,41.77L270.77,39.64L279.23,41.49L287.69,40.93L296.15,41.49L304.62,41.24L313.08,46.71L321.54,44.85L330,46.62L338.46,50.15L346.92,54.4L355.38,55.11L363.85,64.67L372.31,77.09L380.77,80.8L389.23,90.75L397.69,107.73L406.15,115.25L414.62,119.34L423.08,126.8L431.54,133.85L440,132.57" style="vector-effect: non-scaling-stroke; fill: none; stroke: rgb(0, 0, 0); stroke-opacity: 1; stroke-width: 0.25px; opacity: 1;"/></g><g class="points"/><g class="text"/></g><g class="trace scatter trace724e5c" style="stroke-miterlimit: 2;"><g class="fills"><g><path class="js-fill" d="M0,113.76L8.46,119.35L16.92,114.44L25.38,109.72L33.85,109.32L42.31,95.38L50.77,91.13L59.23,83.01L67.69,73.09L76.15,71.04L84.62,60.91L93.08,55.22L101.54,54.34L110,54.22L118.46,50.74L126.92,47.05L135.38,49.32L143.85,47.52L152.31,42.18L160.77,39.43L169.23,38.17L177.69,36.23L186.15,36.18L194.62,36.03L203.08,35.07L220,35.49L228.46,35.59L253.85,37.72L262.31,34.98L270.77,36.64L279.23,37.19L287.69,36.89L296.15,38.31L313.08,39.74L321.54,39.19L330,40.59L338.46,43.56L346.92,45.06L355.38,47.43L363.85,56.24L372.31,59.36L380.77,65.76L389.23,76.83L397.69,85.61L406.15,89.89L414.62,100.39L423.08,104L431.54,112.36L440,124.89L440,130.47L431.54,117.56L423.08,116.53L414.62,104.95L406.15,102.85L397.69,93.88L389.23,82.38L380.77,72.22L372.31,64.16L363.85,58.61L355.38,48.87L346.92,49.23L330,42.06L321.54,40.77L313.08,41.42L304.62,39.71L279.23,38.85L270.77,38.04L262.31,38L253.85,38.85L245.38,38.28L236.92,38.32L228.46,37.29L220,36.22L211.54,37.21L203.08,36.76L169.23,39.21L160.77,40.64L152.31,44.48L143.85,50.83L135.38,52.49L126.92,51.71L118.46,55.53L110,59.39L101.54,60.4L93.08,65.04L84.62,67.93L76.15,74.94L67.69,77.39L59.23,93.74L50.77,97.49L42.31,104.66L33.85,117.62L25.38,122.51L16.92,121.66L8.46,125.38L0,119.45Z" style="fill: rgb(245, 245, 245); fill-opacity: 1; stroke-width: 0;"/></g></g><g class="errorbars"/><g class="lines"><path class="js-line" d="M0,119.45L8.46,125.38L16.92,121.66L25.38,122.51L33.85,117.62L42.31,104.66L50.77,97.49L59.23,93.74L67.69,77.39L76.15,74.94L84.62,67.93L93.08,65.04L101.54,60.4L110,59.39L118.46,55.53L126.92,51.71L135.38,52.49L143.85,50.83L152.31,44.48L160.77,40.64L169.23,39.21L203.08,36.76L211.54,37.21L220,36.22L228.46,37.29L236.92,38.32L245.38,38.28L253.85,38.85L262.31,38L270.77,38.04L279.23,38.85L304.62,39.71L313.08,41.42L321.54,40.77L330,42.06L346.92,49.23L355.38,48.87L363.85,58.61L372.31,64.16L380.77,72.22L389.23,82.38L397.69,93.88L406.15,102.85L414.62,104.95L423.08,116.53L431.54,117.56L440,130.47" style="vector-effect: non-scaling-stroke; fill: none; stroke: rgb(0, 0, 0); stroke-opacity: 1; stroke-width: 0.5px; opacity: 1;"/></g><g class="points"/><g class="text"/></g><g class="trace scatter trace0f2ba0" style="stroke-miterlimit: 2;"><g class="fills"><g><path class="js-fill" d="M0,108.69L8.46,112.59L16.92,109.08L25.38,104.56L33.85,98.78L42.31,88.15L50.77,81.55L59.23,72.81L67.69,66.09L76.15,62.17L84.62,52.95L93.08,50.2L101.54,49.39L110,49.83L118.46,47.1L126.92,43.49L135.38,43.59L152.31,39.95L160.77,37.03L169.23,34.2L177.69,32.44L186.15,33.56L194.62,33.5L220,33.92L228.46,32.68L236.92,34.85L245.38,35.84L262.31,33.06L270.77,34.69L279.23,33.92L287.69,35.36L304.62,37.62L313.08,37.81L321.54,36.52L330,37.24L346.92,39.62L355.38,44.4L363.85,50.66L372.31,53.85L380.77,63.71L389.23,70.78L397.69,78.22L406.15,83.07L414.62,90.28L423.08,91.08L440,118.04L440,124.89L431.54,112.36L423.08,104L414.62,100.39L406.15,89.89L397.69,85.61L389.23,76.83L380.77,65.76L372.31,59.36L363.85,56.24L355.38,47.43L346.92,45.06L338.46,43.56L330,40.59L321.54,39.19L313.08,39.74L296.15,38.31L287.69,36.89L279.23,37.19L270.77,36.64L262.31,34.98L253.85,37.72L228.46,35.59L220,35.49L203.08,35.07L194.62,36.03L186.15,36.18L177.69,36.23L169.23,38.17L160.77,39.43L152.31,42.18L143.85,47.52L135.38,49.32L126.92,47.05L118.46,50.74L110,54.22L101.54,54.34L93.08,55.22L84.62,60.91L76.15,71.04L67.69,73.09L59.23,83.01L50.77,91.13L42.31,95.38L33.85,109.32L25.38,109.72L16.92,114.44L8.46,119.35L0,113.76Z" style="fill: rgb(245, 245, 245); fill-opacity: 1; stroke-width: 0;"/></g></g><g class="errorbars"/><g class="lines"><path class="js-line" d="M0,113.76L8.46,119.35L16.92,114.44L25.38,109.72L33.85,109.32L42.31,95.38L50.77,91.13L59.23,83.01L67.69,73.09L76.15,71.04L84.62,60.91L93.08,55.22L101.54,54.34L110,54.22L118.46,50.74L126.92,47.05L135.38,49.32L143.85,47.52L152.31,42.18L160.77,39.43L169.23,38.17L177.69,36.23L186.15,36.18L194.62,36.03L203.08,35.07L220,35.49L228.46,35.59L253.85,37.72L262.31,34.98L270.77,36.64L279.23,37.19L287.69,36.89L296.15,38.31L313.08,39.74L321.54,39.19L330,40.59L338.46,43.56L346.92,45.06L355.38,47.43L363.85,56.24L372.31,59.36L380.77,65.76L389.23,76.83L397.69,85.61L406.15,89.89L414.62,100.39L423.08,104L431.54,112.36L440,124.89" style="vector-effect: non-scaling-stroke; fill: none; stroke: rgb(0, 0, 0); stroke-opacity: 1; stroke-width: 1px; opacity: 1;"/></g><g class="points"/><g class="text"/></g><g class="trace scatter traced0e1a1" style="stroke-miterlimit: 2;"><g class="fills"><g><path class="js-fill" d="M0,102L8.46,102.65L16.92,92.2L25.38,93.35L33.85,88.77L50.77,64.94L59.23,66.46L67.69,54.4L76.15,49.19L84.62,45.93L93.08,41.21L101.54,35.98L110,39.47L118.46,39.58L126.92,40.76L135.38,33.9L143.85,33.18L152.31,38.43L160.77,35.25L169.23,29.87L177.69,28.51L194.62,28.25L203.08,31.3L211.54,30.98L220,31.52L228.46,26.09L236.92,33.54L245.38,33.83L253.85,27.49L262.31,26.84L270.77,32.58L279.23,29.32L287.69,33.78L296.15,34.72L304.62,36.45L313.08,36.57L321.54,31.51L330,33.3L338.46,29.67L346.92,25.75L355.38,39.06L363.85,41.26L372.31,44.78L380.77,55.46L389.23,62.03L397.69,68.55L406.15,73.44L414.62,74.63L423.08,84.46L431.54,94.99L440,118.01L440,118.04L423.08,91.08L414.62,90.28L406.15,83.07L397.69,78.22L389.23,70.78L380.77,63.71L372.31,53.85L363.85,50.66L355.38,44.4L346.92,39.62L330,37.24L321.54,36.52L313.08,37.81L304.62,37.62L287.69,35.36L279.23,33.92L270.77,34.69L262.31,33.06L245.38,35.84L236.92,34.85L228.46,32.68L220,33.92L194.62,33.5L186.15,33.56L177.69,32.44L169.23,34.2L160.77,37.03L152.31,39.95L135.38,43.59L126.92,43.49L118.46,47.1L110,49.83L101.54,49.39L93.08,50.2L84.62,52.95L76.15,62.17L67.69,66.09L59.23,72.81L50.77,81.55L42.31,88.15L33.85,98.78L25.38,104.56L16.92,109.08L8.46,112.59L0,108.69Z" style="fill: rgb(216, 179, 101); fill-opacity: 1; stroke-width: 0;"/></g></g><g class="errorbars"/><g class="lines"><path class="js-line" d="M0,108.69L8.46,112.59L16.92,109.08L25.38,104.56L33.85,98.78L42.31,88.15L50.77,81.55L59.23,72.81L67.69,66.09L76.15,62.17L84.62,52.95L93.08,50.2L101.54,49.39L110,49.83L118.46,47.1L126.92,43.49L135.38,43.59L152.31,39.95L160.77,37.03L169.23,34.2L177.69,32.44L186.15,33.56L194.62,33.5L220,33.92L228.46,32.68L236.92,34.85L245.38,35.84L262.31,33.06L270.77,34.69L279.23,33.92L287.69,35.36L304.62,37.62L313.08,37.81L321.54,36.52L330,37.24L346.92,39.62L355.38,44.4L363.85,50.66L372.31,53.85L380.77,63.71L389.23,70.78L397.69,78.22L406.15,83.07L414.62,90.28L423.08,91.08L440,118.04" style="vector-effect: non-scaling-stroke; fill: none; stroke: rgb(0, 0, 0); stroke-opacity: 1; stroke-width: 0.5px; opacity: 1;"/></g><g class="points"/><g class="text"/></g><g class="trace scatter trace33fd78" style="stroke-miterlimit: 2;"><g class="fills"/><g class="errorbars"/><g class="lines"><path class="js-line" d="M0,102L8.46,102.65L16.92,92.2L25.38,93.35L33.85,88.77L50.77,64.94L59.23,66.46L67.69,54.4L76.15,49.19L84.62,45.93L93.08,41.21L101.54,35.98L110,39.47L118.46,39.58L126.92,40.76L135.38,33.9L143.85,33.18L152.31,38.43L160.77,35.25L169.23,29.87L177.69,28.51L194.62,28.25L203.08,31.3L211.54,30.98L220,31.52L228.46,26.09L236.92,33.54L245.38,33.83L253.85,27.49L262.31,26.84L270.77,32.58L279.23,29.32L287.69,33.78L296.15,34.72L304.62,36.45L313.08,36.57L321.54,31.51L330,33.3L338.46,29.67L346.92,25.75L355.38,39.06L363.85,41.26L372.31,44.78L380.77,55.46L389.23,62.03L397.69,68.55L406.15,73.44L414.62,74.63L423.08,84.46L431.54,94.99L440,118.01" style="vector-effect: non-scaling-stroke; fill: none; stroke: rgb(0, 0, 0); stroke-opacity: 1; stroke-width: 0.25px; opacity: 1;"/></g><g class="points"/><g class="text"/></g><g class="trace scatter trace96c4ee" style="stroke-miterlimit: 2; opacity: 1;"><g class="fills"/><g class="errorbars"/><g class="lines"/><g class="points"><path class="point" transform="translate(203.08,22.32)" d="M4,0A4,4 0 1,1 0,-4A4,4 0 0,1 4,0ZM0,0.5L0.5,0L0,-0.5L-0.5,0Z" style="opacity: 1; stroke: rgb(0, 0, 0); stroke-opacity: 1; stroke-width: 1px; fill: none;"/><path class="point" transform="translate(211.54,29.76)" d="M4,0A4,4 0 1,1 0,-4A4,4 0 0,1 4,0ZM0,0.5L0.5,0L0,-0.5L-0.5,0Z" style="opacity: 1; stroke: rgb(0, 0, 0); stroke-opacity: 1; stroke-width: 1px; fill: none;"/><path class="point" transform="translate(220,29.76)" d="M4,0A4,4 0 1,1 0,-4A4,4 0 0,1 4,0ZM0,0.5L0.5,0L0,-0.5L-0.5,0Z" style="opacity: 1; stroke: rgb(0, 0, 0); stroke-opacity: 1; stroke-width: 1px; fill: none;"/><path class="point" transform="translate(228.46,29.76)" d="M4,0A4,4 0 1,1 0,-4A4,4 0 0,1 4,0ZM0,0.5L0.5,0L0,-0.5L-0.5,0Z" style="opacity: 1; stroke: rgb(0, 0, 0); stroke-opacity: 1; stroke-width: 1px; fill: none;"/></g><g class="text"/></g></g></g><g class="overplot"/><path class="xlines-above crisp" d="M0,0" style="fill: none;"/><path class="ylines-above crisp" d="M0,0" style="fill: none;"/><g class="overlines-above"/><g class="xaxislayer-above"><g class="x3tick"><text text-anchor="middle" x="0" y="733" transform="translate(156.15,0)" style="font-family: 'Open Sans', verdana, arial, sans-serif; font-size: 12px; fill: rgb(42, 63, 95); fill-opacity: 1; white-space: pre; opacity: 1;">10</text></g><g class="x3tick"><text text-anchor="middle" x="0" y="733" style="font-family: 'Open Sans', verdana, arial, sans-serif; font-size: 12px; fill: rgb(42, 63, 95); fill-opacity: 1; white-space: pre; opacity: 1;" transform="translate(240.77,0)">20</text></g><g class="x3tick"><text text-anchor="middle" x="0" y="733" style="font-family: 'Open Sans', verdana, arial, sans-serif; font-size: 12px; fill: rgb(42, 63, 95); fill-opacity: 1; white-space: pre; opacity: 1;" transform="translate(325.38,0)">30</text></g><g class="x3tick"><text text-anchor="middle" x="0" y="733" style="font-family: 'Open Sans', verdana, arial, sans-serif; font-size: 12px; fill: rgb(42, 63, 95); fill-opacity: 1; white-space: pre; opacity: 1;" transform="translate(410,0)">40</text></g><g class="x3tick"><text text-anchor="middle" x="0" y="733" style="font-family: 'Open Sans', verdana, arial, sans-serif; font-size: 12px; fill: rgb(42, 63, 95); fill-opacity: 1; white-space: pre; opacity: 1;" transform="translate(494.62,0)">50</text></g></g><g class="yaxislayer-above"><g class="y3tick"><text text-anchor="end" x="79" y="4.199999999999999" transform="translate(0,720)" style="font-family: 'Open Sans', verdana, arial, sans-serif; font-size: 12px; fill: rgb(42, 63, 95); fill-opacity: 1; white-space: pre; opacity: 1;">5</text></g><g class="y3tick"><text text-anchor="end" x="79" y="4.199999999999999" style="font-family: 'Open Sans', verdana, arial, sans-serif; font-size: 12px; fill: rgb(42, 63, 95); fill-opacity: 1; white-space: pre; opacity: 1;" transform="translate(0,682.8)">10</text></g><g class="y3tick"><text text-anchor="end" x="79" y="4.199999999999999" style="font-family: 'Open Sans', verdana, arial, sans-serif; font-size: 12px; fill: rgb(42, 63, 95); fill-opacity: 1; white-space: pre; opacity: 1;" transform="translate(0,645.6)">15</text></g><g class="y3tick"><text text-anchor="end" x="79" y="4.199999999999999" style="font-family: 'Open Sans', verdana, arial, sans-serif; font-size: 12px; fill: rgb(42, 63, 95); fill-opacity: 1; white-space: pre; opacity: 1;" transform="translate(0,608.4)">20</text></g><g class="y3tick"><text text-anchor="end" x="79" y="4.199999999999999" style="font-family: 'Open Sans', verdana, arial, sans-serif; font-size: 12px; fill: rgb(42, 63, 95); fill-opacity: 1; white-space: pre; opacity: 1;" transform="translate(0,571.2)">25</text></g><g class="y3tick"><text text-anchor="end" x="79" y="4.199999999999999" style="font-family: 'Open Sans', verdana, arial, sans-serif; font-size: 12px; fill: rgb(42, 63, 95); fill-opacity: 1; white-space: pre; opacity: 1;" transform="translate(0,534)">30</text></g></g><g class="overaxes-above"/></g></g><g class="polarlayer"/><g class="smithlayer"/><g class="ternarylayer"/><g class="geolayer"/><g class="funnelarealayer"/><g class="pielayer"/><g class="iciclelayer"/><g class="treemaplayer"/><g class="sunburstlayer"/><g class="glimages"/><defs id="topdefs-8005b8"><g class="clips"/></defs><g class="layer-above"><g class="imagelayer"/><g class="shapelayer"/></g><g class="infolayer"><g class="g-gtitle"><text class="gtitle" x="30" y="50" text-anchor="start" dy="0em" style="font-family: 'Open Sans', verdana, arial, sans-serif; font-size: 17px; fill: rgb(42, 63, 95); opacity: 1; font-weight: normal; white-space: pre;">Climatology and S2S forecast for Shariatpur</text></g><g class="g-xtitle"/><g class="g-x2title"/><g class="g-x3title"/><g class="g-ytitle"><text class="ytitle" transform="rotate(-90,34.16875,193)" x="34.16875" y="193" text-anchor="middle" style="font-family: 'Open Sans', verdana, arial, sans-serif; font-size: 14px; fill: rgb(42, 63, 95); opacity: 1; font-weight: normal; white-space: pre;">[mm]</text></g><g class="g-y2title"><text class="y2title" transform="rotate(-90,40.840625,410.00000000000006)" x="40.840625" y="410.00000000000006" text-anchor="middle" style="font-family: 'Open Sans', verdana, arial, sans-serif; font-size: 14px; fill: rgb(42, 63, 95); opacity: 1; font-weight: normal; white-space: pre;">[C]</text></g><g class="g-y3title"><text class="y3title" transform="rotate(-90,40.840625,627)" x="40.840625" y="627" text-anchor="middle" style="font-family: 'Open Sans', verdana, arial, sans-serif; font-size: 14px; fill: rgb(42, 63, 95); opacity: 1; font-weight: normal; white-space: pre;">[C]</text></g><g class="annotation" data-index="0" style="opacity: 1;"><g class="annotation-text-g" transform="rotate(0,300,89.5)"><g class="cursor-pointer" transform="translate(237,79)"><rect class="bg" x="0.5" y="0.5" width="126" height="20" style="stroke-width: 1px; stroke: rgb(0, 0, 0); stroke-opacity: 0; fill: rgb(0, 0, 0); fill-opacity: 0;"/><text class="annotation-text" text-anchor="middle" x="63.359375" y="16" style="font-family: 'Open Sans', verdana, arial, sans-serif; font-size: 16px; fill: rgb(42, 63, 95); fill-opacity: 1; white-space: pre;">Precipitation sum</text></g></g></g><g class="annotation" data-index="1" style="opacity: 1;"><g class="annotation-text-g" transform="rotate(0,300,306.50000000000006)"><g class="cursor-pointer" transform="translate(196,296)"><rect class="bg" x="0.5" y="0.5" width="208" height="20" style="stroke-width: 1px; stroke: rgb(0, 0, 0); stroke-opacity: 0; fill: rgb(0, 0, 0); fill-opacity: 0;"/><text class="annotation-text" text-anchor="middle" x="104.265625" y="16" style="font-family: 'Open Sans', verdana, arial, sans-serif; font-size: 16px; fill: rgb(42, 63, 95); fill-opacity: 1; white-space: pre;">Mean maximum temperature</text></g></g></g><g class="annotation" data-index="2" style="opacity: 1;"><g class="annotation-text-g" transform="rotate(0,300,523.5)"><g class="cursor-pointer" transform="translate(198,513)"><rect class="bg" x="0.5" y="0.5" width="203" height="20" style="stroke-width: 1px; stroke: rgb(0, 0, 0); stroke-opacity: 0; fill: rgb(0, 0, 0); fill-opacity: 0;"/><text class="annotation-text" text-anchor="middle" x="102.046875" y="16" style="font-family: 'Open Sans', verdana, arial, sans-serif; font-size: 16px; fill: rgb(42, 63, 95); fill-opacity: 1; white-space: pre;">Mean minimum temperature</text></g></g></g><g class="annotation" data-index="3" style="opacity: 1;"><g class="annotation-text-g" transform="rotate(0,300,760.5)"><g class="cursor-pointer" transform="translate(277,750)"><rect class="bg" x="0.5" y="0.5" width="45" height="20" style="stroke-width: 1px; stroke: rgb(0, 0, 0); stroke-opacity: 0; fill: rgb(0, 0, 0); fill-opacity: 0;"/><text class="annotation-text" text-anchor="middle" x="22.3125" y="16" style="font-family: 'Open Sans', verdana, arial, sans-serif; font-size: 16px; fill: rgb(42, 63, 95); fill-opacity: 1; white-space: pre;">Week</text></g></g></g></g></svg>