<svg class="main-svg" xmlns="http://www.w3.org/2000/svg" xmlns:xlink="http://www.w3.org/1999/xlink" width="600" height="800" style="" viewBox="0 0 600 800"><rect x="0" y="0" width="600" height="800" style="fill: rgb(255, 255, 255); fill-opacity: 1;"/><defs id="defs-3de528"><g class="clips"><clipPath id="clip3de528xyplot" class="plotclip"><rect width="440" height="186.00000000000003"/></clipPath><clipPath id="clip3de528x2y2plot" class="plotclip"><rect width="440" height="185.99999999999997"/></clipPath><clipPath id="clip3de528x3y3plot" class="plotclip"><rect width="440" height="186"/></clipPath><clipPath class="axesclip" id="clip3de528x"><rect x="80" y="0" width="440" height="800"/></clipPath><clipPath class="axesclip" id="clip3de528y"><rect x="0" y="100" width="600" height="186.00000000000003"/></clipPath><clipPath class="axesclip" id="clip3de528xy"><rect x="80" y="100" width="440" height="186.00000000000003"/></clipPath><clipPath class="axesclip" id="clip3de528y2"><rect x="0" y="317.00000000000006" width="600" height="185.99999999999997"/></clipPath><clipPath class="axesclip" id="clip3de528xy2"><rect x="80" y="317.00000000000006" width="440" height="185.99999999999997"/></clipPath><clipPath class="axesclip" id="clip3de528y3"><rect x="0" y="534" width="600" height="186"/></clipPath><clipPath class="axesclip" id="clip3de528xy3"><rect x="80" y="534" width="440" height="186"/></clipPath><clipPath class="axesclip" id="clip3de528x2"><rect x="80" y="0" width="440" height="800"/></clipPath><clipPath class="axesclip" id="clip3de528x2y"><rect x="80" y="100" width="440" height="186.00000000000003"/></clipPath><clipPath class="axesclip" id="clip3de528x2y2"><rect x="80" y="317.00000000000006" width="440" height="185.99999999999997"/></clipPath><clipPath class="axesclip" id="clip3de528x2y3"><rect x="80" y="534" width="440" height="186"/></clipPath><clipPath class="axesclip" id="clip3de528x3"><rect x="80" y="0" width="440" height="800"/></clipPath><clipPath class="axesclip" id="clip3de528x3y"><rect x="80" y="100" width="440" height="186.00000000000003"/></clipPath><clipPath class="axesclip" id="clip3de528x3y2"><rect x="80" y="317.00000000000006" width="440" height="185.99999999999997"/></clipPath><clipPath class="axesclip" id="clip3de528x3y3"><rect x="80" y="534" width="440" height="186"/></clipPath></g><g class="gradients"/><g class="patterns"/></defs><g class="bglayer"><rect class="bg" x="80" y="100" width="440" height="186.00000000000003" style="fill: rgb(229, 236, 246); fill-opacity: 1; stroke-width: 0;"/><rect class="bg" x="80" y="317.00000000000006" width="440" height="185.99999999999997" style="fill: rgb(229, 236, 246); fill-opacity: 1; stroke-width: 0;"/><rect class="bg" x="80" y="534" width="440" height="186" style="fill: rgb(229, 236, 246); fill-opacity: 1; stroke-width: 0;"/></g><g class="layer-below"><g class="imagelayer"/><g class="shapelayer"/></g><g class="cartesianlayer"><g class="subplot xy"><g class="layer-subplot"><g class="shapelayer"/><g class="imagelayer"/></g><g class="minor-gridlayer"><g class="x"/><g class="y"/></g><g class="gridlayer"><g class="x"><path class="xgrid crisp" transform="translate(156.15,0)" d="M0,100v186.00000000000003" style="stroke: rgb(255, 255, 255); stroke-opacity: 1; stroke-width: 1px;"/><path class="xgrid crisp" transform="translate(240.77,0)" d="M0,100v186.00000000000003" style="stroke: rgb(255, 255, 255); stroke-opacity: 1; stroke-width: 1px;"/><path class="xgrid crisp" transform="translate(325.38,0)" d="M0,100v186.00000000000003" style="stroke: rgb(255, 255, 255); stroke-opacity: 1; stroke-width: 1px;"/><path class="xgrid crisp" transform="translate(410,0)" d="M0,100v186.00000000000003" style="stroke: rgb(255, 255, 255); stroke-opacity: 1; stroke-width: 1px;"/><path class="xgrid crisp" transform="translate(494.62,0)" d="M0,100v186.00000000000003" style="stroke: rgb(255, 255, 255); stroke-opacity: 1; stroke-width: 1px;"/></g><g class="y"><path class="ygrid crisp" transform="translate(0,248.8)" d="M80,0h440" style="stroke: rgb(255, 255, 255); stroke-opacity: 1; stroke-width: 1px;"/><path class="ygrid crisp" transform="translate(0,211.6)" d="M80,0h440" style="stroke: rgb(255, 255, 255); stroke-opacity: 1; stroke-width: 1px;"/><path class="ygrid crisp" transform="translate(0,174.4)" d="M80,0h440" style="stroke: rgb(255, 255, 255); stroke-opacity: 1; stroke-width: 1px;"/><path class="ygrid crisp" transform="translate(0,137.2)" d="M80,0h440" style="stroke: rgb(255, 255, 255); stroke-opacity: 1; stroke-width: 1px;"/></g></g><g class="zerolinelayer"><path class="yzl zl crisp" transform="translate(0,286)" d="M80,0h440" style="stroke: rgb(255, 255, 255); stroke-opacity: 1; stroke-width: 2px;"/></g><path class="xlines-below"/><path class="ylines-below"/><g class="overlines-below"/><g class="xaxislayer-below"/><g class="yaxislayer-below"/><g class="overaxes-below"/><g class="plot" transform="translate(80,100)" clip-path="url(#clip3de528xyplot)"><g class="scatterlayer mlayer"><g class="trace scatter tracea270ed" style="stroke-miterlimit: 2;"><g class="fills"><g><path class="js-fill" d="M0,186L126.92,186L135.38,184.31L143.85,164.12L152.31,183.15L160.77,165.52L169.23,153.06L177.69,167.61L186.15,156.79L194.62,134.15L203.08,153.54L211.54,144.05L220,142.16L228.46,147.03L236.92,142.21L245.38,144.34L253.85,161.74L262.31,154.57L270.77,134.23L279.23,140.73L287.69,159.26L296.15,161.94L304.62,153.13L313.08,166.7L321.54,170.67L330,176.11L338.46,178.93L346.92,185.64L355.38,186L440,186L440,186L330,186L321.54,185.98L313.08,183.12L304.62,182.29L296.15,182.81L287.69,180.5L279.23,174.97L270.77,176.41L262.31,181.91L253.85,180.79L245.38,184.51L236.92,166.62L228.46,183.8L220,185.99L211.54,173.54L203.08,185.99L194.62,175.62L186.15,186L177.69,186L169.23,174.98L160.77,186L152.31,186L143.85,183.86L135.38,186L0,186Z" style="fill: rgb(224, 236, 244); fill-opacity: 1; stroke-width: 0;"/></g></g><g class="errorbars"/><g class="lines"><path class="js-line" d="M0,186L135.38,186L143.85,183.86L152.31,186L160.77,186L169.23,174.98L177.69,186L186.15,186L194.62,175.62L203.08,185.99L211.54,173.54L220,185.99L228.46,183.8L236.92,166.62L245.38,184.51L253.85,180.79L262.31,181.91L270.77,176.41L279.23,174.97L287.69,180.5L296.15,182.81L304.62,182.29L313.08,183.12L321.54,185.98L330,186L440,186" style="vector-effect: non-scaling-stroke; fill: none; stroke: rgb(0, 0, 0); stroke-opacity: 1; stroke-width: 0.25px; opacity: 1;"/></g><g class="points"/><g class="text"/></g><g class="trace scatter trace714010" style="stroke-miterlimit: 2;"><g class="fills"><g><path class="js-fill" d="M0,186L101.54,185.65L110,179.2L118.46,185.26L126.92,174.96L135.38,163.81L143.85,149.3L152.31,166.15L160.77,134.82L169.23,122.34L177.69,129.87L186.15,109.41L194.62,99.95L203.08,113.32L211.54,92.42L220,113.4L228.46,99.97L236.92,111.08L245.38,105.15L253.85,129.99L262.31,91.04L270.77,85.56L279.23,123.96L287.69,134.21L296.15,142.7L304.62,138.98L313.08,155.93L321.54,133.54L330,157.41L338.46,141.87L346.92,175.22L355.38,185.63L363.85,185.99L440,186L440,186L355.38,186L346.92,185.64L338.46,178.93L330,176.11L321.54,170.67L313.08,166.7L304.62,153.13L296.15,161.94L287.69,159.26L279.23,140.73L270.77,134.23L262.31,154.57L253.85,161.74L245.38,144.34L236.92,142.21L228.46,147.03L220,142.16L211.54,144.05L203.08,153.54L194.62,134.15L186.15,156.79L177.69,167.61L169.23,153.06L160.77,165.52L152.31,183.15L143.85,164.12L135.38,184.31L126.92,186L0,186Z" style="fill: rgb(158, 188, 218); fill-opacity: 1; stroke-width: 0;"/></g></g><g class="errorbars"/><g class="lines"><path class="js-line" d="M0,186L126.92,186L135.38,184.31L143.85,164.12L152.31,183.15L160.77,165.52L169.23,153.06L177.69,167.61L186.15,156.79L194.62,134.15L203.08,153.54L211.54,144.05L220,142.16L228.46,147.03L236.92,142.21L245.38,144.34L253.85,161.74L262.31,154.57L270.77,134.23L279.23,140.73L287.69,159.26L296.15,161.94L304.62,153.13L313.08,166.7L321.54,170.67L330,176.11L338.46,178.93L346.92,185.64L355.38,186L440,186" style="vector-effect: non-scaling-stroke; fill: none; stroke: rgb(0, 0, 0); stroke-opacity: 1; stroke-width: 0.5px; opacity: 1;"/></g><g class="points"/><g class="text"/></g><g class="trace scatter trace9ffdaf" style="stroke-miterlimit: 2;"><g class="fills"><g><path class="js-fill" d="M0,186L59.23,186L67.69,184.52L76.15,181.98L84.62,184.81L93.08,177.19L101.54,174.55L110,169.33L118.46,166.69L126.92,164.89L135.38,152.99L143.85,112.61L152.31,112.63L169.23,77.49L177.69,80.89L186.15,41.81L194.62,61.74L203.08,42.93L211.54,8.52L220,60.4L228.46,17.55L236.92,75.31L245.38,50.11L253.85,59.27L262.31,70.97L270.77,62.72L279.23,69.5L287.69,96.32L296.15,120.38L304.62,93.56L313.08,103.68L321.54,66.69L330,115.44L338.46,75.34L346.92,129.6L355.38,157.36L363.85,180.99L372.31,180.48L380.77,182.53L389.23,186L397.69,186L440,186L440,186L363.85,185.99L355.38,185.63L346.92,175.22L338.46,141.87L330,157.41L321.54,133.54L313.08,155.93L304.62,138.98L296.15,142.7L287.69,134.21L279.23,123.96L270.77,85.56L262.31,91.04L253.85,129.99L245.38,105.15L236.92,111.08L228.46,99.97L220,113.4L211.54,92.42L203.08,113.32L194.62,99.95L186.15,109.41L177.69,129.87L169.23,122.34L160.77,134.82L152.31,166.15L143.85,149.3L135.38,163.81L126.92,174.96L118.46,185.26L110,179.2L101.54,185.65L0,186Z" style="fill: rgb(158, 188, 218); fill-opacity: 1; stroke-width: 0;"/></g></g><g class="errorbars"/><g class="lines"><path class="js-line" d="M0,186L101.54,185.65L110,179.2L118.46,185.26L126.92,174.96L135.38,163.81L143.85,149.3L152.31,166.15L160.77,134.82L169.23,122.34L177.69,129.87L186.15,109.41L194.62,99.95L203.08,113.32L211.54,92.42L220,113.4L228.46,99.97L236.92,111.08L245.38,105.15L253.85,129.99L262.31,91.04L270.77,85.56L279.23,123.96L287.69,134.21L296.15,142.7L304.62,138.98L313.08,155.93L321.54,133.54L330,157.41L338.46,141.87L346.92,175.22L355.38,185.63L363.85,185.99L440,186" style="vector-effect: non-scaling-stroke; fill: none; stroke: rgb(0, 0, 0); stroke-opacity: 1; stroke-width: 1px; opacity: 1;"/></g><g class="points"/><g class="text"/></g><g class="trace scatter trace701ea5" style="stroke-miterlimit: 2;"><g class="fills"><g><path class="js-fill" d="M0,186L59.23,186L67.69,183.2L76.15,180.88L84.62,184.51L93.08,169.75L101.54,170.55L110,161.31L118.46,138.18L126.92,137.07L135.38,115.71L143.85,68.62L152.31,29.52L160.77,-4.64L169.23,25.06L186.15,-46.29L194.62,-28.83L211.54,-88.62L220,-42.24L228.46,-50.25L236.92,-14.71L245.38,-53.11L253.85,-42.35L262.31,25.16L270.77,-11.36L279.23,23.67L287.69,38.11L296.15,63L304.62,41.98L313.08,30.1L321.54,-17.28L330,90.99L338.46,2.63L346.92,71.8L355.38,156.85L363.85,179.12L372.31,177.95L380.77,180.84L389.23,186L440,186L440,186L397.69,186L389.23,186L380.77,182.53L372.31,180.48L363.85,180.99L355.38,157.36L346.92,129.6L338.46,75.34L330,115.44L321.54,66.69L313.08,103.68L304.62,93.56L296.15,120.38L287.69,96.32L279.23,69.5L270.77,62.72L262.31,70.97L253.85,59.27L245.38,50.11L236.92,75.31L228.46,17.55L220,60.4L211.54,8.52L203.08,42.93L194.62,61.74L186.15,41.81L177.69,80.89L169.23,77.49L152.31,112.63L143.85,112.61L135.38,152.99L126.92,164.89L118.46,166.69L110,169.33L101.54,174.55L93.08,177.19L84.62,184.81L76.15,181.98L67.69,184.52L59.23,186L0,186Z" style="fill: rgb(136, 86, 167); fill-opacity: 1; stroke-width: 0;"/></g></g><g class="errorbars"/><g class="lines"><path class="js-line" d="M0,186L59.23,186L67.69,184.52L76.15,181.98L84.62,184.81L93.08,177.19L101.54,174.55L110,169.33L118.46,166.69L126.92,164.89L135.38,152.99L143.85,112.61L152.31,112.63L169.23,77.49L177.69,80.89L186.15,41.81L194.62,61.74L203.08,42.93L211.54,8.52L220,60.4L228.46,17.55L236.92,75.31L245.38,50.11L253.85,59.27L262.31,70.97L270.77,62.72L279.23,69.5L287.69,96.32L296.15,120.38L304.62,93.56L313.08,103.68L321.54,66.69L330,115.44L338.46,75.34L346.92,129.6L355.38,157.36L363.85,180.99L372.31,180.48L380.77,182.53L389.23,186L397.69,186L440,186" style="vector-effect: non-scaling-stroke; fill: none; stroke: rgb(0, 0, 0); stroke-opacity: 1; stroke-width: 0.5px; opacity: 1;"/></g><g class="points"/><g class="text"/></g><g class="trace scatter tracee6e176" style="stroke-miterlimit: 2;"><g class="fills"/><g class="errorbars"/><g class="lines"><path class="js-line" d="M0,186L59.23,186L67.69,183.2L76.15,180.88L84.62,184.51L93.08,169.75L101.54,170.55L110,161.31L118.46,138.18L126.92,137.07L135.38,115.71L143.85,68.62L152.31,29.52L160.77,-4.64L169.23,25.06L186.15,-46.29L194.62,-28.83L211.54,-88.62L220,-42.24L228.46,-50.25L236.92,-14.71L245.38,-53.11L253.85,-42.35L262.31,25.16L270.77,-11.36L279.23,23.67L287.69,38.11L296.15,63L304.62,41.98L313.08,30.1L321.54,-17.28L330,90.99L338.46,2.63L346.92,71.8L355.38,156.85L363.85,179.12L372.31,177.95L380.77,180.84L389.23,186L440,186" style="vector-effect: non-scaling-stroke; fill: none; stroke: rgb(0, 0, 0); stroke-opacity: 1; stroke-width: 0.25px; opacity: 1;"/></g><g class="points"/><g class="text"/></g><g class="trace scatter tracec00cd8" style="stroke-miterlimit: 2; opacity: 1;"><g class="fills"/><g class="errorbars"/><g class="lines"/><g class="points"><path class="point" transform="translate(203.08,179.3)" d="M4,0A4,4 0 1,1 0,-4A4,4 0 0,1 4,0ZM0,0.5L0.5,0L0,-0.5L-0.5,0Z" style="opacity: 1; stroke: rgb(0, 0, 0); stroke-opacity: 1; stroke-width: 1px; fill: none;"/><path class="point" transform="translate(211.54,186)" d="M4,0A4,4 0 1,1 0,-4A4,4 0 0,1 4,0ZM0,0.5L0.5,0L0,-0.5L-0.5,0Z" style="opacity: 1; stroke: rgb(0, 0, 0); stroke-opacity: 1; stroke-width: 1px; fill: none;"/><path class="point" transform="translate(220,163.68)" d="M4,0A4,4 0 1,1 0,-4A4,4 0 0,1 4,0ZM0,0.5L0.5,0L0,-0.5L-0.5,0Z" style="opacity: 1; stroke: rgb(0, 0, 0); stroke-opacity: 1; stroke-width: 1px; fill: none;"/><path class="point" transform="translate(228.46,163.68)" d="M4,0A4,4 0 1,1 0,-4A4,4 0 0,1 4,0ZM0,0.5L0.5,0L0,-0.5L-0.5,0Z" style="opacity: 1; stroke: rgb(0, 0, 0); stroke-opacity: 1; stroke-width: 1px; fill: none;"/></g><g class="text"/></g></g></g><g class="overplot"/><path class="xlines-above crisp" d="M0,0" style="fill: none;"/><path class="ylines-above crisp" d="M0,0" style="fill: none;"/><g class="overlines-above"/><g class="xaxislayer-above"/><g class="yaxislayer-above"><g class="ytick"><text text-anchor="end" x="79" y="4.199999999999999" transform="translate(0,286)" style="font-family: 'Open Sans', verdana, arial, sans-serif; font-size: 12px; fill: rgb(42, 63, 95); fill-opacity: 1; white-space: pre; opacity: 1;">0</text></g><g class="ytick"><text text-anchor="end" x="79" y="4.199999999999999" style="font-family: 'Open Sans', verdana, arial, sans-serif; font-size: 12px; fill: rgb(42, 63, 95); fill-opacity: 1; white-space: pre; opacity: 1;" transform="translate(0,248.8)">50</text></g><g class="ytick"><text text-anchor="end" x="79" y="4.199999999999999" style="font-family: 'Open Sans', verdana, arial, sans-serif; font-size: 12px; fill: rgb(42, 63, 95); fill-opacity: 1; white-space: pre; opacity: 1;" transform="translate(0,211.6)">100</text></g><g class="ytick"><text text-anchor="end" x="79" y="4.199999999999999" style="font-family: 'Open Sans', verdana, arial, sans-serif; font-size: 12px; fill: rgb(42, 63, 95); fill-opacity: 1; white-space: pre; opacity: 1;" transform="translate(0,174.4)">150</text></g><g class="ytick"><text text-anchor="end" x="79" y="4.199999999999999" style="font-family: 'Open Sans', verdana, arial, sans-serif; font-size: 12px; fill: rgb(42, 63, 95); fill-opacity: 1; white-space: pre; opacity: 1;" transform="translate(0,137.2)">200</text></g><g class="ytick"><text text-anchor="end" x="79" y="4.199999999999999" style="font-family: 'Open Sans', verdana, arial, sans-serif; font-size: 12px; fill: rgb(42, 63, 95); fill-opacity: 1; white-space: pre; opacity: 1;" transform="translate(0,100)">250</text></g></g><g class="overaxes-above"/></g><g class="subplot x2y2"><g class="layer-subplot"><g class="shapelayer"/><g class="imagelayer"/></g><g class="minor-gridlayer"><g class="x2"/><g class="y2"/></g><g class="gridlayer"><g class="x2"><path class="x2grid crisp" transform="translate(156.15,0)" d="M0,317.00000000000006v185.99999999999997" style="stroke: rgb(255, 255, 255); stroke-opacity: 1; stroke-width: 1px;"/><path class="x2grid crisp" transform="translate(240.77,0)" d="M0,317.00000000000006v185.99999999999997" style="stroke: rgb(255, 255, 255); stroke-opacity: 1; stroke-width: 1px;"/><path class="x2grid crisp" transform="translate(325.38,0)" d="M0,317.00000000000006v185.99999999999997" style="stroke: rgb(255, 255, 255); stroke-opacity: 1; stroke-width: 1px;"/><path class="x2grid crisp" transform="translate(410,0)" d="M0,317.00000000000006v185.99999999999997" style="stroke: rgb(255, 255, 255); stroke-opacity: 1; stroke-width: 1px;"/><path class="x2grid crisp" transform="translate(494.62,0)" d="M0,317.00000000000006v185.99999999999997" style="stroke: rgb(255, 255, 255); stroke-opacity: 1; stroke-width: 1px;"/></g><g class="y2"><path class="y2grid crisp" transform="translate(0,472.00000000000006)" d="M80,0h440" style="stroke: rgb(255, 255, 255); stroke-opacity: 1; stroke-width: 1px;"/><path class="y2grid crisp" transform="translate(0,410.00000000000006)" d="M80,0h440" style="stroke: rgb(255, 255, 255); stroke-opacity: 1; stroke-width: 1px;"/><path class="y2grid crisp" transform="translate(0,348.00000000000006)" d="M80,0h440" style="stroke: rgb(255, 255, 255); stroke-opacity: 1; stroke-width: 1px;"/></g></g><g class="zerolinelayer"/><path class="xlines-below"/><path class="ylines-below"/><g class="overlines-below"/><g class="xaxislayer-below"/><g class="yaxislayer-below"/><g class="overaxes-below"/><g class="plot" transform="translate(80,317.00000000000006)" clip-path="url(#clip3de528x2y2plot)"><g class="scatterlayer mlayer"><g class="trace scatter trace28a5ec" style="stroke-miterlimit: 2;"><g class="fills"><g><path class="js-fill" d="M0,133.16L8.46,139.66L16.92,127.33L33.85,117.29L42.31,108.57L59.23,91.74L67.69,88.5L76.15,83.74L84.62,74.96L93.08,73.35L101.54,77.48L110,81.03L118.46,76.04L135.38,82.75L143.85,84.16L152.31,82.16L160.77,84.75L177.69,85.74L186.15,92.96L203.08,94.27L211.54,96.24L220,96.6L228.46,94.83L236.92,98.54L245.38,95.5L253.85,95.96L262.31,93.83L270.77,97.17L279.23,95.75L287.69,92.93L296.15,92.17L304.62,91.07L313.08,94.73L321.54,90.88L330,92.4L338.46,97.57L346.92,93.89L355.38,89.91L363.85,89.83L380.77,95.86L389.23,102.55L397.69,109.96L406.15,119.64L414.62,122.29L423.08,126.44L431.54,131.5L440,135.63L440,141.06L431.54,141.1L423.08,140.29L414.62,131.37L406.15,131.1L389.23,107.07L380.77,100.91L363.85,95.57L355.38,99.58L346.92,105.86L338.46,101.93L330,102.45L321.54,99.9L313.08,104.72L304.62,96.56L296.15,99.6L287.69,97.61L279.23,104.96L270.77,107.55L262.31,102.36L253.85,99.63L245.38,107.29L236.92,108.36L228.46,104.94L220,108.23L211.54,104.44L203.08,99.51L186.15,100.02L177.69,96.63L169.23,101.6L160.77,98.26L152.31,92.97L143.85,93.11L135.38,95.5L126.92,89.75L118.46,93.55L110,90.17L101.54,92.57L93.08,94.75L84.62,91.34L76.15,101.47L67.69,103.13L59.23,97.35L50.77,110.73L42.31,121.09L33.85,133.04L25.38,129.18L16.92,134.44L8.46,148.92L0,149.52Z" style="fill: rgb(145, 191, 219); fill-opacity: 1; stroke-width: 0;"/></g></g><g class="errorbars"/><g class="lines"><path class="js-line" d="M0,149.52L8.46,148.92L16.92,134.44L25.38,129.18L33.85,133.04L42.31,121.09L50.77,110.73L59.23,97.35L67.69,103.13L76.15,101.47L84.62,91.34L93.08,94.75L101.54,92.57L110,90.17L118.46,93.55L126.92,89.75L135.38,95.5L143.85,93.11L152.31,92.97L160.77,98.26L169.23,101.6L177.69,96.63L186.15,100.02L203.08,99.51L211.54,104.44L220,108.23L228.46,104.94L236.92,108.36L245.38,107.29L253.85,99.63L262.31,102.36L270.77,107.55L279.23,104.96L287.69,97.61L296.15,99.6L304.62,96.56L313.08,104.72L321.54,99.9L330,102.45L338.46,101.93L346.92,105.86L355.38,99.58L363.85,95.57L380.77,100.91L389.23,107.07L406.15,131.1L414.62,131.37L423.08,140.29L431.54,141.1L440,141.06" style="vector-effect: non-scaling-stroke; fill: none; stroke: rgb(0, 0, 0); stroke-opacity: 1; stroke-width: 0.25px; opacity: 1;"/></g><g class="points"/><g class="text"/></g><g class="trace scatter tracef9c673" style="stroke-miterlimit: 2;"><g class="fills"><g><path class="js-fill" d="M0,127.91L8.46,131.21L16.92,122.47L25.38,117.98L33.85,111.61L42.31,100.95L50.77,95.15L59.23,88.12L67.69,78.92L76.15,74.61L84.62,65.63L93.08,63.85L101.54,68.36L110,70.22L118.46,69.02L126.92,73.21L135.38,74.92L143.85,78.33L152.31,71.3L160.77,76.23L169.23,79.21L177.69,81.27L186.15,85.55L194.62,88.3L203.08,87.35L211.54,88.53L220,90.91L228.46,91.67L236.92,94.3L245.38,87.72L253.85,90.23L270.77,92.61L279.23,91.21L287.69,88.97L296.15,89.63L304.62,86.96L313.08,89.16L321.54,89.56L330,85.75L338.46,86.65L346.92,88.6L355.38,83.29L363.85,88.16L372.31,90.36L380.77,93.47L389.23,100.94L397.69,105.43L414.62,116.72L423.08,119.69L431.54,128.1L440,128.24L440,135.63L431.54,131.5L423.08,126.44L414.62,122.29L406.15,119.64L397.69,109.96L389.23,102.55L380.77,95.86L363.85,89.83L355.38,89.91L346.92,93.89L338.46,97.57L330,92.4L321.54,90.88L313.08,94.73L304.62,91.07L296.15,92.17L287.69,92.93L279.23,95.75L270.77,97.17L262.31,93.83L253.85,95.96L245.38,95.5L236.92,98.54L228.46,94.83L220,96.6L211.54,96.24L203.08,94.27L186.15,92.96L177.69,85.74L160.77,84.75L152.31,82.16L143.85,84.16L135.38,82.75L118.46,76.04L110,81.03L101.54,77.48L93.08,73.35L84.62,74.96L76.15,83.74L67.69,88.5L59.23,91.74L42.31,108.57L33.85,117.29L16.92,127.33L8.46,139.66L0,133.16Z" style="fill: rgb(255, 255, 191); fill-opacity: 1; stroke-width: 0;"/></g></g><g class="errorbars"/><g class="lines"><path class="js-line" d="M0,133.16L8.46,139.66L16.92,127.33L33.85,117.29L42.31,108.57L59.23,91.74L67.69,88.5L76.15,83.74L84.62,74.96L93.08,73.35L101.54,77.48L110,81.03L118.46,76.04L135.38,82.75L143.85,84.16L152.31,82.16L160.77,84.75L177.69,85.74L186.15,92.96L203.08,94.27L211.54,96.24L220,96.6L228.46,94.83L236.92,98.54L245.38,95.5L253.85,95.96L262.31,93.83L270.77,97.17L279.23,95.75L287.69,92.93L296.15,92.17L304.62,91.07L313.08,94.73L321.54,90.88L330,92.4L338.46,97.57L346.92,93.89L355.38,89.91L363.85,89.83L380.77,95.86L389.23,102.55L397.69,109.96L406.15,119.64L414.62,122.29L423.08,126.44L431.54,131.5L440,135.63" style="vector-effect: non-scaling-stroke; fill: none; stroke: rgb(0, 0, 0); stroke-opacity: 1; stroke-width: 0.5px; opacity: 1;"/></g><g class="points"/><g class="text"/></g><g class="trace scatter traceca3b11" style="stroke-miterlimit: 2;"><g class="fills"><g><path class="js-fill" d="M0,122.02L8.46,123.76L16.92,116.32L25.38,115.27L33.85,106.77L42.31,95.55L50.77,87.99L59.23,84.37L67.69,72.97L76.15,69.11L84.62,60.63L93.08,57.18L101.54,57.56L110,63.67L118.46,60.46L126.92,62.68L135.38,57.91L143.85,65.5L152.31,67.72L169.23,71.96L177.69,73.84L194.62,82.7L203.08,82.17L211.54,82.83L220,81.93L228.46,84.82L236.92,82.1L253.85,84.31L262.31,82.07L270.77,86.36L279.23,82.16L287.69,84.39L296.15,83.48L304.62,83.42L313.08,81.22L321.54,81.9L330,79.68L338.46,79L346.92,80.96L355.38,79.89L363.85,81.17L380.77,92.08L389.23,96.79L397.69,99.44L406.15,106.59L423.08,116.53L431.54,117.57L440,114.62L440,128.24L431.54,128.1L423.08,119.69L414.62,116.72L397.69,105.43L389.23,100.94L380.77,93.47L372.31,90.36L363.85,88.16L355.38,83.29L346.92,88.6L338.46,86.65L330,85.75L321.54,89.56L313.08,89.16L304.62,86.96L296.15,89.63L287.69,88.97L279.23,91.21L270.77,92.61L253.85,90.23L245.38,87.72L236.92,94.3L228.46,91.67L220,90.91L211.54,88.53L203.08,87.35L194.62,88.3L186.15,85.55L177.69,81.27L169.23,79.21L160.77,76.23L152.31,71.3L143.85,78.33L135.38,74.92L126.92,73.21L118.46,69.02L110,70.22L101.54,68.36L93.08,63.85L84.62,65.63L76.15,74.61L67.69,78.92L59.23,88.12L50.77,95.15L42.31,100.95L33.85,111.61L25.38,117.98L16.92,122.47L8.46,131.21L0,127.91Z" style="fill: rgb(255, 255, 191); fill-opacity: 1; stroke-width: 0;"/></g></g><g class="errorbars"/><g class="lines"><path class="js-line" d="M0,127.91L8.46,131.21L16.92,122.47L25.38,117.98L33.85,111.61L42.31,100.95L50.77,95.15L59.23,88.12L67.69,78.92L76.15,74.61L84.62,65.63L93.08,63.85L101.54,68.36L110,70.22L118.46,69.02L126.92,73.21L135.38,74.92L143.85,78.33L152.31,71.3L160.77,76.23L169.23,79.21L177.69,81.27L186.15,85.55L194.62,88.3L203.08,87.35L211.54,88.53L220,90.91L228.46,91.67L236.92,94.3L245.38,87.72L253.85,90.23L270.77,92.61L279.23,91.21L287.69,88.97L296.15,89.63L304.62,86.96L313.08,89.16L321.54,89.56L330,85.75L338.46,86.65L346.92,88.6L355.38,83.29L363.85,88.16L372.31,90.36L380.77,93.47L389.23,100.94L397.69,105.43L414.62,116.72L423.08,119.69L431.54,128.1L440,128.24" style="vector-effect: non-scaling-stroke; fill: none; stroke: rgb(0, 0, 0); stroke-opacity: 1; stroke-width: 1px; opacity: 1;"/></g><g class="points"/><g class="text"/></g><g class="trace scatter tracef0a2b7" style="stroke-miterlimit: 2;"><g class="fills"><g><path class="js-fill" d="M0,106.65L8.46,107.5L16.92,110.19L25.38,106.54L33.85,99.63L42.31,82.87L50.77,83.54L67.69,68.93L76.15,59.1L84.62,46.08L93.08,51.05L101.54,49.35L110,48.72L118.46,53.42L126.92,53.13L135.38,30.6L143.85,58.34L152.31,60.21L160.77,59.37L169.23,60.44L177.69,64.52L186.15,74.77L194.62,67.76L203.08,78.87L211.54,77.1L220,71.7L228.46,78.27L236.92,68.48L245.38,71.98L253.85,68.66L262.31,68.58L270.77,73.75L279.23,70.57L287.69,74.07L296.15,71.96L304.62,73.08L313.08,66.2L321.54,78.19L330,65.49L338.46,65.03L346.92,66.13L355.38,75.38L363.85,76.65L380.77,87.03L389.23,90.46L397.69,87.06L406.15,93.44L414.62,105.76L423.08,109.23L431.54,106.66L440,100.51L440,114.62L431.54,117.57L423.08,116.53L406.15,106.59L397.69,99.44L389.23,96.79L380.77,92.08L363.85,81.17L355.38,79.89L346.92,80.96L338.46,79L330,79.68L321.54,81.9L313.08,81.22L304.62,83.42L296.15,83.48L287.69,84.39L279.23,82.16L270.77,86.36L262.31,82.07L253.85,84.31L236.92,82.1L228.46,84.82L220,81.93L211.54,82.83L203.08,82.17L194.62,82.7L177.69,73.84L169.23,71.96L152.31,67.72L143.85,65.5L135.38,57.91L126.92,62.68L118.46,60.46L110,63.67L101.54,57.56L93.08,57.18L84.62,60.63L76.15,69.11L67.69,72.97L59.23,84.37L50.77,87.99L42.31,95.55L33.85,106.77L25.38,115.27L16.92,116.32L8.46,123.76L0,122.02Z" style="fill: rgb(252, 141, 89); fill-opacity: 1; stroke-width: 0;"/></g></g><g class="errorbars"/><g class="lines"><path class="js-line" d="M0,122.02L8.46,123.76L16.92,116.32L25.38,115.27L33.85,106.77L42.31,95.55L50.77,87.99L59.23,84.37L67.69,72.97L76.15,69.11L84.62,60.63L93.08,57.18L101.54,57.56L110,63.67L118.46,60.46L126.92,62.68L135.38,57.91L143.85,65.5L152.31,67.72L169.23,71.96L177.69,73.84L194.62,82.7L203.08,82.17L211.54,82.83L220,81.93L228.46,84.82L236.92,82.1L253.85,84.31L262.31,82.07L270.77,86.36L279.23,82.16L287.69,84.39L296.15,83.48L304.62,83.42L313.08,81.22L321.54,81.9L330,79.68L338.46,79L346.92,80.96L355.38,79.89L363.85,81.17L380.77,92.08L389.23,96.79L397.69,99.44L406.15,106.59L423.08,116.53L431.54,117.57L440,114.62" style="vector-effect: non-scaling-stroke; fill: none; stroke: rgb(0, 0, 0); stroke-opacity: 1; stroke-width: 0.5px; opacity: 1;"/></g><g class="points"/><g class="text"/></g><g class="trace scatter tracee33f7d" style="stroke-miterlimit: 2;"><g class="fills"/><g class="errorbars"/><g class="lines"><path class="js-line" d="M0,106.65L8.46,107.5L16.92,110.19L25.38,106.54L33.85,99.63L42.31,82.87L50.77,83.54L67.69,68.93L76.15,59.1L84.62,46.08L93.08,51.05L101.54,49.35L110,48.72L118.46,53.42L126.92,53.13L135.38,30.6L143.85,58.34L152.31,60.21L160.77,59.37L169.23,60.44L177.69,64.52L186.15,74.77L194.62,67.76L203.08,78.87L211.54,77.1L220,71.7L228.46,78.27L236.92,68.48L245.38,71.98L253.85,68.66L262.31,68.58L270.77,73.75L279.23,70.57L287.69,74.07L296.15,71.96L304.62,73.08L313.08,66.2L321.54,78.19L330,65.49L338.46,65.03L346.92,66.13L355.38,75.38L363.85,76.65L380.77,87.03L389.23,90.46L397.69,87.06L406.15,93.44L414.62,105.76L423.08,109.23L431.54,106.66L440,100.51" style="vector-effect: non-scaling-stroke; fill: none; stroke: rgb(0, 0, 0); stroke-opacity: 1; stroke-width: 0.25px; opacity: 1;"/></g><g class="points"/><g class="text"/></g><g class="trace scatter tracec9b886" style="stroke-miterlimit: 2; opacity: 1;"><g class="fills"/><g class="errorbars"/><g class="lines"/><g class="points"><path class="point" transform="translate(203.08,68.2)" d="M4,0A4,4 0 1,1 0,-4A4,4 0 0,1 4,0ZM0,0.5L0.5,0L0,-0.5L-0.5,0Z" style="opacity: 1; stroke: rgb(0, 0, 0); stroke-opacity: 1; stroke-width: 1px; fill: none;"/><path class="point" transform="translate(211.54,80.6)" d="M4,0A4,4 0 1,1 0,-4A4,4 0 0,1 4,0ZM0,0.5L0.5,0L0,-0.5L-0.5,0Z" style="opacity: 1; stroke: rgb(0, 0, 0); stroke-opacity: 1; stroke-width: 1px; fill: none;"/><path class="point" transform="translate(220,68.2)" d="M4,0A4,4 0 1,1 0,-4A4,4 0 0,1 4,0ZM0,0.5L0.5,0L0,-0.5L-0.5,0Z" style="opacity: 1; stroke: rgb(0, 0, 0); stroke-opacity: 1; stroke-width: 1px; fill: none;"/><path class="point" transform="translate(228.46,68.2)" d="M4,0A4,4 0 1,1 0,-4A4,4 0 0,1 4,0ZM0,0.5L0.5,0L0,-0.5L-0.5,0Z" style="opacity: 1; stroke: rgb(0, 0, 0); stroke-opacity: 1; stroke-width: 1px; fill: none;"/></g><g class="text"/></g></g></g><g class="overplot"/><path class="xlines-above crisp" d="M0,0" style="fill: none;"/><path class="ylines-above crisp" d="M0,0" style="fill: none;"/><g class="overlines-above"/><g class="xaxislayer-above"/><g class="yaxislayer-above"><g class="y2tick"><text text-anchor="end" x="79" y="4.199999999999999" transform="translate(0,472.00000000000006)" style="font-family: 'Open Sans', verdana, arial, sans-serif; font-size: 12px; fill: rgb(42, 63, 95); fill-opacity: 1; white-space: pre; opacity: 1;">20</text></g><g class="y2tick"><text text-anchor="end" x="79" y="4.199999999999999" style="font-family: 'Open Sans', verdana, arial, sans-serif; font-size: 12px; fill: rgb(42, 63, 95); fill-opacity: 1; white-space: pre; opacity: 1;" transform="translate(0,410.00000000000006)">30</text></g><g class="y2tick"><text text-anchor="end" x="79" y="4.199999999999999" style="font-family: 'Open Sans', verdana, arial, sans-serif; font-size: 12px; fill: rgb(42, 63, 95); fill-opacity: 1; white-space: pre; opacity: 1;" transform="translate(0,348.00000000000006)">40</text></g></g><g class="overaxes-above"/></g><g class="subplot x3y3"><g class="layer-subplot"><g class="shapelayer"/><g class="imagelayer"/></g><g class="minor-gridlayer"><g class="x3"/><g class="y3"/></g><g class="gridlayer"><g class="x3"><path class="x3grid crisp" transform="translate(156.15,0)" d="M0,534v186" style="stroke: rgb(255, 255, 255); stroke-opacity: 1; stroke-width: 1px;"/><path class="x3grid crisp" transform="translate(240.77,0)" d="M0,534v186" style="stroke: rgb(255, 255, 255); stroke-opacity: 1; stroke-width: 1px;"/><path class="x3grid crisp" transform="translate(325.38,0)" d="M0,534v186" style="stroke: rgb(255, 255, 255); stroke-opacity: 1; stroke-width: 1px;"/><path class="x3grid crisp" transform="translate(410,0)" d="M0,534v186" style="stroke: rgb(255, 255, 255); stroke-opacity: 1; stroke-width: 1px;"/><path class="x3grid crisp" transform="translate(494.62,0)" d="M0,534v186" style="stroke: rgb(255, 255, 255); stroke-opacity: 1; stroke-width: 1px;"/></g><g class="y3"><path class="y3grid crisp" transform="translate(0,682.8)" d="M80,0h440" style="stroke: rgb(255, 255, 255); stroke-opacity: 1; stroke-width: 1px;"/><path class="y3grid crisp" transform="translate(0,645.6)" d="M80,0h440" style="stroke: rgb(255, 255, 255); stroke-opacity: 1; stroke-width: 1px;"/><path class="y3grid crisp" transform="translate(0,608.4)" d="M80,0h440" style="stroke: rgb(255, 255, 255); stroke-opacity: 1; stroke-width: 1px;"/><path class="y3grid crisp" transform="translate(0,571.2)" d="M80,0h440" style="stroke: rgb(255, 255, 255); stroke-opacity: 1; stroke-width: 1px;"/></g></g><g class="zerolinelayer"/><path class="xlines-below"/><path class="ylines-below"/><g class="overlines-below"/><g class="xaxislayer-below"/><g class="yaxislayer-below"/><g class="overaxes-below"/><g class="plot" transform="translate(80,534)" clip-path="url(#clip3de528x3y3plot)"><g class="scatterlayer mlayer"><g class="trace scatter tracebed4ba" style="stroke-miterlimit: 2;"><g class="fills"><g><path class="js-fill" d="M0,113.01L8.46,120.14L16.92,116L25.38,118.03L33.85,113.6L42.31,100.86L50.77,94.52L59.23,87.33L67.69,76.35L76.15,75.43L84.62,65.94L93.08,63.59L101.54,57.24L118.46,54.27L126.92,48.71L135.38,49.51L143.85,48.81L152.31,43.62L160.77,41.22L177.69,38.23L186.15,38.57L194.62,38.39L203.08,37.37L211.54,37.63L220,37.08L245.38,39.2L253.85,39.83L270.77,38.09L279.23,39.81L287.69,38.9L296.15,40.18L304.62,40.33L313.08,41.8L321.54,41.14L330,41.78L338.46,44.61L346.92,49.58L355.38,47.38L363.85,55.17L380.77,67.63L389.23,77.25L397.69,88.67L406.15,97.5L414.62,103.87L423.08,113.25L431.54,113.8L440,127.42L440,138.25L431.54,136.08L423.08,129.29L414.62,126.77L406.15,109.81L397.69,109.54L389.23,88.03L380.77,75.97L372.31,68.75L363.85,55.88L346.92,51.53L338.46,49.04L330,44.42L321.54,44.49L313.08,45.62L304.62,42.55L296.15,40.91L287.69,40.29L279.23,42.07L270.77,40.73L262.31,41.82L253.85,44.34L245.38,44.02L236.92,40.53L228.46,40.7L220,39.81L194.62,41.26L186.15,42.57L177.69,40.41L169.23,41.31L160.77,48.9L152.31,50.78L143.85,56.83L135.38,58.28L126.92,58.89L118.46,59.81L110,67.52L101.54,68.66L93.08,76.95L84.62,83.16L76.15,86.8L67.69,83.3L59.23,103.63L50.77,104.5L33.85,141.44L25.38,137.21L16.92,134.63L8.46,134.09L0,119.08Z" style="fill: rgb(90, 180, 172); fill-opacity: 1; stroke-width: 0;"/></g></g><g class="errorbars"/><g class="lines"><path class="js-line" d="M0,119.08L8.46,134.09L16.92,134.63L25.38,137.21L33.85,141.44L50.77,104.5L59.23,103.63L67.69,83.3L76.15,86.8L84.62,83.16L93.08,76.95L101.54,68.66L110,67.52L118.46,59.81L126.92,58.89L135.38,58.28L143.85,56.83L152.31,50.78L160.77,48.9L169.23,41.31L177.69,40.41L186.15,42.57L194.62,41.26L220,39.81L228.46,40.7L236.92,40.53L245.38,44.02L253.85,44.34L262.31,41.82L270.77,40.73L279.23,42.07L287.69,40.29L296.15,40.91L304.62,42.55L313.08,45.62L321.54,44.49L330,44.42L338.46,49.04L346.92,51.53L363.85,55.88L372.31,68.75L380.77,75.97L389.23,88.03L397.69,109.54L406.15,109.81L414.62,126.77L423.08,129.29L431.54,136.08L440,138.25" style="vector-effect: non-scaling-stroke; fill: none; stroke: rgb(0, 0, 0); stroke-opacity: 1; stroke-width: 0.25px; opacity: 1;"/></g><g class="points"/><g class="text"/></g><g class="trace scatter trace429a8e" style="stroke-miterlimit: 2;"><g class="fills"><g><path class="js-fill" d="M0,110L8.46,114.92L16.92,109.09L25.38,104.72L33.85,104.95L42.31,93.55L50.77,88.63L67.69,72.11L76.15,66.66L84.62,61.83L93.08,55.64L101.54,51.74L110,52.15L118.46,49.82L126.92,44.08L135.38,46.02L143.85,45.37L152.31,41.65L160.77,39.05L177.69,36.72L186.15,36.51L220,36.23L228.46,36.64L253.85,38.34L262.31,35.46L279.23,37.63L287.69,37.38L296.15,38.46L304.62,38.18L313.08,39.12L321.54,39.12L330,39.89L338.46,42.44L346.92,43.11L355.38,45.49L372.31,57.61L380.77,62.6L397.69,82.06L406.15,82.45L414.62,93.52L423.08,97.72L440,116.49L440,127.42L431.54,113.8L423.08,113.25L414.62,103.87L406.15,97.5L397.69,88.67L389.23,77.25L380.77,67.63L363.85,55.17L355.38,47.38L346.92,49.58L338.46,44.61L330,41.78L321.54,41.14L313.08,41.8L304.62,40.33L296.15,40.18L287.69,38.9L279.23,39.81L270.77,38.09L253.85,39.83L245.38,39.2L220,37.08L211.54,37.63L203.08,37.37L194.62,38.39L186.15,38.57L177.69,38.23L160.77,41.22L152.31,43.62L143.85,48.81L135.38,49.51L126.92,48.71L118.46,54.27L101.54,57.24L93.08,63.59L84.62,65.94L76.15,75.43L67.69,76.35L59.23,87.33L50.77,94.52L42.31,100.86L33.85,113.6L25.38,118.03L16.92,116L8.46,120.14L0,113.01Z" style="fill: rgb(245, 245, 245); fill-opacity: 1; stroke-width: 0;"/></g></g><g class="errorbars"/><g class="lines"><path class="js-line" d="M0,113.01L8.46,120.14L16.92,116L25.38,118.03L33.85,113.6L42.31,100.86L50.77,94.52L59.23,87.33L67.69,76.35L76.15,75.43L84.62,65.94L93.08,63.59L101.54,57.24L118.46,54.27L126.92,48.71L135.38,49.51L143.85,48.81L152.31,43.62L160.77,41.22L177.69,38.23L186.15,38.57L194.62,38.39L203.08,37.37L211.54,37.63L220,37.08L245.38,39.2L253.85,39.83L270.77,38.09L279.23,39.81L287.69,38.9L296.15,40.18L304.62,40.33L313.08,41.8L321.54,41.14L330,41.78L338.46,44.61L346.92,49.58L355.38,47.38L363.85,55.17L380.77,67.63L389.23,77.25L397.69,88.67L406.15,97.5L414.62,103.87L423.08,113.25L431.54,113.8L440,127.42" style="vector-effect: non-scaling-stroke; fill: none; stroke: rgb(0, 0, 0); stroke-opacity: 1; stroke-width: 0.5px; opacity: 1;"/></g><g class="points"/><g class="text"/></g><g class="trace scatter trace9d5514" style="stroke-miterlimit: 2;"><g class="fills"><g><path class="js-fill" d="M0,102.69L8.46,108.88L16.92,102.59L25.38,100.16L33.85,93.5L42.31,85.33L50.77,81.28L59.23,74.43L67.69,64.83L76.15,63.06L84.62,51.88L93.08,51.44L101.54,49.56L110,48.11L118.46,42.42L126.92,40.26L135.38,39.24L143.85,39.67L152.31,38.22L169.23,34.03L177.69,34.48L203.08,33.62L211.54,35.01L228.46,33.99L236.92,34.82L245.38,35.31L253.85,35.01L262.31,33.96L270.77,35.31L296.15,36.51L304.62,37.61L321.54,37.26L330,37.84L338.46,40.35L346.92,40.41L363.85,46.8L372.31,54.39L380.77,58.19L389.23,68.29L397.69,71.43L406.15,77.1L414.62,84.88L423.08,85.59L431.54,94.35L440,110.39L440,116.49L423.08,97.72L414.62,93.52L406.15,82.45L397.69,82.06L380.77,62.6L372.31,57.61L355.38,45.49L346.92,43.11L338.46,42.44L330,39.89L321.54,39.12L313.08,39.12L304.62,38.18L296.15,38.46L287.69,37.38L279.23,37.63L262.31,35.46L253.85,38.34L228.46,36.64L220,36.23L186.15,36.51L177.69,36.72L160.77,39.05L152.31,41.65L143.85,45.37L135.38,46.02L126.92,44.08L118.46,49.82L110,52.15L101.54,51.74L93.08,55.64L84.62,61.83L76.15,66.66L67.69,72.11L50.77,88.63L42.31,93.55L33.85,104.95L25.38,104.72L16.92,109.09L8.46,114.92L0,110Z" style="fill: rgb(245, 245, 245); fill-opacity: 1; stroke-width: 0;"/></g></g><g class="errorbars"/><g class="lines"><path class="js-line" d="M0,110L8.46,114.92L16.92,109.09L25.38,104.72L33.85,104.95L42.31,93.55L50.77,88.63L67.69,72.11L76.15,66.66L84.62,61.83L93.08,55.64L101.54,51.74L110,52.15L118.46,49.82L126.92,44.08L135.38,46.02L143.85,45.37L152.31,41.65L160.77,39.05L177.69,36.72L186.15,36.51L220,36.23L228.46,36.64L253.85,38.34L262.31,35.46L279.23,37.63L287.69,37.38L296.15,38.46L304.62,38.18L313.08,39.12L321.54,39.12L330,39.89L338.46,42.44L346.92,43.11L355.38,45.49L372.31,57.61L380.77,62.6L397.69,82.06L406.15,82.45L414.62,93.52L423.08,97.72L440,116.49" style="vector-effect: non-scaling-stroke; fill: none; stroke: rgb(0, 0, 0); stroke-opacity: 1; stroke-width: 1px; opacity: 1;"/></g><g class="points"/><g class="text"/></g><g class="trace scatter trace50f154" style="stroke-miterlimit: 2;"><g class="fills"><g><path class="js-fill" d="M0,95.23L8.46,97.27L16.92,93.35L25.38,88.76L33.85,89.16L42.31,75.66L50.77,66.12L59.23,64.66L67.69,50.96L76.15,46.75L84.62,45.08L93.08,39.65L101.54,39.51L110,37.75L118.46,37.57L126.92,36.98L135.38,33.56L143.85,28.16L152.31,30.63L160.77,30.34L169.23,27.91L177.69,31.53L186.15,29.27L194.62,27.8L203.08,31.54L220,32.49L228.46,28.89L245.38,29.87L253.85,29.48L270.77,32.5L279.23,29.1L287.69,32.09L296.15,31.04L304.62,36.05L313.08,32.04L321.54,33.41L330,32.04L338.46,36.21L346.92,34.17L363.85,41.12L372.31,45.17L380.77,52.73L389.23,58.81L414.62,71.8L423.08,76.46L431.54,87.89L440,94.01L440,110.39L431.54,94.35L423.08,85.59L414.62,84.88L406.15,77.1L397.69,71.43L389.23,68.29L380.77,58.19L372.31,54.39L363.85,46.8L346.92,40.41L338.46,40.35L330,37.84L321.54,37.26L304.62,37.61L296.15,36.51L270.77,35.31L262.31,33.96L253.85,35.01L245.38,35.31L236.92,34.82L228.46,33.99L211.54,35.01L203.08,33.62L177.69,34.48L169.23,34.03L152.31,38.22L143.85,39.67L135.38,39.24L126.92,40.26L118.46,42.42L110,48.11L101.54,49.56L93.08,51.44L84.62,51.88L76.15,63.06L67.69,64.83L59.23,74.43L50.77,81.28L42.31,85.33L33.85,93.5L25.38,100.16L16.92,102.59L8.46,108.88L0,102.69Z" style="fill: rgb(216, 179, 101); fill-opacity: 1; stroke-width: 0;"/></g></g><g class="errorbars"/><g class="lines"><path class="js-line" d="M0,102.69L8.46,108.88L16.92,102.59L25.38,100.16L33.85,93.5L42.31,85.33L50.77,81.28L59.23,74.43L67.69,64.83L76.15,63.06L84.62,51.88L93.08,51.44L101.54,49.56L110,48.11L118.46,42.42L126.92,40.26L135.38,39.24L143.85,39.67L152.31,38.22L169.23,34.03L177.69,34.48L203.08,33.62L211.54,35.01L228.46,33.99L236.92,34.82L245.38,35.31L253.85,35.01L262.31,33.96L270.77,35.31L296.15,36.51L304.62,37.61L321.54,37.26L330,37.84L338.46,40.35L346.92,40.41L363.85,46.8L372.31,54.39L380.77,58.19L389.23,68.29L397.69,71.43L406.15,77.1L414.62,84.88L423.08,85.59L431.54,94.35L440,110.39" style="vector-effect: non-scaling-stroke; fill: none; stroke: rgb(0, 0, 0); stroke-opacity: 1; stroke-width: 0.5px; opacity: 1;"/></g><g class="points"/><g class="text"/></g><g class="trace scatter trace8560d5" style="stroke-miterlimit: 2;"><g class="fills"/><g class="errorbars"/><g class="lines"><path class="js-line" d="M0,95.23L8.46,97.27L16.92,93.35L25.38,88.76L33.85,89.16L42.31,75.66L50.77,66.12L59.23,64.66L67.69,50.96L76.15,46.75L84.62,45.08L93.08,39.65L101.54,39.51L110,37.75L118.46,37.57L126.92,36.98L135.38,33.56L143.85,28.16L152.31,30.63L160.77,30.34L169.23,27.91L177.69,31.53L186.15,29.27L194.62,27.8L203.08,31.54L220,32.49L228.46,28.89L245.38,29.87L253.85,29.48L270.77,32.5L279.23,29.1L287.69,32.09L296.15,31.04L304.62,36.05L313.08,32.04L321.54,33.41L330,32.04L338.46,36.21L346.92,34.17L363.85,41.12L372.31,45.17L380.77,52.73L389.23,58.81L414.62,71.8L423.08,76.46L431.54,87.89L440,94.01" style="vector-effect: non-scaling-stroke; fill: none; stroke: rgb(0, 0, 0); stroke-opacity: 1; stroke-width: 0.25px; opacity: 1;"/></g><g class="points"/><g class="text"/></g><g class="trace scatter trace094f7f" style="stroke-miterlimit: 2; opacity: 1;"><g class="fills"/><g class="errorbars"/><g class="lines"/><g class="points"><path class="point" transform="translate(203.08,22.32)" d="M4,0A4,4 0 1,1 0,-4A4,4 0 0,1 4,0ZM0,0.5L0.5,0L0,-0.5L-0.5,0Z" style="opacity: 1; stroke: rgb(0, 0, 0); stroke-opacity: 1; stroke-width: 1px; fill: none;"/><path class="point" transform="translate(211.54,29.76)" d="M4,0A4,4 0 1,1 0,-4A4,4 0 0,1 4,0ZM0,0.5L0.5,0L0,-0.5L-0.5,0Z" style="opacity: 1; stroke: rgb(0, 0, 0); stroke-opacity: 1; stroke-width: 1px; fill: none;"/><path class="point" transform="translate(220,29.76)" d="M4,0A4,4 0 1,1 0,-4A4,4 0 0,1 4,0ZM0,0.5L0.5,0L0,-0.5L-0.5,0Z" style="opacity: 1; stroke: rgb(0, 0, 0); stroke-opacity: 1; stroke-width: 1px; fill: none;"/><path class="point" transform="translate(228.46,29.76)" d="M4,0A4,4 0 1,1 0,-4A4,4 0 0,1 4,0ZM0,0.5L0.5,0L0,-0.5L-0.5,0Z" style="opacity: 1; stroke: rgb(0, 0, 0); stroke-opacity: 1; stroke-width: 1px; fill: none;"/></g><g class="text"/></g></g></g><g class="overplot"/><path class="xlines-above crisp" d="M0,0" style="fill: none;"/><path class="ylines-above crisp" d="M0,0" style="fill: none;"/><g class="overlines-above"/><g class="xaxislayer-above"><g class="x3tick"><text text-anchor="middle" x="0" y="733" transform="translate(156.15,0)" style="font-family: 'Open Sans', verdana, arial, sans-serif; font-size: 12px; fill: rgb(42, 63, 95); fill-opacity: 1; white-space: pre; opacity: 1;">10</text></g><g class="x3tick"><text text-anchor="middle" x="0" y="733" style="font-family: 'Open Sans', verdana, arial, sans-serif; font-size: 12px; fill: rgb(42, 63, 95); fill-opacity: 1; white-space: pre; opacity: 1;" transform="translate(240.77,0)">20</text></g><g class="x3tick"><text text-anchor="middle" x="0" y="733" style="font-family: 'Open Sans', verdana, arial, sans-serif; font-size: 12px; fill: rgb(42, 63, 95); fill-opacity: 1; white-space: pre; opacity: 1;" transform="translate(325.38,0)">30</text></g><g class="x3tick"><text text-anchor="middle" x="0" y="733" style="font-family: 'Open Sans', verdana, arial, sans-serif; font-size: 12px; fill: rgb(42, 63, 95); fill-opacity: 1; white-space: pre; opacity: 1;" transform="translate(410,0)">40</text></g><g class="x3tick"><text text-anchor="middle" x="0" y="733" style="font-family: 'Open Sans', verdana, arial, sans-serif; font-size: 12px; fill: rgb(42, 63, 95); fill-opacity: 1; white-space: pre; opacity: 1;" transform="translate(494.62,0)">50</text></g></g><g class="yaxislayer-above"><g class="y3tick"><text text-anchor="end" x="79" y="4.199999999999999" transform="translate(0,720)" style="font-family: 'Open Sans', verdana, arial, sans-serif; font-size: 12px; fill: rgb(42, 63, 95); fill-opacity: 1; white-space: pre; opacity: 1;">5</text></g><g class="y3tick"><text text-anchor="end" x="79" y="4.199999999999999" style="font-family: 'Open Sans', verdana, arial, sans-serif; font-size: 12px; fill: rgb(42, 63, 95); fill-opacity: 1; white-space: pre; opacity: 1;" transform="translate(0,682.8)">10</text></g><g class="y3tick"><text text-anchor="end" x="79" y="4.199999999999999" style="font-family: 'Open Sans', verdana, arial, sans-serif; font-size: 12px; fill: rgb(42, 63, 95); fill-opacity: 1; white-space: pre; opacity: 1;" transform="translate(0,645.6)">15</text></g><g class="y3tick"><text text-anchor="end" x="79" y="4.199999999999999" style="font-family: 'Open Sans', verdana, arial, sans-serif; font-size: 12px; fill: rgb(42, 63, 95); fill-opacity: 1; white-space: pre; opacity: 1;" transform="translate(0,608.4)">20</text></g><g class="y3tick"><text text-anchor="end" x="79" y="4.199999999999999" style="font-family: 'Open Sans', verdana, arial, sans-serif; font-size: 12px; fill: rgb(42, 63, 95); fill-opacity: 1; white-space: pre; opacity: 1;" transform="translate(0,571.2)">25</text></g><g class="y3tick"><text text-anchor="end" x="79" y="4.199999999999999" style="font-family: 'Open Sans', verdana, arial, sans-serif; font-size: 12px; fill: rgb(42, 63, 95); fill-opacity: 1; white-space: pre; opacity: 1;" transform="translate(0,534)">30</text></g></g><g class="overaxes-above"/></g></g><g class="polarlayer"/><g class="smithlayer"/><g class="ternarylayer"/><g class="geolayer"/><g class="funnelarealayer"/><g class="pielayer"/><g class="iciclelayer"/><g class="treemaplayer"/><g class="sunburstlayer"/><g class="glimages"/><defs id="topdefs-3de528"><g class="clips"/></defs><g class="layer-above"><g class="imagelayer"/><g class="shapelayer"/></g><g class="infolayer"><g class="g-gtitle"><text class="gtitle" x="30" y="50" text-anchor="start" dy="0em" style="font-family: 'Open Sans', verdana, arial, sans-serif; font-size: 17px; fill: rgb(42, 63, 95); opacity: 1; font-weight: normal; white-space: pre;">Climatology and S2S forecast for Feni</text></g><g class="g-xtitle"/><g class="g-x2title"/><g class="g-x3title"/><g class="g-ytitle"><text class="ytitle" transform="rotate(-90,34.16875,193)" x="34.16875" y="193" text-anchor="middle" style="font-family: 'Open Sans', verdana, arial, sans-serif; font-size: 14px; fill: rgb(42, 63, 95); opacity: 1; font-weight: normal; white-space: pre;">[mm]</text></g><g class="g-y2title"><text class="y2title" transform="rotate(-90,40.840625,410.00000000000006)" x="40.840625" y="410.00000000000006" text-anchor="middle" style="font-family: 'Open Sans', verdana, arial, sans-serif; font-size: 14px; fill: rgb(42, 63, 95); opacity: 1; font-weight: normal; white-space: pre;">[C]</text></g><g class="g-y3title"><text class="y3title" transform="rotate(-90,40.840625,627)" x="40.840625" y="627" text-anchor="middle" style="font-family: 'Open Sans', verdana, arial, sans-serif; font-size: 14px; fill: rgb(42, 63, 95); opacity: 1; font-weight: normal; white-space: pre;">[C]</text></g><g class="annotation" data-index="0" style="opacity: 1;"><g class="annotation-text-g" transform="rotate(0,300,89.5)"><g class="cursor-pointer" transform="translate(237,79)"><rect class="bg" x="0.5" y="0.5" width="126" height="20" style="stroke-width: 1px; stroke: rgb(0, 0, 0); stroke-opacity: 0; fill: rgb(0, 0, 0); fill-opacity: 0;"/><text class="annotation-text" text-anchor="middle" x="63.359375" y="16" style="font-family: 'Open Sans', verdana, arial, sans-serif; font-size: 16px; fill: rgb(42, 63, 95); fill-opacity: 1; white-space: pre;">Precipitation sum</text></g></g></g><g class="annotation" data-index="1" style="opacity: 1;"><g class="annotation-text-g" transform="rotate(0,300,306.50000000000006)"><g class="cursor-pointer" transform="translate(196,296)"><rect class="bg" x="0.5" y="0.5" width="208" height="20" style="stroke-width: 1px; stroke: rgb(0, 0, 0); stroke-opacity: 0; fill: rgb(0, 0, 0); fill-opacity: 0;"/><text class="annotation-text" text-anchor="middle" x="104.265625" y="16" style="font-family: 'Open Sans', verdana, arial, sans-serif; font-size: 16px; fill: rgb(42, 63, 95); fill-opacity: 1; white-space: pre;">Mean maximum temperature</text></g></g></g><g class="annotation" data-index="2" style="opacity: 1;"><g class="annotation-text-g" transform="rotate(0,300,523.5)"><g class="cursor-pointer" transform="translate(198,513)"><rect class="bg" x="0.5" y="0.5" width="203" height="20" style="stroke-width: 1px; stroke: rgb(0, 0, 0); stroke-opacity: 0; fill: rgb(0, 0, 0); fill-opacity: 0;"/><text class="annotation-text" text-anchor="middle" x="102.046875" y="16" style="font-family: 'Open Sans', verdana, arial, sans-serif; font-size: 16px; fill: rgb(42, 63, 95); fill-opacity: 1; white-space: pre;">Mean minimum temperature</text></g></g></g><g class="annotation" data-index="3" style="opacity: 1;"><g class="annotation-text-g" transform="rotate(0,300,760.5)"><g class="cursor-pointer" transform="translate(277,750)"><rect class="bg" x="0.5" y="0.5" width="45" height="20" style="stroke-width: 1px; stroke: rgb(0, 0, 0); stroke-opacity: 0; fill: rgb(0, 0, 0); fill-opacity: 0;"/><text class="annotation-text" text-anchor="middle" x="22.3125" y="16" style="font-family: 'Open Sans', verdana, arial, sans-serif; font-size: 16px; fill: rgb(42, 63, 95); fill-opacity: 1; white-space: pre;">Week</text></g></g></g></g></svg>