<svg class="main-svg" xmlns="http://www.w3.org/2000/svg" xmlns:xlink="http://www.w3.org/1999/xlink" width="600" height="800" style="" viewBox="0 0 600 800"><rect x="0" y="0" width="600" height="800" style="fill: rgb(255, 255, 255); fill-opacity: 1;"/><defs id="defs-6a8a6d"><g class="clips"><clipPath id="clip6a8a6dxyplot" class="plotclip"><rect width="440" height="186.00000000000003"/></clipPath><clipPath id="clip6a8a6dx2y2plot" class="plotclip"><rect width="440" height="185.99999999999997"/></clipPath><clipPath id="clip6a8a6dx3y3plot" class="plotclip"><rect width="440" height="186"/></clipPath><clipPath class="axesclip" id="clip6a8a6dx"><rect x="80" y="0" width="440" height="800"/></clipPath><clipPath class="axesclip" id="clip6a8a6dy"><rect x="0" y="100" width="600" height="186.00000000000003"/></clipPath><clipPath class="axesclip" id="clip6a8a6dxy"><rect x="80" y="100" width="440" height="186.00000000000003"/></clipPath><clipPath class="axesclip" id="clip6a8a6dy2"><rect x="0" y="317.00000000000006" width="600" height="185.99999999999997"/></clipPath><clipPath class="axesclip" id="clip6a8a6dxy2"><rect x="80" y="317.00000000000006" width="440" height="185.99999999999997"/></clipPath><clipPath class="axesclip" id="clip6a8a6dy3"><rect x="0" y="534" width="600" height="186"/></clipPath><clipPath class="axesclip" id="clip6a8a6dxy3"><rect x="80" y="534" width="440" height="186"/></clipPath><clipPath class="axesclip" id="clip6a8a6dx2"><rect x="80" y="0" width="440" height="800"/></clipPath><clipPath class="axesclip" id="clip6a8a6dx2y"><rect x="80" y="100" width="440" height="186.00000000000003"/></clipPath><clipPath class="axesclip" id="clip6a8a6dx2y2"><rect x="80" y="317.00000000000006" width="440" height="185.99999999999997"/></clipPath><clipPath class="axesclip" id="clip6a8a6dx2y3"><rect x="80" y="534" width="440" height="186"/></clipPath><clipPath class="axesclip" id="clip6a8a6dx3"><rect x="80" y="0" width="440" height="800"/></clipPath><clipPath class="axesclip" id="clip6a8a6dx3y"><rect x="80" y="100" width="440" height="186.00000000000003"/></clipPath><clipPath class="axesclip" id="clip6a8a6dx3y2"><rect x="80" y="317.00000000000006" width="440" height="185.99999999999997"/></clipPath><clipPath class="axesclip" id="clip6a8a6dx3y3"><rect x="80" y="534" width="440" height="186"/></clipPath></g><g class="gradients"/><g class="patterns"/></defs><g class="bglayer"><rect class="bg" x="80" y="100" width="440" height="186.00000000000003" style="fill: rgb(229, 236, 246); fill-opacity: 1; stroke-width: 0;"/><rect class="bg" x="80" y="317.00000000000006" width="440" height="185.99999999999997" style="fill: rgb(229, 236, 246); fill-opacity: 1; stroke-width: 0;"/><rect class="bg" x="80" y="534" width="440" height="186" style="fill: rgb(229, 236, 246); fill-opacity: 1; stroke-width: 0;"/></g><g class="layer-below"><g class="imagelayer"/><g class="shapelayer"/></g><g class="cartesianlayer"><g class="subplot xy"><g class="layer-subplot"><g class="shapelayer"/><g class="imagelayer"/></g><g class="minor-gridlayer"><g class="x"/><g class="y"/></g><g class="gridlayer"><g class="x"><path class="xgrid crisp" transform="translate(156.15,0)" d="M0,100v186.00000000000003" style="stroke: rgb(255, 255, 255); stroke-opacity: 1; stroke-width: 1px;"/><path class="xgrid crisp" transform="translate(240.77,0)" d="M0,100v186.00000000000003" style="stroke: rgb(255, 255, 255); stroke-opacity: 1; stroke-width: 1px;"/><path class="xgrid crisp" transform="translate(325.38,0)" d="M0,100v186.00000000000003" style="stroke: rgb(255, 255, 255); stroke-opacity: 1; stroke-width: 1px;"/><path class="xgrid crisp" transform="translate(410,0)" d="M0,100v186.00000000000003" style="stroke: rgb(255, 255, 255); stroke-opacity: 1; stroke-width: 1px;"/><path class="xgrid crisp" transform="translate(494.62,0)" d="M0,100v186.00000000000003" style="stroke: rgb(255, 255, 255); stroke-opacity: 1; stroke-width: 1px;"/></g><g class="y"><path class="ygrid crisp" transform="translate(0,248.8)" d="M80,0h440" style="stroke: rgb(255, 255, 255); stroke-opacity: 1; stroke-width: 1px;"/><path class="ygrid crisp" transform="translate(0,211.6)" d="M80,0h440" style="stroke: rgb(255, 255, 255); stroke-opacity: 1; stroke-width: 1px;"/><path class="ygrid crisp" transform="translate(0,174.4)" d="M80,0h440" style="stroke: rgb(255, 255, 255); stroke-opacity: 1; stroke-width: 1px;"/><path class="ygrid crisp" transform="translate(0,137.2)" d="M80,0h440" style="stroke: rgb(255, 255, 255); stroke-opacity: 1; stroke-width: 1px;"/></g></g><g class="zerolinelayer"><path class="yzl zl crisp" transform="translate(0,286)" d="M80,0h440" style="stroke: rgb(255, 255, 255); stroke-opacity: 1; stroke-width: 2px;"/></g><path class="xlines-below"/><path class="ylines-below"/><g class="overlines-below"/><g class="xaxislayer-below"/><g class="yaxislayer-below"/><g class="overaxes-below"/><g class="plot" transform="translate(80,100)" clip-path="url(#clip6a8a6dxyplot)"><g class="scatterlayer mlayer"><g class="trace scatter trace013771" style="stroke-miterlimit: 2;"><g class="fills"><g><path class="js-fill" d="M0,186L110,185.47L118.46,185.08L126.92,179.88L135.38,178.83L143.85,162.71L152.31,175.3L160.77,166.42L169.23,143.98L186.15,177.8L194.62,152.67L203.08,156L211.54,151.23L220,166.65L228.46,161.01L236.92,178.12L245.38,155.86L253.85,174.09L262.31,174.74L270.77,172.04L279.23,167.16L287.69,176.1L296.15,178.28L304.62,169.44L313.08,176.47L321.54,173.93L330,175.69L338.46,184.12L346.92,186L440,186L440,186L330,186L321.54,186L313.08,182.44L304.62,186L287.69,186L279.23,182.71L270.77,185.99L262.31,180.41L253.85,185.26L245.38,184.44L236.92,186L228.46,182.73L220,184.86L211.54,182.78L203.08,174.75L194.62,173.41L186.15,185.26L177.69,183.62L169.23,162.69L160.77,185.94L0,186Z" style="fill: rgb(224, 236, 244); fill-opacity: 1; stroke-width: 0;"/></g></g><g class="errorbars"/><g class="lines"><path class="js-line" d="M0,186L160.77,185.94L169.23,162.69L177.69,183.62L186.15,185.26L194.62,173.41L203.08,174.75L211.54,182.78L220,184.86L228.46,182.73L236.92,186L245.38,184.44L253.85,185.26L262.31,180.41L270.77,185.99L279.23,182.71L287.69,186L304.62,186L313.08,182.44L321.54,186L330,186L440,186" style="vector-effect: non-scaling-stroke; fill: none; stroke: rgb(0, 0, 0); stroke-opacity: 1; stroke-width: 0.25px; opacity: 1;"/></g><g class="points"/><g class="text"/></g><g class="trace scatter traced0a069" style="stroke-miterlimit: 2;"><g class="fills"><g><path class="js-fill" d="M0,186L93.08,186L101.54,182.29L110,182.89L118.46,178.94L126.92,168.47L135.38,166.28L143.85,142.07L152.31,154.67L160.77,152.4L169.23,126.65L177.69,110.23L186.15,128.46L194.62,133.12L203.08,124.91L211.54,103.51L220,135.87L228.46,133.72L236.92,159.2L245.38,125.7L253.85,150.79L262.31,158.24L270.77,145.81L279.23,148.09L287.69,152.47L296.15,160.7L304.62,144.74L313.08,153.81L321.54,136.7L330,155.6L338.46,168.51L346.92,183.83L355.38,186L440,186L440,186L346.92,186L338.46,184.12L330,175.69L321.54,173.93L313.08,176.47L304.62,169.44L296.15,178.28L287.69,176.1L279.23,167.16L270.77,172.04L262.31,174.74L253.85,174.09L245.38,155.86L236.92,178.12L228.46,161.01L220,166.65L211.54,151.23L203.08,156L194.62,152.67L186.15,177.8L169.23,143.98L160.77,166.42L152.31,175.3L143.85,162.71L135.38,178.83L126.92,179.88L118.46,185.08L110,185.47L0,186Z" style="fill: rgb(158, 188, 218); fill-opacity: 1; stroke-width: 0;"/></g></g><g class="errorbars"/><g class="lines"><path class="js-line" d="M0,186L110,185.47L118.46,185.08L126.92,179.88L135.38,178.83L143.85,162.71L152.31,175.3L160.77,166.42L169.23,143.98L186.15,177.8L194.62,152.67L203.08,156L211.54,151.23L220,166.65L228.46,161.01L236.92,178.12L245.38,155.86L253.85,174.09L262.31,174.74L270.77,172.04L279.23,167.16L287.69,176.1L296.15,178.28L304.62,169.44L313.08,176.47L321.54,173.93L330,175.69L338.46,184.12L346.92,186L440,186" style="vector-effect: non-scaling-stroke; fill: none; stroke: rgb(0, 0, 0); stroke-opacity: 1; stroke-width: 0.5px; opacity: 1;"/></g><g class="points"/><g class="text"/></g><g class="trace scatter trace0505bf" style="stroke-miterlimit: 2;"><g class="fills"><g><path class="js-fill" d="M0,185.99L50.77,185.93L59.23,185.26L76.15,183.97L84.62,184.69L93.08,176.5L101.54,170.7L110,161.29L118.46,150.22L126.92,152.99L135.38,138.59L143.85,123.01L152.31,118.46L160.77,131.45L169.23,102.96L177.69,82.11L186.15,97.8L194.62,80.1L203.08,84.49L211.54,62.74L220,100.78L228.46,64.72L236.92,112L245.38,96.45L253.85,120.59L262.31,113.12L270.77,123.62L279.23,99L287.69,134.03L296.15,76.07L304.62,85.43L313.08,103.96L321.54,77.22L330,129.2L338.46,136.64L346.92,169L355.38,184.68L363.85,185.83L372.31,186L440,186L440,186L355.38,186L346.92,183.83L338.46,168.51L330,155.6L321.54,136.7L313.08,153.81L304.62,144.74L296.15,160.7L287.69,152.47L279.23,148.09L270.77,145.81L262.31,158.24L253.85,150.79L245.38,125.7L236.92,159.2L228.46,133.72L220,135.87L211.54,103.51L203.08,124.91L194.62,133.12L186.15,128.46L177.69,110.23L169.23,126.65L160.77,152.4L152.31,154.67L143.85,142.07L135.38,166.28L126.92,168.47L118.46,178.94L110,182.89L101.54,182.29L93.08,186L0,186Z" style="fill: rgb(158, 188, 218); fill-opacity: 1; stroke-width: 0;"/></g></g><g class="errorbars"/><g class="lines"><path class="js-line" d="M0,186L93.08,186L101.54,182.29L110,182.89L118.46,178.94L126.92,168.47L135.38,166.28L143.85,142.07L152.31,154.67L160.77,152.4L169.23,126.65L177.69,110.23L186.15,128.46L194.62,133.12L203.08,124.91L211.54,103.51L220,135.87L228.46,133.72L236.92,159.2L245.38,125.7L253.85,150.79L262.31,158.24L270.77,145.81L279.23,148.09L287.69,152.47L296.15,160.7L304.62,144.74L313.08,153.81L321.54,136.7L330,155.6L338.46,168.51L346.92,183.83L355.38,186L440,186" style="vector-effect: non-scaling-stroke; fill: none; stroke: rgb(0, 0, 0); stroke-opacity: 1; stroke-width: 1px; opacity: 1;"/></g><g class="points"/><g class="text"/></g><g class="trace scatter tracee9f1ac" style="stroke-miterlimit: 2;"><g class="fills"><g><path class="js-fill" d="M0,185.99L25.38,186L33.85,184.51L42.31,185.99L50.77,185.92L59.23,185.26L67.69,183.77L76.15,183.06L84.62,184.5L93.08,165.19L101.54,150.28L110,142.14L118.46,123.01L126.92,123.13L135.38,96L143.85,87.72L152.31,94.77L160.77,106.03L169.23,65.68L177.69,-32.58L186.15,48.74L194.62,-10.85L203.08,5.81L211.54,31.75L220,35.68L228.46,-79.13L236.92,14.08L245.38,16.3L253.85,49.82L262.31,60L270.77,84.49L279.23,2.55L287.69,89.42L296.15,17.43L304.62,-6.91L313.08,45.78L321.54,0.31L330,74.26L338.46,83.51L346.92,151.15L355.38,184.49L363.85,185.81L372.31,186L440,186L440,186L372.31,186L363.85,185.83L355.38,184.68L346.92,169L338.46,136.64L330,129.2L321.54,77.22L313.08,103.96L304.62,85.43L296.15,76.07L287.69,134.03L279.23,99L270.77,123.62L262.31,113.12L253.85,120.59L245.38,96.45L236.92,112L228.46,64.72L220,100.78L211.54,62.74L203.08,84.49L194.62,80.1L186.15,97.8L177.69,82.11L169.23,102.96L160.77,131.45L152.31,118.46L143.85,123.01L135.38,138.59L126.92,152.99L118.46,150.22L110,161.29L101.54,170.7L93.08,176.5L84.62,184.69L76.15,183.97L59.23,185.26L50.77,185.93L0,185.99Z" style="fill: rgb(136, 86, 167); fill-opacity: 1; stroke-width: 0;"/></g></g><g class="errorbars"/><g class="lines"><path class="js-line" d="M0,185.99L50.77,185.93L59.23,185.26L76.15,183.97L84.62,184.69L93.08,176.5L101.54,170.7L110,161.29L118.46,150.22L126.92,152.99L135.38,138.59L143.85,123.01L152.31,118.46L160.77,131.45L169.23,102.96L177.69,82.11L186.15,97.8L194.62,80.1L203.08,84.49L211.54,62.74L220,100.78L228.46,64.72L236.92,112L245.38,96.45L253.85,120.59L262.31,113.12L270.77,123.62L279.23,99L287.69,134.03L296.15,76.07L304.62,85.43L313.08,103.96L321.54,77.22L330,129.2L338.46,136.64L346.92,169L355.38,184.68L363.85,185.83L372.31,186L440,186" style="vector-effect: non-scaling-stroke; fill: none; stroke: rgb(0, 0, 0); stroke-opacity: 1; stroke-width: 0.5px; opacity: 1;"/></g><g class="points"/><g class="text"/></g><g class="trace scatter traceed008d" style="stroke-miterlimit: 2;"><g class="fills"/><g class="errorbars"/><g class="lines"><path class="js-line" d="M0,185.99L25.38,186L33.85,184.51L42.31,185.99L50.77,185.92L59.23,185.26L67.69,183.77L76.15,183.06L84.62,184.5L93.08,165.19L101.54,150.28L110,142.14L118.46,123.01L126.92,123.13L135.38,96L143.85,87.72L152.31,94.77L160.77,106.03L169.23,65.68L177.69,-32.58L186.15,48.74L194.62,-10.85L203.08,5.81L211.54,31.75L220,35.68L228.46,-79.13L236.92,14.08L245.38,16.3L253.85,49.82L262.31,60L270.77,84.49L279.23,2.55L287.69,89.42L296.15,17.43L304.62,-6.91L313.08,45.78L321.54,0.31L330,74.26L338.46,83.51L346.92,151.15L355.38,184.49L363.85,185.81L372.31,186L440,186" style="vector-effect: non-scaling-stroke; fill: none; stroke: rgb(0, 0, 0); stroke-opacity: 1; stroke-width: 0.25px; opacity: 1;"/></g><g class="points"/><g class="text"/></g><g class="trace scatter trace64a73b" style="stroke-miterlimit: 2; opacity: 1;"><g class="fills"/><g class="errorbars"/><g class="lines"/><g class="points"><path class="point" transform="translate(220,84.07)" d="M4,0A4,4 0 1,1 0,-4A4,4 0 0,1 4,0ZM0,0.5L0.5,0L0,-0.5L-0.5,0Z" style="opacity: 1; stroke: rgb(0, 0, 0); stroke-opacity: 1; stroke-width: 1px; fill: none;"/><path class="point" transform="translate(228.46,86.3)" d="M4,0A4,4 0 1,1 0,-4A4,4 0 0,1 4,0ZM0,0.5L0.5,0L0,-0.5L-0.5,0Z" style="opacity: 1; stroke: rgb(0, 0, 0); stroke-opacity: 1; stroke-width: 1px; fill: none;"/><path class="point" transform="translate(236.92,83.33)" d="M4,0A4,4 0 1,1 0,-4A4,4 0 0,1 4,0ZM0,0.5L0.5,0L0,-0.5L-0.5,0Z" style="opacity: 1; stroke: rgb(0, 0, 0); stroke-opacity: 1; stroke-width: 1px; fill: none;"/><path class="point" transform="translate(245.38,83.33)" d="M4,0A4,4 0 1,1 0,-4A4,4 0 0,1 4,0ZM0,0.5L0.5,0L0,-0.5L-0.5,0Z" style="opacity: 1; stroke: rgb(0, 0, 0); stroke-opacity: 1; stroke-width: 1px; fill: none;"/></g><g class="text"/></g></g></g><g class="overplot"/><path class="xlines-above crisp" d="M0,0" style="fill: none;"/><path class="ylines-above crisp" d="M0,0" style="fill: none;"/><g class="overlines-above"/><g class="xaxislayer-above"/><g class="yaxislayer-above"><g class="ytick"><text text-anchor="end" x="79" y="4.199999999999999" transform="translate(0,286)" style="font-family: 'Open Sans', verdana, arial, sans-serif; font-size: 12px; fill: rgb(42, 63, 95); fill-opacity: 1; white-space: pre; opacity: 1;">0</text></g><g class="ytick"><text text-anchor="end" x="79" y="4.199999999999999" style="font-family: 'Open Sans', verdana, arial, sans-serif; font-size: 12px; fill: rgb(42, 63, 95); fill-opacity: 1; white-space: pre; opacity: 1;" transform="translate(0,248.8)">50</text></g><g class="ytick"><text text-anchor="end" x="79" y="4.199999999999999" style="font-family: 'Open Sans', verdana, arial, sans-serif; font-size: 12px; fill: rgb(42, 63, 95); fill-opacity: 1; white-space: pre; opacity: 1;" transform="translate(0,211.6)">100</text></g><g class="ytick"><text text-anchor="end" x="79" y="4.199999999999999" style="font-family: 'Open Sans', verdana, arial, sans-serif; font-size: 12px; fill: rgb(42, 63, 95); fill-opacity: 1; white-space: pre; opacity: 1;" transform="translate(0,174.4)">150</text></g><g class="ytick"><text text-anchor="end" x="79" y="4.199999999999999" style="font-family: 'Open Sans', verdana, arial, sans-serif; font-size: 12px; fill: rgb(42, 63, 95); fill-opacity: 1; white-space: pre; opacity: 1;" transform="translate(0,137.2)">200</text></g><g class="ytick"><text text-anchor="end" x="79" y="4.199999999999999" style="font-family: 'Open Sans', verdana, arial, sans-serif; font-size: 12px; fill: rgb(42, 63, 95); fill-opacity: 1; white-space: pre; opacity: 1;" transform="translate(0,100)">250</text></g></g><g class="overaxes-above"/></g><g class="subplot x2y2"><g class="layer-subplot"><g class="shapelayer"/><g class="imagelayer"/></g><g class="minor-gridlayer"><g class="x2"/><g class="y2"/></g><g class="gridlayer"><g class="x2"><path class="x2grid crisp" transform="translate(156.15,0)" d="M0,317.00000000000006v185.99999999999997" style="stroke: rgb(255, 255, 255); stroke-opacity: 1; stroke-width: 1px;"/><path class="x2grid crisp" transform="translate(240.77,0)" d="M0,317.00000000000006v185.99999999999997" style="stroke: rgb(255, 255, 255); stroke-opacity: 1; stroke-width: 1px;"/><path class="x2grid crisp" transform="translate(325.38,0)" d="M0,317.00000000000006v185.99999999999997" style="stroke: rgb(255, 255, 255); stroke-opacity: 1; stroke-width: 1px;"/><path class="x2grid crisp" transform="translate(410,0)" d="M0,317.00000000000006v185.99999999999997" style="stroke: rgb(255, 255, 255); stroke-opacity: 1; stroke-width: 1px;"/><path class="x2grid crisp" transform="translate(494.62,0)" d="M0,317.00000000000006v185.99999999999997" style="stroke: rgb(255, 255, 255); stroke-opacity: 1; stroke-width: 1px;"/></g><g class="y2"><path class="y2grid crisp" transform="translate(0,472.00000000000006)" d="M80,0h440" style="stroke: rgb(255, 255, 255); stroke-opacity: 1; stroke-width: 1px;"/><path class="y2grid crisp" transform="translate(0,410.00000000000006)" d="M80,0h440" style="stroke: rgb(255, 255, 255); stroke-opacity: 1; stroke-width: 1px;"/><path class="y2grid crisp" transform="translate(0,348.00000000000006)" d="M80,0h440" style="stroke: rgb(255, 255, 255); stroke-opacity: 1; stroke-width: 1px;"/></g></g><g class="zerolinelayer"/><path class="xlines-below"/><path class="ylines-below"/><g class="overlines-below"/><g class="xaxislayer-below"/><g class="yaxislayer-below"/><g class="overaxes-below"/><g class="plot" transform="translate(80,317.00000000000006)" clip-path="url(#clip6a8a6dx2y2plot)"><g class="scatterlayer mlayer"><g class="trace scatter trace06456a" style="stroke-miterlimit: 2;"><g class="fills"><g><path class="js-fill" d="M0,147.43L8.46,152.6L16.92,143.16L25.38,136.93L33.85,132.96L42.31,122.75L50.77,115.7L59.23,108.32L67.69,96.07L76.15,99.94L84.62,82.65L93.08,72.53L101.54,82.01L110,87.51L118.46,85.63L126.92,85.38L135.38,85.99L143.85,86.43L152.31,78.48L169.23,84.38L177.69,86.44L186.15,83.33L194.62,91.82L203.08,90.06L211.54,93.16L228.46,94.86L236.92,89.88L245.38,90.48L253.85,84.21L262.31,86.59L270.77,92.23L279.23,92.09L287.69,88.66L296.15,93.57L304.62,91.85L313.08,94.02L321.54,91.99L330,94.17L338.46,94.14L346.92,89.82L355.38,89.37L363.85,96.41L372.31,98.6L380.77,107.48L389.23,114.32L397.69,121.29L406.15,130.58L414.62,131.84L423.08,142.43L431.54,143.42L440,151.05L440,154.92L431.54,152.41L423.08,161.86L414.62,139.6L406.15,138.22L397.69,136.08L389.23,119.91L380.77,114.34L372.31,103.93L363.85,101.77L355.38,93.76L346.92,96.39L338.46,109.62L330,108.78L321.54,102.52L313.08,103.82L304.62,99.99L296.15,108.84L287.69,97.01L279.23,109.07L270.77,104.77L262.31,100.06L253.85,93.83L245.38,97.78L236.92,105.42L228.46,108.71L220,103.99L211.54,107.37L203.08,100.71L194.62,102.68L186.15,91.06L177.69,90.88L169.23,92.81L160.77,88.31L152.31,88.4L143.85,94.82L135.38,98.88L126.92,93.6L118.46,95L110,100.91L101.54,99.08L93.08,93.96L84.62,102.89L76.15,104.4L67.69,112.96L59.23,122.28L50.77,139.41L42.31,136.36L33.85,151.33L25.38,140.88L16.92,150.6L8.46,164.65L0,168.48Z" style="fill: rgb(145, 191, 219); fill-opacity: 1; stroke-width: 0;"/></g></g><g class="errorbars"/><g class="lines"><path class="js-line" d="M0,168.48L8.46,164.65L16.92,150.6L25.38,140.88L33.85,151.33L42.31,136.36L50.77,139.41L59.23,122.28L67.69,112.96L76.15,104.4L84.62,102.89L93.08,93.96L101.54,99.08L110,100.91L118.46,95L126.92,93.6L135.38,98.88L143.85,94.82L152.31,88.4L160.77,88.31L169.23,92.81L177.69,90.88L186.15,91.06L194.62,102.68L203.08,100.71L211.54,107.37L220,103.99L228.46,108.71L236.92,105.42L245.38,97.78L253.85,93.83L262.31,100.06L270.77,104.77L279.23,109.07L287.69,97.01L296.15,108.84L304.62,99.99L313.08,103.82L321.54,102.52L330,108.78L338.46,109.62L346.92,96.39L355.38,93.76L363.85,101.77L372.31,103.93L380.77,114.34L389.23,119.91L397.69,136.08L406.15,138.22L414.62,139.6L423.08,161.86L431.54,152.41L440,154.92" style="vector-effect: non-scaling-stroke; fill: none; stroke: rgb(0, 0, 0); stroke-opacity: 1; stroke-width: 0.25px; opacity: 1;"/></g><g class="points"/><g class="text"/></g><g class="trace scatter trace9d6c2b" style="stroke-miterlimit: 2;"><g class="fills"><g><path class="js-fill" d="M0,140.7L8.46,146.09L16.92,135.09L25.38,134.45L33.85,127.71L42.31,117.29L50.77,109.59L59.23,101.26L67.69,88.05L76.15,82.15L84.62,74.69L93.08,66.25L101.54,70.71L110,76.17L118.46,75.78L126.92,78.04L135.38,78.53L143.85,80.87L152.31,74.27L169.23,76.69L177.69,78.19L186.15,78.18L194.62,83.02L203.08,87.02L211.54,85.49L220,89.28L228.46,85.4L236.92,78.97L245.38,82.43L262.31,78.31L270.77,84.47L279.23,83.33L287.69,84.33L296.15,83.79L304.62,88.17L313.08,87.45L321.54,87.92L330,81.36L338.46,80.77L346.92,85.98L355.38,87.57L363.85,92.6L372.31,96L389.23,111.03L397.69,114.43L406.15,123.28L414.62,126.61L431.54,138.47L440,136.2L440,151.05L431.54,143.42L423.08,142.43L414.62,131.84L406.15,130.58L397.69,121.29L389.23,114.32L380.77,107.48L372.31,98.6L363.85,96.41L355.38,89.37L346.92,89.82L338.46,94.14L330,94.17L321.54,91.99L313.08,94.02L304.62,91.85L296.15,93.57L287.69,88.66L279.23,92.09L270.77,92.23L262.31,86.59L253.85,84.21L245.38,90.48L236.92,89.88L228.46,94.86L211.54,93.16L203.08,90.06L194.62,91.82L186.15,83.33L177.69,86.44L169.23,84.38L152.31,78.48L143.85,86.43L135.38,85.99L126.92,85.38L118.46,85.63L110,87.51L101.54,82.01L93.08,72.53L84.62,82.65L76.15,99.94L67.69,96.07L59.23,108.32L50.77,115.7L42.31,122.75L33.85,132.96L25.38,136.93L16.92,143.16L8.46,152.6L0,147.43Z" style="fill: rgb(255, 255, 191); fill-opacity: 1; stroke-width: 0;"/></g></g><g class="errorbars"/><g class="lines"><path class="js-line" d="M0,147.43L8.46,152.6L16.92,143.16L25.38,136.93L33.85,132.96L42.31,122.75L50.77,115.7L59.23,108.32L67.69,96.07L76.15,99.94L84.62,82.65L93.08,72.53L101.54,82.01L110,87.51L118.46,85.63L126.92,85.38L135.38,85.99L143.85,86.43L152.31,78.48L169.23,84.38L177.69,86.44L186.15,83.33L194.62,91.82L203.08,90.06L211.54,93.16L228.46,94.86L236.92,89.88L245.38,90.48L253.85,84.21L262.31,86.59L270.77,92.23L279.23,92.09L287.69,88.66L296.15,93.57L304.62,91.85L313.08,94.02L321.54,91.99L330,94.17L338.46,94.14L346.92,89.82L355.38,89.37L363.85,96.41L372.31,98.6L380.77,107.48L389.23,114.32L397.69,121.29L406.15,130.58L414.62,131.84L423.08,142.43L431.54,143.42L440,151.05" style="vector-effect: non-scaling-stroke; fill: none; stroke: rgb(0, 0, 0); stroke-opacity: 1; stroke-width: 0.5px; opacity: 1;"/></g><g class="points"/><g class="text"/></g><g class="trace scatter tracef6dcb3" style="stroke-miterlimit: 2;"><g class="fills"><g><path class="js-fill" d="M0,132.35L8.46,137.67L16.92,128.46L25.38,130.54L33.85,117.85L42.31,111.12L50.77,99.74L67.69,84.19L76.15,74.98L84.62,67.32L93.08,57.99L101.54,55.56L110,58.79L118.46,64.52L126.92,69.19L135.38,68.8L143.85,75.94L152.31,71.11L160.77,67.47L169.23,72.71L177.69,72L186.15,70.92L194.62,74.2L203.08,78.49L211.54,80.96L220,81.31L228.46,77.84L236.92,74.42L245.38,79.97L253.85,75.32L262.31,75.66L270.77,73.84L279.23,78.88L296.15,79.71L304.62,83.97L313.08,82.02L321.54,84.12L330,73.4L338.46,74.86L346.92,78.12L355.38,86.39L363.85,90.11L372.31,92.09L380.77,101.04L389.23,105.72L397.69,110.33L406.15,116.27L423.08,125.7L431.54,128.31L440,123.56L440,136.2L431.54,138.47L414.62,126.61L406.15,123.28L397.69,114.43L389.23,111.03L372.31,96L363.85,92.6L355.38,87.57L346.92,85.98L338.46,80.77L330,81.36L321.54,87.92L313.08,87.45L304.62,88.17L296.15,83.79L287.69,84.33L279.23,83.33L270.77,84.47L262.31,78.31L245.38,82.43L236.92,78.97L228.46,85.4L220,89.28L211.54,85.49L203.08,87.02L194.62,83.02L186.15,78.18L177.69,78.19L169.23,76.69L152.31,74.27L143.85,80.87L135.38,78.53L126.92,78.04L118.46,75.78L110,76.17L101.54,70.71L93.08,66.25L84.62,74.69L76.15,82.15L67.69,88.05L59.23,101.26L50.77,109.59L42.31,117.29L33.85,127.71L25.38,134.45L16.92,135.09L8.46,146.09L0,140.7Z" style="fill: rgb(255, 255, 191); fill-opacity: 1; stroke-width: 0;"/></g></g><g class="errorbars"/><g class="lines"><path class="js-line" d="M0,140.7L8.46,146.09L16.92,135.09L25.38,134.45L33.85,127.71L42.31,117.29L50.77,109.59L59.23,101.26L67.69,88.05L76.15,82.15L84.62,74.69L93.08,66.25L101.54,70.71L110,76.17L118.46,75.78L126.92,78.04L135.38,78.53L143.85,80.87L152.31,74.27L169.23,76.69L177.69,78.19L186.15,78.18L194.62,83.02L203.08,87.02L211.54,85.49L220,89.28L228.46,85.4L236.92,78.97L245.38,82.43L262.31,78.31L270.77,84.47L279.23,83.33L287.69,84.33L296.15,83.79L304.62,88.17L313.08,87.45L321.54,87.92L330,81.36L338.46,80.77L346.92,85.98L355.38,87.57L363.85,92.6L372.31,96L389.23,111.03L397.69,114.43L406.15,123.28L414.62,126.61L431.54,138.47L440,136.2" style="vector-effect: non-scaling-stroke; fill: none; stroke: rgb(0, 0, 0); stroke-opacity: 1; stroke-width: 1px; opacity: 1;"/></g><g class="points"/><g class="text"/></g><g class="trace scatter traced747f6" style="stroke-miterlimit: 2;"><g class="fills"><g><path class="js-fill" d="M0,115.62L8.46,122.32L16.92,117.96L25.38,125.27L33.85,111.08L42.31,101.45L50.77,86.72L59.23,76.65L67.69,68.31L76.15,61.84L84.62,53.37L93.08,54.07L101.54,37.95L110,44.21L118.46,38.4L126.92,49.82L135.38,47.47L143.85,64.58L152.31,68.19L160.77,52.51L169.23,70.1L177.69,61.45L186.15,65.68L194.62,65.1L203.08,62.44L211.54,66.62L220,67.27L228.46,69.85L236.92,65.49L245.38,66.34L253.85,63.69L262.31,66.92L270.77,68.76L279.23,64.96L287.69,65.61L296.15,69.12L304.62,75.85L313.08,64.1L321.54,74.09L330,66.62L338.46,62.02L346.92,73.15L355.38,82.7L363.85,84.08L372.31,87.42L380.77,94.92L389.23,96.91L397.69,99.6L406.15,106.23L414.62,113.38L423.08,118.05L431.54,119.87L440,117L440,123.56L431.54,128.31L423.08,125.7L406.15,116.27L397.69,110.33L389.23,105.72L380.77,101.04L372.31,92.09L363.85,90.11L355.38,86.39L346.92,78.12L338.46,74.86L330,73.4L321.54,84.12L313.08,82.02L304.62,83.97L296.15,79.71L279.23,78.88L270.77,73.84L262.31,75.66L253.85,75.32L245.38,79.97L236.92,74.42L228.46,77.84L220,81.31L211.54,80.96L203.08,78.49L194.62,74.2L186.15,70.92L177.69,72L169.23,72.71L160.77,67.47L152.31,71.11L143.85,75.94L135.38,68.8L126.92,69.19L118.46,64.52L110,58.79L101.54,55.56L93.08,57.99L84.62,67.32L76.15,74.98L67.69,84.19L50.77,99.74L42.31,111.12L33.85,117.85L25.38,130.54L16.92,128.46L8.46,137.67L0,132.35Z" style="fill: rgb(252, 141, 89); fill-opacity: 1; stroke-width: 0;"/></g></g><g class="errorbars"/><g class="lines"><path class="js-line" d="M0,132.35L8.46,137.67L16.92,128.46L25.38,130.54L33.85,117.85L42.31,111.12L50.77,99.74L67.69,84.19L76.15,74.98L84.62,67.32L93.08,57.99L101.54,55.56L110,58.79L118.46,64.52L126.92,69.19L135.38,68.8L143.85,75.94L152.31,71.11L160.77,67.47L169.23,72.71L177.69,72L186.15,70.92L194.62,74.2L203.08,78.49L211.54,80.96L220,81.31L228.46,77.84L236.92,74.42L245.38,79.97L253.85,75.32L262.31,75.66L270.77,73.84L279.23,78.88L296.15,79.71L304.62,83.97L313.08,82.02L321.54,84.12L330,73.4L338.46,74.86L346.92,78.12L355.38,86.39L363.85,90.11L372.31,92.09L380.77,101.04L389.23,105.72L397.69,110.33L406.15,116.27L423.08,125.7L431.54,128.31L440,123.56" style="vector-effect: non-scaling-stroke; fill: none; stroke: rgb(0, 0, 0); stroke-opacity: 1; stroke-width: 0.5px; opacity: 1;"/></g><g class="points"/><g class="text"/></g><g class="trace scatter trace461525" style="stroke-miterlimit: 2;"><g class="fills"/><g class="errorbars"/><g class="lines"><path class="js-line" d="M0,115.62L8.46,122.32L16.92,117.96L25.38,125.27L33.85,111.08L42.31,101.45L50.77,86.72L59.23,76.65L67.69,68.31L76.15,61.84L84.62,53.37L93.08,54.07L101.54,37.95L110,44.21L118.46,38.4L126.92,49.82L135.38,47.47L143.85,64.58L152.31,68.19L160.77,52.51L169.23,70.1L177.69,61.45L186.15,65.68L194.62,65.1L203.08,62.44L211.54,66.62L220,67.27L228.46,69.85L236.92,65.49L245.38,66.34L253.85,63.69L262.31,66.92L270.77,68.76L279.23,64.96L287.69,65.61L296.15,69.12L304.62,75.85L313.08,64.1L321.54,74.09L330,66.62L338.46,62.02L346.92,73.15L355.38,82.7L363.85,84.08L372.31,87.42L380.77,94.92L389.23,96.91L397.69,99.6L406.15,106.23L414.62,113.38L423.08,118.05L431.54,119.87L440,117" style="vector-effect: non-scaling-stroke; fill: none; stroke: rgb(0, 0, 0); stroke-opacity: 1; stroke-width: 0.25px; opacity: 1;"/></g><g class="points"/><g class="text"/></g><g class="trace scatter trace03d466" style="stroke-miterlimit: 2; opacity: 1;"><g class="fills"/><g class="errorbars"/><g class="lines"/><g class="points"><path class="point" transform="translate(220,68.2)" d="M4,0A4,4 0 1,1 0,-4A4,4 0 0,1 4,0ZM0,0.5L0.5,0L0,-0.5L-0.5,0Z" style="opacity: 1; stroke: rgb(0, 0, 0); stroke-opacity: 1; stroke-width: 1px; fill: none;"/><path class="point" transform="translate(228.46,68.2)" d="M4,0A4,4 0 1,1 0,-4A4,4 0 0,1 4,0ZM0,0.5L0.5,0L0,-0.5L-0.5,0Z" style="opacity: 1; stroke: rgb(0, 0, 0); stroke-opacity: 1; stroke-width: 1px; fill: none;"/><path class="point" transform="translate(236.92,68.2)" d="M4,0A4,4 0 1,1 0,-4A4,4 0 0,1 4,0ZM0,0.5L0.5,0L0,-0.5L-0.5,0Z" style="opacity: 1; stroke: rgb(0, 0, 0); stroke-opacity: 1; stroke-width: 1px; fill: none;"/><path class="point" transform="translate(245.38,68.2)" d="M4,0A4,4 0 1,1 0,-4A4,4 0 0,1 4,0ZM0,0.5L0.5,0L0,-0.5L-0.5,0Z" style="opacity: 1; stroke: rgb(0, 0, 0); stroke-opacity: 1; stroke-width: 1px; fill: none;"/></g><g class="text"/></g></g></g><g class="overplot"/><path class="xlines-above crisp" d="M0,0" style="fill: none;"/><path class="ylines-above crisp" d="M0,0" style="fill: none;"/><g class="overlines-above"/><g class="xaxislayer-above"/><g class="yaxislayer-above"><g class="y2tick"><text text-anchor="end" x="79" y="4.199999999999999" transform="translate(0,472.00000000000006)" style="font-family: 'Open Sans', verdana, arial, sans-serif; font-size: 12px; fill: rgb(42, 63, 95); fill-opacity: 1; white-space: pre; opacity: 1;">20</text></g><g class="y2tick"><text text-anchor="end" x="79" y="4.199999999999999" style="font-family: 'Open Sans', verdana, arial, sans-serif; font-size: 12px; fill: rgb(42, 63, 95); fill-opacity: 1; white-space: pre; opacity: 1;" transform="translate(0,410.00000000000006)">30</text></g><g class="y2tick"><text text-anchor="end" x="79" y="4.199999999999999" style="font-family: 'Open Sans', verdana, arial, sans-serif; font-size: 12px; fill: rgb(42, 63, 95); fill-opacity: 1; white-space: pre; opacity: 1;" transform="translate(0,348.00000000000006)">40</text></g></g><g class="overaxes-above"/></g><g class="subplot x3y3"><g class="layer-subplot"><g class="shapelayer"/><g class="imagelayer"/></g><g class="minor-gridlayer"><g class="x3"/><g class="y3"/></g><g class="gridlayer"><g class="x3"><path class="x3grid crisp" transform="translate(156.15,0)" d="M0,534v186" style="stroke: rgb(255, 255, 255); stroke-opacity: 1; stroke-width: 1px;"/><path class="x3grid crisp" transform="translate(240.77,0)" d="M0,534v186" style="stroke: rgb(255, 255, 255); stroke-opacity: 1; stroke-width: 1px;"/><path class="x3grid crisp" transform="translate(325.38,0)" d="M0,534v186" style="stroke: rgb(255, 255, 255); stroke-opacity: 1; stroke-width: 1px;"/><path class="x3grid crisp" transform="translate(410,0)" d="M0,534v186" style="stroke: rgb(255, 255, 255); stroke-opacity: 1; stroke-width: 1px;"/><path class="x3grid crisp" transform="translate(494.62,0)" d="M0,534v186" style="stroke: rgb(255, 255, 255); stroke-opacity: 1; stroke-width: 1px;"/></g><g class="y3"><path class="y3grid crisp" transform="translate(0,682.8)" d="M80,0h440" style="stroke: rgb(255, 255, 255); stroke-opacity: 1; stroke-width: 1px;"/><path class="y3grid crisp" transform="translate(0,645.6)" d="M80,0h440" style="stroke: rgb(255, 255, 255); stroke-opacity: 1; stroke-width: 1px;"/><path class="y3grid crisp" transform="translate(0,608.4)" d="M80,0h440" style="stroke: rgb(255, 255, 255); stroke-opacity: 1; stroke-width: 1px;"/><path class="y3grid crisp" transform="translate(0,571.2)" d="M80,0h440" style="stroke: rgb(255, 255, 255); stroke-opacity: 1; stroke-width: 1px;"/></g></g><g class="zerolinelayer"/><path class="xlines-below"/><path class="ylines-below"/><g class="overlines-below"/><g class="xaxislayer-below"/><g class="yaxislayer-below"/><g class="overaxes-below"/><g class="plot" transform="translate(80,534)" clip-path="url(#clip6a8a6dx3y3plot)"><g class="scatterlayer mlayer"><g class="trace scatter trace5b6fb8" style="stroke-miterlimit: 2;"><g class="fills"><g><path class="js-fill" d="M0,130.12L8.46,138.94L16.92,132.78L25.38,127.89L33.85,124.16L42.31,117.47L50.77,112.64L59.23,101.99L67.69,95.37L76.15,88.21L84.62,83.74L93.08,73.21L101.54,69.5L110,66.77L118.46,66.97L126.92,57.32L135.38,60.09L143.85,61.25L152.31,51.16L160.77,48.9L169.23,44.52L177.69,44.81L186.15,40L194.62,39.47L203.08,37.81L211.54,37.75L220,36.8L236.92,36.62L245.38,37.5L253.85,36.01L262.31,35.48L279.23,38.61L287.69,37.12L296.15,39.45L304.62,41L321.54,40.45L330,43.88L346.92,52.68L355.38,56.59L363.85,67.3L372.31,71.29L397.69,100.74L406.15,105.24L414.62,112.7L423.08,128.06L431.54,126.52L440,134.05L440,140.93L431.54,147.83L423.08,133.56L414.62,125.79L406.15,114.57L397.69,114.19L389.23,98.39L380.77,89.02L363.85,71.04L355.38,61.65L346.92,58.03L338.46,57.01L321.54,44.29L313.08,50.43L304.62,44.11L296.15,45.53L287.69,42.03L279.23,42.73L270.77,42.64L262.31,41.88L253.85,39.22L245.38,45.27L236.92,40.24L228.46,42.31L220,42.68L211.54,39.65L203.08,39.24L194.62,41.13L186.15,43.9L177.69,51.77L169.23,50.05L160.77,57.26L152.31,57.85L143.85,72.94L135.38,70.97L126.92,59.82L118.46,73.64L110,84.14L101.54,77.69L93.08,88.67L84.62,100.98L76.15,108.07L67.69,111.66L59.23,115.74L50.77,129.04L42.31,130.22L33.85,136.79L25.38,134L16.92,139.4L8.46,146.48L0,146.04Z" style="fill: rgb(90, 180, 172); fill-opacity: 1; stroke-width: 0;"/></g></g><g class="errorbars"/><g class="lines"><path class="js-line" d="M0,146.04L8.46,146.48L16.92,139.4L25.38,134L33.85,136.79L42.31,130.22L50.77,129.04L59.23,115.74L67.69,111.66L76.15,108.07L84.62,100.98L93.08,88.67L101.54,77.69L110,84.14L118.46,73.64L126.92,59.82L135.38,70.97L143.85,72.94L152.31,57.85L160.77,57.26L169.23,50.05L177.69,51.77L186.15,43.9L194.62,41.13L203.08,39.24L211.54,39.65L220,42.68L228.46,42.31L236.92,40.24L245.38,45.27L253.85,39.22L262.31,41.88L270.77,42.64L279.23,42.73L287.69,42.03L296.15,45.53L304.62,44.11L313.08,50.43L321.54,44.29L338.46,57.01L346.92,58.03L355.38,61.65L363.85,71.04L380.77,89.02L389.23,98.39L397.69,114.19L406.15,114.57L414.62,125.79L423.08,133.56L431.54,147.83L440,140.93" style="vector-effect: non-scaling-stroke; fill: none; stroke: rgb(0, 0, 0); stroke-opacity: 1; stroke-width: 0.25px; opacity: 1;"/></g><g class="points"/><g class="text"/></g><g class="trace scatter trace9927a8" style="stroke-miterlimit: 2;"><g class="fills"><g><path class="js-fill" d="M0,121.49L8.46,130.76L16.92,123.33L25.38,119.48L33.85,119.12L42.31,107.89L50.77,103.29L59.23,96.06L67.69,84.23L76.15,81.17L84.62,71.32L93.08,63.96L101.54,61.92L110,63.32L118.46,60.45L126.92,55.29L135.38,55.88L143.85,54.29L152.31,47.48L160.77,43.87L169.23,42.74L177.69,42.12L186.15,36.75L194.62,37.2L203.08,35.77L220,34.92L228.46,34.97L236.92,34.44L245.38,35.73L262.31,31.98L270.77,34.13L287.69,35.22L296.15,36.34L304.62,39L313.08,39.02L321.54,39.08L330,40.02L338.46,41.57L346.92,46.42L363.85,62.39L372.31,66.03L380.77,76.27L389.23,84.56L397.69,92.55L406.15,102L414.62,105.46L423.08,113.15L431.54,121.3L440,131.89L440,134.05L431.54,126.52L423.08,128.06L414.62,112.7L406.15,105.24L397.69,100.74L372.31,71.29L363.85,67.3L355.38,56.59L346.92,52.68L330,43.88L321.54,40.45L304.62,41L296.15,39.45L287.69,37.12L279.23,38.61L262.31,35.48L253.85,36.01L245.38,37.5L236.92,36.62L220,36.8L211.54,37.75L203.08,37.81L194.62,39.47L186.15,40L177.69,44.81L169.23,44.52L160.77,48.9L152.31,51.16L143.85,61.25L135.38,60.09L126.92,57.32L118.46,66.97L110,66.77L101.54,69.5L93.08,73.21L84.62,83.74L76.15,88.21L67.69,95.37L59.23,101.99L50.77,112.64L42.31,117.47L33.85,124.16L25.38,127.89L16.92,132.78L8.46,138.94L0,130.12Z" style="fill: rgb(245, 245, 245); fill-opacity: 1; stroke-width: 0;"/></g></g><g class="errorbars"/><g class="lines"><path class="js-line" d="M0,130.12L8.46,138.94L16.92,132.78L25.38,127.89L33.85,124.16L42.31,117.47L50.77,112.64L59.23,101.99L67.69,95.37L76.15,88.21L84.62,83.74L93.08,73.21L101.54,69.5L110,66.77L118.46,66.97L126.92,57.32L135.38,60.09L143.85,61.25L152.31,51.16L160.77,48.9L169.23,44.52L177.69,44.81L186.15,40L194.62,39.47L203.08,37.81L211.54,37.75L220,36.8L236.92,36.62L245.38,37.5L253.85,36.01L262.31,35.48L279.23,38.61L287.69,37.12L296.15,39.45L304.62,41L321.54,40.45L330,43.88L346.92,52.68L355.38,56.59L363.85,67.3L372.31,71.29L397.69,100.74L406.15,105.24L414.62,112.7L423.08,128.06L431.54,126.52L440,134.05" style="vector-effect: non-scaling-stroke; fill: none; stroke: rgb(0, 0, 0); stroke-opacity: 1; stroke-width: 0.5px; opacity: 1;"/></g><g class="points"/><g class="text"/></g><g class="trace scatter tracedadc1b" style="stroke-miterlimit: 2;"><g class="fills"><g><path class="js-fill" d="M0,113.98L8.46,120.22L16.92,115.96L25.38,116.4L33.85,111.66L42.31,101.87L50.77,97.14L67.69,75.95L76.15,74.17L84.62,66.25L93.08,60.84L101.54,51.34L110,52.95L118.46,51.23L126.92,52.56L135.38,46.78L143.85,50.4L152.31,43.73L160.77,41.53L177.69,37.49L186.15,34.43L194.62,35.95L203.08,34.69L220,30.67L228.46,32.2L236.92,29.94L245.38,31.45L262.31,29.65L270.77,29.99L287.69,32.93L296.15,33.78L304.62,35.82L313.08,33.96L321.54,37.63L330,35.4L338.46,36.38L346.92,44.02L363.85,58.46L372.31,61.5L380.77,73.61L389.23,79.83L397.69,86.97L406.15,95.49L414.62,99.59L423.08,98.66L440,120.9L440,131.89L431.54,121.3L423.08,113.15L414.62,105.46L406.15,102L397.69,92.55L389.23,84.56L380.77,76.27L372.31,66.03L363.85,62.39L346.92,46.42L338.46,41.57L330,40.02L321.54,39.08L313.08,39.02L304.62,39L296.15,36.34L287.69,35.22L270.77,34.13L262.31,31.98L245.38,35.73L236.92,34.44L228.46,34.97L220,34.92L203.08,35.77L194.62,37.2L186.15,36.75L177.69,42.12L169.23,42.74L160.77,43.87L152.31,47.48L143.85,54.29L135.38,55.88L126.92,55.29L118.46,60.45L110,63.32L101.54,61.92L93.08,63.96L84.62,71.32L76.15,81.17L67.69,84.23L59.23,96.06L50.77,103.29L42.31,107.89L33.85,119.12L25.38,119.48L16.92,123.33L8.46,130.76L0,121.49Z" style="fill: rgb(245, 245, 245); fill-opacity: 1; stroke-width: 0;"/></g></g><g class="errorbars"/><g class="lines"><path class="js-line" d="M0,121.49L8.46,130.76L16.92,123.33L25.38,119.48L33.85,119.12L42.31,107.89L50.77,103.29L59.23,96.06L67.69,84.23L76.15,81.17L84.62,71.32L93.08,63.96L101.54,61.92L110,63.32L118.46,60.45L126.92,55.29L135.38,55.88L143.85,54.29L152.31,47.48L160.77,43.87L169.23,42.74L177.69,42.12L186.15,36.75L194.62,37.2L203.08,35.77L220,34.92L228.46,34.97L236.92,34.44L245.38,35.73L262.31,31.98L270.77,34.13L287.69,35.22L296.15,36.34L304.62,39L313.08,39.02L321.54,39.08L330,40.02L338.46,41.57L346.92,46.42L363.85,62.39L372.31,66.03L380.77,76.27L389.23,84.56L397.69,92.55L406.15,102L414.62,105.46L423.08,113.15L431.54,121.3L440,131.89" style="vector-effect: non-scaling-stroke; fill: none; stroke: rgb(0, 0, 0); stroke-opacity: 1; stroke-width: 1px; opacity: 1;"/></g><g class="points"/><g class="text"/></g><g class="trace scatter traceca3319" style="stroke-miterlimit: 2;"><g class="fills"><g><path class="js-fill" d="M0,109.46L8.46,112.25L16.92,102L25.38,102.41L33.85,104.94L42.31,92.72L50.77,76.75L59.23,80.41L67.69,62.79L76.15,60.28L84.62,53.5L93.08,42.53L101.54,37.69L110,40.17L118.46,34.1L126.92,48.44L135.38,28.57L143.85,38.07L152.31,38.14L160.77,34.37L169.23,36.83L177.69,30.46L186.15,30.63L194.62,33.41L203.08,31.69L211.54,28.68L220,22.13L228.46,26.44L236.92,20.68L245.38,28.88L253.85,25.38L262.31,26.6L270.77,22.07L279.23,24.97L287.69,29.11L296.15,27.64L304.62,30.05L313.08,28.97L321.54,34.08L330,29.36L338.46,26.32L355.38,44.78L363.85,51.88L372.31,55.35L380.77,67.43L389.23,74.27L397.69,79.19L406.15,86.32L414.62,84.58L423.08,87.88L431.54,99.99L440,103.94L440,120.9L423.08,98.66L414.62,99.59L406.15,95.49L397.69,86.97L389.23,79.83L380.77,73.61L372.31,61.5L363.85,58.46L346.92,44.02L338.46,36.38L330,35.4L321.54,37.63L313.08,33.96L304.62,35.82L296.15,33.78L287.69,32.93L270.77,29.99L262.31,29.65L245.38,31.45L236.92,29.94L228.46,32.2L220,30.67L203.08,34.69L194.62,35.95L186.15,34.43L177.69,37.49L160.77,41.53L152.31,43.73L143.85,50.4L135.38,46.78L126.92,52.56L118.46,51.23L110,52.95L101.54,51.34L93.08,60.84L84.62,66.25L76.15,74.17L67.69,75.95L50.77,97.14L42.31,101.87L33.85,111.66L25.38,116.4L16.92,115.96L8.46,120.22L0,113.98Z" style="fill: rgb(216, 179, 101); fill-opacity: 1; stroke-width: 0;"/></g></g><g class="errorbars"/><g class="lines"><path class="js-line" d="M0,113.98L8.46,120.22L16.92,115.96L25.38,116.4L33.85,111.66L42.31,101.87L50.77,97.14L67.69,75.95L76.15,74.17L84.62,66.25L93.08,60.84L101.54,51.34L110,52.95L118.46,51.23L126.92,52.56L135.38,46.78L143.85,50.4L152.31,43.73L160.77,41.53L177.69,37.49L186.15,34.43L194.62,35.95L203.08,34.69L220,30.67L228.46,32.2L236.92,29.94L245.38,31.45L262.31,29.65L270.77,29.99L287.69,32.93L296.15,33.78L304.62,35.82L313.08,33.96L321.54,37.63L330,35.4L338.46,36.38L346.92,44.02L363.85,58.46L372.31,61.5L380.77,73.61L389.23,79.83L397.69,86.97L406.15,95.49L414.62,99.59L423.08,98.66L440,120.9" style="vector-effect: non-scaling-stroke; fill: none; stroke: rgb(0, 0, 0); stroke-opacity: 1; stroke-width: 0.5px; opacity: 1;"/></g><g class="points"/><g class="text"/></g><g class="trace scatter traceaf7287" style="stroke-miterlimit: 2;"><g class="fills"/><g class="errorbars"/><g class="lines"><path class="js-line" d="M0,109.46L8.46,112.25L16.92,102L25.38,102.41L33.85,104.94L42.31,92.72L50.77,76.75L59.23,80.41L67.69,62.79L76.15,60.28L84.62,53.5L93.08,42.53L101.54,37.69L110,40.17L118.46,34.1L126.92,48.44L135.38,28.57L143.85,38.07L152.31,38.14L160.77,34.37L169.23,36.83L177.69,30.46L186.15,30.63L194.62,33.41L203.08,31.69L211.54,28.68L220,22.13L228.46,26.44L236.92,20.68L245.38,28.88L253.85,25.38L262.31,26.6L270.77,22.07L279.23,24.97L287.69,29.11L296.15,27.64L304.62,30.05L313.08,28.97L321.54,34.08L330,29.36L338.46,26.32L355.38,44.78L363.85,51.88L372.31,55.35L380.77,67.43L389.23,74.27L397.69,79.19L406.15,86.32L414.62,84.58L423.08,87.88L431.54,99.99L440,103.94" style="vector-effect: non-scaling-stroke; fill: none; stroke: rgb(0, 0, 0); stroke-opacity: 1; stroke-width: 0.25px; opacity: 1;"/></g><g class="points"/><g class="text"/></g><g class="trace scatter trace0c1aef" style="stroke-miterlimit: 2; opacity: 1;"><g class="fills"/><g class="errorbars"/><g class="lines"/><g class="points"><path class="point" transform="translate(220,14.88)" d="M4,0A4,4 0 1,1 0,-4A4,4 0 0,1 4,0ZM0,0.5L0.5,0L0,-0.5L-0.5,0Z" style="opacity: 1; stroke: rgb(0, 0, 0); stroke-opacity: 1; stroke-width: 1px; fill: none;"/><path class="point" transform="translate(228.46,14.88)" d="M4,0A4,4 0 1,1 0,-4A4,4 0 0,1 4,0ZM0,0.5L0.5,0L0,-0.5L-0.5,0Z" style="opacity: 1; stroke: rgb(0, 0, 0); stroke-opacity: 1; stroke-width: 1px; fill: none;"/><path class="point" transform="translate(236.92,14.88)" d="M4,0A4,4 0 1,1 0,-4A4,4 0 0,1 4,0ZM0,0.5L0.5,0L0,-0.5L-0.5,0Z" style="opacity: 1; stroke: rgb(0, 0, 0); stroke-opacity: 1; stroke-width: 1px; fill: none;"/><path class="point" transform="translate(245.38,14.88)" d="M4,0A4,4 0 1,1 0,-4A4,4 0 0,1 4,0ZM0,0.5L0.5,0L0,-0.5L-0.5,0Z" style="opacity: 1; stroke: rgb(0, 0, 0); stroke-opacity: 1; stroke-width: 1px; fill: none;"/></g><g class="text"/></g></g></g><g class="overplot"/><path class="xlines-above crisp" d="M0,0" style="fill: none;"/><path class="ylines-above crisp" d="M0,0" style="fill: none;"/><g class="overlines-above"/><g class="xaxislayer-above"><g class="x3tick"><text text-anchor="middle" x="0" y="733" transform="translate(156.15,0)" style="font-family: 'Open Sans', verdana, arial, sans-serif; font-size: 12px; fill: rgb(42, 63, 95); fill-opacity: 1; white-space: pre; opacity: 1;">10</text></g><g class="x3tick"><text text-anchor="middle" x="0" y="733" style="font-family: 'Open Sans', verdana, arial, sans-serif; font-size: 12px; fill: rgb(42, 63, 95); fill-opacity: 1; white-space: pre; opacity: 1;" transform="translate(240.77,0)">20</text></g><g class="x3tick"><text text-anchor="middle" x="0" y="733" style="font-family: 'Open Sans', verdana, arial, sans-serif; font-size: 12px; fill: rgb(42, 63, 95); fill-opacity: 1; white-space: pre; opacity: 1;" transform="translate(325.38,0)">30</text></g><g class="x3tick"><text text-anchor="middle" x="0" y="733" style="font-family: 'Open Sans', verdana, arial, sans-serif; font-size: 12px; fill: rgb(42, 63, 95); fill-opacity: 1; white-space: pre; opacity: 1;" transform="translate(410,0)">40</text></g><g class="x3tick"><text text-anchor="middle" x="0" y="733" style="font-family: 'Open Sans', verdana, arial, sans-serif; font-size: 12px; fill: rgb(42, 63, 95); fill-opacity: 1; white-space: pre; opacity: 1;" transform="translate(494.62,0)">50</text></g></g><g class="yaxislayer-above"><g class="y3tick"><text text-anchor="end" x="79" y="4.199999999999999" transform="translate(0,720)" style="font-family: 'Open Sans', verdana, arial, sans-serif; font-size: 12px; fill: rgb(42, 63, 95); fill-opacity: 1; white-space: pre; opacity: 1;">5</text></g><g class="y3tick"><text text-anchor="end" x="79" y="4.199999999999999" style="font-family: 'Open Sans', verdana, arial, sans-serif; font-size: 12px; fill: rgb(42, 63, 95); fill-opacity: 1; white-space: pre; opacity: 1;" transform="translate(0,682.8)">10</text></g><g class="y3tick"><text text-anchor="end" x="79" y="4.199999999999999" style="font-family: 'Open Sans', verdana, arial, sans-serif; font-size: 12px; fill: rgb(42, 63, 95); fill-opacity: 1; white-space: pre; opacity: 1;" transform="translate(0,645.6)">15</text></g><g class="y3tick"><text text-anchor="end" x="79" y="4.199999999999999" style="font-family: 'Open Sans', verdana, arial, sans-serif; font-size: 12px; fill: rgb(42, 63, 95); fill-opacity: 1; white-space: pre; opacity: 1;" transform="translate(0,608.4)">20</text></g><g class="y3tick"><text text-anchor="end" x="79" y="4.199999999999999" style="font-family: 'Open Sans', verdana, arial, sans-serif; font-size: 12px; fill: rgb(42, 63, 95); fill-opacity: 1; white-space: pre; opacity: 1;" transform="translate(0,571.2)">25</text></g><g class="y3tick"><text text-anchor="end" x="79" y="4.199999999999999" style="font-family: 'Open Sans', verdana, arial, sans-serif; font-size: 12px; fill: rgb(42, 63, 95); fill-opacity: 1; white-space: pre; opacity: 1;" transform="translate(0,534)">30</text></g></g><g class="overaxes-above"/></g></g><g class="polarlayer"/><g class="smithlayer"/><g class="ternarylayer"/><g class="geolayer"/><g class="funnelarealayer"/><g class="pielayer"/><g class="iciclelayer"/><g class="treemaplayer"/><g class="sunburstlayer"/><g class="glimages"/><defs id="topdefs-6a8a6d"><g class="clips"/></defs><g class="layer-above"><g class="imagelayer"/><g class="shapelayer"/></g><g class="infolayer"><g class="g-gtitle"><text class="gtitle" x="30" y="50" text-anchor="start" dy="0em" style="font-family: 'Open Sans', verdana, arial, sans-serif; font-size: 17px; fill: rgb(42, 63, 95); opacity: 1; font-weight: normal; white-space: pre;">Climatology and S2S forecast for Rangpur</text></g><g class="g-xtitle"/><g class="g-x2title"/><g class="g-x3title"/><g class="g-ytitle"><text class="ytitle" transform="rotate(-90,34.16875,193)" x="34.16875" y="193" text-anchor="middle" style="font-family: 'Open Sans', verdana, arial, sans-serif; font-size: 14px; fill: rgb(42, 63, 95); opacity: 1; font-weight: normal; white-space: pre;">[mm]</text></g><g class="g-y2title"><text class="y2title" transform="rotate(-90,40.840625,410.00000000000006)" x="40.840625" y="410.00000000000006" text-anchor="middle" style="font-family: 'Open Sans', verdana, arial, sans-serif; font-size: 14px; fill: rgb(42, 63, 95); opacity: 1; font-weight: normal; white-space: pre;">[C]</text></g><g class="g-y3title"><text class="y3title" transform="rotate(-90,40.840625,627)" x="40.840625" y="627" text-anchor="middle" style="font-family: 'Open Sans', verdana, arial, sans-serif; font-size: 14px; fill: rgb(42, 63, 95); opacity: 1; font-weight: normal; white-space: pre;">[C]</text></g><g class="annotation" data-index="0" style="opacity: 1;"><g class="annotation-text-g" transform="rotate(0,300,89.5)"><g class="cursor-pointer" transform="translate(237,79)"><rect class="bg" x="0.5" y="0.5" width="126" height="20" style="stroke-width: 1px; stroke: rgb(0, 0, 0); stroke-opacity: 0; fill: rgb(0, 0, 0); fill-opacity: 0;"/><text class="annotation-text" text-anchor="middle" x="63.359375" y="16" style="font-family: 'Open Sans', verdana, arial, sans-serif; font-size: 16px; fill: rgb(42, 63, 95); fill-opacity: 1; white-space: pre;">Precipitation sum</text></g></g></g><g class="annotation" data-index="1" style="opacity: 1;"><g class="annotation-text-g" transform="rotate(0,300,306.50000000000006)"><g class="cursor-pointer" transform="translate(196,296)"><rect class="bg" x="0.5" y="0.5" width="208" height="20" style="stroke-width: 1px; stroke: rgb(0, 0, 0); stroke-opacity: 0; fill: rgb(0, 0, 0); fill-opacity: 0;"/><text class="annotation-text" text-anchor="middle" x="104.265625" y="16" style="font-family: 'Open Sans', verdana, arial, sans-serif; font-size: 16px; fill: rgb(42, 63, 95); fill-opacity: 1; white-space: pre;">Mean maximum temperature</text></g></g></g><g class="annotation" data-index="2" style="opacity: 1;"><g class="annotation-text-g" transform="rotate(0,300,523.5)"><g class="cursor-pointer" transform="translate(198,513)"><rect class="bg" x="0.5" y="0.5" width="203" height="20" style="stroke-width: 1px; stroke: rgb(0, 0, 0); stroke-opacity: 0; fill: rgb(0, 0, 0); fill-opacity: 0;"/><text class="annotation-text" text-anchor="middle" x="102.046875" y="16" style="font-family: 'Open Sans', verdana, arial, sans-serif; font-size: 16px; fill: rgb(42, 63, 95); fill-opacity: 1; white-space: pre;">Mean minimum temperature</text></g></g></g><g class="annotation" data-index="3" style="opacity: 1;"><g class="annotation-text-g" transform="rotate(0,300,760.5)"><g class="cursor-pointer" transform="translate(277,750)"><rect class="bg" x="0.5" y="0.5" width="45" height="20" style="stroke-width: 1px; stroke: rgb(0, 0, 0); stroke-opacity: 0; fill: rgb(0, 0, 0); fill-opacity: 0;"/><text class="annotation-text" text-anchor="middle" x="22.3125" y="16" style="font-family: 'Open Sans', verdana, arial, sans-serif; font-size: 16px; fill: rgb(42, 63, 95); fill-opacity: 1; white-space: pre;">Week</text></g></g></g></g></svg>