<svg class="main-svg" xmlns="http://www.w3.org/2000/svg" xmlns:xlink="http://www.w3.org/1999/xlink" width="600" height="800" style="" viewBox="0 0 600 800"><rect x="0" y="0" width="600" height="800" style="fill: rgb(255, 255, 255); fill-opacity: 1;"/><defs id="defs-3982f4"><g class="clips"><clipPath id="clip3982f4xyplot" class="plotclip"><rect width="440" height="186.00000000000003"/></clipPath><clipPath id="clip3982f4x2y2plot" class="plotclip"><rect width="440" height="185.99999999999997"/></clipPath><clipPath id="clip3982f4x3y3plot" class="plotclip"><rect width="440" height="186"/></clipPath><clipPath class="axesclip" id="clip3982f4x"><rect x="80" y="0" width="440" height="800"/></clipPath><clipPath class="axesclip" id="clip3982f4y"><rect x="0" y="100" width="600" height="186.00000000000003"/></clipPath><clipPath class="axesclip" id="clip3982f4xy"><rect x="80" y="100" width="440" height="186.00000000000003"/></clipPath><clipPath class="axesclip" id="clip3982f4y2"><rect x="0" y="317.00000000000006" width="600" height="185.99999999999997"/></clipPath><clipPath class="axesclip" id="clip3982f4xy2"><rect x="80" y="317.00000000000006" width="440" height="185.99999999999997"/></clipPath><clipPath class="axesclip" id="clip3982f4y3"><rect x="0" y="534" width="600" height="186"/></clipPath><clipPath class="axesclip" id="clip3982f4xy3"><rect x="80" y="534" width="440" height="186"/></clipPath><clipPath class="axesclip" id="clip3982f4x2"><rect x="80" y="0" width="440" height="800"/></clipPath><clipPath class="axesclip" id="clip3982f4x2y"><rect x="80" y="100" width="440" height="186.00000000000003"/></clipPath><clipPath class="axesclip" id="clip3982f4x2y2"><rect x="80" y="317.00000000000006" width="440" height="185.99999999999997"/></clipPath><clipPath class="axesclip" id="clip3982f4x2y3"><rect x="80" y="534" width="440" height="186"/></clipPath><clipPath class="axesclip" id="clip3982f4x3"><rect x="80" y="0" width="440" height="800"/></clipPath><clipPath class="axesclip" id="clip3982f4x3y"><rect x="80" y="100" width="440" height="186.00000000000003"/></clipPath><clipPath class="axesclip" id="clip3982f4x3y2"><rect x="80" y="317.00000000000006" width="440" height="185.99999999999997"/></clipPath><clipPath class="axesclip" id="clip3982f4x3y3"><rect x="80" y="534" width="440" height="186"/></clipPath></g><g class="gradients"/><g class="patterns"/></defs><g class="bglayer"><rect class="bg" x="80" y="100" width="440" height="186.00000000000003" style="fill: rgb(229, 236, 246); fill-opacity: 1; stroke-width: 0;"/><rect class="bg" x="80" y="317.00000000000006" width="440" height="185.99999999999997" style="fill: rgb(229, 236, 246); fill-opacity: 1; stroke-width: 0;"/><rect class="bg" x="80" y="534" width="440" height="186" style="fill: rgb(229, 236, 246); fill-opacity: 1; stroke-width: 0;"/></g><g class="layer-below"><g class="imagelayer"/><g class="shapelayer"/></g><g class="cartesianlayer"><g class="subplot xy"><g class="layer-subplot"><g class="shapelayer"/><g class="imagelayer"/></g><g class="minor-gridlayer"><g class="x"/><g class="y"/></g><g class="gridlayer"><g class="x"><path class="xgrid crisp" transform="translate(156.15,0)" d="M0,100v186.00000000000003" style="stroke: rgb(255, 255, 255); stroke-opacity: 1; stroke-width: 1px;"/><path class="xgrid crisp" transform="translate(240.77,0)" d="M0,100v186.00000000000003" style="stroke: rgb(255, 255, 255); stroke-opacity: 1; stroke-width: 1px;"/><path class="xgrid crisp" transform="translate(325.38,0)" d="M0,100v186.00000000000003" style="stroke: rgb(255, 255, 255); stroke-opacity: 1; stroke-width: 1px;"/><path class="xgrid crisp" transform="translate(410,0)" d="M0,100v186.00000000000003" style="stroke: rgb(255, 255, 255); stroke-opacity: 1; stroke-width: 1px;"/><path class="xgrid crisp" transform="translate(494.62,0)" d="M0,100v186.00000000000003" style="stroke: rgb(255, 255, 255); stroke-opacity: 1; stroke-width: 1px;"/></g><g class="y"><path class="ygrid crisp" transform="translate(0,248.8)" d="M80,0h440" style="stroke: rgb(255, 255, 255); stroke-opacity: 1; stroke-width: 1px;"/><path class="ygrid crisp" transform="translate(0,211.6)" d="M80,0h440" style="stroke: rgb(255, 255, 255); stroke-opacity: 1; stroke-width: 1px;"/><path class="ygrid crisp" transform="translate(0,174.4)" d="M80,0h440" style="stroke: rgb(255, 255, 255); stroke-opacity: 1; stroke-width: 1px;"/><path class="ygrid crisp" transform="translate(0,137.2)" d="M80,0h440" style="stroke: rgb(255, 255, 255); stroke-opacity: 1; stroke-width: 1px;"/></g></g><g class="zerolinelayer"><path class="yzl zl crisp" transform="translate(0,286)" d="M80,0h440" style="stroke: rgb(255, 255, 255); stroke-opacity: 1; stroke-width: 2px;"/></g><path class="xlines-below"/><path class="ylines-below"/><g class="overlines-below"/><g class="xaxislayer-below"/><g class="yaxislayer-below"/><g class="overaxes-below"/><g class="plot" transform="translate(80,100)" clip-path="url(#clip3982f4xyplot)"><g class="scatterlayer mlayer"><g class="trace scatter tracecb8ab1" style="stroke-miterlimit: 2;"><g class="fills"><g><path class="js-fill" d="M0,186L84.62,186L93.08,184.12L101.54,180.21L110,173.8L118.46,166.09L126.92,162.05L135.38,161.96L143.85,157.92L152.31,133.58L160.77,141.17L169.23,129.71L177.69,131.5L186.15,91.16L194.62,112.19L203.08,130.11L211.54,136.62L220,138.28L228.46,111.91L236.92,101.4L245.38,128.56L253.85,117.93L262.31,127.34L270.77,126.62L279.23,127.97L287.69,148.97L296.15,133.35L304.62,145.6L313.08,140.62L321.54,147.41L330,179.04L338.46,184.77L346.92,185.77L380.77,186L389.23,186L440,186L440,186L363.85,186L355.38,186L330,185.71L321.54,177.8L313.08,180.83L304.62,185.71L296.15,175.63L287.69,177.98L279.23,185.1L270.77,156.23L262.31,164.53L253.85,157.15L245.38,171.01L236.92,178.98L228.46,177.88L220,167.01L211.54,175.76L203.08,153.29L194.62,163.24L186.15,125.48L177.69,172.4L169.23,164.23L160.77,185.54L152.31,182.15L143.85,171.51L135.38,186L126.92,184.95L118.46,182.66L110,181.41L101.54,186L0,186Z" style="fill: rgb(224, 236, 244); fill-opacity: 1; stroke-width: 0;"/></g></g><g class="errorbars"/><g class="lines"><path class="js-line" d="M0,186L101.54,186L110,181.41L118.46,182.66L126.92,184.95L135.38,186L143.85,171.51L152.31,182.15L160.77,185.54L169.23,164.23L177.69,172.4L186.15,125.48L194.62,163.24L203.08,153.29L211.54,175.76L220,167.01L228.46,177.88L236.92,178.98L245.38,171.01L253.85,157.15L262.31,164.53L270.77,156.23L279.23,185.1L287.69,177.98L296.15,175.63L304.62,185.71L313.08,180.83L321.54,177.8L330,185.71L355.38,186L363.85,186L440,186" style="vector-effect: non-scaling-stroke; fill: none; stroke: rgb(0, 0, 0); stroke-opacity: 1; stroke-width: 0.25px; opacity: 1;"/></g><g class="points"/><g class="text"/></g><g class="trace scatter tracea5ebf3" style="stroke-miterlimit: 2;"><g class="fills"><g><path class="js-fill" d="M0,186L59.23,185.37L67.69,183.41L76.15,185.94L84.62,181.55L93.08,174.26L101.54,171.8L110,140.03L118.46,154.44L126.92,144.55L135.38,140.63L143.85,145.43L152.31,113.7L160.77,109.98L169.23,107.23L177.69,83.87L186.15,40.31L194.62,82.76L203.08,93.6L211.54,112.72L220,92.08L228.46,67.04L236.92,76.59L245.38,93.91L253.85,107.93L262.31,97.36L270.77,79.17L279.23,102.85L287.69,134.29L296.15,120.55L304.62,125.58L313.08,130.31L321.54,124.28L330,161.36L338.46,171.39L346.92,178.07L355.38,185.79L423.08,186L431.54,186L440,186L440,186L389.23,186L380.77,186L346.92,185.77L338.46,184.77L330,179.04L321.54,147.41L313.08,140.62L304.62,145.6L296.15,133.35L287.69,148.97L279.23,127.97L270.77,126.62L262.31,127.34L253.85,117.93L245.38,128.56L236.92,101.4L228.46,111.91L220,138.28L211.54,136.62L203.08,130.11L194.62,112.19L186.15,91.16L177.69,131.5L169.23,129.71L160.77,141.17L152.31,133.58L143.85,157.92L135.38,161.96L126.92,162.05L118.46,166.09L110,173.8L101.54,180.21L93.08,184.12L84.62,186L0,186Z" style="fill: rgb(158, 188, 218); fill-opacity: 1; stroke-width: 0;"/></g></g><g class="errorbars"/><g class="lines"><path class="js-line" d="M0,186L84.62,186L93.08,184.12L101.54,180.21L110,173.8L118.46,166.09L126.92,162.05L135.38,161.96L143.85,157.92L152.31,133.58L160.77,141.17L169.23,129.71L177.69,131.5L186.15,91.16L194.62,112.19L203.08,130.11L211.54,136.62L220,138.28L228.46,111.91L236.92,101.4L245.38,128.56L253.85,117.93L262.31,127.34L270.77,126.62L279.23,127.97L287.69,148.97L296.15,133.35L304.62,145.6L313.08,140.62L321.54,147.41L330,179.04L338.46,184.77L346.92,185.77L380.77,186L389.23,186L440,186" style="vector-effect: non-scaling-stroke; fill: none; stroke: rgb(0, 0, 0); stroke-opacity: 1; stroke-width: 0.5px; opacity: 1;"/></g><g class="points"/><g class="text"/></g><g class="trace scatter traceb708a3" style="stroke-miterlimit: 2;"><g class="fills"><g><path class="js-fill" d="M0,185.95L42.31,185.98L50.77,180.53L59.23,180.27L67.69,172.75L76.15,175.93L84.62,174.43L101.54,147.91L110,115.41L118.46,134.71L126.92,110.14L135.38,119.5L143.85,114.79L152.31,97.48L160.77,69.07L169.23,36.11L177.69,-6.11L186.15,-31.08L194.62,-87.53L203.08,59.86L211.54,72.39L220,42.75L228.46,-3.3L236.92,28.56L245.38,77.48L253.85,38.19L262.31,13.78L270.77,32.43L279.23,15.15L287.69,103.61L296.15,94.15L304.62,84.38L313.08,93.21L321.54,79.54L330,125.37L338.46,137.45L346.92,163.94L355.38,149.82L363.85,184.41L389.23,186L397.69,186L440,185.98L440,186L431.54,186L423.08,186L355.38,185.79L346.92,178.07L338.46,171.39L330,161.36L321.54,124.28L313.08,130.31L304.62,125.58L296.15,120.55L287.69,134.29L279.23,102.85L270.77,79.17L262.31,97.36L253.85,107.93L245.38,93.91L236.92,76.59L228.46,67.04L220,92.08L211.54,112.72L203.08,93.6L194.62,82.76L186.15,40.31L177.69,83.87L169.23,107.23L160.77,109.98L152.31,113.7L143.85,145.43L135.38,140.63L126.92,144.55L118.46,154.44L110,140.03L101.54,171.8L93.08,174.26L84.62,181.55L76.15,185.94L67.69,183.41L59.23,185.37L0,186Z" style="fill: rgb(158, 188, 218); fill-opacity: 1; stroke-width: 0;"/></g></g><g class="errorbars"/><g class="lines"><path class="js-line" d="M0,186L59.23,185.37L67.69,183.41L76.15,185.94L84.62,181.55L93.08,174.26L101.54,171.8L110,140.03L118.46,154.44L126.92,144.55L135.38,140.63L143.85,145.43L152.31,113.7L160.77,109.98L169.23,107.23L177.69,83.87L186.15,40.31L194.62,82.76L203.08,93.6L211.54,112.72L220,92.08L228.46,67.04L236.92,76.59L245.38,93.91L253.85,107.93L262.31,97.36L270.77,79.17L279.23,102.85L287.69,134.29L296.15,120.55L304.62,125.58L313.08,130.31L321.54,124.28L330,161.36L338.46,171.39L346.92,178.07L355.38,185.79L423.08,186L431.54,186L440,186" style="vector-effect: non-scaling-stroke; fill: none; stroke: rgb(0, 0, 0); stroke-opacity: 1; stroke-width: 1px; opacity: 1;"/></g><g class="points"/><g class="text"/></g><g class="trace scatter traced537ae" style="stroke-miterlimit: 2;"><g class="fills"><g><path class="js-fill" d="M0,185.95L42.31,185.97L50.77,178.77L59.23,173.62L67.69,157.52L76.15,175.68L84.62,162.5L93.08,139.49L101.54,114.14L110,57.36L118.46,113.09L126.92,35.92L135.38,61.15L143.85,52.37L152.31,84.26L160.77,-27.04L169.23,-57.1L194.62,-208.79L203.08,-2.99L211.54,23.53L220,0.37L228.46,-159.77L236.92,-79.4L245.38,19.08L253.85,-17.12L262.31,-60.24L270.77,-16.61L279.23,-48.8L287.69,64.21L296.15,56.68L304.62,16.3L313.08,67.85L321.54,-7.78L330,58L338.46,67.11L346.92,159.62L355.38,116.39L363.85,184.23L372.31,184.16L380.77,185.96L389.23,186L440,185.98L440,185.98L397.69,186L389.23,186L363.85,184.41L355.38,149.82L346.92,163.94L338.46,137.45L330,125.37L321.54,79.54L313.08,93.21L304.62,84.38L296.15,94.15L287.69,103.61L279.23,15.15L270.77,32.43L262.31,13.78L253.85,38.19L245.38,77.48L236.92,28.56L228.46,-3.3L220,42.75L211.54,72.39L203.08,59.86L194.62,-87.53L186.15,-31.08L177.69,-6.11L169.23,36.11L160.77,69.07L152.31,97.48L143.85,114.79L135.38,119.5L126.92,110.14L118.46,134.71L110,115.41L101.54,147.91L84.62,174.43L76.15,175.93L67.69,172.75L59.23,180.27L50.77,180.53L42.31,185.98L0,185.95Z" style="fill: rgb(136, 86, 167); fill-opacity: 1; stroke-width: 0;"/></g></g><g class="errorbars"/><g class="lines"><path class="js-line" d="M0,185.95L42.31,185.98L50.77,180.53L59.23,180.27L67.69,172.75L76.15,175.93L84.62,174.43L101.54,147.91L110,115.41L118.46,134.71L126.92,110.14L135.38,119.5L143.85,114.79L152.31,97.48L160.77,69.07L169.23,36.11L177.69,-6.11L186.15,-31.08L194.62,-87.53L203.08,59.86L211.54,72.39L220,42.75L228.46,-3.3L236.92,28.56L245.38,77.48L253.85,38.19L262.31,13.78L270.77,32.43L279.23,15.15L287.69,103.61L296.15,94.15L304.62,84.38L313.08,93.21L321.54,79.54L330,125.37L338.46,137.45L346.92,163.94L355.38,149.82L363.85,184.41L389.23,186L397.69,186L440,185.98" style="vector-effect: non-scaling-stroke; fill: none; stroke: rgb(0, 0, 0); stroke-opacity: 1; stroke-width: 0.5px; opacity: 1;"/></g><g class="points"/><g class="text"/></g><g class="trace scatter trace882a17" style="stroke-miterlimit: 2;"><g class="fills"/><g class="errorbars"/><g class="lines"><path class="js-line" d="M0,185.95L42.31,185.97L50.77,178.77L59.23,173.62L67.69,157.52L76.15,175.68L84.62,162.5L93.08,139.49L101.54,114.14L110,57.36L118.46,113.09L126.92,35.92L135.38,61.15L143.85,52.37L152.31,84.26L160.77,-27.04L169.23,-57.1L194.62,-208.79L203.08,-2.99L211.54,23.53L220,0.37L228.46,-159.77L236.92,-79.4L245.38,19.08L253.85,-17.12L262.31,-60.24L270.77,-16.61L279.23,-48.8L287.69,64.21L296.15,56.68L304.62,16.3L313.08,67.85L321.54,-7.78L330,58L338.46,67.11L346.92,159.62L355.38,116.39L363.85,184.23L372.31,184.16L380.77,185.96L389.23,186L440,185.98" style="vector-effect: non-scaling-stroke; fill: none; stroke: rgb(0, 0, 0); stroke-opacity: 1; stroke-width: 0.25px; opacity: 1;"/></g><g class="points"/><g class="text"/></g><g class="trace scatter trace864d8c" style="stroke-miterlimit: 2; opacity: 1;"><g class="fills"/><g class="errorbars"/><g class="lines"/><g class="points"><path class="point" transform="translate(169.23,92.26)" d="M4,0A4,4 0 1,1 0,-4A4,4 0 0,1 4,0ZM0,0.5L0.5,0L0,-0.5L-0.5,0Z" style="opacity: 1; stroke: rgb(0, 0, 0); stroke-opacity: 1; stroke-width: 1px; fill: none;"/><path class="point" transform="translate(177.69,66.96)" d="M4,0A4,4 0 1,1 0,-4A4,4 0 0,1 4,0ZM0,0.5L0.5,0L0,-0.5L-0.5,0Z" style="opacity: 1; stroke: rgb(0, 0, 0); stroke-opacity: 1; stroke-width: 1px; fill: none;"/><path class="point" transform="translate(186.15,-43.15)" d="M4,0A4,4 0 1,1 0,-4A4,4 0 0,1 4,0ZM0,0.5L0.5,0L0,-0.5L-0.5,0Z" style="opacity: 1; stroke: rgb(0, 0, 0); stroke-opacity: 1; stroke-width: 1px; fill: none;"/><path class="point" transform="translate(194.62,-43.15)" d="M4,0A4,4 0 1,1 0,-4A4,4 0 0,1 4,0ZM0,0.5L0.5,0L0,-0.5L-0.5,0Z" style="opacity: 1; stroke: rgb(0, 0, 0); stroke-opacity: 1; stroke-width: 1px; fill: none;"/></g><g class="text"/></g></g></g><g class="overplot"/><path class="xlines-above crisp" d="M0,0" style="fill: none;"/><path class="ylines-above crisp" d="M0,0" style="fill: none;"/><g class="overlines-above"/><g class="xaxislayer-above"/><g class="yaxislayer-above"><g class="ytick"><text text-anchor="end" x="79" y="4.199999999999999" transform="translate(0,286)" style="font-family: 'Open Sans', verdana, arial, sans-serif; font-size: 12px; fill: rgb(42, 63, 95); fill-opacity: 1; white-space: pre; opacity: 1;">0</text></g><g class="ytick"><text text-anchor="end" x="79" y="4.199999999999999" style="font-family: 'Open Sans', verdana, arial, sans-serif; font-size: 12px; fill: rgb(42, 63, 95); fill-opacity: 1; white-space: pre; opacity: 1;" transform="translate(0,248.8)">50</text></g><g class="ytick"><text text-anchor="end" x="79" y="4.199999999999999" style="font-family: 'Open Sans', verdana, arial, sans-serif; font-size: 12px; fill: rgb(42, 63, 95); fill-opacity: 1; white-space: pre; opacity: 1;" transform="translate(0,211.6)">100</text></g><g class="ytick"><text text-anchor="end" x="79" y="4.199999999999999" style="font-family: 'Open Sans', verdana, arial, sans-serif; font-size: 12px; fill: rgb(42, 63, 95); fill-opacity: 1; white-space: pre; opacity: 1;" transform="translate(0,174.4)">150</text></g><g class="ytick"><text text-anchor="end" x="79" y="4.199999999999999" style="font-family: 'Open Sans', verdana, arial, sans-serif; font-size: 12px; fill: rgb(42, 63, 95); fill-opacity: 1; white-space: pre; opacity: 1;" transform="translate(0,137.2)">200</text></g><g class="ytick"><text text-anchor="end" x="79" y="4.199999999999999" style="font-family: 'Open Sans', verdana, arial, sans-serif; font-size: 12px; fill: rgb(42, 63, 95); fill-opacity: 1; white-space: pre; opacity: 1;" transform="translate(0,100)">250</text></g></g><g class="overaxes-above"/></g><g class="subplot x2y2"><g class="layer-subplot"><g class="shapelayer"/><g class="imagelayer"/></g><g class="minor-gridlayer"><g class="x2"/><g class="y2"/></g><g class="gridlayer"><g class="x2"><path class="x2grid crisp" transform="translate(156.15,0)" d="M0,317.00000000000006v185.99999999999997" style="stroke: rgb(255, 255, 255); stroke-opacity: 1; stroke-width: 1px;"/><path class="x2grid crisp" transform="translate(240.77,0)" d="M0,317.00000000000006v185.99999999999997" style="stroke: rgb(255, 255, 255); stroke-opacity: 1; stroke-width: 1px;"/><path class="x2grid crisp" transform="translate(325.38,0)" d="M0,317.00000000000006v185.99999999999997" style="stroke: rgb(255, 255, 255); stroke-opacity: 1; stroke-width: 1px;"/><path class="x2grid crisp" transform="translate(410,0)" d="M0,317.00000000000006v185.99999999999997" style="stroke: rgb(255, 255, 255); stroke-opacity: 1; stroke-width: 1px;"/><path class="x2grid crisp" transform="translate(494.62,0)" d="M0,317.00000000000006v185.99999999999997" style="stroke: rgb(255, 255, 255); stroke-opacity: 1; stroke-width: 1px;"/></g><g class="y2"><path class="y2grid crisp" transform="translate(0,472.00000000000006)" d="M80,0h440" style="stroke: rgb(255, 255, 255); stroke-opacity: 1; stroke-width: 1px;"/><path class="y2grid crisp" transform="translate(0,410.00000000000006)" d="M80,0h440" style="stroke: rgb(255, 255, 255); stroke-opacity: 1; stroke-width: 1px;"/><path class="y2grid crisp" transform="translate(0,348.00000000000006)" d="M80,0h440" style="stroke: rgb(255, 255, 255); stroke-opacity: 1; stroke-width: 1px;"/></g></g><g class="zerolinelayer"/><path class="xlines-below"/><path class="ylines-below"/><g class="overlines-below"/><g class="xaxislayer-below"/><g class="yaxislayer-below"/><g class="overaxes-below"/><g class="plot" transform="translate(80,317.00000000000006)" clip-path="url(#clip3982f4x2y2plot)"><g class="scatterlayer mlayer"><g class="trace scatter trace209932" style="stroke-miterlimit: 2;"><g class="fills"><g><path class="js-fill" d="M0,137.46L8.46,141.65L16.92,137.6L25.38,137.61L33.85,129.67L42.31,119.48L50.77,114.35L59.23,110.38L67.69,103.84L76.15,98.47L84.62,88.71L93.08,86.94L101.54,93.52L110,94.23L118.46,92.38L126.92,91.87L135.38,94.88L152.31,90.4L160.77,94.36L169.23,91.86L177.69,94.47L186.15,92.91L194.62,100.33L203.08,99.58L211.54,101.58L220,103.11L228.46,101.98L245.38,101.6L253.85,97.6L262.31,94.08L270.77,102.14L279.23,99.09L287.69,98.92L296.15,100.76L304.62,99.03L313.08,99.45L321.54,97.95L330,96.95L338.46,98.94L355.38,96.94L363.85,101.79L372.31,103.9L380.77,110.81L389.23,113.46L397.69,120.05L406.15,127.32L414.62,129.82L423.08,138.73L431.54,139.35L440,134.38L440,143.12L431.54,144.22L423.08,143.65L414.62,135.41L406.15,132.42L397.69,131.14L389.23,120.87L380.77,119.85L372.31,108.78L363.85,107.86L355.38,100.03L346.92,110.9L338.46,113.61L330,114.1L321.54,106.61L313.08,105.38L304.62,114.5L296.15,118.61L287.69,113.5L279.23,117.73L270.77,117.33L262.31,106.13L253.85,110.42L245.38,123.6L236.92,119.53L228.46,119.14L220,115.09L211.54,112.42L203.08,110.94L194.62,110.68L186.15,103.91L177.69,102.63L169.23,101.69L152.31,103.62L143.85,101.83L135.38,106.12L126.92,102.64L118.46,107.51L110,104.41L101.54,110.36L93.08,106.37L84.62,106.78L76.15,112.83L67.69,121.95L59.23,118.8L50.77,133.82L42.31,137.32L33.85,137.34L25.38,146.96L16.92,150.89L8.46,150.62L0,143.6Z" style="fill: rgb(145, 191, 219); fill-opacity: 1; stroke-width: 0;"/></g></g><g class="errorbars"/><g class="lines"><path class="js-line" d="M0,143.6L8.46,150.62L16.92,150.89L25.38,146.96L33.85,137.34L42.31,137.32L50.77,133.82L59.23,118.8L67.69,121.95L76.15,112.83L84.62,106.78L93.08,106.37L101.54,110.36L110,104.41L118.46,107.51L126.92,102.64L135.38,106.12L143.85,101.83L152.31,103.62L169.23,101.69L177.69,102.63L186.15,103.91L194.62,110.68L203.08,110.94L211.54,112.42L220,115.09L228.46,119.14L236.92,119.53L245.38,123.6L253.85,110.42L262.31,106.13L270.77,117.33L279.23,117.73L287.69,113.5L296.15,118.61L304.62,114.5L313.08,105.38L321.54,106.61L330,114.1L338.46,113.61L346.92,110.9L355.38,100.03L363.85,107.86L372.31,108.78L380.77,119.85L389.23,120.87L397.69,131.14L406.15,132.42L414.62,135.41L423.08,143.65L431.54,144.22L440,143.12" style="vector-effect: non-scaling-stroke; fill: none; stroke: rgb(0, 0, 0); stroke-opacity: 1; stroke-width: 0.25px; opacity: 1;"/></g><g class="points"/><g class="text"/></g><g class="trace scatter trace0a3ecb" style="stroke-miterlimit: 2;"><g class="fills"><g><path class="js-fill" d="M0,133.32L8.46,137.88L16.92,129.86L25.38,132.13L33.85,121.27L42.31,114.16L50.77,108.36L59.23,101.49L67.69,93.29L76.15,90.7L84.62,81.69L93.08,78.11L101.54,80.59L110,85.98L118.46,83.09L126.92,89.92L135.38,86.23L143.85,89.95L152.31,83.43L160.77,86.63L169.23,88.48L177.69,88.28L186.15,90.17L194.62,96.7L203.08,94.66L211.54,95.02L220,96.51L236.92,93.71L245.38,94.32L253.85,88.88L262.31,87.06L270.77,93.11L279.23,91.3L287.69,91.53L296.15,93.34L313.08,92.72L321.54,93.64L330,89.8L338.46,92.54L355.38,94.7L363.85,99.07L372.31,101.2L380.77,105.23L389.23,112.2L397.69,117.22L406.15,121.14L414.62,126.99L423.08,127.81L431.54,134.66L440,130.65L440,134.38L431.54,139.35L423.08,138.73L414.62,129.82L406.15,127.32L397.69,120.05L389.23,113.46L380.77,110.81L372.31,103.9L363.85,101.79L355.38,96.94L338.46,98.94L330,96.95L321.54,97.95L313.08,99.45L304.62,99.03L296.15,100.76L287.69,98.92L279.23,99.09L270.77,102.14L262.31,94.08L253.85,97.6L245.38,101.6L228.46,101.98L220,103.11L211.54,101.58L203.08,99.58L194.62,100.33L186.15,92.91L177.69,94.47L169.23,91.86L160.77,94.36L152.31,90.4L135.38,94.88L126.92,91.87L118.46,92.38L110,94.23L101.54,93.52L93.08,86.94L84.62,88.71L76.15,98.47L67.69,103.84L59.23,110.38L50.77,114.35L42.31,119.48L33.85,129.67L25.38,137.61L16.92,137.6L8.46,141.65L0,137.46Z" style="fill: rgb(255, 255, 191); fill-opacity: 1; stroke-width: 0;"/></g></g><g class="errorbars"/><g class="lines"><path class="js-line" d="M0,137.46L8.46,141.65L16.92,137.6L25.38,137.61L33.85,129.67L42.31,119.48L50.77,114.35L59.23,110.38L67.69,103.84L76.15,98.47L84.62,88.71L93.08,86.94L101.54,93.52L110,94.23L118.46,92.38L126.92,91.87L135.38,94.88L152.31,90.4L160.77,94.36L169.23,91.86L177.69,94.47L186.15,92.91L194.62,100.33L203.08,99.58L211.54,101.58L220,103.11L228.46,101.98L245.38,101.6L253.85,97.6L262.31,94.08L270.77,102.14L279.23,99.09L287.69,98.92L296.15,100.76L304.62,99.03L313.08,99.45L321.54,97.95L330,96.95L338.46,98.94L355.38,96.94L363.85,101.79L372.31,103.9L380.77,110.81L389.23,113.46L397.69,120.05L406.15,127.32L414.62,129.82L423.08,138.73L431.54,139.35L440,134.38" style="vector-effect: non-scaling-stroke; fill: none; stroke: rgb(0, 0, 0); stroke-opacity: 1; stroke-width: 0.5px; opacity: 1;"/></g><g class="points"/><g class="text"/></g><g class="trace scatter trace2c1c5f" style="stroke-miterlimit: 2;"><g class="fills"><g><path class="js-fill" d="M0,128.52L8.46,132.29L16.92,123.6L25.38,122.86L33.85,116.08L42.31,107.27L50.77,99.76L59.23,95.98L67.69,87.02L76.15,84.63L84.62,76.47L93.08,70.96L101.54,69.99L110,73.84L118.46,73.37L126.92,77.23L135.38,71.59L143.85,86.29L152.31,79.39L160.77,78.81L169.23,82.38L177.69,84.44L186.15,84.6L194.62,88.76L203.08,89.17L211.54,88.38L220,85.1L228.46,89.59L236.92,84.03L245.38,85.33L253.85,83.33L262.31,85.63L270.77,85.32L279.23,86.31L287.69,85.88L296.15,85.43L304.62,88.29L313.08,85.58L321.54,90.87L330,84.72L338.46,84.52L355.38,91.83L363.85,94.55L372.31,95.85L380.77,103.07L397.69,110.42L406.15,117.95L414.62,120.4L423.08,124.34L431.54,126.48L440,124.51L440,130.65L431.54,134.66L423.08,127.81L414.62,126.99L406.15,121.14L397.69,117.22L389.23,112.2L380.77,105.23L372.31,101.2L363.85,99.07L355.38,94.7L338.46,92.54L330,89.8L321.54,93.64L313.08,92.72L296.15,93.34L287.69,91.53L279.23,91.3L270.77,93.11L262.31,87.06L253.85,88.88L245.38,94.32L236.92,93.71L220,96.51L211.54,95.02L203.08,94.66L194.62,96.7L186.15,90.17L177.69,88.28L169.23,88.48L160.77,86.63L152.31,83.43L143.85,89.95L135.38,86.23L126.92,89.92L118.46,83.09L110,85.98L101.54,80.59L93.08,78.11L84.62,81.69L76.15,90.7L67.69,93.29L59.23,101.49L50.77,108.36L42.31,114.16L33.85,121.27L25.38,132.13L16.92,129.86L8.46,137.88L0,133.32Z" style="fill: rgb(255, 255, 191); fill-opacity: 1; stroke-width: 0;"/></g></g><g class="errorbars"/><g class="lines"><path class="js-line" d="M0,133.32L8.46,137.88L16.92,129.86L25.38,132.13L33.85,121.27L42.31,114.16L50.77,108.36L59.23,101.49L67.69,93.29L76.15,90.7L84.62,81.69L93.08,78.11L101.54,80.59L110,85.98L118.46,83.09L126.92,89.92L135.38,86.23L143.85,89.95L152.31,83.43L160.77,86.63L169.23,88.48L177.69,88.28L186.15,90.17L194.62,96.7L203.08,94.66L211.54,95.02L220,96.51L236.92,93.71L245.38,94.32L253.85,88.88L262.31,87.06L270.77,93.11L279.23,91.3L287.69,91.53L296.15,93.34L313.08,92.72L321.54,93.64L330,89.8L338.46,92.54L355.38,94.7L363.85,99.07L372.31,101.2L380.77,105.23L389.23,112.2L397.69,117.22L406.15,121.14L414.62,126.99L423.08,127.81L431.54,134.66L440,130.65" style="vector-effect: non-scaling-stroke; fill: none; stroke: rgb(0, 0, 0); stroke-opacity: 1; stroke-width: 1px; opacity: 1;"/></g><g class="points"/><g class="text"/></g><g class="trace scatter trace61e625" style="stroke-miterlimit: 2;"><g class="fills"><g><path class="js-fill" d="M0,116.65L8.46,128.79L16.92,114.49L25.38,102.62L33.85,107.42L42.31,100.15L50.77,87.48L59.23,90.19L67.69,80.39L76.15,71.46L84.62,59.11L93.08,59.67L101.54,58.59L110,64.21L118.46,65.72L126.92,67.1L135.38,44.78L143.85,82.69L152.31,72.63L160.77,69.37L169.23,68.36L177.69,76.37L186.15,78.48L194.62,74.2L203.08,75.71L211.54,81.27L220,72.26L228.46,76.82L236.92,73.16L253.85,74.35L262.31,77.18L270.77,77.12L279.23,71.02L287.69,67.36L296.15,67.84L304.62,76.78L313.08,68.23L321.54,87.45L330,75.82L346.92,83.46L355.38,84.74L363.85,85.25L372.31,89.41L380.77,92.9L389.23,104.14L397.69,96.91L406.15,109.99L414.62,113.4L423.08,121.13L431.54,115.64L440,118.07L440,124.51L431.54,126.48L423.08,124.34L414.62,120.4L406.15,117.95L397.69,110.42L380.77,103.07L372.31,95.85L363.85,94.55L355.38,91.83L338.46,84.52L330,84.72L321.54,90.87L313.08,85.58L304.62,88.29L296.15,85.43L287.69,85.88L279.23,86.31L270.77,85.32L262.31,85.63L253.85,83.33L245.38,85.33L236.92,84.03L228.46,89.59L220,85.1L211.54,88.38L203.08,89.17L194.62,88.76L186.15,84.6L177.69,84.44L169.23,82.38L160.77,78.81L152.31,79.39L143.85,86.29L135.38,71.59L126.92,77.23L118.46,73.37L110,73.84L101.54,69.99L93.08,70.96L84.62,76.47L76.15,84.63L67.69,87.02L59.23,95.98L50.77,99.76L42.31,107.27L33.85,116.08L25.38,122.86L16.92,123.6L8.46,132.29L0,128.52Z" style="fill: rgb(252, 141, 89); fill-opacity: 1; stroke-width: 0;"/></g></g><g class="errorbars"/><g class="lines"><path class="js-line" d="M0,128.52L8.46,132.29L16.92,123.6L25.38,122.86L33.85,116.08L42.31,107.27L50.77,99.76L59.23,95.98L67.69,87.02L76.15,84.63L84.62,76.47L93.08,70.96L101.54,69.99L110,73.84L118.46,73.37L126.92,77.23L135.38,71.59L143.85,86.29L152.31,79.39L160.77,78.81L169.23,82.38L177.69,84.44L186.15,84.6L194.62,88.76L203.08,89.17L211.54,88.38L220,85.1L228.46,89.59L236.92,84.03L245.38,85.33L253.85,83.33L262.31,85.63L270.77,85.32L279.23,86.31L287.69,85.88L296.15,85.43L304.62,88.29L313.08,85.58L321.54,90.87L330,84.72L338.46,84.52L355.38,91.83L363.85,94.55L372.31,95.85L380.77,103.07L397.69,110.42L406.15,117.95L414.62,120.4L423.08,124.34L431.54,126.48L440,124.51" style="vector-effect: non-scaling-stroke; fill: none; stroke: rgb(0, 0, 0); stroke-opacity: 1; stroke-width: 0.5px; opacity: 1;"/></g><g class="points"/><g class="text"/></g><g class="trace scatter tracea8f56f" style="stroke-miterlimit: 2;"><g class="fills"/><g class="errorbars"/><g class="lines"><path class="js-line" d="M0,116.65L8.46,128.79L16.92,114.49L25.38,102.62L33.85,107.42L42.31,100.15L50.77,87.48L59.23,90.19L67.69,80.39L76.15,71.46L84.62,59.11L93.08,59.67L101.54,58.59L110,64.21L118.46,65.72L126.92,67.1L135.38,44.78L143.85,82.69L152.31,72.63L160.77,69.37L169.23,68.36L177.69,76.37L186.15,78.48L194.62,74.2L203.08,75.71L211.54,81.27L220,72.26L228.46,76.82L236.92,73.16L253.85,74.35L262.31,77.18L270.77,77.12L279.23,71.02L287.69,67.36L296.15,67.84L304.62,76.78L313.08,68.23L321.54,87.45L330,75.82L346.92,83.46L355.38,84.74L363.85,85.25L372.31,89.41L380.77,92.9L389.23,104.14L397.69,96.91L406.15,109.99L414.62,113.4L423.08,121.13L431.54,115.64L440,118.07" style="vector-effect: non-scaling-stroke; fill: none; stroke: rgb(0, 0, 0); stroke-opacity: 1; stroke-width: 0.25px; opacity: 1;"/></g><g class="points"/><g class="text"/></g><g class="trace scatter trace606a86" style="stroke-miterlimit: 2; opacity: 1;"><g class="fills"/><g class="errorbars"/><g class="lines"/><g class="points"><path class="point" transform="translate(169.23,86.8)" d="M4,0A4,4 0 1,1 0,-4A4,4 0 0,1 4,0ZM0,0.5L0.5,0L0,-0.5L-0.5,0Z" style="opacity: 1; stroke: rgb(0, 0, 0); stroke-opacity: 1; stroke-width: 1px; fill: none;"/><path class="point" transform="translate(177.69,80.6)" d="M4,0A4,4 0 1,1 0,-4A4,4 0 0,1 4,0ZM0,0.5L0.5,0L0,-0.5L-0.5,0Z" style="opacity: 1; stroke: rgb(0, 0, 0); stroke-opacity: 1; stroke-width: 1px; fill: none;"/><path class="point" transform="translate(186.15,86.8)" d="M4,0A4,4 0 1,1 0,-4A4,4 0 0,1 4,0ZM0,0.5L0.5,0L0,-0.5L-0.5,0Z" style="opacity: 1; stroke: rgb(0, 0, 0); stroke-opacity: 1; stroke-width: 1px; fill: none;"/><path class="point" transform="translate(194.62,86.8)" d="M4,0A4,4 0 1,1 0,-4A4,4 0 0,1 4,0ZM0,0.5L0.5,0L0,-0.5L-0.5,0Z" style="opacity: 1; stroke: rgb(0, 0, 0); stroke-opacity: 1; stroke-width: 1px; fill: none;"/></g><g class="text"/></g></g></g><g class="overplot"/><path class="xlines-above crisp" d="M0,0" style="fill: none;"/><path class="ylines-above crisp" d="M0,0" style="fill: none;"/><g class="overlines-above"/><g class="xaxislayer-above"/><g class="yaxislayer-above"><g class="y2tick"><text text-anchor="end" x="79" y="4.199999999999999" transform="translate(0,472.00000000000006)" style="font-family: 'Open Sans', verdana, arial, sans-serif; font-size: 12px; fill: rgb(42, 63, 95); fill-opacity: 1; white-space: pre; opacity: 1;">20</text></g><g class="y2tick"><text text-anchor="end" x="79" y="4.199999999999999" style="font-family: 'Open Sans', verdana, arial, sans-serif; font-size: 12px; fill: rgb(42, 63, 95); fill-opacity: 1; white-space: pre; opacity: 1;" transform="translate(0,410.00000000000006)">30</text></g><g class="y2tick"><text text-anchor="end" x="79" y="4.199999999999999" style="font-family: 'Open Sans', verdana, arial, sans-serif; font-size: 12px; fill: rgb(42, 63, 95); fill-opacity: 1; white-space: pre; opacity: 1;" transform="translate(0,348.00000000000006)">40</text></g></g><g class="overaxes-above"/></g><g class="subplot x3y3"><g class="layer-subplot"><g class="shapelayer"/><g class="imagelayer"/></g><g class="minor-gridlayer"><g class="x3"/><g class="y3"/></g><g class="gridlayer"><g class="x3"><path class="x3grid crisp" transform="translate(156.15,0)" d="M0,534v186" style="stroke: rgb(255, 255, 255); stroke-opacity: 1; stroke-width: 1px;"/><path class="x3grid crisp" transform="translate(240.77,0)" d="M0,534v186" style="stroke: rgb(255, 255, 255); stroke-opacity: 1; stroke-width: 1px;"/><path class="x3grid crisp" transform="translate(325.38,0)" d="M0,534v186" style="stroke: rgb(255, 255, 255); stroke-opacity: 1; stroke-width: 1px;"/><path class="x3grid crisp" transform="translate(410,0)" d="M0,534v186" style="stroke: rgb(255, 255, 255); stroke-opacity: 1; stroke-width: 1px;"/><path class="x3grid crisp" transform="translate(494.62,0)" d="M0,534v186" style="stroke: rgb(255, 255, 255); stroke-opacity: 1; stroke-width: 1px;"/></g><g class="y3"><path class="y3grid crisp" transform="translate(0,682.8)" d="M80,0h440" style="stroke: rgb(255, 255, 255); stroke-opacity: 1; stroke-width: 1px;"/><path class="y3grid crisp" transform="translate(0,645.6)" d="M80,0h440" style="stroke: rgb(255, 255, 255); stroke-opacity: 1; stroke-width: 1px;"/><path class="y3grid crisp" transform="translate(0,608.4)" d="M80,0h440" style="stroke: rgb(255, 255, 255); stroke-opacity: 1; stroke-width: 1px;"/><path class="y3grid crisp" transform="translate(0,571.2)" d="M80,0h440" style="stroke: rgb(255, 255, 255); stroke-opacity: 1; stroke-width: 1px;"/></g></g><g class="zerolinelayer"/><path class="xlines-below"/><path class="ylines-below"/><g class="overlines-below"/><g class="xaxislayer-below"/><g class="yaxislayer-below"/><g class="overaxes-below"/><g class="plot" transform="translate(80,534)" clip-path="url(#clip3982f4x3y3plot)"><g class="scatterlayer mlayer"><g class="trace scatter trace3aa5d3" style="stroke-miterlimit: 2;"><g class="fills"><g><path class="js-fill" d="M0,119.23L8.46,132.2L16.92,122.16L33.85,123.49L42.31,116.17L50.77,113.49L59.23,104.22L67.69,95.66L76.15,93.86L84.62,84.21L93.08,82.07L101.54,77.06L110,74.2L118.46,71.45L126.92,67.48L143.85,65.63L152.31,60.14L160.77,55.94L169.23,54.91L177.69,51.94L186.15,50.32L203.08,48.09L211.54,47.76L228.46,47.69L236.92,48.45L253.85,48.55L262.31,47.5L279.23,48.69L287.69,47.62L296.15,49.68L304.62,50.17L313.08,51.5L321.54,51.8L330,53.94L338.46,54.96L346.92,62.32L355.38,63.37L363.85,70.7L372.31,75.95L380.77,81.84L389.23,88.76L397.69,96.99L406.15,104.16L414.62,108.3L423.08,122.05L431.54,123.4L440,131.83L440,133.02L431.54,135.01L423.08,128.77L414.62,125.83L389.23,94.09L380.77,85.75L363.85,76.92L355.38,69.01L346.92,66.19L338.46,63.07L330,61.36L321.54,56.19L313.08,55.96L304.62,53.06L287.69,50.3L279.23,52.54L262.31,53.23L253.85,49.64L245.38,54.31L236.92,51.08L220,51.77L211.54,50.31L203.08,51.64L194.62,52.83L186.15,55.03L177.69,54.99L169.23,64.01L160.77,62.74L152.31,66.69L143.85,73.49L135.38,77.76L126.92,78.2L118.46,83.97L110,83.83L101.54,81.79L93.08,96.09L84.62,101.96L76.15,106.68L67.69,112.34L59.23,116.78L50.77,132.61L42.31,131.84L33.85,139.94L25.38,138.08L16.92,133.8L8.46,138.88L0,125.48Z" style="fill: rgb(90, 180, 172); fill-opacity: 1; stroke-width: 0;"/></g></g><g class="errorbars"/><g class="lines"><path class="js-line" d="M0,125.48L8.46,138.88L16.92,133.8L25.38,138.08L33.85,139.94L42.31,131.84L50.77,132.61L59.23,116.78L67.69,112.34L76.15,106.68L84.62,101.96L93.08,96.09L101.54,81.79L110,83.83L118.46,83.97L126.92,78.2L135.38,77.76L143.85,73.49L152.31,66.69L160.77,62.74L169.23,64.01L177.69,54.99L186.15,55.03L194.62,52.83L203.08,51.64L211.54,50.31L220,51.77L236.92,51.08L245.38,54.31L253.85,49.64L262.31,53.23L279.23,52.54L287.69,50.3L304.62,53.06L313.08,55.96L321.54,56.19L330,61.36L338.46,63.07L346.92,66.19L355.38,69.01L363.85,76.92L380.77,85.75L389.23,94.09L414.62,125.83L423.08,128.77L431.54,135.01L440,133.02" style="vector-effect: non-scaling-stroke; fill: none; stroke: rgb(0, 0, 0); stroke-opacity: 1; stroke-width: 0.25px; opacity: 1;"/></g><g class="points"/><g class="text"/></g><g class="trace scatter traceedcabe" style="stroke-miterlimit: 2;"><g class="fills"><g><path class="js-fill" d="M0,116.34L8.46,124.19L16.92,117.53L25.38,119.29L33.85,116.02L42.31,109.46L50.77,100.79L59.23,96.87L67.69,88.71L76.15,86.31L84.62,79.07L93.08,72.22L101.54,68.75L110,69.16L118.46,66.2L126.92,63.3L135.38,62.65L143.85,62.44L152.31,57.15L160.77,52.77L169.23,50.68L177.69,50.1L186.15,47.56L194.62,46.73L203.08,46.83L211.54,46.76L220,45.63L245.38,47.47L253.85,46.02L262.31,45.17L270.77,47.15L287.69,46.83L296.15,46.93L304.62,48.36L313.08,48.31L321.54,49.73L330,47.97L338.46,51.99L346.92,54.15L355.38,61.2L363.85,66.99L372.31,70.83L380.77,77.98L406.15,98.9L414.62,105.47L423.08,102.47L431.54,113.81L440,120.99L440,131.83L431.54,123.4L423.08,122.05L414.62,108.3L406.15,104.16L397.69,96.99L389.23,88.76L380.77,81.84L372.31,75.95L363.85,70.7L355.38,63.37L346.92,62.32L338.46,54.96L330,53.94L321.54,51.8L313.08,51.5L304.62,50.17L296.15,49.68L287.69,47.62L279.23,48.69L262.31,47.5L253.85,48.55L236.92,48.45L228.46,47.69L211.54,47.76L203.08,48.09L186.15,50.32L177.69,51.94L169.23,54.91L160.77,55.94L152.31,60.14L143.85,65.63L126.92,67.48L118.46,71.45L110,74.2L101.54,77.06L93.08,82.07L84.62,84.21L76.15,93.86L67.69,95.66L59.23,104.22L50.77,113.49L42.31,116.17L33.85,123.49L16.92,122.16L8.46,132.2L0,119.23Z" style="fill: rgb(245, 245, 245); fill-opacity: 1; stroke-width: 0;"/></g></g><g class="errorbars"/><g class="lines"><path class="js-line" d="M0,119.23L8.46,132.2L16.92,122.16L33.85,123.49L42.31,116.17L50.77,113.49L59.23,104.22L67.69,95.66L76.15,93.86L84.62,84.21L93.08,82.07L101.54,77.06L110,74.2L118.46,71.45L126.92,67.48L143.85,65.63L152.31,60.14L160.77,55.94L169.23,54.91L177.69,51.94L186.15,50.32L203.08,48.09L211.54,47.76L228.46,47.69L236.92,48.45L253.85,48.55L262.31,47.5L279.23,48.69L287.69,47.62L296.15,49.68L304.62,50.17L313.08,51.5L321.54,51.8L330,53.94L338.46,54.96L346.92,62.32L355.38,63.37L363.85,70.7L372.31,75.95L380.77,81.84L389.23,88.76L397.69,96.99L406.15,104.16L414.62,108.3L423.08,122.05L431.54,123.4L440,131.83" style="vector-effect: non-scaling-stroke; fill: none; stroke: rgb(0, 0, 0); stroke-opacity: 1; stroke-width: 0.5px; opacity: 1;"/></g><g class="points"/><g class="text"/></g><g class="trace scatter trace275505" style="stroke-miterlimit: 2;"><g class="fills"><g><path class="js-fill" d="M0,112.98L8.46,118.32L16.92,113.38L25.38,112.07L33.85,107.4L42.31,99.6L50.77,96.97L59.23,92.51L67.69,83.45L76.15,79.94L84.62,70.23L101.54,62.74L110,62.56L118.46,62.14L126.92,59.18L135.38,53.78L143.85,56.71L169.23,47.67L177.69,49.08L186.15,44.38L194.62,44.95L228.46,43.22L236.92,44.5L253.85,43.6L262.31,40.45L270.77,43.31L279.23,44.08L287.69,45.51L296.15,45.75L313.08,45.52L321.54,47.3L330,45.25L338.46,47.75L346.92,51.29L355.38,57.5L372.31,68.92L380.77,75.85L397.69,88.31L406.15,91.82L423.08,97.6L431.54,107.44L440,115.12L440,120.99L431.54,113.81L423.08,102.47L414.62,105.47L406.15,98.9L380.77,77.98L372.31,70.83L363.85,66.99L355.38,61.2L346.92,54.15L338.46,51.99L330,47.97L321.54,49.73L313.08,48.31L304.62,48.36L296.15,46.93L287.69,46.83L270.77,47.15L262.31,45.17L253.85,46.02L245.38,47.47L220,45.63L211.54,46.76L203.08,46.83L194.62,46.73L186.15,47.56L177.69,50.1L169.23,50.68L160.77,52.77L152.31,57.15L143.85,62.44L135.38,62.65L126.92,63.3L118.46,66.2L110,69.16L101.54,68.75L93.08,72.22L84.62,79.07L76.15,86.31L67.69,88.71L59.23,96.87L50.77,100.79L42.31,109.46L33.85,116.02L25.38,119.29L16.92,117.53L8.46,124.19L0,116.34Z" style="fill: rgb(245, 245, 245); fill-opacity: 1; stroke-width: 0;"/></g></g><g class="errorbars"/><g class="lines"><path class="js-line" d="M0,116.34L8.46,124.19L16.92,117.53L25.38,119.29L33.85,116.02L42.31,109.46L50.77,100.79L59.23,96.87L67.69,88.71L76.15,86.31L84.62,79.07L93.08,72.22L101.54,68.75L110,69.16L118.46,66.2L126.92,63.3L135.38,62.65L143.85,62.44L152.31,57.15L160.77,52.77L169.23,50.68L177.69,50.1L186.15,47.56L194.62,46.73L203.08,46.83L211.54,46.76L220,45.63L245.38,47.47L253.85,46.02L262.31,45.17L270.77,47.15L287.69,46.83L296.15,46.93L304.62,48.36L313.08,48.31L321.54,49.73L330,47.97L338.46,51.99L346.92,54.15L355.38,61.2L363.85,66.99L372.31,70.83L380.77,77.98L406.15,98.9L414.62,105.47L423.08,102.47L431.54,113.81L440,120.99" style="vector-effect: non-scaling-stroke; fill: none; stroke: rgb(0, 0, 0); stroke-opacity: 1; stroke-width: 1px; opacity: 1;"/></g><g class="points"/><g class="text"/></g><g class="trace scatter trace36aef2" style="stroke-miterlimit: 2;"><g class="fills"><g><path class="js-fill" d="M0,106.84L8.46,108.69L16.92,102.38L25.38,96.77L33.85,98.02L42.31,91.45L50.77,79.71L67.69,72.69L76.15,63.71L84.62,59L93.08,56.17L110,55.29L118.46,53.92L126.92,49.88L135.38,41.54L143.85,47.36L152.31,47.32L160.77,45.11L169.23,43.83L177.69,45.05L186.15,40.19L194.62,38.97L203.08,41.71L211.54,40.84L220,41.93L236.92,39.08L245.38,39.42L253.85,41.84L262.31,35.64L270.77,39.17L279.23,40.18L287.69,43.06L296.15,44.91L304.62,45L313.08,41.31L321.54,45.56L330,36.56L338.46,37.61L346.92,35.21L355.38,50.75L363.85,51.69L380.77,68.9L389.23,75.86L397.69,78.7L406.15,84.61L414.62,89.27L423.08,91.36L431.54,100.53L440,102.13L440,115.12L431.54,107.44L423.08,97.6L406.15,91.82L397.69,88.31L380.77,75.85L372.31,68.92L355.38,57.5L346.92,51.29L338.46,47.75L330,45.25L321.54,47.3L313.08,45.52L296.15,45.75L287.69,45.51L279.23,44.08L270.77,43.31L262.31,40.45L253.85,43.6L236.92,44.5L228.46,43.22L194.62,44.95L186.15,44.38L177.69,49.08L169.23,47.67L143.85,56.71L135.38,53.78L126.92,59.18L118.46,62.14L110,62.56L101.54,62.74L84.62,70.23L76.15,79.94L67.69,83.45L59.23,92.51L50.77,96.97L42.31,99.6L33.85,107.4L25.38,112.07L16.92,113.38L8.46,118.32L0,112.98Z" style="fill: rgb(216, 179, 101); fill-opacity: 1; stroke-width: 0;"/></g></g><g class="errorbars"/><g class="lines"><path class="js-line" d="M0,112.98L8.46,118.32L16.92,113.38L25.38,112.07L33.85,107.4L42.31,99.6L50.77,96.97L59.23,92.51L67.69,83.45L76.15,79.94L84.62,70.23L101.54,62.74L110,62.56L118.46,62.14L126.92,59.18L135.38,53.78L143.85,56.71L169.23,47.67L177.69,49.08L186.15,44.38L194.62,44.95L228.46,43.22L236.92,44.5L253.85,43.6L262.31,40.45L270.77,43.31L279.23,44.08L287.69,45.51L296.15,45.75L313.08,45.52L321.54,47.3L330,45.25L338.46,47.75L346.92,51.29L355.38,57.5L372.31,68.92L380.77,75.85L397.69,88.31L406.15,91.82L423.08,97.6L431.54,107.44L440,115.12" style="vector-effect: non-scaling-stroke; fill: none; stroke: rgb(0, 0, 0); stroke-opacity: 1; stroke-width: 0.5px; opacity: 1;"/></g><g class="points"/><g class="text"/></g><g class="trace scatter traceadeac9" style="stroke-miterlimit: 2;"><g class="fills"/><g class="errorbars"/><g class="lines"><path class="js-line" d="M0,106.84L8.46,108.69L16.92,102.38L25.38,96.77L33.85,98.02L42.31,91.45L50.77,79.71L67.69,72.69L76.15,63.71L84.62,59L93.08,56.17L110,55.29L118.46,53.92L126.92,49.88L135.38,41.54L143.85,47.36L152.31,47.32L160.77,45.11L169.23,43.83L177.69,45.05L186.15,40.19L194.62,38.97L203.08,41.71L211.54,40.84L220,41.93L236.92,39.08L245.38,39.42L253.85,41.84L262.31,35.64L270.77,39.17L279.23,40.18L287.69,43.06L296.15,44.91L304.62,45L313.08,41.31L321.54,45.56L330,36.56L338.46,37.61L346.92,35.21L355.38,50.75L363.85,51.69L380.77,68.9L389.23,75.86L397.69,78.7L406.15,84.61L414.62,89.27L423.08,91.36L431.54,100.53L440,102.13" style="vector-effect: non-scaling-stroke; fill: none; stroke: rgb(0, 0, 0); stroke-opacity: 1; stroke-width: 0.25px; opacity: 1;"/></g><g class="points"/><g class="text"/></g><g class="trace scatter trace51037c" style="stroke-miterlimit: 2; opacity: 1;"><g class="fills"/><g class="errorbars"/><g class="lines"/><g class="points"><path class="point" transform="translate(169.23,52.08)" d="M4,0A4,4 0 1,1 0,-4A4,4 0 0,1 4,0ZM0,0.5L0.5,0L0,-0.5L-0.5,0Z" style="opacity: 1; stroke: rgb(0, 0, 0); stroke-opacity: 1; stroke-width: 1px; fill: none;"/><path class="point" transform="translate(177.69,44.64)" d="M4,0A4,4 0 1,1 0,-4A4,4 0 0,1 4,0ZM0,0.5L0.5,0L0,-0.5L-0.5,0Z" style="opacity: 1; stroke: rgb(0, 0, 0); stroke-opacity: 1; stroke-width: 1px; fill: none;"/><path class="point" transform="translate(186.15,37.2)" d="M4,0A4,4 0 1,1 0,-4A4,4 0 0,1 4,0ZM0,0.5L0.5,0L0,-0.5L-0.5,0Z" style="opacity: 1; stroke: rgb(0, 0, 0); stroke-opacity: 1; stroke-width: 1px; fill: none;"/><path class="point" transform="translate(194.62,37.2)" d="M4,0A4,4 0 1,1 0,-4A4,4 0 0,1 4,0ZM0,0.5L0.5,0L0,-0.5L-0.5,0Z" style="opacity: 1; stroke: rgb(0, 0, 0); stroke-opacity: 1; stroke-width: 1px; fill: none;"/></g><g class="text"/></g></g></g><g class="overplot"/><path class="xlines-above crisp" d="M0,0" style="fill: none;"/><path class="ylines-above crisp" d="M0,0" style="fill: none;"/><g class="overlines-above"/><g class="xaxislayer-above"><g class="x3tick"><text text-anchor="middle" x="0" y="733" transform="translate(156.15,0)" style="font-family: 'Open Sans', verdana, arial, sans-serif; font-size: 12px; fill: rgb(42, 63, 95); fill-opacity: 1; white-space: pre; opacity: 1;">10</text></g><g class="x3tick"><text text-anchor="middle" x="0" y="733" style="font-family: 'Open Sans', verdana, arial, sans-serif; font-size: 12px; fill: rgb(42, 63, 95); fill-opacity: 1; white-space: pre; opacity: 1;" transform="translate(240.77,0)">20</text></g><g class="x3tick"><text text-anchor="middle" x="0" y="733" style="font-family: 'Open Sans', verdana, arial, sans-serif; font-size: 12px; fill: rgb(42, 63, 95); fill-opacity: 1; white-space: pre; opacity: 1;" transform="translate(325.38,0)">30</text></g><g class="x3tick"><text text-anchor="middle" x="0" y="733" style="font-family: 'Open Sans', verdana, arial, sans-serif; font-size: 12px; fill: rgb(42, 63, 95); fill-opacity: 1; white-space: pre; opacity: 1;" transform="translate(410,0)">40</text></g><g class="x3tick"><text text-anchor="middle" x="0" y="733" style="font-family: 'Open Sans', verdana, arial, sans-serif; font-size: 12px; fill: rgb(42, 63, 95); fill-opacity: 1; white-space: pre; opacity: 1;" transform="translate(494.62,0)">50</text></g></g><g class="yaxislayer-above"><g class="y3tick"><text text-anchor="end" x="79" y="4.199999999999999" transform="translate(0,720)" style="font-family: 'Open Sans', verdana, arial, sans-serif; font-size: 12px; fill: rgb(42, 63, 95); fill-opacity: 1; white-space: pre; opacity: 1;">5</text></g><g class="y3tick"><text text-anchor="end" x="79" y="4.199999999999999" style="font-family: 'Open Sans', verdana, arial, sans-serif; font-size: 12px; fill: rgb(42, 63, 95); fill-opacity: 1; white-space: pre; opacity: 1;" transform="translate(0,682.8)">10</text></g><g class="y3tick"><text text-anchor="end" x="79" y="4.199999999999999" style="font-family: 'Open Sans', verdana, arial, sans-serif; font-size: 12px; fill: rgb(42, 63, 95); fill-opacity: 1; white-space: pre; opacity: 1;" transform="translate(0,645.6)">15</text></g><g class="y3tick"><text text-anchor="end" x="79" y="4.199999999999999" style="font-family: 'Open Sans', verdana, arial, sans-serif; font-size: 12px; fill: rgb(42, 63, 95); fill-opacity: 1; white-space: pre; opacity: 1;" transform="translate(0,608.4)">20</text></g><g class="y3tick"><text text-anchor="end" x="79" y="4.199999999999999" style="font-family: 'Open Sans', verdana, arial, sans-serif; font-size: 12px; fill: rgb(42, 63, 95); fill-opacity: 1; white-space: pre; opacity: 1;" transform="translate(0,571.2)">25</text></g><g class="y3tick"><text text-anchor="end" x="79" y="4.199999999999999" style="font-family: 'Open Sans', verdana, arial, sans-serif; font-size: 12px; fill: rgb(42, 63, 95); fill-opacity: 1; white-space: pre; opacity: 1;" transform="translate(0,534)">30</text></g></g><g class="overaxes-above"/></g></g><g class="polarlayer"/><g class="smithlayer"/><g class="ternarylayer"/><g class="geolayer"/><g class="funnelarealayer"/><g class="pielayer"/><g class="iciclelayer"/><g class="treemaplayer"/><g class="sunburstlayer"/><g class="glimages"/><defs id="topdefs-3982f4"><g class="clips"/></defs><g class="layer-above"><g class="imagelayer"/><g class="shapelayer"/></g><g class="infolayer"><g class="g-gtitle"><text class="gtitle" x="30" y="50" text-anchor="start" dy="0em" style="font-family: 'Open Sans', verdana, arial, sans-serif; font-size: 17px; fill: rgb(42, 63, 95); opacity: 1; font-weight: normal; white-space: pre;">Climatology and S2S forecast for Sunamganj</text></g><g class="g-xtitle"/><g class="g-x2title"/><g class="g-x3title"/><g class="g-ytitle"><text class="ytitle" transform="rotate(-90,34.16875,193)" x="34.16875" y="193" text-anchor="middle" style="font-family: 'Open Sans', verdana, arial, sans-serif; font-size: 14px; fill: rgb(42, 63, 95); opacity: 1; font-weight: normal; white-space: pre;">[mm]</text></g><g class="g-y2title"><text class="y2title" transform="rotate(-90,40.840625,410.00000000000006)" x="40.840625" y="410.00000000000006" text-anchor="middle" style="font-family: 'Open Sans', verdana, arial, sans-serif; font-size: 14px; fill: rgb(42, 63, 95); opacity: 1; font-weight: normal; white-space: pre;">[C]</text></g><g class="g-y3title"><text class="y3title" transform="rotate(-90,40.840625,627)" x="40.840625" y="627" text-anchor="middle" style="font-family: 'Open Sans', verdana, arial, sans-serif; font-size: 14px; fill: rgb(42, 63, 95); opacity: 1; font-weight: normal; white-space: pre;">[C]</text></g><g class="annotation" data-index="0" style="opacity: 1;"><g class="annotation-text-g" transform="rotate(0,300,89.5)"><g class="cursor-pointer" transform="translate(237,79)"><rect class="bg" x="0.5" y="0.5" width="126" height="20" style="stroke-width: 1px; stroke: rgb(0, 0, 0); stroke-opacity: 0; fill: rgb(0, 0, 0); fill-opacity: 0;"/><text class="annotation-text" text-anchor="middle" x="63.359375" y="16" style="font-family: 'Open Sans', verdana, arial, sans-serif; font-size: 16px; fill: rgb(42, 63, 95); fill-opacity: 1; white-space: pre;">Precipitation sum</text></g></g></g><g class="annotation" data-index="1" style="opacity: 1;"><g class="annotation-text-g" transform="rotate(0,300,306.50000000000006)"><g class="cursor-pointer" transform="translate(196,296)"><rect class="bg" x="0.5" y="0.5" width="208" height="20" style="stroke-width: 1px; stroke: rgb(0, 0, 0); stroke-opacity: 0; fill: rgb(0, 0, 0); fill-opacity: 0;"/><text class="annotation-text" text-anchor="middle" x="104.265625" y="16" style="font-family: 'Open Sans', verdana, arial, sans-serif; font-size: 16px; fill: rgb(42, 63, 95); fill-opacity: 1; white-space: pre;">Mean maximum temperature</text></g></g></g><g class="annotation" data-index="2" style="opacity: 1;"><g class="annotation-text-g" transform="rotate(0,300,523.5)"><g class="cursor-pointer" transform="translate(198,513)"><rect class="bg" x="0.5" y="0.5" width="203" height="20" style="stroke-width: 1px; stroke: rgb(0, 0, 0); stroke-opacity: 0; fill: rgb(0, 0, 0); fill-opacity: 0;"/><text class="annotation-text" text-anchor="middle" x="102.046875" y="16" style="font-family: 'Open Sans', verdana, arial, sans-serif; font-size: 16px; fill: rgb(42, 63, 95); fill-opacity: 1; white-space: pre;">Mean minimum temperature</text></g></g></g><g class="annotation" data-index="3" style="opacity: 1;"><g class="annotation-text-g" transform="rotate(0,300,760.5)"><g class="cursor-pointer" transform="translate(277,750)"><rect class="bg" x="0.5" y="0.5" width="45" height="20" style="stroke-width: 1px; stroke: rgb(0, 0, 0); stroke-opacity: 0; fill: rgb(0, 0, 0); fill-opacity: 0;"/><text class="annotation-text" text-anchor="middle" x="22.3125" y="16" style="font-family: 'Open Sans', verdana, arial, sans-serif; font-size: 16px; fill: rgb(42, 63, 95); fill-opacity: 1; white-space: pre;">Week</text></g></g></g></g></svg>