<svg class="main-svg" xmlns="http://www.w3.org/2000/svg" xmlns:xlink="http://www.w3.org/1999/xlink" width="600" height="800" style="" viewBox="0 0 600 800"><rect x="0" y="0" width="600" height="800" style="fill: rgb(255, 255, 255); fill-opacity: 1;"/><defs id="defs-414303"><g class="clips"><clipPath id="clip414303xyplot" class="plotclip"><rect width="440" height="186.00000000000003"/></clipPath><clipPath id="clip414303x2y2plot" class="plotclip"><rect width="440" height="185.99999999999997"/></clipPath><clipPath id="clip414303x3y3plot" class="plotclip"><rect width="440" height="186"/></clipPath><clipPath class="axesclip" id="clip414303x"><rect x="80" y="0" width="440" height="800"/></clipPath><clipPath class="axesclip" id="clip414303y"><rect x="0" y="100" width="600" height="186.00000000000003"/></clipPath><clipPath class="axesclip" id="clip414303xy"><rect x="80" y="100" width="440" height="186.00000000000003"/></clipPath><clipPath class="axesclip" id="clip414303y2"><rect x="0" y="317.00000000000006" width="600" height="185.99999999999997"/></clipPath><clipPath class="axesclip" id="clip414303xy2"><rect x="80" y="317.00000000000006" width="440" height="185.99999999999997"/></clipPath><clipPath class="axesclip" id="clip414303y3"><rect x="0" y="534" width="600" height="186"/></clipPath><clipPath class="axesclip" id="clip414303xy3"><rect x="80" y="534" width="440" height="186"/></clipPath><clipPath class="axesclip" id="clip414303x2"><rect x="80" y="0" width="440" height="800"/></clipPath><clipPath class="axesclip" id="clip414303x2y"><rect x="80" y="100" width="440" height="186.00000000000003"/></clipPath><clipPath class="axesclip" id="clip414303x2y2"><rect x="80" y="317.00000000000006" width="440" height="185.99999999999997"/></clipPath><clipPath class="axesclip" id="clip414303x2y3"><rect x="80" y="534" width="440" height="186"/></clipPath><clipPath class="axesclip" id="clip414303x3"><rect x="80" y="0" width="440" height="800"/></clipPath><clipPath class="axesclip" id="clip414303x3y"><rect x="80" y="100" width="440" height="186.00000000000003"/></clipPath><clipPath class="axesclip" id="clip414303x3y2"><rect x="80" y="317.00000000000006" width="440" height="185.99999999999997"/></clipPath><clipPath class="axesclip" id="clip414303x3y3"><rect x="80" y="534" width="440" height="186"/></clipPath></g><g class="gradients"/><g class="patterns"/></defs><g class="bglayer"><rect class="bg" x="80" y="100" width="440" height="186.00000000000003" style="fill: rgb(229, 236, 246); fill-opacity: 1; stroke-width: 0;"/><rect class="bg" x="80" y="317.00000000000006" width="440" height="185.99999999999997" style="fill: rgb(229, 236, 246); fill-opacity: 1; stroke-width: 0;"/><rect class="bg" x="80" y="534" width="440" height="186" style="fill: rgb(229, 236, 246); fill-opacity: 1; stroke-width: 0;"/></g><g class="layer-below"><g class="imagelayer"/><g class="shapelayer"/></g><g class="cartesianlayer"><g class="subplot xy"><g class="layer-subplot"><g class="shapelayer"/><g class="imagelayer"/></g><g class="minor-gridlayer"><g class="x"/><g class="y"/></g><g class="gridlayer"><g class="x"><path class="xgrid crisp" transform="translate(156.15,0)" d="M0,100v186.00000000000003" style="stroke: rgb(255, 255, 255); stroke-opacity: 1; stroke-width: 1px;"/><path class="xgrid crisp" transform="translate(240.77,0)" d="M0,100v186.00000000000003" style="stroke: rgb(255, 255, 255); stroke-opacity: 1; stroke-width: 1px;"/><path class="xgrid crisp" transform="translate(325.38,0)" d="M0,100v186.00000000000003" style="stroke: rgb(255, 255, 255); stroke-opacity: 1; stroke-width: 1px;"/><path class="xgrid crisp" transform="translate(410,0)" d="M0,100v186.00000000000003" style="stroke: rgb(255, 255, 255); stroke-opacity: 1; stroke-width: 1px;"/><path class="xgrid crisp" transform="translate(494.62,0)" d="M0,100v186.00000000000003" style="stroke: rgb(255, 255, 255); stroke-opacity: 1; stroke-width: 1px;"/></g><g class="y"><path class="ygrid crisp" transform="translate(0,248.8)" d="M80,0h440" style="stroke: rgb(255, 255, 255); stroke-opacity: 1; stroke-width: 1px;"/><path class="ygrid crisp" transform="translate(0,211.6)" d="M80,0h440" style="stroke: rgb(255, 255, 255); stroke-opacity: 1; stroke-width: 1px;"/><path class="ygrid crisp" transform="translate(0,174.4)" d="M80,0h440" style="stroke: rgb(255, 255, 255); stroke-opacity: 1; stroke-width: 1px;"/><path class="ygrid crisp" transform="translate(0,137.2)" d="M80,0h440" style="stroke: rgb(255, 255, 255); stroke-opacity: 1; stroke-width: 1px;"/></g></g><g class="zerolinelayer"><path class="yzl zl crisp" transform="translate(0,286)" d="M80,0h440" style="stroke: rgb(255, 255, 255); stroke-opacity: 1; stroke-width: 2px;"/></g><path class="xlines-below"/><path class="ylines-below"/><g class="overlines-below"/><g class="xaxislayer-below"/><g class="yaxislayer-below"/><g class="overaxes-below"/><g class="plot" transform="translate(80,100)" clip-path="url(#clip414303xyplot)"><g class="scatterlayer mlayer"><g class="trace scatter trace5d1ba4" style="stroke-miterlimit: 2;"><g class="fills"><g><path class="js-fill" d="M0,186L118.46,185.28L126.92,181.79L135.38,182.08L143.85,176.15L152.31,178.25L160.77,171.59L169.23,162.48L177.69,157.82L186.15,148.4L194.62,166.37L203.08,155.97L211.54,163.47L220,160.04L228.46,164.15L236.92,159.88L245.38,154.76L253.85,161.98L262.31,151.93L270.77,153.7L279.23,168.4L287.69,164.67L296.15,170.35L304.62,171.21L313.08,167.17L321.54,173.39L330,180.83L338.46,182.13L346.92,184.86L355.38,186L363.85,186L440,186L440,186L355.38,186L346.92,186L338.46,185.12L330,186L313.08,183.69L304.62,185.26L296.15,185.11L287.69,178.39L279.23,178.64L270.77,174.41L262.31,177.6L253.85,179.35L245.38,186L236.92,184.89L228.46,176.92L220,184.51L211.54,183.01L203.08,185.86L194.62,184.95L186.15,180.68L177.69,182.35L169.23,184.56L160.77,184.56L152.31,186L0,186Z" style="fill: rgb(224, 236, 244); fill-opacity: 1; stroke-width: 0;"/></g></g><g class="errorbars"/><g class="lines"><path class="js-line" d="M0,186L152.31,186L160.77,184.56L169.23,184.56L177.69,182.35L186.15,180.68L194.62,184.95L203.08,185.86L211.54,183.01L220,184.51L228.46,176.92L236.92,184.89L245.38,186L253.85,179.35L262.31,177.6L270.77,174.41L279.23,178.64L287.69,178.39L296.15,185.11L304.62,185.26L313.08,183.69L330,186L338.46,185.12L346.92,186L355.38,186L440,186" style="vector-effect: non-scaling-stroke; fill: none; stroke: rgb(0, 0, 0); stroke-opacity: 1; stroke-width: 0.25px; opacity: 1;"/></g><g class="points"/><g class="text"/></g><g class="trace scatter trace4eabbf" style="stroke-miterlimit: 2;"><g class="fills"><g><path class="js-fill" d="M0,186L76.15,186L84.62,184.94L93.08,185.36L101.54,182.92L110,178.16L118.46,175.88L126.92,175.41L135.38,167.8L143.85,166.1L152.31,159.16L160.77,153.74L169.23,147.38L177.69,144.54L186.15,138.64L194.62,132.05L203.08,147.53L211.54,131.57L220,149.47L228.46,143.2L236.92,140.57L245.38,131.6L253.85,149.92L262.31,136.17L270.77,139.97L279.23,146.95L287.69,159.14L296.15,161.11L304.62,160.65L313.08,151.06L321.54,148.19L330,168.27L338.46,161.34L346.92,176.82L355.38,184.93L363.85,185.99L372.31,186L440,186L440,186L363.85,186L355.38,186L346.92,184.86L338.46,182.13L330,180.83L321.54,173.39L313.08,167.17L304.62,171.21L296.15,170.35L287.69,164.67L279.23,168.4L270.77,153.7L262.31,151.93L253.85,161.98L245.38,154.76L236.92,159.88L228.46,164.15L220,160.04L211.54,163.47L203.08,155.97L194.62,166.37L186.15,148.4L177.69,157.82L169.23,162.48L160.77,171.59L152.31,178.25L143.85,176.15L135.38,182.08L126.92,181.79L118.46,185.28L0,186Z" style="fill: rgb(158, 188, 218); fill-opacity: 1; stroke-width: 0;"/></g></g><g class="errorbars"/><g class="lines"><path class="js-line" d="M0,186L118.46,185.28L126.92,181.79L135.38,182.08L143.85,176.15L152.31,178.25L160.77,171.59L169.23,162.48L177.69,157.82L186.15,148.4L194.62,166.37L203.08,155.97L211.54,163.47L220,160.04L228.46,164.15L236.92,159.88L245.38,154.76L253.85,161.98L262.31,151.93L270.77,153.7L279.23,168.4L287.69,164.67L296.15,170.35L304.62,171.21L313.08,167.17L321.54,173.39L330,180.83L338.46,182.13L346.92,184.86L355.38,186L363.85,186L440,186" style="vector-effect: non-scaling-stroke; fill: none; stroke: rgb(0, 0, 0); stroke-opacity: 1; stroke-width: 0.5px; opacity: 1;"/></g><g class="points"/><g class="text"/></g><g class="trace scatter trace0fd9fe" style="stroke-miterlimit: 2;"><g class="fills"><g><path class="js-fill" d="M0,186L42.31,185.87L50.77,183.59L59.23,183.62L67.69,182.85L76.15,182.29L84.62,178.55L93.08,177.18L101.54,160.36L110,145.57L118.46,168.67L135.38,146.27L143.85,139.97L152.31,136.34L160.77,119.58L169.23,133.52L177.69,121.42L186.15,104.56L194.62,101.12L203.08,134.66L211.54,81.82L220,119.5L228.46,110.83L236.92,99.05L245.38,84.29L253.85,122.54L262.31,110.37L270.77,131.47L279.23,101.73L287.69,148.73L296.15,147.08L304.62,149.81L313.08,124.8L321.54,123.69L330,152.16L338.46,151.38L346.92,140.82L355.38,149.86L363.85,177.72L372.31,184.42L380.77,185.94L440,186L440,186L372.31,186L363.85,185.99L355.38,184.93L346.92,176.82L338.46,161.34L330,168.27L321.54,148.19L313.08,151.06L304.62,160.65L296.15,161.11L287.69,159.14L279.23,146.95L270.77,139.97L262.31,136.17L253.85,149.92L245.38,131.6L236.92,140.57L228.46,143.2L220,149.47L211.54,131.57L203.08,147.53L194.62,132.05L186.15,138.64L177.69,144.54L169.23,147.38L160.77,153.74L152.31,159.16L143.85,166.1L135.38,167.8L126.92,175.41L118.46,175.88L110,178.16L101.54,182.92L93.08,185.36L84.62,184.94L76.15,186L0,186Z" style="fill: rgb(158, 188, 218); fill-opacity: 1; stroke-width: 0;"/></g></g><g class="errorbars"/><g class="lines"><path class="js-line" d="M0,186L76.15,186L84.62,184.94L93.08,185.36L101.54,182.92L110,178.16L118.46,175.88L126.92,175.41L135.38,167.8L143.85,166.1L152.31,159.16L160.77,153.74L169.23,147.38L177.69,144.54L186.15,138.64L194.62,132.05L203.08,147.53L211.54,131.57L220,149.47L228.46,143.2L236.92,140.57L245.38,131.6L253.85,149.92L262.31,136.17L270.77,139.97L279.23,146.95L287.69,159.14L296.15,161.11L304.62,160.65L313.08,151.06L321.54,148.19L330,168.27L338.46,161.34L346.92,176.82L355.38,184.93L363.85,185.99L372.31,186L440,186" style="vector-effect: non-scaling-stroke; fill: none; stroke: rgb(0, 0, 0); stroke-opacity: 1; stroke-width: 1px; opacity: 1;"/></g><g class="points"/><g class="text"/></g><g class="trace scatter traceb0d6fb" style="stroke-miterlimit: 2;"><g class="fills"><g><path class="js-fill" d="M0,186L8.46,186L16.92,184.56L25.38,186L33.85,186L42.31,185.86L50.77,180.3L59.23,183.38L67.69,179.16L76.15,181.64L84.62,170.78L93.08,170.4L101.54,133.89L110,95.25L118.46,148.96L135.38,101.77L143.85,121.09L152.31,106.68L160.77,101.75L169.23,105.46L177.69,95.84L186.15,55.99L194.62,65.48L203.08,128.28L211.54,15.14L220,78.13L228.46,37.2L236.92,34.14L245.38,3.75L253.85,71.2L262.31,82.53L270.77,106.85L279.23,20.59L287.69,129.79L296.15,122.02L304.62,121.47L313.08,104.31L321.54,50.59L330,124.95L338.46,114.96L346.92,98.05L355.38,124.1L363.85,167.72L372.31,184.17L380.77,185.92L440,186L440,186L380.77,185.94L372.31,184.42L363.85,177.72L355.38,149.86L346.92,140.82L338.46,151.38L330,152.16L321.54,123.69L313.08,124.8L304.62,149.81L296.15,147.08L287.69,148.73L279.23,101.73L270.77,131.47L262.31,110.37L253.85,122.54L245.38,84.29L236.92,99.05L228.46,110.83L220,119.5L211.54,81.82L203.08,134.66L194.62,101.12L186.15,104.56L177.69,121.42L169.23,133.52L160.77,119.58L152.31,136.34L143.85,139.97L135.38,146.27L118.46,168.67L110,145.57L101.54,160.36L93.08,177.18L84.62,178.55L76.15,182.29L67.69,182.85L59.23,183.62L50.77,183.59L42.31,185.87L0,186Z" style="fill: rgb(136, 86, 167); fill-opacity: 1; stroke-width: 0;"/></g></g><g class="errorbars"/><g class="lines"><path class="js-line" d="M0,186L42.31,185.87L50.77,183.59L59.23,183.62L67.69,182.85L76.15,182.29L84.62,178.55L93.08,177.18L101.54,160.36L110,145.57L118.46,168.67L135.38,146.27L143.85,139.97L152.31,136.34L160.77,119.58L169.23,133.52L177.69,121.42L186.15,104.56L194.62,101.12L203.08,134.66L211.54,81.82L220,119.5L228.46,110.83L236.92,99.05L245.38,84.29L253.85,122.54L262.31,110.37L270.77,131.47L279.23,101.73L287.69,148.73L296.15,147.08L304.62,149.81L313.08,124.8L321.54,123.69L330,152.16L338.46,151.38L346.92,140.82L355.38,149.86L363.85,177.72L372.31,184.42L380.77,185.94L440,186" style="vector-effect: non-scaling-stroke; fill: none; stroke: rgb(0, 0, 0); stroke-opacity: 1; stroke-width: 0.5px; opacity: 1;"/></g><g class="points"/><g class="text"/></g><g class="trace scatter trace6a89e1" style="stroke-miterlimit: 2;"><g class="fills"/><g class="errorbars"/><g class="lines"><path class="js-line" d="M0,186L8.46,186L16.92,184.56L25.38,186L33.85,186L42.31,185.86L50.77,180.3L59.23,183.38L67.69,179.16L76.15,181.64L84.62,170.78L93.08,170.4L101.54,133.89L110,95.25L118.46,148.96L135.38,101.77L143.85,121.09L152.31,106.68L160.77,101.75L169.23,105.46L177.69,95.84L186.15,55.99L194.62,65.48L203.08,128.28L211.54,15.14L220,78.13L228.46,37.2L236.92,34.14L245.38,3.75L253.85,71.2L262.31,82.53L270.77,106.85L279.23,20.59L287.69,129.79L296.15,122.02L304.62,121.47L313.08,104.31L321.54,50.59L330,124.95L338.46,114.96L346.92,98.05L355.38,124.1L363.85,167.72L372.31,184.17L380.77,185.92L440,186" style="vector-effect: non-scaling-stroke; fill: none; stroke: rgb(0, 0, 0); stroke-opacity: 1; stroke-width: 0.25px; opacity: 1;"/></g><g class="points"/><g class="text"/></g><g class="trace scatter trace79ede5" style="stroke-miterlimit: 2; opacity: 1;"><g class="fills"/><g class="errorbars"/><g class="lines"/><g class="points"><path class="point" transform="translate(160.77,178.56)" d="M4,0A4,4 0 1,1 0,-4A4,4 0 0,1 4,0ZM0,0.5L0.5,0L0,-0.5L-0.5,0Z" style="opacity: 1; stroke: rgb(0, 0, 0); stroke-opacity: 1; stroke-width: 1px; fill: none;"/><path class="point" transform="translate(169.23,186)" d="M4,0A4,4 0 1,1 0,-4A4,4 0 0,1 4,0ZM0,0.5L0.5,0L0,-0.5L-0.5,0Z" style="opacity: 1; stroke: rgb(0, 0, 0); stroke-opacity: 1; stroke-width: 1px; fill: none;"/><path class="point" transform="translate(177.69,176.33)" d="M4,0A4,4 0 1,1 0,-4A4,4 0 0,1 4,0ZM0,0.5L0.5,0L0,-0.5L-0.5,0Z" style="opacity: 1; stroke: rgb(0, 0, 0); stroke-opacity: 1; stroke-width: 1px; fill: none;"/><path class="point" transform="translate(186.15,176.33)" d="M4,0A4,4 0 1,1 0,-4A4,4 0 0,1 4,0ZM0,0.5L0.5,0L0,-0.5L-0.5,0Z" style="opacity: 1; stroke: rgb(0, 0, 0); stroke-opacity: 1; stroke-width: 1px; fill: none;"/></g><g class="text"/></g></g></g><g class="overplot"/><path class="xlines-above crisp" d="M0,0" style="fill: none;"/><path class="ylines-above crisp" d="M0,0" style="fill: none;"/><g class="overlines-above"/><g class="xaxislayer-above"/><g class="yaxislayer-above"><g class="ytick"><text text-anchor="end" x="79" y="4.199999999999999" transform="translate(0,286)" style="font-family: 'Open Sans', verdana, arial, sans-serif; font-size: 12px; fill: rgb(42, 63, 95); fill-opacity: 1; white-space: pre; opacity: 1;">0</text></g><g class="ytick"><text text-anchor="end" x="79" y="4.199999999999999" style="font-family: 'Open Sans', verdana, arial, sans-serif; font-size: 12px; fill: rgb(42, 63, 95); fill-opacity: 1; white-space: pre; opacity: 1;" transform="translate(0,248.8)">50</text></g><g class="ytick"><text text-anchor="end" x="79" y="4.199999999999999" style="font-family: 'Open Sans', verdana, arial, sans-serif; font-size: 12px; fill: rgb(42, 63, 95); fill-opacity: 1; white-space: pre; opacity: 1;" transform="translate(0,211.6)">100</text></g><g class="ytick"><text text-anchor="end" x="79" y="4.199999999999999" style="font-family: 'Open Sans', verdana, arial, sans-serif; font-size: 12px; fill: rgb(42, 63, 95); fill-opacity: 1; white-space: pre; opacity: 1;" transform="translate(0,174.4)">150</text></g><g class="ytick"><text text-anchor="end" x="79" y="4.199999999999999" style="font-family: 'Open Sans', verdana, arial, sans-serif; font-size: 12px; fill: rgb(42, 63, 95); fill-opacity: 1; white-space: pre; opacity: 1;" transform="translate(0,137.2)">200</text></g><g class="ytick"><text text-anchor="end" x="79" y="4.199999999999999" style="font-family: 'Open Sans', verdana, arial, sans-serif; font-size: 12px; fill: rgb(42, 63, 95); fill-opacity: 1; white-space: pre; opacity: 1;" transform="translate(0,100)">250</text></g></g><g class="overaxes-above"/></g><g class="subplot x2y2"><g class="layer-subplot"><g class="shapelayer"/><g class="imagelayer"/></g><g class="minor-gridlayer"><g class="x2"/><g class="y2"/></g><g class="gridlayer"><g class="x2"><path class="x2grid crisp" transform="translate(156.15,0)" d="M0,317.00000000000006v185.99999999999997" style="stroke: rgb(255, 255, 255); stroke-opacity: 1; stroke-width: 1px;"/><path class="x2grid crisp" transform="translate(240.77,0)" d="M0,317.00000000000006v185.99999999999997" style="stroke: rgb(255, 255, 255); stroke-opacity: 1; stroke-width: 1px;"/><path class="x2grid crisp" transform="translate(325.38,0)" d="M0,317.00000000000006v185.99999999999997" style="stroke: rgb(255, 255, 255); stroke-opacity: 1; stroke-width: 1px;"/><path class="x2grid crisp" transform="translate(410,0)" d="M0,317.00000000000006v185.99999999999997" style="stroke: rgb(255, 255, 255); stroke-opacity: 1; stroke-width: 1px;"/><path class="x2grid crisp" transform="translate(494.62,0)" d="M0,317.00000000000006v185.99999999999997" style="stroke: rgb(255, 255, 255); stroke-opacity: 1; stroke-width: 1px;"/></g><g class="y2"><path class="y2grid crisp" transform="translate(0,472.00000000000006)" d="M80,0h440" style="stroke: rgb(255, 255, 255); stroke-opacity: 1; stroke-width: 1px;"/><path class="y2grid crisp" transform="translate(0,410.00000000000006)" d="M80,0h440" style="stroke: rgb(255, 255, 255); stroke-opacity: 1; stroke-width: 1px;"/><path class="y2grid crisp" transform="translate(0,348.00000000000006)" d="M80,0h440" style="stroke: rgb(255, 255, 255); stroke-opacity: 1; stroke-width: 1px;"/></g></g><g class="zerolinelayer"/><path class="xlines-below"/><path class="ylines-below"/><g class="overlines-below"/><g class="xaxislayer-below"/><g class="yaxislayer-below"/><g class="overaxes-below"/><g class="plot" transform="translate(80,317.00000000000006)" clip-path="url(#clip414303x2y2plot)"><g class="scatterlayer mlayer"><g class="trace scatter trace1dac1d" style="stroke-miterlimit: 2;"><g class="fills"><g><path class="js-fill" d="M0,142.34L8.46,148.13L16.92,134.42L25.38,131.04L33.85,123.68L42.31,115.07L50.77,107.98L59.23,98.59L67.69,92.14L76.15,87.72L84.62,74.34L93.08,77.16L101.54,84.76L110,86.79L118.46,83.33L126.92,81.9L135.38,85.21L143.85,90.04L152.31,82.77L160.77,88.85L169.23,84.69L177.69,90.86L186.15,91.42L194.62,91.52L203.08,92.84L211.54,97.3L220,94.27L228.46,92.61L236.92,97.56L245.38,93.71L253.85,94.85L262.31,95.2L270.77,96.32L287.69,94.25L296.15,95.86L304.62,93.27L313.08,99.06L330,93.8L338.46,97.14L346.92,95.15L355.38,92.26L363.85,93.75L372.31,96.58L380.77,101.09L389.23,107.6L397.69,115.23L406.15,125.25L414.62,128.22L423.08,137.94L440,143.72L440,146.77L431.54,144.57L423.08,153.87L414.62,136.43L406.15,139.28L397.69,123.63L389.23,112.42L380.77,105.93L372.31,101.26L363.85,101.61L355.38,103.45L346.92,107.94L338.46,100.7L330,104.79L321.54,101.41L313.08,108.8L304.62,98.19L296.15,106.13L287.69,99.2L279.23,103.55L270.77,106.99L262.31,104.9L253.85,101.91L245.38,98.89L236.92,105.85L228.46,100.15L220,106.83L211.54,105.15L203.08,100.13L194.62,97.7L186.15,97.7L177.69,93.98L169.23,95.11L160.77,97.51L152.31,93.93L143.85,99.22L135.38,100.06L126.92,95.94L118.46,97.23L110,93.35L101.54,97.26L93.08,90.04L84.62,89.13L76.15,101.44L67.69,116.16L59.23,115.61L50.77,124.92L42.31,130.23L33.85,139.63L25.38,133.75L16.92,145.81L8.46,159.2L0,160.21Z" style="fill: rgb(145, 191, 219); fill-opacity: 1; stroke-width: 0;"/></g></g><g class="errorbars"/><g class="lines"><path class="js-line" d="M0,160.21L8.46,159.2L16.92,145.81L25.38,133.75L33.85,139.63L42.31,130.23L50.77,124.92L59.23,115.61L67.69,116.16L76.15,101.44L84.62,89.13L93.08,90.04L101.54,97.26L110,93.35L118.46,97.23L126.92,95.94L135.38,100.06L143.85,99.22L152.31,93.93L160.77,97.51L169.23,95.11L177.69,93.98L186.15,97.7L194.62,97.7L203.08,100.13L211.54,105.15L220,106.83L228.46,100.15L236.92,105.85L245.38,98.89L253.85,101.91L262.31,104.9L270.77,106.99L279.23,103.55L287.69,99.2L296.15,106.13L304.62,98.19L313.08,108.8L321.54,101.41L330,104.79L338.46,100.7L346.92,107.94L355.38,103.45L363.85,101.61L372.31,101.26L380.77,105.93L389.23,112.42L397.69,123.63L406.15,139.28L414.62,136.43L423.08,153.87L431.54,144.57L440,146.77" style="vector-effect: non-scaling-stroke; fill: none; stroke: rgb(0, 0, 0); stroke-opacity: 1; stroke-width: 0.25px; opacity: 1;"/></g><g class="points"/><g class="text"/></g><g class="trace scatter tracecef11c" style="stroke-miterlimit: 2;"><g class="fills"><g><path class="js-fill" d="M0,134.08L8.46,138.58L16.92,130.19L33.85,118.18L42.31,106.37L50.77,100.24L59.23,90.15L67.69,79.76L76.15,79.12L84.62,68.21L93.08,62.96L101.54,70.68L110,76.88L118.46,71.58L126.92,76.62L135.38,79.27L143.85,83.01L152.31,77.59L160.77,81.1L169.23,81.46L177.69,84.34L186.15,84.41L194.62,89.12L203.08,88.73L211.54,91.44L220,89.72L228.46,89.33L236.92,91.66L245.38,87.95L253.85,91.43L262.31,89.92L270.77,91.25L279.23,90.41L287.69,90.5L296.15,92.12L304.62,90.51L313.08,90.75L321.54,89.64L330,90.69L338.46,89.5L346.92,87.48L355.38,84.87L363.85,90.14L372.31,93.09L380.77,97.38L389.23,104.05L397.69,108.91L406.15,119.5L414.62,123.62L423.08,127.22L431.54,134.2L440,133.03L440,143.72L423.08,137.94L414.62,128.22L406.15,125.25L397.69,115.23L389.23,107.6L380.77,101.09L372.31,96.58L363.85,93.75L355.38,92.26L346.92,95.15L338.46,97.14L330,93.8L313.08,99.06L304.62,93.27L296.15,95.86L287.69,94.25L270.77,96.32L262.31,95.2L253.85,94.85L245.38,93.71L236.92,97.56L228.46,92.61L220,94.27L211.54,97.3L203.08,92.84L194.62,91.52L186.15,91.42L177.69,90.86L169.23,84.69L160.77,88.85L152.31,82.77L143.85,90.04L135.38,85.21L126.92,81.9L118.46,83.33L110,86.79L101.54,84.76L93.08,77.16L84.62,74.34L76.15,87.72L67.69,92.14L59.23,98.59L50.77,107.98L42.31,115.07L33.85,123.68L25.38,131.04L16.92,134.42L8.46,148.13L0,142.34Z" style="fill: rgb(255, 255, 191); fill-opacity: 1; stroke-width: 0;"/></g></g><g class="errorbars"/><g class="lines"><path class="js-line" d="M0,142.34L8.46,148.13L16.92,134.42L25.38,131.04L33.85,123.68L42.31,115.07L50.77,107.98L59.23,98.59L67.69,92.14L76.15,87.72L84.62,74.34L93.08,77.16L101.54,84.76L110,86.79L118.46,83.33L126.92,81.9L135.38,85.21L143.85,90.04L152.31,82.77L160.77,88.85L169.23,84.69L177.69,90.86L186.15,91.42L194.62,91.52L203.08,92.84L211.54,97.3L220,94.27L228.46,92.61L236.92,97.56L245.38,93.71L253.85,94.85L262.31,95.2L270.77,96.32L287.69,94.25L296.15,95.86L304.62,93.27L313.08,99.06L330,93.8L338.46,97.14L346.92,95.15L355.38,92.26L363.85,93.75L372.31,96.58L380.77,101.09L389.23,107.6L397.69,115.23L406.15,125.25L414.62,128.22L423.08,137.94L440,143.72" style="vector-effect: non-scaling-stroke; fill: none; stroke: rgb(0, 0, 0); stroke-opacity: 1; stroke-width: 0.5px; opacity: 1;"/></g><g class="points"/><g class="text"/></g><g class="trace scatter tracef19203" style="stroke-miterlimit: 2;"><g class="fills"><g><path class="js-fill" d="M0,126.49L8.46,127.75L16.92,122.95L25.38,122.38L33.85,111.17L42.31,101.53L50.77,93.77L59.23,83.63L67.69,71.87L76.15,70.73L84.62,63.16L93.08,55.52L101.54,57.51L118.46,64.16L126.92,64.53L135.38,60.24L143.85,73.67L152.31,69.18L160.77,68.69L169.23,74.74L177.69,73.51L186.15,80.79L194.62,84.12L203.08,84.81L211.54,82.79L220,82.16L228.46,84.29L245.38,82.85L253.85,84.29L262.31,82.28L270.77,84.7L279.23,83.91L287.69,84.97L296.15,83.92L304.62,85.1L313.08,86.49L321.54,83.93L330,77.02L338.46,79.42L346.92,79.63L355.38,82.67L363.85,84.9L372.31,90.55L380.77,95.68L389.23,98.34L397.69,104.03L406.15,112.86L414.62,115.73L423.08,120.99L431.54,124.6L440,119.74L440,133.03L431.54,134.2L423.08,127.22L414.62,123.62L406.15,119.5L397.69,108.91L389.23,104.05L380.77,97.38L372.31,93.09L363.85,90.14L355.38,84.87L346.92,87.48L338.46,89.5L330,90.69L321.54,89.64L313.08,90.75L304.62,90.51L296.15,92.12L287.69,90.5L279.23,90.41L270.77,91.25L262.31,89.92L253.85,91.43L245.38,87.95L236.92,91.66L228.46,89.33L220,89.72L211.54,91.44L203.08,88.73L194.62,89.12L186.15,84.41L177.69,84.34L169.23,81.46L160.77,81.1L152.31,77.59L143.85,83.01L135.38,79.27L126.92,76.62L118.46,71.58L110,76.88L101.54,70.68L93.08,62.96L84.62,68.21L76.15,79.12L67.69,79.76L59.23,90.15L50.77,100.24L42.31,106.37L33.85,118.18L16.92,130.19L8.46,138.58L0,134.08Z" style="fill: rgb(255, 255, 191); fill-opacity: 1; stroke-width: 0;"/></g></g><g class="errorbars"/><g class="lines"><path class="js-line" d="M0,134.08L8.46,138.58L16.92,130.19L33.85,118.18L42.31,106.37L50.77,100.24L59.23,90.15L67.69,79.76L76.15,79.12L84.62,68.21L93.08,62.96L101.54,70.68L110,76.88L118.46,71.58L126.92,76.62L135.38,79.27L143.85,83.01L152.31,77.59L160.77,81.1L169.23,81.46L177.69,84.34L186.15,84.41L194.62,89.12L203.08,88.73L211.54,91.44L220,89.72L228.46,89.33L236.92,91.66L245.38,87.95L253.85,91.43L262.31,89.92L270.77,91.25L279.23,90.41L287.69,90.5L296.15,92.12L304.62,90.51L313.08,90.75L321.54,89.64L330,90.69L338.46,89.5L346.92,87.48L355.38,84.87L363.85,90.14L372.31,93.09L380.77,97.38L389.23,104.05L397.69,108.91L406.15,119.5L414.62,123.62L423.08,127.22L431.54,134.2L440,133.03" style="vector-effect: non-scaling-stroke; fill: none; stroke: rgb(0, 0, 0); stroke-opacity: 1; stroke-width: 1px; opacity: 1;"/></g><g class="points"/><g class="text"/></g><g class="trace scatter trace8838aa" style="stroke-miterlimit: 2;"><g class="fills"><g><path class="js-fill" d="M0,112.43L8.46,113.66L16.92,112.13L25.38,113.17L33.85,107.2L42.31,86.17L50.77,85.4L59.23,74.55L67.69,62.24L76.15,55.77L84.62,48.06L93.08,50.28L101.54,45.61L110,41.85L118.46,51.18L126.92,52.93L135.38,29.35L143.85,64.52L152.31,57.16L160.77,51.28L169.23,60.7L177.69,61.24L186.15,74.78L194.62,74.37L203.08,76.7L211.54,62.73L220,68.81L228.46,76.66L236.92,66.52L245.38,71.5L253.85,71.76L262.31,67.52L270.77,73.04L287.69,72.22L296.15,67.2L304.62,74.34L313.08,70.54L321.54,70.37L330,68.14L338.46,60.52L346.92,63.86L355.38,76.71L363.85,75.43L372.31,82.91L380.77,92.12L389.23,93.45L397.69,91.47L406.15,98.07L414.62,109.22L423.08,113.3L431.54,115.66L440,111.33L440,119.74L431.54,124.6L423.08,120.99L414.62,115.73L406.15,112.86L397.69,104.03L389.23,98.34L380.77,95.68L372.31,90.55L363.85,84.9L355.38,82.67L346.92,79.63L338.46,79.42L330,77.02L321.54,83.93L313.08,86.49L304.62,85.1L296.15,83.92L287.69,84.97L279.23,83.91L270.77,84.7L262.31,82.28L253.85,84.29L245.38,82.85L228.46,84.29L220,82.16L211.54,82.79L203.08,84.81L194.62,84.12L186.15,80.79L177.69,73.51L169.23,74.74L160.77,68.69L152.31,69.18L143.85,73.67L135.38,60.24L126.92,64.53L118.46,64.16L101.54,57.51L93.08,55.52L84.62,63.16L76.15,70.73L67.69,71.87L59.23,83.63L50.77,93.77L42.31,101.53L33.85,111.17L25.38,122.38L16.92,122.95L8.46,127.75L0,126.49Z" style="fill: rgb(252, 141, 89); fill-opacity: 1; stroke-width: 0;"/></g></g><g class="errorbars"/><g class="lines"><path class="js-line" d="M0,126.49L8.46,127.75L16.92,122.95L25.38,122.38L33.85,111.17L42.31,101.53L50.77,93.77L59.23,83.63L67.69,71.87L76.15,70.73L84.62,63.16L93.08,55.52L101.54,57.51L118.46,64.16L126.92,64.53L135.38,60.24L143.85,73.67L152.31,69.18L160.77,68.69L169.23,74.74L177.69,73.51L186.15,80.79L194.62,84.12L203.08,84.81L211.54,82.79L220,82.16L228.46,84.29L245.38,82.85L253.85,84.29L262.31,82.28L270.77,84.7L279.23,83.91L287.69,84.97L296.15,83.92L304.62,85.1L313.08,86.49L321.54,83.93L330,77.02L338.46,79.42L346.92,79.63L355.38,82.67L363.85,84.9L372.31,90.55L380.77,95.68L389.23,98.34L397.69,104.03L406.15,112.86L414.62,115.73L423.08,120.99L431.54,124.6L440,119.74" style="vector-effect: non-scaling-stroke; fill: none; stroke: rgb(0, 0, 0); stroke-opacity: 1; stroke-width: 0.5px; opacity: 1;"/></g><g class="points"/><g class="text"/></g><g class="trace scatter trace2b8fa2" style="stroke-miterlimit: 2;"><g class="fills"/><g class="errorbars"/><g class="lines"><path class="js-line" d="M0,112.43L8.46,113.66L16.92,112.13L25.38,113.17L33.85,107.2L42.31,86.17L50.77,85.4L59.23,74.55L67.69,62.24L76.15,55.77L84.62,48.06L93.08,50.28L101.54,45.61L110,41.85L118.46,51.18L126.92,52.93L135.38,29.35L143.85,64.52L152.31,57.16L160.77,51.28L169.23,60.7L177.69,61.24L186.15,74.78L194.62,74.37L203.08,76.7L211.54,62.73L220,68.81L228.46,76.66L236.92,66.52L245.38,71.5L253.85,71.76L262.31,67.52L270.77,73.04L287.69,72.22L296.15,67.2L304.62,74.34L313.08,70.54L321.54,70.37L330,68.14L338.46,60.52L346.92,63.86L355.38,76.71L363.85,75.43L372.31,82.91L380.77,92.12L389.23,93.45L397.69,91.47L406.15,98.07L414.62,109.22L423.08,113.3L431.54,115.66L440,111.33" style="vector-effect: non-scaling-stroke; fill: none; stroke: rgb(0, 0, 0); stroke-opacity: 1; stroke-width: 0.25px; opacity: 1;"/></g><g class="points"/><g class="text"/></g><g class="trace scatter trace6c3357" style="stroke-miterlimit: 2; opacity: 1;"><g class="fills"/><g class="errorbars"/><g class="lines"/><g class="points"><path class="point" transform="translate(160.77,68.2)" d="M4,0A4,4 0 1,1 0,-4A4,4 0 0,1 4,0ZM0,0.5L0.5,0L0,-0.5L-0.5,0Z" style="opacity: 1; stroke: rgb(0, 0, 0); stroke-opacity: 1; stroke-width: 1px; fill: none;"/><path class="point" transform="translate(169.23,80.6)" d="M4,0A4,4 0 1,1 0,-4A4,4 0 0,1 4,0ZM0,0.5L0.5,0L0,-0.5L-0.5,0Z" style="opacity: 1; stroke: rgb(0, 0, 0); stroke-opacity: 1; stroke-width: 1px; fill: none;"/><path class="point" transform="translate(177.69,80.6)" d="M4,0A4,4 0 1,1 0,-4A4,4 0 0,1 4,0ZM0,0.5L0.5,0L0,-0.5L-0.5,0Z" style="opacity: 1; stroke: rgb(0, 0, 0); stroke-opacity: 1; stroke-width: 1px; fill: none;"/><path class="point" transform="translate(186.15,80.6)" d="M4,0A4,4 0 1,1 0,-4A4,4 0 0,1 4,0ZM0,0.5L0.5,0L0,-0.5L-0.5,0Z" style="opacity: 1; stroke: rgb(0, 0, 0); stroke-opacity: 1; stroke-width: 1px; fill: none;"/></g><g class="text"/></g></g></g><g class="overplot"/><path class="xlines-above crisp" d="M0,0" style="fill: none;"/><path class="ylines-above crisp" d="M0,0" style="fill: none;"/><g class="overlines-above"/><g class="xaxislayer-above"/><g class="yaxislayer-above"><g class="y2tick"><text text-anchor="end" x="79" y="4.199999999999999" transform="translate(0,472.00000000000006)" style="font-family: 'Open Sans', verdana, arial, sans-serif; font-size: 12px; fill: rgb(42, 63, 95); fill-opacity: 1; white-space: pre; opacity: 1;">20</text></g><g class="y2tick"><text text-anchor="end" x="79" y="4.199999999999999" style="font-family: 'Open Sans', verdana, arial, sans-serif; font-size: 12px; fill: rgb(42, 63, 95); fill-opacity: 1; white-space: pre; opacity: 1;" transform="translate(0,410.00000000000006)">30</text></g><g class="y2tick"><text text-anchor="end" x="79" y="4.199999999999999" style="font-family: 'Open Sans', verdana, arial, sans-serif; font-size: 12px; fill: rgb(42, 63, 95); fill-opacity: 1; white-space: pre; opacity: 1;" transform="translate(0,348.00000000000006)">40</text></g></g><g class="overaxes-above"/></g><g class="subplot x3y3"><g class="layer-subplot"><g class="shapelayer"/><g class="imagelayer"/></g><g class="minor-gridlayer"><g class="x3"/><g class="y3"/></g><g class="gridlayer"><g class="x3"><path class="x3grid crisp" transform="translate(156.15,0)" d="M0,534v186" style="stroke: rgb(255, 255, 255); stroke-opacity: 1; stroke-width: 1px;"/><path class="x3grid crisp" transform="translate(240.77,0)" d="M0,534v186" style="stroke: rgb(255, 255, 255); stroke-opacity: 1; stroke-width: 1px;"/><path class="x3grid crisp" transform="translate(325.38,0)" d="M0,534v186" style="stroke: rgb(255, 255, 255); stroke-opacity: 1; stroke-width: 1px;"/><path class="x3grid crisp" transform="translate(410,0)" d="M0,534v186" style="stroke: rgb(255, 255, 255); stroke-opacity: 1; stroke-width: 1px;"/><path class="x3grid crisp" transform="translate(494.62,0)" d="M0,534v186" style="stroke: rgb(255, 255, 255); stroke-opacity: 1; stroke-width: 1px;"/></g><g class="y3"><path class="y3grid crisp" transform="translate(0,682.8)" d="M80,0h440" style="stroke: rgb(255, 255, 255); stroke-opacity: 1; stroke-width: 1px;"/><path class="y3grid crisp" transform="translate(0,645.6)" d="M80,0h440" style="stroke: rgb(255, 255, 255); stroke-opacity: 1; stroke-width: 1px;"/><path class="y3grid crisp" transform="translate(0,608.4)" d="M80,0h440" style="stroke: rgb(255, 255, 255); stroke-opacity: 1; stroke-width: 1px;"/><path class="y3grid crisp" transform="translate(0,571.2)" d="M80,0h440" style="stroke: rgb(255, 255, 255); stroke-opacity: 1; stroke-width: 1px;"/></g></g><g class="zerolinelayer"/><path class="xlines-below"/><path class="ylines-below"/><g class="overlines-below"/><g class="xaxislayer-below"/><g class="yaxislayer-below"/><g class="overaxes-below"/><g class="plot" transform="translate(80,534)" clip-path="url(#clip414303x3y3plot)"><g class="scatterlayer mlayer"><g class="trace scatter trace08ee55" style="stroke-miterlimit: 2;"><g class="fills"><g><path class="js-fill" d="M0,119.91L8.46,125.92L16.92,119.57L25.38,122.35L33.85,116.52L42.31,103.8L50.77,96.92L59.23,93.15L67.69,79.6L76.15,77.36L84.62,67.21L93.08,62.86L101.54,59.86L110,59.12L118.46,57.52L126.92,52.55L135.38,53.49L143.85,51.38L152.31,45.3L160.77,42.24L169.23,40.21L186.15,38.74L194.62,37.69L211.54,37.14L220,36.74L236.92,38.47L245.38,38.63L253.85,39.05L262.31,38.27L270.77,37.93L279.23,39.25L287.69,38.74L296.15,40.08L321.54,41.38L330,43L338.46,45.74L346.92,49.74L355.38,48.86L363.85,57.96L372.31,63.76L380.77,71.62L389.23,81.66L397.69,93.6L406.15,98.31L414.62,104.24L423.08,112.91L431.54,117.06L440,123.8L440,131.26L431.54,124.51L423.08,120.74L414.62,119.4L406.15,115.39L397.69,100.48L389.23,87.86L372.31,71.85L363.85,63L355.38,52.14L346.92,55.51L338.46,50.25L330,46.91L321.54,45.55L313.08,46.13L296.15,41.88L287.69,40.97L279.23,42.38L270.77,40.07L253.85,44.35L245.38,42.48L228.46,39.5L220,40.43L211.54,39.21L203.08,41.42L186.15,43.28L177.69,47.8L169.23,44.33L160.77,47.82L152.31,50.22L143.85,56.5L135.38,59.91L126.92,64.22L118.46,64.97L110,69.69L101.54,67.87L93.08,72.21L84.62,86.63L76.15,87.79L67.69,98.77L59.23,106.69L50.77,109.76L42.31,119.46L33.85,125.01L25.38,127.81L16.92,126.17L8.46,138.04L0,125.86Z" style="fill: rgb(90, 180, 172); fill-opacity: 1; stroke-width: 0;"/></g></g><g class="errorbars"/><g class="lines"><path class="js-line" d="M0,125.86L8.46,138.04L16.92,126.17L25.38,127.81L33.85,125.01L42.31,119.46L50.77,109.76L59.23,106.69L67.69,98.77L76.15,87.79L84.62,86.63L93.08,72.21L101.54,67.87L110,69.69L118.46,64.97L126.92,64.22L135.38,59.91L143.85,56.5L152.31,50.22L160.77,47.82L169.23,44.33L177.69,47.8L186.15,43.28L203.08,41.42L211.54,39.21L220,40.43L228.46,39.5L245.38,42.48L253.85,44.35L270.77,40.07L279.23,42.38L287.69,40.97L296.15,41.88L313.08,46.13L321.54,45.55L330,46.91L338.46,50.25L346.92,55.51L355.38,52.14L363.85,63L372.31,71.85L389.23,87.86L397.69,100.48L406.15,115.39L414.62,119.4L423.08,120.74L431.54,124.51L440,131.26" style="vector-effect: non-scaling-stroke; fill: none; stroke: rgb(0, 0, 0); stroke-opacity: 1; stroke-width: 0.25px; opacity: 1;"/></g><g class="points"/><g class="text"/></g><g class="trace scatter trace0419d3" style="stroke-miterlimit: 2;"><g class="fills"><g><path class="js-fill" d="M0,113.83L8.46,119.15L16.92,114.08L25.38,109.14L33.85,109.5L42.31,98.38L50.77,91.35L67.69,73.32L76.15,72.09L84.62,61.55L93.08,55.33L110,54.77L118.46,52.84L126.92,47.44L135.38,50L143.85,48.69L152.31,43.51L160.77,40.08L169.23,39.31L177.69,37.36L186.15,36.19L194.62,36.64L203.08,35.77L228.46,35.56L236.92,36.72L253.85,37.9L262.31,34.55L270.77,36.59L279.23,37.12L287.69,37.09L296.15,38.72L313.08,39.59L321.54,39.34L330,40.62L338.46,42.96L346.92,44.68L355.38,47.96L363.85,55.92L372.31,59.59L380.77,66.13L389.23,74.53L397.69,84.77L406.15,90.14L414.62,98.04L423.08,104.36L431.54,112.15L440,118.91L440,123.8L431.54,117.06L423.08,112.91L414.62,104.24L406.15,98.31L397.69,93.6L389.23,81.66L380.77,71.62L372.31,63.76L363.85,57.96L355.38,48.86L346.92,49.74L338.46,45.74L330,43L321.54,41.38L296.15,40.08L287.69,38.74L279.23,39.25L270.77,37.93L262.31,38.27L253.85,39.05L245.38,38.63L236.92,38.47L220,36.74L211.54,37.14L194.62,37.69L186.15,38.74L169.23,40.21L160.77,42.24L152.31,45.3L143.85,51.38L135.38,53.49L126.92,52.55L118.46,57.52L110,59.12L101.54,59.86L93.08,62.86L84.62,67.21L76.15,77.36L67.69,79.6L59.23,93.15L50.77,96.92L42.31,103.8L33.85,116.52L25.38,122.35L16.92,119.57L8.46,125.92L0,119.91Z" style="fill: rgb(245, 245, 245); fill-opacity: 1; stroke-width: 0;"/></g></g><g class="errorbars"/><g class="lines"><path class="js-line" d="M0,119.91L8.46,125.92L16.92,119.57L25.38,122.35L33.85,116.52L42.31,103.8L50.77,96.92L59.23,93.15L67.69,79.6L76.15,77.36L84.62,67.21L93.08,62.86L101.54,59.86L110,59.12L118.46,57.52L126.92,52.55L135.38,53.49L143.85,51.38L152.31,45.3L160.77,42.24L169.23,40.21L186.15,38.74L194.62,37.69L211.54,37.14L220,36.74L236.92,38.47L245.38,38.63L253.85,39.05L262.31,38.27L270.77,37.93L279.23,39.25L287.69,38.74L296.15,40.08L321.54,41.38L330,43L338.46,45.74L346.92,49.74L355.38,48.86L363.85,57.96L372.31,63.76L380.77,71.62L389.23,81.66L397.69,93.6L406.15,98.31L414.62,104.24L423.08,112.91L431.54,117.06L440,123.8" style="vector-effect: non-scaling-stroke; fill: none; stroke: rgb(0, 0, 0); stroke-opacity: 1; stroke-width: 0.5px; opacity: 1;"/></g><g class="points"/><g class="text"/></g><g class="trace scatter trace7bbc2e" style="stroke-miterlimit: 2;"><g class="fills"><g><path class="js-fill" d="M0,105.58L8.46,111.55L16.92,108.72L25.38,105.04L33.85,99.08L42.31,89.3L50.77,83.96L67.69,65.76L76.15,64.39L84.62,52.44L93.08,50.72L101.54,49.47L110,49.83L126.92,43.98L135.38,39.1L143.85,42.35L152.31,40.87L169.23,34.57L177.69,33.02L211.54,34.62L220,33.9L228.46,32.82L236.92,35.33L245.38,35.67L253.85,34.76L262.31,32.71L270.77,34.57L279.23,34.3L287.69,35.36L304.62,37.83L313.08,37.89L330,35.06L338.46,38L346.92,38.7L355.38,45.37L363.85,52.23L372.31,54.27L380.77,64.18L389.23,71.09L414.62,89.75L423.08,91.45L431.54,102.7L440,117.54L440,118.91L431.54,112.15L423.08,104.36L414.62,98.04L406.15,90.14L397.69,84.77L389.23,74.53L380.77,66.13L372.31,59.59L363.85,55.92L355.38,47.96L346.92,44.68L338.46,42.96L330,40.62L321.54,39.34L313.08,39.59L296.15,38.72L287.69,37.09L279.23,37.12L270.77,36.59L262.31,34.55L253.85,37.9L236.92,36.72L228.46,35.56L203.08,35.77L194.62,36.64L186.15,36.19L177.69,37.36L169.23,39.31L160.77,40.08L152.31,43.51L143.85,48.69L135.38,50L126.92,47.44L118.46,52.84L110,54.77L93.08,55.33L84.62,61.55L76.15,72.09L67.69,73.32L50.77,91.35L42.31,98.38L33.85,109.5L25.38,109.14L16.92,114.08L8.46,119.15L0,113.83Z" style="fill: rgb(245, 245, 245); fill-opacity: 1; stroke-width: 0;"/></g></g><g class="errorbars"/><g class="lines"><path class="js-line" d="M0,113.83L8.46,119.15L16.92,114.08L25.38,109.14L33.85,109.5L42.31,98.38L50.77,91.35L67.69,73.32L76.15,72.09L84.62,61.55L93.08,55.33L110,54.77L118.46,52.84L126.92,47.44L135.38,50L143.85,48.69L152.31,43.51L160.77,40.08L169.23,39.31L177.69,37.36L186.15,36.19L194.62,36.64L203.08,35.77L228.46,35.56L236.92,36.72L253.85,37.9L262.31,34.55L270.77,36.59L279.23,37.12L287.69,37.09L296.15,38.72L313.08,39.59L321.54,39.34L330,40.62L338.46,42.96L346.92,44.68L355.38,47.96L363.85,55.92L372.31,59.59L380.77,66.13L389.23,74.53L397.69,84.77L406.15,90.14L414.62,98.04L423.08,104.36L431.54,112.15L440,118.91" style="vector-effect: non-scaling-stroke; fill: none; stroke: rgb(0, 0, 0); stroke-opacity: 1; stroke-width: 1px; opacity: 1;"/></g><g class="points"/><g class="text"/></g><g class="trace scatter tracea6c28d" style="stroke-miterlimit: 2;"><g class="fills"><g><path class="js-fill" d="M0,102.14L8.46,102.74L16.92,101.42L25.38,94.05L33.85,90.86L50.77,67.21L59.23,65.54L67.69,53.75L76.15,47.72L84.62,46.27L93.08,41.49L101.54,41.9L110,40.89L118.46,40.1L126.92,35.96L135.38,20.45L143.85,38.63L152.31,37.82L160.77,34.06L169.23,27.78L177.69,28.33L186.15,29.81L194.62,28.95L203.08,32.55L211.54,30.94L220,31.15L228.46,27.47L236.92,33.53L245.38,32.85L253.85,32.85L262.31,31.44L270.77,32.74L279.23,28.72L287.69,33.91L296.15,34.41L304.62,36.59L313.08,36.8L321.54,33.8L330,25.46L338.46,34.48L346.92,25.13L355.38,42.23L363.85,47.44L372.31,44.39L380.77,57.23L389.23,62.29L397.69,69.1L406.15,72.13L414.62,76.5L423.08,82.77L431.54,94.29L440,117.28L440,117.54L431.54,102.7L423.08,91.45L414.62,89.75L389.23,71.09L380.77,64.18L372.31,54.27L363.85,52.23L355.38,45.37L346.92,38.7L338.46,38L330,35.06L313.08,37.89L304.62,37.83L287.69,35.36L279.23,34.3L270.77,34.57L262.31,32.71L253.85,34.76L245.38,35.67L236.92,35.33L228.46,32.82L220,33.9L211.54,34.62L177.69,33.02L169.23,34.57L152.31,40.87L143.85,42.35L135.38,39.1L126.92,43.98L110,49.83L101.54,49.47L93.08,50.72L84.62,52.44L76.15,64.39L67.69,65.76L50.77,83.96L42.31,89.3L33.85,99.08L25.38,105.04L16.92,108.72L8.46,111.55L0,105.58Z" style="fill: rgb(216, 179, 101); fill-opacity: 1; stroke-width: 0;"/></g></g><g class="errorbars"/><g class="lines"><path class="js-line" d="M0,105.58L8.46,111.55L16.92,108.72L25.38,105.04L33.85,99.08L42.31,89.3L50.77,83.96L67.69,65.76L76.15,64.39L84.62,52.44L93.08,50.72L101.54,49.47L110,49.83L126.92,43.98L135.38,39.1L143.85,42.35L152.31,40.87L169.23,34.57L177.69,33.02L211.54,34.62L220,33.9L228.46,32.82L236.92,35.33L245.38,35.67L253.85,34.76L262.31,32.71L270.77,34.57L279.23,34.3L287.69,35.36L304.62,37.83L313.08,37.89L330,35.06L338.46,38L346.92,38.7L355.38,45.37L363.85,52.23L372.31,54.27L380.77,64.18L389.23,71.09L414.62,89.75L423.08,91.45L431.54,102.7L440,117.54" style="vector-effect: non-scaling-stroke; fill: none; stroke: rgb(0, 0, 0); stroke-opacity: 1; stroke-width: 0.5px; opacity: 1;"/></g><g class="points"/><g class="text"/></g><g class="trace scatter trace611c08" style="stroke-miterlimit: 2;"><g class="fills"/><g class="errorbars"/><g class="lines"><path class="js-line" d="M0,102.14L8.46,102.74L16.92,101.42L25.38,94.05L33.85,90.86L50.77,67.21L59.23,65.54L67.69,53.75L76.15,47.72L84.62,46.27L93.08,41.49L101.54,41.9L110,40.89L118.46,40.1L126.92,35.96L135.38,20.45L143.85,38.63L152.31,37.82L160.77,34.06L169.23,27.78L177.69,28.33L186.15,29.81L194.62,28.95L203.08,32.55L211.54,30.94L220,31.15L228.46,27.47L236.92,33.53L245.38,32.85L253.85,32.85L262.31,31.44L270.77,32.74L279.23,28.72L287.69,33.91L296.15,34.41L304.62,36.59L313.08,36.8L321.54,33.8L330,25.46L338.46,34.48L346.92,25.13L355.38,42.23L363.85,47.44L372.31,44.39L380.77,57.23L389.23,62.29L397.69,69.1L406.15,72.13L414.62,76.5L423.08,82.77L431.54,94.29L440,117.28" style="vector-effect: non-scaling-stroke; fill: none; stroke: rgb(0, 0, 0); stroke-opacity: 1; stroke-width: 0.25px; opacity: 1;"/></g><g class="points"/><g class="text"/></g><g class="trace scatter tracefc3613" style="stroke-miterlimit: 2; opacity: 1;"><g class="fills"/><g class="errorbars"/><g class="lines"/><g class="points"><path class="point" transform="translate(160.77,52.08)" d="M4,0A4,4 0 1,1 0,-4A4,4 0 0,1 4,0ZM0,0.5L0.5,0L0,-0.5L-0.5,0Z" style="opacity: 1; stroke: rgb(0, 0, 0); stroke-opacity: 1; stroke-width: 1px; fill: none;"/><path class="point" transform="translate(169.23,37.2)" d="M4,0A4,4 0 1,1 0,-4A4,4 0 0,1 4,0ZM0,0.5L0.5,0L0,-0.5L-0.5,0Z" style="opacity: 1; stroke: rgb(0, 0, 0); stroke-opacity: 1; stroke-width: 1px; fill: none;"/><path class="point" transform="translate(177.69,37.2)" d="M4,0A4,4 0 1,1 0,-4A4,4 0 0,1 4,0ZM0,0.5L0.5,0L0,-0.5L-0.5,0Z" style="opacity: 1; stroke: rgb(0, 0, 0); stroke-opacity: 1; stroke-width: 1px; fill: none;"/><path class="point" transform="translate(186.15,37.2)" d="M4,0A4,4 0 1,1 0,-4A4,4 0 0,1 4,0ZM0,0.5L0.5,0L0,-0.5L-0.5,0Z" style="opacity: 1; stroke: rgb(0, 0, 0); stroke-opacity: 1; stroke-width: 1px; fill: none;"/></g><g class="text"/></g></g></g><g class="overplot"/><path class="xlines-above crisp" d="M0,0" style="fill: none;"/><path class="ylines-above crisp" d="M0,0" style="fill: none;"/><g class="overlines-above"/><g class="xaxislayer-above"><g class="x3tick"><text text-anchor="middle" x="0" y="733" transform="translate(156.15,0)" style="font-family: 'Open Sans', verdana, arial, sans-serif; font-size: 12px; fill: rgb(42, 63, 95); fill-opacity: 1; white-space: pre; opacity: 1;">10</text></g><g class="x3tick"><text text-anchor="middle" x="0" y="733" style="font-family: 'Open Sans', verdana, arial, sans-serif; font-size: 12px; fill: rgb(42, 63, 95); fill-opacity: 1; white-space: pre; opacity: 1;" transform="translate(240.77,0)">20</text></g><g class="x3tick"><text text-anchor="middle" x="0" y="733" style="font-family: 'Open Sans', verdana, arial, sans-serif; font-size: 12px; fill: rgb(42, 63, 95); fill-opacity: 1; white-space: pre; opacity: 1;" transform="translate(325.38,0)">30</text></g><g class="x3tick"><text text-anchor="middle" x="0" y="733" style="font-family: 'Open Sans', verdana, arial, sans-serif; font-size: 12px; fill: rgb(42, 63, 95); fill-opacity: 1; white-space: pre; opacity: 1;" transform="translate(410,0)">40</text></g><g class="x3tick"><text text-anchor="middle" x="0" y="733" style="font-family: 'Open Sans', verdana, arial, sans-serif; font-size: 12px; fill: rgb(42, 63, 95); fill-opacity: 1; white-space: pre; opacity: 1;" transform="translate(494.62,0)">50</text></g></g><g class="yaxislayer-above"><g class="y3tick"><text text-anchor="end" x="79" y="4.199999999999999" transform="translate(0,720)" style="font-family: 'Open Sans', verdana, arial, sans-serif; font-size: 12px; fill: rgb(42, 63, 95); fill-opacity: 1; white-space: pre; opacity: 1;">5</text></g><g class="y3tick"><text text-anchor="end" x="79" y="4.199999999999999" style="font-family: 'Open Sans', verdana, arial, sans-serif; font-size: 12px; fill: rgb(42, 63, 95); fill-opacity: 1; white-space: pre; opacity: 1;" transform="translate(0,682.8)">10</text></g><g class="y3tick"><text text-anchor="end" x="79" y="4.199999999999999" style="font-family: 'Open Sans', verdana, arial, sans-serif; font-size: 12px; fill: rgb(42, 63, 95); fill-opacity: 1; white-space: pre; opacity: 1;" transform="translate(0,645.6)">15</text></g><g class="y3tick"><text text-anchor="end" x="79" y="4.199999999999999" style="font-family: 'Open Sans', verdana, arial, sans-serif; font-size: 12px; fill: rgb(42, 63, 95); fill-opacity: 1; white-space: pre; opacity: 1;" transform="translate(0,608.4)">20</text></g><g class="y3tick"><text text-anchor="end" x="79" y="4.199999999999999" style="font-family: 'Open Sans', verdana, arial, sans-serif; font-size: 12px; fill: rgb(42, 63, 95); fill-opacity: 1; white-space: pre; opacity: 1;" transform="translate(0,571.2)">25</text></g><g class="y3tick"><text text-anchor="end" x="79" y="4.199999999999999" style="font-family: 'Open Sans', verdana, arial, sans-serif; font-size: 12px; fill: rgb(42, 63, 95); fill-opacity: 1; white-space: pre; opacity: 1;" transform="translate(0,534)">30</text></g></g><g class="overaxes-above"/></g></g><g class="polarlayer"/><g class="smithlayer"/><g class="ternarylayer"/><g class="geolayer"/><g class="funnelarealayer"/><g class="pielayer"/><g class="iciclelayer"/><g class="treemaplayer"/><g class="sunburstlayer"/><g class="glimages"/><defs id="topdefs-414303"><g class="clips"/></defs><g class="layer-above"><g class="imagelayer"/><g class="shapelayer"/></g><g class="infolayer"><g class="g-gtitle"><text class="gtitle" x="30" y="50" text-anchor="start" dy="0em" style="font-family: 'Open Sans', verdana, arial, sans-serif; font-size: 17px; fill: rgb(42, 63, 95); opacity: 1; font-weight: normal; white-space: pre;">Climatology and S2S forecast for Narayanganj</text></g><g class="g-xtitle"/><g class="g-x2title"/><g class="g-x3title"/><g class="g-ytitle"><text class="ytitle" transform="rotate(-90,34.16875,193)" x="34.16875" y="193" text-anchor="middle" style="font-family: 'Open Sans', verdana, arial, sans-serif; font-size: 14px; fill: rgb(42, 63, 95); opacity: 1; font-weight: normal; white-space: pre;">[mm]</text></g><g class="g-y2title"><text class="y2title" transform="rotate(-90,40.840625,410.00000000000006)" x="40.840625" y="410.00000000000006" text-anchor="middle" style="font-family: 'Open Sans', verdana, arial, sans-serif; font-size: 14px; fill: rgb(42, 63, 95); opacity: 1; font-weight: normal; white-space: pre;">[C]</text></g><g class="g-y3title"><text class="y3title" transform="rotate(-90,40.840625,627)" x="40.840625" y="627" text-anchor="middle" style="font-family: 'Open Sans', verdana, arial, sans-serif; font-size: 14px; fill: rgb(42, 63, 95); opacity: 1; font-weight: normal; white-space: pre;">[C]</text></g><g class="annotation" data-index="0" style="opacity: 1;"><g class="annotation-text-g" transform="rotate(0,300,89.5)"><g class="cursor-pointer" transform="translate(237,79)"><rect class="bg" x="0.5" y="0.5" width="126" height="20" style="stroke-width: 1px; stroke: rgb(0, 0, 0); stroke-opacity: 0; fill: rgb(0, 0, 0); fill-opacity: 0;"/><text class="annotation-text" text-anchor="middle" x="63.359375" y="16" style="font-family: 'Open Sans', verdana, arial, sans-serif; font-size: 16px; fill: rgb(42, 63, 95); fill-opacity: 1; white-space: pre;">Precipitation sum</text></g></g></g><g class="annotation" data-index="1" style="opacity: 1;"><g class="annotation-text-g" transform="rotate(0,300,306.50000000000006)"><g class="cursor-pointer" transform="translate(196,296)"><rect class="bg" x="0.5" y="0.5" width="208" height="20" style="stroke-width: 1px; stroke: rgb(0, 0, 0); stroke-opacity: 0; fill: rgb(0, 0, 0); fill-opacity: 0;"/><text class="annotation-text" text-anchor="middle" x="104.265625" y="16" style="font-family: 'Open Sans', verdana, arial, sans-serif; font-size: 16px; fill: rgb(42, 63, 95); fill-opacity: 1; white-space: pre;">Mean maximum temperature</text></g></g></g><g class="annotation" data-index="2" style="opacity: 1;"><g class="annotation-text-g" transform="rotate(0,300,523.5)"><g class="cursor-pointer" transform="translate(198,513)"><rect class="bg" x="0.5" y="0.5" width="203" height="20" style="stroke-width: 1px; stroke: rgb(0, 0, 0); stroke-opacity: 0; fill: rgb(0, 0, 0); fill-opacity: 0;"/><text class="annotation-text" text-anchor="middle" x="102.046875" y="16" style="font-family: 'Open Sans', verdana, arial, sans-serif; font-size: 16px; fill: rgb(42, 63, 95); fill-opacity: 1; white-space: pre;">Mean minimum temperature</text></g></g></g><g class="annotation" data-index="3" style="opacity: 1;"><g class="annotation-text-g" transform="rotate(0,300,760.5)"><g class="cursor-pointer" transform="translate(277,750)"><rect class="bg" x="0.5" y="0.5" width="45" height="20" style="stroke-width: 1px; stroke: rgb(0, 0, 0); stroke-opacity: 0; fill: rgb(0, 0, 0); fill-opacity: 0;"/><text class="annotation-text" text-anchor="middle" x="22.3125" y="16" style="font-family: 'Open Sans', verdana, arial, sans-serif; font-size: 16px; fill: rgb(42, 63, 95); fill-opacity: 1; white-space: pre;">Week</text></g></g></g></g></svg>