<svg class="main-svg" xmlns="http://www.w3.org/2000/svg" xmlns:xlink="http://www.w3.org/1999/xlink" width="600" height="800" style="" viewBox="0 0 600 800"><rect x="0" y="0" width="600" height="800" style="fill: rgb(255, 255, 255); fill-opacity: 1;"/><defs id="defs-39a0a7"><g class="clips"><clipPath id="clip39a0a7xyplot" class="plotclip"><rect width="440" height="186.00000000000003"/></clipPath><clipPath id="clip39a0a7x2y2plot" class="plotclip"><rect width="440" height="185.99999999999997"/></clipPath><clipPath id="clip39a0a7x3y3plot" class="plotclip"><rect width="440" height="186"/></clipPath><clipPath class="axesclip" id="clip39a0a7x"><rect x="80" y="0" width="440" height="800"/></clipPath><clipPath class="axesclip" id="clip39a0a7y"><rect x="0" y="100" width="600" height="186.00000000000003"/></clipPath><clipPath class="axesclip" id="clip39a0a7xy"><rect x="80" y="100" width="440" height="186.00000000000003"/></clipPath><clipPath class="axesclip" id="clip39a0a7y2"><rect x="0" y="317.00000000000006" width="600" height="185.99999999999997"/></clipPath><clipPath class="axesclip" id="clip39a0a7xy2"><rect x="80" y="317.00000000000006" width="440" height="185.99999999999997"/></clipPath><clipPath class="axesclip" id="clip39a0a7y3"><rect x="0" y="534" width="600" height="186"/></clipPath><clipPath class="axesclip" id="clip39a0a7xy3"><rect x="80" y="534" width="440" height="186"/></clipPath><clipPath class="axesclip" id="clip39a0a7x2"><rect x="80" y="0" width="440" height="800"/></clipPath><clipPath class="axesclip" id="clip39a0a7x2y"><rect x="80" y="100" width="440" height="186.00000000000003"/></clipPath><clipPath class="axesclip" id="clip39a0a7x2y2"><rect x="80" y="317.00000000000006" width="440" height="185.99999999999997"/></clipPath><clipPath class="axesclip" id="clip39a0a7x2y3"><rect x="80" y="534" width="440" height="186"/></clipPath><clipPath class="axesclip" id="clip39a0a7x3"><rect x="80" y="0" width="440" height="800"/></clipPath><clipPath class="axesclip" id="clip39a0a7x3y"><rect x="80" y="100" width="440" height="186.00000000000003"/></clipPath><clipPath class="axesclip" id="clip39a0a7x3y2"><rect x="80" y="317.00000000000006" width="440" height="185.99999999999997"/></clipPath><clipPath class="axesclip" id="clip39a0a7x3y3"><rect x="80" y="534" width="440" height="186"/></clipPath></g><g class="gradients"/><g class="patterns"/></defs><g class="bglayer"><rect class="bg" x="80" y="100" width="440" height="186.00000000000003" style="fill: rgb(229, 236, 246); fill-opacity: 1; stroke-width: 0;"/><rect class="bg" x="80" y="317.00000000000006" width="440" height="185.99999999999997" style="fill: rgb(229, 236, 246); fill-opacity: 1; stroke-width: 0;"/><rect class="bg" x="80" y="534" width="440" height="186" style="fill: rgb(229, 236, 246); fill-opacity: 1; stroke-width: 0;"/></g><g class="layer-below"><g class="imagelayer"/><g class="shapelayer"/></g><g class="cartesianlayer"><g class="subplot xy"><g class="layer-subplot"><g class="shapelayer"/><g class="imagelayer"/></g><g class="minor-gridlayer"><g class="x"/><g class="y"/></g><g class="gridlayer"><g class="x"><path class="xgrid crisp" transform="translate(156.15,0)" d="M0,100v186.00000000000003" style="stroke: rgb(255, 255, 255); stroke-opacity: 1; stroke-width: 1px;"/><path class="xgrid crisp" transform="translate(240.77,0)" d="M0,100v186.00000000000003" style="stroke: rgb(255, 255, 255); stroke-opacity: 1; stroke-width: 1px;"/><path class="xgrid crisp" transform="translate(325.38,0)" d="M0,100v186.00000000000003" style="stroke: rgb(255, 255, 255); stroke-opacity: 1; stroke-width: 1px;"/><path class="xgrid crisp" transform="translate(410,0)" d="M0,100v186.00000000000003" style="stroke: rgb(255, 255, 255); stroke-opacity: 1; stroke-width: 1px;"/><path class="xgrid crisp" transform="translate(494.62,0)" d="M0,100v186.00000000000003" style="stroke: rgb(255, 255, 255); stroke-opacity: 1; stroke-width: 1px;"/></g><g class="y"><path class="ygrid crisp" transform="translate(0,248.8)" d="M80,0h440" style="stroke: rgb(255, 255, 255); stroke-opacity: 1; stroke-width: 1px;"/><path class="ygrid crisp" transform="translate(0,211.6)" d="M80,0h440" style="stroke: rgb(255, 255, 255); stroke-opacity: 1; stroke-width: 1px;"/><path class="ygrid crisp" transform="translate(0,174.4)" d="M80,0h440" style="stroke: rgb(255, 255, 255); stroke-opacity: 1; stroke-width: 1px;"/><path class="ygrid crisp" transform="translate(0,137.2)" d="M80,0h440" style="stroke: rgb(255, 255, 255); stroke-opacity: 1; stroke-width: 1px;"/></g></g><g class="zerolinelayer"><path class="yzl zl crisp" transform="translate(0,286)" d="M80,0h440" style="stroke: rgb(255, 255, 255); stroke-opacity: 1; stroke-width: 2px;"/></g><path class="xlines-below"/><path class="ylines-below"/><g class="overlines-below"/><g class="xaxislayer-below"/><g class="yaxislayer-below"/><g class="overaxes-below"/><g class="plot" transform="translate(80,100)" clip-path="url(#clip39a0a7xyplot)"><g class="scatterlayer mlayer"><g class="trace scatter traced366f3" style="stroke-miterlimit: 2;"><g class="fills"><g><path class="js-fill" d="M0,186L110,185.74L118.46,184.57L126.92,185.11L135.38,182.63L143.85,170.03L152.31,175.69L160.77,164.64L169.23,166.72L177.69,163.2L186.15,162.31L194.62,167.51L203.08,165.92L211.54,162.58L220,166.95L228.46,164.91L236.92,159.2L253.85,166.57L262.31,160.23L270.77,153.98L279.23,166.55L287.69,169.37L296.15,169.63L304.62,173.98L313.08,169.5L321.54,174.81L330,181.7L338.46,172.43L346.92,179.06L355.38,186L363.85,186L440,186L440,186L380.77,186L372.31,186L330,185.83L321.54,185.12L313.08,177.02L304.62,185.58L296.15,185.29L287.69,184.08L279.23,178.64L270.77,179.08L262.31,181.47L253.85,181.42L245.38,185.82L236.92,184.16L228.46,181.33L220,185.1L211.54,185.9L203.08,184.4L194.62,184.69L186.15,185.38L177.69,184.68L169.23,185.36L160.77,185.2L152.31,186L0,186Z" style="fill: rgb(224, 236, 244); fill-opacity: 1; stroke-width: 0;"/></g></g><g class="errorbars"/><g class="lines"><path class="js-line" d="M0,186L152.31,186L160.77,185.2L169.23,185.36L177.69,184.68L186.15,185.38L194.62,184.69L203.08,184.4L211.54,185.9L220,185.1L228.46,181.33L236.92,184.16L245.38,185.82L253.85,181.42L262.31,181.47L270.77,179.08L279.23,178.64L287.69,184.08L296.15,185.29L304.62,185.58L313.08,177.02L321.54,185.12L330,185.83L372.31,186L380.77,186L440,186" style="vector-effect: non-scaling-stroke; fill: none; stroke: rgb(0, 0, 0); stroke-opacity: 1; stroke-width: 0.25px; opacity: 1;"/></g><g class="points"/><g class="text"/></g><g class="trace scatter trace12a4e4" style="stroke-miterlimit: 2;"><g class="fills"><g><path class="js-fill" d="M0,186L93.08,185.53L101.54,181.91L110,174.4L118.46,177.73L126.92,177.26L135.38,175.51L143.85,156.55L152.31,157.64L160.77,147.9L169.23,148.62L177.69,154.36L186.15,143.5L194.62,147.32L203.08,144.6L211.54,139.72L220,149.19L228.46,140.22L236.92,142.84L245.38,148.5L253.85,149.88L262.31,143.48L270.77,145.9L279.23,152.04L287.69,164.62L296.15,160.13L304.62,159.9L313.08,150.6L321.54,157.73L330,159.88L338.46,167.4L346.92,170.69L355.38,185.87L389.23,186L397.69,186L440,186L440,186L363.85,186L355.38,186L346.92,179.06L338.46,172.43L330,181.7L321.54,174.81L313.08,169.5L304.62,173.98L296.15,169.63L287.69,169.37L279.23,166.55L270.77,153.98L262.31,160.23L253.85,166.57L236.92,159.2L228.46,164.91L220,166.95L211.54,162.58L203.08,165.92L194.62,167.51L186.15,162.31L177.69,163.2L169.23,166.72L160.77,164.64L152.31,175.69L143.85,170.03L135.38,182.63L126.92,185.11L118.46,184.57L110,185.74L0,186Z" style="fill: rgb(158, 188, 218); fill-opacity: 1; stroke-width: 0;"/></g></g><g class="errorbars"/><g class="lines"><path class="js-line" d="M0,186L110,185.74L118.46,184.57L126.92,185.11L135.38,182.63L143.85,170.03L152.31,175.69L160.77,164.64L169.23,166.72L177.69,163.2L186.15,162.31L194.62,167.51L203.08,165.92L211.54,162.58L220,166.95L228.46,164.91L236.92,159.2L253.85,166.57L262.31,160.23L270.77,153.98L279.23,166.55L287.69,169.37L296.15,169.63L304.62,173.98L313.08,169.5L321.54,174.81L330,181.7L338.46,172.43L346.92,179.06L355.38,186L363.85,186L440,186" style="vector-effect: non-scaling-stroke; fill: none; stroke: rgb(0, 0, 0); stroke-opacity: 1; stroke-width: 0.5px; opacity: 1;"/></g><g class="points"/><g class="text"/></g><g class="trace scatter tracec4e096" style="stroke-miterlimit: 2;"><g class="fills"><g><path class="js-fill" d="M0,186L42.31,185.68L50.77,184.88L59.23,183.94L67.69,181.21L76.15,181.5L84.62,184.2L93.08,180.98L101.54,171.21L110,161.26L118.46,164.89L126.92,159.9L135.38,165.18L143.85,143.75L152.31,141.88L160.77,132.39L169.23,139.36L177.69,121.01L186.15,116.6L194.62,109.35L203.08,122.14L211.54,77.68L220,133.95L228.46,111.75L236.92,106.42L245.38,117.13L253.85,109.77L262.31,133.94L270.77,120.77L279.23,135.76L287.69,153.03L296.15,148.72L304.62,147.68L313.08,141.23L321.54,140.29L330,144.49L338.46,150.36L346.92,150.53L355.38,155.91L363.85,177.01L372.31,182.61L380.77,185.81L389.23,186L440,186L440,186L397.69,186L389.23,186L355.38,185.87L346.92,170.69L338.46,167.4L330,159.88L321.54,157.73L313.08,150.6L304.62,159.9L296.15,160.13L287.69,164.62L279.23,152.04L270.77,145.9L262.31,143.48L253.85,149.88L245.38,148.5L236.92,142.84L228.46,140.22L220,149.19L211.54,139.72L203.08,144.6L194.62,147.32L186.15,143.5L177.69,154.36L169.23,148.62L160.77,147.9L152.31,157.64L143.85,156.55L135.38,175.51L126.92,177.26L118.46,177.73L110,174.4L101.54,181.91L93.08,185.53L0,186Z" style="fill: rgb(158, 188, 218); fill-opacity: 1; stroke-width: 0;"/></g></g><g class="errorbars"/><g class="lines"><path class="js-line" d="M0,186L93.08,185.53L101.54,181.91L110,174.4L118.46,177.73L126.92,177.26L135.38,175.51L143.85,156.55L152.31,157.64L160.77,147.9L169.23,148.62L177.69,154.36L186.15,143.5L194.62,147.32L203.08,144.6L211.54,139.72L220,149.19L228.46,140.22L236.92,142.84L245.38,148.5L253.85,149.88L262.31,143.48L270.77,145.9L279.23,152.04L287.69,164.62L296.15,160.13L304.62,159.9L313.08,150.6L321.54,157.73L330,159.88L338.46,167.4L346.92,170.69L355.38,185.87L389.23,186L397.69,186L440,186" style="vector-effect: non-scaling-stroke; fill: none; stroke: rgb(0, 0, 0); stroke-opacity: 1; stroke-width: 1px; opacity: 1;"/></g><g class="points"/><g class="text"/></g><g class="trace scatter trace39a340" style="stroke-miterlimit: 2;"><g class="fills"><g><path class="js-fill" d="M0,186L42.31,185.54L50.77,184.79L59.23,183.73L67.69,179L76.15,174.84L84.62,181.75L93.08,176.01L101.54,149.93L110,127.16L118.46,154.93L126.92,124.93L135.38,145.23L143.85,126.83L152.31,101.93L160.77,91.36L169.23,117.55L177.69,79.54L186.15,74.11L194.62,61.45L203.08,103.16L211.54,24.44L220,95.11L228.46,62.86L236.92,46.08L245.38,49.42L253.85,60.65L262.31,130.82L270.77,75.98L279.23,97.63L287.69,138.07L296.15,122.76L304.62,121.38L313.08,99.15L321.54,92.51L338.46,146.66L346.92,139.88L355.38,131.92L363.85,166.36L372.31,181.51L380.77,185.75L414.62,186L423.08,186L440,186L440,186L389.23,186L380.77,185.81L372.31,182.61L363.85,177.01L355.38,155.91L346.92,150.53L338.46,150.36L330,144.49L321.54,140.29L313.08,141.23L304.62,147.68L296.15,148.72L287.69,153.03L279.23,135.76L270.77,120.77L262.31,133.94L253.85,109.77L245.38,117.13L236.92,106.42L228.46,111.75L220,133.95L211.54,77.68L203.08,122.14L194.62,109.35L186.15,116.6L177.69,121.01L169.23,139.36L160.77,132.39L152.31,141.88L143.85,143.75L135.38,165.18L126.92,159.9L118.46,164.89L110,161.26L101.54,171.21L93.08,180.98L84.62,184.2L76.15,181.5L67.69,181.21L59.23,183.94L50.77,184.88L42.31,185.68L0,186Z" style="fill: rgb(136, 86, 167); fill-opacity: 1; stroke-width: 0;"/></g></g><g class="errorbars"/><g class="lines"><path class="js-line" d="M0,186L42.31,185.68L50.77,184.88L59.23,183.94L67.69,181.21L76.15,181.5L84.62,184.2L93.08,180.98L101.54,171.21L110,161.26L118.46,164.89L126.92,159.9L135.38,165.18L143.85,143.75L152.31,141.88L160.77,132.39L169.23,139.36L177.69,121.01L186.15,116.6L194.62,109.35L203.08,122.14L211.54,77.68L220,133.95L228.46,111.75L236.92,106.42L245.38,117.13L253.85,109.77L262.31,133.94L270.77,120.77L279.23,135.76L287.69,153.03L296.15,148.72L304.62,147.68L313.08,141.23L321.54,140.29L330,144.49L338.46,150.36L346.92,150.53L355.38,155.91L363.85,177.01L372.31,182.61L380.77,185.81L389.23,186L440,186" style="vector-effect: non-scaling-stroke; fill: none; stroke: rgb(0, 0, 0); stroke-opacity: 1; stroke-width: 0.5px; opacity: 1;"/></g><g class="points"/><g class="text"/></g><g class="trace scatter trace82a753" style="stroke-miterlimit: 2;"><g class="fills"/><g class="errorbars"/><g class="lines"><path class="js-line" d="M0,186L42.31,185.54L50.77,184.79L59.23,183.73L67.69,179L76.15,174.84L84.62,181.75L93.08,176.01L101.54,149.93L110,127.16L118.46,154.93L126.92,124.93L135.38,145.23L143.85,126.83L152.31,101.93L160.77,91.36L169.23,117.55L177.69,79.54L186.15,74.11L194.62,61.45L203.08,103.16L211.54,24.44L220,95.11L228.46,62.86L236.92,46.08L245.38,49.42L253.85,60.65L262.31,130.82L270.77,75.98L279.23,97.63L287.69,138.07L296.15,122.76L304.62,121.38L313.08,99.15L321.54,92.51L338.46,146.66L346.92,139.88L355.38,131.92L363.85,166.36L372.31,181.51L380.77,185.75L414.62,186L423.08,186L440,186" style="vector-effect: non-scaling-stroke; fill: none; stroke: rgb(0, 0, 0); stroke-opacity: 1; stroke-width: 0.25px; opacity: 1;"/></g><g class="points"/><g class="text"/></g><g class="trace scatter trace943ba0" style="stroke-miterlimit: 2; opacity: 1;"><g class="fills"/><g class="errorbars"/><g class="lines"/><g class="points"><path class="point" transform="translate(152.31,171.12)" d="M4,0A4,4 0 1,1 0,-4A4,4 0 0,1 4,0ZM0,0.5L0.5,0L0,-0.5L-0.5,0Z" style="opacity: 1; stroke: rgb(0, 0, 0); stroke-opacity: 1; stroke-width: 1px; fill: none;"/><path class="point" transform="translate(160.77,151.78)" d="M4,0A4,4 0 1,1 0,-4A4,4 0 0,1 4,0ZM0,0.5L0.5,0L0,-0.5L-0.5,0Z" style="opacity: 1; stroke: rgb(0, 0, 0); stroke-opacity: 1; stroke-width: 1px; fill: none;"/><path class="point" transform="translate(169.23,112.34)" d="M4,0A4,4 0 1,1 0,-4A4,4 0 0,1 4,0ZM0,0.5L0.5,0L0,-0.5L-0.5,0Z" style="opacity: 1; stroke: rgb(0, 0, 0); stroke-opacity: 1; stroke-width: 1px; fill: none;"/><path class="point" transform="translate(177.69,112.34)" d="M4,0A4,4 0 1,1 0,-4A4,4 0 0,1 4,0ZM0,0.5L0.5,0L0,-0.5L-0.5,0Z" style="opacity: 1; stroke: rgb(0, 0, 0); stroke-opacity: 1; stroke-width: 1px; fill: none;"/></g><g class="text"/></g></g></g><g class="overplot"/><path class="xlines-above crisp" d="M0,0" style="fill: none;"/><path class="ylines-above crisp" d="M0,0" style="fill: none;"/><g class="overlines-above"/><g class="xaxislayer-above"/><g class="yaxislayer-above"><g class="ytick"><text text-anchor="end" x="79" y="4.199999999999999" transform="translate(0,286)" style="font-family: 'Open Sans', verdana, arial, sans-serif; font-size: 12px; fill: rgb(42, 63, 95); fill-opacity: 1; white-space: pre; opacity: 1;">0</text></g><g class="ytick"><text text-anchor="end" x="79" y="4.199999999999999" style="font-family: 'Open Sans', verdana, arial, sans-serif; font-size: 12px; fill: rgb(42, 63, 95); fill-opacity: 1; white-space: pre; opacity: 1;" transform="translate(0,248.8)">50</text></g><g class="ytick"><text text-anchor="end" x="79" y="4.199999999999999" style="font-family: 'Open Sans', verdana, arial, sans-serif; font-size: 12px; fill: rgb(42, 63, 95); fill-opacity: 1; white-space: pre; opacity: 1;" transform="translate(0,211.6)">100</text></g><g class="ytick"><text text-anchor="end" x="79" y="4.199999999999999" style="font-family: 'Open Sans', verdana, arial, sans-serif; font-size: 12px; fill: rgb(42, 63, 95); fill-opacity: 1; white-space: pre; opacity: 1;" transform="translate(0,174.4)">150</text></g><g class="ytick"><text text-anchor="end" x="79" y="4.199999999999999" style="font-family: 'Open Sans', verdana, arial, sans-serif; font-size: 12px; fill: rgb(42, 63, 95); fill-opacity: 1; white-space: pre; opacity: 1;" transform="translate(0,137.2)">200</text></g><g class="ytick"><text text-anchor="end" x="79" y="4.199999999999999" style="font-family: 'Open Sans', verdana, arial, sans-serif; font-size: 12px; fill: rgb(42, 63, 95); fill-opacity: 1; white-space: pre; opacity: 1;" transform="translate(0,100)">250</text></g></g><g class="overaxes-above"/></g><g class="subplot x2y2"><g class="layer-subplot"><g class="shapelayer"/><g class="imagelayer"/></g><g class="minor-gridlayer"><g class="x2"/><g class="y2"/></g><g class="gridlayer"><g class="x2"><path class="x2grid crisp" transform="translate(156.15,0)" d="M0,317.00000000000006v185.99999999999997" style="stroke: rgb(255, 255, 255); stroke-opacity: 1; stroke-width: 1px;"/><path class="x2grid crisp" transform="translate(240.77,0)" d="M0,317.00000000000006v185.99999999999997" style="stroke: rgb(255, 255, 255); stroke-opacity: 1; stroke-width: 1px;"/><path class="x2grid crisp" transform="translate(325.38,0)" d="M0,317.00000000000006v185.99999999999997" style="stroke: rgb(255, 255, 255); stroke-opacity: 1; stroke-width: 1px;"/><path class="x2grid crisp" transform="translate(410,0)" d="M0,317.00000000000006v185.99999999999997" style="stroke: rgb(255, 255, 255); stroke-opacity: 1; stroke-width: 1px;"/><path class="x2grid crisp" transform="translate(494.62,0)" d="M0,317.00000000000006v185.99999999999997" style="stroke: rgb(255, 255, 255); stroke-opacity: 1; stroke-width: 1px;"/></g><g class="y2"><path class="y2grid crisp" transform="translate(0,472.00000000000006)" d="M80,0h440" style="stroke: rgb(255, 255, 255); stroke-opacity: 1; stroke-width: 1px;"/><path class="y2grid crisp" transform="translate(0,410.00000000000006)" d="M80,0h440" style="stroke: rgb(255, 255, 255); stroke-opacity: 1; stroke-width: 1px;"/><path class="y2grid crisp" transform="translate(0,348.00000000000006)" d="M80,0h440" style="stroke: rgb(255, 255, 255); stroke-opacity: 1; stroke-width: 1px;"/></g></g><g class="zerolinelayer"/><path class="xlines-below"/><path class="ylines-below"/><g class="overlines-below"/><g class="xaxislayer-below"/><g class="yaxislayer-below"/><g class="overaxes-below"/><g class="plot" transform="translate(80,317.00000000000006)" clip-path="url(#clip39a0a7x2y2plot)"><g class="scatterlayer mlayer"><g class="trace scatter traced6b199" style="stroke-miterlimit: 2;"><g class="fills"><g><path class="js-fill" d="M0,146.51L8.46,150.83L16.92,136.52L25.38,133.83L33.85,125.78L42.31,116.8L50.77,110.66L67.69,92.09L76.15,88.67L84.62,73.02L93.08,75.18L101.54,80.95L110,84.64L118.46,85.21L126.92,80.83L135.38,85.99L143.85,89.51L152.31,84.23L160.77,86.98L169.23,85.16L177.69,88.89L194.62,90.35L203.08,92.73L211.54,94.96L220,95.95L228.46,93.39L236.92,95.44L245.38,92.98L253.85,94.46L262.31,93.09L270.77,97.21L279.23,95.49L287.69,95.25L296.15,96.99L304.62,93.22L313.08,97.14L321.54,97.04L330,93.39L338.46,93.89L346.92,94.35L355.38,92.37L372.31,96.89L380.77,102.44L389.23,108.7L397.69,117.42L406.15,127.96L414.62,130.93L423.08,139.8L431.54,143.78L440,146.99L440,149.12L431.54,147.83L423.08,154.67L414.62,137.78L406.15,142.48L397.69,127.12L389.23,115.98L380.77,110.6L372.31,103.63L363.85,98.33L355.38,101.78L346.92,111.32L338.46,104.62L330,102.35L321.54,102.76L313.08,109.46L304.62,101.12L296.15,104.08L287.69,99.27L279.23,106.12L270.77,105.38L262.31,107.35L253.85,99.46L236.92,105.7L228.46,98.5L220,107.19L211.54,108.49L203.08,101.39L194.62,100.09L177.69,94.44L169.23,92.13L160.77,95.81L152.31,91.95L143.85,97.74L135.38,98.59L118.46,96.88L110,93.66L101.54,94.16L93.08,87.91L84.62,84.2L76.15,102.5L67.69,117.96L59.23,116.14L50.77,126.82L42.31,132.12L33.85,142.43L25.38,137.02L16.92,150.87L8.46,163.4L0,164.37Z" style="fill: rgb(145, 191, 219); fill-opacity: 1; stroke-width: 0;"/></g></g><g class="errorbars"/><g class="lines"><path class="js-line" d="M0,164.37L8.46,163.4L16.92,150.87L25.38,137.02L33.85,142.43L42.31,132.12L50.77,126.82L59.23,116.14L67.69,117.96L76.15,102.5L84.62,84.2L93.08,87.91L101.54,94.16L110,93.66L118.46,96.88L135.38,98.59L143.85,97.74L152.31,91.95L160.77,95.81L169.23,92.13L177.69,94.44L194.62,100.09L203.08,101.39L211.54,108.49L220,107.19L228.46,98.5L236.92,105.7L253.85,99.46L262.31,107.35L270.77,105.38L279.23,106.12L287.69,99.27L296.15,104.08L304.62,101.12L313.08,109.46L321.54,102.76L330,102.35L338.46,104.62L346.92,111.32L355.38,101.78L363.85,98.33L372.31,103.63L380.77,110.6L389.23,115.98L397.69,127.12L406.15,142.48L414.62,137.78L423.08,154.67L431.54,147.83L440,149.12" style="vector-effect: non-scaling-stroke; fill: none; stroke: rgb(0, 0, 0); stroke-opacity: 1; stroke-width: 0.25px; opacity: 1;"/></g><g class="points"/><g class="text"/></g><g class="trace scatter tracecca32b" style="stroke-miterlimit: 2;"><g class="fills"><g><path class="js-fill" d="M0,136.5L8.46,140.97L16.92,132.78L33.85,121.77L42.31,108.6L50.77,102.76L59.23,90.4L67.69,82.2L76.15,77.44L84.62,67.37L93.08,61.68L101.54,68.19L110,75.94L118.46,70.57L126.92,73.77L143.85,80.6L152.31,75.59L160.77,79.69L169.23,80.27L177.69,83.19L186.15,84.86L194.62,87.33L203.08,88.58L211.54,91.67L220,88.73L228.46,89.43L236.92,91.46L245.38,91.18L253.85,89.84L262.31,88.13L270.77,89.92L279.23,86.93L287.69,90.15L296.15,92.04L304.62,91.06L313.08,90.41L321.54,88.68L330,89.44L338.46,88.51L346.92,85.06L355.38,84.88L363.85,90.41L372.31,93.51L380.77,98.57L389.23,105.46L397.69,111.04L406.15,121.23L423.08,130.05L431.54,137.42L440,134.98L440,146.99L431.54,143.78L423.08,139.8L414.62,130.93L406.15,127.96L397.69,117.42L389.23,108.7L380.77,102.44L372.31,96.89L355.38,92.37L346.92,94.35L338.46,93.89L330,93.39L321.54,97.04L313.08,97.14L304.62,93.22L296.15,96.99L287.69,95.25L279.23,95.49L270.77,97.21L262.31,93.09L253.85,94.46L245.38,92.98L236.92,95.44L228.46,93.39L220,95.95L211.54,94.96L203.08,92.73L194.62,90.35L177.69,88.89L169.23,85.16L160.77,86.98L152.31,84.23L143.85,89.51L135.38,85.99L126.92,80.83L118.46,85.21L110,84.64L101.54,80.95L93.08,75.18L84.62,73.02L76.15,88.67L67.69,92.09L50.77,110.66L42.31,116.8L33.85,125.78L25.38,133.83L16.92,136.52L8.46,150.83L0,146.51Z" style="fill: rgb(255, 255, 191); fill-opacity: 1; stroke-width: 0;"/></g></g><g class="errorbars"/><g class="lines"><path class="js-line" d="M0,146.51L8.46,150.83L16.92,136.52L25.38,133.83L33.85,125.78L42.31,116.8L50.77,110.66L67.69,92.09L76.15,88.67L84.62,73.02L93.08,75.18L101.54,80.95L110,84.64L118.46,85.21L126.92,80.83L135.38,85.99L143.85,89.51L152.31,84.23L160.77,86.98L169.23,85.16L177.69,88.89L194.62,90.35L203.08,92.73L211.54,94.96L220,95.95L228.46,93.39L236.92,95.44L245.38,92.98L253.85,94.46L262.31,93.09L270.77,97.21L279.23,95.49L287.69,95.25L296.15,96.99L304.62,93.22L313.08,97.14L321.54,97.04L330,93.39L338.46,93.89L346.92,94.35L355.38,92.37L372.31,96.89L380.77,102.44L389.23,108.7L397.69,117.42L406.15,127.96L414.62,130.93L423.08,139.8L431.54,143.78L440,146.99" style="vector-effect: non-scaling-stroke; fill: none; stroke: rgb(0, 0, 0); stroke-opacity: 1; stroke-width: 0.5px; opacity: 1;"/></g><g class="points"/><g class="text"/></g><g class="trace scatter trace6cba24" style="stroke-miterlimit: 2;"><g class="fills"><g><path class="js-fill" d="M0,130.38L8.46,131.4L16.92,125.58L25.38,124.03L33.85,113.23L42.31,103.01L50.77,94.59L59.23,85.04L67.69,71.17L76.15,68.86L84.62,63.92L93.08,52.57L101.54,55.46L110,60.25L118.46,59.44L126.92,62.56L135.38,59.18L143.85,75.69L152.31,70.27L160.77,67.37L169.23,76.66L177.69,72.59L186.15,80.4L194.62,79.85L203.08,84.87L211.54,82.92L220,82.68L228.46,84.52L236.92,82.54L245.38,82.3L253.85,83.53L262.31,80.67L270.77,83.69L279.23,83.83L287.69,85.6L296.15,82.37L304.62,85.74L313.08,86.68L321.54,83.08L330,76.14L338.46,79.06L346.92,79.62L355.38,83.36L372.31,90.59L380.77,96.92L389.23,99.94L397.69,105.82L406.15,115.25L414.62,116.99L423.08,123.18L431.54,126.79L440,121.32L440,134.98L431.54,137.42L423.08,130.05L406.15,121.23L397.69,111.04L389.23,105.46L380.77,98.57L372.31,93.51L363.85,90.41L355.38,84.88L346.92,85.06L338.46,88.51L330,89.44L321.54,88.68L313.08,90.41L304.62,91.06L296.15,92.04L287.69,90.15L279.23,86.93L270.77,89.92L262.31,88.13L253.85,89.84L245.38,91.18L236.92,91.46L228.46,89.43L220,88.73L211.54,91.67L203.08,88.58L194.62,87.33L186.15,84.86L177.69,83.19L169.23,80.27L160.77,79.69L152.31,75.59L143.85,80.6L126.92,73.77L118.46,70.57L110,75.94L101.54,68.19L93.08,61.68L84.62,67.37L76.15,77.44L67.69,82.2L59.23,90.4L50.77,102.76L42.31,108.6L33.85,121.77L16.92,132.78L8.46,140.97L0,136.5Z" style="fill: rgb(255, 255, 191); fill-opacity: 1; stroke-width: 0;"/></g></g><g class="errorbars"/><g class="lines"><path class="js-line" d="M0,136.5L8.46,140.97L16.92,132.78L33.85,121.77L42.31,108.6L50.77,102.76L59.23,90.4L67.69,82.2L76.15,77.44L84.62,67.37L93.08,61.68L101.54,68.19L110,75.94L118.46,70.57L126.92,73.77L143.85,80.6L152.31,75.59L160.77,79.69L169.23,80.27L177.69,83.19L186.15,84.86L194.62,87.33L203.08,88.58L211.54,91.67L220,88.73L228.46,89.43L236.92,91.46L245.38,91.18L253.85,89.84L262.31,88.13L270.77,89.92L279.23,86.93L287.69,90.15L296.15,92.04L304.62,91.06L313.08,90.41L321.54,88.68L330,89.44L338.46,88.51L346.92,85.06L355.38,84.88L363.85,90.41L372.31,93.51L380.77,98.57L389.23,105.46L397.69,111.04L406.15,121.23L423.08,130.05L431.54,137.42L440,134.98" style="vector-effect: non-scaling-stroke; fill: none; stroke: rgb(0, 0, 0); stroke-opacity: 1; stroke-width: 1px; opacity: 1;"/></g><g class="points"/><g class="text"/></g><g class="trace scatter tracef69b51" style="stroke-miterlimit: 2;"><g class="fills"><g><path class="js-fill" d="M0,116.42L8.46,116.84L16.92,114.59L25.38,114.79L33.85,108.76L42.31,87.92L50.77,83.68L67.69,59.62L76.15,54.46L84.62,57.54L93.08,51.13L101.54,44.03L110,37.98L118.46,46.96L126.92,52.49L135.38,26.07L143.85,63.48L152.31,52.72L160.77,51.96L169.23,66.09L177.69,58.74L186.15,74.5L194.62,75.41L203.08,75.29L211.54,69.69L220,67.51L228.46,75.25L236.92,64.02L245.38,71.5L253.85,70.57L262.31,66.29L270.77,71.62L279.23,75.07L287.69,80.09L296.15,68.37L304.62,76.96L313.08,75.65L321.54,70L330,68.16L338.46,61.82L346.92,63.45L355.38,78.09L363.85,75.67L372.31,82.04L380.77,93.82L389.23,95.43L397.69,92.37L406.15,99.19L414.62,110.68L423.08,114.86L431.54,121.06L440,113.47L440,121.32L431.54,126.79L423.08,123.18L414.62,116.99L406.15,115.25L397.69,105.82L389.23,99.94L380.77,96.92L372.31,90.59L355.38,83.36L346.92,79.62L338.46,79.06L330,76.14L321.54,83.08L313.08,86.68L304.62,85.74L296.15,82.37L287.69,85.6L279.23,83.83L270.77,83.69L262.31,80.67L253.85,83.53L245.38,82.3L236.92,82.54L228.46,84.52L220,82.68L211.54,82.92L203.08,84.87L194.62,79.85L186.15,80.4L177.69,72.59L169.23,76.66L160.77,67.37L152.31,70.27L143.85,75.69L135.38,59.18L126.92,62.56L118.46,59.44L110,60.25L101.54,55.46L93.08,52.57L84.62,63.92L76.15,68.86L67.69,71.17L59.23,85.04L50.77,94.59L42.31,103.01L33.85,113.23L25.38,124.03L16.92,125.58L8.46,131.4L0,130.38Z" style="fill: rgb(252, 141, 89); fill-opacity: 1; stroke-width: 0;"/></g></g><g class="errorbars"/><g class="lines"><path class="js-line" d="M0,130.38L8.46,131.4L16.92,125.58L25.38,124.03L33.85,113.23L42.31,103.01L50.77,94.59L59.23,85.04L67.69,71.17L76.15,68.86L84.62,63.92L93.08,52.57L101.54,55.46L110,60.25L118.46,59.44L126.92,62.56L135.38,59.18L143.85,75.69L152.31,70.27L160.77,67.37L169.23,76.66L177.69,72.59L186.15,80.4L194.62,79.85L203.08,84.87L211.54,82.92L220,82.68L228.46,84.52L236.92,82.54L245.38,82.3L253.85,83.53L262.31,80.67L270.77,83.69L279.23,83.83L287.69,85.6L296.15,82.37L304.62,85.74L313.08,86.68L321.54,83.08L330,76.14L338.46,79.06L346.92,79.62L355.38,83.36L372.31,90.59L380.77,96.92L389.23,99.94L397.69,105.82L406.15,115.25L414.62,116.99L423.08,123.18L431.54,126.79L440,121.32" style="vector-effect: non-scaling-stroke; fill: none; stroke: rgb(0, 0, 0); stroke-opacity: 1; stroke-width: 0.5px; opacity: 1;"/></g><g class="points"/><g class="text"/></g><g class="trace scatter traceedbd1b" style="stroke-miterlimit: 2;"><g class="fills"/><g class="errorbars"/><g class="lines"><path class="js-line" d="M0,116.42L8.46,116.84L16.92,114.59L25.38,114.79L33.85,108.76L42.31,87.92L50.77,83.68L67.69,59.62L76.15,54.46L84.62,57.54L93.08,51.13L101.54,44.03L110,37.98L118.46,46.96L126.92,52.49L135.38,26.07L143.85,63.48L152.31,52.72L160.77,51.96L169.23,66.09L177.69,58.74L186.15,74.5L194.62,75.41L203.08,75.29L211.54,69.69L220,67.51L228.46,75.25L236.92,64.02L245.38,71.5L253.85,70.57L262.31,66.29L270.77,71.62L279.23,75.07L287.69,80.09L296.15,68.37L304.62,76.96L313.08,75.65L321.54,70L330,68.16L338.46,61.82L346.92,63.45L355.38,78.09L363.85,75.67L372.31,82.04L380.77,93.82L389.23,95.43L397.69,92.37L406.15,99.19L414.62,110.68L423.08,114.86L431.54,121.06L440,113.47" style="vector-effect: non-scaling-stroke; fill: none; stroke: rgb(0, 0, 0); stroke-opacity: 1; stroke-width: 0.25px; opacity: 1;"/></g><g class="points"/><g class="text"/></g><g class="trace scatter tracec08cdf" style="stroke-miterlimit: 2; opacity: 1;"><g class="fills"/><g class="errorbars"/><g class="lines"/><g class="points"><path class="point" transform="translate(152.31,62)" d="M4,0A4,4 0 1,1 0,-4A4,4 0 0,1 4,0ZM0,0.5L0.5,0L0,-0.5L-0.5,0Z" style="opacity: 1; stroke: rgb(0, 0, 0); stroke-opacity: 1; stroke-width: 1px; fill: none;"/><path class="point" transform="translate(160.77,68.2)" d="M4,0A4,4 0 1,1 0,-4A4,4 0 0,1 4,0ZM0,0.5L0.5,0L0,-0.5L-0.5,0Z" style="opacity: 1; stroke: rgb(0, 0, 0); stroke-opacity: 1; stroke-width: 1px; fill: none;"/><path class="point" transform="translate(169.23,80.6)" d="M4,0A4,4 0 1,1 0,-4A4,4 0 0,1 4,0ZM0,0.5L0.5,0L0,-0.5L-0.5,0Z" style="opacity: 1; stroke: rgb(0, 0, 0); stroke-opacity: 1; stroke-width: 1px; fill: none;"/><path class="point" transform="translate(177.69,80.6)" d="M4,0A4,4 0 1,1 0,-4A4,4 0 0,1 4,0ZM0,0.5L0.5,0L0,-0.5L-0.5,0Z" style="opacity: 1; stroke: rgb(0, 0, 0); stroke-opacity: 1; stroke-width: 1px; fill: none;"/></g><g class="text"/></g></g></g><g class="overplot"/><path class="xlines-above crisp" d="M0,0" style="fill: none;"/><path class="ylines-above crisp" d="M0,0" style="fill: none;"/><g class="overlines-above"/><g class="xaxislayer-above"/><g class="yaxislayer-above"><g class="y2tick"><text text-anchor="end" x="79" y="4.199999999999999" transform="translate(0,472.00000000000006)" style="font-family: 'Open Sans', verdana, arial, sans-serif; font-size: 12px; fill: rgb(42, 63, 95); fill-opacity: 1; white-space: pre; opacity: 1;">20</text></g><g class="y2tick"><text text-anchor="end" x="79" y="4.199999999999999" style="font-family: 'Open Sans', verdana, arial, sans-serif; font-size: 12px; fill: rgb(42, 63, 95); fill-opacity: 1; white-space: pre; opacity: 1;" transform="translate(0,410.00000000000006)">30</text></g><g class="y2tick"><text text-anchor="end" x="79" y="4.199999999999999" style="font-family: 'Open Sans', verdana, arial, sans-serif; font-size: 12px; fill: rgb(42, 63, 95); fill-opacity: 1; white-space: pre; opacity: 1;" transform="translate(0,348.00000000000006)">40</text></g></g><g class="overaxes-above"/></g><g class="subplot x3y3"><g class="layer-subplot"><g class="shapelayer"/><g class="imagelayer"/></g><g class="minor-gridlayer"><g class="x3"/><g class="y3"/></g><g class="gridlayer"><g class="x3"><path class="x3grid crisp" transform="translate(156.15,0)" d="M0,534v186" style="stroke: rgb(255, 255, 255); stroke-opacity: 1; stroke-width: 1px;"/><path class="x3grid crisp" transform="translate(240.77,0)" d="M0,534v186" style="stroke: rgb(255, 255, 255); stroke-opacity: 1; stroke-width: 1px;"/><path class="x3grid crisp" transform="translate(325.38,0)" d="M0,534v186" style="stroke: rgb(255, 255, 255); stroke-opacity: 1; stroke-width: 1px;"/><path class="x3grid crisp" transform="translate(410,0)" d="M0,534v186" style="stroke: rgb(255, 255, 255); stroke-opacity: 1; stroke-width: 1px;"/><path class="x3grid crisp" transform="translate(494.62,0)" d="M0,534v186" style="stroke: rgb(255, 255, 255); stroke-opacity: 1; stroke-width: 1px;"/></g><g class="y3"><path class="y3grid crisp" transform="translate(0,682.8)" d="M80,0h440" style="stroke: rgb(255, 255, 255); stroke-opacity: 1; stroke-width: 1px;"/><path class="y3grid crisp" transform="translate(0,645.6)" d="M80,0h440" style="stroke: rgb(255, 255, 255); stroke-opacity: 1; stroke-width: 1px;"/><path class="y3grid crisp" transform="translate(0,608.4)" d="M80,0h440" style="stroke: rgb(255, 255, 255); stroke-opacity: 1; stroke-width: 1px;"/><path class="y3grid crisp" transform="translate(0,571.2)" d="M80,0h440" style="stroke: rgb(255, 255, 255); stroke-opacity: 1; stroke-width: 1px;"/></g></g><g class="zerolinelayer"/><path class="xlines-below"/><path class="ylines-below"/><g class="overlines-below"/><g class="xaxislayer-below"/><g class="yaxislayer-below"/><g class="overaxes-below"/><g class="plot" transform="translate(80,534)" clip-path="url(#clip39a0a7x3y3plot)"><g class="scatterlayer mlayer"><g class="trace scatter trace72ad56" style="stroke-miterlimit: 2;"><g class="fills"><g><path class="js-fill" d="M0,122.19L8.46,128.23L16.92,124.56L25.38,123.21L33.85,119.67L42.31,107.84L50.77,100.79L59.23,96.03L67.69,81.49L76.15,77.52L84.62,69.54L93.08,65.65L101.54,63.27L118.46,59.28L126.92,52.48L135.38,54.32L143.85,52.12L152.31,45.48L160.77,42.43L169.23,40.08L177.69,39.55L203.08,36.61L211.54,37.08L220,36.08L228.46,37.31L253.85,38.57L262.31,37.67L279.23,38.45L287.69,38.57L313.08,41.22L321.54,41.55L330,43.15L338.46,45.74L346.92,49.82L355.38,51.24L363.85,60.58L372.31,66.68L389.23,85.03L397.69,95.65L406.15,103.32L414.62,106.81L423.08,118.77L431.54,118.68L440,128.28L440,132.7L431.54,133.28L423.08,123.63L414.62,120.84L406.15,117.22L397.69,107.57L389.23,92.24L380.77,82.38L372.31,77.61L363.85,65.07L355.38,58.14L346.92,56.57L338.46,50.12L330,48.05L321.54,44.62L313.08,45.11L304.62,43.94L296.15,41.71L287.69,41.32L279.23,42.04L270.77,39.43L262.31,41.59L253.85,42.43L236.92,40.79L228.46,39.21L220,39.21L211.54,38.79L194.62,42.34L186.15,43.85L177.69,43.48L169.23,44.4L160.77,49.99L152.31,50.58L135.38,65.53L126.92,60.42L110,70.28L101.54,68.56L84.62,87.15L76.15,92.52L67.69,99.91L59.23,107.32L50.77,122.92L42.31,131.31L33.85,132.28L25.38,137.72L16.92,131.61L8.46,139.12L0,127.34Z" style="fill: rgb(90, 180, 172); fill-opacity: 1; stroke-width: 0;"/></g></g><g class="errorbars"/><g class="lines"><path class="js-line" d="M0,127.34L8.46,139.12L16.92,131.61L25.38,137.72L33.85,132.28L42.31,131.31L50.77,122.92L59.23,107.32L67.69,99.91L76.15,92.52L84.62,87.15L101.54,68.56L110,70.28L126.92,60.42L135.38,65.53L152.31,50.58L160.77,49.99L169.23,44.4L177.69,43.48L186.15,43.85L194.62,42.34L211.54,38.79L220,39.21L228.46,39.21L236.92,40.79L253.85,42.43L262.31,41.59L270.77,39.43L279.23,42.04L287.69,41.32L296.15,41.71L304.62,43.94L313.08,45.11L321.54,44.62L330,48.05L338.46,50.12L346.92,56.57L355.38,58.14L363.85,65.07L372.31,77.61L380.77,82.38L389.23,92.24L397.69,107.57L406.15,117.22L414.62,120.84L423.08,123.63L431.54,133.28L440,132.7" style="vector-effect: non-scaling-stroke; fill: none; stroke: rgb(0, 0, 0); stroke-opacity: 1; stroke-width: 0.25px; opacity: 1;"/></g><g class="points"/><g class="text"/></g><g class="trace scatter traceceb9a1" style="stroke-miterlimit: 2;"><g class="fills"><g><path class="js-fill" d="M0,115.76L8.46,121.35L16.92,116.68L25.38,113.3L33.85,111.06L42.31,100.08L50.77,93.25L59.23,84.88L67.69,74.14L76.15,73.51L84.62,61.01L93.08,55.61L101.54,55.51L110,56.53L118.46,54.27L126.92,48.9L135.38,49.35L143.85,49.68L152.31,43.22L169.23,39.04L177.69,37.34L186.15,35.62L194.62,35.98L228.46,34.75L236.92,35.92L245.38,37.28L253.85,37.17L262.31,34.33L270.77,35.61L279.23,36.41L287.69,36.2L304.62,39.35L313.08,38.77L321.54,39.18L330,40.73L338.46,41.82L346.92,45.2L355.38,49.26L363.85,56.68L372.31,61.05L380.77,69.36L389.23,77.12L397.69,87.2L423.08,106.32L431.54,114.81L440,126.98L440,128.28L431.54,118.68L423.08,118.77L414.62,106.81L406.15,103.32L397.69,95.65L389.23,85.03L372.31,66.68L363.85,60.58L355.38,51.24L346.92,49.82L338.46,45.74L330,43.15L321.54,41.55L313.08,41.22L287.69,38.57L279.23,38.45L262.31,37.67L253.85,38.57L228.46,37.31L220,36.08L211.54,37.08L203.08,36.61L177.69,39.55L169.23,40.08L160.77,42.43L152.31,45.48L143.85,52.12L135.38,54.32L126.92,52.48L118.46,59.28L101.54,63.27L93.08,65.65L84.62,69.54L76.15,77.52L67.69,81.49L59.23,96.03L50.77,100.79L42.31,107.84L33.85,119.67L25.38,123.21L16.92,124.56L8.46,128.23L0,122.19Z" style="fill: rgb(245, 245, 245); fill-opacity: 1; stroke-width: 0;"/></g></g><g class="errorbars"/><g class="lines"><path class="js-line" d="M0,122.19L8.46,128.23L16.92,124.56L25.38,123.21L33.85,119.67L42.31,107.84L50.77,100.79L59.23,96.03L67.69,81.49L76.15,77.52L84.62,69.54L93.08,65.65L101.54,63.27L118.46,59.28L126.92,52.48L135.38,54.32L143.85,52.12L152.31,45.48L160.77,42.43L169.23,40.08L177.69,39.55L203.08,36.61L211.54,37.08L220,36.08L228.46,37.31L253.85,38.57L262.31,37.67L279.23,38.45L287.69,38.57L313.08,41.22L321.54,41.55L330,43.15L338.46,45.74L346.92,49.82L355.38,51.24L363.85,60.58L372.31,66.68L389.23,85.03L397.69,95.65L406.15,103.32L414.62,106.81L423.08,118.77L431.54,118.68L440,128.28" style="vector-effect: non-scaling-stroke; fill: none; stroke: rgb(0, 0, 0); stroke-opacity: 1; stroke-width: 0.5px; opacity: 1;"/></g><g class="points"/><g class="text"/></g><g class="trace scatter tracedc9846" style="stroke-miterlimit: 2;"><g class="fills"><g><path class="js-fill" d="M0,111.6L8.46,113.06L16.92,110.68L25.38,106.94L33.85,101.01L42.31,90.41L50.77,84.97L59.23,75.02L67.69,67.7L76.15,63.75L84.62,56.7L101.54,48.1L110,49.85L118.46,47.86L126.92,44.83L135.38,41.32L143.85,42.13L152.31,40.94L160.77,37.24L177.69,34.32L186.15,34.2L194.62,33.21L203.08,33L211.54,34.36L220,33.18L228.46,32.73L236.92,34.3L245.38,35.61L253.85,34.16L262.31,32.57L270.77,34.28L279.23,33.62L287.69,35.15L296.15,35.61L304.62,37.2L321.54,37.25L330,36.46L338.46,36.67L346.92,39.53L355.38,45.8L363.85,53.1L372.31,54.18L380.77,65.96L397.69,79.69L406.15,87.2L414.62,92.32L423.08,93.43L440,119.06L440,126.98L431.54,114.81L423.08,106.32L397.69,87.2L389.23,77.12L380.77,69.36L372.31,61.05L363.85,56.68L355.38,49.26L346.92,45.2L338.46,41.82L330,40.73L321.54,39.18L313.08,38.77L304.62,39.35L287.69,36.2L279.23,36.41L270.77,35.61L262.31,34.33L253.85,37.17L245.38,37.28L236.92,35.92L228.46,34.75L194.62,35.98L186.15,35.62L177.69,37.34L169.23,39.04L152.31,43.22L143.85,49.68L135.38,49.35L126.92,48.9L118.46,54.27L110,56.53L101.54,55.51L93.08,55.61L84.62,61.01L76.15,73.51L67.69,74.14L59.23,84.88L50.77,93.25L42.31,100.08L33.85,111.06L25.38,113.3L16.92,116.68L8.46,121.35L0,115.76Z" style="fill: rgb(245, 245, 245); fill-opacity: 1; stroke-width: 0;"/></g></g><g class="errorbars"/><g class="lines"><path class="js-line" d="M0,115.76L8.46,121.35L16.92,116.68L25.38,113.3L33.85,111.06L42.31,100.08L50.77,93.25L59.23,84.88L67.69,74.14L76.15,73.51L84.62,61.01L93.08,55.61L101.54,55.51L110,56.53L118.46,54.27L126.92,48.9L135.38,49.35L143.85,49.68L152.31,43.22L169.23,39.04L177.69,37.34L186.15,35.62L194.62,35.98L228.46,34.75L236.92,35.92L245.38,37.28L253.85,37.17L262.31,34.33L270.77,35.61L279.23,36.41L287.69,36.2L304.62,39.35L313.08,38.77L321.54,39.18L330,40.73L338.46,41.82L346.92,45.2L355.38,49.26L363.85,56.68L372.31,61.05L380.77,69.36L389.23,77.12L397.69,87.2L423.08,106.32L431.54,114.81L440,126.98" style="vector-effect: non-scaling-stroke; fill: none; stroke: rgb(0, 0, 0); stroke-opacity: 1; stroke-width: 1px; opacity: 1;"/></g><g class="points"/><g class="text"/></g><g class="trace scatter trace636457" style="stroke-miterlimit: 2;"><g class="fills"><g><path class="js-fill" d="M0,104.57L8.46,104.89L16.92,90.91L25.38,93.46L33.85,88.94L42.31,80.88L50.77,68.12L59.23,64.77L67.69,54.42L76.15,47.33L84.62,45.33L93.08,41.8L101.54,34.03L110,40.09L118.46,40.71L126.92,40.23L135.38,31.34L143.85,29.31L152.31,34.7L160.77,35.82L169.23,32.49L177.69,29.06L186.15,30.26L194.62,27.6L203.08,27.8L211.54,30.46L220,31.02L245.38,34.33L253.85,28.26L262.31,31L270.77,30.83L279.23,30.11L287.69,33.72L296.15,33.76L304.62,35.5L313.08,35.8L321.54,32.29L330,26.93L338.46,27.6L346.92,31.61L355.38,37.96L363.85,44.62L372.31,46.15L380.77,59.33L389.23,63.01L397.69,71.75L406.15,75.59L414.62,77.69L423.08,83.7L431.54,95.79L440,119.03L440,119.06L423.08,93.43L414.62,92.32L406.15,87.2L397.69,79.69L380.77,65.96L372.31,54.18L363.85,53.1L355.38,45.8L346.92,39.53L338.46,36.67L330,36.46L321.54,37.25L304.62,37.2L296.15,35.61L287.69,35.15L279.23,33.62L270.77,34.28L262.31,32.57L253.85,34.16L245.38,35.61L236.92,34.3L228.46,32.73L220,33.18L211.54,34.36L203.08,33L194.62,33.21L186.15,34.2L177.69,34.32L160.77,37.24L152.31,40.94L143.85,42.13L135.38,41.32L126.92,44.83L118.46,47.86L110,49.85L101.54,48.1L84.62,56.7L76.15,63.75L67.69,67.7L59.23,75.02L50.77,84.97L42.31,90.41L33.85,101.01L25.38,106.94L16.92,110.68L8.46,113.06L0,111.6Z" style="fill: rgb(216, 179, 101); fill-opacity: 1; stroke-width: 0;"/></g></g><g class="errorbars"/><g class="lines"><path class="js-line" d="M0,111.6L8.46,113.06L16.92,110.68L25.38,106.94L33.85,101.01L42.31,90.41L50.77,84.97L59.23,75.02L67.69,67.7L76.15,63.75L84.62,56.7L101.54,48.1L110,49.85L118.46,47.86L126.92,44.83L135.38,41.32L143.85,42.13L152.31,40.94L160.77,37.24L177.69,34.32L186.15,34.2L194.62,33.21L203.08,33L211.54,34.36L220,33.18L228.46,32.73L236.92,34.3L245.38,35.61L253.85,34.16L262.31,32.57L270.77,34.28L279.23,33.62L287.69,35.15L296.15,35.61L304.62,37.2L321.54,37.25L330,36.46L338.46,36.67L346.92,39.53L355.38,45.8L363.85,53.1L372.31,54.18L380.77,65.96L397.69,79.69L406.15,87.2L414.62,92.32L423.08,93.43L440,119.06" style="vector-effect: non-scaling-stroke; fill: none; stroke: rgb(0, 0, 0); stroke-opacity: 1; stroke-width: 0.5px; opacity: 1;"/></g><g class="points"/><g class="text"/></g><g class="trace scatter tracefaa6cd" style="stroke-miterlimit: 2;"><g class="fills"/><g class="errorbars"/><g class="lines"><path class="js-line" d="M0,104.57L8.46,104.89L16.92,90.91L25.38,93.46L33.85,88.94L42.31,80.88L50.77,68.12L59.23,64.77L67.69,54.42L76.15,47.33L84.62,45.33L93.08,41.8L101.54,34.03L110,40.09L118.46,40.71L126.92,40.23L135.38,31.34L143.85,29.31L152.31,34.7L160.77,35.82L169.23,32.49L177.69,29.06L186.15,30.26L194.62,27.6L203.08,27.8L211.54,30.46L220,31.02L245.38,34.33L253.85,28.26L262.31,31L270.77,30.83L279.23,30.11L287.69,33.72L296.15,33.76L304.62,35.5L313.08,35.8L321.54,32.29L330,26.93L338.46,27.6L346.92,31.61L355.38,37.96L363.85,44.62L372.31,46.15L380.77,59.33L389.23,63.01L397.69,71.75L406.15,75.59L414.62,77.69L423.08,83.7L431.54,95.79L440,119.03" style="vector-effect: non-scaling-stroke; fill: none; stroke: rgb(0, 0, 0); stroke-opacity: 1; stroke-width: 0.25px; opacity: 1;"/></g><g class="points"/><g class="text"/></g><g class="trace scatter trace04d848" style="stroke-miterlimit: 2; opacity: 1;"><g class="fills"/><g class="errorbars"/><g class="lines"/><g class="points"><path class="point" transform="translate(152.31,44.64)" d="M4,0A4,4 0 1,1 0,-4A4,4 0 0,1 4,0ZM0,0.5L0.5,0L0,-0.5L-0.5,0Z" style="opacity: 1; stroke: rgb(0, 0, 0); stroke-opacity: 1; stroke-width: 1px; fill: none;"/><path class="point" transform="translate(160.77,44.64)" d="M4,0A4,4 0 1,1 0,-4A4,4 0 0,1 4,0ZM0,0.5L0.5,0L0,-0.5L-0.5,0Z" style="opacity: 1; stroke: rgb(0, 0, 0); stroke-opacity: 1; stroke-width: 1px; fill: none;"/><path class="point" transform="translate(169.23,37.2)" d="M4,0A4,4 0 1,1 0,-4A4,4 0 0,1 4,0ZM0,0.5L0.5,0L0,-0.5L-0.5,0Z" style="opacity: 1; stroke: rgb(0, 0, 0); stroke-opacity: 1; stroke-width: 1px; fill: none;"/><path class="point" transform="translate(177.69,37.2)" d="M4,0A4,4 0 1,1 0,-4A4,4 0 0,1 4,0ZM0,0.5L0.5,0L0,-0.5L-0.5,0Z" style="opacity: 1; stroke: rgb(0, 0, 0); stroke-opacity: 1; stroke-width: 1px; fill: none;"/></g><g class="text"/></g></g></g><g class="overplot"/><path class="xlines-above crisp" d="M0,0" style="fill: none;"/><path class="ylines-above crisp" d="M0,0" style="fill: none;"/><g class="overlines-above"/><g class="xaxislayer-above"><g class="x3tick"><text text-anchor="middle" x="0" y="733" transform="translate(156.15,0)" style="font-family: 'Open Sans', verdana, arial, sans-serif; font-size: 12px; fill: rgb(42, 63, 95); fill-opacity: 1; white-space: pre; opacity: 1;">10</text></g><g class="x3tick"><text text-anchor="middle" x="0" y="733" style="font-family: 'Open Sans', verdana, arial, sans-serif; font-size: 12px; fill: rgb(42, 63, 95); fill-opacity: 1; white-space: pre; opacity: 1;" transform="translate(240.77,0)">20</text></g><g class="x3tick"><text text-anchor="middle" x="0" y="733" style="font-family: 'Open Sans', verdana, arial, sans-serif; font-size: 12px; fill: rgb(42, 63, 95); fill-opacity: 1; white-space: pre; opacity: 1;" transform="translate(325.38,0)">30</text></g><g class="x3tick"><text text-anchor="middle" x="0" y="733" style="font-family: 'Open Sans', verdana, arial, sans-serif; font-size: 12px; fill: rgb(42, 63, 95); fill-opacity: 1; white-space: pre; opacity: 1;" transform="translate(410,0)">40</text></g><g class="x3tick"><text text-anchor="middle" x="0" y="733" style="font-family: 'Open Sans', verdana, arial, sans-serif; font-size: 12px; fill: rgb(42, 63, 95); fill-opacity: 1; white-space: pre; opacity: 1;" transform="translate(494.62,0)">50</text></g></g><g class="yaxislayer-above"><g class="y3tick"><text text-anchor="end" x="79" y="4.199999999999999" transform="translate(0,720)" style="font-family: 'Open Sans', verdana, arial, sans-serif; font-size: 12px; fill: rgb(42, 63, 95); fill-opacity: 1; white-space: pre; opacity: 1;">5</text></g><g class="y3tick"><text text-anchor="end" x="79" y="4.199999999999999" style="font-family: 'Open Sans', verdana, arial, sans-serif; font-size: 12px; fill: rgb(42, 63, 95); fill-opacity: 1; white-space: pre; opacity: 1;" transform="translate(0,682.8)">10</text></g><g class="y3tick"><text text-anchor="end" x="79" y="4.199999999999999" style="font-family: 'Open Sans', verdana, arial, sans-serif; font-size: 12px; fill: rgb(42, 63, 95); fill-opacity: 1; white-space: pre; opacity: 1;" transform="translate(0,645.6)">15</text></g><g class="y3tick"><text text-anchor="end" x="79" y="4.199999999999999" style="font-family: 'Open Sans', verdana, arial, sans-serif; font-size: 12px; fill: rgb(42, 63, 95); fill-opacity: 1; white-space: pre; opacity: 1;" transform="translate(0,608.4)">20</text></g><g class="y3tick"><text text-anchor="end" x="79" y="4.199999999999999" style="font-family: 'Open Sans', verdana, arial, sans-serif; font-size: 12px; fill: rgb(42, 63, 95); fill-opacity: 1; white-space: pre; opacity: 1;" transform="translate(0,571.2)">25</text></g><g class="y3tick"><text text-anchor="end" x="79" y="4.199999999999999" style="font-family: 'Open Sans', verdana, arial, sans-serif; font-size: 12px; fill: rgb(42, 63, 95); fill-opacity: 1; white-space: pre; opacity: 1;" transform="translate(0,534)">30</text></g></g><g class="overaxes-above"/></g></g><g class="polarlayer"/><g class="smithlayer"/><g class="ternarylayer"/><g class="geolayer"/><g class="funnelarealayer"/><g class="pielayer"/><g class="iciclelayer"/><g class="treemaplayer"/><g class="sunburstlayer"/><g class="glimages"/><defs id="topdefs-39a0a7"><g class="clips"/></defs><g class="layer-above"><g class="imagelayer"/><g class="shapelayer"/></g><g class="infolayer"><g class="g-gtitle"><text class="gtitle" x="30" y="50" text-anchor="start" dy="0em" style="font-family: 'Open Sans', verdana, arial, sans-serif; font-size: 17px; fill: rgb(42, 63, 95); opacity: 1; font-weight: normal; white-space: pre;">Climatology and S2S forecast for Manikganj</text></g><g class="g-xtitle"/><g class="g-x2title"/><g class="g-x3title"/><g class="g-ytitle"><text class="ytitle" transform="rotate(-90,34.16875,193)" x="34.16875" y="193" text-anchor="middle" style="font-family: 'Open Sans', verdana, arial, sans-serif; font-size: 14px; fill: rgb(42, 63, 95); opacity: 1; font-weight: normal; white-space: pre;">[mm]</text></g><g class="g-y2title"><text class="y2title" transform="rotate(-90,40.840625,410.00000000000006)" x="40.840625" y="410.00000000000006" text-anchor="middle" style="font-family: 'Open Sans', verdana, arial, sans-serif; font-size: 14px; fill: rgb(42, 63, 95); opacity: 1; font-weight: normal; white-space: pre;">[C]</text></g><g class="g-y3title"><text class="y3title" transform="rotate(-90,40.840625,627)" x="40.840625" y="627" text-anchor="middle" style="font-family: 'Open Sans', verdana, arial, sans-serif; font-size: 14px; fill: rgb(42, 63, 95); opacity: 1; font-weight: normal; white-space: pre;">[C]</text></g><g class="annotation" data-index="0" style="opacity: 1;"><g class="annotation-text-g" transform="rotate(0,300,89.5)"><g class="cursor-pointer" transform="translate(237,79)"><rect class="bg" x="0.5" y="0.5" width="126" height="20" style="stroke-width: 1px; stroke: rgb(0, 0, 0); stroke-opacity: 0; fill: rgb(0, 0, 0); fill-opacity: 0;"/><text class="annotation-text" text-anchor="middle" x="63.359375" y="16" style="font-family: 'Open Sans', verdana, arial, sans-serif; font-size: 16px; fill: rgb(42, 63, 95); fill-opacity: 1; white-space: pre;">Precipitation sum</text></g></g></g><g class="annotation" data-index="1" style="opacity: 1;"><g class="annotation-text-g" transform="rotate(0,300,306.50000000000006)"><g class="cursor-pointer" transform="translate(196,296)"><rect class="bg" x="0.5" y="0.5" width="208" height="20" style="stroke-width: 1px; stroke: rgb(0, 0, 0); stroke-opacity: 0; fill: rgb(0, 0, 0); fill-opacity: 0;"/><text class="annotation-text" text-anchor="middle" x="104.265625" y="16" style="font-family: 'Open Sans', verdana, arial, sans-serif; font-size: 16px; fill: rgb(42, 63, 95); fill-opacity: 1; white-space: pre;">Mean maximum temperature</text></g></g></g><g class="annotation" data-index="2" style="opacity: 1;"><g class="annotation-text-g" transform="rotate(0,300,523.5)"><g class="cursor-pointer" transform="translate(198,513)"><rect class="bg" x="0.5" y="0.5" width="203" height="20" style="stroke-width: 1px; stroke: rgb(0, 0, 0); stroke-opacity: 0; fill: rgb(0, 0, 0); fill-opacity: 0;"/><text class="annotation-text" text-anchor="middle" x="102.046875" y="16" style="font-family: 'Open Sans', verdana, arial, sans-serif; font-size: 16px; fill: rgb(42, 63, 95); fill-opacity: 1; white-space: pre;">Mean minimum temperature</text></g></g></g><g class="annotation" data-index="3" style="opacity: 1;"><g class="annotation-text-g" transform="rotate(0,300,760.5)"><g class="cursor-pointer" transform="translate(277,750)"><rect class="bg" x="0.5" y="0.5" width="45" height="20" style="stroke-width: 1px; stroke: rgb(0, 0, 0); stroke-opacity: 0; fill: rgb(0, 0, 0); fill-opacity: 0;"/><text class="annotation-text" text-anchor="middle" x="22.3125" y="16" style="font-family: 'Open Sans', verdana, arial, sans-serif; font-size: 16px; fill: rgb(42, 63, 95); fill-opacity: 1; white-space: pre;">Week</text></g></g></g></g></svg>