<svg class="main-svg" xmlns="http://www.w3.org/2000/svg" xmlns:xlink="http://www.w3.org/1999/xlink" width="600" height="800" style="" viewBox="0 0 600 800"><rect x="0" y="0" width="600" height="800" style="fill: rgb(255, 255, 255); fill-opacity: 1;"/><defs id="defs-303084"><g class="clips"><clipPath id="clip303084xyplot" class="plotclip"><rect width="440" height="186.00000000000003"/></clipPath><clipPath id="clip303084x2y2plot" class="plotclip"><rect width="440" height="185.99999999999997"/></clipPath><clipPath id="clip303084x3y3plot" class="plotclip"><rect width="440" height="186"/></clipPath><clipPath class="axesclip" id="clip303084x"><rect x="80" y="0" width="440" height="800"/></clipPath><clipPath class="axesclip" id="clip303084y"><rect x="0" y="100" width="600" height="186.00000000000003"/></clipPath><clipPath class="axesclip" id="clip303084xy"><rect x="80" y="100" width="440" height="186.00000000000003"/></clipPath><clipPath class="axesclip" id="clip303084y2"><rect x="0" y="317.00000000000006" width="600" height="185.99999999999997"/></clipPath><clipPath class="axesclip" id="clip303084xy2"><rect x="80" y="317.00000000000006" width="440" height="185.99999999999997"/></clipPath><clipPath class="axesclip" id="clip303084y3"><rect x="0" y="534" width="600" height="186"/></clipPath><clipPath class="axesclip" id="clip303084xy3"><rect x="80" y="534" width="440" height="186"/></clipPath><clipPath class="axesclip" id="clip303084x2"><rect x="80" y="0" width="440" height="800"/></clipPath><clipPath class="axesclip" id="clip303084x2y"><rect x="80" y="100" width="440" height="186.00000000000003"/></clipPath><clipPath class="axesclip" id="clip303084x2y2"><rect x="80" y="317.00000000000006" width="440" height="185.99999999999997"/></clipPath><clipPath class="axesclip" id="clip303084x2y3"><rect x="80" y="534" width="440" height="186"/></clipPath><clipPath class="axesclip" id="clip303084x3"><rect x="80" y="0" width="440" height="800"/></clipPath><clipPath class="axesclip" id="clip303084x3y"><rect x="80" y="100" width="440" height="186.00000000000003"/></clipPath><clipPath class="axesclip" id="clip303084x3y2"><rect x="80" y="317.00000000000006" width="440" height="185.99999999999997"/></clipPath><clipPath class="axesclip" id="clip303084x3y3"><rect x="80" y="534" width="440" height="186"/></clipPath></g><g class="gradients"/><g class="patterns"/></defs><g class="bglayer"><rect class="bg" x="80" y="100" width="440" height="186.00000000000003" style="fill: rgb(229, 236, 246); fill-opacity: 1; stroke-width: 0;"/><rect class="bg" x="80" y="317.00000000000006" width="440" height="185.99999999999997" style="fill: rgb(229, 236, 246); fill-opacity: 1; stroke-width: 0;"/><rect class="bg" x="80" y="534" width="440" height="186" style="fill: rgb(229, 236, 246); fill-opacity: 1; stroke-width: 0;"/></g><g class="layer-below"><g class="imagelayer"/><g class="shapelayer"/></g><g class="cartesianlayer"><g class="subplot xy"><g class="layer-subplot"><g class="shapelayer"/><g class="imagelayer"/></g><g class="minor-gridlayer"><g class="x"/><g class="y"/></g><g class="gridlayer"><g class="x"><path class="xgrid crisp" transform="translate(156.15,0)" d="M0,100v186.00000000000003" style="stroke: rgb(255, 255, 255); stroke-opacity: 1; stroke-width: 1px;"/><path class="xgrid crisp" transform="translate(240.77,0)" d="M0,100v186.00000000000003" style="stroke: rgb(255, 255, 255); stroke-opacity: 1; stroke-width: 1px;"/><path class="xgrid crisp" transform="translate(325.38,0)" d="M0,100v186.00000000000003" style="stroke: rgb(255, 255, 255); stroke-opacity: 1; stroke-width: 1px;"/><path class="xgrid crisp" transform="translate(410,0)" d="M0,100v186.00000000000003" style="stroke: rgb(255, 255, 255); stroke-opacity: 1; stroke-width: 1px;"/><path class="xgrid crisp" transform="translate(494.62,0)" d="M0,100v186.00000000000003" style="stroke: rgb(255, 255, 255); stroke-opacity: 1; stroke-width: 1px;"/></g><g class="y"><path class="ygrid crisp" transform="translate(0,248.8)" d="M80,0h440" style="stroke: rgb(255, 255, 255); stroke-opacity: 1; stroke-width: 1px;"/><path class="ygrid crisp" transform="translate(0,211.6)" d="M80,0h440" style="stroke: rgb(255, 255, 255); stroke-opacity: 1; stroke-width: 1px;"/><path class="ygrid crisp" transform="translate(0,174.4)" d="M80,0h440" style="stroke: rgb(255, 255, 255); stroke-opacity: 1; stroke-width: 1px;"/><path class="ygrid crisp" transform="translate(0,137.2)" d="M80,0h440" style="stroke: rgb(255, 255, 255); stroke-opacity: 1; stroke-width: 1px;"/></g></g><g class="zerolinelayer"><path class="yzl zl crisp" transform="translate(0,286)" d="M80,0h440" style="stroke: rgb(255, 255, 255); stroke-opacity: 1; stroke-width: 2px;"/></g><path class="xlines-below"/><path class="ylines-below"/><g class="overlines-below"/><g class="xaxislayer-below"/><g class="yaxislayer-below"/><g class="overaxes-below"/><g class="plot" transform="translate(80,100)" clip-path="url(#clip303084xyplot)"><g class="scatterlayer mlayer"><g class="trace scatter trace0a240c" style="stroke-miterlimit: 2;"><g class="fills"><g><path class="js-fill" d="M0,186L135.38,185.75L143.85,176.03L152.31,182.67L160.77,180.25L169.23,169.72L177.69,172.56L186.15,174.32L194.62,171.34L203.08,153.08L211.54,166.2L220,167.02L228.46,158.18L236.92,156.49L245.38,162.37L253.85,166.71L262.31,165.75L270.77,170.57L279.23,172.95L287.69,178.25L296.15,167.62L304.62,170L313.08,167.39L321.54,173.14L330,181.45L338.46,180.24L346.92,184.1L355.38,186L363.85,186L440,186L440,186L330,186L321.54,186L313.08,184.4L304.62,186L296.15,179.21L287.69,186L279.23,183.77L270.77,185.26L262.31,185.26L253.85,180.89L245.38,182.28L236.92,177.35L228.46,180.51L220,186L211.54,184.51L203.08,181.54L194.62,181.38L186.15,186L0,186Z" style="fill: rgb(224, 236, 244); fill-opacity: 1; stroke-width: 0;"/></g></g><g class="errorbars"/><g class="lines"><path class="js-line" d="M0,186L186.15,186L194.62,181.38L203.08,181.54L211.54,184.51L220,186L228.46,180.51L236.92,177.35L245.38,182.28L253.85,180.89L262.31,185.26L270.77,185.26L279.23,183.77L287.69,186L296.15,179.21L304.62,186L313.08,184.4L321.54,186L330,186L440,186" style="vector-effect: non-scaling-stroke; fill: none; stroke: rgb(0, 0, 0); stroke-opacity: 1; stroke-width: 0.25px; opacity: 1;"/></g><g class="points"/><g class="text"/></g><g class="trace scatter traceb722da" style="stroke-miterlimit: 2;"><g class="fills"><g><path class="js-fill" d="M0,186L101.54,186L110,185.19L118.46,185.94L126.92,183.8L135.38,180.77L143.85,165.1L152.31,164.75L160.77,162.77L169.23,154.36L177.69,159.84L186.15,165.86L194.62,160.34L203.08,139.49L211.54,155.93L220,157.86L228.46,150.35L236.92,141.56L245.38,144.3L253.85,160.2L262.31,153.75L270.77,161.4L279.23,159.21L287.69,165.82L296.15,153.26L304.62,154.39L313.08,159.83L321.54,152.35L330,156.4L338.46,168.35L346.92,171.17L355.38,186L363.85,186L440,186L440,186L363.85,186L355.38,186L346.92,184.1L338.46,180.24L330,181.45L321.54,173.14L313.08,167.39L304.62,170L296.15,167.62L287.69,178.25L279.23,172.95L270.77,170.57L262.31,165.75L253.85,166.71L245.38,162.37L236.92,156.49L228.46,158.18L220,167.02L211.54,166.2L203.08,153.08L194.62,171.34L186.15,174.32L177.69,172.56L169.23,169.72L160.77,180.25L152.31,182.67L143.85,176.03L135.38,185.75L0,186Z" style="fill: rgb(158, 188, 218); fill-opacity: 1; stroke-width: 0;"/></g></g><g class="errorbars"/><g class="lines"><path class="js-line" d="M0,186L135.38,185.75L143.85,176.03L152.31,182.67L160.77,180.25L169.23,169.72L177.69,172.56L186.15,174.32L194.62,171.34L203.08,153.08L211.54,166.2L220,167.02L228.46,158.18L236.92,156.49L245.38,162.37L253.85,166.71L262.31,165.75L270.77,170.57L279.23,172.95L287.69,178.25L296.15,167.62L304.62,170L313.08,167.39L321.54,173.14L330,181.45L338.46,180.24L346.92,184.1L355.38,186L363.85,186L440,186" style="vector-effect: non-scaling-stroke; fill: none; stroke: rgb(0, 0, 0); stroke-opacity: 1; stroke-width: 0.5px; opacity: 1;"/></g><g class="points"/><g class="text"/></g><g class="trace scatter trace834305" style="stroke-miterlimit: 2;"><g class="fills"><g><path class="js-fill" d="M0,186L42.31,185.39L50.77,183.53L59.23,183.63L67.69,185.99L76.15,183.1L84.62,185.83L93.08,177.39L101.54,173.15L110,168.15L118.46,175.42L126.92,176.66L135.38,160.89L143.85,149.86L152.31,143.21L160.77,152.08L169.23,145.32L177.69,146.78L186.15,143.21L194.62,137.16L203.08,127.98L211.54,134.61L220,127.58L228.46,138.41L236.92,82.71L245.38,107.31L253.85,128.29L262.31,137.01L270.77,127.64L279.23,138.4L287.69,144.62L296.15,132L304.62,133.94L313.08,128.58L321.54,140.09L330,141.45L338.46,148.91L346.92,158.34L355.38,173.41L363.85,184.05L372.31,185.44L389.23,186L397.69,186L440,186L440,186L363.85,186L355.38,186L346.92,171.17L338.46,168.35L330,156.4L321.54,152.35L313.08,159.83L304.62,154.39L296.15,153.26L287.69,165.82L279.23,159.21L270.77,161.4L262.31,153.75L253.85,160.2L245.38,144.3L236.92,141.56L228.46,150.35L220,157.86L211.54,155.93L203.08,139.49L194.62,160.34L186.15,165.86L177.69,159.84L169.23,154.36L160.77,162.77L152.31,164.75L143.85,165.1L135.38,180.77L126.92,183.8L118.46,185.94L110,185.19L101.54,186L0,186Z" style="fill: rgb(158, 188, 218); fill-opacity: 1; stroke-width: 0;"/></g></g><g class="errorbars"/><g class="lines"><path class="js-line" d="M0,186L101.54,186L110,185.19L118.46,185.94L126.92,183.8L135.38,180.77L143.85,165.1L152.31,164.75L160.77,162.77L169.23,154.36L177.69,159.84L186.15,165.86L194.62,160.34L203.08,139.49L211.54,155.93L220,157.86L228.46,150.35L236.92,141.56L245.38,144.3L253.85,160.2L262.31,153.75L270.77,161.4L279.23,159.21L287.69,165.82L296.15,153.26L304.62,154.39L313.08,159.83L321.54,152.35L330,156.4L338.46,168.35L346.92,171.17L355.38,186L363.85,186L440,186" style="vector-effect: non-scaling-stroke; fill: none; stroke: rgb(0, 0, 0); stroke-opacity: 1; stroke-width: 1px; opacity: 1;"/></g><g class="points"/><g class="text"/></g><g class="trace scatter tracee069a6" style="stroke-miterlimit: 2;"><g class="fills"><g><path class="js-fill" d="M0,186L33.85,185.93L42.31,185.18L50.77,180.79L59.23,182.28L67.69,185.99L76.15,183.02L84.62,185.78L93.08,172.54L101.54,166.35L110,150.68L118.46,168.15L126.92,162.77L152.31,103.91L160.77,111.64L169.23,122.82L177.69,111.91L186.15,106.71L194.62,115.26L203.08,102.5L211.54,114.4L220,84.91L228.46,113.77L236.92,16.27L245.38,74.48L253.85,93.52L262.31,130.18L270.77,80.1L279.23,108.07L287.69,97.73L296.15,118.38L304.62,82.8L313.08,118.2L321.54,114.74L330,100.86L338.46,125.76L346.92,124.99L355.38,160.79L363.85,183.12L372.31,185.26L380.77,186L440,186L440,186L397.69,186L389.23,186L372.31,185.44L363.85,184.05L355.38,173.41L346.92,158.34L338.46,148.91L330,141.45L321.54,140.09L313.08,128.58L304.62,133.94L296.15,132L287.69,144.62L279.23,138.4L270.77,127.64L262.31,137.01L253.85,128.29L245.38,107.31L236.92,82.71L228.46,138.41L220,127.58L211.54,134.61L203.08,127.98L194.62,137.16L186.15,143.21L177.69,146.78L169.23,145.32L160.77,152.08L152.31,143.21L143.85,149.86L135.38,160.89L126.92,176.66L118.46,175.42L110,168.15L101.54,173.15L93.08,177.39L84.62,185.83L76.15,183.1L67.69,185.99L59.23,183.63L50.77,183.53L42.31,185.39L0,186Z" style="fill: rgb(136, 86, 167); fill-opacity: 1; stroke-width: 0;"/></g></g><g class="errorbars"/><g class="lines"><path class="js-line" d="M0,186L42.31,185.39L50.77,183.53L59.23,183.63L67.69,185.99L76.15,183.1L84.62,185.83L93.08,177.39L101.54,173.15L110,168.15L118.46,175.42L126.92,176.66L135.38,160.89L143.85,149.86L152.31,143.21L160.77,152.08L169.23,145.32L177.69,146.78L186.15,143.21L194.62,137.16L203.08,127.98L211.54,134.61L220,127.58L228.46,138.41L236.92,82.71L245.38,107.31L253.85,128.29L262.31,137.01L270.77,127.64L279.23,138.4L287.69,144.62L296.15,132L304.62,133.94L313.08,128.58L321.54,140.09L330,141.45L338.46,148.91L346.92,158.34L355.38,173.41L363.85,184.05L372.31,185.44L389.23,186L397.69,186L440,186" style="vector-effect: non-scaling-stroke; fill: none; stroke: rgb(0, 0, 0); stroke-opacity: 1; stroke-width: 0.5px; opacity: 1;"/></g><g class="points"/><g class="text"/></g><g class="trace scatter trace8a3582" style="stroke-miterlimit: 2;"><g class="fills"/><g class="errorbars"/><g class="lines"><path class="js-line" d="M0,186L33.85,185.93L42.31,185.18L50.77,180.79L59.23,182.28L67.69,185.99L76.15,183.02L84.62,185.78L93.08,172.54L101.54,166.35L110,150.68L118.46,168.15L126.92,162.77L152.31,103.91L160.77,111.64L169.23,122.82L177.69,111.91L186.15,106.71L194.62,115.26L203.08,102.5L211.54,114.4L220,84.91L228.46,113.77L236.92,16.27L245.38,74.48L253.85,93.52L262.31,130.18L270.77,80.1L279.23,108.07L287.69,97.73L296.15,118.38L304.62,82.8L313.08,118.2L321.54,114.74L330,100.86L338.46,125.76L346.92,124.99L355.38,160.79L363.85,183.12L372.31,185.26L380.77,186L440,186" style="vector-effect: non-scaling-stroke; fill: none; stroke: rgb(0, 0, 0); stroke-opacity: 1; stroke-width: 0.25px; opacity: 1;"/></g><g class="points"/><g class="text"/></g><g class="trace scatter trace0f5023" style="stroke-miterlimit: 2; opacity: 1;"><g class="fills"/><g class="errorbars"/><g class="lines"/><g class="points"><path class="point" transform="translate(253.85,124.99)" d="M4,0A4,4 0 1,1 0,-4A4,4 0 0,1 4,0ZM0,0.5L0.5,0L0,-0.5L-0.5,0Z" style="opacity: 1; stroke: rgb(0, 0, 0); stroke-opacity: 1; stroke-width: 1px; fill: none;"/><path class="point" transform="translate(262.31,22.32)" d="M4,0A4,4 0 1,1 0,-4A4,4 0 0,1 4,0ZM0,0.5L0.5,0L0,-0.5L-0.5,0Z" style="opacity: 1; stroke: rgb(0, 0, 0); stroke-opacity: 1; stroke-width: 1px; fill: none;"/><path class="point" transform="translate(270.77,99.7)" d="M4,0A4,4 0 1,1 0,-4A4,4 0 0,1 4,0ZM0,0.5L0.5,0L0,-0.5L-0.5,0Z" style="opacity: 1; stroke: rgb(0, 0, 0); stroke-opacity: 1; stroke-width: 1px; fill: none;"/><path class="point" transform="translate(279.23,99.7)" d="M4,0A4,4 0 1,1 0,-4A4,4 0 0,1 4,0ZM0,0.5L0.5,0L0,-0.5L-0.5,0Z" style="opacity: 1; stroke: rgb(0, 0, 0); stroke-opacity: 1; stroke-width: 1px; fill: none;"/></g><g class="text"/></g></g></g><g class="overplot"/><path class="xlines-above crisp" d="M0,0" style="fill: none;"/><path class="ylines-above crisp" d="M0,0" style="fill: none;"/><g class="overlines-above"/><g class="xaxislayer-above"/><g class="yaxislayer-above"><g class="ytick"><text text-anchor="end" x="79" y="4.199999999999999" transform="translate(0,286)" style="font-family: 'Open Sans', verdana, arial, sans-serif; font-size: 12px; fill: rgb(42, 63, 95); fill-opacity: 1; white-space: pre; opacity: 1;">0</text></g><g class="ytick"><text text-anchor="end" x="79" y="4.199999999999999" style="font-family: 'Open Sans', verdana, arial, sans-serif; font-size: 12px; fill: rgb(42, 63, 95); fill-opacity: 1; white-space: pre; opacity: 1;" transform="translate(0,248.8)">50</text></g><g class="ytick"><text text-anchor="end" x="79" y="4.199999999999999" style="font-family: 'Open Sans', verdana, arial, sans-serif; font-size: 12px; fill: rgb(42, 63, 95); fill-opacity: 1; white-space: pre; opacity: 1;" transform="translate(0,211.6)">100</text></g><g class="ytick"><text text-anchor="end" x="79" y="4.199999999999999" style="font-family: 'Open Sans', verdana, arial, sans-serif; font-size: 12px; fill: rgb(42, 63, 95); fill-opacity: 1; white-space: pre; opacity: 1;" transform="translate(0,174.4)">150</text></g><g class="ytick"><text text-anchor="end" x="79" y="4.199999999999999" style="font-family: 'Open Sans', verdana, arial, sans-serif; font-size: 12px; fill: rgb(42, 63, 95); fill-opacity: 1; white-space: pre; opacity: 1;" transform="translate(0,137.2)">200</text></g><g class="ytick"><text text-anchor="end" x="79" y="4.199999999999999" style="font-family: 'Open Sans', verdana, arial, sans-serif; font-size: 12px; fill: rgb(42, 63, 95); fill-opacity: 1; white-space: pre; opacity: 1;" transform="translate(0,100)">250</text></g></g><g class="overaxes-above"/></g><g class="subplot x2y2"><g class="layer-subplot"><g class="shapelayer"/><g class="imagelayer"/></g><g class="minor-gridlayer"><g class="x2"/><g class="y2"/></g><g class="gridlayer"><g class="x2"><path class="x2grid crisp" transform="translate(156.15,0)" d="M0,317.00000000000006v185.99999999999997" style="stroke: rgb(255, 255, 255); stroke-opacity: 1; stroke-width: 1px;"/><path class="x2grid crisp" transform="translate(240.77,0)" d="M0,317.00000000000006v185.99999999999997" style="stroke: rgb(255, 255, 255); stroke-opacity: 1; stroke-width: 1px;"/><path class="x2grid crisp" transform="translate(325.38,0)" d="M0,317.00000000000006v185.99999999999997" style="stroke: rgb(255, 255, 255); stroke-opacity: 1; stroke-width: 1px;"/><path class="x2grid crisp" transform="translate(410,0)" d="M0,317.00000000000006v185.99999999999997" style="stroke: rgb(255, 255, 255); stroke-opacity: 1; stroke-width: 1px;"/><path class="x2grid crisp" transform="translate(494.62,0)" d="M0,317.00000000000006v185.99999999999997" style="stroke: rgb(255, 255, 255); stroke-opacity: 1; stroke-width: 1px;"/></g><g class="y2"><path class="y2grid crisp" transform="translate(0,472.00000000000006)" d="M80,0h440" style="stroke: rgb(255, 255, 255); stroke-opacity: 1; stroke-width: 1px;"/><path class="y2grid crisp" transform="translate(0,410.00000000000006)" d="M80,0h440" style="stroke: rgb(255, 255, 255); stroke-opacity: 1; stroke-width: 1px;"/><path class="y2grid crisp" transform="translate(0,348.00000000000006)" d="M80,0h440" style="stroke: rgb(255, 255, 255); stroke-opacity: 1; stroke-width: 1px;"/></g></g><g class="zerolinelayer"/><path class="xlines-below"/><path class="ylines-below"/><g class="overlines-below"/><g class="xaxislayer-below"/><g class="yaxislayer-below"/><g class="overaxes-below"/><g class="plot" transform="translate(80,317.00000000000006)" clip-path="url(#clip303084x2y2plot)"><g class="scatterlayer mlayer"><g class="trace scatter trace8d6233" style="stroke-miterlimit: 2;"><g class="fills"><g><path class="js-fill" d="M0,151.4L8.46,152.43L16.92,138.82L25.38,134.08L33.85,128.37L42.31,115.23L50.77,111.31L59.23,101.62L67.69,87.22L76.15,85.81L84.62,74.29L93.08,65.57L101.54,69.74L118.46,80.37L126.92,75.34L135.38,81.61L143.85,85.86L152.31,80.27L160.77,82.38L169.23,82.47L177.69,84.83L186.15,85.69L194.62,93.09L203.08,92.96L211.54,91.95L220,93.3L228.46,92.61L236.92,96.6L245.38,94.07L253.85,94.65L262.31,93.77L270.77,98.2L279.23,97.11L287.69,94L296.15,96.86L304.62,96.51L313.08,99.58L321.54,96.88L330,93.35L338.46,94.19L346.92,91.62L355.38,89.59L363.85,94.47L372.31,98.35L380.77,106.44L389.23,113.09L397.69,125.24L406.15,135.92L414.62,136.78L440,152.8L440,155.78L431.54,156.71L423.08,159.63L414.62,144.33L406.15,149.62L397.69,137.13L389.23,124.62L380.77,113.78L372.31,110.11L363.85,97.79L355.38,95.78L346.92,101.86L338.46,105.05L330,105.61L321.54,105.99L313.08,113.95L304.62,106.15L296.15,103.84L287.69,99.61L279.23,101.64L270.77,106.9L262.31,108.04L253.85,103.81L245.38,101.26L236.92,106.07L228.46,97.85L220,99.2L211.54,96.97L203.08,105.64L194.62,99.11L186.15,95.01L177.69,94.52L169.23,93.51L160.77,89.56L152.31,89.86L143.85,89.24L135.38,91.79L126.92,92.1L118.46,93.96L110,87.36L101.54,90.2L93.08,84.2L84.62,87.8L76.15,98.15L67.69,114.96L59.23,116.99L50.77,127.09L33.85,142.52L25.38,148.14L16.92,150.77L8.46,170.09L0,170.15Z" style="fill: rgb(145, 191, 219); fill-opacity: 1; stroke-width: 0;"/></g></g><g class="errorbars"/><g class="lines"><path class="js-line" d="M0,170.15L8.46,170.09L16.92,150.77L25.38,148.14L33.85,142.52L50.77,127.09L59.23,116.99L67.69,114.96L76.15,98.15L84.62,87.8L93.08,84.2L101.54,90.2L110,87.36L118.46,93.96L126.92,92.1L135.38,91.79L143.85,89.24L152.31,89.86L160.77,89.56L169.23,93.51L177.69,94.52L186.15,95.01L194.62,99.11L203.08,105.64L211.54,96.97L220,99.2L228.46,97.85L236.92,106.07L245.38,101.26L253.85,103.81L262.31,108.04L270.77,106.9L279.23,101.64L287.69,99.61L296.15,103.84L304.62,106.15L313.08,113.95L321.54,105.99L330,105.61L338.46,105.05L346.92,101.86L355.38,95.78L363.85,97.79L372.31,110.11L380.77,113.78L389.23,124.62L397.69,137.13L406.15,149.62L414.62,144.33L423.08,159.63L431.54,156.71L440,155.78" style="vector-effect: non-scaling-stroke; fill: none; stroke: rgb(0, 0, 0); stroke-opacity: 1; stroke-width: 0.25px; opacity: 1;"/></g><g class="points"/><g class="text"/></g><g class="trace scatter trace2634e4" style="stroke-miterlimit: 2;"><g class="fills"><g><path class="js-fill" d="M0,141.42L8.46,143.26L16.92,133.62L25.38,131.65L33.85,121.01L42.31,109.45L50.77,103.03L59.23,87.77L67.69,80.61L76.15,75.02L84.62,65.67L93.08,58.34L101.54,59.15L110,66.59L118.46,61.05L126.92,62.5L135.38,67.76L143.85,77.75L152.31,72.54L169.23,75.95L177.69,78.76L194.62,83.32L203.08,88.15L220,89.96L228.46,89.38L236.92,92.89L245.38,90.5L253.85,90.25L262.31,88.68L270.77,92.52L279.23,88.91L287.69,92.39L296.15,93.28L313.08,91.03L321.54,88.8L338.46,84.65L346.92,85.09L355.38,86.09L363.85,92.38L372.31,93.04L380.77,101.73L389.23,107.19L397.69,115.32L406.15,127.26L414.62,128.56L423.08,133.39L431.54,140.58L440,138.84L440,152.8L414.62,136.78L406.15,135.92L397.69,125.24L389.23,113.09L380.77,106.44L372.31,98.35L363.85,94.47L355.38,89.59L346.92,91.62L338.46,94.19L330,93.35L321.54,96.88L313.08,99.58L304.62,96.51L296.15,96.86L287.69,94L279.23,97.11L270.77,98.2L262.31,93.77L253.85,94.65L245.38,94.07L236.92,96.6L228.46,92.61L220,93.3L211.54,91.95L203.08,92.96L194.62,93.09L186.15,85.69L177.69,84.83L169.23,82.47L160.77,82.38L152.31,80.27L143.85,85.86L135.38,81.61L126.92,75.34L118.46,80.37L101.54,69.74L93.08,65.57L84.62,74.29L76.15,85.81L67.69,87.22L59.23,101.62L50.77,111.31L42.31,115.23L33.85,128.37L25.38,134.08L16.92,138.82L8.46,152.43L0,151.4Z" style="fill: rgb(255, 255, 191); fill-opacity: 1; stroke-width: 0;"/></g></g><g class="errorbars"/><g class="lines"><path class="js-line" d="M0,151.4L8.46,152.43L16.92,138.82L25.38,134.08L33.85,128.37L42.31,115.23L50.77,111.31L59.23,101.62L67.69,87.22L76.15,85.81L84.62,74.29L93.08,65.57L101.54,69.74L118.46,80.37L126.92,75.34L135.38,81.61L143.85,85.86L152.31,80.27L160.77,82.38L169.23,82.47L177.69,84.83L186.15,85.69L194.62,93.09L203.08,92.96L211.54,91.95L220,93.3L228.46,92.61L236.92,96.6L245.38,94.07L253.85,94.65L262.31,93.77L270.77,98.2L279.23,97.11L287.69,94L296.15,96.86L304.62,96.51L313.08,99.58L321.54,96.88L330,93.35L338.46,94.19L346.92,91.62L355.38,89.59L363.85,94.47L372.31,98.35L380.77,106.44L389.23,113.09L397.69,125.24L406.15,135.92L414.62,136.78L440,152.8" style="vector-effect: non-scaling-stroke; fill: none; stroke: rgb(0, 0, 0); stroke-opacity: 1; stroke-width: 0.5px; opacity: 1;"/></g><g class="points"/><g class="text"/></g><g class="trace scatter trace55ff67" style="stroke-miterlimit: 2;"><g class="fills"><g><path class="js-fill" d="M0,133.14L8.46,132.23L16.92,129.54L25.38,124.61L33.85,115.27L42.31,101.84L50.77,92.47L59.23,83.74L67.69,68.54L84.62,58.84L93.08,53.06L101.54,48.58L110,56.94L118.46,51.95L126.92,51.69L135.38,47.84L143.85,68.3L152.31,63.61L160.77,61.67L169.23,71.74L177.69,72.46L186.15,74.67L194.62,72.44L203.08,76.89L211.54,83.61L220,84.78L228.46,84.34L245.38,84.6L253.85,86.83L262.31,82.67L270.77,86.74L279.23,84.26L287.69,90.19L296.15,85.13L304.62,84.81L313.08,84.82L321.54,79.67L330,75.85L338.46,79.79L346.92,78.7L355.38,84.21L363.85,89.89L372.31,89.8L380.77,97.8L389.23,101.64L397.69,109.39L406.15,119.78L414.62,119.5L423.08,126.37L431.54,131.92L440,125.31L440,138.84L431.54,140.58L423.08,133.39L414.62,128.56L406.15,127.26L397.69,115.32L389.23,107.19L380.77,101.73L372.31,93.04L363.85,92.38L355.38,86.09L346.92,85.09L338.46,84.65L321.54,88.8L313.08,91.03L296.15,93.28L287.69,92.39L279.23,88.91L270.77,92.52L262.31,88.68L253.85,90.25L245.38,90.5L236.92,92.89L228.46,89.38L220,89.96L203.08,88.15L194.62,83.32L177.69,78.76L169.23,75.95L152.31,72.54L143.85,77.75L135.38,67.76L126.92,62.5L118.46,61.05L110,66.59L101.54,59.15L93.08,58.34L84.62,65.67L76.15,75.02L67.69,80.61L59.23,87.77L50.77,103.03L42.31,109.45L33.85,121.01L25.38,131.65L16.92,133.62L8.46,143.26L0,141.42Z" style="fill: rgb(255, 255, 191); fill-opacity: 1; stroke-width: 0;"/></g></g><g class="errorbars"/><g class="lines"><path class="js-line" d="M0,141.42L8.46,143.26L16.92,133.62L25.38,131.65L33.85,121.01L42.31,109.45L50.77,103.03L59.23,87.77L67.69,80.61L76.15,75.02L84.62,65.67L93.08,58.34L101.54,59.15L110,66.59L118.46,61.05L126.92,62.5L135.38,67.76L143.85,77.75L152.31,72.54L169.23,75.95L177.69,78.76L194.62,83.32L203.08,88.15L220,89.96L228.46,89.38L236.92,92.89L245.38,90.5L253.85,90.25L262.31,88.68L270.77,92.52L279.23,88.91L287.69,92.39L296.15,93.28L313.08,91.03L321.54,88.8L338.46,84.65L346.92,85.09L355.38,86.09L363.85,92.38L372.31,93.04L380.77,101.73L389.23,107.19L397.69,115.32L406.15,127.26L414.62,128.56L423.08,133.39L431.54,140.58L440,138.84" style="vector-effect: non-scaling-stroke; fill: none; stroke: rgb(0, 0, 0); stroke-opacity: 1; stroke-width: 1px; opacity: 1;"/></g><g class="points"/><g class="text"/></g><g class="trace scatter trace706954" style="stroke-miterlimit: 2;"><g class="fills"><g><path class="js-fill" d="M0,106.1L8.46,121.44L16.92,116.86L25.38,118.13L33.85,104.2L50.77,67.71L59.23,64.01L67.69,55.48L76.15,51.41L84.62,52.31L93.08,45.77L101.54,39.46L110,34.93L118.46,38.6L126.92,34.52L135.38,21.05L143.85,46.37L152.31,42.95L160.77,37.26L169.23,59.13L177.69,56.82L186.15,58.24L194.62,52.06L203.08,55.23L211.54,81.16L220,73.73L228.46,82.15L236.92,74.33L245.38,71.17L253.85,83.03L262.31,67.76L270.77,75.33L279.23,67.52L287.69,86.48L296.15,69.56L304.62,72.75L313.08,72.24L321.54,73.17L330,65.85L338.46,64.98L346.92,59.93L355.38,77.76L363.85,85.43L372.31,85.22L380.77,87.14L389.23,94.82L397.69,96.61L423.08,117.99L431.54,124.55L440,121.92L440,125.31L431.54,131.92L423.08,126.37L414.62,119.5L406.15,119.78L397.69,109.39L389.23,101.64L380.77,97.8L372.31,89.8L363.85,89.89L355.38,84.21L346.92,78.7L338.46,79.79L330,75.85L321.54,79.67L313.08,84.82L304.62,84.81L296.15,85.13L287.69,90.19L279.23,84.26L270.77,86.74L262.31,82.67L253.85,86.83L245.38,84.6L228.46,84.34L220,84.78L211.54,83.61L203.08,76.89L194.62,72.44L186.15,74.67L177.69,72.46L169.23,71.74L160.77,61.67L152.31,63.61L143.85,68.3L135.38,47.84L126.92,51.69L118.46,51.95L110,56.94L101.54,48.58L93.08,53.06L84.62,58.84L67.69,68.54L59.23,83.74L50.77,92.47L42.31,101.84L33.85,115.27L25.38,124.61L16.92,129.54L8.46,132.23L0,133.14Z" style="fill: rgb(252, 141, 89); fill-opacity: 1; stroke-width: 0;"/></g></g><g class="errorbars"/><g class="lines"><path class="js-line" d="M0,133.14L8.46,132.23L16.92,129.54L25.38,124.61L33.85,115.27L42.31,101.84L50.77,92.47L59.23,83.74L67.69,68.54L84.62,58.84L93.08,53.06L101.54,48.58L110,56.94L118.46,51.95L126.92,51.69L135.38,47.84L143.85,68.3L152.31,63.61L160.77,61.67L169.23,71.74L177.69,72.46L186.15,74.67L194.62,72.44L203.08,76.89L211.54,83.61L220,84.78L228.46,84.34L245.38,84.6L253.85,86.83L262.31,82.67L270.77,86.74L279.23,84.26L287.69,90.19L296.15,85.13L304.62,84.81L313.08,84.82L321.54,79.67L330,75.85L338.46,79.79L346.92,78.7L355.38,84.21L363.85,89.89L372.31,89.8L380.77,97.8L389.23,101.64L397.69,109.39L406.15,119.78L414.62,119.5L423.08,126.37L431.54,131.92L440,125.31" style="vector-effect: non-scaling-stroke; fill: none; stroke: rgb(0, 0, 0); stroke-opacity: 1; stroke-width: 0.5px; opacity: 1;"/></g><g class="points"/><g class="text"/></g><g class="trace scatter tracecbc2fb" style="stroke-miterlimit: 2;"><g class="fills"/><g class="errorbars"/><g class="lines"><path class="js-line" d="M0,106.1L8.46,121.44L16.92,116.86L25.38,118.13L33.85,104.2L50.77,67.71L59.23,64.01L67.69,55.48L76.15,51.41L84.62,52.31L93.08,45.77L101.54,39.46L110,34.93L118.46,38.6L126.92,34.52L135.38,21.05L143.85,46.37L152.31,42.95L160.77,37.26L169.23,59.13L177.69,56.82L186.15,58.24L194.62,52.06L203.08,55.23L211.54,81.16L220,73.73L228.46,82.15L236.92,74.33L245.38,71.17L253.85,83.03L262.31,67.76L270.77,75.33L279.23,67.52L287.69,86.48L296.15,69.56L304.62,72.75L313.08,72.24L321.54,73.17L330,65.85L338.46,64.98L346.92,59.93L355.38,77.76L363.85,85.43L372.31,85.22L380.77,87.14L389.23,94.82L397.69,96.61L423.08,117.99L431.54,124.55L440,121.92" style="vector-effect: non-scaling-stroke; fill: none; stroke: rgb(0, 0, 0); stroke-opacity: 1; stroke-width: 0.25px; opacity: 1;"/></g><g class="points"/><g class="text"/></g><g class="trace scatter trace519cf6" style="stroke-miterlimit: 2; opacity: 1;"><g class="fills"/><g class="errorbars"/><g class="lines"/><g class="points"><path class="point" transform="translate(253.85,80.6)" d="M4,0A4,4 0 1,1 0,-4A4,4 0 0,1 4,0ZM0,0.5L0.5,0L0,-0.5L-0.5,0Z" style="opacity: 1; stroke: rgb(0, 0, 0); stroke-opacity: 1; stroke-width: 1px; fill: none;"/><path class="point" transform="translate(262.31,111.6)" d="M4,0A4,4 0 1,1 0,-4A4,4 0 0,1 4,0ZM0,0.5L0.5,0L0,-0.5L-0.5,0Z" style="opacity: 1; stroke: rgb(0, 0, 0); stroke-opacity: 1; stroke-width: 1px; fill: none;"/><path class="point" transform="translate(270.77,80.6)" d="M4,0A4,4 0 1,1 0,-4A4,4 0 0,1 4,0ZM0,0.5L0.5,0L0,-0.5L-0.5,0Z" style="opacity: 1; stroke: rgb(0, 0, 0); stroke-opacity: 1; stroke-width: 1px; fill: none;"/><path class="point" transform="translate(279.23,80.6)" d="M4,0A4,4 0 1,1 0,-4A4,4 0 0,1 4,0ZM0,0.5L0.5,0L0,-0.5L-0.5,0Z" style="opacity: 1; stroke: rgb(0, 0, 0); stroke-opacity: 1; stroke-width: 1px; fill: none;"/></g><g class="text"/></g></g></g><g class="overplot"/><path class="xlines-above crisp" d="M0,0" style="fill: none;"/><path class="ylines-above crisp" d="M0,0" style="fill: none;"/><g class="overlines-above"/><g class="xaxislayer-above"/><g class="yaxislayer-above"><g class="y2tick"><text text-anchor="end" x="79" y="4.199999999999999" transform="translate(0,472.00000000000006)" style="font-family: 'Open Sans', verdana, arial, sans-serif; font-size: 12px; fill: rgb(42, 63, 95); fill-opacity: 1; white-space: pre; opacity: 1;">20</text></g><g class="y2tick"><text text-anchor="end" x="79" y="4.199999999999999" style="font-family: 'Open Sans', verdana, arial, sans-serif; font-size: 12px; fill: rgb(42, 63, 95); fill-opacity: 1; white-space: pre; opacity: 1;" transform="translate(0,410.00000000000006)">30</text></g><g class="y2tick"><text text-anchor="end" x="79" y="4.199999999999999" style="font-family: 'Open Sans', verdana, arial, sans-serif; font-size: 12px; fill: rgb(42, 63, 95); fill-opacity: 1; white-space: pre; opacity: 1;" transform="translate(0,348.00000000000006)">40</text></g></g><g class="overaxes-above"/></g><g class="subplot x3y3"><g class="layer-subplot"><g class="shapelayer"/><g class="imagelayer"/></g><g class="minor-gridlayer"><g class="x3"/><g class="y3"/></g><g class="gridlayer"><g class="x3"><path class="x3grid crisp" transform="translate(156.15,0)" d="M0,534v186" style="stroke: rgb(255, 255, 255); stroke-opacity: 1; stroke-width: 1px;"/><path class="x3grid crisp" transform="translate(240.77,0)" d="M0,534v186" style="stroke: rgb(255, 255, 255); stroke-opacity: 1; stroke-width: 1px;"/><path class="x3grid crisp" transform="translate(325.38,0)" d="M0,534v186" style="stroke: rgb(255, 255, 255); stroke-opacity: 1; stroke-width: 1px;"/><path class="x3grid crisp" transform="translate(410,0)" d="M0,534v186" style="stroke: rgb(255, 255, 255); stroke-opacity: 1; stroke-width: 1px;"/><path class="x3grid crisp" transform="translate(494.62,0)" d="M0,534v186" style="stroke: rgb(255, 255, 255); stroke-opacity: 1; stroke-width: 1px;"/></g><g class="y3"><path class="y3grid crisp" transform="translate(0,682.8)" d="M80,0h440" style="stroke: rgb(255, 255, 255); stroke-opacity: 1; stroke-width: 1px;"/><path class="y3grid crisp" transform="translate(0,645.6)" d="M80,0h440" style="stroke: rgb(255, 255, 255); stroke-opacity: 1; stroke-width: 1px;"/><path class="y3grid crisp" transform="translate(0,608.4)" d="M80,0h440" style="stroke: rgb(255, 255, 255); stroke-opacity: 1; stroke-width: 1px;"/><path class="y3grid crisp" transform="translate(0,571.2)" d="M80,0h440" style="stroke: rgb(255, 255, 255); stroke-opacity: 1; stroke-width: 1px;"/></g></g><g class="zerolinelayer"/><path class="xlines-below"/><path class="ylines-below"/><g class="overlines-below"/><g class="xaxislayer-below"/><g class="yaxislayer-below"/><g class="overaxes-below"/><g class="plot" transform="translate(80,534)" clip-path="url(#clip303084x3y3plot)"><g class="scatterlayer mlayer"><g class="trace scatter trace2f270c" style="stroke-miterlimit: 2;"><g class="fills"><g><path class="js-fill" d="M0,124.73L8.46,134.45L16.92,124.59L25.38,121.32L33.85,119.49L42.31,108.27L50.77,104.32L59.23,97.55L67.69,81.15L76.15,76.69L84.62,71.06L93.08,62.16L101.54,60.59L110,59.02L118.46,58.88L126.92,52.15L135.38,53.25L143.85,52.22L152.31,46.17L169.23,38.34L177.69,38.13L186.15,35.85L194.62,35.39L203.08,35.45L211.54,36.47L220,35.48L228.46,36.27L253.85,37.72L262.31,36.83L279.23,38.55L287.69,37.75L296.15,38.18L304.62,39.73L313.08,41.29L321.54,40.85L330,42.67L338.46,45.96L355.38,51.37L363.85,63.01L372.31,69.06L380.77,84.47L389.23,88.18L397.69,99.5L406.15,105.77L414.62,109.04L423.08,119.29L431.54,121.74L440,141.68L440,153.31L431.54,134.32L423.08,142.48L414.62,120.75L406.15,116.4L397.69,118.86L389.23,99.81L380.77,94.03L372.31,84.76L363.85,71.62L355.38,57.5L346.92,54.46L338.46,49.46L321.54,44.16L313.08,46.44L304.62,42.59L296.15,39.59L287.69,40.89L279.23,40.09L270.77,42.02L262.31,42.55L253.85,41.03L245.38,41.06L228.46,37.76L220,38.7L211.54,37.68L203.08,40.01L194.62,40.56L186.15,40.6L177.69,45.15L169.23,42.96L160.77,47.71L152.31,55.88L143.85,57.88L135.38,63.12L126.92,64.95L118.46,65.85L110,71.97L101.54,80.03L93.08,73.73L84.62,90.81L67.69,94.27L59.23,118.12L50.77,133.6L42.31,136.41L33.85,146.21L25.38,137.29L16.92,138.35L8.46,156.53L0,127.7Z" style="fill: rgb(90, 180, 172); fill-opacity: 1; stroke-width: 0;"/></g></g><g class="errorbars"/><g class="lines"><path class="js-line" d="M0,127.7L8.46,156.53L16.92,138.35L25.38,137.29L33.85,146.21L42.31,136.41L50.77,133.6L59.23,118.12L67.69,94.27L84.62,90.81L93.08,73.73L101.54,80.03L110,71.97L118.46,65.85L126.92,64.95L135.38,63.12L143.85,57.88L152.31,55.88L160.77,47.71L169.23,42.96L177.69,45.15L186.15,40.6L194.62,40.56L203.08,40.01L211.54,37.68L220,38.7L228.46,37.76L245.38,41.06L253.85,41.03L262.31,42.55L270.77,42.02L279.23,40.09L287.69,40.89L296.15,39.59L304.62,42.59L313.08,46.44L321.54,44.16L338.46,49.46L346.92,54.46L355.38,57.5L363.85,71.62L372.31,84.76L380.77,94.03L389.23,99.81L397.69,118.86L406.15,116.4L414.62,120.75L423.08,142.48L431.54,134.32L440,153.31" style="vector-effect: non-scaling-stroke; fill: none; stroke: rgb(0, 0, 0); stroke-opacity: 1; stroke-width: 0.25px; opacity: 1;"/></g><g class="points"/><g class="text"/></g><g class="trace scatter trace163b3e" style="stroke-miterlimit: 2;"><g class="fills"><g><path class="js-fill" d="M0,121.73L8.46,124.98L16.92,116.85L25.38,114.37L33.85,112.89L42.31,98.33L50.77,93.21L67.69,75.52L76.15,72L84.62,64.1L93.08,54.73L101.54,51.51L110,52.18L118.46,52.72L126.92,49.94L135.38,47.11L143.85,48.28L152.31,41.47L160.77,38.22L177.69,35.54L186.15,34.62L194.62,34.02L203.08,34.21L211.54,35.12L220,33.77L228.46,33.57L236.92,35.32L253.85,36.81L262.31,34.52L270.77,35.57L279.23,35.46L304.62,38.58L313.08,37.68L321.54,38.48L330,40.66L338.46,41.38L346.92,45.85L355.38,50.24L363.85,57.64L372.31,60.25L380.77,72.57L389.23,80.81L397.69,90.99L414.62,105.01L423.08,109.18L431.54,116.53L440,125L440,141.68L431.54,121.74L423.08,119.29L414.62,109.04L406.15,105.77L397.69,99.5L389.23,88.18L380.77,84.47L372.31,69.06L363.85,63.01L355.38,51.37L338.46,45.96L330,42.67L321.54,40.85L313.08,41.29L304.62,39.73L296.15,38.18L287.69,37.75L279.23,38.55L262.31,36.83L253.85,37.72L228.46,36.27L220,35.48L211.54,36.47L203.08,35.45L194.62,35.39L186.15,35.85L177.69,38.13L169.23,38.34L152.31,46.17L143.85,52.22L135.38,53.25L126.92,52.15L118.46,58.88L110,59.02L101.54,60.59L93.08,62.16L84.62,71.06L76.15,76.69L67.69,81.15L59.23,97.55L50.77,104.32L42.31,108.27L33.85,119.49L25.38,121.32L16.92,124.59L8.46,134.45L0,124.73Z" style="fill: rgb(245, 245, 245); fill-opacity: 1; stroke-width: 0;"/></g></g><g class="errorbars"/><g class="lines"><path class="js-line" d="M0,124.73L8.46,134.45L16.92,124.59L25.38,121.32L33.85,119.49L42.31,108.27L50.77,104.32L59.23,97.55L67.69,81.15L76.15,76.69L84.62,71.06L93.08,62.16L101.54,60.59L110,59.02L118.46,58.88L126.92,52.15L135.38,53.25L143.85,52.22L152.31,46.17L169.23,38.34L177.69,38.13L186.15,35.85L194.62,35.39L203.08,35.45L211.54,36.47L220,35.48L228.46,36.27L253.85,37.72L262.31,36.83L279.23,38.55L287.69,37.75L296.15,38.18L304.62,39.73L313.08,41.29L321.54,40.85L330,42.67L338.46,45.96L355.38,51.37L363.85,63.01L372.31,69.06L380.77,84.47L389.23,88.18L397.69,99.5L406.15,105.77L414.62,109.04L423.08,119.29L431.54,121.74L440,141.68" style="vector-effect: non-scaling-stroke; fill: none; stroke: rgb(0, 0, 0); stroke-opacity: 1; stroke-width: 0.5px; opacity: 1;"/></g><g class="points"/><g class="text"/></g><g class="trace scatter trace4c5e7b" style="stroke-miterlimit: 2;"><g class="fills"><g><path class="js-fill" d="M0,112.59L8.46,115.49L16.92,112.6L25.38,108.61L33.85,100.64L42.31,89.26L50.77,82.28L67.69,65.72L76.15,62.96L84.62,55.98L93.08,52.41L101.54,45.55L110,48.64L126.92,40.99L135.38,45.05L143.85,40.73L152.31,37.62L169.23,33.21L177.69,32.01L186.15,32.2L194.62,30.7L211.54,32.34L220,32.01L236.92,32.82L245.38,34.5L262.31,32.02L270.77,33.7L279.23,33.34L287.69,34.58L296.15,36.44L304.62,37.02L321.54,36.33L330,34.54L346.92,40.02L355.38,47.14L363.85,54.09L372.31,55.09L380.77,66.52L389.23,76.58L397.69,86.11L406.15,92.82L414.62,94.16L423.08,99.54L440,121.73L440,125L431.54,116.53L423.08,109.18L414.62,105.01L397.69,90.99L389.23,80.81L380.77,72.57L372.31,60.25L363.85,57.64L355.38,50.24L346.92,45.85L338.46,41.38L330,40.66L321.54,38.48L313.08,37.68L304.62,38.58L279.23,35.46L270.77,35.57L262.31,34.52L253.85,36.81L236.92,35.32L228.46,33.57L220,33.77L211.54,35.12L203.08,34.21L194.62,34.02L186.15,34.62L177.69,35.54L160.77,38.22L152.31,41.47L143.85,48.28L135.38,47.11L126.92,49.94L118.46,52.72L110,52.18L101.54,51.51L93.08,54.73L84.62,64.1L76.15,72L67.69,75.52L50.77,93.21L42.31,98.33L33.85,112.89L25.38,114.37L16.92,116.85L8.46,124.98L0,121.73Z" style="fill: rgb(245, 245, 245); fill-opacity: 1; stroke-width: 0;"/></g></g><g class="errorbars"/><g class="lines"><path class="js-line" d="M0,121.73L8.46,124.98L16.92,116.85L25.38,114.37L33.85,112.89L42.31,98.33L50.77,93.21L67.69,75.52L76.15,72L84.62,64.1L93.08,54.73L101.54,51.51L110,52.18L118.46,52.72L126.92,49.94L135.38,47.11L143.85,48.28L152.31,41.47L160.77,38.22L177.69,35.54L186.15,34.62L194.62,34.02L203.08,34.21L211.54,35.12L220,33.77L228.46,33.57L236.92,35.32L253.85,36.81L262.31,34.52L270.77,35.57L279.23,35.46L304.62,38.58L313.08,37.68L321.54,38.48L330,40.66L338.46,41.38L346.92,45.85L355.38,50.24L363.85,57.64L372.31,60.25L380.77,72.57L389.23,80.81L397.69,90.99L414.62,105.01L423.08,109.18L431.54,116.53L440,125" style="vector-effect: non-scaling-stroke; fill: none; stroke: rgb(0, 0, 0); stroke-opacity: 1; stroke-width: 1px; opacity: 1;"/></g><g class="points"/><g class="text"/></g><g class="trace scatter traced13042" style="stroke-miterlimit: 2;"><g class="fills"><g><path class="js-fill" d="M0,101.81L8.46,102.92L16.92,98.77L25.38,92.79L33.85,85.1L42.31,78.95L50.77,55.01L59.23,61.11L67.69,52.31L84.62,47.44L93.08,42.19L101.54,38.92L110,39.55L118.46,33.53L126.92,29.68L135.38,33.28L143.85,28.57L152.31,32.26L160.77,28.35L169.23,26.8L177.69,28.64L186.15,28.33L194.62,24.56L203.08,29.26L211.54,30.79L220,31.55L228.46,28.07L236.92,31.37L245.38,30.11L253.85,26.92L262.31,30.56L270.77,31.09L279.23,25.72L287.69,33.37L296.15,34.57L304.62,35.36L313.08,30.38L321.54,32.26L330,24.92L338.46,26.77L346.92,29.61L355.38,42.65L363.85,48.87L372.31,51.16L380.77,57.68L389.23,66.68L397.69,73.58L414.62,77.81L423.08,90.35L431.54,96.85L440,100.34L440,121.73L423.08,99.54L414.62,94.16L406.15,92.82L397.69,86.11L389.23,76.58L380.77,66.52L372.31,55.09L363.85,54.09L355.38,47.14L346.92,40.02L330,34.54L321.54,36.33L304.62,37.02L296.15,36.44L287.69,34.58L279.23,33.34L270.77,33.7L262.31,32.02L245.38,34.5L236.92,32.82L220,32.01L211.54,32.34L194.62,30.7L186.15,32.2L177.69,32.01L169.23,33.21L152.31,37.62L143.85,40.73L135.38,45.05L126.92,40.99L110,48.64L101.54,45.55L93.08,52.41L84.62,55.98L76.15,62.96L67.69,65.72L50.77,82.28L42.31,89.26L33.85,100.64L25.38,108.61L16.92,112.6L8.46,115.49L0,112.59Z" style="fill: rgb(216, 179, 101); fill-opacity: 1; stroke-width: 0;"/></g></g><g class="errorbars"/><g class="lines"><path class="js-line" d="M0,112.59L8.46,115.49L16.92,112.6L25.38,108.61L33.85,100.64L42.31,89.26L50.77,82.28L67.69,65.72L76.15,62.96L84.62,55.98L93.08,52.41L101.54,45.55L110,48.64L126.92,40.99L135.38,45.05L143.85,40.73L152.31,37.62L169.23,33.21L177.69,32.01L186.15,32.2L194.62,30.7L211.54,32.34L220,32.01L236.92,32.82L245.38,34.5L262.31,32.02L270.77,33.7L279.23,33.34L287.69,34.58L296.15,36.44L304.62,37.02L321.54,36.33L330,34.54L346.92,40.02L355.38,47.14L363.85,54.09L372.31,55.09L380.77,66.52L389.23,76.58L397.69,86.11L406.15,92.82L414.62,94.16L423.08,99.54L440,121.73" style="vector-effect: non-scaling-stroke; fill: none; stroke: rgb(0, 0, 0); stroke-opacity: 1; stroke-width: 0.5px; opacity: 1;"/></g><g class="points"/><g class="text"/></g><g class="trace scatter trace193880" style="stroke-miterlimit: 2;"><g class="fills"/><g class="errorbars"/><g class="lines"><path class="js-line" d="M0,101.81L8.46,102.92L16.92,98.77L25.38,92.79L33.85,85.1L42.31,78.95L50.77,55.01L59.23,61.11L67.69,52.31L84.62,47.44L93.08,42.19L101.54,38.92L110,39.55L118.46,33.53L126.92,29.68L135.38,33.28L143.85,28.57L152.31,32.26L160.77,28.35L169.23,26.8L177.69,28.64L186.15,28.33L194.62,24.56L203.08,29.26L211.54,30.79L220,31.55L228.46,28.07L236.92,31.37L245.38,30.11L253.85,26.92L262.31,30.56L270.77,31.09L279.23,25.72L287.69,33.37L296.15,34.57L304.62,35.36L313.08,30.38L321.54,32.26L330,24.92L338.46,26.77L346.92,29.61L355.38,42.65L363.85,48.87L372.31,51.16L380.77,57.68L389.23,66.68L397.69,73.58L414.62,77.81L423.08,90.35L431.54,96.85L440,100.34" style="vector-effect: non-scaling-stroke; fill: none; stroke: rgb(0, 0, 0); stroke-opacity: 1; stroke-width: 0.25px; opacity: 1;"/></g><g class="points"/><g class="text"/></g><g class="trace scatter trace675796" style="stroke-miterlimit: 2; opacity: 1;"><g class="fills"/><g class="errorbars"/><g class="lines"/><g class="points"><path class="point" transform="translate(253.85,22.32)" d="M4,0A4,4 0 1,1 0,-4A4,4 0 0,1 4,0ZM0,0.5L0.5,0L0,-0.5L-0.5,0Z" style="opacity: 1; stroke: rgb(0, 0, 0); stroke-opacity: 1; stroke-width: 1px; fill: none;"/><path class="point" transform="translate(262.31,29.76)" d="M4,0A4,4 0 1,1 0,-4A4,4 0 0,1 4,0ZM0,0.5L0.5,0L0,-0.5L-0.5,0Z" style="opacity: 1; stroke: rgb(0, 0, 0); stroke-opacity: 1; stroke-width: 1px; fill: none;"/><path class="point" transform="translate(270.77,29.76)" d="M4,0A4,4 0 1,1 0,-4A4,4 0 0,1 4,0ZM0,0.5L0.5,0L0,-0.5L-0.5,0Z" style="opacity: 1; stroke: rgb(0, 0, 0); stroke-opacity: 1; stroke-width: 1px; fill: none;"/><path class="point" transform="translate(279.23,29.76)" d="M4,0A4,4 0 1,1 0,-4A4,4 0 0,1 4,0ZM0,0.5L0.5,0L0,-0.5L-0.5,0Z" style="opacity: 1; stroke: rgb(0, 0, 0); stroke-opacity: 1; stroke-width: 1px; fill: none;"/></g><g class="text"/></g></g></g><g class="overplot"/><path class="xlines-above crisp" d="M0,0" style="fill: none;"/><path class="ylines-above crisp" d="M0,0" style="fill: none;"/><g class="overlines-above"/><g class="xaxislayer-above"><g class="x3tick"><text text-anchor="middle" x="0" y="733" transform="translate(156.15,0)" style="font-family: 'Open Sans', verdana, arial, sans-serif; font-size: 12px; fill: rgb(42, 63, 95); fill-opacity: 1; white-space: pre; opacity: 1;">10</text></g><g class="x3tick"><text text-anchor="middle" x="0" y="733" style="font-family: 'Open Sans', verdana, arial, sans-serif; font-size: 12px; fill: rgb(42, 63, 95); fill-opacity: 1; white-space: pre; opacity: 1;" transform="translate(240.77,0)">20</text></g><g class="x3tick"><text text-anchor="middle" x="0" y="733" style="font-family: 'Open Sans', verdana, arial, sans-serif; font-size: 12px; fill: rgb(42, 63, 95); fill-opacity: 1; white-space: pre; opacity: 1;" transform="translate(325.38,0)">30</text></g><g class="x3tick"><text text-anchor="middle" x="0" y="733" style="font-family: 'Open Sans', verdana, arial, sans-serif; font-size: 12px; fill: rgb(42, 63, 95); fill-opacity: 1; white-space: pre; opacity: 1;" transform="translate(410,0)">40</text></g><g class="x3tick"><text text-anchor="middle" x="0" y="733" style="font-family: 'Open Sans', verdana, arial, sans-serif; font-size: 12px; fill: rgb(42, 63, 95); fill-opacity: 1; white-space: pre; opacity: 1;" transform="translate(494.62,0)">50</text></g></g><g class="yaxislayer-above"><g class="y3tick"><text text-anchor="end" x="79" y="4.199999999999999" transform="translate(0,720)" style="font-family: 'Open Sans', verdana, arial, sans-serif; font-size: 12px; fill: rgb(42, 63, 95); fill-opacity: 1; white-space: pre; opacity: 1;">5</text></g><g class="y3tick"><text text-anchor="end" x="79" y="4.199999999999999" style="font-family: 'Open Sans', verdana, arial, sans-serif; font-size: 12px; fill: rgb(42, 63, 95); fill-opacity: 1; white-space: pre; opacity: 1;" transform="translate(0,682.8)">10</text></g><g class="y3tick"><text text-anchor="end" x="79" y="4.199999999999999" style="font-family: 'Open Sans', verdana, arial, sans-serif; font-size: 12px; fill: rgb(42, 63, 95); fill-opacity: 1; white-space: pre; opacity: 1;" transform="translate(0,645.6)">15</text></g><g class="y3tick"><text text-anchor="end" x="79" y="4.199999999999999" style="font-family: 'Open Sans', verdana, arial, sans-serif; font-size: 12px; fill: rgb(42, 63, 95); fill-opacity: 1; white-space: pre; opacity: 1;" transform="translate(0,608.4)">20</text></g><g class="y3tick"><text text-anchor="end" x="79" y="4.199999999999999" style="font-family: 'Open Sans', verdana, arial, sans-serif; font-size: 12px; fill: rgb(42, 63, 95); fill-opacity: 1; white-space: pre; opacity: 1;" transform="translate(0,571.2)">25</text></g><g class="y3tick"><text text-anchor="end" x="79" y="4.199999999999999" style="font-family: 'Open Sans', verdana, arial, sans-serif; font-size: 12px; fill: rgb(42, 63, 95); fill-opacity: 1; white-space: pre; opacity: 1;" transform="translate(0,534)">30</text></g></g><g class="overaxes-above"/></g></g><g class="polarlayer"/><g class="smithlayer"/><g class="ternarylayer"/><g class="geolayer"/><g class="funnelarealayer"/><g class="pielayer"/><g class="iciclelayer"/><g class="treemaplayer"/><g class="sunburstlayer"/><g class="glimages"/><defs id="topdefs-303084"><g class="clips"/></defs><g class="layer-above"><g class="imagelayer"/><g class="shapelayer"/></g><g class="infolayer"><g class="g-gtitle"><text class="gtitle" x="30" y="50" text-anchor="start" dy="0em" style="font-family: 'Open Sans', verdana, arial, sans-serif; font-size: 17px; fill: rgb(42, 63, 95); opacity: 1; font-weight: normal; white-space: pre;">Climatology and S2S forecast for Chuadanga</text></g><g class="g-xtitle"/><g class="g-x2title"/><g class="g-x3title"/><g class="g-ytitle"><text class="ytitle" transform="rotate(-90,34.16875,193)" x="34.16875" y="193" text-anchor="middle" style="font-family: 'Open Sans', verdana, arial, sans-serif; font-size: 14px; fill: rgb(42, 63, 95); opacity: 1; font-weight: normal; white-space: pre;">[mm]</text></g><g class="g-y2title"><text class="y2title" transform="rotate(-90,40.840625,410.00000000000006)" x="40.840625" y="410.00000000000006" text-anchor="middle" style="font-family: 'Open Sans', verdana, arial, sans-serif; font-size: 14px; fill: rgb(42, 63, 95); opacity: 1; font-weight: normal; white-space: pre;">[C]</text></g><g class="g-y3title"><text class="y3title" transform="rotate(-90,40.840625,627)" x="40.840625" y="627" text-anchor="middle" style="font-family: 'Open Sans', verdana, arial, sans-serif; font-size: 14px; fill: rgb(42, 63, 95); opacity: 1; font-weight: normal; white-space: pre;">[C]</text></g><g class="annotation" data-index="0" style="opacity: 1;"><g class="annotation-text-g" transform="rotate(0,300,89.5)"><g class="cursor-pointer" transform="translate(237,79)"><rect class="bg" x="0.5" y="0.5" width="126" height="20" style="stroke-width: 1px; stroke: rgb(0, 0, 0); stroke-opacity: 0; fill: rgb(0, 0, 0); fill-opacity: 0;"/><text class="annotation-text" text-anchor="middle" x="63.359375" y="16" style="font-family: 'Open Sans', verdana, arial, sans-serif; font-size: 16px; fill: rgb(42, 63, 95); fill-opacity: 1; white-space: pre;">Precipitation sum</text></g></g></g><g class="annotation" data-index="1" style="opacity: 1;"><g class="annotation-text-g" transform="rotate(0,300,306.50000000000006)"><g class="cursor-pointer" transform="translate(196,296)"><rect class="bg" x="0.5" y="0.5" width="208" height="20" style="stroke-width: 1px; stroke: rgb(0, 0, 0); stroke-opacity: 0; fill: rgb(0, 0, 0); fill-opacity: 0;"/><text class="annotation-text" text-anchor="middle" x="104.265625" y="16" style="font-family: 'Open Sans', verdana, arial, sans-serif; font-size: 16px; fill: rgb(42, 63, 95); fill-opacity: 1; white-space: pre;">Mean maximum temperature</text></g></g></g><g class="annotation" data-index="2" style="opacity: 1;"><g class="annotation-text-g" transform="rotate(0,300,523.5)"><g class="cursor-pointer" transform="translate(198,513)"><rect class="bg" x="0.5" y="0.5" width="203" height="20" style="stroke-width: 1px; stroke: rgb(0, 0, 0); stroke-opacity: 0; fill: rgb(0, 0, 0); fill-opacity: 0;"/><text class="annotation-text" text-anchor="middle" x="102.046875" y="16" style="font-family: 'Open Sans', verdana, arial, sans-serif; font-size: 16px; fill: rgb(42, 63, 95); fill-opacity: 1; white-space: pre;">Mean minimum temperature</text></g></g></g><g class="annotation" data-index="3" style="opacity: 1;"><g class="annotation-text-g" transform="rotate(0,300,760.5)"><g class="cursor-pointer" transform="translate(277,750)"><rect class="bg" x="0.5" y="0.5" width="45" height="20" style="stroke-width: 1px; stroke: rgb(0, 0, 0); stroke-opacity: 0; fill: rgb(0, 0, 0); fill-opacity: 0;"/><text class="annotation-text" text-anchor="middle" x="22.3125" y="16" style="font-family: 'Open Sans', verdana, arial, sans-serif; font-size: 16px; fill: rgb(42, 63, 95); fill-opacity: 1; white-space: pre;">Week</text></g></g></g></g></svg>