<svg class="main-svg" xmlns="http://www.w3.org/2000/svg" xmlns:xlink="http://www.w3.org/1999/xlink" width="600" height="800" style="" viewBox="0 0 600 800"><rect x="0" y="0" width="600" height="800" style="fill: rgb(255, 255, 255); fill-opacity: 1;"/><defs id="defs-f3b694"><g class="clips"><clipPath id="clipf3b694xyplot" class="plotclip"><rect width="440" height="186.00000000000003"/></clipPath><clipPath id="clipf3b694x2y2plot" class="plotclip"><rect width="440" height="185.99999999999997"/></clipPath><clipPath id="clipf3b694x3y3plot" class="plotclip"><rect width="440" height="186"/></clipPath><clipPath class="axesclip" id="clipf3b694x"><rect x="80" y="0" width="440" height="800"/></clipPath><clipPath class="axesclip" id="clipf3b694y"><rect x="0" y="100" width="600" height="186.00000000000003"/></clipPath><clipPath class="axesclip" id="clipf3b694xy"><rect x="80" y="100" width="440" height="186.00000000000003"/></clipPath><clipPath class="axesclip" id="clipf3b694y2"><rect x="0" y="317.00000000000006" width="600" height="185.99999999999997"/></clipPath><clipPath class="axesclip" id="clipf3b694xy2"><rect x="80" y="317.00000000000006" width="440" height="185.99999999999997"/></clipPath><clipPath class="axesclip" id="clipf3b694y3"><rect x="0" y="534" width="600" height="186"/></clipPath><clipPath class="axesclip" id="clipf3b694xy3"><rect x="80" y="534" width="440" height="186"/></clipPath><clipPath class="axesclip" id="clipf3b694x2"><rect x="80" y="0" width="440" height="800"/></clipPath><clipPath class="axesclip" id="clipf3b694x2y"><rect x="80" y="100" width="440" height="186.00000000000003"/></clipPath><clipPath class="axesclip" id="clipf3b694x2y2"><rect x="80" y="317.00000000000006" width="440" height="185.99999999999997"/></clipPath><clipPath class="axesclip" id="clipf3b694x2y3"><rect x="80" y="534" width="440" height="186"/></clipPath><clipPath class="axesclip" id="clipf3b694x3"><rect x="80" y="0" width="440" height="800"/></clipPath><clipPath class="axesclip" id="clipf3b694x3y"><rect x="80" y="100" width="440" height="186.00000000000003"/></clipPath><clipPath class="axesclip" id="clipf3b694x3y2"><rect x="80" y="317.00000000000006" width="440" height="185.99999999999997"/></clipPath><clipPath class="axesclip" id="clipf3b694x3y3"><rect x="80" y="534" width="440" height="186"/></clipPath></g><g class="gradients"/><g class="patterns"/></defs><g class="bglayer"><rect class="bg" x="80" y="100" width="440" height="186.00000000000003" style="fill: rgb(229, 236, 246); fill-opacity: 1; stroke-width: 0;"/><rect class="bg" x="80" y="317.00000000000006" width="440" height="185.99999999999997" style="fill: rgb(229, 236, 246); fill-opacity: 1; stroke-width: 0;"/><rect class="bg" x="80" y="534" width="440" height="186" style="fill: rgb(229, 236, 246); fill-opacity: 1; stroke-width: 0;"/></g><g class="layer-below"><g class="imagelayer"/><g class="shapelayer"/></g><g class="cartesianlayer"><g class="subplot xy"><g class="layer-subplot"><g class="shapelayer"/><g class="imagelayer"/></g><g class="minor-gridlayer"><g class="x"/><g class="y"/></g><g class="gridlayer"><g class="x"><path class="xgrid crisp" transform="translate(156.15,0)" d="M0,100v186.00000000000003" style="stroke: rgb(255, 255, 255); stroke-opacity: 1; stroke-width: 1px;"/><path class="xgrid crisp" transform="translate(240.77,0)" d="M0,100v186.00000000000003" style="stroke: rgb(255, 255, 255); stroke-opacity: 1; stroke-width: 1px;"/><path class="xgrid crisp" transform="translate(325.38,0)" d="M0,100v186.00000000000003" style="stroke: rgb(255, 255, 255); stroke-opacity: 1; stroke-width: 1px;"/><path class="xgrid crisp" transform="translate(410,0)" d="M0,100v186.00000000000003" style="stroke: rgb(255, 255, 255); stroke-opacity: 1; stroke-width: 1px;"/><path class="xgrid crisp" transform="translate(494.62,0)" d="M0,100v186.00000000000003" style="stroke: rgb(255, 255, 255); stroke-opacity: 1; stroke-width: 1px;"/></g><g class="y"><path class="ygrid crisp" transform="translate(0,248.8)" d="M80,0h440" style="stroke: rgb(255, 255, 255); stroke-opacity: 1; stroke-width: 1px;"/><path class="ygrid crisp" transform="translate(0,211.6)" d="M80,0h440" style="stroke: rgb(255, 255, 255); stroke-opacity: 1; stroke-width: 1px;"/><path class="ygrid crisp" transform="translate(0,174.4)" d="M80,0h440" style="stroke: rgb(255, 255, 255); stroke-opacity: 1; stroke-width: 1px;"/><path class="ygrid crisp" transform="translate(0,137.2)" d="M80,0h440" style="stroke: rgb(255, 255, 255); stroke-opacity: 1; stroke-width: 1px;"/></g></g><g class="zerolinelayer"><path class="yzl zl crisp" transform="translate(0,286)" d="M80,0h440" style="stroke: rgb(255, 255, 255); stroke-opacity: 1; stroke-width: 2px;"/></g><path class="xlines-below"/><path class="ylines-below"/><g class="overlines-below"/><g class="xaxislayer-below"/><g class="yaxislayer-below"/><g class="overaxes-below"/><g class="plot" transform="translate(80,100)" clip-path="url(#clipf3b694xyplot)"><g class="scatterlayer mlayer"><g class="trace scatter trace7b98f1" style="stroke-miterlimit: 2;"><g class="fills"><g><path class="js-fill" d="M0,186L101.54,186L110,185.19L118.46,185.94L126.92,185.9L135.38,184.1L143.85,174.35L152.31,184.84L160.77,167.54L169.23,166.03L177.69,174.4L186.15,167.68L194.62,175.47L203.08,166.16L211.54,173.67L220,162.21L228.46,171.36L236.92,163.34L245.38,146.33L253.85,155.32L262.31,160.39L270.77,163.53L279.23,173.82L287.69,175.59L296.15,171.54L304.62,179.94L313.08,160.48L321.54,170.61L330,178.3L338.46,174.18L346.92,185.42L363.85,186L372.31,186L440,186L440,186L338.46,186L330,186L321.54,182.44L313.08,185.3L287.69,185.32L279.23,183.27L270.77,172.26L262.31,177.14L253.85,165.49L245.38,179.55L236.92,177.92L228.46,181.38L220,178.57L211.54,185.18L203.08,178.51L194.62,186L186.15,185.06L177.69,186L160.77,186L152.31,186L143.85,184.91L135.38,186L0,186Z" style="fill: rgb(224, 236, 244); fill-opacity: 1; stroke-width: 0;"/></g></g><g class="errorbars"/><g class="lines"><path class="js-line" d="M0,186L135.38,186L143.85,184.91L152.31,186L160.77,186L177.69,186L186.15,185.06L194.62,186L203.08,178.51L211.54,185.18L220,178.57L228.46,181.38L236.92,177.92L245.38,179.55L253.85,165.49L262.31,177.14L270.77,172.26L279.23,183.27L287.69,185.32L313.08,185.3L321.54,182.44L330,186L338.46,186L440,186" style="vector-effect: non-scaling-stroke; fill: none; stroke: rgb(0, 0, 0); stroke-opacity: 1; stroke-width: 0.25px; opacity: 1;"/></g><g class="points"/><g class="text"/></g><g class="trace scatter traced5cc05" style="stroke-miterlimit: 2;"><g class="fills"><g><path class="js-fill" d="M0,186L101.54,185.64L110,175.64L118.46,180.44L126.92,183.16L143.85,168.9L152.31,165.61L160.77,150.26L169.23,153.08L177.69,160.65L186.15,131.34L194.62,158.24L203.08,158.08L211.54,153.25L220,140.05L228.46,156.98L236.92,150.27L245.38,131.02L253.85,127.2L262.31,132.22L270.77,152.61L279.23,165.1L287.69,163.75L296.15,158.18L304.62,170.31L313.08,140.78L321.54,144.97L330,160.73L338.46,142.72L346.92,166.11L355.38,185.53L380.77,186L389.23,186L440,186L440,186L372.31,186L363.85,186L346.92,185.42L338.46,174.18L330,178.3L321.54,170.61L313.08,160.48L304.62,179.94L296.15,171.54L287.69,175.59L279.23,173.82L270.77,163.53L262.31,160.39L253.85,155.32L245.38,146.33L236.92,163.34L228.46,171.36L220,162.21L211.54,173.67L203.08,166.16L194.62,175.47L186.15,167.68L177.69,174.4L169.23,166.03L160.77,167.54L152.31,184.84L143.85,174.35L135.38,184.1L126.92,185.9L118.46,185.94L110,185.19L101.54,186L0,186Z" style="fill: rgb(158, 188, 218); fill-opacity: 1; stroke-width: 0;"/></g></g><g class="errorbars"/><g class="lines"><path class="js-line" d="M0,186L101.54,186L110,185.19L118.46,185.94L126.92,185.9L135.38,184.1L143.85,174.35L152.31,184.84L160.77,167.54L169.23,166.03L177.69,174.4L186.15,167.68L194.62,175.47L203.08,166.16L211.54,173.67L220,162.21L228.46,171.36L236.92,163.34L245.38,146.33L253.85,155.32L262.31,160.39L270.77,163.53L279.23,173.82L287.69,175.59L296.15,171.54L304.62,179.94L313.08,160.48L321.54,170.61L330,178.3L338.46,174.18L346.92,185.42L363.85,186L372.31,186L440,186" style="vector-effect: non-scaling-stroke; fill: none; stroke: rgb(0, 0, 0); stroke-opacity: 1; stroke-width: 0.5px; opacity: 1;"/></g><g class="points"/><g class="text"/></g><g class="trace scatter tracef72bd7" style="stroke-miterlimit: 2;"><g class="fills"><g><path class="js-fill" d="M0,185.98L42.31,185.82L50.77,185.23L59.23,181.2L67.69,182.42L76.15,179.83L84.62,183.39L93.08,183.38L101.54,179.25L110,167.8L118.46,161.71L126.92,172.75L135.38,163.9L143.85,153.33L152.31,144.56L160.77,126.36L169.23,130.94L177.69,137.81L186.15,115.7L194.62,123.05L203.08,128.92L211.54,125.22L220,113.22L228.46,131.99L236.92,119.06L245.38,104.62L253.85,93.28L262.31,118.71L270.77,133.25L279.23,150.33L287.69,158.6L296.15,136.01L304.62,125.92L313.08,124.04L321.54,103.36L330,125.42L338.46,88.06L346.92,143.2L355.38,147.73L363.85,180.82L372.31,184.02L380.77,185.45L389.23,186L440,186L440,186L389.23,186L380.77,186L355.38,185.53L346.92,166.11L338.46,142.72L330,160.73L321.54,144.97L313.08,140.78L304.62,170.31L296.15,158.18L287.69,163.75L279.23,165.1L270.77,152.61L262.31,132.22L253.85,127.2L245.38,131.02L236.92,150.27L228.46,156.98L220,140.05L211.54,153.25L203.08,158.08L194.62,158.24L186.15,131.34L177.69,160.65L169.23,153.08L160.77,150.26L152.31,165.61L143.85,168.9L126.92,183.16L118.46,180.44L110,175.64L101.54,185.64L0,186Z" style="fill: rgb(158, 188, 218); fill-opacity: 1; stroke-width: 0;"/></g></g><g class="errorbars"/><g class="lines"><path class="js-line" d="M0,186L101.54,185.64L110,175.64L118.46,180.44L126.92,183.16L143.85,168.9L152.31,165.61L160.77,150.26L169.23,153.08L177.69,160.65L186.15,131.34L194.62,158.24L203.08,158.08L211.54,153.25L220,140.05L228.46,156.98L236.92,150.27L245.38,131.02L253.85,127.2L262.31,132.22L270.77,152.61L279.23,165.1L287.69,163.75L296.15,158.18L304.62,170.31L313.08,140.78L321.54,144.97L330,160.73L338.46,142.72L346.92,166.11L355.38,185.53L380.77,186L389.23,186L440,186" style="vector-effect: non-scaling-stroke; fill: none; stroke: rgb(0, 0, 0); stroke-opacity: 1; stroke-width: 1px; opacity: 1;"/></g><g class="points"/><g class="text"/></g><g class="trace scatter tracece1371" style="stroke-miterlimit: 2;"><g class="fills"><g><path class="js-fill" d="M0,185.95L42.31,185.7L50.77,185.2L59.23,174.94L67.69,179.54L76.15,175.58L84.62,179.83L93.08,183.13L101.54,170.22L110,143.22L118.46,132.17L126.92,162.66L135.38,137.02L143.85,141.45L152.31,112.23L160.77,77.71L169.23,118.33L177.69,112.55L186.15,43.22L194.62,86.25L203.08,77.6L220,73.45L228.46,95.22L236.92,58.18L245.38,51L253.85,31.24L262.31,59.36L270.77,114.5L279.23,136.46L287.69,149.67L296.15,97.49L304.62,90L313.08,109.68L321.54,15.8L330,55.17L338.46,43.86L346.92,118.9L355.38,118.07L363.85,175.16L372.31,183.62L380.77,185.28L397.69,186L406.15,186L440,186L440,186L389.23,186L380.77,185.45L372.31,184.02L363.85,180.82L355.38,147.73L346.92,143.2L338.46,88.06L330,125.42L321.54,103.36L313.08,124.04L304.62,125.92L296.15,136.01L287.69,158.6L279.23,150.33L270.77,133.25L262.31,118.71L253.85,93.28L245.38,104.62L236.92,119.06L228.46,131.99L220,113.22L211.54,125.22L203.08,128.92L194.62,123.05L186.15,115.7L177.69,137.81L169.23,130.94L160.77,126.36L152.31,144.56L143.85,153.33L135.38,163.9L126.92,172.75L118.46,161.71L110,167.8L101.54,179.25L93.08,183.38L84.62,183.39L76.15,179.83L67.69,182.42L59.23,181.2L50.77,185.23L42.31,185.82L0,185.98Z" style="fill: rgb(136, 86, 167); fill-opacity: 1; stroke-width: 0;"/></g></g><g class="errorbars"/><g class="lines"><path class="js-line" d="M0,185.98L42.31,185.82L50.77,185.23L59.23,181.2L67.69,182.42L76.15,179.83L84.62,183.39L93.08,183.38L101.54,179.25L110,167.8L118.46,161.71L126.92,172.75L135.38,163.9L143.85,153.33L152.31,144.56L160.77,126.36L169.23,130.94L177.69,137.81L186.15,115.7L194.62,123.05L203.08,128.92L211.54,125.22L220,113.22L228.46,131.99L236.92,119.06L245.38,104.62L253.85,93.28L262.31,118.71L270.77,133.25L279.23,150.33L287.69,158.6L296.15,136.01L304.62,125.92L313.08,124.04L321.54,103.36L330,125.42L338.46,88.06L346.92,143.2L355.38,147.73L363.85,180.82L372.31,184.02L380.77,185.45L389.23,186L440,186" style="vector-effect: non-scaling-stroke; fill: none; stroke: rgb(0, 0, 0); stroke-opacity: 1; stroke-width: 0.5px; opacity: 1;"/></g><g class="points"/><g class="text"/></g><g class="trace scatter trace14b724" style="stroke-miterlimit: 2;"><g class="fills"/><g class="errorbars"/><g class="lines"><path class="js-line" d="M0,185.95L42.31,185.7L50.77,185.2L59.23,174.94L67.69,179.54L76.15,175.58L84.62,179.83L93.08,183.13L101.54,170.22L110,143.22L118.46,132.17L126.92,162.66L135.38,137.02L143.85,141.45L152.31,112.23L160.77,77.71L169.23,118.33L177.69,112.55L186.15,43.22L194.62,86.25L203.08,77.6L220,73.45L228.46,95.22L236.92,58.18L245.38,51L253.85,31.24L262.31,59.36L270.77,114.5L279.23,136.46L287.69,149.67L296.15,97.49L304.62,90L313.08,109.68L321.54,15.8L330,55.17L338.46,43.86L346.92,118.9L355.38,118.07L363.85,175.16L372.31,183.62L380.77,185.28L397.69,186L406.15,186L440,186" style="vector-effect: non-scaling-stroke; fill: none; stroke: rgb(0, 0, 0); stroke-opacity: 1; stroke-width: 0.25px; opacity: 1;"/></g><g class="points"/><g class="text"/></g><g class="trace scatter traced2988b" style="stroke-miterlimit: 2; opacity: 1;"><g class="fills"/><g class="errorbars"/><g class="lines"/><g class="points"><path class="point" transform="translate(177.69,186)" d="M4,0A4,4 0 1,1 0,-4A4,4 0 0,1 4,0ZM0,0.5L0.5,0L0,-0.5L-0.5,0Z" style="opacity: 1; stroke: rgb(0, 0, 0); stroke-opacity: 1; stroke-width: 1px; fill: none;"/><path class="point" transform="translate(186.15,186)" d="M4,0A4,4 0 1,1 0,-4A4,4 0 0,1 4,0ZM0,0.5L0.5,0L0,-0.5L-0.5,0Z" style="opacity: 1; stroke: rgb(0, 0, 0); stroke-opacity: 1; stroke-width: 1px; fill: none;"/><path class="point" transform="translate(194.62,108.62)" d="M4,0A4,4 0 1,1 0,-4A4,4 0 0,1 4,0ZM0,0.5L0.5,0L0,-0.5L-0.5,0Z" style="opacity: 1; stroke: rgb(0, 0, 0); stroke-opacity: 1; stroke-width: 1px; fill: none;"/><path class="point" transform="translate(203.08,108.62)" d="M4,0A4,4 0 1,1 0,-4A4,4 0 0,1 4,0ZM0,0.5L0.5,0L0,-0.5L-0.5,0Z" style="opacity: 1; stroke: rgb(0, 0, 0); stroke-opacity: 1; stroke-width: 1px; fill: none;"/></g><g class="text"/></g></g></g><g class="overplot"/><path class="xlines-above crisp" d="M0,0" style="fill: none;"/><path class="ylines-above crisp" d="M0,0" style="fill: none;"/><g class="overlines-above"/><g class="xaxislayer-above"/><g class="yaxislayer-above"><g class="ytick"><text text-anchor="end" x="79" y="4.199999999999999" transform="translate(0,286)" style="font-family: 'Open Sans', verdana, arial, sans-serif; font-size: 12px; fill: rgb(42, 63, 95); fill-opacity: 1; white-space: pre; opacity: 1;">0</text></g><g class="ytick"><text text-anchor="end" x="79" y="4.199999999999999" style="font-family: 'Open Sans', verdana, arial, sans-serif; font-size: 12px; fill: rgb(42, 63, 95); fill-opacity: 1; white-space: pre; opacity: 1;" transform="translate(0,248.8)">50</text></g><g class="ytick"><text text-anchor="end" x="79" y="4.199999999999999" style="font-family: 'Open Sans', verdana, arial, sans-serif; font-size: 12px; fill: rgb(42, 63, 95); fill-opacity: 1; white-space: pre; opacity: 1;" transform="translate(0,211.6)">100</text></g><g class="ytick"><text text-anchor="end" x="79" y="4.199999999999999" style="font-family: 'Open Sans', verdana, arial, sans-serif; font-size: 12px; fill: rgb(42, 63, 95); fill-opacity: 1; white-space: pre; opacity: 1;" transform="translate(0,174.4)">150</text></g><g class="ytick"><text text-anchor="end" x="79" y="4.199999999999999" style="font-family: 'Open Sans', verdana, arial, sans-serif; font-size: 12px; fill: rgb(42, 63, 95); fill-opacity: 1; white-space: pre; opacity: 1;" transform="translate(0,137.2)">200</text></g><g class="ytick"><text text-anchor="end" x="79" y="4.199999999999999" style="font-family: 'Open Sans', verdana, arial, sans-serif; font-size: 12px; fill: rgb(42, 63, 95); fill-opacity: 1; white-space: pre; opacity: 1;" transform="translate(0,100)">250</text></g></g><g class="overaxes-above"/></g><g class="subplot x2y2"><g class="layer-subplot"><g class="shapelayer"/><g class="imagelayer"/></g><g class="minor-gridlayer"><g class="x2"/><g class="y2"/></g><g class="gridlayer"><g class="x2"><path class="x2grid crisp" transform="translate(156.15,0)" d="M0,317.00000000000006v185.99999999999997" style="stroke: rgb(255, 255, 255); stroke-opacity: 1; stroke-width: 1px;"/><path class="x2grid crisp" transform="translate(240.77,0)" d="M0,317.00000000000006v185.99999999999997" style="stroke: rgb(255, 255, 255); stroke-opacity: 1; stroke-width: 1px;"/><path class="x2grid crisp" transform="translate(325.38,0)" d="M0,317.00000000000006v185.99999999999997" style="stroke: rgb(255, 255, 255); stroke-opacity: 1; stroke-width: 1px;"/><path class="x2grid crisp" transform="translate(410,0)" d="M0,317.00000000000006v185.99999999999997" style="stroke: rgb(255, 255, 255); stroke-opacity: 1; stroke-width: 1px;"/><path class="x2grid crisp" transform="translate(494.62,0)" d="M0,317.00000000000006v185.99999999999997" style="stroke: rgb(255, 255, 255); stroke-opacity: 1; stroke-width: 1px;"/></g><g class="y2"><path class="y2grid crisp" transform="translate(0,472.00000000000006)" d="M80,0h440" style="stroke: rgb(255, 255, 255); stroke-opacity: 1; stroke-width: 1px;"/><path class="y2grid crisp" transform="translate(0,410.00000000000006)" d="M80,0h440" style="stroke: rgb(255, 255, 255); stroke-opacity: 1; stroke-width: 1px;"/><path class="y2grid crisp" transform="translate(0,348.00000000000006)" d="M80,0h440" style="stroke: rgb(255, 255, 255); stroke-opacity: 1; stroke-width: 1px;"/></g></g><g class="zerolinelayer"/><path class="xlines-below"/><path class="ylines-below"/><g class="overlines-below"/><g class="xaxislayer-below"/><g class="yaxislayer-below"/><g class="overaxes-below"/><g class="plot" transform="translate(80,317.00000000000006)" clip-path="url(#clipf3b694x2y2plot)"><g class="scatterlayer mlayer"><g class="trace scatter tracec8e2e4" style="stroke-miterlimit: 2;"><g class="fills"><g><path class="js-fill" d="M0,145.46L8.46,147.89L16.92,134.72L25.38,130.76L33.85,122.94L42.31,112.4L50.77,106.79L59.23,97.45L67.69,86.73L76.15,85.72L84.62,72.52L93.08,73.62L101.54,75.57L110,83.66L118.46,79.78L126.92,78.16L135.38,82.88L143.85,86.47L152.31,82.11L160.77,87.42L169.23,82.3L177.69,88.13L186.15,91.85L194.62,97.03L203.08,94.67L211.54,95.75L220,95.52L228.46,94.22L236.92,98.69L245.38,94.73L253.85,97.19L270.77,99L279.23,98.07L287.69,97.23L296.15,97.36L304.62,94.15L313.08,99.09L330,94.57L338.46,95.13L363.85,92.59L372.31,96.65L380.77,101.04L389.23,108.1L406.15,129.18L414.62,131.55L423.08,139.15L431.54,143.22L440,148.15L440,148.8L431.54,148.18L423.08,154.2L414.62,136.93L406.15,144.19L397.69,129.31L389.23,116.74L380.77,106.91L372.31,103.63L363.85,101.41L355.38,101.77L346.92,112.74L338.46,100.44L330,104.43L321.54,106.64L313.08,112.49L304.62,98.58L296.15,106.2L287.69,100.88L279.23,100.88L270.77,103.45L262.31,109.83L253.85,99.55L245.38,100.97L236.92,106.2L228.46,98.67L220,102.21L211.54,105.75L203.08,104.51L194.62,107.53L186.15,103.98L177.69,95.66L169.23,90.34L160.77,93.27L152.31,90.87L143.85,93.62L135.38,98.02L126.92,93.18L118.46,94.06L110,90.17L101.54,93.8L93.08,85.21L84.62,88.84L76.15,103.36L67.69,110.36L59.23,114.26L50.77,121.8L42.31,130.47L33.85,136.49L25.38,146.23L16.92,145.79L8.46,163.86L0,163.37Z" style="fill: rgb(145, 191, 219); fill-opacity: 1; stroke-width: 0;"/></g></g><g class="errorbars"/><g class="lines"><path class="js-line" d="M0,163.37L8.46,163.86L16.92,145.79L25.38,146.23L33.85,136.49L42.31,130.47L50.77,121.8L59.23,114.26L67.69,110.36L76.15,103.36L84.62,88.84L93.08,85.21L101.54,93.8L110,90.17L118.46,94.06L126.92,93.18L135.38,98.02L143.85,93.62L152.31,90.87L160.77,93.27L169.23,90.34L177.69,95.66L186.15,103.98L194.62,107.53L203.08,104.51L211.54,105.75L220,102.21L228.46,98.67L236.92,106.2L245.38,100.97L253.85,99.55L262.31,109.83L270.77,103.45L279.23,100.88L287.69,100.88L296.15,106.2L304.62,98.58L313.08,112.49L321.54,106.64L330,104.43L338.46,100.44L346.92,112.74L355.38,101.77L363.85,101.41L372.31,103.63L380.77,106.91L389.23,116.74L397.69,129.31L406.15,144.19L414.62,136.93L423.08,154.2L431.54,148.18L440,148.8" style="vector-effect: non-scaling-stroke; fill: none; stroke: rgb(0, 0, 0); stroke-opacity: 1; stroke-width: 0.25px; opacity: 1;"/></g><g class="points"/><g class="text"/></g><g class="trace scatter tracee65c1b" style="stroke-miterlimit: 2;"><g class="fills"><g><path class="js-fill" d="M0,138.1L8.46,138.69L16.92,127.9L25.38,125.51L33.85,116.65L42.31,106.29L50.77,98.8L67.69,77.9L76.15,74.36L93.08,58.77L101.54,68.25L110,73.47L118.46,68.47L143.85,80.25L152.31,73.87L160.77,78.74L169.23,78.96L177.69,81.48L186.15,86.89L211.54,91.85L220,91.89L228.46,92.56L236.92,96.1L245.38,91.36L253.85,94.64L262.31,92.2L270.77,93.71L279.23,92.78L287.69,93.89L296.15,94.64L304.62,91.36L313.08,93.92L321.54,91.76L355.38,84.01L363.85,90.12L372.31,90.83L380.77,98.14L389.23,103.81L397.69,110.85L406.15,121.82L414.62,125.51L423.08,129.45L431.54,135.97L440,132.79L440,148.15L431.54,143.22L423.08,139.15L414.62,131.55L406.15,129.18L389.23,108.1L380.77,101.04L372.31,96.65L363.85,92.59L338.46,95.13L330,94.57L313.08,99.09L304.62,94.15L296.15,97.36L287.69,97.23L279.23,98.07L270.77,99L253.85,97.19L245.38,94.73L236.92,98.69L228.46,94.22L220,95.52L211.54,95.75L203.08,94.67L194.62,97.03L186.15,91.85L177.69,88.13L169.23,82.3L160.77,87.42L152.31,82.11L143.85,86.47L135.38,82.88L126.92,78.16L118.46,79.78L110,83.66L101.54,75.57L93.08,73.62L84.62,72.52L76.15,85.72L67.69,86.73L59.23,97.45L50.77,106.79L42.31,112.4L33.85,122.94L25.38,130.76L16.92,134.72L8.46,147.89L0,145.46Z" style="fill: rgb(255, 255, 191); fill-opacity: 1; stroke-width: 0;"/></g></g><g class="errorbars"/><g class="lines"><path class="js-line" d="M0,145.46L8.46,147.89L16.92,134.72L25.38,130.76L33.85,122.94L42.31,112.4L50.77,106.79L59.23,97.45L67.69,86.73L76.15,85.72L84.62,72.52L93.08,73.62L101.54,75.57L110,83.66L118.46,79.78L126.92,78.16L135.38,82.88L143.85,86.47L152.31,82.11L160.77,87.42L169.23,82.3L177.69,88.13L186.15,91.85L194.62,97.03L203.08,94.67L211.54,95.75L220,95.52L228.46,94.22L236.92,98.69L245.38,94.73L253.85,97.19L270.77,99L279.23,98.07L287.69,97.23L296.15,97.36L304.62,94.15L313.08,99.09L330,94.57L338.46,95.13L363.85,92.59L372.31,96.65L380.77,101.04L389.23,108.1L406.15,129.18L414.62,131.55L423.08,139.15L431.54,143.22L440,148.15" style="vector-effect: non-scaling-stroke; fill: none; stroke: rgb(0, 0, 0); stroke-opacity: 1; stroke-width: 0.5px; opacity: 1;"/></g><g class="points"/><g class="text"/></g><g class="trace scatter trace83efe5" style="stroke-miterlimit: 2;"><g class="fills"><g><path class="js-fill" d="M0,130.37L8.46,127.79L16.92,124.24L25.38,119.95L33.85,112.86L42.31,100.06L50.77,89.88L59.23,83.66L67.69,69.09L84.62,61.12L93.08,53.54L101.54,55.56L110,59.45L118.46,59.5L126.92,60.52L135.38,60.07L143.85,70.26L152.31,67.93L160.77,67.67L169.23,74.47L177.69,73.62L186.15,81.88L194.62,78.53L203.08,86.25L211.54,86.05L220,86.05L228.46,87.88L236.92,88.22L245.38,86.82L253.85,90.7L262.31,86.27L270.77,89.79L279.23,87.07L287.69,90.52L296.15,87.11L304.62,88.55L313.08,88.57L330,78.85L338.46,81.77L346.92,79.69L355.38,81.95L363.85,86.53L372.31,89.61L380.77,96.06L389.23,99.09L406.15,115.25L414.62,117.58L423.08,123.14L431.54,127.11L440,121.07L440,132.79L431.54,135.97L423.08,129.45L414.62,125.51L406.15,121.82L397.69,110.85L389.23,103.81L380.77,98.14L372.31,90.83L363.85,90.12L355.38,84.01L321.54,91.76L313.08,93.92L304.62,91.36L296.15,94.64L287.69,93.89L279.23,92.78L270.77,93.71L262.31,92.2L253.85,94.64L245.38,91.36L236.92,96.1L228.46,92.56L220,91.89L211.54,91.85L186.15,86.89L177.69,81.48L169.23,78.96L160.77,78.74L152.31,73.87L143.85,80.25L118.46,68.47L110,73.47L101.54,68.25L93.08,58.77L76.15,74.36L67.69,77.9L50.77,98.8L42.31,106.29L33.85,116.65L25.38,125.51L16.92,127.9L8.46,138.69L0,138.1Z" style="fill: rgb(255, 255, 191); fill-opacity: 1; stroke-width: 0;"/></g></g><g class="errorbars"/><g class="lines"><path class="js-line" d="M0,138.1L8.46,138.69L16.92,127.9L25.38,125.51L33.85,116.65L42.31,106.29L50.77,98.8L67.69,77.9L76.15,74.36L93.08,58.77L101.54,68.25L110,73.47L118.46,68.47L143.85,80.25L152.31,73.87L160.77,78.74L169.23,78.96L177.69,81.48L186.15,86.89L211.54,91.85L220,91.89L228.46,92.56L236.92,96.1L245.38,91.36L253.85,94.64L262.31,92.2L270.77,93.71L279.23,92.78L287.69,93.89L296.15,94.64L304.62,91.36L313.08,93.92L321.54,91.76L355.38,84.01L363.85,90.12L372.31,90.83L380.77,98.14L389.23,103.81L397.69,110.85L406.15,121.82L414.62,125.51L423.08,129.45L431.54,135.97L440,132.79" style="vector-effect: non-scaling-stroke; fill: none; stroke: rgb(0, 0, 0); stroke-opacity: 1; stroke-width: 1px; opacity: 1;"/></g><g class="points"/><g class="text"/></g><g class="trace scatter trace464c23" style="stroke-miterlimit: 2;"><g class="fills"><g><path class="js-fill" d="M0,119.75L8.46,119.39L16.92,112.13L25.38,115.5L33.85,103.72L42.31,81.93L50.77,79.01L59.23,68.2L67.69,60.23L76.15,54.47L84.62,46.94L93.08,49.69L101.54,46.15L110,42.07L118.46,49.95L126.92,50.57L135.38,26.93L143.85,56.86L152.31,52.43L160.77,43.75L169.23,67.76L177.69,56.86L186.15,66.96L194.62,62.44L203.08,77.68L211.54,74.49L220,72.36L228.46,78.39L236.92,76.26L245.38,76.88L253.85,82.64L262.31,73.78L270.77,78.56L279.23,74.22L287.69,83.61L296.15,73.34L304.62,82.11L313.08,74.4L321.54,75.73L330,68.11L338.46,66.96L346.92,64.48L355.38,77.04L372.31,82.55L380.77,89.63L389.23,95.3L397.69,97.96L406.15,101.24L414.62,108.23L431.54,120.01L440,117.59L440,121.07L431.54,127.11L423.08,123.14L414.62,117.58L406.15,115.25L389.23,99.09L380.77,96.06L372.31,89.61L363.85,86.53L355.38,81.95L346.92,79.69L338.46,81.77L330,78.85L313.08,88.57L304.62,88.55L296.15,87.11L287.69,90.52L279.23,87.07L270.77,89.79L262.31,86.27L253.85,90.7L245.38,86.82L236.92,88.22L228.46,87.88L220,86.05L211.54,86.05L203.08,86.25L194.62,78.53L186.15,81.88L177.69,73.62L169.23,74.47L160.77,67.67L152.31,67.93L143.85,70.26L135.38,60.07L126.92,60.52L118.46,59.5L110,59.45L101.54,55.56L93.08,53.54L84.62,61.12L67.69,69.09L59.23,83.66L50.77,89.88L42.31,100.06L33.85,112.86L25.38,119.95L16.92,124.24L8.46,127.79L0,130.37Z" style="fill: rgb(252, 141, 89); fill-opacity: 1; stroke-width: 0;"/></g></g><g class="errorbars"/><g class="lines"><path class="js-line" d="M0,130.37L8.46,127.79L16.92,124.24L25.38,119.95L33.85,112.86L42.31,100.06L50.77,89.88L59.23,83.66L67.69,69.09L84.62,61.12L93.08,53.54L101.54,55.56L110,59.45L118.46,59.5L126.92,60.52L135.38,60.07L143.85,70.26L152.31,67.93L160.77,67.67L169.23,74.47L177.69,73.62L186.15,81.88L194.62,78.53L203.08,86.25L211.54,86.05L220,86.05L228.46,87.88L236.92,88.22L245.38,86.82L253.85,90.7L262.31,86.27L270.77,89.79L279.23,87.07L287.69,90.52L296.15,87.11L304.62,88.55L313.08,88.57L330,78.85L338.46,81.77L346.92,79.69L355.38,81.95L363.85,86.53L372.31,89.61L380.77,96.06L389.23,99.09L406.15,115.25L414.62,117.58L423.08,123.14L431.54,127.11L440,121.07" style="vector-effect: non-scaling-stroke; fill: none; stroke: rgb(0, 0, 0); stroke-opacity: 1; stroke-width: 0.5px; opacity: 1;"/></g><g class="points"/><g class="text"/></g><g class="trace scatter trace34dcfe" style="stroke-miterlimit: 2;"><g class="fills"/><g class="errorbars"/><g class="lines"><path class="js-line" d="M0,119.75L8.46,119.39L16.92,112.13L25.38,115.5L33.85,103.72L42.31,81.93L50.77,79.01L59.23,68.2L67.69,60.23L76.15,54.47L84.62,46.94L93.08,49.69L101.54,46.15L110,42.07L118.46,49.95L126.92,50.57L135.38,26.93L143.85,56.86L152.31,52.43L160.77,43.75L169.23,67.76L177.69,56.86L186.15,66.96L194.62,62.44L203.08,77.68L211.54,74.49L220,72.36L228.46,78.39L236.92,76.26L245.38,76.88L253.85,82.64L262.31,73.78L270.77,78.56L279.23,74.22L287.69,83.61L296.15,73.34L304.62,82.11L313.08,74.4L321.54,75.73L330,68.11L338.46,66.96L346.92,64.48L355.38,77.04L372.31,82.55L380.77,89.63L389.23,95.3L397.69,97.96L406.15,101.24L414.62,108.23L431.54,120.01L440,117.59" style="vector-effect: non-scaling-stroke; fill: none; stroke: rgb(0, 0, 0); stroke-opacity: 1; stroke-width: 0.25px; opacity: 1;"/></g><g class="points"/><g class="text"/></g><g class="trace scatter trace0af82a" style="stroke-miterlimit: 2; opacity: 1;"><g class="fills"/><g class="errorbars"/><g class="lines"/><g class="points"><path class="point" transform="translate(177.69,74.4)" d="M4,0A4,4 0 1,1 0,-4A4,4 0 0,1 4,0ZM0,0.5L0.5,0L0,-0.5L-0.5,0Z" style="opacity: 1; stroke: rgb(0, 0, 0); stroke-opacity: 1; stroke-width: 1px; fill: none;"/><path class="point" transform="translate(186.15,55.8)" d="M4,0A4,4 0 1,1 0,-4A4,4 0 0,1 4,0ZM0,0.5L0.5,0L0,-0.5L-0.5,0Z" style="opacity: 1; stroke: rgb(0, 0, 0); stroke-opacity: 1; stroke-width: 1px; fill: none;"/><path class="point" transform="translate(194.62,80.6)" d="M4,0A4,4 0 1,1 0,-4A4,4 0 0,1 4,0ZM0,0.5L0.5,0L0,-0.5L-0.5,0Z" style="opacity: 1; stroke: rgb(0, 0, 0); stroke-opacity: 1; stroke-width: 1px; fill: none;"/><path class="point" transform="translate(203.08,80.6)" d="M4,0A4,4 0 1,1 0,-4A4,4 0 0,1 4,0ZM0,0.5L0.5,0L0,-0.5L-0.5,0Z" style="opacity: 1; stroke: rgb(0, 0, 0); stroke-opacity: 1; stroke-width: 1px; fill: none;"/></g><g class="text"/></g></g></g><g class="overplot"/><path class="xlines-above crisp" d="M0,0" style="fill: none;"/><path class="ylines-above crisp" d="M0,0" style="fill: none;"/><g class="overlines-above"/><g class="xaxislayer-above"/><g class="yaxislayer-above"><g class="y2tick"><text text-anchor="end" x="79" y="4.199999999999999" transform="translate(0,472.00000000000006)" style="font-family: 'Open Sans', verdana, arial, sans-serif; font-size: 12px; fill: rgb(42, 63, 95); fill-opacity: 1; white-space: pre; opacity: 1;">20</text></g><g class="y2tick"><text text-anchor="end" x="79" y="4.199999999999999" style="font-family: 'Open Sans', verdana, arial, sans-serif; font-size: 12px; fill: rgb(42, 63, 95); fill-opacity: 1; white-space: pre; opacity: 1;" transform="translate(0,410.00000000000006)">30</text></g><g class="y2tick"><text text-anchor="end" x="79" y="4.199999999999999" style="font-family: 'Open Sans', verdana, arial, sans-serif; font-size: 12px; fill: rgb(42, 63, 95); fill-opacity: 1; white-space: pre; opacity: 1;" transform="translate(0,348.00000000000006)">40</text></g></g><g class="overaxes-above"/></g><g class="subplot x3y3"><g class="layer-subplot"><g class="shapelayer"/><g class="imagelayer"/></g><g class="minor-gridlayer"><g class="x3"/><g class="y3"/></g><g class="gridlayer"><g class="x3"><path class="x3grid crisp" transform="translate(156.15,0)" d="M0,534v186" style="stroke: rgb(255, 255, 255); stroke-opacity: 1; stroke-width: 1px;"/><path class="x3grid crisp" transform="translate(240.77,0)" d="M0,534v186" style="stroke: rgb(255, 255, 255); stroke-opacity: 1; stroke-width: 1px;"/><path class="x3grid crisp" transform="translate(325.38,0)" d="M0,534v186" style="stroke: rgb(255, 255, 255); stroke-opacity: 1; stroke-width: 1px;"/><path class="x3grid crisp" transform="translate(410,0)" d="M0,534v186" style="stroke: rgb(255, 255, 255); stroke-opacity: 1; stroke-width: 1px;"/><path class="x3grid crisp" transform="translate(494.62,0)" d="M0,534v186" style="stroke: rgb(255, 255, 255); stroke-opacity: 1; stroke-width: 1px;"/></g><g class="y3"><path class="y3grid crisp" transform="translate(0,682.8)" d="M80,0h440" style="stroke: rgb(255, 255, 255); stroke-opacity: 1; stroke-width: 1px;"/><path class="y3grid crisp" transform="translate(0,645.6)" d="M80,0h440" style="stroke: rgb(255, 255, 255); stroke-opacity: 1; stroke-width: 1px;"/><path class="y3grid crisp" transform="translate(0,608.4)" d="M80,0h440" style="stroke: rgb(255, 255, 255); stroke-opacity: 1; stroke-width: 1px;"/><path class="y3grid crisp" transform="translate(0,571.2)" d="M80,0h440" style="stroke: rgb(255, 255, 255); stroke-opacity: 1; stroke-width: 1px;"/></g></g><g class="zerolinelayer"/><path class="xlines-below"/><path class="ylines-below"/><g class="overlines-below"/><g class="xaxislayer-below"/><g class="yaxislayer-below"/><g class="overaxes-below"/><g class="plot" transform="translate(80,534)" clip-path="url(#clipf3b694x3y3plot)"><g class="scatterlayer mlayer"><g class="trace scatter trace852f47" style="stroke-miterlimit: 2;"><g class="fills"><g><path class="js-fill" d="M0,121.75L8.46,126.85L16.92,123.08L25.38,121.17L33.85,118.27L42.31,105.37L50.77,96.37L59.23,91.96L67.69,77.83L76.15,74.43L84.62,69.06L93.08,63.61L101.54,59.39L118.46,55.51L126.92,51.12L135.38,52.37L143.85,50.62L152.31,43.18L160.77,40.76L169.23,38.24L177.69,38.13L186.15,36.46L194.62,36.48L203.08,36.11L211.54,37.04L220,35.9L228.46,36.56L245.38,37.89L253.85,38.42L262.31,36.99L270.77,37.78L304.62,39.51L313.08,41.77L321.54,41.03L330,42.46L346.92,49.26L355.38,50.78L363.85,60.66L372.31,67.52L380.77,78.78L389.23,84.36L397.69,97.28L406.15,104.32L414.62,107.85L423.08,116.41L431.54,120L440,134.6L440,146.07L431.54,134.98L423.08,133.03L414.62,124.88L406.15,115.64L397.69,115.53L389.23,100.65L372.31,78.51L363.85,71.53L355.38,56.76L346.92,54.21L330,46.13L321.54,44.21L313.08,46.66L304.62,42.41L287.69,40.49L279.23,40.39L270.77,39.43L262.31,41.56L253.85,41.13L245.38,41.56L228.46,38.69L220,37.63L203.08,39.01L194.62,41.77L186.15,38.9L177.69,44.96L169.23,41.35L160.77,47.3L152.31,46.98L143.85,56.76L118.46,63.98L110,66.64L101.54,70.36L93.08,68.55L84.62,82.79L76.15,86.2L67.69,86.36L59.23,114.9L50.77,107.67L42.31,130.2L33.85,145.61L25.38,140.93L16.92,130.83L8.46,137.21L0,125.27Z" style="fill: rgb(90, 180, 172); fill-opacity: 1; stroke-width: 0;"/></g></g><g class="errorbars"/><g class="lines"><path class="js-line" d="M0,125.27L8.46,137.21L16.92,130.83L25.38,140.93L33.85,145.61L42.31,130.2L50.77,107.67L59.23,114.9L67.69,86.36L76.15,86.2L84.62,82.79L93.08,68.55L101.54,70.36L110,66.64L118.46,63.98L143.85,56.76L152.31,46.98L160.77,47.3L169.23,41.35L177.69,44.96L186.15,38.9L194.62,41.77L203.08,39.01L220,37.63L228.46,38.69L245.38,41.56L253.85,41.13L262.31,41.56L270.77,39.43L279.23,40.39L287.69,40.49L304.62,42.41L313.08,46.66L321.54,44.21L330,46.13L346.92,54.21L355.38,56.76L363.85,71.53L372.31,78.51L389.23,100.65L397.69,115.53L406.15,115.64L414.62,124.88L423.08,133.03L431.54,134.98L440,146.07" style="vector-effect: non-scaling-stroke; fill: none; stroke: rgb(0, 0, 0); stroke-opacity: 1; stroke-width: 0.25px; opacity: 1;"/></g><g class="points"/><g class="text"/></g><g class="trace scatter trace59886a" style="stroke-miterlimit: 2;"><g class="fills"><g><path class="js-fill" d="M0,117.92L8.46,121.22L16.92,115.43L25.38,111.07L33.85,110.81L42.31,94.49L50.77,90.98L59.23,83.86L67.69,72.97L76.15,72.11L84.62,62.12L93.08,55.37L101.54,53.82L110,53.66L118.46,49.95L126.92,47.46L135.38,47.78L143.85,46.87L152.31,40.97L160.77,37.68L169.23,37.2L186.15,34.91L194.62,35.07L203.08,34.6L211.54,35.61L220,34.54L228.46,34.44L236.92,36.14L245.38,36.24L253.85,37.47L262.31,34.97L270.77,36.3L279.23,36.77L287.69,36.65L296.15,38L321.54,39.22L330,41.29L338.46,42.55L346.92,45.65L355.38,48.12L363.85,56.23L372.31,59.52L380.77,67.7L397.69,87.95L406.15,92.79L414.62,102.03L423.08,105.91L431.54,114.29L440,127.26L440,134.6L431.54,120L423.08,116.41L414.62,107.85L406.15,104.32L397.69,97.28L389.23,84.36L380.77,78.78L372.31,67.52L363.85,60.66L355.38,50.78L346.92,49.26L330,42.46L321.54,41.03L313.08,41.77L304.62,39.51L270.77,37.78L262.31,36.99L253.85,38.42L245.38,37.89L228.46,36.56L220,35.9L211.54,37.04L203.08,36.11L194.62,36.48L186.15,36.46L177.69,38.13L169.23,38.24L160.77,40.76L152.31,43.18L143.85,50.62L135.38,52.37L126.92,51.12L118.46,55.51L101.54,59.39L93.08,63.61L84.62,69.06L76.15,74.43L67.69,77.83L59.23,91.96L50.77,96.37L42.31,105.37L33.85,118.27L25.38,121.17L16.92,123.08L8.46,126.85L0,121.75Z" style="fill: rgb(245, 245, 245); fill-opacity: 1; stroke-width: 0;"/></g></g><g class="errorbars"/><g class="lines"><path class="js-line" d="M0,121.75L8.46,126.85L16.92,123.08L25.38,121.17L33.85,118.27L42.31,105.37L50.77,96.37L59.23,91.96L67.69,77.83L76.15,74.43L84.62,69.06L93.08,63.61L101.54,59.39L118.46,55.51L126.92,51.12L135.38,52.37L143.85,50.62L152.31,43.18L160.77,40.76L169.23,38.24L177.69,38.13L186.15,36.46L194.62,36.48L203.08,36.11L211.54,37.04L220,35.9L228.46,36.56L245.38,37.89L253.85,38.42L262.31,36.99L270.77,37.78L304.62,39.51L313.08,41.77L321.54,41.03L330,42.46L346.92,49.26L355.38,50.78L363.85,60.66L372.31,67.52L380.77,78.78L389.23,84.36L397.69,97.28L406.15,104.32L414.62,107.85L423.08,116.41L431.54,120L440,134.6" style="vector-effect: non-scaling-stroke; fill: none; stroke: rgb(0, 0, 0); stroke-opacity: 1; stroke-width: 0.5px; opacity: 1;"/></g><g class="points"/><g class="text"/></g><g class="trace scatter trace47e3d1" style="stroke-miterlimit: 2;"><g class="fills"><g><path class="js-fill" d="M0,111.3L8.46,113.66L16.92,111.09L33.85,98.9L42.31,87.71L67.69,66.22L76.15,61.22L84.62,53.13L93.08,52.08L101.54,48.97L110,49.18L118.46,46.74L126.92,42.73L143.85,41.98L152.31,39.19L160.77,34.68L169.23,33.36L177.69,32.6L186.15,33L194.62,31.91L203.08,32.98L211.54,33.69L220,33.21L228.46,32.1L236.92,33.93L245.38,34.89L253.85,34.25L262.31,33.08L270.77,34.62L279.23,34.01L287.69,35.32L296.15,35.87L304.62,37.57L321.54,36.5L330,37.65L338.46,37.79L346.92,39.67L363.85,51.04L372.31,53.78L380.77,64.91L389.23,71.45L406.15,87.05L414.62,92.81L423.08,93.21L431.54,107.22L440,119.03L440,127.26L431.54,114.29L423.08,105.91L414.62,102.03L406.15,92.79L397.69,87.95L380.77,67.7L372.31,59.52L363.85,56.23L355.38,48.12L346.92,45.65L338.46,42.55L330,41.29L321.54,39.22L296.15,38L287.69,36.65L279.23,36.77L270.77,36.3L262.31,34.97L253.85,37.47L245.38,36.24L236.92,36.14L228.46,34.44L220,34.54L211.54,35.61L203.08,34.6L194.62,35.07L186.15,34.91L169.23,37.2L160.77,37.68L152.31,40.97L143.85,46.87L135.38,47.78L126.92,47.46L118.46,49.95L110,53.66L101.54,53.82L93.08,55.37L84.62,62.12L76.15,72.11L67.69,72.97L59.23,83.86L50.77,90.98L42.31,94.49L33.85,110.81L25.38,111.07L16.92,115.43L8.46,121.22L0,117.92Z" style="fill: rgb(245, 245, 245); fill-opacity: 1; stroke-width: 0;"/></g></g><g class="errorbars"/><g class="lines"><path class="js-line" d="M0,117.92L8.46,121.22L16.92,115.43L25.38,111.07L33.85,110.81L42.31,94.49L50.77,90.98L59.23,83.86L67.69,72.97L76.15,72.11L84.62,62.12L93.08,55.37L101.54,53.82L110,53.66L118.46,49.95L126.92,47.46L135.38,47.78L143.85,46.87L152.31,40.97L160.77,37.68L169.23,37.2L186.15,34.91L194.62,35.07L203.08,34.6L211.54,35.61L220,34.54L228.46,34.44L236.92,36.14L245.38,36.24L253.85,37.47L262.31,34.97L270.77,36.3L279.23,36.77L287.69,36.65L296.15,38L321.54,39.22L330,41.29L338.46,42.55L346.92,45.65L355.38,48.12L363.85,56.23L372.31,59.52L380.77,67.7L397.69,87.95L406.15,92.79L414.62,102.03L423.08,105.91L431.54,114.29L440,127.26" style="vector-effect: non-scaling-stroke; fill: none; stroke: rgb(0, 0, 0); stroke-opacity: 1; stroke-width: 1px; opacity: 1;"/></g><g class="points"/><g class="text"/></g><g class="trace scatter tracec04b22" style="stroke-miterlimit: 2;"><g class="fills"><g><path class="js-fill" d="M0,101.37L8.46,101.93L16.92,97.57L33.85,86.3L42.31,76.21L50.77,63.45L59.23,65.37L67.69,57.18L76.15,43.9L84.62,45.92L93.08,41.88L101.54,33.81L110,36.67L118.46,37.52L126.92,30.88L135.38,33.91L143.85,29.55L152.31,37.84L160.77,25.61L169.23,30.5L177.69,25.4L186.15,29.23L194.62,26.36L203.08,29.87L211.54,31.14L220,31.67L228.46,27.1L236.92,32.2L245.38,30.4L253.85,28.7L262.31,32.63L270.77,32.74L279.23,30.72L287.69,34.44L296.15,34.86L304.62,34.97L313.08,31.04L321.54,31.49L330,31.04L338.46,29.97L346.92,30.61L355.38,37.86L363.85,43.89L372.31,46.77L380.77,55.27L397.69,70.36L406.15,76.15L414.62,74.19L423.08,87.15L431.54,94.28L440,99.7L440,119.03L431.54,107.22L423.08,93.21L414.62,92.81L406.15,87.05L389.23,71.45L380.77,64.91L372.31,53.78L363.85,51.04L346.92,39.67L338.46,37.79L330,37.65L321.54,36.5L304.62,37.57L296.15,35.87L287.69,35.32L279.23,34.01L270.77,34.62L262.31,33.08L253.85,34.25L245.38,34.89L236.92,33.93L228.46,32.1L220,33.21L211.54,33.69L203.08,32.98L194.62,31.91L186.15,33L177.69,32.6L169.23,33.36L160.77,34.68L152.31,39.19L143.85,41.98L126.92,42.73L118.46,46.74L110,49.18L101.54,48.97L93.08,52.08L84.62,53.13L76.15,61.22L67.69,66.22L42.31,87.71L33.85,98.9L16.92,111.09L8.46,113.66L0,111.3Z" style="fill: rgb(216, 179, 101); fill-opacity: 1; stroke-width: 0;"/></g></g><g class="errorbars"/><g class="lines"><path class="js-line" d="M0,111.3L8.46,113.66L16.92,111.09L33.85,98.9L42.31,87.71L67.69,66.22L76.15,61.22L84.62,53.13L93.08,52.08L101.54,48.97L110,49.18L118.46,46.74L126.92,42.73L143.85,41.98L152.31,39.19L160.77,34.68L169.23,33.36L177.69,32.6L186.15,33L194.62,31.91L203.08,32.98L211.54,33.69L220,33.21L228.46,32.1L236.92,33.93L245.38,34.89L253.85,34.25L262.31,33.08L270.77,34.62L279.23,34.01L287.69,35.32L296.15,35.87L304.62,37.57L321.54,36.5L330,37.65L338.46,37.79L346.92,39.67L363.85,51.04L372.31,53.78L380.77,64.91L389.23,71.45L406.15,87.05L414.62,92.81L423.08,93.21L431.54,107.22L440,119.03" style="vector-effect: non-scaling-stroke; fill: none; stroke: rgb(0, 0, 0); stroke-opacity: 1; stroke-width: 0.5px; opacity: 1;"/></g><g class="points"/><g class="text"/></g><g class="trace scatter tracedf41b0" style="stroke-miterlimit: 2;"><g class="fills"/><g class="errorbars"/><g class="lines"><path class="js-line" d="M0,101.37L8.46,101.93L16.92,97.57L33.85,86.3L42.31,76.21L50.77,63.45L59.23,65.37L67.69,57.18L76.15,43.9L84.62,45.92L93.08,41.88L101.54,33.81L110,36.67L118.46,37.52L126.92,30.88L135.38,33.91L143.85,29.55L152.31,37.84L160.77,25.61L169.23,30.5L177.69,25.4L186.15,29.23L194.62,26.36L203.08,29.87L211.54,31.14L220,31.67L228.46,27.1L236.92,32.2L245.38,30.4L253.85,28.7L262.31,32.63L270.77,32.74L279.23,30.72L287.69,34.44L296.15,34.86L304.62,34.97L313.08,31.04L321.54,31.49L330,31.04L338.46,29.97L346.92,30.61L355.38,37.86L363.85,43.89L372.31,46.77L380.77,55.27L397.69,70.36L406.15,76.15L414.62,74.19L423.08,87.15L431.54,94.28L440,99.7" style="vector-effect: non-scaling-stroke; fill: none; stroke: rgb(0, 0, 0); stroke-opacity: 1; stroke-width: 0.25px; opacity: 1;"/></g><g class="points"/><g class="text"/></g><g class="trace scatter trace853c89" style="stroke-miterlimit: 2; opacity: 1;"><g class="fills"/><g class="errorbars"/><g class="lines"/><g class="points"><path class="point" transform="translate(177.69,37.2)" d="M4,0A4,4 0 1,1 0,-4A4,4 0 0,1 4,0ZM0,0.5L0.5,0L0,-0.5L-0.5,0Z" style="opacity: 1; stroke: rgb(0, 0, 0); stroke-opacity: 1; stroke-width: 1px; fill: none;"/><path class="point" transform="translate(186.15,29.76)" d="M4,0A4,4 0 1,1 0,-4A4,4 0 0,1 4,0ZM0,0.5L0.5,0L0,-0.5L-0.5,0Z" style="opacity: 1; stroke: rgb(0, 0, 0); stroke-opacity: 1; stroke-width: 1px; fill: none;"/><path class="point" transform="translate(194.62,29.76)" d="M4,0A4,4 0 1,1 0,-4A4,4 0 0,1 4,0ZM0,0.5L0.5,0L0,-0.5L-0.5,0Z" style="opacity: 1; stroke: rgb(0, 0, 0); stroke-opacity: 1; stroke-width: 1px; fill: none;"/><path class="point" transform="translate(203.08,29.76)" d="M4,0A4,4 0 1,1 0,-4A4,4 0 0,1 4,0ZM0,0.5L0.5,0L0,-0.5L-0.5,0Z" style="opacity: 1; stroke: rgb(0, 0, 0); stroke-opacity: 1; stroke-width: 1px; fill: none;"/></g><g class="text"/></g></g></g><g class="overplot"/><path class="xlines-above crisp" d="M0,0" style="fill: none;"/><path class="ylines-above crisp" d="M0,0" style="fill: none;"/><g class="overlines-above"/><g class="xaxislayer-above"><g class="x3tick"><text text-anchor="middle" x="0" y="733" transform="translate(156.15,0)" style="font-family: 'Open Sans', verdana, arial, sans-serif; font-size: 12px; fill: rgb(42, 63, 95); fill-opacity: 1; white-space: pre; opacity: 1;">10</text></g><g class="x3tick"><text text-anchor="middle" x="0" y="733" style="font-family: 'Open Sans', verdana, arial, sans-serif; font-size: 12px; fill: rgb(42, 63, 95); fill-opacity: 1; white-space: pre; opacity: 1;" transform="translate(240.77,0)">20</text></g><g class="x3tick"><text text-anchor="middle" x="0" y="733" style="font-family: 'Open Sans', verdana, arial, sans-serif; font-size: 12px; fill: rgb(42, 63, 95); fill-opacity: 1; white-space: pre; opacity: 1;" transform="translate(325.38,0)">30</text></g><g class="x3tick"><text text-anchor="middle" x="0" y="733" style="font-family: 'Open Sans', verdana, arial, sans-serif; font-size: 12px; fill: rgb(42, 63, 95); fill-opacity: 1; white-space: pre; opacity: 1;" transform="translate(410,0)">40</text></g><g class="x3tick"><text text-anchor="middle" x="0" y="733" style="font-family: 'Open Sans', verdana, arial, sans-serif; font-size: 12px; fill: rgb(42, 63, 95); fill-opacity: 1; white-space: pre; opacity: 1;" transform="translate(494.62,0)">50</text></g></g><g class="yaxislayer-above"><g class="y3tick"><text text-anchor="end" x="79" y="4.199999999999999" transform="translate(0,720)" style="font-family: 'Open Sans', verdana, arial, sans-serif; font-size: 12px; fill: rgb(42, 63, 95); fill-opacity: 1; white-space: pre; opacity: 1;">5</text></g><g class="y3tick"><text text-anchor="end" x="79" y="4.199999999999999" style="font-family: 'Open Sans', verdana, arial, sans-serif; font-size: 12px; fill: rgb(42, 63, 95); fill-opacity: 1; white-space: pre; opacity: 1;" transform="translate(0,682.8)">10</text></g><g class="y3tick"><text text-anchor="end" x="79" y="4.199999999999999" style="font-family: 'Open Sans', verdana, arial, sans-serif; font-size: 12px; fill: rgb(42, 63, 95); fill-opacity: 1; white-space: pre; opacity: 1;" transform="translate(0,645.6)">15</text></g><g class="y3tick"><text text-anchor="end" x="79" y="4.199999999999999" style="font-family: 'Open Sans', verdana, arial, sans-serif; font-size: 12px; fill: rgb(42, 63, 95); fill-opacity: 1; white-space: pre; opacity: 1;" transform="translate(0,608.4)">20</text></g><g class="y3tick"><text text-anchor="end" x="79" y="4.199999999999999" style="font-family: 'Open Sans', verdana, arial, sans-serif; font-size: 12px; fill: rgb(42, 63, 95); fill-opacity: 1; white-space: pre; opacity: 1;" transform="translate(0,571.2)">25</text></g><g class="y3tick"><text text-anchor="end" x="79" y="4.199999999999999" style="font-family: 'Open Sans', verdana, arial, sans-serif; font-size: 12px; fill: rgb(42, 63, 95); fill-opacity: 1; white-space: pre; opacity: 1;" transform="translate(0,534)">30</text></g></g><g class="overaxes-above"/></g></g><g class="polarlayer"/><g class="smithlayer"/><g class="ternarylayer"/><g class="geolayer"/><g class="funnelarealayer"/><g class="pielayer"/><g class="iciclelayer"/><g class="treemaplayer"/><g class="sunburstlayer"/><g class="glimages"/><defs id="topdefs-f3b694"><g class="clips"/></defs><g class="layer-above"><g class="imagelayer"/><g class="shapelayer"/></g><g class="infolayer"><g class="g-gtitle"><text class="gtitle" x="30" y="50" text-anchor="start" dy="0em" style="font-family: 'Open Sans', verdana, arial, sans-serif; font-size: 17px; fill: rgb(42, 63, 95); opacity: 1; font-weight: normal; white-space: pre;">Climatology and S2S forecast for Gopalganj</text></g><g class="g-xtitle"/><g class="g-x2title"/><g class="g-x3title"/><g class="g-ytitle"><text class="ytitle" transform="rotate(-90,34.16875,193)" x="34.16875" y="193" text-anchor="middle" style="font-family: 'Open Sans', verdana, arial, sans-serif; font-size: 14px; fill: rgb(42, 63, 95); opacity: 1; font-weight: normal; white-space: pre;">[mm]</text></g><g class="g-y2title"><text class="y2title" transform="rotate(-90,40.840625,410.00000000000006)" x="40.840625" y="410.00000000000006" text-anchor="middle" style="font-family: 'Open Sans', verdana, arial, sans-serif; font-size: 14px; fill: rgb(42, 63, 95); opacity: 1; font-weight: normal; white-space: pre;">[C]</text></g><g class="g-y3title"><text class="y3title" transform="rotate(-90,40.840625,627)" x="40.840625" y="627" text-anchor="middle" style="font-family: 'Open Sans', verdana, arial, sans-serif; font-size: 14px; fill: rgb(42, 63, 95); opacity: 1; font-weight: normal; white-space: pre;">[C]</text></g><g class="annotation" data-index="0" style="opacity: 1;"><g class="annotation-text-g" transform="rotate(0,300,89.5)"><g class="cursor-pointer" transform="translate(237,79)"><rect class="bg" x="0.5" y="0.5" width="126" height="20" style="stroke-width: 1px; stroke: rgb(0, 0, 0); stroke-opacity: 0; fill: rgb(0, 0, 0); fill-opacity: 0;"/><text class="annotation-text" text-anchor="middle" x="63.359375" y="16" style="font-family: 'Open Sans', verdana, arial, sans-serif; font-size: 16px; fill: rgb(42, 63, 95); fill-opacity: 1; white-space: pre;">Precipitation sum</text></g></g></g><g class="annotation" data-index="1" style="opacity: 1;"><g class="annotation-text-g" transform="rotate(0,300,306.50000000000006)"><g class="cursor-pointer" transform="translate(196,296)"><rect class="bg" x="0.5" y="0.5" width="208" height="20" style="stroke-width: 1px; stroke: rgb(0, 0, 0); stroke-opacity: 0; fill: rgb(0, 0, 0); fill-opacity: 0;"/><text class="annotation-text" text-anchor="middle" x="104.265625" y="16" style="font-family: 'Open Sans', verdana, arial, sans-serif; font-size: 16px; fill: rgb(42, 63, 95); fill-opacity: 1; white-space: pre;">Mean maximum temperature</text></g></g></g><g class="annotation" data-index="2" style="opacity: 1;"><g class="annotation-text-g" transform="rotate(0,300,523.5)"><g class="cursor-pointer" transform="translate(198,513)"><rect class="bg" x="0.5" y="0.5" width="203" height="20" style="stroke-width: 1px; stroke: rgb(0, 0, 0); stroke-opacity: 0; fill: rgb(0, 0, 0); fill-opacity: 0;"/><text class="annotation-text" text-anchor="middle" x="102.046875" y="16" style="font-family: 'Open Sans', verdana, arial, sans-serif; font-size: 16px; fill: rgb(42, 63, 95); fill-opacity: 1; white-space: pre;">Mean minimum temperature</text></g></g></g><g class="annotation" data-index="3" style="opacity: 1;"><g class="annotation-text-g" transform="rotate(0,300,760.5)"><g class="cursor-pointer" transform="translate(277,750)"><rect class="bg" x="0.5" y="0.5" width="45" height="20" style="stroke-width: 1px; stroke: rgb(0, 0, 0); stroke-opacity: 0; fill: rgb(0, 0, 0); fill-opacity: 0;"/><text class="annotation-text" text-anchor="middle" x="22.3125" y="16" style="font-family: 'Open Sans', verdana, arial, sans-serif; font-size: 16px; fill: rgb(42, 63, 95); fill-opacity: 1; white-space: pre;">Week</text></g></g></g></g></svg>