<svg class="main-svg" xmlns="http://www.w3.org/2000/svg" xmlns:xlink="http://www.w3.org/1999/xlink" width="600" height="800" style="" viewBox="0 0 600 800"><rect x="0" y="0" width="600" height="800" style="fill: rgb(255, 255, 255); fill-opacity: 1;"/><defs id="defs-458e10"><g class="clips"><clipPath id="clip458e10xyplot" class="plotclip"><rect width="440" height="186.00000000000003"/></clipPath><clipPath id="clip458e10x2y2plot" class="plotclip"><rect width="440" height="185.99999999999997"/></clipPath><clipPath id="clip458e10x3y3plot" class="plotclip"><rect width="440" height="186"/></clipPath><clipPath class="axesclip" id="clip458e10x"><rect x="80" y="0" width="440" height="800"/></clipPath><clipPath class="axesclip" id="clip458e10y"><rect x="0" y="100" width="600" height="186.00000000000003"/></clipPath><clipPath class="axesclip" id="clip458e10xy"><rect x="80" y="100" width="440" height="186.00000000000003"/></clipPath><clipPath class="axesclip" id="clip458e10y2"><rect x="0" y="317.00000000000006" width="600" height="185.99999999999997"/></clipPath><clipPath class="axesclip" id="clip458e10xy2"><rect x="80" y="317.00000000000006" width="440" height="185.99999999999997"/></clipPath><clipPath class="axesclip" id="clip458e10y3"><rect x="0" y="534" width="600" height="186"/></clipPath><clipPath class="axesclip" id="clip458e10xy3"><rect x="80" y="534" width="440" height="186"/></clipPath><clipPath class="axesclip" id="clip458e10x2"><rect x="80" y="0" width="440" height="800"/></clipPath><clipPath class="axesclip" id="clip458e10x2y"><rect x="80" y="100" width="440" height="186.00000000000003"/></clipPath><clipPath class="axesclip" id="clip458e10x2y2"><rect x="80" y="317.00000000000006" width="440" height="185.99999999999997"/></clipPath><clipPath class="axesclip" id="clip458e10x2y3"><rect x="80" y="534" width="440" height="186"/></clipPath><clipPath class="axesclip" id="clip458e10x3"><rect x="80" y="0" width="440" height="800"/></clipPath><clipPath class="axesclip" id="clip458e10x3y"><rect x="80" y="100" width="440" height="186.00000000000003"/></clipPath><clipPath class="axesclip" id="clip458e10x3y2"><rect x="80" y="317.00000000000006" width="440" height="185.99999999999997"/></clipPath><clipPath class="axesclip" id="clip458e10x3y3"><rect x="80" y="534" width="440" height="186"/></clipPath></g><g class="gradients"/><g class="patterns"/></defs><g class="bglayer"><rect class="bg" x="80" y="100" width="440" height="186.00000000000003" style="fill: rgb(229, 236, 246); fill-opacity: 1; stroke-width: 0;"/><rect class="bg" x="80" y="317.00000000000006" width="440" height="185.99999999999997" style="fill: rgb(229, 236, 246); fill-opacity: 1; stroke-width: 0;"/><rect class="bg" x="80" y="534" width="440" height="186" style="fill: rgb(229, 236, 246); fill-opacity: 1; stroke-width: 0;"/></g><g class="layer-below"><g class="imagelayer"/><g class="shapelayer"/></g><g class="cartesianlayer"><g class="subplot xy"><g class="layer-subplot"><g class="shapelayer"/><g class="imagelayer"/></g><g class="minor-gridlayer"><g class="x"/><g class="y"/></g><g class="gridlayer"><g class="x"><path class="xgrid crisp" transform="translate(156.15,0)" d="M0,100v186.00000000000003" style="stroke: rgb(255, 255, 255); stroke-opacity: 1; stroke-width: 1px;"/><path class="xgrid crisp" transform="translate(240.77,0)" d="M0,100v186.00000000000003" style="stroke: rgb(255, 255, 255); stroke-opacity: 1; stroke-width: 1px;"/><path class="xgrid crisp" transform="translate(325.38,0)" d="M0,100v186.00000000000003" style="stroke: rgb(255, 255, 255); stroke-opacity: 1; stroke-width: 1px;"/><path class="xgrid crisp" transform="translate(410,0)" d="M0,100v186.00000000000003" style="stroke: rgb(255, 255, 255); stroke-opacity: 1; stroke-width: 1px;"/><path class="xgrid crisp" transform="translate(494.62,0)" d="M0,100v186.00000000000003" style="stroke: rgb(255, 255, 255); stroke-opacity: 1; stroke-width: 1px;"/></g><g class="y"><path class="ygrid crisp" transform="translate(0,248.8)" d="M80,0h440" style="stroke: rgb(255, 255, 255); stroke-opacity: 1; stroke-width: 1px;"/><path class="ygrid crisp" transform="translate(0,211.6)" d="M80,0h440" style="stroke: rgb(255, 255, 255); stroke-opacity: 1; stroke-width: 1px;"/><path class="ygrid crisp" transform="translate(0,174.4)" d="M80,0h440" style="stroke: rgb(255, 255, 255); stroke-opacity: 1; stroke-width: 1px;"/><path class="ygrid crisp" transform="translate(0,137.2)" d="M80,0h440" style="stroke: rgb(255, 255, 255); stroke-opacity: 1; stroke-width: 1px;"/></g></g><g class="zerolinelayer"><path class="yzl zl crisp" transform="translate(0,286)" d="M80,0h440" style="stroke: rgb(255, 255, 255); stroke-opacity: 1; stroke-width: 2px;"/></g><path class="xlines-below"/><path class="ylines-below"/><g class="overlines-below"/><g class="xaxislayer-below"/><g class="yaxislayer-below"/><g class="overaxes-below"/><g class="plot" transform="translate(80,100)" clip-path="url(#clip458e10xyplot)"><g class="scatterlayer mlayer"><g class="trace scatter tracedc0614" style="stroke-miterlimit: 2;"><g class="fills"><g><path class="js-fill" d="M0,186L126.92,186L135.38,181.72L143.85,172.24L152.31,184.14L160.77,168.33L169.23,176.51L177.69,174.1L186.15,160.52L194.62,162.56L203.08,160.89L211.54,176.14L220,157.73L228.46,158.08L236.92,161.45L245.38,156.8L253.85,164.24L262.31,160.52L270.77,161.63L279.23,174.28L287.69,176.14L296.15,171.12L304.62,173.35L313.08,165.85L321.54,166L330,183.13L338.46,172.24L346.92,185.07L355.38,186L440,186L440,186L346.92,186L338.46,186L321.54,185.26L313.08,181.54L304.62,184.51L296.15,182.28L287.69,185.26L279.23,182.28L270.77,173.35L262.31,180.79L253.85,183.75L245.38,186L236.92,183.77L228.46,180.05L220,182.28L211.54,182.28L203.08,185.26L194.62,186L186.15,183.77L177.69,186L0,186Z" style="fill: rgb(224, 236, 244); fill-opacity: 1; stroke-width: 0;"/></g></g><g class="errorbars"/><g class="lines"><path class="js-line" d="M0,186L177.69,186L186.15,183.77L194.62,186L203.08,185.26L211.54,182.28L220,182.28L228.46,180.05L236.92,183.77L245.38,186L253.85,183.75L262.31,180.79L270.77,173.35L279.23,182.28L287.69,185.26L296.15,182.28L304.62,184.51L313.08,181.54L321.54,185.26L338.46,186L346.92,186L440,186" style="vector-effect: non-scaling-stroke; fill: none; stroke: rgb(0, 0, 0); stroke-opacity: 1; stroke-width: 0.25px; opacity: 1;"/></g><g class="points"/><g class="text"/></g><g class="trace scatter trace033756" style="stroke-miterlimit: 2;"><g class="fills"><g><path class="js-fill" d="M0,186L101.54,186L110,175.21L118.46,184.77L126.92,183.02L135.38,169.26L143.85,158.1L152.31,165.83L160.77,156.21L169.23,143.76L177.69,154.01L186.15,136.15L194.62,145.82L203.08,143.22L211.54,125.36L220,130.94L228.46,133.92L236.92,133.92L245.38,148.43L253.85,142.48L262.31,132.8L270.77,155.12L279.23,155.87L296.15,151.4L304.62,155.87L313.08,157.36L321.54,146.94L330,157.73L338.46,163.68L346.92,180.05L355.38,184.87L363.85,186L372.31,186L440,186L440,186L355.38,186L346.92,185.07L338.46,172.24L330,183.13L321.54,166L313.08,165.85L304.62,173.35L296.15,171.12L287.69,176.14L279.23,174.28L270.77,161.63L262.31,160.52L253.85,164.24L245.38,156.8L236.92,161.45L228.46,158.08L220,157.73L211.54,176.14L203.08,160.89L194.62,162.56L186.15,160.52L177.69,174.1L169.23,176.51L160.77,168.33L152.31,184.14L143.85,172.24L135.38,181.72L126.92,186L0,186Z" style="fill: rgb(158, 188, 218); fill-opacity: 1; stroke-width: 0;"/></g></g><g class="errorbars"/><g class="lines"><path class="js-line" d="M0,186L126.92,186L135.38,181.72L143.85,172.24L152.31,184.14L160.77,168.33L169.23,176.51L177.69,174.1L186.15,160.52L194.62,162.56L203.08,160.89L211.54,176.14L220,157.73L228.46,158.08L236.92,161.45L245.38,156.8L253.85,164.24L262.31,160.52L270.77,161.63L279.23,174.28L287.69,176.14L296.15,171.12L304.62,173.35L313.08,165.85L321.54,166L330,183.13L338.46,172.24L346.92,185.07L355.38,186L440,186" style="vector-effect: non-scaling-stroke; fill: none; stroke: rgb(0, 0, 0); stroke-opacity: 1; stroke-width: 0.5px; opacity: 1;"/></g><g class="points"/><g class="text"/></g><g class="trace scatter trace5bf5cd" style="stroke-miterlimit: 2;"><g class="fills"><g><path class="js-fill" d="M0,186L42.31,186L50.77,183.4L67.69,186L76.15,185.26L93.08,181.35L101.54,175.21L110,163.49L118.46,164.42L126.92,176.45L135.38,154.94L143.85,146.01L152.31,155.31L160.77,141.36L169.23,129.46L177.69,96.72L186.15,95.42L194.62,96.72L203.08,129.64L211.54,71.24L220,109.74L228.46,84.45L236.92,106.63L245.38,115.49L253.85,106.95L262.31,89.09L270.77,133.36L279.23,143.22L287.69,141.73L296.15,131.87L304.62,128.4L313.08,131.13L321.54,120.71L330,124.81L338.46,143.41L346.92,157.91L355.38,169.07L363.85,178L372.31,185.44L380.77,184.88L389.23,186L440,186L440,186L372.31,186L363.85,186L355.38,184.87L346.92,180.05L338.46,163.68L330,157.73L321.54,146.94L313.08,157.36L304.62,155.87L296.15,151.4L279.23,155.87L270.77,155.12L262.31,132.8L253.85,142.48L245.38,148.43L236.92,133.92L228.46,133.92L220,130.94L211.54,125.36L203.08,143.22L194.62,145.82L186.15,136.15L177.69,154.01L169.23,143.76L160.77,156.21L152.31,165.83L143.85,158.1L135.38,169.26L126.92,183.02L118.46,184.77L110,175.21L101.54,186L0,186Z" style="fill: rgb(158, 188, 218); fill-opacity: 1; stroke-width: 0;"/></g></g><g class="errorbars"/><g class="lines"><path class="js-line" d="M0,186L101.54,186L110,175.21L118.46,184.77L126.92,183.02L135.38,169.26L143.85,158.1L152.31,165.83L160.77,156.21L169.23,143.76L177.69,154.01L186.15,136.15L194.62,145.82L203.08,143.22L211.54,125.36L220,130.94L228.46,133.92L236.92,133.92L245.38,148.43L253.85,142.48L262.31,132.8L270.77,155.12L279.23,155.87L296.15,151.4L304.62,155.87L313.08,157.36L321.54,146.94L330,157.73L338.46,163.68L346.92,180.05L355.38,184.87L363.85,186L372.31,186L440,186" style="vector-effect: non-scaling-stroke; fill: none; stroke: rgb(0, 0, 0); stroke-opacity: 1; stroke-width: 1px; opacity: 1;"/></g><g class="points"/><g class="text"/></g><g class="trace scatter trace597359" style="stroke-miterlimit: 2;"><g class="fills"><g><path class="js-fill" d="M0,186L42.31,186L50.77,181.54L59.23,184.51L67.69,186L76.15,185.26L84.62,182.28L93.08,179.3L101.54,166.66L110,147.31L118.46,148.06L126.92,165.91L135.38,130.94L143.85,116.81L152.31,143.59L160.77,114.58L169.23,74.4L177.69,27.53L186.15,3.72L194.62,6.69L203.08,90.02L211.54,-8.93L220,48.36L228.46,23.81L236.92,36.46L245.38,82.58L253.85,52.82L262.31,47.62L270.77,127.22L279.23,96.72L287.69,122.02L296.15,88.54L304.62,101.18L321.54,58.78L330,58.03L346.92,150.29L355.38,151.78L372.31,185.26L380.77,184.51L389.23,186L397.69,186L440,186L440,186L389.23,186L380.77,184.88L372.31,185.44L363.85,178L355.38,169.07L346.92,157.91L338.46,143.41L330,124.81L321.54,120.71L313.08,131.13L304.62,128.4L296.15,131.87L287.69,141.73L279.23,143.22L270.77,133.36L262.31,89.09L253.85,106.95L245.38,115.49L236.92,106.63L228.46,84.45L220,109.74L211.54,71.24L203.08,129.64L194.62,96.72L186.15,95.42L177.69,96.72L169.23,129.46L160.77,141.36L152.31,155.31L143.85,146.01L135.38,154.94L126.92,176.45L118.46,164.42L110,163.49L101.54,175.21L93.08,181.35L76.15,185.26L67.69,186L50.77,183.4L42.31,186L0,186Z" style="fill: rgb(136, 86, 167); fill-opacity: 1; stroke-width: 0;"/></g></g><g class="errorbars"/><g class="lines"><path class="js-line" d="M0,186L42.31,186L50.77,183.4L67.69,186L76.15,185.26L93.08,181.35L101.54,175.21L110,163.49L118.46,164.42L126.92,176.45L135.38,154.94L143.85,146.01L152.31,155.31L160.77,141.36L169.23,129.46L177.69,96.72L186.15,95.42L194.62,96.72L203.08,129.64L211.54,71.24L220,109.74L228.46,84.45L236.92,106.63L245.38,115.49L253.85,106.95L262.31,89.09L270.77,133.36L279.23,143.22L287.69,141.73L296.15,131.87L304.62,128.4L313.08,131.13L321.54,120.71L330,124.81L338.46,143.41L346.92,157.91L355.38,169.07L363.85,178L372.31,185.44L380.77,184.88L389.23,186L440,186" style="vector-effect: non-scaling-stroke; fill: none; stroke: rgb(0, 0, 0); stroke-opacity: 1; stroke-width: 0.5px; opacity: 1;"/></g><g class="points"/><g class="text"/></g><g class="trace scatter trace8a90e5" style="stroke-miterlimit: 2;"><g class="fills"/><g class="errorbars"/><g class="lines"><path class="js-line" d="M0,186L42.31,186L50.77,181.54L59.23,184.51L67.69,186L76.15,185.26L84.62,182.28L93.08,179.3L101.54,166.66L110,147.31L118.46,148.06L126.92,165.91L135.38,130.94L143.85,116.81L152.31,143.59L160.77,114.58L169.23,74.4L177.69,27.53L186.15,3.72L194.62,6.69L203.08,90.02L211.54,-8.93L220,48.36L228.46,23.81L236.92,36.46L245.38,82.58L253.85,52.82L262.31,47.62L270.77,127.22L279.23,96.72L287.69,122.02L296.15,88.54L304.62,101.18L321.54,58.78L330,58.03L346.92,150.29L355.38,151.78L372.31,185.26L380.77,184.51L389.23,186L397.69,186L440,186" style="vector-effect: non-scaling-stroke; fill: none; stroke: rgb(0, 0, 0); stroke-opacity: 1; stroke-width: 0.25px; opacity: 1;"/></g><g class="points"/><g class="text"/></g><g class="trace scatter trace8066c6" style="stroke-miterlimit: 2; opacity: 1;"><g class="fills"/><g class="errorbars"/><g class="lines"/><g class="points"><path class="point" transform="translate(160.77,186)" d="M4,0A4,4 0 1,1 0,-4A4,4 0 0,1 4,0ZM0,0.5L0.5,0L0,-0.5L-0.5,0Z" style="opacity: 1; stroke: rgb(0, 0, 0); stroke-opacity: 1; stroke-width: 1px; fill: none;"/><path class="point" transform="translate(169.23,186)" d="M4,0A4,4 0 1,1 0,-4A4,4 0 0,1 4,0ZM0,0.5L0.5,0L0,-0.5L-0.5,0Z" style="opacity: 1; stroke: rgb(0, 0, 0); stroke-opacity: 1; stroke-width: 1px; fill: none;"/><path class="point" transform="translate(177.69,184.51)" d="M4,0A4,4 0 1,1 0,-4A4,4 0 0,1 4,0ZM0,0.5L0.5,0L0,-0.5L-0.5,0Z" style="opacity: 1; stroke: rgb(0, 0, 0); stroke-opacity: 1; stroke-width: 1px; fill: none;"/><path class="point" transform="translate(186.15,184.51)" d="M4,0A4,4 0 1,1 0,-4A4,4 0 0,1 4,0ZM0,0.5L0.5,0L0,-0.5L-0.5,0Z" style="opacity: 1; stroke: rgb(0, 0, 0); stroke-opacity: 1; stroke-width: 1px; fill: none;"/></g><g class="text"/></g></g></g><g class="overplot"/><path class="xlines-above crisp" d="M0,0" style="fill: none;"/><path class="ylines-above crisp" d="M0,0" style="fill: none;"/><g class="overlines-above"/><g class="xaxislayer-above"/><g class="yaxislayer-above"><g class="ytick"><text text-anchor="end" x="79" y="4.199999999999999" transform="translate(0,286)" style="font-family: 'Open Sans', verdana, arial, sans-serif; font-size: 12px; fill: rgb(42, 63, 95); fill-opacity: 1; white-space: pre; opacity: 1;">0</text></g><g class="ytick"><text text-anchor="end" x="79" y="4.199999999999999" style="font-family: 'Open Sans', verdana, arial, sans-serif; font-size: 12px; fill: rgb(42, 63, 95); fill-opacity: 1; white-space: pre; opacity: 1;" transform="translate(0,248.8)">50</text></g><g class="ytick"><text text-anchor="end" x="79" y="4.199999999999999" style="font-family: 'Open Sans', verdana, arial, sans-serif; font-size: 12px; fill: rgb(42, 63, 95); fill-opacity: 1; white-space: pre; opacity: 1;" transform="translate(0,211.6)">100</text></g><g class="ytick"><text text-anchor="end" x="79" y="4.199999999999999" style="font-family: 'Open Sans', verdana, arial, sans-serif; font-size: 12px; fill: rgb(42, 63, 95); fill-opacity: 1; white-space: pre; opacity: 1;" transform="translate(0,174.4)">150</text></g><g class="ytick"><text text-anchor="end" x="79" y="4.199999999999999" style="font-family: 'Open Sans', verdana, arial, sans-serif; font-size: 12px; fill: rgb(42, 63, 95); fill-opacity: 1; white-space: pre; opacity: 1;" transform="translate(0,137.2)">200</text></g><g class="ytick"><text text-anchor="end" x="79" y="4.199999999999999" style="font-family: 'Open Sans', verdana, arial, sans-serif; font-size: 12px; fill: rgb(42, 63, 95); fill-opacity: 1; white-space: pre; opacity: 1;" transform="translate(0,100)">250</text></g></g><g class="overaxes-above"/></g><g class="subplot x2y2"><g class="layer-subplot"><g class="shapelayer"/><g class="imagelayer"/></g><g class="minor-gridlayer"><g class="x2"/><g class="y2"/></g><g class="gridlayer"><g class="x2"><path class="x2grid crisp" transform="translate(156.15,0)" d="M0,317.00000000000006v185.99999999999997" style="stroke: rgb(255, 255, 255); stroke-opacity: 1; stroke-width: 1px;"/><path class="x2grid crisp" transform="translate(240.77,0)" d="M0,317.00000000000006v185.99999999999997" style="stroke: rgb(255, 255, 255); stroke-opacity: 1; stroke-width: 1px;"/><path class="x2grid crisp" transform="translate(325.38,0)" d="M0,317.00000000000006v185.99999999999997" style="stroke: rgb(255, 255, 255); stroke-opacity: 1; stroke-width: 1px;"/><path class="x2grid crisp" transform="translate(410,0)" d="M0,317.00000000000006v185.99999999999997" style="stroke: rgb(255, 255, 255); stroke-opacity: 1; stroke-width: 1px;"/><path class="x2grid crisp" transform="translate(494.62,0)" d="M0,317.00000000000006v185.99999999999997" style="stroke: rgb(255, 255, 255); stroke-opacity: 1; stroke-width: 1px;"/></g><g class="y2"><path class="y2grid crisp" transform="translate(0,472.00000000000006)" d="M80,0h440" style="stroke: rgb(255, 255, 255); stroke-opacity: 1; stroke-width: 1px;"/><path class="y2grid crisp" transform="translate(0,410.00000000000006)" d="M80,0h440" style="stroke: rgb(255, 255, 255); stroke-opacity: 1; stroke-width: 1px;"/><path class="y2grid crisp" transform="translate(0,348.00000000000006)" d="M80,0h440" style="stroke: rgb(255, 255, 255); stroke-opacity: 1; stroke-width: 1px;"/></g></g><g class="zerolinelayer"/><path class="xlines-below"/><path class="ylines-below"/><g class="overlines-below"/><g class="xaxislayer-below"/><g class="yaxislayer-below"/><g class="overaxes-below"/><g class="plot" transform="translate(80,317.00000000000006)" clip-path="url(#clip458e10x2y2plot)"><g class="scatterlayer mlayer"><g class="trace scatter tracecdfb90" style="stroke-miterlimit: 2;"><g class="fills"><g><path class="js-fill" d="M0,144.19L8.46,146.52L16.92,133.71L25.38,130.97L33.85,122.8L42.31,112.64L50.77,106.51L59.23,97.47L67.69,89.55L76.15,84.19L84.62,72.94L93.08,75.82L101.54,80L110,83.45L118.46,80.02L126.92,79.78L135.38,83.83L143.85,86.53L152.31,81.66L160.77,88.08L169.23,84.02L177.69,89.04L186.15,91.78L194.62,97.54L203.08,94L211.54,96.85L220,95.54L228.46,94.97L236.92,99.93L245.38,95.52L253.85,95.62L270.77,98.4L279.23,97.62L287.69,95.86L296.15,95.86L304.62,93.84L313.08,100.31L321.54,96.34L330,94.59L338.46,96.26L346.92,95.04L355.38,92.49L363.85,93.49L372.31,97.25L380.77,102.48L389.23,107.75L397.69,116.85L406.15,128.1L414.62,130.09L423.08,138.78L431.54,141.32L440,146.75L440,148.06L431.54,145.79L423.08,154.2L414.62,136.93L406.15,142.07L397.69,126.48L389.23,114.43L380.77,110.8L372.31,100.17L363.85,102.3L355.38,102.83L346.92,110.36L338.46,100.62L330,104.43L321.54,104.25L313.08,111.95L304.62,101.15L296.15,106.11L287.69,100.88L279.23,101.5L270.77,105.22L262.31,108.41L253.85,98.58L245.38,100.09L236.92,107.08L228.46,97.43L220,103.36L211.54,105.75L203.08,103.36L194.62,106.2L177.69,93.35L169.23,93.35L160.77,95.48L152.31,92.82L143.85,95.75L135.38,99.29L126.92,93.8L118.46,95.57L110,91.41L101.54,95.04L93.08,87.86L84.62,89.01L67.69,106.55L59.23,113.99L50.77,122.67L42.31,122.4L33.85,137.11L25.38,133.3L16.92,144.64L8.46,161.55L0,161.67Z" style="fill: rgb(145, 191, 219); fill-opacity: 1; stroke-width: 0;"/></g></g><g class="errorbars"/><g class="lines"><path class="js-line" d="M0,161.67L8.46,161.55L16.92,144.64L25.38,133.3L33.85,137.11L42.31,122.4L50.77,122.67L59.23,113.99L67.69,106.55L84.62,89.01L93.08,87.86L101.54,95.04L110,91.41L118.46,95.57L126.92,93.8L135.38,99.29L143.85,95.75L152.31,92.82L160.77,95.48L169.23,93.35L177.69,93.35L194.62,106.2L203.08,103.36L211.54,105.75L220,103.36L228.46,97.43L236.92,107.08L245.38,100.09L253.85,98.58L262.31,108.41L270.77,105.22L279.23,101.5L287.69,100.88L296.15,106.11L304.62,101.15L313.08,111.95L321.54,104.25L330,104.43L338.46,100.62L346.92,110.36L355.38,102.83L363.85,102.3L372.31,100.17L380.77,110.8L389.23,114.43L397.69,126.48L406.15,142.07L414.62,136.93L423.08,154.2L431.54,145.79L440,148.06" style="vector-effect: non-scaling-stroke; fill: none; stroke: rgb(0, 0, 0); stroke-opacity: 1; stroke-width: 0.25px; opacity: 1;"/></g><g class="points"/><g class="text"/></g><g class="trace scatter trace40b6bf" style="stroke-miterlimit: 2;"><g class="fills"><g><path class="js-fill" d="M0,135.67L8.46,138.35L16.92,128.52L25.38,125.46L33.85,117.8L42.31,105.75L50.77,98.45L67.69,79.09L76.15,77.85L84.62,67.4L93.08,60.58L101.54,68.51L110,74.22L118.46,70.24L126.92,74.67L135.38,77.32L143.85,81.53L152.31,75.42L160.77,80.11L169.23,80.16L177.69,82.33L194.62,88.75L203.08,90.17L211.54,92.29L220,91.89L228.46,92.11L236.92,94.55L245.38,90.17L253.85,92.73L262.31,91.85L270.77,92.47L279.23,91.18L287.69,92.6L296.15,94.68L304.62,90.87L313.08,92.96L321.54,89.64L330,89.9L338.46,88.85L355.38,84.67L363.85,91.05L372.31,91.76L380.77,97.61L397.69,109.96L406.15,121.38L414.62,124.35L423.08,129.93L431.54,135.46L440,132.68L440,146.75L431.54,141.32L423.08,138.78L414.62,130.09L406.15,128.1L397.69,116.85L389.23,107.75L380.77,102.48L372.31,97.25L363.85,93.49L355.38,92.49L346.92,95.04L338.46,96.26L330,94.59L321.54,96.34L313.08,100.31L304.62,93.84L296.15,95.86L287.69,95.86L279.23,97.62L270.77,98.4L253.85,95.62L245.38,95.52L236.92,99.93L228.46,94.97L220,95.54L211.54,96.85L203.08,94L194.62,97.54L186.15,91.78L177.69,89.04L169.23,84.02L160.77,88.08L152.31,81.66L143.85,86.53L135.38,83.83L126.92,79.78L118.46,80.02L110,83.45L101.54,80L93.08,75.82L84.62,72.94L76.15,84.19L67.69,89.55L59.23,97.47L50.77,106.51L42.31,112.64L33.85,122.8L25.38,130.97L16.92,133.71L8.46,146.52L0,144.19Z" style="fill: rgb(255, 255, 191); fill-opacity: 1; stroke-width: 0;"/></g></g><g class="errorbars"/><g class="lines"><path class="js-line" d="M0,144.19L8.46,146.52L16.92,133.71L25.38,130.97L33.85,122.8L42.31,112.64L50.77,106.51L59.23,97.47L67.69,89.55L76.15,84.19L84.62,72.94L93.08,75.82L101.54,80L110,83.45L118.46,80.02L126.92,79.78L135.38,83.83L143.85,86.53L152.31,81.66L160.77,88.08L169.23,84.02L177.69,89.04L186.15,91.78L194.62,97.54L203.08,94L211.54,96.85L220,95.54L228.46,94.97L236.92,99.93L245.38,95.52L253.85,95.62L270.77,98.4L279.23,97.62L287.69,95.86L296.15,95.86L304.62,93.84L313.08,100.31L321.54,96.34L330,94.59L338.46,96.26L346.92,95.04L355.38,92.49L363.85,93.49L372.31,97.25L380.77,102.48L389.23,107.75L397.69,116.85L406.15,128.1L414.62,130.09L423.08,138.78L431.54,141.32L440,146.75" style="vector-effect: non-scaling-stroke; fill: none; stroke: rgb(0, 0, 0); stroke-opacity: 1; stroke-width: 0.5px; opacity: 1;"/></g><g class="points"/><g class="text"/></g><g class="trace scatter tracec294cc" style="stroke-miterlimit: 2;"><g class="fills"><g><path class="js-fill" d="M0,130.44L8.46,127.81L16.92,123.8L25.38,120.41L33.85,112.71L50.77,90.83L59.23,84.22L67.69,70.57L76.15,66.47L84.62,61.82L93.08,54.38L101.54,56.44L110,59.98L126.92,62.13L135.38,60.18L143.85,71.73L152.31,68.76L160.77,68.91L169.23,74.55L177.69,73.89L186.15,80.4L194.62,82.39L203.08,86.27L211.54,85.65L220,84.05L228.46,87.18L236.92,86.8L245.38,85.12L253.85,89.17L262.31,85.14L270.77,88.77L279.23,86.89L287.69,90.65L296.15,85.62L304.62,85.96L313.08,88.11L321.54,83.19L330,80.51L338.46,82.68L346.92,80.33L355.38,82.66L363.85,85.29L372.31,90.52L380.77,95.88L389.23,98.69L406.15,114.48L414.62,116.21L423.08,122.43L431.54,125.6L440,122.03L440,132.68L431.54,135.46L423.08,129.93L414.62,124.35L406.15,121.38L397.69,109.96L380.77,97.61L372.31,91.76L363.85,91.05L355.38,84.67L338.46,88.85L330,89.9L321.54,89.64L313.08,92.96L304.62,90.87L296.15,94.68L287.69,92.6L279.23,91.18L270.77,92.47L262.31,91.85L253.85,92.73L245.38,90.17L236.92,94.55L228.46,92.11L220,91.89L211.54,92.29L203.08,90.17L194.62,88.75L177.69,82.33L169.23,80.16L160.77,80.11L152.31,75.42L143.85,81.53L135.38,77.32L126.92,74.67L118.46,70.24L110,74.22L101.54,68.51L93.08,60.58L84.62,67.4L76.15,77.85L67.69,79.09L50.77,98.45L42.31,105.75L33.85,117.8L25.38,125.46L16.92,128.52L8.46,138.35L0,135.67Z" style="fill: rgb(255, 255, 191); fill-opacity: 1; stroke-width: 0;"/></g></g><g class="errorbars"/><g class="lines"><path class="js-line" d="M0,135.67L8.46,138.35L16.92,128.52L25.38,125.46L33.85,117.8L42.31,105.75L50.77,98.45L67.69,79.09L76.15,77.85L84.62,67.4L93.08,60.58L101.54,68.51L110,74.22L118.46,70.24L126.92,74.67L135.38,77.32L143.85,81.53L152.31,75.42L160.77,80.11L169.23,80.16L177.69,82.33L194.62,88.75L203.08,90.17L211.54,92.29L220,91.89L228.46,92.11L236.92,94.55L245.38,90.17L253.85,92.73L262.31,91.85L270.77,92.47L279.23,91.18L287.69,92.6L296.15,94.68L304.62,90.87L313.08,92.96L321.54,89.64L330,89.9L338.46,88.85L355.38,84.67L363.85,91.05L372.31,91.76L380.77,97.61L397.69,109.96L406.15,121.38L414.62,124.35L423.08,129.93L431.54,135.46L440,132.68" style="vector-effect: non-scaling-stroke; fill: none; stroke: rgb(0, 0, 0); stroke-opacity: 1; stroke-width: 1px; opacity: 1;"/></g><g class="points"/><g class="text"/></g><g class="trace scatter traced70b0e" style="stroke-miterlimit: 2;"><g class="fills"><g><path class="js-fill" d="M0,113.77L8.46,116.12L16.92,113.02L25.38,114.88L33.85,104.78L50.77,81.49L59.23,72.1L67.69,61.82L76.15,55.36L84.62,47.47L93.08,51.02L110,42.34L118.46,50.4L126.92,51.74L135.38,27.46L143.85,62.1L152.31,54.56L160.77,48.62L169.23,65.99L177.69,58.63L186.15,77.41L194.62,61.47L203.08,76.63L211.54,81.93L220,68.74L228.46,81.31L236.92,71.93L245.38,73.16L253.85,81.75L262.31,72.81L270.77,84.67L279.23,73.52L287.69,83.08L296.15,72.01L304.62,76.08L313.08,74.05L321.54,75.9L330,70.95L338.46,67.13L346.92,62.8L355.38,76.88L363.85,77.24L372.31,83.26L380.77,87.15L389.23,96.54L397.69,95.83L406.15,100.62L414.62,107.7L423.08,113.64L431.54,121.08L440,119.66L440,122.03L431.54,125.6L423.08,122.43L414.62,116.21L406.15,114.48L389.23,98.69L380.77,95.88L372.31,90.52L363.85,85.29L355.38,82.66L346.92,80.33L338.46,82.68L330,80.51L321.54,83.19L313.08,88.11L304.62,85.96L296.15,85.62L287.69,90.65L279.23,86.89L270.77,88.77L262.31,85.14L253.85,89.17L245.38,85.12L236.92,86.8L228.46,87.18L220,84.05L211.54,85.65L203.08,86.27L194.62,82.39L186.15,80.4L177.69,73.89L169.23,74.55L160.77,68.91L152.31,68.76L143.85,71.73L135.38,60.18L126.92,62.13L110,59.98L101.54,56.44L93.08,54.38L84.62,61.82L76.15,66.47L67.69,70.57L59.23,84.22L50.77,90.83L33.85,112.71L25.38,120.41L16.92,123.8L8.46,127.81L0,130.44Z" style="fill: rgb(252, 141, 89); fill-opacity: 1; stroke-width: 0;"/></g></g><g class="errorbars"/><g class="lines"><path class="js-line" d="M0,130.44L8.46,127.81L16.92,123.8L25.38,120.41L33.85,112.71L50.77,90.83L59.23,84.22L67.69,70.57L76.15,66.47L84.62,61.82L93.08,54.38L101.54,56.44L110,59.98L126.92,62.13L135.38,60.18L143.85,71.73L152.31,68.76L160.77,68.91L169.23,74.55L177.69,73.89L186.15,80.4L194.62,82.39L203.08,86.27L211.54,85.65L220,84.05L228.46,87.18L236.92,86.8L245.38,85.12L253.85,89.17L262.31,85.14L270.77,88.77L279.23,86.89L287.69,90.65L296.15,85.62L304.62,85.96L313.08,88.11L321.54,83.19L330,80.51L338.46,82.68L346.92,80.33L355.38,82.66L363.85,85.29L372.31,90.52L380.77,95.88L389.23,98.69L406.15,114.48L414.62,116.21L423.08,122.43L431.54,125.6L440,122.03" style="vector-effect: non-scaling-stroke; fill: none; stroke: rgb(0, 0, 0); stroke-opacity: 1; stroke-width: 0.5px; opacity: 1;"/></g><g class="points"/><g class="text"/></g><g class="trace scatter trace96fa48" style="stroke-miterlimit: 2;"><g class="fills"/><g class="errorbars"/><g class="lines"><path class="js-line" d="M0,113.77L8.46,116.12L16.92,113.02L25.38,114.88L33.85,104.78L50.77,81.49L59.23,72.1L67.69,61.82L76.15,55.36L84.62,47.47L93.08,51.02L110,42.34L118.46,50.4L126.92,51.74L135.38,27.46L143.85,62.1L152.31,54.56L160.77,48.62L169.23,65.99L177.69,58.63L186.15,77.41L194.62,61.47L203.08,76.63L211.54,81.93L220,68.74L228.46,81.31L236.92,71.93L245.38,73.16L253.85,81.75L262.31,72.81L270.77,84.67L279.23,73.52L287.69,83.08L296.15,72.01L304.62,76.08L313.08,74.05L321.54,75.9L330,70.95L338.46,67.13L346.92,62.8L355.38,76.88L363.85,77.24L372.31,83.26L380.77,87.15L389.23,96.54L397.69,95.83L406.15,100.62L414.62,107.7L423.08,113.64L431.54,121.08L440,119.66" style="vector-effect: non-scaling-stroke; fill: none; stroke: rgb(0, 0, 0); stroke-opacity: 1; stroke-width: 0.25px; opacity: 1;"/></g><g class="points"/><g class="text"/></g><g class="trace scatter tracecb3545" style="stroke-miterlimit: 2; opacity: 1;"><g class="fills"/><g class="errorbars"/><g class="lines"/><g class="points"><path class="point" transform="translate(160.77,68.2)" d="M4,0A4,4 0 1,1 0,-4A4,4 0 0,1 4,0ZM0,0.5L0.5,0L0,-0.5L-0.5,0Z" style="opacity: 1; stroke: rgb(0, 0, 0); stroke-opacity: 1; stroke-width: 1px; fill: none;"/><path class="point" transform="translate(169.23,74.4)" d="M4,0A4,4 0 1,1 0,-4A4,4 0 0,1 4,0ZM0,0.5L0.5,0L0,-0.5L-0.5,0Z" style="opacity: 1; stroke: rgb(0, 0, 0); stroke-opacity: 1; stroke-width: 1px; fill: none;"/><path class="point" transform="translate(177.69,74.4)" d="M4,0A4,4 0 1,1 0,-4A4,4 0 0,1 4,0ZM0,0.5L0.5,0L0,-0.5L-0.5,0Z" style="opacity: 1; stroke: rgb(0, 0, 0); stroke-opacity: 1; stroke-width: 1px; fill: none;"/><path class="point" transform="translate(186.15,74.4)" d="M4,0A4,4 0 1,1 0,-4A4,4 0 0,1 4,0ZM0,0.5L0.5,0L0,-0.5L-0.5,0Z" style="opacity: 1; stroke: rgb(0, 0, 0); stroke-opacity: 1; stroke-width: 1px; fill: none;"/></g><g class="text"/></g></g></g><g class="overplot"/><path class="xlines-above crisp" d="M0,0" style="fill: none;"/><path class="ylines-above crisp" d="M0,0" style="fill: none;"/><g class="overlines-above"/><g class="xaxislayer-above"/><g class="yaxislayer-above"><g class="y2tick"><text text-anchor="end" x="79" y="4.199999999999999" transform="translate(0,472.00000000000006)" style="font-family: 'Open Sans', verdana, arial, sans-serif; font-size: 12px; fill: rgb(42, 63, 95); fill-opacity: 1; white-space: pre; opacity: 1;">20</text></g><g class="y2tick"><text text-anchor="end" x="79" y="4.199999999999999" style="font-family: 'Open Sans', verdana, arial, sans-serif; font-size: 12px; fill: rgb(42, 63, 95); fill-opacity: 1; white-space: pre; opacity: 1;" transform="translate(0,410.00000000000006)">30</text></g><g class="y2tick"><text text-anchor="end" x="79" y="4.199999999999999" style="font-family: 'Open Sans', verdana, arial, sans-serif; font-size: 12px; fill: rgb(42, 63, 95); fill-opacity: 1; white-space: pre; opacity: 1;" transform="translate(0,348.00000000000006)">40</text></g></g><g class="overaxes-above"/></g><g class="subplot x3y3"><g class="layer-subplot"><g class="shapelayer"/><g class="imagelayer"/></g><g class="minor-gridlayer"><g class="x3"/><g class="y3"/></g><g class="gridlayer"><g class="x3"><path class="x3grid crisp" transform="translate(156.15,0)" d="M0,534v186" style="stroke: rgb(255, 255, 255); stroke-opacity: 1; stroke-width: 1px;"/><path class="x3grid crisp" transform="translate(240.77,0)" d="M0,534v186" style="stroke: rgb(255, 255, 255); stroke-opacity: 1; stroke-width: 1px;"/><path class="x3grid crisp" transform="translate(325.38,0)" d="M0,534v186" style="stroke: rgb(255, 255, 255); stroke-opacity: 1; stroke-width: 1px;"/><path class="x3grid crisp" transform="translate(410,0)" d="M0,534v186" style="stroke: rgb(255, 255, 255); stroke-opacity: 1; stroke-width: 1px;"/><path class="x3grid crisp" transform="translate(494.62,0)" d="M0,534v186" style="stroke: rgb(255, 255, 255); stroke-opacity: 1; stroke-width: 1px;"/></g><g class="y3"><path class="y3grid crisp" transform="translate(0,682.8)" d="M80,0h440" style="stroke: rgb(255, 255, 255); stroke-opacity: 1; stroke-width: 1px;"/><path class="y3grid crisp" transform="translate(0,645.6)" d="M80,0h440" style="stroke: rgb(255, 255, 255); stroke-opacity: 1; stroke-width: 1px;"/><path class="y3grid crisp" transform="translate(0,608.4)" d="M80,0h440" style="stroke: rgb(255, 255, 255); stroke-opacity: 1; stroke-width: 1px;"/><path class="y3grid crisp" transform="translate(0,571.2)" d="M80,0h440" style="stroke: rgb(255, 255, 255); stroke-opacity: 1; stroke-width: 1px;"/></g></g><g class="zerolinelayer"/><path class="xlines-below"/><path class="ylines-below"/><g class="overlines-below"/><g class="xaxislayer-below"/><g class="yaxislayer-below"/><g class="overaxes-below"/><g class="plot" transform="translate(80,534)" clip-path="url(#clip458e10x3y3plot)"><g class="scatterlayer mlayer"><g class="trace scatter trace7c77e7" style="stroke-miterlimit: 2;"><g class="fills"><g><path class="js-fill" d="M0,119.79L8.46,125.34L16.92,121.7L25.38,122.26L33.85,117.82L42.31,104.87L50.77,97.09L59.23,93.77L67.69,77.4L76.15,74.72L84.62,68.18L101.54,60.22L110,59.3L126.92,51.04L135.38,52.43L143.85,51.34L152.31,44.24L160.77,40.52L169.23,38.87L194.62,37.15L203.08,36.43L211.54,36.99L220,36.24L236.92,38.21L245.38,38.02L253.85,38.58L262.31,37.68L287.69,38.91L296.15,39.41L304.62,39.43L313.08,41.56L321.54,40.71L330,41.98L346.92,48.94L355.38,50.05L363.85,59.44L372.31,64.54L380.77,72.94L389.23,82.9L397.69,94.25L406.15,103.18L414.62,105.28L423.08,116.34L431.54,118.72L440,131.67L440,136.69L431.54,135.64L423.08,130.97L414.62,122.65L406.15,115.64L397.69,110.98L389.23,91.72L380.77,81.41L372.31,79.72L363.85,66L355.38,55.69L346.92,54.42L330,46.34L321.54,44.53L313.08,46.55L304.62,41.35L296.15,41.45L287.69,40.71L279.23,41.13L270.77,39.43L262.31,41.56L253.85,41.45L220,38.05L211.54,38.48L203.08,39.86L194.62,41.98L186.15,42.51L177.69,46.13L169.23,42.3L160.77,44.85L135.38,61.65L126.92,57.29L118.46,63.77L110,67.49L101.54,74.93L93.08,80.89L84.62,83.43L76.15,90.03L67.69,85.67L59.23,118.52L50.77,119.57L42.31,128.62L33.85,141.48L25.38,140.52L16.92,131.59L8.46,136.15L0,123.6Z" style="fill: rgb(90, 180, 172); fill-opacity: 1; stroke-width: 0;"/></g></g><g class="errorbars"/><g class="lines"><path class="js-line" d="M0,123.6L8.46,136.15L16.92,131.59L25.38,140.52L33.85,141.48L42.31,128.62L50.77,119.57L59.23,118.52L67.69,85.67L76.15,90.03L84.62,83.43L93.08,80.89L101.54,74.93L110,67.49L118.46,63.77L126.92,57.29L135.38,61.65L160.77,44.85L169.23,42.3L177.69,46.13L186.15,42.51L194.62,41.98L203.08,39.86L211.54,38.48L220,38.05L253.85,41.45L262.31,41.56L270.77,39.43L279.23,41.13L287.69,40.71L296.15,41.45L304.62,41.35L313.08,46.55L321.54,44.53L330,46.34L346.92,54.42L355.38,55.69L363.85,66L372.31,79.72L380.77,81.41L389.23,91.72L397.69,110.98L406.15,115.64L414.62,122.65L423.08,130.97L431.54,135.64L440,136.69" style="vector-effect: non-scaling-stroke; fill: none; stroke: rgb(0, 0, 0); stroke-opacity: 1; stroke-width: 0.25px; opacity: 1;"/></g><g class="points"/><g class="text"/></g><g class="trace scatter trace243a73" style="stroke-miterlimit: 2;"><g class="fills"><g><path class="js-fill" d="M0,115.65L8.46,120.69L16.92,114.63L25.38,110.21L33.85,109.79L42.31,95.23L50.77,91.14L59.23,83.04L67.69,73.34L76.15,71.58L84.62,61.59L93.08,55.06L101.54,54.1L110,54.37L118.46,50.96L126.92,47.99L135.38,48.15L143.85,47.35L152.31,41.82L160.77,38.95L169.23,37.84L177.69,36.08L186.15,36.03L203.08,34.91L211.54,35.55L228.46,35.13L236.92,36.19L253.85,37.47L262.31,34.83L270.77,36.4L279.23,37.09L287.69,36.72L296.15,38.1L313.08,39.64L321.54,39.22L330,40.71L338.46,43.18L346.92,44.91L355.38,47.56L363.85,56.07L372.31,59.31L380.77,66.35L389.23,77.75L397.69,86.3L406.15,90.5L414.62,100.71L423.08,104.21L431.54,112.82L440,125.7L440,131.67L431.54,118.72L423.08,116.34L414.62,105.28L406.15,103.18L397.69,94.25L389.23,82.9L380.77,72.94L372.31,64.54L363.85,59.44L355.38,50.05L346.92,48.94L330,41.98L321.54,40.71L313.08,41.56L304.62,39.43L296.15,39.41L287.69,38.91L262.31,37.68L253.85,38.58L245.38,38.02L236.92,38.21L220,36.24L211.54,36.99L203.08,36.43L194.62,37.15L169.23,38.87L160.77,40.52L152.31,44.24L143.85,51.34L135.38,52.43L126.92,51.04L110,59.3L101.54,60.22L84.62,68.18L76.15,74.72L67.69,77.4L59.23,93.77L50.77,97.09L42.31,104.87L33.85,117.82L25.38,122.26L16.92,121.7L8.46,125.34L0,119.79Z" style="fill: rgb(245, 245, 245); fill-opacity: 1; stroke-width: 0;"/></g></g><g class="errorbars"/><g class="lines"><path class="js-line" d="M0,119.79L8.46,125.34L16.92,121.7L25.38,122.26L33.85,117.82L42.31,104.87L50.77,97.09L59.23,93.77L67.69,77.4L76.15,74.72L84.62,68.18L101.54,60.22L110,59.3L126.92,51.04L135.38,52.43L143.85,51.34L152.31,44.24L160.77,40.52L169.23,38.87L194.62,37.15L203.08,36.43L211.54,36.99L220,36.24L236.92,38.21L245.38,38.02L253.85,38.58L262.31,37.68L287.69,38.91L296.15,39.41L304.62,39.43L313.08,41.56L321.54,40.71L330,41.98L346.92,48.94L355.38,50.05L363.85,59.44L372.31,64.54L380.77,72.94L389.23,82.9L397.69,94.25L406.15,103.18L414.62,105.28L423.08,116.34L431.54,118.72L440,131.67" style="vector-effect: non-scaling-stroke; fill: none; stroke: rgb(0, 0, 0); stroke-opacity: 1; stroke-width: 0.5px; opacity: 1;"/></g><g class="points"/><g class="text"/></g><g class="trace scatter trace3ef4e2" style="stroke-miterlimit: 2;"><g class="fills"><g><path class="js-fill" d="M0,109.83L8.46,112.66L16.92,109.69L33.85,98.98L42.31,88L50.77,81.39L59.23,72.49L67.69,66.43L76.15,62.73L84.62,53.39L93.08,50.77L101.54,49.1L110,49.61L126.92,43.92L135.38,43.44L152.31,39.87L160.77,36.91L169.23,33.89L177.69,32.44L186.15,33.43L194.62,32.98L211.54,33.93L220,33.56L228.46,32.5L236.92,34.52L245.38,35.53L253.85,34.17L262.31,32.98L270.77,34.73L279.23,33.85L287.69,35.34L304.62,37.64L313.08,37.73L321.54,36.38L330,37.28L346.92,39.35L355.38,44.29L363.85,50.54L372.31,53.51L380.77,64.04L389.23,70.76L397.69,78.49L406.15,83.97L414.62,90.93L423.08,91.51L440,118.3L440,125.7L431.54,112.82L423.08,104.21L414.62,100.71L406.15,90.5L397.69,86.3L389.23,77.75L380.77,66.35L372.31,59.31L363.85,56.07L355.38,47.56L346.92,44.91L338.46,43.18L330,40.71L321.54,39.22L313.08,39.64L296.15,38.1L287.69,36.72L279.23,37.09L270.77,36.4L262.31,34.83L253.85,37.47L236.92,36.19L228.46,35.13L211.54,35.55L203.08,34.91L186.15,36.03L177.69,36.08L169.23,37.84L160.77,38.95L152.31,41.82L143.85,47.35L135.38,48.15L126.92,47.99L118.46,50.96L110,54.37L101.54,54.1L93.08,55.06L84.62,61.59L76.15,71.58L67.69,73.34L59.23,83.04L50.77,91.14L42.31,95.23L33.85,109.79L25.38,110.21L16.92,114.63L8.46,120.69L0,115.65Z" style="fill: rgb(245, 245, 245); fill-opacity: 1; stroke-width: 0;"/></g></g><g class="errorbars"/><g class="lines"><path class="js-line" d="M0,115.65L8.46,120.69L16.92,114.63L25.38,110.21L33.85,109.79L42.31,95.23L50.77,91.14L59.23,83.04L67.69,73.34L76.15,71.58L84.62,61.59L93.08,55.06L101.54,54.1L110,54.37L118.46,50.96L126.92,47.99L135.38,48.15L143.85,47.35L152.31,41.82L160.77,38.95L169.23,37.84L177.69,36.08L186.15,36.03L203.08,34.91L211.54,35.55L228.46,35.13L236.92,36.19L253.85,37.47L262.31,34.83L270.77,36.4L279.23,37.09L287.69,36.72L296.15,38.1L313.08,39.64L321.54,39.22L330,40.71L338.46,43.18L346.92,44.91L355.38,47.56L363.85,56.07L372.31,59.31L380.77,66.35L389.23,77.75L397.69,86.3L406.15,90.5L414.62,100.71L423.08,104.21L431.54,112.82L440,125.7" style="vector-effect: non-scaling-stroke; fill: none; stroke: rgb(0, 0, 0); stroke-opacity: 1; stroke-width: 1px; opacity: 1;"/></g><g class="points"/><g class="text"/></g><g class="trace scatter traceaec75a" style="stroke-miterlimit: 2;"><g class="fills"><g><path class="js-fill" d="M0,101.93L8.46,102.42L16.92,91.94L25.38,92.68L33.85,87.79L50.77,64.62L59.23,66.11L67.69,55.06L76.15,49.42L93.08,41.35L101.54,39.58L110,38.05L118.46,38.9L126.92,41.03L135.38,33.8L143.85,34.22L152.31,38.16L160.77,35.61L169.23,28.06L177.69,28.59L186.15,28.06L194.62,27.53L203.08,29.65L220,31.67L228.46,28.16L236.92,33.05L245.38,33.8L253.85,29.12L262.31,27L270.77,32.95L279.23,28.7L287.69,33.91L296.15,34.76L304.62,36.35L313.08,32.63L330,32.42L338.46,31.25L346.92,26.88L355.38,37.09L363.85,42.09L372.31,45.17L380.77,55.37L389.23,62.18L397.69,69.09L406.15,74.64L414.62,74.36L423.08,85.13L431.54,94.7L440,98.95L440,118.3L423.08,91.51L414.62,90.93L406.15,83.97L397.69,78.49L389.23,70.76L380.77,64.04L372.31,53.51L363.85,50.54L355.38,44.29L346.92,39.35L330,37.28L321.54,36.38L313.08,37.73L304.62,37.64L287.69,35.34L279.23,33.85L270.77,34.73L262.31,32.98L253.85,34.17L245.38,35.53L236.92,34.52L228.46,32.5L220,33.56L211.54,33.93L194.62,32.98L186.15,33.43L177.69,32.44L169.23,33.89L160.77,36.91L152.31,39.87L135.38,43.44L126.92,43.92L110,49.61L101.54,49.1L93.08,50.77L84.62,53.39L76.15,62.73L67.69,66.43L59.23,72.49L50.77,81.39L42.31,88L33.85,98.98L16.92,109.69L8.46,112.66L0,109.83Z" style="fill: rgb(216, 179, 101); fill-opacity: 1; stroke-width: 0;"/></g></g><g class="errorbars"/><g class="lines"><path class="js-line" d="M0,109.83L8.46,112.66L16.92,109.69L33.85,98.98L42.31,88L50.77,81.39L59.23,72.49L67.69,66.43L76.15,62.73L84.62,53.39L93.08,50.77L101.54,49.1L110,49.61L126.92,43.92L135.38,43.44L152.31,39.87L160.77,36.91L169.23,33.89L177.69,32.44L186.15,33.43L194.62,32.98L211.54,33.93L220,33.56L228.46,32.5L236.92,34.52L245.38,35.53L253.85,34.17L262.31,32.98L270.77,34.73L279.23,33.85L287.69,35.34L304.62,37.64L313.08,37.73L321.54,36.38L330,37.28L346.92,39.35L355.38,44.29L363.85,50.54L372.31,53.51L380.77,64.04L389.23,70.76L397.69,78.49L406.15,83.97L414.62,90.93L423.08,91.51L440,118.3" style="vector-effect: non-scaling-stroke; fill: none; stroke: rgb(0, 0, 0); stroke-opacity: 1; stroke-width: 0.5px; opacity: 1;"/></g><g class="points"/><g class="text"/></g><g class="trace scatter tracedc4f34" style="stroke-miterlimit: 2;"><g class="fills"/><g class="errorbars"/><g class="lines"><path class="js-line" d="M0,101.93L8.46,102.42L16.92,91.94L25.38,92.68L33.85,87.79L50.77,64.62L59.23,66.11L67.69,55.06L76.15,49.42L93.08,41.35L101.54,39.58L110,38.05L118.46,38.9L126.92,41.03L135.38,33.8L143.85,34.22L152.31,38.16L160.77,35.61L169.23,28.06L177.69,28.59L186.15,28.06L194.62,27.53L203.08,29.65L220,31.67L228.46,28.16L236.92,33.05L245.38,33.8L253.85,29.12L262.31,27L270.77,32.95L279.23,28.7L287.69,33.91L296.15,34.76L304.62,36.35L313.08,32.63L330,32.42L338.46,31.25L346.92,26.88L355.38,37.09L363.85,42.09L372.31,45.17L380.77,55.37L389.23,62.18L397.69,69.09L406.15,74.64L414.62,74.36L423.08,85.13L431.54,94.7L440,98.95" style="vector-effect: non-scaling-stroke; fill: none; stroke: rgb(0, 0, 0); stroke-opacity: 1; stroke-width: 0.25px; opacity: 1;"/></g><g class="points"/><g class="text"/></g><g class="trace scatter trace48cba8" style="stroke-miterlimit: 2; opacity: 1;"><g class="fills"/><g class="errorbars"/><g class="lines"/><g class="points"><path class="point" transform="translate(160.77,44.64)" d="M4,0A4,4 0 1,1 0,-4A4,4 0 0,1 4,0ZM0,0.5L0.5,0L0,-0.5L-0.5,0Z" style="opacity: 1; stroke: rgb(0, 0, 0); stroke-opacity: 1; stroke-width: 1px; fill: none;"/><path class="point" transform="translate(169.23,37.2)" d="M4,0A4,4 0 1,1 0,-4A4,4 0 0,1 4,0ZM0,0.5L0.5,0L0,-0.5L-0.5,0Z" style="opacity: 1; stroke: rgb(0, 0, 0); stroke-opacity: 1; stroke-width: 1px; fill: none;"/><path class="point" transform="translate(177.69,37.2)" d="M4,0A4,4 0 1,1 0,-4A4,4 0 0,1 4,0ZM0,0.5L0.5,0L0,-0.5L-0.5,0Z" style="opacity: 1; stroke: rgb(0, 0, 0); stroke-opacity: 1; stroke-width: 1px; fill: none;"/><path class="point" transform="translate(186.15,37.2)" d="M4,0A4,4 0 1,1 0,-4A4,4 0 0,1 4,0ZM0,0.5L0.5,0L0,-0.5L-0.5,0Z" style="opacity: 1; stroke: rgb(0, 0, 0); stroke-opacity: 1; stroke-width: 1px; fill: none;"/></g><g class="text"/></g></g></g><g class="overplot"/><path class="xlines-above crisp" d="M0,0" style="fill: none;"/><path class="ylines-above crisp" d="M0,0" style="fill: none;"/><g class="overlines-above"/><g class="xaxislayer-above"><g class="x3tick"><text text-anchor="middle" x="0" y="733" transform="translate(156.15,0)" style="font-family: 'Open Sans', verdana, arial, sans-serif; font-size: 12px; fill: rgb(42, 63, 95); fill-opacity: 1; white-space: pre; opacity: 1;">10</text></g><g class="x3tick"><text text-anchor="middle" x="0" y="733" style="font-family: 'Open Sans', verdana, arial, sans-serif; font-size: 12px; fill: rgb(42, 63, 95); fill-opacity: 1; white-space: pre; opacity: 1;" transform="translate(240.77,0)">20</text></g><g class="x3tick"><text text-anchor="middle" x="0" y="733" style="font-family: 'Open Sans', verdana, arial, sans-serif; font-size: 12px; fill: rgb(42, 63, 95); fill-opacity: 1; white-space: pre; opacity: 1;" transform="translate(325.38,0)">30</text></g><g class="x3tick"><text text-anchor="middle" x="0" y="733" style="font-family: 'Open Sans', verdana, arial, sans-serif; font-size: 12px; fill: rgb(42, 63, 95); fill-opacity: 1; white-space: pre; opacity: 1;" transform="translate(410,0)">40</text></g><g class="x3tick"><text text-anchor="middle" x="0" y="733" style="font-family: 'Open Sans', verdana, arial, sans-serif; font-size: 12px; fill: rgb(42, 63, 95); fill-opacity: 1; white-space: pre; opacity: 1;" transform="translate(494.62,0)">50</text></g></g><g class="yaxislayer-above"><g class="y3tick"><text text-anchor="end" x="79" y="4.199999999999999" transform="translate(0,720)" style="font-family: 'Open Sans', verdana, arial, sans-serif; font-size: 12px; fill: rgb(42, 63, 95); fill-opacity: 1; white-space: pre; opacity: 1;">5</text></g><g class="y3tick"><text text-anchor="end" x="79" y="4.199999999999999" style="font-family: 'Open Sans', verdana, arial, sans-serif; font-size: 12px; fill: rgb(42, 63, 95); fill-opacity: 1; white-space: pre; opacity: 1;" transform="translate(0,682.8)">10</text></g><g class="y3tick"><text text-anchor="end" x="79" y="4.199999999999999" style="font-family: 'Open Sans', verdana, arial, sans-serif; font-size: 12px; fill: rgb(42, 63, 95); fill-opacity: 1; white-space: pre; opacity: 1;" transform="translate(0,645.6)">15</text></g><g class="y3tick"><text text-anchor="end" x="79" y="4.199999999999999" style="font-family: 'Open Sans', verdana, arial, sans-serif; font-size: 12px; fill: rgb(42, 63, 95); fill-opacity: 1; white-space: pre; opacity: 1;" transform="translate(0,608.4)">20</text></g><g class="y3tick"><text text-anchor="end" x="79" y="4.199999999999999" style="font-family: 'Open Sans', verdana, arial, sans-serif; font-size: 12px; fill: rgb(42, 63, 95); fill-opacity: 1; white-space: pre; opacity: 1;" transform="translate(0,571.2)">25</text></g><g class="y3tick"><text text-anchor="end" x="79" y="4.199999999999999" style="font-family: 'Open Sans', verdana, arial, sans-serif; font-size: 12px; fill: rgb(42, 63, 95); fill-opacity: 1; white-space: pre; opacity: 1;" transform="translate(0,534)">30</text></g></g><g class="overaxes-above"/></g></g><g class="polarlayer"/><g class="smithlayer"/><g class="ternarylayer"/><g class="geolayer"/><g class="funnelarealayer"/><g class="pielayer"/><g class="iciclelayer"/><g class="treemaplayer"/><g class="sunburstlayer"/><g class="glimages"/><defs id="topdefs-458e10"><g class="clips"/></defs><g class="layer-above"><g class="imagelayer"/><g class="shapelayer"/></g><g class="infolayer"><g class="g-gtitle"><text class="gtitle" x="30" y="50" text-anchor="start" dy="0em" style="font-family: 'Open Sans', verdana, arial, sans-serif; font-size: 17px; fill: rgb(42, 63, 95); opacity: 1; font-weight: normal; white-space: pre;">Climatology and S2S forecast for Madaripur</text></g><g class="g-xtitle"/><g class="g-x2title"/><g class="g-x3title"/><g class="g-ytitle"><text class="ytitle" transform="rotate(-90,34.16875,193)" x="34.16875" y="193" text-anchor="middle" style="font-family: 'Open Sans', verdana, arial, sans-serif; font-size: 14px; fill: rgb(42, 63, 95); opacity: 1; font-weight: normal; white-space: pre;">[mm]</text></g><g class="g-y2title"><text class="y2title" transform="rotate(-90,40.840625,410.00000000000006)" x="40.840625" y="410.00000000000006" text-anchor="middle" style="font-family: 'Open Sans', verdana, arial, sans-serif; font-size: 14px; fill: rgb(42, 63, 95); opacity: 1; font-weight: normal; white-space: pre;">[C]</text></g><g class="g-y3title"><text class="y3title" transform="rotate(-90,40.840625,627)" x="40.840625" y="627" text-anchor="middle" style="font-family: 'Open Sans', verdana, arial, sans-serif; font-size: 14px; fill: rgb(42, 63, 95); opacity: 1; font-weight: normal; white-space: pre;">[C]</text></g><g class="annotation" data-index="0" style="opacity: 1;"><g class="annotation-text-g" transform="rotate(0,300,89.5)"><g class="cursor-pointer" transform="translate(237,79)"><rect class="bg" x="0.5" y="0.5" width="126" height="20" style="stroke-width: 1px; stroke: rgb(0, 0, 0); stroke-opacity: 0; fill: rgb(0, 0, 0); fill-opacity: 0;"/><text class="annotation-text" text-anchor="middle" x="63.359375" y="16" style="font-family: 'Open Sans', verdana, arial, sans-serif; font-size: 16px; fill: rgb(42, 63, 95); fill-opacity: 1; white-space: pre;">Precipitation sum</text></g></g></g><g class="annotation" data-index="1" style="opacity: 1;"><g class="annotation-text-g" transform="rotate(0,300,306.50000000000006)"><g class="cursor-pointer" transform="translate(196,296)"><rect class="bg" x="0.5" y="0.5" width="208" height="20" style="stroke-width: 1px; stroke: rgb(0, 0, 0); stroke-opacity: 0; fill: rgb(0, 0, 0); fill-opacity: 0;"/><text class="annotation-text" text-anchor="middle" x="104.265625" y="16" style="font-family: 'Open Sans', verdana, arial, sans-serif; font-size: 16px; fill: rgb(42, 63, 95); fill-opacity: 1; white-space: pre;">Mean maximum temperature</text></g></g></g><g class="annotation" data-index="2" style="opacity: 1;"><g class="annotation-text-g" transform="rotate(0,300,523.5)"><g class="cursor-pointer" transform="translate(198,513)"><rect class="bg" x="0.5" y="0.5" width="203" height="20" style="stroke-width: 1px; stroke: rgb(0, 0, 0); stroke-opacity: 0; fill: rgb(0, 0, 0); fill-opacity: 0;"/><text class="annotation-text" text-anchor="middle" x="102.046875" y="16" style="font-family: 'Open Sans', verdana, arial, sans-serif; font-size: 16px; fill: rgb(42, 63, 95); fill-opacity: 1; white-space: pre;">Mean minimum temperature</text></g></g></g><g class="annotation" data-index="3" style="opacity: 1;"><g class="annotation-text-g" transform="rotate(0,300,760.5)"><g class="cursor-pointer" transform="translate(277,750)"><rect class="bg" x="0.5" y="0.5" width="45" height="20" style="stroke-width: 1px; stroke: rgb(0, 0, 0); stroke-opacity: 0; fill: rgb(0, 0, 0); fill-opacity: 0;"/><text class="annotation-text" text-anchor="middle" x="22.3125" y="16" style="font-family: 'Open Sans', verdana, arial, sans-serif; font-size: 16px; fill: rgb(42, 63, 95); fill-opacity: 1; white-space: pre;">Week</text></g></g></g></g></svg>