<svg class="main-svg" xmlns="http://www.w3.org/2000/svg" xmlns:xlink="http://www.w3.org/1999/xlink" width="600" height="800" style="" viewBox="0 0 600 800"><rect x="0" y="0" width="600" height="800" style="fill: rgb(255, 255, 255); fill-opacity: 1;"/><defs id="defs-d28a76"><g class="clips"><clipPath id="clipd28a76xyplot" class="plotclip"><rect width="440" height="186.00000000000003"/></clipPath><clipPath id="clipd28a76x2y2plot" class="plotclip"><rect width="440" height="185.99999999999997"/></clipPath><clipPath id="clipd28a76x3y3plot" class="plotclip"><rect width="440" height="186"/></clipPath><clipPath class="axesclip" id="clipd28a76x"><rect x="80" y="0" width="440" height="800"/></clipPath><clipPath class="axesclip" id="clipd28a76y"><rect x="0" y="100" width="600" height="186.00000000000003"/></clipPath><clipPath class="axesclip" id="clipd28a76xy"><rect x="80" y="100" width="440" height="186.00000000000003"/></clipPath><clipPath class="axesclip" id="clipd28a76y2"><rect x="0" y="317.00000000000006" width="600" height="185.99999999999997"/></clipPath><clipPath class="axesclip" id="clipd28a76xy2"><rect x="80" y="317.00000000000006" width="440" height="185.99999999999997"/></clipPath><clipPath class="axesclip" id="clipd28a76y3"><rect x="0" y="534" width="600" height="186"/></clipPath><clipPath class="axesclip" id="clipd28a76xy3"><rect x="80" y="534" width="440" height="186"/></clipPath><clipPath class="axesclip" id="clipd28a76x2"><rect x="80" y="0" width="440" height="800"/></clipPath><clipPath class="axesclip" id="clipd28a76x2y"><rect x="80" y="100" width="440" height="186.00000000000003"/></clipPath><clipPath class="axesclip" id="clipd28a76x2y2"><rect x="80" y="317.00000000000006" width="440" height="185.99999999999997"/></clipPath><clipPath class="axesclip" id="clipd28a76x2y3"><rect x="80" y="534" width="440" height="186"/></clipPath><clipPath class="axesclip" id="clipd28a76x3"><rect x="80" y="0" width="440" height="800"/></clipPath><clipPath class="axesclip" id="clipd28a76x3y"><rect x="80" y="100" width="440" height="186.00000000000003"/></clipPath><clipPath class="axesclip" id="clipd28a76x3y2"><rect x="80" y="317.00000000000006" width="440" height="185.99999999999997"/></clipPath><clipPath class="axesclip" id="clipd28a76x3y3"><rect x="80" y="534" width="440" height="186"/></clipPath></g><g class="gradients"/><g class="patterns"/></defs><g class="bglayer"><rect class="bg" x="80" y="100" width="440" height="186.00000000000003" style="fill: rgb(229, 236, 246); fill-opacity: 1; stroke-width: 0;"/><rect class="bg" x="80" y="317.00000000000006" width="440" height="185.99999999999997" style="fill: rgb(229, 236, 246); fill-opacity: 1; stroke-width: 0;"/><rect class="bg" x="80" y="534" width="440" height="186" style="fill: rgb(229, 236, 246); fill-opacity: 1; stroke-width: 0;"/></g><g class="layer-below"><g class="imagelayer"/><g class="shapelayer"/></g><g class="cartesianlayer"><g class="subplot xy"><g class="layer-subplot"><g class="shapelayer"/><g class="imagelayer"/></g><g class="minor-gridlayer"><g class="x"/><g class="y"/></g><g class="gridlayer"><g class="x"><path class="xgrid crisp" transform="translate(156.15,0)" d="M0,100v186.00000000000003" style="stroke: rgb(255, 255, 255); stroke-opacity: 1; stroke-width: 1px;"/><path class="xgrid crisp" transform="translate(240.77,0)" d="M0,100v186.00000000000003" style="stroke: rgb(255, 255, 255); stroke-opacity: 1; stroke-width: 1px;"/><path class="xgrid crisp" transform="translate(325.38,0)" d="M0,100v186.00000000000003" style="stroke: rgb(255, 255, 255); stroke-opacity: 1; stroke-width: 1px;"/><path class="xgrid crisp" transform="translate(410,0)" d="M0,100v186.00000000000003" style="stroke: rgb(255, 255, 255); stroke-opacity: 1; stroke-width: 1px;"/><path class="xgrid crisp" transform="translate(494.62,0)" d="M0,100v186.00000000000003" style="stroke: rgb(255, 255, 255); stroke-opacity: 1; stroke-width: 1px;"/></g><g class="y"><path class="ygrid crisp" transform="translate(0,248.8)" d="M80,0h440" style="stroke: rgb(255, 255, 255); stroke-opacity: 1; stroke-width: 1px;"/><path class="ygrid crisp" transform="translate(0,211.6)" d="M80,0h440" style="stroke: rgb(255, 255, 255); stroke-opacity: 1; stroke-width: 1px;"/><path class="ygrid crisp" transform="translate(0,174.4)" d="M80,0h440" style="stroke: rgb(255, 255, 255); stroke-opacity: 1; stroke-width: 1px;"/><path class="ygrid crisp" transform="translate(0,137.2)" d="M80,0h440" style="stroke: rgb(255, 255, 255); stroke-opacity: 1; stroke-width: 1px;"/></g></g><g class="zerolinelayer"><path class="yzl zl crisp" transform="translate(0,286)" d="M80,0h440" style="stroke: rgb(255, 255, 255); stroke-opacity: 1; stroke-width: 2px;"/></g><path class="xlines-below"/><path class="ylines-below"/><g class="overlines-below"/><g class="xaxislayer-below"/><g class="yaxislayer-below"/><g class="overaxes-below"/><g class="plot" transform="translate(80,100)" clip-path="url(#clipd28a76xyplot)"><g class="scatterlayer mlayer"><g class="trace scatter tracefb1053" style="stroke-miterlimit: 2;"><g class="fills"><g><path class="js-fill" d="M0,186L126.92,185.37L135.38,180.32L143.85,169.77L152.31,185.24L160.77,164.44L169.23,169.22L177.69,168.56L186.15,151.34L194.62,157.57L203.08,148.42L211.54,138.56L220,160.28L228.46,150.81L236.92,147.84L245.38,147.38L253.85,167.67L262.31,157.3L270.77,130.34L279.23,156.83L287.69,158.46L296.15,157.47L304.62,159.04L313.08,165.45L321.54,161.78L330,179.1L338.46,167.07L346.92,180.27L355.38,186L440,186L440,186L330,186L321.54,183.54L304.62,174.28L296.15,175.41L287.69,175.6L279.23,181.65L270.77,167.18L262.31,181.5L253.85,184.14L245.38,178.51L236.92,180.57L228.46,173.76L220,181.24L211.54,169.07L203.08,180.36L194.62,175.73L186.15,179.4L177.69,185.93L169.23,181.57L160.77,186L0,186Z" style="fill: rgb(224, 236, 244); fill-opacity: 1; stroke-width: 0;"/></g></g><g class="errorbars"/><g class="lines"><path class="js-line" d="M0,186L160.77,186L169.23,181.57L177.69,185.93L186.15,179.4L194.62,175.73L203.08,180.36L211.54,169.07L220,181.24L228.46,173.76L236.92,180.57L245.38,178.51L253.85,184.14L262.31,181.5L270.77,167.18L279.23,181.65L287.69,175.6L296.15,175.41L304.62,174.28L321.54,183.54L330,186L440,186" style="vector-effect: non-scaling-stroke; fill: none; stroke: rgb(0, 0, 0); stroke-opacity: 1; stroke-width: 0.25px; opacity: 1;"/></g><g class="points"/><g class="text"/></g><g class="trace scatter trace17617d" style="stroke-miterlimit: 2;"><g class="fills"><g><path class="js-fill" d="M0,186L93.08,185.51L101.54,185.2L110,183.02L118.46,181.62L126.92,177.12L135.38,170.46L143.85,161.48L152.31,159.48L160.77,139.61L169.23,147.01L177.69,139.44L186.15,117.52L194.62,127.54L203.08,125.17L211.54,116.02L220,99.22L228.46,116.13L236.92,126.35L245.38,113.83L253.85,130.91L262.31,133.77L270.77,109.96L287.69,145.37L296.15,146.91L304.62,132.1L313.08,141.15L330,154.94L338.46,142.49L346.92,161.01L355.38,183.3L372.31,185.94L380.77,186L440,186L440,186L355.38,186L346.92,180.27L338.46,167.07L330,179.1L321.54,161.78L313.08,165.45L304.62,159.04L296.15,157.47L287.69,158.46L279.23,156.83L270.77,130.34L262.31,157.3L253.85,167.67L245.38,147.38L236.92,147.84L228.46,150.81L220,160.28L211.54,138.56L203.08,148.42L194.62,157.57L186.15,151.34L177.69,168.56L169.23,169.22L160.77,164.44L152.31,185.24L143.85,169.77L135.38,180.32L126.92,185.37L0,186Z" style="fill: rgb(158, 188, 218); fill-opacity: 1; stroke-width: 0;"/></g></g><g class="errorbars"/><g class="lines"><path class="js-line" d="M0,186L126.92,185.37L135.38,180.32L143.85,169.77L152.31,185.24L160.77,164.44L169.23,169.22L177.69,168.56L186.15,151.34L194.62,157.57L203.08,148.42L211.54,138.56L220,160.28L228.46,150.81L236.92,147.84L245.38,147.38L253.85,167.67L262.31,157.3L270.77,130.34L279.23,156.83L287.69,158.46L296.15,157.47L304.62,159.04L313.08,165.45L321.54,161.78L330,179.1L338.46,167.07L346.92,180.27L355.38,186L440,186" style="vector-effect: non-scaling-stroke; fill: none; stroke: rgb(0, 0, 0); stroke-opacity: 1; stroke-width: 0.5px; opacity: 1;"/></g><g class="points"/><g class="text"/></g><g class="trace scatter trace2555a7" style="stroke-miterlimit: 2;"><g class="fills"><g><path class="js-fill" d="M0,185.96L76.15,185.8L84.62,184.97L93.08,178.74L101.54,178.79L110,160.47L118.46,172.87L126.92,148.23L135.38,139.98L143.85,144.32L152.31,109.67L160.77,101.92L169.23,98.62L177.69,109.04L186.15,83.09L194.62,32.71L203.08,13.03L211.54,31.02L220,15.33L228.46,64.52L236.92,15.51L245.38,31.95L253.85,39.97L262.31,81.39L270.77,95.7L279.23,101.83L287.69,114.22L296.15,129.36L304.62,95.93L321.54,127.59L330,117.78L338.46,104.87L346.92,144.13L355.38,169.3L363.85,175.06L372.31,171.59L380.77,185.08L389.23,186L397.69,186L440,186L440,186L380.77,186L372.31,185.94L355.38,183.3L346.92,161.01L338.46,142.49L330,154.94L313.08,141.15L304.62,132.1L296.15,146.91L287.69,145.37L270.77,109.96L262.31,133.77L253.85,130.91L245.38,113.83L236.92,126.35L228.46,116.13L220,99.22L211.54,116.02L203.08,125.17L194.62,127.54L186.15,117.52L177.69,139.44L169.23,147.01L160.77,139.61L152.31,159.48L143.85,161.48L135.38,170.46L126.92,177.12L118.46,181.62L110,183.02L101.54,185.2L93.08,185.51L0,186Z" style="fill: rgb(158, 188, 218); fill-opacity: 1; stroke-width: 0;"/></g></g><g class="errorbars"/><g class="lines"><path class="js-line" d="M0,186L93.08,185.51L101.54,185.2L110,183.02L118.46,181.62L126.92,177.12L135.38,170.46L143.85,161.48L152.31,159.48L160.77,139.61L169.23,147.01L177.69,139.44L186.15,117.52L194.62,127.54L203.08,125.17L211.54,116.02L220,99.22L228.46,116.13L236.92,126.35L245.38,113.83L253.85,130.91L262.31,133.77L270.77,109.96L287.69,145.37L296.15,146.91L304.62,132.1L313.08,141.15L330,154.94L338.46,142.49L346.92,161.01L355.38,183.3L372.31,185.94L380.77,186L440,186" style="vector-effect: non-scaling-stroke; fill: none; stroke: rgb(0, 0, 0); stroke-opacity: 1; stroke-width: 1px; opacity: 1;"/></g><g class="points"/><g class="text"/></g><g class="trace scatter tracedf9f80" style="stroke-miterlimit: 2;"><g class="fills"><g><path class="js-fill" d="M0,185.94L42.31,186L50.77,185.48L76.15,185.74L84.62,184.47L93.08,170.69L101.54,175.35L110,128.35L118.46,157.42L126.92,131.85L135.38,116.2L143.85,107.21L152.31,25.36L160.77,47.54L169.23,49.08L177.69,63.24L186.15,40.61L194.62,-142.04L203.08,-124.15L211.54,-126.05L220,-168.4L228.46,23.57L236.92,-43.36L245.38,-49.37L253.85,-41.2L262.31,14.99L270.77,50.01L279.23,19.52L287.69,75.45L296.15,119.95L304.62,6.12L313.08,46.38L321.54,97.61L330,81.12L338.46,56.74L346.92,99.39L355.38,152.48L363.85,159.02L372.31,158.12L380.77,184.78L389.23,186L440,186L440,186L397.69,186L389.23,186L380.77,185.08L372.31,171.59L363.85,175.06L355.38,169.3L346.92,144.13L338.46,104.87L330,117.78L321.54,127.59L304.62,95.93L296.15,129.36L287.69,114.22L279.23,101.83L270.77,95.7L262.31,81.39L253.85,39.97L245.38,31.95L236.92,15.51L228.46,64.52L220,15.33L211.54,31.02L203.08,13.03L194.62,32.71L186.15,83.09L177.69,109.04L169.23,98.62L160.77,101.92L152.31,109.67L143.85,144.32L135.38,139.98L126.92,148.23L118.46,172.87L110,160.47L101.54,178.79L93.08,178.74L84.62,184.97L76.15,185.8L0,185.96Z" style="fill: rgb(136, 86, 167); fill-opacity: 1; stroke-width: 0;"/></g></g><g class="errorbars"/><g class="lines"><path class="js-line" d="M0,185.96L76.15,185.8L84.62,184.97L93.08,178.74L101.54,178.79L110,160.47L118.46,172.87L126.92,148.23L135.38,139.98L143.85,144.32L152.31,109.67L160.77,101.92L169.23,98.62L177.69,109.04L186.15,83.09L194.62,32.71L203.08,13.03L211.54,31.02L220,15.33L228.46,64.52L236.92,15.51L245.38,31.95L253.85,39.97L262.31,81.39L270.77,95.7L279.23,101.83L287.69,114.22L296.15,129.36L304.62,95.93L321.54,127.59L330,117.78L338.46,104.87L346.92,144.13L355.38,169.3L363.85,175.06L372.31,171.59L380.77,185.08L389.23,186L397.69,186L440,186" style="vector-effect: non-scaling-stroke; fill: none; stroke: rgb(0, 0, 0); stroke-opacity: 1; stroke-width: 0.5px; opacity: 1;"/></g><g class="points"/><g class="text"/></g><g class="trace scatter tracec094d0" style="stroke-miterlimit: 2;"><g class="fills"/><g class="errorbars"/><g class="lines"><path class="js-line" d="M0,185.94L42.31,186L50.77,185.48L76.15,185.74L84.62,184.47L93.08,170.69L101.54,175.35L110,128.35L118.46,157.42L126.92,131.85L135.38,116.2L143.85,107.21L152.31,25.36L160.77,47.54L169.23,49.08L177.69,63.24L186.15,40.61L194.62,-142.04L203.08,-124.15L211.54,-126.05L220,-168.4L228.46,23.57L236.92,-43.36L245.38,-49.37L253.85,-41.2L262.31,14.99L270.77,50.01L279.23,19.52L287.69,75.45L296.15,119.95L304.62,6.12L313.08,46.38L321.54,97.61L330,81.12L338.46,56.74L346.92,99.39L355.38,152.48L363.85,159.02L372.31,158.12L380.77,184.78L389.23,186L440,186" style="vector-effect: non-scaling-stroke; fill: none; stroke: rgb(0, 0, 0); stroke-opacity: 1; stroke-width: 0.25px; opacity: 1;"/></g><g class="points"/><g class="text"/></g><g class="trace scatter traceeb413c" style="stroke-miterlimit: 2; opacity: 1;"><g class="fills"/><g class="errorbars"/><g class="lines"/><g class="points"><path class="point" transform="translate(186.15,186)" d="M4,0A4,4 0 1,1 0,-4A4,4 0 0,1 4,0ZM0,0.5L0.5,0L0,-0.5L-0.5,0Z" style="opacity: 1; stroke: rgb(0, 0, 0); stroke-opacity: 1; stroke-width: 1px; fill: none;"/><path class="point" transform="translate(194.62,186)" d="M4,0A4,4 0 1,1 0,-4A4,4 0 0,1 4,0ZM0,0.5L0.5,0L0,-0.5L-0.5,0Z" style="opacity: 1; stroke: rgb(0, 0, 0); stroke-opacity: 1; stroke-width: 1px; fill: none;"/><path class="point" transform="translate(203.08,75.89)" d="M4,0A4,4 0 1,1 0,-4A4,4 0 0,1 4,0ZM0,0.5L0.5,0L0,-0.5L-0.5,0Z" style="opacity: 1; stroke: rgb(0, 0, 0); stroke-opacity: 1; stroke-width: 1px; fill: none;"/><path class="point" transform="translate(211.54,75.89)" d="M4,0A4,4 0 1,1 0,-4A4,4 0 0,1 4,0ZM0,0.5L0.5,0L0,-0.5L-0.5,0Z" style="opacity: 1; stroke: rgb(0, 0, 0); stroke-opacity: 1; stroke-width: 1px; fill: none;"/></g><g class="text"/></g></g></g><g class="overplot"/><path class="xlines-above crisp" d="M0,0" style="fill: none;"/><path class="ylines-above crisp" d="M0,0" style="fill: none;"/><g class="overlines-above"/><g class="xaxislayer-above"/><g class="yaxislayer-above"><g class="ytick"><text text-anchor="end" x="79" y="4.199999999999999" transform="translate(0,286)" style="font-family: 'Open Sans', verdana, arial, sans-serif; font-size: 12px; fill: rgb(42, 63, 95); fill-opacity: 1; white-space: pre; opacity: 1;">0</text></g><g class="ytick"><text text-anchor="end" x="79" y="4.199999999999999" style="font-family: 'Open Sans', verdana, arial, sans-serif; font-size: 12px; fill: rgb(42, 63, 95); fill-opacity: 1; white-space: pre; opacity: 1;" transform="translate(0,248.8)">50</text></g><g class="ytick"><text text-anchor="end" x="79" y="4.199999999999999" style="font-family: 'Open Sans', verdana, arial, sans-serif; font-size: 12px; fill: rgb(42, 63, 95); fill-opacity: 1; white-space: pre; opacity: 1;" transform="translate(0,211.6)">100</text></g><g class="ytick"><text text-anchor="end" x="79" y="4.199999999999999" style="font-family: 'Open Sans', verdana, arial, sans-serif; font-size: 12px; fill: rgb(42, 63, 95); fill-opacity: 1; white-space: pre; opacity: 1;" transform="translate(0,174.4)">150</text></g><g class="ytick"><text text-anchor="end" x="79" y="4.199999999999999" style="font-family: 'Open Sans', verdana, arial, sans-serif; font-size: 12px; fill: rgb(42, 63, 95); fill-opacity: 1; white-space: pre; opacity: 1;" transform="translate(0,137.2)">200</text></g><g class="ytick"><text text-anchor="end" x="79" y="4.199999999999999" style="font-family: 'Open Sans', verdana, arial, sans-serif; font-size: 12px; fill: rgb(42, 63, 95); fill-opacity: 1; white-space: pre; opacity: 1;" transform="translate(0,100)">250</text></g></g><g class="overaxes-above"/></g><g class="subplot x2y2"><g class="layer-subplot"><g class="shapelayer"/><g class="imagelayer"/></g><g class="minor-gridlayer"><g class="x2"/><g class="y2"/></g><g class="gridlayer"><g class="x2"><path class="x2grid crisp" transform="translate(156.15,0)" d="M0,317.00000000000006v185.99999999999997" style="stroke: rgb(255, 255, 255); stroke-opacity: 1; stroke-width: 1px;"/><path class="x2grid crisp" transform="translate(240.77,0)" d="M0,317.00000000000006v185.99999999999997" style="stroke: rgb(255, 255, 255); stroke-opacity: 1; stroke-width: 1px;"/><path class="x2grid crisp" transform="translate(325.38,0)" d="M0,317.00000000000006v185.99999999999997" style="stroke: rgb(255, 255, 255); stroke-opacity: 1; stroke-width: 1px;"/><path class="x2grid crisp" transform="translate(410,0)" d="M0,317.00000000000006v185.99999999999997" style="stroke: rgb(255, 255, 255); stroke-opacity: 1; stroke-width: 1px;"/><path class="x2grid crisp" transform="translate(494.62,0)" d="M0,317.00000000000006v185.99999999999997" style="stroke: rgb(255, 255, 255); stroke-opacity: 1; stroke-width: 1px;"/></g><g class="y2"><path class="y2grid crisp" transform="translate(0,472.00000000000006)" d="M80,0h440" style="stroke: rgb(255, 255, 255); stroke-opacity: 1; stroke-width: 1px;"/><path class="y2grid crisp" transform="translate(0,410.00000000000006)" d="M80,0h440" style="stroke: rgb(255, 255, 255); stroke-opacity: 1; stroke-width: 1px;"/><path class="y2grid crisp" transform="translate(0,348.00000000000006)" d="M80,0h440" style="stroke: rgb(255, 255, 255); stroke-opacity: 1; stroke-width: 1px;"/></g></g><g class="zerolinelayer"/><path class="xlines-below"/><path class="ylines-below"/><g class="overlines-below"/><g class="xaxislayer-below"/><g class="yaxislayer-below"/><g class="overaxes-below"/><g class="plot" transform="translate(80,317.00000000000006)" clip-path="url(#clipd28a76x2y2plot)"><g class="scatterlayer mlayer"><g class="trace scatter trace14a5b5" style="stroke-miterlimit: 2;"><g class="fills"><g><path class="js-fill" d="M0,139.4L8.46,147.96L16.92,140.08L25.38,136.22L33.85,134.67L42.31,128.23L50.77,120.79L59.23,118.66L67.69,109.67L76.15,100.24L84.62,96.45L93.08,87.29L101.54,87.42L110,85.94L118.46,81.02L126.92,88.04L135.38,89.51L143.85,88.42L152.31,89.17L160.77,95.7L169.23,99.44L177.69,99.49L186.15,101.39L194.62,105.67L203.08,104.87L211.54,106.44L220,106.88L228.46,104.31L236.92,108.92L253.85,105.33L262.31,103.05L279.23,105.98L287.69,102.14L304.62,100.09L313.08,102.74L330,99.4L338.46,104.67L346.92,107.39L355.38,104.54L372.31,111.25L380.77,113.55L389.23,120.48L397.69,124.62L406.15,130.27L414.62,130L423.08,136.27L431.54,138.76L440,143.18L440,148.06L431.54,146.32L423.08,143.66L414.62,138.26L406.15,135.51L397.69,129.23L380.77,119.84L372.31,118.51L363.85,114.88L355.38,108.41L338.46,117.8L330,106.91L321.54,106.23L313.08,115.67L304.62,105.93L296.15,104.6L287.69,111.87L279.23,114.52L270.77,108.94L262.31,109.12L253.85,112.04L245.38,118.33L236.92,115.59L228.46,110.71L220,119.13L211.54,114.88L203.08,112.31L194.62,113.19L186.15,108.5L177.69,107.53L169.23,111.42L160.77,106.11L152.31,103.36L143.85,97.78L135.38,100.35L126.92,99.38L118.46,82.99L110,89.19L101.54,97.78L93.08,97.52L84.62,115.32L76.15,116.47L67.69,119.93L59.23,131.53L50.77,127.45L42.31,138.79L33.85,138.61L25.38,142.42L16.92,148.53L8.46,152.79L0,147.56Z" style="fill: rgb(145, 191, 219); fill-opacity: 1; stroke-width: 0;"/></g></g><g class="errorbars"/><g class="lines"><path class="js-line" d="M0,147.56L8.46,152.79L16.92,148.53L25.38,142.42L33.85,138.61L42.31,138.79L50.77,127.45L59.23,131.53L67.69,119.93L76.15,116.47L84.62,115.32L93.08,97.52L101.54,97.78L110,89.19L118.46,82.99L126.92,99.38L135.38,100.35L143.85,97.78L152.31,103.36L160.77,106.11L169.23,111.42L177.69,107.53L186.15,108.5L194.62,113.19L203.08,112.31L211.54,114.88L220,119.13L228.46,110.71L236.92,115.59L245.38,118.33L253.85,112.04L262.31,109.12L270.77,108.94L279.23,114.52L287.69,111.87L296.15,104.6L304.62,105.93L313.08,115.67L321.54,106.23L330,106.91L338.46,117.8L355.38,108.41L363.85,114.88L372.31,118.51L380.77,119.84L397.69,129.23L406.15,135.51L414.62,138.26L423.08,143.66L431.54,146.32L440,148.06" style="vector-effect: non-scaling-stroke; fill: none; stroke: rgb(0, 0, 0); stroke-opacity: 1; stroke-width: 0.25px; opacity: 1;"/></g><g class="points"/><g class="text"/></g><g class="trace scatter traced660e9" style="stroke-miterlimit: 2;"><g class="fills"><g><path class="js-fill" d="M0,136.75L8.46,140.47L16.92,134.89L25.38,132.5L33.85,129.14L42.31,124.44L50.77,117.53L59.23,112.39L67.69,101.55L76.15,93.31L84.62,81.49L101.54,80.25L110,82.42L118.46,76.7L126.92,77.37L135.38,75.6L143.85,82.24L152.31,80.42L160.77,87.69L169.23,92.87L177.69,93.09L186.15,98.27L194.62,97.96L203.08,99.33L211.54,101.46L228.46,100.62L236.92,102.83L253.85,100.26L262.31,100.17L270.77,101.55L279.23,99.51L287.69,97.12L296.15,99.02L304.62,98.93L313.08,97.87L321.54,98.36L330,97.47L338.46,98.4L346.92,101.59L355.38,102.08L363.85,106.25L380.77,112.44L389.23,116.83L397.69,122.01L406.15,123.96L414.62,126.79L423.08,128.43L431.54,134.74L440,139.27L440,143.18L431.54,138.76L423.08,136.27L414.62,130L406.15,130.27L397.69,124.62L389.23,120.48L380.77,113.55L372.31,111.25L355.38,104.54L346.92,107.39L338.46,104.67L330,99.4L313.08,102.74L304.62,100.09L287.69,102.14L279.23,105.98L262.31,103.05L253.85,105.33L236.92,108.92L228.46,104.31L220,106.88L211.54,106.44L203.08,104.87L194.62,105.67L186.15,101.39L177.69,99.49L169.23,99.44L160.77,95.7L152.31,89.17L143.85,88.42L135.38,89.51L126.92,88.04L118.46,81.02L110,85.94L101.54,87.42L93.08,87.29L84.62,96.45L76.15,100.24L67.69,109.67L59.23,118.66L50.77,120.79L42.31,128.23L33.85,134.67L25.38,136.22L16.92,140.08L8.46,147.96L0,139.4Z" style="fill: rgb(255, 255, 191); fill-opacity: 1; stroke-width: 0;"/></g></g><g class="errorbars"/><g class="lines"><path class="js-line" d="M0,139.4L8.46,147.96L16.92,140.08L25.38,136.22L33.85,134.67L42.31,128.23L50.77,120.79L59.23,118.66L67.69,109.67L76.15,100.24L84.62,96.45L93.08,87.29L101.54,87.42L110,85.94L118.46,81.02L126.92,88.04L135.38,89.51L143.85,88.42L152.31,89.17L160.77,95.7L169.23,99.44L177.69,99.49L186.15,101.39L194.62,105.67L203.08,104.87L211.54,106.44L220,106.88L228.46,104.31L236.92,108.92L253.85,105.33L262.31,103.05L279.23,105.98L287.69,102.14L304.62,100.09L313.08,102.74L330,99.4L338.46,104.67L346.92,107.39L355.38,104.54L372.31,111.25L380.77,113.55L389.23,120.48L397.69,124.62L406.15,130.27L414.62,130L423.08,136.27L431.54,138.76L440,143.18" style="vector-effect: non-scaling-stroke; fill: none; stroke: rgb(0, 0, 0); stroke-opacity: 1; stroke-width: 0.5px; opacity: 1;"/></g><g class="points"/><g class="text"/></g><g class="trace scatter tracef79670" style="stroke-miterlimit: 2;"><g class="fills"><g><path class="js-fill" d="M0,133.06L8.46,134.94L16.92,130.8L25.38,129.18L33.85,126.6L42.31,118.44L50.77,112.51L59.23,100.84L67.69,95.9L76.15,87.11L84.62,75.06L93.08,78.32L101.54,79.05L110,77.3L118.46,74.4L135.38,70.3L143.85,70.88L152.31,72.16L160.77,75.86L169.23,77.12L177.69,84.79L186.15,88.66L194.62,93.82L203.08,92.82L211.54,94.68L220,94.93L228.46,96.32L236.92,96.41L245.38,94.93L253.85,97.34L262.31,93.4L270.77,98.4L279.23,92.62L287.69,93.09L296.15,95.86L304.62,95.68L313.08,92.96L321.54,95.5L330,94.02L338.46,94.77L346.92,96.88L355.38,99.33L363.85,100.73L372.31,105.91L380.77,108.59L397.69,117.64L406.15,120.83L414.62,123.14L423.08,127.34L431.54,128.89L440,129.08L440,139.27L431.54,134.74L423.08,128.43L414.62,126.79L406.15,123.96L397.69,122.01L389.23,116.83L380.77,112.44L363.85,106.25L355.38,102.08L346.92,101.59L338.46,98.4L330,97.47L321.54,98.36L313.08,97.87L304.62,98.93L296.15,99.02L287.69,97.12L279.23,99.51L270.77,101.55L262.31,100.17L253.85,100.26L236.92,102.83L228.46,100.62L211.54,101.46L203.08,99.33L194.62,97.96L186.15,98.27L177.69,93.09L169.23,92.87L160.77,87.69L152.31,80.42L143.85,82.24L135.38,75.6L126.92,77.37L118.46,76.7L110,82.42L101.54,80.25L84.62,81.49L76.15,93.31L67.69,101.55L59.23,112.39L50.77,117.53L42.31,124.44L33.85,129.14L25.38,132.5L16.92,134.89L8.46,140.47L0,136.75Z" style="fill: rgb(255, 255, 191); fill-opacity: 1; stroke-width: 0;"/></g></g><g class="errorbars"/><g class="lines"><path class="js-line" d="M0,136.75L8.46,140.47L16.92,134.89L25.38,132.5L33.85,129.14L42.31,124.44L50.77,117.53L59.23,112.39L67.69,101.55L76.15,93.31L84.62,81.49L101.54,80.25L110,82.42L118.46,76.7L126.92,77.37L135.38,75.6L143.85,82.24L152.31,80.42L160.77,87.69L169.23,92.87L177.69,93.09L186.15,98.27L194.62,97.96L203.08,99.33L211.54,101.46L228.46,100.62L236.92,102.83L253.85,100.26L262.31,100.17L270.77,101.55L279.23,99.51L287.69,97.12L296.15,99.02L304.62,98.93L313.08,97.87L321.54,98.36L330,97.47L338.46,98.4L346.92,101.59L355.38,102.08L363.85,106.25L380.77,112.44L389.23,116.83L397.69,122.01L406.15,123.96L414.62,126.79L423.08,128.43L431.54,134.74L440,139.27" style="vector-effect: non-scaling-stroke; fill: none; stroke: rgb(0, 0, 0); stroke-opacity: 1; stroke-width: 1px; opacity: 1;"/></g><g class="points"/><g class="text"/></g><g class="trace scatter trace86b216" style="stroke-miterlimit: 2;"><g class="fills"><g><path class="js-fill" d="M0,129.58L8.46,131.31L16.92,117.04L25.38,120.81L33.85,123.47L42.31,110.54L50.77,108.5L59.23,87.05L67.69,82.81L84.62,64.58L93.08,69.39L101.54,70.27L110,66.57L118.46,69.79L126.92,54.8L135.38,54.65L143.85,58.9L152.31,59.36L160.77,51.68L169.23,59.79L177.69,70.5L186.15,75.45L194.62,85.74L203.08,78.35L211.54,78.41L220,85.77L228.46,87.54L236.92,78.65L245.38,81.45L253.85,85.84L262.31,80.66L270.77,97.25L279.23,73.83L287.69,81.82L296.15,92.82L304.62,89.16L313.08,87.51L321.54,90.52L330,86.79L338.46,81.49L346.92,92.11L355.38,98.3L363.85,91.92L372.31,101.77L380.77,106.2L397.69,116.03L406.15,116.56L414.62,118.61L423.08,124.43L431.54,115.4L440,118.88L440,129.08L431.54,128.89L423.08,127.34L414.62,123.14L406.15,120.83L397.69,117.64L380.77,108.59L372.31,105.91L363.85,100.73L355.38,99.33L346.92,96.88L338.46,94.77L330,94.02L321.54,95.5L313.08,92.96L304.62,95.68L296.15,95.86L287.69,93.09L279.23,92.62L270.77,98.4L262.31,93.4L253.85,97.34L245.38,94.93L236.92,96.41L228.46,96.32L220,94.93L211.54,94.68L203.08,92.82L194.62,93.82L186.15,88.66L177.69,84.79L169.23,77.12L160.77,75.86L152.31,72.16L143.85,70.88L135.38,70.3L118.46,74.4L110,77.3L101.54,79.05L93.08,78.32L84.62,75.06L76.15,87.11L67.69,95.9L59.23,100.84L50.77,112.51L42.31,118.44L33.85,126.6L25.38,129.18L16.92,130.8L8.46,134.94L0,133.06Z" style="fill: rgb(252, 141, 89); fill-opacity: 1; stroke-width: 0;"/></g></g><g class="errorbars"/><g class="lines"><path class="js-line" d="M0,133.06L8.46,134.94L16.92,130.8L25.38,129.18L33.85,126.6L42.31,118.44L50.77,112.51L59.23,100.84L67.69,95.9L76.15,87.11L84.62,75.06L93.08,78.32L101.54,79.05L110,77.3L118.46,74.4L135.38,70.3L143.85,70.88L152.31,72.16L160.77,75.86L169.23,77.12L177.69,84.79L186.15,88.66L194.62,93.82L203.08,92.82L211.54,94.68L220,94.93L228.46,96.32L236.92,96.41L245.38,94.93L253.85,97.34L262.31,93.4L270.77,98.4L279.23,92.62L287.69,93.09L296.15,95.86L304.62,95.68L313.08,92.96L321.54,95.5L330,94.02L338.46,94.77L346.92,96.88L355.38,99.33L363.85,100.73L372.31,105.91L380.77,108.59L397.69,117.64L406.15,120.83L414.62,123.14L423.08,127.34L431.54,128.89L440,129.08" style="vector-effect: non-scaling-stroke; fill: none; stroke: rgb(0, 0, 0); stroke-opacity: 1; stroke-width: 0.5px; opacity: 1;"/></g><g class="points"/><g class="text"/></g><g class="trace scatter traceabf88f" style="stroke-miterlimit: 2;"><g class="fills"/><g class="errorbars"/><g class="lines"><path class="js-line" d="M0,129.58L8.46,131.31L16.92,117.04L25.38,120.81L33.85,123.47L42.31,110.54L50.77,108.5L59.23,87.05L67.69,82.81L84.62,64.58L93.08,69.39L101.54,70.27L110,66.57L118.46,69.79L126.92,54.8L135.38,54.65L143.85,58.9L152.31,59.36L160.77,51.68L169.23,59.79L177.69,70.5L186.15,75.45L194.62,85.74L203.08,78.35L211.54,78.41L220,85.77L228.46,87.54L236.92,78.65L245.38,81.45L253.85,85.84L262.31,80.66L270.77,97.25L279.23,73.83L287.69,81.82L296.15,92.82L304.62,89.16L313.08,87.51L321.54,90.52L330,86.79L338.46,81.49L346.92,92.11L355.38,98.3L363.85,91.92L372.31,101.77L380.77,106.2L397.69,116.03L406.15,116.56L414.62,118.61L423.08,124.43L431.54,115.4L440,118.88" style="vector-effect: non-scaling-stroke; fill: none; stroke: rgb(0, 0, 0); stroke-opacity: 1; stroke-width: 0.25px; opacity: 1;"/></g><g class="points"/><g class="text"/></g><g class="trace scatter trace752fad" style="stroke-miterlimit: 2; opacity: 1;"><g class="fills"/><g class="errorbars"/><g class="lines"/><g class="points"><path class="point" transform="translate(186.15,37.2)" d="M4,0A4,4 0 1,1 0,-4A4,4 0 0,1 4,0ZM0,0.5L0.5,0L0,-0.5L-0.5,0Z" style="opacity: 1; stroke: rgb(0, 0, 0); stroke-opacity: 1; stroke-width: 1px; fill: none;"/><path class="point" transform="translate(194.62,68.2)" d="M4,0A4,4 0 1,1 0,-4A4,4 0 0,1 4,0ZM0,0.5L0.5,0L0,-0.5L-0.5,0Z" style="opacity: 1; stroke: rgb(0, 0, 0); stroke-opacity: 1; stroke-width: 1px; fill: none;"/><path class="point" transform="translate(203.08,99.2)" d="M4,0A4,4 0 1,1 0,-4A4,4 0 0,1 4,0ZM0,0.5L0.5,0L0,-0.5L-0.5,0Z" style="opacity: 1; stroke: rgb(0, 0, 0); stroke-opacity: 1; stroke-width: 1px; fill: none;"/><path class="point" transform="translate(211.54,99.2)" d="M4,0A4,4 0 1,1 0,-4A4,4 0 0,1 4,0ZM0,0.5L0.5,0L0,-0.5L-0.5,0Z" style="opacity: 1; stroke: rgb(0, 0, 0); stroke-opacity: 1; stroke-width: 1px; fill: none;"/></g><g class="text"/></g></g></g><g class="overplot"/><path class="xlines-above crisp" d="M0,0" style="fill: none;"/><path class="ylines-above crisp" d="M0,0" style="fill: none;"/><g class="overlines-above"/><g class="xaxislayer-above"/><g class="yaxislayer-above"><g class="y2tick"><text text-anchor="end" x="79" y="4.199999999999999" transform="translate(0,472.00000000000006)" style="font-family: 'Open Sans', verdana, arial, sans-serif; font-size: 12px; fill: rgb(42, 63, 95); fill-opacity: 1; white-space: pre; opacity: 1;">20</text></g><g class="y2tick"><text text-anchor="end" x="79" y="4.199999999999999" style="font-family: 'Open Sans', verdana, arial, sans-serif; font-size: 12px; fill: rgb(42, 63, 95); fill-opacity: 1; white-space: pre; opacity: 1;" transform="translate(0,410.00000000000006)">30</text></g><g class="y2tick"><text text-anchor="end" x="79" y="4.199999999999999" style="font-family: 'Open Sans', verdana, arial, sans-serif; font-size: 12px; fill: rgb(42, 63, 95); fill-opacity: 1; white-space: pre; opacity: 1;" transform="translate(0,348.00000000000006)">40</text></g></g><g class="overaxes-above"/></g><g class="subplot x3y3"><g class="layer-subplot"><g class="shapelayer"/><g class="imagelayer"/></g><g class="minor-gridlayer"><g class="x3"/><g class="y3"/></g><g class="gridlayer"><g class="x3"><path class="x3grid crisp" transform="translate(156.15,0)" d="M0,534v186" style="stroke: rgb(255, 255, 255); stroke-opacity: 1; stroke-width: 1px;"/><path class="x3grid crisp" transform="translate(240.77,0)" d="M0,534v186" style="stroke: rgb(255, 255, 255); stroke-opacity: 1; stroke-width: 1px;"/><path class="x3grid crisp" transform="translate(325.38,0)" d="M0,534v186" style="stroke: rgb(255, 255, 255); stroke-opacity: 1; stroke-width: 1px;"/><path class="x3grid crisp" transform="translate(410,0)" d="M0,534v186" style="stroke: rgb(255, 255, 255); stroke-opacity: 1; stroke-width: 1px;"/><path class="x3grid crisp" transform="translate(494.62,0)" d="M0,534v186" style="stroke: rgb(255, 255, 255); stroke-opacity: 1; stroke-width: 1px;"/></g><g class="y3"><path class="y3grid crisp" transform="translate(0,682.8)" d="M80,0h440" style="stroke: rgb(255, 255, 255); stroke-opacity: 1; stroke-width: 1px;"/><path class="y3grid crisp" transform="translate(0,645.6)" d="M80,0h440" style="stroke: rgb(255, 255, 255); stroke-opacity: 1; stroke-width: 1px;"/><path class="y3grid crisp" transform="translate(0,608.4)" d="M80,0h440" style="stroke: rgb(255, 255, 255); stroke-opacity: 1; stroke-width: 1px;"/><path class="y3grid crisp" transform="translate(0,571.2)" d="M80,0h440" style="stroke: rgb(255, 255, 255); stroke-opacity: 1; stroke-width: 1px;"/></g></g><g class="zerolinelayer"/><path class="xlines-below"/><path class="ylines-below"/><g class="overlines-below"/><g class="xaxislayer-below"/><g class="yaxislayer-below"/><g class="overaxes-below"/><g class="plot" transform="translate(80,534)" clip-path="url(#clipd28a76x3y3plot)"><g class="scatterlayer mlayer"><g class="trace scatter traceb858c8" style="stroke-miterlimit: 2;"><g class="fills"><g><path class="js-fill" d="M0,106.25L8.46,119.11L16.92,108.81L25.38,116.04L33.85,108.23L42.31,101.56L50.77,97.94L59.23,93.88L67.69,82.66L76.15,76.73L84.62,76.55L93.08,64.06L101.54,59.39L118.46,52.27L126.92,47.54L135.38,48.72L143.85,53.33L152.31,47.33L160.77,44.96L169.23,45.33L177.69,44.06L186.15,43.34L194.62,43.84L203.08,42.59L211.54,43.47L220,42.73L228.46,43.39L236.92,44.53L245.38,44.14L253.85,45.01L262.31,42.81L279.23,44.56L287.69,43.58L296.15,45.07L304.62,43.63L313.08,45.52L321.54,43.55L338.46,49.58L346.92,53.83L355.38,52.96L363.85,58.48L372.31,63.32L380.77,71.64L389.23,80.59L397.69,87.21L406.15,91.83L414.62,97.81L423.08,105.36L431.54,107.58L440,115.38L440,125.73L431.54,125.61L423.08,122.45L414.62,119.21L406.15,112.35L397.69,105.67L389.23,91.35L380.77,76.74L372.31,68.77L363.85,66.43L355.38,56.86L346.92,58.14L338.46,51.65L330,50.17L321.54,46.77L313.08,50.49L304.62,48.15L296.15,47.93L287.69,46.63L279.23,45.6L262.31,48.15L253.85,48.15L245.38,46.34L236.92,46.13L228.46,46.77L220,47.08L211.54,45.07L203.08,45.38L186.15,46.66L177.69,50.59L169.23,48.25L160.77,53.57L152.31,52.14L143.85,67.87L135.38,57.93L126.92,53.35L118.46,62.52L110,58.46L101.54,61.96L93.08,72.81L84.62,89.09L76.15,88.11L67.69,99.2L59.23,103.2L50.77,119.2L42.31,124.37L33.85,127.36L25.38,131.67L16.92,122.81L8.46,132.79L0,111.04Z" style="fill: rgb(90, 180, 172); fill-opacity: 1; stroke-width: 0;"/></g></g><g class="errorbars"/><g class="lines"><path class="js-line" d="M0,111.04L8.46,132.79L16.92,122.81L25.38,131.67L33.85,127.36L42.31,124.37L50.77,119.2L59.23,103.2L67.69,99.2L76.15,88.11L84.62,89.09L93.08,72.81L101.54,61.96L110,58.46L118.46,62.52L126.92,53.35L135.38,57.93L143.85,67.87L152.31,52.14L160.77,53.57L169.23,48.25L177.69,50.59L186.15,46.66L203.08,45.38L211.54,45.07L220,47.08L228.46,46.77L236.92,46.13L245.38,46.34L253.85,48.15L262.31,48.15L279.23,45.6L287.69,46.63L296.15,47.93L304.62,48.15L313.08,50.49L321.54,46.77L330,50.17L338.46,51.65L346.92,58.14L355.38,56.86L363.85,66.43L372.31,68.77L380.77,76.74L389.23,91.35L397.69,105.67L406.15,112.35L414.62,119.21L423.08,122.45L431.54,125.61L440,125.73" style="vector-effect: non-scaling-stroke; fill: none; stroke: rgb(0, 0, 0); stroke-opacity: 1; stroke-width: 0.25px; opacity: 1;"/></g><g class="points"/><g class="text"/></g><g class="trace scatter tracea30eb3" style="stroke-miterlimit: 2;"><g class="fills"><g><path class="js-fill" d="M0,97.98L8.46,109.63L16.92,103.89L25.38,100.6L33.85,98.68L42.31,93.96L50.77,86.52L59.23,83.65L67.69,75.89L76.15,71.17L84.62,63.11L93.08,61.33L101.54,55.95L110,53.2L118.46,48.63L126.92,44.69L135.38,45.22L143.85,46.5L152.31,40.65L160.77,42.35L169.23,42.57L186.15,40.71L194.62,42.14L203.08,41.19L211.54,42.25L228.46,41.87L236.92,42.14L253.85,41.93L262.31,40.57L270.77,42.41L279.23,43.2L287.69,41.77L296.15,42.46L304.62,41.72L313.08,42.62L330,42.74L338.46,46.08L346.92,48.68L355.38,50.49L363.85,56.81L372.31,60.8L380.77,64.2L389.23,72.97L397.69,79.61L406.15,80.3L414.62,85.56L423.08,89.71L440,105.37L440,115.38L431.54,107.58L423.08,105.36L414.62,97.81L406.15,91.83L397.69,87.21L389.23,80.59L380.77,71.64L372.31,63.32L363.85,58.48L355.38,52.96L346.92,53.83L338.46,49.58L321.54,43.55L313.08,45.52L304.62,43.63L296.15,45.07L287.69,43.58L279.23,44.56L262.31,42.81L253.85,45.01L245.38,44.14L236.92,44.53L228.46,43.39L220,42.73L211.54,43.47L203.08,42.59L194.62,43.84L186.15,43.34L177.69,44.06L169.23,45.33L160.77,44.96L152.31,47.33L143.85,53.33L135.38,48.72L126.92,47.54L118.46,52.27L101.54,59.39L93.08,64.06L84.62,76.55L76.15,76.73L67.69,82.66L59.23,93.88L50.77,97.94L42.31,101.56L33.85,108.23L25.38,116.04L16.92,108.81L8.46,119.11L0,106.25Z" style="fill: rgb(245, 245, 245); fill-opacity: 1; stroke-width: 0;"/></g></g><g class="errorbars"/><g class="lines"><path class="js-line" d="M0,106.25L8.46,119.11L16.92,108.81L25.38,116.04L33.85,108.23L42.31,101.56L50.77,97.94L59.23,93.88L67.69,82.66L76.15,76.73L84.62,76.55L93.08,64.06L101.54,59.39L118.46,52.27L126.92,47.54L135.38,48.72L143.85,53.33L152.31,47.33L160.77,44.96L169.23,45.33L177.69,44.06L186.15,43.34L194.62,43.84L203.08,42.59L211.54,43.47L220,42.73L228.46,43.39L236.92,44.53L245.38,44.14L253.85,45.01L262.31,42.81L279.23,44.56L287.69,43.58L296.15,45.07L304.62,43.63L313.08,45.52L321.54,43.55L338.46,49.58L346.92,53.83L355.38,52.96L363.85,58.48L372.31,63.32L380.77,71.64L389.23,80.59L397.69,87.21L406.15,91.83L414.62,97.81L423.08,105.36L431.54,107.58L440,115.38" style="vector-effect: non-scaling-stroke; fill: none; stroke: rgb(0, 0, 0); stroke-opacity: 1; stroke-width: 0.5px; opacity: 1;"/></g><g class="points"/><g class="text"/></g><g class="trace scatter tracebded72" style="stroke-miterlimit: 2;"><g class="fills"><g><path class="js-fill" d="M0,95.2L8.46,102.62L16.92,97.54L25.38,94.2L33.85,93.32L42.31,85.43L50.77,82.9L59.23,80.99L67.69,70.72L76.15,68.26L84.62,57.98L93.08,55.91L101.54,52.98L118.46,44.48L126.92,42.09L135.38,42.01L143.85,40.89L152.31,38.48L160.77,38.13L194.62,39.78L203.08,37.89L211.54,40.44L220,39.72L228.46,40.31L236.92,39.77L245.38,40.73L253.85,40.07L262.31,38.21L270.77,40.02L279.23,39.99L287.69,40.87L296.15,40.28L304.62,40.52L313.08,38.9L321.54,40.68L330,40.92L338.46,44.11L346.92,45.36L355.38,48.28L363.85,52.27L372.31,58.99L380.77,60.74L389.23,68.63L406.15,76.45L414.62,79.87L423.08,82.48L431.54,90.21L440,104.71L440,105.37L423.08,89.71L414.62,85.56L406.15,80.3L397.69,79.61L389.23,72.97L380.77,64.2L372.31,60.8L363.85,56.81L355.38,50.49L346.92,48.68L338.46,46.08L330,42.74L313.08,42.62L304.62,41.72L296.15,42.46L287.69,41.77L279.23,43.2L270.77,42.41L262.31,40.57L253.85,41.93L236.92,42.14L228.46,41.87L211.54,42.25L203.08,41.19L194.62,42.14L186.15,40.71L169.23,42.57L160.77,42.35L152.31,40.65L143.85,46.5L135.38,45.22L126.92,44.69L118.46,48.63L110,53.2L101.54,55.95L93.08,61.33L84.62,63.11L76.15,71.17L67.69,75.89L59.23,83.65L50.77,86.52L42.31,93.96L33.85,98.68L25.38,100.6L16.92,103.89L8.46,109.63L0,97.98Z" style="fill: rgb(245, 245, 245); fill-opacity: 1; stroke-width: 0;"/></g></g><g class="errorbars"/><g class="lines"><path class="js-line" d="M0,97.98L8.46,109.63L16.92,103.89L25.38,100.6L33.85,98.68L42.31,93.96L50.77,86.52L59.23,83.65L67.69,75.89L76.15,71.17L84.62,63.11L93.08,61.33L101.54,55.95L110,53.2L118.46,48.63L126.92,44.69L135.38,45.22L143.85,46.5L152.31,40.65L160.77,42.35L169.23,42.57L186.15,40.71L194.62,42.14L203.08,41.19L211.54,42.25L228.46,41.87L236.92,42.14L253.85,41.93L262.31,40.57L270.77,42.41L279.23,43.2L287.69,41.77L296.15,42.46L304.62,41.72L313.08,42.62L330,42.74L338.46,46.08L346.92,48.68L355.38,50.49L363.85,56.81L372.31,60.8L380.77,64.2L389.23,72.97L397.69,79.61L406.15,80.3L414.62,85.56L423.08,89.71L440,105.37" style="vector-effect: non-scaling-stroke; fill: none; stroke: rgb(0, 0, 0); stroke-opacity: 1; stroke-width: 1px; opacity: 1;"/></g><g class="points"/><g class="text"/></g><g class="trace scatter tracec789ea" style="stroke-miterlimit: 2;"><g class="fills"><g><path class="js-fill" d="M0,87.9L8.46,93.11L16.92,90.78L25.38,81.84L33.85,87.47L42.31,81.73L50.77,66.53L59.23,71.21L67.69,58.24L76.15,57.82L84.62,47.3L93.08,48.25L101.54,47.08L110,40.39L118.46,37.41L126.92,39.64L135.38,39.01L143.85,34.45L152.31,26.29L160.77,32.75L169.23,31.04L177.69,35.19L186.15,36.14L203.08,35.82L211.54,37.2L220,35.98L228.46,36.1L236.92,35.06L245.38,37.52L253.85,32.66L262.31,32.96L270.77,35.72L279.23,35.16L287.69,37.41L296.15,34.15L304.62,36.95L313.08,32.53L321.54,37.31L330,36.58L346.92,43.15L355.38,41.32L363.85,43.26L372.31,53.04L380.77,51.55L389.23,60.37L397.69,57.61L406.15,67.17L423.08,74.61L431.54,76.54L440,94.24L440,104.71L431.54,90.21L423.08,82.48L414.62,79.87L406.15,76.45L389.23,68.63L380.77,60.74L372.31,58.99L363.85,52.27L355.38,48.28L346.92,45.36L338.46,44.11L330,40.92L321.54,40.68L313.08,38.9L304.62,40.52L296.15,40.28L287.69,40.87L279.23,39.99L270.77,40.02L262.31,38.21L253.85,40.07L245.38,40.73L236.92,39.77L228.46,40.31L220,39.72L211.54,40.44L203.08,37.89L194.62,39.78L160.77,38.13L152.31,38.48L143.85,40.89L135.38,42.01L126.92,42.09L118.46,44.48L101.54,52.98L93.08,55.91L84.62,57.98L76.15,68.26L67.69,70.72L59.23,80.99L50.77,82.9L42.31,85.43L33.85,93.32L25.38,94.2L16.92,97.54L8.46,102.62L0,95.2Z" style="fill: rgb(216, 179, 101); fill-opacity: 1; stroke-width: 0;"/></g></g><g class="errorbars"/><g class="lines"><path class="js-line" d="M0,95.2L8.46,102.62L16.92,97.54L25.38,94.2L33.85,93.32L42.31,85.43L50.77,82.9L59.23,80.99L67.69,70.72L76.15,68.26L84.62,57.98L93.08,55.91L101.54,52.98L118.46,44.48L126.92,42.09L135.38,42.01L143.85,40.89L152.31,38.48L160.77,38.13L194.62,39.78L203.08,37.89L211.54,40.44L220,39.72L228.46,40.31L236.92,39.77L245.38,40.73L253.85,40.07L262.31,38.21L270.77,40.02L279.23,39.99L287.69,40.87L296.15,40.28L304.62,40.52L313.08,38.9L321.54,40.68L330,40.92L338.46,44.11L346.92,45.36L355.38,48.28L363.85,52.27L372.31,58.99L380.77,60.74L389.23,68.63L406.15,76.45L414.62,79.87L423.08,82.48L431.54,90.21L440,104.71" style="vector-effect: non-scaling-stroke; fill: none; stroke: rgb(0, 0, 0); stroke-opacity: 1; stroke-width: 0.5px; opacity: 1;"/></g><g class="points"/><g class="text"/></g><g class="trace scatter tracec28e3b" style="stroke-miterlimit: 2;"><g class="fills"/><g class="errorbars"/><g class="lines"><path class="js-line" d="M0,87.9L8.46,93.11L16.92,90.78L25.38,81.84L33.85,87.47L42.31,81.73L50.77,66.53L59.23,71.21L67.69,58.24L76.15,57.82L84.62,47.3L93.08,48.25L101.54,47.08L110,40.39L118.46,37.41L126.92,39.64L135.38,39.01L143.85,34.45L152.31,26.29L160.77,32.75L169.23,31.04L177.69,35.19L186.15,36.14L203.08,35.82L211.54,37.2L220,35.98L228.46,36.1L236.92,35.06L245.38,37.52L253.85,32.66L262.31,32.96L270.77,35.72L279.23,35.16L287.69,37.41L296.15,34.15L304.62,36.95L313.08,32.53L321.54,37.31L330,36.58L346.92,43.15L355.38,41.32L363.85,43.26L372.31,53.04L380.77,51.55L389.23,60.37L397.69,57.61L406.15,67.17L423.08,74.61L431.54,76.54L440,94.24" style="vector-effect: non-scaling-stroke; fill: none; stroke: rgb(0, 0, 0); stroke-opacity: 1; stroke-width: 0.25px; opacity: 1;"/></g><g class="points"/><g class="text"/></g><g class="trace scatter traced7a399" style="stroke-miterlimit: 2; opacity: 1;"><g class="fills"/><g class="errorbars"/><g class="lines"/><g class="points"><path class="point" transform="translate(186.15,37.2)" d="M4,0A4,4 0 1,1 0,-4A4,4 0 0,1 4,0ZM0,0.5L0.5,0L0,-0.5L-0.5,0Z" style="opacity: 1; stroke: rgb(0, 0, 0); stroke-opacity: 1; stroke-width: 1px; fill: none;"/><path class="point" transform="translate(194.62,37.2)" d="M4,0A4,4 0 1,1 0,-4A4,4 0 0,1 4,0ZM0,0.5L0.5,0L0,-0.5L-0.5,0Z" style="opacity: 1; stroke: rgb(0, 0, 0); stroke-opacity: 1; stroke-width: 1px; fill: none;"/><path class="point" transform="translate(203.08,44.64)" d="M4,0A4,4 0 1,1 0,-4A4,4 0 0,1 4,0ZM0,0.5L0.5,0L0,-0.5L-0.5,0Z" style="opacity: 1; stroke: rgb(0, 0, 0); stroke-opacity: 1; stroke-width: 1px; fill: none;"/><path class="point" transform="translate(211.54,44.64)" d="M4,0A4,4 0 1,1 0,-4A4,4 0 0,1 4,0ZM0,0.5L0.5,0L0,-0.5L-0.5,0Z" style="opacity: 1; stroke: rgb(0, 0, 0); stroke-opacity: 1; stroke-width: 1px; fill: none;"/></g><g class="text"/></g></g></g><g class="overplot"/><path class="xlines-above crisp" d="M0,0" style="fill: none;"/><path class="ylines-above crisp" d="M0,0" style="fill: none;"/><g class="overlines-above"/><g class="xaxislayer-above"><g class="x3tick"><text text-anchor="middle" x="0" y="733" transform="translate(156.15,0)" style="font-family: 'Open Sans', verdana, arial, sans-serif; font-size: 12px; fill: rgb(42, 63, 95); fill-opacity: 1; white-space: pre; opacity: 1;">10</text></g><g class="x3tick"><text text-anchor="middle" x="0" y="733" style="font-family: 'Open Sans', verdana, arial, sans-serif; font-size: 12px; fill: rgb(42, 63, 95); fill-opacity: 1; white-space: pre; opacity: 1;" transform="translate(240.77,0)">20</text></g><g class="x3tick"><text text-anchor="middle" x="0" y="733" style="font-family: 'Open Sans', verdana, arial, sans-serif; font-size: 12px; fill: rgb(42, 63, 95); fill-opacity: 1; white-space: pre; opacity: 1;" transform="translate(325.38,0)">30</text></g><g class="x3tick"><text text-anchor="middle" x="0" y="733" style="font-family: 'Open Sans', verdana, arial, sans-serif; font-size: 12px; fill: rgb(42, 63, 95); fill-opacity: 1; white-space: pre; opacity: 1;" transform="translate(410,0)">40</text></g><g class="x3tick"><text text-anchor="middle" x="0" y="733" style="font-family: 'Open Sans', verdana, arial, sans-serif; font-size: 12px; fill: rgb(42, 63, 95); fill-opacity: 1; white-space: pre; opacity: 1;" transform="translate(494.62,0)">50</text></g></g><g class="yaxislayer-above"><g class="y3tick"><text text-anchor="end" x="79" y="4.199999999999999" transform="translate(0,720)" style="font-family: 'Open Sans', verdana, arial, sans-serif; font-size: 12px; fill: rgb(42, 63, 95); fill-opacity: 1; white-space: pre; opacity: 1;">5</text></g><g class="y3tick"><text text-anchor="end" x="79" y="4.199999999999999" style="font-family: 'Open Sans', verdana, arial, sans-serif; font-size: 12px; fill: rgb(42, 63, 95); fill-opacity: 1; white-space: pre; opacity: 1;" transform="translate(0,682.8)">10</text></g><g class="y3tick"><text text-anchor="end" x="79" y="4.199999999999999" style="font-family: 'Open Sans', verdana, arial, sans-serif; font-size: 12px; fill: rgb(42, 63, 95); fill-opacity: 1; white-space: pre; opacity: 1;" transform="translate(0,645.6)">15</text></g><g class="y3tick"><text text-anchor="end" x="79" y="4.199999999999999" style="font-family: 'Open Sans', verdana, arial, sans-serif; font-size: 12px; fill: rgb(42, 63, 95); fill-opacity: 1; white-space: pre; opacity: 1;" transform="translate(0,608.4)">20</text></g><g class="y3tick"><text text-anchor="end" x="79" y="4.199999999999999" style="font-family: 'Open Sans', verdana, arial, sans-serif; font-size: 12px; fill: rgb(42, 63, 95); fill-opacity: 1; white-space: pre; opacity: 1;" transform="translate(0,571.2)">25</text></g><g class="y3tick"><text text-anchor="end" x="79" y="4.199999999999999" style="font-family: 'Open Sans', verdana, arial, sans-serif; font-size: 12px; fill: rgb(42, 63, 95); fill-opacity: 1; white-space: pre; opacity: 1;" transform="translate(0,534)">30</text></g></g><g class="overaxes-above"/></g></g><g class="polarlayer"/><g class="smithlayer"/><g class="ternarylayer"/><g class="geolayer"/><g class="funnelarealayer"/><g class="pielayer"/><g class="iciclelayer"/><g class="treemaplayer"/><g class="sunburstlayer"/><g class="glimages"/><defs id="topdefs-d28a76"><g class="clips"/></defs><g class="layer-above"><g class="imagelayer"/><g class="shapelayer"/></g><g class="infolayer"><g class="g-gtitle"><text class="gtitle" x="30" y="50" text-anchor="start" dy="0em" style="font-family: 'Open Sans', verdana, arial, sans-serif; font-size: 17px; fill: rgb(42, 63, 95); opacity: 1; font-weight: normal; white-space: pre;">Climatology and S2S forecast for Bandarban</text></g><g class="g-xtitle"/><g class="g-x2title"/><g class="g-x3title"/><g class="g-ytitle"><text class="ytitle" transform="rotate(-90,34.16875,193)" x="34.16875" y="193" text-anchor="middle" style="font-family: 'Open Sans', verdana, arial, sans-serif; font-size: 14px; fill: rgb(42, 63, 95); opacity: 1; font-weight: normal; white-space: pre;">[mm]</text></g><g class="g-y2title"><text class="y2title" transform="rotate(-90,40.840625,410.00000000000006)" x="40.840625" y="410.00000000000006" text-anchor="middle" style="font-family: 'Open Sans', verdana, arial, sans-serif; font-size: 14px; fill: rgb(42, 63, 95); opacity: 1; font-weight: normal; white-space: pre;">[C]</text></g><g class="g-y3title"><text class="y3title" transform="rotate(-90,40.840625,627)" x="40.840625" y="627" text-anchor="middle" style="font-family: 'Open Sans', verdana, arial, sans-serif; font-size: 14px; fill: rgb(42, 63, 95); opacity: 1; font-weight: normal; white-space: pre;">[C]</text></g><g class="annotation" data-index="0" style="opacity: 1;"><g class="annotation-text-g" transform="rotate(0,300,89.5)"><g class="cursor-pointer" transform="translate(237,79)"><rect class="bg" x="0.5" y="0.5" width="126" height="20" style="stroke-width: 1px; stroke: rgb(0, 0, 0); stroke-opacity: 0; fill: rgb(0, 0, 0); fill-opacity: 0;"/><text class="annotation-text" text-anchor="middle" x="63.359375" y="16" style="font-family: 'Open Sans', verdana, arial, sans-serif; font-size: 16px; fill: rgb(42, 63, 95); fill-opacity: 1; white-space: pre;">Precipitation sum</text></g></g></g><g class="annotation" data-index="1" style="opacity: 1;"><g class="annotation-text-g" transform="rotate(0,300,306.50000000000006)"><g class="cursor-pointer" transform="translate(196,296)"><rect class="bg" x="0.5" y="0.5" width="208" height="20" style="stroke-width: 1px; stroke: rgb(0, 0, 0); stroke-opacity: 0; fill: rgb(0, 0, 0); fill-opacity: 0;"/><text class="annotation-text" text-anchor="middle" x="104.265625" y="16" style="font-family: 'Open Sans', verdana, arial, sans-serif; font-size: 16px; fill: rgb(42, 63, 95); fill-opacity: 1; white-space: pre;">Mean maximum temperature</text></g></g></g><g class="annotation" data-index="2" style="opacity: 1;"><g class="annotation-text-g" transform="rotate(0,300,523.5)"><g class="cursor-pointer" transform="translate(198,513)"><rect class="bg" x="0.5" y="0.5" width="203" height="20" style="stroke-width: 1px; stroke: rgb(0, 0, 0); stroke-opacity: 0; fill: rgb(0, 0, 0); fill-opacity: 0;"/><text class="annotation-text" text-anchor="middle" x="102.046875" y="16" style="font-family: 'Open Sans', verdana, arial, sans-serif; font-size: 16px; fill: rgb(42, 63, 95); fill-opacity: 1; white-space: pre;">Mean minimum temperature</text></g></g></g><g class="annotation" data-index="3" style="opacity: 1;"><g class="annotation-text-g" transform="rotate(0,300,760.5)"><g class="cursor-pointer" transform="translate(277,750)"><rect class="bg" x="0.5" y="0.5" width="45" height="20" style="stroke-width: 1px; stroke: rgb(0, 0, 0); stroke-opacity: 0; fill: rgb(0, 0, 0); fill-opacity: 0;"/><text class="annotation-text" text-anchor="middle" x="22.3125" y="16" style="font-family: 'Open Sans', verdana, arial, sans-serif; font-size: 16px; fill: rgb(42, 63, 95); fill-opacity: 1; white-space: pre;">Week</text></g></g></g></g></svg>