<svg class="main-svg" xmlns="http://www.w3.org/2000/svg" xmlns:xlink="http://www.w3.org/1999/xlink" width="600" height="800" style="" viewBox="0 0 600 800"><rect x="0" y="0" width="600" height="800" style="fill: rgb(255, 255, 255); fill-opacity: 1;"/><defs id="defs-24cdec"><g class="clips"><clipPath id="clip24cdecxyplot" class="plotclip"><rect width="440" height="186.00000000000003"/></clipPath><clipPath id="clip24cdecx2y2plot" class="plotclip"><rect width="440" height="185.99999999999997"/></clipPath><clipPath id="clip24cdecx3y3plot" class="plotclip"><rect width="440" height="186"/></clipPath><clipPath class="axesclip" id="clip24cdecx"><rect x="80" y="0" width="440" height="800"/></clipPath><clipPath class="axesclip" id="clip24cdecy"><rect x="0" y="100" width="600" height="186.00000000000003"/></clipPath><clipPath class="axesclip" id="clip24cdecxy"><rect x="80" y="100" width="440" height="186.00000000000003"/></clipPath><clipPath class="axesclip" id="clip24cdecy2"><rect x="0" y="317.00000000000006" width="600" height="185.99999999999997"/></clipPath><clipPath class="axesclip" id="clip24cdecxy2"><rect x="80" y="317.00000000000006" width="440" height="185.99999999999997"/></clipPath><clipPath class="axesclip" id="clip24cdecy3"><rect x="0" y="534" width="600" height="186"/></clipPath><clipPath class="axesclip" id="clip24cdecxy3"><rect x="80" y="534" width="440" height="186"/></clipPath><clipPath class="axesclip" id="clip24cdecx2"><rect x="80" y="0" width="440" height="800"/></clipPath><clipPath class="axesclip" id="clip24cdecx2y"><rect x="80" y="100" width="440" height="186.00000000000003"/></clipPath><clipPath class="axesclip" id="clip24cdecx2y2"><rect x="80" y="317.00000000000006" width="440" height="185.99999999999997"/></clipPath><clipPath class="axesclip" id="clip24cdecx2y3"><rect x="80" y="534" width="440" height="186"/></clipPath><clipPath class="axesclip" id="clip24cdecx3"><rect x="80" y="0" width="440" height="800"/></clipPath><clipPath class="axesclip" id="clip24cdecx3y"><rect x="80" y="100" width="440" height="186.00000000000003"/></clipPath><clipPath class="axesclip" id="clip24cdecx3y2"><rect x="80" y="317.00000000000006" width="440" height="185.99999999999997"/></clipPath><clipPath class="axesclip" id="clip24cdecx3y3"><rect x="80" y="534" width="440" height="186"/></clipPath></g><g class="gradients"/><g class="patterns"/></defs><g class="bglayer"><rect class="bg" x="80" y="100" width="440" height="186.00000000000003" style="fill: rgb(229, 236, 246); fill-opacity: 1; stroke-width: 0;"/><rect class="bg" x="80" y="317.00000000000006" width="440" height="185.99999999999997" style="fill: rgb(229, 236, 246); fill-opacity: 1; stroke-width: 0;"/><rect class="bg" x="80" y="534" width="440" height="186" style="fill: rgb(229, 236, 246); fill-opacity: 1; stroke-width: 0;"/></g><g class="layer-below"><g class="imagelayer"/><g class="shapelayer"/></g><g class="cartesianlayer"><g class="subplot xy"><g class="layer-subplot"><g class="shapelayer"/><g class="imagelayer"/></g><g class="minor-gridlayer"><g class="x"/><g class="y"/></g><g class="gridlayer"><g class="x"><path class="xgrid crisp" transform="translate(156.15,0)" d="M0,100v186.00000000000003" style="stroke: rgb(255, 255, 255); stroke-opacity: 1; stroke-width: 1px;"/><path class="xgrid crisp" transform="translate(240.77,0)" d="M0,100v186.00000000000003" style="stroke: rgb(255, 255, 255); stroke-opacity: 1; stroke-width: 1px;"/><path class="xgrid crisp" transform="translate(325.38,0)" d="M0,100v186.00000000000003" style="stroke: rgb(255, 255, 255); stroke-opacity: 1; stroke-width: 1px;"/><path class="xgrid crisp" transform="translate(410,0)" d="M0,100v186.00000000000003" style="stroke: rgb(255, 255, 255); stroke-opacity: 1; stroke-width: 1px;"/><path class="xgrid crisp" transform="translate(494.62,0)" d="M0,100v186.00000000000003" style="stroke: rgb(255, 255, 255); stroke-opacity: 1; stroke-width: 1px;"/></g><g class="y"><path class="ygrid crisp" transform="translate(0,248.8)" d="M80,0h440" style="stroke: rgb(255, 255, 255); stroke-opacity: 1; stroke-width: 1px;"/><path class="ygrid crisp" transform="translate(0,211.6)" d="M80,0h440" style="stroke: rgb(255, 255, 255); stroke-opacity: 1; stroke-width: 1px;"/><path class="ygrid crisp" transform="translate(0,174.4)" d="M80,0h440" style="stroke: rgb(255, 255, 255); stroke-opacity: 1; stroke-width: 1px;"/><path class="ygrid crisp" transform="translate(0,137.2)" d="M80,0h440" style="stroke: rgb(255, 255, 255); stroke-opacity: 1; stroke-width: 1px;"/></g></g><g class="zerolinelayer"><path class="yzl zl crisp" transform="translate(0,286)" d="M80,0h440" style="stroke: rgb(255, 255, 255); stroke-opacity: 1; stroke-width: 2px;"/></g><path class="xlines-below"/><path class="ylines-below"/><g class="overlines-below"/><g class="xaxislayer-below"/><g class="yaxislayer-below"/><g class="overaxes-below"/><g class="plot" transform="translate(80,100)" clip-path="url(#clip24cdecxyplot)"><g class="scatterlayer mlayer"><g class="trace scatter tracecc8658" style="stroke-miterlimit: 2;"><g class="fills"><g><path class="js-fill" d="M0,186L101.54,185.46L110,183.58L118.46,177.82L126.92,175.06L135.38,177.79L143.85,168.14L152.31,173.93L160.77,164.14L169.23,165.41L177.69,136.89L186.15,144.96L194.62,137.46L203.08,160.64L211.54,158.54L220,167.75L228.46,151.66L236.92,145.66L245.38,150.19L253.85,166.13L262.31,167.44L270.77,171.16L279.23,150.96L287.69,159.78L296.15,165.91L304.62,164.93L313.08,131.87L321.54,150.49L330,181.5L338.46,184.4L346.92,184.84L355.38,186L363.85,186L440,186L440,186L346.92,186L338.46,185.97L330,184.85L321.54,180.58L313.08,181.56L304.62,183.86L296.15,182.44L287.69,174.51L279.23,183.34L270.77,177.97L262.31,182.97L253.85,180.79L245.38,173.84L236.92,177.05L228.46,178.61L220,182.11L211.54,183.78L203.08,184.99L194.62,171.04L186.15,183.03L177.69,162.23L169.23,181.9L160.77,184.23L152.31,186L143.85,184.24L135.38,186L0,186Z" style="fill: rgb(224, 236, 244); fill-opacity: 1; stroke-width: 0;"/></g></g><g class="errorbars"/><g class="lines"><path class="js-line" d="M0,186L135.38,186L143.85,184.24L152.31,186L160.77,184.23L169.23,181.9L177.69,162.23L186.15,183.03L194.62,171.04L203.08,184.99L211.54,183.78L220,182.11L228.46,178.61L236.92,177.05L245.38,173.84L253.85,180.79L262.31,182.97L270.77,177.97L279.23,183.34L287.69,174.51L296.15,182.44L304.62,183.86L313.08,181.56L321.54,180.58L330,184.85L338.46,185.97L346.92,186L440,186" style="vector-effect: non-scaling-stroke; fill: none; stroke: rgb(0, 0, 0); stroke-opacity: 1; stroke-width: 0.25px; opacity: 1;"/></g><g class="points"/><g class="text"/></g><g class="trace scatter trace2411d1" style="stroke-miterlimit: 2;"><g class="fills"><g><path class="js-fill" d="M0,186L84.62,185.82L93.08,183.66L101.54,173.02L110,171.96L118.46,174.16L126.92,162.03L135.38,167.42L143.85,151.08L152.31,158.76L160.77,157.37L169.23,148.34L177.69,111.72L186.15,91.78L194.62,115.39L203.08,145.4L211.54,140.21L220,157.09L228.46,134.02L236.92,125.13L245.38,132.28L253.85,148.25L262.31,150.16L270.77,139.57L279.23,134.98L287.69,135.14L296.15,151.86L304.62,149.49L313.08,106.17L321.54,129.24L330,164.14L338.46,179.89L346.92,180.17L355.38,185.59L363.85,185.84L440,186L440,186L363.85,186L355.38,186L346.92,184.84L338.46,184.4L330,181.5L321.54,150.49L313.08,131.87L304.62,164.93L296.15,165.91L287.69,159.78L279.23,150.96L270.77,171.16L262.31,167.44L253.85,166.13L245.38,150.19L236.92,145.66L228.46,151.66L220,167.75L211.54,158.54L203.08,160.64L194.62,137.46L186.15,144.96L177.69,136.89L169.23,165.41L160.77,164.14L152.31,173.93L143.85,168.14L135.38,177.79L126.92,175.06L118.46,177.82L110,183.58L101.54,185.46L0,186Z" style="fill: rgb(158, 188, 218); fill-opacity: 1; stroke-width: 0;"/></g></g><g class="errorbars"/><g class="lines"><path class="js-line" d="M0,186L101.54,185.46L110,183.58L118.46,177.82L126.92,175.06L135.38,177.79L143.85,168.14L152.31,173.93L160.77,164.14L169.23,165.41L177.69,136.89L186.15,144.96L194.62,137.46L203.08,160.64L211.54,158.54L220,167.75L228.46,151.66L236.92,145.66L245.38,150.19L253.85,166.13L262.31,167.44L270.77,171.16L279.23,150.96L287.69,159.78L296.15,165.91L304.62,164.93L313.08,131.87L321.54,150.49L330,181.5L338.46,184.4L346.92,184.84L355.38,186L363.85,186L440,186" style="vector-effect: non-scaling-stroke; fill: none; stroke: rgb(0, 0, 0); stroke-opacity: 1; stroke-width: 0.5px; opacity: 1;"/></g><g class="points"/><g class="text"/></g><g class="trace scatter trace8a01f3" style="stroke-miterlimit: 2;"><g class="fills"><g><path class="js-fill" d="M0,185.9L42.31,185.93L50.77,179.68L59.23,185.19L67.69,181.87L76.15,174.17L84.62,180.89L93.08,179.47L101.54,154.16L110,148.47L118.46,159.97L126.92,147.4L135.38,156.18L143.85,125.73L152.31,131.22L160.77,147.08L169.23,110.82L177.69,69.2L186.15,47.99L194.62,65.73L203.08,104.81L211.54,133.57L220,110.86L228.46,67.77L236.92,106.32L245.38,103.67L253.85,121.64L262.31,95.82L270.77,86.38L279.23,112.85L287.69,122.7L296.15,142.07L304.62,103.52L313.08,93.95L321.54,89.8L338.46,170.71L346.92,161.3L355.38,149.52L363.85,182.37L372.31,185.19L380.77,185.9L440,186L440,186L363.85,185.84L355.38,185.59L346.92,180.17L338.46,179.89L330,164.14L321.54,129.24L313.08,106.17L304.62,149.49L296.15,151.86L287.69,135.14L279.23,134.98L270.77,139.57L262.31,150.16L253.85,148.25L245.38,132.28L236.92,125.13L228.46,134.02L220,157.09L211.54,140.21L203.08,145.4L194.62,115.39L186.15,91.78L177.69,111.72L169.23,148.34L160.77,157.37L152.31,158.76L143.85,151.08L135.38,167.42L126.92,162.03L118.46,174.16L110,171.96L101.54,173.02L93.08,183.66L84.62,185.82L0,186Z" style="fill: rgb(158, 188, 218); fill-opacity: 1; stroke-width: 0;"/></g></g><g class="errorbars"/><g class="lines"><path class="js-line" d="M0,186L84.62,185.82L93.08,183.66L101.54,173.02L110,171.96L118.46,174.16L126.92,162.03L135.38,167.42L143.85,151.08L152.31,158.76L160.77,157.37L169.23,148.34L177.69,111.72L186.15,91.78L194.62,115.39L203.08,145.4L211.54,140.21L220,157.09L228.46,134.02L236.92,125.13L245.38,132.28L253.85,148.25L262.31,150.16L270.77,139.57L279.23,134.98L287.69,135.14L296.15,151.86L304.62,149.49L313.08,106.17L321.54,129.24L330,164.14L338.46,179.89L346.92,180.17L355.38,185.59L363.85,185.84L440,186" style="vector-effect: non-scaling-stroke; fill: none; stroke: rgb(0, 0, 0); stroke-opacity: 1; stroke-width: 1px; opacity: 1;"/></g><g class="points"/><g class="text"/></g><g class="trace scatter tracea8bf8e" style="stroke-miterlimit: 2;"><g class="fills"><g><path class="js-fill" d="M0,185.87L25.38,186L33.85,184.8L42.31,185.86L50.77,171.02L59.23,185.14L67.69,177.56L76.15,165.91L84.62,176.46L93.08,173.37L101.54,126.61L110,110.96L118.46,137.5L126.92,108.09L135.38,151.76L143.85,111.1L152.31,84.3L160.77,129.75L169.23,64.48L186.15,-52.86L194.62,-19.32L203.08,56.72L211.54,112.5L228.46,-9.17L236.92,66.61L245.38,68.17L253.85,56.88L262.31,9.39L270.77,9.97L279.23,76.45L287.69,89.18L296.15,126.68L304.62,76.93L313.08,81.24L321.54,14.31L330,60.33L338.46,156.85L346.92,135.92L355.38,103.14L363.85,178.82L372.31,185.19L389.23,186L397.69,186L440,186L440,186L380.77,185.9L372.31,185.19L363.85,182.37L355.38,149.52L346.92,161.3L338.46,170.71L321.54,89.8L313.08,93.95L304.62,103.52L296.15,142.07L287.69,122.7L279.23,112.85L270.77,86.38L262.31,95.82L253.85,121.64L245.38,103.67L236.92,106.32L228.46,67.77L220,110.86L211.54,133.57L203.08,104.81L194.62,65.73L186.15,47.99L177.69,69.2L169.23,110.82L160.77,147.08L152.31,131.22L143.85,125.73L135.38,156.18L126.92,147.4L118.46,159.97L110,148.47L101.54,154.16L93.08,179.47L84.62,180.89L76.15,174.17L67.69,181.87L59.23,185.19L50.77,179.68L42.31,185.93L0,185.9Z" style="fill: rgb(136, 86, 167); fill-opacity: 1; stroke-width: 0;"/></g></g><g class="errorbars"/><g class="lines"><path class="js-line" d="M0,185.9L42.31,185.93L50.77,179.68L59.23,185.19L67.69,181.87L76.15,174.17L84.62,180.89L93.08,179.47L101.54,154.16L110,148.47L118.46,159.97L126.92,147.4L135.38,156.18L143.85,125.73L152.31,131.22L160.77,147.08L169.23,110.82L177.69,69.2L186.15,47.99L194.62,65.73L203.08,104.81L211.54,133.57L220,110.86L228.46,67.77L236.92,106.32L245.38,103.67L253.85,121.64L262.31,95.82L270.77,86.38L279.23,112.85L287.69,122.7L296.15,142.07L304.62,103.52L313.08,93.95L321.54,89.8L338.46,170.71L346.92,161.3L355.38,149.52L363.85,182.37L372.31,185.19L380.77,185.9L440,186" style="vector-effect: non-scaling-stroke; fill: none; stroke: rgb(0, 0, 0); stroke-opacity: 1; stroke-width: 0.5px; opacity: 1;"/></g><g class="points"/><g class="text"/></g><g class="trace scatter trace380360" style="stroke-miterlimit: 2;"><g class="fills"/><g class="errorbars"/><g class="lines"><path class="js-line" d="M0,185.87L25.38,186L33.85,184.8L42.31,185.86L50.77,171.02L59.23,185.14L67.69,177.56L76.15,165.91L84.62,176.46L93.08,173.37L101.54,126.61L110,110.96L118.46,137.5L126.92,108.09L135.38,151.76L143.85,111.1L152.31,84.3L160.77,129.75L169.23,64.48L186.15,-52.86L194.62,-19.32L203.08,56.72L211.54,112.5L228.46,-9.17L236.92,66.61L245.38,68.17L253.85,56.88L262.31,9.39L270.77,9.97L279.23,76.45L287.69,89.18L296.15,126.68L304.62,76.93L313.08,81.24L321.54,14.31L330,60.33L338.46,156.85L346.92,135.92L355.38,103.14L363.85,178.82L372.31,185.19L389.23,186L397.69,186L440,186" style="vector-effect: non-scaling-stroke; fill: none; stroke: rgb(0, 0, 0); stroke-opacity: 1; stroke-width: 0.25px; opacity: 1;"/></g><g class="points"/><g class="text"/></g><g class="trace scatter trace6c8033" style="stroke-miterlimit: 2; opacity: 1;"><g class="fills"/><g class="errorbars"/><g class="lines"/><g class="points"><path class="point" transform="translate(253.85,148.06)" d="M4,0A4,4 0 1,1 0,-4A4,4 0 0,1 4,0ZM0,0.5L0.5,0L0,-0.5L-0.5,0Z" style="opacity: 1; stroke: rgb(0, 0, 0); stroke-opacity: 1; stroke-width: 1px; fill: none;"/><path class="point" transform="translate(262.31,-20.83)" d="M4,0A4,4 0 1,1 0,-4A4,4 0 0,1 4,0ZM0,0.5L0.5,0L0,-0.5L-0.5,0Z" style="opacity: 1; stroke: rgb(0, 0, 0); stroke-opacity: 1; stroke-width: 1px; fill: none;"/><path class="point" transform="translate(270.77,1.49)" d="M4,0A4,4 0 1,1 0,-4A4,4 0 0,1 4,0ZM0,0.5L0.5,0L0,-0.5L-0.5,0Z" style="opacity: 1; stroke: rgb(0, 0, 0); stroke-opacity: 1; stroke-width: 1px; fill: none;"/><path class="point" transform="translate(279.23,1.49)" d="M4,0A4,4 0 1,1 0,-4A4,4 0 0,1 4,0ZM0,0.5L0.5,0L0,-0.5L-0.5,0Z" style="opacity: 1; stroke: rgb(0, 0, 0); stroke-opacity: 1; stroke-width: 1px; fill: none;"/></g><g class="text"/></g></g></g><g class="overplot"/><path class="xlines-above crisp" d="M0,0" style="fill: none;"/><path class="ylines-above crisp" d="M0,0" style="fill: none;"/><g class="overlines-above"/><g class="xaxislayer-above"/><g class="yaxislayer-above"><g class="ytick"><text text-anchor="end" x="79" y="4.199999999999999" transform="translate(0,286)" style="font-family: 'Open Sans', verdana, arial, sans-serif; font-size: 12px; fill: rgb(42, 63, 95); fill-opacity: 1; white-space: pre; opacity: 1;">0</text></g><g class="ytick"><text text-anchor="end" x="79" y="4.199999999999999" style="font-family: 'Open Sans', verdana, arial, sans-serif; font-size: 12px; fill: rgb(42, 63, 95); fill-opacity: 1; white-space: pre; opacity: 1;" transform="translate(0,248.8)">50</text></g><g class="ytick"><text text-anchor="end" x="79" y="4.199999999999999" style="font-family: 'Open Sans', verdana, arial, sans-serif; font-size: 12px; fill: rgb(42, 63, 95); fill-opacity: 1; white-space: pre; opacity: 1;" transform="translate(0,211.6)">100</text></g><g class="ytick"><text text-anchor="end" x="79" y="4.199999999999999" style="font-family: 'Open Sans', verdana, arial, sans-serif; font-size: 12px; fill: rgb(42, 63, 95); fill-opacity: 1; white-space: pre; opacity: 1;" transform="translate(0,174.4)">150</text></g><g class="ytick"><text text-anchor="end" x="79" y="4.199999999999999" style="font-family: 'Open Sans', verdana, arial, sans-serif; font-size: 12px; fill: rgb(42, 63, 95); fill-opacity: 1; white-space: pre; opacity: 1;" transform="translate(0,137.2)">200</text></g><g class="ytick"><text text-anchor="end" x="79" y="4.199999999999999" style="font-family: 'Open Sans', verdana, arial, sans-serif; font-size: 12px; fill: rgb(42, 63, 95); fill-opacity: 1; white-space: pre; opacity: 1;" transform="translate(0,100)">250</text></g></g><g class="overaxes-above"/></g><g class="subplot x2y2"><g class="layer-subplot"><g class="shapelayer"/><g class="imagelayer"/></g><g class="minor-gridlayer"><g class="x2"/><g class="y2"/></g><g class="gridlayer"><g class="x2"><path class="x2grid crisp" transform="translate(156.15,0)" d="M0,317.00000000000006v185.99999999999997" style="stroke: rgb(255, 255, 255); stroke-opacity: 1; stroke-width: 1px;"/><path class="x2grid crisp" transform="translate(240.77,0)" d="M0,317.00000000000006v185.99999999999997" style="stroke: rgb(255, 255, 255); stroke-opacity: 1; stroke-width: 1px;"/><path class="x2grid crisp" transform="translate(325.38,0)" d="M0,317.00000000000006v185.99999999999997" style="stroke: rgb(255, 255, 255); stroke-opacity: 1; stroke-width: 1px;"/><path class="x2grid crisp" transform="translate(410,0)" d="M0,317.00000000000006v185.99999999999997" style="stroke: rgb(255, 255, 255); stroke-opacity: 1; stroke-width: 1px;"/><path class="x2grid crisp" transform="translate(494.62,0)" d="M0,317.00000000000006v185.99999999999997" style="stroke: rgb(255, 255, 255); stroke-opacity: 1; stroke-width: 1px;"/></g><g class="y2"><path class="y2grid crisp" transform="translate(0,472.00000000000006)" d="M80,0h440" style="stroke: rgb(255, 255, 255); stroke-opacity: 1; stroke-width: 1px;"/><path class="y2grid crisp" transform="translate(0,410.00000000000006)" d="M80,0h440" style="stroke: rgb(255, 255, 255); stroke-opacity: 1; stroke-width: 1px;"/><path class="y2grid crisp" transform="translate(0,348.00000000000006)" d="M80,0h440" style="stroke: rgb(255, 255, 255); stroke-opacity: 1; stroke-width: 1px;"/></g></g><g class="zerolinelayer"/><path class="xlines-below"/><path class="ylines-below"/><g class="overlines-below"/><g class="xaxislayer-below"/><g class="yaxislayer-below"/><g class="overaxes-below"/><g class="plot" transform="translate(80,317.00000000000006)" clip-path="url(#clip24cdecx2y2plot)"><g class="scatterlayer mlayer"><g class="trace scatter trace34308d" style="stroke-miterlimit: 2;"><g class="fills"><g><path class="js-fill" d="M0,134.81L8.46,143.99L16.92,132.91L25.38,131.75L33.85,122.11L42.31,114.76L50.77,110.24L59.23,102.96L67.69,92.16L76.15,89.07L84.62,75.53L93.08,77.73L101.54,86.82L110,91.08L118.46,85.91L126.92,83.76L135.38,88.93L143.85,88.15L152.31,80.65L160.77,85.5L169.23,85.45L177.69,88.92L186.15,90.5L203.08,91.36L211.54,95.53L228.46,90.99L236.92,93.57L253.85,89.3L262.31,86.71L270.77,93.48L279.23,92.59L287.69,90.87L296.15,92.1L304.62,90.87L313.08,94.55L321.54,90.8L330,91.29L346.92,90.19L355.38,90.52L363.85,91.78L372.31,94.35L380.77,98.66L389.23,104.95L397.69,112.27L406.15,121.68L414.62,123.8L423.08,133.36L431.54,133.98L440,131.83L440,140.15L431.54,145.72L423.08,149.39L414.62,133.8L406.15,130.65L397.69,122.86L389.23,107.83L380.77,103.69L372.31,100.22L363.85,95.87L355.38,102.54L346.92,104.14L338.46,103.62L330,105.61L321.54,99.37L313.08,98.97L304.62,101.82L296.15,108.6L287.69,100.04L279.23,107.36L270.77,108.06L262.31,101L253.85,99.49L245.38,106.9L236.92,99.43L228.46,105.86L220,108.61L211.54,99.46L203.08,100.51L186.15,97.29L177.69,95.78L169.23,95.03L160.77,94.74L152.31,91.46L143.85,99.4L135.38,98.86L126.92,98.12L118.46,99.95L110,94.74L101.54,98.53L93.08,95.37L84.62,89.82L76.15,109.15L67.69,119.51L59.23,112.76L50.77,125.05L42.31,128.08L33.85,132.86L25.38,147.03L16.92,143.5L8.46,150.64L0,150.84Z" style="fill: rgb(145, 191, 219); fill-opacity: 1; stroke-width: 0;"/></g></g><g class="errorbars"/><g class="lines"><path class="js-line" d="M0,150.84L8.46,150.64L16.92,143.5L25.38,147.03L33.85,132.86L42.31,128.08L50.77,125.05L59.23,112.76L67.69,119.51L76.15,109.15L84.62,89.82L93.08,95.37L101.54,98.53L110,94.74L118.46,99.95L126.92,98.12L135.38,98.86L143.85,99.4L152.31,91.46L160.77,94.74L169.23,95.03L177.69,95.78L186.15,97.29L203.08,100.51L211.54,99.46L220,108.61L228.46,105.86L236.92,99.43L245.38,106.9L253.85,99.49L262.31,101L270.77,108.06L279.23,107.36L287.69,100.04L296.15,108.6L304.62,101.82L313.08,98.97L321.54,99.37L330,105.61L338.46,103.62L346.92,104.14L355.38,102.54L363.85,95.87L372.31,100.22L380.77,103.69L389.23,107.83L397.69,122.86L406.15,130.65L414.62,133.8L423.08,149.39L431.54,145.72L440,140.15" style="vector-effect: non-scaling-stroke; fill: none; stroke: rgb(0, 0, 0); stroke-opacity: 1; stroke-width: 0.25px; opacity: 1;"/></g><g class="points"/><g class="text"/></g><g class="trace scatter trace3b6768" style="stroke-miterlimit: 2;"><g class="fills"><g><path class="js-fill" d="M0,128.95L8.46,132.69L16.92,125.1L25.38,123.4L33.85,116.92L42.31,106.92L50.77,99.29L67.69,83.13L76.15,80.86L84.62,68.23L93.08,65.45L101.54,73.32L110,76.59L118.46,72.17L126.92,78.51L143.85,83.15L152.31,77.47L160.77,77.9L169.23,80.61L177.69,82.86L186.15,81.47L194.62,86.82L203.08,88.28L211.54,87.27L220,84.86L228.46,86.95L236.92,84.93L245.38,85.54L253.85,84.03L262.31,82.78L270.77,84.54L287.69,85.28L296.15,88.01L304.62,85.96L313.08,86.52L321.54,87.84L330,84.76L338.46,86.43L346.92,84.71L355.38,83.09L363.85,89.11L372.31,90.94L380.77,95.92L389.23,102.35L397.69,107.24L406.15,115.31L414.62,118.89L431.54,129.43L440,128.03L440,131.83L431.54,133.98L423.08,133.36L414.62,123.8L406.15,121.68L397.69,112.27L389.23,104.95L380.77,98.66L372.31,94.35L363.85,91.78L355.38,90.52L346.92,90.19L330,91.29L321.54,90.8L313.08,94.55L304.62,90.87L296.15,92.1L287.69,90.87L279.23,92.59L270.77,93.48L262.31,86.71L253.85,89.3L236.92,93.57L228.46,90.99L211.54,95.53L203.08,91.36L186.15,90.5L177.69,88.92L169.23,85.45L160.77,85.5L152.31,80.65L143.85,88.15L135.38,88.93L126.92,83.76L118.46,85.91L110,91.08L101.54,86.82L93.08,77.73L84.62,75.53L76.15,89.07L67.69,92.16L59.23,102.96L50.77,110.24L42.31,114.76L33.85,122.11L25.38,131.75L16.92,132.91L8.46,143.99L0,134.81Z" style="fill: rgb(255, 255, 191); fill-opacity: 1; stroke-width: 0;"/></g></g><g class="errorbars"/><g class="lines"><path class="js-line" d="M0,134.81L8.46,143.99L16.92,132.91L25.38,131.75L33.85,122.11L42.31,114.76L50.77,110.24L59.23,102.96L67.69,92.16L76.15,89.07L84.62,75.53L93.08,77.73L101.54,86.82L110,91.08L118.46,85.91L126.92,83.76L135.38,88.93L143.85,88.15L152.31,80.65L160.77,85.5L169.23,85.45L177.69,88.92L186.15,90.5L203.08,91.36L211.54,95.53L228.46,90.99L236.92,93.57L253.85,89.3L262.31,86.71L270.77,93.48L279.23,92.59L287.69,90.87L296.15,92.1L304.62,90.87L313.08,94.55L321.54,90.8L330,91.29L346.92,90.19L355.38,90.52L363.85,91.78L372.31,94.35L380.77,98.66L389.23,104.95L397.69,112.27L406.15,121.68L414.62,123.8L423.08,133.36L431.54,133.98L440,131.83" style="vector-effect: non-scaling-stroke; fill: none; stroke: rgb(0, 0, 0); stroke-opacity: 1; stroke-width: 0.5px; opacity: 1;"/></g><g class="points"/><g class="text"/></g><g class="trace scatter trace35f337" style="stroke-miterlimit: 2;"><g class="fills"><g><path class="js-fill" d="M0,123.59L8.46,128.1L16.92,120.88L25.38,119L33.85,112.71L42.31,100.82L50.77,92.07L59.23,87.4L67.69,73.18L76.15,70.29L84.62,64.5L93.08,57.17L101.54,57.11L110,65.49L118.46,69.8L126.92,72.78L135.38,65.62L143.85,75.54L152.31,72.42L160.77,69.06L169.23,75.06L177.69,77.71L186.15,76.47L194.62,80.91L203.08,79.82L211.54,79.14L220,79.48L228.46,81.08L236.92,78.25L253.85,79.73L262.31,76.69L270.77,79.49L279.23,79.3L287.69,79.31L296.15,78.38L304.62,82.98L313.08,79.65L321.54,84.32L330,74.58L338.46,75.2L346.92,77.2L355.38,80.27L363.85,85.91L372.31,88.27L380.77,93.7L389.23,99.37L397.69,102.94L414.62,115.23L423.08,118.29L431.54,120.36L440,119.56L440,128.03L431.54,129.43L414.62,118.89L406.15,115.31L397.69,107.24L389.23,102.35L380.77,95.92L372.31,90.94L363.85,89.11L355.38,83.09L346.92,84.71L338.46,86.43L330,84.76L321.54,87.84L313.08,86.52L304.62,85.96L296.15,88.01L287.69,85.28L270.77,84.54L262.31,82.78L253.85,84.03L245.38,85.54L236.92,84.93L228.46,86.95L220,84.86L211.54,87.27L203.08,88.28L194.62,86.82L186.15,81.47L177.69,82.86L169.23,80.61L160.77,77.9L152.31,77.47L143.85,83.15L126.92,78.51L118.46,72.17L110,76.59L101.54,73.32L93.08,65.45L84.62,68.23L76.15,80.86L67.69,83.13L50.77,99.29L42.31,106.92L33.85,116.92L25.38,123.4L16.92,125.1L8.46,132.69L0,128.95Z" style="fill: rgb(255, 255, 191); fill-opacity: 1; stroke-width: 0;"/></g></g><g class="errorbars"/><g class="lines"><path class="js-line" d="M0,128.95L8.46,132.69L16.92,125.1L25.38,123.4L33.85,116.92L42.31,106.92L50.77,99.29L67.69,83.13L76.15,80.86L84.62,68.23L93.08,65.45L101.54,73.32L110,76.59L118.46,72.17L126.92,78.51L143.85,83.15L152.31,77.47L160.77,77.9L169.23,80.61L177.69,82.86L186.15,81.47L194.62,86.82L203.08,88.28L211.54,87.27L220,84.86L228.46,86.95L236.92,84.93L245.38,85.54L253.85,84.03L262.31,82.78L270.77,84.54L287.69,85.28L296.15,88.01L304.62,85.96L313.08,86.52L321.54,87.84L330,84.76L338.46,86.43L346.92,84.71L355.38,83.09L363.85,89.11L372.31,90.94L380.77,95.92L389.23,102.35L397.69,107.24L406.15,115.31L414.62,118.89L431.54,129.43L440,128.03" style="vector-effect: non-scaling-stroke; fill: none; stroke: rgb(0, 0, 0); stroke-opacity: 1; stroke-width: 1px; opacity: 1;"/></g><g class="points"/><g class="text"/></g><g class="trace scatter trace184fa0" style="stroke-miterlimit: 2;"><g class="fills"><g><path class="js-fill" d="M0,110.12L8.46,121.08L16.92,113.24L25.38,106.65L33.85,103.59L42.31,88.1L50.77,69.85L59.23,76.5L67.69,61.5L76.15,54.94L84.62,55.46L93.08,52.18L101.54,43.89L110,47.4L118.46,49.52L126.92,58.52L135.38,44.54L143.85,57.39L152.31,62.35L160.77,59.42L169.23,62.63L177.69,64.15L186.15,72.47L194.62,70.74L203.08,66.05L211.54,72.94L220,65.44L228.46,71.76L236.92,65.55L245.38,63.3L253.85,67.25L262.31,64.11L270.77,67.27L287.69,65.21L296.15,66.1L304.62,74.25L313.08,64.87L321.54,75.56L330,63.91L338.46,61.01L346.92,63.87L355.38,73.42L363.85,78.22L372.31,82.16L380.77,89.77L389.23,94.81L397.69,97.96L406.15,106.76L414.62,108.07L423.08,111.73L431.54,116.73L440,114.18L440,119.56L431.54,120.36L423.08,118.29L414.62,115.23L397.69,102.94L389.23,99.37L380.77,93.7L372.31,88.27L363.85,85.91L355.38,80.27L346.92,77.2L338.46,75.2L330,74.58L321.54,84.32L313.08,79.65L304.62,82.98L296.15,78.38L287.69,79.31L279.23,79.3L270.77,79.49L262.31,76.69L253.85,79.73L236.92,78.25L228.46,81.08L220,79.48L211.54,79.14L203.08,79.82L194.62,80.91L186.15,76.47L177.69,77.71L169.23,75.06L160.77,69.06L152.31,72.42L143.85,75.54L135.38,65.62L126.92,72.78L118.46,69.8L110,65.49L101.54,57.11L93.08,57.17L84.62,64.5L76.15,70.29L67.69,73.18L59.23,87.4L50.77,92.07L42.31,100.82L33.85,112.71L25.38,119L16.92,120.88L8.46,128.1L0,123.59Z" style="fill: rgb(252, 141, 89); fill-opacity: 1; stroke-width: 0;"/></g></g><g class="errorbars"/><g class="lines"><path class="js-line" d="M0,123.59L8.46,128.1L16.92,120.88L25.38,119L33.85,112.71L42.31,100.82L50.77,92.07L59.23,87.4L67.69,73.18L76.15,70.29L84.62,64.5L93.08,57.17L101.54,57.11L110,65.49L118.46,69.8L126.92,72.78L135.38,65.62L143.85,75.54L152.31,72.42L160.77,69.06L169.23,75.06L177.69,77.71L186.15,76.47L194.62,80.91L203.08,79.82L211.54,79.14L220,79.48L228.46,81.08L236.92,78.25L253.85,79.73L262.31,76.69L270.77,79.49L279.23,79.3L287.69,79.31L296.15,78.38L304.62,82.98L313.08,79.65L321.54,84.32L330,74.58L338.46,75.2L346.92,77.2L355.38,80.27L363.85,85.91L372.31,88.27L380.77,93.7L389.23,99.37L397.69,102.94L414.62,115.23L423.08,118.29L431.54,120.36L440,119.56" style="vector-effect: non-scaling-stroke; fill: none; stroke: rgb(0, 0, 0); stroke-opacity: 1; stroke-width: 0.5px; opacity: 1;"/></g><g class="points"/><g class="text"/></g><g class="trace scatter tracee33c30" style="stroke-miterlimit: 2;"><g class="fills"/><g class="errorbars"/><g class="lines"><path class="js-line" d="M0,110.12L8.46,121.08L16.92,113.24L25.38,106.65L33.85,103.59L42.31,88.1L50.77,69.85L59.23,76.5L67.69,61.5L76.15,54.94L84.62,55.46L93.08,52.18L101.54,43.89L110,47.4L118.46,49.52L126.92,58.52L135.38,44.54L143.85,57.39L152.31,62.35L160.77,59.42L169.23,62.63L177.69,64.15L186.15,72.47L194.62,70.74L203.08,66.05L211.54,72.94L220,65.44L228.46,71.76L236.92,65.55L245.38,63.3L253.85,67.25L262.31,64.11L270.77,67.27L287.69,65.21L296.15,66.1L304.62,74.25L313.08,64.87L321.54,75.56L330,63.91L338.46,61.01L346.92,63.87L355.38,73.42L363.85,78.22L372.31,82.16L380.77,89.77L389.23,94.81L397.69,97.96L406.15,106.76L414.62,108.07L423.08,111.73L431.54,116.73L440,114.18" style="vector-effect: non-scaling-stroke; fill: none; stroke: rgb(0, 0, 0); stroke-opacity: 1; stroke-width: 0.25px; opacity: 1;"/></g><g class="points"/><g class="text"/></g><g class="trace scatter tracec50874" style="stroke-miterlimit: 2; opacity: 1;"><g class="fills"/><g class="errorbars"/><g class="lines"/><g class="points"><path class="point" transform="translate(253.85,68.2)" d="M4,0A4,4 0 1,1 0,-4A4,4 0 0,1 4,0ZM0,0.5L0.5,0L0,-0.5L-0.5,0Z" style="opacity: 1; stroke: rgb(0, 0, 0); stroke-opacity: 1; stroke-width: 1px; fill: none;"/><path class="point" transform="translate(262.31,105.4)" d="M4,0A4,4 0 1,1 0,-4A4,4 0 0,1 4,0ZM0,0.5L0.5,0L0,-0.5L-0.5,0Z" style="opacity: 1; stroke: rgb(0, 0, 0); stroke-opacity: 1; stroke-width: 1px; fill: none;"/><path class="point" transform="translate(270.77,80.6)" d="M4,0A4,4 0 1,1 0,-4A4,4 0 0,1 4,0ZM0,0.5L0.5,0L0,-0.5L-0.5,0Z" style="opacity: 1; stroke: rgb(0, 0, 0); stroke-opacity: 1; stroke-width: 1px; fill: none;"/><path class="point" transform="translate(279.23,80.6)" d="M4,0A4,4 0 1,1 0,-4A4,4 0 0,1 4,0ZM0,0.5L0.5,0L0,-0.5L-0.5,0Z" style="opacity: 1; stroke: rgb(0, 0, 0); stroke-opacity: 1; stroke-width: 1px; fill: none;"/></g><g class="text"/></g></g></g><g class="overplot"/><path class="xlines-above crisp" d="M0,0" style="fill: none;"/><path class="ylines-above crisp" d="M0,0" style="fill: none;"/><g class="overlines-above"/><g class="xaxislayer-above"/><g class="yaxislayer-above"><g class="y2tick"><text text-anchor="end" x="79" y="4.199999999999999" transform="translate(0,472.00000000000006)" style="font-family: 'Open Sans', verdana, arial, sans-serif; font-size: 12px; fill: rgb(42, 63, 95); fill-opacity: 1; white-space: pre; opacity: 1;">20</text></g><g class="y2tick"><text text-anchor="end" x="79" y="4.199999999999999" style="font-family: 'Open Sans', verdana, arial, sans-serif; font-size: 12px; fill: rgb(42, 63, 95); fill-opacity: 1; white-space: pre; opacity: 1;" transform="translate(0,410.00000000000006)">30</text></g><g class="y2tick"><text text-anchor="end" x="79" y="4.199999999999999" style="font-family: 'Open Sans', verdana, arial, sans-serif; font-size: 12px; fill: rgb(42, 63, 95); fill-opacity: 1; white-space: pre; opacity: 1;" transform="translate(0,348.00000000000006)">40</text></g></g><g class="overaxes-above"/></g><g class="subplot x3y3"><g class="layer-subplot"><g class="shapelayer"/><g class="imagelayer"/></g><g class="minor-gridlayer"><g class="x3"/><g class="y3"/></g><g class="gridlayer"><g class="x3"><path class="x3grid crisp" transform="translate(156.15,0)" d="M0,534v186" style="stroke: rgb(255, 255, 255); stroke-opacity: 1; stroke-width: 1px;"/><path class="x3grid crisp" transform="translate(240.77,0)" d="M0,534v186" style="stroke: rgb(255, 255, 255); stroke-opacity: 1; stroke-width: 1px;"/><path class="x3grid crisp" transform="translate(325.38,0)" d="M0,534v186" style="stroke: rgb(255, 255, 255); stroke-opacity: 1; stroke-width: 1px;"/><path class="x3grid crisp" transform="translate(410,0)" d="M0,534v186" style="stroke: rgb(255, 255, 255); stroke-opacity: 1; stroke-width: 1px;"/><path class="x3grid crisp" transform="translate(494.62,0)" d="M0,534v186" style="stroke: rgb(255, 255, 255); stroke-opacity: 1; stroke-width: 1px;"/></g><g class="y3"><path class="y3grid crisp" transform="translate(0,682.8)" d="M80,0h440" style="stroke: rgb(255, 255, 255); stroke-opacity: 1; stroke-width: 1px;"/><path class="y3grid crisp" transform="translate(0,645.6)" d="M80,0h440" style="stroke: rgb(255, 255, 255); stroke-opacity: 1; stroke-width: 1px;"/><path class="y3grid crisp" transform="translate(0,608.4)" d="M80,0h440" style="stroke: rgb(255, 255, 255); stroke-opacity: 1; stroke-width: 1px;"/><path class="y3grid crisp" transform="translate(0,571.2)" d="M80,0h440" style="stroke: rgb(255, 255, 255); stroke-opacity: 1; stroke-width: 1px;"/></g></g><g class="zerolinelayer"/><path class="xlines-below"/><path class="ylines-below"/><g class="overlines-below"/><g class="xaxislayer-below"/><g class="yaxislayer-below"/><g class="overaxes-below"/><g class="plot" transform="translate(80,534)" clip-path="url(#clip24cdecx3y3plot)"><g class="scatterlayer mlayer"><g class="trace scatter traced3db27" style="stroke-miterlimit: 2;"><g class="fills"><g><path class="js-fill" d="M0,115.1L8.46,130.1L16.92,120.15L33.85,114.82L42.31,104.38L50.77,99.64L59.23,93.11L67.69,81.55L76.15,81.3L84.62,68.29L93.08,68.96L101.54,62.61L110,61.56L118.46,59.36L126.92,52.82L135.38,54.17L143.85,54.22L152.31,48.35L160.77,44.61L169.23,41.17L177.69,39.88L186.15,38.93L194.62,36.96L220,36.17L228.46,36.89L245.38,37.53L253.85,37.15L262.31,36.55L270.77,37.11L296.15,38.06L304.62,39.78L321.54,39.77L330,41.61L338.46,43.95L346.92,47.95L355.38,49.66L363.85,55.54L380.77,69.79L389.23,79.02L406.15,98.78L414.62,101.75L423.08,114.91L431.54,114.77L440,123.99L440,132.79L431.54,131.53L423.08,121.98L414.62,121.61L406.15,110.27L397.69,107.49L389.23,93.32L380.77,76.27L372.31,69.62L363.85,61.33L355.38,54.45L346.92,54.56L338.46,48.57L330,47.56L321.54,43.85L313.08,45.79L304.62,43.58L296.15,40.66L287.69,39.92L279.23,40.74L270.77,40.73L262.31,41.21L253.85,39.57L245.38,42.71L236.92,39.97L228.46,38.68L220,38.87L211.54,39.03L203.08,41.38L194.62,41.63L186.15,45.37L177.69,41.9L169.23,47.59L160.77,50.5L152.31,57.95L143.85,57.86L135.38,64.01L126.92,64.47L118.46,71.14L110,75.28L101.54,71.34L93.08,80.35L84.62,86.44L76.15,96L67.69,87.65L59.23,108L50.77,120.86L42.31,117.98L33.85,130L25.38,132.51L16.92,125.79L8.46,134.62L0,125.74Z" style="fill: rgb(90, 180, 172); fill-opacity: 1; stroke-width: 0;"/></g></g><g class="errorbars"/><g class="lines"><path class="js-line" d="M0,125.74L8.46,134.62L16.92,125.79L25.38,132.51L33.85,130L42.31,117.98L50.77,120.86L59.23,108L67.69,87.65L76.15,96L84.62,86.44L93.08,80.35L101.54,71.34L110,75.28L118.46,71.14L126.92,64.47L135.38,64.01L143.85,57.86L152.31,57.95L160.77,50.5L169.23,47.59L177.69,41.9L186.15,45.37L194.62,41.63L203.08,41.38L211.54,39.03L220,38.87L228.46,38.68L236.92,39.97L245.38,42.71L253.85,39.57L262.31,41.21L270.77,40.73L279.23,40.74L287.69,39.92L296.15,40.66L304.62,43.58L313.08,45.79L321.54,43.85L330,47.56L338.46,48.57L346.92,54.56L355.38,54.45L363.85,61.33L372.31,69.62L380.77,76.27L389.23,93.32L397.69,107.49L406.15,110.27L414.62,121.61L423.08,121.98L431.54,131.53L440,132.79" style="vector-effect: non-scaling-stroke; fill: none; stroke: rgb(0, 0, 0); stroke-opacity: 1; stroke-width: 0.25px; opacity: 1;"/></g><g class="points"/><g class="text"/></g><g class="trace scatter trace064745" style="stroke-miterlimit: 2;"><g class="fills"><g><path class="js-fill" d="M0,111.94L8.46,117.12L16.92,110.31L25.38,106.32L33.85,106.96L42.31,97.05L50.77,89.27L59.23,83.73L67.69,74.04L76.15,71.91L84.62,63.89L93.08,58.33L101.54,55.88L110,56.65L118.46,54.26L126.92,48.71L135.38,49.7L143.85,48.75L152.31,43.49L160.77,39.52L169.23,38.45L177.69,37.87L186.15,35.79L194.62,36L203.08,35.37L211.54,34.86L220,33.58L245.38,36.19L253.85,35.29L262.31,32.6L270.77,35.21L279.23,34.52L287.69,34.89L296.15,36.73L304.62,37.31L313.08,38.02L321.54,37.88L338.46,39.82L346.92,42L355.38,46.22L363.85,52.72L372.31,57.82L380.77,65.7L389.23,72.43L397.69,82.39L406.15,88.63L414.62,93.94L423.08,99.91L431.54,107.87L440,117.25L440,123.99L431.54,114.77L423.08,114.91L414.62,101.75L406.15,98.78L389.23,79.02L380.77,69.79L363.85,55.54L355.38,49.66L346.92,47.95L338.46,43.95L330,41.61L321.54,39.77L304.62,39.78L296.15,38.06L270.77,37.11L262.31,36.55L253.85,37.15L245.38,37.53L228.46,36.89L220,36.17L194.62,36.96L186.15,38.93L177.69,39.88L169.23,41.17L160.77,44.61L152.31,48.35L143.85,54.22L135.38,54.17L126.92,52.82L118.46,59.36L110,61.56L101.54,62.61L93.08,68.96L84.62,68.29L76.15,81.3L67.69,81.55L59.23,93.11L50.77,99.64L42.31,104.38L33.85,114.82L16.92,120.15L8.46,130.1L0,115.1Z" style="fill: rgb(245, 245, 245); fill-opacity: 1; stroke-width: 0;"/></g></g><g class="errorbars"/><g class="lines"><path class="js-line" d="M0,115.1L8.46,130.1L16.92,120.15L33.85,114.82L42.31,104.38L50.77,99.64L59.23,93.11L67.69,81.55L76.15,81.3L84.62,68.29L93.08,68.96L101.54,62.61L110,61.56L118.46,59.36L126.92,52.82L135.38,54.17L143.85,54.22L152.31,48.35L160.77,44.61L169.23,41.17L177.69,39.88L186.15,38.93L194.62,36.96L220,36.17L228.46,36.89L245.38,37.53L253.85,37.15L262.31,36.55L270.77,37.11L296.15,38.06L304.62,39.78L321.54,39.77L330,41.61L338.46,43.95L346.92,47.95L355.38,49.66L363.85,55.54L380.77,69.79L389.23,79.02L406.15,98.78L414.62,101.75L423.08,114.91L431.54,114.77L440,123.99" style="vector-effect: non-scaling-stroke; fill: none; stroke: rgb(0, 0, 0); stroke-opacity: 1; stroke-width: 0.5px; opacity: 1;"/></g><g class="points"/><g class="text"/></g><g class="trace scatter trace8e97c5" style="stroke-miterlimit: 2;"><g class="fills"><g><path class="js-fill" d="M0,104.53L8.46,110.08L16.92,106.32L25.38,104.03L33.85,96.69L42.31,88.17L50.77,83.21L59.23,77.51L67.69,68.37L76.15,65.94L84.62,54.61L93.08,50.76L101.54,47.86L110,49.13L118.46,48.02L126.92,44.86L135.38,43.27L143.85,43.08L152.31,40.35L160.77,37.77L169.23,36.22L186.15,33.77L194.62,33.29L211.54,33.4L220,32.07L228.46,33.19L236.92,33.24L253.85,33.11L262.31,29.65L270.77,31.79L279.23,32.74L304.62,35.11L313.08,33.33L321.54,35.29L330,33.67L338.46,34.35L346.92,35.94L363.85,48.98L372.31,52.84L380.77,61.86L389.23,67.41L397.69,72.99L406.15,81.02L414.62,85.75L423.08,87.25L431.54,96.51L440,111.51L440,117.25L431.54,107.87L423.08,99.91L414.62,93.94L406.15,88.63L397.69,82.39L389.23,72.43L380.77,65.7L372.31,57.82L363.85,52.72L355.38,46.22L346.92,42L338.46,39.82L321.54,37.88L313.08,38.02L304.62,37.31L296.15,36.73L287.69,34.89L279.23,34.52L270.77,35.21L262.31,32.6L253.85,35.29L245.38,36.19L220,33.58L211.54,34.86L203.08,35.37L194.62,36L186.15,35.79L177.69,37.87L169.23,38.45L160.77,39.52L152.31,43.49L143.85,48.75L135.38,49.7L126.92,48.71L118.46,54.26L110,56.65L101.54,55.88L93.08,58.33L84.62,63.89L76.15,71.91L67.69,74.04L59.23,83.73L50.77,89.27L42.31,97.05L33.85,106.96L25.38,106.32L16.92,110.31L8.46,117.12L0,111.94Z" style="fill: rgb(245, 245, 245); fill-opacity: 1; stroke-width: 0;"/></g></g><g class="errorbars"/><g class="lines"><path class="js-line" d="M0,111.94L8.46,117.12L16.92,110.31L25.38,106.32L33.85,106.96L42.31,97.05L50.77,89.27L59.23,83.73L67.69,74.04L76.15,71.91L84.62,63.89L93.08,58.33L101.54,55.88L110,56.65L118.46,54.26L126.92,48.71L135.38,49.7L143.85,48.75L152.31,43.49L160.77,39.52L169.23,38.45L177.69,37.87L186.15,35.79L194.62,36L203.08,35.37L211.54,34.86L220,33.58L245.38,36.19L253.85,35.29L262.31,32.6L270.77,35.21L279.23,34.52L287.69,34.89L296.15,36.73L304.62,37.31L313.08,38.02L321.54,37.88L338.46,39.82L346.92,42L355.38,46.22L363.85,52.72L372.31,57.82L380.77,65.7L389.23,72.43L397.69,82.39L406.15,88.63L414.62,93.94L423.08,99.91L431.54,107.87L440,117.25" style="vector-effect: non-scaling-stroke; fill: none; stroke: rgb(0, 0, 0); stroke-opacity: 1; stroke-width: 1px; opacity: 1;"/></g><g class="points"/><g class="text"/></g><g class="trace scatter traced8b3b8" style="stroke-miterlimit: 2;"><g class="fills"><g><path class="js-fill" d="M0,97.19L8.46,98.92L16.92,88.67L25.38,88.33L33.85,91.37L42.31,80.58L50.77,59.17L59.23,60.73L67.69,53.47L76.15,45.37L84.62,43.62L93.08,40.19L101.54,38.13L110,39.55L118.46,38.3L126.92,37.25L135.38,30.46L143.85,33.66L152.31,28.8L169.23,31.06L177.69,27.77L186.15,30.37L194.62,30.02L203.08,30.37L211.54,31.54L228.46,30.14L236.92,30.38L245.38,30.99L253.85,30.08L262.31,21.06L270.77,24.78L279.23,25.94L287.69,27.95L296.15,28.06L304.62,29.2L313.08,25.26L321.54,30.02L330,23.04L338.46,21.96L346.92,25.34L355.38,35.04L363.85,42.41L372.31,41.86L380.77,54.41L389.23,60.68L397.69,68.23L406.15,68.92L414.62,75.78L423.08,78.25L431.54,88.71L440,93.43L440,111.51L431.54,96.51L423.08,87.25L414.62,85.75L406.15,81.02L397.69,72.99L389.23,67.41L380.77,61.86L372.31,52.84L363.85,48.98L346.92,35.94L338.46,34.35L330,33.67L321.54,35.29L313.08,33.33L304.62,35.11L279.23,32.74L270.77,31.79L262.31,29.65L253.85,33.11L236.92,33.24L228.46,33.19L220,32.07L211.54,33.4L194.62,33.29L186.15,33.77L169.23,36.22L160.77,37.77L152.31,40.35L143.85,43.08L135.38,43.27L126.92,44.86L118.46,48.02L110,49.13L101.54,47.86L93.08,50.76L84.62,54.61L76.15,65.94L67.69,68.37L59.23,77.51L50.77,83.21L42.31,88.17L33.85,96.69L25.38,104.03L16.92,106.32L8.46,110.08L0,104.53Z" style="fill: rgb(216, 179, 101); fill-opacity: 1; stroke-width: 0;"/></g></g><g class="errorbars"/><g class="lines"><path class="js-line" d="M0,104.53L8.46,110.08L16.92,106.32L25.38,104.03L33.85,96.69L42.31,88.17L50.77,83.21L59.23,77.51L67.69,68.37L76.15,65.94L84.62,54.61L93.08,50.76L101.54,47.86L110,49.13L118.46,48.02L126.92,44.86L135.38,43.27L143.85,43.08L152.31,40.35L160.77,37.77L169.23,36.22L186.15,33.77L194.62,33.29L211.54,33.4L220,32.07L228.46,33.19L236.92,33.24L253.85,33.11L262.31,29.65L270.77,31.79L279.23,32.74L304.62,35.11L313.08,33.33L321.54,35.29L330,33.67L338.46,34.35L346.92,35.94L363.85,48.98L372.31,52.84L380.77,61.86L389.23,67.41L397.69,72.99L406.15,81.02L414.62,85.75L423.08,87.25L431.54,96.51L440,111.51" style="vector-effect: non-scaling-stroke; fill: none; stroke: rgb(0, 0, 0); stroke-opacity: 1; stroke-width: 0.5px; opacity: 1;"/></g><g class="points"/><g class="text"/></g><g class="trace scatter trace5e92b2" style="stroke-miterlimit: 2;"><g class="fills"/><g class="errorbars"/><g class="lines"><path class="js-line" d="M0,97.19L8.46,98.92L16.92,88.67L25.38,88.33L33.85,91.37L42.31,80.58L50.77,59.17L59.23,60.73L67.69,53.47L76.15,45.37L84.62,43.62L93.08,40.19L101.54,38.13L110,39.55L118.46,38.3L126.92,37.25L135.38,30.46L143.85,33.66L152.31,28.8L169.23,31.06L177.69,27.77L186.15,30.37L194.62,30.02L203.08,30.37L211.54,31.54L228.46,30.14L236.92,30.38L245.38,30.99L253.85,30.08L262.31,21.06L270.77,24.78L279.23,25.94L287.69,27.95L296.15,28.06L304.62,29.2L313.08,25.26L321.54,30.02L330,23.04L338.46,21.96L346.92,25.34L355.38,35.04L363.85,42.41L372.31,41.86L380.77,54.41L389.23,60.68L397.69,68.23L406.15,68.92L414.62,75.78L423.08,78.25L431.54,88.71L440,93.43" style="vector-effect: non-scaling-stroke; fill: none; stroke: rgb(0, 0, 0); stroke-opacity: 1; stroke-width: 0.25px; opacity: 1;"/></g><g class="points"/><g class="text"/></g><g class="trace scatter traceaee3b5" style="stroke-miterlimit: 2; opacity: 1;"><g class="fills"/><g class="errorbars"/><g class="lines"/><g class="points"><path class="point" transform="translate(253.85,22.32)" d="M4,0A4,4 0 1,1 0,-4A4,4 0 0,1 4,0ZM0,0.5L0.5,0L0,-0.5L-0.5,0Z" style="opacity: 1; stroke: rgb(0, 0, 0); stroke-opacity: 1; stroke-width: 1px; fill: none;"/><path class="point" transform="translate(262.31,37.2)" d="M4,0A4,4 0 1,1 0,-4A4,4 0 0,1 4,0ZM0,0.5L0.5,0L0,-0.5L-0.5,0Z" style="opacity: 1; stroke: rgb(0, 0, 0); stroke-opacity: 1; stroke-width: 1px; fill: none;"/><path class="point" transform="translate(270.77,29.76)" d="M4,0A4,4 0 1,1 0,-4A4,4 0 0,1 4,0ZM0,0.5L0.5,0L0,-0.5L-0.5,0Z" style="opacity: 1; stroke: rgb(0, 0, 0); stroke-opacity: 1; stroke-width: 1px; fill: none;"/><path class="point" transform="translate(279.23,29.76)" d="M4,0A4,4 0 1,1 0,-4A4,4 0 0,1 4,0ZM0,0.5L0.5,0L0,-0.5L-0.5,0Z" style="opacity: 1; stroke: rgb(0, 0, 0); stroke-opacity: 1; stroke-width: 1px; fill: none;"/></g><g class="text"/></g></g></g><g class="overplot"/><path class="xlines-above crisp" d="M0,0" style="fill: none;"/><path class="ylines-above crisp" d="M0,0" style="fill: none;"/><g class="overlines-above"/><g class="xaxislayer-above"><g class="x3tick"><text text-anchor="middle" x="0" y="733" transform="translate(156.15,0)" style="font-family: 'Open Sans', verdana, arial, sans-serif; font-size: 12px; fill: rgb(42, 63, 95); fill-opacity: 1; white-space: pre; opacity: 1;">10</text></g><g class="x3tick"><text text-anchor="middle" x="0" y="733" style="font-family: 'Open Sans', verdana, arial, sans-serif; font-size: 12px; fill: rgb(42, 63, 95); fill-opacity: 1; white-space: pre; opacity: 1;" transform="translate(240.77,0)">20</text></g><g class="x3tick"><text text-anchor="middle" x="0" y="733" style="font-family: 'Open Sans', verdana, arial, sans-serif; font-size: 12px; fill: rgb(42, 63, 95); fill-opacity: 1; white-space: pre; opacity: 1;" transform="translate(325.38,0)">30</text></g><g class="x3tick"><text text-anchor="middle" x="0" y="733" style="font-family: 'Open Sans', verdana, arial, sans-serif; font-size: 12px; fill: rgb(42, 63, 95); fill-opacity: 1; white-space: pre; opacity: 1;" transform="translate(410,0)">40</text></g><g class="x3tick"><text text-anchor="middle" x="0" y="733" style="font-family: 'Open Sans', verdana, arial, sans-serif; font-size: 12px; fill: rgb(42, 63, 95); fill-opacity: 1; white-space: pre; opacity: 1;" transform="translate(494.62,0)">50</text></g></g><g class="yaxislayer-above"><g class="y3tick"><text text-anchor="end" x="79" y="4.199999999999999" transform="translate(0,720)" style="font-family: 'Open Sans', verdana, arial, sans-serif; font-size: 12px; fill: rgb(42, 63, 95); fill-opacity: 1; white-space: pre; opacity: 1;">5</text></g><g class="y3tick"><text text-anchor="end" x="79" y="4.199999999999999" style="font-family: 'Open Sans', verdana, arial, sans-serif; font-size: 12px; fill: rgb(42, 63, 95); fill-opacity: 1; white-space: pre; opacity: 1;" transform="translate(0,682.8)">10</text></g><g class="y3tick"><text text-anchor="end" x="79" y="4.199999999999999" style="font-family: 'Open Sans', verdana, arial, sans-serif; font-size: 12px; fill: rgb(42, 63, 95); fill-opacity: 1; white-space: pre; opacity: 1;" transform="translate(0,645.6)">15</text></g><g class="y3tick"><text text-anchor="end" x="79" y="4.199999999999999" style="font-family: 'Open Sans', verdana, arial, sans-serif; font-size: 12px; fill: rgb(42, 63, 95); fill-opacity: 1; white-space: pre; opacity: 1;" transform="translate(0,608.4)">20</text></g><g class="y3tick"><text text-anchor="end" x="79" y="4.199999999999999" style="font-family: 'Open Sans', verdana, arial, sans-serif; font-size: 12px; fill: rgb(42, 63, 95); fill-opacity: 1; white-space: pre; opacity: 1;" transform="translate(0,571.2)">25</text></g><g class="y3tick"><text text-anchor="end" x="79" y="4.199999999999999" style="font-family: 'Open Sans', verdana, arial, sans-serif; font-size: 12px; fill: rgb(42, 63, 95); fill-opacity: 1; white-space: pre; opacity: 1;" transform="translate(0,534)">30</text></g></g><g class="overaxes-above"/></g></g><g class="polarlayer"/><g class="smithlayer"/><g class="ternarylayer"/><g class="geolayer"/><g class="funnelarealayer"/><g class="pielayer"/><g class="iciclelayer"/><g class="treemaplayer"/><g class="sunburstlayer"/><g class="glimages"/><defs id="topdefs-24cdec"><g class="clips"/></defs><g class="layer-above"><g class="imagelayer"/><g class="shapelayer"/></g><g class="infolayer"><g class="g-gtitle"><text class="gtitle" x="30" y="50" text-anchor="start" dy="0em" style="font-family: 'Open Sans', verdana, arial, sans-serif; font-size: 17px; fill: rgb(42, 63, 95); opacity: 1; font-weight: normal; white-space: pre;">Climatology and S2S forecast for Kishoreganj</text></g><g class="g-xtitle"/><g class="g-x2title"/><g class="g-x3title"/><g class="g-ytitle"><text class="ytitle" transform="rotate(-90,34.16875,193)" x="34.16875" y="193" text-anchor="middle" style="font-family: 'Open Sans', verdana, arial, sans-serif; font-size: 14px; fill: rgb(42, 63, 95); opacity: 1; font-weight: normal; white-space: pre;">[mm]</text></g><g class="g-y2title"><text class="y2title" transform="rotate(-90,40.840625,410.00000000000006)" x="40.840625" y="410.00000000000006" text-anchor="middle" style="font-family: 'Open Sans', verdana, arial, sans-serif; font-size: 14px; fill: rgb(42, 63, 95); opacity: 1; font-weight: normal; white-space: pre;">[C]</text></g><g class="g-y3title"><text class="y3title" transform="rotate(-90,40.840625,627)" x="40.840625" y="627" text-anchor="middle" style="font-family: 'Open Sans', verdana, arial, sans-serif; font-size: 14px; fill: rgb(42, 63, 95); opacity: 1; font-weight: normal; white-space: pre;">[C]</text></g><g class="annotation" data-index="0" style="opacity: 1;"><g class="annotation-text-g" transform="rotate(0,300,89.5)"><g class="cursor-pointer" transform="translate(237,79)"><rect class="bg" x="0.5" y="0.5" width="126" height="20" style="stroke-width: 1px; stroke: rgb(0, 0, 0); stroke-opacity: 0; fill: rgb(0, 0, 0); fill-opacity: 0;"/><text class="annotation-text" text-anchor="middle" x="63.359375" y="16" style="font-family: 'Open Sans', verdana, arial, sans-serif; font-size: 16px; fill: rgb(42, 63, 95); fill-opacity: 1; white-space: pre;">Precipitation sum</text></g></g></g><g class="annotation" data-index="1" style="opacity: 1;"><g class="annotation-text-g" transform="rotate(0,300,306.50000000000006)"><g class="cursor-pointer" transform="translate(196,296)"><rect class="bg" x="0.5" y="0.5" width="208" height="20" style="stroke-width: 1px; stroke: rgb(0, 0, 0); stroke-opacity: 0; fill: rgb(0, 0, 0); fill-opacity: 0;"/><text class="annotation-text" text-anchor="middle" x="104.265625" y="16" style="font-family: 'Open Sans', verdana, arial, sans-serif; font-size: 16px; fill: rgb(42, 63, 95); fill-opacity: 1; white-space: pre;">Mean maximum temperature</text></g></g></g><g class="annotation" data-index="2" style="opacity: 1;"><g class="annotation-text-g" transform="rotate(0,300,523.5)"><g class="cursor-pointer" transform="translate(198,513)"><rect class="bg" x="0.5" y="0.5" width="203" height="20" style="stroke-width: 1px; stroke: rgb(0, 0, 0); stroke-opacity: 0; fill: rgb(0, 0, 0); fill-opacity: 0;"/><text class="annotation-text" text-anchor="middle" x="102.046875" y="16" style="font-family: 'Open Sans', verdana, arial, sans-serif; font-size: 16px; fill: rgb(42, 63, 95); fill-opacity: 1; white-space: pre;">Mean minimum temperature</text></g></g></g><g class="annotation" data-index="3" style="opacity: 1;"><g class="annotation-text-g" transform="rotate(0,300,760.5)"><g class="cursor-pointer" transform="translate(277,750)"><rect class="bg" x="0.5" y="0.5" width="45" height="20" style="stroke-width: 1px; stroke: rgb(0, 0, 0); stroke-opacity: 0; fill: rgb(0, 0, 0); fill-opacity: 0;"/><text class="annotation-text" text-anchor="middle" x="22.3125" y="16" style="font-family: 'Open Sans', verdana, arial, sans-serif; font-size: 16px; fill: rgb(42, 63, 95); fill-opacity: 1; white-space: pre;">Week</text></g></g></g></g></svg>