<svg class="main-svg" xmlns="http://www.w3.org/2000/svg" xmlns:xlink="http://www.w3.org/1999/xlink" width="600" height="800" style="" viewBox="0 0 600 800"><rect x="0" y="0" width="600" height="800" style="fill: rgb(255, 255, 255); fill-opacity: 1;"/><defs id="defs-814bb1"><g class="clips"><clipPath id="clip814bb1xyplot" class="plotclip"><rect width="440" height="186.00000000000003"/></clipPath><clipPath id="clip814bb1x2y2plot" class="plotclip"><rect width="440" height="185.99999999999997"/></clipPath><clipPath id="clip814bb1x3y3plot" class="plotclip"><rect width="440" height="186"/></clipPath><clipPath class="axesclip" id="clip814bb1x"><rect x="80" y="0" width="440" height="800"/></clipPath><clipPath class="axesclip" id="clip814bb1y"><rect x="0" y="100" width="600" height="186.00000000000003"/></clipPath><clipPath class="axesclip" id="clip814bb1xy"><rect x="80" y="100" width="440" height="186.00000000000003"/></clipPath><clipPath class="axesclip" id="clip814bb1y2"><rect x="0" y="317.00000000000006" width="600" height="185.99999999999997"/></clipPath><clipPath class="axesclip" id="clip814bb1xy2"><rect x="80" y="317.00000000000006" width="440" height="185.99999999999997"/></clipPath><clipPath class="axesclip" id="clip814bb1y3"><rect x="0" y="534" width="600" height="186"/></clipPath><clipPath class="axesclip" id="clip814bb1xy3"><rect x="80" y="534" width="440" height="186"/></clipPath><clipPath class="axesclip" id="clip814bb1x2"><rect x="80" y="0" width="440" height="800"/></clipPath><clipPath class="axesclip" id="clip814bb1x2y"><rect x="80" y="100" width="440" height="186.00000000000003"/></clipPath><clipPath class="axesclip" id="clip814bb1x2y2"><rect x="80" y="317.00000000000006" width="440" height="185.99999999999997"/></clipPath><clipPath class="axesclip" id="clip814bb1x2y3"><rect x="80" y="534" width="440" height="186"/></clipPath><clipPath class="axesclip" id="clip814bb1x3"><rect x="80" y="0" width="440" height="800"/></clipPath><clipPath class="axesclip" id="clip814bb1x3y"><rect x="80" y="100" width="440" height="186.00000000000003"/></clipPath><clipPath class="axesclip" id="clip814bb1x3y2"><rect x="80" y="317.00000000000006" width="440" height="185.99999999999997"/></clipPath><clipPath class="axesclip" id="clip814bb1x3y3"><rect x="80" y="534" width="440" height="186"/></clipPath></g><g class="gradients"/><g class="patterns"/></defs><g class="bglayer"><rect class="bg" x="80" y="100" width="440" height="186.00000000000003" style="fill: rgb(229, 236, 246); fill-opacity: 1; stroke-width: 0;"/><rect class="bg" x="80" y="317.00000000000006" width="440" height="185.99999999999997" style="fill: rgb(229, 236, 246); fill-opacity: 1; stroke-width: 0;"/><rect class="bg" x="80" y="534" width="440" height="186" style="fill: rgb(229, 236, 246); fill-opacity: 1; stroke-width: 0;"/></g><g class="layer-below"><g class="imagelayer"/><g class="shapelayer"/></g><g class="cartesianlayer"><g class="subplot xy"><g class="layer-subplot"><g class="shapelayer"/><g class="imagelayer"/></g><g class="minor-gridlayer"><g class="x"/><g class="y"/></g><g class="gridlayer"><g class="x"><path class="xgrid crisp" transform="translate(156.15,0)" d="M0,100v186.00000000000003" style="stroke: rgb(255, 255, 255); stroke-opacity: 1; stroke-width: 1px;"/><path class="xgrid crisp" transform="translate(240.77,0)" d="M0,100v186.00000000000003" style="stroke: rgb(255, 255, 255); stroke-opacity: 1; stroke-width: 1px;"/><path class="xgrid crisp" transform="translate(325.38,0)" d="M0,100v186.00000000000003" style="stroke: rgb(255, 255, 255); stroke-opacity: 1; stroke-width: 1px;"/><path class="xgrid crisp" transform="translate(410,0)" d="M0,100v186.00000000000003" style="stroke: rgb(255, 255, 255); stroke-opacity: 1; stroke-width: 1px;"/><path class="xgrid crisp" transform="translate(494.62,0)" d="M0,100v186.00000000000003" style="stroke: rgb(255, 255, 255); stroke-opacity: 1; stroke-width: 1px;"/></g><g class="y"><path class="ygrid crisp" transform="translate(0,248.8)" d="M80,0h440" style="stroke: rgb(255, 255, 255); stroke-opacity: 1; stroke-width: 1px;"/><path class="ygrid crisp" transform="translate(0,211.6)" d="M80,0h440" style="stroke: rgb(255, 255, 255); stroke-opacity: 1; stroke-width: 1px;"/><path class="ygrid crisp" transform="translate(0,174.4)" d="M80,0h440" style="stroke: rgb(255, 255, 255); stroke-opacity: 1; stroke-width: 1px;"/><path class="ygrid crisp" transform="translate(0,137.2)" d="M80,0h440" style="stroke: rgb(255, 255, 255); stroke-opacity: 1; stroke-width: 1px;"/></g></g><g class="zerolinelayer"><path class="yzl zl crisp" transform="translate(0,286)" d="M80,0h440" style="stroke: rgb(255, 255, 255); stroke-opacity: 1; stroke-width: 2px;"/></g><path class="xlines-below"/><path class="ylines-below"/><g class="overlines-below"/><g class="xaxislayer-below"/><g class="yaxislayer-below"/><g class="overaxes-below"/><g class="plot" transform="translate(80,100)" clip-path="url(#clip814bb1xyplot)"><g class="scatterlayer mlayer"><g class="trace scatter traceb8052c" style="stroke-miterlimit: 2;"><g class="fills"><g><path class="js-fill" d="M0,186L135.38,185.61L143.85,177L152.31,181.47L160.77,183.01L169.23,166.53L177.69,176.95L186.15,172.1L194.62,164.46L203.08,165.96L211.54,151.71L220,171.61L228.46,165.54L236.92,155.28L245.38,169.28L253.85,175L262.31,156.64L270.77,163.03L279.23,173.57L287.69,173.43L296.15,169.41L304.62,171.42L313.08,174.99L321.54,172.79L330,184.76L338.46,176.78L346.92,185.33L363.85,186L372.31,186L440,186L440,186L338.46,186L330,186L313.08,185.51L304.62,185.57L296.15,182.89L287.69,185.09L279.23,182.52L270.77,175.14L262.31,181.63L253.85,182.09L245.38,185.18L236.92,177.47L228.46,178.83L220,184.79L211.54,184.97L203.08,180.9L194.62,184.57L186.15,186L160.77,186L152.31,186L143.85,184.68L135.38,186L0,186Z" style="fill: rgb(224, 236, 244); fill-opacity: 1; stroke-width: 0;"/></g></g><g class="errorbars"/><g class="lines"><path class="js-line" d="M0,186L135.38,186L143.85,184.68L152.31,186L160.77,186L186.15,186L194.62,184.57L203.08,180.9L211.54,184.97L220,184.79L228.46,178.83L236.92,177.47L245.38,185.18L253.85,182.09L262.31,181.63L270.77,175.14L279.23,182.52L287.69,185.09L296.15,182.89L304.62,185.57L313.08,185.51L330,186L338.46,186L440,186" style="vector-effect: non-scaling-stroke; fill: none; stroke: rgb(0, 0, 0); stroke-opacity: 1; stroke-width: 0.25px; opacity: 1;"/></g><g class="points"/><g class="text"/></g><g class="trace scatter tracea6fd77" style="stroke-miterlimit: 2;"><g class="fills"><g><path class="js-fill" d="M0,186L93.08,185.95L101.54,184.1L110,177.43L118.46,179.89L126.92,179.46L135.38,170.87L143.85,172.23L152.31,170.33L169.23,151.45L177.69,156.84L186.15,136.99L194.62,147.42L203.08,132.45L211.54,133.47L220,147.53L228.46,145.04L236.92,138.97L245.38,156.16L253.85,149.86L262.31,134.66L270.77,144.75L279.23,165.45L287.69,163.39L296.15,159.06L304.62,155.13L313.08,167.1L321.54,164.45L330,156.43L338.46,172.19L346.92,174.66L355.38,185.78L363.85,185.94L440,186L440,186L372.31,186L363.85,186L346.92,185.33L338.46,176.78L330,184.76L321.54,172.79L313.08,174.99L304.62,171.42L296.15,169.41L287.69,173.43L279.23,173.57L270.77,163.03L262.31,156.64L253.85,175L245.38,169.28L236.92,155.28L228.46,165.54L220,171.61L211.54,151.71L203.08,165.96L194.62,164.46L186.15,172.1L177.69,176.95L169.23,166.53L160.77,183.01L152.31,181.47L143.85,177L135.38,185.61L0,186Z" style="fill: rgb(158, 188, 218); fill-opacity: 1; stroke-width: 0;"/></g></g><g class="errorbars"/><g class="lines"><path class="js-line" d="M0,186L135.38,185.61L143.85,177L152.31,181.47L160.77,183.01L169.23,166.53L177.69,176.95L186.15,172.1L194.62,164.46L203.08,165.96L211.54,151.71L220,171.61L228.46,165.54L236.92,155.28L245.38,169.28L253.85,175L262.31,156.64L270.77,163.03L279.23,173.57L287.69,173.43L296.15,169.41L304.62,171.42L313.08,174.99L321.54,172.79L330,184.76L338.46,176.78L346.92,185.33L363.85,186L372.31,186L440,186" style="vector-effect: non-scaling-stroke; fill: none; stroke: rgb(0, 0, 0); stroke-opacity: 1; stroke-width: 0.5px; opacity: 1;"/></g><g class="points"/><g class="text"/></g><g class="trace scatter trace48edbc" style="stroke-miterlimit: 2;"><g class="fills"><g><path class="js-fill" d="M0,186L42.31,185.62L50.77,180.95L59.23,181.95L67.69,184.58L84.62,184.67L93.08,180.91L101.54,165.06L110,151.24L118.46,159.66L126.92,174.56L135.38,160.1L143.85,155.77L152.31,151.02L160.77,150.42L169.23,141.82L177.69,135.52L186.15,127.22L194.62,126.06L203.08,110.48L211.54,118.69L220,99.92L228.46,131.81L236.92,84.12L245.38,138.89L253.85,128.01L262.31,121.57L270.77,133.38L279.23,157.39L287.69,147.98L296.15,142.53L304.62,130.72L313.08,140.78L321.54,145.36L330,141.43L338.46,139.25L346.92,154.82L355.38,124.36L363.85,173.86L372.31,185.71L380.77,186L440,186L440,186L363.85,185.94L355.38,185.78L346.92,174.66L338.46,172.19L330,156.43L321.54,164.45L313.08,167.1L304.62,155.13L296.15,159.06L287.69,163.39L279.23,165.45L270.77,144.75L262.31,134.66L253.85,149.86L245.38,156.16L236.92,138.97L228.46,145.04L220,147.53L211.54,133.47L203.08,132.45L194.62,147.42L186.15,136.99L177.69,156.84L169.23,151.45L152.31,170.33L143.85,172.23L135.38,170.87L126.92,179.46L118.46,179.89L110,177.43L101.54,184.1L93.08,185.95L0,186Z" style="fill: rgb(158, 188, 218); fill-opacity: 1; stroke-width: 0;"/></g></g><g class="errorbars"/><g class="lines"><path class="js-line" d="M0,186L93.08,185.95L101.54,184.1L110,177.43L118.46,179.89L126.92,179.46L135.38,170.87L143.85,172.23L152.31,170.33L169.23,151.45L177.69,156.84L186.15,136.99L194.62,147.42L203.08,132.45L211.54,133.47L220,147.53L228.46,145.04L236.92,138.97L245.38,156.16L253.85,149.86L262.31,134.66L270.77,144.75L279.23,165.45L287.69,163.39L296.15,159.06L304.62,155.13L313.08,167.1L321.54,164.45L330,156.43L338.46,172.19L346.92,174.66L355.38,185.78L363.85,185.94L440,186" style="vector-effect: non-scaling-stroke; fill: none; stroke: rgb(0, 0, 0); stroke-opacity: 1; stroke-width: 1px; opacity: 1;"/></g><g class="points"/><g class="text"/></g><g class="trace scatter tracef043ee" style="stroke-miterlimit: 2;"><g class="fills"><g><path class="js-fill" d="M0,186L42.31,185.26L50.77,175.77L59.23,177.39L67.69,183.55L76.15,182.54L84.62,184.05L93.08,178.78L101.54,137.53L110,112.68L118.46,138.97L126.92,159.65L135.38,121.9L143.85,135.38L152.31,113.88L160.77,127.43L169.23,116.09L177.69,78.31L186.15,73.79L194.62,70.51L203.08,65.35L211.54,81.98L220,59.87L228.46,99.22L236.92,-2.78L245.38,98.36L253.85,76.7L262.31,71.41L270.77,95.08L279.23,142.88L287.69,119.14L296.15,119.03L304.62,106.03L313.08,128.14L321.54,106.28L330,98.55L338.46,95.45L346.92,131.72L355.38,77.17L363.85,166.15L372.31,185.61L389.23,186L397.69,186L440,186L440,186L380.77,186L372.31,185.71L363.85,173.86L355.38,124.36L346.92,154.82L338.46,139.25L330,141.43L321.54,145.36L313.08,140.78L304.62,130.72L296.15,142.53L287.69,147.98L279.23,157.39L270.77,133.38L262.31,121.57L253.85,128.01L245.38,138.89L236.92,84.12L228.46,131.81L220,99.92L211.54,118.69L203.08,110.48L194.62,126.06L186.15,127.22L177.69,135.52L169.23,141.82L160.77,150.42L152.31,151.02L143.85,155.77L135.38,160.1L126.92,174.56L118.46,159.66L110,151.24L101.54,165.06L93.08,180.91L84.62,184.67L67.69,184.58L59.23,181.95L50.77,180.95L42.31,185.62L0,186Z" style="fill: rgb(136, 86, 167); fill-opacity: 1; stroke-width: 0;"/></g></g><g class="errorbars"/><g class="lines"><path class="js-line" d="M0,186L42.31,185.62L50.77,180.95L59.23,181.95L67.69,184.58L84.62,184.67L93.08,180.91L101.54,165.06L110,151.24L118.46,159.66L126.92,174.56L135.38,160.1L143.85,155.77L152.31,151.02L160.77,150.42L169.23,141.82L177.69,135.52L186.15,127.22L194.62,126.06L203.08,110.48L211.54,118.69L220,99.92L228.46,131.81L236.92,84.12L245.38,138.89L253.85,128.01L262.31,121.57L270.77,133.38L279.23,157.39L287.69,147.98L296.15,142.53L304.62,130.72L313.08,140.78L321.54,145.36L330,141.43L338.46,139.25L346.92,154.82L355.38,124.36L363.85,173.86L372.31,185.71L380.77,186L440,186" style="vector-effect: non-scaling-stroke; fill: none; stroke: rgb(0, 0, 0); stroke-opacity: 1; stroke-width: 0.5px; opacity: 1;"/></g><g class="points"/><g class="text"/></g><g class="trace scatter traceadafce" style="stroke-miterlimit: 2;"><g class="fills"/><g class="errorbars"/><g class="lines"><path class="js-line" d="M0,186L42.31,185.26L50.77,175.77L59.23,177.39L67.69,183.55L76.15,182.54L84.62,184.05L93.08,178.78L101.54,137.53L110,112.68L118.46,138.97L126.92,159.65L135.38,121.9L143.85,135.38L152.31,113.88L160.77,127.43L169.23,116.09L177.69,78.31L186.15,73.79L194.62,70.51L203.08,65.35L211.54,81.98L220,59.87L228.46,99.22L236.92,-2.78L245.38,98.36L253.85,76.7L262.31,71.41L270.77,95.08L279.23,142.88L287.69,119.14L296.15,119.03L304.62,106.03L313.08,128.14L321.54,106.28L330,98.55L338.46,95.45L346.92,131.72L355.38,77.17L363.85,166.15L372.31,185.61L389.23,186L397.69,186L440,186" style="vector-effect: non-scaling-stroke; fill: none; stroke: rgb(0, 0, 0); stroke-opacity: 1; stroke-width: 0.25px; opacity: 1;"/></g><g class="points"/><g class="text"/></g><g class="trace scatter trace70e362" style="stroke-miterlimit: 2; opacity: 1;"><g class="fills"/><g class="errorbars"/><g class="lines"/><g class="points"><path class="point" transform="translate(245.38,186)" d="M4,0A4,4 0 1,1 0,-4A4,4 0 0,1 4,0ZM0,0.5L0.5,0L0,-0.5L-0.5,0Z" style="opacity: 1; stroke: rgb(0, 0, 0); stroke-opacity: 1; stroke-width: 1px; fill: none;"/><path class="point" transform="translate(253.85,165.17)" d="M4,0A4,4 0 1,1 0,-4A4,4 0 0,1 4,0ZM0,0.5L0.5,0L0,-0.5L-0.5,0Z" style="opacity: 1; stroke: rgb(0, 0, 0); stroke-opacity: 1; stroke-width: 1px; fill: none;"/><path class="point" transform="translate(262.31,10.42)" d="M4,0A4,4 0 1,1 0,-4A4,4 0 0,1 4,0ZM0,0.5L0.5,0L0,-0.5L-0.5,0Z" style="opacity: 1; stroke: rgb(0, 0, 0); stroke-opacity: 1; stroke-width: 1px; fill: none;"/><path class="point" transform="translate(270.77,10.42)" d="M4,0A4,4 0 1,1 0,-4A4,4 0 0,1 4,0ZM0,0.5L0.5,0L0,-0.5L-0.5,0Z" style="opacity: 1; stroke: rgb(0, 0, 0); stroke-opacity: 1; stroke-width: 1px; fill: none;"/></g><g class="text"/></g></g></g><g class="overplot"/><path class="xlines-above crisp" d="M0,0" style="fill: none;"/><path class="ylines-above crisp" d="M0,0" style="fill: none;"/><g class="overlines-above"/><g class="xaxislayer-above"/><g class="yaxislayer-above"><g class="ytick"><text text-anchor="end" x="79" y="4.199999999999999" transform="translate(0,286)" style="font-family: 'Open Sans', verdana, arial, sans-serif; font-size: 12px; fill: rgb(42, 63, 95); fill-opacity: 1; white-space: pre; opacity: 1;">0</text></g><g class="ytick"><text text-anchor="end" x="79" y="4.199999999999999" style="font-family: 'Open Sans', verdana, arial, sans-serif; font-size: 12px; fill: rgb(42, 63, 95); fill-opacity: 1; white-space: pre; opacity: 1;" transform="translate(0,248.8)">50</text></g><g class="ytick"><text text-anchor="end" x="79" y="4.199999999999999" style="font-family: 'Open Sans', verdana, arial, sans-serif; font-size: 12px; fill: rgb(42, 63, 95); fill-opacity: 1; white-space: pre; opacity: 1;" transform="translate(0,211.6)">100</text></g><g class="ytick"><text text-anchor="end" x="79" y="4.199999999999999" style="font-family: 'Open Sans', verdana, arial, sans-serif; font-size: 12px; fill: rgb(42, 63, 95); fill-opacity: 1; white-space: pre; opacity: 1;" transform="translate(0,174.4)">150</text></g><g class="ytick"><text text-anchor="end" x="79" y="4.199999999999999" style="font-family: 'Open Sans', verdana, arial, sans-serif; font-size: 12px; fill: rgb(42, 63, 95); fill-opacity: 1; white-space: pre; opacity: 1;" transform="translate(0,137.2)">200</text></g><g class="ytick"><text text-anchor="end" x="79" y="4.199999999999999" style="font-family: 'Open Sans', verdana, arial, sans-serif; font-size: 12px; fill: rgb(42, 63, 95); fill-opacity: 1; white-space: pre; opacity: 1;" transform="translate(0,100)">250</text></g></g><g class="overaxes-above"/></g><g class="subplot x2y2"><g class="layer-subplot"><g class="shapelayer"/><g class="imagelayer"/></g><g class="minor-gridlayer"><g class="x2"/><g class="y2"/></g><g class="gridlayer"><g class="x2"><path class="x2grid crisp" transform="translate(156.15,0)" d="M0,317.00000000000006v185.99999999999997" style="stroke: rgb(255, 255, 255); stroke-opacity: 1; stroke-width: 1px;"/><path class="x2grid crisp" transform="translate(240.77,0)" d="M0,317.00000000000006v185.99999999999997" style="stroke: rgb(255, 255, 255); stroke-opacity: 1; stroke-width: 1px;"/><path class="x2grid crisp" transform="translate(325.38,0)" d="M0,317.00000000000006v185.99999999999997" style="stroke: rgb(255, 255, 255); stroke-opacity: 1; stroke-width: 1px;"/><path class="x2grid crisp" transform="translate(410,0)" d="M0,317.00000000000006v185.99999999999997" style="stroke: rgb(255, 255, 255); stroke-opacity: 1; stroke-width: 1px;"/><path class="x2grid crisp" transform="translate(494.62,0)" d="M0,317.00000000000006v185.99999999999997" style="stroke: rgb(255, 255, 255); stroke-opacity: 1; stroke-width: 1px;"/></g><g class="y2"><path class="y2grid crisp" transform="translate(0,472.00000000000006)" d="M80,0h440" style="stroke: rgb(255, 255, 255); stroke-opacity: 1; stroke-width: 1px;"/><path class="y2grid crisp" transform="translate(0,410.00000000000006)" d="M80,0h440" style="stroke: rgb(255, 255, 255); stroke-opacity: 1; stroke-width: 1px;"/><path class="y2grid crisp" transform="translate(0,348.00000000000006)" d="M80,0h440" style="stroke: rgb(255, 255, 255); stroke-opacity: 1; stroke-width: 1px;"/></g></g><g class="zerolinelayer"/><path class="xlines-below"/><path class="ylines-below"/><g class="overlines-below"/><g class="xaxislayer-below"/><g class="yaxislayer-below"/><g class="overaxes-below"/><g class="plot" transform="translate(80,317.00000000000006)" clip-path="url(#clip814bb1x2y2plot)"><g class="scatterlayer mlayer"><g class="trace scatter trace45e2c3" style="stroke-miterlimit: 2;"><g class="fills"><g><path class="js-fill" d="M0,149.59L8.46,153L16.92,139.35L25.38,133.59L33.85,126.5L42.31,115.82L50.77,112.22L59.23,101.14L67.69,87.85L76.15,85.72L84.62,73.08L93.08,67.94L101.54,74.71L110,78.13L118.46,82.62L126.92,77.47L135.38,82.42L143.85,87.48L152.31,82.16L160.77,84.05L169.23,82.55L186.15,88.32L194.62,94.39L203.08,92.81L211.54,92.16L220,94.51L228.46,92.1L236.92,96.9L245.38,93.07L253.85,95.13L262.31,94L270.77,97.66L279.23,96.94L287.69,94.58L296.15,97.13L304.62,95.35L313.08,99.11L321.54,97.13L330,93.42L338.46,94.81L346.92,92.77L355.38,90.9L363.85,94.42L372.31,98.37L380.77,104.65L389.23,112.3L397.69,124.05L406.15,133.84L414.62,134.8L423.08,140.67L431.54,148.02L440,151.34L440,153.84L431.54,153.85L423.08,157.71L414.62,141.82L406.15,147.91L397.69,134.42L389.23,121.86L380.77,113.05L372.31,109.62L363.85,97.59L355.38,100.61L330,103.26L321.54,105.8L313.08,112.79L304.62,105.4L296.15,103.34L287.69,99.02L279.23,102.55L270.77,105.11L262.31,108.78L253.85,103.27L245.38,101.12L236.92,106.2L228.46,97.52L220,99.87L211.54,98.62L203.08,104.4L194.62,99.61L186.15,95.66L177.69,94.9L169.23,94.03L160.77,91.67L152.31,90.17L143.85,93.02L135.38,94.24L126.92,93.85L118.46,94.33L110,88.98L101.54,91.85L93.08,83.37L84.62,87.87L76.15,105.71L67.69,112.96L59.23,115.83L50.77,125.89L42.31,133.83L33.85,141.36L16.92,154.07L8.46,168.24L0,168.28Z" style="fill: rgb(145, 191, 219); fill-opacity: 1; stroke-width: 0;"/></g></g><g class="errorbars"/><g class="lines"><path class="js-line" d="M0,168.28L8.46,168.24L16.92,154.07L33.85,141.36L42.31,133.83L50.77,125.89L59.23,115.83L67.69,112.96L76.15,105.71L84.62,87.87L93.08,83.37L101.54,91.85L110,88.98L118.46,94.33L126.92,93.85L135.38,94.24L143.85,93.02L152.31,90.17L160.77,91.67L169.23,94.03L177.69,94.9L186.15,95.66L194.62,99.61L203.08,104.4L211.54,98.62L220,99.87L228.46,97.52L236.92,106.2L245.38,101.12L253.85,103.27L262.31,108.78L270.77,105.11L279.23,102.55L287.69,99.02L296.15,103.34L304.62,105.4L313.08,112.79L321.54,105.8L330,103.26L355.38,100.61L363.85,97.59L372.31,109.62L380.77,113.05L389.23,121.86L397.69,134.42L406.15,147.91L414.62,141.82L423.08,157.71L431.54,153.85L440,153.84" style="vector-effect: non-scaling-stroke; fill: none; stroke: rgb(0, 0, 0); stroke-opacity: 1; stroke-width: 0.25px; opacity: 1;"/></g><g class="points"/><g class="text"/></g><g class="trace scatter tracee40307" style="stroke-miterlimit: 2;"><g class="fills"><g><path class="js-fill" d="M0,139.25L8.46,141.95L16.92,132.84L25.38,131.01L33.85,120.54L42.31,109.74L50.77,102.14L59.23,90.32L67.69,80.04L76.15,74.92L84.62,64.69L93.08,58.47L101.54,62.7L110,70.68L118.46,63.25L135.38,70.59L143.85,78.86L152.31,73.51L160.77,76.07L169.23,77.57L177.69,80.33L186.15,83.11L194.62,84.34L203.08,88.66L211.54,89L220,90.49L228.46,90.14L236.92,93.71L245.38,90.55L253.85,90.94L262.31,88.76L270.77,91.52L279.23,89.35L287.69,92.43L296.15,93.67L304.62,91.84L313.08,92.14L330,87.26L338.46,85.72L355.38,85.31L363.85,91.9L372.31,92.75L380.77,99.97L389.23,106.14L397.69,113.8L406.15,124.53L414.62,127.69L423.08,131.65L431.54,139.53L440,137.57L440,151.34L431.54,148.02L423.08,140.67L414.62,134.8L406.15,133.84L397.69,124.05L389.23,112.3L380.77,104.65L372.31,98.37L363.85,94.42L355.38,90.9L346.92,92.77L338.46,94.81L330,93.42L321.54,97.13L313.08,99.11L304.62,95.35L296.15,97.13L287.69,94.58L279.23,96.94L270.77,97.66L262.31,94L253.85,95.13L245.38,93.07L236.92,96.9L228.46,92.1L220,94.51L211.54,92.16L203.08,92.81L194.62,94.39L186.15,88.32L169.23,82.55L160.77,84.05L152.31,82.16L143.85,87.48L135.38,82.42L126.92,77.47L118.46,82.62L110,78.13L101.54,74.71L93.08,67.94L84.62,73.08L76.15,85.72L67.69,87.85L59.23,101.14L50.77,112.22L42.31,115.82L33.85,126.5L25.38,133.59L16.92,139.35L8.46,153L0,149.59Z" style="fill: rgb(255, 255, 191); fill-opacity: 1; stroke-width: 0;"/></g></g><g class="errorbars"/><g class="lines"><path class="js-line" d="M0,149.59L8.46,153L16.92,139.35L25.38,133.59L33.85,126.5L42.31,115.82L50.77,112.22L59.23,101.14L67.69,87.85L76.15,85.72L84.62,73.08L93.08,67.94L101.54,74.71L110,78.13L118.46,82.62L126.92,77.47L135.38,82.42L143.85,87.48L152.31,82.16L160.77,84.05L169.23,82.55L186.15,88.32L194.62,94.39L203.08,92.81L211.54,92.16L220,94.51L228.46,92.1L236.92,96.9L245.38,93.07L253.85,95.13L262.31,94L270.77,97.66L279.23,96.94L287.69,94.58L296.15,97.13L304.62,95.35L313.08,99.11L321.54,97.13L330,93.42L338.46,94.81L346.92,92.77L355.38,90.9L363.85,94.42L372.31,98.37L380.77,104.65L389.23,112.3L397.69,124.05L406.15,133.84L414.62,134.8L423.08,140.67L431.54,148.02L440,151.34" style="vector-effect: non-scaling-stroke; fill: none; stroke: rgb(0, 0, 0); stroke-opacity: 1; stroke-width: 0.5px; opacity: 1;"/></g><g class="points"/><g class="text"/></g><g class="trace scatter tracea650cc" style="stroke-miterlimit: 2;"><g class="fills"><g><path class="js-fill" d="M0,133.02L8.46,131.41L16.92,128.8L25.38,123.11L33.85,114.79L42.31,101.95L50.77,92.2L59.23,82.71L67.69,69.1L76.15,64.09L84.62,60.12L93.08,51.25L101.54,52.89L110,57.82L118.46,53.23L126.92,59.83L135.38,54.18L143.85,70.8L152.31,66.54L160.77,63.87L169.23,71.88L177.69,72.9L186.15,76.41L194.62,75.18L203.08,82.52L211.54,85.6L220,84.23L228.46,86.24L236.92,84.66L245.38,84.71L253.85,87.63L262.31,83.15L270.77,87.59L279.23,85.43L287.69,89.53L296.15,84.33L304.62,85.02L313.08,85.69L321.54,81.74L330,75.97L338.46,81.3L346.92,78.68L355.38,83.82L363.85,89.54L372.31,89.55L380.77,97.7L389.23,102.28L397.69,108.11L406.15,118.79L414.62,119.84L423.08,125.75L431.54,130.33L440,124.66L440,137.57L431.54,139.53L423.08,131.65L414.62,127.69L406.15,124.53L397.69,113.8L389.23,106.14L380.77,99.97L372.31,92.75L363.85,91.9L355.38,85.31L338.46,85.72L330,87.26L313.08,92.14L304.62,91.84L296.15,93.67L287.69,92.43L279.23,89.35L270.77,91.52L262.31,88.76L253.85,90.94L245.38,90.55L236.92,93.71L228.46,90.14L220,90.49L211.54,89L203.08,88.66L194.62,84.34L186.15,83.11L177.69,80.33L169.23,77.57L160.77,76.07L152.31,73.51L143.85,78.86L135.38,70.59L118.46,63.25L110,70.68L101.54,62.7L93.08,58.47L84.62,64.69L76.15,74.92L67.69,80.04L59.23,90.32L50.77,102.14L42.31,109.74L33.85,120.54L25.38,131.01L16.92,132.84L8.46,141.95L0,139.25Z" style="fill: rgb(255, 255, 191); fill-opacity: 1; stroke-width: 0;"/></g></g><g class="errorbars"/><g class="lines"><path class="js-line" d="M0,139.25L8.46,141.95L16.92,132.84L25.38,131.01L33.85,120.54L42.31,109.74L50.77,102.14L59.23,90.32L67.69,80.04L76.15,74.92L84.62,64.69L93.08,58.47L101.54,62.7L110,70.68L118.46,63.25L135.38,70.59L143.85,78.86L152.31,73.51L160.77,76.07L169.23,77.57L177.69,80.33L186.15,83.11L194.62,84.34L203.08,88.66L211.54,89L220,90.49L228.46,90.14L236.92,93.71L245.38,90.55L253.85,90.94L262.31,88.76L270.77,91.52L279.23,89.35L287.69,92.43L296.15,93.67L304.62,91.84L313.08,92.14L330,87.26L338.46,85.72L355.38,85.31L363.85,91.9L372.31,92.75L380.77,99.97L389.23,106.14L397.69,113.8L406.15,124.53L414.62,127.69L423.08,131.65L431.54,139.53L440,137.57" style="vector-effect: non-scaling-stroke; fill: none; stroke: rgb(0, 0, 0); stroke-opacity: 1; stroke-width: 1px; opacity: 1;"/></g><g class="points"/><g class="text"/></g><g class="trace scatter traced944a0" style="stroke-miterlimit: 2;"><g class="fills"><g><path class="js-fill" d="M0,108.31L8.46,122.67L16.92,117.37L25.38,107.7L33.85,104.85L50.77,67.64L59.23,65.53L67.69,56.44L76.15,52.31L84.62,51.17L93.08,47.77L110,36.11L118.46,44.25L126.92,35L135.38,21.86L143.85,47.78L152.31,46.06L160.77,40.6L169.23,63.97L177.69,59.56L186.15,63.87L194.62,57.22L203.08,71.53L211.54,81.75L220,70.88L228.46,81.78L236.92,71.79L245.38,74.56L253.85,82.7L262.31,69.5L270.77,75.58L279.23,72.21L287.69,85.39L296.15,73.85L304.62,73.31L313.08,70.65L321.54,76.15L330,66.49L338.46,65.13L346.92,65.42L355.38,77.92L363.85,84.72L372.31,84.4L380.77,90.36L389.23,97.54L397.69,97.94L406.15,105.13L423.08,116.87L431.54,123.8L440,120.5L440,124.66L431.54,130.33L423.08,125.75L414.62,119.84L406.15,118.79L397.69,108.11L389.23,102.28L380.77,97.7L372.31,89.55L363.85,89.54L355.38,83.82L346.92,78.68L338.46,81.3L330,75.97L321.54,81.74L313.08,85.69L304.62,85.02L296.15,84.33L287.69,89.53L279.23,85.43L270.77,87.59L262.31,83.15L253.85,87.63L245.38,84.71L236.92,84.66L228.46,86.24L220,84.23L211.54,85.6L203.08,82.52L194.62,75.18L186.15,76.41L177.69,72.9L169.23,71.88L160.77,63.87L152.31,66.54L143.85,70.8L135.38,54.18L126.92,59.83L118.46,53.23L110,57.82L101.54,52.89L93.08,51.25L84.62,60.12L76.15,64.09L67.69,69.1L59.23,82.71L50.77,92.2L42.31,101.95L33.85,114.79L25.38,123.11L16.92,128.8L8.46,131.41L0,133.02Z" style="fill: rgb(252, 141, 89); fill-opacity: 1; stroke-width: 0;"/></g></g><g class="errorbars"/><g class="lines"><path class="js-line" d="M0,133.02L8.46,131.41L16.92,128.8L25.38,123.11L33.85,114.79L42.31,101.95L50.77,92.2L59.23,82.71L67.69,69.1L76.15,64.09L84.62,60.12L93.08,51.25L101.54,52.89L110,57.82L118.46,53.23L126.92,59.83L135.38,54.18L143.85,70.8L152.31,66.54L160.77,63.87L169.23,71.88L177.69,72.9L186.15,76.41L194.62,75.18L203.08,82.52L211.54,85.6L220,84.23L228.46,86.24L236.92,84.66L245.38,84.71L253.85,87.63L262.31,83.15L270.77,87.59L279.23,85.43L287.69,89.53L296.15,84.33L304.62,85.02L313.08,85.69L321.54,81.74L330,75.97L338.46,81.3L346.92,78.68L355.38,83.82L363.85,89.54L372.31,89.55L380.77,97.7L389.23,102.28L397.69,108.11L406.15,118.79L414.62,119.84L423.08,125.75L431.54,130.33L440,124.66" style="vector-effect: non-scaling-stroke; fill: none; stroke: rgb(0, 0, 0); stroke-opacity: 1; stroke-width: 0.5px; opacity: 1;"/></g><g class="points"/><g class="text"/></g><g class="trace scatter trace5ad6e6" style="stroke-miterlimit: 2;"><g class="fills"/><g class="errorbars"/><g class="lines"><path class="js-line" d="M0,108.31L8.46,122.67L16.92,117.37L25.38,107.7L33.85,104.85L50.77,67.64L59.23,65.53L67.69,56.44L76.15,52.31L84.62,51.17L93.08,47.77L110,36.11L118.46,44.25L126.92,35L135.38,21.86L143.85,47.78L152.31,46.06L160.77,40.6L169.23,63.97L177.69,59.56L186.15,63.87L194.62,57.22L203.08,71.53L211.54,81.75L220,70.88L228.46,81.78L236.92,71.79L245.38,74.56L253.85,82.7L262.31,69.5L270.77,75.58L279.23,72.21L287.69,85.39L296.15,73.85L304.62,73.31L313.08,70.65L321.54,76.15L330,66.49L338.46,65.13L346.92,65.42L355.38,77.92L363.85,84.72L372.31,84.4L380.77,90.36L389.23,97.54L397.69,97.94L406.15,105.13L423.08,116.87L431.54,123.8L440,120.5" style="vector-effect: non-scaling-stroke; fill: none; stroke: rgb(0, 0, 0); stroke-opacity: 1; stroke-width: 0.25px; opacity: 1;"/></g><g class="points"/><g class="text"/></g><g class="trace scatter trace9d1291" style="stroke-miterlimit: 2; opacity: 1;"><g class="fills"/><g class="errorbars"/><g class="lines"/><g class="points"><path class="point" transform="translate(245.38,74.4)" d="M4,0A4,4 0 1,1 0,-4A4,4 0 0,1 4,0ZM0,0.5L0.5,0L0,-0.5L-0.5,0Z" style="opacity: 1; stroke: rgb(0, 0, 0); stroke-opacity: 1; stroke-width: 1px; fill: none;"/><path class="point" transform="translate(253.85,74.4)" d="M4,0A4,4 0 1,1 0,-4A4,4 0 0,1 4,0ZM0,0.5L0.5,0L0,-0.5L-0.5,0Z" style="opacity: 1; stroke: rgb(0, 0, 0); stroke-opacity: 1; stroke-width: 1px; fill: none;"/><path class="point" transform="translate(262.31,86.8)" d="M4,0A4,4 0 1,1 0,-4A4,4 0 0,1 4,0ZM0,0.5L0.5,0L0,-0.5L-0.5,0Z" style="opacity: 1; stroke: rgb(0, 0, 0); stroke-opacity: 1; stroke-width: 1px; fill: none;"/><path class="point" transform="translate(270.77,86.8)" d="M4,0A4,4 0 1,1 0,-4A4,4 0 0,1 4,0ZM0,0.5L0.5,0L0,-0.5L-0.5,0Z" style="opacity: 1; stroke: rgb(0, 0, 0); stroke-opacity: 1; stroke-width: 1px; fill: none;"/></g><g class="text"/></g></g></g><g class="overplot"/><path class="xlines-above crisp" d="M0,0" style="fill: none;"/><path class="ylines-above crisp" d="M0,0" style="fill: none;"/><g class="overlines-above"/><g class="xaxislayer-above"/><g class="yaxislayer-above"><g class="y2tick"><text text-anchor="end" x="79" y="4.199999999999999" transform="translate(0,472.00000000000006)" style="font-family: 'Open Sans', verdana, arial, sans-serif; font-size: 12px; fill: rgb(42, 63, 95); fill-opacity: 1; white-space: pre; opacity: 1;">20</text></g><g class="y2tick"><text text-anchor="end" x="79" y="4.199999999999999" style="font-family: 'Open Sans', verdana, arial, sans-serif; font-size: 12px; fill: rgb(42, 63, 95); fill-opacity: 1; white-space: pre; opacity: 1;" transform="translate(0,410.00000000000006)">30</text></g><g class="y2tick"><text text-anchor="end" x="79" y="4.199999999999999" style="font-family: 'Open Sans', verdana, arial, sans-serif; font-size: 12px; fill: rgb(42, 63, 95); fill-opacity: 1; white-space: pre; opacity: 1;" transform="translate(0,348.00000000000006)">40</text></g></g><g class="overaxes-above"/></g><g class="subplot x3y3"><g class="layer-subplot"><g class="shapelayer"/><g class="imagelayer"/></g><g class="minor-gridlayer"><g class="x3"/><g class="y3"/></g><g class="gridlayer"><g class="x3"><path class="x3grid crisp" transform="translate(156.15,0)" d="M0,534v186" style="stroke: rgb(255, 255, 255); stroke-opacity: 1; stroke-width: 1px;"/><path class="x3grid crisp" transform="translate(240.77,0)" d="M0,534v186" style="stroke: rgb(255, 255, 255); stroke-opacity: 1; stroke-width: 1px;"/><path class="x3grid crisp" transform="translate(325.38,0)" d="M0,534v186" style="stroke: rgb(255, 255, 255); stroke-opacity: 1; stroke-width: 1px;"/><path class="x3grid crisp" transform="translate(410,0)" d="M0,534v186" style="stroke: rgb(255, 255, 255); stroke-opacity: 1; stroke-width: 1px;"/><path class="x3grid crisp" transform="translate(494.62,0)" d="M0,534v186" style="stroke: rgb(255, 255, 255); stroke-opacity: 1; stroke-width: 1px;"/></g><g class="y3"><path class="y3grid crisp" transform="translate(0,682.8)" d="M80,0h440" style="stroke: rgb(255, 255, 255); stroke-opacity: 1; stroke-width: 1px;"/><path class="y3grid crisp" transform="translate(0,645.6)" d="M80,0h440" style="stroke: rgb(255, 255, 255); stroke-opacity: 1; stroke-width: 1px;"/><path class="y3grid crisp" transform="translate(0,608.4)" d="M80,0h440" style="stroke: rgb(255, 255, 255); stroke-opacity: 1; stroke-width: 1px;"/><path class="y3grid crisp" transform="translate(0,571.2)" d="M80,0h440" style="stroke: rgb(255, 255, 255); stroke-opacity: 1; stroke-width: 1px;"/></g></g><g class="zerolinelayer"/><path class="xlines-below"/><path class="ylines-below"/><g class="overlines-below"/><g class="xaxislayer-below"/><g class="yaxislayer-below"/><g class="overaxes-below"/><g class="plot" transform="translate(80,534)" clip-path="url(#clip814bb1x3y3plot)"><g class="scatterlayer mlayer"><g class="trace scatter trace66d1f7" style="stroke-miterlimit: 2;"><g class="fills"><g><path class="js-fill" d="M0,123.76L8.46,129.54L16.92,123.93L25.38,120.54L33.85,118.99L42.31,106.95L50.77,101.27L59.23,95.89L67.69,80.11L76.15,75.88L84.62,69.66L93.08,62.13L101.54,61.09L118.46,57.22L126.92,50.94L135.38,52.73L143.85,51.55L152.31,45.18L160.77,41.96L169.23,38.11L177.69,38.37L186.15,36.39L194.62,36.27L203.08,35.55L211.54,36.52L220,35.45L228.46,36.46L253.85,37.89L262.31,37.23L279.23,38.78L287.69,38.18L296.15,38.31L304.62,39.37L313.08,41.5L321.54,40.49L330,42.47L338.46,45.85L355.38,51.01L363.85,61.64L372.31,67.19L380.77,77.61L389.23,86.13L397.69,97.69L414.62,108.08L423.08,117.66L431.54,120.59L440,135.7L440,139.9L431.54,132.15L423.08,132.17L414.62,124.34L406.15,115.29L397.69,109.09L389.23,97.26L380.77,94.56L372.31,71.14L363.85,69.1L355.38,56.05L346.92,53.87L338.46,49.24L330,46.6L321.54,43.77L313.08,48.04L304.62,42.55L296.15,40L287.69,40.59L279.23,40.15L270.77,42.28L262.31,42.06L253.85,41.46L236.92,39.8L228.46,38.04L220,39.32L211.54,38L203.08,39.84L194.62,40.89L186.15,37.41L177.69,45.28L169.23,42.39L160.77,47.48L152.31,53.53L143.85,57.5L135.38,59.23L126.92,63.91L110,66.98L101.54,68.73L93.08,71.77L84.62,82.05L76.15,89.16L67.69,86.14L50.77,129.35L42.31,133.77L33.85,139.32L25.38,139.32L16.92,135.74L8.46,139.74L0,126.01Z" style="fill: rgb(90, 180, 172); fill-opacity: 1; stroke-width: 0;"/></g></g><g class="errorbars"/><g class="lines"><path class="js-line" d="M0,126.01L8.46,139.74L16.92,135.74L25.38,139.32L33.85,139.32L42.31,133.77L50.77,129.35L67.69,86.14L76.15,89.16L84.62,82.05L93.08,71.77L101.54,68.73L110,66.98L126.92,63.91L135.38,59.23L143.85,57.5L152.31,53.53L160.77,47.48L169.23,42.39L177.69,45.28L186.15,37.41L194.62,40.89L203.08,39.84L211.54,38L220,39.32L228.46,38.04L236.92,39.8L253.85,41.46L262.31,42.06L270.77,42.28L279.23,40.15L287.69,40.59L296.15,40L304.62,42.55L313.08,48.04L321.54,43.77L330,46.6L338.46,49.24L346.92,53.87L355.38,56.05L363.85,69.1L372.31,71.14L380.77,94.56L389.23,97.26L397.69,109.09L406.15,115.29L414.62,124.34L423.08,132.17L431.54,132.15L440,139.9" style="vector-effect: non-scaling-stroke; fill: none; stroke: rgb(0, 0, 0); stroke-opacity: 1; stroke-width: 0.25px; opacity: 1;"/></g><g class="points"/><g class="text"/></g><g class="trace scatter trace3a1e5d" style="stroke-miterlimit: 2;"><g class="fills"><g><path class="js-fill" d="M0,119L8.46,123.12L16.92,116.08L25.38,113.12L33.85,111.91L42.31,96.95L50.77,92.51L59.23,84.93L67.69,75.46L76.15,72.22L84.62,62.67L93.08,54.96L101.54,52.13L118.46,53.2L126.92,47.21L135.38,48.43L143.85,48.08L152.31,41.35L160.77,38.38L194.62,34.25L203.08,34.39L211.54,35.38L220,34.02L228.46,33.52L236.92,35.53L253.85,36.89L262.31,34.51L279.23,35.78L287.69,36.57L304.62,38.65L313.08,38.37L321.54,37.89L330,39.24L346.92,43.55L355.38,49.45L363.85,56.7L372.31,59.27L380.77,70.74L389.23,79.42L397.69,88.46L406.15,96.24L414.62,103.62L423.08,108.25L431.54,115.51L440,125.85L440,135.7L431.54,120.59L423.08,117.66L414.62,108.08L397.69,97.69L389.23,86.13L380.77,77.61L372.31,67.19L363.85,61.64L355.38,51.01L338.46,45.85L330,42.47L321.54,40.49L313.08,41.5L304.62,39.37L296.15,38.31L287.69,38.18L279.23,38.78L262.31,37.23L253.85,37.89L228.46,36.46L220,35.45L211.54,36.52L203.08,35.55L194.62,36.27L186.15,36.39L177.69,38.37L169.23,38.11L160.77,41.96L152.31,45.18L143.85,51.55L135.38,52.73L126.92,50.94L118.46,57.22L101.54,61.09L93.08,62.13L84.62,69.66L76.15,75.88L67.69,80.11L59.23,95.89L50.77,101.27L42.31,106.95L33.85,118.99L25.38,120.54L16.92,123.93L8.46,129.54L0,123.76Z" style="fill: rgb(245, 245, 245); fill-opacity: 1; stroke-width: 0;"/></g></g><g class="errorbars"/><g class="lines"><path class="js-line" d="M0,123.76L8.46,129.54L16.92,123.93L25.38,120.54L33.85,118.99L42.31,106.95L50.77,101.27L59.23,95.89L67.69,80.11L76.15,75.88L84.62,69.66L93.08,62.13L101.54,61.09L118.46,57.22L126.92,50.94L135.38,52.73L143.85,51.55L152.31,45.18L160.77,41.96L169.23,38.11L177.69,38.37L186.15,36.39L194.62,36.27L203.08,35.55L211.54,36.52L220,35.45L228.46,36.46L253.85,37.89L262.31,37.23L279.23,38.78L287.69,38.18L296.15,38.31L304.62,39.37L313.08,41.5L321.54,40.49L330,42.47L338.46,45.85L355.38,51.01L363.85,61.64L372.31,67.19L380.77,77.61L389.23,86.13L397.69,97.69L414.62,108.08L423.08,117.66L431.54,120.59L440,135.7" style="vector-effect: non-scaling-stroke; fill: none; stroke: rgb(0, 0, 0); stroke-opacity: 1; stroke-width: 0.5px; opacity: 1;"/></g><g class="points"/><g class="text"/></g><g class="trace scatter trace066e20" style="stroke-miterlimit: 2;"><g class="fills"><g><path class="js-fill" d="M0,111.74L8.46,114.36L16.92,111.89L25.38,107.77L33.85,99.78L42.31,88.93L50.77,81.78L59.23,73.14L67.69,65.96L76.15,63.49L84.62,57.02L101.54,47.67L110,48.84L126.92,41.83L135.38,43.39L143.85,41.68L152.31,38.77L160.77,35.74L169.23,34.02L177.69,32.94L186.15,33.19L194.62,31.55L203.08,32.03L211.54,33.43L220,32.3L236.92,33.02L245.38,34.54L253.85,33.77L262.31,32.17L270.77,33.88L279.23,33.19L296.15,36.54L304.62,37.22L321.54,36.17L330,35.37L338.46,38.16L346.92,39.02L355.38,46.68L363.85,53.29L372.31,54.12L380.77,65.84L397.69,84.5L406.15,91.24L414.62,93.61L423.08,97.44L431.54,108.68L440,121.22L440,125.85L431.54,115.51L423.08,108.25L414.62,103.62L406.15,96.24L397.69,88.46L389.23,79.42L380.77,70.74L372.31,59.27L363.85,56.7L355.38,49.45L346.92,43.55L330,39.24L321.54,37.89L313.08,38.37L304.62,38.65L287.69,36.57L279.23,35.78L262.31,34.51L253.85,36.89L236.92,35.53L228.46,33.52L220,34.02L211.54,35.38L203.08,34.39L194.62,34.25L160.77,38.38L152.31,41.35L143.85,48.08L135.38,48.43L126.92,47.21L118.46,53.2L101.54,52.13L93.08,54.96L84.62,62.67L76.15,72.22L67.69,75.46L59.23,84.93L50.77,92.51L42.31,96.95L33.85,111.91L25.38,113.12L16.92,116.08L8.46,123.12L0,119Z" style="fill: rgb(245, 245, 245); fill-opacity: 1; stroke-width: 0;"/></g></g><g class="errorbars"/><g class="lines"><path class="js-line" d="M0,119L8.46,123.12L16.92,116.08L25.38,113.12L33.85,111.91L42.31,96.95L50.77,92.51L59.23,84.93L67.69,75.46L76.15,72.22L84.62,62.67L93.08,54.96L101.54,52.13L118.46,53.2L126.92,47.21L135.38,48.43L143.85,48.08L152.31,41.35L160.77,38.38L194.62,34.25L203.08,34.39L211.54,35.38L220,34.02L228.46,33.52L236.92,35.53L253.85,36.89L262.31,34.51L279.23,35.78L287.69,36.57L304.62,38.65L313.08,38.37L321.54,37.89L330,39.24L346.92,43.55L355.38,49.45L363.85,56.7L372.31,59.27L380.77,70.74L389.23,79.42L397.69,88.46L406.15,96.24L414.62,103.62L423.08,108.25L431.54,115.51L440,125.85" style="vector-effect: non-scaling-stroke; fill: none; stroke: rgb(0, 0, 0); stroke-opacity: 1; stroke-width: 1px; opacity: 1;"/></g><g class="points"/><g class="text"/></g><g class="trace scatter trace0a3ca2" style="stroke-miterlimit: 2;"><g class="fills"><g><path class="js-fill" d="M0,101.86L8.46,102.62L16.92,98.51L42.31,78.26L50.77,55L59.23,63.1L67.69,53.68L76.15,49.37L84.62,46.49L93.08,42.05L101.54,39.32L110,34.72L118.46,36.77L126.92,29.68L135.38,30.79L143.85,28.43L152.31,33.1L160.77,29.66L169.23,29.78L177.69,29.99L186.15,28.66L194.62,24.85L203.08,28.05L211.54,30.84L220,28.48L228.46,29.54L236.92,27.35L245.38,32.25L253.85,31.35L262.31,30.89L270.77,31.31L279.23,27.68L287.69,33.9L296.15,34.21L304.62,35.72L313.08,30.69L321.54,32.04L330,25.24L338.46,30.6L346.92,31.97L355.38,40.52L363.85,46.2L372.31,49.68L397.69,72.83L406.15,76.22L414.62,76.55L423.08,88.19L431.54,96.2L440,99.67L440,121.22L431.54,108.68L423.08,97.44L414.62,93.61L406.15,91.24L397.69,84.5L380.77,65.84L372.31,54.12L363.85,53.29L355.38,46.68L346.92,39.02L338.46,38.16L330,35.37L321.54,36.17L304.62,37.22L296.15,36.54L279.23,33.19L270.77,33.88L262.31,32.17L253.85,33.77L245.38,34.54L236.92,33.02L220,32.3L211.54,33.43L203.08,32.03L194.62,31.55L186.15,33.19L177.69,32.94L169.23,34.02L160.77,35.74L152.31,38.77L143.85,41.68L135.38,43.39L126.92,41.83L110,48.84L101.54,47.67L84.62,57.02L76.15,63.49L67.69,65.96L59.23,73.14L50.77,81.78L42.31,88.93L33.85,99.78L25.38,107.77L16.92,111.89L8.46,114.36L0,111.74Z" style="fill: rgb(216, 179, 101); fill-opacity: 1; stroke-width: 0;"/></g></g><g class="errorbars"/><g class="lines"><path class="js-line" d="M0,111.74L8.46,114.36L16.92,111.89L25.38,107.77L33.85,99.78L42.31,88.93L50.77,81.78L59.23,73.14L67.69,65.96L76.15,63.49L84.62,57.02L101.54,47.67L110,48.84L126.92,41.83L135.38,43.39L143.85,41.68L152.31,38.77L160.77,35.74L169.23,34.02L177.69,32.94L186.15,33.19L194.62,31.55L203.08,32.03L211.54,33.43L220,32.3L236.92,33.02L245.38,34.54L253.85,33.77L262.31,32.17L270.77,33.88L279.23,33.19L296.15,36.54L304.62,37.22L321.54,36.17L330,35.37L338.46,38.16L346.92,39.02L355.38,46.68L363.85,53.29L372.31,54.12L380.77,65.84L397.69,84.5L406.15,91.24L414.62,93.61L423.08,97.44L431.54,108.68L440,121.22" style="vector-effect: non-scaling-stroke; fill: none; stroke: rgb(0, 0, 0); stroke-opacity: 1; stroke-width: 0.5px; opacity: 1;"/></g><g class="points"/><g class="text"/></g><g class="trace scatter trace81bd96" style="stroke-miterlimit: 2;"><g class="fills"/><g class="errorbars"/><g class="lines"><path class="js-line" d="M0,101.86L8.46,102.62L16.92,98.51L42.31,78.26L50.77,55L59.23,63.1L67.69,53.68L76.15,49.37L84.62,46.49L93.08,42.05L101.54,39.32L110,34.72L118.46,36.77L126.92,29.68L135.38,30.79L143.85,28.43L152.31,33.1L160.77,29.66L169.23,29.78L177.69,29.99L186.15,28.66L194.62,24.85L203.08,28.05L211.54,30.84L220,28.48L228.46,29.54L236.92,27.35L245.38,32.25L253.85,31.35L262.31,30.89L270.77,31.31L279.23,27.68L287.69,33.9L296.15,34.21L304.62,35.72L313.08,30.69L321.54,32.04L330,25.24L338.46,30.6L346.92,31.97L355.38,40.52L363.85,46.2L372.31,49.68L397.69,72.83L406.15,76.22L414.62,76.55L423.08,88.19L431.54,96.2L440,99.67" style="vector-effect: non-scaling-stroke; fill: none; stroke: rgb(0, 0, 0); stroke-opacity: 1; stroke-width: 0.25px; opacity: 1;"/></g><g class="points"/><g class="text"/></g><g class="trace scatter trace0cfb8d" style="stroke-miterlimit: 2; opacity: 1;"><g class="fills"/><g class="errorbars"/><g class="lines"/><g class="points"><path class="point" transform="translate(245.38,22.32)" d="M4,0A4,4 0 1,1 0,-4A4,4 0 0,1 4,0ZM0,0.5L0.5,0L0,-0.5L-0.5,0Z" style="opacity: 1; stroke: rgb(0, 0, 0); stroke-opacity: 1; stroke-width: 1px; fill: none;"/><path class="point" transform="translate(253.85,14.88)" d="M4,0A4,4 0 1,1 0,-4A4,4 0 0,1 4,0ZM0,0.5L0.5,0L0,-0.5L-0.5,0Z" style="opacity: 1; stroke: rgb(0, 0, 0); stroke-opacity: 1; stroke-width: 1px; fill: none;"/><path class="point" transform="translate(262.31,29.76)" d="M4,0A4,4 0 1,1 0,-4A4,4 0 0,1 4,0ZM0,0.5L0.5,0L0,-0.5L-0.5,0Z" style="opacity: 1; stroke: rgb(0, 0, 0); stroke-opacity: 1; stroke-width: 1px; fill: none;"/><path class="point" transform="translate(270.77,29.76)" d="M4,0A4,4 0 1,1 0,-4A4,4 0 0,1 4,0ZM0,0.5L0.5,0L0,-0.5L-0.5,0Z" style="opacity: 1; stroke: rgb(0, 0, 0); stroke-opacity: 1; stroke-width: 1px; fill: none;"/></g><g class="text"/></g></g></g><g class="overplot"/><path class="xlines-above crisp" d="M0,0" style="fill: none;"/><path class="ylines-above crisp" d="M0,0" style="fill: none;"/><g class="overlines-above"/><g class="xaxislayer-above"><g class="x3tick"><text text-anchor="middle" x="0" y="733" transform="translate(156.15,0)" style="font-family: 'Open Sans', verdana, arial, sans-serif; font-size: 12px; fill: rgb(42, 63, 95); fill-opacity: 1; white-space: pre; opacity: 1;">10</text></g><g class="x3tick"><text text-anchor="middle" x="0" y="733" style="font-family: 'Open Sans', verdana, arial, sans-serif; font-size: 12px; fill: rgb(42, 63, 95); fill-opacity: 1; white-space: pre; opacity: 1;" transform="translate(240.77,0)">20</text></g><g class="x3tick"><text text-anchor="middle" x="0" y="733" style="font-family: 'Open Sans', verdana, arial, sans-serif; font-size: 12px; fill: rgb(42, 63, 95); fill-opacity: 1; white-space: pre; opacity: 1;" transform="translate(325.38,0)">30</text></g><g class="x3tick"><text text-anchor="middle" x="0" y="733" style="font-family: 'Open Sans', verdana, arial, sans-serif; font-size: 12px; fill: rgb(42, 63, 95); fill-opacity: 1; white-space: pre; opacity: 1;" transform="translate(410,0)">40</text></g><g class="x3tick"><text text-anchor="middle" x="0" y="733" style="font-family: 'Open Sans', verdana, arial, sans-serif; font-size: 12px; fill: rgb(42, 63, 95); fill-opacity: 1; white-space: pre; opacity: 1;" transform="translate(494.62,0)">50</text></g></g><g class="yaxislayer-above"><g class="y3tick"><text text-anchor="end" x="79" y="4.199999999999999" transform="translate(0,720)" style="font-family: 'Open Sans', verdana, arial, sans-serif; font-size: 12px; fill: rgb(42, 63, 95); fill-opacity: 1; white-space: pre; opacity: 1;">5</text></g><g class="y3tick"><text text-anchor="end" x="79" y="4.199999999999999" style="font-family: 'Open Sans', verdana, arial, sans-serif; font-size: 12px; fill: rgb(42, 63, 95); fill-opacity: 1; white-space: pre; opacity: 1;" transform="translate(0,682.8)">10</text></g><g class="y3tick"><text text-anchor="end" x="79" y="4.199999999999999" style="font-family: 'Open Sans', verdana, arial, sans-serif; font-size: 12px; fill: rgb(42, 63, 95); fill-opacity: 1; white-space: pre; opacity: 1;" transform="translate(0,645.6)">15</text></g><g class="y3tick"><text text-anchor="end" x="79" y="4.199999999999999" style="font-family: 'Open Sans', verdana, arial, sans-serif; font-size: 12px; fill: rgb(42, 63, 95); fill-opacity: 1; white-space: pre; opacity: 1;" transform="translate(0,608.4)">20</text></g><g class="y3tick"><text text-anchor="end" x="79" y="4.199999999999999" style="font-family: 'Open Sans', verdana, arial, sans-serif; font-size: 12px; fill: rgb(42, 63, 95); fill-opacity: 1; white-space: pre; opacity: 1;" transform="translate(0,571.2)">25</text></g><g class="y3tick"><text text-anchor="end" x="79" y="4.199999999999999" style="font-family: 'Open Sans', verdana, arial, sans-serif; font-size: 12px; fill: rgb(42, 63, 95); fill-opacity: 1; white-space: pre; opacity: 1;" transform="translate(0,534)">30</text></g></g><g class="overaxes-above"/></g></g><g class="polarlayer"/><g class="smithlayer"/><g class="ternarylayer"/><g class="geolayer"/><g class="funnelarealayer"/><g class="pielayer"/><g class="iciclelayer"/><g class="treemaplayer"/><g class="sunburstlayer"/><g class="glimages"/><defs id="topdefs-814bb1"><g class="clips"/></defs><g class="layer-above"><g class="imagelayer"/><g class="shapelayer"/></g><g class="infolayer"><g class="g-gtitle"><text class="gtitle" x="30" y="50" text-anchor="start" dy="0em" style="font-family: 'Open Sans', verdana, arial, sans-serif; font-size: 17px; fill: rgb(42, 63, 95); opacity: 1; font-weight: normal; white-space: pre;">Climatology and S2S forecast for Jhenaidah</text></g><g class="g-xtitle"/><g class="g-x2title"/><g class="g-x3title"/><g class="g-ytitle"><text class="ytitle" transform="rotate(-90,34.16875,193)" x="34.16875" y="193" text-anchor="middle" style="font-family: 'Open Sans', verdana, arial, sans-serif; font-size: 14px; fill: rgb(42, 63, 95); opacity: 1; font-weight: normal; white-space: pre;">[mm]</text></g><g class="g-y2title"><text class="y2title" transform="rotate(-90,40.840625,410.00000000000006)" x="40.840625" y="410.00000000000006" text-anchor="middle" style="font-family: 'Open Sans', verdana, arial, sans-serif; font-size: 14px; fill: rgb(42, 63, 95); opacity: 1; font-weight: normal; white-space: pre;">[C]</text></g><g class="g-y3title"><text class="y3title" transform="rotate(-90,40.840625,627)" x="40.840625" y="627" text-anchor="middle" style="font-family: 'Open Sans', verdana, arial, sans-serif; font-size: 14px; fill: rgb(42, 63, 95); opacity: 1; font-weight: normal; white-space: pre;">[C]</text></g><g class="annotation" data-index="0" style="opacity: 1;"><g class="annotation-text-g" transform="rotate(0,300,89.5)"><g class="cursor-pointer" transform="translate(237,79)"><rect class="bg" x="0.5" y="0.5" width="126" height="20" style="stroke-width: 1px; stroke: rgb(0, 0, 0); stroke-opacity: 0; fill: rgb(0, 0, 0); fill-opacity: 0;"/><text class="annotation-text" text-anchor="middle" x="63.359375" y="16" style="font-family: 'Open Sans', verdana, arial, sans-serif; font-size: 16px; fill: rgb(42, 63, 95); fill-opacity: 1; white-space: pre;">Precipitation sum</text></g></g></g><g class="annotation" data-index="1" style="opacity: 1;"><g class="annotation-text-g" transform="rotate(0,300,306.50000000000006)"><g class="cursor-pointer" transform="translate(196,296)"><rect class="bg" x="0.5" y="0.5" width="208" height="20" style="stroke-width: 1px; stroke: rgb(0, 0, 0); stroke-opacity: 0; fill: rgb(0, 0, 0); fill-opacity: 0;"/><text class="annotation-text" text-anchor="middle" x="104.265625" y="16" style="font-family: 'Open Sans', verdana, arial, sans-serif; font-size: 16px; fill: rgb(42, 63, 95); fill-opacity: 1; white-space: pre;">Mean maximum temperature</text></g></g></g><g class="annotation" data-index="2" style="opacity: 1;"><g class="annotation-text-g" transform="rotate(0,300,523.5)"><g class="cursor-pointer" transform="translate(198,513)"><rect class="bg" x="0.5" y="0.5" width="203" height="20" style="stroke-width: 1px; stroke: rgb(0, 0, 0); stroke-opacity: 0; fill: rgb(0, 0, 0); fill-opacity: 0;"/><text class="annotation-text" text-anchor="middle" x="102.046875" y="16" style="font-family: 'Open Sans', verdana, arial, sans-serif; font-size: 16px; fill: rgb(42, 63, 95); fill-opacity: 1; white-space: pre;">Mean minimum temperature</text></g></g></g><g class="annotation" data-index="3" style="opacity: 1;"><g class="annotation-text-g" transform="rotate(0,300,760.5)"><g class="cursor-pointer" transform="translate(277,750)"><rect class="bg" x="0.5" y="0.5" width="45" height="20" style="stroke-width: 1px; stroke: rgb(0, 0, 0); stroke-opacity: 0; fill: rgb(0, 0, 0); fill-opacity: 0;"/><text class="annotation-text" text-anchor="middle" x="22.3125" y="16" style="font-family: 'Open Sans', verdana, arial, sans-serif; font-size: 16px; fill: rgb(42, 63, 95); fill-opacity: 1; white-space: pre;">Week</text></g></g></g></g></svg>