<svg class="main-svg" xmlns="http://www.w3.org/2000/svg" xmlns:xlink="http://www.w3.org/1999/xlink" width="600" height="800" style="" viewBox="0 0 600 800"><rect x="0" y="0" width="600" height="800" style="fill: rgb(255, 255, 255); fill-opacity: 1;"/><defs id="defs-f61be2"><g class="clips"><clipPath id="clipf61be2xyplot" class="plotclip"><rect width="440" height="186.00000000000003"/></clipPath><clipPath id="clipf61be2x2y2plot" class="plotclip"><rect width="440" height="185.99999999999997"/></clipPath><clipPath id="clipf61be2x3y3plot" class="plotclip"><rect width="440" height="186"/></clipPath><clipPath class="axesclip" id="clipf61be2x"><rect x="80" y="0" width="440" height="800"/></clipPath><clipPath class="axesclip" id="clipf61be2y"><rect x="0" y="100" width="600" height="186.00000000000003"/></clipPath><clipPath class="axesclip" id="clipf61be2xy"><rect x="80" y="100" width="440" height="186.00000000000003"/></clipPath><clipPath class="axesclip" id="clipf61be2y2"><rect x="0" y="317.00000000000006" width="600" height="185.99999999999997"/></clipPath><clipPath class="axesclip" id="clipf61be2xy2"><rect x="80" y="317.00000000000006" width="440" height="185.99999999999997"/></clipPath><clipPath class="axesclip" id="clipf61be2y3"><rect x="0" y="534" width="600" height="186"/></clipPath><clipPath class="axesclip" id="clipf61be2xy3"><rect x="80" y="534" width="440" height="186"/></clipPath><clipPath class="axesclip" id="clipf61be2x2"><rect x="80" y="0" width="440" height="800"/></clipPath><clipPath class="axesclip" id="clipf61be2x2y"><rect x="80" y="100" width="440" height="186.00000000000003"/></clipPath><clipPath class="axesclip" id="clipf61be2x2y2"><rect x="80" y="317.00000000000006" width="440" height="185.99999999999997"/></clipPath><clipPath class="axesclip" id="clipf61be2x2y3"><rect x="80" y="534" width="440" height="186"/></clipPath><clipPath class="axesclip" id="clipf61be2x3"><rect x="80" y="0" width="440" height="800"/></clipPath><clipPath class="axesclip" id="clipf61be2x3y"><rect x="80" y="100" width="440" height="186.00000000000003"/></clipPath><clipPath class="axesclip" id="clipf61be2x3y2"><rect x="80" y="317.00000000000006" width="440" height="185.99999999999997"/></clipPath><clipPath class="axesclip" id="clipf61be2x3y3"><rect x="80" y="534" width="440" height="186"/></clipPath></g><g class="gradients"/><g class="patterns"/></defs><g class="bglayer"><rect class="bg" x="80" y="100" width="440" height="186.00000000000003" style="fill: rgb(229, 236, 246); fill-opacity: 1; stroke-width: 0;"/><rect class="bg" x="80" y="317.00000000000006" width="440" height="185.99999999999997" style="fill: rgb(229, 236, 246); fill-opacity: 1; stroke-width: 0;"/><rect class="bg" x="80" y="534" width="440" height="186" style="fill: rgb(229, 236, 246); fill-opacity: 1; stroke-width: 0;"/></g><g class="layer-below"><g class="imagelayer"/><g class="shapelayer"/></g><g class="cartesianlayer"><g class="subplot xy"><g class="layer-subplot"><g class="shapelayer"/><g class="imagelayer"/></g><g class="minor-gridlayer"><g class="x"/><g class="y"/></g><g class="gridlayer"><g class="x"><path class="xgrid crisp" transform="translate(156.15,0)" d="M0,100v186.00000000000003" style="stroke: rgb(255, 255, 255); stroke-opacity: 1; stroke-width: 1px;"/><path class="xgrid crisp" transform="translate(240.77,0)" d="M0,100v186.00000000000003" style="stroke: rgb(255, 255, 255); stroke-opacity: 1; stroke-width: 1px;"/><path class="xgrid crisp" transform="translate(325.38,0)" d="M0,100v186.00000000000003" style="stroke: rgb(255, 255, 255); stroke-opacity: 1; stroke-width: 1px;"/><path class="xgrid crisp" transform="translate(410,0)" d="M0,100v186.00000000000003" style="stroke: rgb(255, 255, 255); stroke-opacity: 1; stroke-width: 1px;"/><path class="xgrid crisp" transform="translate(494.62,0)" d="M0,100v186.00000000000003" style="stroke: rgb(255, 255, 255); stroke-opacity: 1; stroke-width: 1px;"/></g><g class="y"><path class="ygrid crisp" transform="translate(0,248.8)" d="M80,0h440" style="stroke: rgb(255, 255, 255); stroke-opacity: 1; stroke-width: 1px;"/><path class="ygrid crisp" transform="translate(0,211.6)" d="M80,0h440" style="stroke: rgb(255, 255, 255); stroke-opacity: 1; stroke-width: 1px;"/><path class="ygrid crisp" transform="translate(0,174.4)" d="M80,0h440" style="stroke: rgb(255, 255, 255); stroke-opacity: 1; stroke-width: 1px;"/><path class="ygrid crisp" transform="translate(0,137.2)" d="M80,0h440" style="stroke: rgb(255, 255, 255); stroke-opacity: 1; stroke-width: 1px;"/></g></g><g class="zerolinelayer"><path class="yzl zl crisp" transform="translate(0,286)" d="M80,0h440" style="stroke: rgb(255, 255, 255); stroke-opacity: 1; stroke-width: 2px;"/></g><path class="xlines-below"/><path class="ylines-below"/><g class="overlines-below"/><g class="xaxislayer-below"/><g class="yaxislayer-below"/><g class="overaxes-below"/><g class="plot" transform="translate(80,100)" clip-path="url(#clipf61be2xyplot)"><g class="scatterlayer mlayer"><g class="trace scatter traceafb2cb" style="stroke-miterlimit: 2;"><g class="fills"><g><path class="js-fill" d="M0,186L135.38,185.86L143.85,175.77L152.31,184.2L160.77,171.12L169.23,180.74L177.69,170.24L186.15,173.76L194.62,175.21L203.08,163.93L211.54,179.28L220,166.26L228.46,164.45L245.38,165.39L253.85,173.14L262.31,165.3L270.77,155.53L279.23,163.67L287.69,178.83L296.15,176.59L304.62,163.6L313.08,173.11L321.54,165.03L330,182.82L338.46,182.42L346.92,185.73L355.38,186L440,186L440,186L414.62,186L406.15,186L330,185.8L321.54,185.5L313.08,180.07L304.62,184.85L296.15,185.24L287.69,185.47L279.23,183.21L270.77,184.17L262.31,182.49L253.85,185.02L245.38,184.53L236.92,185.85L228.46,178.64L220,184.28L211.54,185.26L203.08,185.26L194.62,184.4L186.15,185.66L177.69,184.1L169.23,185.74L160.77,185.53L152.31,186L143.85,183.5L135.38,186L0,186Z" style="fill: rgb(224, 236, 244); fill-opacity: 1; stroke-width: 0;"/></g></g><g class="errorbars"/><g class="lines"><path class="js-line" d="M0,186L135.38,186L143.85,183.5L152.31,186L160.77,185.53L169.23,185.74L177.69,184.1L186.15,185.66L194.62,184.4L203.08,185.26L211.54,185.26L220,184.28L228.46,178.64L236.92,185.85L245.38,184.53L253.85,185.02L262.31,182.49L270.77,184.17L279.23,183.21L287.69,185.47L296.15,185.24L304.62,184.85L313.08,180.07L321.54,185.5L330,185.8L406.15,186L414.62,186L440,186" style="vector-effect: non-scaling-stroke; fill: none; stroke: rgb(0, 0, 0); stroke-opacity: 1; stroke-width: 0.25px; opacity: 1;"/></g><g class="points"/><g class="text"/></g><g class="trace scatter trace5d3bc1" style="stroke-miterlimit: 2;"><g class="fills"><g><path class="js-fill" d="M0,186L101.54,185.41L110,183.21L118.46,181.72L126.92,177.35L135.38,184.79L143.85,162.5L152.31,166.78L160.77,162.11L177.69,150.64L186.15,148.23L194.62,159.23L203.08,150.37L211.54,167.47L220,150.64L228.46,150.52L236.92,136.7L245.38,151.36L253.85,154.54L262.31,149.02L270.77,139.59L279.23,148.98L287.69,162.83L296.15,160.27L304.62,149.38L313.08,153.84L321.54,152.49L330,171.53L338.46,176.9L355.38,185.88L363.85,185.96L440,186L440,186L355.38,186L346.92,185.73L338.46,182.42L330,182.82L321.54,165.03L313.08,173.11L304.62,163.6L296.15,176.59L287.69,178.83L279.23,163.67L270.77,155.53L262.31,165.3L253.85,173.14L245.38,165.39L228.46,164.45L220,166.26L211.54,179.28L203.08,163.93L194.62,175.21L186.15,173.76L177.69,170.24L169.23,180.74L160.77,171.12L152.31,184.2L143.85,175.77L135.38,185.86L0,186Z" style="fill: rgb(158, 188, 218); fill-opacity: 1; stroke-width: 0;"/></g></g><g class="errorbars"/><g class="lines"><path class="js-line" d="M0,186L135.38,185.86L143.85,175.77L152.31,184.2L160.77,171.12L169.23,180.74L177.69,170.24L186.15,173.76L194.62,175.21L203.08,163.93L211.54,179.28L220,166.26L228.46,164.45L245.38,165.39L253.85,173.14L262.31,165.3L270.77,155.53L279.23,163.67L287.69,178.83L296.15,176.59L304.62,163.6L313.08,173.11L321.54,165.03L330,182.82L338.46,182.42L346.92,185.73L355.38,186L440,186" style="vector-effect: non-scaling-stroke; fill: none; stroke: rgb(0, 0, 0); stroke-opacity: 1; stroke-width: 0.5px; opacity: 1;"/></g><g class="points"/><g class="text"/></g><g class="trace scatter trace5eabf4" style="stroke-miterlimit: 2;"><g class="fills"><g><path class="js-fill" d="M0,185.66L25.38,185.99L33.85,185.66L42.31,184.39L50.77,185.1L59.23,185.75L67.69,183.24L84.62,185.37L93.08,183.24L101.54,170.51L110,170.67L126.92,171.2L135.38,175.4L143.85,146.94L152.31,148.69L160.77,156.68L169.23,142.86L177.69,121.6L186.15,132.02L194.62,120.02L203.08,121.74L211.54,127.23L220,131.65L228.46,98.64L236.92,117.71L245.38,116.15L253.85,131.55L262.31,130.56L270.77,110.41L287.69,146L296.15,144.6L304.62,134.1L313.08,127.49L321.54,135.11L330,161.07L338.46,154.76L346.92,163.78L355.38,142.2L363.85,184.09L372.31,185.83L380.77,185.99L440,186L440,186L363.85,185.96L355.38,185.88L338.46,176.9L330,171.53L321.54,152.49L313.08,153.84L304.62,149.38L296.15,160.27L287.69,162.83L279.23,148.98L270.77,139.59L262.31,149.02L253.85,154.54L245.38,151.36L236.92,136.7L228.46,150.52L220,150.64L211.54,167.47L203.08,150.37L194.62,159.23L186.15,148.23L177.69,150.64L160.77,162.11L152.31,166.78L143.85,162.5L135.38,184.79L126.92,177.35L118.46,181.72L110,183.21L101.54,185.41L0,186Z" style="fill: rgb(158, 188, 218); fill-opacity: 1; stroke-width: 0;"/></g></g><g class="errorbars"/><g class="lines"><path class="js-line" d="M0,186L101.54,185.41L110,183.21L118.46,181.72L126.92,177.35L135.38,184.79L143.85,162.5L152.31,166.78L160.77,162.11L177.69,150.64L186.15,148.23L194.62,159.23L203.08,150.37L211.54,167.47L220,150.64L228.46,150.52L236.92,136.7L245.38,151.36L253.85,154.54L262.31,149.02L270.77,139.59L279.23,148.98L287.69,162.83L296.15,160.27L304.62,149.38L313.08,153.84L321.54,152.49L330,171.53L338.46,176.9L355.38,185.88L363.85,185.96L440,186" style="vector-effect: non-scaling-stroke; fill: none; stroke: rgb(0, 0, 0); stroke-opacity: 1; stroke-width: 1px; opacity: 1;"/></g><g class="points"/><g class="text"/></g><g class="trace scatter trace90bfd5" style="stroke-miterlimit: 2;"><g class="fills"><g><path class="js-fill" d="M0,185.36L16.92,185.96L25.38,185.98L33.85,185.32L42.31,182.01L50.77,185.01L59.23,185.38L67.69,179.41L76.15,182.92L84.62,184.48L93.08,179.15L101.54,150.53L110,149.03L118.46,154.25L126.92,153.18L135.38,171.16L143.85,129.6L152.31,134.32L160.77,151.14L169.23,120.13L177.69,67.04L186.15,91.62L194.62,71.59L203.08,69.09L211.54,54.33L220,85.84L228.46,27.2L236.92,108.27L245.38,63.88L253.85,74.79L262.31,79.22L270.77,43.29L279.23,85.77L287.69,137.79L296.15,104.45L304.62,107.75L313.08,114.85L321.54,99.56L330,136.09L338.46,134.56L346.92,131.06L355.38,83.32L363.85,182.97L372.31,185.8L380.77,185.99L440,186L440,186L380.77,185.99L372.31,185.83L363.85,184.09L355.38,142.2L346.92,163.78L338.46,154.76L330,161.07L321.54,135.11L313.08,127.49L304.62,134.1L296.15,144.6L287.69,146L270.77,110.41L262.31,130.56L253.85,131.55L245.38,116.15L236.92,117.71L228.46,98.64L220,131.65L211.54,127.23L203.08,121.74L194.62,120.02L186.15,132.02L177.69,121.6L169.23,142.86L160.77,156.68L152.31,148.69L143.85,146.94L135.38,175.4L126.92,171.2L110,170.67L101.54,170.51L93.08,183.24L84.62,185.37L67.69,183.24L59.23,185.75L50.77,185.1L42.31,184.39L33.85,185.66L25.38,185.99L0,185.66Z" style="fill: rgb(136, 86, 167); fill-opacity: 1; stroke-width: 0;"/></g></g><g class="errorbars"/><g class="lines"><path class="js-line" d="M0,185.66L25.38,185.99L33.85,185.66L42.31,184.39L50.77,185.1L59.23,185.75L67.69,183.24L84.62,185.37L93.08,183.24L101.54,170.51L110,170.67L126.92,171.2L135.38,175.4L143.85,146.94L152.31,148.69L160.77,156.68L169.23,142.86L177.69,121.6L186.15,132.02L194.62,120.02L203.08,121.74L211.54,127.23L220,131.65L228.46,98.64L236.92,117.71L245.38,116.15L253.85,131.55L262.31,130.56L270.77,110.41L287.69,146L296.15,144.6L304.62,134.1L313.08,127.49L321.54,135.11L330,161.07L338.46,154.76L346.92,163.78L355.38,142.2L363.85,184.09L372.31,185.83L380.77,185.99L440,186" style="vector-effect: non-scaling-stroke; fill: none; stroke: rgb(0, 0, 0); stroke-opacity: 1; stroke-width: 0.5px; opacity: 1;"/></g><g class="points"/><g class="text"/></g><g class="trace scatter traced098ad" style="stroke-miterlimit: 2;"><g class="fills"/><g class="errorbars"/><g class="lines"><path class="js-line" d="M0,185.36L16.92,185.96L25.38,185.98L33.85,185.32L42.31,182.01L50.77,185.01L59.23,185.38L67.69,179.41L76.15,182.92L84.62,184.48L93.08,179.15L101.54,150.53L110,149.03L118.46,154.25L126.92,153.18L135.38,171.16L143.85,129.6L152.31,134.32L160.77,151.14L169.23,120.13L177.69,67.04L186.15,91.62L194.62,71.59L203.08,69.09L211.54,54.33L220,85.84L228.46,27.2L236.92,108.27L245.38,63.88L253.85,74.79L262.31,79.22L270.77,43.29L279.23,85.77L287.69,137.79L296.15,104.45L304.62,107.75L313.08,114.85L321.54,99.56L330,136.09L338.46,134.56L346.92,131.06L355.38,83.32L363.85,182.97L372.31,185.8L380.77,185.99L440,186" style="vector-effect: non-scaling-stroke; fill: none; stroke: rgb(0, 0, 0); stroke-opacity: 1; stroke-width: 0.25px; opacity: 1;"/></g><g class="points"/><g class="text"/></g><g class="trace scatter tracea58a10" style="stroke-miterlimit: 2; opacity: 1;"><g class="fills"/><g class="errorbars"/><g class="lines"/><g class="points"><path class="point" transform="translate(253.85,168.89)" d="M4,0A4,4 0 1,1 0,-4A4,4 0 0,1 4,0ZM0,0.5L0.5,0L0,-0.5L-0.5,0Z" style="opacity: 1; stroke: rgb(0, 0, 0); stroke-opacity: 1; stroke-width: 1px; fill: none;"/><path class="point" transform="translate(262.31,20.83)" d="M4,0A4,4 0 1,1 0,-4A4,4 0 0,1 4,0ZM0,0.5L0.5,0L0,-0.5L-0.5,0Z" style="opacity: 1; stroke: rgb(0, 0, 0); stroke-opacity: 1; stroke-width: 1px; fill: none;"/><path class="point" transform="translate(270.77,63.98)" d="M4,0A4,4 0 1,1 0,-4A4,4 0 0,1 4,0ZM0,0.5L0.5,0L0,-0.5L-0.5,0Z" style="opacity: 1; stroke: rgb(0, 0, 0); stroke-opacity: 1; stroke-width: 1px; fill: none;"/><path class="point" transform="translate(279.23,63.98)" d="M4,0A4,4 0 1,1 0,-4A4,4 0 0,1 4,0ZM0,0.5L0.5,0L0,-0.5L-0.5,0Z" style="opacity: 1; stroke: rgb(0, 0, 0); stroke-opacity: 1; stroke-width: 1px; fill: none;"/></g><g class="text"/></g></g></g><g class="overplot"/><path class="xlines-above crisp" d="M0,0" style="fill: none;"/><path class="ylines-above crisp" d="M0,0" style="fill: none;"/><g class="overlines-above"/><g class="xaxislayer-above"/><g class="yaxislayer-above"><g class="ytick"><text text-anchor="end" x="79" y="4.199999999999999" transform="translate(0,286)" style="font-family: 'Open Sans', verdana, arial, sans-serif; font-size: 12px; fill: rgb(42, 63, 95); fill-opacity: 1; white-space: pre; opacity: 1;">0</text></g><g class="ytick"><text text-anchor="end" x="79" y="4.199999999999999" style="font-family: 'Open Sans', verdana, arial, sans-serif; font-size: 12px; fill: rgb(42, 63, 95); fill-opacity: 1; white-space: pre; opacity: 1;" transform="translate(0,248.8)">50</text></g><g class="ytick"><text text-anchor="end" x="79" y="4.199999999999999" style="font-family: 'Open Sans', verdana, arial, sans-serif; font-size: 12px; fill: rgb(42, 63, 95); fill-opacity: 1; white-space: pre; opacity: 1;" transform="translate(0,211.6)">100</text></g><g class="ytick"><text text-anchor="end" x="79" y="4.199999999999999" style="font-family: 'Open Sans', verdana, arial, sans-serif; font-size: 12px; fill: rgb(42, 63, 95); fill-opacity: 1; white-space: pre; opacity: 1;" transform="translate(0,174.4)">150</text></g><g class="ytick"><text text-anchor="end" x="79" y="4.199999999999999" style="font-family: 'Open Sans', verdana, arial, sans-serif; font-size: 12px; fill: rgb(42, 63, 95); fill-opacity: 1; white-space: pre; opacity: 1;" transform="translate(0,137.2)">200</text></g><g class="ytick"><text text-anchor="end" x="79" y="4.199999999999999" style="font-family: 'Open Sans', verdana, arial, sans-serif; font-size: 12px; fill: rgb(42, 63, 95); fill-opacity: 1; white-space: pre; opacity: 1;" transform="translate(0,100)">250</text></g></g><g class="overaxes-above"/></g><g class="subplot x2y2"><g class="layer-subplot"><g class="shapelayer"/><g class="imagelayer"/></g><g class="minor-gridlayer"><g class="x2"/><g class="y2"/></g><g class="gridlayer"><g class="x2"><path class="x2grid crisp" transform="translate(156.15,0)" d="M0,317.00000000000006v185.99999999999997" style="stroke: rgb(255, 255, 255); stroke-opacity: 1; stroke-width: 1px;"/><path class="x2grid crisp" transform="translate(240.77,0)" d="M0,317.00000000000006v185.99999999999997" style="stroke: rgb(255, 255, 255); stroke-opacity: 1; stroke-width: 1px;"/><path class="x2grid crisp" transform="translate(325.38,0)" d="M0,317.00000000000006v185.99999999999997" style="stroke: rgb(255, 255, 255); stroke-opacity: 1; stroke-width: 1px;"/><path class="x2grid crisp" transform="translate(410,0)" d="M0,317.00000000000006v185.99999999999997" style="stroke: rgb(255, 255, 255); stroke-opacity: 1; stroke-width: 1px;"/><path class="x2grid crisp" transform="translate(494.62,0)" d="M0,317.00000000000006v185.99999999999997" style="stroke: rgb(255, 255, 255); stroke-opacity: 1; stroke-width: 1px;"/></g><g class="y2"><path class="y2grid crisp" transform="translate(0,472.00000000000006)" d="M80,0h440" style="stroke: rgb(255, 255, 255); stroke-opacity: 1; stroke-width: 1px;"/><path class="y2grid crisp" transform="translate(0,410.00000000000006)" d="M80,0h440" style="stroke: rgb(255, 255, 255); stroke-opacity: 1; stroke-width: 1px;"/><path class="y2grid crisp" transform="translate(0,348.00000000000006)" d="M80,0h440" style="stroke: rgb(255, 255, 255); stroke-opacity: 1; stroke-width: 1px;"/></g></g><g class="zerolinelayer"/><path class="xlines-below"/><path class="ylines-below"/><g class="overlines-below"/><g class="xaxislayer-below"/><g class="yaxislayer-below"/><g class="overaxes-below"/><g class="plot" transform="translate(80,317.00000000000006)" clip-path="url(#clipf61be2x2y2plot)"><g class="scatterlayer mlayer"><g class="trace scatter traced2b4b5" style="stroke-miterlimit: 2;"><g class="fills"><g><path class="js-fill" d="M0,155.55L8.46,154.97L16.92,144.83L25.38,140.67L33.85,134.35L42.31,121.35L50.77,115.29L59.23,107.26L67.69,91.62L76.15,95.18L84.62,79.16L93.08,68.42L101.54,74.29L110,72.54L118.46,79.56L126.92,75.9L135.38,82.65L143.85,84.72L152.31,81.56L160.77,80.68L169.23,84.53L177.69,86.76L186.15,84.79L194.62,90.39L203.08,95.04L211.54,96.26L220,94.67L228.46,95.95L236.92,94.46L245.38,95.53L253.85,94.4L262.31,93.43L270.77,96.78L287.69,95.25L296.15,95.92L304.62,98.09L313.08,102.09L321.54,96.65L330,96.59L338.46,94.37L346.92,91.11L355.38,89.33L363.85,97.32L372.31,98.85L380.77,106.76L389.23,116.74L397.69,128.7L406.15,139.61L414.62,140.24L423.08,145.95L431.54,153.05L440,158.25L440,159.77L431.54,162.42L423.08,161.02L414.62,146.94L406.15,149.24L397.69,141.54L389.23,130.35L380.77,116.87L372.31,105.68L363.85,104.19L355.38,92.72L346.92,102.96L338.46,110.39L330,104.91L321.54,106.81L313.08,113L304.62,110.72L296.15,107.68L287.69,103.49L279.23,108.51L262.31,109.2L253.85,102.5L245.38,108.92L236.92,105.99L228.46,99L220,106.05L211.54,107.85L203.08,106.51L194.62,100.71L186.15,94.6L177.69,94.47L169.23,97.41L152.31,88.22L143.85,89.29L135.38,96.23L126.92,87.69L118.46,95.89L110,96.53L101.54,88.85L93.08,87.58L84.62,104.6L76.15,104.95L67.69,110.36L59.23,118.17L50.77,134.64L42.31,138.06L33.85,147.42L25.38,153.89L16.92,155.07L8.46,169.77L0,172.85Z" style="fill: rgb(145, 191, 219); fill-opacity: 1; stroke-width: 0;"/></g></g><g class="errorbars"/><g class="lines"><path class="js-line" d="M0,172.85L8.46,169.77L16.92,155.07L25.38,153.89L33.85,147.42L42.31,138.06L50.77,134.64L59.23,118.17L67.69,110.36L76.15,104.95L84.62,104.6L93.08,87.58L101.54,88.85L110,96.53L118.46,95.89L126.92,87.69L135.38,96.23L143.85,89.29L152.31,88.22L169.23,97.41L177.69,94.47L186.15,94.6L194.62,100.71L203.08,106.51L211.54,107.85L220,106.05L228.46,99L236.92,105.99L245.38,108.92L253.85,102.5L262.31,109.2L279.23,108.51L287.69,103.49L296.15,107.68L304.62,110.72L313.08,113L321.54,106.81L330,104.91L338.46,110.39L346.92,102.96L355.38,92.72L363.85,104.19L372.31,105.68L380.77,116.87L389.23,130.35L397.69,141.54L406.15,149.24L414.62,146.94L423.08,161.02L431.54,162.42L440,159.77" style="vector-effect: non-scaling-stroke; fill: none; stroke: rgb(0, 0, 0); stroke-opacity: 1; stroke-width: 0.25px; opacity: 1;"/></g><g class="points"/><g class="text"/></g><g class="trace scatter traceee3c5f" style="stroke-miterlimit: 2;"><g class="fills"><g><path class="js-fill" d="M0,144.11L8.46,150.06L16.92,138.59L25.38,133.6L33.85,126.09L50.77,105.85L59.23,96.8L67.69,81.24L76.15,76.92L84.62,70.96L93.08,58.38L110,64.55L118.46,59.27L135.38,69.54L143.85,79.97L152.31,73.75L160.77,74.72L177.69,79.83L186.15,78.54L194.62,79.73L203.08,88.99L211.54,87.24L220,89.78L228.46,91.3L236.92,91L245.38,91.62L253.85,89.81L262.31,88.17L270.77,92.9L279.23,90.47L287.69,91.37L296.15,93.56L304.62,92.31L321.54,92.04L330,86.26L338.46,86.19L346.92,84.78L355.38,87.71L363.85,95.08L372.31,96.28L380.77,103.49L397.69,120.15L406.15,131.02L414.62,130.91L423.08,139.19L431.54,144.96L440,142.7L440,158.25L431.54,153.05L423.08,145.95L414.62,140.24L406.15,139.61L397.69,128.7L389.23,116.74L380.77,106.76L372.31,98.85L363.85,97.32L355.38,89.33L346.92,91.11L338.46,94.37L330,96.59L321.54,96.65L313.08,102.09L304.62,98.09L296.15,95.92L287.69,95.25L270.77,96.78L262.31,93.43L253.85,94.4L245.38,95.53L236.92,94.46L228.46,95.95L220,94.67L211.54,96.26L203.08,95.04L194.62,90.39L186.15,84.79L177.69,86.76L169.23,84.53L160.77,80.68L152.31,81.56L143.85,84.72L135.38,82.65L126.92,75.9L118.46,79.56L110,72.54L101.54,74.29L93.08,68.42L84.62,79.16L76.15,95.18L67.69,91.62L59.23,107.26L50.77,115.29L42.31,121.35L33.85,134.35L25.38,140.67L16.92,144.83L8.46,154.97L0,155.55Z" style="fill: rgb(255, 255, 191); fill-opacity: 1; stroke-width: 0;"/></g></g><g class="errorbars"/><g class="lines"><path class="js-line" d="M0,155.55L8.46,154.97L16.92,144.83L25.38,140.67L33.85,134.35L42.31,121.35L50.77,115.29L59.23,107.26L67.69,91.62L76.15,95.18L84.62,79.16L93.08,68.42L101.54,74.29L110,72.54L118.46,79.56L126.92,75.9L135.38,82.65L143.85,84.72L152.31,81.56L160.77,80.68L169.23,84.53L177.69,86.76L186.15,84.79L194.62,90.39L203.08,95.04L211.54,96.26L220,94.67L228.46,95.95L236.92,94.46L245.38,95.53L253.85,94.4L262.31,93.43L270.77,96.78L287.69,95.25L296.15,95.92L304.62,98.09L313.08,102.09L321.54,96.65L330,96.59L338.46,94.37L346.92,91.11L355.38,89.33L363.85,97.32L372.31,98.85L380.77,106.76L389.23,116.74L397.69,128.7L406.15,139.61L414.62,140.24L423.08,145.95L431.54,153.05L440,158.25" style="vector-effect: non-scaling-stroke; fill: none; stroke: rgb(0, 0, 0); stroke-opacity: 1; stroke-width: 0.5px; opacity: 1;"/></g><g class="points"/><g class="text"/></g><g class="trace scatter traced54383" style="stroke-miterlimit: 2;"><g class="fills"><g><path class="js-fill" d="M0,136.47L8.46,136.98L16.92,132.17L25.38,129.7L33.85,120.36L42.31,107.69L50.77,97.75L59.23,83.78L67.69,72.44L76.15,68.22L84.62,59.91L93.08,54.04L101.54,46.23L110,50.12L118.46,50.13L126.92,48.62L135.38,52.8L143.85,72.42L152.31,62.39L160.77,60.83L169.23,71.34L177.69,72.62L186.15,74.74L194.62,72.71L203.08,80.71L211.54,83.77L220,82.76L228.46,86.96L236.92,83.81L253.85,85.32L262.31,81.33L270.77,85.03L279.23,82.99L287.69,87.56L296.15,87.6L304.62,84.06L313.08,83.22L321.54,83.5L330,75.63L338.46,76.64L346.92,78.46L355.38,85.9L363.85,91.23L372.31,92.52L380.77,99L397.69,113.35L406.15,123.78L414.62,121.61L423.08,127.59L431.54,133.59L440,123.56L440,142.7L431.54,144.96L423.08,139.19L414.62,130.91L406.15,131.02L397.69,120.15L380.77,103.49L372.31,96.28L363.85,95.08L355.38,87.71L346.92,84.78L338.46,86.19L330,86.26L321.54,92.04L304.62,92.31L296.15,93.56L287.69,91.37L279.23,90.47L270.77,92.9L262.31,88.17L253.85,89.81L245.38,91.62L236.92,91L228.46,91.3L220,89.78L211.54,87.24L203.08,88.99L194.62,79.73L186.15,78.54L177.69,79.83L160.77,74.72L152.31,73.75L143.85,79.97L135.38,69.54L118.46,59.27L110,64.55L93.08,58.38L84.62,70.96L76.15,76.92L67.69,81.24L59.23,96.8L50.77,105.85L33.85,126.09L25.38,133.6L16.92,138.59L8.46,150.06L0,144.11Z" style="fill: rgb(255, 255, 191); fill-opacity: 1; stroke-width: 0;"/></g></g><g class="errorbars"/><g class="lines"><path class="js-line" d="M0,144.11L8.46,150.06L16.92,138.59L25.38,133.6L33.85,126.09L50.77,105.85L59.23,96.8L67.69,81.24L76.15,76.92L84.62,70.96L93.08,58.38L110,64.55L118.46,59.27L135.38,69.54L143.85,79.97L152.31,73.75L160.77,74.72L177.69,79.83L186.15,78.54L194.62,79.73L203.08,88.99L211.54,87.24L220,89.78L228.46,91.3L236.92,91L245.38,91.62L253.85,89.81L262.31,88.17L270.77,92.9L279.23,90.47L287.69,91.37L296.15,93.56L304.62,92.31L321.54,92.04L330,86.26L338.46,86.19L346.92,84.78L355.38,87.71L363.85,95.08L372.31,96.28L380.77,103.49L397.69,120.15L406.15,131.02L414.62,130.91L423.08,139.19L431.54,144.96L440,142.7" style="vector-effect: non-scaling-stroke; fill: none; stroke: rgb(0, 0, 0); stroke-opacity: 1; stroke-width: 1px; opacity: 1;"/></g><g class="points"/><g class="text"/></g><g class="trace scatter trace5d0c8a" style="stroke-miterlimit: 2;"><g class="fills"><g><path class="js-fill" d="M0,124.93L8.46,121.83L16.92,114.89L25.38,120.26L33.85,107.13L50.77,83.45L59.23,68.06L67.69,57.81L76.15,54.89L84.62,54.43L93.08,40.05L101.54,28.94L110,23.02L118.46,28.06L126.92,31.17L135.38,20.45L143.85,56.71L152.31,41.59L160.77,32.62L169.23,60.19L177.69,54.93L186.15,63.96L194.62,57.56L203.08,65.33L211.54,74.72L220,71.74L228.46,76.84L236.92,74.13L245.38,74.27L253.85,71.86L262.31,65.13L270.77,72.2L279.23,70.59L287.69,82.71L296.15,76.27L304.62,75.57L313.08,68.45L321.54,73.67L330,66.86L346.92,62.6L355.38,80.89L363.85,86.07L372.31,87.74L380.77,89.91L389.23,98.48L397.69,96.41L406.15,104.75L414.62,115.99L423.08,122.2L431.54,125.21L440,120.21L440,123.56L431.54,133.59L423.08,127.59L414.62,121.61L406.15,123.78L397.69,113.35L380.77,99L372.31,92.52L363.85,91.23L355.38,85.9L346.92,78.46L338.46,76.64L330,75.63L321.54,83.5L313.08,83.22L304.62,84.06L296.15,87.6L287.69,87.56L279.23,82.99L270.77,85.03L262.31,81.33L253.85,85.32L236.92,83.81L228.46,86.96L220,82.76L211.54,83.77L203.08,80.71L194.62,72.71L186.15,74.74L177.69,72.62L169.23,71.34L160.77,60.83L152.31,62.39L143.85,72.42L135.38,52.8L126.92,48.62L118.46,50.13L110,50.12L101.54,46.23L93.08,54.04L84.62,59.91L76.15,68.22L67.69,72.44L59.23,83.78L50.77,97.75L42.31,107.69L33.85,120.36L25.38,129.7L16.92,132.17L8.46,136.98L0,136.47Z" style="fill: rgb(252, 141, 89); fill-opacity: 1; stroke-width: 0;"/></g></g><g class="errorbars"/><g class="lines"><path class="js-line" d="M0,136.47L8.46,136.98L16.92,132.17L25.38,129.7L33.85,120.36L42.31,107.69L50.77,97.75L59.23,83.78L67.69,72.44L76.15,68.22L84.62,59.91L93.08,54.04L101.54,46.23L110,50.12L118.46,50.13L126.92,48.62L135.38,52.8L143.85,72.42L152.31,62.39L160.77,60.83L169.23,71.34L177.69,72.62L186.15,74.74L194.62,72.71L203.08,80.71L211.54,83.77L220,82.76L228.46,86.96L236.92,83.81L253.85,85.32L262.31,81.33L270.77,85.03L279.23,82.99L287.69,87.56L296.15,87.6L304.62,84.06L313.08,83.22L321.54,83.5L330,75.63L338.46,76.64L346.92,78.46L355.38,85.9L363.85,91.23L372.31,92.52L380.77,99L397.69,113.35L406.15,123.78L414.62,121.61L423.08,127.59L431.54,133.59L440,123.56" style="vector-effect: non-scaling-stroke; fill: none; stroke: rgb(0, 0, 0); stroke-opacity: 1; stroke-width: 0.5px; opacity: 1;"/></g><g class="points"/><g class="text"/></g><g class="trace scatter tracee8e859" style="stroke-miterlimit: 2;"><g class="fills"/><g class="errorbars"/><g class="lines"><path class="js-line" d="M0,124.93L8.46,121.83L16.92,114.89L25.38,120.26L33.85,107.13L50.77,83.45L59.23,68.06L67.69,57.81L76.15,54.89L84.62,54.43L93.08,40.05L101.54,28.94L110,23.02L118.46,28.06L126.92,31.17L135.38,20.45L143.85,56.71L152.31,41.59L160.77,32.62L169.23,60.19L177.69,54.93L186.15,63.96L194.62,57.56L203.08,65.33L211.54,74.72L220,71.74L228.46,76.84L236.92,74.13L245.38,74.27L253.85,71.86L262.31,65.13L270.77,72.2L279.23,70.59L287.69,82.71L296.15,76.27L304.62,75.57L313.08,68.45L321.54,73.67L330,66.86L346.92,62.6L355.38,80.89L363.85,86.07L372.31,87.74L380.77,89.91L389.23,98.48L397.69,96.41L406.15,104.75L414.62,115.99L423.08,122.2L431.54,125.21L440,120.21" style="vector-effect: non-scaling-stroke; fill: none; stroke: rgb(0, 0, 0); stroke-opacity: 1; stroke-width: 0.25px; opacity: 1;"/></g><g class="points"/><g class="text"/></g><g class="trace scatter trace850904" style="stroke-miterlimit: 2; opacity: 1;"><g class="fills"/><g class="errorbars"/><g class="lines"/><g class="points"><path class="point" transform="translate(253.85,80.6)" d="M4,0A4,4 0 1,1 0,-4A4,4 0 0,1 4,0ZM0,0.5L0.5,0L0,-0.5L-0.5,0Z" style="opacity: 1; stroke: rgb(0, 0, 0); stroke-opacity: 1; stroke-width: 1px; fill: none;"/><path class="point" transform="translate(262.31,111.6)" d="M4,0A4,4 0 1,1 0,-4A4,4 0 0,1 4,0ZM0,0.5L0.5,0L0,-0.5L-0.5,0Z" style="opacity: 1; stroke: rgb(0, 0, 0); stroke-opacity: 1; stroke-width: 1px; fill: none;"/><path class="point" transform="translate(270.77,93)" d="M4,0A4,4 0 1,1 0,-4A4,4 0 0,1 4,0ZM0,0.5L0.5,0L0,-0.5L-0.5,0Z" style="opacity: 1; stroke: rgb(0, 0, 0); stroke-opacity: 1; stroke-width: 1px; fill: none;"/><path class="point" transform="translate(279.23,93)" d="M4,0A4,4 0 1,1 0,-4A4,4 0 0,1 4,0ZM0,0.5L0.5,0L0,-0.5L-0.5,0Z" style="opacity: 1; stroke: rgb(0, 0, 0); stroke-opacity: 1; stroke-width: 1px; fill: none;"/></g><g class="text"/></g></g></g><g class="overplot"/><path class="xlines-above crisp" d="M0,0" style="fill: none;"/><path class="ylines-above crisp" d="M0,0" style="fill: none;"/><g class="overlines-above"/><g class="xaxislayer-above"/><g class="yaxislayer-above"><g class="y2tick"><text text-anchor="end" x="79" y="4.199999999999999" transform="translate(0,472.00000000000006)" style="font-family: 'Open Sans', verdana, arial, sans-serif; font-size: 12px; fill: rgb(42, 63, 95); fill-opacity: 1; white-space: pre; opacity: 1;">20</text></g><g class="y2tick"><text text-anchor="end" x="79" y="4.199999999999999" style="font-family: 'Open Sans', verdana, arial, sans-serif; font-size: 12px; fill: rgb(42, 63, 95); fill-opacity: 1; white-space: pre; opacity: 1;" transform="translate(0,410.00000000000006)">30</text></g><g class="y2tick"><text text-anchor="end" x="79" y="4.199999999999999" style="font-family: 'Open Sans', verdana, arial, sans-serif; font-size: 12px; fill: rgb(42, 63, 95); fill-opacity: 1; white-space: pre; opacity: 1;" transform="translate(0,348.00000000000006)">40</text></g></g><g class="overaxes-above"/></g><g class="subplot x3y3"><g class="layer-subplot"><g class="shapelayer"/><g class="imagelayer"/></g><g class="minor-gridlayer"><g class="x3"/><g class="y3"/></g><g class="gridlayer"><g class="x3"><path class="x3grid crisp" transform="translate(156.15,0)" d="M0,534v186" style="stroke: rgb(255, 255, 255); stroke-opacity: 1; stroke-width: 1px;"/><path class="x3grid crisp" transform="translate(240.77,0)" d="M0,534v186" style="stroke: rgb(255, 255, 255); stroke-opacity: 1; stroke-width: 1px;"/><path class="x3grid crisp" transform="translate(325.38,0)" d="M0,534v186" style="stroke: rgb(255, 255, 255); stroke-opacity: 1; stroke-width: 1px;"/><path class="x3grid crisp" transform="translate(410,0)" d="M0,534v186" style="stroke: rgb(255, 255, 255); stroke-opacity: 1; stroke-width: 1px;"/><path class="x3grid crisp" transform="translate(494.62,0)" d="M0,534v186" style="stroke: rgb(255, 255, 255); stroke-opacity: 1; stroke-width: 1px;"/></g><g class="y3"><path class="y3grid crisp" transform="translate(0,682.8)" d="M80,0h440" style="stroke: rgb(255, 255, 255); stroke-opacity: 1; stroke-width: 1px;"/><path class="y3grid crisp" transform="translate(0,645.6)" d="M80,0h440" style="stroke: rgb(255, 255, 255); stroke-opacity: 1; stroke-width: 1px;"/><path class="y3grid crisp" transform="translate(0,608.4)" d="M80,0h440" style="stroke: rgb(255, 255, 255); stroke-opacity: 1; stroke-width: 1px;"/><path class="y3grid crisp" transform="translate(0,571.2)" d="M80,0h440" style="stroke: rgb(255, 255, 255); stroke-opacity: 1; stroke-width: 1px;"/></g></g><g class="zerolinelayer"/><path class="xlines-below"/><path class="ylines-below"/><g class="overlines-below"/><g class="xaxislayer-below"/><g class="yaxislayer-below"/><g class="overaxes-below"/><g class="plot" transform="translate(80,534)" clip-path="url(#clipf61be2x3y3plot)"><g class="scatterlayer mlayer"><g class="trace scatter tracebf5702" style="stroke-miterlimit: 2;"><g class="fills"><g><path class="js-fill" d="M0,127.46L8.46,136.81L16.92,127.82L33.85,122.61L42.31,114.66L50.77,111.13L59.23,99.83L67.69,86.33L76.15,81.94L84.62,80.35L93.08,64.12L101.54,62.39L110,64L118.46,61L126.92,55.15L143.85,56.35L152.31,49.14L160.77,43.94L169.23,40.36L177.69,39.98L186.15,36.66L220,36.05L228.46,36.94L236.92,36.15L245.38,38.46L253.85,37L262.31,36.93L270.77,36.75L279.23,37.84L287.69,37.49L296.15,38.35L321.54,42.63L330,43.51L346.92,51L355.38,56.34L363.85,66.28L372.31,73.15L380.77,85.57L389.23,92.55L397.69,101.69L406.15,109.59L414.62,112.5L423.08,123.51L431.54,126.64L440,139.97L440,146.86L431.54,134.68L423.08,138.22L414.62,132.67L406.15,122.25L397.69,110.2L389.23,107.78L380.77,100.62L372.31,89.92L363.85,74.03L355.38,65.93L346.92,56.9L338.46,53.96L330,51.92L321.54,44.99L313.08,49.16L304.62,43.2L296.15,40.19L270.77,39.77L262.31,41.85L253.85,40.43L245.38,41.32L236.92,39.27L228.46,37.72L220,38.35L211.54,38.2L203.08,41.34L194.62,40.58L186.15,40.99L177.69,48.93L169.23,45.47L160.77,52.03L152.31,55.63L143.85,62.76L135.38,66.93L126.92,66.67L118.46,67.33L110,82.47L93.08,78.42L84.62,92.86L76.15,98.82L67.69,110.26L59.23,111.61L50.77,134.45L42.31,131.33L33.85,134.9L16.92,137.48L8.46,153.63L0,132.88Z" style="fill: rgb(90, 180, 172); fill-opacity: 1; stroke-width: 0;"/></g></g><g class="errorbars"/><g class="lines"><path class="js-line" d="M0,132.88L8.46,153.63L16.92,137.48L33.85,134.9L42.31,131.33L50.77,134.45L59.23,111.61L67.69,110.26L76.15,98.82L84.62,92.86L93.08,78.42L110,82.47L118.46,67.33L126.92,66.67L135.38,66.93L143.85,62.76L152.31,55.63L160.77,52.03L169.23,45.47L177.69,48.93L186.15,40.99L194.62,40.58L203.08,41.34L211.54,38.2L220,38.35L228.46,37.72L236.92,39.27L245.38,41.32L253.85,40.43L262.31,41.85L270.77,39.77L296.15,40.19L304.62,43.2L313.08,49.16L321.54,44.99L330,51.92L338.46,53.96L346.92,56.9L355.38,65.93L363.85,74.03L372.31,89.92L380.77,100.62L389.23,107.78L397.69,110.2L406.15,122.25L414.62,132.67L423.08,138.22L431.54,134.68L440,146.86" style="vector-effect: non-scaling-stroke; fill: none; stroke: rgb(0, 0, 0); stroke-opacity: 1; stroke-width: 0.25px; opacity: 1;"/></g><g class="points"/><g class="text"/></g><g class="trace scatter trace3b7da2" style="stroke-miterlimit: 2;"><g class="fills"><g><path class="js-fill" d="M0,123.05L8.46,128.74L16.92,120.16L25.38,118.76L33.85,115.38L42.31,102.46L50.77,96.88L59.23,88.44L67.69,78.82L76.15,73.77L84.62,67.74L93.08,57.78L101.54,51.9L118.46,53.11L126.92,50.38L135.38,48.41L143.85,51.77L152.31,44.2L160.77,40.25L169.23,38.92L177.69,36.71L186.15,35.12L194.62,34.48L203.08,34.46L211.54,35.44L220,34.38L228.46,34.7L236.92,34.36L245.38,36.09L253.85,36.62L262.31,34.46L296.15,37.11L304.62,38.73L313.08,37.78L321.54,38.63L330,39.01L338.46,41.32L346.92,48.89L355.38,52.77L363.85,63.45L372.31,65.68L397.69,95.83L406.15,101.27L414.62,107.85L423.08,113.42L431.54,119.87L440,128.92L440,139.97L431.54,126.64L423.08,123.51L414.62,112.5L406.15,109.59L397.69,101.69L389.23,92.55L380.77,85.57L372.31,73.15L363.85,66.28L355.38,56.34L346.92,51L330,43.51L321.54,42.63L296.15,38.35L287.69,37.49L279.23,37.84L270.77,36.75L262.31,36.93L253.85,37L245.38,38.46L236.92,36.15L228.46,36.94L220,36.05L186.15,36.66L177.69,39.98L169.23,40.36L160.77,43.94L152.31,49.14L143.85,56.35L126.92,55.15L118.46,61L110,64L101.54,62.39L93.08,64.12L84.62,80.35L76.15,81.94L67.69,86.33L59.23,99.83L50.77,111.13L42.31,114.66L33.85,122.61L16.92,127.82L8.46,136.81L0,127.46Z" style="fill: rgb(245, 245, 245); fill-opacity: 1; stroke-width: 0;"/></g></g><g class="errorbars"/><g class="lines"><path class="js-line" d="M0,127.46L8.46,136.81L16.92,127.82L33.85,122.61L42.31,114.66L50.77,111.13L59.23,99.83L67.69,86.33L76.15,81.94L84.62,80.35L93.08,64.12L101.54,62.39L110,64L118.46,61L126.92,55.15L143.85,56.35L152.31,49.14L160.77,43.94L169.23,40.36L177.69,39.98L186.15,36.66L220,36.05L228.46,36.94L236.92,36.15L245.38,38.46L253.85,37L262.31,36.93L270.77,36.75L279.23,37.84L287.69,37.49L296.15,38.35L321.54,42.63L330,43.51L346.92,51L355.38,56.34L363.85,66.28L372.31,73.15L380.77,85.57L389.23,92.55L397.69,101.69L406.15,109.59L414.62,112.5L423.08,123.51L431.54,126.64L440,139.97" style="vector-effect: non-scaling-stroke; fill: none; stroke: rgb(0, 0, 0); stroke-opacity: 1; stroke-width: 0.5px; opacity: 1;"/></g><g class="points"/><g class="text"/></g><g class="trace scatter tracee6f674" style="stroke-miterlimit: 2;"><g class="fills"><g><path class="js-fill" d="M0,116.32L8.46,121.38L16.92,117.14L25.38,111.83L33.85,109.28L42.31,96.65L50.77,87.74L59.23,77.81L67.69,66.11L76.15,64.51L84.62,58.74L93.08,50.76L101.54,45.93L110,46.3L118.46,40.63L126.92,37.23L135.38,42.55L143.85,43.08L152.31,38.62L160.77,36.46L169.23,35.85L177.69,33.51L186.15,32.01L194.62,31.42L203.08,31.73L236.92,32.25L245.38,34.35L262.31,31.41L270.77,33.83L279.23,32.77L287.69,34.61L296.15,35.44L304.62,37.57L330,33.17L338.46,37.15L346.92,43.68L355.38,48.65L363.85,57.14L372.31,60.02L380.77,70.92L389.23,79.16L406.15,98.46L414.62,97.61L423.08,104.59L431.54,115.4L440,120.35L440,128.92L431.54,119.87L423.08,113.42L414.62,107.85L406.15,101.27L397.69,95.83L372.31,65.68L363.85,63.45L355.38,52.77L346.92,48.89L338.46,41.32L330,39.01L321.54,38.63L313.08,37.78L304.62,38.73L296.15,37.11L262.31,34.46L253.85,36.62L245.38,36.09L236.92,34.36L228.46,34.7L220,34.38L211.54,35.44L203.08,34.46L194.62,34.48L186.15,35.12L177.69,36.71L169.23,38.92L160.77,40.25L152.31,44.2L143.85,51.77L135.38,48.41L126.92,50.38L118.46,53.11L101.54,51.9L93.08,57.78L84.62,67.74L76.15,73.77L67.69,78.82L59.23,88.44L50.77,96.88L42.31,102.46L33.85,115.38L25.38,118.76L16.92,120.16L8.46,128.74L0,123.05Z" style="fill: rgb(245, 245, 245); fill-opacity: 1; stroke-width: 0;"/></g></g><g class="errorbars"/><g class="lines"><path class="js-line" d="M0,123.05L8.46,128.74L16.92,120.16L25.38,118.76L33.85,115.38L42.31,102.46L50.77,96.88L59.23,88.44L67.69,78.82L76.15,73.77L84.62,67.74L93.08,57.78L101.54,51.9L118.46,53.11L126.92,50.38L135.38,48.41L143.85,51.77L152.31,44.2L160.77,40.25L169.23,38.92L177.69,36.71L186.15,35.12L194.62,34.48L203.08,34.46L211.54,35.44L220,34.38L228.46,34.7L236.92,34.36L245.38,36.09L253.85,36.62L262.31,34.46L296.15,37.11L304.62,38.73L313.08,37.78L321.54,38.63L330,39.01L338.46,41.32L346.92,48.89L355.38,52.77L363.85,63.45L372.31,65.68L397.69,95.83L406.15,101.27L414.62,107.85L423.08,113.42L431.54,119.87L440,128.92" style="vector-effect: non-scaling-stroke; fill: none; stroke: rgb(0, 0, 0); stroke-opacity: 1; stroke-width: 1px; opacity: 1;"/></g><g class="points"/><g class="text"/></g><g class="trace scatter traceb14a28" style="stroke-miterlimit: 2;"><g class="fills"><g><path class="js-fill" d="M0,106.19L8.46,105.96L16.92,104.48L33.85,89.99L42.31,84.81L50.77,56.97L59.23,59.41L67.69,54.34L76.15,43.5L84.62,49.34L93.08,40.34L101.54,36.33L110,28.13L126.92,24.19L135.38,25.2L143.85,30.78L152.31,23.41L160.77,30.45L169.23,30.69L177.69,28.97L186.15,29.77L194.62,24.15L203.08,26.1L211.54,26.55L220,24.72L236.92,29.04L245.38,29.18L253.85,31.27L262.31,26.37L270.77,29.56L279.23,26.23L287.69,33.56L296.15,32.72L304.62,34.09L313.08,31.73L330,27.11L338.46,32.58L346.92,36.03L355.38,44.04L363.85,51.81L372.31,55.07L380.77,61.77L389.23,71.71L397.69,78.37L406.15,82.97L414.62,84.14L423.08,93.99L431.54,104.97L440,102.77L440,120.35L431.54,115.4L423.08,104.59L414.62,97.61L406.15,98.46L389.23,79.16L380.77,70.92L372.31,60.02L363.85,57.14L355.38,48.65L346.92,43.68L338.46,37.15L330,33.17L304.62,37.57L296.15,35.44L287.69,34.61L279.23,32.77L270.77,33.83L262.31,31.41L245.38,34.35L236.92,32.25L203.08,31.73L194.62,31.42L186.15,32.01L177.69,33.51L169.23,35.85L160.77,36.46L152.31,38.62L143.85,43.08L135.38,42.55L126.92,37.23L118.46,40.63L110,46.3L101.54,45.93L93.08,50.76L84.62,58.74L76.15,64.51L67.69,66.11L59.23,77.81L50.77,87.74L42.31,96.65L33.85,109.28L25.38,111.83L16.92,117.14L8.46,121.38L0,116.32Z" style="fill: rgb(216, 179, 101); fill-opacity: 1; stroke-width: 0;"/></g></g><g class="errorbars"/><g class="lines"><path class="js-line" d="M0,116.32L8.46,121.38L16.92,117.14L25.38,111.83L33.85,109.28L42.31,96.65L50.77,87.74L59.23,77.81L67.69,66.11L76.15,64.51L84.62,58.74L93.08,50.76L101.54,45.93L110,46.3L118.46,40.63L126.92,37.23L135.38,42.55L143.85,43.08L152.31,38.62L160.77,36.46L169.23,35.85L177.69,33.51L186.15,32.01L194.62,31.42L203.08,31.73L236.92,32.25L245.38,34.35L262.31,31.41L270.77,33.83L279.23,32.77L287.69,34.61L296.15,35.44L304.62,37.57L330,33.17L338.46,37.15L346.92,43.68L355.38,48.65L363.85,57.14L372.31,60.02L380.77,70.92L389.23,79.16L406.15,98.46L414.62,97.61L423.08,104.59L431.54,115.4L440,120.35" style="vector-effect: non-scaling-stroke; fill: none; stroke: rgb(0, 0, 0); stroke-opacity: 1; stroke-width: 0.5px; opacity: 1;"/></g><g class="points"/><g class="text"/></g><g class="trace scatter tracee719e1" style="stroke-miterlimit: 2;"><g class="fills"/><g class="errorbars"/><g class="lines"><path class="js-line" d="M0,106.19L8.46,105.96L16.92,104.48L33.85,89.99L42.31,84.81L50.77,56.97L59.23,59.41L67.69,54.34L76.15,43.5L84.62,49.34L93.08,40.34L101.54,36.33L110,28.13L126.92,24.19L135.38,25.2L143.85,30.78L152.31,23.41L160.77,30.45L169.23,30.69L177.69,28.97L186.15,29.77L194.62,24.15L203.08,26.1L211.54,26.55L220,24.72L236.92,29.04L245.38,29.18L253.85,31.27L262.31,26.37L270.77,29.56L279.23,26.23L287.69,33.56L296.15,32.72L304.62,34.09L313.08,31.73L330,27.11L338.46,32.58L346.92,36.03L355.38,44.04L363.85,51.81L372.31,55.07L380.77,61.77L389.23,71.71L397.69,78.37L406.15,82.97L414.62,84.14L423.08,93.99L431.54,104.97L440,102.77" style="vector-effect: non-scaling-stroke; fill: none; stroke: rgb(0, 0, 0); stroke-opacity: 1; stroke-width: 0.25px; opacity: 1;"/></g><g class="points"/><g class="text"/></g><g class="trace scatter traceb37ec6" style="stroke-miterlimit: 2; opacity: 1;"><g class="fills"/><g class="errorbars"/><g class="lines"/><g class="points"><path class="point" transform="translate(253.85,29.76)" d="M4,0A4,4 0 1,1 0,-4A4,4 0 0,1 4,0ZM0,0.5L0.5,0L0,-0.5L-0.5,0Z" style="opacity: 1; stroke: rgb(0, 0, 0); stroke-opacity: 1; stroke-width: 1px; fill: none;"/><path class="point" transform="translate(262.31,44.64)" d="M4,0A4,4 0 1,1 0,-4A4,4 0 0,1 4,0ZM0,0.5L0.5,0L0,-0.5L-0.5,0Z" style="opacity: 1; stroke: rgb(0, 0, 0); stroke-opacity: 1; stroke-width: 1px; fill: none;"/><path class="point" transform="translate(270.77,37.2)" d="M4,0A4,4 0 1,1 0,-4A4,4 0 0,1 4,0ZM0,0.5L0.5,0L0,-0.5L-0.5,0Z" style="opacity: 1; stroke: rgb(0, 0, 0); stroke-opacity: 1; stroke-width: 1px; fill: none;"/><path class="point" transform="translate(279.23,37.2)" d="M4,0A4,4 0 1,1 0,-4A4,4 0 0,1 4,0ZM0,0.5L0.5,0L0,-0.5L-0.5,0Z" style="opacity: 1; stroke: rgb(0, 0, 0); stroke-opacity: 1; stroke-width: 1px; fill: none;"/></g><g class="text"/></g></g></g><g class="overplot"/><path class="xlines-above crisp" d="M0,0" style="fill: none;"/><path class="ylines-above crisp" d="M0,0" style="fill: none;"/><g class="overlines-above"/><g class="xaxislayer-above"><g class="x3tick"><text text-anchor="middle" x="0" y="733" transform="translate(156.15,0)" style="font-family: 'Open Sans', verdana, arial, sans-serif; font-size: 12px; fill: rgb(42, 63, 95); fill-opacity: 1; white-space: pre; opacity: 1;">10</text></g><g class="x3tick"><text text-anchor="middle" x="0" y="733" style="font-family: 'Open Sans', verdana, arial, sans-serif; font-size: 12px; fill: rgb(42, 63, 95); fill-opacity: 1; white-space: pre; opacity: 1;" transform="translate(240.77,0)">20</text></g><g class="x3tick"><text text-anchor="middle" x="0" y="733" style="font-family: 'Open Sans', verdana, arial, sans-serif; font-size: 12px; fill: rgb(42, 63, 95); fill-opacity: 1; white-space: pre; opacity: 1;" transform="translate(325.38,0)">30</text></g><g class="x3tick"><text text-anchor="middle" x="0" y="733" style="font-family: 'Open Sans', verdana, arial, sans-serif; font-size: 12px; fill: rgb(42, 63, 95); fill-opacity: 1; white-space: pre; opacity: 1;" transform="translate(410,0)">40</text></g><g class="x3tick"><text text-anchor="middle" x="0" y="733" style="font-family: 'Open Sans', verdana, arial, sans-serif; font-size: 12px; fill: rgb(42, 63, 95); fill-opacity: 1; white-space: pre; opacity: 1;" transform="translate(494.62,0)">50</text></g></g><g class="yaxislayer-above"><g class="y3tick"><text text-anchor="end" x="79" y="4.199999999999999" transform="translate(0,720)" style="font-family: 'Open Sans', verdana, arial, sans-serif; font-size: 12px; fill: rgb(42, 63, 95); fill-opacity: 1; white-space: pre; opacity: 1;">5</text></g><g class="y3tick"><text text-anchor="end" x="79" y="4.199999999999999" style="font-family: 'Open Sans', verdana, arial, sans-serif; font-size: 12px; fill: rgb(42, 63, 95); fill-opacity: 1; white-space: pre; opacity: 1;" transform="translate(0,682.8)">10</text></g><g class="y3tick"><text text-anchor="end" x="79" y="4.199999999999999" style="font-family: 'Open Sans', verdana, arial, sans-serif; font-size: 12px; fill: rgb(42, 63, 95); fill-opacity: 1; white-space: pre; opacity: 1;" transform="translate(0,645.6)">15</text></g><g class="y3tick"><text text-anchor="end" x="79" y="4.199999999999999" style="font-family: 'Open Sans', verdana, arial, sans-serif; font-size: 12px; fill: rgb(42, 63, 95); fill-opacity: 1; white-space: pre; opacity: 1;" transform="translate(0,608.4)">20</text></g><g class="y3tick"><text text-anchor="end" x="79" y="4.199999999999999" style="font-family: 'Open Sans', verdana, arial, sans-serif; font-size: 12px; fill: rgb(42, 63, 95); fill-opacity: 1; white-space: pre; opacity: 1;" transform="translate(0,571.2)">25</text></g><g class="y3tick"><text text-anchor="end" x="79" y="4.199999999999999" style="font-family: 'Open Sans', verdana, arial, sans-serif; font-size: 12px; fill: rgb(42, 63, 95); fill-opacity: 1; white-space: pre; opacity: 1;" transform="translate(0,534)">30</text></g></g><g class="overaxes-above"/></g></g><g class="polarlayer"/><g class="smithlayer"/><g class="ternarylayer"/><g class="geolayer"/><g class="funnelarealayer"/><g class="pielayer"/><g class="iciclelayer"/><g class="treemaplayer"/><g class="sunburstlayer"/><g class="glimages"/><defs id="topdefs-f61be2"><g class="clips"/></defs><g class="layer-above"><g class="imagelayer"/><g class="shapelayer"/></g><g class="infolayer"><g class="g-gtitle"><text class="gtitle" x="30" y="50" text-anchor="start" dy="0em" style="font-family: 'Open Sans', verdana, arial, sans-serif; font-size: 17px; fill: rgb(42, 63, 95); opacity: 1; font-weight: normal; white-space: pre;">Climatology and S2S forecast for Chapainawabganj</text></g><g class="g-xtitle"/><g class="g-x2title"/><g class="g-x3title"/><g class="g-ytitle"><text class="ytitle" transform="rotate(-90,34.16875,193)" x="34.16875" y="193" text-anchor="middle" style="font-family: 'Open Sans', verdana, arial, sans-serif; font-size: 14px; fill: rgb(42, 63, 95); opacity: 1; font-weight: normal; white-space: pre;">[mm]</text></g><g class="g-y2title"><text class="y2title" transform="rotate(-90,40.840625,410.00000000000006)" x="40.840625" y="410.00000000000006" text-anchor="middle" style="font-family: 'Open Sans', verdana, arial, sans-serif; font-size: 14px; fill: rgb(42, 63, 95); opacity: 1; font-weight: normal; white-space: pre;">[C]</text></g><g class="g-y3title"><text class="y3title" transform="rotate(-90,40.840625,627)" x="40.840625" y="627" text-anchor="middle" style="font-family: 'Open Sans', verdana, arial, sans-serif; font-size: 14px; fill: rgb(42, 63, 95); opacity: 1; font-weight: normal; white-space: pre;">[C]</text></g><g class="annotation" data-index="0" style="opacity: 1;"><g class="annotation-text-g" transform="rotate(0,300,89.5)"><g class="cursor-pointer" transform="translate(237,79)"><rect class="bg" x="0.5" y="0.5" width="126" height="20" style="stroke-width: 1px; stroke: rgb(0, 0, 0); stroke-opacity: 0; fill: rgb(0, 0, 0); fill-opacity: 0;"/><text class="annotation-text" text-anchor="middle" x="63.359375" y="16" style="font-family: 'Open Sans', verdana, arial, sans-serif; font-size: 16px; fill: rgb(42, 63, 95); fill-opacity: 1; white-space: pre;">Precipitation sum</text></g></g></g><g class="annotation" data-index="1" style="opacity: 1;"><g class="annotation-text-g" transform="rotate(0,300,306.50000000000006)"><g class="cursor-pointer" transform="translate(196,296)"><rect class="bg" x="0.5" y="0.5" width="208" height="20" style="stroke-width: 1px; stroke: rgb(0, 0, 0); stroke-opacity: 0; fill: rgb(0, 0, 0); fill-opacity: 0;"/><text class="annotation-text" text-anchor="middle" x="104.265625" y="16" style="font-family: 'Open Sans', verdana, arial, sans-serif; font-size: 16px; fill: rgb(42, 63, 95); fill-opacity: 1; white-space: pre;">Mean maximum temperature</text></g></g></g><g class="annotation" data-index="2" style="opacity: 1;"><g class="annotation-text-g" transform="rotate(0,300,523.5)"><g class="cursor-pointer" transform="translate(198,513)"><rect class="bg" x="0.5" y="0.5" width="203" height="20" style="stroke-width: 1px; stroke: rgb(0, 0, 0); stroke-opacity: 0; fill: rgb(0, 0, 0); fill-opacity: 0;"/><text class="annotation-text" text-anchor="middle" x="102.046875" y="16" style="font-family: 'Open Sans', verdana, arial, sans-serif; font-size: 16px; fill: rgb(42, 63, 95); fill-opacity: 1; white-space: pre;">Mean minimum temperature</text></g></g></g><g class="annotation" data-index="3" style="opacity: 1;"><g class="annotation-text-g" transform="rotate(0,300,760.5)"><g class="cursor-pointer" transform="translate(277,750)"><rect class="bg" x="0.5" y="0.5" width="45" height="20" style="stroke-width: 1px; stroke: rgb(0, 0, 0); stroke-opacity: 0; fill: rgb(0, 0, 0); fill-opacity: 0;"/><text class="annotation-text" text-anchor="middle" x="22.3125" y="16" style="font-family: 'Open Sans', verdana, arial, sans-serif; font-size: 16px; fill: rgb(42, 63, 95); fill-opacity: 1; white-space: pre;">Week</text></g></g></g></g></svg>