<svg class="main-svg" xmlns="http://www.w3.org/2000/svg" xmlns:xlink="http://www.w3.org/1999/xlink" width="600" height="800" style="" viewBox="0 0 600 800"><rect x="0" y="0" width="600" height="800" style="fill: rgb(255, 255, 255); fill-opacity: 1;"/><defs id="defs-4613cb"><g class="clips"><clipPath id="clip4613cbxyplot" class="plotclip"><rect width="440" height="186.00000000000003"/></clipPath><clipPath id="clip4613cbx2y2plot" class="plotclip"><rect width="440" height="185.99999999999997"/></clipPath><clipPath id="clip4613cbx3y3plot" class="plotclip"><rect width="440" height="186"/></clipPath><clipPath class="axesclip" id="clip4613cbx"><rect x="80" y="0" width="440" height="800"/></clipPath><clipPath class="axesclip" id="clip4613cby"><rect x="0" y="100" width="600" height="186.00000000000003"/></clipPath><clipPath class="axesclip" id="clip4613cbxy"><rect x="80" y="100" width="440" height="186.00000000000003"/></clipPath><clipPath class="axesclip" id="clip4613cby2"><rect x="0" y="317.00000000000006" width="600" height="185.99999999999997"/></clipPath><clipPath class="axesclip" id="clip4613cbxy2"><rect x="80" y="317.00000000000006" width="440" height="185.99999999999997"/></clipPath><clipPath class="axesclip" id="clip4613cby3"><rect x="0" y="534" width="600" height="186"/></clipPath><clipPath class="axesclip" id="clip4613cbxy3"><rect x="80" y="534" width="440" height="186"/></clipPath><clipPath class="axesclip" id="clip4613cbx2"><rect x="80" y="0" width="440" height="800"/></clipPath><clipPath class="axesclip" id="clip4613cbx2y"><rect x="80" y="100" width="440" height="186.00000000000003"/></clipPath><clipPath class="axesclip" id="clip4613cbx2y2"><rect x="80" y="317.00000000000006" width="440" height="185.99999999999997"/></clipPath><clipPath class="axesclip" id="clip4613cbx2y3"><rect x="80" y="534" width="440" height="186"/></clipPath><clipPath class="axesclip" id="clip4613cbx3"><rect x="80" y="0" width="440" height="800"/></clipPath><clipPath class="axesclip" id="clip4613cbx3y"><rect x="80" y="100" width="440" height="186.00000000000003"/></clipPath><clipPath class="axesclip" id="clip4613cbx3y2"><rect x="80" y="317.00000000000006" width="440" height="185.99999999999997"/></clipPath><clipPath class="axesclip" id="clip4613cbx3y3"><rect x="80" y="534" width="440" height="186"/></clipPath></g><g class="gradients"/><g class="patterns"/></defs><g class="bglayer"><rect class="bg" x="80" y="100" width="440" height="186.00000000000003" style="fill: rgb(229, 236, 246); fill-opacity: 1; stroke-width: 0;"/><rect class="bg" x="80" y="317.00000000000006" width="440" height="185.99999999999997" style="fill: rgb(229, 236, 246); fill-opacity: 1; stroke-width: 0;"/><rect class="bg" x="80" y="534" width="440" height="186" style="fill: rgb(229, 236, 246); fill-opacity: 1; stroke-width: 0;"/></g><g class="layer-below"><g class="imagelayer"/><g class="shapelayer"/></g><g class="cartesianlayer"><g class="subplot xy"><g class="layer-subplot"><g class="shapelayer"/><g class="imagelayer"/></g><g class="minor-gridlayer"><g class="x"/><g class="y"/></g><g class="gridlayer"><g class="x"><path class="xgrid crisp" transform="translate(156.15,0)" d="M0,100v186.00000000000003" style="stroke: rgb(255, 255, 255); stroke-opacity: 1; stroke-width: 1px;"/><path class="xgrid crisp" transform="translate(240.77,0)" d="M0,100v186.00000000000003" style="stroke: rgb(255, 255, 255); stroke-opacity: 1; stroke-width: 1px;"/><path class="xgrid crisp" transform="translate(325.38,0)" d="M0,100v186.00000000000003" style="stroke: rgb(255, 255, 255); stroke-opacity: 1; stroke-width: 1px;"/><path class="xgrid crisp" transform="translate(410,0)" d="M0,100v186.00000000000003" style="stroke: rgb(255, 255, 255); stroke-opacity: 1; stroke-width: 1px;"/><path class="xgrid crisp" transform="translate(494.62,0)" d="M0,100v186.00000000000003" style="stroke: rgb(255, 255, 255); stroke-opacity: 1; stroke-width: 1px;"/></g><g class="y"><path class="ygrid crisp" transform="translate(0,248.8)" d="M80,0h440" style="stroke: rgb(255, 255, 255); stroke-opacity: 1; stroke-width: 1px;"/><path class="ygrid crisp" transform="translate(0,211.6)" d="M80,0h440" style="stroke: rgb(255, 255, 255); stroke-opacity: 1; stroke-width: 1px;"/><path class="ygrid crisp" transform="translate(0,174.4)" d="M80,0h440" style="stroke: rgb(255, 255, 255); stroke-opacity: 1; stroke-width: 1px;"/><path class="ygrid crisp" transform="translate(0,137.2)" d="M80,0h440" style="stroke: rgb(255, 255, 255); stroke-opacity: 1; stroke-width: 1px;"/></g></g><g class="zerolinelayer"><path class="yzl zl crisp" transform="translate(0,286)" d="M80,0h440" style="stroke: rgb(255, 255, 255); stroke-opacity: 1; stroke-width: 2px;"/></g><path class="xlines-below"/><path class="ylines-below"/><g class="overlines-below"/><g class="xaxislayer-below"/><g class="yaxislayer-below"/><g class="overaxes-below"/><g class="plot" transform="translate(80,100)" clip-path="url(#clip4613cbxyplot)"><g class="scatterlayer mlayer"><g class="trace scatter tracecac314" style="stroke-miterlimit: 2;"><g class="fills"><g><path class="js-fill" d="M0,186L126.92,186L135.38,176.33L143.85,170.75L152.31,175.03L160.77,165.91L169.23,169.45L177.69,173.72L186.15,161.82L194.62,170.19L203.08,162.38L211.54,165.17L220,154.57L228.46,164.05L236.92,156.8L245.38,166.47L253.85,159.78L262.31,160.7L270.77,159.03L279.23,164.42L287.69,176.14L296.15,170.75L304.62,170.56L313.08,163.46L321.54,173.54L330,182.09L338.46,181.27L346.92,185.12L355.38,186L440,186L440,186L330,186L321.54,185.26L313.08,173.35L304.62,186L296.15,186L287.69,184.51L270.77,182.28L262.31,183.02L253.85,180.79L245.38,186L236.92,180.05L228.46,179.3L220,185.1L211.54,186L203.08,182.28L194.62,185.26L0,186Z" style="fill: rgb(224, 236, 244); fill-opacity: 1; stroke-width: 0;"/></g></g><g class="errorbars"/><g class="lines"><path class="js-line" d="M0,186L194.62,185.26L203.08,182.28L211.54,186L220,185.1L228.46,179.3L236.92,180.05L245.38,186L253.85,180.79L262.31,183.02L270.77,182.28L287.69,184.51L296.15,186L304.62,186L313.08,173.35L321.54,185.26L330,186L440,186" style="vector-effect: non-scaling-stroke; fill: none; stroke: rgb(0, 0, 0); stroke-opacity: 1; stroke-width: 0.25px; opacity: 1;"/></g><g class="points"/><g class="text"/></g><g class="trace scatter trace0c0261" style="stroke-miterlimit: 2;"><g class="fills"><g><path class="js-fill" d="M0,186L93.08,186L101.54,182.28L110,172.98L118.46,182.95L126.92,183.02L135.38,172.98L143.85,157.36L152.31,166.28L160.77,149.92L169.23,155.87L177.69,160.7L186.15,143.59L194.62,149.54L203.08,149.17L211.54,141.36L220,145.82L228.46,143.96L236.92,140.24L245.38,139.5L253.85,141.36L262.31,143.59L270.77,137.64L279.23,155.5L287.69,162.94L296.15,152.15L304.62,157.73L313.08,154.38L321.54,162.56L330,172.97L338.46,170.38L346.92,173.35L355.38,186L372.31,186L380.77,186L440,186L440,186L355.38,186L346.92,185.12L338.46,181.27L330,182.09L321.54,173.54L313.08,163.46L304.62,170.56L296.15,170.75L287.69,176.14L279.23,164.42L270.77,159.03L262.31,160.7L253.85,159.78L245.38,166.47L236.92,156.8L228.46,164.05L220,154.57L211.54,165.17L203.08,162.38L194.62,170.19L186.15,161.82L177.69,173.72L169.23,169.45L160.77,165.91L152.31,175.03L143.85,170.75L135.38,176.33L126.92,186L0,186Z" style="fill: rgb(158, 188, 218); fill-opacity: 1; stroke-width: 0;"/></g></g><g class="errorbars"/><g class="lines"><path class="js-line" d="M0,186L126.92,186L135.38,176.33L143.85,170.75L152.31,175.03L160.77,165.91L169.23,169.45L177.69,173.72L186.15,161.82L194.62,170.19L203.08,162.38L211.54,165.17L220,154.57L228.46,164.05L236.92,156.8L245.38,166.47L253.85,159.78L262.31,160.7L270.77,159.03L279.23,164.42L287.69,176.14L296.15,170.75L304.62,170.56L313.08,163.46L321.54,173.54L330,182.09L338.46,181.27L346.92,185.12L355.38,186L440,186" style="vector-effect: non-scaling-stroke; fill: none; stroke: rgb(0, 0, 0); stroke-opacity: 1; stroke-width: 0.5px; opacity: 1;"/></g><g class="points"/><g class="text"/></g><g class="trace scatter trace5158e0" style="stroke-miterlimit: 2;"><g class="fills"><g><path class="js-fill" d="M0,186L42.31,186L50.77,184.7L59.23,183.21L67.69,185.26L76.15,184.88L84.62,185.44L93.08,183.77L101.54,172.58L110,165.86L118.46,164.42L126.92,164.24L135.38,165.91L143.85,146.88L152.31,143.4L160.77,135.41L169.23,132.25L177.69,130.35L186.15,110.7L194.62,116.44L203.08,110.11L211.54,101.37L220,120.53L228.46,117.18L236.92,101.74L245.38,125.18L253.85,117L262.31,132.62L270.77,125.92L279.23,139.31L287.69,148.61L296.15,141.55L304.62,142.85L313.08,139.31L321.54,156.61L330,153.82L338.46,146.57L346.92,152.71L355.38,159.9L363.85,182.65L372.31,183.21L380.77,183.75L389.23,186L440,186L440,186L380.77,186L372.31,186L355.38,186L346.92,173.35L338.46,170.38L330,172.97L321.54,162.56L313.08,154.38L304.62,157.73L296.15,152.15L287.69,162.94L279.23,155.5L270.77,137.64L262.31,143.59L253.85,141.36L245.38,139.5L236.92,140.24L228.46,143.96L220,145.82L211.54,141.36L203.08,149.17L194.62,149.54L186.15,143.59L177.69,160.7L169.23,155.87L160.77,149.92L152.31,166.28L143.85,157.36L135.38,172.98L126.92,183.02L118.46,182.95L110,172.98L101.54,182.28L93.08,186L0,186Z" style="fill: rgb(158, 188, 218); fill-opacity: 1; stroke-width: 0;"/></g></g><g class="errorbars"/><g class="lines"><path class="js-line" d="M0,186L93.08,186L101.54,182.28L110,172.98L118.46,182.95L126.92,183.02L135.38,172.98L143.85,157.36L152.31,166.28L160.77,149.92L169.23,155.87L177.69,160.7L186.15,143.59L194.62,149.54L203.08,149.17L211.54,141.36L220,145.82L228.46,143.96L236.92,140.24L245.38,139.5L253.85,141.36L262.31,143.59L270.77,137.64L279.23,155.5L287.69,162.94L296.15,152.15L304.62,157.73L313.08,154.38L321.54,162.56L330,172.97L338.46,170.38L346.92,173.35L355.38,186L372.31,186L380.77,186L440,186" style="vector-effect: non-scaling-stroke; fill: none; stroke: rgb(0, 0, 0); stroke-opacity: 1; stroke-width: 1px; opacity: 1;"/></g><g class="points"/><g class="text"/></g><g class="trace scatter traceec79cf" style="stroke-miterlimit: 2;"><g class="fills"><g><path class="js-fill" d="M0,186L42.31,186L50.77,184.51L59.23,181.53L67.69,184.51L76.15,183.77L84.62,185.26L93.08,182.28L101.54,159.21L110,164.42L118.46,143.59L126.92,145.08L135.38,161.45L152.31,100.44L160.77,104.16L169.23,101.19L177.69,74.4L186.15,38.69L194.62,67.7L203.08,84.07L211.54,8.18L220,120.53L228.46,66.96L236.92,65.47L245.38,83.33L253.85,55.05L262.31,130.94L270.77,83.33L279.23,123.5L287.69,107.88L296.15,109.37L304.62,113.83L313.08,123.22L321.54,144.33L330,123.5L338.46,109.37L346.92,124.99L355.38,130.94L363.85,182.28L380.77,182.99L389.23,186L440,186L440,186L389.23,186L380.77,183.75L372.31,183.21L363.85,182.65L355.38,159.9L346.92,152.71L338.46,146.57L330,153.82L321.54,156.61L313.08,139.31L304.62,142.85L296.15,141.55L287.69,148.61L279.23,139.31L270.77,125.92L262.31,132.62L253.85,117L245.38,125.18L236.92,101.74L228.46,117.18L220,120.53L211.54,101.37L203.08,110.11L194.62,116.44L186.15,110.7L177.69,130.35L169.23,132.25L160.77,135.41L152.31,143.4L143.85,146.88L135.38,165.91L126.92,164.24L118.46,164.42L110,165.86L101.54,172.58L93.08,183.77L84.62,185.44L76.15,184.88L67.69,185.26L59.23,183.21L50.77,184.7L42.31,186L0,186Z" style="fill: rgb(136, 86, 167); fill-opacity: 1; stroke-width: 0;"/></g></g><g class="errorbars"/><g class="lines"><path class="js-line" d="M0,186L42.31,186L50.77,184.7L59.23,183.21L67.69,185.26L76.15,184.88L84.62,185.44L93.08,183.77L101.54,172.58L110,165.86L118.46,164.42L126.92,164.24L135.38,165.91L143.85,146.88L152.31,143.4L160.77,135.41L169.23,132.25L177.69,130.35L186.15,110.7L194.62,116.44L203.08,110.11L211.54,101.37L220,120.53L228.46,117.18L236.92,101.74L245.38,125.18L253.85,117L262.31,132.62L270.77,125.92L279.23,139.31L287.69,148.61L296.15,141.55L304.62,142.85L313.08,139.31L321.54,156.61L330,153.82L338.46,146.57L346.92,152.71L355.38,159.9L363.85,182.65L372.31,183.21L380.77,183.75L389.23,186L440,186" style="vector-effect: non-scaling-stroke; fill: none; stroke: rgb(0, 0, 0); stroke-opacity: 1; stroke-width: 0.5px; opacity: 1;"/></g><g class="points"/><g class="text"/></g><g class="trace scatter tracea046c5" style="stroke-miterlimit: 2;"><g class="fills"/><g class="errorbars"/><g class="lines"><path class="js-line" d="M0,186L42.31,186L50.77,184.51L59.23,181.53L67.69,184.51L76.15,183.77L84.62,185.26L93.08,182.28L101.54,159.21L110,164.42L118.46,143.59L126.92,145.08L135.38,161.45L152.31,100.44L160.77,104.16L169.23,101.19L177.69,74.4L186.15,38.69L194.62,67.7L203.08,84.07L211.54,8.18L220,120.53L228.46,66.96L236.92,65.47L245.38,83.33L253.85,55.05L262.31,130.94L270.77,83.33L279.23,123.5L287.69,107.88L296.15,109.37L304.62,113.83L313.08,123.22L321.54,144.33L330,123.5L338.46,109.37L346.92,124.99L355.38,130.94L363.85,182.28L380.77,182.99L389.23,186L440,186" style="vector-effect: non-scaling-stroke; fill: none; stroke: rgb(0, 0, 0); stroke-opacity: 1; stroke-width: 0.25px; opacity: 1;"/></g><g class="points"/><g class="text"/></g><g class="trace scatter tracefca88f" style="stroke-miterlimit: 2; opacity: 1;"><g class="fills"/><g class="errorbars"/><g class="lines"/><g class="points"><path class="point" transform="translate(169.23,142.1)" d="M4,0A4,4 0 1,1 0,-4A4,4 0 0,1 4,0ZM0,0.5L0.5,0L0,-0.5L-0.5,0Z" style="opacity: 1; stroke: rgb(0, 0, 0); stroke-opacity: 1; stroke-width: 1px; fill: none;"/><path class="point" transform="translate(177.69,158.47)" d="M4,0A4,4 0 1,1 0,-4A4,4 0 0,1 4,0ZM0,0.5L0.5,0L0,-0.5L-0.5,0Z" style="opacity: 1; stroke: rgb(0, 0, 0); stroke-opacity: 1; stroke-width: 1px; fill: none;"/><path class="point" transform="translate(186.15,109.37)" d="M4,0A4,4 0 1,1 0,-4A4,4 0 0,1 4,0ZM0,0.5L0.5,0L0,-0.5L-0.5,0Z" style="opacity: 1; stroke: rgb(0, 0, 0); stroke-opacity: 1; stroke-width: 1px; fill: none;"/><path class="point" transform="translate(194.62,109.37)" d="M4,0A4,4 0 1,1 0,-4A4,4 0 0,1 4,0ZM0,0.5L0.5,0L0,-0.5L-0.5,0Z" style="opacity: 1; stroke: rgb(0, 0, 0); stroke-opacity: 1; stroke-width: 1px; fill: none;"/></g><g class="text"/></g></g></g><g class="overplot"/><path class="xlines-above crisp" d="M0,0" style="fill: none;"/><path class="ylines-above crisp" d="M0,0" style="fill: none;"/><g class="overlines-above"/><g class="xaxislayer-above"/><g class="yaxislayer-above"><g class="ytick"><text text-anchor="end" x="79" y="4.199999999999999" transform="translate(0,286)" style="font-family: 'Open Sans', verdana, arial, sans-serif; font-size: 12px; fill: rgb(42, 63, 95); fill-opacity: 1; white-space: pre; opacity: 1;">0</text></g><g class="ytick"><text text-anchor="end" x="79" y="4.199999999999999" style="font-family: 'Open Sans', verdana, arial, sans-serif; font-size: 12px; fill: rgb(42, 63, 95); fill-opacity: 1; white-space: pre; opacity: 1;" transform="translate(0,248.8)">50</text></g><g class="ytick"><text text-anchor="end" x="79" y="4.199999999999999" style="font-family: 'Open Sans', verdana, arial, sans-serif; font-size: 12px; fill: rgb(42, 63, 95); fill-opacity: 1; white-space: pre; opacity: 1;" transform="translate(0,211.6)">100</text></g><g class="ytick"><text text-anchor="end" x="79" y="4.199999999999999" style="font-family: 'Open Sans', verdana, arial, sans-serif; font-size: 12px; fill: rgb(42, 63, 95); fill-opacity: 1; white-space: pre; opacity: 1;" transform="translate(0,174.4)">150</text></g><g class="ytick"><text text-anchor="end" x="79" y="4.199999999999999" style="font-family: 'Open Sans', verdana, arial, sans-serif; font-size: 12px; fill: rgb(42, 63, 95); fill-opacity: 1; white-space: pre; opacity: 1;" transform="translate(0,137.2)">200</text></g><g class="ytick"><text text-anchor="end" x="79" y="4.199999999999999" style="font-family: 'Open Sans', verdana, arial, sans-serif; font-size: 12px; fill: rgb(42, 63, 95); fill-opacity: 1; white-space: pre; opacity: 1;" transform="translate(0,100)">250</text></g></g><g class="overaxes-above"/></g><g class="subplot x2y2"><g class="layer-subplot"><g class="shapelayer"/><g class="imagelayer"/></g><g class="minor-gridlayer"><g class="x2"/><g class="y2"/></g><g class="gridlayer"><g class="x2"><path class="x2grid crisp" transform="translate(156.15,0)" d="M0,317.00000000000006v185.99999999999997" style="stroke: rgb(255, 255, 255); stroke-opacity: 1; stroke-width: 1px;"/><path class="x2grid crisp" transform="translate(240.77,0)" d="M0,317.00000000000006v185.99999999999997" style="stroke: rgb(255, 255, 255); stroke-opacity: 1; stroke-width: 1px;"/><path class="x2grid crisp" transform="translate(325.38,0)" d="M0,317.00000000000006v185.99999999999997" style="stroke: rgb(255, 255, 255); stroke-opacity: 1; stroke-width: 1px;"/><path class="x2grid crisp" transform="translate(410,0)" d="M0,317.00000000000006v185.99999999999997" style="stroke: rgb(255, 255, 255); stroke-opacity: 1; stroke-width: 1px;"/><path class="x2grid crisp" transform="translate(494.62,0)" d="M0,317.00000000000006v185.99999999999997" style="stroke: rgb(255, 255, 255); stroke-opacity: 1; stroke-width: 1px;"/></g><g class="y2"><path class="y2grid crisp" transform="translate(0,472.00000000000006)" d="M80,0h440" style="stroke: rgb(255, 255, 255); stroke-opacity: 1; stroke-width: 1px;"/><path class="y2grid crisp" transform="translate(0,410.00000000000006)" d="M80,0h440" style="stroke: rgb(255, 255, 255); stroke-opacity: 1; stroke-width: 1px;"/><path class="y2grid crisp" transform="translate(0,348.00000000000006)" d="M80,0h440" style="stroke: rgb(255, 255, 255); stroke-opacity: 1; stroke-width: 1px;"/></g></g><g class="zerolinelayer"/><path class="xlines-below"/><path class="ylines-below"/><g class="overlines-below"/><g class="xaxislayer-below"/><g class="yaxislayer-below"/><g class="overaxes-below"/><g class="plot" transform="translate(80,317.00000000000006)" clip-path="url(#clip4613cbx2y2plot)"><g class="scatterlayer mlayer"><g class="trace scatter trace8d8083" style="stroke-miterlimit: 2;"><g class="fills"><g><path class="js-fill" d="M0,147.52L8.46,149.07L16.92,135.71L25.38,133.39L33.85,125.48L42.31,115.76L50.77,109.63L67.69,90.96L76.15,88.11L84.62,72.54L93.08,72.89L101.54,78.83L110,83.5L118.46,83.99L126.92,79.21L135.38,85L143.85,88.91L152.31,83.86L160.77,87.09L169.23,84.32L177.69,88.2L186.15,89.9L194.62,93.2L203.08,93.29L211.54,94.31L220,96.03L228.46,94.37L236.92,97.23L245.38,93.66L253.85,94.79L262.31,94.2L270.77,97.83L279.23,96.06L296.15,97.05L304.62,93.27L313.08,98.09L321.54,96.85L330,93.73L338.46,95.15L346.92,94.65L355.38,91.94L372.31,97.41L380.77,102.63L397.69,119.26L406.15,129.29L414.62,132.97L423.08,140.03L440,148.83L440,150.51L431.54,148.71L423.08,155.62L414.62,138.17L406.15,144.02L397.69,129.4L389.23,117.71L380.77,109.74L372.31,102.83L363.85,98.23L355.38,101.86L346.92,112.57L338.46,101.86L330,102.74L321.54,104.34L313.08,111.16L304.62,102.74L296.15,104.16L287.69,98.76L279.23,104.69L270.77,103.98L262.31,108.59L253.85,102.03L245.38,102.3L236.92,106.55L228.46,96.37L220,104.51L211.54,102.48L203.08,102.57L194.62,99.47L186.15,95.83L169.23,91.85L160.77,95.21L152.31,91.58L143.85,97.95L135.38,98.05L126.92,96.45L118.46,96.19L110,92.47L101.54,93.53L93.08,85.12L84.62,84.85L76.15,101.15L67.69,119.66L59.23,115.32L50.77,125.95L42.31,132.59L33.85,141.09L25.38,137.02L16.92,147.29L8.46,164.74L0,165.39Z" style="fill: rgb(145, 191, 219); fill-opacity: 1; stroke-width: 0;"/></g></g><g class="errorbars"/><g class="lines"><path class="js-line" d="M0,165.39L8.46,164.74L16.92,147.29L25.38,137.02L33.85,141.09L42.31,132.59L50.77,125.95L59.23,115.32L67.69,119.66L76.15,101.15L84.62,84.85L93.08,85.12L101.54,93.53L110,92.47L118.46,96.19L126.92,96.45L135.38,98.05L143.85,97.95L152.31,91.58L160.77,95.21L169.23,91.85L186.15,95.83L194.62,99.47L203.08,102.57L211.54,102.48L220,104.51L228.46,96.37L236.92,106.55L245.38,102.3L253.85,102.03L262.31,108.59L270.77,103.98L279.23,104.69L287.69,98.76L296.15,104.16L304.62,102.74L313.08,111.16L321.54,104.34L330,102.74L338.46,101.86L346.92,112.57L355.38,101.86L363.85,98.23L372.31,102.83L380.77,109.74L389.23,117.71L397.69,129.4L406.15,144.02L414.62,138.17L423.08,155.62L431.54,148.71L440,150.51" style="vector-effect: non-scaling-stroke; fill: none; stroke: rgb(0, 0, 0); stroke-opacity: 1; stroke-width: 0.25px; opacity: 1;"/></g><g class="points"/><g class="text"/></g><g class="trace scatter trace96d5a7" style="stroke-miterlimit: 2;"><g class="fills"><g><path class="js-fill" d="M0,136.92L8.46,141.01L16.92,132.46L25.38,128.65L33.85,121.21L42.31,108.28L50.77,101.33L59.23,89.63L67.69,80.42L76.15,77.06L84.62,66.34L93.08,61.03L101.54,67.18L110,75.58L118.46,69.17L126.92,72.15L135.38,76.22L143.85,82.55L152.31,74.92L160.77,79.58L169.23,79.87L177.69,81.88L186.15,84.81L203.08,88.39L211.54,91.38L228.46,89.72L236.92,93.22L245.38,91.14L253.85,91.27L262.31,89.5L270.77,90.39L279.23,89.15L287.69,91.18L296.15,93.27L304.62,90.92L313.08,90.79L321.54,89.37L330,89.01L338.46,87.77L355.38,85.03L363.85,90.96L372.31,93L380.77,99.24L397.69,111.95L406.15,122.05L423.08,130.36L431.54,138.09L440,135.47L440,148.83L423.08,140.03L414.62,132.97L406.15,129.29L397.69,119.26L380.77,102.63L372.31,97.41L355.38,91.94L346.92,94.65L338.46,95.15L330,93.73L321.54,96.85L313.08,98.09L304.62,93.27L296.15,97.05L279.23,96.06L270.77,97.83L262.31,94.2L253.85,94.79L245.38,93.66L236.92,97.23L228.46,94.37L220,96.03L211.54,94.31L203.08,93.29L194.62,93.2L186.15,89.9L177.69,88.2L169.23,84.32L160.77,87.09L152.31,83.86L143.85,88.91L135.38,85L126.92,79.21L118.46,83.99L110,83.5L101.54,78.83L93.08,72.89L84.62,72.54L76.15,88.11L67.69,90.96L50.77,109.63L42.31,115.76L33.85,125.48L25.38,133.39L16.92,135.71L8.46,149.07L0,147.52Z" style="fill: rgb(255, 255, 191); fill-opacity: 1; stroke-width: 0;"/></g></g><g class="errorbars"/><g class="lines"><path class="js-line" d="M0,147.52L8.46,149.07L16.92,135.71L25.38,133.39L33.85,125.48L42.31,115.76L50.77,109.63L67.69,90.96L76.15,88.11L84.62,72.54L93.08,72.89L101.54,78.83L110,83.5L118.46,83.99L126.92,79.21L135.38,85L143.85,88.91L152.31,83.86L160.77,87.09L169.23,84.32L177.69,88.2L186.15,89.9L194.62,93.2L203.08,93.29L211.54,94.31L220,96.03L228.46,94.37L236.92,97.23L245.38,93.66L253.85,94.79L262.31,94.2L270.77,97.83L279.23,96.06L296.15,97.05L304.62,93.27L313.08,98.09L321.54,96.85L330,93.73L338.46,95.15L346.92,94.65L355.38,91.94L372.31,97.41L380.77,102.63L397.69,119.26L406.15,129.29L414.62,132.97L423.08,140.03L440,148.83" style="vector-effect: non-scaling-stroke; fill: none; stroke: rgb(0, 0, 0); stroke-opacity: 1; stroke-width: 0.5px; opacity: 1;"/></g><g class="points"/><g class="text"/></g><g class="trace scatter trace7a34e5" style="stroke-miterlimit: 2;"><g class="fills"><g><path class="js-fill" d="M0,128.28L8.46,131.53L16.92,126.64L25.38,123.14L33.85,113.68L42.31,102.59L50.77,93.44L59.23,83.94L67.69,70.22L76.15,66.94L84.62,62.31L93.08,52.52L101.54,55.58L110,60.1L118.46,57.19L126.92,61L135.38,57.44L143.85,75.04L152.31,68.27L160.77,66.79L169.23,76.17L177.69,72.76L186.15,79.4L194.62,78.03L203.08,84.76L211.54,85.07L220,83.12L228.46,86.49L236.92,84.42L253.85,85.07L262.31,82.22L270.77,86.22L279.23,84.72L287.69,87.27L296.15,83.68L313.08,87.82L321.54,82.81L330,77.17L338.46,79.69L346.92,79.34L355.38,83.43L363.85,87.75L372.31,90.21L380.77,97.47L389.23,100.86L397.69,106.73L406.15,116.94L414.62,117.16L423.08,124.64L431.54,127.32L440,121.82L440,135.47L431.54,138.09L423.08,130.36L406.15,122.05L397.69,111.95L380.77,99.24L372.31,93L363.85,90.96L355.38,85.03L338.46,87.77L330,89.01L321.54,89.37L313.08,90.79L304.62,90.92L296.15,93.27L287.69,91.18L279.23,89.15L270.77,90.39L262.31,89.5L253.85,91.27L245.38,91.14L236.92,93.22L228.46,89.72L211.54,91.38L203.08,88.39L186.15,84.81L177.69,81.88L169.23,79.87L160.77,79.58L152.31,74.92L143.85,82.55L135.38,76.22L126.92,72.15L118.46,69.17L110,75.58L101.54,67.18L93.08,61.03L84.62,66.34L76.15,77.06L67.69,80.42L59.23,89.63L50.77,101.33L42.31,108.28L33.85,121.21L25.38,128.65L16.92,132.46L8.46,141.01L0,136.92Z" style="fill: rgb(255, 255, 191); fill-opacity: 1; stroke-width: 0;"/></g></g><g class="errorbars"/><g class="lines"><path class="js-line" d="M0,136.92L8.46,141.01L16.92,132.46L25.38,128.65L33.85,121.21L42.31,108.28L50.77,101.33L59.23,89.63L67.69,80.42L76.15,77.06L84.62,66.34L93.08,61.03L101.54,67.18L110,75.58L118.46,69.17L126.92,72.15L135.38,76.22L143.85,82.55L152.31,74.92L160.77,79.58L169.23,79.87L177.69,81.88L186.15,84.81L203.08,88.39L211.54,91.38L228.46,89.72L236.92,93.22L245.38,91.14L253.85,91.27L262.31,89.5L270.77,90.39L279.23,89.15L287.69,91.18L296.15,93.27L304.62,90.92L313.08,90.79L321.54,89.37L330,89.01L338.46,87.77L355.38,85.03L363.85,90.96L372.31,93L380.77,99.24L397.69,111.95L406.15,122.05L423.08,130.36L431.54,138.09L440,135.47" style="vector-effect: non-scaling-stroke; fill: none; stroke: rgb(0, 0, 0); stroke-opacity: 1; stroke-width: 1px; opacity: 1;"/></g><g class="points"/><g class="text"/></g><g class="trace scatter trace5fdc96" style="stroke-miterlimit: 2;"><g class="fills"><g><path class="js-fill" d="M0,101.15L8.46,117L16.92,113.02L25.38,116.21L33.85,107.35L42.31,86.53L50.77,82.28L59.23,70.06L67.69,59.25L84.62,49.33L93.08,50.31L110,38.53L118.46,47.65L126.92,35.07L135.38,24.89L143.85,57.66L152.31,51.46L160.77,50.84L169.23,67.32L177.69,56.44L186.15,73.96L194.62,59.52L203.08,75.2L211.54,72.54L220,68.47L228.46,75.11L236.92,71.57L245.38,75.82L253.85,71.12L262.31,66.69L270.77,73.52L279.23,67.85L287.69,74.84L296.15,70.68L304.62,78.92L313.08,73.69L321.54,69.62L330,68.38L338.46,62.36L346.92,61.2L355.38,78.56L363.85,81.75L372.31,82.64L380.77,92.91L389.23,94.6L397.69,91.05L406.15,99.18L414.62,109.56L423.08,115.67L431.54,123.01L440,115.32L440,121.82L431.54,127.32L423.08,124.64L414.62,117.16L406.15,116.94L397.69,106.73L389.23,100.86L380.77,97.47L372.31,90.21L363.85,87.75L355.38,83.43L346.92,79.34L338.46,79.69L330,77.17L321.54,82.81L313.08,87.82L296.15,83.68L287.69,87.27L279.23,84.72L270.77,86.22L262.31,82.22L253.85,85.07L236.92,84.42L228.46,86.49L220,83.12L211.54,85.07L203.08,84.76L194.62,78.03L186.15,79.4L177.69,72.76L169.23,76.17L160.77,66.79L152.31,68.27L143.85,75.04L135.38,57.44L126.92,61L118.46,57.19L110,60.1L101.54,55.58L93.08,52.52L84.62,62.31L76.15,66.94L67.69,70.22L59.23,83.94L50.77,93.44L42.31,102.59L33.85,113.68L25.38,123.14L16.92,126.64L8.46,131.53L0,128.28Z" style="fill: rgb(252, 141, 89); fill-opacity: 1; stroke-width: 0;"/></g></g><g class="errorbars"/><g class="lines"><path class="js-line" d="M0,128.28L8.46,131.53L16.92,126.64L25.38,123.14L33.85,113.68L42.31,102.59L50.77,93.44L59.23,83.94L67.69,70.22L76.15,66.94L84.62,62.31L93.08,52.52L101.54,55.58L110,60.1L118.46,57.19L126.92,61L135.38,57.44L143.85,75.04L152.31,68.27L160.77,66.79L169.23,76.17L177.69,72.76L186.15,79.4L194.62,78.03L203.08,84.76L211.54,85.07L220,83.12L228.46,86.49L236.92,84.42L253.85,85.07L262.31,82.22L270.77,86.22L279.23,84.72L287.69,87.27L296.15,83.68L313.08,87.82L321.54,82.81L330,77.17L338.46,79.69L346.92,79.34L355.38,83.43L363.85,87.75L372.31,90.21L380.77,97.47L389.23,100.86L397.69,106.73L406.15,116.94L414.62,117.16L423.08,124.64L431.54,127.32L440,121.82" style="vector-effect: non-scaling-stroke; fill: none; stroke: rgb(0, 0, 0); stroke-opacity: 1; stroke-width: 0.5px; opacity: 1;"/></g><g class="points"/><g class="text"/></g><g class="trace scatter traceb7eb12" style="stroke-miterlimit: 2;"><g class="fills"/><g class="errorbars"/><g class="lines"><path class="js-line" d="M0,101.15L8.46,117L16.92,113.02L25.38,116.21L33.85,107.35L42.31,86.53L50.77,82.28L59.23,70.06L67.69,59.25L84.62,49.33L93.08,50.31L110,38.53L118.46,47.65L126.92,35.07L135.38,24.89L143.85,57.66L152.31,51.46L160.77,50.84L169.23,67.32L177.69,56.44L186.15,73.96L194.62,59.52L203.08,75.2L211.54,72.54L220,68.47L228.46,75.11L236.92,71.57L245.38,75.82L253.85,71.12L262.31,66.69L270.77,73.52L279.23,67.85L287.69,74.84L296.15,70.68L304.62,78.92L313.08,73.69L321.54,69.62L330,68.38L338.46,62.36L346.92,61.2L355.38,78.56L363.85,81.75L372.31,82.64L380.77,92.91L389.23,94.6L397.69,91.05L406.15,99.18L414.62,109.56L423.08,115.67L431.54,123.01L440,115.32" style="vector-effect: non-scaling-stroke; fill: none; stroke: rgb(0, 0, 0); stroke-opacity: 1; stroke-width: 0.25px; opacity: 1;"/></g><g class="points"/><g class="text"/></g><g class="trace scatter traceb1ffa1" style="stroke-miterlimit: 2; opacity: 1;"><g class="fills"/><g class="errorbars"/><g class="lines"/><g class="points"><path class="point" transform="translate(169.23,74.4)" d="M4,0A4,4 0 1,1 0,-4A4,4 0 0,1 4,0ZM0,0.5L0.5,0L0,-0.5L-0.5,0Z" style="opacity: 1; stroke: rgb(0, 0, 0); stroke-opacity: 1; stroke-width: 1px; fill: none;"/><path class="point" transform="translate(177.69,80.6)" d="M4,0A4,4 0 1,1 0,-4A4,4 0 0,1 4,0ZM0,0.5L0.5,0L0,-0.5L-0.5,0Z" style="opacity: 1; stroke: rgb(0, 0, 0); stroke-opacity: 1; stroke-width: 1px; fill: none;"/><path class="point" transform="translate(186.15,74.4)" d="M4,0A4,4 0 1,1 0,-4A4,4 0 0,1 4,0ZM0,0.5L0.5,0L0,-0.5L-0.5,0Z" style="opacity: 1; stroke: rgb(0, 0, 0); stroke-opacity: 1; stroke-width: 1px; fill: none;"/><path class="point" transform="translate(194.62,74.4)" d="M4,0A4,4 0 1,1 0,-4A4,4 0 0,1 4,0ZM0,0.5L0.5,0L0,-0.5L-0.5,0Z" style="opacity: 1; stroke: rgb(0, 0, 0); stroke-opacity: 1; stroke-width: 1px; fill: none;"/></g><g class="text"/></g></g></g><g class="overplot"/><path class="xlines-above crisp" d="M0,0" style="fill: none;"/><path class="ylines-above crisp" d="M0,0" style="fill: none;"/><g class="overlines-above"/><g class="xaxislayer-above"/><g class="yaxislayer-above"><g class="y2tick"><text text-anchor="end" x="79" y="4.199999999999999" transform="translate(0,472.00000000000006)" style="font-family: 'Open Sans', verdana, arial, sans-serif; font-size: 12px; fill: rgb(42, 63, 95); fill-opacity: 1; white-space: pre; opacity: 1;">20</text></g><g class="y2tick"><text text-anchor="end" x="79" y="4.199999999999999" style="font-family: 'Open Sans', verdana, arial, sans-serif; font-size: 12px; fill: rgb(42, 63, 95); fill-opacity: 1; white-space: pre; opacity: 1;" transform="translate(0,410.00000000000006)">30</text></g><g class="y2tick"><text text-anchor="end" x="79" y="4.199999999999999" style="font-family: 'Open Sans', verdana, arial, sans-serif; font-size: 12px; fill: rgb(42, 63, 95); fill-opacity: 1; white-space: pre; opacity: 1;" transform="translate(0,348.00000000000006)">40</text></g></g><g class="overaxes-above"/></g><g class="subplot x3y3"><g class="layer-subplot"><g class="shapelayer"/><g class="imagelayer"/></g><g class="minor-gridlayer"><g class="x3"/><g class="y3"/></g><g class="gridlayer"><g class="x3"><path class="x3grid crisp" transform="translate(156.15,0)" d="M0,534v186" style="stroke: rgb(255, 255, 255); stroke-opacity: 1; stroke-width: 1px;"/><path class="x3grid crisp" transform="translate(240.77,0)" d="M0,534v186" style="stroke: rgb(255, 255, 255); stroke-opacity: 1; stroke-width: 1px;"/><path class="x3grid crisp" transform="translate(325.38,0)" d="M0,534v186" style="stroke: rgb(255, 255, 255); stroke-opacity: 1; stroke-width: 1px;"/><path class="x3grid crisp" transform="translate(410,0)" d="M0,534v186" style="stroke: rgb(255, 255, 255); stroke-opacity: 1; stroke-width: 1px;"/><path class="x3grid crisp" transform="translate(494.62,0)" d="M0,534v186" style="stroke: rgb(255, 255, 255); stroke-opacity: 1; stroke-width: 1px;"/></g><g class="y3"><path class="y3grid crisp" transform="translate(0,682.8)" d="M80,0h440" style="stroke: rgb(255, 255, 255); stroke-opacity: 1; stroke-width: 1px;"/><path class="y3grid crisp" transform="translate(0,645.6)" d="M80,0h440" style="stroke: rgb(255, 255, 255); stroke-opacity: 1; stroke-width: 1px;"/><path class="y3grid crisp" transform="translate(0,608.4)" d="M80,0h440" style="stroke: rgb(255, 255, 255); stroke-opacity: 1; stroke-width: 1px;"/><path class="y3grid crisp" transform="translate(0,571.2)" d="M80,0h440" style="stroke: rgb(255, 255, 255); stroke-opacity: 1; stroke-width: 1px;"/></g></g><g class="zerolinelayer"/><path class="xlines-below"/><path class="ylines-below"/><g class="overlines-below"/><g class="xaxislayer-below"/><g class="yaxislayer-below"/><g class="overaxes-below"/><g class="plot" transform="translate(80,534)" clip-path="url(#clip4613cbx3y3plot)"><g class="scatterlayer mlayer"><g class="trace scatter tracea07011" style="stroke-miterlimit: 2;"><g class="fills"><g><path class="js-fill" d="M0,122.11L8.46,127.91L16.92,124.25L25.38,123.45L33.85,118.99L42.31,106.63L50.77,100.87L59.23,95.18L67.69,79.95L76.15,76.13L84.62,68.95L93.08,64.67L101.54,62.18L118.46,58.43L126.92,51.42L135.38,53.7L143.85,51.69L152.31,45.03L160.77,42.49L169.23,39.3L177.69,38.93L203.08,36.51L211.54,37.07L220,36.11L228.46,37.04L236.92,37.94L245.38,37.92L253.85,38.26L262.31,37.31L270.77,37.57L279.23,38.69L296.15,39.22L304.62,39.62L313.08,41.24L321.54,41.5L338.46,46.1L346.92,49.4L355.38,50.3L363.85,60.64L372.31,64.97L380.77,74.66L397.69,95.6L406.15,101.9L414.62,105.99L423.08,116.75L431.54,118.98L440,128.8L440,132.88L431.54,133.92L423.08,127.97L414.62,120.32L406.15,116.7L397.69,101.72L380.77,87.4L372.31,75.18L363.85,65.79L355.38,56.01L346.92,54.63L338.46,50.06L330,47.51L321.54,44.43L313.08,44.53L304.62,42.62L287.69,40.81L279.23,41.35L270.77,39.11L262.31,41.88L253.85,43.15L245.38,41.03L236.92,40.49L228.46,38.9L220,40.07L211.54,38.48L186.15,43.36L177.69,47.08L169.23,43.36L160.77,49.42L152.31,49L143.85,57.39L135.38,59.73L126.92,59.41L118.46,65.26L110,68.98L101.54,70.57L93.08,76.42L84.62,85.03L76.15,92.47L67.69,86.2L59.23,109.69L50.77,121.7L42.31,127.44L33.85,134.77L25.38,141.14L16.92,138.49L8.46,141.79L0,125.92Z" style="fill: rgb(90, 180, 172); fill-opacity: 1; stroke-width: 0;"/></g></g><g class="errorbars"/><g class="lines"><path class="js-line" d="M0,125.92L8.46,141.79L16.92,138.49L25.38,141.14L33.85,134.77L42.31,127.44L50.77,121.7L59.23,109.69L67.69,86.2L76.15,92.47L84.62,85.03L93.08,76.42L101.54,70.57L110,68.98L118.46,65.26L126.92,59.41L135.38,59.73L143.85,57.39L152.31,49L160.77,49.42L169.23,43.36L177.69,47.08L186.15,43.36L211.54,38.48L220,40.07L228.46,38.9L236.92,40.49L245.38,41.03L253.85,43.15L262.31,41.88L270.77,39.11L279.23,41.35L287.69,40.81L304.62,42.62L313.08,44.53L321.54,44.43L330,47.51L338.46,50.06L346.92,54.63L355.38,56.01L363.85,65.79L372.31,75.18L380.77,87.4L397.69,101.72L406.15,116.7L414.62,120.32L423.08,127.97L431.54,133.92L440,132.88" style="vector-effect: non-scaling-stroke; fill: none; stroke: rgb(0, 0, 0); stroke-opacity: 1; stroke-width: 0.25px; opacity: 1;"/></g><g class="points"/><g class="text"/></g><g class="trace scatter traced69a4e" style="stroke-miterlimit: 2;"><g class="fills"><g><path class="js-fill" d="M0,117.32L8.46,120.63L16.92,116.01L25.38,112.45L33.85,111.07L42.31,98L50.77,92.48L59.23,84.87L67.69,74.24L76.15,73.23L84.62,61.27L93.08,55.27L101.54,54.58L110,55.37L118.46,51.92L126.92,48.62L135.38,49.34L143.85,48.89L152.31,42.46L160.77,39.78L169.23,38.47L186.15,35.39L194.62,35.29L228.46,34.49L236.92,36.03L245.38,37.2L253.85,37.45L262.31,34.6L270.77,35.92L279.23,36.72L287.69,36.28L296.15,38.16L304.62,38.95L321.54,39.22L330,41.29L338.46,41.93L346.92,44.96L355.38,48.94L363.85,56.33L372.31,60.58L380.77,68.61L397.69,87.63L406.15,93.93L414.62,101.08L423.08,105.97L431.54,114.63L440,127.38L440,128.8L431.54,118.98L423.08,116.75L414.62,105.99L406.15,101.9L397.69,95.6L380.77,74.66L372.31,64.97L363.85,60.64L355.38,50.3L346.92,49.4L338.46,46.1L321.54,41.5L313.08,41.24L304.62,39.62L296.15,39.22L279.23,38.69L270.77,37.57L262.31,37.31L253.85,38.26L245.38,37.92L236.92,37.94L228.46,37.04L220,36.11L211.54,37.07L203.08,36.51L177.69,38.93L169.23,39.3L160.77,42.49L152.31,45.03L143.85,51.69L135.38,53.7L126.92,51.42L118.46,58.43L101.54,62.18L93.08,64.67L84.62,68.95L76.15,76.13L67.69,79.95L59.23,95.18L50.77,100.87L42.31,106.63L33.85,118.99L25.38,123.45L16.92,124.25L8.46,127.91L0,122.11Z" style="fill: rgb(245, 245, 245); fill-opacity: 1; stroke-width: 0;"/></g></g><g class="errorbars"/><g class="lines"><path class="js-line" d="M0,122.11L8.46,127.91L16.92,124.25L25.38,123.45L33.85,118.99L42.31,106.63L50.77,100.87L59.23,95.18L67.69,79.95L76.15,76.13L84.62,68.95L93.08,64.67L101.54,62.18L118.46,58.43L126.92,51.42L135.38,53.7L143.85,51.69L152.31,45.03L160.77,42.49L169.23,39.3L177.69,38.93L203.08,36.51L211.54,37.07L220,36.11L228.46,37.04L236.92,37.94L245.38,37.92L253.85,38.26L262.31,37.31L270.77,37.57L279.23,38.69L296.15,39.22L304.62,39.62L313.08,41.24L321.54,41.5L338.46,46.1L346.92,49.4L355.38,50.3L363.85,60.64L372.31,64.97L380.77,74.66L397.69,95.6L406.15,101.9L414.62,105.99L423.08,116.75L431.54,118.98L440,128.8" style="vector-effect: non-scaling-stroke; fill: none; stroke: rgb(0, 0, 0); stroke-opacity: 1; stroke-width: 0.5px; opacity: 1;"/></g><g class="points"/><g class="text"/></g><g class="trace scatter tracec228ae" style="stroke-miterlimit: 2;"><g class="fills"><g><path class="js-fill" d="M0,111.73L8.46,113.17L16.92,110.94L25.38,106.18L33.85,100.23L42.31,89.55L50.77,83.2L59.23,73.87L67.69,66.8L76.15,62.58L84.62,56.17L93.08,51.95L101.54,49.08L110,49.34L118.46,45.53L135.38,44.08L143.85,41.5L152.31,40.34L160.77,36.85L177.69,32.92L186.15,33.4L194.62,32.68L203.08,32.84L211.54,33.85L220,32.87L228.46,32.87L236.92,34.04L245.38,35.56L253.85,34.14L262.31,32.58L270.77,34.46L279.23,33.37L287.69,35.31L296.15,35.95L304.62,37.42L313.08,37.6L321.54,36.85L338.46,36.96L346.92,39.19L363.85,52.53L372.31,53.78L380.77,65.66L389.23,72.16L406.15,87.23L414.62,92.42L423.08,93.56L431.54,106.98L440,119.55L440,127.38L431.54,114.63L423.08,105.97L414.62,101.08L406.15,93.93L397.69,87.63L380.77,68.61L372.31,60.58L363.85,56.33L355.38,48.94L346.92,44.96L338.46,41.93L330,41.29L321.54,39.22L304.62,38.95L296.15,38.16L287.69,36.28L279.23,36.72L270.77,35.92L262.31,34.6L253.85,37.45L245.38,37.2L236.92,36.03L228.46,34.49L194.62,35.29L186.15,35.39L169.23,38.47L160.77,39.78L152.31,42.46L143.85,48.89L135.38,49.34L126.92,48.62L118.46,51.92L110,55.37L101.54,54.58L93.08,55.27L84.62,61.27L76.15,73.23L67.69,74.24L59.23,84.87L50.77,92.48L42.31,98L33.85,111.07L25.38,112.45L16.92,116.01L8.46,120.63L0,117.32Z" style="fill: rgb(245, 245, 245); fill-opacity: 1; stroke-width: 0;"/></g></g><g class="errorbars"/><g class="lines"><path class="js-line" d="M0,117.32L8.46,120.63L16.92,116.01L25.38,112.45L33.85,111.07L42.31,98L50.77,92.48L59.23,84.87L67.69,74.24L76.15,73.23L84.62,61.27L93.08,55.27L101.54,54.58L110,55.37L118.46,51.92L126.92,48.62L135.38,49.34L143.85,48.89L152.31,42.46L160.77,39.78L169.23,38.47L186.15,35.39L194.62,35.29L228.46,34.49L236.92,36.03L245.38,37.2L253.85,37.45L262.31,34.6L270.77,35.92L279.23,36.72L287.69,36.28L296.15,38.16L304.62,38.95L321.54,39.22L330,41.29L338.46,41.93L346.92,44.96L355.38,48.94L363.85,56.33L372.31,60.58L380.77,68.61L397.69,87.63L406.15,93.93L414.62,101.08L423.08,105.97L431.54,114.63L440,127.38" style="vector-effect: non-scaling-stroke; fill: none; stroke: rgb(0, 0, 0); stroke-opacity: 1; stroke-width: 1px; opacity: 1;"/></g><g class="points"/><g class="text"/></g><g class="trace scatter tracec6bbff" style="stroke-miterlimit: 2;"><g class="fills"><g><path class="js-fill" d="M0,103.63L8.46,103.63L16.92,91.19L25.38,92.68L33.85,87.47L42.31,79.18L50.77,66.43L59.23,65.05L67.69,55.48L76.15,48.36L84.62,45.49L101.54,38.04L110,39.86L118.46,39.33L126.92,42.2L135.38,31.89L143.85,31.78L152.31,34.12L160.77,33.48L169.23,32.42L177.69,28.28L186.15,29.76L194.62,26.15L203.08,27.95L211.54,30.72L220,28.17L228.46,31.78L236.92,29.12L245.38,32.1L262.31,26.47L270.77,32.1L279.23,27.74L287.69,34.12L296.15,34.12L304.62,36.24L313.08,36.46L321.54,31.04L330,26.78L338.46,23.91L363.85,47.4L372.31,47.08L380.77,58.14L389.23,63.03L397.69,71.64L406.15,76.95L414.62,76.42L423.08,85.13L431.54,96.47L440,118.85L440,119.55L431.54,106.98L423.08,93.56L414.62,92.42L406.15,87.23L389.23,72.16L380.77,65.66L372.31,53.78L363.85,52.53L346.92,39.19L338.46,36.96L321.54,36.85L313.08,37.6L304.62,37.42L296.15,35.95L287.69,35.31L279.23,33.37L270.77,34.46L262.31,32.58L253.85,34.14L245.38,35.56L236.92,34.04L228.46,32.87L220,32.87L211.54,33.85L203.08,32.84L194.62,32.68L186.15,33.4L177.69,32.92L160.77,36.85L152.31,40.34L143.85,41.5L135.38,44.08L118.46,45.53L110,49.34L101.54,49.08L93.08,51.95L84.62,56.17L76.15,62.58L67.69,66.8L59.23,73.87L50.77,83.2L42.31,89.55L33.85,100.23L25.38,106.18L16.92,110.94L8.46,113.17L0,111.73Z" style="fill: rgb(216, 179, 101); fill-opacity: 1; stroke-width: 0;"/></g></g><g class="errorbars"/><g class="lines"><path class="js-line" d="M0,111.73L8.46,113.17L16.92,110.94L25.38,106.18L33.85,100.23L42.31,89.55L50.77,83.2L59.23,73.87L67.69,66.8L76.15,62.58L84.62,56.17L93.08,51.95L101.54,49.08L110,49.34L118.46,45.53L135.38,44.08L143.85,41.5L152.31,40.34L160.77,36.85L177.69,32.92L186.15,33.4L194.62,32.68L203.08,32.84L211.54,33.85L220,32.87L228.46,32.87L236.92,34.04L245.38,35.56L253.85,34.14L262.31,32.58L270.77,34.46L279.23,33.37L287.69,35.31L296.15,35.95L304.62,37.42L313.08,37.6L321.54,36.85L338.46,36.96L346.92,39.19L363.85,52.53L372.31,53.78L380.77,65.66L389.23,72.16L406.15,87.23L414.62,92.42L423.08,93.56L431.54,106.98L440,119.55" style="vector-effect: non-scaling-stroke; fill: none; stroke: rgb(0, 0, 0); stroke-opacity: 1; stroke-width: 0.5px; opacity: 1;"/></g><g class="points"/><g class="text"/></g><g class="trace scatter trace62983a" style="stroke-miterlimit: 2;"><g class="fills"/><g class="errorbars"/><g class="lines"><path class="js-line" d="M0,103.63L8.46,103.63L16.92,91.19L25.38,92.68L33.85,87.47L42.31,79.18L50.77,66.43L59.23,65.05L67.69,55.48L76.15,48.36L84.62,45.49L101.54,38.04L110,39.86L118.46,39.33L126.92,42.2L135.38,31.89L143.85,31.78L152.31,34.12L160.77,33.48L169.23,32.42L177.69,28.28L186.15,29.76L194.62,26.15L203.08,27.95L211.54,30.72L220,28.17L228.46,31.78L236.92,29.12L245.38,32.1L262.31,26.47L270.77,32.1L279.23,27.74L287.69,34.12L296.15,34.12L304.62,36.24L313.08,36.46L321.54,31.04L330,26.78L338.46,23.91L363.85,47.4L372.31,47.08L380.77,58.14L389.23,63.03L397.69,71.64L406.15,76.95L414.62,76.42L423.08,85.13L431.54,96.47L440,118.85" style="vector-effect: non-scaling-stroke; fill: none; stroke: rgb(0, 0, 0); stroke-opacity: 1; stroke-width: 0.25px; opacity: 1;"/></g><g class="points"/><g class="text"/></g><g class="trace scatter trace6a90fd" style="stroke-miterlimit: 2; opacity: 1;"><g class="fills"/><g class="errorbars"/><g class="lines"/><g class="points"><path class="point" transform="translate(169.23,37.2)" d="M4,0A4,4 0 1,1 0,-4A4,4 0 0,1 4,0ZM0,0.5L0.5,0L0,-0.5L-0.5,0Z" style="opacity: 1; stroke: rgb(0, 0, 0); stroke-opacity: 1; stroke-width: 1px; fill: none;"/><path class="point" transform="translate(177.69,37.2)" d="M4,0A4,4 0 1,1 0,-4A4,4 0 0,1 4,0ZM0,0.5L0.5,0L0,-0.5L-0.5,0Z" style="opacity: 1; stroke: rgb(0, 0, 0); stroke-opacity: 1; stroke-width: 1px; fill: none;"/><path class="point" transform="translate(186.15,37.2)" d="M4,0A4,4 0 1,1 0,-4A4,4 0 0,1 4,0ZM0,0.5L0.5,0L0,-0.5L-0.5,0Z" style="opacity: 1; stroke: rgb(0, 0, 0); stroke-opacity: 1; stroke-width: 1px; fill: none;"/><path class="point" transform="translate(194.62,37.2)" d="M4,0A4,4 0 1,1 0,-4A4,4 0 0,1 4,0ZM0,0.5L0.5,0L0,-0.5L-0.5,0Z" style="opacity: 1; stroke: rgb(0, 0, 0); stroke-opacity: 1; stroke-width: 1px; fill: none;"/></g><g class="text"/></g></g></g><g class="overplot"/><path class="xlines-above crisp" d="M0,0" style="fill: none;"/><path class="ylines-above crisp" d="M0,0" style="fill: none;"/><g class="overlines-above"/><g class="xaxislayer-above"><g class="x3tick"><text text-anchor="middle" x="0" y="733" transform="translate(156.15,0)" style="font-family: 'Open Sans', verdana, arial, sans-serif; font-size: 12px; fill: rgb(42, 63, 95); fill-opacity: 1; white-space: pre; opacity: 1;">10</text></g><g class="x3tick"><text text-anchor="middle" x="0" y="733" style="font-family: 'Open Sans', verdana, arial, sans-serif; font-size: 12px; fill: rgb(42, 63, 95); fill-opacity: 1; white-space: pre; opacity: 1;" transform="translate(240.77,0)">20</text></g><g class="x3tick"><text text-anchor="middle" x="0" y="733" style="font-family: 'Open Sans', verdana, arial, sans-serif; font-size: 12px; fill: rgb(42, 63, 95); fill-opacity: 1; white-space: pre; opacity: 1;" transform="translate(325.38,0)">30</text></g><g class="x3tick"><text text-anchor="middle" x="0" y="733" style="font-family: 'Open Sans', verdana, arial, sans-serif; font-size: 12px; fill: rgb(42, 63, 95); fill-opacity: 1; white-space: pre; opacity: 1;" transform="translate(410,0)">40</text></g><g class="x3tick"><text text-anchor="middle" x="0" y="733" style="font-family: 'Open Sans', verdana, arial, sans-serif; font-size: 12px; fill: rgb(42, 63, 95); fill-opacity: 1; white-space: pre; opacity: 1;" transform="translate(494.62,0)">50</text></g></g><g class="yaxislayer-above"><g class="y3tick"><text text-anchor="end" x="79" y="4.199999999999999" transform="translate(0,720)" style="font-family: 'Open Sans', verdana, arial, sans-serif; font-size: 12px; fill: rgb(42, 63, 95); fill-opacity: 1; white-space: pre; opacity: 1;">5</text></g><g class="y3tick"><text text-anchor="end" x="79" y="4.199999999999999" style="font-family: 'Open Sans', verdana, arial, sans-serif; font-size: 12px; fill: rgb(42, 63, 95); fill-opacity: 1; white-space: pre; opacity: 1;" transform="translate(0,682.8)">10</text></g><g class="y3tick"><text text-anchor="end" x="79" y="4.199999999999999" style="font-family: 'Open Sans', verdana, arial, sans-serif; font-size: 12px; fill: rgb(42, 63, 95); fill-opacity: 1; white-space: pre; opacity: 1;" transform="translate(0,645.6)">15</text></g><g class="y3tick"><text text-anchor="end" x="79" y="4.199999999999999" style="font-family: 'Open Sans', verdana, arial, sans-serif; font-size: 12px; fill: rgb(42, 63, 95); fill-opacity: 1; white-space: pre; opacity: 1;" transform="translate(0,608.4)">20</text></g><g class="y3tick"><text text-anchor="end" x="79" y="4.199999999999999" style="font-family: 'Open Sans', verdana, arial, sans-serif; font-size: 12px; fill: rgb(42, 63, 95); fill-opacity: 1; white-space: pre; opacity: 1;" transform="translate(0,571.2)">25</text></g><g class="y3tick"><text text-anchor="end" x="79" y="4.199999999999999" style="font-family: 'Open Sans', verdana, arial, sans-serif; font-size: 12px; fill: rgb(42, 63, 95); fill-opacity: 1; white-space: pre; opacity: 1;" transform="translate(0,534)">30</text></g></g><g class="overaxes-above"/></g></g><g class="polarlayer"/><g class="smithlayer"/><g class="ternarylayer"/><g class="geolayer"/><g class="funnelarealayer"/><g class="pielayer"/><g class="iciclelayer"/><g class="treemaplayer"/><g class="sunburstlayer"/><g class="glimages"/><defs id="topdefs-4613cb"><g class="clips"/></defs><g class="layer-above"><g class="imagelayer"/><g class="shapelayer"/></g><g class="infolayer"><g class="g-gtitle"><text class="gtitle" x="30" y="50" text-anchor="start" dy="0em" style="font-family: 'Open Sans', verdana, arial, sans-serif; font-size: 17px; fill: rgb(42, 63, 95); opacity: 1; font-weight: normal; white-space: pre;">Climatology and S2S forecast for Faridpur</text></g><g class="g-xtitle"/><g class="g-x2title"/><g class="g-x3title"/><g class="g-ytitle"><text class="ytitle" transform="rotate(-90,34.16875,193)" x="34.16875" y="193" text-anchor="middle" style="font-family: 'Open Sans', verdana, arial, sans-serif; font-size: 14px; fill: rgb(42, 63, 95); opacity: 1; font-weight: normal; white-space: pre;">[mm]</text></g><g class="g-y2title"><text class="y2title" transform="rotate(-90,40.840625,410.00000000000006)" x="40.840625" y="410.00000000000006" text-anchor="middle" style="font-family: 'Open Sans', verdana, arial, sans-serif; font-size: 14px; fill: rgb(42, 63, 95); opacity: 1; font-weight: normal; white-space: pre;">[C]</text></g><g class="g-y3title"><text class="y3title" transform="rotate(-90,40.840625,627)" x="40.840625" y="627" text-anchor="middle" style="font-family: 'Open Sans', verdana, arial, sans-serif; font-size: 14px; fill: rgb(42, 63, 95); opacity: 1; font-weight: normal; white-space: pre;">[C]</text></g><g class="annotation" data-index="0" style="opacity: 1;"><g class="annotation-text-g" transform="rotate(0,300,89.5)"><g class="cursor-pointer" transform="translate(237,79)"><rect class="bg" x="0.5" y="0.5" width="126" height="20" style="stroke-width: 1px; stroke: rgb(0, 0, 0); stroke-opacity: 0; fill: rgb(0, 0, 0); fill-opacity: 0;"/><text class="annotation-text" text-anchor="middle" x="63.359375" y="16" style="font-family: 'Open Sans', verdana, arial, sans-serif; font-size: 16px; fill: rgb(42, 63, 95); fill-opacity: 1; white-space: pre;">Precipitation sum</text></g></g></g><g class="annotation" data-index="1" style="opacity: 1;"><g class="annotation-text-g" transform="rotate(0,300,306.50000000000006)"><g class="cursor-pointer" transform="translate(196,296)"><rect class="bg" x="0.5" y="0.5" width="208" height="20" style="stroke-width: 1px; stroke: rgb(0, 0, 0); stroke-opacity: 0; fill: rgb(0, 0, 0); fill-opacity: 0;"/><text class="annotation-text" text-anchor="middle" x="104.265625" y="16" style="font-family: 'Open Sans', verdana, arial, sans-serif; font-size: 16px; fill: rgb(42, 63, 95); fill-opacity: 1; white-space: pre;">Mean maximum temperature</text></g></g></g><g class="annotation" data-index="2" style="opacity: 1;"><g class="annotation-text-g" transform="rotate(0,300,523.5)"><g class="cursor-pointer" transform="translate(198,513)"><rect class="bg" x="0.5" y="0.5" width="203" height="20" style="stroke-width: 1px; stroke: rgb(0, 0, 0); stroke-opacity: 0; fill: rgb(0, 0, 0); fill-opacity: 0;"/><text class="annotation-text" text-anchor="middle" x="102.046875" y="16" style="font-family: 'Open Sans', verdana, arial, sans-serif; font-size: 16px; fill: rgb(42, 63, 95); fill-opacity: 1; white-space: pre;">Mean minimum temperature</text></g></g></g><g class="annotation" data-index="3" style="opacity: 1;"><g class="annotation-text-g" transform="rotate(0,300,760.5)"><g class="cursor-pointer" transform="translate(277,750)"><rect class="bg" x="0.5" y="0.5" width="45" height="20" style="stroke-width: 1px; stroke: rgb(0, 0, 0); stroke-opacity: 0; fill: rgb(0, 0, 0); fill-opacity: 0;"/><text class="annotation-text" text-anchor="middle" x="22.3125" y="16" style="font-family: 'Open Sans', verdana, arial, sans-serif; font-size: 16px; fill: rgb(42, 63, 95); fill-opacity: 1; white-space: pre;">Week</text></g></g></g></g></svg>