<svg class="main-svg" xmlns="http://www.w3.org/2000/svg" xmlns:xlink="http://www.w3.org/1999/xlink" width="600" height="800" style="" viewBox="0 0 600 800"><rect x="0" y="0" width="600" height="800" style="fill: rgb(255, 255, 255); fill-opacity: 1;"/><defs id="defs-65ef8b"><g class="clips"><clipPath id="clip65ef8bxyplot" class="plotclip"><rect width="440" height="186.00000000000003"/></clipPath><clipPath id="clip65ef8bx2y2plot" class="plotclip"><rect width="440" height="185.99999999999997"/></clipPath><clipPath id="clip65ef8bx3y3plot" class="plotclip"><rect width="440" height="186"/></clipPath><clipPath class="axesclip" id="clip65ef8bx"><rect x="80" y="0" width="440" height="800"/></clipPath><clipPath class="axesclip" id="clip65ef8by"><rect x="0" y="100" width="600" height="186.00000000000003"/></clipPath><clipPath class="axesclip" id="clip65ef8bxy"><rect x="80" y="100" width="440" height="186.00000000000003"/></clipPath><clipPath class="axesclip" id="clip65ef8by2"><rect x="0" y="317.00000000000006" width="600" height="185.99999999999997"/></clipPath><clipPath class="axesclip" id="clip65ef8bxy2"><rect x="80" y="317.00000000000006" width="440" height="185.99999999999997"/></clipPath><clipPath class="axesclip" id="clip65ef8by3"><rect x="0" y="534" width="600" height="186"/></clipPath><clipPath class="axesclip" id="clip65ef8bxy3"><rect x="80" y="534" width="440" height="186"/></clipPath><clipPath class="axesclip" id="clip65ef8bx2"><rect x="80" y="0" width="440" height="800"/></clipPath><clipPath class="axesclip" id="clip65ef8bx2y"><rect x="80" y="100" width="440" height="186.00000000000003"/></clipPath><clipPath class="axesclip" id="clip65ef8bx2y2"><rect x="80" y="317.00000000000006" width="440" height="185.99999999999997"/></clipPath><clipPath class="axesclip" id="clip65ef8bx2y3"><rect x="80" y="534" width="440" height="186"/></clipPath><clipPath class="axesclip" id="clip65ef8bx3"><rect x="80" y="0" width="440" height="800"/></clipPath><clipPath class="axesclip" id="clip65ef8bx3y"><rect x="80" y="100" width="440" height="186.00000000000003"/></clipPath><clipPath class="axesclip" id="clip65ef8bx3y2"><rect x="80" y="317.00000000000006" width="440" height="185.99999999999997"/></clipPath><clipPath class="axesclip" id="clip65ef8bx3y3"><rect x="80" y="534" width="440" height="186"/></clipPath></g><g class="gradients"/><g class="patterns"/></defs><g class="bglayer"><rect class="bg" x="80" y="100" width="440" height="186.00000000000003" style="fill: rgb(229, 236, 246); fill-opacity: 1; stroke-width: 0;"/><rect class="bg" x="80" y="317.00000000000006" width="440" height="185.99999999999997" style="fill: rgb(229, 236, 246); fill-opacity: 1; stroke-width: 0;"/><rect class="bg" x="80" y="534" width="440" height="186" style="fill: rgb(229, 236, 246); fill-opacity: 1; stroke-width: 0;"/></g><g class="layer-below"><g class="imagelayer"/><g class="shapelayer"/></g><g class="cartesianlayer"><g class="subplot xy"><g class="layer-subplot"><g class="shapelayer"/><g class="imagelayer"/></g><g class="minor-gridlayer"><g class="x"/><g class="y"/></g><g class="gridlayer"><g class="x"><path class="xgrid crisp" transform="translate(156.15,0)" d="M0,100v186.00000000000003" style="stroke: rgb(255, 255, 255); stroke-opacity: 1; stroke-width: 1px;"/><path class="xgrid crisp" transform="translate(240.77,0)" d="M0,100v186.00000000000003" style="stroke: rgb(255, 255, 255); stroke-opacity: 1; stroke-width: 1px;"/><path class="xgrid crisp" transform="translate(325.38,0)" d="M0,100v186.00000000000003" style="stroke: rgb(255, 255, 255); stroke-opacity: 1; stroke-width: 1px;"/><path class="xgrid crisp" transform="translate(410,0)" d="M0,100v186.00000000000003" style="stroke: rgb(255, 255, 255); stroke-opacity: 1; stroke-width: 1px;"/><path class="xgrid crisp" transform="translate(494.62,0)" d="M0,100v186.00000000000003" style="stroke: rgb(255, 255, 255); stroke-opacity: 1; stroke-width: 1px;"/></g><g class="y"><path class="ygrid crisp" transform="translate(0,248.8)" d="M80,0h440" style="stroke: rgb(255, 255, 255); stroke-opacity: 1; stroke-width: 1px;"/><path class="ygrid crisp" transform="translate(0,211.6)" d="M80,0h440" style="stroke: rgb(255, 255, 255); stroke-opacity: 1; stroke-width: 1px;"/><path class="ygrid crisp" transform="translate(0,174.4)" d="M80,0h440" style="stroke: rgb(255, 255, 255); stroke-opacity: 1; stroke-width: 1px;"/><path class="ygrid crisp" transform="translate(0,137.2)" d="M80,0h440" style="stroke: rgb(255, 255, 255); stroke-opacity: 1; stroke-width: 1px;"/></g></g><g class="zerolinelayer"><path class="yzl zl crisp" transform="translate(0,286)" d="M80,0h440" style="stroke: rgb(255, 255, 255); stroke-opacity: 1; stroke-width: 2px;"/></g><path class="xlines-below"/><path class="ylines-below"/><g class="overlines-below"/><g class="xaxislayer-below"/><g class="yaxislayer-below"/><g class="overaxes-below"/><g class="plot" transform="translate(80,100)" clip-path="url(#clip65ef8bxyplot)"><g class="scatterlayer mlayer"><g class="trace scatter tracea8f0ae" style="stroke-miterlimit: 2;"><g class="fills"><g><path class="js-fill" d="M0,186L118.46,185.51L126.92,183.5L135.38,181.91L143.85,177.69L152.31,177.68L160.77,172.3L169.23,163.19L177.69,156.75L186.15,149.82L194.62,157.75L203.08,158.19L211.54,159.9L220,156.23L228.46,160.54L236.92,156.69L245.38,156.1L253.85,160.5L262.31,155.03L270.77,155.78L279.23,170.49L287.69,168.16L296.15,169.42L304.62,170.85L313.08,170.29L321.54,172.46L330,178.56L338.46,171L346.92,183.41L355.38,186L363.85,186L440,186L440,186L346.92,186L338.46,185.04L330,186L321.54,184.51L313.08,181.68L304.62,185.26L296.15,185.26L287.69,175.5L279.23,178.61L270.77,170.24L262.31,176.62L253.85,177.23L245.38,186L236.92,182.25L228.46,176.61L220,184.51L211.54,183.02L203.08,185.97L194.62,185.22L186.15,181.11L177.69,183.31L169.23,184.51L160.77,184.5L152.31,186L143.85,184.56L135.38,186L0,186Z" style="fill: rgb(224, 236, 244); fill-opacity: 1; stroke-width: 0;"/></g></g><g class="errorbars"/><g class="lines"><path class="js-line" d="M0,186L135.38,186L143.85,184.56L152.31,186L160.77,184.5L169.23,184.51L177.69,183.31L186.15,181.11L194.62,185.22L203.08,185.97L211.54,183.02L220,184.51L228.46,176.61L236.92,182.25L245.38,186L253.85,177.23L262.31,176.62L270.77,170.24L279.23,178.61L287.69,175.5L296.15,185.26L304.62,185.26L313.08,181.68L321.54,184.51L330,186L338.46,185.04L346.92,186L440,186" style="vector-effect: non-scaling-stroke; fill: none; stroke: rgb(0, 0, 0); stroke-opacity: 1; stroke-width: 0.25px; opacity: 1;"/></g><g class="points"/><g class="text"/></g><g class="trace scatter trace7e546f" style="stroke-miterlimit: 2;"><g class="fills"><g><path class="js-fill" d="M0,186L93.08,185.48L101.54,178.86L110,177.2L118.46,174.73L126.92,176L135.38,169.3L143.85,164.06L152.31,157.62L160.77,151.61L169.23,144.58L177.69,142.53L186.15,137.19L194.62,130.56L203.08,146.88L211.54,130.59L220,147.07L228.46,142.74L236.92,139.46L245.38,127.06L253.85,148.93L262.31,133.53L270.77,144.19L279.23,145.57L287.69,160.63L296.15,159.17L304.62,155.91L313.08,143.46L321.54,144.46L330,158.65L338.46,161.98L346.92,176.84L355.38,184.9L363.85,186L372.31,186L440,186L440,186L363.85,186L355.38,186L346.92,183.41L338.46,171L330,178.56L321.54,172.46L313.08,170.29L304.62,170.85L296.15,169.42L287.69,168.16L279.23,170.49L270.77,155.78L262.31,155.03L253.85,160.5L245.38,156.1L236.92,156.69L228.46,160.54L220,156.23L211.54,159.9L203.08,158.19L194.62,157.75L186.15,149.82L177.69,156.75L169.23,163.19L160.77,172.3L152.31,177.68L143.85,177.69L135.38,181.91L126.92,183.5L118.46,185.51L0,186Z" style="fill: rgb(158, 188, 218); fill-opacity: 1; stroke-width: 0;"/></g></g><g class="errorbars"/><g class="lines"><path class="js-line" d="M0,186L118.46,185.51L126.92,183.5L135.38,181.91L143.85,177.69L152.31,177.68L160.77,172.3L169.23,163.19L177.69,156.75L186.15,149.82L194.62,157.75L203.08,158.19L211.54,159.9L220,156.23L228.46,160.54L236.92,156.69L245.38,156.1L253.85,160.5L262.31,155.03L270.77,155.78L279.23,170.49L287.69,168.16L296.15,169.42L304.62,170.85L313.08,170.29L321.54,172.46L330,178.56L338.46,171L346.92,183.41L355.38,186L363.85,186L440,186" style="vector-effect: non-scaling-stroke; fill: none; stroke: rgb(0, 0, 0); stroke-opacity: 1; stroke-width: 0.5px; opacity: 1;"/></g><g class="points"/><g class="text"/></g><g class="trace scatter trace4da365" style="stroke-miterlimit: 2;"><g class="fills"><g><path class="js-fill" d="M0,186L42.31,186L50.77,183.37L59.23,183.97L67.69,183.35L76.15,182.55L84.62,177.15L93.08,177.32L101.54,160.05L110,148.2L118.46,167.69L135.38,144.79L143.85,136.37L152.31,130.57L160.77,113.75L169.23,131.34L177.69,117.3L186.15,107.58L194.62,103.32L203.08,133.69L211.54,73.02L220,115.3L228.46,105.97L236.92,99.2L245.38,71.63L253.85,121.82L262.31,112.15L270.77,135.79L279.23,108.51L287.69,147.54L296.15,146.21L304.62,137.3L313.08,123.67L321.54,122.31L330,147.79L338.46,150.63L346.92,137.28L355.38,147.78L363.85,178.62L372.31,184.14L380.77,186L440,186L440,186L372.31,186L363.85,186L355.38,184.9L346.92,176.84L338.46,161.98L330,158.65L321.54,144.46L313.08,143.46L304.62,155.91L296.15,159.17L287.69,160.63L279.23,145.57L270.77,144.19L262.31,133.53L253.85,148.93L245.38,127.06L236.92,139.46L228.46,142.74L220,147.07L211.54,130.59L203.08,146.88L194.62,130.56L186.15,137.19L177.69,142.53L169.23,144.58L160.77,151.61L152.31,157.62L143.85,164.06L135.38,169.3L126.92,176L118.46,174.73L110,177.2L101.54,178.86L93.08,185.48L0,186Z" style="fill: rgb(158, 188, 218); fill-opacity: 1; stroke-width: 0;"/></g></g><g class="errorbars"/><g class="lines"><path class="js-line" d="M0,186L93.08,185.48L101.54,178.86L110,177.2L118.46,174.73L126.92,176L135.38,169.3L143.85,164.06L152.31,157.62L160.77,151.61L169.23,144.58L177.69,142.53L186.15,137.19L194.62,130.56L203.08,146.88L211.54,130.59L220,147.07L228.46,142.74L236.92,139.46L245.38,127.06L253.85,148.93L262.31,133.53L270.77,144.19L279.23,145.57L287.69,160.63L296.15,159.17L304.62,155.91L313.08,143.46L321.54,144.46L330,158.65L338.46,161.98L346.92,176.84L355.38,184.9L363.85,186L372.31,186L440,186" style="vector-effect: non-scaling-stroke; fill: none; stroke: rgb(0, 0, 0); stroke-opacity: 1; stroke-width: 1px; opacity: 1;"/></g><g class="points"/><g class="text"/></g><g class="trace scatter tracece0f8c" style="stroke-miterlimit: 2;"><g class="fills"><g><path class="js-fill" d="M0,186L42.31,186L50.77,179.62L59.23,183.21L67.69,182.97L76.15,182.13L84.62,169.65L93.08,168.97L101.54,132.56L110,98.59L118.46,143.52L126.92,119.79L135.38,105.56L143.85,119.41L152.31,64.39L160.77,29.42L169.23,101.28L177.69,72.26L186.15,54.36L194.62,68.77L203.08,98.56L211.54,4.49L220,79.32L228.46,38.44L236.92,42.57L245.38,5.05L253.85,117.22L262.31,81.29L270.77,107.25L279.23,21.16L287.69,121.84L304.62,116.92L313.08,97.35L321.54,58.27L330,126.01L338.46,140.44L346.92,95.62L355.38,128.66L363.85,174.85L372.31,183.77L380.77,186L440,186L440,186L380.77,186L372.31,184.14L363.85,178.62L355.38,147.78L346.92,137.28L338.46,150.63L330,147.79L321.54,122.31L313.08,123.67L304.62,137.3L296.15,146.21L287.69,147.54L279.23,108.51L270.77,135.79L262.31,112.15L253.85,121.82L245.38,71.63L236.92,99.2L228.46,105.97L220,115.3L211.54,73.02L203.08,133.69L194.62,103.32L186.15,107.58L177.69,117.3L169.23,131.34L160.77,113.75L152.31,130.57L143.85,136.37L135.38,144.79L118.46,167.69L110,148.2L101.54,160.05L93.08,177.32L84.62,177.15L76.15,182.55L67.69,183.35L59.23,183.97L50.77,183.37L42.31,186L0,186Z" style="fill: rgb(136, 86, 167); fill-opacity: 1; stroke-width: 0;"/></g></g><g class="errorbars"/><g class="lines"><path class="js-line" d="M0,186L42.31,186L50.77,183.37L59.23,183.97L67.69,183.35L76.15,182.55L84.62,177.15L93.08,177.32L101.54,160.05L110,148.2L118.46,167.69L135.38,144.79L143.85,136.37L152.31,130.57L160.77,113.75L169.23,131.34L177.69,117.3L186.15,107.58L194.62,103.32L203.08,133.69L211.54,73.02L220,115.3L228.46,105.97L236.92,99.2L245.38,71.63L253.85,121.82L262.31,112.15L270.77,135.79L279.23,108.51L287.69,147.54L296.15,146.21L304.62,137.3L313.08,123.67L321.54,122.31L330,147.79L338.46,150.63L346.92,137.28L355.38,147.78L363.85,178.62L372.31,184.14L380.77,186L440,186" style="vector-effect: non-scaling-stroke; fill: none; stroke: rgb(0, 0, 0); stroke-opacity: 1; stroke-width: 0.5px; opacity: 1;"/></g><g class="points"/><g class="text"/></g><g class="trace scatter tracefac1f2" style="stroke-miterlimit: 2;"><g class="fills"/><g class="errorbars"/><g class="lines"><path class="js-line" d="M0,186L42.31,186L50.77,179.62L59.23,183.21L67.69,182.97L76.15,182.13L84.62,169.65L93.08,168.97L101.54,132.56L110,98.59L118.46,143.52L126.92,119.79L135.38,105.56L143.85,119.41L152.31,64.39L160.77,29.42L169.23,101.28L177.69,72.26L186.15,54.36L194.62,68.77L203.08,98.56L211.54,4.49L220,79.32L228.46,38.44L236.92,42.57L245.38,5.05L253.85,117.22L262.31,81.29L270.77,107.25L279.23,21.16L287.69,121.84L304.62,116.92L313.08,97.35L321.54,58.27L330,126.01L338.46,140.44L346.92,95.62L355.38,128.66L363.85,174.85L372.31,183.77L380.77,186L440,186" style="vector-effect: non-scaling-stroke; fill: none; stroke: rgb(0, 0, 0); stroke-opacity: 1; stroke-width: 0.25px; opacity: 1;"/></g><g class="points"/><g class="text"/></g><g class="trace scatter trace301d85" style="stroke-miterlimit: 2; opacity: 1;"><g class="fills"/><g class="errorbars"/><g class="lines"/><g class="points"><path class="point" transform="translate(194.62,186)" d="M4,0A4,4 0 1,1 0,-4A4,4 0 0,1 4,0ZM0,0.5L0.5,0L0,-0.5L-0.5,0Z" style="opacity: 1; stroke: rgb(0, 0, 0); stroke-opacity: 1; stroke-width: 1px; fill: none;"/><path class="point" transform="translate(203.08,186)" d="M4,0A4,4 0 1,1 0,-4A4,4 0 0,1 4,0ZM0,0.5L0.5,0L0,-0.5L-0.5,0Z" style="opacity: 1; stroke: rgb(0, 0, 0); stroke-opacity: 1; stroke-width: 1px; fill: none;"/><path class="point" transform="translate(211.54,186)" d="M4,0A4,4 0 1,1 0,-4A4,4 0 0,1 4,0ZM0,0.5L0.5,0L0,-0.5L-0.5,0Z" style="opacity: 1; stroke: rgb(0, 0, 0); stroke-opacity: 1; stroke-width: 1px; fill: none;"/><path class="point" transform="translate(220,186)" d="M4,0A4,4 0 1,1 0,-4A4,4 0 0,1 4,0ZM0,0.5L0.5,0L0,-0.5L-0.5,0Z" style="opacity: 1; stroke: rgb(0, 0, 0); stroke-opacity: 1; stroke-width: 1px; fill: none;"/></g><g class="text"/></g></g></g><g class="overplot"/><path class="xlines-above crisp" d="M0,0" style="fill: none;"/><path class="ylines-above crisp" d="M0,0" style="fill: none;"/><g class="overlines-above"/><g class="xaxislayer-above"/><g class="yaxislayer-above"><g class="ytick"><text text-anchor="end" x="79" y="4.199999999999999" transform="translate(0,286)" style="font-family: 'Open Sans', verdana, arial, sans-serif; font-size: 12px; fill: rgb(42, 63, 95); fill-opacity: 1; white-space: pre; opacity: 1;">0</text></g><g class="ytick"><text text-anchor="end" x="79" y="4.199999999999999" style="font-family: 'Open Sans', verdana, arial, sans-serif; font-size: 12px; fill: rgb(42, 63, 95); fill-opacity: 1; white-space: pre; opacity: 1;" transform="translate(0,248.8)">50</text></g><g class="ytick"><text text-anchor="end" x="79" y="4.199999999999999" style="font-family: 'Open Sans', verdana, arial, sans-serif; font-size: 12px; fill: rgb(42, 63, 95); fill-opacity: 1; white-space: pre; opacity: 1;" transform="translate(0,211.6)">100</text></g><g class="ytick"><text text-anchor="end" x="79" y="4.199999999999999" style="font-family: 'Open Sans', verdana, arial, sans-serif; font-size: 12px; fill: rgb(42, 63, 95); fill-opacity: 1; white-space: pre; opacity: 1;" transform="translate(0,174.4)">150</text></g><g class="ytick"><text text-anchor="end" x="79" y="4.199999999999999" style="font-family: 'Open Sans', verdana, arial, sans-serif; font-size: 12px; fill: rgb(42, 63, 95); fill-opacity: 1; white-space: pre; opacity: 1;" transform="translate(0,137.2)">200</text></g><g class="ytick"><text text-anchor="end" x="79" y="4.199999999999999" style="font-family: 'Open Sans', verdana, arial, sans-serif; font-size: 12px; fill: rgb(42, 63, 95); fill-opacity: 1; white-space: pre; opacity: 1;" transform="translate(0,100)">250</text></g></g><g class="overaxes-above"/></g><g class="subplot x2y2"><g class="layer-subplot"><g class="shapelayer"/><g class="imagelayer"/></g><g class="minor-gridlayer"><g class="x2"/><g class="y2"/></g><g class="gridlayer"><g class="x2"><path class="x2grid crisp" transform="translate(156.15,0)" d="M0,317.00000000000006v185.99999999999997" style="stroke: rgb(255, 255, 255); stroke-opacity: 1; stroke-width: 1px;"/><path class="x2grid crisp" transform="translate(240.77,0)" d="M0,317.00000000000006v185.99999999999997" style="stroke: rgb(255, 255, 255); stroke-opacity: 1; stroke-width: 1px;"/><path class="x2grid crisp" transform="translate(325.38,0)" d="M0,317.00000000000006v185.99999999999997" style="stroke: rgb(255, 255, 255); stroke-opacity: 1; stroke-width: 1px;"/><path class="x2grid crisp" transform="translate(410,0)" d="M0,317.00000000000006v185.99999999999997" style="stroke: rgb(255, 255, 255); stroke-opacity: 1; stroke-width: 1px;"/><path class="x2grid crisp" transform="translate(494.62,0)" d="M0,317.00000000000006v185.99999999999997" style="stroke: rgb(255, 255, 255); stroke-opacity: 1; stroke-width: 1px;"/></g><g class="y2"><path class="y2grid crisp" transform="translate(0,472.00000000000006)" d="M80,0h440" style="stroke: rgb(255, 255, 255); stroke-opacity: 1; stroke-width: 1px;"/><path class="y2grid crisp" transform="translate(0,410.00000000000006)" d="M80,0h440" style="stroke: rgb(255, 255, 255); stroke-opacity: 1; stroke-width: 1px;"/><path class="y2grid crisp" transform="translate(0,348.00000000000006)" d="M80,0h440" style="stroke: rgb(255, 255, 255); stroke-opacity: 1; stroke-width: 1px;"/></g></g><g class="zerolinelayer"/><path class="xlines-below"/><path class="ylines-below"/><g class="overlines-below"/><g class="xaxislayer-below"/><g class="yaxislayer-below"/><g class="overaxes-below"/><g class="plot" transform="translate(80,317.00000000000006)" clip-path="url(#clip65ef8bx2y2plot)"><g class="scatterlayer mlayer"><g class="trace scatter traceb3ae3a" style="stroke-miterlimit: 2;"><g class="fills"><g><path class="js-fill" d="M0,142.93L8.46,148.98L16.92,135.13L25.38,131.52L33.85,124.32L42.31,115.94L50.77,109.01L59.23,99.44L67.69,92.65L76.15,88.36L84.62,73.59L93.08,77.48L101.54,84.68L110,87.21L118.46,84.06L126.92,81.72L135.38,85.23L143.85,90.4L152.31,83.39L160.77,89.4L169.23,84.72L177.69,90.6L186.15,90.83L194.62,90.5L203.08,92.36L211.54,96.93L220,94.27L228.46,92.53L236.92,97.38L245.38,93.43L253.85,94.85L262.31,94.39L270.77,96.46L287.69,94.25L296.15,95.91L304.62,93.27L313.08,98.42L321.54,96.67L330,93.63L338.46,96.14L346.92,94.69L355.38,92.57L363.85,94.02L372.31,97.15L380.77,101.6L389.23,107.9L397.69,115.61L406.15,125.73L414.62,128.35L423.08,138.19L431.54,140.97L440,143.85L440,147.02L431.54,144.88L423.08,155.41L414.62,136.51L406.15,139.55L397.69,124.1L389.23,112.9L380.77,110.05L372.31,102.2L363.85,101.05L355.38,103.08L346.92,108.58L338.46,101.21L330,104.74L321.54,100.96L313.08,108.34L304.62,98.51L296.15,105.91L287.69,99L279.23,103.63L270.77,106.96L262.31,104.95L253.85,101.19L245.38,98.75L236.92,105.45L228.46,100.36L220,107.43L211.54,105.36L203.08,99.96L194.62,98.04L186.15,97.28L177.69,94.53L169.23,94.48L160.77,97.3L152.31,93.68L143.85,99.51L135.38,100.17L126.92,96.65L118.46,97.41L110,93.76L101.54,97.14L93.08,89.78L84.62,80.73L76.15,101.91L67.69,116.36L59.23,116L50.77,125.63L42.31,130.8L33.85,140.6L25.38,134.5L16.92,146.33L8.46,159.81L0,160.87Z" style="fill: rgb(145, 191, 219); fill-opacity: 1; stroke-width: 0;"/></g></g><g class="errorbars"/><g class="lines"><path class="js-line" d="M0,160.87L8.46,159.81L16.92,146.33L25.38,134.5L33.85,140.6L42.31,130.8L50.77,125.63L59.23,116L67.69,116.36L76.15,101.91L84.62,80.73L93.08,89.78L101.54,97.14L110,93.76L118.46,97.41L126.92,96.65L135.38,100.17L143.85,99.51L152.31,93.68L160.77,97.3L169.23,94.48L177.69,94.53L186.15,97.28L194.62,98.04L203.08,99.96L211.54,105.36L220,107.43L228.46,100.36L236.92,105.45L245.38,98.75L253.85,101.19L262.31,104.95L270.77,106.96L279.23,103.63L287.69,99L296.15,105.91L304.62,98.51L313.08,108.34L321.54,100.96L330,104.74L338.46,101.21L346.92,108.58L355.38,103.08L363.85,101.05L372.31,102.2L380.77,110.05L389.23,112.9L397.69,124.1L406.15,139.55L414.62,136.51L423.08,155.41L431.54,144.88L440,147.02" style="vector-effect: non-scaling-stroke; fill: none; stroke: rgb(0, 0, 0); stroke-opacity: 1; stroke-width: 0.25px; opacity: 1;"/></g><g class="points"/><g class="text"/></g><g class="trace scatter trace2a6e9f" style="stroke-miterlimit: 2;"><g class="fills"><g><path class="js-fill" d="M0,134.79L8.46,139.1L16.92,130.44L33.85,118.84L42.31,106.96L50.77,101.36L59.23,90.85L67.69,80.79L76.15,79.34L84.62,68.49L93.08,63.42L101.54,71.32L110,77.2L118.46,71.87L126.92,76.77L135.38,78.87L143.85,82.83L152.31,77.55L160.77,81.06L169.23,81.42L177.69,84.58L186.15,84.68L194.62,88.61L203.08,88.53L211.54,91.46L228.46,88.76L236.92,91.27L245.38,88.9L253.85,90.81L262.31,89.49L270.77,90.79L279.23,89.9L287.69,90.25L296.15,91.63L304.62,90.61L321.54,89.45L330,90.94L338.46,89.42L346.92,87.07L355.38,84.97L363.85,90.36L372.31,93.38L380.77,97.51L389.23,104.4L397.69,109.27L406.15,119.87L414.62,124.05L423.08,127.43L431.54,134.76L440,133.44L440,143.85L431.54,140.97L423.08,138.19L414.62,128.35L406.15,125.73L397.69,115.61L389.23,107.9L380.77,101.6L372.31,97.15L363.85,94.02L355.38,92.57L346.92,94.69L338.46,96.14L330,93.63L321.54,96.67L313.08,98.42L304.62,93.27L296.15,95.91L287.69,94.25L270.77,96.46L262.31,94.39L253.85,94.85L245.38,93.43L236.92,97.38L228.46,92.53L220,94.27L211.54,96.93L203.08,92.36L194.62,90.5L186.15,90.83L177.69,90.6L169.23,84.72L160.77,89.4L152.31,83.39L143.85,90.4L135.38,85.23L126.92,81.72L118.46,84.06L110,87.21L101.54,84.68L93.08,77.48L84.62,73.59L76.15,88.36L67.69,92.65L59.23,99.44L50.77,109.01L42.31,115.94L33.85,124.32L25.38,131.52L16.92,135.13L8.46,148.98L0,142.93Z" style="fill: rgb(255, 255, 191); fill-opacity: 1; stroke-width: 0;"/></g></g><g class="errorbars"/><g class="lines"><path class="js-line" d="M0,142.93L8.46,148.98L16.92,135.13L25.38,131.52L33.85,124.32L42.31,115.94L50.77,109.01L59.23,99.44L67.69,92.65L76.15,88.36L84.62,73.59L93.08,77.48L101.54,84.68L110,87.21L118.46,84.06L126.92,81.72L135.38,85.23L143.85,90.4L152.31,83.39L160.77,89.4L169.23,84.72L177.69,90.6L186.15,90.83L194.62,90.5L203.08,92.36L211.54,96.93L220,94.27L228.46,92.53L236.92,97.38L245.38,93.43L253.85,94.85L262.31,94.39L270.77,96.46L287.69,94.25L296.15,95.91L304.62,93.27L313.08,98.42L321.54,96.67L330,93.63L338.46,96.14L346.92,94.69L355.38,92.57L363.85,94.02L372.31,97.15L380.77,101.6L389.23,107.9L397.69,115.61L406.15,125.73L414.62,128.35L423.08,138.19L431.54,140.97L440,143.85" style="vector-effect: non-scaling-stroke; fill: none; stroke: rgb(0, 0, 0); stroke-opacity: 1; stroke-width: 0.5px; opacity: 1;"/></g><g class="points"/><g class="text"/></g><g class="trace scatter trace994efd" style="stroke-miterlimit: 2;"><g class="fills"><g><path class="js-fill" d="M0,125.46L8.46,128.11L16.92,123.34L25.38,122.94L33.85,111.41L50.77,93.84L59.23,84.84L67.69,71.77L76.15,71.13L93.08,54.97L101.54,57.04L110,61.08L118.46,63.9L126.92,64.84L135.38,60.34L143.85,73.28L152.31,69.07L160.77,68.4L169.23,75.35L177.69,73.49L186.15,80.31L194.62,84.16L203.08,84.71L211.54,82.55L220,81.95L228.46,84.55L236.92,82.92L245.38,81.9L253.85,83.88L262.31,81.67L270.77,84.16L279.23,83.33L287.69,84.42L296.15,83.62L304.62,85.24L313.08,86.56L321.54,84.25L330,76.84L338.46,79.42L346.92,79.9L355.38,82.92L363.85,85.62L372.31,90.77L380.77,95.92L389.23,98.67L397.69,104.43L406.15,113.3L414.62,115.33L423.08,121.41L431.54,125.21L440,119.89L440,133.44L431.54,134.76L423.08,127.43L414.62,124.05L406.15,119.87L397.69,109.27L389.23,104.4L380.77,97.51L372.31,93.38L363.85,90.36L355.38,84.97L346.92,87.07L338.46,89.42L330,90.94L321.54,89.45L304.62,90.61L296.15,91.63L287.69,90.25L279.23,89.9L270.77,90.79L262.31,89.49L253.85,90.81L245.38,88.9L236.92,91.27L228.46,88.76L211.54,91.46L203.08,88.53L194.62,88.61L186.15,84.68L177.69,84.58L169.23,81.42L160.77,81.06L152.31,77.55L143.85,82.83L135.38,78.87L126.92,76.77L118.46,71.87L110,77.2L101.54,71.32L93.08,63.42L84.62,68.49L76.15,79.34L67.69,80.79L59.23,90.85L50.77,101.36L42.31,106.96L33.85,118.84L16.92,130.44L8.46,139.1L0,134.79Z" style="fill: rgb(255, 255, 191); fill-opacity: 1; stroke-width: 0;"/></g></g><g class="errorbars"/><g class="lines"><path class="js-line" d="M0,134.79L8.46,139.1L16.92,130.44L33.85,118.84L42.31,106.96L50.77,101.36L59.23,90.85L67.69,80.79L76.15,79.34L84.62,68.49L93.08,63.42L101.54,71.32L110,77.2L118.46,71.87L126.92,76.77L135.38,78.87L143.85,82.83L152.31,77.55L160.77,81.06L169.23,81.42L177.69,84.58L186.15,84.68L194.62,88.61L203.08,88.53L211.54,91.46L228.46,88.76L236.92,91.27L245.38,88.9L253.85,90.81L262.31,89.49L270.77,90.79L279.23,89.9L287.69,90.25L296.15,91.63L304.62,90.61L321.54,89.45L330,90.94L338.46,89.42L346.92,87.07L355.38,84.97L363.85,90.36L372.31,93.38L380.77,97.51L389.23,104.4L397.69,109.27L406.15,119.87L414.62,124.05L423.08,127.43L431.54,134.76L440,133.44" style="vector-effect: non-scaling-stroke; fill: none; stroke: rgb(0, 0, 0); stroke-opacity: 1; stroke-width: 1px; opacity: 1;"/></g><g class="points"/><g class="text"/></g><g class="trace scatter trace1686fd" style="stroke-miterlimit: 2;"><g class="fills"><g><path class="js-fill" d="M0,99.69L8.46,113.79L16.92,111.91L25.38,113.4L33.85,107.69L42.31,86.99L50.77,85.39L67.69,61.96L76.15,55.78L84.62,57.38L93.08,48.87L110,41.33L118.46,50.8L126.92,52.61L135.38,29.54L143.85,64.53L152.31,56.96L160.77,51.87L169.23,66.57L177.69,61.37L186.15,73.61L203.08,76.33L211.54,63.21L220,67.75L228.46,75.72L236.92,66.31L245.38,71.17L253.85,70.15L262.31,67.16L270.77,72.4L279.23,65.95L287.69,71.67L296.15,66.35L304.62,73.98L313.08,69.34L321.54,69.84L330,67.4L338.46,59.78L346.92,64.51L355.38,76.57L363.85,75.14L372.31,82.49L380.77,92.74L389.23,91.59L397.69,91.64L406.15,98.04L414.62,109.71L423.08,113.64L431.54,116.25L440,110.3L440,119.89L431.54,125.21L423.08,121.41L414.62,115.33L406.15,113.3L397.69,104.43L389.23,98.67L380.77,95.92L372.31,90.77L363.85,85.62L355.38,82.92L346.92,79.9L338.46,79.42L330,76.84L321.54,84.25L313.08,86.56L304.62,85.24L296.15,83.62L287.69,84.42L279.23,83.33L270.77,84.16L262.31,81.67L253.85,83.88L245.38,81.9L236.92,82.92L228.46,84.55L220,81.95L211.54,82.55L203.08,84.71L194.62,84.16L186.15,80.31L177.69,73.49L169.23,75.35L160.77,68.4L152.31,69.07L143.85,73.28L135.38,60.34L126.92,64.84L118.46,63.9L110,61.08L101.54,57.04L93.08,54.97L76.15,71.13L67.69,71.77L59.23,84.84L50.77,93.84L33.85,111.41L25.38,122.94L16.92,123.34L8.46,128.11L0,125.46Z" style="fill: rgb(252, 141, 89); fill-opacity: 1; stroke-width: 0;"/></g></g><g class="errorbars"/><g class="lines"><path class="js-line" d="M0,125.46L8.46,128.11L16.92,123.34L25.38,122.94L33.85,111.41L50.77,93.84L59.23,84.84L67.69,71.77L76.15,71.13L93.08,54.97L101.54,57.04L110,61.08L118.46,63.9L126.92,64.84L135.38,60.34L143.85,73.28L152.31,69.07L160.77,68.4L169.23,75.35L177.69,73.49L186.15,80.31L194.62,84.16L203.08,84.71L211.54,82.55L220,81.95L228.46,84.55L236.92,82.92L245.38,81.9L253.85,83.88L262.31,81.67L270.77,84.16L279.23,83.33L287.69,84.42L296.15,83.62L304.62,85.24L313.08,86.56L321.54,84.25L330,76.84L338.46,79.42L346.92,79.9L355.38,82.92L363.85,85.62L372.31,90.77L380.77,95.92L389.23,98.67L397.69,104.43L406.15,113.3L414.62,115.33L423.08,121.41L431.54,125.21L440,119.89" style="vector-effect: non-scaling-stroke; fill: none; stroke: rgb(0, 0, 0); stroke-opacity: 1; stroke-width: 0.5px; opacity: 1;"/></g><g class="points"/><g class="text"/></g><g class="trace scatter tracef39d60" style="stroke-miterlimit: 2;"><g class="fills"/><g class="errorbars"/><g class="lines"><path class="js-line" d="M0,99.69L8.46,113.79L16.92,111.91L25.38,113.4L33.85,107.69L42.31,86.99L50.77,85.39L67.69,61.96L76.15,55.78L84.62,57.38L93.08,48.87L110,41.33L118.46,50.8L126.92,52.61L135.38,29.54L143.85,64.53L152.31,56.96L160.77,51.87L169.23,66.57L177.69,61.37L186.15,73.61L203.08,76.33L211.54,63.21L220,67.75L228.46,75.72L236.92,66.31L245.38,71.17L253.85,70.15L262.31,67.16L270.77,72.4L279.23,65.95L287.69,71.67L296.15,66.35L304.62,73.98L313.08,69.34L321.54,69.84L330,67.4L338.46,59.78L346.92,64.51L355.38,76.57L363.85,75.14L372.31,82.49L380.77,92.74L389.23,91.59L397.69,91.64L406.15,98.04L414.62,109.71L423.08,113.64L431.54,116.25L440,110.3" style="vector-effect: non-scaling-stroke; fill: none; stroke: rgb(0, 0, 0); stroke-opacity: 1; stroke-width: 0.25px; opacity: 1;"/></g><g class="points"/><g class="text"/></g><g class="trace scatter traceef701c" style="stroke-miterlimit: 2; opacity: 1;"><g class="fills"/><g class="errorbars"/><g class="lines"/><g class="points"><path class="point" transform="translate(194.62,49.6)" d="M4,0A4,4 0 1,1 0,-4A4,4 0 0,1 4,0ZM0,0.5L0.5,0L0,-0.5L-0.5,0Z" style="opacity: 1; stroke: rgb(0, 0, 0); stroke-opacity: 1; stroke-width: 1px; fill: none;"/><path class="point" transform="translate(203.08,80.6)" d="M4,0A4,4 0 1,1 0,-4A4,4 0 0,1 4,0ZM0,0.5L0.5,0L0,-0.5L-0.5,0Z" style="opacity: 1; stroke: rgb(0, 0, 0); stroke-opacity: 1; stroke-width: 1px; fill: none;"/><path class="point" transform="translate(211.54,86.8)" d="M4,0A4,4 0 1,1 0,-4A4,4 0 0,1 4,0ZM0,0.5L0.5,0L0,-0.5L-0.5,0Z" style="opacity: 1; stroke: rgb(0, 0, 0); stroke-opacity: 1; stroke-width: 1px; fill: none;"/><path class="point" transform="translate(220,86.8)" d="M4,0A4,4 0 1,1 0,-4A4,4 0 0,1 4,0ZM0,0.5L0.5,0L0,-0.5L-0.5,0Z" style="opacity: 1; stroke: rgb(0, 0, 0); stroke-opacity: 1; stroke-width: 1px; fill: none;"/></g><g class="text"/></g></g></g><g class="overplot"/><path class="xlines-above crisp" d="M0,0" style="fill: none;"/><path class="ylines-above crisp" d="M0,0" style="fill: none;"/><g class="overlines-above"/><g class="xaxislayer-above"/><g class="yaxislayer-above"><g class="y2tick"><text text-anchor="end" x="79" y="4.199999999999999" transform="translate(0,472.00000000000006)" style="font-family: 'Open Sans', verdana, arial, sans-serif; font-size: 12px; fill: rgb(42, 63, 95); fill-opacity: 1; white-space: pre; opacity: 1;">20</text></g><g class="y2tick"><text text-anchor="end" x="79" y="4.199999999999999" style="font-family: 'Open Sans', verdana, arial, sans-serif; font-size: 12px; fill: rgb(42, 63, 95); fill-opacity: 1; white-space: pre; opacity: 1;" transform="translate(0,410.00000000000006)">30</text></g><g class="y2tick"><text text-anchor="end" x="79" y="4.199999999999999" style="font-family: 'Open Sans', verdana, arial, sans-serif; font-size: 12px; fill: rgb(42, 63, 95); fill-opacity: 1; white-space: pre; opacity: 1;" transform="translate(0,348.00000000000006)">40</text></g></g><g class="overaxes-above"/></g><g class="subplot x3y3"><g class="layer-subplot"><g class="shapelayer"/><g class="imagelayer"/></g><g class="minor-gridlayer"><g class="x3"/><g class="y3"/></g><g class="gridlayer"><g class="x3"><path class="x3grid crisp" transform="translate(156.15,0)" d="M0,534v186" style="stroke: rgb(255, 255, 255); stroke-opacity: 1; stroke-width: 1px;"/><path class="x3grid crisp" transform="translate(240.77,0)" d="M0,534v186" style="stroke: rgb(255, 255, 255); stroke-opacity: 1; stroke-width: 1px;"/><path class="x3grid crisp" transform="translate(325.38,0)" d="M0,534v186" style="stroke: rgb(255, 255, 255); stroke-opacity: 1; stroke-width: 1px;"/><path class="x3grid crisp" transform="translate(410,0)" d="M0,534v186" style="stroke: rgb(255, 255, 255); stroke-opacity: 1; stroke-width: 1px;"/><path class="x3grid crisp" transform="translate(494.62,0)" d="M0,534v186" style="stroke: rgb(255, 255, 255); stroke-opacity: 1; stroke-width: 1px;"/></g><g class="y3"><path class="y3grid crisp" transform="translate(0,682.8)" d="M80,0h440" style="stroke: rgb(255, 255, 255); stroke-opacity: 1; stroke-width: 1px;"/><path class="y3grid crisp" transform="translate(0,645.6)" d="M80,0h440" style="stroke: rgb(255, 255, 255); stroke-opacity: 1; stroke-width: 1px;"/><path class="y3grid crisp" transform="translate(0,608.4)" d="M80,0h440" style="stroke: rgb(255, 255, 255); stroke-opacity: 1; stroke-width: 1px;"/><path class="y3grid crisp" transform="translate(0,571.2)" d="M80,0h440" style="stroke: rgb(255, 255, 255); stroke-opacity: 1; stroke-width: 1px;"/></g></g><g class="zerolinelayer"/><path class="xlines-below"/><path class="ylines-below"/><g class="overlines-below"/><g class="xaxislayer-below"/><g class="yaxislayer-below"/><g class="overaxes-below"/><g class="plot" transform="translate(80,534)" clip-path="url(#clip65ef8bx3y3plot)"><g class="scatterlayer mlayer"><g class="trace scatter tracea7604a" style="stroke-miterlimit: 2;"><g class="fills"><g><path class="js-fill" d="M0,120.49L8.46,125.59L16.92,119.96L25.38,121.38L33.85,114.29L42.31,103.07L50.77,97.88L59.23,93.71L67.69,80.6L76.15,78.07L84.62,67.61L93.08,63.28L101.54,60.08L110,59.56L118.46,58.2L126.92,52.44L135.38,54.02L143.85,51.74L152.31,45.53L169.23,40.38L177.69,39.92L203.08,37.09L211.54,37.31L220,36.88L228.46,37.76L245.38,38.69L253.85,39.03L270.77,38.01L279.23,39.34L287.69,38.62L296.15,40.18L321.54,41.56L330,43.3L338.46,45.95L346.92,49.93L355.38,49.37L363.85,58.42L372.31,64.54L380.77,71.86L389.23,81.82L397.69,94.19L414.62,103.29L423.08,113.01L431.54,117.48L440,124.35L440,131.64L431.54,124.82L423.08,121.42L414.62,119.71L406.15,115.82L397.69,101.09L389.23,88.3L380.77,80.75L372.31,71.04L363.85,63.71L355.38,52.36L346.92,56.11L338.46,50.31L330,47.49L321.54,45.6L313.08,45.66L304.62,44.48L296.15,42.06L287.69,41.06L279.23,42.51L270.77,40.11L262.31,41.95L253.85,43.81L228.46,39.62L220,40.25L211.54,39.35L203.08,41.58L194.62,42.49L186.15,43.51L177.69,48.09L169.23,44.82L152.31,50.76L143.85,56.91L135.38,60.19L126.92,64.82L118.46,65.32L110,70.2L101.54,68.29L93.08,72.72L84.62,87.28L76.15,88.37L67.69,98.83L59.23,107.02L50.77,110.02L42.31,120.12L33.85,125.65L25.38,127.88L16.92,126.81L8.46,138.42L0,126.11Z" style="fill: rgb(90, 180, 172); fill-opacity: 1; stroke-width: 0;"/></g></g><g class="errorbars"/><g class="lines"><path class="js-line" d="M0,126.11L8.46,138.42L16.92,126.81L25.38,127.88L33.85,125.65L42.31,120.12L50.77,110.02L59.23,107.02L67.69,98.83L76.15,88.37L84.62,87.28L93.08,72.72L101.54,68.29L110,70.2L118.46,65.32L126.92,64.82L135.38,60.19L143.85,56.91L152.31,50.76L169.23,44.82L177.69,48.09L186.15,43.51L194.62,42.49L203.08,41.58L211.54,39.35L220,40.25L228.46,39.62L253.85,43.81L262.31,41.95L270.77,40.11L279.23,42.51L287.69,41.06L296.15,42.06L304.62,44.48L313.08,45.66L321.54,45.6L330,47.49L338.46,50.31L346.92,56.11L355.38,52.36L363.85,63.71L372.31,71.04L380.77,80.75L389.23,88.3L397.69,101.09L406.15,115.82L414.62,119.71L423.08,121.42L431.54,124.82L440,131.64" style="vector-effect: non-scaling-stroke; fill: none; stroke: rgb(0, 0, 0); stroke-opacity: 1; stroke-width: 0.25px; opacity: 1;"/></g><g class="points"/><g class="text"/></g><g class="trace scatter trace8a383e" style="stroke-miterlimit: 2;"><g class="fills"><g><path class="js-fill" d="M0,114.25L8.46,119.47L16.92,114.62L25.38,109.82L33.85,109.96L42.31,98.44L50.77,91.75L67.69,73.7L76.15,72.78L84.62,62.28L93.08,55.62L110,55.1L118.46,53.46L126.92,47.83L135.38,49.53L143.85,49.17L152.31,43.92L160.77,39.72L169.23,39.55L186.15,36.39L194.62,36.7L220,35.46L228.46,35.53L245.38,37.47L253.85,37.86L262.31,34.53L270.77,36.52L287.69,37.09L296.15,38.7L304.62,39.61L313.08,39.46L321.54,39.45L330,40.87L346.92,44.82L355.38,48.41L363.85,55.89L372.31,59.95L380.77,66.45L389.23,74.73L397.69,85.09L406.15,90.91L431.54,112.71L440,117.63L440,124.35L431.54,117.48L423.08,113.01L414.62,103.29L397.69,94.19L389.23,81.82L380.77,71.86L372.31,64.54L363.85,58.42L355.38,49.37L346.92,49.93L338.46,45.95L330,43.3L321.54,41.56L296.15,40.18L287.69,38.62L279.23,39.34L270.77,38.01L253.85,39.03L245.38,38.69L228.46,37.76L220,36.88L211.54,37.31L203.08,37.09L177.69,39.92L169.23,40.38L152.31,45.53L143.85,51.74L135.38,54.02L126.92,52.44L118.46,58.2L110,59.56L101.54,60.08L93.08,63.28L84.62,67.61L76.15,78.07L67.69,80.6L59.23,93.71L50.77,97.88L42.31,103.07L33.85,114.29L25.38,121.38L16.92,119.96L8.46,125.59L0,120.49Z" style="fill: rgb(245, 245, 245); fill-opacity: 1; stroke-width: 0;"/></g></g><g class="errorbars"/><g class="lines"><path class="js-line" d="M0,120.49L8.46,125.59L16.92,119.96L25.38,121.38L33.85,114.29L42.31,103.07L50.77,97.88L59.23,93.71L67.69,80.6L76.15,78.07L84.62,67.61L93.08,63.28L101.54,60.08L110,59.56L118.46,58.2L126.92,52.44L135.38,54.02L143.85,51.74L152.31,45.53L169.23,40.38L177.69,39.92L203.08,37.09L211.54,37.31L220,36.88L228.46,37.76L245.38,38.69L253.85,39.03L270.77,38.01L279.23,39.34L287.69,38.62L296.15,40.18L321.54,41.56L330,43.3L338.46,45.95L346.92,49.93L355.38,49.37L363.85,58.42L372.31,64.54L380.77,71.86L389.23,81.82L397.69,94.19L414.62,103.29L423.08,113.01L431.54,117.48L440,124.35" style="vector-effect: non-scaling-stroke; fill: none; stroke: rgb(0, 0, 0); stroke-opacity: 1; stroke-width: 0.5px; opacity: 1;"/></g><g class="points"/><g class="text"/></g><g class="trace scatter tracecd326b" style="stroke-miterlimit: 2;"><g class="fills"><g><path class="js-fill" d="M0,105.86L8.46,110.64L16.92,109.37L25.38,105.68L33.85,99.53L42.31,89.81L50.77,84.63L67.69,66.03L76.15,64.61L84.62,53.11L93.08,50.9L101.54,49.47L110,49.23L126.92,44.13L135.38,39.45L143.85,41.24L152.31,41.11L169.23,34.97L177.69,33.85L203.08,33.74L211.54,34.67L228.46,32.86L236.92,35.34L245.38,35.63L253.85,34.87L262.31,32.85L270.77,34.74L279.23,34.5L287.69,35.45L296.15,36.19L304.62,37.85L313.08,38.02L321.54,36.87L330,34.73L338.46,37.7L346.92,38.97L355.38,45.82L363.85,52.77L372.31,54.3L380.77,64.61L389.23,71.17L414.62,90.25L423.08,91.99L431.54,103.18L440,116.27L440,117.63L431.54,112.71L406.15,90.91L397.69,85.09L389.23,74.73L380.77,66.45L372.31,59.95L363.85,55.89L355.38,48.41L346.92,44.82L330,40.87L321.54,39.45L313.08,39.46L304.62,39.61L296.15,38.7L287.69,37.09L270.77,36.52L262.31,34.53L253.85,37.86L245.38,37.47L228.46,35.53L220,35.46L194.62,36.7L186.15,36.39L169.23,39.55L160.77,39.72L152.31,43.92L143.85,49.17L135.38,49.53L126.92,47.83L118.46,53.46L110,55.1L93.08,55.62L84.62,62.28L76.15,72.78L67.69,73.7L50.77,91.75L42.31,98.44L33.85,109.96L25.38,109.82L16.92,114.62L8.46,119.47L0,114.25Z" style="fill: rgb(245, 245, 245); fill-opacity: 1; stroke-width: 0;"/></g></g><g class="errorbars"/><g class="lines"><path class="js-line" d="M0,114.25L8.46,119.47L16.92,114.62L25.38,109.82L33.85,109.96L42.31,98.44L50.77,91.75L67.69,73.7L76.15,72.78L84.62,62.28L93.08,55.62L110,55.1L118.46,53.46L126.92,47.83L135.38,49.53L143.85,49.17L152.31,43.92L160.77,39.72L169.23,39.55L186.15,36.39L194.62,36.7L220,35.46L228.46,35.53L245.38,37.47L253.85,37.86L262.31,34.53L270.77,36.52L287.69,37.09L296.15,38.7L304.62,39.61L313.08,39.46L321.54,39.45L330,40.87L346.92,44.82L355.38,48.41L363.85,55.89L372.31,59.95L380.77,66.45L389.23,74.73L397.69,85.09L406.15,90.91L431.54,112.71L440,117.63" style="vector-effect: non-scaling-stroke; fill: none; stroke: rgb(0, 0, 0); stroke-opacity: 1; stroke-width: 1px; opacity: 1;"/></g><g class="points"/><g class="text"/></g><g class="trace scatter tracec5a756" style="stroke-miterlimit: 2;"><g class="fills"><g><path class="js-fill" d="M0,101.58L8.46,103.22L16.92,101.91L25.38,94.06L33.85,91.03L50.77,67.92L59.23,65.34L67.69,54.09L76.15,47.55L84.62,46.34L93.08,41.02L101.54,41.93L110,40.91L118.46,38.99L126.92,35.15L135.38,20.29L143.85,39.29L152.31,37.59L160.77,33.57L169.23,27.39L177.69,28.51L186.15,30.17L194.62,29.08L203.08,32.82L211.54,30.98L220,31.23L228.46,27.23L236.92,33.44L245.38,32.57L253.85,32.98L262.31,31.25L270.77,32.56L279.23,28.29L287.69,34.02L296.15,34.42L304.62,36.42L313.08,36.61L321.54,33.4L330,26L338.46,34.85L346.92,26.72L355.38,42.63L363.85,48.1L372.31,44.75L380.77,57.99L389.23,62.61L397.69,69.79L406.15,72.65L414.62,77.13L423.08,82.85L431.54,94.4L440,114.35L440,116.27L431.54,103.18L423.08,91.99L414.62,90.25L389.23,71.17L380.77,64.61L372.31,54.3L363.85,52.77L355.38,45.82L346.92,38.97L338.46,37.7L330,34.73L321.54,36.87L313.08,38.02L304.62,37.85L296.15,36.19L287.69,35.45L279.23,34.5L270.77,34.74L262.31,32.85L253.85,34.87L245.38,35.63L236.92,35.34L228.46,32.86L211.54,34.67L203.08,33.74L177.69,33.85L169.23,34.97L152.31,41.11L143.85,41.24L135.38,39.45L126.92,44.13L110,49.23L101.54,49.47L93.08,50.9L84.62,53.11L76.15,64.61L67.69,66.03L50.77,84.63L42.31,89.81L33.85,99.53L25.38,105.68L16.92,109.37L8.46,110.64L0,105.86Z" style="fill: rgb(216, 179, 101); fill-opacity: 1; stroke-width: 0;"/></g></g><g class="errorbars"/><g class="lines"><path class="js-line" d="M0,105.86L8.46,110.64L16.92,109.37L25.38,105.68L33.85,99.53L42.31,89.81L50.77,84.63L67.69,66.03L76.15,64.61L84.62,53.11L93.08,50.9L101.54,49.47L110,49.23L126.92,44.13L135.38,39.45L143.85,41.24L152.31,41.11L169.23,34.97L177.69,33.85L203.08,33.74L211.54,34.67L228.46,32.86L236.92,35.34L245.38,35.63L253.85,34.87L262.31,32.85L270.77,34.74L279.23,34.5L287.69,35.45L296.15,36.19L304.62,37.85L313.08,38.02L321.54,36.87L330,34.73L338.46,37.7L346.92,38.97L355.38,45.82L363.85,52.77L372.31,54.3L380.77,64.61L389.23,71.17L414.62,90.25L423.08,91.99L431.54,103.18L440,116.27" style="vector-effect: non-scaling-stroke; fill: none; stroke: rgb(0, 0, 0); stroke-opacity: 1; stroke-width: 0.5px; opacity: 1;"/></g><g class="points"/><g class="text"/></g><g class="trace scatter trace8aab46" style="stroke-miterlimit: 2;"><g class="fills"/><g class="errorbars"/><g class="lines"><path class="js-line" d="M0,101.58L8.46,103.22L16.92,101.91L25.38,94.06L33.85,91.03L50.77,67.92L59.23,65.34L67.69,54.09L76.15,47.55L84.62,46.34L93.08,41.02L101.54,41.93L110,40.91L118.46,38.99L126.92,35.15L135.38,20.29L143.85,39.29L152.31,37.59L160.77,33.57L169.23,27.39L177.69,28.51L186.15,30.17L194.62,29.08L203.08,32.82L211.54,30.98L220,31.23L228.46,27.23L236.92,33.44L245.38,32.57L253.85,32.98L262.31,31.25L270.77,32.56L279.23,28.29L287.69,34.02L296.15,34.42L304.62,36.42L313.08,36.61L321.54,33.4L330,26L338.46,34.85L346.92,26.72L355.38,42.63L363.85,48.1L372.31,44.75L380.77,57.99L389.23,62.61L397.69,69.79L406.15,72.65L414.62,77.13L423.08,82.85L431.54,94.4L440,114.35" style="vector-effect: non-scaling-stroke; fill: none; stroke: rgb(0, 0, 0); stroke-opacity: 1; stroke-width: 0.25px; opacity: 1;"/></g><g class="points"/><g class="text"/></g><g class="trace scatter trace0b851b" style="stroke-miterlimit: 2; opacity: 1;"><g class="fills"/><g class="errorbars"/><g class="lines"/><g class="points"><path class="point" transform="translate(194.62,29.76)" d="M4,0A4,4 0 1,1 0,-4A4,4 0 0,1 4,0ZM0,0.5L0.5,0L0,-0.5L-0.5,0Z" style="opacity: 1; stroke: rgb(0, 0, 0); stroke-opacity: 1; stroke-width: 1px; fill: none;"/><path class="point" transform="translate(203.08,29.76)" d="M4,0A4,4 0 1,1 0,-4A4,4 0 0,1 4,0ZM0,0.5L0.5,0L0,-0.5L-0.5,0Z" style="opacity: 1; stroke: rgb(0, 0, 0); stroke-opacity: 1; stroke-width: 1px; fill: none;"/><path class="point" transform="translate(211.54,29.76)" d="M4,0A4,4 0 1,1 0,-4A4,4 0 0,1 4,0ZM0,0.5L0.5,0L0,-0.5L-0.5,0Z" style="opacity: 1; stroke: rgb(0, 0, 0); stroke-opacity: 1; stroke-width: 1px; fill: none;"/><path class="point" transform="translate(220,29.76)" d="M4,0A4,4 0 1,1 0,-4A4,4 0 0,1 4,0ZM0,0.5L0.5,0L0,-0.5L-0.5,0Z" style="opacity: 1; stroke: rgb(0, 0, 0); stroke-opacity: 1; stroke-width: 1px; fill: none;"/></g><g class="text"/></g></g></g><g class="overplot"/><path class="xlines-above crisp" d="M0,0" style="fill: none;"/><path class="ylines-above crisp" d="M0,0" style="fill: none;"/><g class="overlines-above"/><g class="xaxislayer-above"><g class="x3tick"><text text-anchor="middle" x="0" y="733" transform="translate(156.15,0)" style="font-family: 'Open Sans', verdana, arial, sans-serif; font-size: 12px; fill: rgb(42, 63, 95); fill-opacity: 1; white-space: pre; opacity: 1;">10</text></g><g class="x3tick"><text text-anchor="middle" x="0" y="733" style="font-family: 'Open Sans', verdana, arial, sans-serif; font-size: 12px; fill: rgb(42, 63, 95); fill-opacity: 1; white-space: pre; opacity: 1;" transform="translate(240.77,0)">20</text></g><g class="x3tick"><text text-anchor="middle" x="0" y="733" style="font-family: 'Open Sans', verdana, arial, sans-serif; font-size: 12px; fill: rgb(42, 63, 95); fill-opacity: 1; white-space: pre; opacity: 1;" transform="translate(325.38,0)">30</text></g><g class="x3tick"><text text-anchor="middle" x="0" y="733" style="font-family: 'Open Sans', verdana, arial, sans-serif; font-size: 12px; fill: rgb(42, 63, 95); fill-opacity: 1; white-space: pre; opacity: 1;" transform="translate(410,0)">40</text></g><g class="x3tick"><text text-anchor="middle" x="0" y="733" style="font-family: 'Open Sans', verdana, arial, sans-serif; font-size: 12px; fill: rgb(42, 63, 95); fill-opacity: 1; white-space: pre; opacity: 1;" transform="translate(494.62,0)">50</text></g></g><g class="yaxislayer-above"><g class="y3tick"><text text-anchor="end" x="79" y="4.199999999999999" transform="translate(0,720)" style="font-family: 'Open Sans', verdana, arial, sans-serif; font-size: 12px; fill: rgb(42, 63, 95); fill-opacity: 1; white-space: pre; opacity: 1;">5</text></g><g class="y3tick"><text text-anchor="end" x="79" y="4.199999999999999" style="font-family: 'Open Sans', verdana, arial, sans-serif; font-size: 12px; fill: rgb(42, 63, 95); fill-opacity: 1; white-space: pre; opacity: 1;" transform="translate(0,682.8)">10</text></g><g class="y3tick"><text text-anchor="end" x="79" y="4.199999999999999" style="font-family: 'Open Sans', verdana, arial, sans-serif; font-size: 12px; fill: rgb(42, 63, 95); fill-opacity: 1; white-space: pre; opacity: 1;" transform="translate(0,645.6)">15</text></g><g class="y3tick"><text text-anchor="end" x="79" y="4.199999999999999" style="font-family: 'Open Sans', verdana, arial, sans-serif; font-size: 12px; fill: rgb(42, 63, 95); fill-opacity: 1; white-space: pre; opacity: 1;" transform="translate(0,608.4)">20</text></g><g class="y3tick"><text text-anchor="end" x="79" y="4.199999999999999" style="font-family: 'Open Sans', verdana, arial, sans-serif; font-size: 12px; fill: rgb(42, 63, 95); fill-opacity: 1; white-space: pre; opacity: 1;" transform="translate(0,571.2)">25</text></g><g class="y3tick"><text text-anchor="end" x="79" y="4.199999999999999" style="font-family: 'Open Sans', verdana, arial, sans-serif; font-size: 12px; fill: rgb(42, 63, 95); fill-opacity: 1; white-space: pre; opacity: 1;" transform="translate(0,534)">30</text></g></g><g class="overaxes-above"/></g></g><g class="polarlayer"/><g class="smithlayer"/><g class="ternarylayer"/><g class="geolayer"/><g class="funnelarealayer"/><g class="pielayer"/><g class="iciclelayer"/><g class="treemaplayer"/><g class="sunburstlayer"/><g class="glimages"/><defs id="topdefs-65ef8b"><g class="clips"/></defs><g class="layer-above"><g class="imagelayer"/><g class="shapelayer"/></g><g class="infolayer"><g class="g-gtitle"><text class="gtitle" x="30" y="50" text-anchor="start" dy="0em" style="font-family: 'Open Sans', verdana, arial, sans-serif; font-size: 17px; fill: rgb(42, 63, 95); opacity: 1; font-weight: normal; white-space: pre;">Climatology and S2S forecast for Dhaka</text></g><g class="g-xtitle"/><g class="g-x2title"/><g class="g-x3title"/><g class="g-ytitle"><text class="ytitle" transform="rotate(-90,34.16875,193)" x="34.16875" y="193" text-anchor="middle" style="font-family: 'Open Sans', verdana, arial, sans-serif; font-size: 14px; fill: rgb(42, 63, 95); opacity: 1; font-weight: normal; white-space: pre;">[mm]</text></g><g class="g-y2title"><text class="y2title" transform="rotate(-90,40.840625,410.00000000000006)" x="40.840625" y="410.00000000000006" text-anchor="middle" style="font-family: 'Open Sans', verdana, arial, sans-serif; font-size: 14px; fill: rgb(42, 63, 95); opacity: 1; font-weight: normal; white-space: pre;">[C]</text></g><g class="g-y3title"><text class="y3title" transform="rotate(-90,40.840625,627)" x="40.840625" y="627" text-anchor="middle" style="font-family: 'Open Sans', verdana, arial, sans-serif; font-size: 14px; fill: rgb(42, 63, 95); opacity: 1; font-weight: normal; white-space: pre;">[C]</text></g><g class="annotation" data-index="0" style="opacity: 1;"><g class="annotation-text-g" transform="rotate(0,300,89.5)"><g class="cursor-pointer" transform="translate(237,79)"><rect class="bg" x="0.5" y="0.5" width="126" height="20" style="stroke-width: 1px; stroke: rgb(0, 0, 0); stroke-opacity: 0; fill: rgb(0, 0, 0); fill-opacity: 0;"/><text class="annotation-text" text-anchor="middle" x="63.359375" y="16" style="font-family: 'Open Sans', verdana, arial, sans-serif; font-size: 16px; fill: rgb(42, 63, 95); fill-opacity: 1; white-space: pre;">Precipitation sum</text></g></g></g><g class="annotation" data-index="1" style="opacity: 1;"><g class="annotation-text-g" transform="rotate(0,300,306.50000000000006)"><g class="cursor-pointer" transform="translate(196,296)"><rect class="bg" x="0.5" y="0.5" width="208" height="20" style="stroke-width: 1px; stroke: rgb(0, 0, 0); stroke-opacity: 0; fill: rgb(0, 0, 0); fill-opacity: 0;"/><text class="annotation-text" text-anchor="middle" x="104.265625" y="16" style="font-family: 'Open Sans', verdana, arial, sans-serif; font-size: 16px; fill: rgb(42, 63, 95); fill-opacity: 1; white-space: pre;">Mean maximum temperature</text></g></g></g><g class="annotation" data-index="2" style="opacity: 1;"><g class="annotation-text-g" transform="rotate(0,300,523.5)"><g class="cursor-pointer" transform="translate(198,513)"><rect class="bg" x="0.5" y="0.5" width="203" height="20" style="stroke-width: 1px; stroke: rgb(0, 0, 0); stroke-opacity: 0; fill: rgb(0, 0, 0); fill-opacity: 0;"/><text class="annotation-text" text-anchor="middle" x="102.046875" y="16" style="font-family: 'Open Sans', verdana, arial, sans-serif; font-size: 16px; fill: rgb(42, 63, 95); fill-opacity: 1; white-space: pre;">Mean minimum temperature</text></g></g></g><g class="annotation" data-index="3" style="opacity: 1;"><g class="annotation-text-g" transform="rotate(0,300,760.5)"><g class="cursor-pointer" transform="translate(277,750)"><rect class="bg" x="0.5" y="0.5" width="45" height="20" style="stroke-width: 1px; stroke: rgb(0, 0, 0); stroke-opacity: 0; fill: rgb(0, 0, 0); fill-opacity: 0;"/><text class="annotation-text" text-anchor="middle" x="22.3125" y="16" style="font-family: 'Open Sans', verdana, arial, sans-serif; font-size: 16px; fill: rgb(42, 63, 95); fill-opacity: 1; white-space: pre;">Week</text></g></g></g></g></svg>