<svg class="main-svg" xmlns="http://www.w3.org/2000/svg" xmlns:xlink="http://www.w3.org/1999/xlink" width="600" height="800" style="" viewBox="0 0 600 800"><rect x="0" y="0" width="600" height="800" style="fill: rgb(255, 255, 255); fill-opacity: 1;"/><defs id="defs-a2bec0"><g class="clips"><clipPath id="clipa2bec0xyplot" class="plotclip"><rect width="440" height="186.00000000000003"/></clipPath><clipPath id="clipa2bec0x2y2plot" class="plotclip"><rect width="440" height="185.99999999999997"/></clipPath><clipPath id="clipa2bec0x3y3plot" class="plotclip"><rect width="440" height="186"/></clipPath><clipPath class="axesclip" id="clipa2bec0x"><rect x="80" y="0" width="440" height="800"/></clipPath><clipPath class="axesclip" id="clipa2bec0y"><rect x="0" y="100" width="600" height="186.00000000000003"/></clipPath><clipPath class="axesclip" id="clipa2bec0xy"><rect x="80" y="100" width="440" height="186.00000000000003"/></clipPath><clipPath class="axesclip" id="clipa2bec0y2"><rect x="0" y="317.00000000000006" width="600" height="185.99999999999997"/></clipPath><clipPath class="axesclip" id="clipa2bec0xy2"><rect x="80" y="317.00000000000006" width="440" height="185.99999999999997"/></clipPath><clipPath class="axesclip" id="clipa2bec0y3"><rect x="0" y="534" width="600" height="186"/></clipPath><clipPath class="axesclip" id="clipa2bec0xy3"><rect x="80" y="534" width="440" height="186"/></clipPath><clipPath class="axesclip" id="clipa2bec0x2"><rect x="80" y="0" width="440" height="800"/></clipPath><clipPath class="axesclip" id="clipa2bec0x2y"><rect x="80" y="100" width="440" height="186.00000000000003"/></clipPath><clipPath class="axesclip" id="clipa2bec0x2y2"><rect x="80" y="317.00000000000006" width="440" height="185.99999999999997"/></clipPath><clipPath class="axesclip" id="clipa2bec0x2y3"><rect x="80" y="534" width="440" height="186"/></clipPath><clipPath class="axesclip" id="clipa2bec0x3"><rect x="80" y="0" width="440" height="800"/></clipPath><clipPath class="axesclip" id="clipa2bec0x3y"><rect x="80" y="100" width="440" height="186.00000000000003"/></clipPath><clipPath class="axesclip" id="clipa2bec0x3y2"><rect x="80" y="317.00000000000006" width="440" height="185.99999999999997"/></clipPath><clipPath class="axesclip" id="clipa2bec0x3y3"><rect x="80" y="534" width="440" height="186"/></clipPath></g><g class="gradients"/><g class="patterns"/></defs><g class="bglayer"><rect class="bg" x="80" y="100" width="440" height="186.00000000000003" style="fill: rgb(229, 236, 246); fill-opacity: 1; stroke-width: 0;"/><rect class="bg" x="80" y="317.00000000000006" width="440" height="185.99999999999997" style="fill: rgb(229, 236, 246); fill-opacity: 1; stroke-width: 0;"/><rect class="bg" x="80" y="534" width="440" height="186" style="fill: rgb(229, 236, 246); fill-opacity: 1; stroke-width: 0;"/></g><g class="layer-below"><g class="imagelayer"/><g class="shapelayer"/></g><g class="cartesianlayer"><g class="subplot xy"><g class="layer-subplot"><g class="shapelayer"/><g class="imagelayer"/></g><g class="minor-gridlayer"><g class="x"/><g class="y"/></g><g class="gridlayer"><g class="x"><path class="xgrid crisp" transform="translate(156.15,0)" d="M0,100v186.00000000000003" style="stroke: rgb(255, 255, 255); stroke-opacity: 1; stroke-width: 1px;"/><path class="xgrid crisp" transform="translate(240.77,0)" d="M0,100v186.00000000000003" style="stroke: rgb(255, 255, 255); stroke-opacity: 1; stroke-width: 1px;"/><path class="xgrid crisp" transform="translate(325.38,0)" d="M0,100v186.00000000000003" style="stroke: rgb(255, 255, 255); stroke-opacity: 1; stroke-width: 1px;"/><path class="xgrid crisp" transform="translate(410,0)" d="M0,100v186.00000000000003" style="stroke: rgb(255, 255, 255); stroke-opacity: 1; stroke-width: 1px;"/><path class="xgrid crisp" transform="translate(494.62,0)" d="M0,100v186.00000000000003" style="stroke: rgb(255, 255, 255); stroke-opacity: 1; stroke-width: 1px;"/></g><g class="y"><path class="ygrid crisp" transform="translate(0,248.8)" d="M80,0h440" style="stroke: rgb(255, 255, 255); stroke-opacity: 1; stroke-width: 1px;"/><path class="ygrid crisp" transform="translate(0,211.6)" d="M80,0h440" style="stroke: rgb(255, 255, 255); stroke-opacity: 1; stroke-width: 1px;"/><path class="ygrid crisp" transform="translate(0,174.4)" d="M80,0h440" style="stroke: rgb(255, 255, 255); stroke-opacity: 1; stroke-width: 1px;"/><path class="ygrid crisp" transform="translate(0,137.2)" d="M80,0h440" style="stroke: rgb(255, 255, 255); stroke-opacity: 1; stroke-width: 1px;"/></g></g><g class="zerolinelayer"><path class="yzl zl crisp" transform="translate(0,286)" d="M80,0h440" style="stroke: rgb(255, 255, 255); stroke-opacity: 1; stroke-width: 2px;"/></g><path class="xlines-below"/><path class="ylines-below"/><g class="overlines-below"/><g class="xaxislayer-below"/><g class="yaxislayer-below"/><g class="overaxes-below"/><g class="plot" transform="translate(80,100)" clip-path="url(#clipa2bec0xyplot)"><g class="scatterlayer mlayer"><g class="trace scatter traceb2eeb5" style="stroke-miterlimit: 2;"><g class="fills"><g><path class="js-fill" d="M0,186L126.92,185.91L135.38,184.45L143.85,172.34L152.31,182.46L160.77,169.97L169.23,165.82L177.69,170.93L186.15,146.89L194.62,161.3L203.08,145.33L211.54,134.72L220,153.53L228.46,138.32L236.92,141.41L245.38,138.62L253.85,143.74L262.31,133.52L270.77,137.69L279.23,151.68L287.69,158.73L296.15,166.52L304.62,167.79L313.08,171.63L321.54,161.71L330,177.74L338.46,168.96L346.92,185.11L355.38,186L440,186L440,186L414.62,186L406.15,186L330,185.91L321.54,185.89L313.08,180.66L304.62,184.07L296.15,174.19L287.69,179.78L279.23,182.68L270.77,161.32L262.31,178.08L253.85,184.72L245.38,184.21L236.92,177.53L228.46,173.36L220,183.5L211.54,172L203.08,181.9L194.62,180.81L186.15,186L177.69,184.96L169.23,185.77L0,186Z" style="fill: rgb(224, 236, 244); fill-opacity: 1; stroke-width: 0;"/></g></g><g class="errorbars"/><g class="lines"><path class="js-line" d="M0,186L169.23,185.77L177.69,184.96L186.15,186L194.62,180.81L203.08,181.9L211.54,172L220,183.5L228.46,173.36L236.92,177.53L245.38,184.21L253.85,184.72L262.31,178.08L270.77,161.32L279.23,182.68L287.69,179.78L296.15,174.19L304.62,184.07L313.08,180.66L321.54,185.89L330,185.91L406.15,186L414.62,186L440,186" style="vector-effect: non-scaling-stroke; fill: none; stroke: rgb(0, 0, 0); stroke-opacity: 1; stroke-width: 0.25px; opacity: 1;"/></g><g class="points"/><g class="text"/></g><g class="trace scatter trace0af434" style="stroke-miterlimit: 2;"><g class="fills"><g><path class="js-fill" d="M0,186L101.54,185.74L110,170.32L118.46,184.87L126.92,181.41L135.38,171.1L143.85,157.18L152.31,166.21L160.77,143.21L169.23,141.43L177.69,149.64L186.15,122.83L194.62,133.63L203.08,113.22L211.54,84.73L220,121.37L228.46,118L236.92,123.66L245.38,115.28L253.85,122.85L262.31,113.73L270.77,107.99L279.23,132.86L287.69,143.19L296.15,143.61L304.62,142.99L313.08,161.03L321.54,144.78L330,160.06L338.46,149.64L346.92,172.28L355.38,184.87L363.85,185.65L397.69,186L406.15,186L440,186L440,186L355.38,186L346.92,185.11L338.46,168.96L330,177.74L321.54,161.71L313.08,171.63L304.62,167.79L296.15,166.52L287.69,158.73L279.23,151.68L270.77,137.69L262.31,133.52L253.85,143.74L245.38,138.62L236.92,141.41L228.46,138.32L220,153.53L211.54,134.72L203.08,145.33L194.62,161.3L186.15,146.89L177.69,170.93L169.23,165.82L160.77,169.97L152.31,182.46L143.85,172.34L135.38,184.45L126.92,185.91L0,186Z" style="fill: rgb(158, 188, 218); fill-opacity: 1; stroke-width: 0;"/></g></g><g class="errorbars"/><g class="lines"><path class="js-line" d="M0,186L126.92,185.91L135.38,184.45L143.85,172.34L152.31,182.46L160.77,169.97L169.23,165.82L177.69,170.93L186.15,146.89L194.62,161.3L203.08,145.33L211.54,134.72L220,153.53L228.46,138.32L236.92,141.41L245.38,138.62L253.85,143.74L262.31,133.52L270.77,137.69L279.23,151.68L287.69,158.73L296.15,166.52L304.62,167.79L313.08,171.63L321.54,161.71L330,177.74L338.46,168.96L346.92,185.11L355.38,186L440,186" style="vector-effect: non-scaling-stroke; fill: none; stroke: rgb(0, 0, 0); stroke-opacity: 1; stroke-width: 0.5px; opacity: 1;"/></g><g class="points"/><g class="text"/></g><g class="trace scatter trace3620d2" style="stroke-miterlimit: 2;"><g class="fills"><g><path class="js-fill" d="M0,185.99L42.31,185.86L50.77,185.07L59.23,184.11L67.69,184.88L76.15,179.61L84.62,183.39L93.08,180.11L101.54,181.95L110,159.73L118.46,173.73L126.92,156.51L135.38,159.51L143.85,140.37L152.31,150.45L160.77,123.15L169.23,109.55L177.69,100.19L186.15,101.34L194.62,97.14L203.08,86.3L211.54,34.82L220,59.43L228.46,86.44L236.92,78.26L245.38,75.65L253.85,100.48L262.31,92.54L270.77,90.42L279.23,113.96L287.69,121.05L296.15,119.38L304.62,105.81L313.08,127.39L321.54,116.67L330,133.95L338.46,120.38L346.92,160.24L355.38,164.59L363.85,180.71L372.31,184.97L380.77,181.63L389.23,185.99L440,186L440,186L406.15,186L397.69,186L363.85,185.65L355.38,184.87L346.92,172.28L338.46,149.64L330,160.06L321.54,144.78L313.08,161.03L304.62,142.99L296.15,143.61L287.69,143.19L279.23,132.86L270.77,107.99L262.31,113.73L253.85,122.85L245.38,115.28L236.92,123.66L228.46,118L220,121.37L211.54,84.73L203.08,113.22L194.62,133.63L186.15,122.83L177.69,149.64L169.23,141.43L160.77,143.21L152.31,166.21L143.85,157.18L135.38,171.1L126.92,181.41L118.46,184.87L110,170.32L101.54,185.74L0,186Z" style="fill: rgb(158, 188, 218); fill-opacity: 1; stroke-width: 0;"/></g></g><g class="errorbars"/><g class="lines"><path class="js-line" d="M0,186L101.54,185.74L110,170.32L118.46,184.87L126.92,181.41L135.38,171.1L143.85,157.18L152.31,166.21L160.77,143.21L169.23,141.43L177.69,149.64L186.15,122.83L194.62,133.63L203.08,113.22L211.54,84.73L220,121.37L228.46,118L236.92,123.66L245.38,115.28L253.85,122.85L262.31,113.73L270.77,107.99L279.23,132.86L287.69,143.19L296.15,143.61L304.62,142.99L313.08,161.03L321.54,144.78L330,160.06L338.46,149.64L346.92,172.28L355.38,184.87L363.85,185.65L397.69,186L406.15,186L440,186" style="vector-effect: non-scaling-stroke; fill: none; stroke: rgb(0, 0, 0); stroke-opacity: 1; stroke-width: 1px; opacity: 1;"/></g><g class="points"/><g class="text"/></g><g class="trace scatter tracea843cf" style="stroke-miterlimit: 2;"><g class="fills"><g><path class="js-fill" d="M0,185.98L42.31,185.83L50.77,183.81L67.69,184.72L76.15,177.62L84.62,183.08L93.08,175.58L101.54,181.89L110,122.01L118.46,158.55L126.92,136.05L135.38,152.92L143.85,102.52L152.31,144.33L160.77,80.87L169.23,38.19L177.69,41.03L186.15,42.87L194.62,2.87L203.08,17.43L211.54,-68.06L220,-78.84L228.46,13.99L236.92,-14.24L245.38,28.33L253.85,93.14L262.31,34.46L270.77,41.43L279.23,63.15L287.69,97.17L296.15,92.63L304.62,69.57L313.08,121.28L321.54,70.44L330,76.15L338.46,80.14L346.92,146.53L355.38,144.34L363.85,175.94L372.31,184.92L380.77,176.19L389.23,185.98L397.69,185.99L440,186L440,186L389.23,185.99L380.77,181.63L372.31,184.97L363.85,180.71L355.38,164.59L346.92,160.24L338.46,120.38L330,133.95L321.54,116.67L313.08,127.39L304.62,105.81L296.15,119.38L287.69,121.05L279.23,113.96L270.77,90.42L262.31,92.54L253.85,100.48L245.38,75.65L236.92,78.26L228.46,86.44L220,59.43L211.54,34.82L203.08,86.3L194.62,97.14L186.15,101.34L177.69,100.19L169.23,109.55L160.77,123.15L152.31,150.45L143.85,140.37L135.38,159.51L126.92,156.51L118.46,173.73L110,159.73L101.54,181.95L93.08,180.11L84.62,183.39L76.15,179.61L67.69,184.88L59.23,184.11L50.77,185.07L42.31,185.86L0,185.99Z" style="fill: rgb(136, 86, 167); fill-opacity: 1; stroke-width: 0;"/></g></g><g class="errorbars"/><g class="lines"><path class="js-line" d="M0,185.99L42.31,185.86L50.77,185.07L59.23,184.11L67.69,184.88L76.15,179.61L84.62,183.39L93.08,180.11L101.54,181.95L110,159.73L118.46,173.73L126.92,156.51L135.38,159.51L143.85,140.37L152.31,150.45L160.77,123.15L169.23,109.55L177.69,100.19L186.15,101.34L194.62,97.14L203.08,86.3L211.54,34.82L220,59.43L228.46,86.44L236.92,78.26L245.38,75.65L253.85,100.48L262.31,92.54L270.77,90.42L279.23,113.96L287.69,121.05L296.15,119.38L304.62,105.81L313.08,127.39L321.54,116.67L330,133.95L338.46,120.38L346.92,160.24L355.38,164.59L363.85,180.71L372.31,184.97L380.77,181.63L389.23,185.99L440,186" style="vector-effect: non-scaling-stroke; fill: none; stroke: rgb(0, 0, 0); stroke-opacity: 1; stroke-width: 0.5px; opacity: 1;"/></g><g class="points"/><g class="text"/></g><g class="trace scatter tracee57cfb" style="stroke-miterlimit: 2;"><g class="fills"/><g class="errorbars"/><g class="lines"><path class="js-line" d="M0,185.98L42.31,185.83L50.77,183.81L67.69,184.72L76.15,177.62L84.62,183.08L93.08,175.58L101.54,181.89L110,122.01L118.46,158.55L126.92,136.05L135.38,152.92L143.85,102.52L152.31,144.33L160.77,80.87L169.23,38.19L177.69,41.03L186.15,42.87L194.62,2.87L203.08,17.43L211.54,-68.06L220,-78.84L228.46,13.99L236.92,-14.24L245.38,28.33L253.85,93.14L262.31,34.46L270.77,41.43L279.23,63.15L287.69,97.17L296.15,92.63L304.62,69.57L313.08,121.28L321.54,70.44L330,76.15L338.46,80.14L346.92,146.53L355.38,144.34L363.85,175.94L372.31,184.92L380.77,176.19L389.23,185.98L397.69,185.99L440,186" style="vector-effect: non-scaling-stroke; fill: none; stroke: rgb(0, 0, 0); stroke-opacity: 1; stroke-width: 0.25px; opacity: 1;"/></g><g class="points"/><g class="text"/></g><g class="trace scatter trace7f3c61" style="stroke-miterlimit: 2; opacity: 1;"><g class="fills"/><g class="errorbars"/><g class="lines"/><g class="points"><path class="point" transform="translate(253.85,144.34)" d="M4,0A4,4 0 1,1 0,-4A4,4 0 0,1 4,0ZM0,0.5L0.5,0L0,-0.5L-0.5,0Z" style="opacity: 1; stroke: rgb(0, 0, 0); stroke-opacity: 1; stroke-width: 1px; fill: none;"/><path class="point" transform="translate(262.31,-30.5)" d="M4,0A4,4 0 1,1 0,-4A4,4 0 0,1 4,0ZM0,0.5L0.5,0L0,-0.5L-0.5,0Z" style="opacity: 1; stroke: rgb(0, 0, 0); stroke-opacity: 1; stroke-width: 1px; fill: none;"/><path class="point" transform="translate(270.77,84.82)" d="M4,0A4,4 0 1,1 0,-4A4,4 0 0,1 4,0ZM0,0.5L0.5,0L0,-0.5L-0.5,0Z" style="opacity: 1; stroke: rgb(0, 0, 0); stroke-opacity: 1; stroke-width: 1px; fill: none;"/><path class="point" transform="translate(279.23,84.82)" d="M4,0A4,4 0 1,1 0,-4A4,4 0 0,1 4,0ZM0,0.5L0.5,0L0,-0.5L-0.5,0Z" style="opacity: 1; stroke: rgb(0, 0, 0); stroke-opacity: 1; stroke-width: 1px; fill: none;"/></g><g class="text"/></g></g></g><g class="overplot"/><path class="xlines-above crisp" d="M0,0" style="fill: none;"/><path class="ylines-above crisp" d="M0,0" style="fill: none;"/><g class="overlines-above"/><g class="xaxislayer-above"/><g class="yaxislayer-above"><g class="ytick"><text text-anchor="end" x="79" y="4.199999999999999" transform="translate(0,286)" style="font-family: 'Open Sans', verdana, arial, sans-serif; font-size: 12px; fill: rgb(42, 63, 95); fill-opacity: 1; white-space: pre; opacity: 1;">0</text></g><g class="ytick"><text text-anchor="end" x="79" y="4.199999999999999" style="font-family: 'Open Sans', verdana, arial, sans-serif; font-size: 12px; fill: rgb(42, 63, 95); fill-opacity: 1; white-space: pre; opacity: 1;" transform="translate(0,248.8)">50</text></g><g class="ytick"><text text-anchor="end" x="79" y="4.199999999999999" style="font-family: 'Open Sans', verdana, arial, sans-serif; font-size: 12px; fill: rgb(42, 63, 95); fill-opacity: 1; white-space: pre; opacity: 1;" transform="translate(0,211.6)">100</text></g><g class="ytick"><text text-anchor="end" x="79" y="4.199999999999999" style="font-family: 'Open Sans', verdana, arial, sans-serif; font-size: 12px; fill: rgb(42, 63, 95); fill-opacity: 1; white-space: pre; opacity: 1;" transform="translate(0,174.4)">150</text></g><g class="ytick"><text text-anchor="end" x="79" y="4.199999999999999" style="font-family: 'Open Sans', verdana, arial, sans-serif; font-size: 12px; fill: rgb(42, 63, 95); fill-opacity: 1; white-space: pre; opacity: 1;" transform="translate(0,137.2)">200</text></g><g class="ytick"><text text-anchor="end" x="79" y="4.199999999999999" style="font-family: 'Open Sans', verdana, arial, sans-serif; font-size: 12px; fill: rgb(42, 63, 95); fill-opacity: 1; white-space: pre; opacity: 1;" transform="translate(0,100)">250</text></g></g><g class="overaxes-above"/></g><g class="subplot x2y2"><g class="layer-subplot"><g class="shapelayer"/><g class="imagelayer"/></g><g class="minor-gridlayer"><g class="x2"/><g class="y2"/></g><g class="gridlayer"><g class="x2"><path class="x2grid crisp" transform="translate(156.15,0)" d="M0,317.00000000000006v185.99999999999997" style="stroke: rgb(255, 255, 255); stroke-opacity: 1; stroke-width: 1px;"/><path class="x2grid crisp" transform="translate(240.77,0)" d="M0,317.00000000000006v185.99999999999997" style="stroke: rgb(255, 255, 255); stroke-opacity: 1; stroke-width: 1px;"/><path class="x2grid crisp" transform="translate(325.38,0)" d="M0,317.00000000000006v185.99999999999997" style="stroke: rgb(255, 255, 255); stroke-opacity: 1; stroke-width: 1px;"/><path class="x2grid crisp" transform="translate(410,0)" d="M0,317.00000000000006v185.99999999999997" style="stroke: rgb(255, 255, 255); stroke-opacity: 1; stroke-width: 1px;"/><path class="x2grid crisp" transform="translate(494.62,0)" d="M0,317.00000000000006v185.99999999999997" style="stroke: rgb(255, 255, 255); stroke-opacity: 1; stroke-width: 1px;"/></g><g class="y2"><path class="y2grid crisp" transform="translate(0,472.00000000000006)" d="M80,0h440" style="stroke: rgb(255, 255, 255); stroke-opacity: 1; stroke-width: 1px;"/><path class="y2grid crisp" transform="translate(0,410.00000000000006)" d="M80,0h440" style="stroke: rgb(255, 255, 255); stroke-opacity: 1; stroke-width: 1px;"/><path class="y2grid crisp" transform="translate(0,348.00000000000006)" d="M80,0h440" style="stroke: rgb(255, 255, 255); stroke-opacity: 1; stroke-width: 1px;"/></g></g><g class="zerolinelayer"/><path class="xlines-below"/><path class="ylines-below"/><g class="overlines-below"/><g class="xaxislayer-below"/><g class="yaxislayer-below"/><g class="overaxes-below"/><g class="plot" transform="translate(80,317.00000000000006)" clip-path="url(#clipa2bec0x2y2plot)"><g class="scatterlayer mlayer"><g class="trace scatter trace9aecaf" style="stroke-miterlimit: 2;"><g class="fills"><g><path class="js-fill" d="M0,138.83L8.46,141.48L16.92,131.15L25.38,126.76L33.85,120.28L42.31,110.67L50.77,103.14L59.23,93.75L67.69,89.07L76.15,87.66L84.62,74.69L93.08,75.2L101.54,80.76L110,85.47L118.46,77.77L126.92,83.49L135.38,84.02L143.85,86.45L152.31,81.17L160.77,86.28L169.23,86.54L177.69,89.33L186.15,94.6L194.62,97.15L203.08,96.7L211.54,99.86L220,98.9L228.46,97.39L236.92,100.98L245.38,97.65L253.85,97.51L262.31,99.31L270.77,99.79L287.69,96.24L296.15,96.4L304.62,95.4L313.08,99.02L321.54,96.1L330,95.31L338.46,99.25L346.92,93.74L355.38,90.5L363.85,91.91L372.31,95.89L380.77,97.65L397.69,112.76L406.15,122.23L414.62,124.31L423.08,133.29L431.54,136.45L440,141.22L440,145.23L431.54,144.22L423.08,151.68L414.62,134.92L406.15,137.11L397.69,121.59L389.23,109.32L380.77,103.64L372.31,98.14L363.85,104.47L355.38,104.45L346.92,106.27L338.46,104.51L330,106.01L321.54,104.98L313.08,109.88L304.62,99.46L296.15,102.79L287.69,101.86L279.23,106.24L270.77,107.93L253.85,106.07L245.38,104.66L236.92,107.93L228.46,102.05L220,106.84L211.54,105.1L203.08,101.58L194.62,107.31L177.69,96.12L169.23,99.36L160.77,98.81L152.31,94.6L135.38,99.53L126.92,92.87L118.46,91.07L110,91.59L101.54,95.47L93.08,93.33L84.62,88.74L76.15,101.87L67.69,103.68L59.23,104.94L50.77,120.41L42.31,125.05L33.85,134.76L25.38,130.41L16.92,141.62L8.46,155.49L0,155.35Z" style="fill: rgb(145, 191, 219); fill-opacity: 1; stroke-width: 0;"/></g></g><g class="errorbars"/><g class="lines"><path class="js-line" d="M0,155.35L8.46,155.49L16.92,141.62L25.38,130.41L33.85,134.76L42.31,125.05L50.77,120.41L59.23,104.94L67.69,103.68L76.15,101.87L84.62,88.74L93.08,93.33L101.54,95.47L110,91.59L118.46,91.07L126.92,92.87L135.38,99.53L152.31,94.6L160.77,98.81L169.23,99.36L177.69,96.12L194.62,107.31L203.08,101.58L211.54,105.1L220,106.84L228.46,102.05L236.92,107.93L245.38,104.66L253.85,106.07L270.77,107.93L279.23,106.24L287.69,101.86L296.15,102.79L304.62,99.46L313.08,109.88L321.54,104.98L330,106.01L338.46,104.51L346.92,106.27L355.38,104.45L363.85,104.47L372.31,98.14L380.77,103.64L389.23,109.32L397.69,121.59L406.15,137.11L414.62,134.92L423.08,151.68L431.54,144.22L440,145.23" style="vector-effect: non-scaling-stroke; fill: none; stroke: rgb(0, 0, 0); stroke-opacity: 1; stroke-width: 0.25px; opacity: 1;"/></g><g class="points"/><g class="text"/></g><g class="trace scatter trace1b1474" style="stroke-miterlimit: 2;"><g class="fills"><g><path class="js-fill" d="M0,131.87L8.46,134.81L16.92,125.18L25.38,120.73L33.85,113.97L42.31,103.69L50.77,95.74L59.23,88.68L67.69,79.04L76.15,76.75L84.62,66.97L93.08,62.06L101.54,68.18L110,74.67L118.46,70.96L126.92,76.16L135.38,79.71L143.85,82.03L152.31,75.95L160.77,80.46L169.23,81.95L177.69,83.11L186.15,89.54L194.62,90.95L203.08,90.95L220,93.99L228.46,93.06L236.92,98.53L245.38,90.85L253.85,94.21L262.31,94.25L270.77,94.84L279.23,93.95L287.69,93.52L296.15,93.95L304.62,89.89L313.08,93.19L321.54,89.66L330,90.02L338.46,91.42L346.92,89.69L355.38,84.34L363.85,89.57L372.31,92.18L380.77,95.98L389.23,101.96L397.69,106.7L406.15,115.7L414.62,120.44L423.08,125.05L431.54,131.48L440,130.88L440,141.22L431.54,136.45L423.08,133.29L414.62,124.31L406.15,122.23L397.69,112.76L380.77,97.65L372.31,95.89L363.85,91.91L355.38,90.5L346.92,93.74L338.46,99.25L330,95.31L321.54,96.1L313.08,99.02L304.62,95.4L296.15,96.4L287.69,96.24L270.77,99.79L262.31,99.31L253.85,97.51L245.38,97.65L236.92,100.98L228.46,97.39L220,98.9L211.54,99.86L203.08,96.7L194.62,97.15L186.15,94.6L177.69,89.33L169.23,86.54L160.77,86.28L152.31,81.17L143.85,86.45L135.38,84.02L126.92,83.49L118.46,77.77L110,85.47L101.54,80.76L93.08,75.2L84.62,74.69L76.15,87.66L67.69,89.07L59.23,93.75L50.77,103.14L42.31,110.67L33.85,120.28L25.38,126.76L16.92,131.15L8.46,141.48L0,138.83Z" style="fill: rgb(255, 255, 191); fill-opacity: 1; stroke-width: 0;"/></g></g><g class="errorbars"/><g class="lines"><path class="js-line" d="M0,138.83L8.46,141.48L16.92,131.15L25.38,126.76L33.85,120.28L42.31,110.67L50.77,103.14L59.23,93.75L67.69,89.07L76.15,87.66L84.62,74.69L93.08,75.2L101.54,80.76L110,85.47L118.46,77.77L126.92,83.49L135.38,84.02L143.85,86.45L152.31,81.17L160.77,86.28L169.23,86.54L177.69,89.33L186.15,94.6L194.62,97.15L203.08,96.7L211.54,99.86L220,98.9L228.46,97.39L236.92,100.98L245.38,97.65L253.85,97.51L262.31,99.31L270.77,99.79L287.69,96.24L296.15,96.4L304.62,95.4L313.08,99.02L321.54,96.1L330,95.31L338.46,99.25L346.92,93.74L355.38,90.5L363.85,91.91L372.31,95.89L380.77,97.65L397.69,112.76L406.15,122.23L414.62,124.31L423.08,133.29L431.54,136.45L440,141.22" style="vector-effect: non-scaling-stroke; fill: none; stroke: rgb(0, 0, 0); stroke-opacity: 1; stroke-width: 0.5px; opacity: 1;"/></g><g class="points"/><g class="text"/></g><g class="trace scatter trace904d77" style="stroke-miterlimit: 2;"><g class="fills"><g><path class="js-fill" d="M0,126.34L8.46,126.52L16.92,119.71L25.38,116.59L33.85,109.68L42.31,98.38L50.77,89.89L59.23,85.51L67.69,73.01L76.15,69.21L84.62,61.77L93.08,58.99L101.54,59.11L110,64.6L118.46,66.37L135.38,62.14L143.85,70.5L152.31,69.96L160.77,72.9L169.23,73.37L177.69,76.26L186.15,81.85L194.62,85.36L203.08,86.92L211.54,86.88L220,84.69L228.46,89.85L236.92,87.96L245.38,84.6L253.85,89.3L262.31,85.53L270.77,90.85L279.23,89.71L287.69,92.1L296.15,88.53L304.62,86.93L313.08,87.16L330,81.73L338.46,81.67L355.38,80.58L363.85,82.53L372.31,89.75L380.77,93.48L397.69,101.48L406.15,110.09L414.62,113.68L423.08,118.2L431.54,121.55L440,119.12L440,130.88L431.54,131.48L423.08,125.05L414.62,120.44L406.15,115.7L397.69,106.7L389.23,101.96L380.77,95.98L372.31,92.18L363.85,89.57L355.38,84.34L346.92,89.69L338.46,91.42L330,90.02L321.54,89.66L313.08,93.19L304.62,89.89L296.15,93.95L287.69,93.52L279.23,93.95L270.77,94.84L262.31,94.25L253.85,94.21L245.38,90.85L236.92,98.53L228.46,93.06L220,93.99L203.08,90.95L194.62,90.95L186.15,89.54L177.69,83.11L169.23,81.95L160.77,80.46L152.31,75.95L143.85,82.03L135.38,79.71L126.92,76.16L118.46,70.96L110,74.67L101.54,68.18L93.08,62.06L84.62,66.97L76.15,76.75L67.69,79.04L59.23,88.68L50.77,95.74L42.31,103.69L33.85,113.97L25.38,120.73L16.92,125.18L8.46,134.81L0,131.87Z" style="fill: rgb(255, 255, 191); fill-opacity: 1; stroke-width: 0;"/></g></g><g class="errorbars"/><g class="lines"><path class="js-line" d="M0,131.87L8.46,134.81L16.92,125.18L25.38,120.73L33.85,113.97L42.31,103.69L50.77,95.74L59.23,88.68L67.69,79.04L76.15,76.75L84.62,66.97L93.08,62.06L101.54,68.18L110,74.67L118.46,70.96L126.92,76.16L135.38,79.71L143.85,82.03L152.31,75.95L160.77,80.46L169.23,81.95L177.69,83.11L186.15,89.54L194.62,90.95L203.08,90.95L220,93.99L228.46,93.06L236.92,98.53L245.38,90.85L253.85,94.21L262.31,94.25L270.77,94.84L279.23,93.95L287.69,93.52L296.15,93.95L304.62,89.89L313.08,93.19L321.54,89.66L330,90.02L338.46,91.42L346.92,89.69L355.38,84.34L363.85,89.57L372.31,92.18L380.77,95.98L389.23,101.96L397.69,106.7L406.15,115.7L414.62,120.44L423.08,125.05L431.54,131.48L440,130.88" style="vector-effect: non-scaling-stroke; fill: none; stroke: rgb(0, 0, 0); stroke-opacity: 1; stroke-width: 1px; opacity: 1;"/></g><g class="points"/><g class="text"/></g><g class="trace scatter trace084284" style="stroke-miterlimit: 2;"><g class="fills"><g><path class="js-fill" d="M0,112.64L25.38,110.65L33.85,101.96L42.31,82.88L50.77,85.43L67.69,63.59L76.15,57.19L84.62,47.79L93.08,55.11L101.54,49.75L110,52.92L118.46,55.75L126.92,35.95L135.38,31.88L143.85,63.17L152.31,59.59L160.77,57.92L169.23,66.02L177.69,60.45L194.62,73.27L203.08,79.88L211.54,74.09L220,72.94L228.46,81.09L236.92,76.8L245.38,76.41L253.85,77.56L262.31,73.55L270.77,80.66L279.23,80.18L287.69,92.08L296.15,79.02L304.62,81.02L313.08,69.45L321.54,70.51L330,67.28L338.46,60.24L346.92,64.92L355.38,76.4L363.85,76.93L372.31,83.67L380.77,87.92L389.23,93.39L397.69,91.17L406.15,97.6L414.62,107.86L423.08,111.01L431.54,112.17L440,111.31L440,119.12L431.54,121.55L423.08,118.2L414.62,113.68L406.15,110.09L397.69,101.48L380.77,93.48L372.31,89.75L363.85,82.53L355.38,80.58L338.46,81.67L330,81.73L313.08,87.16L304.62,86.93L296.15,88.53L287.69,92.1L279.23,89.71L270.77,90.85L262.31,85.53L253.85,89.3L245.38,84.6L236.92,87.96L228.46,89.85L220,84.69L211.54,86.88L203.08,86.92L194.62,85.36L186.15,81.85L177.69,76.26L169.23,73.37L160.77,72.9L152.31,69.96L143.85,70.5L135.38,62.14L118.46,66.37L110,64.6L101.54,59.11L93.08,58.99L84.62,61.77L76.15,69.21L67.69,73.01L59.23,85.51L50.77,89.89L42.31,98.38L33.85,109.68L25.38,116.59L16.92,119.71L8.46,126.52L0,126.34Z" style="fill: rgb(252, 141, 89); fill-opacity: 1; stroke-width: 0;"/></g></g><g class="errorbars"/><g class="lines"><path class="js-line" d="M0,126.34L8.46,126.52L16.92,119.71L25.38,116.59L33.85,109.68L42.31,98.38L50.77,89.89L59.23,85.51L67.69,73.01L76.15,69.21L84.62,61.77L93.08,58.99L101.54,59.11L110,64.6L118.46,66.37L135.38,62.14L143.85,70.5L152.31,69.96L160.77,72.9L169.23,73.37L177.69,76.26L186.15,81.85L194.62,85.36L203.08,86.92L211.54,86.88L220,84.69L228.46,89.85L236.92,87.96L245.38,84.6L253.85,89.3L262.31,85.53L270.77,90.85L279.23,89.71L287.69,92.1L296.15,88.53L304.62,86.93L313.08,87.16L330,81.73L338.46,81.67L355.38,80.58L363.85,82.53L372.31,89.75L380.77,93.48L397.69,101.48L406.15,110.09L414.62,113.68L423.08,118.2L431.54,121.55L440,119.12" style="vector-effect: non-scaling-stroke; fill: none; stroke: rgb(0, 0, 0); stroke-opacity: 1; stroke-width: 0.5px; opacity: 1;"/></g><g class="points"/><g class="text"/></g><g class="trace scatter tracef41e10" style="stroke-miterlimit: 2;"><g class="fills"/><g class="errorbars"/><g class="lines"><path class="js-line" d="M0,112.64L25.38,110.65L33.85,101.96L42.31,82.88L50.77,85.43L67.69,63.59L76.15,57.19L84.62,47.79L93.08,55.11L101.54,49.75L110,52.92L118.46,55.75L126.92,35.95L135.38,31.88L143.85,63.17L152.31,59.59L160.77,57.92L169.23,66.02L177.69,60.45L194.62,73.27L203.08,79.88L211.54,74.09L220,72.94L228.46,81.09L236.92,76.8L245.38,76.41L253.85,77.56L262.31,73.55L270.77,80.66L279.23,80.18L287.69,92.08L296.15,79.02L304.62,81.02L313.08,69.45L321.54,70.51L330,67.28L338.46,60.24L346.92,64.92L355.38,76.4L363.85,76.93L372.31,83.67L380.77,87.92L389.23,93.39L397.69,91.17L406.15,97.6L414.62,107.86L423.08,111.01L431.54,112.17L440,111.31" style="vector-effect: non-scaling-stroke; fill: none; stroke: rgb(0, 0, 0); stroke-opacity: 1; stroke-width: 0.25px; opacity: 1;"/></g><g class="points"/><g class="text"/></g><g class="trace scatter trace329213" style="stroke-miterlimit: 2; opacity: 1;"><g class="fills"/><g class="errorbars"/><g class="lines"/><g class="points"><path class="point" transform="translate(253.85,74.4)" d="M4,0A4,4 0 1,1 0,-4A4,4 0 0,1 4,0ZM0,0.5L0.5,0L0,-0.5L-0.5,0Z" style="opacity: 1; stroke: rgb(0, 0, 0); stroke-opacity: 1; stroke-width: 1px; fill: none;"/><path class="point" transform="translate(262.31,111.6)" d="M4,0A4,4 0 1,1 0,-4A4,4 0 0,1 4,0ZM0,0.5L0.5,0L0,-0.5L-0.5,0Z" style="opacity: 1; stroke: rgb(0, 0, 0); stroke-opacity: 1; stroke-width: 1px; fill: none;"/><path class="point" transform="translate(270.77,86.8)" d="M4,0A4,4 0 1,1 0,-4A4,4 0 0,1 4,0ZM0,0.5L0.5,0L0,-0.5L-0.5,0Z" style="opacity: 1; stroke: rgb(0, 0, 0); stroke-opacity: 1; stroke-width: 1px; fill: none;"/><path class="point" transform="translate(279.23,86.8)" d="M4,0A4,4 0 1,1 0,-4A4,4 0 0,1 4,0ZM0,0.5L0.5,0L0,-0.5L-0.5,0Z" style="opacity: 1; stroke: rgb(0, 0, 0); stroke-opacity: 1; stroke-width: 1px; fill: none;"/></g><g class="text"/></g></g></g><g class="overplot"/><path class="xlines-above crisp" d="M0,0" style="fill: none;"/><path class="ylines-above crisp" d="M0,0" style="fill: none;"/><g class="overlines-above"/><g class="xaxislayer-above"/><g class="yaxislayer-above"><g class="y2tick"><text text-anchor="end" x="79" y="4.199999999999999" transform="translate(0,472.00000000000006)" style="font-family: 'Open Sans', verdana, arial, sans-serif; font-size: 12px; fill: rgb(42, 63, 95); fill-opacity: 1; white-space: pre; opacity: 1;">20</text></g><g class="y2tick"><text text-anchor="end" x="79" y="4.199999999999999" style="font-family: 'Open Sans', verdana, arial, sans-serif; font-size: 12px; fill: rgb(42, 63, 95); fill-opacity: 1; white-space: pre; opacity: 1;" transform="translate(0,410.00000000000006)">30</text></g><g class="y2tick"><text text-anchor="end" x="79" y="4.199999999999999" style="font-family: 'Open Sans', verdana, arial, sans-serif; font-size: 12px; fill: rgb(42, 63, 95); fill-opacity: 1; white-space: pre; opacity: 1;" transform="translate(0,348.00000000000006)">40</text></g></g><g class="overaxes-above"/></g><g class="subplot x3y3"><g class="layer-subplot"><g class="shapelayer"/><g class="imagelayer"/></g><g class="minor-gridlayer"><g class="x3"/><g class="y3"/></g><g class="gridlayer"><g class="x3"><path class="x3grid crisp" transform="translate(156.15,0)" d="M0,534v186" style="stroke: rgb(255, 255, 255); stroke-opacity: 1; stroke-width: 1px;"/><path class="x3grid crisp" transform="translate(240.77,0)" d="M0,534v186" style="stroke: rgb(255, 255, 255); stroke-opacity: 1; stroke-width: 1px;"/><path class="x3grid crisp" transform="translate(325.38,0)" d="M0,534v186" style="stroke: rgb(255, 255, 255); stroke-opacity: 1; stroke-width: 1px;"/><path class="x3grid crisp" transform="translate(410,0)" d="M0,534v186" style="stroke: rgb(255, 255, 255); stroke-opacity: 1; stroke-width: 1px;"/><path class="x3grid crisp" transform="translate(494.62,0)" d="M0,534v186" style="stroke: rgb(255, 255, 255); stroke-opacity: 1; stroke-width: 1px;"/></g><g class="y3"><path class="y3grid crisp" transform="translate(0,682.8)" d="M80,0h440" style="stroke: rgb(255, 255, 255); stroke-opacity: 1; stroke-width: 1px;"/><path class="y3grid crisp" transform="translate(0,645.6)" d="M80,0h440" style="stroke: rgb(255, 255, 255); stroke-opacity: 1; stroke-width: 1px;"/><path class="y3grid crisp" transform="translate(0,608.4)" d="M80,0h440" style="stroke: rgb(255, 255, 255); stroke-opacity: 1; stroke-width: 1px;"/><path class="y3grid crisp" transform="translate(0,571.2)" d="M80,0h440" style="stroke: rgb(255, 255, 255); stroke-opacity: 1; stroke-width: 1px;"/></g></g><g class="zerolinelayer"/><path class="xlines-below"/><path class="ylines-below"/><g class="overlines-below"/><g class="xaxislayer-below"/><g class="yaxislayer-below"/><g class="overaxes-below"/><g class="plot" transform="translate(80,534)" clip-path="url(#clipa2bec0x3y3plot)"><g class="scatterlayer mlayer"><g class="trace scatter traceba09c0" style="stroke-miterlimit: 2;"><g class="fills"><g><path class="js-fill" d="M0,117.68L8.46,122.78L16.92,119.8L25.38,118.93L33.85,116.34L42.31,103.56L50.77,94.93L59.23,90.47L67.69,76.98L76.15,75.05L84.62,66.9L93.08,61.63L101.54,59.45L110,57.64L118.46,54.48L126.92,50.06L135.38,51.05L143.85,49.39L152.31,44.33L160.77,40.41L169.23,39.21L177.69,38.22L186.15,38.08L203.08,37.15L211.54,37.58L220,36.86L228.46,37.38L236.92,38.65L245.38,38.95L253.85,39.39L262.31,38.56L270.77,38L279.23,39.35L287.69,39.1L296.15,40.1L304.62,39.74L313.08,42.2L321.54,41.36L330,42.1L338.46,44.19L346.92,50.07L355.38,48.31L363.85,56.67L380.77,69.39L389.23,79.92L397.69,92.14L406.15,99.43L414.62,103.45L423.08,114.54L431.54,115.81L440,124.54L440,129.04L431.54,127.47L423.08,123.15L414.62,118.5L406.15,112.48L397.69,101.44L389.23,85.79L380.77,79.79L372.31,70.74L363.85,58.84L355.38,53.53L346.92,52.96L338.46,49.52L330,46.41L321.54,44.66L313.08,45.63L304.62,41.54L296.15,41.08L287.69,41.59L279.23,41.74L270.77,40.08L262.31,41.76L245.38,42.73L236.92,40.5L220,39.01L211.54,38.74L194.62,42.11L186.15,42.68L177.69,46.1L169.23,41.41L160.77,45.49L152.31,48.08L143.85,54.55L135.38,57.89L118.46,62.74L110,65.86L101.54,64.46L93.08,70.83L84.62,82.94L76.15,86.02L67.69,84.19L59.23,106.78L50.77,114.33L42.31,122.04L33.85,132.95L25.38,128.87L16.92,131.17L8.46,137.26L0,130.64Z" style="fill: rgb(90, 180, 172); fill-opacity: 1; stroke-width: 0;"/></g></g><g class="errorbars"/><g class="lines"><path class="js-line" d="M0,130.64L8.46,137.26L16.92,131.17L25.38,128.87L33.85,132.95L42.31,122.04L50.77,114.33L59.23,106.78L67.69,84.19L76.15,86.02L84.62,82.94L93.08,70.83L101.54,64.46L110,65.86L118.46,62.74L135.38,57.89L143.85,54.55L152.31,48.08L160.77,45.49L169.23,41.41L177.69,46.1L186.15,42.68L194.62,42.11L211.54,38.74L220,39.01L236.92,40.5L245.38,42.73L262.31,41.76L270.77,40.08L279.23,41.74L287.69,41.59L296.15,41.08L304.62,41.54L313.08,45.63L321.54,44.66L330,46.41L338.46,49.52L346.92,52.96L355.38,53.53L363.85,58.84L372.31,70.74L380.77,79.79L389.23,85.79L397.69,101.44L406.15,112.48L414.62,118.5L423.08,123.15L431.54,127.47L440,129.04" style="vector-effect: non-scaling-stroke; fill: none; stroke: rgb(0, 0, 0); stroke-opacity: 1; stroke-width: 0.25px; opacity: 1;"/></g><g class="points"/><g class="text"/></g><g class="trace scatter trace93c64b" style="stroke-miterlimit: 2;"><g class="fills"><g><path class="js-fill" d="M0,112.48L8.46,116.3L16.92,111.76L25.38,107.06L33.85,107.61L42.31,94.41L50.77,90.66L59.23,80.67L67.69,72.86L76.15,68.9L84.62,60.21L93.08,54.84L101.54,52.87L110,52.78L118.46,50.19L126.92,44.27L135.38,46.7L143.85,46L152.31,41.34L160.77,38.59L169.23,37.21L186.15,35.92L194.62,36.25L203.08,35.57L211.54,35.93L228.46,35.95L236.92,37.07L253.85,38.36L262.31,35.3L279.23,37.94L287.69,37.27L304.62,39.14L313.08,39.45L321.54,39.12L330,40.51L338.46,43.38L346.92,44.43L355.38,45.83L363.85,53.24L372.31,57.95L380.77,64.46L389.23,74.69L397.69,83.28L406.15,86.44L414.62,99.13L423.08,101.71L431.54,110.68L440,122.32L440,124.54L431.54,115.81L423.08,114.54L414.62,103.45L406.15,99.43L397.69,92.14L389.23,79.92L380.77,69.39L363.85,56.67L355.38,48.31L346.92,50.07L338.46,44.19L330,42.1L321.54,41.36L313.08,42.2L304.62,39.74L296.15,40.1L287.69,39.1L279.23,39.35L270.77,38L262.31,38.56L253.85,39.39L245.38,38.95L236.92,38.65L228.46,37.38L220,36.86L211.54,37.58L203.08,37.15L186.15,38.08L177.69,38.22L169.23,39.21L160.77,40.41L152.31,44.33L143.85,49.39L135.38,51.05L126.92,50.06L118.46,54.48L110,57.64L101.54,59.45L93.08,61.63L84.62,66.9L76.15,75.05L67.69,76.98L59.23,90.47L50.77,94.93L42.31,103.56L33.85,116.34L25.38,118.93L16.92,119.8L8.46,122.78L0,117.68Z" style="fill: rgb(245, 245, 245); fill-opacity: 1; stroke-width: 0;"/></g></g><g class="errorbars"/><g class="lines"><path class="js-line" d="M0,117.68L8.46,122.78L16.92,119.8L25.38,118.93L33.85,116.34L42.31,103.56L50.77,94.93L59.23,90.47L67.69,76.98L76.15,75.05L84.62,66.9L93.08,61.63L101.54,59.45L110,57.64L118.46,54.48L126.92,50.06L135.38,51.05L143.85,49.39L152.31,44.33L160.77,40.41L169.23,39.21L177.69,38.22L186.15,38.08L203.08,37.15L211.54,37.58L220,36.86L228.46,37.38L236.92,38.65L245.38,38.95L253.85,39.39L262.31,38.56L270.77,38L279.23,39.35L287.69,39.1L296.15,40.1L304.62,39.74L313.08,42.2L321.54,41.36L330,42.1L338.46,44.19L346.92,50.07L355.38,48.31L363.85,56.67L380.77,69.39L389.23,79.92L397.69,92.14L406.15,99.43L414.62,103.45L423.08,114.54L431.54,115.81L440,124.54" style="vector-effect: non-scaling-stroke; fill: none; stroke: rgb(0, 0, 0); stroke-opacity: 1; stroke-width: 0.5px; opacity: 1;"/></g><g class="points"/><g class="text"/></g><g class="trace scatter trace1e80b2" style="stroke-miterlimit: 2;"><g class="fills"><g><path class="js-fill" d="M0,106.23L8.46,111.38L16.92,106.37L25.38,102.66L33.85,97.51L42.31,87.25L50.77,80.55L59.23,74.19L67.69,65.79L76.15,62.72L84.62,52.34L93.08,51.77L101.54,50.38L110,48.96L118.46,43.97L126.92,41.28L135.38,37.76L143.85,40.77L152.31,39.11L169.23,33.52L177.69,32.28L186.15,33.33L194.62,33.03L211.54,35.02L220,34.4L228.46,33.11L236.92,34.85L245.38,35.76L253.85,34.89L262.31,34.25L270.77,35.44L279.23,35.04L287.69,35.61L304.62,37.76L313.08,37.85L321.54,36.89L330,37.96L338.46,40.04L346.92,40.47L355.38,43.71L363.85,49.53L380.77,61.44L389.23,70.03L397.69,76.8L406.15,80.37L414.62,88.97L423.08,89.67L431.54,101.08L440,115.56L440,122.32L431.54,110.68L423.08,101.71L414.62,99.13L406.15,86.44L397.69,83.28L389.23,74.69L380.77,64.46L372.31,57.95L363.85,53.24L355.38,45.83L346.92,44.43L338.46,43.38L330,40.51L321.54,39.12L313.08,39.45L304.62,39.14L287.69,37.27L279.23,37.94L262.31,35.3L253.85,38.36L236.92,37.07L228.46,35.95L211.54,35.93L203.08,35.57L194.62,36.25L186.15,35.92L169.23,37.21L160.77,38.59L152.31,41.34L143.85,46L135.38,46.7L126.92,44.27L118.46,50.19L110,52.78L101.54,52.87L93.08,54.84L84.62,60.21L76.15,68.9L67.69,72.86L59.23,80.67L50.77,90.66L42.31,94.41L33.85,107.61L25.38,107.06L16.92,111.76L8.46,116.3L0,112.48Z" style="fill: rgb(245, 245, 245); fill-opacity: 1; stroke-width: 0;"/></g></g><g class="errorbars"/><g class="lines"><path class="js-line" d="M0,112.48L8.46,116.3L16.92,111.76L25.38,107.06L33.85,107.61L42.31,94.41L50.77,90.66L59.23,80.67L67.69,72.86L76.15,68.9L84.62,60.21L93.08,54.84L101.54,52.87L110,52.78L118.46,50.19L126.92,44.27L135.38,46.7L143.85,46L152.31,41.34L160.77,38.59L169.23,37.21L186.15,35.92L194.62,36.25L203.08,35.57L211.54,35.93L228.46,35.95L236.92,37.07L253.85,38.36L262.31,35.3L279.23,37.94L287.69,37.27L304.62,39.14L313.08,39.45L321.54,39.12L330,40.51L338.46,43.38L346.92,44.43L355.38,45.83L363.85,53.24L372.31,57.95L380.77,64.46L389.23,74.69L397.69,83.28L406.15,86.44L414.62,99.13L423.08,101.71L431.54,110.68L440,122.32" style="vector-effect: non-scaling-stroke; fill: none; stroke: rgb(0, 0, 0); stroke-opacity: 1; stroke-width: 1px; opacity: 1;"/></g><g class="points"/><g class="text"/></g><g class="trace scatter trace20d9f4" style="stroke-miterlimit: 2;"><g class="fills"><g><path class="js-fill" d="M0,100.22L8.46,100.35L16.92,92.77L25.38,92.14L33.85,89.27L42.31,75.63L50.77,64.12L59.23,64.89L67.69,53L76.15,48.86L84.62,46.91L93.08,40.66L101.54,43.27L110,41.45L118.46,38.13L126.92,38.67L135.38,22.4L143.85,34.77L152.31,37.52L160.77,34.01L169.23,26.97L177.69,27.24L186.15,28.4L194.62,26.98L203.08,31.96L228.46,32.19L236.92,33.45L245.38,34.41L253.85,31.49L262.31,32.11L270.77,33.63L279.23,32.14L287.69,32.84L304.62,36.78L313.08,32.38L321.54,30.2L330,35.56L338.46,34.74L346.92,32.85L355.38,38.3L363.85,38.99L372.31,45.4L380.77,54.02L389.23,61.64L397.69,66.9L414.62,73.5L423.08,81.92L431.54,91.87L440,113.33L440,115.56L431.54,101.08L423.08,89.67L414.62,88.97L406.15,80.37L397.69,76.8L389.23,70.03L380.77,61.44L363.85,49.53L355.38,43.71L346.92,40.47L338.46,40.04L330,37.96L321.54,36.89L313.08,37.85L304.62,37.76L287.69,35.61L279.23,35.04L270.77,35.44L262.31,34.25L253.85,34.89L245.38,35.76L236.92,34.85L228.46,33.11L220,34.4L211.54,35.02L194.62,33.03L186.15,33.33L177.69,32.28L169.23,33.52L152.31,39.11L143.85,40.77L135.38,37.76L126.92,41.28L118.46,43.97L110,48.96L101.54,50.38L93.08,51.77L84.62,52.34L76.15,62.72L67.69,65.79L59.23,74.19L50.77,80.55L42.31,87.25L33.85,97.51L25.38,102.66L16.92,106.37L8.46,111.38L0,106.23Z" style="fill: rgb(216, 179, 101); fill-opacity: 1; stroke-width: 0;"/></g></g><g class="errorbars"/><g class="lines"><path class="js-line" d="M0,106.23L8.46,111.38L16.92,106.37L25.38,102.66L33.85,97.51L42.31,87.25L50.77,80.55L59.23,74.19L67.69,65.79L76.15,62.72L84.62,52.34L93.08,51.77L101.54,50.38L110,48.96L118.46,43.97L126.92,41.28L135.38,37.76L143.85,40.77L152.31,39.11L169.23,33.52L177.69,32.28L186.15,33.33L194.62,33.03L211.54,35.02L220,34.4L228.46,33.11L236.92,34.85L245.38,35.76L253.85,34.89L262.31,34.25L270.77,35.44L279.23,35.04L287.69,35.61L304.62,37.76L313.08,37.85L321.54,36.89L330,37.96L338.46,40.04L346.92,40.47L355.38,43.71L363.85,49.53L380.77,61.44L389.23,70.03L397.69,76.8L406.15,80.37L414.62,88.97L423.08,89.67L431.54,101.08L440,115.56" style="vector-effect: non-scaling-stroke; fill: none; stroke: rgb(0, 0, 0); stroke-opacity: 1; stroke-width: 0.5px; opacity: 1;"/></g><g class="points"/><g class="text"/></g><g class="trace scatter tracea6de42" style="stroke-miterlimit: 2;"><g class="fills"/><g class="errorbars"/><g class="lines"><path class="js-line" d="M0,100.22L8.46,100.35L16.92,92.77L25.38,92.14L33.85,89.27L42.31,75.63L50.77,64.12L59.23,64.89L67.69,53L76.15,48.86L84.62,46.91L93.08,40.66L101.54,43.27L110,41.45L118.46,38.13L126.92,38.67L135.38,22.4L143.85,34.77L152.31,37.52L160.77,34.01L169.23,26.97L177.69,27.24L186.15,28.4L194.62,26.98L203.08,31.96L228.46,32.19L236.92,33.45L245.38,34.41L253.85,31.49L262.31,32.11L270.77,33.63L279.23,32.14L287.69,32.84L304.62,36.78L313.08,32.38L321.54,30.2L330,35.56L338.46,34.74L346.92,32.85L355.38,38.3L363.85,38.99L372.31,45.4L380.77,54.02L389.23,61.64L397.69,66.9L414.62,73.5L423.08,81.92L431.54,91.87L440,113.33" style="vector-effect: non-scaling-stroke; fill: none; stroke: rgb(0, 0, 0); stroke-opacity: 1; stroke-width: 0.25px; opacity: 1;"/></g><g class="points"/><g class="text"/></g><g class="trace scatter tracef08a62" style="stroke-miterlimit: 2; opacity: 1;"><g class="fills"/><g class="errorbars"/><g class="lines"/><g class="points"><path class="point" transform="translate(253.85,22.32)" d="M4,0A4,4 0 1,1 0,-4A4,4 0 0,1 4,0ZM0,0.5L0.5,0L0,-0.5L-0.5,0Z" style="opacity: 1; stroke: rgb(0, 0, 0); stroke-opacity: 1; stroke-width: 1px; fill: none;"/><path class="point" transform="translate(262.31,37.2)" d="M4,0A4,4 0 1,1 0,-4A4,4 0 0,1 4,0ZM0,0.5L0.5,0L0,-0.5L-0.5,0Z" style="opacity: 1; stroke: rgb(0, 0, 0); stroke-opacity: 1; stroke-width: 1px; fill: none;"/><path class="point" transform="translate(270.77,29.76)" d="M4,0A4,4 0 1,1 0,-4A4,4 0 0,1 4,0ZM0,0.5L0.5,0L0,-0.5L-0.5,0Z" style="opacity: 1; stroke: rgb(0, 0, 0); stroke-opacity: 1; stroke-width: 1px; fill: none;"/><path class="point" transform="translate(279.23,29.76)" d="M4,0A4,4 0 1,1 0,-4A4,4 0 0,1 4,0ZM0,0.5L0.5,0L0,-0.5L-0.5,0Z" style="opacity: 1; stroke: rgb(0, 0, 0); stroke-opacity: 1; stroke-width: 1px; fill: none;"/></g><g class="text"/></g></g></g><g class="overplot"/><path class="xlines-above crisp" d="M0,0" style="fill: none;"/><path class="ylines-above crisp" d="M0,0" style="fill: none;"/><g class="overlines-above"/><g class="xaxislayer-above"><g class="x3tick"><text text-anchor="middle" x="0" y="733" transform="translate(156.15,0)" style="font-family: 'Open Sans', verdana, arial, sans-serif; font-size: 12px; fill: rgb(42, 63, 95); fill-opacity: 1; white-space: pre; opacity: 1;">10</text></g><g class="x3tick"><text text-anchor="middle" x="0" y="733" style="font-family: 'Open Sans', verdana, arial, sans-serif; font-size: 12px; fill: rgb(42, 63, 95); fill-opacity: 1; white-space: pre; opacity: 1;" transform="translate(240.77,0)">20</text></g><g class="x3tick"><text text-anchor="middle" x="0" y="733" style="font-family: 'Open Sans', verdana, arial, sans-serif; font-size: 12px; fill: rgb(42, 63, 95); fill-opacity: 1; white-space: pre; opacity: 1;" transform="translate(325.38,0)">30</text></g><g class="x3tick"><text text-anchor="middle" x="0" y="733" style="font-family: 'Open Sans', verdana, arial, sans-serif; font-size: 12px; fill: rgb(42, 63, 95); fill-opacity: 1; white-space: pre; opacity: 1;" transform="translate(410,0)">40</text></g><g class="x3tick"><text text-anchor="middle" x="0" y="733" style="font-family: 'Open Sans', verdana, arial, sans-serif; font-size: 12px; fill: rgb(42, 63, 95); fill-opacity: 1; white-space: pre; opacity: 1;" transform="translate(494.62,0)">50</text></g></g><g class="yaxislayer-above"><g class="y3tick"><text text-anchor="end" x="79" y="4.199999999999999" transform="translate(0,720)" style="font-family: 'Open Sans', verdana, arial, sans-serif; font-size: 12px; fill: rgb(42, 63, 95); fill-opacity: 1; white-space: pre; opacity: 1;">5</text></g><g class="y3tick"><text text-anchor="end" x="79" y="4.199999999999999" style="font-family: 'Open Sans', verdana, arial, sans-serif; font-size: 12px; fill: rgb(42, 63, 95); fill-opacity: 1; white-space: pre; opacity: 1;" transform="translate(0,682.8)">10</text></g><g class="y3tick"><text text-anchor="end" x="79" y="4.199999999999999" style="font-family: 'Open Sans', verdana, arial, sans-serif; font-size: 12px; fill: rgb(42, 63, 95); fill-opacity: 1; white-space: pre; opacity: 1;" transform="translate(0,645.6)">15</text></g><g class="y3tick"><text text-anchor="end" x="79" y="4.199999999999999" style="font-family: 'Open Sans', verdana, arial, sans-serif; font-size: 12px; fill: rgb(42, 63, 95); fill-opacity: 1; white-space: pre; opacity: 1;" transform="translate(0,608.4)">20</text></g><g class="y3tick"><text text-anchor="end" x="79" y="4.199999999999999" style="font-family: 'Open Sans', verdana, arial, sans-serif; font-size: 12px; fill: rgb(42, 63, 95); fill-opacity: 1; white-space: pre; opacity: 1;" transform="translate(0,571.2)">25</text></g><g class="y3tick"><text text-anchor="end" x="79" y="4.199999999999999" style="font-family: 'Open Sans', verdana, arial, sans-serif; font-size: 12px; fill: rgb(42, 63, 95); fill-opacity: 1; white-space: pre; opacity: 1;" transform="translate(0,534)">30</text></g></g><g class="overaxes-above"/></g></g><g class="polarlayer"/><g class="smithlayer"/><g class="ternarylayer"/><g class="geolayer"/><g class="funnelarealayer"/><g class="pielayer"/><g class="iciclelayer"/><g class="treemaplayer"/><g class="sunburstlayer"/><g class="glimages"/><defs id="topdefs-a2bec0"><g class="clips"/></defs><g class="layer-above"><g class="imagelayer"/><g class="shapelayer"/></g><g class="infolayer"><g class="g-gtitle"><text class="gtitle" x="30" y="50" text-anchor="start" dy="0em" style="font-family: 'Open Sans', verdana, arial, sans-serif; font-size: 17px; fill: rgb(42, 63, 95); opacity: 1; font-weight: normal; white-space: pre;">Climatology and S2S forecast for Lakshmipur</text></g><g class="g-xtitle"/><g class="g-x2title"/><g class="g-x3title"/><g class="g-ytitle"><text class="ytitle" transform="rotate(-90,34.16875,193)" x="34.16875" y="193" text-anchor="middle" style="font-family: 'Open Sans', verdana, arial, sans-serif; font-size: 14px; fill: rgb(42, 63, 95); opacity: 1; font-weight: normal; white-space: pre;">[mm]</text></g><g class="g-y2title"><text class="y2title" transform="rotate(-90,40.840625,410.00000000000006)" x="40.840625" y="410.00000000000006" text-anchor="middle" style="font-family: 'Open Sans', verdana, arial, sans-serif; font-size: 14px; fill: rgb(42, 63, 95); opacity: 1; font-weight: normal; white-space: pre;">[C]</text></g><g class="g-y3title"><text class="y3title" transform="rotate(-90,40.840625,627)" x="40.840625" y="627" text-anchor="middle" style="font-family: 'Open Sans', verdana, arial, sans-serif; font-size: 14px; fill: rgb(42, 63, 95); opacity: 1; font-weight: normal; white-space: pre;">[C]</text></g><g class="annotation" data-index="0" style="opacity: 1;"><g class="annotation-text-g" transform="rotate(0,300,89.5)"><g class="cursor-pointer" transform="translate(237,79)"><rect class="bg" x="0.5" y="0.5" width="126" height="20" style="stroke-width: 1px; stroke: rgb(0, 0, 0); stroke-opacity: 0; fill: rgb(0, 0, 0); fill-opacity: 0;"/><text class="annotation-text" text-anchor="middle" x="63.359375" y="16" style="font-family: 'Open Sans', verdana, arial, sans-serif; font-size: 16px; fill: rgb(42, 63, 95); fill-opacity: 1; white-space: pre;">Precipitation sum</text></g></g></g><g class="annotation" data-index="1" style="opacity: 1;"><g class="annotation-text-g" transform="rotate(0,300,306.50000000000006)"><g class="cursor-pointer" transform="translate(196,296)"><rect class="bg" x="0.5" y="0.5" width="208" height="20" style="stroke-width: 1px; stroke: rgb(0, 0, 0); stroke-opacity: 0; fill: rgb(0, 0, 0); fill-opacity: 0;"/><text class="annotation-text" text-anchor="middle" x="104.265625" y="16" style="font-family: 'Open Sans', verdana, arial, sans-serif; font-size: 16px; fill: rgb(42, 63, 95); fill-opacity: 1; white-space: pre;">Mean maximum temperature</text></g></g></g><g class="annotation" data-index="2" style="opacity: 1;"><g class="annotation-text-g" transform="rotate(0,300,523.5)"><g class="cursor-pointer" transform="translate(198,513)"><rect class="bg" x="0.5" y="0.5" width="203" height="20" style="stroke-width: 1px; stroke: rgb(0, 0, 0); stroke-opacity: 0; fill: rgb(0, 0, 0); fill-opacity: 0;"/><text class="annotation-text" text-anchor="middle" x="102.046875" y="16" style="font-family: 'Open Sans', verdana, arial, sans-serif; font-size: 16px; fill: rgb(42, 63, 95); fill-opacity: 1; white-space: pre;">Mean minimum temperature</text></g></g></g><g class="annotation" data-index="3" style="opacity: 1;"><g class="annotation-text-g" transform="rotate(0,300,760.5)"><g class="cursor-pointer" transform="translate(277,750)"><rect class="bg" x="0.5" y="0.5" width="45" height="20" style="stroke-width: 1px; stroke: rgb(0, 0, 0); stroke-opacity: 0; fill: rgb(0, 0, 0); fill-opacity: 0;"/><text class="annotation-text" text-anchor="middle" x="22.3125" y="16" style="font-family: 'Open Sans', verdana, arial, sans-serif; font-size: 16px; fill: rgb(42, 63, 95); fill-opacity: 1; white-space: pre;">Week</text></g></g></g></g></svg>