<svg class="main-svg" xmlns="http://www.w3.org/2000/svg" xmlns:xlink="http://www.w3.org/1999/xlink" width="600" height="800" style="" viewBox="0 0 600 800"><rect x="0" y="0" width="600" height="800" style="fill: rgb(255, 255, 255); fill-opacity: 1;"/><defs id="defs-5d00b0"><g class="clips"><clipPath id="clip5d00b0xyplot" class="plotclip"><rect width="440" height="186.00000000000003"/></clipPath><clipPath id="clip5d00b0x2y2plot" class="plotclip"><rect width="440" height="185.99999999999997"/></clipPath><clipPath id="clip5d00b0x3y3plot" class="plotclip"><rect width="440" height="186"/></clipPath><clipPath class="axesclip" id="clip5d00b0x"><rect x="80" y="0" width="440" height="800"/></clipPath><clipPath class="axesclip" id="clip5d00b0y"><rect x="0" y="100" width="600" height="186.00000000000003"/></clipPath><clipPath class="axesclip" id="clip5d00b0xy"><rect x="80" y="100" width="440" height="186.00000000000003"/></clipPath><clipPath class="axesclip" id="clip5d00b0y2"><rect x="0" y="317.00000000000006" width="600" height="185.99999999999997"/></clipPath><clipPath class="axesclip" id="clip5d00b0xy2"><rect x="80" y="317.00000000000006" width="440" height="185.99999999999997"/></clipPath><clipPath class="axesclip" id="clip5d00b0y3"><rect x="0" y="534" width="600" height="186"/></clipPath><clipPath class="axesclip" id="clip5d00b0xy3"><rect x="80" y="534" width="440" height="186"/></clipPath><clipPath class="axesclip" id="clip5d00b0x2"><rect x="80" y="0" width="440" height="800"/></clipPath><clipPath class="axesclip" id="clip5d00b0x2y"><rect x="80" y="100" width="440" height="186.00000000000003"/></clipPath><clipPath class="axesclip" id="clip5d00b0x2y2"><rect x="80" y="317.00000000000006" width="440" height="185.99999999999997"/></clipPath><clipPath class="axesclip" id="clip5d00b0x2y3"><rect x="80" y="534" width="440" height="186"/></clipPath><clipPath class="axesclip" id="clip5d00b0x3"><rect x="80" y="0" width="440" height="800"/></clipPath><clipPath class="axesclip" id="clip5d00b0x3y"><rect x="80" y="100" width="440" height="186.00000000000003"/></clipPath><clipPath class="axesclip" id="clip5d00b0x3y2"><rect x="80" y="317.00000000000006" width="440" height="185.99999999999997"/></clipPath><clipPath class="axesclip" id="clip5d00b0x3y3"><rect x="80" y="534" width="440" height="186"/></clipPath></g><g class="gradients"/><g class="patterns"/></defs><g class="bglayer"><rect class="bg" x="80" y="100" width="440" height="186.00000000000003" style="fill: rgb(229, 236, 246); fill-opacity: 1; stroke-width: 0;"/><rect class="bg" x="80" y="317.00000000000006" width="440" height="185.99999999999997" style="fill: rgb(229, 236, 246); fill-opacity: 1; stroke-width: 0;"/><rect class="bg" x="80" y="534" width="440" height="186" style="fill: rgb(229, 236, 246); fill-opacity: 1; stroke-width: 0;"/></g><g class="layer-below"><g class="imagelayer"/><g class="shapelayer"/></g><g class="cartesianlayer"><g class="subplot xy"><g class="layer-subplot"><g class="shapelayer"/><g class="imagelayer"/></g><g class="minor-gridlayer"><g class="x"/><g class="y"/></g><g class="gridlayer"><g class="x"><path class="xgrid crisp" transform="translate(156.15,0)" d="M0,100v186.00000000000003" style="stroke: rgb(255, 255, 255); stroke-opacity: 1; stroke-width: 1px;"/><path class="xgrid crisp" transform="translate(240.77,0)" d="M0,100v186.00000000000003" style="stroke: rgb(255, 255, 255); stroke-opacity: 1; stroke-width: 1px;"/><path class="xgrid crisp" transform="translate(325.38,0)" d="M0,100v186.00000000000003" style="stroke: rgb(255, 255, 255); stroke-opacity: 1; stroke-width: 1px;"/><path class="xgrid crisp" transform="translate(410,0)" d="M0,100v186.00000000000003" style="stroke: rgb(255, 255, 255); stroke-opacity: 1; stroke-width: 1px;"/><path class="xgrid crisp" transform="translate(494.62,0)" d="M0,100v186.00000000000003" style="stroke: rgb(255, 255, 255); stroke-opacity: 1; stroke-width: 1px;"/></g><g class="y"><path class="ygrid crisp" transform="translate(0,248.8)" d="M80,0h440" style="stroke: rgb(255, 255, 255); stroke-opacity: 1; stroke-width: 1px;"/><path class="ygrid crisp" transform="translate(0,211.6)" d="M80,0h440" style="stroke: rgb(255, 255, 255); stroke-opacity: 1; stroke-width: 1px;"/><path class="ygrid crisp" transform="translate(0,174.4)" d="M80,0h440" style="stroke: rgb(255, 255, 255); stroke-opacity: 1; stroke-width: 1px;"/><path class="ygrid crisp" transform="translate(0,137.2)" d="M80,0h440" style="stroke: rgb(255, 255, 255); stroke-opacity: 1; stroke-width: 1px;"/></g></g><g class="zerolinelayer"><path class="yzl zl crisp" transform="translate(0,286)" d="M80,0h440" style="stroke: rgb(255, 255, 255); stroke-opacity: 1; stroke-width: 2px;"/></g><path class="xlines-below"/><path class="ylines-below"/><g class="overlines-below"/><g class="xaxislayer-below"/><g class="yaxislayer-below"/><g class="overaxes-below"/><g class="plot" transform="translate(80,100)" clip-path="url(#clip5d00b0xyplot)"><g class="scatterlayer mlayer"><g class="trace scatter trace567550" style="stroke-miterlimit: 2;"><g class="fills"><g><path class="js-fill" d="M0,186L126.92,185.98L135.38,184.95L143.85,173.34L152.31,177.57L160.77,168.6L169.23,167.71L177.69,169.77L186.15,163.21L194.62,170.62L203.08,169.22L211.54,149.33L220,162.23L228.46,149.93L236.92,163.02L245.38,151.14L253.85,156.08L262.31,146.93L270.77,143.96L279.23,166.06L287.69,167.83L296.15,163.77L304.62,175.07L313.08,171.45L321.54,162.87L330,178.95L338.46,177.28L346.92,185.48L355.38,186L440,186L440,186L330,186L321.54,186L313.08,183.01L304.62,183.36L296.15,185.03L287.69,186L279.23,185.98L270.77,178.27L262.31,180.81L253.85,180.05L245.38,186L236.92,176.64L228.46,179.16L220,184.48L211.54,178.62L203.08,186L0,186Z" style="fill: rgb(224, 236, 244); fill-opacity: 1; stroke-width: 0;"/></g></g><g class="errorbars"/><g class="lines"><path class="js-line" d="M0,186L203.08,186L211.54,178.62L220,184.48L228.46,179.16L236.92,176.64L245.38,186L253.85,180.05L262.31,180.81L270.77,178.27L279.23,185.98L287.69,186L296.15,185.03L304.62,183.36L313.08,183.01L321.54,186L330,186L440,186" style="vector-effect: non-scaling-stroke; fill: none; stroke: rgb(0, 0, 0); stroke-opacity: 1; stroke-width: 0.25px; opacity: 1;"/></g><g class="points"/><g class="text"/></g><g class="trace scatter tracea691b8" style="stroke-miterlimit: 2;"><g class="fills"><g><path class="js-fill" d="M0,186L76.15,186L84.62,184.91L93.08,186L101.54,186L110,167.39L118.46,184.51L126.92,180.55L135.38,174.1L143.85,154.44L152.31,162.99L160.77,153.19L169.23,145.28L177.69,162.32L186.15,136.46L194.62,137.62L203.08,129.26L211.54,106.14L220,141.57L228.46,138.79L236.92,144.27L245.38,128.31L253.85,138.89L262.31,127.03L270.77,129.83L279.23,147.83L287.69,147.64L296.15,145.37L304.62,164.4L313.08,160.82L321.54,144.94L330,169.03L338.46,160.24L346.92,175.46L355.38,184.28L363.85,185.94L372.31,186L440,186L440,186L355.38,186L346.92,185.48L338.46,177.28L330,178.95L321.54,162.87L313.08,171.45L304.62,175.07L296.15,163.77L287.69,167.83L279.23,166.06L270.77,143.96L262.31,146.93L253.85,156.08L245.38,151.14L236.92,163.02L228.46,149.93L220,162.23L211.54,149.33L203.08,169.22L194.62,170.62L186.15,163.21L177.69,169.77L169.23,167.71L160.77,168.6L152.31,177.57L143.85,173.34L135.38,184.95L126.92,185.98L0,186Z" style="fill: rgb(158, 188, 218); fill-opacity: 1; stroke-width: 0;"/></g></g><g class="errorbars"/><g class="lines"><path class="js-line" d="M0,186L126.92,185.98L135.38,184.95L143.85,173.34L152.31,177.57L160.77,168.6L169.23,167.71L177.69,169.77L186.15,163.21L194.62,170.62L203.08,169.22L211.54,149.33L220,162.23L228.46,149.93L236.92,163.02L245.38,151.14L253.85,156.08L262.31,146.93L270.77,143.96L279.23,166.06L287.69,167.83L296.15,163.77L304.62,175.07L313.08,171.45L321.54,162.87L330,178.95L338.46,177.28L346.92,185.48L355.38,186L440,186" style="vector-effect: non-scaling-stroke; fill: none; stroke: rgb(0, 0, 0); stroke-opacity: 1; stroke-width: 0.5px; opacity: 1;"/></g><g class="points"/><g class="text"/></g><g class="trace scatter tracecbb220" style="stroke-miterlimit: 2;"><g class="fills"><g><path class="js-fill" d="M0,186L42.31,186L50.77,185.12L59.23,182.49L67.69,184.56L84.62,179.39L93.08,183.24L101.54,179.62L110,152.25L118.46,172.59L126.92,160.63L135.38,153.99L143.85,133.58L152.31,134.59L160.77,117.32L169.23,92.79L177.69,110.27L186.15,102.88L194.62,86.57L203.08,108.21L211.54,68.03L220,65.68L228.46,112.05L236.92,103.87L245.38,92.25L262.31,113.16L270.77,94.03L279.23,126.63L287.69,132.5L296.15,116.31L304.62,143.33L313.08,131L321.54,116.6L330,144.93L338.46,122.25L346.92,153.91L355.38,174.62L363.85,182.28L372.31,182.8L380.77,183.78L389.23,186L440,186L440,186L372.31,186L363.85,185.94L355.38,184.28L346.92,175.46L338.46,160.24L330,169.03L321.54,144.94L313.08,160.82L304.62,164.4L296.15,145.37L287.69,147.64L279.23,147.83L270.77,129.83L262.31,127.03L253.85,138.89L245.38,128.31L236.92,144.27L228.46,138.79L220,141.57L211.54,106.14L203.08,129.26L194.62,137.62L186.15,136.46L177.69,162.32L169.23,145.28L160.77,153.19L152.31,162.99L143.85,154.44L135.38,174.1L126.92,180.55L118.46,184.51L110,167.39L101.54,186L93.08,186L84.62,184.91L76.15,186L0,186Z" style="fill: rgb(158, 188, 218); fill-opacity: 1; stroke-width: 0;"/></g></g><g class="errorbars"/><g class="lines"><path class="js-line" d="M0,186L76.15,186L84.62,184.91L93.08,186L101.54,186L110,167.39L118.46,184.51L126.92,180.55L135.38,174.1L143.85,154.44L152.31,162.99L160.77,153.19L169.23,145.28L177.69,162.32L186.15,136.46L194.62,137.62L203.08,129.26L211.54,106.14L220,141.57L228.46,138.79L236.92,144.27L245.38,128.31L253.85,138.89L262.31,127.03L270.77,129.83L279.23,147.83L287.69,147.64L296.15,145.37L304.62,164.4L313.08,160.82L321.54,144.94L330,169.03L338.46,160.24L346.92,175.46L355.38,184.28L363.85,185.94L372.31,186L440,186" style="vector-effect: non-scaling-stroke; fill: none; stroke: rgb(0, 0, 0); stroke-opacity: 1; stroke-width: 1px; opacity: 1;"/></g><g class="points"/><g class="text"/></g><g class="trace scatter trace8c28c3" style="stroke-miterlimit: 2;"><g class="fills"><g><path class="js-fill" d="M0,186L42.31,186L50.77,184.53L59.23,178.1L67.69,183.77L76.15,177.65L84.62,175.99L93.08,182.95L101.54,177.83L110,121.74L118.46,155.67L126.92,136.29L135.38,133.45L143.85,74.3L152.31,130.2L160.77,64.82L169.23,-14.89L177.69,66.36L186.15,22.67L194.62,-38.07L203.08,58.41L211.54,46.95L220,-40.04L228.46,57.57L236.92,65.14L245.38,11.69L253.85,53.49L262.31,68L270.77,23.81L279.23,88.02L287.69,116.47L296.15,101.91L304.62,97.27L313.08,100.84L321.54,48.88L330,117.12L338.46,82.15L346.92,125.1L355.38,161.72L363.85,180.34L372.31,181.74L380.77,183.04L389.23,186L440,186L440,186L389.23,186L380.77,183.78L372.31,182.8L363.85,182.28L355.38,174.62L346.92,153.91L338.46,122.25L330,144.93L321.54,116.6L313.08,131L304.62,143.33L296.15,116.31L287.69,132.5L279.23,126.63L270.77,94.03L262.31,113.16L245.38,92.25L236.92,103.87L228.46,112.05L220,65.68L211.54,68.03L203.08,108.21L194.62,86.57L186.15,102.88L177.69,110.27L169.23,92.79L160.77,117.32L152.31,134.59L143.85,133.58L135.38,153.99L126.92,160.63L118.46,172.59L110,152.25L101.54,179.62L93.08,183.24L84.62,179.39L67.69,184.56L59.23,182.49L50.77,185.12L42.31,186L0,186Z" style="fill: rgb(136, 86, 167); fill-opacity: 1; stroke-width: 0;"/></g></g><g class="errorbars"/><g class="lines"><path class="js-line" d="M0,186L42.31,186L50.77,185.12L59.23,182.49L67.69,184.56L84.62,179.39L93.08,183.24L101.54,179.62L110,152.25L118.46,172.59L126.92,160.63L135.38,153.99L143.85,133.58L152.31,134.59L160.77,117.32L169.23,92.79L177.69,110.27L186.15,102.88L194.62,86.57L203.08,108.21L211.54,68.03L220,65.68L228.46,112.05L236.92,103.87L245.38,92.25L262.31,113.16L270.77,94.03L279.23,126.63L287.69,132.5L296.15,116.31L304.62,143.33L313.08,131L321.54,116.6L330,144.93L338.46,122.25L346.92,153.91L355.38,174.62L363.85,182.28L372.31,182.8L380.77,183.78L389.23,186L440,186" style="vector-effect: non-scaling-stroke; fill: none; stroke: rgb(0, 0, 0); stroke-opacity: 1; stroke-width: 0.5px; opacity: 1;"/></g><g class="points"/><g class="text"/></g><g class="trace scatter trace66c29f" style="stroke-miterlimit: 2;"><g class="fills"/><g class="errorbars"/><g class="lines"><path class="js-line" d="M0,186L42.31,186L50.77,184.53L59.23,178.1L67.69,183.77L76.15,177.65L84.62,175.99L93.08,182.95L101.54,177.83L110,121.74L118.46,155.67L126.92,136.29L135.38,133.45L143.85,74.3L152.31,130.2L160.77,64.82L169.23,-14.89L177.69,66.36L186.15,22.67L194.62,-38.07L203.08,58.41L211.54,46.95L220,-40.04L228.46,57.57L236.92,65.14L245.38,11.69L253.85,53.49L262.31,68L270.77,23.81L279.23,88.02L287.69,116.47L296.15,101.91L304.62,97.27L313.08,100.84L321.54,48.88L330,117.12L338.46,82.15L346.92,125.1L355.38,161.72L363.85,180.34L372.31,181.74L380.77,183.04L389.23,186L440,186" style="vector-effect: non-scaling-stroke; fill: none; stroke: rgb(0, 0, 0); stroke-opacity: 1; stroke-width: 0.25px; opacity: 1;"/></g><g class="points"/><g class="text"/></g><g class="trace scatter trace41a8cb" style="stroke-miterlimit: 2; opacity: 1;"><g class="fills"/><g class="errorbars"/><g class="lines"/><g class="points"><path class="point" transform="translate(169.23,144.34)" d="M4,0A4,4 0 1,1 0,-4A4,4 0 0,1 4,0ZM0,0.5L0.5,0L0,-0.5L-0.5,0Z" style="opacity: 1; stroke: rgb(0, 0, 0); stroke-opacity: 1; stroke-width: 1px; fill: none;"/><path class="point" transform="translate(177.69,133.92)" d="M4,0A4,4 0 1,1 0,-4A4,4 0 0,1 4,0ZM0,0.5L0.5,0L0,-0.5L-0.5,0Z" style="opacity: 1; stroke: rgb(0, 0, 0); stroke-opacity: 1; stroke-width: 1px; fill: none;"/><path class="point" transform="translate(186.15,66.22)" d="M4,0A4,4 0 1,1 0,-4A4,4 0 0,1 4,0ZM0,0.5L0.5,0L0,-0.5L-0.5,0Z" style="opacity: 1; stroke: rgb(0, 0, 0); stroke-opacity: 1; stroke-width: 1px; fill: none;"/><path class="point" transform="translate(194.62,66.22)" d="M4,0A4,4 0 1,1 0,-4A4,4 0 0,1 4,0ZM0,0.5L0.5,0L0,-0.5L-0.5,0Z" style="opacity: 1; stroke: rgb(0, 0, 0); stroke-opacity: 1; stroke-width: 1px; fill: none;"/></g><g class="text"/></g></g></g><g class="overplot"/><path class="xlines-above crisp" d="M0,0" style="fill: none;"/><path class="ylines-above crisp" d="M0,0" style="fill: none;"/><g class="overlines-above"/><g class="xaxislayer-above"/><g class="yaxislayer-above"><g class="ytick"><text text-anchor="end" x="79" y="4.199999999999999" transform="translate(0,286)" style="font-family: 'Open Sans', verdana, arial, sans-serif; font-size: 12px; fill: rgb(42, 63, 95); fill-opacity: 1; white-space: pre; opacity: 1;">0</text></g><g class="ytick"><text text-anchor="end" x="79" y="4.199999999999999" style="font-family: 'Open Sans', verdana, arial, sans-serif; font-size: 12px; fill: rgb(42, 63, 95); fill-opacity: 1; white-space: pre; opacity: 1;" transform="translate(0,248.8)">50</text></g><g class="ytick"><text text-anchor="end" x="79" y="4.199999999999999" style="font-family: 'Open Sans', verdana, arial, sans-serif; font-size: 12px; fill: rgb(42, 63, 95); fill-opacity: 1; white-space: pre; opacity: 1;" transform="translate(0,211.6)">100</text></g><g class="ytick"><text text-anchor="end" x="79" y="4.199999999999999" style="font-family: 'Open Sans', verdana, arial, sans-serif; font-size: 12px; fill: rgb(42, 63, 95); fill-opacity: 1; white-space: pre; opacity: 1;" transform="translate(0,174.4)">150</text></g><g class="ytick"><text text-anchor="end" x="79" y="4.199999999999999" style="font-family: 'Open Sans', verdana, arial, sans-serif; font-size: 12px; fill: rgb(42, 63, 95); fill-opacity: 1; white-space: pre; opacity: 1;" transform="translate(0,137.2)">200</text></g><g class="ytick"><text text-anchor="end" x="79" y="4.199999999999999" style="font-family: 'Open Sans', verdana, arial, sans-serif; font-size: 12px; fill: rgb(42, 63, 95); fill-opacity: 1; white-space: pre; opacity: 1;" transform="translate(0,100)">250</text></g></g><g class="overaxes-above"/></g><g class="subplot x2y2"><g class="layer-subplot"><g class="shapelayer"/><g class="imagelayer"/></g><g class="minor-gridlayer"><g class="x2"/><g class="y2"/></g><g class="gridlayer"><g class="x2"><path class="x2grid crisp" transform="translate(156.15,0)" d="M0,317.00000000000006v185.99999999999997" style="stroke: rgb(255, 255, 255); stroke-opacity: 1; stroke-width: 1px;"/><path class="x2grid crisp" transform="translate(240.77,0)" d="M0,317.00000000000006v185.99999999999997" style="stroke: rgb(255, 255, 255); stroke-opacity: 1; stroke-width: 1px;"/><path class="x2grid crisp" transform="translate(325.38,0)" d="M0,317.00000000000006v185.99999999999997" style="stroke: rgb(255, 255, 255); stroke-opacity: 1; stroke-width: 1px;"/><path class="x2grid crisp" transform="translate(410,0)" d="M0,317.00000000000006v185.99999999999997" style="stroke: rgb(255, 255, 255); stroke-opacity: 1; stroke-width: 1px;"/><path class="x2grid crisp" transform="translate(494.62,0)" d="M0,317.00000000000006v185.99999999999997" style="stroke: rgb(255, 255, 255); stroke-opacity: 1; stroke-width: 1px;"/></g><g class="y2"><path class="y2grid crisp" transform="translate(0,472.00000000000006)" d="M80,0h440" style="stroke: rgb(255, 255, 255); stroke-opacity: 1; stroke-width: 1px;"/><path class="y2grid crisp" transform="translate(0,410.00000000000006)" d="M80,0h440" style="stroke: rgb(255, 255, 255); stroke-opacity: 1; stroke-width: 1px;"/><path class="y2grid crisp" transform="translate(0,348.00000000000006)" d="M80,0h440" style="stroke: rgb(255, 255, 255); stroke-opacity: 1; stroke-width: 1px;"/></g></g><g class="zerolinelayer"/><path class="xlines-below"/><path class="ylines-below"/><g class="overlines-below"/><g class="xaxislayer-below"/><g class="yaxislayer-below"/><g class="overaxes-below"/><g class="plot" transform="translate(80,317.00000000000006)" clip-path="url(#clip5d00b0x2y2plot)"><g class="scatterlayer mlayer"><g class="trace scatter traceed2154" style="stroke-miterlimit: 2;"><g class="fills"><g><path class="js-fill" d="M0,140.66L8.46,145.68L16.92,132.46L25.38,128.45L33.85,121.83L59.23,95.39L67.69,90.65L76.15,86.66L84.62,74.41L93.08,76.37L101.54,82.81L110,85.99L118.46,79.12L143.85,87.67L152.31,80.28L160.77,86.34L169.23,85.27L177.69,89.78L186.15,93.11L194.62,95.43L203.08,92.9L211.54,98.87L220,96.3L228.46,95.23L236.92,99.26L245.38,95.59L253.85,95.63L262.31,97.39L270.77,97.38L279.23,97.47L287.69,94.51L296.15,95.59L304.62,93.93L313.08,98.88L321.54,95.66L330,93.5L338.46,98.52L355.38,90.05L363.85,93.19L372.31,94.86L380.77,99.33L389.23,106.19L397.69,114.02L406.15,123.68L414.62,125.88L423.08,136.61L431.54,138.59L440,143.52L440,146.04L431.54,144.12L423.08,152.62L414.62,136.16L406.15,138.48L397.69,122.96L389.23,111.02L380.77,106.16L372.31,98.49L363.85,103.36L355.38,98.67L346.92,105.33L338.46,102.12L330,105.29L321.54,103.37L313.08,109.98L304.62,97.39L296.15,107.71L287.69,100.24L279.23,104.15L270.77,106.98L253.85,103.91L245.38,100.25L236.92,107.39L228.46,100.03L220,105.59L211.54,105.17L203.08,101.2L194.62,103.44L186.15,98.57L177.69,95.62L169.23,97.73L160.77,98.23L152.31,94.4L143.85,97.75L135.38,99.33L126.92,93.45L118.46,96.31L110,91.8L101.54,96.75L93.08,91.52L84.62,89.55L76.15,97.39L67.69,119.54L59.23,105.16L50.77,122.36L42.31,127.76L33.85,136.44L25.38,131.7L16.92,143.99L8.46,157.23L0,157.76Z" style="fill: rgb(145, 191, 219); fill-opacity: 1; stroke-width: 0;"/></g></g><g class="errorbars"/><g class="lines"><path class="js-line" d="M0,157.76L8.46,157.23L16.92,143.99L25.38,131.7L33.85,136.44L42.31,127.76L50.77,122.36L59.23,105.16L67.69,119.54L76.15,97.39L84.62,89.55L93.08,91.52L101.54,96.75L110,91.8L118.46,96.31L126.92,93.45L135.38,99.33L143.85,97.75L152.31,94.4L160.77,98.23L169.23,97.73L177.69,95.62L186.15,98.57L194.62,103.44L203.08,101.2L211.54,105.17L220,105.59L228.46,100.03L236.92,107.39L245.38,100.25L253.85,103.91L270.77,106.98L279.23,104.15L287.69,100.24L296.15,107.71L304.62,97.39L313.08,109.98L321.54,103.37L330,105.29L338.46,102.12L346.92,105.33L355.38,98.67L363.85,103.36L372.31,98.49L380.77,106.16L389.23,111.02L397.69,122.96L406.15,138.48L414.62,136.16L423.08,152.62L431.54,144.12L440,146.04" style="vector-effect: non-scaling-stroke; fill: none; stroke: rgb(0, 0, 0); stroke-opacity: 1; stroke-width: 0.25px; opacity: 1;"/></g><g class="points"/><g class="text"/></g><g class="trace scatter trace7eeeaf" style="stroke-miterlimit: 2;"><g class="fills"><g><path class="js-fill" d="M0,132.26L8.46,136.62L16.92,127.45L25.38,122.21L33.85,115.63L50.77,96.55L59.23,88.22L67.69,77.91L76.15,77.2L84.62,67.54L93.08,60.75L110,75.39L118.46,70.33L126.92,76.35L135.38,80.11L143.85,82.63L152.31,76.58L160.77,80.73L169.23,81.73L177.69,82.6L186.15,85.94L194.62,89.23L203.08,90.66L211.54,91.53L220,91.53L228.46,90.38L236.92,94.5L245.38,87.34L253.85,92.97L262.31,91.9L270.77,93.18L279.23,92.06L287.69,91.77L296.15,91.8L304.62,90.21L313.08,92.55L321.54,89.67L338.46,90.79L346.92,89.29L355.38,84.58L363.85,89.94L372.31,92.2L380.77,96.23L389.23,102.99L397.69,107.82L406.15,118.33L414.62,122.04L423.08,126.79L431.54,132.5L440,131.79L440,143.52L431.54,138.59L423.08,136.61L414.62,125.88L406.15,123.68L397.69,114.02L389.23,106.19L380.77,99.33L372.31,94.86L363.85,93.19L355.38,90.05L338.46,98.52L330,93.5L321.54,95.66L313.08,98.88L304.62,93.93L296.15,95.59L287.69,94.51L279.23,97.47L270.77,97.38L262.31,97.39L253.85,95.63L245.38,95.59L236.92,99.26L228.46,95.23L220,96.3L211.54,98.87L203.08,92.9L194.62,95.43L186.15,93.11L177.69,89.78L169.23,85.27L160.77,86.34L152.31,80.28L143.85,87.67L118.46,79.12L110,85.99L101.54,82.81L93.08,76.37L84.62,74.41L76.15,86.66L67.69,90.65L59.23,95.39L33.85,121.83L25.38,128.45L16.92,132.46L8.46,145.68L0,140.66Z" style="fill: rgb(255, 255, 191); fill-opacity: 1; stroke-width: 0;"/></g></g><g class="errorbars"/><g class="lines"><path class="js-line" d="M0,140.66L8.46,145.68L16.92,132.46L25.38,128.45L33.85,121.83L59.23,95.39L67.69,90.65L76.15,86.66L84.62,74.41L93.08,76.37L101.54,82.81L110,85.99L118.46,79.12L143.85,87.67L152.31,80.28L160.77,86.34L169.23,85.27L177.69,89.78L186.15,93.11L194.62,95.43L203.08,92.9L211.54,98.87L220,96.3L228.46,95.23L236.92,99.26L245.38,95.59L253.85,95.63L262.31,97.39L270.77,97.38L279.23,97.47L287.69,94.51L296.15,95.59L304.62,93.93L313.08,98.88L321.54,95.66L330,93.5L338.46,98.52L355.38,90.05L363.85,93.19L372.31,94.86L380.77,99.33L389.23,106.19L397.69,114.02L406.15,123.68L414.62,125.88L423.08,136.61L431.54,138.59L440,143.52" style="vector-effect: non-scaling-stroke; fill: none; stroke: rgb(0, 0, 0); stroke-opacity: 1; stroke-width: 0.5px; opacity: 1;"/></g><g class="points"/><g class="text"/></g><g class="trace scatter trace0a4110" style="stroke-miterlimit: 2;"><g class="fills"><g><path class="js-fill" d="M0,125.89L8.46,126.77L16.92,121.65L25.38,119.41L33.85,110.7L50.77,90.15L59.23,84.11L67.69,71.25L76.15,67.18L84.62,61.89L93.08,57.63L101.54,56.37L110,62.32L118.46,65.57L126.92,64.1L135.38,60.33L143.85,71.94L152.31,68.94L160.77,71.26L169.23,72.46L177.69,74.44L186.15,80.62L194.62,83.63L203.08,86.32L211.54,84.14L220,82.05L228.46,87.43L236.92,85.47L245.38,84.66L253.85,86.7L262.31,83.7L270.77,87.45L279.23,86.73L287.69,89.06L296.15,85.63L304.62,85.27L313.08,86.37L330,80.82L338.46,79.29L363.85,83.25L372.31,89.58L380.77,94.57L389.23,97.69L397.69,102.74L406.15,111.47L414.62,114.63L423.08,118.66L431.54,123.12L440,118.74L440,131.79L431.54,132.5L423.08,126.79L414.62,122.04L406.15,118.33L397.69,107.82L389.23,102.99L380.77,96.23L372.31,92.2L363.85,89.94L355.38,84.58L346.92,89.29L338.46,90.79L321.54,89.67L313.08,92.55L304.62,90.21L296.15,91.8L287.69,91.77L279.23,92.06L270.77,93.18L262.31,91.9L253.85,92.97L245.38,87.34L236.92,94.5L228.46,90.38L220,91.53L211.54,91.53L203.08,90.66L194.62,89.23L186.15,85.94L177.69,82.6L169.23,81.73L160.77,80.73L152.31,76.58L143.85,82.63L135.38,80.11L126.92,76.35L118.46,70.33L110,75.39L93.08,60.75L84.62,67.54L76.15,77.2L67.69,77.91L59.23,88.22L50.77,96.55L33.85,115.63L25.38,122.21L16.92,127.45L8.46,136.62L0,132.26Z" style="fill: rgb(255, 255, 191); fill-opacity: 1; stroke-width: 0;"/></g></g><g class="errorbars"/><g class="lines"><path class="js-line" d="M0,132.26L8.46,136.62L16.92,127.45L25.38,122.21L33.85,115.63L50.77,96.55L59.23,88.22L67.69,77.91L76.15,77.2L84.62,67.54L93.08,60.75L110,75.39L118.46,70.33L126.92,76.35L135.38,80.11L143.85,82.63L152.31,76.58L160.77,80.73L169.23,81.73L177.69,82.6L186.15,85.94L194.62,89.23L203.08,90.66L211.54,91.53L220,91.53L228.46,90.38L236.92,94.5L245.38,87.34L253.85,92.97L262.31,91.9L270.77,93.18L279.23,92.06L287.69,91.77L296.15,91.8L304.62,90.21L313.08,92.55L321.54,89.67L338.46,90.79L346.92,89.29L355.38,84.58L363.85,89.94L372.31,92.2L380.77,96.23L389.23,102.99L397.69,107.82L406.15,118.33L414.62,122.04L423.08,126.79L431.54,132.5L440,131.79" style="vector-effect: non-scaling-stroke; fill: none; stroke: rgb(0, 0, 0); stroke-opacity: 1; stroke-width: 1px; opacity: 1;"/></g><g class="points"/><g class="text"/></g><g class="trace scatter tracedfa905" style="stroke-miterlimit: 2;"><g class="fills"><g><path class="js-fill" d="M0,112.89L8.46,115.01L16.92,110.48L25.38,112.26L33.85,104.32L42.31,83.58L50.77,84.15L67.69,63.12L76.15,55.88L84.62,48.02L93.08,52.45L101.54,46.94L110,45.74L118.46,53.16L126.92,55.12L135.38,28.76L143.85,63.79L152.31,57.68L160.77,58.95L169.23,63.38L177.69,61.02L186.15,64.05L194.62,72.94L203.08,77.25L211.54,62.28L220,70.32L228.46,79.55L236.92,67.87L245.38,74.02L253.85,75.3L262.31,70.46L279.23,78.95L287.69,81.56L296.15,72.76L304.62,75.55L330,64.62L338.46,59.24L346.92,62.49L355.38,75.86L363.85,74.01L372.31,83.2L380.77,89.76L389.23,91.12L397.69,88.46L406.15,95.74L414.62,104.78L423.08,112.25L431.54,110.16L440,111.64L440,118.74L431.54,123.12L423.08,118.66L414.62,114.63L406.15,111.47L397.69,102.74L389.23,97.69L380.77,94.57L372.31,89.58L363.85,83.25L338.46,79.29L330,80.82L313.08,86.37L304.62,85.27L296.15,85.63L287.69,89.06L279.23,86.73L270.77,87.45L262.31,83.7L253.85,86.7L245.38,84.66L236.92,85.47L228.46,87.43L220,82.05L211.54,84.14L203.08,86.32L194.62,83.63L186.15,80.62L177.69,74.44L169.23,72.46L160.77,71.26L152.31,68.94L143.85,71.94L135.38,60.33L126.92,64.1L118.46,65.57L110,62.32L101.54,56.37L93.08,57.63L84.62,61.89L76.15,67.18L67.69,71.25L59.23,84.11L50.77,90.15L33.85,110.7L25.38,119.41L16.92,121.65L8.46,126.77L0,125.89Z" style="fill: rgb(252, 141, 89); fill-opacity: 1; stroke-width: 0;"/></g></g><g class="errorbars"/><g class="lines"><path class="js-line" d="M0,125.89L8.46,126.77L16.92,121.65L25.38,119.41L33.85,110.7L50.77,90.15L59.23,84.11L67.69,71.25L76.15,67.18L84.62,61.89L93.08,57.63L101.54,56.37L110,62.32L118.46,65.57L126.92,64.1L135.38,60.33L143.85,71.94L152.31,68.94L160.77,71.26L169.23,72.46L177.69,74.44L186.15,80.62L194.62,83.63L203.08,86.32L211.54,84.14L220,82.05L228.46,87.43L236.92,85.47L245.38,84.66L253.85,86.7L262.31,83.7L270.77,87.45L279.23,86.73L287.69,89.06L296.15,85.63L304.62,85.27L313.08,86.37L330,80.82L338.46,79.29L363.85,83.25L372.31,89.58L380.77,94.57L389.23,97.69L397.69,102.74L406.15,111.47L414.62,114.63L423.08,118.66L431.54,123.12L440,118.74" style="vector-effect: non-scaling-stroke; fill: none; stroke: rgb(0, 0, 0); stroke-opacity: 1; stroke-width: 0.5px; opacity: 1;"/></g><g class="points"/><g class="text"/></g><g class="trace scatter trace04d63f" style="stroke-miterlimit: 2;"><g class="fills"/><g class="errorbars"/><g class="lines"><path class="js-line" d="M0,112.89L8.46,115.01L16.92,110.48L25.38,112.26L33.85,104.32L42.31,83.58L50.77,84.15L67.69,63.12L76.15,55.88L84.62,48.02L93.08,52.45L101.54,46.94L110,45.74L118.46,53.16L126.92,55.12L135.38,28.76L143.85,63.79L152.31,57.68L160.77,58.95L169.23,63.38L177.69,61.02L186.15,64.05L194.62,72.94L203.08,77.25L211.54,62.28L220,70.32L228.46,79.55L236.92,67.87L245.38,74.02L253.85,75.3L262.31,70.46L279.23,78.95L287.69,81.56L296.15,72.76L304.62,75.55L330,64.62L338.46,59.24L346.92,62.49L355.38,75.86L363.85,74.01L372.31,83.2L380.77,89.76L389.23,91.12L397.69,88.46L406.15,95.74L414.62,104.78L423.08,112.25L431.54,110.16L440,111.64" style="vector-effect: non-scaling-stroke; fill: none; stroke: rgb(0, 0, 0); stroke-opacity: 1; stroke-width: 0.25px; opacity: 1;"/></g><g class="points"/><g class="text"/></g><g class="trace scatter tracee0230a" style="stroke-miterlimit: 2; opacity: 1;"><g class="fills"/><g class="errorbars"/><g class="lines"/><g class="points"><path class="point" transform="translate(169.23,80.6)" d="M4,0A4,4 0 1,1 0,-4A4,4 0 0,1 4,0ZM0,0.5L0.5,0L0,-0.5L-0.5,0Z" style="opacity: 1; stroke: rgb(0, 0, 0); stroke-opacity: 1; stroke-width: 1px; fill: none;"/><path class="point" transform="translate(177.69,74.4)" d="M4,0A4,4 0 1,1 0,-4A4,4 0 0,1 4,0ZM0,0.5L0.5,0L0,-0.5L-0.5,0Z" style="opacity: 1; stroke: rgb(0, 0, 0); stroke-opacity: 1; stroke-width: 1px; fill: none;"/><path class="point" transform="translate(186.15,74.4)" d="M4,0A4,4 0 1,1 0,-4A4,4 0 0,1 4,0ZM0,0.5L0.5,0L0,-0.5L-0.5,0Z" style="opacity: 1; stroke: rgb(0, 0, 0); stroke-opacity: 1; stroke-width: 1px; fill: none;"/><path class="point" transform="translate(194.62,74.4)" d="M4,0A4,4 0 1,1 0,-4A4,4 0 0,1 4,0ZM0,0.5L0.5,0L0,-0.5L-0.5,0Z" style="opacity: 1; stroke: rgb(0, 0, 0); stroke-opacity: 1; stroke-width: 1px; fill: none;"/></g><g class="text"/></g></g></g><g class="overplot"/><path class="xlines-above crisp" d="M0,0" style="fill: none;"/><path class="ylines-above crisp" d="M0,0" style="fill: none;"/><g class="overlines-above"/><g class="xaxislayer-above"/><g class="yaxislayer-above"><g class="y2tick"><text text-anchor="end" x="79" y="4.199999999999999" transform="translate(0,472.00000000000006)" style="font-family: 'Open Sans', verdana, arial, sans-serif; font-size: 12px; fill: rgb(42, 63, 95); fill-opacity: 1; white-space: pre; opacity: 1;">20</text></g><g class="y2tick"><text text-anchor="end" x="79" y="4.199999999999999" style="font-family: 'Open Sans', verdana, arial, sans-serif; font-size: 12px; fill: rgb(42, 63, 95); fill-opacity: 1; white-space: pre; opacity: 1;" transform="translate(0,410.00000000000006)">30</text></g><g class="y2tick"><text text-anchor="end" x="79" y="4.199999999999999" style="font-family: 'Open Sans', verdana, arial, sans-serif; font-size: 12px; fill: rgb(42, 63, 95); fill-opacity: 1; white-space: pre; opacity: 1;" transform="translate(0,348.00000000000006)">40</text></g></g><g class="overaxes-above"/></g><g class="subplot x3y3"><g class="layer-subplot"><g class="shapelayer"/><g class="imagelayer"/></g><g class="minor-gridlayer"><g class="x3"/><g class="y3"/></g><g class="gridlayer"><g class="x3"><path class="x3grid crisp" transform="translate(156.15,0)" d="M0,534v186" style="stroke: rgb(255, 255, 255); stroke-opacity: 1; stroke-width: 1px;"/><path class="x3grid crisp" transform="translate(240.77,0)" d="M0,534v186" style="stroke: rgb(255, 255, 255); stroke-opacity: 1; stroke-width: 1px;"/><path class="x3grid crisp" transform="translate(325.38,0)" d="M0,534v186" style="stroke: rgb(255, 255, 255); stroke-opacity: 1; stroke-width: 1px;"/><path class="x3grid crisp" transform="translate(410,0)" d="M0,534v186" style="stroke: rgb(255, 255, 255); stroke-opacity: 1; stroke-width: 1px;"/><path class="x3grid crisp" transform="translate(494.62,0)" d="M0,534v186" style="stroke: rgb(255, 255, 255); stroke-opacity: 1; stroke-width: 1px;"/></g><g class="y3"><path class="y3grid crisp" transform="translate(0,682.8)" d="M80,0h440" style="stroke: rgb(255, 255, 255); stroke-opacity: 1; stroke-width: 1px;"/><path class="y3grid crisp" transform="translate(0,645.6)" d="M80,0h440" style="stroke: rgb(255, 255, 255); stroke-opacity: 1; stroke-width: 1px;"/><path class="y3grid crisp" transform="translate(0,608.4)" d="M80,0h440" style="stroke: rgb(255, 255, 255); stroke-opacity: 1; stroke-width: 1px;"/><path class="y3grid crisp" transform="translate(0,571.2)" d="M80,0h440" style="stroke: rgb(255, 255, 255); stroke-opacity: 1; stroke-width: 1px;"/></g></g><g class="zerolinelayer"/><path class="xlines-below"/><path class="ylines-below"/><g class="overlines-below"/><g class="xaxislayer-below"/><g class="yaxislayer-below"/><g class="overaxes-below"/><g class="plot" transform="translate(80,534)" clip-path="url(#clip5d00b0x3y3plot)"><g class="scatterlayer mlayer"><g class="trace scatter tracee99440" style="stroke-miterlimit: 2;"><g class="fills"><g><path class="js-fill" d="M0,117.69L8.46,123.69L16.92,118.52L25.38,119.09L33.85,114.09L42.31,104.22L50.77,96.45L59.23,91.72L67.69,78.23L76.15,75.82L84.62,67.3L93.08,62.18L101.54,60.08L118.46,55.89L126.92,51.82L135.38,52.47L143.85,49.41L152.31,44.97L160.77,41.59L177.69,38.4L186.15,38.58L203.08,37.46L211.54,37.57L220,36.68L228.46,37.87L236.92,38.98L245.38,39.1L253.85,39.54L262.31,38.6L270.77,38.21L279.23,39.6L287.69,39.51L296.15,40.41L304.62,40.04L313.08,41.54L321.54,41.44L330,42.19L338.46,45.26L346.92,50.08L355.38,48.21L363.85,57.39L372.31,63.05L380.77,70.52L389.23,79.27L397.69,92.43L406.15,98.76L414.62,102.31L423.08,112.09L431.54,116.29L440,122.92L440,130.5L431.54,124.69L423.08,119.4L414.62,119.11L406.15,114.32L397.69,100.15L389.23,86.97L380.77,80.07L372.31,72L363.85,60.24L355.38,54.77L346.92,54.24L338.46,50.26L330,47.14L321.54,45.47L313.08,45.2L304.62,41.51L287.69,41.31L279.23,42.28L270.77,40.2L262.31,42.14L253.85,46.28L245.38,42.59L236.92,40.65L228.46,39.92L211.54,39.13L203.08,41.01L186.15,43.01L177.69,40.42L169.23,42.83L160.77,46.91L152.31,49.8L143.85,55.59L126.92,62.33L118.46,64.26L110,67.9L101.54,66.37L93.08,71.24L84.62,84.77L76.15,86.73L67.69,91.64L59.23,106.6L50.77,110.77L42.31,117.92L33.85,128.89L16.92,124.85L8.46,137.97L0,121.63Z" style="fill: rgb(90, 180, 172); fill-opacity: 1; stroke-width: 0;"/></g></g><g class="errorbars"/><g class="lines"><path class="js-line" d="M0,121.63L8.46,137.97L16.92,124.85L33.85,128.89L42.31,117.92L50.77,110.77L59.23,106.6L67.69,91.64L76.15,86.73L84.62,84.77L93.08,71.24L101.54,66.37L110,67.9L118.46,64.26L126.92,62.33L143.85,55.59L152.31,49.8L160.77,46.91L169.23,42.83L177.69,40.42L186.15,43.01L203.08,41.01L211.54,39.13L228.46,39.92L236.92,40.65L245.38,42.59L253.85,46.28L262.31,42.14L270.77,40.2L279.23,42.28L287.69,41.31L304.62,41.51L313.08,45.2L321.54,45.47L330,47.14L338.46,50.26L346.92,54.24L355.38,54.77L363.85,60.24L372.31,72L380.77,80.07L389.23,86.97L397.69,100.15L406.15,114.32L414.62,119.11L423.08,119.4L431.54,124.69L440,130.5" style="vector-effect: non-scaling-stroke; fill: none; stroke: rgb(0, 0, 0); stroke-opacity: 1; stroke-width: 0.25px; opacity: 1;"/></g><g class="points"/><g class="text"/></g><g class="trace scatter trace9b1b24" style="stroke-miterlimit: 2;"><g class="fills"><g><path class="js-fill" d="M0,113.21L8.46,118.4L16.92,113.86L25.38,108.42L33.85,108.42L42.31,95.6L50.77,91.32L67.69,72.94L76.15,69.9L84.62,60.68L93.08,55.42L101.54,54.07L110,54.24L118.46,52.02L126.92,46.31L135.38,49.47L143.85,47.14L152.31,42.41L160.77,40.03L177.69,36.78L186.15,36.1L194.62,36.6L203.08,35.79L245.38,37.36L253.85,38.36L262.31,35.28L270.77,37.08L279.23,37.77L287.69,37.35L304.62,39.53L313.08,40.08L321.54,39.34L330,40.48L338.46,43.85L346.92,44.64L355.38,46.65L363.85,53.72L372.31,57.73L380.77,64.74L397.69,84.18L406.15,88.16L414.62,97.27L423.08,103.36L431.54,111.22L440,117.77L440,122.92L431.54,116.29L423.08,112.09L414.62,102.31L406.15,98.76L397.69,92.43L389.23,79.27L380.77,70.52L372.31,63.05L363.85,57.39L355.38,48.21L346.92,50.08L338.46,45.26L330,42.19L321.54,41.44L313.08,41.54L304.62,40.04L296.15,40.41L287.69,39.51L279.23,39.6L270.77,38.21L262.31,38.6L253.85,39.54L245.38,39.1L236.92,38.98L228.46,37.87L220,36.68L211.54,37.57L203.08,37.46L186.15,38.58L177.69,38.4L160.77,41.59L152.31,44.97L143.85,49.41L135.38,52.47L126.92,51.82L118.46,55.89L101.54,60.08L93.08,62.18L84.62,67.3L76.15,75.82L67.69,78.23L59.23,91.72L50.77,96.45L42.31,104.22L33.85,114.09L25.38,119.09L16.92,118.52L8.46,123.69L0,117.69Z" style="fill: rgb(245, 245, 245); fill-opacity: 1; stroke-width: 0;"/></g></g><g class="errorbars"/><g class="lines"><path class="js-line" d="M0,117.69L8.46,123.69L16.92,118.52L25.38,119.09L33.85,114.09L42.31,104.22L50.77,96.45L59.23,91.72L67.69,78.23L76.15,75.82L84.62,67.3L93.08,62.18L101.54,60.08L118.46,55.89L126.92,51.82L135.38,52.47L143.85,49.41L152.31,44.97L160.77,41.59L177.69,38.4L186.15,38.58L203.08,37.46L211.54,37.57L220,36.68L228.46,37.87L236.92,38.98L245.38,39.1L253.85,39.54L262.31,38.6L270.77,38.21L279.23,39.6L287.69,39.51L296.15,40.41L304.62,40.04L313.08,41.54L321.54,41.44L330,42.19L338.46,45.26L346.92,50.08L355.38,48.21L363.85,57.39L372.31,63.05L380.77,70.52L389.23,79.27L397.69,92.43L406.15,98.76L414.62,102.31L423.08,112.09L431.54,116.29L440,122.92" style="vector-effect: non-scaling-stroke; fill: none; stroke: rgb(0, 0, 0); stroke-opacity: 1; stroke-width: 0.5px; opacity: 1;"/></g><g class="points"/><g class="text"/></g><g class="trace scatter trace004dbf" style="stroke-miterlimit: 2;"><g class="fills"><g><path class="js-fill" d="M0,106.01L8.46,110.92L16.92,107.61L25.38,103.94L33.85,98.22L42.31,88.36L50.77,81.83L67.69,65.62L76.15,63.35L84.62,51.73L93.08,50.43L101.54,50.37L110,48.9L118.46,45.96L126.92,42L135.38,38.28L143.85,42.01L152.31,40.27L160.77,37.16L169.23,33.82L177.69,32.91L220,34.69L228.46,33.09L236.92,35.35L245.38,36.07L262.31,33.45L270.77,34.86L279.23,34.63L287.69,35.43L296.15,37.2L304.62,37.74L313.08,38.18L321.54,37.05L330,36.98L338.46,39.09L346.92,39.43L355.38,42.26L363.85,50.8L372.31,54.65L389.23,70.61L397.69,76.91L406.15,81.62L414.62,89.17L423.08,90.53L431.54,101.69L440,116.08L440,117.77L431.54,111.22L423.08,103.36L414.62,97.27L406.15,88.16L397.69,84.18L380.77,64.74L372.31,57.73L363.85,53.72L355.38,46.65L346.92,44.64L338.46,43.85L330,40.48L321.54,39.34L313.08,40.08L304.62,39.53L287.69,37.35L279.23,37.77L270.77,37.08L262.31,35.28L253.85,38.36L245.38,37.36L203.08,35.79L194.62,36.6L186.15,36.1L177.69,36.78L160.77,40.03L152.31,42.41L143.85,47.14L135.38,49.47L126.92,46.31L118.46,52.02L110,54.24L101.54,54.07L93.08,55.42L84.62,60.68L76.15,69.9L67.69,72.94L50.77,91.32L42.31,95.6L33.85,108.42L25.38,108.42L16.92,113.86L8.46,118.4L0,113.21Z" style="fill: rgb(245, 245, 245); fill-opacity: 1; stroke-width: 0;"/></g></g><g class="errorbars"/><g class="lines"><path class="js-line" d="M0,113.21L8.46,118.4L16.92,113.86L25.38,108.42L33.85,108.42L42.31,95.6L50.77,91.32L67.69,72.94L76.15,69.9L84.62,60.68L93.08,55.42L101.54,54.07L110,54.24L118.46,52.02L126.92,46.31L135.38,49.47L143.85,47.14L152.31,42.41L160.77,40.03L177.69,36.78L186.15,36.1L194.62,36.6L203.08,35.79L245.38,37.36L253.85,38.36L262.31,35.28L270.77,37.08L279.23,37.77L287.69,37.35L304.62,39.53L313.08,40.08L321.54,39.34L330,40.48L338.46,43.85L346.92,44.64L355.38,46.65L363.85,53.72L372.31,57.73L380.77,64.74L397.69,84.18L406.15,88.16L414.62,97.27L423.08,103.36L431.54,111.22L440,117.77" style="vector-effect: non-scaling-stroke; fill: none; stroke: rgb(0, 0, 0); stroke-opacity: 1; stroke-width: 1px; opacity: 1;"/></g><g class="points"/><g class="text"/></g><g class="trace scatter trace3ec724" style="stroke-miterlimit: 2;"><g class="fills"><g><path class="js-fill" d="M0,101.17L8.46,102.1L16.92,93.14L25.38,94.19L33.85,90.45L50.77,65.46L59.23,66.66L67.69,53.32L76.15,49.18L84.62,46.9L93.08,41.03L101.54,42.76L110,41.8L118.46,40.28L126.92,34.15L135.38,21.82L143.85,36.13L152.31,38.63L160.77,32.05L169.23,27.05L177.69,25.29L194.62,28.83L203.08,32.11L211.54,30.85L220,33.71L228.46,31.5L236.92,34.22L245.38,34.03L253.85,29.22L262.31,32.4L270.77,33.72L279.23,30.05L287.69,33.53L313.08,37.04L321.54,35.49L330,29.32L338.46,31.44L346.92,31.5L355.38,34.95L363.85,45.73L372.31,44.37L380.77,55.23L389.23,61.91L397.69,67.69L406.15,71.23L414.62,74.71L423.08,83.36L431.54,94.55L440,113.53L440,116.08L431.54,101.69L423.08,90.53L414.62,89.17L406.15,81.62L397.69,76.91L389.23,70.61L372.31,54.65L363.85,50.8L355.38,42.26L346.92,39.43L338.46,39.09L330,36.98L321.54,37.05L313.08,38.18L304.62,37.74L296.15,37.2L287.69,35.43L279.23,34.63L270.77,34.86L262.31,33.45L245.38,36.07L236.92,35.35L228.46,33.09L220,34.69L177.69,32.91L169.23,33.82L160.77,37.16L152.31,40.27L143.85,42.01L135.38,38.28L126.92,42L118.46,45.96L110,48.9L101.54,50.37L93.08,50.43L84.62,51.73L76.15,63.35L67.69,65.62L50.77,81.83L42.31,88.36L33.85,98.22L25.38,103.94L16.92,107.61L8.46,110.92L0,106.01Z" style="fill: rgb(216, 179, 101); fill-opacity: 1; stroke-width: 0;"/></g></g><g class="errorbars"/><g class="lines"><path class="js-line" d="M0,106.01L8.46,110.92L16.92,107.61L25.38,103.94L33.85,98.22L42.31,88.36L50.77,81.83L67.69,65.62L76.15,63.35L84.62,51.73L93.08,50.43L101.54,50.37L110,48.9L118.46,45.96L126.92,42L135.38,38.28L143.85,42.01L152.31,40.27L160.77,37.16L169.23,33.82L177.69,32.91L220,34.69L228.46,33.09L236.92,35.35L245.38,36.07L262.31,33.45L270.77,34.86L279.23,34.63L287.69,35.43L296.15,37.2L304.62,37.74L313.08,38.18L321.54,37.05L330,36.98L338.46,39.09L346.92,39.43L355.38,42.26L363.85,50.8L372.31,54.65L389.23,70.61L397.69,76.91L406.15,81.62L414.62,89.17L423.08,90.53L431.54,101.69L440,116.08" style="vector-effect: non-scaling-stroke; fill: none; stroke: rgb(0, 0, 0); stroke-opacity: 1; stroke-width: 0.5px; opacity: 1;"/></g><g class="points"/><g class="text"/></g><g class="trace scatter trace65e663" style="stroke-miterlimit: 2;"><g class="fills"/><g class="errorbars"/><g class="lines"><path class="js-line" d="M0,101.17L8.46,102.1L16.92,93.14L25.38,94.19L33.85,90.45L50.77,65.46L59.23,66.66L67.69,53.32L76.15,49.18L84.62,46.9L93.08,41.03L101.54,42.76L110,41.8L118.46,40.28L126.92,34.15L135.38,21.82L143.85,36.13L152.31,38.63L160.77,32.05L169.23,27.05L177.69,25.29L194.62,28.83L203.08,32.11L211.54,30.85L220,33.71L228.46,31.5L236.92,34.22L245.38,34.03L253.85,29.22L262.31,32.4L270.77,33.72L279.23,30.05L287.69,33.53L313.08,37.04L321.54,35.49L330,29.32L338.46,31.44L346.92,31.5L355.38,34.95L363.85,45.73L372.31,44.37L380.77,55.23L389.23,61.91L397.69,67.69L406.15,71.23L414.62,74.71L423.08,83.36L431.54,94.55L440,113.53" style="vector-effect: non-scaling-stroke; fill: none; stroke: rgb(0, 0, 0); stroke-opacity: 1; stroke-width: 0.25px; opacity: 1;"/></g><g class="points"/><g class="text"/></g><g class="trace scatter tracedd19b9" style="stroke-miterlimit: 2; opacity: 1;"><g class="fills"/><g class="errorbars"/><g class="lines"/><g class="points"><path class="point" transform="translate(169.23,37.2)" d="M4,0A4,4 0 1,1 0,-4A4,4 0 0,1 4,0ZM0,0.5L0.5,0L0,-0.5L-0.5,0Z" style="opacity: 1; stroke: rgb(0, 0, 0); stroke-opacity: 1; stroke-width: 1px; fill: none;"/><path class="point" transform="translate(177.69,37.2)" d="M4,0A4,4 0 1,1 0,-4A4,4 0 0,1 4,0ZM0,0.5L0.5,0L0,-0.5L-0.5,0Z" style="opacity: 1; stroke: rgb(0, 0, 0); stroke-opacity: 1; stroke-width: 1px; fill: none;"/><path class="point" transform="translate(186.15,29.76)" d="M4,0A4,4 0 1,1 0,-4A4,4 0 0,1 4,0ZM0,0.5L0.5,0L0,-0.5L-0.5,0Z" style="opacity: 1; stroke: rgb(0, 0, 0); stroke-opacity: 1; stroke-width: 1px; fill: none;"/><path class="point" transform="translate(194.62,29.76)" d="M4,0A4,4 0 1,1 0,-4A4,4 0 0,1 4,0ZM0,0.5L0.5,0L0,-0.5L-0.5,0Z" style="opacity: 1; stroke: rgb(0, 0, 0); stroke-opacity: 1; stroke-width: 1px; fill: none;"/></g><g class="text"/></g></g></g><g class="overplot"/><path class="xlines-above crisp" d="M0,0" style="fill: none;"/><path class="ylines-above crisp" d="M0,0" style="fill: none;"/><g class="overlines-above"/><g class="xaxislayer-above"><g class="x3tick"><text text-anchor="middle" x="0" y="733" transform="translate(156.15,0)" style="font-family: 'Open Sans', verdana, arial, sans-serif; font-size: 12px; fill: rgb(42, 63, 95); fill-opacity: 1; white-space: pre; opacity: 1;">10</text></g><g class="x3tick"><text text-anchor="middle" x="0" y="733" style="font-family: 'Open Sans', verdana, arial, sans-serif; font-size: 12px; fill: rgb(42, 63, 95); fill-opacity: 1; white-space: pre; opacity: 1;" transform="translate(240.77,0)">20</text></g><g class="x3tick"><text text-anchor="middle" x="0" y="733" style="font-family: 'Open Sans', verdana, arial, sans-serif; font-size: 12px; fill: rgb(42, 63, 95); fill-opacity: 1; white-space: pre; opacity: 1;" transform="translate(325.38,0)">30</text></g><g class="x3tick"><text text-anchor="middle" x="0" y="733" style="font-family: 'Open Sans', verdana, arial, sans-serif; font-size: 12px; fill: rgb(42, 63, 95); fill-opacity: 1; white-space: pre; opacity: 1;" transform="translate(410,0)">40</text></g><g class="x3tick"><text text-anchor="middle" x="0" y="733" style="font-family: 'Open Sans', verdana, arial, sans-serif; font-size: 12px; fill: rgb(42, 63, 95); fill-opacity: 1; white-space: pre; opacity: 1;" transform="translate(494.62,0)">50</text></g></g><g class="yaxislayer-above"><g class="y3tick"><text text-anchor="end" x="79" y="4.199999999999999" transform="translate(0,720)" style="font-family: 'Open Sans', verdana, arial, sans-serif; font-size: 12px; fill: rgb(42, 63, 95); fill-opacity: 1; white-space: pre; opacity: 1;">5</text></g><g class="y3tick"><text text-anchor="end" x="79" y="4.199999999999999" style="font-family: 'Open Sans', verdana, arial, sans-serif; font-size: 12px; fill: rgb(42, 63, 95); fill-opacity: 1; white-space: pre; opacity: 1;" transform="translate(0,682.8)">10</text></g><g class="y3tick"><text text-anchor="end" x="79" y="4.199999999999999" style="font-family: 'Open Sans', verdana, arial, sans-serif; font-size: 12px; fill: rgb(42, 63, 95); fill-opacity: 1; white-space: pre; opacity: 1;" transform="translate(0,645.6)">15</text></g><g class="y3tick"><text text-anchor="end" x="79" y="4.199999999999999" style="font-family: 'Open Sans', verdana, arial, sans-serif; font-size: 12px; fill: rgb(42, 63, 95); fill-opacity: 1; white-space: pre; opacity: 1;" transform="translate(0,608.4)">20</text></g><g class="y3tick"><text text-anchor="end" x="79" y="4.199999999999999" style="font-family: 'Open Sans', verdana, arial, sans-serif; font-size: 12px; fill: rgb(42, 63, 95); fill-opacity: 1; white-space: pre; opacity: 1;" transform="translate(0,571.2)">25</text></g><g class="y3tick"><text text-anchor="end" x="79" y="4.199999999999999" style="font-family: 'Open Sans', verdana, arial, sans-serif; font-size: 12px; fill: rgb(42, 63, 95); fill-opacity: 1; white-space: pre; opacity: 1;" transform="translate(0,534)">30</text></g></g><g class="overaxes-above"/></g></g><g class="polarlayer"/><g class="smithlayer"/><g class="ternarylayer"/><g class="geolayer"/><g class="funnelarealayer"/><g class="pielayer"/><g class="iciclelayer"/><g class="treemaplayer"/><g class="sunburstlayer"/><g class="glimages"/><defs id="topdefs-5d00b0"><g class="clips"/></defs><g class="layer-above"><g class="imagelayer"/><g class="shapelayer"/></g><g class="infolayer"><g class="g-gtitle"><text class="gtitle" x="30" y="50" text-anchor="start" dy="0em" style="font-family: 'Open Sans', verdana, arial, sans-serif; font-size: 17px; fill: rgb(42, 63, 95); opacity: 1; font-weight: normal; white-space: pre;">Climatology and S2S forecast for Chandpur</text></g><g class="g-xtitle"/><g class="g-x2title"/><g class="g-x3title"/><g class="g-ytitle"><text class="ytitle" transform="rotate(-90,34.16875,193)" x="34.16875" y="193" text-anchor="middle" style="font-family: 'Open Sans', verdana, arial, sans-serif; font-size: 14px; fill: rgb(42, 63, 95); opacity: 1; font-weight: normal; white-space: pre;">[mm]</text></g><g class="g-y2title"><text class="y2title" transform="rotate(-90,40.840625,410.00000000000006)" x="40.840625" y="410.00000000000006" text-anchor="middle" style="font-family: 'Open Sans', verdana, arial, sans-serif; font-size: 14px; fill: rgb(42, 63, 95); opacity: 1; font-weight: normal; white-space: pre;">[C]</text></g><g class="g-y3title"><text class="y3title" transform="rotate(-90,40.840625,627)" x="40.840625" y="627" text-anchor="middle" style="font-family: 'Open Sans', verdana, arial, sans-serif; font-size: 14px; fill: rgb(42, 63, 95); opacity: 1; font-weight: normal; white-space: pre;">[C]</text></g><g class="annotation" data-index="0" style="opacity: 1;"><g class="annotation-text-g" transform="rotate(0,300,89.5)"><g class="cursor-pointer" transform="translate(237,79)"><rect class="bg" x="0.5" y="0.5" width="126" height="20" style="stroke-width: 1px; stroke: rgb(0, 0, 0); stroke-opacity: 0; fill: rgb(0, 0, 0); fill-opacity: 0;"/><text class="annotation-text" text-anchor="middle" x="63.359375" y="16" style="font-family: 'Open Sans', verdana, arial, sans-serif; font-size: 16px; fill: rgb(42, 63, 95); fill-opacity: 1; white-space: pre;">Precipitation sum</text></g></g></g><g class="annotation" data-index="1" style="opacity: 1;"><g class="annotation-text-g" transform="rotate(0,300,306.50000000000006)"><g class="cursor-pointer" transform="translate(196,296)"><rect class="bg" x="0.5" y="0.5" width="208" height="20" style="stroke-width: 1px; stroke: rgb(0, 0, 0); stroke-opacity: 0; fill: rgb(0, 0, 0); fill-opacity: 0;"/><text class="annotation-text" text-anchor="middle" x="104.265625" y="16" style="font-family: 'Open Sans', verdana, arial, sans-serif; font-size: 16px; fill: rgb(42, 63, 95); fill-opacity: 1; white-space: pre;">Mean maximum temperature</text></g></g></g><g class="annotation" data-index="2" style="opacity: 1;"><g class="annotation-text-g" transform="rotate(0,300,523.5)"><g class="cursor-pointer" transform="translate(198,513)"><rect class="bg" x="0.5" y="0.5" width="203" height="20" style="stroke-width: 1px; stroke: rgb(0, 0, 0); stroke-opacity: 0; fill: rgb(0, 0, 0); fill-opacity: 0;"/><text class="annotation-text" text-anchor="middle" x="102.046875" y="16" style="font-family: 'Open Sans', verdana, arial, sans-serif; font-size: 16px; fill: rgb(42, 63, 95); fill-opacity: 1; white-space: pre;">Mean minimum temperature</text></g></g></g><g class="annotation" data-index="3" style="opacity: 1;"><g class="annotation-text-g" transform="rotate(0,300,760.5)"><g class="cursor-pointer" transform="translate(277,750)"><rect class="bg" x="0.5" y="0.5" width="45" height="20" style="stroke-width: 1px; stroke: rgb(0, 0, 0); stroke-opacity: 0; fill: rgb(0, 0, 0); fill-opacity: 0;"/><text class="annotation-text" text-anchor="middle" x="22.3125" y="16" style="font-family: 'Open Sans', verdana, arial, sans-serif; font-size: 16px; fill: rgb(42, 63, 95); fill-opacity: 1; white-space: pre;">Week</text></g></g></g></g></svg>