<svg class="main-svg" xmlns="http://www.w3.org/2000/svg" xmlns:xlink="http://www.w3.org/1999/xlink" width="600" height="800" style="" viewBox="0 0 600 800"><rect x="0" y="0" width="600" height="800" style="fill: rgb(255, 255, 255); fill-opacity: 1;"/><defs id="defs-95d8ef"><g class="clips"><clipPath id="clip95d8efxyplot" class="plotclip"><rect width="440" height="186.00000000000003"/></clipPath><clipPath id="clip95d8efx2y2plot" class="plotclip"><rect width="440" height="185.99999999999997"/></clipPath><clipPath id="clip95d8efx3y3plot" class="plotclip"><rect width="440" height="186"/></clipPath><clipPath class="axesclip" id="clip95d8efx"><rect x="80" y="0" width="440" height="800"/></clipPath><clipPath class="axesclip" id="clip95d8efy"><rect x="0" y="100" width="600" height="186.00000000000003"/></clipPath><clipPath class="axesclip" id="clip95d8efxy"><rect x="80" y="100" width="440" height="186.00000000000003"/></clipPath><clipPath class="axesclip" id="clip95d8efy2"><rect x="0" y="317.00000000000006" width="600" height="185.99999999999997"/></clipPath><clipPath class="axesclip" id="clip95d8efxy2"><rect x="80" y="317.00000000000006" width="440" height="185.99999999999997"/></clipPath><clipPath class="axesclip" id="clip95d8efy3"><rect x="0" y="534" width="600" height="186"/></clipPath><clipPath class="axesclip" id="clip95d8efxy3"><rect x="80" y="534" width="440" height="186"/></clipPath><clipPath class="axesclip" id="clip95d8efx2"><rect x="80" y="0" width="440" height="800"/></clipPath><clipPath class="axesclip" id="clip95d8efx2y"><rect x="80" y="100" width="440" height="186.00000000000003"/></clipPath><clipPath class="axesclip" id="clip95d8efx2y2"><rect x="80" y="317.00000000000006" width="440" height="185.99999999999997"/></clipPath><clipPath class="axesclip" id="clip95d8efx2y3"><rect x="80" y="534" width="440" height="186"/></clipPath><clipPath class="axesclip" id="clip95d8efx3"><rect x="80" y="0" width="440" height="800"/></clipPath><clipPath class="axesclip" id="clip95d8efx3y"><rect x="80" y="100" width="440" height="186.00000000000003"/></clipPath><clipPath class="axesclip" id="clip95d8efx3y2"><rect x="80" y="317.00000000000006" width="440" height="185.99999999999997"/></clipPath><clipPath class="axesclip" id="clip95d8efx3y3"><rect x="80" y="534" width="440" height="186"/></clipPath></g><g class="gradients"/><g class="patterns"/></defs><g class="bglayer"><rect class="bg" x="80" y="100" width="440" height="186.00000000000003" style="fill: rgb(229, 236, 246); fill-opacity: 1; stroke-width: 0;"/><rect class="bg" x="80" y="317.00000000000006" width="440" height="185.99999999999997" style="fill: rgb(229, 236, 246); fill-opacity: 1; stroke-width: 0;"/><rect class="bg" x="80" y="534" width="440" height="186" style="fill: rgb(229, 236, 246); fill-opacity: 1; stroke-width: 0;"/></g><g class="layer-below"><g class="imagelayer"/><g class="shapelayer"/></g><g class="cartesianlayer"><g class="subplot xy"><g class="layer-subplot"><g class="shapelayer"/><g class="imagelayer"/></g><g class="minor-gridlayer"><g class="x"/><g class="y"/></g><g class="gridlayer"><g class="x"><path class="xgrid crisp" transform="translate(156.15,0)" d="M0,100v186.00000000000003" style="stroke: rgb(255, 255, 255); stroke-opacity: 1; stroke-width: 1px;"/><path class="xgrid crisp" transform="translate(240.77,0)" d="M0,100v186.00000000000003" style="stroke: rgb(255, 255, 255); stroke-opacity: 1; stroke-width: 1px;"/><path class="xgrid crisp" transform="translate(325.38,0)" d="M0,100v186.00000000000003" style="stroke: rgb(255, 255, 255); stroke-opacity: 1; stroke-width: 1px;"/><path class="xgrid crisp" transform="translate(410,0)" d="M0,100v186.00000000000003" style="stroke: rgb(255, 255, 255); stroke-opacity: 1; stroke-width: 1px;"/><path class="xgrid crisp" transform="translate(494.62,0)" d="M0,100v186.00000000000003" style="stroke: rgb(255, 255, 255); stroke-opacity: 1; stroke-width: 1px;"/></g><g class="y"><path class="ygrid crisp" transform="translate(0,248.8)" d="M80,0h440" style="stroke: rgb(255, 255, 255); stroke-opacity: 1; stroke-width: 1px;"/><path class="ygrid crisp" transform="translate(0,211.6)" d="M80,0h440" style="stroke: rgb(255, 255, 255); stroke-opacity: 1; stroke-width: 1px;"/><path class="ygrid crisp" transform="translate(0,174.4)" d="M80,0h440" style="stroke: rgb(255, 255, 255); stroke-opacity: 1; stroke-width: 1px;"/><path class="ygrid crisp" transform="translate(0,137.2)" d="M80,0h440" style="stroke: rgb(255, 255, 255); stroke-opacity: 1; stroke-width: 1px;"/></g></g><g class="zerolinelayer"><path class="yzl zl crisp" transform="translate(0,286)" d="M80,0h440" style="stroke: rgb(255, 255, 255); stroke-opacity: 1; stroke-width: 2px;"/></g><path class="xlines-below"/><path class="ylines-below"/><g class="overlines-below"/><g class="xaxislayer-below"/><g class="yaxislayer-below"/><g class="overaxes-below"/><g class="plot" transform="translate(80,100)" clip-path="url(#clip95d8efxyplot)"><g class="scatterlayer mlayer"><g class="trace scatter tracefc8123" style="stroke-miterlimit: 2;"><g class="fills"><g><path class="js-fill" d="M0,186L101.54,185.86L110,179.9L118.46,178.15L126.92,170.35L135.38,166.89L143.85,157.1L152.31,148.43L160.77,142.21L169.23,138.29L177.69,136.82L186.15,122.07L194.62,133.43L203.08,141.37L211.54,161.03L220,154.37L228.46,155.2L236.92,140.11L245.38,151.52L253.85,148.15L262.31,143.64L270.77,145.3L279.23,142.63L287.69,168.64L296.15,149.84L304.62,166.04L313.08,167.61L321.54,165.53L330,170.41L338.46,182.74L346.92,184.13L355.38,186L363.85,186L440,186L440,186L338.46,186L330,185.86L321.54,180.74L313.08,184.47L304.62,178.05L296.15,164.78L287.69,177.84L279.23,174.57L270.77,176.54L262.31,180.25L253.85,169.07L245.38,176.51L228.46,183.32L220,177.05L211.54,172.62L203.08,166.95L194.62,181.53L186.15,175.9L177.69,167.52L169.23,181.97L160.77,185.94L152.31,186L143.85,183.59L135.38,186L0,186Z" style="fill: rgb(224, 236, 244); fill-opacity: 1; stroke-width: 0;"/></g></g><g class="errorbars"/><g class="lines"><path class="js-line" d="M0,186L135.38,186L143.85,183.59L152.31,186L160.77,185.94L169.23,181.97L177.69,167.52L186.15,175.9L194.62,181.53L203.08,166.95L211.54,172.62L220,177.05L228.46,183.32L245.38,176.51L253.85,169.07L262.31,180.25L270.77,176.54L279.23,174.57L287.69,177.84L296.15,164.78L304.62,178.05L313.08,184.47L321.54,180.74L330,185.86L338.46,186L440,186" style="vector-effect: non-scaling-stroke; fill: none; stroke: rgb(0, 0, 0); stroke-opacity: 1; stroke-width: 0.25px; opacity: 1;"/></g><g class="points"/><g class="text"/></g><g class="trace scatter trace03c8ce" style="stroke-miterlimit: 2;"><g class="fills"><g><path class="js-fill" d="M0,186L67.69,185.91L76.15,185.12L84.62,185.63L93.08,183.16L101.54,165.2L110,162.58L118.46,160.08L126.92,142.07L135.38,155.06L143.85,139.57L152.31,117.42L160.77,87.69L169.23,119.41L177.69,100.4L186.15,95.44L194.62,97.99L203.08,135.19L211.54,138.16L220,131.93L228.46,141.09L236.92,121.33L245.38,136.4L253.85,133.69L262.31,126.87L270.77,130.96L279.23,112.87L287.69,136.4L296.15,137.74L304.62,144.64L313.08,147.44L321.54,146.92L330,157.12L338.46,164.14L346.92,162.87L355.38,185.62L363.85,185.75L397.69,186L406.15,186L440,186L440,186L363.85,186L355.38,186L346.92,184.13L338.46,182.74L330,170.41L321.54,165.53L313.08,167.61L304.62,166.04L296.15,149.84L287.69,168.64L279.23,142.63L270.77,145.3L262.31,143.64L253.85,148.15L245.38,151.52L236.92,140.11L228.46,155.2L220,154.37L211.54,161.03L203.08,141.37L194.62,133.43L186.15,122.07L177.69,136.82L169.23,138.29L160.77,142.21L152.31,148.43L143.85,157.1L135.38,166.89L126.92,170.35L118.46,178.15L110,179.9L101.54,185.86L0,186Z" style="fill: rgb(158, 188, 218); fill-opacity: 1; stroke-width: 0;"/></g></g><g class="errorbars"/><g class="lines"><path class="js-line" d="M0,186L101.54,185.86L110,179.9L118.46,178.15L126.92,170.35L135.38,166.89L143.85,157.1L152.31,148.43L160.77,142.21L169.23,138.29L177.69,136.82L186.15,122.07L194.62,133.43L203.08,141.37L211.54,161.03L220,154.37L228.46,155.2L236.92,140.11L245.38,151.52L253.85,148.15L262.31,143.64L270.77,145.3L279.23,142.63L287.69,168.64L296.15,149.84L304.62,166.04L313.08,167.61L321.54,165.53L330,170.41L338.46,182.74L346.92,184.13L355.38,186L363.85,186L440,186" style="vector-effect: non-scaling-stroke; fill: none; stroke: rgb(0, 0, 0); stroke-opacity: 1; stroke-width: 0.5px; opacity: 1;"/></g><g class="points"/><g class="text"/></g><g class="trace scatter trace535fd9" style="stroke-miterlimit: 2;"><g class="fills"><g><path class="js-fill" d="M0,186L42.31,185.83L50.77,180.61L59.23,182.59L67.69,181.14L76.15,176.77L84.62,176.83L93.08,167.42L101.54,149.01L110,127.71L118.46,145.86L126.92,119.98L135.38,113.4L143.85,89.83L152.31,88.7L160.77,60.81L169.23,79.28L177.69,72.9L186.15,45.25L194.62,39.24L203.08,83.3L211.54,107.58L220,109.96L228.46,115.41L236.92,101.01L245.38,105.37L253.85,99.4L262.31,91.6L270.77,92.98L279.23,103.3L287.69,120.41L296.15,119.42L304.62,127.96L313.08,126.74L321.54,120.38L330,127.96L338.46,143.95L346.92,150.08L355.38,145.62L363.85,179.3L372.31,185L389.23,186L397.69,186L440,186L440,186L406.15,186L397.69,186L363.85,185.75L355.38,185.62L346.92,162.87L338.46,164.14L330,157.12L321.54,146.92L313.08,147.44L304.62,144.64L296.15,137.74L287.69,136.4L279.23,112.87L270.77,130.96L262.31,126.87L253.85,133.69L245.38,136.4L236.92,121.33L228.46,141.09L220,131.93L211.54,138.16L203.08,135.19L194.62,97.99L186.15,95.44L177.69,100.4L169.23,119.41L160.77,87.69L152.31,117.42L143.85,139.57L135.38,155.06L126.92,142.07L118.46,160.08L110,162.58L101.54,165.2L93.08,183.16L84.62,185.63L76.15,185.12L67.69,185.91L0,186Z" style="fill: rgb(158, 188, 218); fill-opacity: 1; stroke-width: 0;"/></g></g><g class="errorbars"/><g class="lines"><path class="js-line" d="M0,186L67.69,185.91L76.15,185.12L84.62,185.63L93.08,183.16L101.54,165.2L110,162.58L118.46,160.08L126.92,142.07L135.38,155.06L143.85,139.57L152.31,117.42L160.77,87.69L169.23,119.41L177.69,100.4L186.15,95.44L194.62,97.99L203.08,135.19L211.54,138.16L220,131.93L228.46,141.09L236.92,121.33L245.38,136.4L253.85,133.69L262.31,126.87L270.77,130.96L279.23,112.87L287.69,136.4L296.15,137.74L304.62,144.64L313.08,147.44L321.54,146.92L330,157.12L338.46,164.14L346.92,162.87L355.38,185.62L363.85,185.75L397.69,186L406.15,186L440,186" style="vector-effect: non-scaling-stroke; fill: none; stroke: rgb(0, 0, 0); stroke-opacity: 1; stroke-width: 1px; opacity: 1;"/></g><g class="points"/><g class="text"/></g><g class="trace scatter tracec6c203" style="stroke-miterlimit: 2;"><g class="fills"><g><path class="js-fill" d="M0,186L42.31,185.83L50.77,176.24L59.23,182.01L67.69,179.45L76.15,164.03L84.62,174.88L93.08,142.64L101.54,116.16L110,101.91L118.46,105.86L126.92,95.41L135.38,88.14L143.85,46.5L152.31,34.25L160.77,28.54L169.23,20.65L177.69,57.61L186.15,-8.17L194.62,-71.37L203.08,48.35L211.54,33.37L220,74.15L228.46,60.13L236.92,68.65L245.38,57.37L253.85,36.64L262.31,24.08L270.77,44.28L279.23,58.75L287.69,90.64L296.15,106.48L304.62,110.01L313.08,89.45L321.54,92.93L330,91.8L338.46,87.94L346.92,121.32L355.38,97.09L363.85,175.38L372.31,184.94L389.23,186L397.69,186L440,186L440,186L397.69,186L389.23,186L372.31,185L363.85,179.3L355.38,145.62L346.92,150.08L338.46,143.95L330,127.96L321.54,120.38L313.08,126.74L304.62,127.96L296.15,119.42L287.69,120.41L279.23,103.3L270.77,92.98L262.31,91.6L253.85,99.4L245.38,105.37L236.92,101.01L228.46,115.41L220,109.96L211.54,107.58L203.08,83.3L194.62,39.24L186.15,45.25L177.69,72.9L169.23,79.28L160.77,60.81L152.31,88.7L143.85,89.83L135.38,113.4L126.92,119.98L118.46,145.86L110,127.71L101.54,149.01L93.08,167.42L84.62,176.83L76.15,176.77L67.69,181.14L59.23,182.59L50.77,180.61L42.31,185.83L0,186Z" style="fill: rgb(136, 86, 167); fill-opacity: 1; stroke-width: 0;"/></g></g><g class="errorbars"/><g class="lines"><path class="js-line" d="M0,186L42.31,185.83L50.77,180.61L59.23,182.59L67.69,181.14L76.15,176.77L84.62,176.83L93.08,167.42L101.54,149.01L110,127.71L118.46,145.86L126.92,119.98L135.38,113.4L143.85,89.83L152.31,88.7L160.77,60.81L169.23,79.28L177.69,72.9L186.15,45.25L194.62,39.24L203.08,83.3L211.54,107.58L220,109.96L228.46,115.41L236.92,101.01L245.38,105.37L253.85,99.4L262.31,91.6L270.77,92.98L279.23,103.3L287.69,120.41L296.15,119.42L304.62,127.96L313.08,126.74L321.54,120.38L330,127.96L338.46,143.95L346.92,150.08L355.38,145.62L363.85,179.3L372.31,185L389.23,186L397.69,186L440,186" style="vector-effect: non-scaling-stroke; fill: none; stroke: rgb(0, 0, 0); stroke-opacity: 1; stroke-width: 0.5px; opacity: 1;"/></g><g class="points"/><g class="text"/></g><g class="trace scatter tracee2588f" style="stroke-miterlimit: 2;"><g class="fills"/><g class="errorbars"/><g class="lines"><path class="js-line" d="M0,186L42.31,185.83L50.77,176.24L59.23,182.01L67.69,179.45L76.15,164.03L84.62,174.88L93.08,142.64L101.54,116.16L110,101.91L118.46,105.86L126.92,95.41L135.38,88.14L143.85,46.5L152.31,34.25L160.77,28.54L169.23,20.65L177.69,57.61L186.15,-8.17L194.62,-71.37L203.08,48.35L211.54,33.37L220,74.15L228.46,60.13L236.92,68.65L245.38,57.37L253.85,36.64L262.31,24.08L270.77,44.28L279.23,58.75L287.69,90.64L296.15,106.48L304.62,110.01L313.08,89.45L321.54,92.93L330,91.8L338.46,87.94L346.92,121.32L355.38,97.09L363.85,175.38L372.31,184.94L389.23,186L397.69,186L440,186" style="vector-effect: non-scaling-stroke; fill: none; stroke: rgb(0, 0, 0); stroke-opacity: 1; stroke-width: 0.25px; opacity: 1;"/></g><g class="points"/><g class="text"/></g><g class="trace scatter tracec826b3" style="stroke-miterlimit: 2; opacity: 1;"><g class="fills"/><g class="errorbars"/><g class="lines"/><g class="points"><path class="point" transform="translate(186.15,186)" d="M4,0A4,4 0 1,1 0,-4A4,4 0 0,1 4,0ZM0,0.5L0.5,0L0,-0.5L-0.5,0Z" style="opacity: 1; stroke: rgb(0, 0, 0); stroke-opacity: 1; stroke-width: 1px; fill: none;"/><path class="point" transform="translate(194.62,174.84)" d="M4,0A4,4 0 1,1 0,-4A4,4 0 0,1 4,0ZM0,0.5L0.5,0L0,-0.5L-0.5,0Z" style="opacity: 1; stroke: rgb(0, 0, 0); stroke-opacity: 1; stroke-width: 1px; fill: none;"/><path class="point" transform="translate(203.08,72.17)" d="M4,0A4,4 0 1,1 0,-4A4,4 0 0,1 4,0ZM0,0.5L0.5,0L0,-0.5L-0.5,0Z" style="opacity: 1; stroke: rgb(0, 0, 0); stroke-opacity: 1; stroke-width: 1px; fill: none;"/><path class="point" transform="translate(211.54,72.17)" d="M4,0A4,4 0 1,1 0,-4A4,4 0 0,1 4,0ZM0,0.5L0.5,0L0,-0.5L-0.5,0Z" style="opacity: 1; stroke: rgb(0, 0, 0); stroke-opacity: 1; stroke-width: 1px; fill: none;"/></g><g class="text"/></g></g></g><g class="overplot"/><path class="xlines-above crisp" d="M0,0" style="fill: none;"/><path class="ylines-above crisp" d="M0,0" style="fill: none;"/><g class="overlines-above"/><g class="xaxislayer-above"/><g class="yaxislayer-above"><g class="ytick"><text text-anchor="end" x="79" y="4.199999999999999" transform="translate(0,286)" style="font-family: 'Open Sans', verdana, arial, sans-serif; font-size: 12px; fill: rgb(42, 63, 95); fill-opacity: 1; white-space: pre; opacity: 1;">0</text></g><g class="ytick"><text text-anchor="end" x="79" y="4.199999999999999" style="font-family: 'Open Sans', verdana, arial, sans-serif; font-size: 12px; fill: rgb(42, 63, 95); fill-opacity: 1; white-space: pre; opacity: 1;" transform="translate(0,248.8)">50</text></g><g class="ytick"><text text-anchor="end" x="79" y="4.199999999999999" style="font-family: 'Open Sans', verdana, arial, sans-serif; font-size: 12px; fill: rgb(42, 63, 95); fill-opacity: 1; white-space: pre; opacity: 1;" transform="translate(0,211.6)">100</text></g><g class="ytick"><text text-anchor="end" x="79" y="4.199999999999999" style="font-family: 'Open Sans', verdana, arial, sans-serif; font-size: 12px; fill: rgb(42, 63, 95); fill-opacity: 1; white-space: pre; opacity: 1;" transform="translate(0,174.4)">150</text></g><g class="ytick"><text text-anchor="end" x="79" y="4.199999999999999" style="font-family: 'Open Sans', verdana, arial, sans-serif; font-size: 12px; fill: rgb(42, 63, 95); fill-opacity: 1; white-space: pre; opacity: 1;" transform="translate(0,137.2)">200</text></g><g class="ytick"><text text-anchor="end" x="79" y="4.199999999999999" style="font-family: 'Open Sans', verdana, arial, sans-serif; font-size: 12px; fill: rgb(42, 63, 95); fill-opacity: 1; white-space: pre; opacity: 1;" transform="translate(0,100)">250</text></g></g><g class="overaxes-above"/></g><g class="subplot x2y2"><g class="layer-subplot"><g class="shapelayer"/><g class="imagelayer"/></g><g class="minor-gridlayer"><g class="x2"/><g class="y2"/></g><g class="gridlayer"><g class="x2"><path class="x2grid crisp" transform="translate(156.15,0)" d="M0,317.00000000000006v185.99999999999997" style="stroke: rgb(255, 255, 255); stroke-opacity: 1; stroke-width: 1px;"/><path class="x2grid crisp" transform="translate(240.77,0)" d="M0,317.00000000000006v185.99999999999997" style="stroke: rgb(255, 255, 255); stroke-opacity: 1; stroke-width: 1px;"/><path class="x2grid crisp" transform="translate(325.38,0)" d="M0,317.00000000000006v185.99999999999997" style="stroke: rgb(255, 255, 255); stroke-opacity: 1; stroke-width: 1px;"/><path class="x2grid crisp" transform="translate(410,0)" d="M0,317.00000000000006v185.99999999999997" style="stroke: rgb(255, 255, 255); stroke-opacity: 1; stroke-width: 1px;"/><path class="x2grid crisp" transform="translate(494.62,0)" d="M0,317.00000000000006v185.99999999999997" style="stroke: rgb(255, 255, 255); stroke-opacity: 1; stroke-width: 1px;"/></g><g class="y2"><path class="y2grid crisp" transform="translate(0,472.00000000000006)" d="M80,0h440" style="stroke: rgb(255, 255, 255); stroke-opacity: 1; stroke-width: 1px;"/><path class="y2grid crisp" transform="translate(0,410.00000000000006)" d="M80,0h440" style="stroke: rgb(255, 255, 255); stroke-opacity: 1; stroke-width: 1px;"/><path class="y2grid crisp" transform="translate(0,348.00000000000006)" d="M80,0h440" style="stroke: rgb(255, 255, 255); stroke-opacity: 1; stroke-width: 1px;"/></g></g><g class="zerolinelayer"/><path class="xlines-below"/><path class="ylines-below"/><g class="overlines-below"/><g class="xaxislayer-below"/><g class="yaxislayer-below"/><g class="overaxes-below"/><g class="plot" transform="translate(80,317.00000000000006)" clip-path="url(#clip95d8efx2y2plot)"><g class="scatterlayer mlayer"><g class="trace scatter tracefd2da2" style="stroke-miterlimit: 2;"><g class="fills"><g><path class="js-fill" d="M0,127.43L8.46,134.41L16.92,126.03L25.38,125.08L33.85,118.77L42.31,109.96L50.77,102.53L59.23,95.38L67.69,92.7L84.62,76.3L93.08,72.87L101.54,85.37L110,84.3L118.46,80.88L126.92,82.64L143.85,80.74L152.31,81.52L160.77,82.43L169.23,80.1L177.69,85.92L186.15,82.9L194.62,86.09L203.08,83.21L211.54,85.83L220,86.4L228.46,84.54L236.92,85.37L245.38,87.74L253.85,82.85L262.31,82.36L270.77,87.73L287.69,87.13L296.15,92.23L304.62,86.4L313.08,88.11L330,87.5L338.46,91.66L355.38,86.15L363.85,89.21L372.31,92.05L380.77,96.84L389.23,101.04L397.69,107.88L406.15,115.5L414.62,118.07L423.08,126.79L431.54,127.79L440,124.69L440,134.49L431.54,135.15L423.08,134.88L414.62,124.68L406.15,122.14L397.69,119.02L389.23,107.61L380.77,105.56L372.31,98.69L363.85,96.8L355.38,98.6L346.92,101.16L338.46,101.51L330,103.07L321.54,93.29L313.08,96.45L304.62,98.18L296.15,107.26L287.69,97.52L279.23,104.59L270.77,101.27L262.31,93.83L253.85,97.96L245.38,107.93L236.92,101.3L228.46,95.8L220,103.08L211.54,98.69L203.08,89.03L194.62,96.9L186.15,97.19L177.69,90.92L169.23,90.23L160.77,91.5L152.31,97.53L143.85,94.52L135.38,99.29L126.92,94.04L118.46,97.54L110,92.75L101.54,95.37L93.08,99.03L84.62,92.32L76.15,102.47L67.69,117.04L59.23,105.79L50.77,121.77L42.31,124.28L33.85,122.93L25.38,138.41L16.92,137.77L8.46,141.57L0,136.41Z" style="fill: rgb(145, 191, 219); fill-opacity: 1; stroke-width: 0;"/></g></g><g class="errorbars"/><g class="lines"><path class="js-line" d="M0,136.41L8.46,141.57L16.92,137.77L25.38,138.41L33.85,122.93L42.31,124.28L50.77,121.77L59.23,105.79L67.69,117.04L76.15,102.47L84.62,92.32L93.08,99.03L101.54,95.37L110,92.75L118.46,97.54L126.92,94.04L135.38,99.29L143.85,94.52L152.31,97.53L160.77,91.5L169.23,90.23L177.69,90.92L186.15,97.19L194.62,96.9L203.08,89.03L211.54,98.69L220,103.08L228.46,95.8L236.92,101.3L245.38,107.93L253.85,97.96L262.31,93.83L270.77,101.27L279.23,104.59L287.69,97.52L296.15,107.26L304.62,98.18L313.08,96.45L321.54,93.29L330,103.07L338.46,101.51L346.92,101.16L355.38,98.6L363.85,96.8L372.31,98.69L380.77,105.56L389.23,107.61L397.69,119.02L406.15,122.14L414.62,124.68L423.08,134.88L431.54,135.15L440,134.49" style="vector-effect: non-scaling-stroke; fill: none; stroke: rgb(0, 0, 0); stroke-opacity: 1; stroke-width: 0.25px; opacity: 1;"/></g><g class="points"/><g class="text"/></g><g class="trace scatter traceda5ddb" style="stroke-miterlimit: 2;"><g class="fills"><g><path class="js-fill" d="M0,121.72L8.46,125.66L16.92,120.34L25.38,118.71L33.85,109.21L42.31,101.59L50.77,95.89L67.69,78.81L76.15,79.33L84.62,66.69L93.08,67.37L101.54,69.47L110,73.73L118.46,70.29L126.92,73.56L135.38,74.3L143.85,77L152.31,70.42L160.77,72.48L169.23,76.35L177.69,76.39L186.15,76.74L194.62,79.65L203.08,80.93L211.54,77.68L220,78.89L228.46,81.68L236.92,80.27L245.38,79.81L253.85,77.38L262.31,77.41L270.77,81.09L279.23,77.71L287.69,78.65L296.15,80.43L304.62,82.79L313.08,77.26L321.54,81.96L330,77.97L338.46,83.85L346.92,82.31L355.38,80.85L363.85,85.18L372.31,86.91L380.77,91.8L389.23,98.72L397.69,103.92L406.15,109.95L414.62,114.25L423.08,117.09L431.54,123.36L440,119.93L440,124.69L431.54,127.79L423.08,126.79L414.62,118.07L406.15,115.5L397.69,107.88L389.23,101.04L380.77,96.84L372.31,92.05L363.85,89.21L355.38,86.15L338.46,91.66L330,87.5L313.08,88.11L304.62,86.4L296.15,92.23L287.69,87.13L270.77,87.73L262.31,82.36L253.85,82.85L245.38,87.74L236.92,85.37L228.46,84.54L220,86.4L211.54,85.83L203.08,83.21L194.62,86.09L186.15,82.9L177.69,85.92L169.23,80.1L160.77,82.43L152.31,81.52L143.85,80.74L126.92,82.64L118.46,80.88L110,84.3L101.54,85.37L93.08,72.87L84.62,76.3L67.69,92.7L59.23,95.38L50.77,102.53L42.31,109.96L33.85,118.77L25.38,125.08L16.92,126.03L8.46,134.41L0,127.43Z" style="fill: rgb(255, 255, 191); fill-opacity: 1; stroke-width: 0;"/></g></g><g class="errorbars"/><g class="lines"><path class="js-line" d="M0,127.43L8.46,134.41L16.92,126.03L25.38,125.08L33.85,118.77L42.31,109.96L50.77,102.53L59.23,95.38L67.69,92.7L84.62,76.3L93.08,72.87L101.54,85.37L110,84.3L118.46,80.88L126.92,82.64L143.85,80.74L152.31,81.52L160.77,82.43L169.23,80.1L177.69,85.92L186.15,82.9L194.62,86.09L203.08,83.21L211.54,85.83L220,86.4L228.46,84.54L236.92,85.37L245.38,87.74L253.85,82.85L262.31,82.36L270.77,87.73L287.69,87.13L296.15,92.23L304.62,86.4L313.08,88.11L330,87.5L338.46,91.66L355.38,86.15L363.85,89.21L372.31,92.05L380.77,96.84L389.23,101.04L397.69,107.88L406.15,115.5L414.62,118.07L423.08,126.79L431.54,127.79L440,124.69" style="vector-effect: non-scaling-stroke; fill: none; stroke: rgb(0, 0, 0); stroke-opacity: 1; stroke-width: 0.5px; opacity: 1;"/></g><g class="points"/><g class="text"/></g><g class="trace scatter trace2d5acd" style="stroke-miterlimit: 2;"><g class="fills"><g><path class="js-fill" d="M0,116.97L8.46,120.55L16.92,111.96L25.38,111.98L33.85,106.78L50.77,86.31L59.23,82.93L67.69,70.89L76.15,69.77L84.62,61.34L93.08,54.69L101.54,54.28L110,61.89L118.46,60.42L126.92,64.42L135.38,64.7L143.85,69.8L152.31,65.48L160.77,65.05L169.23,67.81L177.69,69.33L186.15,72.06L194.62,72.54L211.54,73.53L220,72.28L228.46,76.45L236.92,73.17L245.38,73.44L253.85,72.53L262.31,72.42L270.77,74.29L279.23,74.16L287.69,71.45L296.15,73.32L304.62,76.06L313.08,71.64L321.54,80.27L330,71.74L338.46,73.29L346.92,77.48L355.38,77.57L363.85,81.61L372.31,84.54L380.77,89.78L389.23,96.47L397.69,97.54L406.15,104.5L423.08,113.68L431.54,113.6L440,115.84L440,119.93L431.54,123.36L423.08,117.09L414.62,114.25L406.15,109.95L397.69,103.92L389.23,98.72L380.77,91.8L372.31,86.91L363.85,85.18L355.38,80.85L346.92,82.31L338.46,83.85L330,77.97L321.54,81.96L313.08,77.26L304.62,82.79L296.15,80.43L287.69,78.65L279.23,77.71L270.77,81.09L262.31,77.41L253.85,77.38L245.38,79.81L236.92,80.27L228.46,81.68L220,78.89L211.54,77.68L203.08,80.93L194.62,79.65L186.15,76.74L177.69,76.39L169.23,76.35L160.77,72.48L152.31,70.42L143.85,77L135.38,74.3L126.92,73.56L118.46,70.29L110,73.73L101.54,69.47L93.08,67.37L84.62,66.69L76.15,79.33L67.69,78.81L50.77,95.89L42.31,101.59L33.85,109.21L25.38,118.71L16.92,120.34L8.46,125.66L0,121.72Z" style="fill: rgb(255, 255, 191); fill-opacity: 1; stroke-width: 0;"/></g></g><g class="errorbars"/><g class="lines"><path class="js-line" d="M0,121.72L8.46,125.66L16.92,120.34L25.38,118.71L33.85,109.21L42.31,101.59L50.77,95.89L67.69,78.81L76.15,79.33L84.62,66.69L93.08,67.37L101.54,69.47L110,73.73L118.46,70.29L126.92,73.56L135.38,74.3L143.85,77L152.31,70.42L160.77,72.48L169.23,76.35L177.69,76.39L186.15,76.74L194.62,79.65L203.08,80.93L211.54,77.68L220,78.89L228.46,81.68L236.92,80.27L245.38,79.81L253.85,77.38L262.31,77.41L270.77,81.09L279.23,77.71L287.69,78.65L296.15,80.43L304.62,82.79L313.08,77.26L321.54,81.96L330,77.97L338.46,83.85L346.92,82.31L355.38,80.85L363.85,85.18L372.31,86.91L380.77,91.8L389.23,98.72L397.69,103.92L406.15,109.95L414.62,114.25L423.08,117.09L431.54,123.36L440,119.93" style="vector-effect: non-scaling-stroke; fill: none; stroke: rgb(0, 0, 0); stroke-opacity: 1; stroke-width: 1px; opacity: 1;"/></g><g class="points"/><g class="text"/></g><g class="trace scatter traceddda20" style="stroke-miterlimit: 2;"><g class="fills"><g><path class="js-fill" d="M0,109.14L8.46,114.05L16.92,108.08L25.38,98.07L33.85,97.81L42.31,86.58L50.77,71.13L59.23,76.65L67.69,62.18L76.15,56.12L84.62,42.53L93.08,50.27L101.54,42.82L110,48.29L118.46,50.35L126.92,49.44L135.38,51.41L143.85,58.14L152.31,58.5L160.77,59.45L169.23,53.88L186.15,65.07L194.62,62.32L203.08,61.41L211.54,67.08L220,62.93L228.46,64.75L236.92,56.92L245.38,61.32L262.31,58.21L270.77,61.58L279.23,67.5L287.69,62.23L296.15,62.62L304.62,69.58L313.08,62.65L321.54,73.82L330,64.14L338.46,57.61L346.92,61.93L355.38,69.76L363.85,75.38L372.31,79.17L380.77,86.49L389.23,90.87L397.69,93.33L406.15,98.95L414.62,105.42L423.08,109.7L431.54,110.08L440,103.75L440,115.84L431.54,113.6L423.08,113.68L406.15,104.5L397.69,97.54L389.23,96.47L380.77,89.78L372.31,84.54L363.85,81.61L355.38,77.57L346.92,77.48L338.46,73.29L330,71.74L321.54,80.27L313.08,71.64L304.62,76.06L296.15,73.32L287.69,71.45L279.23,74.16L270.77,74.29L262.31,72.42L253.85,72.53L245.38,73.44L236.92,73.17L228.46,76.45L220,72.28L211.54,73.53L194.62,72.54L186.15,72.06L177.69,69.33L169.23,67.81L160.77,65.05L152.31,65.48L143.85,69.8L135.38,64.7L126.92,64.42L118.46,60.42L110,61.89L101.54,54.28L93.08,54.69L84.62,61.34L76.15,69.77L67.69,70.89L59.23,82.93L50.77,86.31L33.85,106.78L25.38,111.98L16.92,111.96L8.46,120.55L0,116.97Z" style="fill: rgb(252, 141, 89); fill-opacity: 1; stroke-width: 0;"/></g></g><g class="errorbars"/><g class="lines"><path class="js-line" d="M0,116.97L8.46,120.55L16.92,111.96L25.38,111.98L33.85,106.78L50.77,86.31L59.23,82.93L67.69,70.89L76.15,69.77L84.62,61.34L93.08,54.69L101.54,54.28L110,61.89L118.46,60.42L126.92,64.42L135.38,64.7L143.85,69.8L152.31,65.48L160.77,65.05L169.23,67.81L177.69,69.33L186.15,72.06L194.62,72.54L211.54,73.53L220,72.28L228.46,76.45L236.92,73.17L245.38,73.44L253.85,72.53L262.31,72.42L270.77,74.29L279.23,74.16L287.69,71.45L296.15,73.32L304.62,76.06L313.08,71.64L321.54,80.27L330,71.74L338.46,73.29L346.92,77.48L355.38,77.57L363.85,81.61L372.31,84.54L380.77,89.78L389.23,96.47L397.69,97.54L406.15,104.5L423.08,113.68L431.54,113.6L440,115.84" style="vector-effect: non-scaling-stroke; fill: none; stroke: rgb(0, 0, 0); stroke-opacity: 1; stroke-width: 0.5px; opacity: 1;"/></g><g class="points"/><g class="text"/></g><g class="trace scatter trace7913c1" style="stroke-miterlimit: 2;"><g class="fills"/><g class="errorbars"/><g class="lines"><path class="js-line" d="M0,109.14L8.46,114.05L16.92,108.08L25.38,98.07L33.85,97.81L42.31,86.58L50.77,71.13L59.23,76.65L67.69,62.18L76.15,56.12L84.62,42.53L93.08,50.27L101.54,42.82L110,48.29L118.46,50.35L126.92,49.44L135.38,51.41L143.85,58.14L152.31,58.5L160.77,59.45L169.23,53.88L186.15,65.07L194.62,62.32L203.08,61.41L211.54,67.08L220,62.93L228.46,64.75L236.92,56.92L245.38,61.32L262.31,58.21L270.77,61.58L279.23,67.5L287.69,62.23L296.15,62.62L304.62,69.58L313.08,62.65L321.54,73.82L330,64.14L338.46,57.61L346.92,61.93L355.38,69.76L363.85,75.38L372.31,79.17L380.77,86.49L389.23,90.87L397.69,93.33L406.15,98.95L414.62,105.42L423.08,109.7L431.54,110.08L440,103.75" style="vector-effect: non-scaling-stroke; fill: none; stroke: rgb(0, 0, 0); stroke-opacity: 1; stroke-width: 0.25px; opacity: 1;"/></g><g class="points"/><g class="text"/></g><g class="trace scatter trace5b0bb0" style="stroke-miterlimit: 2; opacity: 1;"><g class="fills"/><g class="errorbars"/><g class="lines"/><g class="points"><path class="point" transform="translate(186.15,12.4)" d="M4,0A4,4 0 1,1 0,-4A4,4 0 0,1 4,0ZM0,0.5L0.5,0L0,-0.5L-0.5,0Z" style="opacity: 1; stroke: rgb(0, 0, 0); stroke-opacity: 1; stroke-width: 1px; fill: none;"/><path class="point" transform="translate(194.62,37.2)" d="M4,0A4,4 0 1,1 0,-4A4,4 0 0,1 4,0ZM0,0.5L0.5,0L0,-0.5L-0.5,0Z" style="opacity: 1; stroke: rgb(0, 0, 0); stroke-opacity: 1; stroke-width: 1px; fill: none;"/><path class="point" transform="translate(203.08,74.4)" d="M4,0A4,4 0 1,1 0,-4A4,4 0 0,1 4,0ZM0,0.5L0.5,0L0,-0.5L-0.5,0Z" style="opacity: 1; stroke: rgb(0, 0, 0); stroke-opacity: 1; stroke-width: 1px; fill: none;"/><path class="point" transform="translate(211.54,74.4)" d="M4,0A4,4 0 1,1 0,-4A4,4 0 0,1 4,0ZM0,0.5L0.5,0L0,-0.5L-0.5,0Z" style="opacity: 1; stroke: rgb(0, 0, 0); stroke-opacity: 1; stroke-width: 1px; fill: none;"/></g><g class="text"/></g></g></g><g class="overplot"/><path class="xlines-above crisp" d="M0,0" style="fill: none;"/><path class="ylines-above crisp" d="M0,0" style="fill: none;"/><g class="overlines-above"/><g class="xaxislayer-above"/><g class="yaxislayer-above"><g class="y2tick"><text text-anchor="end" x="79" y="4.199999999999999" transform="translate(0,472.00000000000006)" style="font-family: 'Open Sans', verdana, arial, sans-serif; font-size: 12px; fill: rgb(42, 63, 95); fill-opacity: 1; white-space: pre; opacity: 1;">20</text></g><g class="y2tick"><text text-anchor="end" x="79" y="4.199999999999999" style="font-family: 'Open Sans', verdana, arial, sans-serif; font-size: 12px; fill: rgb(42, 63, 95); fill-opacity: 1; white-space: pre; opacity: 1;" transform="translate(0,410.00000000000006)">30</text></g><g class="y2tick"><text text-anchor="end" x="79" y="4.199999999999999" style="font-family: 'Open Sans', verdana, arial, sans-serif; font-size: 12px; fill: rgb(42, 63, 95); fill-opacity: 1; white-space: pre; opacity: 1;" transform="translate(0,348.00000000000006)">40</text></g></g><g class="overaxes-above"/></g><g class="subplot x3y3"><g class="layer-subplot"><g class="shapelayer"/><g class="imagelayer"/></g><g class="minor-gridlayer"><g class="x3"/><g class="y3"/></g><g class="gridlayer"><g class="x3"><path class="x3grid crisp" transform="translate(156.15,0)" d="M0,534v186" style="stroke: rgb(255, 255, 255); stroke-opacity: 1; stroke-width: 1px;"/><path class="x3grid crisp" transform="translate(240.77,0)" d="M0,534v186" style="stroke: rgb(255, 255, 255); stroke-opacity: 1; stroke-width: 1px;"/><path class="x3grid crisp" transform="translate(325.38,0)" d="M0,534v186" style="stroke: rgb(255, 255, 255); stroke-opacity: 1; stroke-width: 1px;"/><path class="x3grid crisp" transform="translate(410,0)" d="M0,534v186" style="stroke: rgb(255, 255, 255); stroke-opacity: 1; stroke-width: 1px;"/><path class="x3grid crisp" transform="translate(494.62,0)" d="M0,534v186" style="stroke: rgb(255, 255, 255); stroke-opacity: 1; stroke-width: 1px;"/></g><g class="y3"><path class="y3grid crisp" transform="translate(0,682.8)" d="M80,0h440" style="stroke: rgb(255, 255, 255); stroke-opacity: 1; stroke-width: 1px;"/><path class="y3grid crisp" transform="translate(0,645.6)" d="M80,0h440" style="stroke: rgb(255, 255, 255); stroke-opacity: 1; stroke-width: 1px;"/><path class="y3grid crisp" transform="translate(0,608.4)" d="M80,0h440" style="stroke: rgb(255, 255, 255); stroke-opacity: 1; stroke-width: 1px;"/><path class="y3grid crisp" transform="translate(0,571.2)" d="M80,0h440" style="stroke: rgb(255, 255, 255); stroke-opacity: 1; stroke-width: 1px;"/></g></g><g class="zerolinelayer"/><path class="xlines-below"/><path class="ylines-below"/><g class="overlines-below"/><g class="xaxislayer-below"/><g class="yaxislayer-below"/><g class="overaxes-below"/><g class="plot" transform="translate(80,534)" clip-path="url(#clip95d8efx3y3plot)"><g class="scatterlayer mlayer"><g class="trace scatter trace3dc308" style="stroke-miterlimit: 2;"><g class="fills"><g><path class="js-fill" d="M0,109.21L8.46,123.4L16.92,109.12L25.38,116.19L33.85,109.85L42.31,103.02L50.77,99.88L59.23,98.4L67.69,80.27L76.15,79.98L84.62,77.4L93.08,70.84L101.54,61.8L110,60.08L118.46,59.64L126.92,55.1L135.38,51.64L143.85,52.54L152.31,46.72L177.69,38.91L186.15,38.33L194.62,36.57L203.08,35.84L211.54,36.05L220,34.18L245.38,35.91L253.85,36.29L262.31,34.59L270.77,36.26L279.23,37.04L287.69,35.81L330,40.26L338.46,42.75L346.92,49.32L355.38,45.66L363.85,53.9L372.31,63.19L380.77,68.27L389.23,75.33L397.69,86.21L406.15,92.49L414.62,97.83L423.08,108.59L431.54,111.31L440,126.44L440,141.09L431.54,139.7L423.08,128.19L414.62,109.12L406.15,102.41L397.69,107.04L389.23,85.17L380.77,82.65L372.31,76.92L355.38,51.44L346.92,52.68L338.46,50.48L330,44.91L321.54,44.17L313.08,42.39L287.69,38.56L279.23,40.16L262.31,40.21L253.85,38L245.38,38.15L236.92,38.64L228.46,38.02L220,36.62L211.54,38.18L203.08,38.83L186.15,41.84L177.69,41.22L169.23,43.99L160.77,48.85L152.31,56.21L143.85,58.69L135.38,54.98L126.92,72.47L118.46,67.25L110,74.5L101.54,67.79L93.08,89.36L84.62,98.39L76.15,96.38L67.69,90.49L59.23,114.59L50.77,118.75L42.31,115.83L33.85,135.25L25.38,141.76L16.92,118.46L8.46,132.93L0,117.96Z" style="fill: rgb(90, 180, 172); fill-opacity: 1; stroke-width: 0;"/></g></g><g class="errorbars"/><g class="lines"><path class="js-line" d="M0,117.96L8.46,132.93L16.92,118.46L25.38,141.76L33.85,135.25L42.31,115.83L50.77,118.75L59.23,114.59L67.69,90.49L76.15,96.38L84.62,98.39L93.08,89.36L101.54,67.79L110,74.5L118.46,67.25L126.92,72.47L135.38,54.98L143.85,58.69L152.31,56.21L160.77,48.85L169.23,43.99L177.69,41.22L186.15,41.84L203.08,38.83L211.54,38.18L220,36.62L228.46,38.02L236.92,38.64L245.38,38.15L253.85,38L262.31,40.21L279.23,40.16L287.69,38.56L313.08,42.39L321.54,44.17L330,44.91L338.46,50.48L346.92,52.68L355.38,51.44L372.31,76.92L380.77,82.65L389.23,85.17L397.69,107.04L406.15,102.41L414.62,109.12L423.08,128.19L431.54,139.7L440,141.09" style="vector-effect: non-scaling-stroke; fill: none; stroke: rgb(0, 0, 0); stroke-opacity: 1; stroke-width: 0.25px; opacity: 1;"/></g><g class="points"/><g class="text"/></g><g class="trace scatter tracef4952f" style="stroke-miterlimit: 2;"><g class="fills"><g><path class="js-fill" d="M0,103.78L8.46,111.7L16.92,105.22L25.38,103.9L33.85,101.28L42.31,94.88L50.77,86.89L59.23,82.32L67.69,73.71L76.15,72.39L84.62,65.39L101.54,53.17L110,55.14L126.92,47.6L135.38,48.11L143.85,47.24L152.31,42.78L160.77,38.96L169.23,37.85L194.62,35.34L203.08,33.95L211.54,33.78L220,32.48L228.46,34.18L236.92,34.38L245.38,35.15L253.85,34.29L262.31,32.39L270.77,34.65L279.23,33.83L287.69,34.41L296.15,35.03L304.62,36.92L313.08,35.65L321.54,36.61L330,35.5L338.46,39.1L346.92,43.1L355.38,43.05L372.31,54.69L380.77,61.56L397.69,77.65L406.15,82.63L414.62,91.34L423.08,90.78L431.54,102.55L440,109.5L440,126.44L431.54,111.31L423.08,108.59L414.62,97.83L406.15,92.49L397.69,86.21L389.23,75.33L380.77,68.27L372.31,63.19L363.85,53.9L355.38,45.66L346.92,49.32L338.46,42.75L330,40.26L287.69,35.81L279.23,37.04L270.77,36.26L262.31,34.59L253.85,36.29L245.38,35.91L220,34.18L211.54,36.05L203.08,35.84L194.62,36.57L186.15,38.33L177.69,38.91L152.31,46.72L143.85,52.54L135.38,51.64L126.92,55.1L118.46,59.64L110,60.08L101.54,61.8L93.08,70.84L84.62,77.4L76.15,79.98L67.69,80.27L59.23,98.4L50.77,99.88L42.31,103.02L33.85,109.85L25.38,116.19L16.92,109.12L8.46,123.4L0,109.21Z" style="fill: rgb(245, 245, 245); fill-opacity: 1; stroke-width: 0;"/></g></g><g class="errorbars"/><g class="lines"><path class="js-line" d="M0,109.21L8.46,123.4L16.92,109.12L25.38,116.19L33.85,109.85L42.31,103.02L50.77,99.88L59.23,98.4L67.69,80.27L76.15,79.98L84.62,77.4L93.08,70.84L101.54,61.8L110,60.08L118.46,59.64L126.92,55.1L135.38,51.64L143.85,52.54L152.31,46.72L177.69,38.91L186.15,38.33L194.62,36.57L203.08,35.84L211.54,36.05L220,34.18L245.38,35.91L253.85,36.29L262.31,34.59L270.77,36.26L279.23,37.04L287.69,35.81L330,40.26L338.46,42.75L346.92,49.32L355.38,45.66L363.85,53.9L372.31,63.19L380.77,68.27L389.23,75.33L397.69,86.21L406.15,92.49L414.62,97.83L423.08,108.59L431.54,111.31L440,126.44" style="vector-effect: non-scaling-stroke; fill: none; stroke: rgb(0, 0, 0); stroke-opacity: 1; stroke-width: 0.5px; opacity: 1;"/></g><g class="points"/><g class="text"/></g><g class="trace scatter tracef48546" style="stroke-miterlimit: 2;"><g class="fills"><g><path class="js-fill" d="M0,100.55L8.46,105.7L16.92,102.07L25.38,98.98L33.85,92.24L42.31,84.9L50.77,81.28L59.23,76.79L67.69,68.39L76.15,64.92L84.62,53.87L93.08,50.37L101.54,48.85L110,48.04L118.46,43.73L126.92,42.94L135.38,43.01L143.85,41.29L152.31,38.49L160.77,36.49L169.23,35.49L177.69,35.87L186.15,32.59L211.54,32.44L220,30.92L236.92,33.45L245.38,32.03L253.85,31.69L262.31,29.04L270.77,31.87L279.23,32.07L287.69,32.83L296.15,32.09L304.62,33.22L313.08,32.28L321.54,34.73L330,33.1L338.46,33.69L346.92,36.31L355.38,40.72L363.85,46.08L372.31,51.14L380.77,57.57L389.23,65.62L397.69,71.07L414.62,79.5L423.08,83.75L431.54,89.39L440,105.79L440,109.5L431.54,102.55L423.08,90.78L414.62,91.34L406.15,82.63L397.69,77.65L380.77,61.56L372.31,54.69L355.38,43.05L346.92,43.1L338.46,39.1L330,35.5L321.54,36.61L313.08,35.65L304.62,36.92L296.15,35.03L287.69,34.41L279.23,33.83L270.77,34.65L262.31,32.39L253.85,34.29L245.38,35.15L236.92,34.38L228.46,34.18L220,32.48L211.54,33.78L203.08,33.95L194.62,35.34L169.23,37.85L160.77,38.96L152.31,42.78L143.85,47.24L135.38,48.11L126.92,47.6L110,55.14L101.54,53.17L84.62,65.39L76.15,72.39L67.69,73.71L59.23,82.32L50.77,86.89L42.31,94.88L33.85,101.28L25.38,103.9L16.92,105.22L8.46,111.7L0,103.78Z" style="fill: rgb(245, 245, 245); fill-opacity: 1; stroke-width: 0;"/></g></g><g class="errorbars"/><g class="lines"><path class="js-line" d="M0,103.78L8.46,111.7L16.92,105.22L25.38,103.9L33.85,101.28L42.31,94.88L50.77,86.89L59.23,82.32L67.69,73.71L76.15,72.39L84.62,65.39L101.54,53.17L110,55.14L126.92,47.6L135.38,48.11L143.85,47.24L152.31,42.78L160.77,38.96L169.23,37.85L194.62,35.34L203.08,33.95L211.54,33.78L220,32.48L228.46,34.18L236.92,34.38L245.38,35.15L253.85,34.29L262.31,32.39L270.77,34.65L279.23,33.83L287.69,34.41L296.15,35.03L304.62,36.92L313.08,35.65L321.54,36.61L330,35.5L338.46,39.1L346.92,43.1L355.38,43.05L372.31,54.69L380.77,61.56L397.69,77.65L406.15,82.63L414.62,91.34L423.08,90.78L431.54,102.55L440,109.5" style="vector-effect: non-scaling-stroke; fill: none; stroke: rgb(0, 0, 0); stroke-opacity: 1; stroke-width: 1px; opacity: 1;"/></g><g class="points"/><g class="text"/></g><g class="trace scatter trace74e13e" style="stroke-miterlimit: 2;"><g class="fills"><g><path class="js-fill" d="M0,92.24L8.46,95.24L16.92,92.83L25.38,83.83L33.85,87.06L42.31,79.41L50.77,60.54L59.23,62.18L67.69,54.06L76.15,46.83L84.62,43.89L93.08,39.7L101.54,36.81L110,37.97L118.46,37.57L126.92,28.46L135.38,34.32L143.85,36.95L152.31,33.2L169.23,28.25L177.69,32.4L186.15,28.6L194.62,30.33L211.54,27.82L220,27.19L228.46,29.65L236.92,29.96L245.38,27.27L253.85,26.69L262.31,25.7L270.77,26.28L279.23,26.19L287.69,29.82L296.15,28.89L304.62,29.06L313.08,27.95L321.54,30.74L330,23.42L338.46,25.79L346.92,28.26L355.38,38.31L363.85,38.68L372.31,39.97L380.77,49.76L389.23,55.01L397.69,62.2L406.15,64.93L414.62,72.12L423.08,73.07L431.54,83.29L440,92.27L440,105.79L431.54,89.39L423.08,83.75L414.62,79.5L397.69,71.07L389.23,65.62L380.77,57.57L372.31,51.14L363.85,46.08L355.38,40.72L346.92,36.31L338.46,33.69L330,33.1L321.54,34.73L313.08,32.28L304.62,33.22L296.15,32.09L287.69,32.83L279.23,32.07L270.77,31.87L262.31,29.04L253.85,31.69L245.38,32.03L236.92,33.45L220,30.92L211.54,32.44L186.15,32.59L177.69,35.87L169.23,35.49L160.77,36.49L152.31,38.49L143.85,41.29L135.38,43.01L126.92,42.94L118.46,43.73L110,48.04L101.54,48.85L93.08,50.37L84.62,53.87L76.15,64.92L67.69,68.39L59.23,76.79L50.77,81.28L42.31,84.9L33.85,92.24L25.38,98.98L16.92,102.07L8.46,105.7L0,100.55Z" style="fill: rgb(216, 179, 101); fill-opacity: 1; stroke-width: 0;"/></g></g><g class="errorbars"/><g class="lines"><path class="js-line" d="M0,100.55L8.46,105.7L16.92,102.07L25.38,98.98L33.85,92.24L42.31,84.9L50.77,81.28L59.23,76.79L67.69,68.39L76.15,64.92L84.62,53.87L93.08,50.37L101.54,48.85L110,48.04L118.46,43.73L126.92,42.94L135.38,43.01L143.85,41.29L152.31,38.49L160.77,36.49L169.23,35.49L177.69,35.87L186.15,32.59L211.54,32.44L220,30.92L236.92,33.45L245.38,32.03L253.85,31.69L262.31,29.04L270.77,31.87L279.23,32.07L287.69,32.83L296.15,32.09L304.62,33.22L313.08,32.28L321.54,34.73L330,33.1L338.46,33.69L346.92,36.31L355.38,40.72L363.85,46.08L372.31,51.14L380.77,57.57L389.23,65.62L397.69,71.07L414.62,79.5L423.08,83.75L431.54,89.39L440,105.79" style="vector-effect: non-scaling-stroke; fill: none; stroke: rgb(0, 0, 0); stroke-opacity: 1; stroke-width: 0.5px; opacity: 1;"/></g><g class="points"/><g class="text"/></g><g class="trace scatter tracefb86e4" style="stroke-miterlimit: 2;"><g class="fills"/><g class="errorbars"/><g class="lines"><path class="js-line" d="M0,92.24L8.46,95.24L16.92,92.83L25.38,83.83L33.85,87.06L42.31,79.41L50.77,60.54L59.23,62.18L67.69,54.06L76.15,46.83L84.62,43.89L93.08,39.7L101.54,36.81L110,37.97L118.46,37.57L126.92,28.46L135.38,34.32L143.85,36.95L152.31,33.2L169.23,28.25L177.69,32.4L186.15,28.6L194.62,30.33L211.54,27.82L220,27.19L228.46,29.65L236.92,29.96L245.38,27.27L253.85,26.69L262.31,25.7L270.77,26.28L279.23,26.19L287.69,29.82L296.15,28.89L304.62,29.06L313.08,27.95L321.54,30.74L330,23.42L338.46,25.79L346.92,28.26L355.38,38.31L363.85,38.68L372.31,39.97L380.77,49.76L389.23,55.01L397.69,62.2L406.15,64.93L414.62,72.12L423.08,73.07L431.54,83.29L440,92.27" style="vector-effect: non-scaling-stroke; fill: none; stroke: rgb(0, 0, 0); stroke-opacity: 1; stroke-width: 0.25px; opacity: 1;"/></g><g class="points"/><g class="text"/></g><g class="trace scatter trace380662" style="stroke-miterlimit: 2; opacity: 1;"><g class="fills"/><g class="errorbars"/><g class="lines"/><g class="points"><path class="point" transform="translate(186.15,22.32)" d="M4,0A4,4 0 1,1 0,-4A4,4 0 0,1 4,0ZM0,0.5L0.5,0L0,-0.5L-0.5,0Z" style="opacity: 1; stroke: rgb(0, 0, 0); stroke-opacity: 1; stroke-width: 1px; fill: none;"/><path class="point" transform="translate(194.62,29.76)" d="M4,0A4,4 0 1,1 0,-4A4,4 0 0,1 4,0ZM0,0.5L0.5,0L0,-0.5L-0.5,0Z" style="opacity: 1; stroke: rgb(0, 0, 0); stroke-opacity: 1; stroke-width: 1px; fill: none;"/><path class="point" transform="translate(203.08,29.76)" d="M4,0A4,4 0 1,1 0,-4A4,4 0 0,1 4,0ZM0,0.5L0.5,0L0,-0.5L-0.5,0Z" style="opacity: 1; stroke: rgb(0, 0, 0); stroke-opacity: 1; stroke-width: 1px; fill: none;"/><path class="point" transform="translate(211.54,29.76)" d="M4,0A4,4 0 1,1 0,-4A4,4 0 0,1 4,0ZM0,0.5L0.5,0L0,-0.5L-0.5,0Z" style="opacity: 1; stroke: rgb(0, 0, 0); stroke-opacity: 1; stroke-width: 1px; fill: none;"/></g><g class="text"/></g></g></g><g class="overplot"/><path class="xlines-above crisp" d="M0,0" style="fill: none;"/><path class="ylines-above crisp" d="M0,0" style="fill: none;"/><g class="overlines-above"/><g class="xaxislayer-above"><g class="x3tick"><text text-anchor="middle" x="0" y="733" transform="translate(156.15,0)" style="font-family: 'Open Sans', verdana, arial, sans-serif; font-size: 12px; fill: rgb(42, 63, 95); fill-opacity: 1; white-space: pre; opacity: 1;">10</text></g><g class="x3tick"><text text-anchor="middle" x="0" y="733" style="font-family: 'Open Sans', verdana, arial, sans-serif; font-size: 12px; fill: rgb(42, 63, 95); fill-opacity: 1; white-space: pre; opacity: 1;" transform="translate(240.77,0)">20</text></g><g class="x3tick"><text text-anchor="middle" x="0" y="733" style="font-family: 'Open Sans', verdana, arial, sans-serif; font-size: 12px; fill: rgb(42, 63, 95); fill-opacity: 1; white-space: pre; opacity: 1;" transform="translate(325.38,0)">30</text></g><g class="x3tick"><text text-anchor="middle" x="0" y="733" style="font-family: 'Open Sans', verdana, arial, sans-serif; font-size: 12px; fill: rgb(42, 63, 95); fill-opacity: 1; white-space: pre; opacity: 1;" transform="translate(410,0)">40</text></g><g class="x3tick"><text text-anchor="middle" x="0" y="733" style="font-family: 'Open Sans', verdana, arial, sans-serif; font-size: 12px; fill: rgb(42, 63, 95); fill-opacity: 1; white-space: pre; opacity: 1;" transform="translate(494.62,0)">50</text></g></g><g class="yaxislayer-above"><g class="y3tick"><text text-anchor="end" x="79" y="4.199999999999999" transform="translate(0,720)" style="font-family: 'Open Sans', verdana, arial, sans-serif; font-size: 12px; fill: rgb(42, 63, 95); fill-opacity: 1; white-space: pre; opacity: 1;">5</text></g><g class="y3tick"><text text-anchor="end" x="79" y="4.199999999999999" style="font-family: 'Open Sans', verdana, arial, sans-serif; font-size: 12px; fill: rgb(42, 63, 95); fill-opacity: 1; white-space: pre; opacity: 1;" transform="translate(0,682.8)">10</text></g><g class="y3tick"><text text-anchor="end" x="79" y="4.199999999999999" style="font-family: 'Open Sans', verdana, arial, sans-serif; font-size: 12px; fill: rgb(42, 63, 95); fill-opacity: 1; white-space: pre; opacity: 1;" transform="translate(0,645.6)">15</text></g><g class="y3tick"><text text-anchor="end" x="79" y="4.199999999999999" style="font-family: 'Open Sans', verdana, arial, sans-serif; font-size: 12px; fill: rgb(42, 63, 95); fill-opacity: 1; white-space: pre; opacity: 1;" transform="translate(0,608.4)">20</text></g><g class="y3tick"><text text-anchor="end" x="79" y="4.199999999999999" style="font-family: 'Open Sans', verdana, arial, sans-serif; font-size: 12px; fill: rgb(42, 63, 95); fill-opacity: 1; white-space: pre; opacity: 1;" transform="translate(0,571.2)">25</text></g><g class="y3tick"><text text-anchor="end" x="79" y="4.199999999999999" style="font-family: 'Open Sans', verdana, arial, sans-serif; font-size: 12px; fill: rgb(42, 63, 95); fill-opacity: 1; white-space: pre; opacity: 1;" transform="translate(0,534)">30</text></g></g><g class="overaxes-above"/></g></g><g class="polarlayer"/><g class="smithlayer"/><g class="ternarylayer"/><g class="geolayer"/><g class="funnelarealayer"/><g class="pielayer"/><g class="iciclelayer"/><g class="treemaplayer"/><g class="sunburstlayer"/><g class="glimages"/><defs id="topdefs-95d8ef"><g class="clips"/></defs><g class="layer-above"><g class="imagelayer"/><g class="shapelayer"/></g><g class="infolayer"><g class="g-gtitle"><text class="gtitle" x="30" y="50" text-anchor="start" dy="0em" style="font-family: 'Open Sans', verdana, arial, sans-serif; font-size: 17px; fill: rgb(42, 63, 95); opacity: 1; font-weight: normal; white-space: pre;">Climatology and S2S forecast for Moulvibazar</text></g><g class="g-xtitle"/><g class="g-x2title"/><g class="g-x3title"/><g class="g-ytitle"><text class="ytitle" transform="rotate(-90,34.16875,193)" x="34.16875" y="193" text-anchor="middle" style="font-family: 'Open Sans', verdana, arial, sans-serif; font-size: 14px; fill: rgb(42, 63, 95); opacity: 1; font-weight: normal; white-space: pre;">[mm]</text></g><g class="g-y2title"><text class="y2title" transform="rotate(-90,40.840625,410.00000000000006)" x="40.840625" y="410.00000000000006" text-anchor="middle" style="font-family: 'Open Sans', verdana, arial, sans-serif; font-size: 14px; fill: rgb(42, 63, 95); opacity: 1; font-weight: normal; white-space: pre;">[C]</text></g><g class="g-y3title"><text class="y3title" transform="rotate(-90,40.840625,627)" x="40.840625" y="627" text-anchor="middle" style="font-family: 'Open Sans', verdana, arial, sans-serif; font-size: 14px; fill: rgb(42, 63, 95); opacity: 1; font-weight: normal; white-space: pre;">[C]</text></g><g class="annotation" data-index="0" style="opacity: 1;"><g class="annotation-text-g" transform="rotate(0,300,89.5)"><g class="cursor-pointer" transform="translate(237,79)"><rect class="bg" x="0.5" y="0.5" width="126" height="20" style="stroke-width: 1px; stroke: rgb(0, 0, 0); stroke-opacity: 0; fill: rgb(0, 0, 0); fill-opacity: 0;"/><text class="annotation-text" text-anchor="middle" x="63.359375" y="16" style="font-family: 'Open Sans', verdana, arial, sans-serif; font-size: 16px; fill: rgb(42, 63, 95); fill-opacity: 1; white-space: pre;">Precipitation sum</text></g></g></g><g class="annotation" data-index="1" style="opacity: 1;"><g class="annotation-text-g" transform="rotate(0,300,306.50000000000006)"><g class="cursor-pointer" transform="translate(196,296)"><rect class="bg" x="0.5" y="0.5" width="208" height="20" style="stroke-width: 1px; stroke: rgb(0, 0, 0); stroke-opacity: 0; fill: rgb(0, 0, 0); fill-opacity: 0;"/><text class="annotation-text" text-anchor="middle" x="104.265625" y="16" style="font-family: 'Open Sans', verdana, arial, sans-serif; font-size: 16px; fill: rgb(42, 63, 95); fill-opacity: 1; white-space: pre;">Mean maximum temperature</text></g></g></g><g class="annotation" data-index="2" style="opacity: 1;"><g class="annotation-text-g" transform="rotate(0,300,523.5)"><g class="cursor-pointer" transform="translate(198,513)"><rect class="bg" x="0.5" y="0.5" width="203" height="20" style="stroke-width: 1px; stroke: rgb(0, 0, 0); stroke-opacity: 0; fill: rgb(0, 0, 0); fill-opacity: 0;"/><text class="annotation-text" text-anchor="middle" x="102.046875" y="16" style="font-family: 'Open Sans', verdana, arial, sans-serif; font-size: 16px; fill: rgb(42, 63, 95); fill-opacity: 1; white-space: pre;">Mean minimum temperature</text></g></g></g><g class="annotation" data-index="3" style="opacity: 1;"><g class="annotation-text-g" transform="rotate(0,300,760.5)"><g class="cursor-pointer" transform="translate(277,750)"><rect class="bg" x="0.5" y="0.5" width="45" height="20" style="stroke-width: 1px; stroke: rgb(0, 0, 0); stroke-opacity: 0; fill: rgb(0, 0, 0); fill-opacity: 0;"/><text class="annotation-text" text-anchor="middle" x="22.3125" y="16" style="font-family: 'Open Sans', verdana, arial, sans-serif; font-size: 16px; fill: rgb(42, 63, 95); fill-opacity: 1; white-space: pre;">Week</text></g></g></g></g></svg>