<svg class="main-svg" xmlns="http://www.w3.org/2000/svg" xmlns:xlink="http://www.w3.org/1999/xlink" width="600" height="800" style="" viewBox="0 0 600 800"><rect x="0" y="0" width="600" height="800" style="fill: rgb(255, 255, 255); fill-opacity: 1;"/><defs id="defs-3819f9"><g class="clips"><clipPath id="clip3819f9xyplot" class="plotclip"><rect width="440" height="186.00000000000003"/></clipPath><clipPath id="clip3819f9x2y2plot" class="plotclip"><rect width="440" height="185.99999999999997"/></clipPath><clipPath id="clip3819f9x3y3plot" class="plotclip"><rect width="440" height="186"/></clipPath><clipPath class="axesclip" id="clip3819f9x"><rect x="80" y="0" width="440" height="800"/></clipPath><clipPath class="axesclip" id="clip3819f9y"><rect x="0" y="100" width="600" height="186.00000000000003"/></clipPath><clipPath class="axesclip" id="clip3819f9xy"><rect x="80" y="100" width="440" height="186.00000000000003"/></clipPath><clipPath class="axesclip" id="clip3819f9y2"><rect x="0" y="317.00000000000006" width="600" height="185.99999999999997"/></clipPath><clipPath class="axesclip" id="clip3819f9xy2"><rect x="80" y="317.00000000000006" width="440" height="185.99999999999997"/></clipPath><clipPath class="axesclip" id="clip3819f9y3"><rect x="0" y="534" width="600" height="186"/></clipPath><clipPath class="axesclip" id="clip3819f9xy3"><rect x="80" y="534" width="440" height="186"/></clipPath><clipPath class="axesclip" id="clip3819f9x2"><rect x="80" y="0" width="440" height="800"/></clipPath><clipPath class="axesclip" id="clip3819f9x2y"><rect x="80" y="100" width="440" height="186.00000000000003"/></clipPath><clipPath class="axesclip" id="clip3819f9x2y2"><rect x="80" y="317.00000000000006" width="440" height="185.99999999999997"/></clipPath><clipPath class="axesclip" id="clip3819f9x2y3"><rect x="80" y="534" width="440" height="186"/></clipPath><clipPath class="axesclip" id="clip3819f9x3"><rect x="80" y="0" width="440" height="800"/></clipPath><clipPath class="axesclip" id="clip3819f9x3y"><rect x="80" y="100" width="440" height="186.00000000000003"/></clipPath><clipPath class="axesclip" id="clip3819f9x3y2"><rect x="80" y="317.00000000000006" width="440" height="185.99999999999997"/></clipPath><clipPath class="axesclip" id="clip3819f9x3y3"><rect x="80" y="534" width="440" height="186"/></clipPath></g><g class="gradients"/><g class="patterns"/></defs><g class="bglayer"><rect class="bg" x="80" y="100" width="440" height="186.00000000000003" style="fill: rgb(229, 236, 246); fill-opacity: 1; stroke-width: 0;"/><rect class="bg" x="80" y="317.00000000000006" width="440" height="185.99999999999997" style="fill: rgb(229, 236, 246); fill-opacity: 1; stroke-width: 0;"/><rect class="bg" x="80" y="534" width="440" height="186" style="fill: rgb(229, 236, 246); fill-opacity: 1; stroke-width: 0;"/></g><g class="layer-below"><g class="imagelayer"/><g class="shapelayer"/></g><g class="cartesianlayer"><g class="subplot xy"><g class="layer-subplot"><g class="shapelayer"/><g class="imagelayer"/></g><g class="minor-gridlayer"><g class="x"/><g class="y"/></g><g class="gridlayer"><g class="x"><path class="xgrid crisp" transform="translate(156.15,0)" d="M0,100v186.00000000000003" style="stroke: rgb(255, 255, 255); stroke-opacity: 1; stroke-width: 1px;"/><path class="xgrid crisp" transform="translate(240.77,0)" d="M0,100v186.00000000000003" style="stroke: rgb(255, 255, 255); stroke-opacity: 1; stroke-width: 1px;"/><path class="xgrid crisp" transform="translate(325.38,0)" d="M0,100v186.00000000000003" style="stroke: rgb(255, 255, 255); stroke-opacity: 1; stroke-width: 1px;"/><path class="xgrid crisp" transform="translate(410,0)" d="M0,100v186.00000000000003" style="stroke: rgb(255, 255, 255); stroke-opacity: 1; stroke-width: 1px;"/><path class="xgrid crisp" transform="translate(494.62,0)" d="M0,100v186.00000000000003" style="stroke: rgb(255, 255, 255); stroke-opacity: 1; stroke-width: 1px;"/></g><g class="y"><path class="ygrid crisp" transform="translate(0,248.8)" d="M80,0h440" style="stroke: rgb(255, 255, 255); stroke-opacity: 1; stroke-width: 1px;"/><path class="ygrid crisp" transform="translate(0,211.6)" d="M80,0h440" style="stroke: rgb(255, 255, 255); stroke-opacity: 1; stroke-width: 1px;"/><path class="ygrid crisp" transform="translate(0,174.4)" d="M80,0h440" style="stroke: rgb(255, 255, 255); stroke-opacity: 1; stroke-width: 1px;"/><path class="ygrid crisp" transform="translate(0,137.2)" d="M80,0h440" style="stroke: rgb(255, 255, 255); stroke-opacity: 1; stroke-width: 1px;"/></g></g><g class="zerolinelayer"><path class="yzl zl crisp" transform="translate(0,286)" d="M80,0h440" style="stroke: rgb(255, 255, 255); stroke-opacity: 1; stroke-width: 2px;"/></g><path class="xlines-below"/><path class="ylines-below"/><g class="overlines-below"/><g class="xaxislayer-below"/><g class="yaxislayer-below"/><g class="overaxes-below"/><g class="plot" transform="translate(80,100)" clip-path="url(#clip3819f9xyplot)"><g class="scatterlayer mlayer"><g class="trace scatter trace4db976" style="stroke-miterlimit: 2;"><g class="fills"><g><path class="js-fill" d="M0,186L135.38,185.91L143.85,178.22L152.31,184.4L160.77,181.95L169.23,166.3L177.69,169.15L186.15,147.34L194.62,163.12L203.08,155.1L211.54,159.39L220,153.55L228.46,158.13L245.38,142.16L253.85,148.7L262.31,143.24L270.77,150.41L279.23,166.25L287.69,164.17L296.15,166.69L304.62,171.18L313.08,155.93L321.54,164.14L330,175.27L338.46,174.03L346.92,184.86L355.38,186L440,186L440,186L321.54,186L313.08,182.84L304.62,185.37L296.15,184.38L287.69,177.58L279.23,184.44L270.77,165.05L262.31,182.64L253.85,176.07L245.38,185.83L236.92,181.85L228.46,183.87L220,171.56L211.54,177.39L203.08,185.81L194.62,185.87L186.15,177.42L177.69,186L160.77,185.99L152.31,186L143.85,184.88L135.38,186L0,186Z" style="fill: rgb(224, 236, 244); fill-opacity: 1; stroke-width: 0;"/></g></g><g class="errorbars"/><g class="lines"><path class="js-line" d="M0,186L135.38,186L143.85,184.88L152.31,186L160.77,185.99L177.69,186L186.15,177.42L194.62,185.87L203.08,185.81L211.54,177.39L220,171.56L228.46,183.87L236.92,181.85L245.38,185.83L253.85,176.07L262.31,182.64L270.77,165.05L279.23,184.44L287.69,177.58L296.15,184.38L304.62,185.37L313.08,182.84L321.54,186L440,186" style="vector-effect: non-scaling-stroke; fill: none; stroke: rgb(0, 0, 0); stroke-opacity: 1; stroke-width: 0.25px; opacity: 1;"/></g><g class="points"/><g class="text"/></g><g class="trace scatter trace633b3d" style="stroke-miterlimit: 2;"><g class="fills"><g><path class="js-fill" d="M0,186L101.54,185.39L110,176.65L118.46,185.51L126.92,185.33L135.38,172.37L143.85,156.38L152.31,173.5L160.77,167.07L169.23,155.18L177.69,150.71L186.15,134.9L194.62,139.24L203.08,130.66L211.54,131.3L220,135.99L228.46,139.8L236.92,120.1L245.38,127.58L253.85,138.84L262.31,120.36L270.77,131.22L279.23,148.33L287.69,160.27L296.15,153.92L304.62,143.69L313.08,147.31L321.54,142.09L330,161.18L338.46,155.63L346.92,171.13L355.38,184.35L363.85,185.3L380.77,186L389.23,186L440,186L440,186L355.38,186L346.92,184.86L338.46,174.03L330,175.27L321.54,164.14L313.08,155.93L304.62,171.18L296.15,166.69L287.69,164.17L279.23,166.25L270.77,150.41L262.31,143.24L253.85,148.7L245.38,142.16L228.46,158.13L220,153.55L211.54,159.39L203.08,155.1L194.62,163.12L186.15,147.34L177.69,169.15L169.23,166.3L160.77,181.95L152.31,184.4L143.85,178.22L135.38,185.91L0,186Z" style="fill: rgb(158, 188, 218); fill-opacity: 1; stroke-width: 0;"/></g></g><g class="errorbars"/><g class="lines"><path class="js-line" d="M0,186L135.38,185.91L143.85,178.22L152.31,184.4L160.77,181.95L169.23,166.3L177.69,169.15L186.15,147.34L194.62,163.12L203.08,155.1L211.54,159.39L220,153.55L228.46,158.13L245.38,142.16L253.85,148.7L262.31,143.24L270.77,150.41L279.23,166.25L287.69,164.17L296.15,166.69L304.62,171.18L313.08,155.93L321.54,164.14L330,175.27L338.46,174.03L346.92,184.86L355.38,186L440,186" style="vector-effect: non-scaling-stroke; fill: none; stroke: rgb(0, 0, 0); stroke-opacity: 1; stroke-width: 0.5px; opacity: 1;"/></g><g class="points"/><g class="text"/></g><g class="trace scatter trace17b431" style="stroke-miterlimit: 2;"><g class="fills"><g><path class="js-fill" d="M0,186L42.31,185.72L50.77,182.7L59.23,185.51L67.69,185.11L76.15,181.03L84.62,183.18L101.54,178.07L110,161.63L118.46,164.32L126.92,172.93L135.38,161.5L143.85,145.5L152.31,150.48L160.77,148.8L169.23,130.7L177.69,115.5L186.15,124.26L194.62,86.03L203.08,79.85L211.54,64.85L220,79.37L228.46,101.22L236.92,88.5L245.38,94.23L253.85,109.97L262.31,97.45L270.77,107.61L279.23,140.9L287.69,140.54L296.15,139.19L304.62,120.05L313.08,125.21L321.54,112.03L330,122.33L338.46,112.14L346.92,156.24L355.38,160.28L363.85,181.17L372.31,185.38L380.77,185.8L414.62,186L423.08,186L440,186L440,186L389.23,186L380.77,186L363.85,185.3L355.38,184.35L346.92,171.13L338.46,155.63L330,161.18L321.54,142.09L313.08,147.31L304.62,143.69L296.15,153.92L287.69,160.27L279.23,148.33L270.77,131.22L262.31,120.36L253.85,138.84L245.38,127.58L236.92,120.1L228.46,139.8L220,135.99L211.54,131.3L203.08,130.66L194.62,139.24L186.15,134.9L177.69,150.71L169.23,155.18L160.77,167.07L152.31,173.5L143.85,156.38L135.38,172.37L126.92,185.33L118.46,185.51L110,176.65L101.54,185.39L0,186Z" style="fill: rgb(158, 188, 218); fill-opacity: 1; stroke-width: 0;"/></g></g><g class="errorbars"/><g class="lines"><path class="js-line" d="M0,186L101.54,185.39L110,176.65L118.46,185.51L126.92,185.33L135.38,172.37L143.85,156.38L152.31,173.5L160.77,167.07L169.23,155.18L177.69,150.71L186.15,134.9L194.62,139.24L203.08,130.66L211.54,131.3L220,135.99L228.46,139.8L236.92,120.1L245.38,127.58L253.85,138.84L262.31,120.36L270.77,131.22L279.23,148.33L287.69,160.27L296.15,153.92L304.62,143.69L313.08,147.31L321.54,142.09L330,161.18L338.46,155.63L346.92,171.13L355.38,184.35L363.85,185.3L380.77,186L389.23,186L440,186" style="vector-effect: non-scaling-stroke; fill: none; stroke: rgb(0, 0, 0); stroke-opacity: 1; stroke-width: 1px; opacity: 1;"/></g><g class="points"/><g class="text"/></g><g class="trace scatter trace45e580" style="stroke-miterlimit: 2;"><g class="fills"><g><path class="js-fill" d="M0,186L42.31,185.42L50.77,181.67L59.23,185.4L67.69,185.09L76.15,174.32L84.62,181.2L93.08,174.47L101.54,174.73L110,148.55L118.46,152.04L126.92,161.43L135.38,134.08L143.85,114.68L152.31,120.52L160.77,108.67L169.23,99.24L177.69,80.21L186.15,102.07L194.62,3.34L203.08,-8.96L211.54,-62.75L220,-21.62L228.46,62.4L236.92,32.77L245.38,26.57L253.85,66L262.31,80.28L270.77,71.01L279.23,119.35L287.69,128.98L296.15,106.91L304.62,59.99L313.08,85.56L321.54,82.45L330,107.72L338.46,37.79L346.92,148.91L355.38,137.58L363.85,178.38L372.31,185.2L389.23,186L397.69,186L440,186L440,186L423.08,186L414.62,186L380.77,185.8L372.31,185.38L363.85,181.17L355.38,160.28L346.92,156.24L338.46,112.14L330,122.33L321.54,112.03L313.08,125.21L304.62,120.05L296.15,139.19L287.69,140.54L279.23,140.9L270.77,107.61L262.31,97.45L253.85,109.97L245.38,94.23L236.92,88.5L228.46,101.22L220,79.37L211.54,64.85L203.08,79.85L194.62,86.03L186.15,124.26L177.69,115.5L169.23,130.7L160.77,148.8L152.31,150.48L143.85,145.5L135.38,161.5L126.92,172.93L118.46,164.32L110,161.63L101.54,178.07L84.62,183.18L76.15,181.03L67.69,185.11L59.23,185.51L50.77,182.7L42.31,185.72L0,186Z" style="fill: rgb(136, 86, 167); fill-opacity: 1; stroke-width: 0;"/></g></g><g class="errorbars"/><g class="lines"><path class="js-line" d="M0,186L42.31,185.72L50.77,182.7L59.23,185.51L67.69,185.11L76.15,181.03L84.62,183.18L101.54,178.07L110,161.63L118.46,164.32L126.92,172.93L135.38,161.5L143.85,145.5L152.31,150.48L160.77,148.8L169.23,130.7L177.69,115.5L186.15,124.26L194.62,86.03L203.08,79.85L211.54,64.85L220,79.37L228.46,101.22L236.92,88.5L245.38,94.23L253.85,109.97L262.31,97.45L270.77,107.61L279.23,140.9L287.69,140.54L296.15,139.19L304.62,120.05L313.08,125.21L321.54,112.03L330,122.33L338.46,112.14L346.92,156.24L355.38,160.28L363.85,181.17L372.31,185.38L380.77,185.8L414.62,186L423.08,186L440,186" style="vector-effect: non-scaling-stroke; fill: none; stroke: rgb(0, 0, 0); stroke-opacity: 1; stroke-width: 0.5px; opacity: 1;"/></g><g class="points"/><g class="text"/></g><g class="trace scatter tracee4abf2" style="stroke-miterlimit: 2;"><g class="fills"/><g class="errorbars"/><g class="lines"><path class="js-line" d="M0,186L42.31,185.42L50.77,181.67L59.23,185.4L67.69,185.09L76.15,174.32L84.62,181.2L93.08,174.47L101.54,174.73L110,148.55L118.46,152.04L126.92,161.43L135.38,134.08L143.85,114.68L152.31,120.52L160.77,108.67L169.23,99.24L177.69,80.21L186.15,102.07L194.62,3.34L203.08,-8.96L211.54,-62.75L220,-21.62L228.46,62.4L236.92,32.77L245.38,26.57L253.85,66L262.31,80.28L270.77,71.01L279.23,119.35L287.69,128.98L296.15,106.91L304.62,59.99L313.08,85.56L321.54,82.45L330,107.72L338.46,37.79L346.92,148.91L355.38,137.58L363.85,178.38L372.31,185.2L389.23,186L397.69,186L440,186" style="vector-effect: non-scaling-stroke; fill: none; stroke: rgb(0, 0, 0); stroke-opacity: 1; stroke-width: 0.25px; opacity: 1;"/></g><g class="points"/><g class="text"/></g><g class="trace scatter trace4b68cd" style="stroke-miterlimit: 2; opacity: 1;"><g class="fills"/><g class="errorbars"/><g class="lines"/><g class="points"><path class="point" transform="translate(177.69,186)" d="M4,0A4,4 0 1,1 0,-4A4,4 0 0,1 4,0ZM0,0.5L0.5,0L0,-0.5L-0.5,0Z" style="opacity: 1; stroke: rgb(0, 0, 0); stroke-opacity: 1; stroke-width: 1px; fill: none;"/><path class="point" transform="translate(186.15,178.56)" d="M4,0A4,4 0 1,1 0,-4A4,4 0 0,1 4,0ZM0,0.5L0.5,0L0,-0.5L-0.5,0Z" style="opacity: 1; stroke: rgb(0, 0, 0); stroke-opacity: 1; stroke-width: 1px; fill: none;"/><path class="point" transform="translate(194.62,72.17)" d="M4,0A4,4 0 1,1 0,-4A4,4 0 0,1 4,0ZM0,0.5L0.5,0L0,-0.5L-0.5,0Z" style="opacity: 1; stroke: rgb(0, 0, 0); stroke-opacity: 1; stroke-width: 1px; fill: none;"/><path class="point" transform="translate(203.08,72.17)" d="M4,0A4,4 0 1,1 0,-4A4,4 0 0,1 4,0ZM0,0.5L0.5,0L0,-0.5L-0.5,0Z" style="opacity: 1; stroke: rgb(0, 0, 0); stroke-opacity: 1; stroke-width: 1px; fill: none;"/></g><g class="text"/></g></g></g><g class="overplot"/><path class="xlines-above crisp" d="M0,0" style="fill: none;"/><path class="ylines-above crisp" d="M0,0" style="fill: none;"/><g class="overlines-above"/><g class="xaxislayer-above"/><g class="yaxislayer-above"><g class="ytick"><text text-anchor="end" x="79" y="4.199999999999999" transform="translate(0,286)" style="font-family: 'Open Sans', verdana, arial, sans-serif; font-size: 12px; fill: rgb(42, 63, 95); fill-opacity: 1; white-space: pre; opacity: 1;">0</text></g><g class="ytick"><text text-anchor="end" x="79" y="4.199999999999999" style="font-family: 'Open Sans', verdana, arial, sans-serif; font-size: 12px; fill: rgb(42, 63, 95); fill-opacity: 1; white-space: pre; opacity: 1;" transform="translate(0,248.8)">50</text></g><g class="ytick"><text text-anchor="end" x="79" y="4.199999999999999" style="font-family: 'Open Sans', verdana, arial, sans-serif; font-size: 12px; fill: rgb(42, 63, 95); fill-opacity: 1; white-space: pre; opacity: 1;" transform="translate(0,211.6)">100</text></g><g class="ytick"><text text-anchor="end" x="79" y="4.199999999999999" style="font-family: 'Open Sans', verdana, arial, sans-serif; font-size: 12px; fill: rgb(42, 63, 95); fill-opacity: 1; white-space: pre; opacity: 1;" transform="translate(0,174.4)">150</text></g><g class="ytick"><text text-anchor="end" x="79" y="4.199999999999999" style="font-family: 'Open Sans', verdana, arial, sans-serif; font-size: 12px; fill: rgb(42, 63, 95); fill-opacity: 1; white-space: pre; opacity: 1;" transform="translate(0,137.2)">200</text></g><g class="ytick"><text text-anchor="end" x="79" y="4.199999999999999" style="font-family: 'Open Sans', verdana, arial, sans-serif; font-size: 12px; fill: rgb(42, 63, 95); fill-opacity: 1; white-space: pre; opacity: 1;" transform="translate(0,100)">250</text></g></g><g class="overaxes-above"/></g><g class="subplot x2y2"><g class="layer-subplot"><g class="shapelayer"/><g class="imagelayer"/></g><g class="minor-gridlayer"><g class="x2"/><g class="y2"/></g><g class="gridlayer"><g class="x2"><path class="x2grid crisp" transform="translate(156.15,0)" d="M0,317.00000000000006v185.99999999999997" style="stroke: rgb(255, 255, 255); stroke-opacity: 1; stroke-width: 1px;"/><path class="x2grid crisp" transform="translate(240.77,0)" d="M0,317.00000000000006v185.99999999999997" style="stroke: rgb(255, 255, 255); stroke-opacity: 1; stroke-width: 1px;"/><path class="x2grid crisp" transform="translate(325.38,0)" d="M0,317.00000000000006v185.99999999999997" style="stroke: rgb(255, 255, 255); stroke-opacity: 1; stroke-width: 1px;"/><path class="x2grid crisp" transform="translate(410,0)" d="M0,317.00000000000006v185.99999999999997" style="stroke: rgb(255, 255, 255); stroke-opacity: 1; stroke-width: 1px;"/><path class="x2grid crisp" transform="translate(494.62,0)" d="M0,317.00000000000006v185.99999999999997" style="stroke: rgb(255, 255, 255); stroke-opacity: 1; stroke-width: 1px;"/></g><g class="y2"><path class="y2grid crisp" transform="translate(0,472.00000000000006)" d="M80,0h440" style="stroke: rgb(255, 255, 255); stroke-opacity: 1; stroke-width: 1px;"/><path class="y2grid crisp" transform="translate(0,410.00000000000006)" d="M80,0h440" style="stroke: rgb(255, 255, 255); stroke-opacity: 1; stroke-width: 1px;"/><path class="y2grid crisp" transform="translate(0,348.00000000000006)" d="M80,0h440" style="stroke: rgb(255, 255, 255); stroke-opacity: 1; stroke-width: 1px;"/></g></g><g class="zerolinelayer"/><path class="xlines-below"/><path class="ylines-below"/><g class="overlines-below"/><g class="xaxislayer-below"/><g class="yaxislayer-below"/><g class="overaxes-below"/><g class="plot" transform="translate(80,317.00000000000006)" clip-path="url(#clip3819f9x2y2plot)"><g class="scatterlayer mlayer"><g class="trace scatter tracec2a7f5" style="stroke-miterlimit: 2;"><g class="fills"><g><path class="js-fill" d="M0,142.3L8.46,144.12L16.92,131.65L33.85,119.37L42.31,110.73L59.23,93.95L67.69,87.35L76.15,84.19L84.62,72.61L93.08,74.42L101.54,78.57L110,84.07L118.46,77.84L126.92,81.35L135.38,83.34L143.85,86.53L152.31,81.38L160.77,87.7L169.23,84.44L186.15,94L194.62,96.97L203.08,96.67L211.54,100.11L228.46,97.71L236.92,101.78L245.38,99.51L253.85,99.85L262.31,101.82L270.77,100.04L279.23,100.85L287.69,99.06L296.15,98.98L304.62,97.75L313.08,101.28L321.54,97.17L346.92,95.54L355.38,92.47L363.85,91.86L372.31,95.09L389.23,105.48L397.69,115.72L406.15,126.71L414.62,128.65L423.08,135.82L431.54,139.29L440,144.57L440,147.02L431.54,144.88L423.08,152.19L414.62,135.27L406.15,141.78L397.69,125.77L389.23,111.75L380.77,104.64L372.31,99.72L363.85,97.08L355.38,102.05L346.92,109.46L338.46,106.65L321.54,108.16L313.08,112.28L304.62,109.15L296.15,108.88L287.69,103.88L279.23,104.13L270.77,105.94L262.31,110.25L253.85,102.83L245.38,105.42L236.92,106.09L228.46,101.92L220,102.64L211.54,106.88L203.08,105.22L194.62,111.79L186.15,99.82L177.69,96.88L169.23,95.61L160.77,96.25L152.31,92.83L143.85,93.88L135.38,99.4L126.92,92.35L118.46,94.03L110,90.54L101.54,93.56L93.08,88.7L84.62,86.81L76.15,99.42L67.69,104.04L59.23,100.99L50.77,119.69L42.31,126.43L33.85,129.36L25.38,130.94L16.92,146.82L8.46,159.83L0,158.8Z" style="fill: rgb(145, 191, 219); fill-opacity: 1; stroke-width: 0;"/></g></g><g class="errorbars"/><g class="lines"><path class="js-line" d="M0,158.8L8.46,159.83L16.92,146.82L25.38,130.94L33.85,129.36L42.31,126.43L50.77,119.69L59.23,100.99L67.69,104.04L76.15,99.42L84.62,86.81L93.08,88.7L101.54,93.56L110,90.54L118.46,94.03L126.92,92.35L135.38,99.4L143.85,93.88L152.31,92.83L160.77,96.25L169.23,95.61L177.69,96.88L186.15,99.82L194.62,111.79L203.08,105.22L211.54,106.88L220,102.64L228.46,101.92L236.92,106.09L245.38,105.42L253.85,102.83L262.31,110.25L270.77,105.94L279.23,104.13L287.69,103.88L296.15,108.88L304.62,109.15L313.08,112.28L321.54,108.16L338.46,106.65L346.92,109.46L355.38,102.05L363.85,97.08L372.31,99.72L380.77,104.64L389.23,111.75L397.69,125.77L406.15,141.78L414.62,135.27L423.08,152.19L431.54,144.88L440,147.02" style="vector-effect: non-scaling-stroke; fill: none; stroke: rgb(0, 0, 0); stroke-opacity: 1; stroke-width: 0.25px; opacity: 1;"/></g><g class="points"/><g class="text"/></g><g class="trace scatter tracee71a45" style="stroke-miterlimit: 2;"><g class="fills"><g><path class="js-fill" d="M0,133.94L8.46,135.39L16.92,125.39L25.38,120.99L33.85,112.97L50.77,95.24L59.23,87.15L67.69,77.62L76.15,73.63L84.62,68.44L93.08,59.67L110,74.86L118.46,70.74L126.92,75.66L135.38,78.6L143.85,81L152.31,76.59L160.77,80.46L169.23,80.84L177.69,82.38L186.15,89.71L194.62,90.33L203.08,93.18L211.54,94.01L220,93.83L236.92,99.17L245.38,94.28L253.85,96.98L262.31,95.59L270.77,96.64L279.23,95.56L287.69,96.87L296.15,96.97L304.62,93.67L313.08,97.57L321.54,88.88L330,89.56L338.46,91.2L346.92,85.92L355.38,83.91L363.85,89L372.31,91.52L380.77,96.44L389.23,101.91L397.69,108.66L406.15,116.96L414.62,121.67L423.08,125.39L431.54,132.98L440,130.71L440,144.57L431.54,139.29L423.08,135.82L414.62,128.65L406.15,126.71L397.69,115.72L389.23,105.48L372.31,95.09L363.85,91.86L355.38,92.47L346.92,95.54L321.54,97.17L313.08,101.28L304.62,97.75L296.15,98.98L287.69,99.06L279.23,100.85L270.77,100.04L262.31,101.82L253.85,99.85L245.38,99.51L236.92,101.78L228.46,97.71L211.54,100.11L203.08,96.67L194.62,96.97L186.15,94L169.23,84.44L160.77,87.7L152.31,81.38L143.85,86.53L135.38,83.34L126.92,81.35L118.46,77.84L110,84.07L101.54,78.57L93.08,74.42L84.62,72.61L76.15,84.19L67.69,87.35L59.23,93.95L42.31,110.73L33.85,119.37L16.92,131.65L8.46,144.12L0,142.3Z" style="fill: rgb(255, 255, 191); fill-opacity: 1; stroke-width: 0;"/></g></g><g class="errorbars"/><g class="lines"><path class="js-line" d="M0,142.3L8.46,144.12L16.92,131.65L33.85,119.37L42.31,110.73L59.23,93.95L67.69,87.35L76.15,84.19L84.62,72.61L93.08,74.42L101.54,78.57L110,84.07L118.46,77.84L126.92,81.35L135.38,83.34L143.85,86.53L152.31,81.38L160.77,87.7L169.23,84.44L186.15,94L194.62,96.97L203.08,96.67L211.54,100.11L228.46,97.71L236.92,101.78L245.38,99.51L253.85,99.85L262.31,101.82L270.77,100.04L279.23,100.85L287.69,99.06L296.15,98.98L304.62,97.75L313.08,101.28L321.54,97.17L346.92,95.54L355.38,92.47L363.85,91.86L372.31,95.09L389.23,105.48L397.69,115.72L406.15,126.71L414.62,128.65L423.08,135.82L431.54,139.29L440,144.57" style="vector-effect: non-scaling-stroke; fill: none; stroke: rgb(0, 0, 0); stroke-opacity: 1; stroke-width: 0.5px; opacity: 1;"/></g><g class="points"/><g class="text"/></g><g class="trace scatter tracecc1cc1" style="stroke-miterlimit: 2;"><g class="fills"><g><path class="js-fill" d="M0,128.07L8.46,126.89L16.92,120.68L25.38,116.35L33.85,110.83L42.31,97.61L50.77,88.36L59.23,82.46L67.69,70.03L84.62,61.39L93.08,56.54L110,60.76L118.46,62.21L126.92,62.22L135.38,60.99L143.85,69.21L152.31,70.85L169.23,74.21L177.69,77.06L186.15,82.26L194.62,83.63L203.08,87.94L211.54,90.52L228.46,89.36L236.92,92.23L245.38,86.35L253.85,91.77L262.31,89.32L270.77,93.03L279.23,90.13L287.69,94.03L296.15,89.15L304.62,88.47L313.08,90.53L321.54,85.37L330,81.41L338.46,83.71L346.92,80.59L355.38,80.68L363.85,83.54L372.31,89.05L380.77,94.33L389.23,97.3L397.69,102.91L406.15,112.54L414.62,115.58L423.08,119.45L431.54,124.44L440,118.98L440,130.71L431.54,132.98L423.08,125.39L414.62,121.67L406.15,116.96L397.69,108.66L389.23,101.91L380.77,96.44L372.31,91.52L363.85,89L355.38,83.91L346.92,85.92L338.46,91.2L330,89.56L321.54,88.88L313.08,97.57L304.62,93.67L296.15,96.97L287.69,96.87L279.23,95.56L270.77,96.64L262.31,95.59L253.85,96.98L245.38,94.28L236.92,99.17L220,93.83L211.54,94.01L203.08,93.18L194.62,90.33L186.15,89.71L177.69,82.38L169.23,80.84L160.77,80.46L152.31,76.59L143.85,81L135.38,78.6L126.92,75.66L118.46,70.74L110,74.86L93.08,59.67L84.62,68.44L76.15,73.63L67.69,77.62L59.23,87.15L50.77,95.24L33.85,112.97L25.38,120.99L16.92,125.39L8.46,135.39L0,133.94Z" style="fill: rgb(255, 255, 191); fill-opacity: 1; stroke-width: 0;"/></g></g><g class="errorbars"/><g class="lines"><path class="js-line" d="M0,133.94L8.46,135.39L16.92,125.39L25.38,120.99L33.85,112.97L50.77,95.24L59.23,87.15L67.69,77.62L76.15,73.63L84.62,68.44L93.08,59.67L110,74.86L118.46,70.74L126.92,75.66L135.38,78.6L143.85,81L152.31,76.59L160.77,80.46L169.23,80.84L177.69,82.38L186.15,89.71L194.62,90.33L203.08,93.18L211.54,94.01L220,93.83L236.92,99.17L245.38,94.28L253.85,96.98L262.31,95.59L270.77,96.64L279.23,95.56L287.69,96.87L296.15,96.97L304.62,93.67L313.08,97.57L321.54,88.88L330,89.56L338.46,91.2L346.92,85.92L355.38,83.91L363.85,89L372.31,91.52L380.77,96.44L389.23,101.91L397.69,108.66L406.15,116.96L414.62,121.67L423.08,125.39L431.54,132.98L440,130.71" style="vector-effect: non-scaling-stroke; fill: none; stroke: rgb(0, 0, 0); stroke-opacity: 1; stroke-width: 1px; opacity: 1;"/></g><g class="points"/><g class="text"/></g><g class="trace scatter tracedd9fd8" style="stroke-miterlimit: 2;"><g class="fills"><g><path class="js-fill" d="M0,113.62L8.46,114.94L16.92,107.33L25.38,113.39L33.85,101.14L42.31,81.03L50.77,82.4L59.23,70.48L67.69,64.53L76.15,56.6L84.62,47.3L93.08,52.5L101.54,49.57L110,49.93L118.46,53.97L126.92,36.01L135.38,32.16L143.85,63.15L152.31,57.34L160.77,56.74L169.23,64.6L177.69,59.21L186.15,68.16L194.62,77.58L203.08,79.8L211.54,78.92L220,83.17L228.46,80.05L236.92,79.45L245.38,77.01L253.85,83.45L262.31,75.29L270.77,83.45L279.23,74.38L287.69,93.49L296.15,82.18L304.62,81.09L313.08,75.59L321.54,75.35L330,65.56L338.46,70.92L346.92,65.8L355.38,76.17L363.85,79.02L372.31,83.82L380.77,86.17L389.23,90.83L397.69,92.16L406.15,97.92L414.62,106.45L423.08,111.78L431.54,111.94L440,113.51L440,118.98L431.54,124.44L423.08,119.45L414.62,115.58L406.15,112.54L397.69,102.91L389.23,97.3L380.77,94.33L372.31,89.05L363.85,83.54L355.38,80.68L346.92,80.59L338.46,83.71L330,81.41L321.54,85.37L313.08,90.53L304.62,88.47L296.15,89.15L287.69,94.03L279.23,90.13L270.77,93.03L262.31,89.32L253.85,91.77L245.38,86.35L236.92,92.23L228.46,89.36L211.54,90.52L203.08,87.94L194.62,83.63L186.15,82.26L177.69,77.06L169.23,74.21L152.31,70.85L143.85,69.21L135.38,60.99L126.92,62.22L118.46,62.21L110,60.76L93.08,56.54L84.62,61.39L67.69,70.03L59.23,82.46L50.77,88.36L42.31,97.61L33.85,110.83L25.38,116.35L16.92,120.68L8.46,126.89L0,128.07Z" style="fill: rgb(252, 141, 89); fill-opacity: 1; stroke-width: 0;"/></g></g><g class="errorbars"/><g class="lines"><path class="js-line" d="M0,128.07L8.46,126.89L16.92,120.68L25.38,116.35L33.85,110.83L42.31,97.61L50.77,88.36L59.23,82.46L67.69,70.03L84.62,61.39L93.08,56.54L110,60.76L118.46,62.21L126.92,62.22L135.38,60.99L143.85,69.21L152.31,70.85L169.23,74.21L177.69,77.06L186.15,82.26L194.62,83.63L203.08,87.94L211.54,90.52L228.46,89.36L236.92,92.23L245.38,86.35L253.85,91.77L262.31,89.32L270.77,93.03L279.23,90.13L287.69,94.03L296.15,89.15L304.62,88.47L313.08,90.53L321.54,85.37L330,81.41L338.46,83.71L346.92,80.59L355.38,80.68L363.85,83.54L372.31,89.05L380.77,94.33L389.23,97.3L397.69,102.91L406.15,112.54L414.62,115.58L423.08,119.45L431.54,124.44L440,118.98" style="vector-effect: non-scaling-stroke; fill: none; stroke: rgb(0, 0, 0); stroke-opacity: 1; stroke-width: 0.5px; opacity: 1;"/></g><g class="points"/><g class="text"/></g><g class="trace scatter trace487cfb" style="stroke-miterlimit: 2;"><g class="fills"/><g class="errorbars"/><g class="lines"><path class="js-line" d="M0,113.62L8.46,114.94L16.92,107.33L25.38,113.39L33.85,101.14L42.31,81.03L50.77,82.4L59.23,70.48L67.69,64.53L76.15,56.6L84.62,47.3L93.08,52.5L101.54,49.57L110,49.93L118.46,53.97L126.92,36.01L135.38,32.16L143.85,63.15L152.31,57.34L160.77,56.74L169.23,64.6L177.69,59.21L186.15,68.16L194.62,77.58L203.08,79.8L211.54,78.92L220,83.17L228.46,80.05L236.92,79.45L245.38,77.01L253.85,83.45L262.31,75.29L270.77,83.45L279.23,74.38L287.69,93.49L296.15,82.18L304.62,81.09L313.08,75.59L321.54,75.35L330,65.56L338.46,70.92L346.92,65.8L355.38,76.17L363.85,79.02L372.31,83.82L380.77,86.17L389.23,90.83L397.69,92.16L406.15,97.92L414.62,106.45L423.08,111.78L431.54,111.94L440,113.51" style="vector-effect: non-scaling-stroke; fill: none; stroke: rgb(0, 0, 0); stroke-opacity: 1; stroke-width: 0.25px; opacity: 1;"/></g><g class="points"/><g class="text"/></g><g class="trace scatter traceebb6cc" style="stroke-miterlimit: 2; opacity: 1;"><g class="fills"/><g class="errorbars"/><g class="lines"/><g class="points"><path class="point" transform="translate(177.69,74.4)" d="M4,0A4,4 0 1,1 0,-4A4,4 0 0,1 4,0ZM0,0.5L0.5,0L0,-0.5L-0.5,0Z" style="opacity: 1; stroke: rgb(0, 0, 0); stroke-opacity: 1; stroke-width: 1px; fill: none;"/><path class="point" transform="translate(186.15,62)" d="M4,0A4,4 0 1,1 0,-4A4,4 0 0,1 4,0ZM0,0.5L0.5,0L0,-0.5L-0.5,0Z" style="opacity: 1; stroke: rgb(0, 0, 0); stroke-opacity: 1; stroke-width: 1px; fill: none;"/><path class="point" transform="translate(194.62,80.6)" d="M4,0A4,4 0 1,1 0,-4A4,4 0 0,1 4,0ZM0,0.5L0.5,0L0,-0.5L-0.5,0Z" style="opacity: 1; stroke: rgb(0, 0, 0); stroke-opacity: 1; stroke-width: 1px; fill: none;"/><path class="point" transform="translate(203.08,80.6)" d="M4,0A4,4 0 1,1 0,-4A4,4 0 0,1 4,0ZM0,0.5L0.5,0L0,-0.5L-0.5,0Z" style="opacity: 1; stroke: rgb(0, 0, 0); stroke-opacity: 1; stroke-width: 1px; fill: none;"/></g><g class="text"/></g></g></g><g class="overplot"/><path class="xlines-above crisp" d="M0,0" style="fill: none;"/><path class="ylines-above crisp" d="M0,0" style="fill: none;"/><g class="overlines-above"/><g class="xaxislayer-above"/><g class="yaxislayer-above"><g class="y2tick"><text text-anchor="end" x="79" y="4.199999999999999" transform="translate(0,472.00000000000006)" style="font-family: 'Open Sans', verdana, arial, sans-serif; font-size: 12px; fill: rgb(42, 63, 95); fill-opacity: 1; white-space: pre; opacity: 1;">20</text></g><g class="y2tick"><text text-anchor="end" x="79" y="4.199999999999999" style="font-family: 'Open Sans', verdana, arial, sans-serif; font-size: 12px; fill: rgb(42, 63, 95); fill-opacity: 1; white-space: pre; opacity: 1;" transform="translate(0,410.00000000000006)">30</text></g><g class="y2tick"><text text-anchor="end" x="79" y="4.199999999999999" style="font-family: 'Open Sans', verdana, arial, sans-serif; font-size: 12px; fill: rgb(42, 63, 95); fill-opacity: 1; white-space: pre; opacity: 1;" transform="translate(0,348.00000000000006)">40</text></g></g><g class="overaxes-above"/></g><g class="subplot x3y3"><g class="layer-subplot"><g class="shapelayer"/><g class="imagelayer"/></g><g class="minor-gridlayer"><g class="x3"/><g class="y3"/></g><g class="gridlayer"><g class="x3"><path class="x3grid crisp" transform="translate(156.15,0)" d="M0,534v186" style="stroke: rgb(255, 255, 255); stroke-opacity: 1; stroke-width: 1px;"/><path class="x3grid crisp" transform="translate(240.77,0)" d="M0,534v186" style="stroke: rgb(255, 255, 255); stroke-opacity: 1; stroke-width: 1px;"/><path class="x3grid crisp" transform="translate(325.38,0)" d="M0,534v186" style="stroke: rgb(255, 255, 255); stroke-opacity: 1; stroke-width: 1px;"/><path class="x3grid crisp" transform="translate(410,0)" d="M0,534v186" style="stroke: rgb(255, 255, 255); stroke-opacity: 1; stroke-width: 1px;"/><path class="x3grid crisp" transform="translate(494.62,0)" d="M0,534v186" style="stroke: rgb(255, 255, 255); stroke-opacity: 1; stroke-width: 1px;"/></g><g class="y3"><path class="y3grid crisp" transform="translate(0,682.8)" d="M80,0h440" style="stroke: rgb(255, 255, 255); stroke-opacity: 1; stroke-width: 1px;"/><path class="y3grid crisp" transform="translate(0,645.6)" d="M80,0h440" style="stroke: rgb(255, 255, 255); stroke-opacity: 1; stroke-width: 1px;"/><path class="y3grid crisp" transform="translate(0,608.4)" d="M80,0h440" style="stroke: rgb(255, 255, 255); stroke-opacity: 1; stroke-width: 1px;"/><path class="y3grid crisp" transform="translate(0,571.2)" d="M80,0h440" style="stroke: rgb(255, 255, 255); stroke-opacity: 1; stroke-width: 1px;"/></g></g><g class="zerolinelayer"/><path class="xlines-below"/><path class="ylines-below"/><g class="overlines-below"/><g class="xaxislayer-below"/><g class="yaxislayer-below"/><g class="overaxes-below"/><g class="plot" transform="translate(80,534)" clip-path="url(#clip3819f9x3y3plot)"><g class="scatterlayer mlayer"><g class="trace scatter trace5f58b2" style="stroke-miterlimit: 2;"><g class="fills"><g><path class="js-fill" d="M0,119.8L8.46,124.78L16.92,120.28L33.85,116.82L42.31,104.24L50.77,94.71L59.23,89.53L67.69,76.51L76.15,73.4L84.62,68.7L93.08,61.97L101.54,58.84L110,56.66L118.46,54L126.92,49.65L135.38,50.92L143.85,49.47L152.31,42.7L160.77,39.83L169.23,37.76L177.69,37.23L203.08,35.72L211.54,36.78L220,36.03L228.46,36.08L236.92,37.97L245.38,38.09L253.85,38.7L262.31,37.1L279.23,37.85L287.69,38.39L296.15,39.43L304.62,39.38L313.08,41.91L321.54,40.52L330,41.72L338.46,44.72L346.92,48.97L355.38,49.48L363.85,58.76L372.31,64.47L380.77,72.77L389.23,83.16L397.69,96.2L406.15,103.12L414.62,106.16L423.08,115.8L431.54,118.9L440,130.93L440,140.37L431.54,137.56L423.08,134.1L406.15,114.25L397.69,113.07L389.23,92.33L380.77,86.1L372.31,77.45L363.85,65.54L355.38,55.12L346.92,53.58L330,46.08L321.54,44.06L313.08,44.85L304.62,40.48L296.15,40.77L287.69,41.08L279.23,40.37L270.77,39.07L262.31,41.16L253.85,40.85L245.38,41.54L236.92,39.64L228.46,39.02L220,37.84L203.08,38.82L194.62,41.86L186.15,41.83L177.69,44.19L169.23,39.93L160.77,46.7L152.31,45.12L143.85,55.24L135.38,57.96L126.92,59.47L118.46,62.38L110,65.48L101.54,67.64L93.08,69.06L84.62,83.16L76.15,85.8L67.69,85.62L59.23,114.67L50.77,105.98L42.31,130.04L33.85,143.01L25.38,135.61L16.92,129.96L8.46,136.98L0,123.71Z" style="fill: rgb(90, 180, 172); fill-opacity: 1; stroke-width: 0;"/></g></g><g class="errorbars"/><g class="lines"><path class="js-line" d="M0,123.71L8.46,136.98L16.92,129.96L25.38,135.61L33.85,143.01L42.31,130.04L50.77,105.98L59.23,114.67L67.69,85.62L76.15,85.8L84.62,83.16L93.08,69.06L101.54,67.64L110,65.48L118.46,62.38L126.92,59.47L135.38,57.96L143.85,55.24L152.31,45.12L160.77,46.7L169.23,39.93L177.69,44.19L186.15,41.83L194.62,41.86L203.08,38.82L220,37.84L228.46,39.02L236.92,39.64L245.38,41.54L253.85,40.85L262.31,41.16L270.77,39.07L279.23,40.37L287.69,41.08L296.15,40.77L304.62,40.48L313.08,44.85L321.54,44.06L330,46.08L346.92,53.58L355.38,55.12L363.85,65.54L372.31,77.45L380.77,86.1L389.23,92.33L397.69,113.07L406.15,114.25L423.08,134.1L431.54,137.56L440,140.37" style="vector-effect: non-scaling-stroke; fill: none; stroke: rgb(0, 0, 0); stroke-opacity: 1; stroke-width: 0.25px; opacity: 1;"/></g><g class="points"/><g class="text"/></g><g class="trace scatter trace26d5d8" style="stroke-miterlimit: 2;"><g class="fills"><g><path class="js-fill" d="M0,116.18L8.46,118.27L16.92,112.66L25.38,109.59L33.85,108.5L42.31,92.79L50.77,89.9L59.23,82.94L67.69,71.91L76.15,69.87L84.62,60.83L93.08,55.54L101.54,54.18L110,52.94L118.46,49.33L126.92,44.66L135.38,45.56L143.85,45.33L152.31,40.26L160.77,37.12L169.23,35.64L203.08,34.29L211.54,35.35L228.46,34.91L236.92,36.16L253.85,37.69L262.31,35.34L279.23,36.81L287.69,36.97L313.08,39.5L321.54,38.51L338.46,42.69L346.92,44.29L355.38,46.95L363.85,55.55L372.31,58.75L380.77,66L389.23,77.25L397.69,87.05L406.15,89.48L414.62,101.98L423.08,102.8L431.54,112.73L440,126.23L440,130.93L431.54,118.9L423.08,115.8L414.62,106.16L406.15,103.12L397.69,96.2L389.23,83.16L380.77,72.77L372.31,64.47L363.85,58.76L355.38,49.48L346.92,48.97L338.46,44.72L330,41.72L321.54,40.52L313.08,41.91L304.62,39.38L296.15,39.43L287.69,38.39L279.23,37.85L262.31,37.1L253.85,38.7L245.38,38.09L236.92,37.97L228.46,36.08L220,36.03L211.54,36.78L203.08,35.72L177.69,37.23L169.23,37.76L160.77,39.83L152.31,42.7L143.85,49.47L135.38,50.92L126.92,49.65L118.46,54L110,56.66L101.54,58.84L93.08,61.97L84.62,68.7L76.15,73.4L67.69,76.51L59.23,89.53L50.77,94.71L42.31,104.24L33.85,116.82L16.92,120.28L8.46,124.78L0,119.8Z" style="fill: rgb(245, 245, 245); fill-opacity: 1; stroke-width: 0;"/></g></g><g class="errorbars"/><g class="lines"><path class="js-line" d="M0,119.8L8.46,124.78L16.92,120.28L33.85,116.82L42.31,104.24L50.77,94.71L59.23,89.53L67.69,76.51L76.15,73.4L84.62,68.7L93.08,61.97L101.54,58.84L110,56.66L118.46,54L126.92,49.65L135.38,50.92L143.85,49.47L152.31,42.7L160.77,39.83L169.23,37.76L177.69,37.23L203.08,35.72L211.54,36.78L220,36.03L228.46,36.08L236.92,37.97L245.38,38.09L253.85,38.7L262.31,37.1L279.23,37.85L287.69,38.39L296.15,39.43L304.62,39.38L313.08,41.91L321.54,40.52L330,41.72L338.46,44.72L346.92,48.97L355.38,49.48L363.85,58.76L372.31,64.47L380.77,72.77L389.23,83.16L397.69,96.2L406.15,103.12L414.62,106.16L423.08,115.8L431.54,118.9L440,130.93" style="vector-effect: non-scaling-stroke; fill: none; stroke: rgb(0, 0, 0); stroke-opacity: 1; stroke-width: 0.5px; opacity: 1;"/></g><g class="points"/><g class="text"/></g><g class="trace scatter tracedd2767" style="stroke-miterlimit: 2;"><g class="fills"><g><path class="js-fill" d="M0,109.08L8.46,112.43L16.92,108.65L33.85,98.58L42.31,86.97L50.77,79.18L59.23,72.54L67.69,65.51L76.15,62.24L84.62,54.19L93.08,52.02L101.54,48.91L110,48.27L118.46,44.68L126.92,42.03L135.38,40.31L143.85,40.51L152.31,38.54L160.77,34.14L177.69,32.01L186.15,32.94L194.62,31.11L203.08,33.05L211.54,33.74L220,33.41L228.46,31.92L236.92,34.3L245.38,34.7L253.85,34.3L262.31,33.86L270.77,35.14L279.23,34.49L287.69,35.13L296.15,35.79L304.62,37.68L313.08,36.77L321.54,36.7L330,37.33L338.46,39.54L346.92,39.92L355.38,43.74L363.85,50.27L372.31,55.48L380.77,63.86L389.23,70.21L397.69,79.23L406.15,84.21L414.62,91.73L423.08,91.47L431.54,106.45L440,118.4L440,126.23L431.54,112.73L423.08,102.8L414.62,101.98L406.15,89.48L397.69,87.05L389.23,77.25L380.77,66L372.31,58.75L363.85,55.55L355.38,46.95L346.92,44.29L338.46,42.69L321.54,38.51L313.08,39.5L287.69,36.97L279.23,36.81L262.31,35.34L253.85,37.69L236.92,36.16L228.46,34.91L211.54,35.35L203.08,34.29L169.23,35.64L160.77,37.12L152.31,40.26L143.85,45.33L135.38,45.56L126.92,44.66L118.46,49.33L110,52.94L101.54,54.18L93.08,55.54L84.62,60.83L76.15,69.87L67.69,71.91L59.23,82.94L50.77,89.9L42.31,92.79L33.85,108.5L25.38,109.59L16.92,112.66L8.46,118.27L0,116.18Z" style="fill: rgb(245, 245, 245); fill-opacity: 1; stroke-width: 0;"/></g></g><g class="errorbars"/><g class="lines"><path class="js-line" d="M0,116.18L8.46,118.27L16.92,112.66L25.38,109.59L33.85,108.5L42.31,92.79L50.77,89.9L59.23,82.94L67.69,71.91L76.15,69.87L84.62,60.83L93.08,55.54L101.54,54.18L110,52.94L118.46,49.33L126.92,44.66L135.38,45.56L143.85,45.33L152.31,40.26L160.77,37.12L169.23,35.64L203.08,34.29L211.54,35.35L228.46,34.91L236.92,36.16L253.85,37.69L262.31,35.34L279.23,36.81L287.69,36.97L313.08,39.5L321.54,38.51L338.46,42.69L346.92,44.29L355.38,46.95L363.85,55.55L372.31,58.75L380.77,66L389.23,77.25L397.69,87.05L406.15,89.48L414.62,101.98L423.08,102.8L431.54,112.73L440,126.23" style="vector-effect: non-scaling-stroke; fill: none; stroke: rgb(0, 0, 0); stroke-opacity: 1; stroke-width: 1px; opacity: 1;"/></g><g class="points"/><g class="text"/></g><g class="trace scatter tracef86dc9" style="stroke-miterlimit: 2;"><g class="fills"><g><path class="js-fill" d="M0,100.69L8.46,99.92L16.92,91.42L25.38,91.08L33.85,86.78L42.31,75.08L50.77,61.61L59.23,65.94L67.69,56.15L101.54,36.99L110,41.1L126.92,31.2L135.38,34.92L143.85,28.46L152.31,36.39L160.77,28.39L169.23,28.03L177.69,27.6L186.15,28.08L194.62,24.7L203.08,29.26L211.54,31.53L220,31.79L228.46,30.36L236.92,32.21L245.38,29.8L253.85,32.12L262.31,33.1L270.77,32.92L279.23,30.91L287.69,33.75L304.62,36.21L313.08,32.69L321.54,30.99L330,35.95L338.46,34.9L346.92,26.97L355.38,36.65L363.85,43.18L372.31,46.21L380.77,53.55L389.23,62.24L397.69,68.68L406.15,74.61L414.62,73.25L423.08,86.37L431.54,92.03L440,116.4L440,118.4L431.54,106.45L423.08,91.47L414.62,91.73L406.15,84.21L397.69,79.23L389.23,70.21L380.77,63.86L372.31,55.48L363.85,50.27L355.38,43.74L346.92,39.92L338.46,39.54L330,37.33L321.54,36.7L313.08,36.77L304.62,37.68L296.15,35.79L287.69,35.13L279.23,34.49L270.77,35.14L262.31,33.86L253.85,34.3L245.38,34.7L236.92,34.3L228.46,31.92L220,33.41L211.54,33.74L203.08,33.05L194.62,31.11L186.15,32.94L177.69,32.01L160.77,34.14L152.31,38.54L143.85,40.51L135.38,40.31L126.92,42.03L118.46,44.68L110,48.27L101.54,48.91L93.08,52.02L84.62,54.19L76.15,62.24L67.69,65.51L59.23,72.54L50.77,79.18L42.31,86.97L33.85,98.58L16.92,108.65L8.46,112.43L0,109.08Z" style="fill: rgb(216, 179, 101); fill-opacity: 1; stroke-width: 0;"/></g></g><g class="errorbars"/><g class="lines"><path class="js-line" d="M0,109.08L8.46,112.43L16.92,108.65L33.85,98.58L42.31,86.97L50.77,79.18L59.23,72.54L67.69,65.51L76.15,62.24L84.62,54.19L93.08,52.02L101.54,48.91L110,48.27L118.46,44.68L126.92,42.03L135.38,40.31L143.85,40.51L152.31,38.54L160.77,34.14L177.69,32.01L186.15,32.94L194.62,31.11L203.08,33.05L211.54,33.74L220,33.41L228.46,31.92L236.92,34.3L245.38,34.7L253.85,34.3L262.31,33.86L270.77,35.14L279.23,34.49L287.69,35.13L296.15,35.79L304.62,37.68L313.08,36.77L321.54,36.7L330,37.33L338.46,39.54L346.92,39.92L355.38,43.74L363.85,50.27L372.31,55.48L380.77,63.86L389.23,70.21L397.69,79.23L406.15,84.21L414.62,91.73L423.08,91.47L431.54,106.45L440,118.4" style="vector-effect: non-scaling-stroke; fill: none; stroke: rgb(0, 0, 0); stroke-opacity: 1; stroke-width: 0.5px; opacity: 1;"/></g><g class="points"/><g class="text"/></g><g class="trace scatter trace75199a" style="stroke-miterlimit: 2;"><g class="fills"/><g class="errorbars"/><g class="lines"><path class="js-line" d="M0,100.69L8.46,99.92L16.92,91.42L25.38,91.08L33.85,86.78L42.31,75.08L50.77,61.61L59.23,65.94L67.69,56.15L101.54,36.99L110,41.1L126.92,31.2L135.38,34.92L143.85,28.46L152.31,36.39L160.77,28.39L169.23,28.03L177.69,27.6L186.15,28.08L194.62,24.7L203.08,29.26L211.54,31.53L220,31.79L228.46,30.36L236.92,32.21L245.38,29.8L253.85,32.12L262.31,33.1L270.77,32.92L279.23,30.91L287.69,33.75L304.62,36.21L313.08,32.69L321.54,30.99L330,35.95L338.46,34.9L346.92,26.97L355.38,36.65L363.85,43.18L372.31,46.21L380.77,53.55L389.23,62.24L397.69,68.68L406.15,74.61L414.62,73.25L423.08,86.37L431.54,92.03L440,116.4" style="vector-effect: non-scaling-stroke; fill: none; stroke: rgb(0, 0, 0); stroke-opacity: 1; stroke-width: 0.25px; opacity: 1;"/></g><g class="points"/><g class="text"/></g><g class="trace scatter trace648bb5" style="stroke-miterlimit: 2; opacity: 1;"><g class="fills"/><g class="errorbars"/><g class="lines"/><g class="points"><path class="point" transform="translate(177.69,37.2)" d="M4,0A4,4 0 1,1 0,-4A4,4 0 0,1 4,0ZM0,0.5L0.5,0L0,-0.5L-0.5,0Z" style="opacity: 1; stroke: rgb(0, 0, 0); stroke-opacity: 1; stroke-width: 1px; fill: none;"/><path class="point" transform="translate(186.15,29.76)" d="M4,0A4,4 0 1,1 0,-4A4,4 0 0,1 4,0ZM0,0.5L0.5,0L0,-0.5L-0.5,0Z" style="opacity: 1; stroke: rgb(0, 0, 0); stroke-opacity: 1; stroke-width: 1px; fill: none;"/><path class="point" transform="translate(194.62,37.2)" d="M4,0A4,4 0 1,1 0,-4A4,4 0 0,1 4,0ZM0,0.5L0.5,0L0,-0.5L-0.5,0Z" style="opacity: 1; stroke: rgb(0, 0, 0); stroke-opacity: 1; stroke-width: 1px; fill: none;"/><path class="point" transform="translate(203.08,37.2)" d="M4,0A4,4 0 1,1 0,-4A4,4 0 0,1 4,0ZM0,0.5L0.5,0L0,-0.5L-0.5,0Z" style="opacity: 1; stroke: rgb(0, 0, 0); stroke-opacity: 1; stroke-width: 1px; fill: none;"/></g><g class="text"/></g></g></g><g class="overplot"/><path class="xlines-above crisp" d="M0,0" style="fill: none;"/><path class="ylines-above crisp" d="M0,0" style="fill: none;"/><g class="overlines-above"/><g class="xaxislayer-above"><g class="x3tick"><text text-anchor="middle" x="0" y="733" transform="translate(156.15,0)" style="font-family: 'Open Sans', verdana, arial, sans-serif; font-size: 12px; fill: rgb(42, 63, 95); fill-opacity: 1; white-space: pre; opacity: 1;">10</text></g><g class="x3tick"><text text-anchor="middle" x="0" y="733" style="font-family: 'Open Sans', verdana, arial, sans-serif; font-size: 12px; fill: rgb(42, 63, 95); fill-opacity: 1; white-space: pre; opacity: 1;" transform="translate(240.77,0)">20</text></g><g class="x3tick"><text text-anchor="middle" x="0" y="733" style="font-family: 'Open Sans', verdana, arial, sans-serif; font-size: 12px; fill: rgb(42, 63, 95); fill-opacity: 1; white-space: pre; opacity: 1;" transform="translate(325.38,0)">30</text></g><g class="x3tick"><text text-anchor="middle" x="0" y="733" style="font-family: 'Open Sans', verdana, arial, sans-serif; font-size: 12px; fill: rgb(42, 63, 95); fill-opacity: 1; white-space: pre; opacity: 1;" transform="translate(410,0)">40</text></g><g class="x3tick"><text text-anchor="middle" x="0" y="733" style="font-family: 'Open Sans', verdana, arial, sans-serif; font-size: 12px; fill: rgb(42, 63, 95); fill-opacity: 1; white-space: pre; opacity: 1;" transform="translate(494.62,0)">50</text></g></g><g class="yaxislayer-above"><g class="y3tick"><text text-anchor="end" x="79" y="4.199999999999999" transform="translate(0,720)" style="font-family: 'Open Sans', verdana, arial, sans-serif; font-size: 12px; fill: rgb(42, 63, 95); fill-opacity: 1; white-space: pre; opacity: 1;">5</text></g><g class="y3tick"><text text-anchor="end" x="79" y="4.199999999999999" style="font-family: 'Open Sans', verdana, arial, sans-serif; font-size: 12px; fill: rgb(42, 63, 95); fill-opacity: 1; white-space: pre; opacity: 1;" transform="translate(0,682.8)">10</text></g><g class="y3tick"><text text-anchor="end" x="79" y="4.199999999999999" style="font-family: 'Open Sans', verdana, arial, sans-serif; font-size: 12px; fill: rgb(42, 63, 95); fill-opacity: 1; white-space: pre; opacity: 1;" transform="translate(0,645.6)">15</text></g><g class="y3tick"><text text-anchor="end" x="79" y="4.199999999999999" style="font-family: 'Open Sans', verdana, arial, sans-serif; font-size: 12px; fill: rgb(42, 63, 95); fill-opacity: 1; white-space: pre; opacity: 1;" transform="translate(0,608.4)">20</text></g><g class="y3tick"><text text-anchor="end" x="79" y="4.199999999999999" style="font-family: 'Open Sans', verdana, arial, sans-serif; font-size: 12px; fill: rgb(42, 63, 95); fill-opacity: 1; white-space: pre; opacity: 1;" transform="translate(0,571.2)">25</text></g><g class="y3tick"><text text-anchor="end" x="79" y="4.199999999999999" style="font-family: 'Open Sans', verdana, arial, sans-serif; font-size: 12px; fill: rgb(42, 63, 95); fill-opacity: 1; white-space: pre; opacity: 1;" transform="translate(0,534)">30</text></g></g><g class="overaxes-above"/></g></g><g class="polarlayer"/><g class="smithlayer"/><g class="ternarylayer"/><g class="geolayer"/><g class="funnelarealayer"/><g class="pielayer"/><g class="iciclelayer"/><g class="treemaplayer"/><g class="sunburstlayer"/><g class="glimages"/><defs id="topdefs-3819f9"><g class="clips"/></defs><g class="layer-above"><g class="imagelayer"/><g class="shapelayer"/></g><g class="infolayer"><g class="g-gtitle"><text class="gtitle" x="30" y="50" text-anchor="start" dy="0em" style="font-family: 'Open Sans', verdana, arial, sans-serif; font-size: 17px; fill: rgb(42, 63, 95); opacity: 1; font-weight: normal; white-space: pre;">Climatology and S2S forecast for Jhalakathi</text></g><g class="g-xtitle"/><g class="g-x2title"/><g class="g-x3title"/><g class="g-ytitle"><text class="ytitle" transform="rotate(-90,34.16875,193)" x="34.16875" y="193" text-anchor="middle" style="font-family: 'Open Sans', verdana, arial, sans-serif; font-size: 14px; fill: rgb(42, 63, 95); opacity: 1; font-weight: normal; white-space: pre;">[mm]</text></g><g class="g-y2title"><text class="y2title" transform="rotate(-90,40.840625,410.00000000000006)" x="40.840625" y="410.00000000000006" text-anchor="middle" style="font-family: 'Open Sans', verdana, arial, sans-serif; font-size: 14px; fill: rgb(42, 63, 95); opacity: 1; font-weight: normal; white-space: pre;">[C]</text></g><g class="g-y3title"><text class="y3title" transform="rotate(-90,40.840625,627)" x="40.840625" y="627" text-anchor="middle" style="font-family: 'Open Sans', verdana, arial, sans-serif; font-size: 14px; fill: rgb(42, 63, 95); opacity: 1; font-weight: normal; white-space: pre;">[C]</text></g><g class="annotation" data-index="0" style="opacity: 1;"><g class="annotation-text-g" transform="rotate(0,300,89.5)"><g class="cursor-pointer" transform="translate(237,79)"><rect class="bg" x="0.5" y="0.5" width="126" height="20" style="stroke-width: 1px; stroke: rgb(0, 0, 0); stroke-opacity: 0; fill: rgb(0, 0, 0); fill-opacity: 0;"/><text class="annotation-text" text-anchor="middle" x="63.359375" y="16" style="font-family: 'Open Sans', verdana, arial, sans-serif; font-size: 16px; fill: rgb(42, 63, 95); fill-opacity: 1; white-space: pre;">Precipitation sum</text></g></g></g><g class="annotation" data-index="1" style="opacity: 1;"><g class="annotation-text-g" transform="rotate(0,300,306.50000000000006)"><g class="cursor-pointer" transform="translate(196,296)"><rect class="bg" x="0.5" y="0.5" width="208" height="20" style="stroke-width: 1px; stroke: rgb(0, 0, 0); stroke-opacity: 0; fill: rgb(0, 0, 0); fill-opacity: 0;"/><text class="annotation-text" text-anchor="middle" x="104.265625" y="16" style="font-family: 'Open Sans', verdana, arial, sans-serif; font-size: 16px; fill: rgb(42, 63, 95); fill-opacity: 1; white-space: pre;">Mean maximum temperature</text></g></g></g><g class="annotation" data-index="2" style="opacity: 1;"><g class="annotation-text-g" transform="rotate(0,300,523.5)"><g class="cursor-pointer" transform="translate(198,513)"><rect class="bg" x="0.5" y="0.5" width="203" height="20" style="stroke-width: 1px; stroke: rgb(0, 0, 0); stroke-opacity: 0; fill: rgb(0, 0, 0); fill-opacity: 0;"/><text class="annotation-text" text-anchor="middle" x="102.046875" y="16" style="font-family: 'Open Sans', verdana, arial, sans-serif; font-size: 16px; fill: rgb(42, 63, 95); fill-opacity: 1; white-space: pre;">Mean minimum temperature</text></g></g></g><g class="annotation" data-index="3" style="opacity: 1;"><g class="annotation-text-g" transform="rotate(0,300,760.5)"><g class="cursor-pointer" transform="translate(277,750)"><rect class="bg" x="0.5" y="0.5" width="45" height="20" style="stroke-width: 1px; stroke: rgb(0, 0, 0); stroke-opacity: 0; fill: rgb(0, 0, 0); fill-opacity: 0;"/><text class="annotation-text" text-anchor="middle" x="22.3125" y="16" style="font-family: 'Open Sans', verdana, arial, sans-serif; font-size: 16px; fill: rgb(42, 63, 95); fill-opacity: 1; white-space: pre;">Week</text></g></g></g></g></svg>