<svg class="main-svg" xmlns="http://www.w3.org/2000/svg" xmlns:xlink="http://www.w3.org/1999/xlink" width="600" height="800" style="" viewBox="0 0 600 800"><rect x="0" y="0" width="600" height="800" style="fill: rgb(255, 255, 255); fill-opacity: 1;"/><defs id="defs-380d29"><g class="clips"><clipPath id="clip380d29xyplot" class="plotclip"><rect width="440" height="186.00000000000003"/></clipPath><clipPath id="clip380d29x2y2plot" class="plotclip"><rect width="440" height="185.99999999999997"/></clipPath><clipPath id="clip380d29x3y3plot" class="plotclip"><rect width="440" height="186"/></clipPath><clipPath class="axesclip" id="clip380d29x"><rect x="80" y="0" width="440" height="800"/></clipPath><clipPath class="axesclip" id="clip380d29y"><rect x="0" y="100" width="600" height="186.00000000000003"/></clipPath><clipPath class="axesclip" id="clip380d29xy"><rect x="80" y="100" width="440" height="186.00000000000003"/></clipPath><clipPath class="axesclip" id="clip380d29y2"><rect x="0" y="317.00000000000006" width="600" height="185.99999999999997"/></clipPath><clipPath class="axesclip" id="clip380d29xy2"><rect x="80" y="317.00000000000006" width="440" height="185.99999999999997"/></clipPath><clipPath class="axesclip" id="clip380d29y3"><rect x="0" y="534" width="600" height="186"/></clipPath><clipPath class="axesclip" id="clip380d29xy3"><rect x="80" y="534" width="440" height="186"/></clipPath><clipPath class="axesclip" id="clip380d29x2"><rect x="80" y="0" width="440" height="800"/></clipPath><clipPath class="axesclip" id="clip380d29x2y"><rect x="80" y="100" width="440" height="186.00000000000003"/></clipPath><clipPath class="axesclip" id="clip380d29x2y2"><rect x="80" y="317.00000000000006" width="440" height="185.99999999999997"/></clipPath><clipPath class="axesclip" id="clip380d29x2y3"><rect x="80" y="534" width="440" height="186"/></clipPath><clipPath class="axesclip" id="clip380d29x3"><rect x="80" y="0" width="440" height="800"/></clipPath><clipPath class="axesclip" id="clip380d29x3y"><rect x="80" y="100" width="440" height="186.00000000000003"/></clipPath><clipPath class="axesclip" id="clip380d29x3y2"><rect x="80" y="317.00000000000006" width="440" height="185.99999999999997"/></clipPath><clipPath class="axesclip" id="clip380d29x3y3"><rect x="80" y="534" width="440" height="186"/></clipPath></g><g class="gradients"/><g class="patterns"/></defs><g class="bglayer"><rect class="bg" x="80" y="100" width="440" height="186.00000000000003" style="fill: rgb(229, 236, 246); fill-opacity: 1; stroke-width: 0;"/><rect class="bg" x="80" y="317.00000000000006" width="440" height="185.99999999999997" style="fill: rgb(229, 236, 246); fill-opacity: 1; stroke-width: 0;"/><rect class="bg" x="80" y="534" width="440" height="186" style="fill: rgb(229, 236, 246); fill-opacity: 1; stroke-width: 0;"/></g><g class="layer-below"><g class="imagelayer"/><g class="shapelayer"/></g><g class="cartesianlayer"><g class="subplot xy"><g class="layer-subplot"><g class="shapelayer"/><g class="imagelayer"/></g><g class="minor-gridlayer"><g class="x"/><g class="y"/></g><g class="gridlayer"><g class="x"><path class="xgrid crisp" transform="translate(156.15,0)" d="M0,100v186.00000000000003" style="stroke: rgb(255, 255, 255); stroke-opacity: 1; stroke-width: 1px;"/><path class="xgrid crisp" transform="translate(240.77,0)" d="M0,100v186.00000000000003" style="stroke: rgb(255, 255, 255); stroke-opacity: 1; stroke-width: 1px;"/><path class="xgrid crisp" transform="translate(325.38,0)" d="M0,100v186.00000000000003" style="stroke: rgb(255, 255, 255); stroke-opacity: 1; stroke-width: 1px;"/><path class="xgrid crisp" transform="translate(410,0)" d="M0,100v186.00000000000003" style="stroke: rgb(255, 255, 255); stroke-opacity: 1; stroke-width: 1px;"/><path class="xgrid crisp" transform="translate(494.62,0)" d="M0,100v186.00000000000003" style="stroke: rgb(255, 255, 255); stroke-opacity: 1; stroke-width: 1px;"/></g><g class="y"><path class="ygrid crisp" transform="translate(0,248.8)" d="M80,0h440" style="stroke: rgb(255, 255, 255); stroke-opacity: 1; stroke-width: 1px;"/><path class="ygrid crisp" transform="translate(0,211.6)" d="M80,0h440" style="stroke: rgb(255, 255, 255); stroke-opacity: 1; stroke-width: 1px;"/><path class="ygrid crisp" transform="translate(0,174.4)" d="M80,0h440" style="stroke: rgb(255, 255, 255); stroke-opacity: 1; stroke-width: 1px;"/><path class="ygrid crisp" transform="translate(0,137.2)" d="M80,0h440" style="stroke: rgb(255, 255, 255); stroke-opacity: 1; stroke-width: 1px;"/></g></g><g class="zerolinelayer"><path class="yzl zl crisp" transform="translate(0,286)" d="M80,0h440" style="stroke: rgb(255, 255, 255); stroke-opacity: 1; stroke-width: 2px;"/></g><path class="xlines-below"/><path class="ylines-below"/><g class="overlines-below"/><g class="xaxislayer-below"/><g class="yaxislayer-below"/><g class="overaxes-below"/><g class="plot" transform="translate(80,100)" clip-path="url(#clip380d29xyplot)"><g class="scatterlayer mlayer"><g class="trace scatter traced2659f" style="stroke-miterlimit: 2;"><g class="fills"><g><path class="js-fill" d="M0,186L118.46,185.25L126.92,180.33L135.38,161.25L143.85,149.46L152.31,160.62L160.77,163.8L169.23,154.11L177.69,154.41L186.15,175.96L194.62,149.84L203.08,156.89L211.54,160.33L220,150.59L228.46,146.19L236.92,169.02L245.38,166.82L253.85,177.31L262.31,173.65L270.77,165.78L279.23,173.49L296.15,182.59L304.62,177.74L313.08,172.07L321.54,170.69L330,168.24L338.46,183.39L346.92,185.86L355.38,186L440,186L440,186L330,185.96L321.54,185.85L313.08,184.98L304.62,185.71L287.69,185.72L279.23,185.24L270.77,185.68L262.31,183.9L253.85,185.11L245.38,182.9L236.92,184.67L228.46,181.04L220,183L211.54,183.37L203.08,177.49L194.62,174.18L186.15,185.99L177.69,184.45L169.23,160.88L160.77,185.47L0,186Z" style="fill: rgb(224, 236, 244); fill-opacity: 1; stroke-width: 0;"/></g></g><g class="errorbars"/><g class="lines"><path class="js-line" d="M0,186L160.77,185.47L169.23,160.88L177.69,184.45L186.15,185.99L194.62,174.18L203.08,177.49L211.54,183.37L220,183L228.46,181.04L236.92,184.67L245.38,182.9L253.85,185.11L262.31,183.9L270.77,185.68L279.23,185.24L287.69,185.72L304.62,185.71L313.08,184.98L321.54,185.85L330,185.96L440,186" style="vector-effect: non-scaling-stroke; fill: none; stroke: rgb(0, 0, 0); stroke-opacity: 1; stroke-width: 0.25px; opacity: 1;"/></g><g class="points"/><g class="text"/></g><g class="trace scatter tracef2db18" style="stroke-miterlimit: 2;"><g class="fills"><g><path class="js-fill" d="M0,186L93.08,185.88L101.54,183.29L110,183.23L118.46,178.19L126.92,167.44L135.38,149.57L143.85,114.87L152.31,141.31L160.77,150.02L169.23,137.34L177.69,106.33L186.15,143.27L203.08,132.94L211.54,111.38L220,117.15L228.46,111.12L236.92,134.67L245.38,148.05L253.85,159.23L262.31,151.1L270.77,134.53L279.23,155.24L287.69,174.6L296.15,165.21L304.62,147.02L313.08,153.89L321.54,100.27L330,147.43L338.46,170.1L346.92,183.49L355.38,185.92L363.85,185.95L440,186L440,186L355.38,186L346.92,185.86L338.46,183.39L330,168.24L321.54,170.69L313.08,172.07L304.62,177.74L296.15,182.59L279.23,173.49L270.77,165.78L262.31,173.65L253.85,177.31L245.38,166.82L236.92,169.02L228.46,146.19L220,150.59L211.54,160.33L203.08,156.89L194.62,149.84L186.15,175.96L177.69,154.41L169.23,154.11L160.77,163.8L152.31,160.62L143.85,149.46L135.38,161.25L126.92,180.33L118.46,185.25L0,186Z" style="fill: rgb(158, 188, 218); fill-opacity: 1; stroke-width: 0;"/></g></g><g class="errorbars"/><g class="lines"><path class="js-line" d="M0,186L118.46,185.25L126.92,180.33L135.38,161.25L143.85,149.46L152.31,160.62L160.77,163.8L169.23,154.11L177.69,154.41L186.15,175.96L194.62,149.84L203.08,156.89L211.54,160.33L220,150.59L228.46,146.19L236.92,169.02L245.38,166.82L253.85,177.31L262.31,173.65L270.77,165.78L279.23,173.49L296.15,182.59L304.62,177.74L313.08,172.07L321.54,170.69L330,168.24L338.46,183.39L346.92,185.86L355.38,186L440,186" style="vector-effect: non-scaling-stroke; fill: none; stroke: rgb(0, 0, 0); stroke-opacity: 1; stroke-width: 0.5px; opacity: 1;"/></g><g class="points"/><g class="text"/></g><g class="trace scatter trace68bb91" style="stroke-miterlimit: 2;"><g class="fills"><g><path class="js-fill" d="M0,185.97L25.38,185.99L33.85,185.06L50.77,184.2L59.23,181.91L67.69,184.82L76.15,184.54L84.62,185.48L93.08,178.53L101.54,173.66L110,170.69L118.46,160.48L126.92,156.49L135.38,104.83L143.85,97.1L152.31,122.96L160.77,129.5L177.69,85.34L186.15,109.64L194.62,86.75L203.08,86.56L211.54,72.94L220,76.17L228.46,34.05L236.92,87.82L245.38,102.31L253.85,131.1L262.31,128.7L270.77,94.23L279.23,114.47L287.69,163.35L296.15,114.94L304.62,105.21L313.08,136.09L321.54,52.58L330,100.61L338.46,140.78L346.92,163.92L355.38,178L363.85,184.26L372.31,185.96L440,186L440,186L363.85,185.95L355.38,185.92L346.92,183.49L338.46,170.1L330,147.43L321.54,100.27L313.08,153.89L304.62,147.02L296.15,165.21L287.69,174.6L279.23,155.24L270.77,134.53L262.31,151.1L253.85,159.23L245.38,148.05L236.92,134.67L228.46,111.12L220,117.15L211.54,111.38L203.08,132.94L186.15,143.27L177.69,106.33L169.23,137.34L160.77,150.02L152.31,141.31L143.85,114.87L135.38,149.57L126.92,167.44L118.46,178.19L110,183.23L101.54,183.29L93.08,185.88L0,186Z" style="fill: rgb(158, 188, 218); fill-opacity: 1; stroke-width: 0;"/></g></g><g class="errorbars"/><g class="lines"><path class="js-line" d="M0,186L93.08,185.88L101.54,183.29L110,183.23L118.46,178.19L126.92,167.44L135.38,149.57L143.85,114.87L152.31,141.31L160.77,150.02L169.23,137.34L177.69,106.33L186.15,143.27L203.08,132.94L211.54,111.38L220,117.15L228.46,111.12L236.92,134.67L245.38,148.05L253.85,159.23L262.31,151.1L270.77,134.53L279.23,155.24L287.69,174.6L296.15,165.21L304.62,147.02L313.08,153.89L321.54,100.27L330,147.43L338.46,170.1L346.92,183.49L355.38,185.92L363.85,185.95L440,186" style="vector-effect: non-scaling-stroke; fill: none; stroke: rgb(0, 0, 0); stroke-opacity: 1; stroke-width: 1px; opacity: 1;"/></g><g class="points"/><g class="text"/></g><g class="trace scatter tracee9e20f" style="stroke-miterlimit: 2;"><g class="fills"><g><path class="js-fill" d="M0,185.96L25.38,185.99L33.85,184.2L42.31,182.45L50.77,182.99L59.23,178.55L67.69,184.61L76.15,183.77L84.62,185.4L101.54,155.42L110,149.74L118.46,140.76L126.92,121.59L135.38,64.31L143.85,78.54L152.31,84.07L160.77,88.53L169.23,67.77L177.69,6.64L186.15,48.4L194.62,38.26L203.08,-2.63L211.54,40.77L228.46,-131.52L236.92,-23.32L245.38,45.11L253.85,76.62L262.31,63.89L270.77,42.1L279.23,87.79L287.69,152.15L296.15,66.86L304.62,33.86L313.08,95.99L321.54,17.17L330,23.94L338.46,126.2L346.92,156.7L355.38,177.25L363.85,183.49L372.31,185.95L440,186L440,186L372.31,185.96L363.85,184.26L355.38,178L346.92,163.92L338.46,140.78L330,100.61L321.54,52.58L313.08,136.09L304.62,105.21L296.15,114.94L287.69,163.35L279.23,114.47L270.77,94.23L262.31,128.7L253.85,131.1L245.38,102.31L236.92,87.82L228.46,34.05L220,76.17L211.54,72.94L203.08,86.56L194.62,86.75L186.15,109.64L177.69,85.34L160.77,129.5L152.31,122.96L143.85,97.1L135.38,104.83L126.92,156.49L118.46,160.48L110,170.69L101.54,173.66L93.08,178.53L84.62,185.48L76.15,184.54L67.69,184.82L59.23,181.91L50.77,184.2L33.85,185.06L25.38,185.99L0,185.97Z" style="fill: rgb(136, 86, 167); fill-opacity: 1; stroke-width: 0;"/></g></g><g class="errorbars"/><g class="lines"><path class="js-line" d="M0,185.97L25.38,185.99L33.85,185.06L50.77,184.2L59.23,181.91L67.69,184.82L76.15,184.54L84.62,185.48L93.08,178.53L101.54,173.66L110,170.69L118.46,160.48L126.92,156.49L135.38,104.83L143.85,97.1L152.31,122.96L160.77,129.5L177.69,85.34L186.15,109.64L194.62,86.75L203.08,86.56L211.54,72.94L220,76.17L228.46,34.05L236.92,87.82L245.38,102.31L253.85,131.1L262.31,128.7L270.77,94.23L279.23,114.47L287.69,163.35L296.15,114.94L304.62,105.21L313.08,136.09L321.54,52.58L330,100.61L338.46,140.78L346.92,163.92L355.38,178L363.85,184.26L372.31,185.96L440,186" style="vector-effect: non-scaling-stroke; fill: none; stroke: rgb(0, 0, 0); stroke-opacity: 1; stroke-width: 0.5px; opacity: 1;"/></g><g class="points"/><g class="text"/></g><g class="trace scatter traced8d7ab" style="stroke-miterlimit: 2;"><g class="fills"/><g class="errorbars"/><g class="lines"><path class="js-line" d="M0,185.96L25.38,185.99L33.85,184.2L42.31,182.45L50.77,182.99L59.23,178.55L67.69,184.61L76.15,183.77L84.62,185.4L101.54,155.42L110,149.74L118.46,140.76L126.92,121.59L135.38,64.31L143.85,78.54L152.31,84.07L160.77,88.53L169.23,67.77L177.69,6.64L186.15,48.4L194.62,38.26L203.08,-2.63L211.54,40.77L228.46,-131.52L236.92,-23.32L245.38,45.11L253.85,76.62L262.31,63.89L270.77,42.1L279.23,87.79L287.69,152.15L296.15,66.86L304.62,33.86L313.08,95.99L321.54,17.17L330,23.94L338.46,126.2L346.92,156.7L355.38,177.25L363.85,183.49L372.31,185.95L440,186" style="vector-effect: non-scaling-stroke; fill: none; stroke: rgb(0, 0, 0); stroke-opacity: 1; stroke-width: 0.25px; opacity: 1;"/></g><g class="points"/><g class="text"/></g><g class="trace scatter traced844f1" style="stroke-miterlimit: 2; opacity: 1;"><g class="fills"/><g class="errorbars"/><g class="lines"/><g class="points"><path class="point" transform="translate(169.23,119.78)" d="M4,0A4,4 0 1,1 0,-4A4,4 0 0,1 4,0ZM0,0.5L0.5,0L0,-0.5L-0.5,0Z" style="opacity: 1; stroke: rgb(0, 0, 0); stroke-opacity: 1; stroke-width: 1px; fill: none;"/><path class="point" transform="translate(177.69,152.52)" d="M4,0A4,4 0 1,1 0,-4A4,4 0 0,1 4,0ZM0,0.5L0.5,0L0,-0.5L-0.5,0Z" style="opacity: 1; stroke: rgb(0, 0, 0); stroke-opacity: 1; stroke-width: 1px; fill: none;"/><path class="point" transform="translate(186.15,52.08)" d="M4,0A4,4 0 1,1 0,-4A4,4 0 0,1 4,0ZM0,0.5L0.5,0L0,-0.5L-0.5,0Z" style="opacity: 1; stroke: rgb(0, 0, 0); stroke-opacity: 1; stroke-width: 1px; fill: none;"/><path class="point" transform="translate(194.62,52.08)" d="M4,0A4,4 0 1,1 0,-4A4,4 0 0,1 4,0ZM0,0.5L0.5,0L0,-0.5L-0.5,0Z" style="opacity: 1; stroke: rgb(0, 0, 0); stroke-opacity: 1; stroke-width: 1px; fill: none;"/></g><g class="text"/></g></g></g><g class="overplot"/><path class="xlines-above crisp" d="M0,0" style="fill: none;"/><path class="ylines-above crisp" d="M0,0" style="fill: none;"/><g class="overlines-above"/><g class="xaxislayer-above"/><g class="yaxislayer-above"><g class="ytick"><text text-anchor="end" x="79" y="4.199999999999999" transform="translate(0,286)" style="font-family: 'Open Sans', verdana, arial, sans-serif; font-size: 12px; fill: rgb(42, 63, 95); fill-opacity: 1; white-space: pre; opacity: 1;">0</text></g><g class="ytick"><text text-anchor="end" x="79" y="4.199999999999999" style="font-family: 'Open Sans', verdana, arial, sans-serif; font-size: 12px; fill: rgb(42, 63, 95); fill-opacity: 1; white-space: pre; opacity: 1;" transform="translate(0,248.8)">50</text></g><g class="ytick"><text text-anchor="end" x="79" y="4.199999999999999" style="font-family: 'Open Sans', verdana, arial, sans-serif; font-size: 12px; fill: rgb(42, 63, 95); fill-opacity: 1; white-space: pre; opacity: 1;" transform="translate(0,211.6)">100</text></g><g class="ytick"><text text-anchor="end" x="79" y="4.199999999999999" style="font-family: 'Open Sans', verdana, arial, sans-serif; font-size: 12px; fill: rgb(42, 63, 95); fill-opacity: 1; white-space: pre; opacity: 1;" transform="translate(0,174.4)">150</text></g><g class="ytick"><text text-anchor="end" x="79" y="4.199999999999999" style="font-family: 'Open Sans', verdana, arial, sans-serif; font-size: 12px; fill: rgb(42, 63, 95); fill-opacity: 1; white-space: pre; opacity: 1;" transform="translate(0,137.2)">200</text></g><g class="ytick"><text text-anchor="end" x="79" y="4.199999999999999" style="font-family: 'Open Sans', verdana, arial, sans-serif; font-size: 12px; fill: rgb(42, 63, 95); fill-opacity: 1; white-space: pre; opacity: 1;" transform="translate(0,100)">250</text></g></g><g class="overaxes-above"/></g><g class="subplot x2y2"><g class="layer-subplot"><g class="shapelayer"/><g class="imagelayer"/></g><g class="minor-gridlayer"><g class="x2"/><g class="y2"/></g><g class="gridlayer"><g class="x2"><path class="x2grid crisp" transform="translate(156.15,0)" d="M0,317.00000000000006v185.99999999999997" style="stroke: rgb(255, 255, 255); stroke-opacity: 1; stroke-width: 1px;"/><path class="x2grid crisp" transform="translate(240.77,0)" d="M0,317.00000000000006v185.99999999999997" style="stroke: rgb(255, 255, 255); stroke-opacity: 1; stroke-width: 1px;"/><path class="x2grid crisp" transform="translate(325.38,0)" d="M0,317.00000000000006v185.99999999999997" style="stroke: rgb(255, 255, 255); stroke-opacity: 1; stroke-width: 1px;"/><path class="x2grid crisp" transform="translate(410,0)" d="M0,317.00000000000006v185.99999999999997" style="stroke: rgb(255, 255, 255); stroke-opacity: 1; stroke-width: 1px;"/><path class="x2grid crisp" transform="translate(494.62,0)" d="M0,317.00000000000006v185.99999999999997" style="stroke: rgb(255, 255, 255); stroke-opacity: 1; stroke-width: 1px;"/></g><g class="y2"><path class="y2grid crisp" transform="translate(0,472.00000000000006)" d="M80,0h440" style="stroke: rgb(255, 255, 255); stroke-opacity: 1; stroke-width: 1px;"/><path class="y2grid crisp" transform="translate(0,410.00000000000006)" d="M80,0h440" style="stroke: rgb(255, 255, 255); stroke-opacity: 1; stroke-width: 1px;"/><path class="y2grid crisp" transform="translate(0,348.00000000000006)" d="M80,0h440" style="stroke: rgb(255, 255, 255); stroke-opacity: 1; stroke-width: 1px;"/></g></g><g class="zerolinelayer"/><path class="xlines-below"/><path class="ylines-below"/><g class="overlines-below"/><g class="xaxislayer-below"/><g class="yaxislayer-below"/><g class="overaxes-below"/><g class="plot" transform="translate(80,317.00000000000006)" clip-path="url(#clip380d29x2y2plot)"><g class="scatterlayer mlayer"><g class="trace scatter trace70b33f" style="stroke-miterlimit: 2;"><g class="fills"><g><path class="js-fill" d="M0,144.19L8.46,148.84L16.92,139.86L25.38,136.67L33.85,131.82L59.23,108L67.69,95.78L76.15,98.57L84.62,81.75L93.08,71.49L101.54,81.36L110,89.59L118.46,86.39L126.92,85.18L135.38,85.21L143.85,87.21L152.31,77.65L160.77,82.07L169.23,84.77L186.15,83.77L194.62,92.77L203.08,90.1L211.54,89.35L220,94.44L228.46,95.55L236.92,89.09L245.38,90.33L253.85,84.52L262.31,84.41L270.77,92.39L279.23,90.37L287.69,88.72L296.15,93.44L304.62,91.51L313.08,93.48L321.54,91.53L330,95.15L338.46,93.81L346.92,90.12L355.38,89.15L363.85,95.47L372.31,98.15L380.77,106.44L406.15,125.79L414.62,130.18L423.08,140.13L431.54,140.7L440,145.59L440,151.28L431.54,150.01L423.08,161.86L414.62,136.93L406.15,133.9L397.69,133.81L389.23,118.14L380.77,114.58L372.31,102.6L363.85,101.52L355.38,92.29L346.92,96.98L338.46,108.78L330,109.5L321.54,102.13L313.08,98.49L304.62,98.59L296.15,108.85L287.69,98.61L279.23,106.58L270.77,105.87L262.31,99.36L253.85,91.93L245.38,98.1L236.92,107.67L228.46,111.33L220,103.57L211.54,100.41L203.08,99.92L194.62,102.46L186.15,91.69L177.69,92.78L169.23,97.4L160.77,86.86L152.31,83.07L143.85,100.32L135.38,104.13L126.92,95.08L118.46,93.92L110,104.55L101.54,97.46L93.08,86.65L84.62,101.97L67.69,112.22L59.23,122.2L50.77,138.2L42.31,135.35L33.85,150.82L25.38,139.93L16.92,147.81L8.46,161.26L0,164.4Z" style="fill: rgb(145, 191, 219); fill-opacity: 1; stroke-width: 0;"/></g></g><g class="errorbars"/><g class="lines"><path class="js-line" d="M0,164.4L8.46,161.26L16.92,147.81L25.38,139.93L33.85,150.82L42.31,135.35L50.77,138.2L59.23,122.2L67.69,112.22L84.62,101.97L93.08,86.65L101.54,97.46L110,104.55L118.46,93.92L126.92,95.08L135.38,104.13L143.85,100.32L152.31,83.07L160.77,86.86L169.23,97.4L177.69,92.78L186.15,91.69L194.62,102.46L203.08,99.92L211.54,100.41L220,103.57L228.46,111.33L236.92,107.67L245.38,98.1L253.85,91.93L262.31,99.36L270.77,105.87L279.23,106.58L287.69,98.61L296.15,108.85L304.62,98.59L313.08,98.49L321.54,102.13L330,109.5L338.46,108.78L346.92,96.98L355.38,92.29L363.85,101.52L372.31,102.6L380.77,114.58L389.23,118.14L397.69,133.81L406.15,133.9L414.62,136.93L423.08,161.86L431.54,150.01L440,151.28" style="vector-effect: non-scaling-stroke; fill: none; stroke: rgb(0, 0, 0); stroke-opacity: 1; stroke-width: 0.25px; opacity: 1;"/></g><g class="points"/><g class="text"/></g><g class="trace scatter traceef4d89" style="stroke-miterlimit: 2;"><g class="fills"><g><path class="js-fill" d="M0,139.63L8.46,142.77L16.92,132.55L25.38,132.79L33.85,125.91L42.31,116.16L50.77,108.99L59.23,100.8L67.69,86.93L76.15,81.9L84.62,75.94L93.08,66.54L101.54,72.43L110,75.91L118.46,76.89L126.92,80.83L135.38,78.47L143.85,80.73L152.31,74.89L160.77,77.05L169.23,75.48L177.69,77.71L186.15,78.78L194.62,82.93L203.08,85.48L211.54,85.77L220,87.8L228.46,85.76L236.92,79.46L245.38,82.22L253.85,81.5L262.31,77.19L270.77,82.8L279.23,83.58L287.69,85.17L296.15,83.02L304.62,87.07L321.54,88.01L330,80.95L338.46,80.48L346.92,85.82L355.38,87.7L363.85,91.99L372.31,96.09L380.77,103.91L389.23,109.95L397.69,113.53L406.15,120.62L414.62,124.88L423.08,129.4L431.54,136.82L440,133.3L440,145.59L431.54,140.7L423.08,140.13L414.62,130.18L406.15,125.79L380.77,106.44L372.31,98.15L363.85,95.47L355.38,89.15L346.92,90.12L338.46,93.81L330,95.15L321.54,91.53L313.08,93.48L304.62,91.51L296.15,93.44L287.69,88.72L279.23,90.37L270.77,92.39L262.31,84.41L253.85,84.52L245.38,90.33L236.92,89.09L228.46,95.55L220,94.44L211.54,89.35L203.08,90.1L194.62,92.77L186.15,83.77L169.23,84.77L160.77,82.07L152.31,77.65L143.85,87.21L135.38,85.21L126.92,85.18L118.46,86.39L110,89.59L101.54,81.36L93.08,71.49L84.62,81.75L76.15,98.57L67.69,95.78L59.23,108L33.85,131.82L25.38,136.67L16.92,139.86L8.46,148.84L0,144.19Z" style="fill: rgb(255, 255, 191); fill-opacity: 1; stroke-width: 0;"/></g></g><g class="errorbars"/><g class="lines"><path class="js-line" d="M0,144.19L8.46,148.84L16.92,139.86L25.38,136.67L33.85,131.82L59.23,108L67.69,95.78L76.15,98.57L84.62,81.75L93.08,71.49L101.54,81.36L110,89.59L118.46,86.39L126.92,85.18L135.38,85.21L143.85,87.21L152.31,77.65L160.77,82.07L169.23,84.77L186.15,83.77L194.62,92.77L203.08,90.1L211.54,89.35L220,94.44L228.46,95.55L236.92,89.09L245.38,90.33L253.85,84.52L262.31,84.41L270.77,92.39L279.23,90.37L287.69,88.72L296.15,93.44L304.62,91.51L313.08,93.48L321.54,91.53L330,95.15L338.46,93.81L346.92,90.12L355.38,89.15L363.85,95.47L372.31,98.15L380.77,106.44L406.15,125.79L414.62,130.18L423.08,140.13L431.54,140.7L440,145.59" style="vector-effect: non-scaling-stroke; fill: none; stroke: rgb(0, 0, 0); stroke-opacity: 1; stroke-width: 0.5px; opacity: 1;"/></g><g class="points"/><g class="text"/></g><g class="trace scatter traceda4b5b" style="stroke-miterlimit: 2;"><g class="fills"><g><path class="js-fill" d="M0,130.61L8.46,136.02L16.92,126.8L25.38,128.01L33.85,117.27L42.31,109.35L50.77,97.48L59.23,93L67.69,83.76L76.15,73.42L84.62,67.49L93.08,59.05L101.54,55.33L110,62.03L118.46,66.34L126.92,69.71L135.38,68.99L143.85,75.65L152.31,71.78L160.77,68.44L169.23,72.33L177.69,72.72L186.15,71.53L194.62,75.7L203.08,78.86L211.54,81.86L220,80.3L236.92,73.69L245.38,78.12L253.85,73.83L262.31,74.19L270.77,74.48L279.23,79.28L287.69,78.47L296.15,79.57L304.62,84.26L313.08,79.58L321.54,83.8L330,73.99L338.46,75.01L346.92,78.09L355.38,86.71L363.85,89.68L372.31,92.13L380.77,99.87L389.23,104.76L397.69,108.55L406.15,115.12L414.62,120.25L423.08,123.15L431.54,127.05L440,123.39L440,133.3L431.54,136.82L423.08,129.4L414.62,124.88L406.15,120.62L397.69,113.53L389.23,109.95L380.77,103.91L372.31,96.09L363.85,91.99L355.38,87.7L346.92,85.82L338.46,80.48L330,80.95L321.54,88.01L304.62,87.07L296.15,83.02L287.69,85.17L279.23,83.58L270.77,82.8L262.31,77.19L253.85,81.5L245.38,82.22L236.92,79.46L228.46,85.76L220,87.8L211.54,85.77L203.08,85.48L194.62,82.93L186.15,78.78L177.69,77.71L169.23,75.48L160.77,77.05L152.31,74.89L143.85,80.73L135.38,78.47L126.92,80.83L118.46,76.89L110,75.91L101.54,72.43L93.08,66.54L84.62,75.94L76.15,81.9L67.69,86.93L59.23,100.8L50.77,108.99L42.31,116.16L33.85,125.91L25.38,132.79L16.92,132.55L8.46,142.77L0,139.63Z" style="fill: rgb(255, 255, 191); fill-opacity: 1; stroke-width: 0;"/></g></g><g class="errorbars"/><g class="lines"><path class="js-line" d="M0,139.63L8.46,142.77L16.92,132.55L25.38,132.79L33.85,125.91L42.31,116.16L50.77,108.99L59.23,100.8L67.69,86.93L76.15,81.9L84.62,75.94L93.08,66.54L101.54,72.43L110,75.91L118.46,76.89L126.92,80.83L135.38,78.47L143.85,80.73L152.31,74.89L160.77,77.05L169.23,75.48L177.69,77.71L186.15,78.78L194.62,82.93L203.08,85.48L211.54,85.77L220,87.8L228.46,85.76L236.92,79.46L245.38,82.22L253.85,81.5L262.31,77.19L270.77,82.8L279.23,83.58L287.69,85.17L296.15,83.02L304.62,87.07L321.54,88.01L330,80.95L338.46,80.48L346.92,85.82L355.38,87.7L363.85,91.99L372.31,96.09L380.77,103.91L389.23,109.95L397.69,113.53L406.15,120.62L414.62,124.88L423.08,129.4L431.54,136.82L440,133.3" style="vector-effect: non-scaling-stroke; fill: none; stroke: rgb(0, 0, 0); stroke-opacity: 1; stroke-width: 1px; opacity: 1;"/></g><g class="points"/><g class="text"/></g><g class="trace scatter tracea35f51" style="stroke-miterlimit: 2;"><g class="fills"><g><path class="js-fill" d="M0,116.64L8.46,124.41L16.92,120.17L25.38,121.47L33.85,110.04L42.31,98.71L50.77,86.04L59.23,76.47L67.69,68.68L76.15,61.98L84.62,52.78L93.08,54.44L101.54,40.73L110,45.26L118.46,42.61L126.92,51.45L135.38,52.21L143.85,64.99L152.31,66.93L160.77,56.72L169.23,56.61L177.69,63.31L186.15,64.92L194.62,64.4L203.08,67.51L211.54,73.51L220,61.89L228.46,72.75L236.92,64.4L245.38,65.45L253.85,62.2L262.31,62.53L270.77,68.02L279.23,64.45L287.69,66.03L296.15,69.41L304.62,75.8L313.08,64.35L321.54,74.65L330,65.61L338.46,65.87L346.92,61.73L355.38,85.03L363.85,83.01L372.31,87.18L389.23,99.51L397.69,103.2L406.15,106.83L414.62,113.05L423.08,118L431.54,121.58L440,119.72L440,123.39L431.54,127.05L423.08,123.15L414.62,120.25L406.15,115.12L397.69,108.55L389.23,104.76L380.77,99.87L372.31,92.13L363.85,89.68L355.38,86.71L346.92,78.09L338.46,75.01L330,73.99L321.54,83.8L313.08,79.58L304.62,84.26L296.15,79.57L287.69,78.47L279.23,79.28L270.77,74.48L262.31,74.19L253.85,73.83L245.38,78.12L236.92,73.69L220,80.3L211.54,81.86L203.08,78.86L194.62,75.7L186.15,71.53L177.69,72.72L169.23,72.33L160.77,68.44L152.31,71.78L143.85,75.65L135.38,68.99L126.92,69.71L118.46,66.34L110,62.03L101.54,55.33L93.08,59.05L84.62,67.49L76.15,73.42L67.69,83.76L59.23,93L50.77,97.48L42.31,109.35L33.85,117.27L25.38,128.01L16.92,126.8L8.46,136.02L0,130.61Z" style="fill: rgb(252, 141, 89); fill-opacity: 1; stroke-width: 0;"/></g></g><g class="errorbars"/><g class="lines"><path class="js-line" d="M0,130.61L8.46,136.02L16.92,126.8L25.38,128.01L33.85,117.27L42.31,109.35L50.77,97.48L59.23,93L67.69,83.76L76.15,73.42L84.62,67.49L93.08,59.05L101.54,55.33L110,62.03L118.46,66.34L126.92,69.71L135.38,68.99L143.85,75.65L152.31,71.78L160.77,68.44L169.23,72.33L177.69,72.72L186.15,71.53L194.62,75.7L203.08,78.86L211.54,81.86L220,80.3L236.92,73.69L245.38,78.12L253.85,73.83L262.31,74.19L270.77,74.48L279.23,79.28L287.69,78.47L296.15,79.57L304.62,84.26L313.08,79.58L321.54,83.8L330,73.99L338.46,75.01L346.92,78.09L355.38,86.71L363.85,89.68L372.31,92.13L380.77,99.87L389.23,104.76L397.69,108.55L406.15,115.12L414.62,120.25L423.08,123.15L431.54,127.05L440,123.39" style="vector-effect: non-scaling-stroke; fill: none; stroke: rgb(0, 0, 0); stroke-opacity: 1; stroke-width: 0.5px; opacity: 1;"/></g><g class="points"/><g class="text"/></g><g class="trace scatter trace8b700b" style="stroke-miterlimit: 2;"><g class="fills"/><g class="errorbars"/><g class="lines"><path class="js-line" d="M0,116.64L8.46,124.41L16.92,120.17L25.38,121.47L33.85,110.04L42.31,98.71L50.77,86.04L59.23,76.47L67.69,68.68L76.15,61.98L84.62,52.78L93.08,54.44L101.54,40.73L110,45.26L118.46,42.61L126.92,51.45L135.38,52.21L143.85,64.99L152.31,66.93L160.77,56.72L169.23,56.61L177.69,63.31L186.15,64.92L194.62,64.4L203.08,67.51L211.54,73.51L220,61.89L228.46,72.75L236.92,64.4L245.38,65.45L253.85,62.2L262.31,62.53L270.77,68.02L279.23,64.45L287.69,66.03L296.15,69.41L304.62,75.8L313.08,64.35L321.54,74.65L330,65.61L338.46,65.87L346.92,61.73L355.38,85.03L363.85,83.01L372.31,87.18L389.23,99.51L397.69,103.2L406.15,106.83L414.62,113.05L423.08,118L431.54,121.58L440,119.72" style="vector-effect: non-scaling-stroke; fill: none; stroke: rgb(0, 0, 0); stroke-opacity: 1; stroke-width: 0.25px; opacity: 1;"/></g><g class="points"/><g class="text"/></g><g class="trace scatter trace6d8ea4" style="stroke-miterlimit: 2; opacity: 1;"><g class="fills"/><g class="errorbars"/><g class="lines"/><g class="points"><path class="point" transform="translate(169.23,80.6)" d="M4,0A4,4 0 1,1 0,-4A4,4 0 0,1 4,0ZM0,0.5L0.5,0L0,-0.5L-0.5,0Z" style="opacity: 1; stroke: rgb(0, 0, 0); stroke-opacity: 1; stroke-width: 1px; fill: none;"/><path class="point" transform="translate(177.69,74.4)" d="M4,0A4,4 0 1,1 0,-4A4,4 0 0,1 4,0ZM0,0.5L0.5,0L0,-0.5L-0.5,0Z" style="opacity: 1; stroke: rgb(0, 0, 0); stroke-opacity: 1; stroke-width: 1px; fill: none;"/><path class="point" transform="translate(186.15,74.4)" d="M4,0A4,4 0 1,1 0,-4A4,4 0 0,1 4,0ZM0,0.5L0.5,0L0,-0.5L-0.5,0Z" style="opacity: 1; stroke: rgb(0, 0, 0); stroke-opacity: 1; stroke-width: 1px; fill: none;"/><path class="point" transform="translate(194.62,74.4)" d="M4,0A4,4 0 1,1 0,-4A4,4 0 0,1 4,0ZM0,0.5L0.5,0L0,-0.5L-0.5,0Z" style="opacity: 1; stroke: rgb(0, 0, 0); stroke-opacity: 1; stroke-width: 1px; fill: none;"/></g><g class="text"/></g></g></g><g class="overplot"/><path class="xlines-above crisp" d="M0,0" style="fill: none;"/><path class="ylines-above crisp" d="M0,0" style="fill: none;"/><g class="overlines-above"/><g class="xaxislayer-above"/><g class="yaxislayer-above"><g class="y2tick"><text text-anchor="end" x="79" y="4.199999999999999" transform="translate(0,472.00000000000006)" style="font-family: 'Open Sans', verdana, arial, sans-serif; font-size: 12px; fill: rgb(42, 63, 95); fill-opacity: 1; white-space: pre; opacity: 1;">20</text></g><g class="y2tick"><text text-anchor="end" x="79" y="4.199999999999999" style="font-family: 'Open Sans', verdana, arial, sans-serif; font-size: 12px; fill: rgb(42, 63, 95); fill-opacity: 1; white-space: pre; opacity: 1;" transform="translate(0,410.00000000000006)">30</text></g><g class="y2tick"><text text-anchor="end" x="79" y="4.199999999999999" style="font-family: 'Open Sans', verdana, arial, sans-serif; font-size: 12px; fill: rgb(42, 63, 95); fill-opacity: 1; white-space: pre; opacity: 1;" transform="translate(0,348.00000000000006)">40</text></g></g><g class="overaxes-above"/></g><g class="subplot x3y3"><g class="layer-subplot"><g class="shapelayer"/><g class="imagelayer"/></g><g class="minor-gridlayer"><g class="x3"/><g class="y3"/></g><g class="gridlayer"><g class="x3"><path class="x3grid crisp" transform="translate(156.15,0)" d="M0,534v186" style="stroke: rgb(255, 255, 255); stroke-opacity: 1; stroke-width: 1px;"/><path class="x3grid crisp" transform="translate(240.77,0)" d="M0,534v186" style="stroke: rgb(255, 255, 255); stroke-opacity: 1; stroke-width: 1px;"/><path class="x3grid crisp" transform="translate(325.38,0)" d="M0,534v186" style="stroke: rgb(255, 255, 255); stroke-opacity: 1; stroke-width: 1px;"/><path class="x3grid crisp" transform="translate(410,0)" d="M0,534v186" style="stroke: rgb(255, 255, 255); stroke-opacity: 1; stroke-width: 1px;"/><path class="x3grid crisp" transform="translate(494.62,0)" d="M0,534v186" style="stroke: rgb(255, 255, 255); stroke-opacity: 1; stroke-width: 1px;"/></g><g class="y3"><path class="y3grid crisp" transform="translate(0,682.8)" d="M80,0h440" style="stroke: rgb(255, 255, 255); stroke-opacity: 1; stroke-width: 1px;"/><path class="y3grid crisp" transform="translate(0,645.6)" d="M80,0h440" style="stroke: rgb(255, 255, 255); stroke-opacity: 1; stroke-width: 1px;"/><path class="y3grid crisp" transform="translate(0,608.4)" d="M80,0h440" style="stroke: rgb(255, 255, 255); stroke-opacity: 1; stroke-width: 1px;"/><path class="y3grid crisp" transform="translate(0,571.2)" d="M80,0h440" style="stroke: rgb(255, 255, 255); stroke-opacity: 1; stroke-width: 1px;"/></g></g><g class="zerolinelayer"/><path class="xlines-below"/><path class="ylines-below"/><g class="overlines-below"/><g class="xaxislayer-below"/><g class="yaxislayer-below"/><g class="overaxes-below"/><g class="plot" transform="translate(80,534)" clip-path="url(#clip380d29x3y3plot)"><g class="scatterlayer mlayer"><g class="trace scatter traceba65a9" style="stroke-miterlimit: 2;"><g class="fills"><g><path class="js-fill" d="M0,127.75L8.46,139.14L16.92,132.48L25.38,128.49L33.85,123.51L42.31,116.96L50.77,114.81L59.23,103.77L67.69,95.12L76.15,87.99L84.62,86.35L93.08,73.45L101.54,69.49L110,69.81L118.46,66.88L126.92,58.66L135.38,58.55L143.85,61.35L152.31,51.43L160.77,49.75L169.23,45.26L177.69,44.32L186.15,41.6L203.08,38L211.54,37.84L220,36.53L228.46,36.52L245.38,37.51L253.85,36.08L262.31,35.07L270.77,37.05L279.23,38.53L287.69,36.67L296.15,39.54L304.62,40.79L313.08,40.59L321.54,42.09L330,45L338.46,48.76L346.92,53.57L355.38,57.41L363.85,67.3L372.31,73.35L389.23,89.37L397.69,99.78L414.62,112.76L423.08,125.93L431.54,126.11L440,136.48L440,153.53L431.54,153.14L423.08,141.59L414.62,133.65L406.15,118.15L397.69,112.81L389.23,103.16L380.77,87.4L372.31,90.37L363.85,74.9L355.38,64.61L346.92,62.86L338.46,57.85L330,50.69L321.54,46.55L313.08,49.02L304.62,44.02L296.15,46.24L287.69,39.31L279.23,43.22L270.77,42.96L262.31,41.92L253.85,39.16L245.38,40.1L236.92,40.56L228.46,40.17L220,42.94L211.54,40.52L203.08,39.79L186.15,43.96L177.69,51.94L169.23,50.09L160.77,61.54L152.31,55.77L143.85,72.41L135.38,62.75L126.92,58.97L118.46,78.15L110,80.37L101.54,86.84L93.08,81.58L84.62,98.02L76.15,99.76L67.69,121.33L59.23,121.33L50.77,128.24L42.31,131.73L33.85,136.7L25.38,137.11L16.92,156.85L8.46,158.5L0,140.06Z" style="fill: rgb(90, 180, 172); fill-opacity: 1; stroke-width: 0;"/></g></g><g class="errorbars"/><g class="lines"><path class="js-line" d="M0,140.06L8.46,158.5L16.92,156.85L25.38,137.11L33.85,136.7L42.31,131.73L50.77,128.24L59.23,121.33L67.69,121.33L76.15,99.76L84.62,98.02L93.08,81.58L101.54,86.84L110,80.37L118.46,78.15L126.92,58.97L135.38,62.75L143.85,72.41L152.31,55.77L160.77,61.54L169.23,50.09L177.69,51.94L186.15,43.96L203.08,39.79L211.54,40.52L220,42.94L228.46,40.17L236.92,40.56L245.38,40.1L253.85,39.16L262.31,41.92L270.77,42.96L279.23,43.22L287.69,39.31L296.15,46.24L304.62,44.02L313.08,49.02L321.54,46.55L330,50.69L338.46,57.85L346.92,62.86L355.38,64.61L363.85,74.9L372.31,90.37L380.77,87.4L389.23,103.16L397.69,112.81L406.15,118.15L414.62,133.65L423.08,141.59L431.54,153.14L440,153.53" style="vector-effect: non-scaling-stroke; fill: none; stroke: rgb(0, 0, 0); stroke-opacity: 1; stroke-width: 0.25px; opacity: 1;"/></g><g class="points"/><g class="text"/></g><g class="trace scatter trace95f8c9" style="stroke-miterlimit: 2;"><g class="fills"><g><path class="js-fill" d="M0,122.67L8.46,128.3L16.92,121.02L25.38,118.93L33.85,118.54L42.31,107.63L50.77,103.37L59.23,95.84L67.69,84.82L76.15,81.89L84.62,71.29L93.08,64.93L101.54,62.51L110,61.73L118.46,62.62L126.92,56.47L135.38,54.96L143.85,54.97L152.31,48.01L160.77,43.94L169.23,43.14L177.69,41.85L186.15,37.81L194.62,37.14L203.08,35.59L236.92,34.6L245.38,35.63L262.31,31.94L270.77,34.11L279.23,34.39L287.69,35.44L296.15,36.35L304.62,38.83L313.08,38.47L321.54,38.98L330,40.89L338.46,40.89L355.38,54.24L363.85,63.05L372.31,67.57L380.77,76.91L397.69,90.28L406.15,100.28L414.62,102.25L423.08,109.75L431.54,118.37L440,129.18L440,136.48L431.54,126.11L423.08,125.93L414.62,112.76L397.69,99.78L389.23,89.37L372.31,73.35L363.85,67.3L355.38,57.41L346.92,53.57L338.46,48.76L330,45L321.54,42.09L313.08,40.59L304.62,40.79L296.15,39.54L287.69,36.67L279.23,38.53L270.77,37.05L262.31,35.07L253.85,36.08L245.38,37.51L228.46,36.52L220,36.53L211.54,37.84L203.08,38L186.15,41.6L177.69,44.32L169.23,45.26L160.77,49.75L152.31,51.43L143.85,61.35L135.38,58.55L126.92,58.66L118.46,66.88L110,69.81L101.54,69.49L93.08,73.45L84.62,86.35L76.15,87.99L67.69,95.12L59.23,103.77L50.77,114.81L42.31,116.96L33.85,123.51L25.38,128.49L16.92,132.48L8.46,139.14L0,127.75Z" style="fill: rgb(245, 245, 245); fill-opacity: 1; stroke-width: 0;"/></g></g><g class="errorbars"/><g class="lines"><path class="js-line" d="M0,127.75L8.46,139.14L16.92,132.48L25.38,128.49L33.85,123.51L42.31,116.96L50.77,114.81L59.23,103.77L67.69,95.12L76.15,87.99L84.62,86.35L93.08,73.45L101.54,69.49L110,69.81L118.46,66.88L126.92,58.66L135.38,58.55L143.85,61.35L152.31,51.43L160.77,49.75L169.23,45.26L177.69,44.32L186.15,41.6L203.08,38L211.54,37.84L220,36.53L228.46,36.52L245.38,37.51L253.85,36.08L262.31,35.07L270.77,37.05L279.23,38.53L287.69,36.67L296.15,39.54L304.62,40.79L313.08,40.59L321.54,42.09L330,45L338.46,48.76L346.92,53.57L355.38,57.41L363.85,67.3L372.31,73.35L389.23,89.37L397.69,99.78L414.62,112.76L423.08,125.93L431.54,126.11L440,136.48" style="vector-effect: non-scaling-stroke; fill: none; stroke: rgb(0, 0, 0); stroke-opacity: 1; stroke-width: 0.5px; opacity: 1;"/></g><g class="points"/><g class="text"/></g><g class="trace scatter traceba8088" style="stroke-miterlimit: 2;"><g class="fills"><g><path class="js-fill" d="M0,113.94L8.46,118.71L16.92,114.05L25.38,114.57L33.85,110.1L42.31,101.52L50.77,96.31L67.69,76.34L76.15,73.68L84.62,66.61L93.08,60.53L101.54,51.57L110,55.45L118.46,51.75L126.92,53.64L135.38,52.6L143.85,50.7L152.31,44.92L160.77,41.74L177.69,37.3L186.15,35.62L194.62,36.27L203.08,34.31L220,31.54L228.46,32.47L236.92,32.33L245.38,33.44L253.85,30.66L262.31,30.12L270.77,30.46L279.23,33.19L296.15,33.56L304.62,35.93L313.08,34.85L321.54,37.78L338.46,36.56L346.92,43.73L355.38,51.88L363.85,58.71L372.31,61.6L380.77,73.42L389.23,77.82L397.69,84.19L406.15,92.84L414.62,97.68L423.08,96.98L431.54,106.99L440,118.13L440,129.18L431.54,118.37L423.08,109.75L414.62,102.25L406.15,100.28L397.69,90.28L380.77,76.91L372.31,67.57L363.85,63.05L355.38,54.24L338.46,40.89L330,40.89L321.54,38.98L313.08,38.47L304.62,38.83L296.15,36.35L287.69,35.44L279.23,34.39L270.77,34.11L262.31,31.94L245.38,35.63L236.92,34.6L203.08,35.59L194.62,37.14L186.15,37.81L177.69,41.85L169.23,43.14L160.77,43.94L152.31,48.01L143.85,54.97L135.38,54.96L126.92,56.47L118.46,62.62L110,61.73L101.54,62.51L93.08,64.93L84.62,71.29L76.15,81.89L67.69,84.82L59.23,95.84L50.77,103.37L42.31,107.63L33.85,118.54L25.38,118.93L16.92,121.02L8.46,128.3L0,122.67Z" style="fill: rgb(245, 245, 245); fill-opacity: 1; stroke-width: 0;"/></g></g><g class="errorbars"/><g class="lines"><path class="js-line" d="M0,122.67L8.46,128.3L16.92,121.02L25.38,118.93L33.85,118.54L42.31,107.63L50.77,103.37L59.23,95.84L67.69,84.82L76.15,81.89L84.62,71.29L93.08,64.93L101.54,62.51L110,61.73L118.46,62.62L126.92,56.47L135.38,54.96L143.85,54.97L152.31,48.01L160.77,43.94L169.23,43.14L177.69,41.85L186.15,37.81L194.62,37.14L203.08,35.59L236.92,34.6L245.38,35.63L262.31,31.94L270.77,34.11L279.23,34.39L287.69,35.44L296.15,36.35L304.62,38.83L313.08,38.47L321.54,38.98L330,40.89L338.46,40.89L355.38,54.24L363.85,63.05L372.31,67.57L380.77,76.91L397.69,90.28L406.15,100.28L414.62,102.25L423.08,109.75L431.54,118.37L440,129.18" style="vector-effect: non-scaling-stroke; fill: none; stroke: rgb(0, 0, 0); stroke-opacity: 1; stroke-width: 1px; opacity: 1;"/></g><g class="points"/><g class="text"/></g><g class="trace scatter tracec31b1a" style="stroke-miterlimit: 2;"><g class="fills"><g><path class="js-fill" d="M0,107.66L8.46,110.29L16.92,101.76L25.38,100.4L33.85,91.07L42.31,92.2L50.77,78.14L59.23,80L67.69,63.6L76.15,52.34L84.62,52.96L93.08,42.37L101.54,39.1L110,42.12L118.46,36.35L126.92,52.75L135.38,45.31L143.85,38.05L152.31,38.15L160.77,34.51L169.23,36.61L186.15,30.55L194.62,33.77L203.08,30.63L211.54,31.66L220,26.58L228.46,27.9L236.92,25.64L245.38,29.05L253.85,24.91L262.31,23.02L270.77,27.16L279.23,25.44L287.69,31.36L296.15,26.59L304.62,30.21L313.08,29.42L321.54,35.31L330,29.09L338.46,32.4L346.92,39.1L355.38,43.93L363.85,51.8L372.31,54.43L380.77,66.01L389.23,72.4L397.69,76.45L423.08,87.01L431.54,99.15L440,103.1L440,118.13L431.54,106.99L423.08,96.98L414.62,97.68L406.15,92.84L397.69,84.19L389.23,77.82L380.77,73.42L372.31,61.6L363.85,58.71L355.38,51.88L346.92,43.73L338.46,36.56L321.54,37.78L313.08,34.85L304.62,35.93L296.15,33.56L279.23,33.19L270.77,30.46L262.31,30.12L253.85,30.66L245.38,33.44L236.92,32.33L228.46,32.47L220,31.54L203.08,34.31L194.62,36.27L186.15,35.62L177.69,37.3L160.77,41.74L152.31,44.92L143.85,50.7L135.38,52.6L126.92,53.64L118.46,51.75L110,55.45L101.54,51.57L93.08,60.53L84.62,66.61L76.15,73.68L67.69,76.34L50.77,96.31L42.31,101.52L33.85,110.1L25.38,114.57L16.92,114.05L8.46,118.71L0,113.94Z" style="fill: rgb(216, 179, 101); fill-opacity: 1; stroke-width: 0;"/></g></g><g class="errorbars"/><g class="lines"><path class="js-line" d="M0,113.94L8.46,118.71L16.92,114.05L25.38,114.57L33.85,110.1L42.31,101.52L50.77,96.31L67.69,76.34L76.15,73.68L84.62,66.61L93.08,60.53L101.54,51.57L110,55.45L118.46,51.75L126.92,53.64L135.38,52.6L143.85,50.7L152.31,44.92L160.77,41.74L177.69,37.3L186.15,35.62L194.62,36.27L203.08,34.31L220,31.54L228.46,32.47L236.92,32.33L245.38,33.44L253.85,30.66L262.31,30.12L270.77,30.46L279.23,33.19L296.15,33.56L304.62,35.93L313.08,34.85L321.54,37.78L338.46,36.56L346.92,43.73L355.38,51.88L363.85,58.71L372.31,61.6L380.77,73.42L389.23,77.82L397.69,84.19L406.15,92.84L414.62,97.68L423.08,96.98L431.54,106.99L440,118.13" style="vector-effect: non-scaling-stroke; fill: none; stroke: rgb(0, 0, 0); stroke-opacity: 1; stroke-width: 0.5px; opacity: 1;"/></g><g class="points"/><g class="text"/></g><g class="trace scatter traced72458" style="stroke-miterlimit: 2;"><g class="fills"/><g class="errorbars"/><g class="lines"><path class="js-line" d="M0,107.66L8.46,110.29L16.92,101.76L25.38,100.4L33.85,91.07L42.31,92.2L50.77,78.14L59.23,80L67.69,63.6L76.15,52.34L84.62,52.96L93.08,42.37L101.54,39.1L110,42.12L118.46,36.35L126.92,52.75L135.38,45.31L143.85,38.05L152.31,38.15L160.77,34.51L169.23,36.61L186.15,30.55L194.62,33.77L203.08,30.63L211.54,31.66L220,26.58L228.46,27.9L236.92,25.64L245.38,29.05L253.85,24.91L262.31,23.02L270.77,27.16L279.23,25.44L287.69,31.36L296.15,26.59L304.62,30.21L313.08,29.42L321.54,35.31L330,29.09L338.46,32.4L346.92,39.1L355.38,43.93L363.85,51.8L372.31,54.43L380.77,66.01L389.23,72.4L397.69,76.45L423.08,87.01L431.54,99.15L440,103.1" style="vector-effect: non-scaling-stroke; fill: none; stroke: rgb(0, 0, 0); stroke-opacity: 1; stroke-width: 0.25px; opacity: 1;"/></g><g class="points"/><g class="text"/></g><g class="trace scatter trace029686" style="stroke-miterlimit: 2; opacity: 1;"><g class="fills"/><g class="errorbars"/><g class="lines"/><g class="points"><path class="point" transform="translate(169.23,44.64)" d="M4,0A4,4 0 1,1 0,-4A4,4 0 0,1 4,0ZM0,0.5L0.5,0L0,-0.5L-0.5,0Z" style="opacity: 1; stroke: rgb(0, 0, 0); stroke-opacity: 1; stroke-width: 1px; fill: none;"/><path class="point" transform="translate(177.69,37.2)" d="M4,0A4,4 0 1,1 0,-4A4,4 0 0,1 4,0ZM0,0.5L0.5,0L0,-0.5L-0.5,0Z" style="opacity: 1; stroke: rgb(0, 0, 0); stroke-opacity: 1; stroke-width: 1px; fill: none;"/><path class="point" transform="translate(186.15,29.76)" d="M4,0A4,4 0 1,1 0,-4A4,4 0 0,1 4,0ZM0,0.5L0.5,0L0,-0.5L-0.5,0Z" style="opacity: 1; stroke: rgb(0, 0, 0); stroke-opacity: 1; stroke-width: 1px; fill: none;"/><path class="point" transform="translate(194.62,29.76)" d="M4,0A4,4 0 1,1 0,-4A4,4 0 0,1 4,0ZM0,0.5L0.5,0L0,-0.5L-0.5,0Z" style="opacity: 1; stroke: rgb(0, 0, 0); stroke-opacity: 1; stroke-width: 1px; fill: none;"/></g><g class="text"/></g></g></g><g class="overplot"/><path class="xlines-above crisp" d="M0,0" style="fill: none;"/><path class="ylines-above crisp" d="M0,0" style="fill: none;"/><g class="overlines-above"/><g class="xaxislayer-above"><g class="x3tick"><text text-anchor="middle" x="0" y="733" transform="translate(156.15,0)" style="font-family: 'Open Sans', verdana, arial, sans-serif; font-size: 12px; fill: rgb(42, 63, 95); fill-opacity: 1; white-space: pre; opacity: 1;">10</text></g><g class="x3tick"><text text-anchor="middle" x="0" y="733" style="font-family: 'Open Sans', verdana, arial, sans-serif; font-size: 12px; fill: rgb(42, 63, 95); fill-opacity: 1; white-space: pre; opacity: 1;" transform="translate(240.77,0)">20</text></g><g class="x3tick"><text text-anchor="middle" x="0" y="733" style="font-family: 'Open Sans', verdana, arial, sans-serif; font-size: 12px; fill: rgb(42, 63, 95); fill-opacity: 1; white-space: pre; opacity: 1;" transform="translate(325.38,0)">30</text></g><g class="x3tick"><text text-anchor="middle" x="0" y="733" style="font-family: 'Open Sans', verdana, arial, sans-serif; font-size: 12px; fill: rgb(42, 63, 95); fill-opacity: 1; white-space: pre; opacity: 1;" transform="translate(410,0)">40</text></g><g class="x3tick"><text text-anchor="middle" x="0" y="733" style="font-family: 'Open Sans', verdana, arial, sans-serif; font-size: 12px; fill: rgb(42, 63, 95); fill-opacity: 1; white-space: pre; opacity: 1;" transform="translate(494.62,0)">50</text></g></g><g class="yaxislayer-above"><g class="y3tick"><text text-anchor="end" x="79" y="4.199999999999999" transform="translate(0,720)" style="font-family: 'Open Sans', verdana, arial, sans-serif; font-size: 12px; fill: rgb(42, 63, 95); fill-opacity: 1; white-space: pre; opacity: 1;">5</text></g><g class="y3tick"><text text-anchor="end" x="79" y="4.199999999999999" style="font-family: 'Open Sans', verdana, arial, sans-serif; font-size: 12px; fill: rgb(42, 63, 95); fill-opacity: 1; white-space: pre; opacity: 1;" transform="translate(0,682.8)">10</text></g><g class="y3tick"><text text-anchor="end" x="79" y="4.199999999999999" style="font-family: 'Open Sans', verdana, arial, sans-serif; font-size: 12px; fill: rgb(42, 63, 95); fill-opacity: 1; white-space: pre; opacity: 1;" transform="translate(0,645.6)">15</text></g><g class="y3tick"><text text-anchor="end" x="79" y="4.199999999999999" style="font-family: 'Open Sans', verdana, arial, sans-serif; font-size: 12px; fill: rgb(42, 63, 95); fill-opacity: 1; white-space: pre; opacity: 1;" transform="translate(0,608.4)">20</text></g><g class="y3tick"><text text-anchor="end" x="79" y="4.199999999999999" style="font-family: 'Open Sans', verdana, arial, sans-serif; font-size: 12px; fill: rgb(42, 63, 95); fill-opacity: 1; white-space: pre; opacity: 1;" transform="translate(0,571.2)">25</text></g><g class="y3tick"><text text-anchor="end" x="79" y="4.199999999999999" style="font-family: 'Open Sans', verdana, arial, sans-serif; font-size: 12px; fill: rgb(42, 63, 95); fill-opacity: 1; white-space: pre; opacity: 1;" transform="translate(0,534)">30</text></g></g><g class="overaxes-above"/></g></g><g class="polarlayer"/><g class="smithlayer"/><g class="ternarylayer"/><g class="geolayer"/><g class="funnelarealayer"/><g class="pielayer"/><g class="iciclelayer"/><g class="treemaplayer"/><g class="sunburstlayer"/><g class="glimages"/><defs id="topdefs-380d29"><g class="clips"/></defs><g class="layer-above"><g class="imagelayer"/><g class="shapelayer"/></g><g class="infolayer"><g class="g-gtitle"><text class="gtitle" x="30" y="50" text-anchor="start" dy="0em" style="font-family: 'Open Sans', verdana, arial, sans-serif; font-size: 17px; fill: rgb(42, 63, 95); opacity: 1; font-weight: normal; white-space: pre;">Climatology and S2S forecast for Kurigram</text></g><g class="g-xtitle"/><g class="g-x2title"/><g class="g-x3title"/><g class="g-ytitle"><text class="ytitle" transform="rotate(-90,34.16875,193)" x="34.16875" y="193" text-anchor="middle" style="font-family: 'Open Sans', verdana, arial, sans-serif; font-size: 14px; fill: rgb(42, 63, 95); opacity: 1; font-weight: normal; white-space: pre;">[mm]</text></g><g class="g-y2title"><text class="y2title" transform="rotate(-90,40.840625,410.00000000000006)" x="40.840625" y="410.00000000000006" text-anchor="middle" style="font-family: 'Open Sans', verdana, arial, sans-serif; font-size: 14px; fill: rgb(42, 63, 95); opacity: 1; font-weight: normal; white-space: pre;">[C]</text></g><g class="g-y3title"><text class="y3title" transform="rotate(-90,40.840625,627)" x="40.840625" y="627" text-anchor="middle" style="font-family: 'Open Sans', verdana, arial, sans-serif; font-size: 14px; fill: rgb(42, 63, 95); opacity: 1; font-weight: normal; white-space: pre;">[C]</text></g><g class="annotation" data-index="0" style="opacity: 1;"><g class="annotation-text-g" transform="rotate(0,300,89.5)"><g class="cursor-pointer" transform="translate(237,79)"><rect class="bg" x="0.5" y="0.5" width="126" height="20" style="stroke-width: 1px; stroke: rgb(0, 0, 0); stroke-opacity: 0; fill: rgb(0, 0, 0); fill-opacity: 0;"/><text class="annotation-text" text-anchor="middle" x="63.359375" y="16" style="font-family: 'Open Sans', verdana, arial, sans-serif; font-size: 16px; fill: rgb(42, 63, 95); fill-opacity: 1; white-space: pre;">Precipitation sum</text></g></g></g><g class="annotation" data-index="1" style="opacity: 1;"><g class="annotation-text-g" transform="rotate(0,300,306.50000000000006)"><g class="cursor-pointer" transform="translate(196,296)"><rect class="bg" x="0.5" y="0.5" width="208" height="20" style="stroke-width: 1px; stroke: rgb(0, 0, 0); stroke-opacity: 0; fill: rgb(0, 0, 0); fill-opacity: 0;"/><text class="annotation-text" text-anchor="middle" x="104.265625" y="16" style="font-family: 'Open Sans', verdana, arial, sans-serif; font-size: 16px; fill: rgb(42, 63, 95); fill-opacity: 1; white-space: pre;">Mean maximum temperature</text></g></g></g><g class="annotation" data-index="2" style="opacity: 1;"><g class="annotation-text-g" transform="rotate(0,300,523.5)"><g class="cursor-pointer" transform="translate(198,513)"><rect class="bg" x="0.5" y="0.5" width="203" height="20" style="stroke-width: 1px; stroke: rgb(0, 0, 0); stroke-opacity: 0; fill: rgb(0, 0, 0); fill-opacity: 0;"/><text class="annotation-text" text-anchor="middle" x="102.046875" y="16" style="font-family: 'Open Sans', verdana, arial, sans-serif; font-size: 16px; fill: rgb(42, 63, 95); fill-opacity: 1; white-space: pre;">Mean minimum temperature</text></g></g></g><g class="annotation" data-index="3" style="opacity: 1;"><g class="annotation-text-g" transform="rotate(0,300,760.5)"><g class="cursor-pointer" transform="translate(277,750)"><rect class="bg" x="0.5" y="0.5" width="45" height="20" style="stroke-width: 1px; stroke: rgb(0, 0, 0); stroke-opacity: 0; fill: rgb(0, 0, 0); fill-opacity: 0;"/><text class="annotation-text" text-anchor="middle" x="22.3125" y="16" style="font-family: 'Open Sans', verdana, arial, sans-serif; font-size: 16px; fill: rgb(42, 63, 95); fill-opacity: 1; white-space: pre;">Week</text></g></g></g></g></svg>