<svg class="main-svg" xmlns="http://www.w3.org/2000/svg" xmlns:xlink="http://www.w3.org/1999/xlink" width="600" height="800" style="" viewBox="0 0 600 800"><rect x="0" y="0" width="600" height="800" style="fill: rgb(255, 255, 255); fill-opacity: 1;"/><defs id="defs-795511"><g class="clips"><clipPath id="clip795511xyplot" class="plotclip"><rect width="440" height="186.00000000000003"/></clipPath><clipPath id="clip795511x2y2plot" class="plotclip"><rect width="440" height="185.99999999999997"/></clipPath><clipPath id="clip795511x3y3plot" class="plotclip"><rect width="440" height="186"/></clipPath><clipPath class="axesclip" id="clip795511x"><rect x="80" y="0" width="440" height="800"/></clipPath><clipPath class="axesclip" id="clip795511y"><rect x="0" y="100" width="600" height="186.00000000000003"/></clipPath><clipPath class="axesclip" id="clip795511xy"><rect x="80" y="100" width="440" height="186.00000000000003"/></clipPath><clipPath class="axesclip" id="clip795511y2"><rect x="0" y="317.00000000000006" width="600" height="185.99999999999997"/></clipPath><clipPath class="axesclip" id="clip795511xy2"><rect x="80" y="317.00000000000006" width="440" height="185.99999999999997"/></clipPath><clipPath class="axesclip" id="clip795511y3"><rect x="0" y="534" width="600" height="186"/></clipPath><clipPath class="axesclip" id="clip795511xy3"><rect x="80" y="534" width="440" height="186"/></clipPath><clipPath class="axesclip" id="clip795511x2"><rect x="80" y="0" width="440" height="800"/></clipPath><clipPath class="axesclip" id="clip795511x2y"><rect x="80" y="100" width="440" height="186.00000000000003"/></clipPath><clipPath class="axesclip" id="clip795511x2y2"><rect x="80" y="317.00000000000006" width="440" height="185.99999999999997"/></clipPath><clipPath class="axesclip" id="clip795511x2y3"><rect x="80" y="534" width="440" height="186"/></clipPath><clipPath class="axesclip" id="clip795511x3"><rect x="80" y="0" width="440" height="800"/></clipPath><clipPath class="axesclip" id="clip795511x3y"><rect x="80" y="100" width="440" height="186.00000000000003"/></clipPath><clipPath class="axesclip" id="clip795511x3y2"><rect x="80" y="317.00000000000006" width="440" height="185.99999999999997"/></clipPath><clipPath class="axesclip" id="clip795511x3y3"><rect x="80" y="534" width="440" height="186"/></clipPath></g><g class="gradients"/><g class="patterns"/></defs><g class="bglayer"><rect class="bg" x="80" y="100" width="440" height="186.00000000000003" style="fill: rgb(229, 236, 246); fill-opacity: 1; stroke-width: 0;"/><rect class="bg" x="80" y="317.00000000000006" width="440" height="185.99999999999997" style="fill: rgb(229, 236, 246); fill-opacity: 1; stroke-width: 0;"/><rect class="bg" x="80" y="534" width="440" height="186" style="fill: rgb(229, 236, 246); fill-opacity: 1; stroke-width: 0;"/></g><g class="layer-below"><g class="imagelayer"/><g class="shapelayer"/></g><g class="cartesianlayer"><g class="subplot xy"><g class="layer-subplot"><g class="shapelayer"/><g class="imagelayer"/></g><g class="minor-gridlayer"><g class="x"/><g class="y"/></g><g class="gridlayer"><g class="x"><path class="xgrid crisp" transform="translate(156.15,0)" d="M0,100v186.00000000000003" style="stroke: rgb(255, 255, 255); stroke-opacity: 1; stroke-width: 1px;"/><path class="xgrid crisp" transform="translate(240.77,0)" d="M0,100v186.00000000000003" style="stroke: rgb(255, 255, 255); stroke-opacity: 1; stroke-width: 1px;"/><path class="xgrid crisp" transform="translate(325.38,0)" d="M0,100v186.00000000000003" style="stroke: rgb(255, 255, 255); stroke-opacity: 1; stroke-width: 1px;"/><path class="xgrid crisp" transform="translate(410,0)" d="M0,100v186.00000000000003" style="stroke: rgb(255, 255, 255); stroke-opacity: 1; stroke-width: 1px;"/><path class="xgrid crisp" transform="translate(494.62,0)" d="M0,100v186.00000000000003" style="stroke: rgb(255, 255, 255); stroke-opacity: 1; stroke-width: 1px;"/></g><g class="y"><path class="ygrid crisp" transform="translate(0,248.8)" d="M80,0h440" style="stroke: rgb(255, 255, 255); stroke-opacity: 1; stroke-width: 1px;"/><path class="ygrid crisp" transform="translate(0,211.6)" d="M80,0h440" style="stroke: rgb(255, 255, 255); stroke-opacity: 1; stroke-width: 1px;"/><path class="ygrid crisp" transform="translate(0,174.4)" d="M80,0h440" style="stroke: rgb(255, 255, 255); stroke-opacity: 1; stroke-width: 1px;"/><path class="ygrid crisp" transform="translate(0,137.2)" d="M80,0h440" style="stroke: rgb(255, 255, 255); stroke-opacity: 1; stroke-width: 1px;"/></g></g><g class="zerolinelayer"><path class="yzl zl crisp" transform="translate(0,286)" d="M80,0h440" style="stroke: rgb(255, 255, 255); stroke-opacity: 1; stroke-width: 2px;"/></g><path class="xlines-below"/><path class="ylines-below"/><g class="overlines-below"/><g class="xaxislayer-below"/><g class="yaxislayer-below"/><g class="overaxes-below"/><g class="plot" transform="translate(80,100)" clip-path="url(#clip795511xyplot)"><g class="scatterlayer mlayer"><g class="trace scatter trace43c611" style="stroke-miterlimit: 2;"><g class="fills"><g><path class="js-fill" d="M0,186L126.92,185.81L135.38,182.91L143.85,175.21L152.31,173.68L160.77,173.84L169.23,169.98L177.69,173.52L186.15,163.1L194.62,171.71L203.08,167.32L211.54,167.49L220,163.85L228.46,162.42L236.92,153.11L245.38,170.81L253.85,161.1L262.31,156.1L270.77,154.43L279.23,171.55L287.69,179.17L296.15,173.43L304.62,171L313.08,166.29L321.54,171.03L330,182.08L338.46,182.27L346.92,184.9L355.38,186L440,186L440,186L346.92,186L338.46,186L321.54,185.3L313.08,174.2L304.62,185.64L296.15,185.99L287.69,185.2L279.23,179.06L270.77,181.63L262.31,185.08L253.85,181.46L245.38,185.97L236.92,181.71L228.46,179.78L220,185.67L211.54,186L203.08,183.68L194.62,185.28L0,186Z" style="fill: rgb(224, 236, 244); fill-opacity: 1; stroke-width: 0;"/></g></g><g class="errorbars"/><g class="lines"><path class="js-line" d="M0,186L194.62,185.28L203.08,183.68L211.54,186L220,185.67L228.46,179.78L236.92,181.71L245.38,185.97L253.85,181.46L262.31,185.08L270.77,181.63L279.23,179.06L287.69,185.2L296.15,185.99L304.62,185.64L313.08,174.2L321.54,185.3L338.46,186L346.92,186L440,186" style="vector-effect: non-scaling-stroke; fill: none; stroke: rgb(0, 0, 0); stroke-opacity: 1; stroke-width: 0.25px; opacity: 1;"/></g><g class="points"/><g class="text"/></g><g class="trace scatter traceebc9a8" style="stroke-miterlimit: 2;"><g class="fills"><g><path class="js-fill" d="M0,186L93.08,185.86L101.54,182.66L110,172.9L118.46,183.63L126.92,180.02L135.38,175.25L143.85,157.76L152.31,168.89L160.77,159.18L169.23,156.34L177.69,164.55L186.15,145.29L194.62,152L203.08,147.49L211.54,147.62L220,151.33L228.46,145.67L236.92,142.22L253.85,142.16L262.31,144.07L270.77,141.9L279.23,158.73L287.69,162.07L296.15,157.71L304.62,154.28L313.08,157.55L321.54,159.31L330,164.44L338.46,169.72L346.92,168.22L355.38,186L363.85,185.94L440,186L440,186L355.38,186L346.92,184.9L338.46,182.27L330,182.08L321.54,171.03L313.08,166.29L304.62,171L296.15,173.43L287.69,179.17L279.23,171.55L270.77,154.43L262.31,156.1L253.85,161.1L245.38,170.81L236.92,153.11L228.46,162.42L220,163.85L211.54,167.49L203.08,167.32L194.62,171.71L186.15,163.1L177.69,173.52L169.23,169.98L160.77,173.84L152.31,173.68L143.85,175.21L135.38,182.91L126.92,185.81L0,186Z" style="fill: rgb(158, 188, 218); fill-opacity: 1; stroke-width: 0;"/></g></g><g class="errorbars"/><g class="lines"><path class="js-line" d="M0,186L126.92,185.81L135.38,182.91L143.85,175.21L152.31,173.68L160.77,173.84L169.23,169.98L177.69,173.52L186.15,163.1L194.62,171.71L203.08,167.32L211.54,167.49L220,163.85L228.46,162.42L236.92,153.11L245.38,170.81L253.85,161.1L262.31,156.1L270.77,154.43L279.23,171.55L287.69,179.17L296.15,173.43L304.62,171L313.08,166.29L321.54,171.03L330,182.08L338.46,182.27L346.92,184.9L355.38,186L440,186" style="vector-effect: non-scaling-stroke; fill: none; stroke: rgb(0, 0, 0); stroke-opacity: 1; stroke-width: 0.5px; opacity: 1;"/></g><g class="points"/><g class="text"/></g><g class="trace scatter tracec77097" style="stroke-miterlimit: 2;"><g class="fills"><g><path class="js-fill" d="M0,186L42.31,185.95L50.77,185.21L59.23,183.8L67.69,184.69L76.15,181.79L84.62,185.28L93.08,183.06L101.54,175.56L110,163.89L118.46,165.25L126.92,164.46L135.38,165.8L143.85,152.33L152.31,146.61L160.77,147.38L169.23,138.82L177.69,135.05L186.15,109.62L194.62,122.67L203.08,111.49L211.54,104.22L220,128.25L228.46,110.3L236.92,103L245.38,128.68L253.85,112.39L262.31,135.75L270.77,124.73L279.23,139.56L287.69,152.34L296.15,142.64L304.62,141.15L313.08,140.86L321.54,142.33L330,148.59L338.46,139.46L346.92,148.05L355.38,151.21L363.85,176.98L372.31,184.86L380.77,184.5L389.23,186L440,186L440,186L363.85,185.94L355.38,186L346.92,168.22L338.46,169.72L330,164.44L321.54,159.31L313.08,157.55L304.62,154.28L296.15,157.71L287.69,162.07L279.23,158.73L270.77,141.9L262.31,144.07L253.85,142.16L236.92,142.22L228.46,145.67L220,151.33L211.54,147.62L203.08,147.49L194.62,152L186.15,145.29L177.69,164.55L169.23,156.34L160.77,159.18L152.31,168.89L143.85,157.76L135.38,175.25L126.92,180.02L118.46,183.63L110,172.9L101.54,182.66L93.08,185.86L0,186Z" style="fill: rgb(158, 188, 218); fill-opacity: 1; stroke-width: 0;"/></g></g><g class="errorbars"/><g class="lines"><path class="js-line" d="M0,186L93.08,185.86L101.54,182.66L110,172.9L118.46,183.63L126.92,180.02L135.38,175.25L143.85,157.76L152.31,168.89L160.77,159.18L169.23,156.34L177.69,164.55L186.15,145.29L194.62,152L203.08,147.49L211.54,147.62L220,151.33L228.46,145.67L236.92,142.22L253.85,142.16L262.31,144.07L270.77,141.9L279.23,158.73L287.69,162.07L296.15,157.71L304.62,154.28L313.08,157.55L321.54,159.31L330,164.44L338.46,169.72L346.92,168.22L355.38,186L363.85,185.94L440,186" style="vector-effect: non-scaling-stroke; fill: none; stroke: rgb(0, 0, 0); stroke-opacity: 1; stroke-width: 1px; opacity: 1;"/></g><g class="points"/><g class="text"/></g><g class="trace scatter trace50553c" style="stroke-miterlimit: 2;"><g class="fills"><g><path class="js-fill" d="M0,186L42.31,185.91L50.77,184.6L59.23,181.64L67.69,183.02L76.15,176.51L84.62,184.56L93.08,179.84L101.54,164.82L110,131.88L118.46,148.12L126.92,139.74L135.38,153.24L143.85,137.57L152.31,106.78L160.77,116.24L169.23,106.32L186.15,56.47L194.62,56.02L203.08,96.18L211.54,39.99L220,85.72L228.46,46.64L236.92,70.53L245.38,83.05L253.85,65.48L262.31,115.1L270.77,84.88L279.23,107.19L287.69,117.54L296.15,120.96L304.62,121.39L313.08,132.67L321.54,103.99L330,108.2L338.46,96.18L346.92,132.94L355.38,112.93L363.85,166.88L372.31,184.51L380.77,184L389.23,186L397.69,186L440,186L440,186L389.23,186L380.77,184.5L372.31,184.86L363.85,176.98L355.38,151.21L346.92,148.05L338.46,139.46L330,148.59L321.54,142.33L313.08,140.86L304.62,141.15L296.15,142.64L287.69,152.34L279.23,139.56L270.77,124.73L262.31,135.75L253.85,112.39L245.38,128.68L236.92,103L228.46,110.3L220,128.25L211.54,104.22L203.08,111.49L194.62,122.67L186.15,109.62L177.69,135.05L169.23,138.82L160.77,147.38L152.31,146.61L143.85,152.33L135.38,165.8L126.92,164.46L118.46,165.25L110,163.89L101.54,175.56L93.08,183.06L84.62,185.28L76.15,181.79L67.69,184.69L59.23,183.8L50.77,185.21L42.31,185.95L0,186Z" style="fill: rgb(136, 86, 167); fill-opacity: 1; stroke-width: 0;"/></g></g><g class="errorbars"/><g class="lines"><path class="js-line" d="M0,186L42.31,185.95L50.77,185.21L59.23,183.8L67.69,184.69L76.15,181.79L84.62,185.28L93.08,183.06L101.54,175.56L110,163.89L118.46,165.25L126.92,164.46L135.38,165.8L143.85,152.33L152.31,146.61L160.77,147.38L169.23,138.82L177.69,135.05L186.15,109.62L194.62,122.67L203.08,111.49L211.54,104.22L220,128.25L228.46,110.3L236.92,103L245.38,128.68L253.85,112.39L262.31,135.75L270.77,124.73L279.23,139.56L287.69,152.34L296.15,142.64L304.62,141.15L313.08,140.86L321.54,142.33L330,148.59L338.46,139.46L346.92,148.05L355.38,151.21L363.85,176.98L372.31,184.86L380.77,184.5L389.23,186L440,186" style="vector-effect: non-scaling-stroke; fill: none; stroke: rgb(0, 0, 0); stroke-opacity: 1; stroke-width: 0.5px; opacity: 1;"/></g><g class="points"/><g class="text"/></g><g class="trace scatter trace9f507d" style="stroke-miterlimit: 2;"><g class="fills"/><g class="errorbars"/><g class="lines"><path class="js-line" d="M0,186L42.31,185.91L50.77,184.6L59.23,181.64L67.69,183.02L76.15,176.51L84.62,184.56L93.08,179.84L101.54,164.82L110,131.88L118.46,148.12L126.92,139.74L135.38,153.24L143.85,137.57L152.31,106.78L160.77,116.24L169.23,106.32L186.15,56.47L194.62,56.02L203.08,96.18L211.54,39.99L220,85.72L228.46,46.64L236.92,70.53L245.38,83.05L253.85,65.48L262.31,115.1L270.77,84.88L279.23,107.19L287.69,117.54L296.15,120.96L304.62,121.39L313.08,132.67L321.54,103.99L330,108.2L338.46,96.18L346.92,132.94L355.38,112.93L363.85,166.88L372.31,184.51L380.77,184L389.23,186L397.69,186L440,186" style="vector-effect: non-scaling-stroke; fill: none; stroke: rgb(0, 0, 0); stroke-opacity: 1; stroke-width: 0.25px; opacity: 1;"/></g><g class="points"/><g class="text"/></g><g class="trace scatter trace528215" style="stroke-miterlimit: 2; opacity: 1;"><g class="fills"/><g class="errorbars"/><g class="lines"/><g class="points"><path class="point" transform="translate(186.15,186)" d="M4,0A4,4 0 1,1 0,-4A4,4 0 0,1 4,0ZM0,0.5L0.5,0L0,-0.5L-0.5,0Z" style="opacity: 1; stroke: rgb(0, 0, 0); stroke-opacity: 1; stroke-width: 1px; fill: none;"/><path class="point" transform="translate(194.62,186)" d="M4,0A4,4 0 1,1 0,-4A4,4 0 0,1 4,0ZM0,0.5L0.5,0L0,-0.5L-0.5,0Z" style="opacity: 1; stroke: rgb(0, 0, 0); stroke-opacity: 1; stroke-width: 1px; fill: none;"/><path class="point" transform="translate(203.08,131.69)" d="M4,0A4,4 0 1,1 0,-4A4,4 0 0,1 4,0ZM0,0.5L0.5,0L0,-0.5L-0.5,0Z" style="opacity: 1; stroke: rgb(0, 0, 0); stroke-opacity: 1; stroke-width: 1px; fill: none;"/><path class="point" transform="translate(211.54,131.69)" d="M4,0A4,4 0 1,1 0,-4A4,4 0 0,1 4,0ZM0,0.5L0.5,0L0,-0.5L-0.5,0Z" style="opacity: 1; stroke: rgb(0, 0, 0); stroke-opacity: 1; stroke-width: 1px; fill: none;"/></g><g class="text"/></g></g></g><g class="overplot"/><path class="xlines-above crisp" d="M0,0" style="fill: none;"/><path class="ylines-above crisp" d="M0,0" style="fill: none;"/><g class="overlines-above"/><g class="xaxislayer-above"/><g class="yaxislayer-above"><g class="ytick"><text text-anchor="end" x="79" y="4.199999999999999" transform="translate(0,286)" style="font-family: 'Open Sans', verdana, arial, sans-serif; font-size: 12px; fill: rgb(42, 63, 95); fill-opacity: 1; white-space: pre; opacity: 1;">0</text></g><g class="ytick"><text text-anchor="end" x="79" y="4.199999999999999" style="font-family: 'Open Sans', verdana, arial, sans-serif; font-size: 12px; fill: rgb(42, 63, 95); fill-opacity: 1; white-space: pre; opacity: 1;" transform="translate(0,248.8)">50</text></g><g class="ytick"><text text-anchor="end" x="79" y="4.199999999999999" style="font-family: 'Open Sans', verdana, arial, sans-serif; font-size: 12px; fill: rgb(42, 63, 95); fill-opacity: 1; white-space: pre; opacity: 1;" transform="translate(0,211.6)">100</text></g><g class="ytick"><text text-anchor="end" x="79" y="4.199999999999999" style="font-family: 'Open Sans', verdana, arial, sans-serif; font-size: 12px; fill: rgb(42, 63, 95); fill-opacity: 1; white-space: pre; opacity: 1;" transform="translate(0,174.4)">150</text></g><g class="ytick"><text text-anchor="end" x="79" y="4.199999999999999" style="font-family: 'Open Sans', verdana, arial, sans-serif; font-size: 12px; fill: rgb(42, 63, 95); fill-opacity: 1; white-space: pre; opacity: 1;" transform="translate(0,137.2)">200</text></g><g class="ytick"><text text-anchor="end" x="79" y="4.199999999999999" style="font-family: 'Open Sans', verdana, arial, sans-serif; font-size: 12px; fill: rgb(42, 63, 95); fill-opacity: 1; white-space: pre; opacity: 1;" transform="translate(0,100)">250</text></g></g><g class="overaxes-above"/></g><g class="subplot x2y2"><g class="layer-subplot"><g class="shapelayer"/><g class="imagelayer"/></g><g class="minor-gridlayer"><g class="x2"/><g class="y2"/></g><g class="gridlayer"><g class="x2"><path class="x2grid crisp" transform="translate(156.15,0)" d="M0,317.00000000000006v185.99999999999997" style="stroke: rgb(255, 255, 255); stroke-opacity: 1; stroke-width: 1px;"/><path class="x2grid crisp" transform="translate(240.77,0)" d="M0,317.00000000000006v185.99999999999997" style="stroke: rgb(255, 255, 255); stroke-opacity: 1; stroke-width: 1px;"/><path class="x2grid crisp" transform="translate(325.38,0)" d="M0,317.00000000000006v185.99999999999997" style="stroke: rgb(255, 255, 255); stroke-opacity: 1; stroke-width: 1px;"/><path class="x2grid crisp" transform="translate(410,0)" d="M0,317.00000000000006v185.99999999999997" style="stroke: rgb(255, 255, 255); stroke-opacity: 1; stroke-width: 1px;"/><path class="x2grid crisp" transform="translate(494.62,0)" d="M0,317.00000000000006v185.99999999999997" style="stroke: rgb(255, 255, 255); stroke-opacity: 1; stroke-width: 1px;"/></g><g class="y2"><path class="y2grid crisp" transform="translate(0,472.00000000000006)" d="M80,0h440" style="stroke: rgb(255, 255, 255); stroke-opacity: 1; stroke-width: 1px;"/><path class="y2grid crisp" transform="translate(0,410.00000000000006)" d="M80,0h440" style="stroke: rgb(255, 255, 255); stroke-opacity: 1; stroke-width: 1px;"/><path class="y2grid crisp" transform="translate(0,348.00000000000006)" d="M80,0h440" style="stroke: rgb(255, 255, 255); stroke-opacity: 1; stroke-width: 1px;"/></g></g><g class="zerolinelayer"/><path class="xlines-below"/><path class="ylines-below"/><g class="overlines-below"/><g class="xaxislayer-below"/><g class="yaxislayer-below"/><g class="overaxes-below"/><g class="plot" transform="translate(80,317.00000000000006)" clip-path="url(#clip795511x2y2plot)"><g class="scatterlayer mlayer"><g class="trace scatter trace0fba3e" style="stroke-miterlimit: 2;"><g class="fills"><g><path class="js-fill" d="M0,148.28L8.46,151.06L16.92,138.31L25.38,134.96L33.85,126.36L42.31,116.9L50.77,111.83L67.69,91.35L76.15,89.15L84.62,72.4L93.08,71.32L101.54,79.27L110,82.13L118.46,84.31L126.92,78.83L135.38,86.48L143.85,88.95L152.31,84.48L160.77,85.98L169.23,84.37L177.69,87.45L186.15,89.07L194.62,91.6L203.08,93.42L211.54,93.26L220,96.28L228.46,93.73L236.92,96.71L245.38,93.43L253.85,94.39L262.31,92.98L270.77,97.6L279.23,95.62L287.69,95.36L296.15,96.2L304.62,93.73L313.08,98.31L321.54,97.11L330,93.48L338.46,94.72L346.92,92.66L355.38,91.29L363.85,94.76L372.31,97.49L380.77,103.84L389.23,111.4L397.69,120.76L406.15,130.52L414.62,134.54L431.54,145.99L440,150.11L440,152.1L431.54,150.54L423.08,156.32L414.62,139.34L406.15,145.12L397.69,130.95L389.23,119.06L380.77,112.52L372.31,103.7L363.85,98.77L355.38,101.22L346.92,101.79L338.46,103.42L330,102.38L321.54,104.72L313.08,111.19L304.62,106.81L296.15,103.55L287.69,98.16L279.23,105.17L270.77,102.92L262.31,108.28L253.85,100.76L245.38,102.98L236.92,106.21L228.46,95.97L220,105.18L211.54,102.4L203.08,102.78L194.62,99.38L186.15,96.35L169.23,92.45L160.77,94.99L152.31,91.17L143.85,95.34L135.38,96.72L126.92,96.94L118.46,95.96L110,92.14L101.54,93.34L93.08,84.17L84.62,87.7L76.15,101.48L67.69,120.52L59.23,115.67L50.77,127.04L42.31,133.11L33.85,142.73L25.38,150.67L16.92,153.01L8.46,166.03L0,166.93Z" style="fill: rgb(145, 191, 219); fill-opacity: 1; stroke-width: 0;"/></g></g><g class="errorbars"/><g class="lines"><path class="js-line" d="M0,166.93L8.46,166.03L16.92,153.01L25.38,150.67L33.85,142.73L42.31,133.11L50.77,127.04L59.23,115.67L67.69,120.52L76.15,101.48L84.62,87.7L93.08,84.17L101.54,93.34L110,92.14L118.46,95.96L126.92,96.94L135.38,96.72L143.85,95.34L152.31,91.17L160.77,94.99L169.23,92.45L186.15,96.35L194.62,99.38L203.08,102.78L211.54,102.4L220,105.18L228.46,95.97L236.92,106.21L245.38,102.98L253.85,100.76L262.31,108.28L270.77,102.92L279.23,105.17L287.69,98.16L296.15,103.55L304.62,106.81L313.08,111.19L321.54,104.72L330,102.38L338.46,103.42L346.92,101.79L355.38,101.22L363.85,98.77L372.31,103.7L380.77,112.52L389.23,119.06L397.69,130.95L406.15,145.12L414.62,139.34L423.08,156.32L431.54,150.54L440,152.1" style="vector-effect: non-scaling-stroke; fill: none; stroke: rgb(0, 0, 0); stroke-opacity: 1; stroke-width: 0.25px; opacity: 1;"/></g><g class="points"/><g class="text"/></g><g class="trace scatter trace64277b" style="stroke-miterlimit: 2;"><g class="fills"><g><path class="js-fill" d="M0,138.16L8.46,141.76L16.92,134.25L25.38,129.67L33.85,122.3L42.31,109.62L50.77,101.98L59.23,89.72L67.69,80.98L76.15,75.05L84.62,66.36L93.08,60.41L101.54,68.3L110,74.1L118.46,68.46L126.92,70.27L135.38,75.48L143.85,82.24L152.31,74.8L160.77,78.39L169.23,79.93L177.69,81.88L186.15,84.8L194.62,85.67L203.08,88L211.54,90.34L220,89.05L228.46,88.7L236.92,92.44L262.31,88.02L270.77,89.55L279.23,88.63L287.69,91.14L296.15,93.11L304.62,91.12L313.08,91.37L321.54,89.32L330,87.77L338.46,85.45L346.92,86.02L355.38,85.25L363.85,91.18L372.31,93.29L397.69,112.72L406.15,123.13L423.08,130.55L431.54,138.99L440,136.79L440,150.11L431.54,145.99L414.62,134.54L406.15,130.52L397.69,120.76L389.23,111.4L380.77,103.84L372.31,97.49L363.85,94.76L355.38,91.29L346.92,92.66L338.46,94.72L330,93.48L321.54,97.11L313.08,98.31L304.62,93.73L296.15,96.2L287.69,95.36L279.23,95.62L270.77,97.6L262.31,92.98L253.85,94.39L245.38,93.43L236.92,96.71L228.46,93.73L220,96.28L211.54,93.26L203.08,93.42L194.62,91.6L186.15,89.07L177.69,87.45L169.23,84.37L160.77,85.98L152.31,84.48L143.85,88.95L135.38,86.48L126.92,78.83L118.46,84.31L110,82.13L101.54,79.27L93.08,71.32L84.62,72.4L76.15,89.15L67.69,91.35L50.77,111.83L42.31,116.9L33.85,126.36L25.38,134.96L16.92,138.31L8.46,151.06L0,148.28Z" style="fill: rgb(255, 255, 191); fill-opacity: 1; stroke-width: 0;"/></g></g><g class="errorbars"/><g class="lines"><path class="js-line" d="M0,148.28L8.46,151.06L16.92,138.31L25.38,134.96L33.85,126.36L42.31,116.9L50.77,111.83L67.69,91.35L76.15,89.15L84.62,72.4L93.08,71.32L101.54,79.27L110,82.13L118.46,84.31L126.92,78.83L135.38,86.48L143.85,88.95L152.31,84.48L160.77,85.98L169.23,84.37L177.69,87.45L186.15,89.07L194.62,91.6L203.08,93.42L211.54,93.26L220,96.28L228.46,93.73L236.92,96.71L245.38,93.43L253.85,94.39L262.31,92.98L270.77,97.6L279.23,95.62L287.69,95.36L296.15,96.2L304.62,93.73L313.08,98.31L321.54,97.11L330,93.48L338.46,94.72L346.92,92.66L355.38,91.29L363.85,94.76L372.31,97.49L380.77,103.84L389.23,111.4L397.69,120.76L406.15,130.52L414.62,134.54L431.54,145.99L440,150.11" style="vector-effect: non-scaling-stroke; fill: none; stroke: rgb(0, 0, 0); stroke-opacity: 1; stroke-width: 0.5px; opacity: 1;"/></g><g class="points"/><g class="text"/></g><g class="trace scatter tracee3da60" style="stroke-miterlimit: 2;"><g class="fills"><g><path class="js-fill" d="M0,131.16L8.46,132.41L16.92,127.75L25.38,123.56L33.85,114.57L50.77,93.68L59.23,84.05L67.69,70.87L76.15,66.05L84.62,62.07L93.08,52.57L101.54,54.86L110,59.63L118.46,58.3L126.92,60.95L135.38,56.26L143.85,75.83L152.31,68.32L160.77,66.27L169.23,75.26L177.69,72.2L186.15,78.75L194.62,76.99L203.08,84.1L211.54,84.68L220,83.14L228.46,85.19L236.92,82.24L245.38,84L253.85,85.03L262.31,80.9L270.77,85.65L279.23,84.25L287.69,87.08L296.15,82.84L304.62,83.89L313.08,87.02L330,76.42L338.46,80.67L346.92,79.19L355.38,84L363.85,88.74L372.31,90.08L380.77,97.47L389.23,101.97L397.69,107.72L406.15,117.18L414.62,117.58L423.08,125.24L431.54,128.16L440,123.19L440,136.79L431.54,138.99L423.08,130.55L406.15,123.13L397.69,112.72L372.31,93.29L363.85,91.18L355.38,85.25L346.92,86.02L338.46,85.45L330,87.77L321.54,89.32L313.08,91.37L304.62,91.12L296.15,93.11L287.69,91.14L279.23,88.63L270.77,89.55L262.31,88.02L236.92,92.44L228.46,88.7L220,89.05L211.54,90.34L203.08,88L194.62,85.67L186.15,84.8L177.69,81.88L169.23,79.93L160.77,78.39L152.31,74.8L143.85,82.24L135.38,75.48L126.92,70.27L118.46,68.46L110,74.1L101.54,68.3L93.08,60.41L84.62,66.36L76.15,75.05L67.69,80.98L59.23,89.72L50.77,101.98L42.31,109.62L33.85,122.3L25.38,129.67L16.92,134.25L8.46,141.76L0,138.16Z" style="fill: rgb(255, 255, 191); fill-opacity: 1; stroke-width: 0;"/></g></g><g class="errorbars"/><g class="lines"><path class="js-line" d="M0,138.16L8.46,141.76L16.92,134.25L25.38,129.67L33.85,122.3L42.31,109.62L50.77,101.98L59.23,89.72L67.69,80.98L76.15,75.05L84.62,66.36L93.08,60.41L101.54,68.3L110,74.1L118.46,68.46L126.92,70.27L135.38,75.48L143.85,82.24L152.31,74.8L160.77,78.39L169.23,79.93L177.69,81.88L186.15,84.8L194.62,85.67L203.08,88L211.54,90.34L220,89.05L228.46,88.7L236.92,92.44L262.31,88.02L270.77,89.55L279.23,88.63L287.69,91.14L296.15,93.11L304.62,91.12L313.08,91.37L321.54,89.32L330,87.77L338.46,85.45L346.92,86.02L355.38,85.25L363.85,91.18L372.31,93.29L397.69,112.72L406.15,123.13L423.08,130.55L431.54,138.99L440,136.79" style="vector-effect: non-scaling-stroke; fill: none; stroke: rgb(0, 0, 0); stroke-opacity: 1; stroke-width: 1px; opacity: 1;"/></g><g class="points"/><g class="text"/></g><g class="trace scatter trace297fcc" style="stroke-miterlimit: 2;"><g class="fills"><g><path class="js-fill" d="M0,119L8.46,118.13L16.92,113.96L25.38,116.68L33.85,107.32L50.77,68.83L59.23,69.55L67.69,58.3L76.15,53.5L84.62,50.81L93.08,49.74L110,37.41L118.46,46.3L126.92,35.82L135.38,23.68L143.85,59.96L152.31,49.27L160.77,46.51L169.23,68.45L177.69,55.32L186.15,72.77L194.62,58.94L203.08,70.55L211.54,72.16L220,68.05L228.46,74.4L236.92,62.67L245.38,70.29L253.85,71.02L262.31,67.26L270.77,72.83L279.23,68.17L287.69,80.41L296.15,70.42L304.62,72.35L313.08,72.47L321.54,70.75L330,67.39L338.46,62.89L346.92,62.1L355.38,79.04L363.85,83.04L372.31,83.57L380.77,93.62L389.23,95.85L397.69,91.85L406.15,99.98L414.62,110.73L423.08,116.37L431.54,123.73L440,116.72L440,123.19L431.54,128.16L423.08,125.24L414.62,117.58L406.15,117.18L397.69,107.72L389.23,101.97L380.77,97.47L372.31,90.08L363.85,88.74L355.38,84L346.92,79.19L338.46,80.67L330,76.42L313.08,87.02L304.62,83.89L296.15,82.84L287.69,87.08L279.23,84.25L270.77,85.65L262.31,80.9L253.85,85.03L245.38,84L236.92,82.24L228.46,85.19L220,83.14L211.54,84.68L203.08,84.1L194.62,76.99L186.15,78.75L177.69,72.2L169.23,75.26L160.77,66.27L152.31,68.32L143.85,75.83L135.38,56.26L126.92,60.95L118.46,58.3L110,59.63L101.54,54.86L93.08,52.57L84.62,62.07L76.15,66.05L67.69,70.87L59.23,84.05L50.77,93.68L33.85,114.57L25.38,123.56L16.92,127.75L8.46,132.41L0,131.16Z" style="fill: rgb(252, 141, 89); fill-opacity: 1; stroke-width: 0;"/></g></g><g class="errorbars"/><g class="lines"><path class="js-line" d="M0,131.16L8.46,132.41L16.92,127.75L25.38,123.56L33.85,114.57L50.77,93.68L59.23,84.05L67.69,70.87L76.15,66.05L84.62,62.07L93.08,52.57L101.54,54.86L110,59.63L118.46,58.3L126.92,60.95L135.38,56.26L143.85,75.83L152.31,68.32L160.77,66.27L169.23,75.26L177.69,72.2L186.15,78.75L194.62,76.99L203.08,84.1L211.54,84.68L220,83.14L228.46,85.19L236.92,82.24L245.38,84L253.85,85.03L262.31,80.9L270.77,85.65L279.23,84.25L287.69,87.08L296.15,82.84L304.62,83.89L313.08,87.02L330,76.42L338.46,80.67L346.92,79.19L355.38,84L363.85,88.74L372.31,90.08L380.77,97.47L389.23,101.97L397.69,107.72L406.15,117.18L414.62,117.58L423.08,125.24L431.54,128.16L440,123.19" style="vector-effect: non-scaling-stroke; fill: none; stroke: rgb(0, 0, 0); stroke-opacity: 1; stroke-width: 0.5px; opacity: 1;"/></g><g class="points"/><g class="text"/></g><g class="trace scatter trace20e593" style="stroke-miterlimit: 2;"><g class="fills"/><g class="errorbars"/><g class="lines"><path class="js-line" d="M0,119L8.46,118.13L16.92,113.96L25.38,116.68L33.85,107.32L50.77,68.83L59.23,69.55L67.69,58.3L76.15,53.5L84.62,50.81L93.08,49.74L110,37.41L118.46,46.3L126.92,35.82L135.38,23.68L143.85,59.96L152.31,49.27L160.77,46.51L169.23,68.45L177.69,55.32L186.15,72.77L194.62,58.94L203.08,70.55L211.54,72.16L220,68.05L228.46,74.4L236.92,62.67L245.38,70.29L253.85,71.02L262.31,67.26L270.77,72.83L279.23,68.17L287.69,80.41L296.15,70.42L304.62,72.35L313.08,72.47L321.54,70.75L330,67.39L338.46,62.89L346.92,62.1L355.38,79.04L363.85,83.04L372.31,83.57L380.77,93.62L389.23,95.85L397.69,91.85L406.15,99.98L414.62,110.73L423.08,116.37L431.54,123.73L440,116.72" style="vector-effect: non-scaling-stroke; fill: none; stroke: rgb(0, 0, 0); stroke-opacity: 1; stroke-width: 0.25px; opacity: 1;"/></g><g class="points"/><g class="text"/></g><g class="trace scatter tracefded0e" style="stroke-miterlimit: 2; opacity: 1;"><g class="fills"/><g class="errorbars"/><g class="lines"/><g class="points"><path class="point" transform="translate(186.15,43.4)" d="M4,0A4,4 0 1,1 0,-4A4,4 0 0,1 4,0ZM0,0.5L0.5,0L0,-0.5L-0.5,0Z" style="opacity: 1; stroke: rgb(0, 0, 0); stroke-opacity: 1; stroke-width: 1px; fill: none;"/><path class="point" transform="translate(194.62,62)" d="M4,0A4,4 0 1,1 0,-4A4,4 0 0,1 4,0ZM0,0.5L0.5,0L0,-0.5L-0.5,0Z" style="opacity: 1; stroke: rgb(0, 0, 0); stroke-opacity: 1; stroke-width: 1px; fill: none;"/><path class="point" transform="translate(203.08,86.8)" d="M4,0A4,4 0 1,1 0,-4A4,4 0 0,1 4,0ZM0,0.5L0.5,0L0,-0.5L-0.5,0Z" style="opacity: 1; stroke: rgb(0, 0, 0); stroke-opacity: 1; stroke-width: 1px; fill: none;"/><path class="point" transform="translate(211.54,86.8)" d="M4,0A4,4 0 1,1 0,-4A4,4 0 0,1 4,0ZM0,0.5L0.5,0L0,-0.5L-0.5,0Z" style="opacity: 1; stroke: rgb(0, 0, 0); stroke-opacity: 1; stroke-width: 1px; fill: none;"/></g><g class="text"/></g></g></g><g class="overplot"/><path class="xlines-above crisp" d="M0,0" style="fill: none;"/><path class="ylines-above crisp" d="M0,0" style="fill: none;"/><g class="overlines-above"/><g class="xaxislayer-above"/><g class="yaxislayer-above"><g class="y2tick"><text text-anchor="end" x="79" y="4.199999999999999" transform="translate(0,472.00000000000006)" style="font-family: 'Open Sans', verdana, arial, sans-serif; font-size: 12px; fill: rgb(42, 63, 95); fill-opacity: 1; white-space: pre; opacity: 1;">20</text></g><g class="y2tick"><text text-anchor="end" x="79" y="4.199999999999999" style="font-family: 'Open Sans', verdana, arial, sans-serif; font-size: 12px; fill: rgb(42, 63, 95); fill-opacity: 1; white-space: pre; opacity: 1;" transform="translate(0,410.00000000000006)">30</text></g><g class="y2tick"><text text-anchor="end" x="79" y="4.199999999999999" style="font-family: 'Open Sans', verdana, arial, sans-serif; font-size: 12px; fill: rgb(42, 63, 95); fill-opacity: 1; white-space: pre; opacity: 1;" transform="translate(0,348.00000000000006)">40</text></g></g><g class="overaxes-above"/></g><g class="subplot x3y3"><g class="layer-subplot"><g class="shapelayer"/><g class="imagelayer"/></g><g class="minor-gridlayer"><g class="x3"/><g class="y3"/></g><g class="gridlayer"><g class="x3"><path class="x3grid crisp" transform="translate(156.15,0)" d="M0,534v186" style="stroke: rgb(255, 255, 255); stroke-opacity: 1; stroke-width: 1px;"/><path class="x3grid crisp" transform="translate(240.77,0)" d="M0,534v186" style="stroke: rgb(255, 255, 255); stroke-opacity: 1; stroke-width: 1px;"/><path class="x3grid crisp" transform="translate(325.38,0)" d="M0,534v186" style="stroke: rgb(255, 255, 255); stroke-opacity: 1; stroke-width: 1px;"/><path class="x3grid crisp" transform="translate(410,0)" d="M0,534v186" style="stroke: rgb(255, 255, 255); stroke-opacity: 1; stroke-width: 1px;"/><path class="x3grid crisp" transform="translate(494.62,0)" d="M0,534v186" style="stroke: rgb(255, 255, 255); stroke-opacity: 1; stroke-width: 1px;"/></g><g class="y3"><path class="y3grid crisp" transform="translate(0,682.8)" d="M80,0h440" style="stroke: rgb(255, 255, 255); stroke-opacity: 1; stroke-width: 1px;"/><path class="y3grid crisp" transform="translate(0,645.6)" d="M80,0h440" style="stroke: rgb(255, 255, 255); stroke-opacity: 1; stroke-width: 1px;"/><path class="y3grid crisp" transform="translate(0,608.4)" d="M80,0h440" style="stroke: rgb(255, 255, 255); stroke-opacity: 1; stroke-width: 1px;"/><path class="y3grid crisp" transform="translate(0,571.2)" d="M80,0h440" style="stroke: rgb(255, 255, 255); stroke-opacity: 1; stroke-width: 1px;"/></g></g><g class="zerolinelayer"/><path class="xlines-below"/><path class="ylines-below"/><g class="overlines-below"/><g class="xaxislayer-below"/><g class="yaxislayer-below"/><g class="overaxes-below"/><g class="plot" transform="translate(80,534)" clip-path="url(#clip795511x3y3plot)"><g class="scatterlayer mlayer"><g class="trace scatter traceef2fa6" style="stroke-miterlimit: 2;"><g class="fills"><g><path class="js-fill" d="M0,123.36L8.46,129.3L16.92,125.18L25.38,123.2L33.85,119.72L42.31,107.67L50.77,102.72L59.23,95.43L67.69,80.94L76.15,76.7L84.62,69.96L93.08,64.13L101.54,61.77L118.46,59L126.92,52.26L135.38,54.03L143.85,51.98L152.31,45.64L160.77,43.15L169.23,39.26L177.69,39L186.15,37.57L194.62,37.02L203.08,36.36L211.54,36.95L220,35.84L228.46,36.87L236.92,37.94L245.38,37.91L253.85,37.99L262.31,37.22L270.77,37.33L279.23,38.62L296.15,38.81L304.62,39.68L313.08,41.73L321.54,41.65L355.38,51.8L363.85,61.64L372.31,68.01L380.77,77.91L389.23,85.96L397.69,96.79L406.15,103.61L414.62,106.81L423.08,118.62L431.54,120.66L440,132L440,134.16L431.54,135.97L414.62,121.15L406.15,116.95L397.69,106.67L389.23,94.73L380.77,90.9L372.31,79.7L363.85,66.58L355.38,58.96L346.92,55.38L338.46,50.61L330,47.96L321.54,44.11L313.08,47.21L304.62,42.23L287.69,41.03L279.23,41.1L270.77,39.01L262.31,42L236.92,40.36L228.46,38.86L220,39.28L211.54,38.42L194.62,41.73L186.15,43.38L177.69,47.34L169.23,43.48L160.77,49.71L152.31,50.28L143.85,58.09L135.38,59.9L126.92,59.97L118.46,65.67L110,69.15L101.54,72.57L93.08,80.09L84.62,85.47L76.15,93.49L67.69,86.58L50.77,129.98L42.31,127.73L33.85,137.57L25.38,142.06L16.92,138.97L8.46,142.12L0,127.37Z" style="fill: rgb(90, 180, 172); fill-opacity: 1; stroke-width: 0;"/></g></g><g class="errorbars"/><g class="lines"><path class="js-line" d="M0,127.37L8.46,142.12L16.92,138.97L25.38,142.06L33.85,137.57L42.31,127.73L50.77,129.98L67.69,86.58L76.15,93.49L84.62,85.47L93.08,80.09L101.54,72.57L110,69.15L118.46,65.67L126.92,59.97L135.38,59.9L143.85,58.09L152.31,50.28L160.77,49.71L169.23,43.48L177.69,47.34L186.15,43.38L194.62,41.73L211.54,38.42L220,39.28L228.46,38.86L236.92,40.36L262.31,42L270.77,39.01L279.23,41.1L287.69,41.03L304.62,42.23L313.08,47.21L321.54,44.11L330,47.96L338.46,50.61L346.92,55.38L355.38,58.96L363.85,66.58L372.31,79.7L380.77,90.9L389.23,94.73L397.69,106.67L406.15,116.95L414.62,121.15L431.54,135.97L440,134.16" style="vector-effect: non-scaling-stroke; fill: none; stroke: rgb(0, 0, 0); stroke-opacity: 1; stroke-width: 0.25px; opacity: 1;"/></g><g class="points"/><g class="text"/></g><g class="trace scatter trace564864" style="stroke-miterlimit: 2;"><g class="fills"><g><path class="js-fill" d="M0,118.48L8.46,123.26L16.92,116.83L25.38,113.52L33.85,111.92L42.31,98.85L50.77,93.37L59.23,86.25L67.69,76.82L76.15,73.45L84.62,60.55L93.08,55.18L101.54,53.89L110,56.18L118.46,52.43L126.92,48.42L135.38,49.37L143.85,49.18L152.31,42.5L160.77,39.75L169.23,38.43L186.15,35.03L194.62,35.03L211.54,35.42L220,34.59L228.46,34.28L236.92,35.78L245.38,37.22L253.85,37.17L262.31,34.64L270.77,35.82L287.69,36.25L296.15,37.87L304.62,39.11L313.08,38.76L321.54,39.14L330,41.08L338.46,41.89L346.92,45.92L355.38,49.61L363.85,57.43L372.31,61.07L380.77,69.63L397.69,88.64L406.15,94.96L414.62,102.23L423.08,107.23L431.54,115.69L440,128.24L440,132L431.54,120.66L423.08,118.62L414.62,106.81L406.15,103.61L397.69,96.79L389.23,85.96L380.77,77.91L372.31,68.01L363.85,61.64L355.38,51.8L321.54,41.65L313.08,41.73L304.62,39.68L296.15,38.81L279.23,38.62L270.77,37.33L262.31,37.22L253.85,37.99L245.38,37.91L236.92,37.94L228.46,36.87L220,35.84L211.54,36.95L203.08,36.36L194.62,37.02L186.15,37.57L177.69,39L169.23,39.26L160.77,43.15L152.31,45.64L143.85,51.98L135.38,54.03L126.92,52.26L118.46,59L101.54,61.77L93.08,64.13L84.62,69.96L76.15,76.7L67.69,80.94L59.23,95.43L50.77,102.72L42.31,107.67L33.85,119.72L25.38,123.2L16.92,125.18L8.46,129.3L0,123.36Z" style="fill: rgb(245, 245, 245); fill-opacity: 1; stroke-width: 0;"/></g></g><g class="errorbars"/><g class="lines"><path class="js-line" d="M0,123.36L8.46,129.3L16.92,125.18L25.38,123.2L33.85,119.72L42.31,107.67L50.77,102.72L59.23,95.43L67.69,80.94L76.15,76.7L84.62,69.96L93.08,64.13L101.54,61.77L118.46,59L126.92,52.26L135.38,54.03L143.85,51.98L152.31,45.64L160.77,43.15L169.23,39.26L177.69,39L186.15,37.57L194.62,37.02L203.08,36.36L211.54,36.95L220,35.84L228.46,36.87L236.92,37.94L245.38,37.91L253.85,37.99L262.31,37.22L270.77,37.33L279.23,38.62L296.15,38.81L304.62,39.68L313.08,41.73L321.54,41.65L355.38,51.8L363.85,61.64L372.31,68.01L380.77,77.91L389.23,85.96L397.69,96.79L406.15,103.61L414.62,106.81L423.08,118.62L431.54,120.66L440,132" style="vector-effect: non-scaling-stroke; fill: none; stroke: rgb(0, 0, 0); stroke-opacity: 1; stroke-width: 0.5px; opacity: 1;"/></g><g class="points"/><g class="text"/></g><g class="trace scatter trace628b72" style="stroke-miterlimit: 2;"><g class="fills"><g><path class="js-fill" d="M0,112.37L8.46,114.08L16.92,111.76L25.38,107.64L33.85,100.93L42.31,90.23L50.77,83.86L59.23,74.88L67.69,67L76.15,62.85L84.62,57.59L101.54,48.36L110,49.12L152.31,40.47L160.77,37.06L177.69,32.86L186.15,33.69L194.62,32.37L203.08,32.43L211.54,33.79L220,32.58L228.46,32.67L236.92,33.71L245.38,35.57L253.85,33.96L262.31,32.28L270.77,34.22L279.23,33.25L287.69,34.88L304.62,37.35L313.08,37.51L321.54,37.08L330,35.86L346.92,39.84L355.38,46.39L363.85,53.72L372.31,54.7L380.77,66.21L389.23,73.02L397.69,82.1L406.15,89.57L414.62,93.91L423.08,94.97L440,120.63L440,128.24L431.54,115.69L423.08,107.23L414.62,102.23L406.15,94.96L397.69,88.64L380.77,69.63L372.31,61.07L363.85,57.43L355.38,49.61L346.92,45.92L338.46,41.89L330,41.08L321.54,39.14L313.08,38.76L304.62,39.11L296.15,37.87L287.69,36.25L270.77,35.82L262.31,34.64L253.85,37.17L245.38,37.22L236.92,35.78L228.46,34.28L220,34.59L211.54,35.42L194.62,35.03L186.15,35.03L169.23,38.43L160.77,39.75L152.31,42.5L143.85,49.18L135.38,49.37L126.92,48.42L118.46,52.43L110,56.18L101.54,53.89L93.08,55.18L84.62,60.55L76.15,73.45L67.69,76.82L59.23,86.25L50.77,93.37L42.31,98.85L33.85,111.92L25.38,113.52L16.92,116.83L8.46,123.26L0,118.48Z" style="fill: rgb(245, 245, 245); fill-opacity: 1; stroke-width: 0;"/></g></g><g class="errorbars"/><g class="lines"><path class="js-line" d="M0,118.48L8.46,123.26L16.92,116.83L25.38,113.52L33.85,111.92L42.31,98.85L50.77,93.37L59.23,86.25L67.69,76.82L76.15,73.45L84.62,60.55L93.08,55.18L101.54,53.89L110,56.18L118.46,52.43L126.92,48.42L135.38,49.37L143.85,49.18L152.31,42.5L160.77,39.75L169.23,38.43L186.15,35.03L194.62,35.03L211.54,35.42L220,34.59L228.46,34.28L236.92,35.78L245.38,37.22L253.85,37.17L262.31,34.64L270.77,35.82L287.69,36.25L296.15,37.87L304.62,39.11L313.08,38.76L321.54,39.14L330,41.08L338.46,41.89L346.92,45.92L355.38,49.61L363.85,57.43L372.31,61.07L380.77,69.63L397.69,88.64L406.15,94.96L414.62,102.23L423.08,107.23L431.54,115.69L440,128.24" style="vector-effect: non-scaling-stroke; fill: none; stroke: rgb(0, 0, 0); stroke-opacity: 1; stroke-width: 1px; opacity: 1;"/></g><g class="points"/><g class="text"/></g><g class="trace scatter tracec4b1f3" style="stroke-miterlimit: 2;"><g class="fills"><g><path class="js-fill" d="M0,104.44L8.46,104.25L16.92,100.92L25.38,93.15L33.85,87.33L42.31,80.24L50.77,56.48L59.23,64.83L67.69,55.69L76.15,48.37L84.62,46.37L93.08,41.79L101.54,39.67L118.46,38.68L126.92,41.35L135.38,31.32L143.85,32.12L152.31,34.28L160.77,28.26L169.23,32.51L177.69,29.67L186.15,29.64L194.62,25.99L203.08,27.18L211.54,30.68L220,31.4L228.46,26.59L236.92,28.95L245.38,34.47L253.85,27.95L262.31,25.85L270.77,31.62L279.23,28.08L287.69,34.19L296.15,33.96L304.62,36.05L313.08,36.04L321.54,32.21L330,24.86L338.46,26.26L346.92,32.61L355.38,40L363.85,43.83L372.31,48.53L380.77,59.34L389.23,64.02L397.69,73.08L406.15,78.57L414.62,77.5L423.08,85.97L431.54,97.38L440,119.42L440,120.63L423.08,94.97L414.62,93.91L406.15,89.57L397.69,82.1L389.23,73.02L380.77,66.21L372.31,54.7L363.85,53.72L355.38,46.39L346.92,39.84L330,35.86L321.54,37.08L313.08,37.51L304.62,37.35L287.69,34.88L279.23,33.25L270.77,34.22L262.31,32.28L253.85,33.96L245.38,35.57L236.92,33.71L228.46,32.67L220,32.58L211.54,33.79L203.08,32.43L194.62,32.37L186.15,33.69L177.69,32.86L160.77,37.06L152.31,40.47L110,49.12L101.54,48.36L84.62,57.59L76.15,62.85L67.69,67L59.23,74.88L50.77,83.86L42.31,90.23L33.85,100.93L25.38,107.64L16.92,111.76L8.46,114.08L0,112.37Z" style="fill: rgb(216, 179, 101); fill-opacity: 1; stroke-width: 0;"/></g></g><g class="errorbars"/><g class="lines"><path class="js-line" d="M0,112.37L8.46,114.08L16.92,111.76L25.38,107.64L33.85,100.93L42.31,90.23L50.77,83.86L59.23,74.88L67.69,67L76.15,62.85L84.62,57.59L101.54,48.36L110,49.12L152.31,40.47L160.77,37.06L177.69,32.86L186.15,33.69L194.62,32.37L203.08,32.43L211.54,33.79L220,32.58L228.46,32.67L236.92,33.71L245.38,35.57L253.85,33.96L262.31,32.28L270.77,34.22L279.23,33.25L287.69,34.88L304.62,37.35L313.08,37.51L321.54,37.08L330,35.86L346.92,39.84L355.38,46.39L363.85,53.72L372.31,54.7L380.77,66.21L389.23,73.02L397.69,82.1L406.15,89.57L414.62,93.91L423.08,94.97L440,120.63" style="vector-effect: non-scaling-stroke; fill: none; stroke: rgb(0, 0, 0); stroke-opacity: 1; stroke-width: 0.5px; opacity: 1;"/></g><g class="points"/><g class="text"/></g><g class="trace scatter trace57b1cb" style="stroke-miterlimit: 2;"><g class="fills"/><g class="errorbars"/><g class="lines"><path class="js-line" d="M0,104.44L8.46,104.25L16.92,100.92L25.38,93.15L33.85,87.33L42.31,80.24L50.77,56.48L59.23,64.83L67.69,55.69L76.15,48.37L84.62,46.37L93.08,41.79L101.54,39.67L118.46,38.68L126.92,41.35L135.38,31.32L143.85,32.12L152.31,34.28L160.77,28.26L169.23,32.51L177.69,29.67L186.15,29.64L194.62,25.99L203.08,27.18L211.54,30.68L220,31.4L228.46,26.59L236.92,28.95L245.38,34.47L253.85,27.95L262.31,25.85L270.77,31.62L279.23,28.08L287.69,34.19L296.15,33.96L304.62,36.05L313.08,36.04L321.54,32.21L330,24.86L338.46,26.26L346.92,32.61L355.38,40L363.85,43.83L372.31,48.53L380.77,59.34L389.23,64.02L397.69,73.08L406.15,78.57L414.62,77.5L423.08,85.97L431.54,97.38L440,119.42" style="vector-effect: non-scaling-stroke; fill: none; stroke: rgb(0, 0, 0); stroke-opacity: 1; stroke-width: 0.25px; opacity: 1;"/></g><g class="points"/><g class="text"/></g><g class="trace scatter tracea5bc81" style="stroke-miterlimit: 2; opacity: 1;"><g class="fills"/><g class="errorbars"/><g class="lines"/><g class="points"><path class="point" transform="translate(186.15,29.76)" d="M4,0A4,4 0 1,1 0,-4A4,4 0 0,1 4,0ZM0,0.5L0.5,0L0,-0.5L-0.5,0Z" style="opacity: 1; stroke: rgb(0, 0, 0); stroke-opacity: 1; stroke-width: 1px; fill: none;"/><path class="point" transform="translate(194.62,29.76)" d="M4,0A4,4 0 1,1 0,-4A4,4 0 0,1 4,0ZM0,0.5L0.5,0L0,-0.5L-0.5,0Z" style="opacity: 1; stroke: rgb(0, 0, 0); stroke-opacity: 1; stroke-width: 1px; fill: none;"/><path class="point" transform="translate(203.08,37.2)" d="M4,0A4,4 0 1,1 0,-4A4,4 0 0,1 4,0ZM0,0.5L0.5,0L0,-0.5L-0.5,0Z" style="opacity: 1; stroke: rgb(0, 0, 0); stroke-opacity: 1; stroke-width: 1px; fill: none;"/><path class="point" transform="translate(211.54,37.2)" d="M4,0A4,4 0 1,1 0,-4A4,4 0 0,1 4,0ZM0,0.5L0.5,0L0,-0.5L-0.5,0Z" style="opacity: 1; stroke: rgb(0, 0, 0); stroke-opacity: 1; stroke-width: 1px; fill: none;"/></g><g class="text"/></g></g></g><g class="overplot"/><path class="xlines-above crisp" d="M0,0" style="fill: none;"/><path class="ylines-above crisp" d="M0,0" style="fill: none;"/><g class="overlines-above"/><g class="xaxislayer-above"><g class="x3tick"><text text-anchor="middle" x="0" y="733" transform="translate(156.15,0)" style="font-family: 'Open Sans', verdana, arial, sans-serif; font-size: 12px; fill: rgb(42, 63, 95); fill-opacity: 1; white-space: pre; opacity: 1;">10</text></g><g class="x3tick"><text text-anchor="middle" x="0" y="733" style="font-family: 'Open Sans', verdana, arial, sans-serif; font-size: 12px; fill: rgb(42, 63, 95); fill-opacity: 1; white-space: pre; opacity: 1;" transform="translate(240.77,0)">20</text></g><g class="x3tick"><text text-anchor="middle" x="0" y="733" style="font-family: 'Open Sans', verdana, arial, sans-serif; font-size: 12px; fill: rgb(42, 63, 95); fill-opacity: 1; white-space: pre; opacity: 1;" transform="translate(325.38,0)">30</text></g><g class="x3tick"><text text-anchor="middle" x="0" y="733" style="font-family: 'Open Sans', verdana, arial, sans-serif; font-size: 12px; fill: rgb(42, 63, 95); fill-opacity: 1; white-space: pre; opacity: 1;" transform="translate(410,0)">40</text></g><g class="x3tick"><text text-anchor="middle" x="0" y="733" style="font-family: 'Open Sans', verdana, arial, sans-serif; font-size: 12px; fill: rgb(42, 63, 95); fill-opacity: 1; white-space: pre; opacity: 1;" transform="translate(494.62,0)">50</text></g></g><g class="yaxislayer-above"><g class="y3tick"><text text-anchor="end" x="79" y="4.199999999999999" transform="translate(0,720)" style="font-family: 'Open Sans', verdana, arial, sans-serif; font-size: 12px; fill: rgb(42, 63, 95); fill-opacity: 1; white-space: pre; opacity: 1;">5</text></g><g class="y3tick"><text text-anchor="end" x="79" y="4.199999999999999" style="font-family: 'Open Sans', verdana, arial, sans-serif; font-size: 12px; fill: rgb(42, 63, 95); fill-opacity: 1; white-space: pre; opacity: 1;" transform="translate(0,682.8)">10</text></g><g class="y3tick"><text text-anchor="end" x="79" y="4.199999999999999" style="font-family: 'Open Sans', verdana, arial, sans-serif; font-size: 12px; fill: rgb(42, 63, 95); fill-opacity: 1; white-space: pre; opacity: 1;" transform="translate(0,645.6)">15</text></g><g class="y3tick"><text text-anchor="end" x="79" y="4.199999999999999" style="font-family: 'Open Sans', verdana, arial, sans-serif; font-size: 12px; fill: rgb(42, 63, 95); fill-opacity: 1; white-space: pre; opacity: 1;" transform="translate(0,608.4)">20</text></g><g class="y3tick"><text text-anchor="end" x="79" y="4.199999999999999" style="font-family: 'Open Sans', verdana, arial, sans-serif; font-size: 12px; fill: rgb(42, 63, 95); fill-opacity: 1; white-space: pre; opacity: 1;" transform="translate(0,571.2)">25</text></g><g class="y3tick"><text text-anchor="end" x="79" y="4.199999999999999" style="font-family: 'Open Sans', verdana, arial, sans-serif; font-size: 12px; fill: rgb(42, 63, 95); fill-opacity: 1; white-space: pre; opacity: 1;" transform="translate(0,534)">30</text></g></g><g class="overaxes-above"/></g></g><g class="polarlayer"/><g class="smithlayer"/><g class="ternarylayer"/><g class="geolayer"/><g class="funnelarealayer"/><g class="pielayer"/><g class="iciclelayer"/><g class="treemaplayer"/><g class="sunburstlayer"/><g class="glimages"/><defs id="topdefs-795511"><g class="clips"/></defs><g class="layer-above"><g class="imagelayer"/><g class="shapelayer"/></g><g class="infolayer"><g class="g-gtitle"><text class="gtitle" x="30" y="50" text-anchor="start" dy="0em" style="font-family: 'Open Sans', verdana, arial, sans-serif; font-size: 17px; fill: rgb(42, 63, 95); opacity: 1; font-weight: normal; white-space: pre;">Climatology and S2S forecast for Rajbari</text></g><g class="g-xtitle"/><g class="g-x2title"/><g class="g-x3title"/><g class="g-ytitle"><text class="ytitle" transform="rotate(-90,34.16875,193)" x="34.16875" y="193" text-anchor="middle" style="font-family: 'Open Sans', verdana, arial, sans-serif; font-size: 14px; fill: rgb(42, 63, 95); opacity: 1; font-weight: normal; white-space: pre;">[mm]</text></g><g class="g-y2title"><text class="y2title" transform="rotate(-90,40.840625,410.00000000000006)" x="40.840625" y="410.00000000000006" text-anchor="middle" style="font-family: 'Open Sans', verdana, arial, sans-serif; font-size: 14px; fill: rgb(42, 63, 95); opacity: 1; font-weight: normal; white-space: pre;">[C]</text></g><g class="g-y3title"><text class="y3title" transform="rotate(-90,40.840625,627)" x="40.840625" y="627" text-anchor="middle" style="font-family: 'Open Sans', verdana, arial, sans-serif; font-size: 14px; fill: rgb(42, 63, 95); opacity: 1; font-weight: normal; white-space: pre;">[C]</text></g><g class="annotation" data-index="0" style="opacity: 1;"><g class="annotation-text-g" transform="rotate(0,300,89.5)"><g class="cursor-pointer" transform="translate(237,79)"><rect class="bg" x="0.5" y="0.5" width="126" height="20" style="stroke-width: 1px; stroke: rgb(0, 0, 0); stroke-opacity: 0; fill: rgb(0, 0, 0); fill-opacity: 0;"/><text class="annotation-text" text-anchor="middle" x="63.359375" y="16" style="font-family: 'Open Sans', verdana, arial, sans-serif; font-size: 16px; fill: rgb(42, 63, 95); fill-opacity: 1; white-space: pre;">Precipitation sum</text></g></g></g><g class="annotation" data-index="1" style="opacity: 1;"><g class="annotation-text-g" transform="rotate(0,300,306.50000000000006)"><g class="cursor-pointer" transform="translate(196,296)"><rect class="bg" x="0.5" y="0.5" width="208" height="20" style="stroke-width: 1px; stroke: rgb(0, 0, 0); stroke-opacity: 0; fill: rgb(0, 0, 0); fill-opacity: 0;"/><text class="annotation-text" text-anchor="middle" x="104.265625" y="16" style="font-family: 'Open Sans', verdana, arial, sans-serif; font-size: 16px; fill: rgb(42, 63, 95); fill-opacity: 1; white-space: pre;">Mean maximum temperature</text></g></g></g><g class="annotation" data-index="2" style="opacity: 1;"><g class="annotation-text-g" transform="rotate(0,300,523.5)"><g class="cursor-pointer" transform="translate(198,513)"><rect class="bg" x="0.5" y="0.5" width="203" height="20" style="stroke-width: 1px; stroke: rgb(0, 0, 0); stroke-opacity: 0; fill: rgb(0, 0, 0); fill-opacity: 0;"/><text class="annotation-text" text-anchor="middle" x="102.046875" y="16" style="font-family: 'Open Sans', verdana, arial, sans-serif; font-size: 16px; fill: rgb(42, 63, 95); fill-opacity: 1; white-space: pre;">Mean minimum temperature</text></g></g></g><g class="annotation" data-index="3" style="opacity: 1;"><g class="annotation-text-g" transform="rotate(0,300,760.5)"><g class="cursor-pointer" transform="translate(277,750)"><rect class="bg" x="0.5" y="0.5" width="45" height="20" style="stroke-width: 1px; stroke: rgb(0, 0, 0); stroke-opacity: 0; fill: rgb(0, 0, 0); fill-opacity: 0;"/><text class="annotation-text" text-anchor="middle" x="22.3125" y="16" style="font-family: 'Open Sans', verdana, arial, sans-serif; font-size: 16px; fill: rgb(42, 63, 95); fill-opacity: 1; white-space: pre;">Week</text></g></g></g></g></svg>