<svg class="main-svg" xmlns="http://www.w3.org/2000/svg" xmlns:xlink="http://www.w3.org/1999/xlink" width="600" height="800" style="" viewBox="0 0 600 800"><rect x="0" y="0" width="600" height="800" style="fill: rgb(255, 255, 255); fill-opacity: 1;"/><defs id="defs-36ef1b"><g class="clips"><clipPath id="clip36ef1bxyplot" class="plotclip"><rect width="440" height="186.00000000000003"/></clipPath><clipPath id="clip36ef1bx2y2plot" class="plotclip"><rect width="440" height="185.99999999999997"/></clipPath><clipPath id="clip36ef1bx3y3plot" class="plotclip"><rect width="440" height="186"/></clipPath><clipPath class="axesclip" id="clip36ef1bx"><rect x="80" y="0" width="440" height="800"/></clipPath><clipPath class="axesclip" id="clip36ef1by"><rect x="0" y="100" width="600" height="186.00000000000003"/></clipPath><clipPath class="axesclip" id="clip36ef1bxy"><rect x="80" y="100" width="440" height="186.00000000000003"/></clipPath><clipPath class="axesclip" id="clip36ef1by2"><rect x="0" y="317.00000000000006" width="600" height="185.99999999999997"/></clipPath><clipPath class="axesclip" id="clip36ef1bxy2"><rect x="80" y="317.00000000000006" width="440" height="185.99999999999997"/></clipPath><clipPath class="axesclip" id="clip36ef1by3"><rect x="0" y="534" width="600" height="186"/></clipPath><clipPath class="axesclip" id="clip36ef1bxy3"><rect x="80" y="534" width="440" height="186"/></clipPath><clipPath class="axesclip" id="clip36ef1bx2"><rect x="80" y="0" width="440" height="800"/></clipPath><clipPath class="axesclip" id="clip36ef1bx2y"><rect x="80" y="100" width="440" height="186.00000000000003"/></clipPath><clipPath class="axesclip" id="clip36ef1bx2y2"><rect x="80" y="317.00000000000006" width="440" height="185.99999999999997"/></clipPath><clipPath class="axesclip" id="clip36ef1bx2y3"><rect x="80" y="534" width="440" height="186"/></clipPath><clipPath class="axesclip" id="clip36ef1bx3"><rect x="80" y="0" width="440" height="800"/></clipPath><clipPath class="axesclip" id="clip36ef1bx3y"><rect x="80" y="100" width="440" height="186.00000000000003"/></clipPath><clipPath class="axesclip" id="clip36ef1bx3y2"><rect x="80" y="317.00000000000006" width="440" height="185.99999999999997"/></clipPath><clipPath class="axesclip" id="clip36ef1bx3y3"><rect x="80" y="534" width="440" height="186"/></clipPath></g><g class="gradients"/><g class="patterns"/></defs><g class="bglayer"><rect class="bg" x="80" y="100" width="440" height="186.00000000000003" style="fill: rgb(229, 236, 246); fill-opacity: 1; stroke-width: 0;"/><rect class="bg" x="80" y="317.00000000000006" width="440" height="185.99999999999997" style="fill: rgb(229, 236, 246); fill-opacity: 1; stroke-width: 0;"/><rect class="bg" x="80" y="534" width="440" height="186" style="fill: rgb(229, 236, 246); fill-opacity: 1; stroke-width: 0;"/></g><g class="layer-below"><g class="imagelayer"/><g class="shapelayer"/></g><g class="cartesianlayer"><g class="subplot xy"><g class="layer-subplot"><g class="shapelayer"/><g class="imagelayer"/></g><g class="minor-gridlayer"><g class="x"/><g class="y"/></g><g class="gridlayer"><g class="x"><path class="xgrid crisp" transform="translate(156.15,0)" d="M0,100v186.00000000000003" style="stroke: rgb(255, 255, 255); stroke-opacity: 1; stroke-width: 1px;"/><path class="xgrid crisp" transform="translate(240.77,0)" d="M0,100v186.00000000000003" style="stroke: rgb(255, 255, 255); stroke-opacity: 1; stroke-width: 1px;"/><path class="xgrid crisp" transform="translate(325.38,0)" d="M0,100v186.00000000000003" style="stroke: rgb(255, 255, 255); stroke-opacity: 1; stroke-width: 1px;"/><path class="xgrid crisp" transform="translate(410,0)" d="M0,100v186.00000000000003" style="stroke: rgb(255, 255, 255); stroke-opacity: 1; stroke-width: 1px;"/><path class="xgrid crisp" transform="translate(494.62,0)" d="M0,100v186.00000000000003" style="stroke: rgb(255, 255, 255); stroke-opacity: 1; stroke-width: 1px;"/></g><g class="y"><path class="ygrid crisp" transform="translate(0,248.8)" d="M80,0h440" style="stroke: rgb(255, 255, 255); stroke-opacity: 1; stroke-width: 1px;"/><path class="ygrid crisp" transform="translate(0,211.6)" d="M80,0h440" style="stroke: rgb(255, 255, 255); stroke-opacity: 1; stroke-width: 1px;"/><path class="ygrid crisp" transform="translate(0,174.4)" d="M80,0h440" style="stroke: rgb(255, 255, 255); stroke-opacity: 1; stroke-width: 1px;"/><path class="ygrid crisp" transform="translate(0,137.2)" d="M80,0h440" style="stroke: rgb(255, 255, 255); stroke-opacity: 1; stroke-width: 1px;"/></g></g><g class="zerolinelayer"><path class="yzl zl crisp" transform="translate(0,286)" d="M80,0h440" style="stroke: rgb(255, 255, 255); stroke-opacity: 1; stroke-width: 2px;"/></g><path class="xlines-below"/><path class="ylines-below"/><g class="overlines-below"/><g class="xaxislayer-below"/><g class="yaxislayer-below"/><g class="overaxes-below"/><g class="plot" transform="translate(80,100)" clip-path="url(#clip36ef1bxyplot)"><g class="scatterlayer mlayer"><g class="trace scatter tracecbe263" style="stroke-miterlimit: 2;"><g class="fills"><g><path class="js-fill" d="M0,186L101.54,186L110,184.52L118.46,177.62L126.92,172L135.38,176.4L143.85,165.06L152.31,161.09L160.77,165.98L177.69,145.21L186.15,133.09L194.62,131.73L203.08,157.95L220,157.98L228.46,130.12L236.92,155.06L245.38,150.48L253.85,155.44L262.31,141.03L270.77,142.31L279.23,155.55L287.69,158.42L296.15,157.57L304.62,163.28L313.08,139.58L321.54,165.05L330,180.56L338.46,185.21L346.92,185.73L372.31,186L380.77,186L440,186L440,186L406.15,186L397.69,186L338.46,185.88L330,185.85L321.54,181.57L313.08,178.06L304.62,184.88L296.15,181.14L287.69,183.99L279.23,185.4L270.77,165.75L262.31,178.3L245.38,183.89L236.92,177.38L228.46,178.73L220,177.94L211.54,184.41L203.08,185.61L194.62,178.39L186.15,170.34L177.69,171.95L169.23,182.66L160.77,182.39L152.31,186L0,186Z" style="fill: rgb(224, 236, 244); fill-opacity: 1; stroke-width: 0;"/></g></g><g class="errorbars"/><g class="lines"><path class="js-line" d="M0,186L152.31,186L160.77,182.39L169.23,182.66L177.69,171.95L186.15,170.34L194.62,178.39L203.08,185.61L211.54,184.41L220,177.94L228.46,178.73L236.92,177.38L245.38,183.89L262.31,178.3L270.77,165.75L279.23,185.4L287.69,183.99L296.15,181.14L304.62,184.88L313.08,178.06L321.54,181.57L330,185.85L338.46,185.88L397.69,186L406.15,186L440,186" style="vector-effect: non-scaling-stroke; fill: none; stroke: rgb(0, 0, 0); stroke-opacity: 1; stroke-width: 0.25px; opacity: 1;"/></g><g class="points"/><g class="text"/></g><g class="trace scatter trace5183f7" style="stroke-miterlimit: 2;"><g class="fills"><g><path class="js-fill" d="M0,186L93.08,185.5L101.54,175.88L110,180.29L118.46,171.56L126.92,164.19L135.38,170.78L143.85,146.12L152.31,134.48L160.77,156.99L169.23,117L177.69,98.98L186.15,77.83L194.62,96.23L203.08,146.62L211.54,151.1L220,138.21L228.46,83.79L236.92,137.27L245.38,132.11L253.85,144.69L262.31,125.5L270.77,115.32L279.23,132.14L287.69,140.89L296.15,152.13L304.62,119.24L313.08,116.38L321.54,139.39L330,156.99L338.46,177.72L346.92,179.96L355.38,185.91L389.23,186L397.69,186L440,186L440,186L380.77,186L372.31,186L346.92,185.73L338.46,185.21L330,180.56L321.54,165.05L313.08,139.58L304.62,163.28L296.15,157.57L287.69,158.42L279.23,155.55L270.77,142.31L262.31,141.03L253.85,155.44L245.38,150.48L236.92,155.06L228.46,130.12L220,157.98L203.08,157.95L194.62,131.73L186.15,133.09L177.69,145.21L160.77,165.98L152.31,161.09L143.85,165.06L135.38,176.4L126.92,172L118.46,177.62L110,184.52L101.54,186L0,186Z" style="fill: rgb(158, 188, 218); fill-opacity: 1; stroke-width: 0;"/></g></g><g class="errorbars"/><g class="lines"><path class="js-line" d="M0,186L101.54,186L110,184.52L118.46,177.62L126.92,172L135.38,176.4L143.85,165.06L152.31,161.09L160.77,165.98L177.69,145.21L186.15,133.09L194.62,131.73L203.08,157.95L220,157.98L228.46,130.12L236.92,155.06L245.38,150.48L253.85,155.44L262.31,141.03L270.77,142.31L279.23,155.55L287.69,158.42L296.15,157.57L304.62,163.28L313.08,139.58L321.54,165.05L330,180.56L338.46,185.21L346.92,185.73L372.31,186L380.77,186L440,186" style="vector-effect: non-scaling-stroke; fill: none; stroke: rgb(0, 0, 0); stroke-opacity: 1; stroke-width: 0.5px; opacity: 1;"/></g><g class="points"/><g class="text"/></g><g class="trace scatter tracee8517b" style="stroke-miterlimit: 2;"><g class="fills"><g><path class="js-fill" d="M0,185.89L42.31,185.98L50.77,180.25L59.23,183.73L67.69,185.5L76.15,182.82L84.62,181.5L93.08,179.42L101.54,165.23L110,164.7L118.46,149.58L126.92,151.99L135.38,163.2L143.85,119.02L152.31,120.62L160.77,131.39L169.23,79.46L177.69,31.07L186.15,35.82L194.62,52.97L203.08,108.87L211.54,133.1L220,84.6L228.46,43.87L236.92,96.24L245.38,115.05L253.85,103.72L262.31,67.64L270.77,37.07L279.23,106.87L287.69,121.62L296.15,136.54L304.62,71.41L313.08,96.57L321.54,101.93L330,118.66L338.46,139.13L346.92,154.13L355.38,131.67L363.85,184.94L372.31,185.83L423.08,186L431.54,185.99L440,186L440,186L397.69,186L389.23,186L355.38,185.91L346.92,179.96L338.46,177.72L330,156.99L321.54,139.39L313.08,116.38L304.62,119.24L296.15,152.13L287.69,140.89L279.23,132.14L270.77,115.32L262.31,125.5L253.85,144.69L245.38,132.11L236.92,137.27L228.46,83.79L220,138.21L211.54,151.1L203.08,146.62L194.62,96.23L186.15,77.83L177.69,98.98L169.23,117L160.77,156.99L152.31,134.48L143.85,146.12L135.38,170.78L126.92,164.19L118.46,171.56L110,180.29L101.54,175.88L93.08,185.5L0,186Z" style="fill: rgb(158, 188, 218); fill-opacity: 1; stroke-width: 0;"/></g></g><g class="errorbars"/><g class="lines"><path class="js-line" d="M0,186L93.08,185.5L101.54,175.88L110,180.29L118.46,171.56L126.92,164.19L135.38,170.78L143.85,146.12L152.31,134.48L160.77,156.99L169.23,117L177.69,98.98L186.15,77.83L194.62,96.23L203.08,146.62L211.54,151.1L220,138.21L228.46,83.79L236.92,137.27L245.38,132.11L253.85,144.69L262.31,125.5L270.77,115.32L279.23,132.14L287.69,140.89L296.15,152.13L304.62,119.24L313.08,116.38L321.54,139.39L330,156.99L338.46,177.72L346.92,179.96L355.38,185.91L389.23,186L397.69,186L440,186" style="vector-effect: non-scaling-stroke; fill: none; stroke: rgb(0, 0, 0); stroke-opacity: 1; stroke-width: 1px; opacity: 1;"/></g><g class="points"/><g class="text"/></g><g class="trace scatter trace5d3dd5" style="stroke-miterlimit: 2;"><g class="fills"><g><path class="js-fill" d="M0,185.87L42.31,185.96L50.77,172.96L59.23,180.77L67.69,185.47L76.15,181.54L84.62,176.67L93.08,178.87L101.54,145.42L110,146.29L118.46,117.61L126.92,129.57L135.38,149.54L143.85,76.9L152.31,63.24L160.77,93.76L169.23,1.39L177.69,-7.17L186.15,-77.47L194.62,2.34L203.08,63.22L211.54,109.15L220,16.07L228.46,-74.9L236.92,9.81L245.38,81.08L253.85,33.45L262.31,-3.12L270.77,-83.55L279.23,83.49L287.69,102.59L296.15,112.74L304.62,22.32L313.08,37.63L321.54,41.52L330,71.93L338.46,70.49L346.92,129.77L355.38,65.47L363.85,184.88L372.31,185.79L414.62,186L423.08,186L440,186L440,186L431.54,185.99L423.08,186L372.31,185.83L363.85,184.94L355.38,131.67L346.92,154.13L338.46,139.13L330,118.66L321.54,101.93L313.08,96.57L304.62,71.41L296.15,136.54L287.69,121.62L279.23,106.87L270.77,37.07L262.31,67.64L253.85,103.72L245.38,115.05L236.92,96.24L228.46,43.87L220,84.6L211.54,133.1L203.08,108.87L194.62,52.97L186.15,35.82L177.69,31.07L169.23,79.46L160.77,131.39L152.31,120.62L143.85,119.02L135.38,163.2L126.92,151.99L118.46,149.58L110,164.7L101.54,165.23L93.08,179.42L84.62,181.5L76.15,182.82L67.69,185.5L59.23,183.73L50.77,180.25L42.31,185.98L0,185.89Z" style="fill: rgb(136, 86, 167); fill-opacity: 1; stroke-width: 0;"/></g></g><g class="errorbars"/><g class="lines"><path class="js-line" d="M0,185.89L42.31,185.98L50.77,180.25L59.23,183.73L67.69,185.5L76.15,182.82L84.62,181.5L93.08,179.42L101.54,165.23L110,164.7L118.46,149.58L126.92,151.99L135.38,163.2L143.85,119.02L152.31,120.62L160.77,131.39L169.23,79.46L177.69,31.07L186.15,35.82L194.62,52.97L203.08,108.87L211.54,133.1L220,84.6L228.46,43.87L236.92,96.24L245.38,115.05L253.85,103.72L262.31,67.64L270.77,37.07L279.23,106.87L287.69,121.62L296.15,136.54L304.62,71.41L313.08,96.57L321.54,101.93L330,118.66L338.46,139.13L346.92,154.13L355.38,131.67L363.85,184.94L372.31,185.83L423.08,186L431.54,185.99L440,186" style="vector-effect: non-scaling-stroke; fill: none; stroke: rgb(0, 0, 0); stroke-opacity: 1; stroke-width: 0.5px; opacity: 1;"/></g><g class="points"/><g class="text"/></g><g class="trace scatter tracee746a9" style="stroke-miterlimit: 2;"><g class="fills"/><g class="errorbars"/><g class="lines"><path class="js-line" d="M0,185.87L42.31,185.96L50.77,172.96L59.23,180.77L67.69,185.47L76.15,181.54L84.62,176.67L93.08,178.87L101.54,145.42L110,146.29L118.46,117.61L126.92,129.57L135.38,149.54L143.85,76.9L152.31,63.24L160.77,93.76L169.23,1.39L177.69,-7.17L186.15,-77.47L194.62,2.34L203.08,63.22L211.54,109.15L220,16.07L228.46,-74.9L236.92,9.81L245.38,81.08L253.85,33.45L262.31,-3.12L270.77,-83.55L279.23,83.49L287.69,102.59L296.15,112.74L304.62,22.32L313.08,37.63L321.54,41.52L330,71.93L338.46,70.49L346.92,129.77L355.38,65.47L363.85,184.88L372.31,185.79L414.62,186L423.08,186L440,186" style="vector-effect: non-scaling-stroke; fill: none; stroke: rgb(0, 0, 0); stroke-opacity: 1; stroke-width: 0.25px; opacity: 1;"/></g><g class="points"/><g class="text"/></g><g class="trace scatter trace4c02cd" style="stroke-miterlimit: 2; opacity: 1;"><g class="fills"/><g class="errorbars"/><g class="lines"/><g class="points"><path class="point" transform="translate(169.23,78.12)" d="M4,0A4,4 0 1,1 0,-4A4,4 0 0,1 4,0ZM0,0.5L0.5,0L0,-0.5L-0.5,0Z" style="opacity: 1; stroke: rgb(0, 0, 0); stroke-opacity: 1; stroke-width: 1px; fill: none;"/><path class="point" transform="translate(177.69,98.95)" d="M4,0A4,4 0 1,1 0,-4A4,4 0 0,1 4,0ZM0,0.5L0.5,0L0,-0.5L-0.5,0Z" style="opacity: 1; stroke: rgb(0, 0, 0); stroke-opacity: 1; stroke-width: 1px; fill: none;"/><path class="point" transform="translate(186.15,29.76)" d="M4,0A4,4 0 1,1 0,-4A4,4 0 0,1 4,0ZM0,0.5L0.5,0L0,-0.5L-0.5,0Z" style="opacity: 1; stroke: rgb(0, 0, 0); stroke-opacity: 1; stroke-width: 1px; fill: none;"/><path class="point" transform="translate(194.62,29.76)" d="M4,0A4,4 0 1,1 0,-4A4,4 0 0,1 4,0ZM0,0.5L0.5,0L0,-0.5L-0.5,0Z" style="opacity: 1; stroke: rgb(0, 0, 0); stroke-opacity: 1; stroke-width: 1px; fill: none;"/></g><g class="text"/></g></g></g><g class="overplot"/><path class="xlines-above crisp" d="M0,0" style="fill: none;"/><path class="ylines-above crisp" d="M0,0" style="fill: none;"/><g class="overlines-above"/><g class="xaxislayer-above"/><g class="yaxislayer-above"><g class="ytick"><text text-anchor="end" x="79" y="4.199999999999999" transform="translate(0,286)" style="font-family: 'Open Sans', verdana, arial, sans-serif; font-size: 12px; fill: rgb(42, 63, 95); fill-opacity: 1; white-space: pre; opacity: 1;">0</text></g><g class="ytick"><text text-anchor="end" x="79" y="4.199999999999999" style="font-family: 'Open Sans', verdana, arial, sans-serif; font-size: 12px; fill: rgb(42, 63, 95); fill-opacity: 1; white-space: pre; opacity: 1;" transform="translate(0,248.8)">50</text></g><g class="ytick"><text text-anchor="end" x="79" y="4.199999999999999" style="font-family: 'Open Sans', verdana, arial, sans-serif; font-size: 12px; fill: rgb(42, 63, 95); fill-opacity: 1; white-space: pre; opacity: 1;" transform="translate(0,211.6)">100</text></g><g class="ytick"><text text-anchor="end" x="79" y="4.199999999999999" style="font-family: 'Open Sans', verdana, arial, sans-serif; font-size: 12px; fill: rgb(42, 63, 95); fill-opacity: 1; white-space: pre; opacity: 1;" transform="translate(0,174.4)">150</text></g><g class="ytick"><text text-anchor="end" x="79" y="4.199999999999999" style="font-family: 'Open Sans', verdana, arial, sans-serif; font-size: 12px; fill: rgb(42, 63, 95); fill-opacity: 1; white-space: pre; opacity: 1;" transform="translate(0,137.2)">200</text></g><g class="ytick"><text text-anchor="end" x="79" y="4.199999999999999" style="font-family: 'Open Sans', verdana, arial, sans-serif; font-size: 12px; fill: rgb(42, 63, 95); fill-opacity: 1; white-space: pre; opacity: 1;" transform="translate(0,100)">250</text></g></g><g class="overaxes-above"/></g><g class="subplot x2y2"><g class="layer-subplot"><g class="shapelayer"/><g class="imagelayer"/></g><g class="minor-gridlayer"><g class="x2"/><g class="y2"/></g><g class="gridlayer"><g class="x2"><path class="x2grid crisp" transform="translate(156.15,0)" d="M0,317.00000000000006v185.99999999999997" style="stroke: rgb(255, 255, 255); stroke-opacity: 1; stroke-width: 1px;"/><path class="x2grid crisp" transform="translate(240.77,0)" d="M0,317.00000000000006v185.99999999999997" style="stroke: rgb(255, 255, 255); stroke-opacity: 1; stroke-width: 1px;"/><path class="x2grid crisp" transform="translate(325.38,0)" d="M0,317.00000000000006v185.99999999999997" style="stroke: rgb(255, 255, 255); stroke-opacity: 1; stroke-width: 1px;"/><path class="x2grid crisp" transform="translate(410,0)" d="M0,317.00000000000006v185.99999999999997" style="stroke: rgb(255, 255, 255); stroke-opacity: 1; stroke-width: 1px;"/><path class="x2grid crisp" transform="translate(494.62,0)" d="M0,317.00000000000006v185.99999999999997" style="stroke: rgb(255, 255, 255); stroke-opacity: 1; stroke-width: 1px;"/></g><g class="y2"><path class="y2grid crisp" transform="translate(0,472.00000000000006)" d="M80,0h440" style="stroke: rgb(255, 255, 255); stroke-opacity: 1; stroke-width: 1px;"/><path class="y2grid crisp" transform="translate(0,410.00000000000006)" d="M80,0h440" style="stroke: rgb(255, 255, 255); stroke-opacity: 1; stroke-width: 1px;"/><path class="y2grid crisp" transform="translate(0,348.00000000000006)" d="M80,0h440" style="stroke: rgb(255, 255, 255); stroke-opacity: 1; stroke-width: 1px;"/></g></g><g class="zerolinelayer"/><path class="xlines-below"/><path class="ylines-below"/><g class="overlines-below"/><g class="xaxislayer-below"/><g class="yaxislayer-below"/><g class="overaxes-below"/><g class="plot" transform="translate(80,317.00000000000006)" clip-path="url(#clip36ef1bx2y2plot)"><g class="scatterlayer mlayer"><g class="trace scatter trace6ac6df" style="stroke-miterlimit: 2;"><g class="fills"><g><path class="js-fill" d="M0,135.53L8.46,142.77L16.92,133.19L25.38,133.57L33.85,124.6L42.31,113.7L50.77,111.42L59.23,103.78L67.69,95.09L76.15,91.1L84.62,79.29L93.08,79.18L101.54,88.79L110,90.79L118.46,88.97L126.92,86.98L135.38,90.61L152.31,83.9L160.77,87.15L169.23,86.14L177.69,87.81L186.15,92.29L194.62,94.64L203.08,93.31L211.54,98.16L220,96.03L228.46,95.32L236.92,95.97L245.38,94.17L253.85,90.17L262.31,89.1L270.77,97.21L279.23,93.16L287.69,91.91L296.15,94.88L304.62,93.97L313.08,95.28L330,92.71L338.46,92.76L346.92,90.92L355.38,90.01L363.85,94.13L372.31,96.96L380.77,102.78L389.23,107.68L406.15,122.16L414.62,124.66L423.08,134.87L431.54,135.01L440,131.01L440,139.87L431.54,140.47L423.08,147.38L414.62,131.68L406.15,129.76L397.69,125.77L389.23,111.25L380.77,112.49L372.31,102.92L363.85,97.52L355.38,96.72L346.92,103.45L338.46,107.53L330,108.59L321.54,105.22L313.08,101.06L304.62,105.13L296.15,111.16L287.69,107.61L279.23,106.29L270.77,109.39L262.31,100.17L253.85,103.98L245.38,102.83L228.46,110.71L220,110.8L211.54,102.12L203.08,105.75L194.62,104.34L186.15,100.88L177.69,95.21L169.23,92.91L160.77,95.39L152.31,94.24L143.85,95.21L135.38,99.55L126.92,98.76L118.46,100.62L110,100.71L101.54,102.12L93.08,99.02L84.62,95.31L76.15,113.55L67.69,108.42L59.23,113.9L50.77,129.23L33.85,134.37L25.38,147.47L16.92,144.37L8.46,151.1L0,148.65Z" style="fill: rgb(145, 191, 219); fill-opacity: 1; stroke-width: 0;"/></g></g><g class="errorbars"/><g class="lines"><path class="js-line" d="M0,148.65L8.46,151.1L16.92,144.37L25.38,147.47L33.85,134.37L50.77,129.23L59.23,113.9L67.69,108.42L76.15,113.55L84.62,95.31L93.08,99.02L101.54,102.12L110,100.71L118.46,100.62L126.92,98.76L135.38,99.55L143.85,95.21L152.31,94.24L160.77,95.39L169.23,92.91L177.69,95.21L186.15,100.88L194.62,104.34L203.08,105.75L211.54,102.12L220,110.8L228.46,110.71L245.38,102.83L253.85,103.98L262.31,100.17L270.77,109.39L279.23,106.29L287.69,107.61L296.15,111.16L304.62,105.13L313.08,101.06L321.54,105.22L330,108.59L338.46,107.53L346.92,103.45L355.38,96.72L363.85,97.52L372.31,102.92L380.77,112.49L389.23,111.25L397.69,125.77L406.15,129.76L414.62,131.68L423.08,147.38L431.54,140.47L440,139.87" style="vector-effect: non-scaling-stroke; fill: none; stroke: rgb(0, 0, 0); stroke-opacity: 1; stroke-width: 0.25px; opacity: 1;"/></g><g class="points"/><g class="text"/></g><g class="trace scatter tracec16d66" style="stroke-miterlimit: 2;"><g class="fills"><g><path class="js-fill" d="M0,128.48L8.46,134.32L16.92,126.66L25.38,125.2L33.85,117.04L50.77,101.19L59.23,95.79L67.69,85.87L76.15,84.63L84.62,72.27L93.08,68.56L110,79.8L118.46,77.02L126.92,81.97L135.38,80.56L143.85,85.43L152.31,79.49L160.77,82.81L169.23,82.95L177.69,84.9L186.15,85.67L194.62,89.77L203.08,88.44L220,89.68L228.46,89.15L236.92,87.51L245.38,89.32L253.85,83.39L262.31,83.88L270.77,87.69L279.23,87.86L296.15,86.36L304.62,88.79L321.54,89.24L330,84.81L338.46,87.11L346.92,87.51L355.38,86.27L363.85,91.49L372.31,93.75L380.77,98.85L389.23,105.75L397.69,109.16L406.15,115.59L414.62,120.63L423.08,124.31L431.54,130.16L440,127.8L440,131.01L431.54,135.01L423.08,134.87L414.62,124.66L406.15,122.16L389.23,107.68L380.77,102.78L372.31,96.96L363.85,94.13L355.38,90.01L346.92,90.92L338.46,92.76L330,92.71L313.08,95.28L304.62,93.97L296.15,94.88L287.69,91.91L279.23,93.16L270.77,97.21L262.31,89.1L253.85,90.17L245.38,94.17L236.92,95.97L228.46,95.32L220,96.03L211.54,98.16L203.08,93.31L194.62,94.64L186.15,92.29L177.69,87.81L169.23,86.14L160.77,87.15L152.31,83.9L135.38,90.61L126.92,86.98L118.46,88.97L110,90.79L101.54,88.79L93.08,79.18L84.62,79.29L76.15,91.1L67.69,95.09L59.23,103.78L50.77,111.42L42.31,113.7L33.85,124.6L25.38,133.57L16.92,133.19L8.46,142.77L0,135.53Z" style="fill: rgb(255, 255, 191); fill-opacity: 1; stroke-width: 0;"/></g></g><g class="errorbars"/><g class="lines"><path class="js-line" d="M0,135.53L8.46,142.77L16.92,133.19L25.38,133.57L33.85,124.6L42.31,113.7L50.77,111.42L59.23,103.78L67.69,95.09L76.15,91.1L84.62,79.29L93.08,79.18L101.54,88.79L110,90.79L118.46,88.97L126.92,86.98L135.38,90.61L152.31,83.9L160.77,87.15L169.23,86.14L177.69,87.81L186.15,92.29L194.62,94.64L203.08,93.31L211.54,98.16L220,96.03L228.46,95.32L236.92,95.97L245.38,94.17L253.85,90.17L262.31,89.1L270.77,97.21L279.23,93.16L287.69,91.91L296.15,94.88L304.62,93.97L313.08,95.28L330,92.71L338.46,92.76L346.92,90.92L355.38,90.01L363.85,94.13L372.31,96.96L380.77,102.78L389.23,107.68L406.15,122.16L414.62,124.66L423.08,134.87L431.54,135.01L440,131.01" style="vector-effect: non-scaling-stroke; fill: none; stroke: rgb(0, 0, 0); stroke-opacity: 1; stroke-width: 0.5px; opacity: 1;"/></g><g class="points"/><g class="text"/></g><g class="trace scatter trace33a8be" style="stroke-miterlimit: 2;"><g class="fills"><g><path class="js-fill" d="M0,124.11L8.46,128.91L16.92,119.28L25.38,119.79L33.85,113.06L42.31,100.31L50.77,94.17L59.23,89.9L67.69,77.17L76.15,73.51L84.62,68.05L93.08,61.09L101.54,59.03L110,68.58L118.46,70.21L126.92,75.8L135.38,66.63L143.85,82.1L152.31,76.3L160.77,74.87L169.23,77.52L177.69,81.33L186.15,79.82L194.62,84.66L203.08,84.5L211.54,81.86L220,81.92L228.46,84.9L236.92,80.65L245.38,81.45L253.85,80.42L270.77,80.28L279.23,82.26L287.69,80.38L296.15,80.89L304.62,84.45L313.08,80.19L321.54,85.49L330,77.3L338.46,79.87L346.92,79.69L363.85,88.93L372.31,90.99L380.77,96.03L389.23,102.38L397.69,104.18L406.15,112.15L414.62,114.48L423.08,120.21L431.54,121.21L440,120.27L440,127.8L431.54,130.16L423.08,124.31L414.62,120.63L406.15,115.59L397.69,109.16L389.23,105.75L380.77,98.85L372.31,93.75L363.85,91.49L355.38,86.27L346.92,87.51L338.46,87.11L330,84.81L321.54,89.24L304.62,88.79L296.15,86.36L279.23,87.86L270.77,87.69L262.31,83.88L253.85,83.39L245.38,89.32L236.92,87.51L228.46,89.15L220,89.68L203.08,88.44L194.62,89.77L186.15,85.67L177.69,84.9L169.23,82.95L160.77,82.81L152.31,79.49L143.85,85.43L135.38,80.56L126.92,81.97L118.46,77.02L110,79.8L93.08,68.56L84.62,72.27L76.15,84.63L67.69,85.87L59.23,95.79L50.77,101.19L33.85,117.04L25.38,125.2L16.92,126.66L8.46,134.32L0,128.48Z" style="fill: rgb(255, 255, 191); fill-opacity: 1; stroke-width: 0;"/></g></g><g class="errorbars"/><g class="lines"><path class="js-line" d="M0,128.48L8.46,134.32L16.92,126.66L25.38,125.2L33.85,117.04L50.77,101.19L59.23,95.79L67.69,85.87L76.15,84.63L84.62,72.27L93.08,68.56L110,79.8L118.46,77.02L126.92,81.97L135.38,80.56L143.85,85.43L152.31,79.49L160.77,82.81L169.23,82.95L177.69,84.9L186.15,85.67L194.62,89.77L203.08,88.44L220,89.68L228.46,89.15L236.92,87.51L245.38,89.32L253.85,83.39L262.31,83.88L270.77,87.69L279.23,87.86L296.15,86.36L304.62,88.79L321.54,89.24L330,84.81L338.46,87.11L346.92,87.51L355.38,86.27L363.85,91.49L372.31,93.75L380.77,98.85L389.23,105.75L397.69,109.16L406.15,115.59L414.62,120.63L423.08,124.31L431.54,130.16L440,127.8" style="vector-effect: non-scaling-stroke; fill: none; stroke: rgb(0, 0, 0); stroke-opacity: 1; stroke-width: 1px; opacity: 1;"/></g><g class="points"/><g class="text"/></g><g class="trace scatter trace36a960" style="stroke-miterlimit: 2;"><g class="fills"><g><path class="js-fill" d="M0,113.28L16.92,116.38L25.38,105.75L33.85,104.25L42.31,93.8L50.77,76.08L59.23,79.8L67.69,66.87L76.15,58.81L84.62,58.81L93.08,56.6L101.54,47.21L110,49.6L118.46,53.76L126.92,64.75L135.38,32.95L143.85,74.67L152.31,71.12L160.77,65.18L169.23,66.34L177.69,72.81L186.15,74.05L194.62,72.72L203.08,72.81L211.54,74.05L220,66.96L228.46,75.99L236.92,68.73L245.38,66.16L253.85,70.95L262.31,67.2L270.77,70.35L279.23,71.03L287.69,69L296.15,72.77L304.62,79.34L313.08,70.57L321.54,74.48L330,67.23L338.46,62.51L346.92,67.45L355.38,76.44L363.85,84.14L372.31,85.21L380.77,89.99L389.23,97.69L397.69,97.96L406.15,106.93L414.62,110.45L423.08,114.35L431.54,117.37L440,112.63L440,120.27L431.54,121.21L423.08,120.21L414.62,114.48L406.15,112.15L397.69,104.18L389.23,102.38L380.77,96.03L372.31,90.99L363.85,88.93L346.92,79.69L338.46,79.87L330,77.3L321.54,85.49L313.08,80.19L304.62,84.45L296.15,80.89L287.69,80.38L279.23,82.26L270.77,80.28L253.85,80.42L245.38,81.45L236.92,80.65L228.46,84.9L220,81.92L211.54,81.86L203.08,84.5L194.62,84.66L186.15,79.82L177.69,81.33L169.23,77.52L160.77,74.87L152.31,76.3L143.85,82.1L135.38,66.63L126.92,75.8L118.46,70.21L110,68.58L101.54,59.03L93.08,61.09L84.62,68.05L76.15,73.51L67.69,77.17L59.23,89.9L50.77,94.17L42.31,100.31L33.85,113.06L25.38,119.79L16.92,119.28L8.46,128.91L0,124.11Z" style="fill: rgb(252, 141, 89); fill-opacity: 1; stroke-width: 0;"/></g></g><g class="errorbars"/><g class="lines"><path class="js-line" d="M0,124.11L8.46,128.91L16.92,119.28L25.38,119.79L33.85,113.06L42.31,100.31L50.77,94.17L59.23,89.9L67.69,77.17L76.15,73.51L84.62,68.05L93.08,61.09L101.54,59.03L110,68.58L118.46,70.21L126.92,75.8L135.38,66.63L143.85,82.1L152.31,76.3L160.77,74.87L169.23,77.52L177.69,81.33L186.15,79.82L194.62,84.66L203.08,84.5L211.54,81.86L220,81.92L228.46,84.9L236.92,80.65L245.38,81.45L253.85,80.42L270.77,80.28L279.23,82.26L287.69,80.38L296.15,80.89L304.62,84.45L313.08,80.19L321.54,85.49L330,77.3L338.46,79.87L346.92,79.69L363.85,88.93L372.31,90.99L380.77,96.03L389.23,102.38L397.69,104.18L406.15,112.15L414.62,114.48L423.08,120.21L431.54,121.21L440,120.27" style="vector-effect: non-scaling-stroke; fill: none; stroke: rgb(0, 0, 0); stroke-opacity: 1; stroke-width: 0.5px; opacity: 1;"/></g><g class="points"/><g class="text"/></g><g class="trace scatter tracebb2e20" style="stroke-miterlimit: 2;"><g class="fills"/><g class="errorbars"/><g class="lines"><path class="js-line" d="M0,113.28L16.92,116.38L25.38,105.75L33.85,104.25L42.31,93.8L50.77,76.08L59.23,79.8L67.69,66.87L76.15,58.81L84.62,58.81L93.08,56.6L101.54,47.21L110,49.6L118.46,53.76L126.92,64.75L135.38,32.95L143.85,74.67L152.31,71.12L160.77,65.18L169.23,66.34L177.69,72.81L186.15,74.05L194.62,72.72L203.08,72.81L211.54,74.05L220,66.96L228.46,75.99L236.92,68.73L245.38,66.16L253.85,70.95L262.31,67.2L270.77,70.35L279.23,71.03L287.69,69L296.15,72.77L304.62,79.34L313.08,70.57L321.54,74.48L330,67.23L338.46,62.51L346.92,67.45L355.38,76.44L363.85,84.14L372.31,85.21L380.77,89.99L389.23,97.69L397.69,97.96L406.15,106.93L414.62,110.45L423.08,114.35L431.54,117.37L440,112.63" style="vector-effect: non-scaling-stroke; fill: none; stroke: rgb(0, 0, 0); stroke-opacity: 1; stroke-width: 0.25px; opacity: 1;"/></g><g class="points"/><g class="text"/></g><g class="trace scatter trace7ab022" style="stroke-miterlimit: 2; opacity: 1;"><g class="fills"/><g class="errorbars"/><g class="lines"/><g class="points"><path class="point" transform="translate(169.23,86.8)" d="M4,0A4,4 0 1,1 0,-4A4,4 0 0,1 4,0ZM0,0.5L0.5,0L0,-0.5L-0.5,0Z" style="opacity: 1; stroke: rgb(0, 0, 0); stroke-opacity: 1; stroke-width: 1px; fill: none;"/><path class="point" transform="translate(177.69,80.6)" d="M4,0A4,4 0 1,1 0,-4A4,4 0 0,1 4,0ZM0,0.5L0.5,0L0,-0.5L-0.5,0Z" style="opacity: 1; stroke: rgb(0, 0, 0); stroke-opacity: 1; stroke-width: 1px; fill: none;"/><path class="point" transform="translate(186.15,80.6)" d="M4,0A4,4 0 1,1 0,-4A4,4 0 0,1 4,0ZM0,0.5L0.5,0L0,-0.5L-0.5,0Z" style="opacity: 1; stroke: rgb(0, 0, 0); stroke-opacity: 1; stroke-width: 1px; fill: none;"/><path class="point" transform="translate(194.62,80.6)" d="M4,0A4,4 0 1,1 0,-4A4,4 0 0,1 4,0ZM0,0.5L0.5,0L0,-0.5L-0.5,0Z" style="opacity: 1; stroke: rgb(0, 0, 0); stroke-opacity: 1; stroke-width: 1px; fill: none;"/></g><g class="text"/></g></g></g><g class="overplot"/><path class="xlines-above crisp" d="M0,0" style="fill: none;"/><path class="ylines-above crisp" d="M0,0" style="fill: none;"/><g class="overlines-above"/><g class="xaxislayer-above"/><g class="yaxislayer-above"><g class="y2tick"><text text-anchor="end" x="79" y="4.199999999999999" transform="translate(0,472.00000000000006)" style="font-family: 'Open Sans', verdana, arial, sans-serif; font-size: 12px; fill: rgb(42, 63, 95); fill-opacity: 1; white-space: pre; opacity: 1;">20</text></g><g class="y2tick"><text text-anchor="end" x="79" y="4.199999999999999" style="font-family: 'Open Sans', verdana, arial, sans-serif; font-size: 12px; fill: rgb(42, 63, 95); fill-opacity: 1; white-space: pre; opacity: 1;" transform="translate(0,410.00000000000006)">30</text></g><g class="y2tick"><text text-anchor="end" x="79" y="4.199999999999999" style="font-family: 'Open Sans', verdana, arial, sans-serif; font-size: 12px; fill: rgb(42, 63, 95); fill-opacity: 1; white-space: pre; opacity: 1;" transform="translate(0,348.00000000000006)">40</text></g></g><g class="overaxes-above"/></g><g class="subplot x3y3"><g class="layer-subplot"><g class="shapelayer"/><g class="imagelayer"/></g><g class="minor-gridlayer"><g class="x3"/><g class="y3"/></g><g class="gridlayer"><g class="x3"><path class="x3grid crisp" transform="translate(156.15,0)" d="M0,534v186" style="stroke: rgb(255, 255, 255); stroke-opacity: 1; stroke-width: 1px;"/><path class="x3grid crisp" transform="translate(240.77,0)" d="M0,534v186" style="stroke: rgb(255, 255, 255); stroke-opacity: 1; stroke-width: 1px;"/><path class="x3grid crisp" transform="translate(325.38,0)" d="M0,534v186" style="stroke: rgb(255, 255, 255); stroke-opacity: 1; stroke-width: 1px;"/><path class="x3grid crisp" transform="translate(410,0)" d="M0,534v186" style="stroke: rgb(255, 255, 255); stroke-opacity: 1; stroke-width: 1px;"/><path class="x3grid crisp" transform="translate(494.62,0)" d="M0,534v186" style="stroke: rgb(255, 255, 255); stroke-opacity: 1; stroke-width: 1px;"/></g><g class="y3"><path class="y3grid crisp" transform="translate(0,682.8)" d="M80,0h440" style="stroke: rgb(255, 255, 255); stroke-opacity: 1; stroke-width: 1px;"/><path class="y3grid crisp" transform="translate(0,645.6)" d="M80,0h440" style="stroke: rgb(255, 255, 255); stroke-opacity: 1; stroke-width: 1px;"/><path class="y3grid crisp" transform="translate(0,608.4)" d="M80,0h440" style="stroke: rgb(255, 255, 255); stroke-opacity: 1; stroke-width: 1px;"/><path class="y3grid crisp" transform="translate(0,571.2)" d="M80,0h440" style="stroke: rgb(255, 255, 255); stroke-opacity: 1; stroke-width: 1px;"/></g></g><g class="zerolinelayer"/><path class="xlines-below"/><path class="ylines-below"/><g class="overlines-below"/><g class="xaxislayer-below"/><g class="yaxislayer-below"/><g class="overaxes-below"/><g class="plot" transform="translate(80,534)" clip-path="url(#clip36ef1bx3y3plot)"><g class="scatterlayer mlayer"><g class="trace scatter tracec39775" style="stroke-miterlimit: 2;"><g class="fills"><g><path class="js-fill" d="M0,117.45L8.46,130.43L16.92,119.36L25.38,118.32L33.85,118.43L42.31,110.32L50.77,105.57L67.69,88.78L76.15,87.2L84.62,74.9L93.08,75.1L101.54,68.18L110,67.04L118.46,65.84L126.92,59.52L135.38,57.55L143.85,61.11L152.31,52.05L160.77,47.95L177.69,43.31L186.15,41.93L211.54,39.59L220,39.59L253.85,40.71L262.31,39.16L270.77,40.34L279.23,40.73L287.69,40.15L296.15,41.71L321.54,43.5L330,45.49L338.46,48.07L346.92,51.44L355.38,55.19L363.85,60.88L372.31,67.29L380.77,74.93L389.23,82.41L397.69,92.92L406.15,100.09L414.62,102.25L423.08,119.01L431.54,118.75L440,127.48L440,136.17L431.54,133.71L423.08,125.01L414.62,116.17L406.15,116.38L397.69,109.91L389.23,88.64L380.77,83.69L372.31,73.66L363.85,65.68L355.38,60.26L346.92,58.14L338.46,54.74L330,53.04L321.54,46.98L313.08,49L296.15,43.79L287.69,43.15L279.23,44.21L270.77,44.75L262.31,44.43L253.85,41.88L245.38,45.92L236.92,43.15L220,43.26L211.54,41.66L203.08,44.32L194.62,44.75L186.15,46.34L177.69,46.13L169.23,53.36L160.77,55.37L152.31,60.35L143.85,62.76L135.38,68.33L126.92,70.33L118.46,68.77L110,79.29L101.54,77.27L93.08,87.15L84.62,95.34L76.15,100.33L67.69,107.99L59.23,108.73L50.77,125.95L42.31,133.94L33.85,131.79L25.38,132.65L16.92,130.2L8.46,140.4L0,129.83Z" style="fill: rgb(90, 180, 172); fill-opacity: 1; stroke-width: 0;"/></g></g><g class="errorbars"/><g class="lines"><path class="js-line" d="M0,129.83L8.46,140.4L16.92,130.2L25.38,132.65L33.85,131.79L42.31,133.94L50.77,125.95L59.23,108.73L67.69,107.99L76.15,100.33L84.62,95.34L93.08,87.15L101.54,77.27L110,79.29L118.46,68.77L126.92,70.33L135.38,68.33L143.85,62.76L152.31,60.35L160.77,55.37L169.23,53.36L177.69,46.13L186.15,46.34L194.62,44.75L203.08,44.32L211.54,41.66L220,43.26L236.92,43.15L245.38,45.92L253.85,41.88L262.31,44.43L270.77,44.75L279.23,44.21L287.69,43.15L296.15,43.79L313.08,49L321.54,46.98L330,53.04L338.46,54.74L346.92,58.14L355.38,60.26L363.85,65.68L372.31,73.66L380.77,83.69L389.23,88.64L397.69,109.91L406.15,116.38L414.62,116.17L423.08,125.01L431.54,133.71L440,136.17" style="vector-effect: non-scaling-stroke; fill: none; stroke: rgb(0, 0, 0); stroke-opacity: 1; stroke-width: 0.25px; opacity: 1;"/></g><g class="points"/><g class="text"/></g><g class="trace scatter trace50b312" style="stroke-miterlimit: 2;"><g class="fills"><g><path class="js-fill" d="M0,113.16L8.46,120.58L16.92,112.82L33.85,110.22L42.31,101.98L50.77,93.74L59.23,89.07L67.69,79.13L76.15,79.24L84.62,69.88L93.08,63.19L101.54,59.2L110,60.48L118.46,58.99L126.92,54.21L143.85,54.1L152.31,49L160.77,43.26L169.23,41.93L177.69,41.61L186.15,39.43L203.08,39.01L211.54,38.58L220,37.2L228.46,38.69L236.92,38.74L245.38,39.8L253.85,38.48L262.31,35.92L270.77,38.74L279.23,37.52L296.15,39.38L304.62,40.55L321.54,41.5L330,40.02L338.46,44.37L346.92,46.02L355.38,50.86L363.85,57.39L372.31,63.26L380.77,71.14L389.23,76.95L397.69,85.77L406.15,92.68L414.62,98.21L423.08,101.72L431.54,109.95L440,118.48L440,127.48L431.54,118.75L423.08,119.01L414.62,102.25L406.15,100.09L397.69,92.92L389.23,82.41L380.77,74.93L372.31,67.29L363.85,60.88L355.38,55.19L346.92,51.44L338.46,48.07L330,45.49L321.54,43.5L296.15,41.71L287.69,40.15L279.23,40.73L270.77,40.34L262.31,39.16L253.85,40.71L220,39.59L211.54,39.59L186.15,41.93L177.69,43.31L160.77,47.95L152.31,52.05L143.85,61.11L135.38,57.55L126.92,59.52L118.46,65.84L110,67.04L101.54,68.18L93.08,75.1L84.62,74.9L76.15,87.2L67.69,88.78L50.77,105.57L42.31,110.32L33.85,118.43L25.38,118.32L16.92,119.36L8.46,130.43L0,117.45Z" style="fill: rgb(245, 245, 245); fill-opacity: 1; stroke-width: 0;"/></g></g><g class="errorbars"/><g class="lines"><path class="js-line" d="M0,117.45L8.46,130.43L16.92,119.36L25.38,118.32L33.85,118.43L42.31,110.32L50.77,105.57L67.69,88.78L76.15,87.2L84.62,74.9L93.08,75.1L101.54,68.18L110,67.04L118.46,65.84L126.92,59.52L135.38,57.55L143.85,61.11L152.31,52.05L160.77,47.95L177.69,43.31L186.15,41.93L211.54,39.59L220,39.59L253.85,40.71L262.31,39.16L270.77,40.34L279.23,40.73L287.69,40.15L296.15,41.71L321.54,43.5L330,45.49L338.46,48.07L346.92,51.44L355.38,55.19L363.85,60.88L372.31,67.29L380.77,74.93L389.23,82.41L397.69,92.92L406.15,100.09L414.62,102.25L423.08,119.01L431.54,118.75L440,127.48" style="vector-effect: non-scaling-stroke; fill: none; stroke: rgb(0, 0, 0); stroke-opacity: 1; stroke-width: 0.5px; opacity: 1;"/></g><g class="points"/><g class="text"/></g><g class="trace scatter trace4904bc" style="stroke-miterlimit: 2;"><g class="fills"><g><path class="js-fill" d="M0,107.54L8.46,113.71L16.92,109.05L25.38,106.91L33.85,102.33L42.31,92.42L50.77,90.02L67.69,74.88L76.15,69.83L84.62,59.87L93.08,56.92L101.54,51.73L110,53.54L118.46,52.74L126.92,49.77L135.38,47.22L143.85,46.71L152.31,45.14L160.77,42.04L169.23,40.04L177.69,39.67L186.15,36.93L194.62,36.69L211.54,36.11L220,34.57L228.46,36.46L236.92,36.62L245.38,36.03L253.85,36.22L262.31,32.39L270.77,35.36L296.15,37.81L304.62,37.91L313.08,36.62L321.54,39.35L330,34.41L338.46,37.92L346.92,41.35L355.38,48.04L363.85,53.91L372.31,58.09L380.77,66.93L389.23,72.46L397.69,79.85L406.15,85.21L414.62,89.41L423.08,91.83L440,111.88L440,118.48L431.54,109.95L423.08,101.72L414.62,98.21L406.15,92.68L397.69,85.77L389.23,76.95L380.77,71.14L372.31,63.26L363.85,57.39L355.38,50.86L346.92,46.02L338.46,44.37L330,40.02L321.54,41.5L304.62,40.55L296.15,39.38L279.23,37.52L270.77,38.74L262.31,35.92L253.85,38.48L245.38,39.8L236.92,38.74L228.46,38.69L220,37.2L211.54,38.58L203.08,39.01L186.15,39.43L177.69,41.61L169.23,41.93L160.77,43.26L152.31,49L143.85,54.1L126.92,54.21L118.46,58.99L110,60.48L101.54,59.2L93.08,63.19L84.62,69.88L76.15,79.24L67.69,79.13L59.23,89.07L50.77,93.74L42.31,101.98L33.85,110.22L16.92,112.82L8.46,120.58L0,113.16Z" style="fill: rgb(245, 245, 245); fill-opacity: 1; stroke-width: 0;"/></g></g><g class="errorbars"/><g class="lines"><path class="js-line" d="M0,113.16L8.46,120.58L16.92,112.82L33.85,110.22L42.31,101.98L50.77,93.74L59.23,89.07L67.69,79.13L76.15,79.24L84.62,69.88L93.08,63.19L101.54,59.2L110,60.48L118.46,58.99L126.92,54.21L143.85,54.1L152.31,49L160.77,43.26L169.23,41.93L177.69,41.61L186.15,39.43L203.08,39.01L211.54,38.58L220,37.2L228.46,38.69L236.92,38.74L245.38,39.8L253.85,38.48L262.31,35.92L270.77,38.74L279.23,37.52L296.15,39.38L304.62,40.55L321.54,41.5L330,40.02L338.46,44.37L346.92,46.02L355.38,50.86L363.85,57.39L372.31,63.26L380.77,71.14L389.23,76.95L397.69,85.77L406.15,92.68L414.62,98.21L423.08,101.72L431.54,109.95L440,118.48" style="vector-effect: non-scaling-stroke; fill: none; stroke: rgb(0, 0, 0); stroke-opacity: 1; stroke-width: 1px; opacity: 1;"/></g><g class="points"/><g class="text"/></g><g class="trace scatter trace187383" style="stroke-miterlimit: 2;"><g class="fills"><g><path class="js-fill" d="M0,100.44L8.46,102.03L16.92,101.82L25.38,91.51L33.85,92.15L42.31,83.75L50.77,67.28L59.23,65.15L67.69,59.73L76.15,46.66L84.62,48.57L101.54,42.09L110,47.19L118.46,42.51L126.92,39.43L135.38,42.2L143.85,38.69L160.77,34.22L169.23,34.11L177.69,34.97L186.15,32.74L194.62,32.41L203.08,33.27L211.54,33.78L220,33.48L228.46,33.27L236.92,32.18L245.38,30.39L253.85,29.63L262.31,27.3L270.77,28.65L279.23,29.74L287.69,36.14L296.15,35.61L304.62,32.95L313.08,28.36L321.54,35.61L330,26.57L338.46,24.84L346.92,35.82L355.38,40.18L363.85,50.06L372.31,49.32L380.77,60.9L389.23,67.39L397.69,72.7L406.15,75.78L414.62,80.88L423.08,83.54L431.54,93.96L440,95.48L440,111.88L423.08,91.83L414.62,89.41L406.15,85.21L397.69,79.85L389.23,72.46L380.77,66.93L372.31,58.09L363.85,53.91L355.38,48.04L346.92,41.35L338.46,37.92L330,34.41L321.54,39.35L313.08,36.62L304.62,37.91L296.15,37.81L270.77,35.36L262.31,32.39L253.85,36.22L245.38,36.03L236.92,36.62L228.46,36.46L220,34.57L211.54,36.11L194.62,36.69L186.15,36.93L177.69,39.67L169.23,40.04L160.77,42.04L152.31,45.14L143.85,46.71L135.38,47.22L126.92,49.77L118.46,52.74L110,53.54L101.54,51.73L93.08,56.92L84.62,59.87L76.15,69.83L67.69,74.88L50.77,90.02L42.31,92.42L33.85,102.33L25.38,106.91L16.92,109.05L8.46,113.71L0,107.54Z" style="fill: rgb(216, 179, 101); fill-opacity: 1; stroke-width: 0;"/></g></g><g class="errorbars"/><g class="lines"><path class="js-line" d="M0,107.54L8.46,113.71L16.92,109.05L25.38,106.91L33.85,102.33L42.31,92.42L50.77,90.02L67.69,74.88L76.15,69.83L84.62,59.87L93.08,56.92L101.54,51.73L110,53.54L118.46,52.74L126.92,49.77L135.38,47.22L143.85,46.71L152.31,45.14L160.77,42.04L169.23,40.04L177.69,39.67L186.15,36.93L194.62,36.69L211.54,36.11L220,34.57L228.46,36.46L236.92,36.62L245.38,36.03L253.85,36.22L262.31,32.39L270.77,35.36L296.15,37.81L304.62,37.91L313.08,36.62L321.54,39.35L330,34.41L338.46,37.92L346.92,41.35L355.38,48.04L363.85,53.91L372.31,58.09L380.77,66.93L389.23,72.46L397.69,79.85L406.15,85.21L414.62,89.41L423.08,91.83L440,111.88" style="vector-effect: non-scaling-stroke; fill: none; stroke: rgb(0, 0, 0); stroke-opacity: 1; stroke-width: 0.5px; opacity: 1;"/></g><g class="points"/><g class="text"/></g><g class="trace scatter tracea6d789" style="stroke-miterlimit: 2;"><g class="fills"/><g class="errorbars"/><g class="lines"><path class="js-line" d="M0,100.44L8.46,102.03L16.92,101.82L25.38,91.51L33.85,92.15L42.31,83.75L50.77,67.28L59.23,65.15L67.69,59.73L76.15,46.66L84.62,48.57L101.54,42.09L110,47.19L118.46,42.51L126.92,39.43L135.38,42.2L143.85,38.69L160.77,34.22L169.23,34.11L177.69,34.97L186.15,32.74L194.62,32.41L203.08,33.27L211.54,33.78L220,33.48L228.46,33.27L236.92,32.18L245.38,30.39L253.85,29.63L262.31,27.3L270.77,28.65L279.23,29.74L287.69,36.14L296.15,35.61L304.62,32.95L313.08,28.36L321.54,35.61L330,26.57L338.46,24.84L346.92,35.82L355.38,40.18L363.85,50.06L372.31,49.32L380.77,60.9L389.23,67.39L397.69,72.7L406.15,75.78L414.62,80.88L423.08,83.54L431.54,93.96L440,95.48" style="vector-effect: non-scaling-stroke; fill: none; stroke: rgb(0, 0, 0); stroke-opacity: 1; stroke-width: 0.25px; opacity: 1;"/></g><g class="points"/><g class="text"/></g><g class="trace scatter trace237463" style="stroke-miterlimit: 2; opacity: 1;"><g class="fills"/><g class="errorbars"/><g class="lines"/><g class="points"><path class="point" transform="translate(169.23,52.08)" d="M4,0A4,4 0 1,1 0,-4A4,4 0 0,1 4,0ZM0,0.5L0.5,0L0,-0.5L-0.5,0Z" style="opacity: 1; stroke: rgb(0, 0, 0); stroke-opacity: 1; stroke-width: 1px; fill: none;"/><path class="point" transform="translate(177.69,44.64)" d="M4,0A4,4 0 1,1 0,-4A4,4 0 0,1 4,0ZM0,0.5L0.5,0L0,-0.5L-0.5,0Z" style="opacity: 1; stroke: rgb(0, 0, 0); stroke-opacity: 1; stroke-width: 1px; fill: none;"/><path class="point" transform="translate(186.15,29.76)" d="M4,0A4,4 0 1,1 0,-4A4,4 0 0,1 4,0ZM0,0.5L0.5,0L0,-0.5L-0.5,0Z" style="opacity: 1; stroke: rgb(0, 0, 0); stroke-opacity: 1; stroke-width: 1px; fill: none;"/><path class="point" transform="translate(194.62,29.76)" d="M4,0A4,4 0 1,1 0,-4A4,4 0 0,1 4,0ZM0,0.5L0.5,0L0,-0.5L-0.5,0Z" style="opacity: 1; stroke: rgb(0, 0, 0); stroke-opacity: 1; stroke-width: 1px; fill: none;"/></g><g class="text"/></g></g></g><g class="overplot"/><path class="xlines-above crisp" d="M0,0" style="fill: none;"/><path class="ylines-above crisp" d="M0,0" style="fill: none;"/><g class="overlines-above"/><g class="xaxislayer-above"><g class="x3tick"><text text-anchor="middle" x="0" y="733" transform="translate(156.15,0)" style="font-family: 'Open Sans', verdana, arial, sans-serif; font-size: 12px; fill: rgb(42, 63, 95); fill-opacity: 1; white-space: pre; opacity: 1;">10</text></g><g class="x3tick"><text text-anchor="middle" x="0" y="733" style="font-family: 'Open Sans', verdana, arial, sans-serif; font-size: 12px; fill: rgb(42, 63, 95); fill-opacity: 1; white-space: pre; opacity: 1;" transform="translate(240.77,0)">20</text></g><g class="x3tick"><text text-anchor="middle" x="0" y="733" style="font-family: 'Open Sans', verdana, arial, sans-serif; font-size: 12px; fill: rgb(42, 63, 95); fill-opacity: 1; white-space: pre; opacity: 1;" transform="translate(325.38,0)">30</text></g><g class="x3tick"><text text-anchor="middle" x="0" y="733" style="font-family: 'Open Sans', verdana, arial, sans-serif; font-size: 12px; fill: rgb(42, 63, 95); fill-opacity: 1; white-space: pre; opacity: 1;" transform="translate(410,0)">40</text></g><g class="x3tick"><text text-anchor="middle" x="0" y="733" style="font-family: 'Open Sans', verdana, arial, sans-serif; font-size: 12px; fill: rgb(42, 63, 95); fill-opacity: 1; white-space: pre; opacity: 1;" transform="translate(494.62,0)">50</text></g></g><g class="yaxislayer-above"><g class="y3tick"><text text-anchor="end" x="79" y="4.199999999999999" transform="translate(0,720)" style="font-family: 'Open Sans', verdana, arial, sans-serif; font-size: 12px; fill: rgb(42, 63, 95); fill-opacity: 1; white-space: pre; opacity: 1;">5</text></g><g class="y3tick"><text text-anchor="end" x="79" y="4.199999999999999" style="font-family: 'Open Sans', verdana, arial, sans-serif; font-size: 12px; fill: rgb(42, 63, 95); fill-opacity: 1; white-space: pre; opacity: 1;" transform="translate(0,682.8)">10</text></g><g class="y3tick"><text text-anchor="end" x="79" y="4.199999999999999" style="font-family: 'Open Sans', verdana, arial, sans-serif; font-size: 12px; fill: rgb(42, 63, 95); fill-opacity: 1; white-space: pre; opacity: 1;" transform="translate(0,645.6)">15</text></g><g class="y3tick"><text text-anchor="end" x="79" y="4.199999999999999" style="font-family: 'Open Sans', verdana, arial, sans-serif; font-size: 12px; fill: rgb(42, 63, 95); fill-opacity: 1; white-space: pre; opacity: 1;" transform="translate(0,608.4)">20</text></g><g class="y3tick"><text text-anchor="end" x="79" y="4.199999999999999" style="font-family: 'Open Sans', verdana, arial, sans-serif; font-size: 12px; fill: rgb(42, 63, 95); fill-opacity: 1; white-space: pre; opacity: 1;" transform="translate(0,571.2)">25</text></g><g class="y3tick"><text text-anchor="end" x="79" y="4.199999999999999" style="font-family: 'Open Sans', verdana, arial, sans-serif; font-size: 12px; fill: rgb(42, 63, 95); fill-opacity: 1; white-space: pre; opacity: 1;" transform="translate(0,534)">30</text></g></g><g class="overaxes-above"/></g></g><g class="polarlayer"/><g class="smithlayer"/><g class="ternarylayer"/><g class="geolayer"/><g class="funnelarealayer"/><g class="pielayer"/><g class="iciclelayer"/><g class="treemaplayer"/><g class="sunburstlayer"/><g class="glimages"/><defs id="topdefs-36ef1b"><g class="clips"/></defs><g class="layer-above"><g class="imagelayer"/><g class="shapelayer"/></g><g class="infolayer"><g class="g-gtitle"><text class="gtitle" x="30" y="50" text-anchor="start" dy="0em" style="font-family: 'Open Sans', verdana, arial, sans-serif; font-size: 17px; fill: rgb(42, 63, 95); opacity: 1; font-weight: normal; white-space: pre;">Climatology and S2S forecast for Netrokona</text></g><g class="g-xtitle"/><g class="g-x2title"/><g class="g-x3title"/><g class="g-ytitle"><text class="ytitle" transform="rotate(-90,34.16875,193)" x="34.16875" y="193" text-anchor="middle" style="font-family: 'Open Sans', verdana, arial, sans-serif; font-size: 14px; fill: rgb(42, 63, 95); opacity: 1; font-weight: normal; white-space: pre;">[mm]</text></g><g class="g-y2title"><text class="y2title" transform="rotate(-90,40.840625,410.00000000000006)" x="40.840625" y="410.00000000000006" text-anchor="middle" style="font-family: 'Open Sans', verdana, arial, sans-serif; font-size: 14px; fill: rgb(42, 63, 95); opacity: 1; font-weight: normal; white-space: pre;">[C]</text></g><g class="g-y3title"><text class="y3title" transform="rotate(-90,40.840625,627)" x="40.840625" y="627" text-anchor="middle" style="font-family: 'Open Sans', verdana, arial, sans-serif; font-size: 14px; fill: rgb(42, 63, 95); opacity: 1; font-weight: normal; white-space: pre;">[C]</text></g><g class="annotation" data-index="0" style="opacity: 1;"><g class="annotation-text-g" transform="rotate(0,300,89.5)"><g class="cursor-pointer" transform="translate(237,79)"><rect class="bg" x="0.5" y="0.5" width="126" height="20" style="stroke-width: 1px; stroke: rgb(0, 0, 0); stroke-opacity: 0; fill: rgb(0, 0, 0); fill-opacity: 0;"/><text class="annotation-text" text-anchor="middle" x="63.359375" y="16" style="font-family: 'Open Sans', verdana, arial, sans-serif; font-size: 16px; fill: rgb(42, 63, 95); fill-opacity: 1; white-space: pre;">Precipitation sum</text></g></g></g><g class="annotation" data-index="1" style="opacity: 1;"><g class="annotation-text-g" transform="rotate(0,300,306.50000000000006)"><g class="cursor-pointer" transform="translate(196,296)"><rect class="bg" x="0.5" y="0.5" width="208" height="20" style="stroke-width: 1px; stroke: rgb(0, 0, 0); stroke-opacity: 0; fill: rgb(0, 0, 0); fill-opacity: 0;"/><text class="annotation-text" text-anchor="middle" x="104.265625" y="16" style="font-family: 'Open Sans', verdana, arial, sans-serif; font-size: 16px; fill: rgb(42, 63, 95); fill-opacity: 1; white-space: pre;">Mean maximum temperature</text></g></g></g><g class="annotation" data-index="2" style="opacity: 1;"><g class="annotation-text-g" transform="rotate(0,300,523.5)"><g class="cursor-pointer" transform="translate(198,513)"><rect class="bg" x="0.5" y="0.5" width="203" height="20" style="stroke-width: 1px; stroke: rgb(0, 0, 0); stroke-opacity: 0; fill: rgb(0, 0, 0); fill-opacity: 0;"/><text class="annotation-text" text-anchor="middle" x="102.046875" y="16" style="font-family: 'Open Sans', verdana, arial, sans-serif; font-size: 16px; fill: rgb(42, 63, 95); fill-opacity: 1; white-space: pre;">Mean minimum temperature</text></g></g></g><g class="annotation" data-index="3" style="opacity: 1;"><g class="annotation-text-g" transform="rotate(0,300,760.5)"><g class="cursor-pointer" transform="translate(277,750)"><rect class="bg" x="0.5" y="0.5" width="45" height="20" style="stroke-width: 1px; stroke: rgb(0, 0, 0); stroke-opacity: 0; fill: rgb(0, 0, 0); fill-opacity: 0;"/><text class="annotation-text" text-anchor="middle" x="22.3125" y="16" style="font-family: 'Open Sans', verdana, arial, sans-serif; font-size: 16px; fill: rgb(42, 63, 95); fill-opacity: 1; white-space: pre;">Week</text></g></g></g></g></svg>