<svg class="main-svg" xmlns="http://www.w3.org/2000/svg" xmlns:xlink="http://www.w3.org/1999/xlink" width="600" height="800" style="" viewBox="0 0 600 800"><rect x="0" y="0" width="600" height="800" style="fill: rgb(255, 255, 255); fill-opacity: 1;"/><defs id="defs-277b75"><g class="clips"><clipPath id="clip277b75xyplot" class="plotclip"><rect width="440" height="186.00000000000003"/></clipPath><clipPath id="clip277b75x2y2plot" class="plotclip"><rect width="440" height="185.99999999999997"/></clipPath><clipPath id="clip277b75x3y3plot" class="plotclip"><rect width="440" height="186"/></clipPath><clipPath class="axesclip" id="clip277b75x"><rect x="80" y="0" width="440" height="800"/></clipPath><clipPath class="axesclip" id="clip277b75y"><rect x="0" y="100" width="600" height="186.00000000000003"/></clipPath><clipPath class="axesclip" id="clip277b75xy"><rect x="80" y="100" width="440" height="186.00000000000003"/></clipPath><clipPath class="axesclip" id="clip277b75y2"><rect x="0" y="317.00000000000006" width="600" height="185.99999999999997"/></clipPath><clipPath class="axesclip" id="clip277b75xy2"><rect x="80" y="317.00000000000006" width="440" height="185.99999999999997"/></clipPath><clipPath class="axesclip" id="clip277b75y3"><rect x="0" y="534" width="600" height="186"/></clipPath><clipPath class="axesclip" id="clip277b75xy3"><rect x="80" y="534" width="440" height="186"/></clipPath><clipPath class="axesclip" id="clip277b75x2"><rect x="80" y="0" width="440" height="800"/></clipPath><clipPath class="axesclip" id="clip277b75x2y"><rect x="80" y="100" width="440" height="186.00000000000003"/></clipPath><clipPath class="axesclip" id="clip277b75x2y2"><rect x="80" y="317.00000000000006" width="440" height="185.99999999999997"/></clipPath><clipPath class="axesclip" id="clip277b75x2y3"><rect x="80" y="534" width="440" height="186"/></clipPath><clipPath class="axesclip" id="clip277b75x3"><rect x="80" y="0" width="440" height="800"/></clipPath><clipPath class="axesclip" id="clip277b75x3y"><rect x="80" y="100" width="440" height="186.00000000000003"/></clipPath><clipPath class="axesclip" id="clip277b75x3y2"><rect x="80" y="317.00000000000006" width="440" height="185.99999999999997"/></clipPath><clipPath class="axesclip" id="clip277b75x3y3"><rect x="80" y="534" width="440" height="186"/></clipPath></g><g class="gradients"/><g class="patterns"/></defs><g class="bglayer"><rect class="bg" x="80" y="100" width="440" height="186.00000000000003" style="fill: rgb(229, 236, 246); fill-opacity: 1; stroke-width: 0;"/><rect class="bg" x="80" y="317.00000000000006" width="440" height="185.99999999999997" style="fill: rgb(229, 236, 246); fill-opacity: 1; stroke-width: 0;"/><rect class="bg" x="80" y="534" width="440" height="186" style="fill: rgb(229, 236, 246); fill-opacity: 1; stroke-width: 0;"/></g><g class="layer-below"><g class="imagelayer"/><g class="shapelayer"/></g><g class="cartesianlayer"><g class="subplot xy"><g class="layer-subplot"><g class="shapelayer"/><g class="imagelayer"/></g><g class="minor-gridlayer"><g class="x"/><g class="y"/></g><g class="gridlayer"><g class="x"><path class="xgrid crisp" transform="translate(156.15,0)" d="M0,100v186.00000000000003" style="stroke: rgb(255, 255, 255); stroke-opacity: 1; stroke-width: 1px;"/><path class="xgrid crisp" transform="translate(240.77,0)" d="M0,100v186.00000000000003" style="stroke: rgb(255, 255, 255); stroke-opacity: 1; stroke-width: 1px;"/><path class="xgrid crisp" transform="translate(325.38,0)" d="M0,100v186.00000000000003" style="stroke: rgb(255, 255, 255); stroke-opacity: 1; stroke-width: 1px;"/><path class="xgrid crisp" transform="translate(410,0)" d="M0,100v186.00000000000003" style="stroke: rgb(255, 255, 255); stroke-opacity: 1; stroke-width: 1px;"/><path class="xgrid crisp" transform="translate(494.62,0)" d="M0,100v186.00000000000003" style="stroke: rgb(255, 255, 255); stroke-opacity: 1; stroke-width: 1px;"/></g><g class="y"><path class="ygrid crisp" transform="translate(0,248.8)" d="M80,0h440" style="stroke: rgb(255, 255, 255); stroke-opacity: 1; stroke-width: 1px;"/><path class="ygrid crisp" transform="translate(0,211.6)" d="M80,0h440" style="stroke: rgb(255, 255, 255); stroke-opacity: 1; stroke-width: 1px;"/><path class="ygrid crisp" transform="translate(0,174.4)" d="M80,0h440" style="stroke: rgb(255, 255, 255); stroke-opacity: 1; stroke-width: 1px;"/><path class="ygrid crisp" transform="translate(0,137.2)" d="M80,0h440" style="stroke: rgb(255, 255, 255); stroke-opacity: 1; stroke-width: 1px;"/></g></g><g class="zerolinelayer"><path class="yzl zl crisp" transform="translate(0,286)" d="M80,0h440" style="stroke: rgb(255, 255, 255); stroke-opacity: 1; stroke-width: 2px;"/></g><path class="xlines-below"/><path class="ylines-below"/><g class="overlines-below"/><g class="xaxislayer-below"/><g class="yaxislayer-below"/><g class="overaxes-below"/><g class="plot" transform="translate(80,100)" clip-path="url(#clip277b75xyplot)"><g class="scatterlayer mlayer"><g class="trace scatter tracedd2548" style="stroke-miterlimit: 2;"><g class="fills"><g><path class="js-fill" d="M0,186L135.38,186L143.85,175.52L152.31,186L160.77,185.07L169.23,162.01L177.69,173.35L186.15,177.07L194.62,169.63L211.54,161.63L220,165.54L228.46,158.47L236.92,159.96L245.38,153.08L253.85,153.82L270.77,158.1L279.23,167.03L287.69,166.47L296.15,168.89L304.62,174.84L313.08,157.73L321.54,170.38L330,181.54L338.46,178.93L346.92,186L440,186L440,186L346.92,186L338.46,186L321.54,185.26L313.08,173.35L304.62,183.02L296.15,180.79L287.69,183.77L279.23,177.82L262.31,174.84L253.85,183.77L245.38,186L236.92,183.55L228.46,168.89L220,181.54L211.54,183.02L203.08,178.56L194.62,183.77L186.15,186L0,186Z" style="fill: rgb(224, 236, 244); fill-opacity: 1; stroke-width: 0;"/></g></g><g class="errorbars"/><g class="lines"><path class="js-line" d="M0,186L186.15,186L194.62,183.77L203.08,178.56L211.54,183.02L220,181.54L228.46,168.89L236.92,183.55L245.38,186L253.85,183.77L262.31,174.84L279.23,177.82L287.69,183.77L296.15,180.79L304.62,183.02L313.08,173.35L321.54,185.26L338.46,186L346.92,186L440,186" style="vector-effect: non-scaling-stroke; fill: none; stroke: rgb(0, 0, 0); stroke-opacity: 1; stroke-width: 0.25px; opacity: 1;"/></g><g class="points"/><g class="text"/></g><g class="trace scatter traceaf7ed7" style="stroke-miterlimit: 2;"><g class="fills"><g><path class="js-fill" d="M0,186L101.54,185.63L110,184.14L126.92,185.63L135.38,182.28L143.85,162.53L152.31,171.49L160.77,176.7L169.23,148L177.69,156.61L186.15,158.84L194.62,153.26L203.08,152.59L211.54,123.5L220,143.96L228.46,151.4L236.92,141.36L245.38,129.83L253.85,136.52L262.31,143.96L270.77,134.29L279.23,152.15L287.69,156.57L296.15,149.57L304.62,148.8L313.08,139.5L321.54,156.98L330,172.71L338.46,163.31L346.92,179.3L355.38,186L440,186L440,186L346.92,186L338.46,178.93L330,181.54L321.54,170.38L313.08,157.73L304.62,174.84L296.15,168.89L287.69,166.47L279.23,167.03L270.77,158.1L253.85,153.82L245.38,153.08L236.92,159.96L228.46,158.47L220,165.54L211.54,161.63L194.62,169.63L186.15,177.07L177.69,173.35L169.23,162.01L160.77,185.07L152.31,186L143.85,175.52L135.38,186L0,186Z" style="fill: rgb(158, 188, 218); fill-opacity: 1; stroke-width: 0;"/></g></g><g class="errorbars"/><g class="lines"><path class="js-line" d="M0,186L135.38,186L143.85,175.52L152.31,186L160.77,185.07L169.23,162.01L177.69,173.35L186.15,177.07L194.62,169.63L211.54,161.63L220,165.54L228.46,158.47L236.92,159.96L245.38,153.08L253.85,153.82L270.77,158.1L279.23,167.03L287.69,166.47L296.15,168.89L304.62,174.84L313.08,157.73L321.54,170.38L330,181.54L338.46,178.93L346.92,186L440,186" style="vector-effect: non-scaling-stroke; fill: none; stroke: rgb(0, 0, 0); stroke-opacity: 1; stroke-width: 0.5px; opacity: 1;"/></g><g class="points"/><g class="text"/></g><g class="trace scatter trace625218" style="stroke-miterlimit: 2;"><g class="fills"><g><path class="js-fill" d="M0,186L42.31,186L50.77,181.54L59.23,184.88L67.69,185.44L76.15,177.27L84.62,181L101.54,175.77L110,168.33L118.46,169.45L126.92,173.48L135.38,164.98L143.85,150.66L152.31,148.76L160.77,150.66L169.23,135.97L177.69,124.06L186.15,118.48L194.62,121.09L203.08,88.72L211.54,93.93L220,122.7L228.46,122.2L236.92,106.58L245.38,119.6L253.85,128.34L262.31,116.23L270.77,109.37L279.23,132.43L287.69,149.53L296.15,122.02L304.62,130.41L313.08,122.59L330,152.15L338.46,129.48L346.92,162.94L355.38,165.39L363.85,185.08L372.31,186L440,186L440,186L355.38,186L346.92,179.3L338.46,163.31L330,172.71L321.54,156.98L313.08,139.5L304.62,148.8L296.15,149.57L287.69,156.57L279.23,152.15L270.77,134.29L262.31,143.96L253.85,136.52L245.38,129.83L236.92,141.36L228.46,151.4L220,143.96L211.54,123.5L203.08,152.59L194.62,153.26L186.15,158.84L177.69,156.61L169.23,148L160.77,176.7L152.31,171.49L143.85,162.53L135.38,182.28L126.92,185.63L110,184.14L101.54,185.63L0,186Z" style="fill: rgb(158, 188, 218); fill-opacity: 1; stroke-width: 0;"/></g></g><g class="errorbars"/><g class="lines"><path class="js-line" d="M0,186L101.54,185.63L110,184.14L126.92,185.63L135.38,182.28L143.85,162.53L152.31,171.49L160.77,176.7L169.23,148L177.69,156.61L186.15,158.84L194.62,153.26L203.08,152.59L211.54,123.5L220,143.96L228.46,151.4L236.92,141.36L245.38,129.83L253.85,136.52L262.31,143.96L270.77,134.29L279.23,152.15L287.69,156.57L296.15,149.57L304.62,148.8L313.08,139.5L321.54,156.98L330,172.71L338.46,163.31L346.92,179.3L355.38,186L440,186" style="vector-effect: non-scaling-stroke; fill: none; stroke: rgb(0, 0, 0); stroke-opacity: 1; stroke-width: 1px; opacity: 1;"/></g><g class="points"/><g class="text"/></g><g class="trace scatter traceff94f2" style="stroke-miterlimit: 2;"><g class="fills"><g><path class="js-fill" d="M0,186L42.31,186L50.77,175.58L59.23,183.77L67.69,185.26L76.15,165.17L84.62,174.84L93.08,174.1L101.54,165.09L110,148.06L118.46,146.57L126.92,160.7L135.38,136.9L152.31,104.16L160.77,127.22L177.69,85.56L186.15,62.5L194.62,55.06L203.08,5.95L211.54,26.04L220,58.78L228.46,95.23L236.92,39.43L245.38,87.79L253.85,93.74L262.31,86.3L270.77,71.42L279.23,95.23L287.69,140.62L296.15,61.01L304.62,84.58L313.08,101.18L321.54,91.51L330,116.06L338.46,110.11L346.92,151.78L355.38,163.25L363.85,185.02L372.31,186L440,186L440,186L372.31,186L363.85,185.08L355.38,165.39L346.92,162.94L338.46,129.48L330,152.15L313.08,122.59L304.62,130.41L296.15,122.02L287.69,149.53L279.23,132.43L270.77,109.37L262.31,116.23L253.85,128.34L245.38,119.6L236.92,106.58L228.46,122.2L220,122.7L211.54,93.93L203.08,88.72L194.62,121.09L186.15,118.48L177.69,124.06L169.23,135.97L160.77,150.66L152.31,148.76L143.85,150.66L135.38,164.98L126.92,173.48L118.46,169.45L110,168.33L101.54,175.77L84.62,181L76.15,177.27L67.69,185.44L59.23,184.88L50.77,181.54L42.31,186L0,186Z" style="fill: rgb(136, 86, 167); fill-opacity: 1; stroke-width: 0;"/></g></g><g class="errorbars"/><g class="lines"><path class="js-line" d="M0,186L42.31,186L50.77,181.54L59.23,184.88L67.69,185.44L76.15,177.27L84.62,181L101.54,175.77L110,168.33L118.46,169.45L126.92,173.48L135.38,164.98L143.85,150.66L152.31,148.76L160.77,150.66L169.23,135.97L177.69,124.06L186.15,118.48L194.62,121.09L203.08,88.72L211.54,93.93L220,122.7L228.46,122.2L236.92,106.58L245.38,119.6L253.85,128.34L262.31,116.23L270.77,109.37L279.23,132.43L287.69,149.53L296.15,122.02L304.62,130.41L313.08,122.59L330,152.15L338.46,129.48L346.92,162.94L355.38,165.39L363.85,185.08L372.31,186L440,186" style="vector-effect: non-scaling-stroke; fill: none; stroke: rgb(0, 0, 0); stroke-opacity: 1; stroke-width: 0.5px; opacity: 1;"/></g><g class="points"/><g class="text"/></g><g class="trace scatter trace48146a" style="stroke-miterlimit: 2;"><g class="fills"/><g class="errorbars"/><g class="lines"><path class="js-line" d="M0,186L42.31,186L50.77,175.58L59.23,183.77L67.69,185.26L76.15,165.17L84.62,174.84L93.08,174.1L101.54,165.09L110,148.06L118.46,146.57L126.92,160.7L135.38,136.9L152.31,104.16L160.77,127.22L177.69,85.56L186.15,62.5L194.62,55.06L203.08,5.95L211.54,26.04L220,58.78L228.46,95.23L236.92,39.43L245.38,87.79L253.85,93.74L262.31,86.3L270.77,71.42L279.23,95.23L287.69,140.62L296.15,61.01L304.62,84.58L313.08,101.18L321.54,91.51L330,116.06L338.46,110.11L346.92,151.78L355.38,163.25L363.85,185.02L372.31,186L440,186" style="vector-effect: non-scaling-stroke; fill: none; stroke: rgb(0, 0, 0); stroke-opacity: 1; stroke-width: 0.25px; opacity: 1;"/></g><g class="points"/><g class="text"/></g><g class="trace scatter trace592559" style="stroke-miterlimit: 2; opacity: 1;"><g class="fills"/><g class="errorbars"/><g class="lines"/><g class="points"><path class="point" transform="translate(220,149.54)" d="M4,0A4,4 0 1,1 0,-4A4,4 0 0,1 4,0ZM0,0.5L0.5,0L0,-0.5L-0.5,0Z" style="opacity: 1; stroke: rgb(0, 0, 0); stroke-opacity: 1; stroke-width: 1px; fill: none;"/><path class="point" transform="translate(228.46,115.32)" d="M4,0A4,4 0 1,1 0,-4A4,4 0 0,1 4,0ZM0,0.5L0.5,0L0,-0.5L-0.5,0Z" style="opacity: 1; stroke: rgb(0, 0, 0); stroke-opacity: 1; stroke-width: 1px; fill: none;"/><path class="point" transform="translate(236.92,68.45)" d="M4,0A4,4 0 1,1 0,-4A4,4 0 0,1 4,0ZM0,0.5L0.5,0L0,-0.5L-0.5,0Z" style="opacity: 1; stroke: rgb(0, 0, 0); stroke-opacity: 1; stroke-width: 1px; fill: none;"/><path class="point" transform="translate(245.38,68.45)" d="M4,0A4,4 0 1,1 0,-4A4,4 0 0,1 4,0ZM0,0.5L0.5,0L0,-0.5L-0.5,0Z" style="opacity: 1; stroke: rgb(0, 0, 0); stroke-opacity: 1; stroke-width: 1px; fill: none;"/></g><g class="text"/></g></g></g><g class="overplot"/><path class="xlines-above crisp" d="M0,0" style="fill: none;"/><path class="ylines-above crisp" d="M0,0" style="fill: none;"/><g class="overlines-above"/><g class="xaxislayer-above"/><g class="yaxislayer-above"><g class="ytick"><text text-anchor="end" x="79" y="4.199999999999999" transform="translate(0,286)" style="font-family: 'Open Sans', verdana, arial, sans-serif; font-size: 12px; fill: rgb(42, 63, 95); fill-opacity: 1; white-space: pre; opacity: 1;">0</text></g><g class="ytick"><text text-anchor="end" x="79" y="4.199999999999999" style="font-family: 'Open Sans', verdana, arial, sans-serif; font-size: 12px; fill: rgb(42, 63, 95); fill-opacity: 1; white-space: pre; opacity: 1;" transform="translate(0,248.8)">50</text></g><g class="ytick"><text text-anchor="end" x="79" y="4.199999999999999" style="font-family: 'Open Sans', verdana, arial, sans-serif; font-size: 12px; fill: rgb(42, 63, 95); fill-opacity: 1; white-space: pre; opacity: 1;" transform="translate(0,211.6)">100</text></g><g class="ytick"><text text-anchor="end" x="79" y="4.199999999999999" style="font-family: 'Open Sans', verdana, arial, sans-serif; font-size: 12px; fill: rgb(42, 63, 95); fill-opacity: 1; white-space: pre; opacity: 1;" transform="translate(0,174.4)">150</text></g><g class="ytick"><text text-anchor="end" x="79" y="4.199999999999999" style="font-family: 'Open Sans', verdana, arial, sans-serif; font-size: 12px; fill: rgb(42, 63, 95); fill-opacity: 1; white-space: pre; opacity: 1;" transform="translate(0,137.2)">200</text></g><g class="ytick"><text text-anchor="end" x="79" y="4.199999999999999" style="font-family: 'Open Sans', verdana, arial, sans-serif; font-size: 12px; fill: rgb(42, 63, 95); fill-opacity: 1; white-space: pre; opacity: 1;" transform="translate(0,100)">250</text></g></g><g class="overaxes-above"/></g><g class="subplot x2y2"><g class="layer-subplot"><g class="shapelayer"/><g class="imagelayer"/></g><g class="minor-gridlayer"><g class="x2"/><g class="y2"/></g><g class="gridlayer"><g class="x2"><path class="x2grid crisp" transform="translate(156.15,0)" d="M0,317.00000000000006v185.99999999999997" style="stroke: rgb(255, 255, 255); stroke-opacity: 1; stroke-width: 1px;"/><path class="x2grid crisp" transform="translate(240.77,0)" d="M0,317.00000000000006v185.99999999999997" style="stroke: rgb(255, 255, 255); stroke-opacity: 1; stroke-width: 1px;"/><path class="x2grid crisp" transform="translate(325.38,0)" d="M0,317.00000000000006v185.99999999999997" style="stroke: rgb(255, 255, 255); stroke-opacity: 1; stroke-width: 1px;"/><path class="x2grid crisp" transform="translate(410,0)" d="M0,317.00000000000006v185.99999999999997" style="stroke: rgb(255, 255, 255); stroke-opacity: 1; stroke-width: 1px;"/><path class="x2grid crisp" transform="translate(494.62,0)" d="M0,317.00000000000006v185.99999999999997" style="stroke: rgb(255, 255, 255); stroke-opacity: 1; stroke-width: 1px;"/></g><g class="y2"><path class="y2grid crisp" transform="translate(0,472.00000000000006)" d="M80,0h440" style="stroke: rgb(255, 255, 255); stroke-opacity: 1; stroke-width: 1px;"/><path class="y2grid crisp" transform="translate(0,410.00000000000006)" d="M80,0h440" style="stroke: rgb(255, 255, 255); stroke-opacity: 1; stroke-width: 1px;"/><path class="y2grid crisp" transform="translate(0,348.00000000000006)" d="M80,0h440" style="stroke: rgb(255, 255, 255); stroke-opacity: 1; stroke-width: 1px;"/></g></g><g class="zerolinelayer"/><path class="xlines-below"/><path class="ylines-below"/><g class="overlines-below"/><g class="xaxislayer-below"/><g class="yaxislayer-below"/><g class="overaxes-below"/><g class="plot" transform="translate(80,317.00000000000006)" clip-path="url(#clip277b75x2y2plot)"><g class="scatterlayer mlayer"><g class="trace scatter trace9f5195" style="stroke-miterlimit: 2;"><g class="fills"><g><path class="js-fill" d="M0,147.64L8.46,148.47L16.92,134.45L33.85,123.36L42.31,111.56L50.77,107.69L59.23,96.39L67.69,81.49L76.15,85.56L84.62,72.52L93.08,71.48L101.54,71.19L110,78.23L118.46,78.74L126.92,77.43L143.85,85.01L152.31,81.09L160.77,83.83L169.23,82.53L177.69,86.02L186.15,86.87L194.62,94.68L203.08,94.55L211.54,95.37L220,94.73L228.46,95.92L236.92,98.38L245.38,96.39L253.85,98.09L270.77,99.22L279.23,98.03L296.15,99.27L304.62,95.99L313.08,99.84L321.54,97.21L330,93.46L338.46,92.62L346.92,93.67L355.38,90.14L363.85,93.28L372.31,97.38L389.23,109.41L397.69,121.19L406.15,133.39L414.62,135.32L423.08,139.04L431.54,145.66L440,149.2L440,151.59L431.54,152.52L423.08,157.57L414.62,138.97L406.15,149.15L397.69,134.27L389.23,121.08L380.77,112.13L372.31,109.83L363.85,100.09L355.38,97.69L346.92,116.47L338.46,100.44L330,104.69L321.54,105.84L313.08,113.81L304.62,106.91L296.15,106.46L287.69,102.21L279.23,101.77L262.31,111.87L253.85,108.85L245.38,103.36L236.92,106.91L220,97.69L211.54,104.16L203.08,103.36L194.62,107.61L186.15,97.16L177.69,97.61L169.23,92.29L160.77,88.84L152.31,89.99L143.85,89.37L135.38,93.27L126.92,91.05L118.46,90.61L110,86.8L101.54,91.85L93.08,82.02L84.62,85.12L76.15,96.54L67.69,96.19L59.23,115.76L50.77,119.66L42.31,130.64L33.85,135.16L25.38,141.54L16.92,146.67L8.46,167.05L0,166.16Z" style="fill: rgb(145, 191, 219); fill-opacity: 1; stroke-width: 0;"/></g></g><g class="errorbars"/><g class="lines"><path class="js-line" d="M0,166.16L8.46,167.05L16.92,146.67L25.38,141.54L33.85,135.16L42.31,130.64L50.77,119.66L59.23,115.76L67.69,96.19L76.15,96.54L84.62,85.12L93.08,82.02L101.54,91.85L110,86.8L118.46,90.61L126.92,91.05L135.38,93.27L143.85,89.37L152.31,89.99L160.77,88.84L169.23,92.29L177.69,97.61L186.15,97.16L194.62,107.61L203.08,103.36L211.54,104.16L220,97.69L236.92,106.91L245.38,103.36L253.85,108.85L262.31,111.87L279.23,101.77L287.69,102.21L296.15,106.46L304.62,106.91L313.08,113.81L321.54,105.84L330,104.69L338.46,100.44L346.92,116.47L355.38,97.69L363.85,100.09L372.31,109.83L380.77,112.13L389.23,121.08L397.69,134.27L406.15,149.15L414.62,138.97L423.08,157.57L431.54,152.52L440,151.59" style="vector-effect: non-scaling-stroke; fill: none; stroke: rgb(0, 0, 0); stroke-opacity: 1; stroke-width: 0.25px; opacity: 1;"/></g><g class="points"/><g class="text"/></g><g class="trace scatter trace4c3494" style="stroke-miterlimit: 2;"><g class="fills"><g><path class="js-fill" d="M0,138.75L8.46,138.52L16.92,127.32L25.38,124.4L33.85,115.1L42.31,105.13L50.77,100.04L67.69,77.72L76.15,72.63L84.62,65.31L93.08,59.03L101.54,65.06L110,73.43L118.46,63.42L126.92,66.16L135.38,71.12L143.85,77.59L152.31,74.05L160.77,75.42L169.23,74.98L177.69,78.52L186.15,83.48L194.62,85.65L203.08,90.43L211.54,92.56L228.46,92.11L236.92,95.52L245.38,92.47L253.85,95.17L262.31,90.83L270.77,96.43L279.23,93.04L287.69,96.14L296.15,95.97L304.62,92.38L313.08,94.37L321.54,88.75L330,90.56L338.46,85.91L346.92,86.05L355.38,84.45L363.85,90.43L372.31,90.39L380.77,99.16L389.23,103.72L397.69,112.57L406.15,123.73L414.62,124.93L423.08,131.62L431.54,136.89L440,132.22L440,149.2L431.54,145.66L423.08,139.04L414.62,135.32L406.15,133.39L397.69,121.19L389.23,109.41L372.31,97.38L363.85,93.28L355.38,90.14L346.92,93.67L338.46,92.62L330,93.46L321.54,97.21L313.08,99.84L304.62,95.99L296.15,99.27L279.23,98.03L270.77,99.22L253.85,98.09L245.38,96.39L236.92,98.38L228.46,95.92L220,94.73L211.54,95.37L203.08,94.55L194.62,94.68L186.15,86.87L177.69,86.02L169.23,82.53L160.77,83.83L152.31,81.09L143.85,85.01L126.92,77.43L118.46,78.74L110,78.23L101.54,71.19L93.08,71.48L84.62,72.52L76.15,85.56L67.69,81.49L59.23,96.39L50.77,107.69L42.31,111.56L33.85,123.36L16.92,134.45L8.46,148.47L0,147.64Z" style="fill: rgb(255, 255, 191); fill-opacity: 1; stroke-width: 0;"/></g></g><g class="errorbars"/><g class="lines"><path class="js-line" d="M0,147.64L8.46,148.47L16.92,134.45L33.85,123.36L42.31,111.56L50.77,107.69L59.23,96.39L67.69,81.49L76.15,85.56L84.62,72.52L93.08,71.48L101.54,71.19L110,78.23L118.46,78.74L126.92,77.43L143.85,85.01L152.31,81.09L160.77,83.83L169.23,82.53L177.69,86.02L186.15,86.87L194.62,94.68L203.08,94.55L211.54,95.37L220,94.73L228.46,95.92L236.92,98.38L245.38,96.39L253.85,98.09L270.77,99.22L279.23,98.03L296.15,99.27L304.62,95.99L313.08,99.84L321.54,97.21L330,93.46L338.46,92.62L346.92,93.67L355.38,90.14L363.85,93.28L372.31,97.38L389.23,109.41L397.69,121.19L406.15,133.39L414.62,135.32L423.08,139.04L431.54,145.66L440,149.2" style="vector-effect: non-scaling-stroke; fill: none; stroke: rgb(0, 0, 0); stroke-opacity: 1; stroke-width: 0.5px; opacity: 1;"/></g><g class="points"/><g class="text"/></g><g class="trace scatter tracec87e55" style="stroke-miterlimit: 2;"><g class="fills"><g><path class="js-fill" d="M0,130.04L16.92,124.46L25.38,118.75L33.85,111.47L42.31,97.19L50.77,86.98L59.23,80.8L76.15,61.89L84.62,62.22L93.08,54.36L101.54,54.87L110,59.24L118.46,54.2L126.92,60.87L135.38,58.41L143.85,68.35L152.31,67.14L160.77,64.88L169.23,71.9L177.69,73.25L186.15,77.26L194.62,75.07L203.08,81.89L211.54,87.69L220,86.78L228.46,86.56L236.92,90.81L245.38,87.6L253.85,88.75L262.31,88.68L270.77,91.94L279.23,86.39L287.69,92.27L296.15,89.21L304.62,88.53L313.08,88.46L321.54,82.77L330,75.64L338.46,79.89L346.92,77.54L355.38,82.19L363.85,86.91L372.31,87.6L380.77,95.39L389.23,98.54L397.69,110.01L406.15,116.48L414.62,119.22L423.08,123.54L431.54,129.54L440,122.75L440,132.22L431.54,136.89L423.08,131.62L414.62,124.93L406.15,123.73L397.69,112.57L389.23,103.72L380.77,99.16L372.31,90.39L363.85,90.43L355.38,84.45L346.92,86.05L338.46,85.91L330,90.56L321.54,88.75L313.08,94.37L304.62,92.38L296.15,95.97L287.69,96.14L279.23,93.04L270.77,96.43L262.31,90.83L253.85,95.17L245.38,92.47L236.92,95.52L228.46,92.11L211.54,92.56L203.08,90.43L194.62,85.65L186.15,83.48L177.69,78.52L169.23,74.98L160.77,75.42L152.31,74.05L143.85,77.59L135.38,71.12L126.92,66.16L118.46,63.42L110,73.43L101.54,65.06L93.08,59.03L84.62,65.31L76.15,72.63L67.69,77.72L50.77,100.04L42.31,105.13L33.85,115.1L25.38,124.4L16.92,127.32L8.46,138.52L0,138.75Z" style="fill: rgb(255, 255, 191); fill-opacity: 1; stroke-width: 0;"/></g></g><g class="errorbars"/><g class="lines"><path class="js-line" d="M0,138.75L8.46,138.52L16.92,127.32L25.38,124.4L33.85,115.1L42.31,105.13L50.77,100.04L67.69,77.72L76.15,72.63L84.62,65.31L93.08,59.03L101.54,65.06L110,73.43L118.46,63.42L126.92,66.16L135.38,71.12L143.85,77.59L152.31,74.05L160.77,75.42L169.23,74.98L177.69,78.52L186.15,83.48L194.62,85.65L203.08,90.43L211.54,92.56L228.46,92.11L236.92,95.52L245.38,92.47L253.85,95.17L262.31,90.83L270.77,96.43L279.23,93.04L287.69,96.14L296.15,95.97L304.62,92.38L313.08,94.37L321.54,88.75L330,90.56L338.46,85.91L346.92,86.05L355.38,84.45L363.85,90.43L372.31,90.39L380.77,99.16L389.23,103.72L397.69,112.57L406.15,123.73L414.62,124.93L423.08,131.62L431.54,136.89L440,132.22" style="vector-effect: non-scaling-stroke; fill: none; stroke: rgb(0, 0, 0); stroke-opacity: 1; stroke-width: 1px; opacity: 1;"/></g><g class="points"/><g class="text"/></g><g class="trace scatter traced244f3" style="stroke-miterlimit: 2;"><g class="fills"><g><path class="js-fill" d="M0,118.07L8.46,118.95L16.92,110.09L25.38,111.78L33.85,100.44L42.31,80.16L50.77,66.78L59.23,62.35L67.69,57.04L76.15,56.07L84.62,47.83L93.08,47.65L101.54,46.59L110,38.26L118.46,45.61L126.92,38L135.38,25.95L143.85,51.28L152.31,50.75L160.77,46.6L169.23,58.99L177.69,55.36L186.15,74.21L194.62,55.98L203.08,74.67L211.54,86.53L220,75.2L228.46,72.72L236.92,90.25L245.38,81.75L253.85,83.34L262.31,76.53L270.77,83.97L279.23,70.06L287.69,85.03L296.15,75.78L304.62,82.46L321.54,72.81L330,66.16L338.46,66.87L346.92,63.69L355.38,77.06L363.85,78.48L380.77,87.69L389.23,95.39L397.69,102.03L406.15,100.44L423.08,115.5L431.54,118.07L440,118.42L440,122.75L431.54,129.54L423.08,123.54L414.62,119.22L406.15,116.48L397.69,110.01L389.23,98.54L380.77,95.39L372.31,87.6L363.85,86.91L355.38,82.19L346.92,77.54L338.46,79.89L330,75.64L321.54,82.77L313.08,88.46L304.62,88.53L296.15,89.21L287.69,92.27L279.23,86.39L270.77,91.94L262.31,88.68L253.85,88.75L245.38,87.6L236.92,90.81L228.46,86.56L220,86.78L211.54,87.69L203.08,81.89L194.62,75.07L186.15,77.26L177.69,73.25L169.23,71.9L160.77,64.88L152.31,67.14L143.85,68.35L135.38,58.41L126.92,60.87L118.46,54.2L110,59.24L101.54,54.87L93.08,54.36L84.62,62.22L76.15,61.89L59.23,80.8L50.77,86.98L42.31,97.19L33.85,111.47L25.38,118.75L16.92,124.46L0,130.04Z" style="fill: rgb(252, 141, 89); fill-opacity: 1; stroke-width: 0;"/></g></g><g class="errorbars"/><g class="lines"><path class="js-line" d="M0,130.04L16.92,124.46L25.38,118.75L33.85,111.47L42.31,97.19L50.77,86.98L59.23,80.8L76.15,61.89L84.62,62.22L93.08,54.36L101.54,54.87L110,59.24L118.46,54.2L126.92,60.87L135.38,58.41L143.85,68.35L152.31,67.14L160.77,64.88L169.23,71.9L177.69,73.25L186.15,77.26L194.62,75.07L203.08,81.89L211.54,87.69L220,86.78L228.46,86.56L236.92,90.81L245.38,87.6L253.85,88.75L262.31,88.68L270.77,91.94L279.23,86.39L287.69,92.27L296.15,89.21L304.62,88.53L313.08,88.46L321.54,82.77L330,75.64L338.46,79.89L346.92,77.54L355.38,82.19L363.85,86.91L372.31,87.6L380.77,95.39L389.23,98.54L397.69,110.01L406.15,116.48L414.62,119.22L423.08,123.54L431.54,129.54L440,122.75" style="vector-effect: non-scaling-stroke; fill: none; stroke: rgb(0, 0, 0); stroke-opacity: 1; stroke-width: 0.5px; opacity: 1;"/></g><g class="points"/><g class="text"/></g><g class="trace scatter trace1c07bb" style="stroke-miterlimit: 2;"><g class="fills"/><g class="errorbars"/><g class="lines"><path class="js-line" d="M0,118.07L8.46,118.95L16.92,110.09L25.38,111.78L33.85,100.44L42.31,80.16L50.77,66.78L59.23,62.35L67.69,57.04L76.15,56.07L84.62,47.83L93.08,47.65L101.54,46.59L110,38.26L118.46,45.61L126.92,38L135.38,25.95L143.85,51.28L152.31,50.75L160.77,46.6L169.23,58.99L177.69,55.36L186.15,74.21L194.62,55.98L203.08,74.67L211.54,86.53L220,75.2L228.46,72.72L236.92,90.25L245.38,81.75L253.85,83.34L262.31,76.53L270.77,83.97L279.23,70.06L287.69,85.03L296.15,75.78L304.62,82.46L321.54,72.81L330,66.16L338.46,66.87L346.92,63.69L355.38,77.06L363.85,78.48L380.77,87.69L389.23,95.39L397.69,102.03L406.15,100.44L423.08,115.5L431.54,118.07L440,118.42" style="vector-effect: non-scaling-stroke; fill: none; stroke: rgb(0, 0, 0); stroke-opacity: 1; stroke-width: 0.25px; opacity: 1;"/></g><g class="points"/><g class="text"/></g><g class="trace scatter trace4aec47" style="stroke-miterlimit: 2; opacity: 1;"><g class="fills"/><g class="errorbars"/><g class="lines"/><g class="points"><path class="point" transform="translate(220,80.6)" d="M4,0A4,4 0 1,1 0,-4A4,4 0 0,1 4,0ZM0,0.5L0.5,0L0,-0.5L-0.5,0Z" style="opacity: 1; stroke: rgb(0, 0, 0); stroke-opacity: 1; stroke-width: 1px; fill: none;"/><path class="point" transform="translate(228.46,93)" d="M4,0A4,4 0 1,1 0,-4A4,4 0 0,1 4,0ZM0,0.5L0.5,0L0,-0.5L-0.5,0Z" style="opacity: 1; stroke: rgb(0, 0, 0); stroke-opacity: 1; stroke-width: 1px; fill: none;"/><path class="point" transform="translate(236.92,93)" d="M4,0A4,4 0 1,1 0,-4A4,4 0 0,1 4,0ZM0,0.5L0.5,0L0,-0.5L-0.5,0Z" style="opacity: 1; stroke: rgb(0, 0, 0); stroke-opacity: 1; stroke-width: 1px; fill: none;"/><path class="point" transform="translate(245.38,93)" d="M4,0A4,4 0 1,1 0,-4A4,4 0 0,1 4,0ZM0,0.5L0.5,0L0,-0.5L-0.5,0Z" style="opacity: 1; stroke: rgb(0, 0, 0); stroke-opacity: 1; stroke-width: 1px; fill: none;"/></g><g class="text"/></g></g></g><g class="overplot"/><path class="xlines-above crisp" d="M0,0" style="fill: none;"/><path class="ylines-above crisp" d="M0,0" style="fill: none;"/><g class="overlines-above"/><g class="xaxislayer-above"/><g class="yaxislayer-above"><g class="y2tick"><text text-anchor="end" x="79" y="4.199999999999999" transform="translate(0,472.00000000000006)" style="font-family: 'Open Sans', verdana, arial, sans-serif; font-size: 12px; fill: rgb(42, 63, 95); fill-opacity: 1; white-space: pre; opacity: 1;">20</text></g><g class="y2tick"><text text-anchor="end" x="79" y="4.199999999999999" style="font-family: 'Open Sans', verdana, arial, sans-serif; font-size: 12px; fill: rgb(42, 63, 95); fill-opacity: 1; white-space: pre; opacity: 1;" transform="translate(0,410.00000000000006)">30</text></g><g class="y2tick"><text text-anchor="end" x="79" y="4.199999999999999" style="font-family: 'Open Sans', verdana, arial, sans-serif; font-size: 12px; fill: rgb(42, 63, 95); fill-opacity: 1; white-space: pre; opacity: 1;" transform="translate(0,348.00000000000006)">40</text></g></g><g class="overaxes-above"/></g><g class="subplot x3y3"><g class="layer-subplot"><g class="shapelayer"/><g class="imagelayer"/></g><g class="minor-gridlayer"><g class="x3"/><g class="y3"/></g><g class="gridlayer"><g class="x3"><path class="x3grid crisp" transform="translate(156.15,0)" d="M0,534v186" style="stroke: rgb(255, 255, 255); stroke-opacity: 1; stroke-width: 1px;"/><path class="x3grid crisp" transform="translate(240.77,0)" d="M0,534v186" style="stroke: rgb(255, 255, 255); stroke-opacity: 1; stroke-width: 1px;"/><path class="x3grid crisp" transform="translate(325.38,0)" d="M0,534v186" style="stroke: rgb(255, 255, 255); stroke-opacity: 1; stroke-width: 1px;"/><path class="x3grid crisp" transform="translate(410,0)" d="M0,534v186" style="stroke: rgb(255, 255, 255); stroke-opacity: 1; stroke-width: 1px;"/><path class="x3grid crisp" transform="translate(494.62,0)" d="M0,534v186" style="stroke: rgb(255, 255, 255); stroke-opacity: 1; stroke-width: 1px;"/></g><g class="y3"><path class="y3grid crisp" transform="translate(0,682.8)" d="M80,0h440" style="stroke: rgb(255, 255, 255); stroke-opacity: 1; stroke-width: 1px;"/><path class="y3grid crisp" transform="translate(0,645.6)" d="M80,0h440" style="stroke: rgb(255, 255, 255); stroke-opacity: 1; stroke-width: 1px;"/><path class="y3grid crisp" transform="translate(0,608.4)" d="M80,0h440" style="stroke: rgb(255, 255, 255); stroke-opacity: 1; stroke-width: 1px;"/><path class="y3grid crisp" transform="translate(0,571.2)" d="M80,0h440" style="stroke: rgb(255, 255, 255); stroke-opacity: 1; stroke-width: 1px;"/></g></g><g class="zerolinelayer"/><path class="xlines-below"/><path class="ylines-below"/><g class="overlines-below"/><g class="xaxislayer-below"/><g class="yaxislayer-below"/><g class="overaxes-below"/><g class="plot" transform="translate(80,534)" clip-path="url(#clip277b75x3y3plot)"><g class="scatterlayer mlayer"><g class="trace scatter trace871a89" style="stroke-miterlimit: 2;"><g class="fills"><g><path class="js-fill" d="M0,122.64L8.46,127.67L16.92,122.31L25.38,118.38L33.85,116.65L42.31,105.09L50.77,95.95L59.23,90.98L67.69,77.62L76.15,75.04L84.62,66.3L93.08,61.11L101.54,57.61L118.46,53.54L126.92,50.41L135.38,52.05L143.85,50.25L152.31,42.75L160.77,39.86L169.23,37.07L177.69,36.51L194.62,35.13L203.08,35.66L220,35.92L228.46,36.11L236.92,36.35L245.38,37.49L253.85,38.77L262.31,37.36L304.62,39.27L313.08,41.74L321.54,40.89L330,42.54L338.46,44.4L346.92,48.25L355.38,50.59L363.85,61.33L372.31,65.47L380.77,73.18L389.23,84.13L397.69,98.61L414.62,106.87L423.08,117.45L431.54,119.6L440,135.5L440,140.52L431.54,133.37L423.08,124.87L414.62,119.68L406.15,112.66L380.77,85.13L372.31,72.81L363.85,73.56L355.38,57.18L346.92,53.04L338.46,49.1L330,46.13L321.54,44.53L313.08,46.45L304.62,41.98L287.69,41.35L279.23,40.18L270.77,40.71L262.31,41.88L253.85,45.35L245.38,39.54L228.46,38.16L220,37.41L211.54,38.05L203.08,38.37L194.62,42.2L186.15,39.43L177.69,42.41L169.23,41.03L160.77,44.75L152.31,49.35L143.85,59.66L135.38,58.03L126.92,61.96L118.46,64.94L110,65.15L101.54,63.67L84.62,78.65L76.15,88.32L67.69,94.92L59.23,105.65L50.77,118.93L42.31,121.8L33.85,139.22L25.38,129.99L16.92,129.24L8.46,144.97L0,128.25Z" style="fill: rgb(90, 180, 172); fill-opacity: 1; stroke-width: 0;"/></g></g><g class="errorbars"/><g class="lines"><path class="js-line" d="M0,128.25L8.46,144.97L16.92,129.24L25.38,129.99L33.85,139.22L42.31,121.8L50.77,118.93L59.23,105.65L67.69,94.92L76.15,88.32L84.62,78.65L101.54,63.67L110,65.15L118.46,64.94L126.92,61.96L135.38,58.03L143.85,59.66L152.31,49.35L160.77,44.75L169.23,41.03L177.69,42.41L186.15,39.43L194.62,42.2L203.08,38.37L211.54,38.05L220,37.41L228.46,38.16L245.38,39.54L253.85,45.35L262.31,41.88L270.77,40.71L279.23,40.18L287.69,41.35L304.62,41.98L313.08,46.45L321.54,44.53L330,46.13L338.46,49.1L346.92,53.04L355.38,57.18L363.85,73.56L372.31,72.81L380.77,85.13L406.15,112.66L414.62,119.68L423.08,124.87L431.54,133.37L440,140.52" style="vector-effect: non-scaling-stroke; fill: none; stroke: rgb(0, 0, 0); stroke-opacity: 1; stroke-width: 0.25px; opacity: 1;"/></g><g class="points"/><g class="text"/></g><g class="trace scatter trace1af644" style="stroke-miterlimit: 2;"><g class="fills"><g><path class="js-fill" d="M0,117.98L8.46,121.06L16.92,115.59L33.85,110.22L42.31,92.2L50.77,90.82L59.23,82.27L67.69,71.21L76.15,69.83L84.62,61.65L93.08,56.28L101.54,52.51L110,51.23L118.46,46.87L126.92,45.65L135.38,46.02L143.85,45.39L152.31,39.75L160.77,36.83L177.69,34.17L186.15,33.91L203.08,33.37L211.54,34.7L228.46,33.48L236.92,35.39L253.85,36.77L262.31,35.23L313.08,38.42L321.54,38.32L346.92,42.46L355.38,48.36L363.85,56.81L372.31,59.25L380.77,70.04L389.23,77.47L397.69,89.37L406.15,95.5L414.62,103.04L423.08,109.26L431.54,114.65L440,127.1L440,135.5L431.54,119.6L423.08,117.45L414.62,106.87L397.69,98.61L389.23,84.13L380.77,73.18L372.31,65.47L363.85,61.33L355.38,50.59L346.92,48.25L338.46,44.4L330,42.54L321.54,40.89L313.08,41.74L304.62,39.27L262.31,37.36L253.85,38.77L245.38,37.49L236.92,36.35L228.46,36.11L220,35.92L203.08,35.66L194.62,35.13L177.69,36.51L169.23,37.07L160.77,39.86L152.31,42.75L143.85,50.25L135.38,52.05L126.92,50.41L118.46,53.54L101.54,57.61L93.08,61.11L84.62,66.3L76.15,75.04L67.69,77.62L59.23,90.98L50.77,95.95L42.31,105.09L33.85,116.65L25.38,118.38L16.92,122.31L8.46,127.67L0,122.64Z" style="fill: rgb(245, 245, 245); fill-opacity: 1; stroke-width: 0;"/></g></g><g class="errorbars"/><g class="lines"><path class="js-line" d="M0,122.64L8.46,127.67L16.92,122.31L25.38,118.38L33.85,116.65L42.31,105.09L50.77,95.95L59.23,90.98L67.69,77.62L76.15,75.04L84.62,66.3L93.08,61.11L101.54,57.61L118.46,53.54L126.92,50.41L135.38,52.05L143.85,50.25L152.31,42.75L160.77,39.86L169.23,37.07L177.69,36.51L194.62,35.13L203.08,35.66L220,35.92L228.46,36.11L236.92,36.35L245.38,37.49L253.85,38.77L262.31,37.36L304.62,39.27L313.08,41.74L321.54,40.89L330,42.54L338.46,44.4L346.92,48.25L355.38,50.59L363.85,61.33L372.31,65.47L380.77,73.18L389.23,84.13L397.69,98.61L414.62,106.87L423.08,117.45L431.54,119.6L440,135.5" style="vector-effect: non-scaling-stroke; fill: none; stroke: rgb(0, 0, 0); stroke-opacity: 1; stroke-width: 0.5px; opacity: 1;"/></g><g class="points"/><g class="text"/></g><g class="trace scatter trace4d3350" style="stroke-miterlimit: 2;"><g class="fills"><g><path class="js-fill" d="M0,108.22L8.46,112.02L16.92,111.36L25.38,106.58L33.85,97.7L42.31,85.61L50.77,78.62L59.23,73.1L67.69,64.28L76.15,59.57L84.62,55.93L93.08,52.82L101.54,48.07L110,47.48L118.46,43.18L135.38,35.82L143.85,41.19L152.31,36.56L160.77,32.87L177.69,32.04L186.15,32.76L194.62,29.39L203.08,31.91L220,33.11L228.46,31.41L236.92,32.52L245.38,34.68L262.31,33.13L270.77,33.35L304.62,37.12L313.08,36.72L330,35.71L338.46,36.59L346.92,38.29L355.38,44.59L363.85,51.92L372.31,53.57L380.77,64.94L389.23,71.24L397.69,81.92L406.15,90.8L414.62,94.28L423.08,95.98L431.54,109.5L440,120.39L440,127.1L431.54,114.65L423.08,109.26L414.62,103.04L406.15,95.5L397.69,89.37L389.23,77.47L380.77,70.04L372.31,59.25L363.85,56.81L355.38,48.36L346.92,42.46L321.54,38.32L313.08,38.42L262.31,35.23L253.85,36.77L236.92,35.39L228.46,33.48L211.54,34.7L203.08,33.37L186.15,33.91L177.69,34.17L160.77,36.83L152.31,39.75L143.85,45.39L135.38,46.02L126.92,45.65L118.46,46.87L110,51.23L101.54,52.51L93.08,56.28L84.62,61.65L76.15,69.83L67.69,71.21L59.23,82.27L50.77,90.82L42.31,92.2L33.85,110.22L16.92,115.59L8.46,121.06L0,117.98Z" style="fill: rgb(245, 245, 245); fill-opacity: 1; stroke-width: 0;"/></g></g><g class="errorbars"/><g class="lines"><path class="js-line" d="M0,117.98L8.46,121.06L16.92,115.59L33.85,110.22L42.31,92.2L50.77,90.82L59.23,82.27L67.69,71.21L76.15,69.83L84.62,61.65L93.08,56.28L101.54,52.51L110,51.23L118.46,46.87L126.92,45.65L135.38,46.02L143.85,45.39L152.31,39.75L160.77,36.83L177.69,34.17L186.15,33.91L203.08,33.37L211.54,34.7L228.46,33.48L236.92,35.39L253.85,36.77L262.31,35.23L313.08,38.42L321.54,38.32L346.92,42.46L355.38,48.36L363.85,56.81L372.31,59.25L380.77,70.04L389.23,77.47L397.69,89.37L406.15,95.5L414.62,103.04L423.08,109.26L431.54,114.65L440,127.1" style="vector-effect: non-scaling-stroke; fill: none; stroke: rgb(0, 0, 0); stroke-opacity: 1; stroke-width: 1px; opacity: 1;"/></g><g class="points"/><g class="text"/></g><g class="trace scatter tracedea70a" style="stroke-miterlimit: 2;"><g class="fills"><g><path class="js-fill" d="M0,98.49L8.46,99.59L16.92,106.6L25.38,90.87L33.85,83.22L42.31,74.08L50.77,56.65L59.23,62.81L67.69,54.84L76.15,45.81L84.62,46.77L93.08,40.39L101.54,40.07L110,40.28L118.46,30.61L126.92,35.5L135.38,22.11L143.85,31.14L152.31,30.61L160.77,22.64L169.23,29.01L177.69,26.05L186.15,29.33L194.62,22.85L203.08,31.35L211.54,27.64L220,31.14L228.46,29.97L236.92,31.99L245.38,33.37L253.85,29.01L262.31,31.89L270.77,31.67L304.62,36.03L313.08,29.87L321.54,33.38L330,29.12L338.46,25.61L346.92,31.35L372.31,50.27L380.77,54.74L389.23,64.41L397.69,70.68L406.15,78.22L414.62,81.73L423.08,90.77L431.54,95.98L440,100.44L440,120.39L431.54,109.5L423.08,95.98L414.62,94.28L406.15,90.8L397.69,81.92L389.23,71.24L380.77,64.94L372.31,53.57L363.85,51.92L355.38,44.59L346.92,38.29L338.46,36.59L330,35.71L313.08,36.72L304.62,37.12L270.77,33.35L262.31,33.13L245.38,34.68L236.92,32.52L228.46,31.41L220,33.11L203.08,31.91L194.62,29.39L186.15,32.76L177.69,32.04L160.77,32.87L152.31,36.56L143.85,41.19L135.38,35.82L118.46,43.18L110,47.48L101.54,48.07L93.08,52.82L84.62,55.93L76.15,59.57L67.69,64.28L59.23,73.1L50.77,78.62L42.31,85.61L33.85,97.7L25.38,106.58L16.92,111.36L8.46,112.02L0,108.22Z" style="fill: rgb(216, 179, 101); fill-opacity: 1; stroke-width: 0;"/></g></g><g class="errorbars"/><g class="lines"><path class="js-line" d="M0,108.22L8.46,112.02L16.92,111.36L25.38,106.58L33.85,97.7L42.31,85.61L50.77,78.62L59.23,73.1L67.69,64.28L76.15,59.57L84.62,55.93L93.08,52.82L101.54,48.07L110,47.48L118.46,43.18L135.38,35.82L143.85,41.19L152.31,36.56L160.77,32.87L177.69,32.04L186.15,32.76L194.62,29.39L203.08,31.91L220,33.11L228.46,31.41L236.92,32.52L245.38,34.68L262.31,33.13L270.77,33.35L304.62,37.12L313.08,36.72L330,35.71L338.46,36.59L346.92,38.29L355.38,44.59L363.85,51.92L372.31,53.57L380.77,64.94L389.23,71.24L397.69,81.92L406.15,90.8L414.62,94.28L423.08,95.98L431.54,109.5L440,120.39" style="vector-effect: non-scaling-stroke; fill: none; stroke: rgb(0, 0, 0); stroke-opacity: 1; stroke-width: 0.5px; opacity: 1;"/></g><g class="points"/><g class="text"/></g><g class="trace scatter trace642857" style="stroke-miterlimit: 2;"><g class="fills"/><g class="errorbars"/><g class="lines"><path class="js-line" d="M0,98.49L8.46,99.59L16.92,106.6L25.38,90.87L33.85,83.22L42.31,74.08L50.77,56.65L59.23,62.81L67.69,54.84L76.15,45.81L84.62,46.77L93.08,40.39L101.54,40.07L110,40.28L118.46,30.61L126.92,35.5L135.38,22.11L143.85,31.14L152.31,30.61L160.77,22.64L169.23,29.01L177.69,26.05L186.15,29.33L194.62,22.85L203.08,31.35L211.54,27.64L220,31.14L228.46,29.97L236.92,31.99L245.38,33.37L253.85,29.01L262.31,31.89L270.77,31.67L304.62,36.03L313.08,29.87L321.54,33.38L330,29.12L338.46,25.61L346.92,31.35L372.31,50.27L380.77,54.74L389.23,64.41L397.69,70.68L406.15,78.22L414.62,81.73L423.08,90.77L431.54,95.98L440,100.44" style="vector-effect: non-scaling-stroke; fill: none; stroke: rgb(0, 0, 0); stroke-opacity: 1; stroke-width: 0.25px; opacity: 1;"/></g><g class="points"/><g class="text"/></g><g class="trace scatter traceba8401" style="stroke-miterlimit: 2; opacity: 1;"><g class="fills"/><g class="errorbars"/><g class="lines"/><g class="points"><path class="point" transform="translate(220,29.76)" d="M4,0A4,4 0 1,1 0,-4A4,4 0 0,1 4,0ZM0,0.5L0.5,0L0,-0.5L-0.5,0Z" style="opacity: 1; stroke: rgb(0, 0, 0); stroke-opacity: 1; stroke-width: 1px; fill: none;"/><path class="point" transform="translate(228.46,29.76)" d="M4,0A4,4 0 1,1 0,-4A4,4 0 0,1 4,0ZM0,0.5L0.5,0L0,-0.5L-0.5,0Z" style="opacity: 1; stroke: rgb(0, 0, 0); stroke-opacity: 1; stroke-width: 1px; fill: none;"/><path class="point" transform="translate(236.92,29.76)" d="M4,0A4,4 0 1,1 0,-4A4,4 0 0,1 4,0ZM0,0.5L0.5,0L0,-0.5L-0.5,0Z" style="opacity: 1; stroke: rgb(0, 0, 0); stroke-opacity: 1; stroke-width: 1px; fill: none;"/><path class="point" transform="translate(245.38,29.76)" d="M4,0A4,4 0 1,1 0,-4A4,4 0 0,1 4,0ZM0,0.5L0.5,0L0,-0.5L-0.5,0Z" style="opacity: 1; stroke: rgb(0, 0, 0); stroke-opacity: 1; stroke-width: 1px; fill: none;"/></g><g class="text"/></g></g></g><g class="overplot"/><path class="xlines-above crisp" d="M0,0" style="fill: none;"/><path class="ylines-above crisp" d="M0,0" style="fill: none;"/><g class="overlines-above"/><g class="xaxislayer-above"><g class="x3tick"><text text-anchor="middle" x="0" y="733" transform="translate(156.15,0)" style="font-family: 'Open Sans', verdana, arial, sans-serif; font-size: 12px; fill: rgb(42, 63, 95); fill-opacity: 1; white-space: pre; opacity: 1;">10</text></g><g class="x3tick"><text text-anchor="middle" x="0" y="733" style="font-family: 'Open Sans', verdana, arial, sans-serif; font-size: 12px; fill: rgb(42, 63, 95); fill-opacity: 1; white-space: pre; opacity: 1;" transform="translate(240.77,0)">20</text></g><g class="x3tick"><text text-anchor="middle" x="0" y="733" style="font-family: 'Open Sans', verdana, arial, sans-serif; font-size: 12px; fill: rgb(42, 63, 95); fill-opacity: 1; white-space: pre; opacity: 1;" transform="translate(325.38,0)">30</text></g><g class="x3tick"><text text-anchor="middle" x="0" y="733" style="font-family: 'Open Sans', verdana, arial, sans-serif; font-size: 12px; fill: rgb(42, 63, 95); fill-opacity: 1; white-space: pre; opacity: 1;" transform="translate(410,0)">40</text></g><g class="x3tick"><text text-anchor="middle" x="0" y="733" style="font-family: 'Open Sans', verdana, arial, sans-serif; font-size: 12px; fill: rgb(42, 63, 95); fill-opacity: 1; white-space: pre; opacity: 1;" transform="translate(494.62,0)">50</text></g></g><g class="yaxislayer-above"><g class="y3tick"><text text-anchor="end" x="79" y="4.199999999999999" transform="translate(0,720)" style="font-family: 'Open Sans', verdana, arial, sans-serif; font-size: 12px; fill: rgb(42, 63, 95); fill-opacity: 1; white-space: pre; opacity: 1;">5</text></g><g class="y3tick"><text text-anchor="end" x="79" y="4.199999999999999" style="font-family: 'Open Sans', verdana, arial, sans-serif; font-size: 12px; fill: rgb(42, 63, 95); fill-opacity: 1; white-space: pre; opacity: 1;" transform="translate(0,682.8)">10</text></g><g class="y3tick"><text text-anchor="end" x="79" y="4.199999999999999" style="font-family: 'Open Sans', verdana, arial, sans-serif; font-size: 12px; fill: rgb(42, 63, 95); fill-opacity: 1; white-space: pre; opacity: 1;" transform="translate(0,645.6)">15</text></g><g class="y3tick"><text text-anchor="end" x="79" y="4.199999999999999" style="font-family: 'Open Sans', verdana, arial, sans-serif; font-size: 12px; fill: rgb(42, 63, 95); fill-opacity: 1; white-space: pre; opacity: 1;" transform="translate(0,608.4)">20</text></g><g class="y3tick"><text text-anchor="end" x="79" y="4.199999999999999" style="font-family: 'Open Sans', verdana, arial, sans-serif; font-size: 12px; fill: rgb(42, 63, 95); fill-opacity: 1; white-space: pre; opacity: 1;" transform="translate(0,571.2)">25</text></g><g class="y3tick"><text text-anchor="end" x="79" y="4.199999999999999" style="font-family: 'Open Sans', verdana, arial, sans-serif; font-size: 12px; fill: rgb(42, 63, 95); fill-opacity: 1; white-space: pre; opacity: 1;" transform="translate(0,534)">30</text></g></g><g class="overaxes-above"/></g></g><g class="polarlayer"/><g class="smithlayer"/><g class="ternarylayer"/><g class="geolayer"/><g class="funnelarealayer"/><g class="pielayer"/><g class="iciclelayer"/><g class="treemaplayer"/><g class="sunburstlayer"/><g class="glimages"/><defs id="topdefs-277b75"><g class="clips"/></defs><g class="layer-above"><g class="imagelayer"/><g class="shapelayer"/></g><g class="infolayer"><g class="g-gtitle"><text class="gtitle" x="30" y="50" text-anchor="start" dy="0em" style="font-family: 'Open Sans', verdana, arial, sans-serif; font-size: 17px; fill: rgb(42, 63, 95); opacity: 1; font-weight: normal; white-space: pre;">Climatology and S2S forecast for Satkhira</text></g><g class="g-xtitle"/><g class="g-x2title"/><g class="g-x3title"/><g class="g-ytitle"><text class="ytitle" transform="rotate(-90,34.16875,193)" x="34.16875" y="193" text-anchor="middle" style="font-family: 'Open Sans', verdana, arial, sans-serif; font-size: 14px; fill: rgb(42, 63, 95); opacity: 1; font-weight: normal; white-space: pre;">[mm]</text></g><g class="g-y2title"><text class="y2title" transform="rotate(-90,40.840625,410.00000000000006)" x="40.840625" y="410.00000000000006" text-anchor="middle" style="font-family: 'Open Sans', verdana, arial, sans-serif; font-size: 14px; fill: rgb(42, 63, 95); opacity: 1; font-weight: normal; white-space: pre;">[C]</text></g><g class="g-y3title"><text class="y3title" transform="rotate(-90,40.840625,627)" x="40.840625" y="627" text-anchor="middle" style="font-family: 'Open Sans', verdana, arial, sans-serif; font-size: 14px; fill: rgb(42, 63, 95); opacity: 1; font-weight: normal; white-space: pre;">[C]</text></g><g class="annotation" data-index="0" style="opacity: 1;"><g class="annotation-text-g" transform="rotate(0,300,89.5)"><g class="cursor-pointer" transform="translate(237,79)"><rect class="bg" x="0.5" y="0.5" width="126" height="20" style="stroke-width: 1px; stroke: rgb(0, 0, 0); stroke-opacity: 0; fill: rgb(0, 0, 0); fill-opacity: 0;"/><text class="annotation-text" text-anchor="middle" x="63.359375" y="16" style="font-family: 'Open Sans', verdana, arial, sans-serif; font-size: 16px; fill: rgb(42, 63, 95); fill-opacity: 1; white-space: pre;">Precipitation sum</text></g></g></g><g class="annotation" data-index="1" style="opacity: 1;"><g class="annotation-text-g" transform="rotate(0,300,306.50000000000006)"><g class="cursor-pointer" transform="translate(196,296)"><rect class="bg" x="0.5" y="0.5" width="208" height="20" style="stroke-width: 1px; stroke: rgb(0, 0, 0); stroke-opacity: 0; fill: rgb(0, 0, 0); fill-opacity: 0;"/><text class="annotation-text" text-anchor="middle" x="104.265625" y="16" style="font-family: 'Open Sans', verdana, arial, sans-serif; font-size: 16px; fill: rgb(42, 63, 95); fill-opacity: 1; white-space: pre;">Mean maximum temperature</text></g></g></g><g class="annotation" data-index="2" style="opacity: 1;"><g class="annotation-text-g" transform="rotate(0,300,523.5)"><g class="cursor-pointer" transform="translate(198,513)"><rect class="bg" x="0.5" y="0.5" width="203" height="20" style="stroke-width: 1px; stroke: rgb(0, 0, 0); stroke-opacity: 0; fill: rgb(0, 0, 0); fill-opacity: 0;"/><text class="annotation-text" text-anchor="middle" x="102.046875" y="16" style="font-family: 'Open Sans', verdana, arial, sans-serif; font-size: 16px; fill: rgb(42, 63, 95); fill-opacity: 1; white-space: pre;">Mean minimum temperature</text></g></g></g><g class="annotation" data-index="3" style="opacity: 1;"><g class="annotation-text-g" transform="rotate(0,300,760.5)"><g class="cursor-pointer" transform="translate(277,750)"><rect class="bg" x="0.5" y="0.5" width="45" height="20" style="stroke-width: 1px; stroke: rgb(0, 0, 0); stroke-opacity: 0; fill: rgb(0, 0, 0); fill-opacity: 0;"/><text class="annotation-text" text-anchor="middle" x="22.3125" y="16" style="font-family: 'Open Sans', verdana, arial, sans-serif; font-size: 16px; fill: rgb(42, 63, 95); fill-opacity: 1; white-space: pre;">Week</text></g></g></g></g></svg>