<svg class="main-svg" xmlns="http://www.w3.org/2000/svg" xmlns:xlink="http://www.w3.org/1999/xlink" width="600" height="800" style="" viewBox="0 0 600 800"><rect x="0" y="0" width="600" height="800" style="fill: rgb(255, 255, 255); fill-opacity: 1;"/><defs id="defs-82f925"><g class="clips"><clipPath id="clip82f925xyplot" class="plotclip"><rect width="440" height="186.00000000000003"/></clipPath><clipPath id="clip82f925x2y2plot" class="plotclip"><rect width="440" height="185.99999999999997"/></clipPath><clipPath id="clip82f925x3y3plot" class="plotclip"><rect width="440" height="186"/></clipPath><clipPath class="axesclip" id="clip82f925x"><rect x="80" y="0" width="440" height="800"/></clipPath><clipPath class="axesclip" id="clip82f925y"><rect x="0" y="100" width="600" height="186.00000000000003"/></clipPath><clipPath class="axesclip" id="clip82f925xy"><rect x="80" y="100" width="440" height="186.00000000000003"/></clipPath><clipPath class="axesclip" id="clip82f925y2"><rect x="0" y="317.00000000000006" width="600" height="185.99999999999997"/></clipPath><clipPath class="axesclip" id="clip82f925xy2"><rect x="80" y="317.00000000000006" width="440" height="185.99999999999997"/></clipPath><clipPath class="axesclip" id="clip82f925y3"><rect x="0" y="534" width="600" height="186"/></clipPath><clipPath class="axesclip" id="clip82f925xy3"><rect x="80" y="534" width="440" height="186"/></clipPath><clipPath class="axesclip" id="clip82f925x2"><rect x="80" y="0" width="440" height="800"/></clipPath><clipPath class="axesclip" id="clip82f925x2y"><rect x="80" y="100" width="440" height="186.00000000000003"/></clipPath><clipPath class="axesclip" id="clip82f925x2y2"><rect x="80" y="317.00000000000006" width="440" height="185.99999999999997"/></clipPath><clipPath class="axesclip" id="clip82f925x2y3"><rect x="80" y="534" width="440" height="186"/></clipPath><clipPath class="axesclip" id="clip82f925x3"><rect x="80" y="0" width="440" height="800"/></clipPath><clipPath class="axesclip" id="clip82f925x3y"><rect x="80" y="100" width="440" height="186.00000000000003"/></clipPath><clipPath class="axesclip" id="clip82f925x3y2"><rect x="80" y="317.00000000000006" width="440" height="185.99999999999997"/></clipPath><clipPath class="axesclip" id="clip82f925x3y3"><rect x="80" y="534" width="440" height="186"/></clipPath></g><g class="gradients"/><g class="patterns"/></defs><g class="bglayer"><rect class="bg" x="80" y="100" width="440" height="186.00000000000003" style="fill: rgb(229, 236, 246); fill-opacity: 1; stroke-width: 0;"/><rect class="bg" x="80" y="317.00000000000006" width="440" height="185.99999999999997" style="fill: rgb(229, 236, 246); fill-opacity: 1; stroke-width: 0;"/><rect class="bg" x="80" y="534" width="440" height="186" style="fill: rgb(229, 236, 246); fill-opacity: 1; stroke-width: 0;"/></g><g class="layer-below"><g class="imagelayer"/><g class="shapelayer"/></g><g class="cartesianlayer"><g class="subplot xy"><g class="layer-subplot"><g class="shapelayer"/><g class="imagelayer"/></g><g class="minor-gridlayer"><g class="x"/><g class="y"/></g><g class="gridlayer"><g class="x"><path class="xgrid crisp" transform="translate(156.15,0)" d="M0,100v186.00000000000003" style="stroke: rgb(255, 255, 255); stroke-opacity: 1; stroke-width: 1px;"/><path class="xgrid crisp" transform="translate(240.77,0)" d="M0,100v186.00000000000003" style="stroke: rgb(255, 255, 255); stroke-opacity: 1; stroke-width: 1px;"/><path class="xgrid crisp" transform="translate(325.38,0)" d="M0,100v186.00000000000003" style="stroke: rgb(255, 255, 255); stroke-opacity: 1; stroke-width: 1px;"/><path class="xgrid crisp" transform="translate(410,0)" d="M0,100v186.00000000000003" style="stroke: rgb(255, 255, 255); stroke-opacity: 1; stroke-width: 1px;"/><path class="xgrid crisp" transform="translate(494.62,0)" d="M0,100v186.00000000000003" style="stroke: rgb(255, 255, 255); stroke-opacity: 1; stroke-width: 1px;"/></g><g class="y"><path class="ygrid crisp" transform="translate(0,248.8)" d="M80,0h440" style="stroke: rgb(255, 255, 255); stroke-opacity: 1; stroke-width: 1px;"/><path class="ygrid crisp" transform="translate(0,211.6)" d="M80,0h440" style="stroke: rgb(255, 255, 255); stroke-opacity: 1; stroke-width: 1px;"/><path class="ygrid crisp" transform="translate(0,174.4)" d="M80,0h440" style="stroke: rgb(255, 255, 255); stroke-opacity: 1; stroke-width: 1px;"/><path class="ygrid crisp" transform="translate(0,137.2)" d="M80,0h440" style="stroke: rgb(255, 255, 255); stroke-opacity: 1; stroke-width: 1px;"/></g></g><g class="zerolinelayer"><path class="yzl zl crisp" transform="translate(0,286)" d="M80,0h440" style="stroke: rgb(255, 255, 255); stroke-opacity: 1; stroke-width: 2px;"/></g><path class="xlines-below"/><path class="ylines-below"/><g class="overlines-below"/><g class="xaxislayer-below"/><g class="yaxislayer-below"/><g class="overaxes-below"/><g class="plot" transform="translate(80,100)" clip-path="url(#clip82f925xyplot)"><g class="scatterlayer mlayer"><g class="trace scatter trace2b6c8b" style="stroke-miterlimit: 2;"><g class="fills"><g><path class="js-fill" d="M0,186L126.92,185.81L135.38,182.81L143.85,170.82L152.31,185.15L160.77,164.79L169.23,166.23L177.69,169.15L186.15,141.79L194.62,155.68L203.08,147.97L211.54,123.61L220,161.99L228.46,150.57L236.92,141.85L245.38,145.39L253.85,173.31L262.31,158.05L270.77,124.82L279.23,162.32L287.69,168.9L296.15,175.21L304.62,158.56L313.08,165.46L321.54,161.15L330,177.42L338.46,162.59L346.92,183.75L355.38,186L440,186L440,186L355.38,186L346.92,186L321.54,185.72L313.08,179.34L304.62,175.24L296.15,183.14L287.69,179.33L279.23,179.46L270.77,166.24L262.31,182.99L253.85,182.8L245.38,176.01L236.92,180.19L228.46,181.68L220,185.17L211.54,169.52L203.08,183.73L194.62,183.6L186.15,180.7L177.69,186L0,186Z" style="fill: rgb(224, 236, 244); fill-opacity: 1; stroke-width: 0;"/></g></g><g class="errorbars"/><g class="lines"><path class="js-line" d="M0,186L177.69,186L186.15,180.7L194.62,183.6L203.08,183.73L211.54,169.52L220,185.17L228.46,181.68L236.92,180.19L245.38,176.01L253.85,182.8L262.31,182.99L270.77,166.24L279.23,179.46L287.69,179.33L296.15,183.14L304.62,175.24L313.08,179.34L321.54,185.72L346.92,186L355.38,186L440,186" style="vector-effect: non-scaling-stroke; fill: none; stroke: rgb(0, 0, 0); stroke-opacity: 1; stroke-width: 0.25px; opacity: 1;"/></g><g class="points"/><g class="text"/></g><g class="trace scatter traceb53e81" style="stroke-miterlimit: 2;"><g class="fills"><g><path class="js-fill" d="M0,186L84.62,186L93.08,184.46L101.54,185.34L110,182.97L118.46,185.83L126.92,166.18L135.38,170.32L143.85,150.84L152.31,165.82L160.77,136.94L169.23,150.97L177.69,146.2L186.15,127.36L194.62,121.3L203.08,120.24L211.54,84.86L220,111.39L228.46,127.17L236.92,108.44L245.38,98.26L253.85,126.84L262.31,108.84L270.77,104.49L279.23,137.87L287.69,148.97L296.15,136.58L304.62,140.82L313.08,151.18L321.54,149.93L330,151.87L338.46,142.54L346.92,159.38L355.38,183.04L363.85,185.41L380.77,186L389.23,186L440,186L440,186L355.38,186L346.92,183.75L338.46,162.59L330,177.42L321.54,161.15L313.08,165.46L304.62,158.56L296.15,175.21L287.69,168.9L279.23,162.32L270.77,124.82L262.31,158.05L253.85,173.31L245.38,145.39L236.92,141.85L228.46,150.57L220,161.99L211.54,123.61L203.08,147.97L194.62,155.68L186.15,141.79L177.69,169.15L169.23,166.23L160.77,164.79L152.31,185.15L143.85,170.82L135.38,182.81L126.92,185.81L0,186Z" style="fill: rgb(158, 188, 218); fill-opacity: 1; stroke-width: 0;"/></g></g><g class="errorbars"/><g class="lines"><path class="js-line" d="M0,186L126.92,185.81L135.38,182.81L143.85,170.82L152.31,185.15L160.77,164.79L169.23,166.23L177.69,169.15L186.15,141.79L194.62,155.68L203.08,147.97L211.54,123.61L220,161.99L228.46,150.57L236.92,141.85L245.38,145.39L253.85,173.31L262.31,158.05L270.77,124.82L279.23,162.32L287.69,168.9L296.15,175.21L304.62,158.56L313.08,165.46L321.54,161.15L330,177.42L338.46,162.59L346.92,183.75L355.38,186L440,186" style="vector-effect: non-scaling-stroke; fill: none; stroke: rgb(0, 0, 0); stroke-opacity: 1; stroke-width: 0.5px; opacity: 1;"/></g><g class="points"/><g class="text"/></g><g class="trace scatter traceb8cc6e" style="stroke-miterlimit: 2;"><g class="fills"><g><path class="js-fill" d="M0,186L76.15,186L84.62,184.94L93.08,172.78L101.54,179.22L110,153.36L118.46,166.6L126.92,154.28L135.38,153.62L143.85,134.65L152.31,126.72L160.77,92.82L169.23,104.19L177.69,109.81L186.15,74.4L211.54,-75.44L220,-1.6L228.46,14.5L236.92,14.41L245.38,44.55L253.85,7.82L262.31,77.38L270.77,82.62L279.23,77.17L287.69,110.66L296.15,123.88L304.62,117.88L313.08,100.58L321.54,118.72L330,114.74L338.46,85.86L346.92,147.7L355.38,153.8L363.85,171.64L372.31,176.58L380.77,185.95L389.23,186L440,186L440,186L389.23,186L380.77,186L363.85,185.41L355.38,183.04L346.92,159.38L338.46,142.54L330,151.87L321.54,149.93L313.08,151.18L304.62,140.82L296.15,136.58L287.69,148.97L279.23,137.87L270.77,104.49L262.31,108.84L253.85,126.84L245.38,98.26L236.92,108.44L228.46,127.17L220,111.39L211.54,84.86L203.08,120.24L194.62,121.3L186.15,127.36L177.69,146.2L169.23,150.97L160.77,136.94L152.31,165.82L143.85,150.84L135.38,170.32L126.92,166.18L118.46,185.83L110,182.97L101.54,185.34L93.08,184.46L84.62,186L0,186Z" style="fill: rgb(158, 188, 218); fill-opacity: 1; stroke-width: 0;"/></g></g><g class="errorbars"/><g class="lines"><path class="js-line" d="M0,186L84.62,186L93.08,184.46L101.54,185.34L110,182.97L118.46,185.83L126.92,166.18L135.38,170.32L143.85,150.84L152.31,165.82L160.77,136.94L169.23,150.97L177.69,146.2L186.15,127.36L194.62,121.3L203.08,120.24L211.54,84.86L220,111.39L228.46,127.17L236.92,108.44L245.38,98.26L253.85,126.84L262.31,108.84L270.77,104.49L279.23,137.87L287.69,148.97L296.15,136.58L304.62,140.82L313.08,151.18L321.54,149.93L330,151.87L338.46,142.54L346.92,159.38L355.38,183.04L363.85,185.41L380.77,186L389.23,186L440,186" style="vector-effect: non-scaling-stroke; fill: none; stroke: rgb(0, 0, 0); stroke-opacity: 1; stroke-width: 1px; opacity: 1;"/></g><g class="points"/><g class="text"/></g><g class="trace scatter tracefa1abb" style="stroke-miterlimit: 2;"><g class="fills"><g><path class="js-fill" d="M0,186L76.15,186L84.62,184.43L93.08,161.81L101.54,171.27L110,113.63L118.46,143.96L126.92,125.65L135.38,111.68L143.85,110.96L152.31,72.72L160.77,45.02L169.23,76.63L177.69,27.14L186.15,26.29L211.54,-247.35L220,-196.4L228.46,-56.64L236.92,-175.6L245.38,-45.25L253.85,-221.74L262.31,-8.27L270.77,32.97L279.23,0.85L287.69,38L296.15,110.49L304.62,62.99L313.08,6.16L321.54,92.02L330,35.82L338.46,66.74L355.38,131.02L363.85,155.86L372.31,174.45L380.77,185.92L440,186L440,186L389.23,186L380.77,185.95L372.31,176.58L363.85,171.64L355.38,153.8L346.92,147.7L338.46,85.86L330,114.74L321.54,118.72L313.08,100.58L304.62,117.88L296.15,123.88L287.69,110.66L279.23,77.17L270.77,82.62L262.31,77.38L253.85,7.82L245.38,44.55L236.92,14.41L228.46,14.5L220,-1.6L211.54,-75.44L186.15,74.4L177.69,109.81L169.23,104.19L160.77,92.82L152.31,126.72L143.85,134.65L135.38,153.62L126.92,154.28L118.46,166.6L110,153.36L101.54,179.22L93.08,172.78L84.62,184.94L76.15,186L0,186Z" style="fill: rgb(136, 86, 167); fill-opacity: 1; stroke-width: 0;"/></g></g><g class="errorbars"/><g class="lines"><path class="js-line" d="M0,186L76.15,186L84.62,184.94L93.08,172.78L101.54,179.22L110,153.36L118.46,166.6L126.92,154.28L135.38,153.62L143.85,134.65L152.31,126.72L160.77,92.82L169.23,104.19L177.69,109.81L186.15,74.4L211.54,-75.44L220,-1.6L228.46,14.5L236.92,14.41L245.38,44.55L253.85,7.82L262.31,77.38L270.77,82.62L279.23,77.17L287.69,110.66L296.15,123.88L304.62,117.88L313.08,100.58L321.54,118.72L330,114.74L338.46,85.86L346.92,147.7L355.38,153.8L363.85,171.64L372.31,176.58L380.77,185.95L389.23,186L440,186" style="vector-effect: non-scaling-stroke; fill: none; stroke: rgb(0, 0, 0); stroke-opacity: 1; stroke-width: 0.5px; opacity: 1;"/></g><g class="points"/><g class="text"/></g><g class="trace scatter trace116bdf" style="stroke-miterlimit: 2;"><g class="fills"/><g class="errorbars"/><g class="lines"><path class="js-line" d="M0,186L76.15,186L84.62,184.43L93.08,161.81L101.54,171.27L110,113.63L118.46,143.96L126.92,125.65L135.38,111.68L143.85,110.96L152.31,72.72L160.77,45.02L169.23,76.63L177.69,27.14L186.15,26.29L211.54,-247.35L220,-196.4L228.46,-56.64L236.92,-175.6L245.38,-45.25L253.85,-221.74L262.31,-8.27L270.77,32.97L279.23,0.85L287.69,38L296.15,110.49L304.62,62.99L313.08,6.16L321.54,92.02L330,35.82L338.46,66.74L355.38,131.02L363.85,155.86L372.31,174.45L380.77,185.92L440,186" style="vector-effect: non-scaling-stroke; fill: none; stroke: rgb(0, 0, 0); stroke-opacity: 1; stroke-width: 0.25px; opacity: 1;"/></g><g class="points"/><g class="text"/></g><g class="trace scatter traceba390c" style="stroke-miterlimit: 2; opacity: 1;"><g class="fills"/><g class="errorbars"/><g class="lines"/><g class="points"><path class="point" transform="translate(177.69,184.51)" d="M4,0A4,4 0 1,1 0,-4A4,4 0 0,1 4,0ZM0,0.5L0.5,0L0,-0.5L-0.5,0Z" style="opacity: 1; stroke: rgb(0, 0, 0); stroke-opacity: 1; stroke-width: 1px; fill: none;"/><path class="point" transform="translate(186.15,186)" d="M4,0A4,4 0 1,1 0,-4A4,4 0 0,1 4,0ZM0,0.5L0.5,0L0,-0.5L-0.5,0Z" style="opacity: 1; stroke: rgb(0, 0, 0); stroke-opacity: 1; stroke-width: 1px; fill: none;"/><path class="point" transform="translate(194.62,47.62)" d="M4,0A4,4 0 1,1 0,-4A4,4 0 0,1 4,0ZM0,0.5L0.5,0L0,-0.5L-0.5,0Z" style="opacity: 1; stroke: rgb(0, 0, 0); stroke-opacity: 1; stroke-width: 1px; fill: none;"/><path class="point" transform="translate(203.08,47.62)" d="M4,0A4,4 0 1,1 0,-4A4,4 0 0,1 4,0ZM0,0.5L0.5,0L0,-0.5L-0.5,0Z" style="opacity: 1; stroke: rgb(0, 0, 0); stroke-opacity: 1; stroke-width: 1px; fill: none;"/></g><g class="text"/></g></g></g><g class="overplot"/><path class="xlines-above crisp" d="M0,0" style="fill: none;"/><path class="ylines-above crisp" d="M0,0" style="fill: none;"/><g class="overlines-above"/><g class="xaxislayer-above"/><g class="yaxislayer-above"><g class="ytick"><text text-anchor="end" x="79" y="4.199999999999999" transform="translate(0,286)" style="font-family: 'Open Sans', verdana, arial, sans-serif; font-size: 12px; fill: rgb(42, 63, 95); fill-opacity: 1; white-space: pre; opacity: 1;">0</text></g><g class="ytick"><text text-anchor="end" x="79" y="4.199999999999999" style="font-family: 'Open Sans', verdana, arial, sans-serif; font-size: 12px; fill: rgb(42, 63, 95); fill-opacity: 1; white-space: pre; opacity: 1;" transform="translate(0,248.8)">50</text></g><g class="ytick"><text text-anchor="end" x="79" y="4.199999999999999" style="font-family: 'Open Sans', verdana, arial, sans-serif; font-size: 12px; fill: rgb(42, 63, 95); fill-opacity: 1; white-space: pre; opacity: 1;" transform="translate(0,211.6)">100</text></g><g class="ytick"><text text-anchor="end" x="79" y="4.199999999999999" style="font-family: 'Open Sans', verdana, arial, sans-serif; font-size: 12px; fill: rgb(42, 63, 95); fill-opacity: 1; white-space: pre; opacity: 1;" transform="translate(0,174.4)">150</text></g><g class="ytick"><text text-anchor="end" x="79" y="4.199999999999999" style="font-family: 'Open Sans', verdana, arial, sans-serif; font-size: 12px; fill: rgb(42, 63, 95); fill-opacity: 1; white-space: pre; opacity: 1;" transform="translate(0,137.2)">200</text></g><g class="ytick"><text text-anchor="end" x="79" y="4.199999999999999" style="font-family: 'Open Sans', verdana, arial, sans-serif; font-size: 12px; fill: rgb(42, 63, 95); fill-opacity: 1; white-space: pre; opacity: 1;" transform="translate(0,100)">250</text></g></g><g class="overaxes-above"/></g><g class="subplot x2y2"><g class="layer-subplot"><g class="shapelayer"/><g class="imagelayer"/></g><g class="minor-gridlayer"><g class="x2"/><g class="y2"/></g><g class="gridlayer"><g class="x2"><path class="x2grid crisp" transform="translate(156.15,0)" d="M0,317.00000000000006v185.99999999999997" style="stroke: rgb(255, 255, 255); stroke-opacity: 1; stroke-width: 1px;"/><path class="x2grid crisp" transform="translate(240.77,0)" d="M0,317.00000000000006v185.99999999999997" style="stroke: rgb(255, 255, 255); stroke-opacity: 1; stroke-width: 1px;"/><path class="x2grid crisp" transform="translate(325.38,0)" d="M0,317.00000000000006v185.99999999999997" style="stroke: rgb(255, 255, 255); stroke-opacity: 1; stroke-width: 1px;"/><path class="x2grid crisp" transform="translate(410,0)" d="M0,317.00000000000006v185.99999999999997" style="stroke: rgb(255, 255, 255); stroke-opacity: 1; stroke-width: 1px;"/><path class="x2grid crisp" transform="translate(494.62,0)" d="M0,317.00000000000006v185.99999999999997" style="stroke: rgb(255, 255, 255); stroke-opacity: 1; stroke-width: 1px;"/></g><g class="y2"><path class="y2grid crisp" transform="translate(0,472.00000000000006)" d="M80,0h440" style="stroke: rgb(255, 255, 255); stroke-opacity: 1; stroke-width: 1px;"/><path class="y2grid crisp" transform="translate(0,410.00000000000006)" d="M80,0h440" style="stroke: rgb(255, 255, 255); stroke-opacity: 1; stroke-width: 1px;"/><path class="y2grid crisp" transform="translate(0,348.00000000000006)" d="M80,0h440" style="stroke: rgb(255, 255, 255); stroke-opacity: 1; stroke-width: 1px;"/></g></g><g class="zerolinelayer"/><path class="xlines-below"/><path class="ylines-below"/><g class="overlines-below"/><g class="xaxislayer-below"/><g class="yaxislayer-below"/><g class="overaxes-below"/><g class="plot" transform="translate(80,317.00000000000006)" clip-path="url(#clip82f925x2y2plot)"><g class="scatterlayer mlayer"><g class="trace scatter trace0c897b" style="stroke-miterlimit: 2;"><g class="fills"><g><path class="js-fill" d="M0,136.53L8.46,143.77L16.92,137.37L25.38,132.18L33.85,130.62L50.77,120.17L59.23,115.96L67.69,112.12L76.15,102.64L84.62,101.66L93.08,98.66L101.54,100.05L110,96.3L118.46,92.32L126.92,95.56L135.38,96.07L143.85,94.92L160.77,96.23L169.23,97.84L177.69,98.66L186.15,101.3L194.62,103.1L203.08,102.07L211.54,105.34L220,105.26L228.46,103.62L236.92,106.5L253.85,104.79L262.31,102.83L279.23,104.86L287.69,102.09L304.62,101.22L313.08,102.97L321.54,100.26L330,99.89L338.46,103.61L346.92,103.03L355.38,100.53L363.85,102.06L372.31,106.15L380.77,108.18L389.23,113.09L397.69,119.26L406.15,124.39L414.62,126.33L423.08,131.74L431.54,134.76L440,139.88L440,144.26L431.54,142.7L423.08,140.31L414.62,133.87L406.15,133.28L397.69,125.97L389.23,117.27L380.77,113.92L372.31,112.39L363.85,108.5L355.38,106.88L346.92,110.23L338.46,110.48L330,104.33L321.54,104.37L313.08,112.43L304.62,104.75L287.69,107.92L279.23,111.43L270.77,108.24L262.31,108.37L253.85,107.34L245.38,115.44L236.92,112L228.46,113.09L220,115.31L211.54,110.67L203.08,108.56L194.62,108.67L186.15,107.18L177.69,105.82L169.23,108.63L160.77,105.34L152.31,103.69L143.85,99.03L135.38,101.55L126.92,103.97L118.46,92.99L110,105.05L101.54,104.19L93.08,106.12L84.62,113.3L76.15,112.76L67.69,119.67L59.23,125.43L50.77,129.11L42.31,133.56L33.85,141.81L25.38,136.73L16.92,141.88L8.46,149.28L0,145.96Z" style="fill: rgb(145, 191, 219); fill-opacity: 1; stroke-width: 0;"/></g></g><g class="errorbars"/><g class="lines"><path class="js-line" d="M0,145.96L8.46,149.28L16.92,141.88L25.38,136.73L33.85,141.81L42.31,133.56L50.77,129.11L59.23,125.43L67.69,119.67L76.15,112.76L84.62,113.3L93.08,106.12L101.54,104.19L110,105.05L118.46,92.99L126.92,103.97L135.38,101.55L143.85,99.03L152.31,103.69L160.77,105.34L169.23,108.63L177.69,105.82L186.15,107.18L194.62,108.67L203.08,108.56L211.54,110.67L220,115.31L228.46,113.09L236.92,112L245.38,115.44L253.85,107.34L262.31,108.37L270.77,108.24L279.23,111.43L287.69,107.92L304.62,104.75L313.08,112.43L321.54,104.37L330,104.33L338.46,110.48L346.92,110.23L355.38,106.88L363.85,108.5L372.31,112.39L380.77,113.92L389.23,117.27L397.69,125.97L406.15,133.28L414.62,133.87L423.08,140.31L431.54,142.7L440,144.26" style="vector-effect: non-scaling-stroke; fill: none; stroke: rgb(0, 0, 0); stroke-opacity: 1; stroke-width: 0.25px; opacity: 1;"/></g><g class="points"/><g class="text"/></g><g class="trace scatter traceb40624" style="stroke-miterlimit: 2;"><g class="fills"><g><path class="js-fill" d="M0,133.84L8.46,137.52L16.92,131.79L25.38,128.76L33.85,128.03L50.77,114.39L59.23,111.45L76.15,100.49L84.62,91.52L93.08,92.9L101.54,92.34L110,93.77L118.46,88.92L126.92,89.94L135.38,89.18L143.85,91.17L152.31,87.31L169.23,93.67L177.69,94.97L186.15,98.06L194.62,98.98L203.08,99.21L211.54,101.13L220,101.41L228.46,100.05L236.92,101.59L245.38,100.14L253.85,101.2L262.31,100.75L270.77,101.8L279.23,99.96L287.69,98.7L296.15,99.86L304.62,98.19L313.08,98.4L321.54,98.43L330,96.73L346.92,97.86L355.38,96.49L363.85,100.25L372.31,102.94L380.77,106.24L389.23,111.21L397.69,116.11L406.15,119.66L423.08,126.15L431.54,131.04L440,136.34L440,139.88L431.54,134.76L423.08,131.74L414.62,126.33L406.15,124.39L397.69,119.26L389.23,113.09L380.77,108.18L372.31,106.15L363.85,102.06L355.38,100.53L346.92,103.03L338.46,103.61L330,99.89L321.54,100.26L313.08,102.97L304.62,101.22L287.69,102.09L279.23,104.86L262.31,102.83L253.85,104.79L236.92,106.5L228.46,103.62L220,105.26L211.54,105.34L203.08,102.07L194.62,103.1L186.15,101.3L177.69,98.66L169.23,97.84L160.77,96.23L143.85,94.92L135.38,96.07L126.92,95.56L118.46,92.32L110,96.3L101.54,100.05L93.08,98.66L84.62,101.66L76.15,102.64L67.69,112.12L59.23,115.96L50.77,120.17L33.85,130.62L25.38,132.18L16.92,137.37L8.46,143.77L0,136.53Z" style="fill: rgb(255, 255, 191); fill-opacity: 1; stroke-width: 0;"/></g></g><g class="errorbars"/><g class="lines"><path class="js-line" d="M0,136.53L8.46,143.77L16.92,137.37L25.38,132.18L33.85,130.62L50.77,120.17L59.23,115.96L67.69,112.12L76.15,102.64L84.62,101.66L93.08,98.66L101.54,100.05L110,96.3L118.46,92.32L126.92,95.56L135.38,96.07L143.85,94.92L160.77,96.23L169.23,97.84L177.69,98.66L186.15,101.3L194.62,103.1L203.08,102.07L211.54,105.34L220,105.26L228.46,103.62L236.92,106.5L253.85,104.79L262.31,102.83L279.23,104.86L287.69,102.09L304.62,101.22L313.08,102.97L321.54,100.26L330,99.89L338.46,103.61L346.92,103.03L355.38,100.53L363.85,102.06L372.31,106.15L380.77,108.18L389.23,113.09L397.69,119.26L406.15,124.39L414.62,126.33L423.08,131.74L431.54,134.76L440,139.88" style="vector-effect: non-scaling-stroke; fill: none; stroke: rgb(0, 0, 0); stroke-opacity: 1; stroke-width: 0.5px; opacity: 1;"/></g><g class="points"/><g class="text"/></g><g class="trace scatter tracec14285" style="stroke-miterlimit: 2;"><g class="fills"><g><path class="js-fill" d="M0,130.03L8.46,131.52L16.92,128.44L25.38,126.62L33.85,122.27L42.31,115.77L50.77,110.82L59.23,107.44L67.69,101.48L76.15,95.18L84.62,86.28L93.08,88.31L101.54,89.24L110,90.32L118.46,86.68L126.92,84.72L135.38,80.96L152.31,85.79L160.77,87.35L169.23,85.44L177.69,89.36L186.15,91.73L194.62,95.6L203.08,93.09L211.54,95.12L220,95.41L228.46,96.5L245.38,95.46L253.85,97.57L262.31,95.52L270.77,98.92L279.23,93.77L287.69,94.51L296.15,96.83L304.62,95.71L313.08,93.97L321.54,95.2L330,93.71L338.46,93.35L346.92,95.28L355.38,94.01L363.85,96.23L372.31,100.46L397.69,112.04L406.15,116.29L414.62,119L423.08,123.28L431.54,126.27L440,125.07L440,136.34L431.54,131.04L423.08,126.15L406.15,119.66L397.69,116.11L389.23,111.21L380.77,106.24L372.31,102.94L363.85,100.25L355.38,96.49L346.92,97.86L330,96.73L321.54,98.43L313.08,98.4L304.62,98.19L296.15,99.86L287.69,98.7L279.23,99.96L270.77,101.8L262.31,100.75L253.85,101.2L245.38,100.14L236.92,101.59L228.46,100.05L220,101.41L211.54,101.13L203.08,99.21L194.62,98.98L186.15,98.06L177.69,94.97L169.23,93.67L152.31,87.31L143.85,91.17L135.38,89.18L126.92,89.94L118.46,88.92L110,93.77L101.54,92.34L93.08,92.9L84.62,91.52L76.15,100.49L59.23,111.45L50.77,114.39L33.85,128.03L25.38,128.76L16.92,131.79L8.46,137.52L0,133.84Z" style="fill: rgb(255, 255, 191); fill-opacity: 1; stroke-width: 0;"/></g></g><g class="errorbars"/><g class="lines"><path class="js-line" d="M0,133.84L8.46,137.52L16.92,131.79L25.38,128.76L33.85,128.03L50.77,114.39L59.23,111.45L76.15,100.49L84.62,91.52L93.08,92.9L101.54,92.34L110,93.77L118.46,88.92L126.92,89.94L135.38,89.18L143.85,91.17L152.31,87.31L169.23,93.67L177.69,94.97L186.15,98.06L194.62,98.98L203.08,99.21L211.54,101.13L220,101.41L228.46,100.05L236.92,101.59L245.38,100.14L253.85,101.2L262.31,100.75L270.77,101.8L279.23,99.96L287.69,98.7L296.15,99.86L304.62,98.19L313.08,98.4L321.54,98.43L330,96.73L346.92,97.86L355.38,96.49L363.85,100.25L372.31,102.94L380.77,106.24L389.23,111.21L397.69,116.11L406.15,119.66L423.08,126.15L431.54,131.04L440,136.34" style="vector-effect: non-scaling-stroke; fill: none; stroke: rgb(0, 0, 0); stroke-opacity: 1; stroke-width: 1px; opacity: 1;"/></g><g class="points"/><g class="text"/></g><g class="trace scatter trace3c5472" style="stroke-miterlimit: 2;"><g class="fills"><g><path class="js-fill" d="M0,123.24L8.46,114.89L16.92,117.44L25.38,119.53L33.85,112.53L42.31,110.07L50.77,99.19L59.23,95.72L67.69,89.22L76.15,88.34L84.62,68.21L93.08,80.53L101.54,77.63L110,82.54L118.46,80.22L126.92,71.05L135.38,60.77L143.85,68.31L152.31,74.52L160.77,86.84L169.23,70.31L177.69,79.93L186.15,80.11L194.62,86.21L203.08,85.78L211.54,88.04L220,84.26L228.46,91.4L236.92,80.86L245.38,79.95L253.85,92.93L262.31,93.57L270.77,98.88L279.23,77.63L287.69,91.81L296.15,94.5L304.62,89L313.08,88.88L321.54,91.51L330,84.56L338.46,84.83L346.92,88.39L355.38,89.02L372.31,97.42L380.77,101.5L397.69,111.23L406.15,114.37L414.62,109.94L423.08,120.32L431.54,114.36L440,107.21L440,125.07L431.54,126.27L423.08,123.28L414.62,119L406.15,116.29L397.69,112.04L372.31,100.46L363.85,96.23L355.38,94.01L346.92,95.28L338.46,93.35L330,93.71L321.54,95.2L313.08,93.97L304.62,95.71L296.15,96.83L287.69,94.51L279.23,93.77L270.77,98.92L262.31,95.52L253.85,97.57L245.38,95.46L228.46,96.5L220,95.41L211.54,95.12L203.08,93.09L194.62,95.6L186.15,91.73L177.69,89.36L169.23,85.44L160.77,87.35L152.31,85.79L135.38,80.96L126.92,84.72L118.46,86.68L110,90.32L101.54,89.24L93.08,88.31L84.62,86.28L76.15,95.18L67.69,101.48L59.23,107.44L50.77,110.82L42.31,115.77L33.85,122.27L25.38,126.62L16.92,128.44L8.46,131.52L0,130.03Z" style="fill: rgb(252, 141, 89); fill-opacity: 1; stroke-width: 0;"/></g></g><g class="errorbars"/><g class="lines"><path class="js-line" d="M0,130.03L8.46,131.52L16.92,128.44L25.38,126.62L33.85,122.27L42.31,115.77L50.77,110.82L59.23,107.44L67.69,101.48L76.15,95.18L84.62,86.28L93.08,88.31L101.54,89.24L110,90.32L118.46,86.68L126.92,84.72L135.38,80.96L152.31,85.79L160.77,87.35L169.23,85.44L177.69,89.36L186.15,91.73L194.62,95.6L203.08,93.09L211.54,95.12L220,95.41L228.46,96.5L245.38,95.46L253.85,97.57L262.31,95.52L270.77,98.92L279.23,93.77L287.69,94.51L296.15,96.83L304.62,95.71L313.08,93.97L321.54,95.2L330,93.71L338.46,93.35L346.92,95.28L355.38,94.01L363.85,96.23L372.31,100.46L397.69,112.04L406.15,116.29L414.62,119L423.08,123.28L431.54,126.27L440,125.07" style="vector-effect: non-scaling-stroke; fill: none; stroke: rgb(0, 0, 0); stroke-opacity: 1; stroke-width: 0.5px; opacity: 1;"/></g><g class="points"/><g class="text"/></g><g class="trace scatter tracef091e8" style="stroke-miterlimit: 2;"><g class="fills"/><g class="errorbars"/><g class="lines"><path class="js-line" d="M0,123.24L8.46,114.89L16.92,117.44L25.38,119.53L33.85,112.53L42.31,110.07L50.77,99.19L59.23,95.72L67.69,89.22L76.15,88.34L84.62,68.21L93.08,80.53L101.54,77.63L110,82.54L118.46,80.22L126.92,71.05L135.38,60.77L143.85,68.31L152.31,74.52L160.77,86.84L169.23,70.31L177.69,79.93L186.15,80.11L194.62,86.21L203.08,85.78L211.54,88.04L220,84.26L228.46,91.4L236.92,80.86L245.38,79.95L253.85,92.93L262.31,93.57L270.77,98.88L279.23,77.63L287.69,91.81L296.15,94.5L304.62,89L313.08,88.88L321.54,91.51L330,84.56L338.46,84.83L346.92,88.39L355.38,89.02L372.31,97.42L380.77,101.5L397.69,111.23L406.15,114.37L414.62,109.94L423.08,120.32L431.54,114.36L440,107.21" style="vector-effect: non-scaling-stroke; fill: none; stroke: rgb(0, 0, 0); stroke-opacity: 1; stroke-width: 0.25px; opacity: 1;"/></g><g class="points"/><g class="text"/></g><g class="trace scatter trace0d5a7b" style="stroke-miterlimit: 2; opacity: 1;"><g class="fills"/><g class="errorbars"/><g class="lines"/><g class="points"><path class="point" transform="translate(177.69,68.2)" d="M4,0A4,4 0 1,1 0,-4A4,4 0 0,1 4,0ZM0,0.5L0.5,0L0,-0.5L-0.5,0Z" style="opacity: 1; stroke: rgb(0, 0, 0); stroke-opacity: 1; stroke-width: 1px; fill: none;"/><path class="point" transform="translate(186.15,62)" d="M4,0A4,4 0 1,1 0,-4A4,4 0 0,1 4,0ZM0,0.5L0.5,0L0,-0.5L-0.5,0Z" style="opacity: 1; stroke: rgb(0, 0, 0); stroke-opacity: 1; stroke-width: 1px; fill: none;"/><path class="point" transform="translate(194.62,80.6)" d="M4,0A4,4 0 1,1 0,-4A4,4 0 0,1 4,0ZM0,0.5L0.5,0L0,-0.5L-0.5,0Z" style="opacity: 1; stroke: rgb(0, 0, 0); stroke-opacity: 1; stroke-width: 1px; fill: none;"/><path class="point" transform="translate(203.08,80.6)" d="M4,0A4,4 0 1,1 0,-4A4,4 0 0,1 4,0ZM0,0.5L0.5,0L0,-0.5L-0.5,0Z" style="opacity: 1; stroke: rgb(0, 0, 0); stroke-opacity: 1; stroke-width: 1px; fill: none;"/></g><g class="text"/></g></g></g><g class="overplot"/><path class="xlines-above crisp" d="M0,0" style="fill: none;"/><path class="ylines-above crisp" d="M0,0" style="fill: none;"/><g class="overlines-above"/><g class="xaxislayer-above"/><g class="yaxislayer-above"><g class="y2tick"><text text-anchor="end" x="79" y="4.199999999999999" transform="translate(0,472.00000000000006)" style="font-family: 'Open Sans', verdana, arial, sans-serif; font-size: 12px; fill: rgb(42, 63, 95); fill-opacity: 1; white-space: pre; opacity: 1;">20</text></g><g class="y2tick"><text text-anchor="end" x="79" y="4.199999999999999" style="font-family: 'Open Sans', verdana, arial, sans-serif; font-size: 12px; fill: rgb(42, 63, 95); fill-opacity: 1; white-space: pre; opacity: 1;" transform="translate(0,410.00000000000006)">30</text></g><g class="y2tick"><text text-anchor="end" x="79" y="4.199999999999999" style="font-family: 'Open Sans', verdana, arial, sans-serif; font-size: 12px; fill: rgb(42, 63, 95); fill-opacity: 1; white-space: pre; opacity: 1;" transform="translate(0,348.00000000000006)">40</text></g></g><g class="overaxes-above"/></g><g class="subplot x3y3"><g class="layer-subplot"><g class="shapelayer"/><g class="imagelayer"/></g><g class="minor-gridlayer"><g class="x3"/><g class="y3"/></g><g class="gridlayer"><g class="x3"><path class="x3grid crisp" transform="translate(156.15,0)" d="M0,534v186" style="stroke: rgb(255, 255, 255); stroke-opacity: 1; stroke-width: 1px;"/><path class="x3grid crisp" transform="translate(240.77,0)" d="M0,534v186" style="stroke: rgb(255, 255, 255); stroke-opacity: 1; stroke-width: 1px;"/><path class="x3grid crisp" transform="translate(325.38,0)" d="M0,534v186" style="stroke: rgb(255, 255, 255); stroke-opacity: 1; stroke-width: 1px;"/><path class="x3grid crisp" transform="translate(410,0)" d="M0,534v186" style="stroke: rgb(255, 255, 255); stroke-opacity: 1; stroke-width: 1px;"/><path class="x3grid crisp" transform="translate(494.62,0)" d="M0,534v186" style="stroke: rgb(255, 255, 255); stroke-opacity: 1; stroke-width: 1px;"/></g><g class="y3"><path class="y3grid crisp" transform="translate(0,682.8)" d="M80,0h440" style="stroke: rgb(255, 255, 255); stroke-opacity: 1; stroke-width: 1px;"/><path class="y3grid crisp" transform="translate(0,645.6)" d="M80,0h440" style="stroke: rgb(255, 255, 255); stroke-opacity: 1; stroke-width: 1px;"/><path class="y3grid crisp" transform="translate(0,608.4)" d="M80,0h440" style="stroke: rgb(255, 255, 255); stroke-opacity: 1; stroke-width: 1px;"/><path class="y3grid crisp" transform="translate(0,571.2)" d="M80,0h440" style="stroke: rgb(255, 255, 255); stroke-opacity: 1; stroke-width: 1px;"/></g></g><g class="zerolinelayer"/><path class="xlines-below"/><path class="ylines-below"/><g class="overlines-below"/><g class="xaxislayer-below"/><g class="yaxislayer-below"/><g class="overaxes-below"/><g class="plot" transform="translate(80,534)" clip-path="url(#clip82f925x3y3plot)"><g class="scatterlayer mlayer"><g class="trace scatter trace7d34c5" style="stroke-miterlimit: 2;"><g class="fills"><g><path class="js-fill" d="M0,91.47L8.46,102.07L16.92,93.55L25.38,96.77L33.85,91.3L42.31,84.58L50.77,80.58L59.23,78.38L67.69,65.47L76.15,61.22L84.62,59.41L93.08,50.24L101.54,47.69L118.46,41.08L126.92,36.42L135.38,37.33L143.85,40.23L152.31,36.28L160.77,33.57L177.69,32.8L186.15,33.64L203.08,32.23L211.54,33.79L220,32.81L228.46,34.31L245.38,34.66L253.85,35.34L262.31,33.9L270.77,34.16L279.23,35.55L287.69,33.75L296.15,34.41L304.62,34.06L313.08,35.67L321.54,34.27L338.46,37.56L346.92,39.88L355.38,39.38L363.85,43.84L380.77,53.9L389.23,60.26L397.69,68.08L406.15,73.21L414.62,80.69L423.08,89.24L431.54,90.29L440,101.74L440,119.51L431.54,111.36L423.08,113.93L414.62,101.32L406.15,91.52L397.69,76.98L389.23,68.97L380.77,66.06L372.31,54.26L363.85,47.45L355.38,44.76L346.92,42.9L338.46,43.67L330,38.16L321.54,37.33L313.08,39.08L304.62,35.1L296.15,36.87L287.69,35.69L279.23,36.88L270.77,37.59L262.31,36.59L253.85,37.34L245.38,37.29L236.92,36.46L228.46,37.43L220,35.85L211.54,35.46L203.08,35.31L194.62,36.06L186.15,36.02L177.69,33.87L169.23,39.83L160.77,40.79L152.31,43.8L143.85,50.16L135.38,40.36L126.92,42.24L118.46,49.27L110,47.75L101.54,53.62L93.08,57.63L84.62,66.74L76.15,70.54L67.69,70.72L50.77,98.39L42.31,103.06L33.85,109L25.38,120.43L16.92,96.01L8.46,117.36L0,98.18Z" style="fill: rgb(90, 180, 172); fill-opacity: 1; stroke-width: 0;"/></g></g><g class="errorbars"/><g class="lines"><path class="js-line" d="M0,98.18L8.46,117.36L16.92,96.01L25.38,120.43L33.85,109L42.31,103.06L50.77,98.39L67.69,70.72L76.15,70.54L84.62,66.74L93.08,57.63L101.54,53.62L110,47.75L118.46,49.27L126.92,42.24L135.38,40.36L143.85,50.16L152.31,43.8L160.77,40.79L169.23,39.83L177.69,33.87L186.15,36.02L194.62,36.06L203.08,35.31L211.54,35.46L220,35.85L228.46,37.43L236.92,36.46L245.38,37.29L253.85,37.34L262.31,36.59L270.77,37.59L279.23,36.88L287.69,35.69L296.15,36.87L304.62,35.1L313.08,39.08L321.54,37.33L330,38.16L338.46,43.67L346.92,42.9L355.38,44.76L363.85,47.45L372.31,54.26L380.77,66.06L389.23,68.97L397.69,76.98L406.15,91.52L414.62,101.32L423.08,113.93L431.54,111.36L440,119.51" style="vector-effect: non-scaling-stroke; fill: none; stroke: rgb(0, 0, 0); stroke-opacity: 1; stroke-width: 0.25px; opacity: 1;"/></g><g class="points"/><g class="text"/></g><g class="trace scatter tracee0d388" style="stroke-miterlimit: 2;"><g class="fills"><g><path class="js-fill" d="M0,85.67L8.46,92.9L16.92,88.22L25.38,84.66L33.85,84.42L50.77,71.64L59.23,66.84L67.69,61.15L76.15,57.51L84.62,50.28L93.08,47.8L101.54,43.42L110,42.78L118.46,37.53L126.92,34.23L135.38,34.09L143.85,34.95L152.31,30.94L160.77,31.81L169.23,32.14L177.69,31.6L186.15,32.36L194.62,31.15L236.92,32.07L245.38,32.97L253.85,32.95L262.31,31.91L279.23,33.61L287.69,33.03L330,33.36L338.46,35.46L346.92,37.22L355.38,37.4L363.85,42.57L372.31,44.93L380.77,48.55L389.23,55.57L397.69,62.43L406.15,66.58L414.62,72.77L423.08,74.76L440,92.23L440,101.74L431.54,90.29L423.08,89.24L414.62,80.69L406.15,73.21L397.69,68.08L389.23,60.26L380.77,53.9L363.85,43.84L355.38,39.38L346.92,39.88L338.46,37.56L321.54,34.27L313.08,35.67L304.62,34.06L296.15,34.41L287.69,33.75L279.23,35.55L270.77,34.16L262.31,33.9L253.85,35.34L245.38,34.66L228.46,34.31L220,32.81L211.54,33.79L203.08,32.23L186.15,33.64L177.69,32.8L160.77,33.57L152.31,36.28L143.85,40.23L135.38,37.33L126.92,36.42L118.46,41.08L101.54,47.69L93.08,50.24L84.62,59.41L76.15,61.22L67.69,65.47L59.23,78.38L50.77,80.58L42.31,84.58L33.85,91.3L25.38,96.77L16.92,93.55L8.46,102.07L0,91.47Z" style="fill: rgb(245, 245, 245); fill-opacity: 1; stroke-width: 0;"/></g></g><g class="errorbars"/><g class="lines"><path class="js-line" d="M0,91.47L8.46,102.07L16.92,93.55L25.38,96.77L33.85,91.3L42.31,84.58L50.77,80.58L59.23,78.38L67.69,65.47L76.15,61.22L84.62,59.41L93.08,50.24L101.54,47.69L118.46,41.08L126.92,36.42L135.38,37.33L143.85,40.23L152.31,36.28L160.77,33.57L177.69,32.8L186.15,33.64L203.08,32.23L211.54,33.79L220,32.81L228.46,34.31L245.38,34.66L253.85,35.34L262.31,33.9L270.77,34.16L279.23,35.55L287.69,33.75L296.15,34.41L304.62,34.06L313.08,35.67L321.54,34.27L338.46,37.56L346.92,39.88L355.38,39.38L363.85,43.84L380.77,53.9L389.23,60.26L397.69,68.08L406.15,73.21L414.62,80.69L423.08,89.24L431.54,90.29L440,101.74" style="vector-effect: non-scaling-stroke; fill: none; stroke: rgb(0, 0, 0); stroke-opacity: 1; stroke-width: 0.5px; opacity: 1;"/></g><g class="points"/><g class="text"/></g><g class="trace scatter trace780d7a" style="stroke-miterlimit: 2;"><g class="fills"><g><path class="js-fill" d="M0,81.74L8.46,88.39L16.92,83.49L33.85,76.45L42.31,69.8L50.77,67.34L59.23,63.8L67.69,56.93L76.15,52.63L84.62,45.06L93.08,43.54L101.54,41.19L110,38.02L118.46,33.69L126.92,31.75L135.38,32.25L143.85,29.56L160.77,27.63L169.23,28.21L186.15,29.21L194.62,29.36L203.08,29.22L211.54,29.96L220,30.62L228.46,30.23L245.38,31.82L253.85,31.35L262.31,30.92L270.77,31.74L279.23,31.23L287.69,31.7L296.15,30.98L304.62,32.19L313.08,31.04L321.54,31.98L330,31.2L338.46,32.86L346.92,33.71L355.38,33.74L372.31,44.11L380.77,45.62L389.23,53.64L397.69,57.72L406.15,60.57L414.62,66.86L423.08,68.58L431.54,75.52L440,86.35L440,92.23L423.08,74.76L414.62,72.77L406.15,66.58L397.69,62.43L389.23,55.57L380.77,48.55L372.31,44.93L363.85,42.57L355.38,37.4L346.92,37.22L338.46,35.46L330,33.36L287.69,33.03L279.23,33.61L262.31,31.91L253.85,32.95L245.38,32.97L236.92,32.07L194.62,31.15L186.15,32.36L177.69,31.6L169.23,32.14L160.77,31.81L152.31,30.94L143.85,34.95L135.38,34.09L126.92,34.23L118.46,37.53L110,42.78L101.54,43.42L93.08,47.8L84.62,50.28L76.15,57.51L67.69,61.15L59.23,66.84L50.77,71.64L33.85,84.42L25.38,84.66L16.92,88.22L8.46,92.9L0,85.67Z" style="fill: rgb(245, 245, 245); fill-opacity: 1; stroke-width: 0;"/></g></g><g class="errorbars"/><g class="lines"><path class="js-line" d="M0,85.67L8.46,92.9L16.92,88.22L25.38,84.66L33.85,84.42L50.77,71.64L59.23,66.84L67.69,61.15L76.15,57.51L84.62,50.28L93.08,47.8L101.54,43.42L110,42.78L118.46,37.53L126.92,34.23L135.38,34.09L143.85,34.95L152.31,30.94L160.77,31.81L169.23,32.14L177.69,31.6L186.15,32.36L194.62,31.15L236.92,32.07L245.38,32.97L253.85,32.95L262.31,31.91L279.23,33.61L287.69,33.03L330,33.36L338.46,35.46L346.92,37.22L355.38,37.4L363.85,42.57L372.31,44.93L380.77,48.55L389.23,55.57L397.69,62.43L406.15,66.58L414.62,72.77L423.08,74.76L440,92.23" style="vector-effect: non-scaling-stroke; fill: none; stroke: rgb(0, 0, 0); stroke-opacity: 1; stroke-width: 1px; opacity: 1;"/></g><g class="points"/><g class="text"/></g><g class="trace scatter trace94bbcc" style="stroke-miterlimit: 2;"><g class="fills"><g><path class="js-fill" d="M0,71.79L8.46,78.58L16.92,77.59L25.38,69.29L33.85,72.82L42.31,65.74L50.77,51.19L59.23,52.16L67.69,46.42L76.15,39.79L84.62,36.32L93.08,36L101.54,37.71L110,29.15L118.46,27.1L126.92,29.54L135.38,27.38L143.85,26.26L152.31,20.41L160.77,24.88L169.23,22.07L177.69,24.93L186.15,25.48L194.62,24.61L203.08,26.15L211.54,26.38L220,28.07L236.92,28.05L245.38,28.96L253.85,25.9L262.31,27.24L270.77,28.21L279.23,27.95L287.69,30.33L296.15,27.09L304.62,30.22L313.08,28.55L321.54,30.2L330,27.82L338.46,27.51L346.92,25.19L355.38,32.02L363.85,35.44L372.31,39.35L380.77,39.71L389.23,47.21L397.69,49.95L406.15,55.16L414.62,58.33L423.08,64.51L431.54,67.56L440,77.59L440,86.35L431.54,75.52L423.08,68.58L414.62,66.86L406.15,60.57L397.69,57.72L389.23,53.64L380.77,45.62L372.31,44.11L355.38,33.74L346.92,33.71L338.46,32.86L330,31.2L321.54,31.98L313.08,31.04L304.62,32.19L296.15,30.98L287.69,31.7L279.23,31.23L270.77,31.74L262.31,30.92L253.85,31.35L245.38,31.82L228.46,30.23L220,30.62L211.54,29.96L203.08,29.22L194.62,29.36L186.15,29.21L169.23,28.21L160.77,27.63L143.85,29.56L135.38,32.25L126.92,31.75L118.46,33.69L110,38.02L101.54,41.19L93.08,43.54L84.62,45.06L76.15,52.63L67.69,56.93L59.23,63.8L50.77,67.34L42.31,69.8L33.85,76.45L16.92,83.49L8.46,88.39L0,81.74Z" style="fill: rgb(216, 179, 101); fill-opacity: 1; stroke-width: 0;"/></g></g><g class="errorbars"/><g class="lines"><path class="js-line" d="M0,81.74L8.46,88.39L16.92,83.49L33.85,76.45L42.31,69.8L50.77,67.34L59.23,63.8L67.69,56.93L76.15,52.63L84.62,45.06L93.08,43.54L101.54,41.19L110,38.02L118.46,33.69L126.92,31.75L135.38,32.25L143.85,29.56L160.77,27.63L169.23,28.21L186.15,29.21L194.62,29.36L203.08,29.22L211.54,29.96L220,30.62L228.46,30.23L245.38,31.82L253.85,31.35L262.31,30.92L270.77,31.74L279.23,31.23L287.69,31.7L296.15,30.98L304.62,32.19L313.08,31.04L321.54,31.98L330,31.2L338.46,32.86L346.92,33.71L355.38,33.74L372.31,44.11L380.77,45.62L389.23,53.64L397.69,57.72L406.15,60.57L414.62,66.86L423.08,68.58L431.54,75.52L440,86.35" style="vector-effect: non-scaling-stroke; fill: none; stroke: rgb(0, 0, 0); stroke-opacity: 1; stroke-width: 0.5px; opacity: 1;"/></g><g class="points"/><g class="text"/></g><g class="trace scatter trace4c3550" style="stroke-miterlimit: 2;"><g class="fills"/><g class="errorbars"/><g class="lines"><path class="js-line" d="M0,71.79L8.46,78.58L16.92,77.59L25.38,69.29L33.85,72.82L42.31,65.74L50.77,51.19L59.23,52.16L67.69,46.42L76.15,39.79L84.62,36.32L93.08,36L101.54,37.71L110,29.15L118.46,27.1L126.92,29.54L135.38,27.38L143.85,26.26L152.31,20.41L160.77,24.88L169.23,22.07L177.69,24.93L186.15,25.48L194.62,24.61L203.08,26.15L211.54,26.38L220,28.07L236.92,28.05L245.38,28.96L253.85,25.9L262.31,27.24L270.77,28.21L279.23,27.95L287.69,30.33L296.15,27.09L304.62,30.22L313.08,28.55L321.54,30.2L330,27.82L338.46,27.51L346.92,25.19L355.38,32.02L363.85,35.44L372.31,39.35L380.77,39.71L389.23,47.21L397.69,49.95L406.15,55.16L414.62,58.33L423.08,64.51L431.54,67.56L440,77.59" style="vector-effect: non-scaling-stroke; fill: none; stroke: rgb(0, 0, 0); stroke-opacity: 1; stroke-width: 0.25px; opacity: 1;"/></g><g class="points"/><g class="text"/></g><g class="trace scatter trace5b149a" style="stroke-miterlimit: 2; opacity: 1;"><g class="fills"/><g class="errorbars"/><g class="lines"/><g class="points"><path class="point" transform="translate(177.69,37.2)" d="M4,0A4,4 0 1,1 0,-4A4,4 0 0,1 4,0ZM0,0.5L0.5,0L0,-0.5L-0.5,0Z" style="opacity: 1; stroke: rgb(0, 0, 0); stroke-opacity: 1; stroke-width: 1px; fill: none;"/><path class="point" transform="translate(186.15,22.32)" d="M4,0A4,4 0 1,1 0,-4A4,4 0 0,1 4,0ZM0,0.5L0.5,0L0,-0.5L-0.5,0Z" style="opacity: 1; stroke: rgb(0, 0, 0); stroke-opacity: 1; stroke-width: 1px; fill: none;"/><path class="point" transform="translate(194.62,37.2)" d="M4,0A4,4 0 1,1 0,-4A4,4 0 0,1 4,0ZM0,0.5L0.5,0L0,-0.5L-0.5,0Z" style="opacity: 1; stroke: rgb(0, 0, 0); stroke-opacity: 1; stroke-width: 1px; fill: none;"/><path class="point" transform="translate(203.08,37.2)" d="M4,0A4,4 0 1,1 0,-4A4,4 0 0,1 4,0ZM0,0.5L0.5,0L0,-0.5L-0.5,0Z" style="opacity: 1; stroke: rgb(0, 0, 0); stroke-opacity: 1; stroke-width: 1px; fill: none;"/></g><g class="text"/></g></g></g><g class="overplot"/><path class="xlines-above crisp" d="M0,0" style="fill: none;"/><path class="ylines-above crisp" d="M0,0" style="fill: none;"/><g class="overlines-above"/><g class="xaxislayer-above"><g class="x3tick"><text text-anchor="middle" x="0" y="733" transform="translate(156.15,0)" style="font-family: 'Open Sans', verdana, arial, sans-serif; font-size: 12px; fill: rgb(42, 63, 95); fill-opacity: 1; white-space: pre; opacity: 1;">10</text></g><g class="x3tick"><text text-anchor="middle" x="0" y="733" style="font-family: 'Open Sans', verdana, arial, sans-serif; font-size: 12px; fill: rgb(42, 63, 95); fill-opacity: 1; white-space: pre; opacity: 1;" transform="translate(240.77,0)">20</text></g><g class="x3tick"><text text-anchor="middle" x="0" y="733" style="font-family: 'Open Sans', verdana, arial, sans-serif; font-size: 12px; fill: rgb(42, 63, 95); fill-opacity: 1; white-space: pre; opacity: 1;" transform="translate(325.38,0)">30</text></g><g class="x3tick"><text text-anchor="middle" x="0" y="733" style="font-family: 'Open Sans', verdana, arial, sans-serif; font-size: 12px; fill: rgb(42, 63, 95); fill-opacity: 1; white-space: pre; opacity: 1;" transform="translate(410,0)">40</text></g><g class="x3tick"><text text-anchor="middle" x="0" y="733" style="font-family: 'Open Sans', verdana, arial, sans-serif; font-size: 12px; fill: rgb(42, 63, 95); fill-opacity: 1; white-space: pre; opacity: 1;" transform="translate(494.62,0)">50</text></g></g><g class="yaxislayer-above"><g class="y3tick"><text text-anchor="end" x="79" y="4.199999999999999" transform="translate(0,720)" style="font-family: 'Open Sans', verdana, arial, sans-serif; font-size: 12px; fill: rgb(42, 63, 95); fill-opacity: 1; white-space: pre; opacity: 1;">5</text></g><g class="y3tick"><text text-anchor="end" x="79" y="4.199999999999999" style="font-family: 'Open Sans', verdana, arial, sans-serif; font-size: 12px; fill: rgb(42, 63, 95); fill-opacity: 1; white-space: pre; opacity: 1;" transform="translate(0,682.8)">10</text></g><g class="y3tick"><text text-anchor="end" x="79" y="4.199999999999999" style="font-family: 'Open Sans', verdana, arial, sans-serif; font-size: 12px; fill: rgb(42, 63, 95); fill-opacity: 1; white-space: pre; opacity: 1;" transform="translate(0,645.6)">15</text></g><g class="y3tick"><text text-anchor="end" x="79" y="4.199999999999999" style="font-family: 'Open Sans', verdana, arial, sans-serif; font-size: 12px; fill: rgb(42, 63, 95); fill-opacity: 1; white-space: pre; opacity: 1;" transform="translate(0,608.4)">20</text></g><g class="y3tick"><text text-anchor="end" x="79" y="4.199999999999999" style="font-family: 'Open Sans', verdana, arial, sans-serif; font-size: 12px; fill: rgb(42, 63, 95); fill-opacity: 1; white-space: pre; opacity: 1;" transform="translate(0,571.2)">25</text></g><g class="y3tick"><text text-anchor="end" x="79" y="4.199999999999999" style="font-family: 'Open Sans', verdana, arial, sans-serif; font-size: 12px; fill: rgb(42, 63, 95); fill-opacity: 1; white-space: pre; opacity: 1;" transform="translate(0,534)">30</text></g></g><g class="overaxes-above"/></g></g><g class="polarlayer"/><g class="smithlayer"/><g class="ternarylayer"/><g class="geolayer"/><g class="funnelarealayer"/><g class="pielayer"/><g class="iciclelayer"/><g class="treemaplayer"/><g class="sunburstlayer"/><g class="glimages"/><defs id="topdefs-82f925"><g class="clips"/></defs><g class="layer-above"><g class="imagelayer"/><g class="shapelayer"/></g><g class="infolayer"><g class="g-gtitle"><text class="gtitle" x="30" y="50" text-anchor="start" dy="0em" style="font-family: 'Open Sans', verdana, arial, sans-serif; font-size: 17px; fill: rgb(42, 63, 95); opacity: 1; font-weight: normal; white-space: pre;">Climatology and S2S forecast for Chattogram</text></g><g class="g-xtitle"/><g class="g-x2title"/><g class="g-x3title"/><g class="g-ytitle"><text class="ytitle" transform="rotate(-90,34.16875,193)" x="34.16875" y="193" text-anchor="middle" style="font-family: 'Open Sans', verdana, arial, sans-serif; font-size: 14px; fill: rgb(42, 63, 95); opacity: 1; font-weight: normal; white-space: pre;">[mm]</text></g><g class="g-y2title"><text class="y2title" transform="rotate(-90,40.840625,410.00000000000006)" x="40.840625" y="410.00000000000006" text-anchor="middle" style="font-family: 'Open Sans', verdana, arial, sans-serif; font-size: 14px; fill: rgb(42, 63, 95); opacity: 1; font-weight: normal; white-space: pre;">[C]</text></g><g class="g-y3title"><text class="y3title" transform="rotate(-90,40.840625,627)" x="40.840625" y="627" text-anchor="middle" style="font-family: 'Open Sans', verdana, arial, sans-serif; font-size: 14px; fill: rgb(42, 63, 95); opacity: 1; font-weight: normal; white-space: pre;">[C]</text></g><g class="annotation" data-index="0" style="opacity: 1;"><g class="annotation-text-g" transform="rotate(0,300,89.5)"><g class="cursor-pointer" transform="translate(237,79)"><rect class="bg" x="0.5" y="0.5" width="126" height="20" style="stroke-width: 1px; stroke: rgb(0, 0, 0); stroke-opacity: 0; fill: rgb(0, 0, 0); fill-opacity: 0;"/><text class="annotation-text" text-anchor="middle" x="63.359375" y="16" style="font-family: 'Open Sans', verdana, arial, sans-serif; font-size: 16px; fill: rgb(42, 63, 95); fill-opacity: 1; white-space: pre;">Precipitation sum</text></g></g></g><g class="annotation" data-index="1" style="opacity: 1;"><g class="annotation-text-g" transform="rotate(0,300,306.50000000000006)"><g class="cursor-pointer" transform="translate(196,296)"><rect class="bg" x="0.5" y="0.5" width="208" height="20" style="stroke-width: 1px; stroke: rgb(0, 0, 0); stroke-opacity: 0; fill: rgb(0, 0, 0); fill-opacity: 0;"/><text class="annotation-text" text-anchor="middle" x="104.265625" y="16" style="font-family: 'Open Sans', verdana, arial, sans-serif; font-size: 16px; fill: rgb(42, 63, 95); fill-opacity: 1; white-space: pre;">Mean maximum temperature</text></g></g></g><g class="annotation" data-index="2" style="opacity: 1;"><g class="annotation-text-g" transform="rotate(0,300,523.5)"><g class="cursor-pointer" transform="translate(198,513)"><rect class="bg" x="0.5" y="0.5" width="203" height="20" style="stroke-width: 1px; stroke: rgb(0, 0, 0); stroke-opacity: 0; fill: rgb(0, 0, 0); fill-opacity: 0;"/><text class="annotation-text" text-anchor="middle" x="102.046875" y="16" style="font-family: 'Open Sans', verdana, arial, sans-serif; font-size: 16px; fill: rgb(42, 63, 95); fill-opacity: 1; white-space: pre;">Mean minimum temperature</text></g></g></g><g class="annotation" data-index="3" style="opacity: 1;"><g class="annotation-text-g" transform="rotate(0,300,760.5)"><g class="cursor-pointer" transform="translate(277,750)"><rect class="bg" x="0.5" y="0.5" width="45" height="20" style="stroke-width: 1px; stroke: rgb(0, 0, 0); stroke-opacity: 0; fill: rgb(0, 0, 0); fill-opacity: 0;"/><text class="annotation-text" text-anchor="middle" x="22.3125" y="16" style="font-family: 'Open Sans', verdana, arial, sans-serif; font-size: 16px; fill: rgb(42, 63, 95); fill-opacity: 1; white-space: pre;">Week</text></g></g></g></g></svg>