<svg class="main-svg" xmlns="http://www.w3.org/2000/svg" xmlns:xlink="http://www.w3.org/1999/xlink" width="600" height="800" style="" viewBox="0 0 600 800"><rect x="0" y="0" width="600" height="800" style="fill: rgb(255, 255, 255); fill-opacity: 1;"/><defs id="defs-1ec170"><g class="clips"><clipPath id="clip1ec170xyplot" class="plotclip"><rect width="440" height="186.00000000000003"/></clipPath><clipPath id="clip1ec170x2y2plot" class="plotclip"><rect width="440" height="185.99999999999997"/></clipPath><clipPath id="clip1ec170x3y3plot" class="plotclip"><rect width="440" height="186"/></clipPath><clipPath class="axesclip" id="clip1ec170x"><rect x="80" y="0" width="440" height="800"/></clipPath><clipPath class="axesclip" id="clip1ec170y"><rect x="0" y="100" width="600" height="186.00000000000003"/></clipPath><clipPath class="axesclip" id="clip1ec170xy"><rect x="80" y="100" width="440" height="186.00000000000003"/></clipPath><clipPath class="axesclip" id="clip1ec170y2"><rect x="0" y="317.00000000000006" width="600" height="185.99999999999997"/></clipPath><clipPath class="axesclip" id="clip1ec170xy2"><rect x="80" y="317.00000000000006" width="440" height="185.99999999999997"/></clipPath><clipPath class="axesclip" id="clip1ec170y3"><rect x="0" y="534" width="600" height="186"/></clipPath><clipPath class="axesclip" id="clip1ec170xy3"><rect x="80" y="534" width="440" height="186"/></clipPath><clipPath class="axesclip" id="clip1ec170x2"><rect x="80" y="0" width="440" height="800"/></clipPath><clipPath class="axesclip" id="clip1ec170x2y"><rect x="80" y="100" width="440" height="186.00000000000003"/></clipPath><clipPath class="axesclip" id="clip1ec170x2y2"><rect x="80" y="317.00000000000006" width="440" height="185.99999999999997"/></clipPath><clipPath class="axesclip" id="clip1ec170x2y3"><rect x="80" y="534" width="440" height="186"/></clipPath><clipPath class="axesclip" id="clip1ec170x3"><rect x="80" y="0" width="440" height="800"/></clipPath><clipPath class="axesclip" id="clip1ec170x3y"><rect x="80" y="100" width="440" height="186.00000000000003"/></clipPath><clipPath class="axesclip" id="clip1ec170x3y2"><rect x="80" y="317.00000000000006" width="440" height="185.99999999999997"/></clipPath><clipPath class="axesclip" id="clip1ec170x3y3"><rect x="80" y="534" width="440" height="186"/></clipPath></g><g class="gradients"/><g class="patterns"/></defs><g class="bglayer"><rect class="bg" x="80" y="100" width="440" height="186.00000000000003" style="fill: rgb(229, 236, 246); fill-opacity: 1; stroke-width: 0;"/><rect class="bg" x="80" y="317.00000000000006" width="440" height="185.99999999999997" style="fill: rgb(229, 236, 246); fill-opacity: 1; stroke-width: 0;"/><rect class="bg" x="80" y="534" width="440" height="186" style="fill: rgb(229, 236, 246); fill-opacity: 1; stroke-width: 0;"/></g><g class="layer-below"><g class="imagelayer"/><g class="shapelayer"/></g><g class="cartesianlayer"><g class="subplot xy"><g class="layer-subplot"><g class="shapelayer"/><g class="imagelayer"/></g><g class="minor-gridlayer"><g class="x"/><g class="y"/></g><g class="gridlayer"><g class="x"><path class="xgrid crisp" transform="translate(156.15,0)" d="M0,100v186.00000000000003" style="stroke: rgb(255, 255, 255); stroke-opacity: 1; stroke-width: 1px;"/><path class="xgrid crisp" transform="translate(240.77,0)" d="M0,100v186.00000000000003" style="stroke: rgb(255, 255, 255); stroke-opacity: 1; stroke-width: 1px;"/><path class="xgrid crisp" transform="translate(325.38,0)" d="M0,100v186.00000000000003" style="stroke: rgb(255, 255, 255); stroke-opacity: 1; stroke-width: 1px;"/><path class="xgrid crisp" transform="translate(410,0)" d="M0,100v186.00000000000003" style="stroke: rgb(255, 255, 255); stroke-opacity: 1; stroke-width: 1px;"/><path class="xgrid crisp" transform="translate(494.62,0)" d="M0,100v186.00000000000003" style="stroke: rgb(255, 255, 255); stroke-opacity: 1; stroke-width: 1px;"/></g><g class="y"><path class="ygrid crisp" transform="translate(0,248.8)" d="M80,0h440" style="stroke: rgb(255, 255, 255); stroke-opacity: 1; stroke-width: 1px;"/><path class="ygrid crisp" transform="translate(0,211.6)" d="M80,0h440" style="stroke: rgb(255, 255, 255); stroke-opacity: 1; stroke-width: 1px;"/><path class="ygrid crisp" transform="translate(0,174.4)" d="M80,0h440" style="stroke: rgb(255, 255, 255); stroke-opacity: 1; stroke-width: 1px;"/><path class="ygrid crisp" transform="translate(0,137.2)" d="M80,0h440" style="stroke: rgb(255, 255, 255); stroke-opacity: 1; stroke-width: 1px;"/></g></g><g class="zerolinelayer"><path class="yzl zl crisp" transform="translate(0,286)" d="M80,0h440" style="stroke: rgb(255, 255, 255); stroke-opacity: 1; stroke-width: 2px;"/></g><path class="xlines-below"/><path class="ylines-below"/><g class="overlines-below"/><g class="xaxislayer-below"/><g class="yaxislayer-below"/><g class="overaxes-below"/><g class="plot" transform="translate(80,100)" clip-path="url(#clip1ec170xyplot)"><g class="scatterlayer mlayer"><g class="trace scatter tracef4af1e" style="stroke-miterlimit: 2;"><g class="fills"><g><path class="js-fill" d="M0,186L101.54,185.98L110,181.32L118.46,184.42L126.92,179.29L135.38,173.55L143.85,172.49L152.31,176.63L160.77,162.72L169.23,165.17L177.69,149.54L186.15,117.56L194.62,128.12L203.08,166.24L211.54,145.67L220,172L228.46,157.22L236.92,150.21L245.38,158.19L253.85,165.64L262.31,156.72L270.77,162.69L279.23,160.5L287.69,163.55L296.15,168.06L304.62,161.4L313.08,160.45L321.54,162.85L330,174.23L338.46,180.65L346.92,184.82L355.38,186L363.85,186L440,186L440,186L338.46,185.98L330,184.54L321.54,179.71L313.08,184.96L304.62,184.65L296.15,185.07L279.23,176.16L270.77,175.57L262.31,169.1L253.85,176.42L245.38,177.33L236.92,175.36L228.46,181.76L220,182.14L211.54,176.13L203.08,184.06L194.62,175.65L186.15,183.62L177.69,184.75L169.23,181.37L160.77,185.04L152.31,186L143.85,184.93L135.38,186L0,186Z" style="fill: rgb(224, 236, 244); fill-opacity: 1; stroke-width: 0;"/></g></g><g class="errorbars"/><g class="lines"><path class="js-line" d="M0,186L135.38,186L143.85,184.93L152.31,186L160.77,185.04L169.23,181.37L177.69,184.75L186.15,183.62L194.62,175.65L203.08,184.06L211.54,176.13L220,182.14L228.46,181.76L236.92,175.36L245.38,177.33L253.85,176.42L262.31,169.1L270.77,175.57L279.23,176.16L296.15,185.07L304.62,184.65L313.08,184.96L321.54,179.71L330,184.54L338.46,185.98L440,186" style="vector-effect: non-scaling-stroke; fill: none; stroke: rgb(0, 0, 0); stroke-opacity: 1; stroke-width: 0.25px; opacity: 1;"/></g><g class="points"/><g class="text"/></g><g class="trace scatter trace7ec81f" style="stroke-miterlimit: 2;"><g class="fills"><g><path class="js-fill" d="M0,186L59.23,185.91L67.69,185.04L76.15,185.85L84.62,185.39L93.08,179.93L101.54,178.86L110,164.65L118.46,179.63L126.92,167.24L135.38,165.49L143.85,148.33L152.31,155.18L160.77,143.45L169.23,143.25L177.69,131.46L186.15,94.82L194.62,109.62L203.08,144.18L211.54,134.81L220,159.6L228.46,138.72L236.92,136.8L245.38,139.08L253.85,148.79L262.31,137.56L270.77,136.91L279.23,145.02L287.69,143.87L296.15,158.56L304.62,154.4L321.54,139.28L330,158.66L338.46,169.76L346.92,176.14L355.38,185.71L363.85,185.81L431.54,186L440,186L440,186L363.85,186L355.38,186L346.92,184.82L338.46,180.65L330,174.23L321.54,162.85L313.08,160.45L304.62,161.4L296.15,168.06L287.69,163.55L279.23,160.5L270.77,162.69L262.31,156.72L253.85,165.64L245.38,158.19L236.92,150.21L228.46,157.22L220,172L211.54,145.67L203.08,166.24L194.62,128.12L186.15,117.56L177.69,149.54L169.23,165.17L160.77,162.72L152.31,176.63L143.85,172.49L135.38,173.55L126.92,179.29L118.46,184.42L110,181.32L101.54,185.98L0,186Z" style="fill: rgb(158, 188, 218); fill-opacity: 1; stroke-width: 0;"/></g></g><g class="errorbars"/><g class="lines"><path class="js-line" d="M0,186L101.54,185.98L110,181.32L118.46,184.42L126.92,179.29L135.38,173.55L143.85,172.49L152.31,176.63L160.77,162.72L169.23,165.17L177.69,149.54L186.15,117.56L194.62,128.12L203.08,166.24L211.54,145.67L220,172L228.46,157.22L236.92,150.21L245.38,158.19L253.85,165.64L262.31,156.72L270.77,162.69L279.23,160.5L287.69,163.55L296.15,168.06L304.62,161.4L313.08,160.45L321.54,162.85L330,174.23L338.46,180.65L346.92,184.82L355.38,186L363.85,186L440,186" style="vector-effect: non-scaling-stroke; fill: none; stroke: rgb(0, 0, 0); stroke-opacity: 1; stroke-width: 0.5px; opacity: 1;"/></g><g class="points"/><g class="text"/></g><g class="trace scatter trace288357" style="stroke-miterlimit: 2;"><g class="fills"><g><path class="js-fill" d="M0,185.99L42.31,185.79L50.77,182.53L59.23,183.99L67.69,177.7L76.15,170.04L84.62,181.54L93.08,175.5L101.54,164.4L110,145.9L118.46,169.78L126.92,155.8L135.38,147.43L143.85,134.16L152.31,130.95L160.77,126.68L169.23,109.83L177.69,101.82L186.15,66.2L194.62,82.15L203.08,112.2L211.54,117.23L220,128.22L228.46,96.99L236.92,109.75L245.38,102.57L253.85,119.13L262.31,118.11L270.77,115.49L279.23,129.5L287.69,133.4L296.15,150.6L304.62,136.27L313.08,114.96L321.54,102.97L330,146.4L338.46,160.06L355.38,159.75L363.85,176.03L372.31,185.01L380.77,185.93L440,186L440,186L431.54,186L363.85,185.81L355.38,185.71L346.92,176.14L338.46,169.76L330,158.66L321.54,139.28L304.62,154.4L296.15,158.56L287.69,143.87L279.23,145.02L270.77,136.91L262.31,137.56L253.85,148.79L245.38,139.08L236.92,136.8L228.46,138.72L220,159.6L211.54,134.81L203.08,144.18L194.62,109.62L186.15,94.82L177.69,131.46L169.23,143.25L160.77,143.45L152.31,155.18L143.85,148.33L135.38,165.49L126.92,167.24L118.46,179.63L110,164.65L101.54,178.86L93.08,179.93L84.62,185.39L76.15,185.85L67.69,185.04L59.23,185.91L0,186Z" style="fill: rgb(158, 188, 218); fill-opacity: 1; stroke-width: 0;"/></g></g><g class="errorbars"/><g class="lines"><path class="js-line" d="M0,186L59.23,185.91L67.69,185.04L76.15,185.85L84.62,185.39L93.08,179.93L101.54,178.86L110,164.65L118.46,179.63L126.92,167.24L135.38,165.49L143.85,148.33L152.31,155.18L160.77,143.45L169.23,143.25L177.69,131.46L186.15,94.82L194.62,109.62L203.08,144.18L211.54,134.81L220,159.6L228.46,138.72L236.92,136.8L245.38,139.08L253.85,148.79L262.31,137.56L270.77,136.91L279.23,145.02L287.69,143.87L296.15,158.56L304.62,154.4L321.54,139.28L330,158.66L338.46,169.76L346.92,176.14L355.38,185.71L363.85,185.81L431.54,186L440,186" style="vector-effect: non-scaling-stroke; fill: none; stroke: rgb(0, 0, 0); stroke-opacity: 1; stroke-width: 1px; opacity: 1;"/></g><g class="points"/><g class="text"/></g><g class="trace scatter trace066b20" style="stroke-miterlimit: 2;"><g class="fills"><g><path class="js-fill" d="M0,185.98L42.31,185.73L50.77,181.2L59.23,181.32L67.69,165.46L76.15,150.82L84.62,177.8L93.08,168.49L101.54,137.89L110,111.17L118.46,153.05L126.92,145L135.38,138.06L143.85,98.38L152.31,65.38L160.77,75.82L169.23,46.03L177.69,88.17L186.15,6.88L194.62,22.89L203.08,45.45L211.54,78.69L220,75.44L228.46,62.02L236.92,56.75L245.38,50.8L253.85,53.41L262.31,99.04L270.77,70.27L279.23,92.48L287.69,120.82L296.15,130.7L304.62,101.47L321.54,34.13L330,119.28L338.46,131.02L346.92,134.85L355.38,125.15L363.85,163.38L372.31,184.53L380.77,185.92L440,186L440,186L380.77,185.93L372.31,185.01L363.85,176.03L355.38,159.75L338.46,160.06L330,146.4L321.54,102.97L313.08,114.96L304.62,136.27L296.15,150.6L287.69,133.4L279.23,129.5L270.77,115.49L262.31,118.11L253.85,119.13L245.38,102.57L236.92,109.75L228.46,96.99L220,128.22L211.54,117.23L203.08,112.2L194.62,82.15L186.15,66.2L177.69,101.82L169.23,109.83L160.77,126.68L152.31,130.95L143.85,134.16L135.38,147.43L126.92,155.8L118.46,169.78L110,145.9L101.54,164.4L93.08,175.5L84.62,181.54L76.15,170.04L67.69,177.7L59.23,183.99L50.77,182.53L42.31,185.79L0,185.99Z" style="fill: rgb(136, 86, 167); fill-opacity: 1; stroke-width: 0;"/></g></g><g class="errorbars"/><g class="lines"><path class="js-line" d="M0,185.99L42.31,185.79L50.77,182.53L59.23,183.99L67.69,177.7L76.15,170.04L84.62,181.54L93.08,175.5L101.54,164.4L110,145.9L118.46,169.78L126.92,155.8L135.38,147.43L143.85,134.16L152.31,130.95L160.77,126.68L169.23,109.83L177.69,101.82L186.15,66.2L194.62,82.15L203.08,112.2L211.54,117.23L220,128.22L228.46,96.99L236.92,109.75L245.38,102.57L253.85,119.13L262.31,118.11L270.77,115.49L279.23,129.5L287.69,133.4L296.15,150.6L304.62,136.27L313.08,114.96L321.54,102.97L330,146.4L338.46,160.06L355.38,159.75L363.85,176.03L372.31,185.01L380.77,185.93L440,186" style="vector-effect: non-scaling-stroke; fill: none; stroke: rgb(0, 0, 0); stroke-opacity: 1; stroke-width: 0.5px; opacity: 1;"/></g><g class="points"/><g class="text"/></g><g class="trace scatter trace816666" style="stroke-miterlimit: 2;"><g class="fills"/><g class="errorbars"/><g class="lines"><path class="js-line" d="M0,185.98L42.31,185.73L50.77,181.2L59.23,181.32L67.69,165.46L76.15,150.82L84.62,177.8L93.08,168.49L101.54,137.89L110,111.17L118.46,153.05L126.92,145L135.38,138.06L143.85,98.38L152.31,65.38L160.77,75.82L169.23,46.03L177.69,88.17L186.15,6.88L194.62,22.89L203.08,45.45L211.54,78.69L220,75.44L228.46,62.02L236.92,56.75L245.38,50.8L253.85,53.41L262.31,99.04L270.77,70.27L279.23,92.48L287.69,120.82L296.15,130.7L304.62,101.47L321.54,34.13L330,119.28L338.46,131.02L346.92,134.85L355.38,125.15L363.85,163.38L372.31,184.53L380.77,185.92L440,186" style="vector-effect: non-scaling-stroke; fill: none; stroke: rgb(0, 0, 0); stroke-opacity: 1; stroke-width: 0.25px; opacity: 1;"/></g><g class="points"/><g class="text"/></g><g class="trace scatter trace3fe745" style="stroke-miterlimit: 2; opacity: 1;"><g class="fills"/><g class="errorbars"/><g class="lines"/><g class="points"><path class="point" transform="translate(220,73.66)" d="M4,0A4,4 0 1,1 0,-4A4,4 0 0,1 4,0ZM0,0.5L0.5,0L0,-0.5L-0.5,0Z" style="opacity: 1; stroke: rgb(0, 0, 0); stroke-opacity: 1; stroke-width: 1px; fill: none;"/><path class="point" transform="translate(228.46,81.84)" d="M4,0A4,4 0 1,1 0,-4A4,4 0 0,1 4,0ZM0,0.5L0.5,0L0,-0.5L-0.5,0Z" style="opacity: 1; stroke: rgb(0, 0, 0); stroke-opacity: 1; stroke-width: 1px; fill: none;"/><path class="point" transform="translate(236.92,97.46)" d="M4,0A4,4 0 1,1 0,-4A4,4 0 0,1 4,0ZM0,0.5L0.5,0L0,-0.5L-0.5,0Z" style="opacity: 1; stroke: rgb(0, 0, 0); stroke-opacity: 1; stroke-width: 1px; fill: none;"/><path class="point" transform="translate(245.38,97.46)" d="M4,0A4,4 0 1,1 0,-4A4,4 0 0,1 4,0ZM0,0.5L0.5,0L0,-0.5L-0.5,0Z" style="opacity: 1; stroke: rgb(0, 0, 0); stroke-opacity: 1; stroke-width: 1px; fill: none;"/></g><g class="text"/></g></g></g><g class="overplot"/><path class="xlines-above crisp" d="M0,0" style="fill: none;"/><path class="ylines-above crisp" d="M0,0" style="fill: none;"/><g class="overlines-above"/><g class="xaxislayer-above"/><g class="yaxislayer-above"><g class="ytick"><text text-anchor="end" x="79" y="4.199999999999999" transform="translate(0,286)" style="font-family: 'Open Sans', verdana, arial, sans-serif; font-size: 12px; fill: rgb(42, 63, 95); fill-opacity: 1; white-space: pre; opacity: 1;">0</text></g><g class="ytick"><text text-anchor="end" x="79" y="4.199999999999999" style="font-family: 'Open Sans', verdana, arial, sans-serif; font-size: 12px; fill: rgb(42, 63, 95); fill-opacity: 1; white-space: pre; opacity: 1;" transform="translate(0,248.8)">50</text></g><g class="ytick"><text text-anchor="end" x="79" y="4.199999999999999" style="font-family: 'Open Sans', verdana, arial, sans-serif; font-size: 12px; fill: rgb(42, 63, 95); fill-opacity: 1; white-space: pre; opacity: 1;" transform="translate(0,211.6)">100</text></g><g class="ytick"><text text-anchor="end" x="79" y="4.199999999999999" style="font-family: 'Open Sans', verdana, arial, sans-serif; font-size: 12px; fill: rgb(42, 63, 95); fill-opacity: 1; white-space: pre; opacity: 1;" transform="translate(0,174.4)">150</text></g><g class="ytick"><text text-anchor="end" x="79" y="4.199999999999999" style="font-family: 'Open Sans', verdana, arial, sans-serif; font-size: 12px; fill: rgb(42, 63, 95); fill-opacity: 1; white-space: pre; opacity: 1;" transform="translate(0,137.2)">200</text></g><g class="ytick"><text text-anchor="end" x="79" y="4.199999999999999" style="font-family: 'Open Sans', verdana, arial, sans-serif; font-size: 12px; fill: rgb(42, 63, 95); fill-opacity: 1; white-space: pre; opacity: 1;" transform="translate(0,100)">250</text></g></g><g class="overaxes-above"/></g><g class="subplot x2y2"><g class="layer-subplot"><g class="shapelayer"/><g class="imagelayer"/></g><g class="minor-gridlayer"><g class="x2"/><g class="y2"/></g><g class="gridlayer"><g class="x2"><path class="x2grid crisp" transform="translate(156.15,0)" d="M0,317.00000000000006v185.99999999999997" style="stroke: rgb(255, 255, 255); stroke-opacity: 1; stroke-width: 1px;"/><path class="x2grid crisp" transform="translate(240.77,0)" d="M0,317.00000000000006v185.99999999999997" style="stroke: rgb(255, 255, 255); stroke-opacity: 1; stroke-width: 1px;"/><path class="x2grid crisp" transform="translate(325.38,0)" d="M0,317.00000000000006v185.99999999999997" style="stroke: rgb(255, 255, 255); stroke-opacity: 1; stroke-width: 1px;"/><path class="x2grid crisp" transform="translate(410,0)" d="M0,317.00000000000006v185.99999999999997" style="stroke: rgb(255, 255, 255); stroke-opacity: 1; stroke-width: 1px;"/><path class="x2grid crisp" transform="translate(494.62,0)" d="M0,317.00000000000006v185.99999999999997" style="stroke: rgb(255, 255, 255); stroke-opacity: 1; stroke-width: 1px;"/></g><g class="y2"><path class="y2grid crisp" transform="translate(0,472.00000000000006)" d="M80,0h440" style="stroke: rgb(255, 255, 255); stroke-opacity: 1; stroke-width: 1px;"/><path class="y2grid crisp" transform="translate(0,410.00000000000006)" d="M80,0h440" style="stroke: rgb(255, 255, 255); stroke-opacity: 1; stroke-width: 1px;"/><path class="y2grid crisp" transform="translate(0,348.00000000000006)" d="M80,0h440" style="stroke: rgb(255, 255, 255); stroke-opacity: 1; stroke-width: 1px;"/></g></g><g class="zerolinelayer"/><path class="xlines-below"/><path class="ylines-below"/><g class="overlines-below"/><g class="xaxislayer-below"/><g class="yaxislayer-below"/><g class="overaxes-below"/><g class="plot" transform="translate(80,317.00000000000006)" clip-path="url(#clip1ec170x2y2plot)"><g class="scatterlayer mlayer"><g class="trace scatter trace78be85" style="stroke-miterlimit: 2;"><g class="fills"><g><path class="js-fill" d="M0,135.65L8.46,146.42L16.92,133.95L25.38,132.04L33.85,124.21L59.23,100.78L67.69,95.07L76.15,89.87L84.62,79.95L93.08,79.76L101.54,87.63L110,91.05L118.46,85.47L126.92,84.67L135.38,88.39L143.85,89.81L152.31,83.59L160.77,86.39L169.23,86.61L177.69,89.45L186.15,91.12L194.62,90.43L203.08,90.84L211.54,93.26L220,90.68L228.46,91.69L236.92,93.57L253.85,90.06L262.31,89.77L270.77,96.05L279.23,94.2L287.69,91.8L296.15,92.63L304.62,92.03L313.08,93.37L321.54,92.87L330,93.7L338.46,96.19L346.92,94.14L355.38,91.27L363.85,93.57L380.77,99.52L389.23,106.46L397.69,113.18L406.15,122.79L414.62,125.35L423.08,134.24L431.54,135.96L440,136.45L440,145.18L431.54,149.31L423.08,150.59L414.62,133.38L406.15,133.27L397.69,123.26L389.23,111.57L380.77,104.68L372.31,100.51L355.38,101.26L346.92,103.63L338.46,102.62L330,106.89L321.54,102.66L313.08,103.08L304.62,95.67L296.15,98.69L287.69,99.37L279.23,105.67L270.77,106.97L262.31,101.29L253.85,100.43L245.38,105.01L228.46,104.43L220,98.47L211.54,100.59L203.08,96.05L177.69,96.34L169.23,101.19L160.77,99.8L152.31,96.55L143.85,100.72L135.38,99.48L126.92,96.64L118.46,99.93L110,94.67L101.54,99.27L93.08,96.16L84.62,97.01L76.15,109.14L67.69,119.61L59.23,114.01L50.77,126.12L42.31,129.17L33.85,130.87L16.92,141.34L8.46,154.59L0,143.28Z" style="fill: rgb(145, 191, 219); fill-opacity: 1; stroke-width: 0;"/></g></g><g class="errorbars"/><g class="lines"><path class="js-line" d="M0,143.28L8.46,154.59L16.92,141.34L33.85,130.87L42.31,129.17L50.77,126.12L59.23,114.01L67.69,119.61L76.15,109.14L84.62,97.01L93.08,96.16L101.54,99.27L110,94.67L118.46,99.93L126.92,96.64L135.38,99.48L143.85,100.72L152.31,96.55L160.77,99.8L169.23,101.19L177.69,96.34L203.08,96.05L211.54,100.59L220,98.47L228.46,104.43L245.38,105.01L253.85,100.43L262.31,101.29L270.77,106.97L279.23,105.67L287.69,99.37L296.15,98.69L304.62,95.67L313.08,103.08L321.54,102.66L330,106.89L338.46,102.62L346.92,103.63L355.38,101.26L372.31,100.51L380.77,104.68L389.23,111.57L397.69,123.26L406.15,133.27L414.62,133.38L423.08,150.59L431.54,149.31L440,145.18" style="vector-effect: non-scaling-stroke; fill: none; stroke: rgb(0, 0, 0); stroke-opacity: 1; stroke-width: 0.25px; opacity: 1;"/></g><g class="points"/><g class="text"/></g><g class="trace scatter trace3b2921" style="stroke-miterlimit: 2;"><g class="fills"><g><path class="js-fill" d="M0,132.37L8.46,135.51L16.92,127.96L25.38,124.83L33.85,117.6L50.77,99.86L59.23,93.38L67.69,82.42L76.15,83.6L84.62,70.32L93.08,67.8L101.54,76.06L110,78.33L118.46,72.1L126.92,79.08L135.38,80.72L143.85,84.14L152.31,77.11L160.77,80.82L169.23,82.65L177.69,83.24L194.62,84.39L203.08,87.76L211.54,83.44L220,86.06L228.46,85.29L236.92,86.69L245.38,84.08L253.85,86.41L262.31,85.54L270.77,87.58L279.23,85.31L287.69,85.59L296.15,87.08L304.62,86.58L313.08,87.1L321.54,90.08L330,86.55L338.46,88.38L346.92,89.07L355.38,84.6L363.85,91.54L372.31,93.16L380.77,96.7L389.23,103.99L397.69,109.08L406.15,116.35L423.08,124.52L431.54,132.14L440,131.18L440,136.45L431.54,135.96L423.08,134.24L414.62,125.35L406.15,122.79L397.69,113.18L389.23,106.46L380.77,99.52L363.85,93.57L355.38,91.27L346.92,94.14L338.46,96.19L330,93.7L321.54,92.87L313.08,93.37L304.62,92.03L296.15,92.63L287.69,91.8L279.23,94.2L270.77,96.05L262.31,89.77L253.85,90.06L236.92,93.57L228.46,91.69L220,90.68L211.54,93.26L203.08,90.84L194.62,90.43L186.15,91.12L177.69,89.45L169.23,86.61L160.77,86.39L152.31,83.59L143.85,89.81L135.38,88.39L126.92,84.67L118.46,85.47L110,91.05L101.54,87.63L93.08,79.76L84.62,79.95L76.15,89.87L67.69,95.07L59.23,100.78L33.85,124.21L25.38,132.04L16.92,133.95L8.46,146.42L0,135.65Z" style="fill: rgb(255, 255, 191); fill-opacity: 1; stroke-width: 0;"/></g></g><g class="errorbars"/><g class="lines"><path class="js-line" d="M0,135.65L8.46,146.42L16.92,133.95L25.38,132.04L33.85,124.21L59.23,100.78L67.69,95.07L76.15,89.87L84.62,79.95L93.08,79.76L101.54,87.63L110,91.05L118.46,85.47L126.92,84.67L135.38,88.39L143.85,89.81L152.31,83.59L160.77,86.39L169.23,86.61L177.69,89.45L186.15,91.12L194.62,90.43L203.08,90.84L211.54,93.26L220,90.68L228.46,91.69L236.92,93.57L253.85,90.06L262.31,89.77L270.77,96.05L279.23,94.2L287.69,91.8L296.15,92.63L304.62,92.03L313.08,93.37L321.54,92.87L330,93.7L338.46,96.19L346.92,94.14L355.38,91.27L363.85,93.57L380.77,99.52L389.23,106.46L397.69,113.18L406.15,122.79L414.62,125.35L423.08,134.24L431.54,135.96L440,136.45" style="vector-effect: non-scaling-stroke; fill: none; stroke: rgb(0, 0, 0); stroke-opacity: 1; stroke-width: 0.5px; opacity: 1;"/></g><g class="points"/><g class="text"/></g><g class="trace scatter trace25a848" style="stroke-miterlimit: 2;"><g class="fills"><g><path class="js-fill" d="M0,125.07L8.46,129.76L16.92,121.57L25.38,121.2L33.85,114.21L42.31,102.01L50.77,94.87L59.23,87.31L67.69,74.53L76.15,73.38L84.62,65.31L93.08,59.01L101.54,60.32L110,65.84L118.46,67.67L126.92,71.77L135.38,64.77L143.85,73.9L152.31,71.74L160.77,69.92L169.23,75.49L186.15,77.47L194.62,81.89L203.08,82.6L211.54,79.1L220,78.98L228.46,80.38L236.92,81.33L245.38,80.77L253.85,82.59L262.31,78.87L270.77,80.59L279.23,78.47L296.15,81.35L304.62,82.98L313.08,83.06L321.54,84.31L330,78.99L338.46,79.4L346.92,80.09L355.38,82.17L363.85,85.61L372.31,89.98L380.77,94.67L389.23,101.61L397.69,104.22L406.15,111.08L414.62,116.19L423.08,119.31L431.54,120.46L440,119.68L440,131.18L431.54,132.14L423.08,124.52L406.15,116.35L397.69,109.08L389.23,103.99L380.77,96.7L372.31,93.16L363.85,91.54L355.38,84.6L346.92,89.07L338.46,88.38L330,86.55L321.54,90.08L313.08,87.1L304.62,86.58L296.15,87.08L287.69,85.59L279.23,85.31L270.77,87.58L262.31,85.54L253.85,86.41L245.38,84.08L236.92,86.69L228.46,85.29L220,86.06L211.54,83.44L203.08,87.76L194.62,84.39L177.69,83.24L169.23,82.65L160.77,80.82L152.31,77.11L143.85,84.14L135.38,80.72L126.92,79.08L118.46,72.1L110,78.33L101.54,76.06L93.08,67.8L84.62,70.32L76.15,83.6L67.69,82.42L59.23,93.38L50.77,99.86L33.85,117.6L25.38,124.83L16.92,127.96L8.46,135.51L0,132.37Z" style="fill: rgb(255, 255, 191); fill-opacity: 1; stroke-width: 0;"/></g></g><g class="errorbars"/><g class="lines"><path class="js-line" d="M0,132.37L8.46,135.51L16.92,127.96L25.38,124.83L33.85,117.6L50.77,99.86L59.23,93.38L67.69,82.42L76.15,83.6L84.62,70.32L93.08,67.8L101.54,76.06L110,78.33L118.46,72.1L126.92,79.08L135.38,80.72L143.85,84.14L152.31,77.11L160.77,80.82L169.23,82.65L177.69,83.24L194.62,84.39L203.08,87.76L211.54,83.44L220,86.06L228.46,85.29L236.92,86.69L245.38,84.08L253.85,86.41L262.31,85.54L270.77,87.58L279.23,85.31L287.69,85.59L296.15,87.08L304.62,86.58L313.08,87.1L321.54,90.08L330,86.55L338.46,88.38L346.92,89.07L355.38,84.6L363.85,91.54L372.31,93.16L380.77,96.7L389.23,103.99L397.69,109.08L406.15,116.35L423.08,124.52L431.54,132.14L440,131.18" style="vector-effect: non-scaling-stroke; fill: none; stroke: rgb(0, 0, 0); stroke-opacity: 1; stroke-width: 1px; opacity: 1;"/></g><g class="points"/><g class="text"/></g><g class="trace scatter trace759c09" style="stroke-miterlimit: 2;"><g class="fills"><g><path class="js-fill" d="M0,119.36L8.46,120.7L16.92,115.91L25.38,107.01L33.85,105.47L42.31,88.54L50.77,90.08L59.23,79.24L67.69,65.83L84.62,50.05L93.08,54.32L101.54,46.12L110,50.38L118.46,56.13L126.92,56.95L135.38,31.25L143.85,62.1L152.31,60.56L160.77,56.14L169.23,63.38L177.69,64.36L186.15,72.01L194.62,70.51L203.08,77.44L211.54,69.79L220,69.99L228.46,72.31L236.92,67.99L245.38,66.92L253.85,73.4L262.31,67.01L270.77,70.69L279.23,67.76L296.15,66.88L304.62,72.78L313.08,68.62L321.54,78.05L338.46,61.36L346.92,65.53L355.38,75.33L363.85,79.21L372.31,84.83L380.77,92.84L389.23,95.86L397.69,96.78L406.15,104.05L414.62,109.99L423.08,113.21L431.54,118.14L440,112.17L440,119.68L431.54,120.46L423.08,119.31L414.62,116.19L406.15,111.08L397.69,104.22L389.23,101.61L380.77,94.67L372.31,89.98L363.85,85.61L355.38,82.17L346.92,80.09L338.46,79.4L330,78.99L321.54,84.31L313.08,83.06L304.62,82.98L296.15,81.35L279.23,78.47L270.77,80.59L262.31,78.87L253.85,82.59L245.38,80.77L236.92,81.33L228.46,80.38L220,78.98L211.54,79.1L203.08,82.6L194.62,81.89L186.15,77.47L169.23,75.49L160.77,69.92L152.31,71.74L143.85,73.9L135.38,64.77L126.92,71.77L118.46,67.67L110,65.84L101.54,60.32L93.08,59.01L84.62,65.31L76.15,73.38L67.69,74.53L59.23,87.31L50.77,94.87L42.31,102.01L33.85,114.21L25.38,121.2L16.92,121.57L8.46,129.76L0,125.07Z" style="fill: rgb(252, 141, 89); fill-opacity: 1; stroke-width: 0;"/></g></g><g class="errorbars"/><g class="lines"><path class="js-line" d="M0,125.07L8.46,129.76L16.92,121.57L25.38,121.2L33.85,114.21L42.31,102.01L50.77,94.87L59.23,87.31L67.69,74.53L76.15,73.38L84.62,65.31L93.08,59.01L101.54,60.32L110,65.84L118.46,67.67L126.92,71.77L135.38,64.77L143.85,73.9L152.31,71.74L160.77,69.92L169.23,75.49L186.15,77.47L194.62,81.89L203.08,82.6L211.54,79.1L220,78.98L228.46,80.38L236.92,81.33L245.38,80.77L253.85,82.59L262.31,78.87L270.77,80.59L279.23,78.47L296.15,81.35L304.62,82.98L313.08,83.06L321.54,84.31L330,78.99L338.46,79.4L346.92,80.09L355.38,82.17L363.85,85.61L372.31,89.98L380.77,94.67L389.23,101.61L397.69,104.22L406.15,111.08L414.62,116.19L423.08,119.31L431.54,120.46L440,119.68" style="vector-effect: non-scaling-stroke; fill: none; stroke: rgb(0, 0, 0); stroke-opacity: 1; stroke-width: 0.5px; opacity: 1;"/></g><g class="points"/><g class="text"/></g><g class="trace scatter tracea11e01" style="stroke-miterlimit: 2;"><g class="fills"/><g class="errorbars"/><g class="lines"><path class="js-line" d="M0,119.36L8.46,120.7L16.92,115.91L25.38,107.01L33.85,105.47L42.31,88.54L50.77,90.08L59.23,79.24L67.69,65.83L84.62,50.05L93.08,54.32L101.54,46.12L110,50.38L118.46,56.13L126.92,56.95L135.38,31.25L143.85,62.1L152.31,60.56L160.77,56.14L169.23,63.38L177.69,64.36L186.15,72.01L194.62,70.51L203.08,77.44L211.54,69.79L220,69.99L228.46,72.31L236.92,67.99L245.38,66.92L253.85,73.4L262.31,67.01L270.77,70.69L279.23,67.76L296.15,66.88L304.62,72.78L313.08,68.62L321.54,78.05L338.46,61.36L346.92,65.53L355.38,75.33L363.85,79.21L372.31,84.83L380.77,92.84L389.23,95.86L397.69,96.78L406.15,104.05L414.62,109.99L423.08,113.21L431.54,118.14L440,112.17" style="vector-effect: non-scaling-stroke; fill: none; stroke: rgb(0, 0, 0); stroke-opacity: 1; stroke-width: 0.25px; opacity: 1;"/></g><g class="points"/><g class="text"/></g><g class="trace scatter trace96fe31" style="stroke-miterlimit: 2; opacity: 1;"><g class="fills"/><g class="errorbars"/><g class="lines"/><g class="points"><path class="point" transform="translate(220,74.4)" d="M4,0A4,4 0 1,1 0,-4A4,4 0 0,1 4,0ZM0,0.5L0.5,0L0,-0.5L-0.5,0Z" style="opacity: 1; stroke: rgb(0, 0, 0); stroke-opacity: 1; stroke-width: 1px; fill: none;"/><path class="point" transform="translate(228.46,80.6)" d="M4,0A4,4 0 1,1 0,-4A4,4 0 0,1 4,0ZM0,0.5L0.5,0L0,-0.5L-0.5,0Z" style="opacity: 1; stroke: rgb(0, 0, 0); stroke-opacity: 1; stroke-width: 1px; fill: none;"/><path class="point" transform="translate(236.92,80.6)" d="M4,0A4,4 0 1,1 0,-4A4,4 0 0,1 4,0ZM0,0.5L0.5,0L0,-0.5L-0.5,0Z" style="opacity: 1; stroke: rgb(0, 0, 0); stroke-opacity: 1; stroke-width: 1px; fill: none;"/><path class="point" transform="translate(245.38,80.6)" d="M4,0A4,4 0 1,1 0,-4A4,4 0 0,1 4,0ZM0,0.5L0.5,0L0,-0.5L-0.5,0Z" style="opacity: 1; stroke: rgb(0, 0, 0); stroke-opacity: 1; stroke-width: 1px; fill: none;"/></g><g class="text"/></g></g></g><g class="overplot"/><path class="xlines-above crisp" d="M0,0" style="fill: none;"/><path class="ylines-above crisp" d="M0,0" style="fill: none;"/><g class="overlines-above"/><g class="xaxislayer-above"/><g class="yaxislayer-above"><g class="y2tick"><text text-anchor="end" x="79" y="4.199999999999999" transform="translate(0,472.00000000000006)" style="font-family: 'Open Sans', verdana, arial, sans-serif; font-size: 12px; fill: rgb(42, 63, 95); fill-opacity: 1; white-space: pre; opacity: 1;">20</text></g><g class="y2tick"><text text-anchor="end" x="79" y="4.199999999999999" style="font-family: 'Open Sans', verdana, arial, sans-serif; font-size: 12px; fill: rgb(42, 63, 95); fill-opacity: 1; white-space: pre; opacity: 1;" transform="translate(0,410.00000000000006)">30</text></g><g class="y2tick"><text text-anchor="end" x="79" y="4.199999999999999" style="font-family: 'Open Sans', verdana, arial, sans-serif; font-size: 12px; fill: rgb(42, 63, 95); fill-opacity: 1; white-space: pre; opacity: 1;" transform="translate(0,348.00000000000006)">40</text></g></g><g class="overaxes-above"/></g><g class="subplot x3y3"><g class="layer-subplot"><g class="shapelayer"/><g class="imagelayer"/></g><g class="minor-gridlayer"><g class="x3"/><g class="y3"/></g><g class="gridlayer"><g class="x3"><path class="x3grid crisp" transform="translate(156.15,0)" d="M0,534v186" style="stroke: rgb(255, 255, 255); stroke-opacity: 1; stroke-width: 1px;"/><path class="x3grid crisp" transform="translate(240.77,0)" d="M0,534v186" style="stroke: rgb(255, 255, 255); stroke-opacity: 1; stroke-width: 1px;"/><path class="x3grid crisp" transform="translate(325.38,0)" d="M0,534v186" style="stroke: rgb(255, 255, 255); stroke-opacity: 1; stroke-width: 1px;"/><path class="x3grid crisp" transform="translate(410,0)" d="M0,534v186" style="stroke: rgb(255, 255, 255); stroke-opacity: 1; stroke-width: 1px;"/><path class="x3grid crisp" transform="translate(494.62,0)" d="M0,534v186" style="stroke: rgb(255, 255, 255); stroke-opacity: 1; stroke-width: 1px;"/></g><g class="y3"><path class="y3grid crisp" transform="translate(0,682.8)" d="M80,0h440" style="stroke: rgb(255, 255, 255); stroke-opacity: 1; stroke-width: 1px;"/><path class="y3grid crisp" transform="translate(0,645.6)" d="M80,0h440" style="stroke: rgb(255, 255, 255); stroke-opacity: 1; stroke-width: 1px;"/><path class="y3grid crisp" transform="translate(0,608.4)" d="M80,0h440" style="stroke: rgb(255, 255, 255); stroke-opacity: 1; stroke-width: 1px;"/><path class="y3grid crisp" transform="translate(0,571.2)" d="M80,0h440" style="stroke: rgb(255, 255, 255); stroke-opacity: 1; stroke-width: 1px;"/></g></g><g class="zerolinelayer"/><path class="xlines-below"/><path class="ylines-below"/><g class="overlines-below"/><g class="xaxislayer-below"/><g class="yaxislayer-below"/><g class="overaxes-below"/><g class="plot" transform="translate(80,534)" clip-path="url(#clip1ec170x3y3plot)"><g class="scatterlayer mlayer"><g class="trace scatter trace706418" style="stroke-miterlimit: 2;"><g class="fills"><g><path class="js-fill" d="M0,116.79L8.46,129.27L16.92,119.81L25.38,118.81L33.85,116.05L42.31,105.29L50.77,102.23L59.23,94.82L67.69,81.31L76.15,80.6L84.62,69.94L93.08,69.74L101.54,62.01L118.46,59.54L126.92,53.77L135.38,54.59L143.85,52.84L152.31,46.49L160.77,43.95L177.69,40.15L186.15,40.41L194.62,38.36L203.08,38.64L211.54,37.8L220,37.75L245.38,39.33L253.85,39.33L262.31,37.99L270.77,38.5L279.23,39.3L287.69,39.11L304.62,41.74L313.08,41.38L330,42.3L338.46,45.74L346.92,50.75L355.38,50.2L363.85,57.58L372.31,63.55L380.77,70.44L389.23,80.62L397.69,89.84L406.15,100.82L414.62,103.91L423.08,117.12L431.54,115.5L440,129.35L440,134.77L431.54,134.69L423.08,125.23L414.62,121.84L406.15,112L397.69,109.2L389.23,94.72L380.77,78.12L372.31,74.9L363.85,60.58L355.38,51.92L346.92,54.94L338.46,49.6L330,46.62L321.54,45.9L313.08,47.32L304.62,45.11L296.15,41.89L287.69,41.2L279.23,43.19L253.85,42.18L245.38,44.43L236.92,41.2L228.46,40.74L203.08,42.48L194.62,41.57L186.15,43.46L177.69,44.85L169.23,45.39L160.77,50.43L152.31,52.82L143.85,58.24L135.38,64.88L126.92,64.99L118.46,70.05L110,71.12L101.54,74.16L93.08,82.16L84.62,89.08L76.15,94.76L67.69,89.59L59.23,108.38L50.77,122.67L42.31,121.87L33.85,140.29L25.38,139.03L16.92,129.96L8.46,136.62L0,124.25Z" style="fill: rgb(90, 180, 172); fill-opacity: 1; stroke-width: 0;"/></g></g><g class="errorbars"/><g class="lines"><path class="js-line" d="M0,124.25L8.46,136.62L16.92,129.96L25.38,139.03L33.85,140.29L42.31,121.87L50.77,122.67L59.23,108.38L67.69,89.59L76.15,94.76L84.62,89.08L93.08,82.16L101.54,74.16L110,71.12L118.46,70.05L126.92,64.99L135.38,64.88L143.85,58.24L152.31,52.82L160.77,50.43L169.23,45.39L177.69,44.85L186.15,43.46L194.62,41.57L203.08,42.48L228.46,40.74L236.92,41.2L245.38,44.43L253.85,42.18L279.23,43.19L287.69,41.2L296.15,41.89L304.62,45.11L313.08,47.32L321.54,45.9L330,46.62L338.46,49.6L346.92,54.94L355.38,51.92L363.85,60.58L372.31,74.9L380.77,78.12L389.23,94.72L397.69,109.2L406.15,112L414.62,121.84L423.08,125.23L431.54,134.69L440,134.77" style="vector-effect: non-scaling-stroke; fill: none; stroke: rgb(0, 0, 0); stroke-opacity: 1; stroke-width: 0.25px; opacity: 1;"/></g><g class="points"/><g class="text"/></g><g class="trace scatter tracef94e62" style="stroke-miterlimit: 2;"><g class="fills"><g><path class="js-fill" d="M0,112.66L8.46,118.13L16.92,111.66L25.38,107.47L33.85,108.98L42.31,98.93L50.77,91.11L59.23,84.7L67.69,74.14L76.15,71.69L84.62,64.47L93.08,58.7L101.54,56.2L110,57.29L118.46,52.83L126.92,49.49L135.38,49.36L143.85,49.66L152.31,44.89L160.77,40.82L169.23,40.77L186.15,37.63L194.62,37.07L211.54,36.37L220,35.51L236.92,36.98L245.38,37.81L253.85,38.33L262.31,34.86L270.77,36.91L279.23,36.98L296.15,38.82L304.62,39.51L313.08,39.99L321.54,39.37L330,40.32L338.46,42.85L346.92,44.22L355.38,47.55L363.85,54.94L372.31,59.36L380.77,66.36L389.23,74.76L397.69,83.37L406.15,87.25L414.62,96.07L423.08,100.83L440,117.74L440,129.35L431.54,115.5L423.08,117.12L414.62,103.91L406.15,100.82L397.69,89.84L389.23,80.62L380.77,70.44L372.31,63.55L363.85,57.58L355.38,50.2L346.92,50.75L338.46,45.74L330,42.3L313.08,41.38L304.62,41.74L287.69,39.11L279.23,39.3L270.77,38.5L262.31,37.99L253.85,39.33L245.38,39.33L220,37.75L211.54,37.8L203.08,38.64L194.62,38.36L186.15,40.41L177.69,40.15L160.77,43.95L152.31,46.49L143.85,52.84L135.38,54.59L126.92,53.77L118.46,59.54L101.54,62.01L93.08,69.74L84.62,69.94L76.15,80.6L67.69,81.31L59.23,94.82L50.77,102.23L42.31,105.29L33.85,116.05L25.38,118.81L16.92,119.81L8.46,129.27L0,116.79Z" style="fill: rgb(245, 245, 245); fill-opacity: 1; stroke-width: 0;"/></g></g><g class="errorbars"/><g class="lines"><path class="js-line" d="M0,116.79L8.46,129.27L16.92,119.81L25.38,118.81L33.85,116.05L42.31,105.29L50.77,102.23L59.23,94.82L67.69,81.31L76.15,80.6L84.62,69.94L93.08,69.74L101.54,62.01L118.46,59.54L126.92,53.77L135.38,54.59L143.85,52.84L152.31,46.49L160.77,43.95L177.69,40.15L186.15,40.41L194.62,38.36L203.08,38.64L211.54,37.8L220,37.75L245.38,39.33L253.85,39.33L262.31,37.99L270.77,38.5L279.23,39.3L287.69,39.11L304.62,41.74L313.08,41.38L330,42.3L338.46,45.74L346.92,50.75L355.38,50.2L363.85,57.58L372.31,63.55L380.77,70.44L389.23,80.62L397.69,89.84L406.15,100.82L414.62,103.91L423.08,117.12L431.54,115.5L440,129.35" style="vector-effect: non-scaling-stroke; fill: none; stroke: rgb(0, 0, 0); stroke-opacity: 1; stroke-width: 0.5px; opacity: 1;"/></g><g class="points"/><g class="text"/></g><g class="trace scatter trace84808b" style="stroke-miterlimit: 2;"><g class="fills"><g><path class="js-fill" d="M0,105.7L8.46,111.26L16.92,107.83L25.38,104.97L33.85,97.1L42.31,90.43L50.77,84.73L67.69,69.72L76.15,66.74L84.62,54.51L93.08,52.41L101.54,51.04L110,52.26L118.46,47.29L126.92,44.75L135.38,43.53L143.85,43.51L169.23,36.2L177.69,36.73L186.15,34.88L194.62,35.05L211.54,34.82L220,34.61L228.46,33.89L236.92,35.76L245.38,34.9L253.85,35.28L262.31,31.8L270.77,33.54L287.69,34.78L296.15,35.18L304.62,37.02L313.08,36.67L321.54,37.25L330,36.23L338.46,38.88L346.92,39.18L355.38,45.65L363.85,49.74L372.31,54.92L380.77,61.93L389.23,68.52L397.69,73.19L406.15,80.98L414.62,86.01L423.08,88.33L431.54,96.71L440,115.1L440,117.74L423.08,100.83L414.62,96.07L406.15,87.25L397.69,83.37L389.23,74.76L380.77,66.36L372.31,59.36L363.85,54.94L355.38,47.55L346.92,44.22L338.46,42.85L330,40.32L321.54,39.37L313.08,39.99L304.62,39.51L296.15,38.82L279.23,36.98L270.77,36.91L262.31,34.86L253.85,38.33L245.38,37.81L236.92,36.98L220,35.51L211.54,36.37L194.62,37.07L186.15,37.63L169.23,40.77L160.77,40.82L152.31,44.89L143.85,49.66L135.38,49.36L126.92,49.49L118.46,52.83L110,57.29L101.54,56.2L93.08,58.7L84.62,64.47L76.15,71.69L67.69,74.14L59.23,84.7L50.77,91.11L42.31,98.93L33.85,108.98L25.38,107.47L16.92,111.66L8.46,118.13L0,112.66Z" style="fill: rgb(245, 245, 245); fill-opacity: 1; stroke-width: 0;"/></g></g><g class="errorbars"/><g class="lines"><path class="js-line" d="M0,112.66L8.46,118.13L16.92,111.66L25.38,107.47L33.85,108.98L42.31,98.93L50.77,91.11L59.23,84.7L67.69,74.14L76.15,71.69L84.62,64.47L93.08,58.7L101.54,56.2L110,57.29L118.46,52.83L126.92,49.49L135.38,49.36L143.85,49.66L152.31,44.89L160.77,40.82L169.23,40.77L186.15,37.63L194.62,37.07L211.54,36.37L220,35.51L236.92,36.98L245.38,37.81L253.85,38.33L262.31,34.86L270.77,36.91L279.23,36.98L296.15,38.82L304.62,39.51L313.08,39.99L321.54,39.37L330,40.32L338.46,42.85L346.92,44.22L355.38,47.55L363.85,54.94L372.31,59.36L380.77,66.36L389.23,74.76L397.69,83.37L406.15,87.25L414.62,96.07L423.08,100.83L440,117.74" style="vector-effect: non-scaling-stroke; fill: none; stroke: rgb(0, 0, 0); stroke-opacity: 1; stroke-width: 1px; opacity: 1;"/></g><g class="points"/><g class="text"/></g><g class="trace scatter traced02484" style="stroke-miterlimit: 2;"><g class="fills"><g><path class="js-fill" d="M0,97.36L8.46,100.14L16.92,92.82L25.38,92.08L33.85,93.45L42.31,80.73L50.77,59.06L59.23,66.48L67.69,53.74L76.15,47.14L84.62,47.55L93.08,41.64L101.54,40.76L110,42.86L118.46,41.41L126.92,38.93L135.38,31.59L143.85,32.33L152.31,34.22L160.77,36.87L169.23,29.02L177.69,32.79L186.15,31.25L194.62,31.24L203.08,30.25L211.54,32.96L220,32.27L236.92,31.38L245.38,32.33L253.85,31.09L262.31,23.31L270.77,28.88L279.23,27.55L287.69,31.54L296.15,28.25L304.62,34.94L313.08,31L321.54,32.3L330,30.22L346.92,31.59L355.38,39.24L363.85,44.5L372.31,42.73L380.77,54.41L389.23,60.88L397.69,70.01L406.15,68.74L414.62,77.02L423.08,79.52L431.54,89.58L440,95.23L440,115.1L431.54,96.71L423.08,88.33L414.62,86.01L406.15,80.98L397.69,73.19L389.23,68.52L380.77,61.93L372.31,54.92L363.85,49.74L355.38,45.65L346.92,39.18L338.46,38.88L330,36.23L321.54,37.25L313.08,36.67L304.62,37.02L296.15,35.18L287.69,34.78L270.77,33.54L262.31,31.8L253.85,35.28L245.38,34.9L236.92,35.76L228.46,33.89L220,34.61L211.54,34.82L194.62,35.05L186.15,34.88L177.69,36.73L169.23,36.2L143.85,43.51L135.38,43.53L126.92,44.75L118.46,47.29L110,52.26L101.54,51.04L93.08,52.41L84.62,54.51L76.15,66.74L67.69,69.72L50.77,84.73L42.31,90.43L33.85,97.1L25.38,104.97L16.92,107.83L8.46,111.26L0,105.7Z" style="fill: rgb(216, 179, 101); fill-opacity: 1; stroke-width: 0;"/></g></g><g class="errorbars"/><g class="lines"><path class="js-line" d="M0,105.7L8.46,111.26L16.92,107.83L25.38,104.97L33.85,97.1L42.31,90.43L50.77,84.73L67.69,69.72L76.15,66.74L84.62,54.51L93.08,52.41L101.54,51.04L110,52.26L118.46,47.29L126.92,44.75L135.38,43.53L143.85,43.51L169.23,36.2L177.69,36.73L186.15,34.88L194.62,35.05L211.54,34.82L220,34.61L228.46,33.89L236.92,35.76L245.38,34.9L253.85,35.28L262.31,31.8L270.77,33.54L287.69,34.78L296.15,35.18L304.62,37.02L313.08,36.67L321.54,37.25L330,36.23L338.46,38.88L346.92,39.18L355.38,45.65L363.85,49.74L372.31,54.92L380.77,61.93L389.23,68.52L397.69,73.19L406.15,80.98L414.62,86.01L423.08,88.33L431.54,96.71L440,115.1" style="vector-effect: non-scaling-stroke; fill: none; stroke: rgb(0, 0, 0); stroke-opacity: 1; stroke-width: 0.5px; opacity: 1;"/></g><g class="points"/><g class="text"/></g><g class="trace scatter traceff5a2e" style="stroke-miterlimit: 2;"><g class="fills"/><g class="errorbars"/><g class="lines"><path class="js-line" d="M0,97.36L8.46,100.14L16.92,92.82L25.38,92.08L33.85,93.45L42.31,80.73L50.77,59.06L59.23,66.48L67.69,53.74L76.15,47.14L84.62,47.55L93.08,41.64L101.54,40.76L110,42.86L118.46,41.41L126.92,38.93L135.38,31.59L143.85,32.33L152.31,34.22L160.77,36.87L169.23,29.02L177.69,32.79L186.15,31.25L194.62,31.24L203.08,30.25L211.54,32.96L220,32.27L236.92,31.38L245.38,32.33L253.85,31.09L262.31,23.31L270.77,28.88L279.23,27.55L287.69,31.54L296.15,28.25L304.62,34.94L313.08,31L321.54,32.3L330,30.22L346.92,31.59L355.38,39.24L363.85,44.5L372.31,42.73L380.77,54.41L389.23,60.88L397.69,70.01L406.15,68.74L414.62,77.02L423.08,79.52L431.54,89.58L440,95.23" style="vector-effect: non-scaling-stroke; fill: none; stroke: rgb(0, 0, 0); stroke-opacity: 1; stroke-width: 0.25px; opacity: 1;"/></g><g class="points"/><g class="text"/></g><g class="trace scatter trace06209c" style="stroke-miterlimit: 2; opacity: 1;"><g class="fills"/><g class="errorbars"/><g class="lines"/><g class="points"><path class="point" transform="translate(220,22.32)" d="M4,0A4,4 0 1,1 0,-4A4,4 0 0,1 4,0ZM0,0.5L0.5,0L0,-0.5L-0.5,0Z" style="opacity: 1; stroke: rgb(0, 0, 0); stroke-opacity: 1; stroke-width: 1px; fill: none;"/><path class="point" transform="translate(228.46,29.76)" d="M4,0A4,4 0 1,1 0,-4A4,4 0 0,1 4,0ZM0,0.5L0.5,0L0,-0.5L-0.5,0Z" style="opacity: 1; stroke: rgb(0, 0, 0); stroke-opacity: 1; stroke-width: 1px; fill: none;"/><path class="point" transform="translate(236.92,22.32)" d="M4,0A4,4 0 1,1 0,-4A4,4 0 0,1 4,0ZM0,0.5L0.5,0L0,-0.5L-0.5,0Z" style="opacity: 1; stroke: rgb(0, 0, 0); stroke-opacity: 1; stroke-width: 1px; fill: none;"/><path class="point" transform="translate(245.38,22.32)" d="M4,0A4,4 0 1,1 0,-4A4,4 0 0,1 4,0ZM0,0.5L0.5,0L0,-0.5L-0.5,0Z" style="opacity: 1; stroke: rgb(0, 0, 0); stroke-opacity: 1; stroke-width: 1px; fill: none;"/></g><g class="text"/></g></g></g><g class="overplot"/><path class="xlines-above crisp" d="M0,0" style="fill: none;"/><path class="ylines-above crisp" d="M0,0" style="fill: none;"/><g class="overlines-above"/><g class="xaxislayer-above"><g class="x3tick"><text text-anchor="middle" x="0" y="733" transform="translate(156.15,0)" style="font-family: 'Open Sans', verdana, arial, sans-serif; font-size: 12px; fill: rgb(42, 63, 95); fill-opacity: 1; white-space: pre; opacity: 1;">10</text></g><g class="x3tick"><text text-anchor="middle" x="0" y="733" style="font-family: 'Open Sans', verdana, arial, sans-serif; font-size: 12px; fill: rgb(42, 63, 95); fill-opacity: 1; white-space: pre; opacity: 1;" transform="translate(240.77,0)">20</text></g><g class="x3tick"><text text-anchor="middle" x="0" y="733" style="font-family: 'Open Sans', verdana, arial, sans-serif; font-size: 12px; fill: rgb(42, 63, 95); fill-opacity: 1; white-space: pre; opacity: 1;" transform="translate(325.38,0)">30</text></g><g class="x3tick"><text text-anchor="middle" x="0" y="733" style="font-family: 'Open Sans', verdana, arial, sans-serif; font-size: 12px; fill: rgb(42, 63, 95); fill-opacity: 1; white-space: pre; opacity: 1;" transform="translate(410,0)">40</text></g><g class="x3tick"><text text-anchor="middle" x="0" y="733" style="font-family: 'Open Sans', verdana, arial, sans-serif; font-size: 12px; fill: rgb(42, 63, 95); fill-opacity: 1; white-space: pre; opacity: 1;" transform="translate(494.62,0)">50</text></g></g><g class="yaxislayer-above"><g class="y3tick"><text text-anchor="end" x="79" y="4.199999999999999" transform="translate(0,720)" style="font-family: 'Open Sans', verdana, arial, sans-serif; font-size: 12px; fill: rgb(42, 63, 95); fill-opacity: 1; white-space: pre; opacity: 1;">5</text></g><g class="y3tick"><text text-anchor="end" x="79" y="4.199999999999999" style="font-family: 'Open Sans', verdana, arial, sans-serif; font-size: 12px; fill: rgb(42, 63, 95); fill-opacity: 1; white-space: pre; opacity: 1;" transform="translate(0,682.8)">10</text></g><g class="y3tick"><text text-anchor="end" x="79" y="4.199999999999999" style="font-family: 'Open Sans', verdana, arial, sans-serif; font-size: 12px; fill: rgb(42, 63, 95); fill-opacity: 1; white-space: pre; opacity: 1;" transform="translate(0,645.6)">15</text></g><g class="y3tick"><text text-anchor="end" x="79" y="4.199999999999999" style="font-family: 'Open Sans', verdana, arial, sans-serif; font-size: 12px; fill: rgb(42, 63, 95); fill-opacity: 1; white-space: pre; opacity: 1;" transform="translate(0,608.4)">20</text></g><g class="y3tick"><text text-anchor="end" x="79" y="4.199999999999999" style="font-family: 'Open Sans', verdana, arial, sans-serif; font-size: 12px; fill: rgb(42, 63, 95); fill-opacity: 1; white-space: pre; opacity: 1;" transform="translate(0,571.2)">25</text></g><g class="y3tick"><text text-anchor="end" x="79" y="4.199999999999999" style="font-family: 'Open Sans', verdana, arial, sans-serif; font-size: 12px; fill: rgb(42, 63, 95); fill-opacity: 1; white-space: pre; opacity: 1;" transform="translate(0,534)">30</text></g></g><g class="overaxes-above"/></g></g><g class="polarlayer"/><g class="smithlayer"/><g class="ternarylayer"/><g class="geolayer"/><g class="funnelarealayer"/><g class="pielayer"/><g class="iciclelayer"/><g class="treemaplayer"/><g class="sunburstlayer"/><g class="glimages"/><defs id="topdefs-1ec170"><g class="clips"/></defs><g class="layer-above"><g class="imagelayer"/><g class="shapelayer"/></g><g class="infolayer"><g class="g-gtitle"><text class="gtitle" x="30" y="50" text-anchor="start" dy="0em" style="font-family: 'Open Sans', verdana, arial, sans-serif; font-size: 17px; fill: rgb(42, 63, 95); opacity: 1; font-weight: normal; white-space: pre;">Climatology and S2S forecast for Brahmanbaria</text></g><g class="g-xtitle"/><g class="g-x2title"/><g class="g-x3title"/><g class="g-ytitle"><text class="ytitle" transform="rotate(-90,34.16875,193)" x="34.16875" y="193" text-anchor="middle" style="font-family: 'Open Sans', verdana, arial, sans-serif; font-size: 14px; fill: rgb(42, 63, 95); opacity: 1; font-weight: normal; white-space: pre;">[mm]</text></g><g class="g-y2title"><text class="y2title" transform="rotate(-90,40.840625,410.00000000000006)" x="40.840625" y="410.00000000000006" text-anchor="middle" style="font-family: 'Open Sans', verdana, arial, sans-serif; font-size: 14px; fill: rgb(42, 63, 95); opacity: 1; font-weight: normal; white-space: pre;">[C]</text></g><g class="g-y3title"><text class="y3title" transform="rotate(-90,40.840625,627)" x="40.840625" y="627" text-anchor="middle" style="font-family: 'Open Sans', verdana, arial, sans-serif; font-size: 14px; fill: rgb(42, 63, 95); opacity: 1; font-weight: normal; white-space: pre;">[C]</text></g><g class="annotation" data-index="0" style="opacity: 1;"><g class="annotation-text-g" transform="rotate(0,300,89.5)"><g class="cursor-pointer" transform="translate(237,79)"><rect class="bg" x="0.5" y="0.5" width="126" height="20" style="stroke-width: 1px; stroke: rgb(0, 0, 0); stroke-opacity: 0; fill: rgb(0, 0, 0); fill-opacity: 0;"/><text class="annotation-text" text-anchor="middle" x="63.359375" y="16" style="font-family: 'Open Sans', verdana, arial, sans-serif; font-size: 16px; fill: rgb(42, 63, 95); fill-opacity: 1; white-space: pre;">Precipitation sum</text></g></g></g><g class="annotation" data-index="1" style="opacity: 1;"><g class="annotation-text-g" transform="rotate(0,300,306.50000000000006)"><g class="cursor-pointer" transform="translate(196,296)"><rect class="bg" x="0.5" y="0.5" width="208" height="20" style="stroke-width: 1px; stroke: rgb(0, 0, 0); stroke-opacity: 0; fill: rgb(0, 0, 0); fill-opacity: 0;"/><text class="annotation-text" text-anchor="middle" x="104.265625" y="16" style="font-family: 'Open Sans', verdana, arial, sans-serif; font-size: 16px; fill: rgb(42, 63, 95); fill-opacity: 1; white-space: pre;">Mean maximum temperature</text></g></g></g><g class="annotation" data-index="2" style="opacity: 1;"><g class="annotation-text-g" transform="rotate(0,300,523.5)"><g class="cursor-pointer" transform="translate(198,513)"><rect class="bg" x="0.5" y="0.5" width="203" height="20" style="stroke-width: 1px; stroke: rgb(0, 0, 0); stroke-opacity: 0; fill: rgb(0, 0, 0); fill-opacity: 0;"/><text class="annotation-text" text-anchor="middle" x="102.046875" y="16" style="font-family: 'Open Sans', verdana, arial, sans-serif; font-size: 16px; fill: rgb(42, 63, 95); fill-opacity: 1; white-space: pre;">Mean minimum temperature</text></g></g></g><g class="annotation" data-index="3" style="opacity: 1;"><g class="annotation-text-g" transform="rotate(0,300,760.5)"><g class="cursor-pointer" transform="translate(277,750)"><rect class="bg" x="0.5" y="0.5" width="45" height="20" style="stroke-width: 1px; stroke: rgb(0, 0, 0); stroke-opacity: 0; fill: rgb(0, 0, 0); fill-opacity: 0;"/><text class="annotation-text" text-anchor="middle" x="22.3125" y="16" style="font-family: 'Open Sans', verdana, arial, sans-serif; font-size: 16px; fill: rgb(42, 63, 95); fill-opacity: 1; white-space: pre;">Week</text></g></g></g></g></svg>